<?xml version="1.0" encoding="UTF-8"?>
<svg id="_レイヤー_2" data-name="レイヤー 2" xmlns="http://www.w3.org/2000/svg" viewBox="0 0 1125 189">
  <defs>
    <style>
      .cls-1 {
        fill: #fff;
      }

      .cls-2 {
        fill: #44af35;
      }

      .cls-3 {
        fill: #323232;
      }
    </style>
  </defs>
  <g id="_レイヤー_1-2" data-name="レイヤー 1">
    <g>
      <rect class="cls-3" width="1125" height="189"/>
      <g>
        <path class="cls-1" d="M211.21,79.34c-2.92,0-3.61.05-5.09.23.51-3.66.65-4.35,1.34-6.11,1.16-2.92,3.1-5.46,6.02-7.96,1.62-1.39,1.71-1.44,7.08-5.09,4.58-3.1,6.11-5.14,6.11-7.96,0-3.52-2.96-5.79-7.68-5.79-3.06,0-5.32,1.02-6.71,3.01-.88,1.25-1.3,2.36-1.62,4.68l-3.89-.65c.69-3.33,1.39-4.95,2.92-6.67,2.08-2.36,5.23-3.56,9.31-3.56,6.99,0,11.48,3.52,11.48,8.98,0,2.36-.93,4.58-2.73,6.57-1.39,1.57-2.59,2.45-7.87,5.97-3.66,2.45-5.14,3.75-6.67,5.69-1.43,1.9-2.08,3.15-2.64,5.37h14.77c2.31,0,3.89-.09,5.65-.32v3.89c-1.85-.19-3.38-.28-5.69-.28h-14.07Z"/>
        <path class="cls-1" d="M240.51,76.75c-1.25-1.25-2.22-2.69-2.78-4.26-1.16-3.24-1.76-6.9-1.76-10.69,0-4.91,1.06-9.91,2.69-12.59,2.22-3.75,5.79-5.69,10.37-5.69,3.43,0,6.39,1.11,8.47,3.29,1.3,1.3,2.22,2.73,2.78,4.26,1.16,3.19,1.76,6.9,1.76,10.74,0,5.6-1.2,10.56-3.24,13.38-2.31,3.24-5.55,4.86-9.81,4.86-3.43,0-6.3-1.11-8.47-3.29ZM243.2,49.06c-.97,1.06-1.71,2.22-2.08,3.38-.97,2.82-1.43,5.97-1.43,9.35,0,4.31.93,8.84,2.18,11.02,1.62,2.69,4.03,4.03,7.18,4.03,2.31,0,4.3-.74,5.69-2.18,1.02-1.06,1.76-2.27,2.18-3.61.97-2.87,1.43-5.93,1.43-9.35,0-4.03-.88-8.61-2.08-10.79-1.53-2.78-4.03-4.21-7.27-4.21-2.41,0-4.31.79-5.79,2.36Z"/>
        <path class="cls-1" d="M272.04,79.34c-2.92,0-3.61.05-5.09.23.51-3.66.65-4.35,1.34-6.11,1.16-2.92,3.1-5.46,6.02-7.96,1.62-1.39,1.71-1.44,7.08-5.09,4.58-3.1,6.11-5.14,6.11-7.96,0-3.52-2.96-5.79-7.68-5.79-3.06,0-5.32,1.02-6.71,3.01-.88,1.25-1.3,2.36-1.62,4.68l-3.89-.65c.69-3.33,1.39-4.95,2.92-6.67,2.08-2.36,5.23-3.56,9.31-3.56,6.99,0,11.48,3.52,11.48,8.98,0,2.36-.93,4.58-2.73,6.57-1.39,1.57-2.59,2.45-7.87,5.97-3.66,2.45-5.14,3.75-6.67,5.69-1.43,1.9-2.08,3.15-2.64,5.37h14.77c2.31,0,3.89-.09,5.65-.32v3.89c-1.85-.19-3.38-.28-5.69-.28h-14.07Z"/>
        <path class="cls-1" d="M302.79,57.58q-.09.83-.37,2.08c2.22-2.13,4.91-3.19,8.1-3.19,3.38,0,6.25,1.11,8.33,3.15,2.08,1.99,3.1,4.72,3.1,8.15,0,7.45-4.86,12.22-12.5,12.22-3.61,0-6.62-1.06-8.84-3.15-1.16-1.16-1.8-2.13-2.92-4.35l3.8-1.11c.46,1.3.79,1.9,1.48,2.69,1.57,1.76,3.89,2.73,6.57,2.73,5.18,0,8.66-3.52,8.66-8.84s-3.19-8.43-8.1-8.43c-2.36,0-4.4.65-6.07,1.94-1.11.88-1.62,1.53-2.13,2.78l-3.47-.32c.37-1.81.51-2.78.69-4.77l1.02-10.46c.09-1.34.14-1.9.14-2.78,0-.65,0-.83-.09-1.99,1.43.19,2.18.23,4.91.23h9.54c2.5,0,3.56-.09,5.42-.37v3.94c-1.76-.28-3.24-.37-5.42-.37h-10.88l-.97,10.23Z"/>
        <path class="cls-1" d="M357.88,45.82c0-2.27-.09-3.38-.32-4.81h3.7c-.23,1.44-.32,2.73-.32,4.72v4.07h13.56c1.57,0,2.45-.05,3.52-.19-.18,1.2-.23,2.18-.23,3.66v12.64c0,1.53.09,2.73.28,4.12h-3.33v-3.15h-13.8v10.79c0,2.64.05,3.8.32,5.28h-3.7c.23-1.57.32-2.78.32-5.28v-10.79h-13.05v3.15h-3.33c.18-1.34.28-2.64.28-4.12v-12.64c0-1.44-.09-2.45-.23-3.66,1.11.14,1.99.19,3.47.19h12.87v-3.98ZM344.83,52.58v11.53h13.05v-11.53h-13.05ZM374.74,64.11v-11.53h-13.8v11.53h13.8Z"/>
        <path class="cls-1" d="M385.44,59.48c1.06.19,1.9.23,3.56.23h2.41c1.48,0,2.45-.05,3.57-.23-.19,1.44-.23,2.45-.23,4.86v9.12c.74,1.57,1.3,2.31,2.31,3.06,2.64,1.9,5.32,2.5,11.39,2.5,9.21,0,15-.28,19.44-.93-.69,1.57-.79,1.9-1.06,3.38-4.72.23-9.63.32-15.28.32-8.38,0-10.79-.28-13.52-1.57-1.94-.93-3.47-2.31-4.81-4.4-2.13,2.08-3.06,2.92-5.6,4.91-.46.32-.93.74-1.67,1.39l-1.53-3.06c1.94-.88,4.86-3.06,7.45-5.6v-11.2h-3.05c-1.48,0-2.32.05-3.38.23v-3.01ZM388.03,41.98c3.19,3.01,4.81,4.81,7.36,8.1l-2.36,2.08c-2.41-3.52-3.98-5.32-7.13-8.33l2.13-1.85ZM412.89,41.38c2.13,2.82,3.93,4.58,6.81,6.76,2.73,2.04,4.72,3.15,8.1,4.58-.79.83-1.44,1.76-1.9,2.69-6.39-3.43-10.28-6.48-14.4-11.3-4.21,5-7.87,7.96-13.98,11.25-.56-1.06-.97-1.62-1.81-2.5,3.89-1.81,6.25-3.29,9.17-5.79,2.27-1.94,3.56-3.33,5.23-5.69h2.78ZM405.95,65.36c-2.27,4.03-3.98,6.16-7.18,9.07-.79-.97-1.06-1.2-2.22-1.99,3.57-2.96,4.91-4.58,6.9-8.29l2.5,1.2ZM406.5,54.85c-1.67,0-2.55.05-3.61.23v-2.92c1.06.19,1.85.23,3.7.23h10.05c1.85,0,2.59-.05,3.66-.23v2.92c-1.11-.19-1.85-.23-3.56-.23h-3.38v4.86h8.7c1.81,0,3.01-.09,4.17-.28v3.01c-1.34-.19-2.5-.23-4.17-.23h-8.7v10.56c0,2.59-.93,3.19-5.05,3.19-.65,0-.97,0-2.87-.09-.23-1.2-.51-1.99-1.02-2.96,1.62.32,3.06.46,4.54.46,1.3,0,1.57-.19,1.57-1.02v-10.14h-9.4c-1.62,0-2.69.05-4.03.23v-3.01c1.07.19,2.27.28,4.07.28h9.35v-4.86h-4.03ZM419.14,64.16c2.5,3.8,4.07,5.6,7.59,8.38-1.11.69-1.48,1.06-2.45,2.04-3.33-3.1-5.09-5.23-7.45-9.12l2.32-1.3Z"/>
        <path class="cls-1" d="M441.92,78.6c0,1.94.09,3.29.28,4.54h-3.43c.18-1.34.28-2.64.28-4.58v-14.4c-2.27,2.27-3.52,3.33-6.39,5.46-.51-1.11-.88-1.67-1.71-2.59,3.24-2.04,5.79-4.12,8.33-6.85,2.41-2.59,3.94-4.86,5.74-8.61h-8.66c-1.39,0-2.41.05-3.7.19v-3.06c1.25.14,2.27.19,3.61.19h2.73v-4.31c0-1.34-.09-2.55-.23-3.56h3.47c-.18.97-.28,2.18-.28,3.61v4.26h2.68c1.39,0,2.13-.05,2.69-.14l1.43,1.62c-.32.51-.6,1.02-1.11,1.99-1.39,2.82-2.92,5.19-5.09,7.87,2.36,2.73,4.26,4.35,7.45,6.3-.69.88-1.11,1.53-1.57,2.55-2.92-2.04-4.63-3.56-6.53-5.83v15.37ZM457.99,45.36c0-1.57-.09-2.45-.32-4.21h3.66c-.28,1.62-.32,2.64-.32,4.21v10h6.06c1.99,0,3.24-.09,4.54-.28v3.24c-1.44-.14-2.92-.23-4.54-.23h-6.06v19.77h7.31c2.41,0,3.8-.09,5-.28v3.47c-1.53-.23-2.96-.32-5-.32h-16.67c-2.04,0-3.47.09-4.95.32v-3.47c1.2.19,2.59.28,5,.28h6.3v-19.77h-4.58c-1.57,0-3.1.09-4.54.23v-3.24c1.2.19,2.59.28,4.54.28h4.58v-10Z"/>
        <path class="cls-1" d="M493.32,77.3c-2.41,1.76-3.98,2.64-6.67,3.8-1.67.74-2.87,1.11-7.08,2.36-.69-1.25-1.06-1.71-2.08-2.69,5.74-.97,10.28-2.78,13.38-5.32l2.45,1.85ZM482.07,59.8c0-2.41-.05-3.8-.18-5.05,1.39.14,2.87.19,5.23.19h23.15c2.31,0,3.84-.05,5.23-.19-.14,1.16-.19,2.59-.19,5.05v10.79l.05,2.5v.79c0,.32.05.69.14,1.57-1.44-.14-2.78-.19-5.23-.19h-23.15c-2.45,0-3.75.05-5.23.19q.14-1.02.18-4.86v-10.79ZM513.64,48.88c0,1.34.05,2.22.19,3.24-1.39-.09-3.1-.14-5.23-.14h-19.77c-2.13,0-3.8.05-5.19.14.14-1.11.19-1.94.19-3.24v-2.92c0-1.3-.05-2.04-.19-3.33,1.44.19,2.64.23,5.28.23h19.63c2.64,0,3.8-.05,5.28-.23-.14,1.16-.19,1.9-.19,3.33v2.92ZM484.94,60.91h27.5v-3.52h-27.5v3.52ZM484.94,66.84h27.5v-3.61h-27.5v3.61ZM484.94,72.86h27.5v-3.7h-27.5v3.7ZM486.74,45.31v4.31h23.93v-4.31h-23.93ZM506.05,75.4c3.7,2.64,8.15,4.4,13.8,5.51-.88.83-1.48,1.62-1.99,2.59-7.08-2.04-9.58-3.15-14.03-6.3l2.22-1.81Z"/>
        <path class="cls-1" d="M548.79,62.03c0,2.08-1.71,3.8-3.8,3.8s-3.8-1.71-3.8-3.8,1.71-3.8,3.8-3.8,3.8,1.71,3.8,3.8Z"/>
        <path class="cls-1" d="M586.15,46.66c-.19.51-.23.79-.6,3.15-1.94,13.19-5.69,22.08-12.22,28.89-1.16-1.25-1.67-1.67-2.96-2.41,2.87-2.69,4.77-5.28,6.71-9.17,2.27-4.58,3.89-10,4.77-16.06.28-1.85.46-3.52.46-4.35,0-.14,0-.42-.05-.74l3.89.69ZM598.98,45.96c0,1.99,1.02,7.31,2.13,11.11,2.22,8.15,6.02,15,10.51,19.12-1.25.79-1.8,1.3-2.87,2.59-6.16-6.53-10.79-17.22-12.59-29.07-.23-1.62-.42-2.45-.6-3.06l3.43-.69ZM613.24,47.63c0,2.87-2.36,5.23-5.23,5.23s-5.28-2.36-5.28-5.23,2.36-5.23,5.28-5.23,5.23,2.31,5.23,5.23ZM604.67,47.63c0,1.81,1.48,3.29,3.33,3.29s3.29-1.48,3.29-3.29-1.48-3.29-3.29-3.29-3.33,1.48-3.33,3.29Z"/>
        <path class="cls-1" d="M618.47,59.94c1.34.23,2.59.28,5.74.28h26.9c3.43,0,4.17-.05,5.6-.23v3.75c-1.48-.14-2.55-.19-5.65-.19h-26.85c-3.38,0-4.35.05-5.74.19v-3.8Z"/>
        <path class="cls-1" d="M674.45,81.05c.19-1.25.28-2.36.28-4.86v-28.75c0-2.45-.09-3.56-.28-4.72h3.98c-.18,1.2-.23,2.18-.23,4.81v8.66c7.13,2.55,12.5,5.09,20.6,9.77l-1.99,3.43c-4.35-3.06-10.74-6.48-17.27-9.17-.69-.28-1.02-.46-1.44-.79l-.09.05c.14.93.18,1.57.18,2.73v13.93c0,2.59.05,3.61.23,4.91h-3.98Z"/>
        <path class="cls-1" d="M723.35,55.59c-.79-.09-1.71-.14-3.06-.14h-1.34c1.16,3.52,2.5,5.79,5,8.43-.65.65-1.11,1.3-1.62,2.22-1.71-2.27-2.55-3.84-3.7-7.13.14,2.22.23,5.09.23,6.99v11.71c0,2.64.09,4.07.28,5.32h-3.29c.19-1.3.28-2.87.28-5.28v-10.42c0-2.18.09-5.14.28-7.64-1.39,5.42-3.15,9.21-5.97,12.73-.51-.97-.88-1.48-1.76-2.41,3.33-3.8,5.93-9.17,7.08-14.54h-2.22c-1.85,0-2.73.05-3.94.23v-3.01c1.16.19,2.13.23,4.03.23h2.5v-6.85c-1.99.56-2.87.74-5.46,1.2-.28-1.02-.46-1.39-1.2-2.41,4.31-.56,7.69-1.44,10.79-2.87.97-.42,1.39-.65,1.9-1.06l1.71,2.41c-.65.23-1.02.42-1.11.46-1.16.51-2.45,1.02-3.89,1.48v7.64h1.48c1.48,0,2.31-.05,3.24-.19v1.67c.88.14,2.13.19,4.03.19h7.41v-2.96h-5.51c-1.85,0-2.87.05-3.89.23v-2.59c1.06.19,2.04.23,3.84.23h5.55v-2.73h-6.71c-1.8,0-2.78.05-3.89.23v-2.69c1.07.19,2.13.23,4.03.23h6.57c0-1.48-.09-2.41-.28-3.47h3.24c-.18,1.02-.28,1.94-.28,3.47h7.73c1.62,0,2.78-.09,4.17-.28v2.73c-1.2-.19-2.18-.23-4.07-.23h-7.82v2.73h6.3c2.08,0,3.15-.05,4.17-.23v2.59c-1.07-.19-2.13-.23-4.07-.23h-6.39v2.96h8.8c1.85,0,3.06-.09,4.31-.28v2.82c-1.39-.23-2.45-.28-4.31-.28h-18.89c-1.71,0-2.96.09-4.26.28v-1.53ZM733.3,78.14c-3.33,2.55-5.83,3.75-10.51,5.19-.56-1.06-.79-1.34-1.76-2.41,4.49-1.06,6.9-2.13,10.23-4.49l2.04,1.71ZM729.73,75.91c-2.22.05-3.61.09-4.17.14.14-.93.18-2.36.18-4.26v-8.56c0-2.36-.05-3.15-.18-4.17,1.06.09,2.18.14,4.07.14h14.07c1.99,0,2.92-.05,4.12-.14-.14.97-.19,1.85-.19,4.26v8.33c0,2.45.05,3.38.19,4.4-1.39-.09-2.41-.14-3.98-.14h-14.12ZM728.44,64.06h16.53v-2.64h-16.53v2.64ZM728.44,68.74h16.53v-2.64h-16.53v2.64ZM728.44,73.69h16.53v-2.92h-16.53v2.92ZM741.72,76.38c3.57,2.18,6.06,3.19,10.32,4.35-.74.83-1.11,1.39-1.71,2.55-4.4-1.44-6.9-2.64-10.42-5.09l1.81-1.81Z"/>
        <path class="cls-1" d="M760.99,45.64c0-2.59-.05-3.75-.23-4.77h3.15c-.19,1.25-.23,2.45-.23,4.72v4.4h1.25c1.3,0,2.18-.05,3.01-.19v2.87c-.6-.14-1.57-.19-2.96-.19h-1.2c.97,3.47,2.27,5.97,4.35,8.33-.74,1.06-.83,1.2-1.44,2.55-1.62-2.55-2.41-4.26-3.19-6.85.14,4.03.19,4.95.19,6.71v14.58c0,2.55.09,3.98.28,5.28h-3.24c.18-1.34.28-2.96.28-5.37v-13.06c0-1.99.09-4.31.23-7.13-1.44,6.11-2.64,9.4-5.18,13.75-.65-1.2-1.07-1.76-1.81-2.5,2.92-4.21,5.18-9.95,6.43-16.3h-1.85c-1.06,0-2.22.09-3.24.23v-2.92c.83.14,1.8.19,3.24.19h2.18v-4.35ZM766.22,78.23c1.39.19,2.64.28,4.77.28h21.48c2.22,0,3.66-.09,4.86-.28v3.15c-1.48-.19-2.82-.23-4.91-.23h-21.48c-1.94,0-3.29.05-4.72.23v-3.15ZM779.65,45.64c-.56,1.94-.83,2.73-1.57,4.54h1.85c2.32,0,3.01-.05,3.7-.14q-.09,1.81-.23,6.57c-.19,7.55-.65,13.56-1.25,16.53-.65,2.92-1.53,3.61-4.44,3.61-1.2,0-2.82-.09-4.03-.23-.05-1.25-.18-1.85-.51-2.82,1.81.37,3.19.56,4.44.56,1.71,0,1.85-.28,2.36-4.35.51-3.98.74-9.58.79-17.41h-4.07s-.97.05-2.73.09c1.16-1.94,2.18-4.49,2.87-6.94h-5.09c-1.94,0-3.43.09-4.81.23v-3.06c1.34.19,2.73.28,4.86.28h20.14c2.27,0,3.66-.09,4.91-.28v3.06c-1.39-.14-2.92-.23-4.86-.23h-12.31ZM771.04,70.68c-.93,0-1.57.05-2.55.09.05-.88.09-1.76.09-2.82v-10.56c0-.97-.05-1.76-.14-2.59.83.09,1.76.14,2.82.14h3.06c1.34,0,2.18-.05,3.01-.14-.09.74-.09,1.16-.09,2.45v11.16c0,.74.05,1.39.09,2.36-1.3-.09-1.76-.09-2.55-.09h-3.75ZM771.04,68.37h3.75v-11.16h-3.75v11.16ZM796.27,53.32c-1.11,6.39-2.27,10.23-4.12,13.8,1.76,2.87,3.15,4.44,5.74,6.44-.6.6-1.16,1.44-1.62,2.5-2.5-2.27-3.84-3.84-5.56-6.53-1.71,2.59-3.24,4.31-6.06,6.76-.51-.93-.97-1.44-1.81-2.13,3.01-2.27,4.63-4.07,6.48-6.99-1.85-3.61-2.69-6.39-3.61-12.36-.69.05-.88.05-1.44.14v-2.73c.88.14,1.9.19,3.66.19h5.14c.97,0,1.76-.05,2.64-.09l.56,1.02ZM788.12,54.8c.56,4.4,1.2,6.85,2.59,9.72,1.48-3.43,2.04-5.42,2.64-9.72h-5.23Z"/>
        <path class="cls-1" d="M805.44,53.04c-1.16,0-2.22.09-3.43.28v-3.15c1.16.19,2.13.28,3.47.28h2.64v-4.44c0-1.94-.09-3.15-.32-4.68h3.52c-.23,1.39-.32,2.73-.32,4.63v4.49h1.16c1.57,0,2.31-.05,3.15-.23v3.01c-1.02-.14-1.81-.19-3.1-.19h-1.2v8.8c1.76-.79,2.41-1.06,4.26-2.08v2.92c-1.71.83-2.22,1.06-4.26,1.99v14.63c0,2.73-.97,3.38-4.95,3.38-.69,0-1.81-.05-2.87-.09-.09-1.2-.23-1.9-.65-2.92,1.62.23,2.69.32,3.89.32,1.34,0,1.71-.28,1.71-1.3v-12.78c-1.57.65-2.13.83-3.15,1.25-.93.37-1.48.6-2.27,1.02l-.83-3.19c1.67-.28,3.15-.74,6.25-1.94v-10h-2.68ZM838.96,63.46c1.71,0,3.15-.09,4.4-.28v3.06c-1.3-.19-2.78-.28-4.4-.28h-8.29c3.43,5,7.87,8.61,13.98,11.39-.88.97-1.34,1.67-1.9,2.82-5.79-3.38-9.3-6.57-13.15-12.08.14,1.02.23,2.69.23,4.44v5.97c0,1.81.09,3.38.28,4.72h-3.29c.19-1.39.28-2.96.28-4.72v-5.88c0-1.67.09-3.29.23-4.49-3.24,5.14-6.44,8.19-12.36,11.81-.74-1.2-1.06-1.57-2.13-2.5,5.56-2.64,10.18-6.62,13.38-11.48h-6.48c-2.04,0-3.33.05-4.49.23v-2.96c1.11.19,2.31.23,4.49.23h7.36v-.56c0-1.39-.05-2.18-.23-2.96h3.19c-.19.79-.23,1.53-.23,2.96v.56h9.12ZM841.83,44.02q-.6.19-2.08.69c-5.74,2.08-13.8,3.47-22.96,3.98-.37-1.2-.6-1.71-1.16-2.69,6.02-.09,11.39-.69,16.34-1.85,3.47-.79,6.16-1.71,7.73-2.69l2.13,2.55ZM820.86,60.13c-1.06-3.52-1.99-5.56-3.84-8.66l2.41-.97c1.9,3.06,2.59,4.58,3.98,8.52l-2.55,1.11ZM828.87,58.46c-.79-3.43-1.48-5.19-3.29-8.38l2.55-.79c1.71,2.92,2.5,4.91,3.43,8.38l-2.69.79ZM833.59,59.48c3.1-4.12,4.54-6.94,6.02-11.76l2.78,1.39c-2.08,5.05-3.61,7.78-6.39,11.53l-2.41-1.16Z"/>
        <path class="cls-1" d="M870.82,76.42c0,2.45.05,3.94.23,5.05h-3.33c.19-1.2.23-2.59.23-5.05v-8.75h-12.68c-.69,6.99-1.9,10.79-5,15.18-1.02-.97-1.48-1.3-2.69-1.99,1.99-2.59,3.01-4.68,3.75-7.82,1.02-4.26,1.44-11.02,1.44-22.45,0-4.68,0-5.56-.19-7.55,1.39.14,2.78.19,5.09.19h24.91c2.32,0,3.57-.05,4.91-.19-.14,1.25-.18,2.45-.18,4.54v31.06c0,2.92-1.07,3.61-5.56,3.61-1.48,0-3.8-.09-5.74-.23-.09-1.06-.28-1.85-.69-3.01,2.68.32,4.95.51,6.62.51,2.04,0,2.45-.23,2.45-1.39v-10.46h-13.56v8.75ZM855.68,56.75c-.05,1.3-.05,2.41-.05,3.06-.05,2.87-.05,3.06-.19,5.19h12.5v-8.24h-12.27ZM867.95,46.01h-12.18v5.51l-.05,2.59h12.22v-8.1ZM884.38,54.11v-8.1h-13.56v8.1h13.56ZM870.82,64.99h13.56v-8.24h-13.56v8.24Z"/>
        <path class="cls-1" d="M913.51,45.82c0-2.27-.09-3.38-.32-4.81h3.7c-.23,1.44-.32,2.73-.32,4.72v4.07h13.56c1.57,0,2.45-.05,3.52-.19-.18,1.2-.23,2.18-.23,3.66v12.64c0,1.53.09,2.73.28,4.12h-3.33v-3.15h-13.8v10.79c0,2.64.05,3.8.32,5.28h-3.7c.23-1.57.32-2.78.32-5.28v-10.79h-13.05v3.15h-3.33c.18-1.34.28-2.64.28-4.12v-12.64c0-1.44-.09-2.45-.23-3.66,1.11.14,1.99.19,3.47.19h12.87v-3.98ZM900.45,52.58v11.53h13.05v-11.53h-13.05ZM930.36,64.11v-11.53h-13.8v11.53h13.8Z"/>
      </g>
      <g>
        <path class="cls-1" d="M475.94,145.16c.9,0,1.8,0,2.7-.11v.97c-.9-.11-1.8-.11-2.7-.11h-11.23c-.9,0-1.87,0-2.77.11.11-.9.11-1.8.11-2.7v-21.45c0-.9,0-1.8-.11-2.7h1.04c-.11.9-.11,1.8-.11,2.7v23.29h13.07Z"/>
        <path class="cls-1" d="M485.63,119.1c-.11.9-.11,1.8-.11,2.7v21.42c0,.9,0,1.8.11,2.7h-1.04c.11-.9.11-1.8.11-2.7v-21.42c0-.9,0-1.8-.11-2.7h1.04Z"/>
        <path class="cls-1" d="M514.57,143.21c0,.9,0,1.8.11,2.7h-1.15c-.47-.97-1.01-1.8-1.66-2.7l-15.15-21.42c-.5-.68-.97-1.37-1.51-2.05v23.47c0,.9,0,1.8.11,2.7h-1.04c.11-.9.11-1.8.11-2.7v-21.42c0-.9,0-1.8-.11-2.7h1.58c.54.9,1.15,1.8,1.8,2.7l16.09,22.71v-22.71c0-.9,0-1.8-.11-2.7h1.04c-.11.9-.11,1.8-.11,2.7v21.42Z"/>
        <path class="cls-1" d="M535.96,145.16c.9,0,1.8,0,2.7-.11v.97c-.9-.11-1.8-.11-2.7-.11h-10.22c-.9,0-1.87,0-2.77.11.11-.9.11-1.8.11-2.7v-21.6c0-.9,0-1.8-.11-2.74.9.11,1.87.11,2.77.11h9.68c.9,0,1.8,0,2.7-.11v.97c-.9-.11-1.8-.11-2.7-.11h-11.52v12.27h10.29c.9,0,1.8,0,2.7-.11v.97c-.9-.11-1.8-.11-2.7-.11h-10.29v12.27h12.06Z"/>
        <path class="cls-1" d="M581.13,122.12c-1.62.07-3.56.4-4.57.72-6.98,2.3-11.3,7.59-11.3,12.78,0,4,2.66,7.09,7.85,8.49,1.19.32,2.34.58,3.35.68l-.22.97c-1.08-.29-2.2-.58-3.35-.9-5.58-1.58-8.42-4.97-8.42-9.18,0-5.58,4.17-10.76,11.7-13.35v-.07c-.79.07-2.02.18-4.57.32-5.9.36-11.99.83-14.69,1.04-1.08.07-2.2.18-3.1.29l-.07-.94c1.12,0,1.98-.04,3.1-.11,5.51-.43,14-1.01,21.09-1.37,1.94-.11,2.66-.18,3.13-.25l.07.86ZM579.73,133.49c-.86-1.84-2.12-3.82-3.31-5.22l.65-.32c1.15,1.4,2.45,3.38,3.31,5.18l-.65.36ZM583.62,131.44c-.94-1.76-2.23-3.71-3.46-5.08l.65-.32c1.19,1.37,2.52,3.31,3.46,5.04l-.65.36Z"/>
        <path class="cls-1" d="M598.74,143.5c0,1.4-.72,2.05-1.87,2.05s-2.7-.47-4.21-1.37c-1.55-.94-2.59-2.34-2.59-3.71,0-1.22.83-2.74,2.45-4.1,1.44-1.22,3.28-2.34,5.44-3.17v-7.92c-1.4.11-2.74.18-4.03.18s-2.41,0-3.42.04v-.94c.97.11,2.09.14,3.42.14,1.26,0,2.66-.07,4.03-.18v-4.64c0-.9,0-1.76-.11-2.7h1.01c-.11.9-.11,1.84-.11,2.7v4.57c2.12-.18,4.1-.47,5.54-.83.83-.22,1.73-.47,2.38-.72l.07.86c-2.66.72-5.4,1.19-7.99,1.44v7.67c2.59-.94,5.58-1.48,8.6-1.48,5.69,0,9.5,2.77,9.5,7.16,0,4.03-3.28,6.91-6.88,6.91s-5.26-2.63-5.26-6.91v-1.01c.25,0,.61-.11.86-.25-.04.43-.07.9-.07,1.19,0,4.03,1.22,6.23,4.5,6.23,3.09,0,6.05-2.52,6.05-6.16s-3.28-6.41-8.71-6.41c-2.81,0-5.94.5-8.6,1.48v9.86ZM597.95,133.96c-1.76.76-3.53,1.8-4.93,2.99-1.51,1.26-2.16,2.59-2.16,3.53,0,1.04.79,2.2,2.2,3.06,1.3.79,2.77,1.22,3.74,1.22.68,0,1.15-.4,1.15-1.48v-9.32ZM617.6,127.84c-1.94-2.59-4.64-4.97-7.24-6.7l.61-.54c2.66,1.84,5.22,4.14,7.27,6.66l-.65.58Z"/>
        <path class="cls-1" d="M637.26,125.39c0,.94,0,1.87.11,2.81-.94-.04-1.84-.11-2.77-.11h-7.81v17.31c0,.94.04,1.87.11,2.81h-1.01c.11-.94.11-1.87.11-2.81v-25.16c0-.94,0-1.87-.11-2.81.94.11,1.87.11,2.77.11h5.9c.94,0,1.87,0,2.81-.11-.11.94-.11,1.87-.11,2.81v5.15ZM626.79,122.3h9.68v-4.03h-9.68v4.03ZM636.47,123.02h-9.68v4.36h9.68v-4.36ZM634.38,141.7v2.59h-.9c.07-1.01.11-1.76.11-2.77v-5.72c0-.94,0-1.87-.11-2.81.94.11,1.87.11,2.81.11h6.77c.94,0,1.91,0,2.84-.11-.11.94-.11,1.84-.11,2.77v3.24c0,.94,0,1.87.11,2.81-.94-.07-1.87-.11-2.81-.11h-8.71ZM639.89,133.82h-5.51v7.16h10.62v-7.16h-5.11ZM651.05,117.55c.94,0,1.87,0,2.81-.11-.11.94-.11,1.87-.11,2.81v25.23c0,1.4-.79,2.02-2.48,2.02-1.48,0-2.99-.07-4.28-.25-.04-.29-.11-.58-.22-.83,1.37.22,2.99.36,4.5.36,1.22,0,1.69-.4,1.69-1.44v-17.24h-8.42c-.94,0-1.84.07-2.77.11.11-.94.11-1.87.11-2.81v-5.15c0-.94,0-1.87-.11-2.81.94.11,1.87.11,2.81.11h6.48ZM642.66,122.3h10.29v-4.03h-10.29v4.03ZM652.95,123.02h-10.29v4.36h10.29v-4.36Z"/>
        <path class="cls-1" d="M676.03,116.4c3.74,5.72,9.43,10.26,16.05,13.32-.22.22-.4.47-.5.72-6.59-3.17-12.38-7.85-15.95-13.35-3.6,5.62-9.47,10.47-15.59,13.53-.14-.25-.32-.47-.58-.65,6.19-2.99,11.88-7.77,15.69-13.57h.86ZM685.25,145.44h-18.97v2.56h-.9c.11-.94.11-1.8.11-2.74v-8.57c0-.86,0-1.69-.11-2.52.9.07,1.84.11,2.81.11h15.15c.94,0,1.87-.04,2.77-.11-.07.83-.07,1.66-.07,2.52v8.57c0,.94,0,1.8.11,2.74h-.9v-2.56ZM666.28,144.72h18.97v-9.72h-18.97v9.72ZM684.02,128.81c-.97-.11-1.76-.11-2.7-.11h-11.09c-.94,0-1.73,0-2.7.11v-.94c.97.11,1.76.11,2.7.11h11.09c.94,0,1.73,0,2.7-.11v.94Z"/>
        <path class="cls-1" d="M723.95,144.26c-.32.04-.72.11-1.12.18-2.74.5-5.94.83-9.11.83-7.24,0-9.21-1.51-9.5-6.23-.07-1.4-.11-3.13-.11-5.18v-5.94c-1.76.14-3.49.25-5.22.4-1.12.07-1.98.22-2.63.32l-.11-1.01c.4,0,1.55,0,2.7-.11,1.69-.14,3.46-.29,5.26-.4v-5.51c0-.9,0-1.76-.07-2.66h1.01c-.07.9-.11,1.8-.11,2.7v5.4c4.5-.29,9.18-.58,13.32-.76.04-1.51.07-3.28.07-5.29,0-.94,0-1.91-.11-2.88h1.01c-.11,1.08-.11,2.02-.11,2.88,0,2.02-.04,3.74-.07,5.26,1.66-.04,3.89-.11,5.54-.11.83,0,1.84-.04,2.45-.11v.97c-.65-.04-1.73-.07-2.3-.07-1.8,0-4.03.04-5.69.11-.11,2.88-.29,4.93-.5,6.41-.43,2.88-1.48,3.82-2.99,3.82-1.15,0-2.52-.36-4.86-1.84.04-.22.07-.4.07-.65v-.25c2.38,1.66,3.74,1.98,4.75,1.98s1.87-.65,2.27-3.28c.22-1.37.36-3.35.47-6.16-4.21.14-8.78.43-13.35.76v6.05c0,2.02.04,3.74.11,5.11.25,4.28,1.98,5.51,8.71,5.51,3.49,0,7.2-.43,10.08-1.19l.14.94Z"/>
      </g>
      <g>
        <path class="cls-2" d="M424.62,97.05l-37.82-.05c-5.94,0-10.76,4.8-10.77,10.74l-.05,37.82c0,5.94,4.8,10.76,10.74,10.77l37.82.05c5.94,0,10.76-4.8,10.77-10.74l.05-37.82c0-5.94-4.8-10.76-10.74-10.77Z"/>
        <path class="cls-1" d="M427.3,124.08c0-9.67-9.7-17.54-21.62-17.54s-21.62,7.87-21.62,17.54c0,8.67,7.69,15.94,18.08,17.31.7.15,1.66.46,1.9,1.07.22.55.14,1.4.07,1.95,0,0-.25,1.53-.31,1.85-.09.55-.43,2.14,1.87,1.17,2.31-.97,12.45-7.33,16.99-12.55h0c3.13-3.44,4.64-6.92,4.64-10.79ZM397.22,129.84h-4.3c-.62,0-1.13-.51-1.13-1.13v-8.59c0-.62.51-1.13,1.13-1.13s1.13.51,1.13,1.13v7.46h3.16c.63,0,1.13.51,1.13,1.13s-.51,1.13-1.13,1.13ZM401.66,128.7c0,.63-.51,1.13-1.13,1.13s-1.13-.51-1.13-1.13v-8.59c0-.62.51-1.13,1.13-1.13s1.13.51,1.13,1.13v8.59ZM412,128.7c0,.49-.31.92-.77,1.08-.12.04-.24.06-.36.06-.35,0-.69-.17-.91-.45l-4.4-6v5.31c0,.63-.51,1.13-1.13,1.13s-1.13-.51-1.13-1.13v-8.59c0-.49.31-.92.78-1.08.12-.04.24-.06.36-.06.35,0,.69.17.91.45l4.4,6v-5.32c0-.62.51-1.13,1.13-1.13s1.13.51,1.13,1.13v8.59ZM418.95,123.27c.63,0,1.13.51,1.13,1.13s-.51,1.13-1.13,1.13h-3.16v2.03h3.16c.62,0,1.13.51,1.13,1.13s-.51,1.13-1.13,1.13h-4.3c-.62,0-1.13-.51-1.13-1.13v-4.29h0v-4.29h0c0-.63.51-1.14,1.13-1.14h4.3c.63,0,1.13.51,1.13,1.13s-.51,1.13-1.13,1.13h-3.16v2.03h3.16Z"/>
      </g>
    </g>
  </g>
</svg>