<?xml version="1.0" encoding="UTF-8"?>
<svg id="_レイヤー_2" data-name="レイヤー 2" xmlns="http://www.w3.org/2000/svg" viewBox="0 0 185 40">
  <defs>
    <style>
      .cls-1 {
        fill: #231815;
      }

      .cls-2 {
        fill: none;
      }
    </style>
  </defs>
  <g id="_レイヤー_1-2" data-name="レイヤー 1">
    <g>
      <g>
        <g>
          <path class="cls-1" d="M30.1,25.86v-.75c.23-.03.48-.07.74-.1.26-.03.49-.07.7-.12.21-.05.38-.11.53-.19.14-.07.21-.16.21-.26-.02-.07-.03-.16-.04-.29,0-.12-.05-.28-.14-.46l-1.12-3.07c-.18-.43-.69-.65-1.52-.65h-3.73c-.63,0-1.02.22-1.15.65l-.85,2.59c-.07.15-.1.36-.1.65,0,.76.73,1.14,2.2,1.14v.88h-5.62v-.88c.48-.03.9-.2,1.24-.5.34-.3.63-.73.86-1.3l6-14.28.75.3,5.92,14.85c.23.35.42.57.55.65.03.03.17.08.41.14.24.06.58.15,1.01.26v.75h-6.85ZM27.92,12.43l-2.2,5.25c-.18.4-.27.68-.27.85,0,.25.31.38.92.38h3.15c.5,0,.75-.1.75-.3,0-.08-.09-.36-.27-.82l-2.08-5.35Z"/>
          <path class="cls-1" d="M45.47,25.86v-.75c1.08,0,1.62-.35,1.62-1.05v-4.1c0-2.28-.82-3.43-2.45-3.43s-2.5,1.02-2.5,3.05v4.47c0,.7.6,1.05,1.8,1.05v.75h-5.3v-.75c.93,0,1.4-.38,1.4-1.15v-6.38c0-.58-.45-.88-1.35-.88h-.35v-.65l3.6-.88c.07.07.1.23.1.5v1.5c.13-.25.3-.5.51-.74.21-.24.47-.45.78-.64.31-.18.67-.33,1.09-.45.42-.12.89-.18,1.43-.18.3,0,.64.06,1.02.19s.75.32,1.1.6c.35.27.64.63.88,1.06.23.43.35.96.35,1.57v5.52c0,.65.54.98,1.62.98v.75h-5.35Z"/>
          <path class="cls-1" d="M55.76,30.41c-1.02,0-1.85-.18-2.51-.54-.65-.36-.98-.9-.98-1.64,0-.95.72-1.65,2.15-2.1-1.07-.25-1.6-.89-1.6-1.91,0-.27.05-.53.15-.78.1-.25.24-.48.42-.68s.4-.36.64-.48c.24-.12.5-.18.79-.18-1.27-.66-1.9-1.74-1.9-3.22,0-.5.09-.97.28-1.42.18-.45.46-.84.81-1.18.36-.34.81-.61,1.34-.81.53-.2,1.15-.3,1.85-.3,1.12,0,2.1.36,2.96,1.07.28-.43.6-.74.95-.91s.73-.26,1.13-.26c.7,0,1.05.3,1.05.9,0,.65-.26.98-.79.98-.34,0-.62-.12-.81-.38-.38.05-.69.22-.92.5.23.27.4.57.5.9.1.33.15.64.15.93,0,1.3-.37,2.26-1.11,2.88-.74.62-1.95.93-3.61.93-.18,0-.37-.02-.56-.05-.19-.03-.4-.07-.61-.12-.82.05-1.22.38-1.22,1,0,.37.14.62.42.76.28.14.76.21,1.42.21h2.85c.48,0,.94.05,1.36.16.42.11.79.28,1.11.51.32.23.57.53.75.89.18.36.27.79.27,1.29,0,.47-.1.89-.31,1.26-.21.38-.5.7-.88.96-.38.27-.82.47-1.34.61-.52.14-1.09.21-1.7.21h-2.51ZM57.76,29.66c2.07,0,3.11-.67,3.11-2,0-.88-1-1.32-2.99-1.32h-2.08c-.55.1-.98.26-1.28.47-.3.22-.45.54-.45.98,0,.62.26,1.08.79,1.4.53.32,1.25.48,2.17.48h.73ZM57.04,21.73c1.53,0,2.29-.78,2.29-2.35,0-2.3-.74-3.45-2.21-3.45s-2.19.88-2.19,2.65c0,2.1.7,3.15,2.11,3.15Z"/>
          <path class="cls-1" d="M73.17,23.38c-.43.93-1.02,1.66-1.75,2.18s-1.6.78-2.6.78c-.83,0-1.57-.14-2.2-.43-.63-.28-1.16-.67-1.59-1.15-.42-.48-.75-1.06-.96-1.72-.22-.67-.33-1.38-.33-2.12s.12-1.47.35-2.15c.23-.68.56-1.29.99-1.82.43-.53.94-.96,1.54-1.27.6-.32,1.27-.48,2-.48.45,0,.92.05,1.41.16.49.11.95.32,1.39.64.43.32.81.77,1.12,1.36.32.59.53,1.37.62,2.34,0,.2-.03.38-.08.55h-6.65c-.32,0-.48.12-.48.38,0,.6.08,1.17.25,1.7.17.53.4,1,.7,1.4.3.4.67.71,1.1.94.43.22.92.34,1.45.34.7,0,1.3-.2,1.81-.6.51-.4.95-.87,1.34-1.4l.55.4ZM69.77,19.48c.68,0,1.03-.35,1.03-1.05-.05-.63-.26-1.19-.64-1.66-.38-.48-.92-.71-1.64-.71-.38,0-.73.09-1.05.26-.32.18-.59.41-.81.7-.22.29-.4.62-.51,1-.12.38-.17.76-.17,1.16,0,.2.18.3.55.3h3.25Z"/>
          <path class="cls-1" d="M74.87,25.86v-.75c1.13,0,1.7-.38,1.7-1.15v-12.68c0-.82-.64-1.23-1.93-1.23v-.68l4.03-.75v15.43c0,.7.63,1.05,1.9,1.05v.75h-5.7Z"/>
          <path class="cls-1" d="M82.32,25.86v-.75c1.15,0,1.73-.51,1.73-1.52v-4.98c0-1.32-.51-1.98-1.53-1.98v-.67l3.62-.78v8.5c0,.95.63,1.43,1.9,1.43v.75h-5.73ZM84.92,12.43c-.88,0-1.33-.51-1.33-1.52,0-.95.47-1.43,1.42-1.43.9,0,1.35.48,1.35,1.43,0,1.02-.48,1.52-1.45,1.52Z"/>
          <path class="cls-1" d="M94.97,30.41v-.65c1.28,0,1.93-.47,1.93-1.42v-3.62c-.4.53-.88.92-1.45,1.16-.57.24-1.16.36-1.79.36-.9,0-1.64-.18-2.23-.55s-1.06-.8-1.41-1.31c-.35-.51-.59-1.05-.73-1.61-.14-.57-.21-1.05-.21-1.45,0-.75.1-1.48.31-2.19.21-.71.52-1.34.94-1.89.42-.55.94-1,1.58-1.34.63-.34,1.38-.51,2.25-.51s1.62.12,2.15.35c.53.23.99.56,1.38.98l.92-1.33h.6c-.05.53-.1,1.01-.14,1.43-.04.42-.06.77-.06,1.05v10.48c0,.95.5,1.42,1.5,1.42v.65h-5.53ZM96.9,20.23c0-.45-.04-.92-.12-1.41-.08-.49-.23-.94-.45-1.35-.22-.41-.5-.75-.85-1.01-.35-.27-.8-.4-1.35-.4-.92,0-1.64.35-2.16,1.06-.53.71-.79,1.81-.79,3.31,0,.63.07,1.22.2,1.76.13.54.33,1.01.59,1.41.26.4.59.71,1,.94.41.23.89.34,1.44.34,1.67,0,2.5-1.04,2.5-3.12v-1.52Z"/>
          <path class="cls-1" d="M109.67,25.96c-.05-.12-.08-.34-.08-.68v-.95c-.17.28-.35.54-.55.76-.2.22-.44.41-.71.56-.27.15-.6.27-.96.35-.37.08-.8.12-1.3.12-.63,0-1.17-.06-1.62-.17-.45-.12-.82-.32-1.1-.61-.28-.29-.49-.68-.61-1.18-.12-.49-.19-1.1-.19-1.84v-5.05c0-.57-.54-.85-1.62-.85l-.1-.65,3.83-.3v6.38c0,.4.01.78.04,1.15.03.37.1.69.22.96.12.27.33.5.61.66.28.17.69.25,1.22.25,1.34,0,2.26-.85,2.76-2.55v-5.05c0-.57-.6-.85-1.8-.85l-.1-.65,4-.3v8.38c0,.57.57.88,1.7.95l.2.68-3.83.48Z"/>
          <path class="cls-1" d="M123.5,23.38c-.43.93-1.02,1.66-1.75,2.18s-1.6.78-2.6.78c-.83,0-1.57-.14-2.2-.43-.63-.28-1.16-.67-1.59-1.15-.42-.48-.75-1.06-.96-1.72-.22-.67-.33-1.38-.33-2.12s.12-1.47.35-2.15c.23-.68.56-1.29.99-1.82.43-.53.94-.96,1.54-1.27.6-.32,1.27-.48,2-.48.45,0,.92.05,1.41.16.49.11.95.32,1.39.64.43.32.81.77,1.12,1.36.32.59.53,1.37.62,2.34,0,.2-.03.38-.08.55h-6.65c-.32,0-.48.12-.48.38,0,.6.08,1.17.25,1.7.17.53.4,1,.7,1.4.3.4.67.71,1.1.94.43.22.92.34,1.45.34.7,0,1.3-.2,1.81-.6.51-.4.95-.87,1.34-1.4l.55.4ZM120.1,19.48c.68,0,1.03-.35,1.03-1.05-.05-.63-.26-1.19-.64-1.66-.38-.48-.92-.71-1.64-.71-.38,0-.73.09-1.05.26-.32.18-.59.41-.81.7-.22.29-.4.62-.51,1-.12.38-.17.76-.17,1.16,0,.2.18.3.55.3h3.25Z"/>
        </g>
        <g>
          <path class="cls-1" d="M144.4,27.56l-7.07-9.01v6.45c0,1.27.55,1.9,1.65,1.9v.48h-3.84v-.48c.9,0,1.34-.64,1.34-1.91v-7.07c0-.45-.53-.67-1.58-.67v-.48h2.92l6.26,7.98v-5.74c0-1.18-.54-1.76-1.63-1.76v-.48h3.84v.48c-.98,0-1.47.59-1.47,1.76v8.43l-.42.11Z"/>
          <path class="cls-1" d="M153.6,26.71c-.16.57-.59.85-1.28.85-.61,0-.99-.35-1.15-1.04-.77.69-1.58,1.04-2.45,1.04-.57,0-.98-.12-1.25-.36s-.4-.62-.4-1.14c0-1.31,1.32-2.21,3.97-2.69v-.62c0-1.05-.41-1.57-1.22-1.57-.35,0-.66.06-.92.18-.26.12-.39.34-.39.67.06.04.11.11.14.2.03.09.05.18.05.28,0,.41-.25.61-.74.61-.18,0-.34-.06-.46-.18-.13-.12-.19-.3-.19-.54s.08-.48.23-.7c.15-.22.34-.42.58-.58.24-.17.52-.3.83-.4s.64-.15.97-.15c.89,0,1.52.17,1.89.5.37.33.56.88.56,1.65v3.47c0,.39.18.59.54.59.17,0,.34-.06.5-.18l.18.13ZM151.1,23.91c-.33.03-.66.09-.98.17-.32.08-.61.19-.86.34s-.46.33-.61.55c-.16.22-.23.5-.23.83,0,.69.34,1.04,1.01,1.04.3,0,.55-.05.75-.14.2-.09.36-.21.48-.36.12-.15.22-.31.29-.5.07-.18.12-.36.15-.54v-1.39Z"/>
          <path class="cls-1" d="M154.22,27.38v-.48c.74,0,1.1-.33,1.1-.98v-3.18c0-.84-.33-1.26-.98-1.26v-.43l2.32-.5v5.44c0,.61.41.91,1.22.91v.48h-3.66ZM155.89,18.79c-.57,0-.85-.33-.85-.98,0-.61.3-.91.91-.91.58,0,.86.3.86.91,0,.65-.31.98-.93.98Z"/>
          <path class="cls-1" d="M158.7,27.38v-.48c.72,0,1.09-.25,1.09-.74v-8.11c0-.52-.41-.78-1.23-.78v-.43l2.58-.48v9.87c0,.45.41.67,1.22.67v.48h-3.65Z"/>
        </g>
      </g>
      <rect class="cls-2" width="185" height="40"/>
    </g>
  </g>
</svg>