<?xml version="1.0" encoding="UTF-8"?>
<svg id="_レイヤー_2" data-name="レイヤー 2" xmlns="http://www.w3.org/2000/svg" viewBox="0 0 389.23 950.57">
  <defs>
    <style>
      .cls-1 {
        fill: #231815;
      }

      .cls-2, .cls-3, .cls-4 {
        fill: none;
        stroke: #231815;
      }

      .cls-2, .cls-4 {
        stroke-miterlimit: 10;
      }

      .cls-5 {
        fill: #fff;
      }

      .cls-3 {
        stroke-linecap: round;
        stroke-linejoin: round;
      }

      .cls-4 {
        stroke-width: .5px;
      }
    </style>
  </defs>
  <g id="_レイヤー_1-2" data-name="レイヤー 1">
    <g>
      <g>
        <path class="cls-1" d="M6.05,163.09c-1.23,0-2.28-.36-3.15-1.07s-1.54-1.73-2-3.06-.69-2.94-.69-4.82.23-3.49.69-4.83,1.13-2.37,2-3.08,1.92-1.07,3.14-1.07,2.26.36,3.13,1.07,1.53,1.74,2,3.08.7,2.95.7,4.83-.23,3.49-.69,4.82-1.12,2.35-1.99,3.06-1.91,1.07-3.14,1.07ZM6.05,161.67c.91,0,1.68-.3,2.32-.9s1.13-1.46,1.47-2.58.51-2.48.51-4.05-.17-2.94-.51-4.07-.83-1.99-1.47-2.59-1.41-.9-2.32-.9c-1.37,0-2.43.67-3.18,2s-1.13,3.19-1.13,5.56c0,1.58.17,2.93.51,4.05s.83,1.99,1.48,2.58,1.42.9,2.33.9Z"/>
        <path class="cls-1" d="M20.03,163.09c-1.23,0-2.28-.36-3.15-1.07s-1.54-1.73-2-3.06-.69-2.94-.69-4.82.23-3.49.69-4.83,1.13-2.37,2-3.08,1.92-1.07,3.14-1.07,2.26.36,3.13,1.07,1.53,1.74,2,3.08.7,2.95.7,4.83-.23,3.49-.69,4.82-1.12,2.35-1.99,3.06-1.91,1.07-3.14,1.07ZM20.03,161.67c.91,0,1.68-.3,2.32-.9s1.13-1.46,1.47-2.58.51-2.48.51-4.05-.17-2.94-.51-4.07-.83-1.99-1.47-2.59-1.41-.9-2.32-.9c-1.37,0-2.43.67-3.18,2s-1.13,3.19-1.13,5.56c0,1.58.17,2.93.51,4.05s.83,1.99,1.48,2.58,1.42.9,2.33.9Z"/>
      </g>
      <g>
        <path class="cls-1" d="M6.05,383.45c-1.23,0-2.28-.36-3.15-1.07s-1.54-1.73-2-3.06-.69-2.94-.69-4.82.23-3.49.69-4.83,1.13-2.37,2-3.08,1.92-1.07,3.14-1.07,2.26.36,3.13,1.07,1.53,1.74,2,3.08.7,2.95.7,4.83-.23,3.49-.69,4.82-1.12,2.35-1.99,3.06-1.91,1.07-3.14,1.07ZM6.05,382.03c.91,0,1.68-.3,2.32-.9s1.13-1.46,1.47-2.58.51-2.48.51-4.05-.17-2.94-.51-4.07-.83-1.99-1.47-2.59-1.41-.9-2.32-.9c-1.37,0-2.43.67-3.18,2s-1.13,3.19-1.13,5.56c0,1.58.17,2.93.51,4.05s.83,1.99,1.48,2.58,1.42.9,2.33.9Z"/>
        <path class="cls-1" d="M19.96,383.45c-.72,0-1.42-.14-2.11-.43s-1.31-.75-1.86-1.39-.99-1.49-1.31-2.54-.49-2.34-.49-3.87c0-1.42.12-2.72.38-3.91s.62-2.21,1.12-3.08,1.12-1.54,1.88-2.01,1.63-.71,2.64-.71c.94,0,1.77.2,2.49.59s1.31.93,1.76,1.62.73,1.49.84,2.38h-1.56c-.16-.91-.53-1.67-1.13-2.27s-1.4-.9-2.4-.9c-1.43,0-2.54.66-3.33,1.99s-1.18,3.21-1.18,5.66h.12c.28-.52.64-.98,1.08-1.36s.94-.68,1.5-.88,1.15-.31,1.78-.31c.97,0,1.86.25,2.66.74s1.45,1.16,1.93,2.02.73,1.82.73,2.92-.23,2-.69,2.87-1.1,1.56-1.93,2.08-1.8.78-2.92.78ZM19.96,382.02c.77,0,1.45-.19,2.04-.58s1.07-.91,1.42-1.56.52-1.37.52-2.16-.17-1.5-.52-2.14-.82-1.15-1.42-1.53-1.28-.57-2.04-.57-1.47.2-2.09.61-1.1.94-1.45,1.6-.48,1.37-.42,2.14c.06.8.27,1.52.63,2.16s.82,1.13,1.39,1.49,1.22.54,1.94.54Z"/>
        <path class="cls-1" d="M28.27,383.21v-13.1h1.46v2.03h.15c.26-.68.69-1.21,1.31-1.61s1.35-.59,2.21-.59,1.64.21,2.21.64,1.01,1.01,1.3,1.74h.12c.3-.72.78-1.29,1.45-1.73s1.47-.65,2.42-.65c1.22,0,2.18.38,2.89,1.15s1.07,1.88,1.07,3.34v8.78h-1.52v-8.78c0-1.03-.26-1.81-.79-2.33s-1.22-.78-2.09-.78c-1,0-1.77.31-2.31.93s-.81,1.4-.81,2.34v8.61h-1.56v-8.92c0-.88-.25-1.6-.74-2.14s-1.19-.82-2.09-.82c-.6,0-1.14.15-1.62.45s-.86.71-1.14,1.24-.42,1.13-.42,1.82v8.38h-1.51Z"/>
      </g>
      <line class="cls-3" x1="30.63" y1="154.9" x2="388.73" y2="154.9"/>
      <line class="cls-3" x1="50.22" y1="376.26" x2="388.73" y2="376.26"/>
      <g>
        <path class="cls-1" d="M5.74,625.47v17.46h-1.56v-15.79h-.11l-4.08,2.72v-1.64l4.11-2.75h1.63Z"/>
        <path class="cls-1" d="M10.36,647.83c-.3,0-.58-.02-.84-.07s-.47-.12-.63-.2l.41-1.32.18.05c.72.21,1.33.19,1.83-.08s.93-.87,1.27-1.81l.48-1.34-4.82-13.23h1.65l3.88,11.11h.12l3.89-11.11h1.64l-5.53,15.16c-.23.63-.52,1.16-.86,1.58s-.73.74-1.18.94-.95.31-1.5.31Z"/>
        <path class="cls-1" d="M27.01,643.16c-1.23,0-2.28-.36-3.15-1.07s-1.54-1.73-2-3.06-.69-2.94-.69-4.82.23-3.49.69-4.83,1.13-2.37,2-3.08,1.92-1.07,3.14-1.07,2.26.36,3.13,1.07,1.53,1.74,2,3.08.7,2.95.7,4.83-.23,3.49-.69,4.82-1.12,2.35-1.99,3.06-1.91,1.07-3.14,1.07ZM27.01,641.74c.91,0,1.68-.3,2.32-.9s1.13-1.46,1.47-2.58.51-2.48.51-4.05-.17-2.94-.51-4.07-.83-1.99-1.47-2.59-1.41-.9-2.32-.9c-1.37,0-2.43.67-3.18,2s-1.13,3.19-1.13,5.56c0,1.58.17,2.93.51,4.05s.83,1.99,1.48,2.58,1.42.9,2.33.9Z"/>
        <path class="cls-1" d="M40.92,643.16c-.72,0-1.42-.14-2.11-.43s-1.31-.75-1.86-1.39-.99-1.49-1.31-2.54-.49-2.34-.49-3.87c0-1.42.12-2.72.38-3.91s.62-2.21,1.12-3.08,1.12-1.54,1.88-2.01,1.63-.71,2.64-.71c.94,0,1.77.2,2.49.59s1.31.93,1.76,1.62.73,1.49.84,2.38h-1.56c-.16-.91-.53-1.67-1.13-2.27s-1.4-.9-2.4-.9c-1.43,0-2.54.66-3.33,1.99s-1.18,3.21-1.18,5.66h.12c.28-.52.64-.98,1.08-1.36s.94-.68,1.5-.88,1.15-.31,1.78-.31c.97,0,1.86.25,2.66.74s1.45,1.16,1.93,2.02.73,1.82.73,2.92-.23,2-.69,2.87-1.1,1.56-1.93,2.08-1.8.78-2.92.78ZM40.92,641.73c.77,0,1.45-.19,2.04-.58s1.07-.91,1.42-1.56.52-1.37.52-2.16-.17-1.5-.52-2.14-.82-1.15-1.42-1.53-1.28-.57-2.04-.57-1.47.2-2.09.61-1.1.94-1.45,1.6-.48,1.37-.42,2.14c.06.8.27,1.52.63,2.16s.82,1.13,1.39,1.49,1.22.54,1.94.54Z"/>
        <path class="cls-1" d="M49.23,642.93v-13.1h1.46v2.03h.15c.26-.68.69-1.21,1.31-1.61s1.35-.59,2.21-.59,1.64.21,2.21.64,1.01,1.01,1.3,1.74h.12c.3-.72.78-1.29,1.45-1.73s1.47-.65,2.42-.65c1.22,0,2.18.38,2.89,1.15s1.07,1.88,1.07,3.34v8.78h-1.52v-8.78c0-1.03-.26-1.81-.79-2.33s-1.22-.78-2.09-.78c-1,0-1.77.31-2.31.93s-.81,1.4-.81,2.34v8.61h-1.56v-8.92c0-.88-.25-1.6-.74-2.14s-1.19-.82-2.09-.82c-.6,0-1.14.15-1.62.45s-.86.71-1.14,1.24-.42,1.13-.42,1.82v8.38h-1.51Z"/>
      </g>
      <line class="cls-3" x1="70.14" y1="635.97" x2="388.73" y2="635.97"/>
      <g>
        <path class="cls-1" d="M.62,886.22v-1.16l5.71-6.42c.73-.84,1.33-1.55,1.78-2.15s.79-1.15,1-1.65.32-1.03.32-1.58c0-.66-.16-1.25-.47-1.75s-.74-.89-1.27-1.16-1.14-.41-1.82-.41c-.72,0-1.35.15-1.88.46s-.95.72-1.24,1.26-.44,1.15-.44,1.83H.77c0-.96.22-1.82.67-2.57s1.05-1.34,1.83-1.76,1.65-.64,2.64-.64,1.84.21,2.6.63,1.35.98,1.78,1.7.64,1.52.64,2.41c0,.64-.11,1.26-.33,1.86s-.61,1.27-1.15,2.01-1.3,1.64-2.26,2.71l-4.34,4.84v.12h8.64v1.43H.62Z"/>
        <path class="cls-1" d="M15.64,891.11c-.3,0-.58-.02-.84-.07s-.47-.12-.63-.2l.41-1.32.18.05c.72.21,1.33.19,1.83-.08s.93-.87,1.27-1.81l.48-1.34-4.82-13.23h1.65l3.88,11.11h.12l3.89-11.11h1.64l-5.53,15.16c-.23.63-.52,1.16-.86,1.58s-.73.74-1.18.94-.95.31-1.5.31Z"/>
        <path class="cls-1" d="M32.3,886.45c-1.23,0-2.28-.36-3.15-1.07s-1.54-1.73-2-3.06-.69-2.94-.69-4.82.23-3.49.69-4.83,1.13-2.37,2-3.08,1.92-1.07,3.14-1.07,2.26.36,3.13,1.07,1.53,1.74,2,3.08.7,2.95.7,4.83-.23,3.49-.69,4.82-1.12,2.35-1.99,3.06-1.91,1.07-3.14,1.07ZM32.3,885.03c.91,0,1.68-.3,2.32-.9s1.13-1.46,1.47-2.58.51-2.48.51-4.05-.17-2.94-.51-4.07-.83-1.99-1.47-2.59-1.41-.9-2.32-.9c-1.37,0-2.43.67-3.18,2s-1.13,3.19-1.13,5.56c0,1.58.17,2.93.51,4.05s.83,1.99,1.48,2.58,1.42.9,2.33.9Z"/>
        <path class="cls-1" d="M46.21,886.45c-.72,0-1.42-.14-2.11-.43s-1.31-.75-1.86-1.39-.99-1.49-1.31-2.54-.49-2.34-.49-3.87c0-1.42.12-2.72.38-3.91s.62-2.21,1.12-3.08,1.12-1.54,1.88-2.01,1.63-.71,2.64-.71c.94,0,1.77.2,2.49.59s1.31.93,1.76,1.62.73,1.49.84,2.38h-1.56c-.16-.91-.53-1.67-1.13-2.27s-1.4-.9-2.4-.9c-1.43,0-2.54.66-3.33,1.99s-1.18,3.21-1.18,5.66h.12c.28-.52.64-.98,1.08-1.36s.94-.68,1.5-.88,1.15-.31,1.78-.31c.97,0,1.86.25,2.66.74s1.45,1.16,1.93,2.02.73,1.82.73,2.92-.23,2-.69,2.87-1.1,1.56-1.93,2.08-1.8.78-2.92.78ZM46.21,885.02c.77,0,1.45-.19,2.04-.58s1.07-.91,1.42-1.56.52-1.37.52-2.16-.17-1.5-.52-2.14-.82-1.15-1.42-1.53-1.28-.57-2.04-.57-1.47.2-2.09.61-1.1.94-1.45,1.6-.48,1.37-.42,2.14c.06.8.27,1.52.63,2.16s.82,1.13,1.39,1.49,1.22.54,1.94.54Z"/>
        <path class="cls-1" d="M54.52,886.22v-13.1h1.46v2.03h.15c.26-.68.69-1.21,1.31-1.61s1.35-.59,2.21-.59,1.64.21,2.21.64,1.01,1.01,1.3,1.74h.12c.3-.72.78-1.29,1.45-1.73s1.47-.65,2.42-.65c1.22,0,2.18.38,2.89,1.15s1.07,1.88,1.07,3.34v8.78h-1.52v-8.78c0-1.03-.26-1.81-.79-2.33s-1.22-.78-2.09-.78c-1,0-1.77.31-2.31.93s-.81,1.4-.81,2.34v8.61h-1.56v-8.92c0-.88-.25-1.6-.74-2.14s-1.19-.82-2.09-.82c-.6,0-1.14.15-1.62.45s-.86.71-1.14,1.24-.42,1.13-.42,1.82v8.38h-1.51Z"/>
      </g>
      <line class="cls-3" x1="70.14" y1="879.25" x2="388.73" y2="879.25"/>
      <g>
        <path class="cls-1" d="M241,481.34v-12h.98v1.67h.12c.12-.26.29-.53.5-.8.21-.28.5-.51.85-.7.35-.19.8-.29,1.33-.29.72,0,1.35.19,1.89.57.54.38.96.9,1.26,1.58.3.68.45,1.46.45,2.36s-.15,1.69-.45,2.38c-.3.68-.72,1.21-1.26,1.59-.54.38-1.17.57-1.89.57-.53,0-.97-.1-1.32-.29-.36-.19-.64-.43-.86-.71s-.38-.55-.5-.82h-.09v4.89h-1.01ZM244.67,477.34c.57,0,1.06-.16,1.46-.48.4-.32.71-.76.91-1.3s.31-1.16.31-1.83-.1-1.28-.31-1.82-.51-.97-.91-1.29c-.4-.32-.89-.48-1.47-.48s-1.06.15-1.45.46-.7.73-.91,1.26c-.21.54-.31,1.16-.31,1.86s.1,1.32.31,1.86c.21.54.51.97.91,1.29s.88.47,1.45.47Z"/>
        <path class="cls-1" d="M253.62,478.26c-.81,0-1.52-.19-2.12-.57s-1.06-.91-1.38-1.59c-.32-.68-.48-1.46-.48-2.34s.16-1.66.48-2.34c.32-.68.77-1.22,1.34-1.61s1.24-.59,1.99-.59c.47,0,.92.09,1.37.26.44.17.84.44,1.2.79.35.35.63.8.84,1.35.2.54.3,1.19.3,1.94v.45h-6.82v-.89h6.27l-.46.34c0-.64-.11-1.2-.32-1.7s-.52-.9-.93-1.19c-.4-.29-.88-.44-1.45-.44s-1.05.15-1.47.44c-.42.29-.75.68-.98,1.17-.23.49-.35,1.02-.35,1.6v.52c0,.7.12,1.31.36,1.82.24.52.59.92,1.03,1.21.45.29.97.43,1.57.43.41,0,.77-.07,1.09-.2.31-.13.58-.31.79-.53.21-.22.38-.46.48-.72l.96.32c-.14.36-.35.7-.65,1.01-.3.31-.67.56-1.12.75-.45.19-.96.29-1.54.29Z"/>
        <path class="cls-1" d="M258.83,478.08v-8.73h.98v1.35h.08c.18-.44.48-.8.92-1.07.43-.27.93-.4,1.47-.4h.28c.1,0,.19,0,.25,0v1.02s-.12-.01-.23-.03c-.11-.01-.24-.02-.38-.02-.45,0-.85.1-1.21.29-.36.19-.64.46-.84.79s-.3.72-.3,1.15v5.63h-1.01Z"/>
        <path class="cls-1" d="M264.03,478.08v-8.73h.98v1.35h.1c.17-.45.46-.81.87-1.07.41-.26.9-.39,1.47-.39s1.09.14,1.48.43c.39.28.67.67.87,1.16h.08c.2-.48.52-.86.96-1.15s.98-.43,1.61-.43c.81,0,1.46.25,1.93.77.47.51.71,1.25.71,2.23v5.85h-1.02v-5.85c0-.69-.18-1.2-.53-1.55-.35-.35-.82-.52-1.39-.52-.67,0-1.18.21-1.54.62s-.54.93-.54,1.56v5.74h-1.04v-5.95c0-.59-.16-1.07-.49-1.43-.33-.36-.79-.55-1.39-.55-.4,0-.76.1-1.08.3-.32.2-.57.48-.76.82-.18.35-.28.75-.28,1.21v5.59h-1.01Z"/>
        <path class="cls-1" d="M283.21,478.08l-2.64-8.73h1.07l2.07,7.2h.08l2.06-7.2h1.08l2.03,7.2h.08l2.08-7.2h1.06l-2.63,8.73h-1.04l-2.08-7.15h-.1l-2.08,7.15h-1.04Z"/>
        <path class="cls-1" d="M294.16,467.85c-.21,0-.39-.07-.54-.21-.15-.14-.22-.32-.22-.52s.07-.37.22-.51.33-.21.54-.21.39.07.53.21.22.31.22.51-.07.38-.22.52c-.15.14-.32.21-.53.21ZM293.65,478.08v-8.73h1.01v8.73h-1.01Z"/>
        <path class="cls-1" d="M297.84,472.62v5.45h-1.01v-8.73h.98v1.38h.1c.2-.45.52-.82.95-1.09.43-.27.97-.41,1.61-.41.59,0,1.11.12,1.55.37.45.24.79.6,1.04,1.08.25.47.38,1.06.38,1.75v5.65h-1.01v-5.59c0-.71-.2-1.28-.6-1.7s-.94-.63-1.61-.63c-.46,0-.87.1-1.23.3-.36.2-.64.48-.85.85s-.31.81-.31,1.32Z"/>
        <path class="cls-1" d="M308.75,478.26c-.71,0-1.34-.19-1.88-.57-.54-.38-.96-.91-1.26-1.59-.3-.68-.45-1.47-.45-2.38s.15-1.68.45-2.36c.3-.68.72-1.2,1.26-1.58.54-.38,1.17-.57,1.88-.57.54,0,.98.09,1.33.29.35.19.64.42.85.7.22.28.38.54.5.8h.09v-4.58h1.01v11.64h-.98v-1.62h-.12c-.11.27-.28.54-.5.82s-.5.52-.86.71c-.35.19-.8.29-1.33.29ZM308.86,477.34c.57,0,1.05-.16,1.45-.47s.7-.74.91-1.29c.21-.54.32-1.17.32-1.86s-.1-1.32-.31-1.86c-.21-.54-.51-.96-.91-1.26s-.88-.46-1.45-.46-1.07.16-1.47.48c-.4.32-.7.75-.91,1.29s-.31,1.14-.31,1.82.1,1.28.31,1.83.51.98.91,1.3c.4.32.89.48,1.46.48Z"/>
        <path class="cls-1" d="M315.21,467.85c-.21,0-.39-.07-.54-.21-.15-.14-.22-.32-.22-.52s.07-.37.22-.51.33-.21.54-.21.39.07.53.21.22.31.22.51-.07.38-.22.52c-.15.14-.32.21-.53.21ZM314.7,478.08v-8.73h1.01v8.73h-1.01Z"/>
        <path class="cls-1" d="M318.89,472.62v5.45h-1.01v-8.73h.98v1.38h.1c.2-.45.52-.82.95-1.09.43-.27.97-.41,1.61-.41.59,0,1.11.12,1.55.37.45.24.79.6,1.04,1.08.25.47.38,1.06.38,1.75v5.65h-1.01v-5.59c0-.71-.2-1.28-.6-1.7s-.94-.63-1.61-.63c-.46,0-.87.1-1.23.3-.36.2-.64.48-.85.85s-.31.81-.31,1.32Z"/>
        <path class="cls-1" d="M329.99,481.53c-.89,0-1.62-.17-2.18-.5-.56-.33-.97-.75-1.23-1.25l.83-.55c.12.22.29.44.5.65s.49.38.83.52c.34.14.75.21,1.25.21.78,0,1.4-.19,1.88-.58.48-.39.71-.98.71-1.8v-1.97h-.1c-.11.27-.28.53-.5.79-.22.26-.5.48-.86.66-.35.17-.79.26-1.32.26-.7,0-1.32-.17-1.86-.52s-.96-.84-1.27-1.48c-.31-.64-.46-1.41-.46-2.29s.15-1.66.45-2.33c.3-.67.72-1.19,1.27-1.57.54-.38,1.17-.57,1.89-.57.54,0,.98.09,1.34.29.35.19.64.42.85.7.21.28.38.54.5.8h.11v-1.67h.97v8.96c0,.74-.16,1.35-.46,1.82s-.74.83-1.28,1.06c-.54.23-1.16.34-1.85.34ZM329.92,477.06c.84,0,1.49-.3,1.96-.91.47-.6.7-1.43.7-2.48,0-.68-.1-1.29-.31-1.82-.21-.53-.51-.95-.91-1.25s-.88-.46-1.45-.46-1.08.16-1.48.47c-.4.31-.7.74-.91,1.27s-.31,1.12-.31,1.78.1,1.25.31,1.77c.21.51.51.91.92,1.2.4.29.89.43,1.47.43Z"/>
        <path class="cls-1" d="M239.92,481.25v-1.09h94.76v1.09h-94.76Z"/>
      </g>
      <g>
        <path class="cls-1" d="M76.85,499.86c-.53,0-.97-.1-1.32-.29-.36-.19-.64-.43-.86-.71s-.38-.55-.5-.82h-.12v1.62h-.98v-11.64h1.01v4.58h.09c.12-.26.29-.53.5-.8.21-.28.5-.51.85-.7.35-.19.8-.29,1.33-.29.72,0,1.35.19,1.89.57.54.38.96.9,1.26,1.58.3.68.45,1.46.45,2.36s-.15,1.69-.45,2.38c-.3.68-.72,1.21-1.26,1.59-.54.38-1.17.57-1.89.57ZM76.74,498.94c.57,0,1.06-.16,1.46-.48.4-.32.71-.76.91-1.3s.31-1.16.31-1.83-.1-1.28-.31-1.82-.51-.97-.91-1.29c-.4-.32-.89-.48-1.47-.48s-1.06.15-1.45.46-.7.73-.91,1.26c-.21.54-.31,1.16-.31,1.86s.1,1.32.31,1.86c.21.54.51.97.91,1.29s.88.47,1.45.47Z"/>
        <path class="cls-1" d="M84.59,499.87c-.53,0-1.01-.1-1.45-.31-.44-.21-.79-.51-1.04-.9-.26-.39-.39-.87-.39-1.43,0-.43.08-.79.24-1.09.16-.29.39-.53.7-.72.3-.19.66-.34,1.07-.45.41-.11.86-.2,1.36-.25.49-.06.9-.12,1.24-.16.34-.04.6-.12.77-.21.18-.1.27-.26.27-.48v-.2c0-.6-.18-1.07-.53-1.41-.35-.34-.86-.51-1.52-.51s-1.14.14-1.54.41c-.4.28-.67.6-.83.98l-.97-.35c.2-.47.47-.85.82-1.14.35-.29.74-.49,1.17-.62.43-.13.87-.19,1.31-.19.33,0,.68.04,1.04.13.36.09.7.24,1.01.45.31.21.57.51.76.89s.29.87.29,1.45v5.92h-1.02v-1.38h-.06c-.11.25-.29.5-.53.75s-.54.44-.9.6-.78.23-1.27.23ZM84.74,498.95c.54,0,1-.12,1.39-.36.39-.24.7-.56.91-.96.21-.4.32-.84.32-1.31v-1.26c-.08.07-.2.14-.38.2-.17.06-.38.11-.6.15-.23.04-.46.08-.69.11s-.44.06-.61.08c-.49.06-.91.16-1.26.29-.35.13-.62.31-.8.53-.18.22-.28.51-.28.87,0,.53.19.93.57,1.23.38.29.86.44,1.43.44Z"/>
        <path class="cls-1" d="M96.41,492.87l-.92.25c-.14-.39-.36-.72-.68-1s-.77-.41-1.36-.41-1.07.14-1.45.43c-.38.28-.57.65-.57,1.09,0,.37.13.67.39.91.26.24.66.42,1.2.56l1.32.32c.73.18,1.28.46,1.64.85s.55.87.55,1.45c0,.49-.14.93-.41,1.31-.27.39-.65.69-1.14.91s-1.05.33-1.69.33c-.85,0-1.56-.19-2.11-.58-.55-.39-.91-.94-1.06-1.67l.97-.23c.12.52.36.91.73,1.17s.85.4,1.45.4c.67,0,1.2-.15,1.61-.45.41-.3.61-.68.61-1.12,0-.72-.48-1.2-1.43-1.43l-1.42-.34c-.76-.18-1.32-.47-1.69-.86s-.55-.88-.55-1.46c0-.48.13-.9.39-1.27.26-.37.62-.66,1.08-.87.46-.21.98-.31,1.56-.31.8,0,1.44.18,1.92.55s.82.87,1.03,1.5Z"/>
        <path class="cls-1" d="M98.76,489.45c-.21,0-.39-.07-.54-.21-.15-.14-.22-.32-.22-.52s.07-.37.22-.51.33-.21.54-.21.39.07.53.21.22.31.22.51-.07.38-.22.52c-.15.14-.32.21-.53.21ZM98.25,499.67v-8.73h1.01v8.73h-1.01Z"/>
        <path class="cls-1" d="M104.84,499.86c-.78,0-1.46-.2-2.04-.59s-1.03-.93-1.34-1.61-.48-1.45-.48-2.32.16-1.66.48-2.34.77-1.21,1.35-1.61,1.25-.59,2.01-.59c.58,0,1.11.11,1.59.34s.87.54,1.18.95c.31.41.5.88.58,1.43h-1.02c-.07-.33-.21-.63-.42-.9-.21-.27-.47-.49-.79-.65s-.69-.25-1.11-.25c-.56,0-1.05.15-1.48.45-.43.3-.76.72-1,1.26-.24.54-.36,1.16-.36,1.87s.12,1.33.35,1.88.57.97,1,1.28c.43.31.93.46,1.5.46s1.08-.16,1.5-.49.69-.77.81-1.32h1.02c-.07.53-.26.99-.56,1.41-.3.41-.68.74-1.16.97-.47.24-1.01.36-1.61.36Z"/>
        <path class="cls-1" d="M117.26,499.86c-.78,0-1.46-.2-2.04-.59s-1.03-.93-1.34-1.61-.48-1.45-.48-2.32.16-1.66.48-2.34.77-1.21,1.35-1.61,1.25-.59,2.01-.59c.58,0,1.11.11,1.59.34s.87.54,1.18.95c.31.41.5.88.58,1.43h-1.02c-.07-.33-.21-.63-.42-.9-.21-.27-.47-.49-.79-.65s-.69-.25-1.11-.25c-.56,0-1.05.15-1.48.45-.43.3-.76.72-1,1.26-.24.54-.36,1.16-.36,1.87s.12,1.33.35,1.88.57.97,1,1.28c.43.31.93.46,1.5.46s1.08-.16,1.5-.49.69-.77.81-1.32h1.02c-.07.53-.26.99-.56,1.41-.3.41-.68.74-1.16.97-.47.24-1.01.36-1.61.36Z"/>
        <path class="cls-1" d="M127.82,496.34v-5.41h1.01v8.73h-1.01v-1.45h-.08c-.21.45-.53.82-.98,1.12-.44.3-.98.45-1.62.44-.56,0-1.05-.12-1.48-.36s-.77-.6-1.02-1.08-.37-1.06-.37-1.75v-5.66h1.01v5.6c0,.68.2,1.22.61,1.64.4.42.92.62,1.54.62.4,0,.78-.09,1.14-.28s.66-.46.9-.83c.23-.36.35-.81.35-1.34Z"/>
        <path class="cls-1" d="M134.43,490.94v.88h-4.16v-.88h4.16ZM131.57,488.86h1.01v8.53c0,.47.12.83.35,1.07.23.24.56.36.98.36.09,0,.19,0,.29-.02.1-.01.2-.03.31-.06l.22.91c-.12.05-.26.08-.41.11-.16.03-.32.04-.48.04-.65,0-1.18-.2-1.61-.6s-.64-.92-.64-1.57v-8.77Z"/>
        <path class="cls-1" d="M139.66,490.94v.88h-4.16v-.88h4.16ZM136.8,488.86h1.01v8.53c0,.47.12.83.35,1.07.23.24.56.36.98.36.09,0,.19,0,.29-.02.1-.01.2-.03.31-.06l.22.91c-.12.05-.26.08-.41.11-.16.03-.32.04-.48.04-.65,0-1.18-.2-1.61-.6s-.64-.92-.64-1.57v-8.77Z"/>
        <path class="cls-1" d="M141.96,489.45c-.21,0-.39-.07-.54-.21-.15-.14-.22-.32-.22-.52s.07-.37.22-.51.33-.21.54-.21.39.07.53.21.22.31.22.51-.07.38-.22.52c-.15.14-.32.21-.53.21ZM141.45,499.67v-8.73h1.01v8.73h-1.01Z"/>
        <path class="cls-1" d="M145.64,494.22v5.45h-1.01v-8.73h.98v1.38h.1c.2-.45.52-.82.95-1.09.43-.27.97-.41,1.61-.41.59,0,1.11.12,1.55.37.45.24.79.6,1.04,1.08.25.47.38,1.06.38,1.75v5.65h-1.01v-5.59c0-.71-.2-1.28-.6-1.7s-.94-.63-1.61-.63c-.46,0-.87.1-1.23.3-.36.2-.64.48-.85.85s-.31.81-.31,1.32Z"/>
        <path class="cls-1" d="M156.74,503.13c-.89,0-1.62-.17-2.18-.5-.56-.33-.97-.75-1.23-1.25l.83-.55c.12.22.29.44.5.65s.49.38.83.52c.34.14.75.21,1.25.21.78,0,1.4-.19,1.88-.58.48-.39.71-.98.71-1.8v-1.97h-.1c-.11.27-.28.53-.5.79-.22.26-.5.48-.86.66-.35.17-.79.26-1.32.26-.7,0-1.32-.17-1.86-.52s-.96-.84-1.27-1.48c-.31-.64-.46-1.41-.46-2.29s.15-1.66.45-2.33c.3-.67.72-1.19,1.27-1.57.54-.38,1.17-.57,1.89-.57.54,0,.98.09,1.34.29.35.19.64.42.85.7.21.28.38.54.5.8h.11v-1.67h.97v8.96c0,.74-.16,1.35-.46,1.82s-.74.83-1.28,1.06c-.54.23-1.16.34-1.85.34ZM156.68,498.66c.84,0,1.49-.3,1.96-.91.47-.6.7-1.43.7-2.48,0-.68-.1-1.29-.31-1.82-.21-.53-.51-.95-.91-1.25s-.88-.46-1.45-.46-1.08.16-1.48.47c-.4.31-.7.74-.91,1.27s-.31,1.12-.31,1.78.1,1.25.31,1.77c.21.51.51.91.92,1.2.4.29.89.43,1.47.43Z"/>
        <path class="cls-1" d="M67.99,502.85v-1.09h93.45v1.09h-93.45Z"/>
      </g>
      <g>
        <path class="cls-1" d="M246.86,728.17l-.92.25c-.14-.39-.36-.72-.68-1s-.77-.41-1.36-.41-1.07.14-1.45.43c-.38.28-.57.65-.57,1.09,0,.37.13.67.39.91.26.24.66.42,1.2.56l1.32.32c.73.18,1.28.46,1.64.85s.55.87.55,1.45c0,.49-.14.93-.41,1.31-.27.39-.65.69-1.14.91s-1.05.33-1.69.33c-.85,0-1.56-.19-2.11-.58-.55-.39-.91-.94-1.06-1.67l.97-.23c.12.52.36.91.73,1.17s.85.4,1.45.4c.67,0,1.2-.15,1.61-.45.41-.3.61-.68.61-1.12,0-.72-.48-1.2-1.43-1.43l-1.42-.34c-.76-.18-1.32-.47-1.69-.86s-.55-.88-.55-1.46c0-.48.13-.9.39-1.27.26-.37.62-.66,1.08-.87.46-.21.98-.31,1.56-.31.8,0,1.44.18,1.92.55s.82.87,1.03,1.5Z"/>
        <path class="cls-1" d="M252.14,726.24v.88h-4.16v-.88h4.16ZM249.28,724.16h1.01v8.53c0,.47.12.83.35,1.07.23.24.56.36.98.36.09,0,.19,0,.29-.02.1-.01.2-.03.31-.06l.22.91c-.12.05-.26.08-.41.11s-.32.04-.48.04c-.65,0-1.18-.2-1.61-.6s-.64-.92-.64-1.57v-8.77Z"/>
        <path class="cls-1" d="M254.64,738.24c-.2,0-.38-.01-.56-.05s-.31-.08-.42-.13l.27-.88.12.03c.48.14.89.12,1.22-.05s.62-.58.85-1.21l.32-.89-3.21-8.82h1.1l2.59,7.41h.08l2.59-7.41h1.09l-3.69,10.11c-.16.42-.35.77-.57,1.05s-.49.49-.79.63-.63.21-1,.21Z"/>
        <path class="cls-1" d="M263.17,723.33v11.64h-1.01v-11.64h1.01Z"/>
        <path class="cls-1" d="M268.87,735.16c-.81,0-1.52-.19-2.12-.57s-1.06-.91-1.38-1.59c-.32-.68-.48-1.46-.48-2.34s.16-1.66.48-2.34c.32-.68.77-1.22,1.34-1.61s1.24-.59,1.99-.59c.47,0,.92.09,1.37.26.44.17.84.44,1.2.79.35.35.63.8.84,1.35.2.54.3,1.19.3,1.94v.45h-6.82v-.89h6.27l-.46.34c0-.63-.11-1.2-.32-1.7s-.52-.9-.93-1.19c-.4-.29-.88-.44-1.45-.44s-1.05.15-1.47.44c-.42.29-.75.69-.98,1.17-.23.49-.35,1.02-.35,1.6v.52c0,.7.12,1.31.36,1.82.24.52.59.92,1.03,1.21.45.29.97.43,1.57.43.41,0,.77-.06,1.09-.2.31-.13.58-.31.79-.53.21-.22.38-.46.48-.72l.96.32c-.14.37-.35.7-.65,1.01-.3.31-.67.56-1.12.75-.45.19-.96.29-1.54.29Z"/>
        <path class="cls-1" d="M281.49,735.16c-.78,0-1.46-.2-2.04-.59s-1.03-.93-1.34-1.61-.48-1.45-.48-2.32.16-1.66.48-2.34.77-1.21,1.35-1.61,1.25-.59,2.01-.59c.58,0,1.11.11,1.59.34s.87.54,1.18.95c.31.41.5.88.58,1.43h-1.02c-.07-.33-.21-.63-.42-.9-.21-.27-.47-.49-.79-.65s-.69-.25-1.11-.25c-.56,0-1.05.15-1.48.45-.43.3-.76.72-1,1.26-.24.54-.36,1.16-.36,1.87s.12,1.33.35,1.88.57.97,1,1.28c.43.31.93.46,1.5.46s1.08-.16,1.5-.49.69-.77.81-1.32h1.02c-.07.53-.26,1-.56,1.41-.3.41-.68.74-1.16.97-.47.24-1.01.36-1.61.36Z"/>
        <path class="cls-1" d="M292.05,731.64v-5.41h1.01v8.73h-1.01v-1.45h-.08c-.21.45-.53.82-.98,1.12-.44.3-.98.45-1.62.44-.56,0-1.05-.12-1.48-.36s-.77-.6-1.02-1.08-.37-1.06-.37-1.75v-5.66h1.01v5.6c0,.68.2,1.22.61,1.64.4.42.92.62,1.54.62.4,0,.78-.09,1.14-.28s.66-.46.9-.83c.23-.36.35-.81.35-1.34Z"/>
        <path class="cls-1" d="M298.66,726.24v.88h-4.16v-.88h4.16ZM295.8,724.16h1.01v8.53c0,.47.12.83.35,1.07.23.24.56.36.98.36.09,0,.19,0,.29-.02.1-.01.2-.03.31-.06l.22.91c-.12.05-.26.08-.41.11s-.32.04-.48.04c-.65,0-1.18-.2-1.61-.6s-.64-.92-.64-1.57v-8.77Z"/>
        <path class="cls-1" d="M303.89,726.24v.88h-4.16v-.88h4.16ZM301.03,724.16h1.01v8.53c0,.47.12.83.35,1.07.23.24.56.36.98.36.09,0,.19,0,.29-.02.1-.01.2-.03.31-.06l.22.91c-.12.05-.26.08-.41.11s-.32.04-.48.04c-.65,0-1.18-.2-1.61-.6s-.64-.92-.64-1.57v-8.77Z"/>
        <path class="cls-1" d="M306.19,724.75c-.21,0-.39-.07-.54-.21-.15-.14-.22-.32-.22-.52s.07-.37.22-.51.33-.21.54-.21.39.07.53.21.22.31.22.51-.07.38-.22.52c-.15.14-.32.21-.53.21ZM305.68,734.97v-8.73h1.01v8.73h-1.01Z"/>
        <path class="cls-1" d="M309.87,729.52v5.45h-1.01v-8.73h.98v1.38h.1c.2-.45.52-.81.95-1.09.43-.27.97-.41,1.61-.41.59,0,1.11.12,1.55.37.45.25.79.6,1.04,1.08.25.47.38,1.06.38,1.75v5.65h-1.01v-5.59c0-.71-.2-1.28-.6-1.7s-.94-.63-1.61-.63c-.46,0-.87.1-1.23.3-.36.2-.64.48-.85.85s-.31.81-.31,1.32Z"/>
        <path class="cls-1" d="M320.97,738.42c-.89,0-1.62-.17-2.18-.5s-.97-.75-1.23-1.25l.83-.55c.12.22.29.44.5.65s.49.39.83.52.75.21,1.25.21c.78,0,1.4-.19,1.88-.58s.71-.98.71-1.8v-1.97h-.1c-.11.27-.28.53-.5.79-.22.26-.5.48-.86.66-.35.17-.79.26-1.32.26-.7,0-1.32-.17-1.86-.52s-.96-.84-1.27-1.48c-.31-.64-.46-1.41-.46-2.29s.15-1.66.45-2.33c.3-.67.72-1.19,1.27-1.57.54-.38,1.17-.57,1.89-.57.54,0,.98.1,1.34.29.35.19.64.42.85.7.21.28.38.54.5.8h.11v-1.67h.97v8.96c0,.74-.16,1.35-.46,1.82s-.74.83-1.28,1.06-1.16.34-1.85.34ZM320.91,733.96c.84,0,1.49-.3,1.96-.91.47-.6.7-1.43.7-2.48,0-.68-.1-1.29-.31-1.82-.21-.53-.51-.95-.91-1.25s-.88-.46-1.45-.46-1.08.16-1.48.47c-.4.32-.7.74-.91,1.27s-.31,1.12-.31,1.78.1,1.26.31,1.77c.21.51.51.91.92,1.2.4.29.89.43,1.47.43Z"/>
        <path class="cls-1" d="M239.92,738.15v-1.09h85.74v1.09h-85.74Z"/>
      </g>
      <g>
        <path class="cls-1" d="M241,233.93v-8.73h.98v1.35h.1c.17-.45.46-.81.87-1.07.41-.26.9-.39,1.47-.39s1.09.14,1.48.43c.39.28.67.67.87,1.16h.08c.2-.48.52-.86.96-1.15s.98-.43,1.61-.43c.81,0,1.46.26,1.93.77.47.51.71,1.25.71,2.23v5.85h-1.02v-5.85c0-.69-.18-1.2-.53-1.55-.35-.35-.82-.52-1.39-.52-.67,0-1.18.21-1.54.62s-.54.93-.54,1.56v5.74h-1.04v-5.95c0-.59-.16-1.06-.49-1.43-.33-.36-.79-.55-1.39-.55-.4,0-.76.1-1.08.3-.32.2-.57.48-.76.82-.18.35-.28.75-.28,1.21v5.59h-1.01Z"/>
        <path class="cls-1" d="M256.67,234.12c-.53,0-1.01-.1-1.45-.31s-.79-.51-1.04-.9c-.26-.39-.39-.87-.39-1.43,0-.43.08-.79.24-1.09.16-.29.39-.53.7-.72.3-.19.66-.34,1.07-.45.41-.11.86-.2,1.36-.25.49-.06.9-.12,1.24-.16.34-.04.6-.12.77-.21.18-.1.27-.26.27-.48v-.2c0-.6-.18-1.07-.53-1.41-.35-.34-.86-.51-1.52-.51s-1.14.14-1.54.41c-.4.28-.67.6-.83.98l-.97-.35c.2-.47.47-.85.82-1.14.35-.29.74-.49,1.17-.62.43-.13.87-.19,1.31-.19.33,0,.68.04,1.04.13.36.09.7.24,1.01.45.31.21.57.51.76.89s.29.87.29,1.45v5.92h-1.02v-1.38h-.06c-.11.26-.29.5-.53.75s-.54.44-.9.6-.78.23-1.27.23ZM256.82,233.2c.54,0,1-.12,1.39-.36.39-.24.7-.56.91-.96.21-.4.32-.84.32-1.31v-1.26c-.08.07-.2.14-.38.2-.17.06-.38.11-.6.15-.23.04-.46.08-.69.11s-.44.06-.61.08c-.49.06-.91.16-1.26.29-.35.13-.62.31-.8.53-.18.22-.28.51-.28.87,0,.53.19.94.57,1.23.38.29.86.44,1.43.44Z"/>
        <path class="cls-1" d="M268.49,227.12l-.92.25c-.14-.39-.36-.72-.68-1s-.77-.41-1.36-.41-1.07.14-1.45.43c-.38.28-.57.65-.57,1.09,0,.37.13.67.39.91.26.24.66.42,1.2.56l1.32.32c.73.18,1.28.46,1.64.85s.55.87.55,1.45c0,.49-.14.93-.41,1.31-.27.39-.65.69-1.14.91s-1.05.33-1.69.33c-.85,0-1.56-.19-2.11-.58-.55-.39-.91-.94-1.06-1.67l.97-.23c.12.52.36.91.73,1.17s.85.4,1.45.4c.67,0,1.2-.15,1.61-.45.41-.3.61-.68.61-1.12,0-.72-.48-1.2-1.43-1.43l-1.42-.34c-.76-.18-1.32-.47-1.69-.86s-.55-.88-.55-1.46c0-.48.13-.9.39-1.27.26-.37.62-.66,1.08-.87.46-.21.98-.31,1.56-.31.8,0,1.44.18,1.92.55s.82.87,1.03,1.5Z"/>
        <path class="cls-1" d="M276.19,227.12l-.92.25c-.14-.39-.36-.72-.68-1s-.77-.41-1.36-.41-1.07.14-1.45.43c-.38.28-.57.65-.57,1.09,0,.37.13.67.39.91.26.24.66.42,1.2.56l1.32.32c.73.18,1.28.46,1.64.85s.55.87.55,1.45c0,.49-.14.93-.41,1.31-.27.39-.65.69-1.14.91s-1.05.33-1.69.33c-.85,0-1.56-.19-2.11-.58-.55-.39-.91-.94-1.06-1.67l.97-.23c.12.52.36.91.73,1.17s.85.4,1.45.4c.67,0,1.2-.15,1.61-.45.41-.3.61-.68.61-1.12,0-.72-.48-1.2-1.43-1.43l-1.42-.34c-.76-.18-1.32-.47-1.69-.86s-.55-.88-.55-1.46c0-.48.13-.9.39-1.27.26-.37.62-.66,1.08-.87.46-.21.98-.31,1.56-.31.8,0,1.44.18,1.92.55s.82.87,1.03,1.5Z"/>
        <path class="cls-1" d="M280.47,234.12c-.53,0-1.01-.1-1.45-.31s-.79-.51-1.04-.9c-.26-.39-.39-.87-.39-1.43,0-.43.08-.79.24-1.09.16-.29.39-.53.7-.72.3-.19.66-.34,1.07-.45.41-.11.86-.2,1.36-.25.49-.06.9-.12,1.24-.16.34-.04.6-.12.77-.21.18-.1.27-.26.27-.48v-.2c0-.6-.18-1.07-.53-1.41-.35-.34-.86-.51-1.52-.51s-1.14.14-1.54.41c-.4.28-.67.6-.83.98l-.97-.35c.2-.47.47-.85.82-1.14.35-.29.74-.49,1.17-.62.43-.13.87-.19,1.31-.19.33,0,.68.04,1.04.13.36.09.7.24,1.01.45.31.21.57.51.76.89s.29.87.29,1.45v5.92h-1.02v-1.38h-.06c-.11.26-.29.5-.53.75s-.54.44-.9.6-.78.23-1.27.23ZM280.61,233.2c.54,0,1-.12,1.39-.36.39-.24.7-.56.91-.96.21-.4.32-.84.32-1.31v-1.26c-.08.07-.2.14-.38.2-.17.06-.38.11-.6.15-.23.04-.46.08-.69.11s-.44.06-.61.08c-.49.06-.91.16-1.26.29-.35.13-.62.31-.8.53-.18.22-.28.51-.28.87,0,.53.19.94.57,1.23.38.29.86.44,1.43.44Z"/>
        <path class="cls-1" d="M289.75,237.38c-.89,0-1.62-.17-2.18-.5-.56-.33-.97-.75-1.23-1.25l.83-.55c.12.22.29.44.5.65s.49.39.83.52c.34.14.75.21,1.25.21.78,0,1.4-.19,1.88-.58.48-.39.71-.98.71-1.8v-1.97h-.1c-.11.27-.28.53-.5.79-.22.26-.5.48-.86.66-.35.17-.79.26-1.32.26-.7,0-1.32-.17-1.86-.52s-.96-.84-1.27-1.48c-.31-.64-.46-1.41-.46-2.29s.15-1.66.45-2.33c.3-.67.72-1.19,1.27-1.57.54-.38,1.17-.57,1.89-.57.54,0,.98.1,1.34.29.35.19.64.42.85.7.21.28.38.54.5.8h.11v-1.67h.97v8.96c0,.74-.16,1.35-.46,1.82s-.74.83-1.28,1.06c-.54.23-1.16.34-1.85.34ZM289.69,232.91c.84,0,1.49-.3,1.96-.91.47-.6.7-1.43.7-2.48,0-.68-.1-1.29-.31-1.82-.21-.53-.51-.95-.91-1.25s-.88-.46-1.45-.46-1.08.16-1.48.47c-.4.32-.7.74-.91,1.27s-.31,1.12-.31,1.78.1,1.26.31,1.77c.21.51.51.91.92,1.2.4.29.89.43,1.47.43Z"/>
        <path class="cls-1" d="M299.06,234.12c-.81,0-1.52-.19-2.12-.57s-1.06-.91-1.38-1.59c-.32-.68-.48-1.46-.48-2.34s.16-1.66.48-2.34c.32-.68.77-1.22,1.34-1.61s1.24-.59,1.99-.59c.47,0,.92.09,1.37.26.44.17.84.44,1.2.79.35.35.63.8.84,1.35.2.54.3,1.19.3,1.94v.45h-6.82v-.89h6.27l-.46.34c0-.64-.11-1.2-.32-1.7s-.52-.9-.93-1.19c-.4-.29-.88-.44-1.45-.44s-1.05.15-1.47.44c-.42.29-.75.69-.98,1.17-.23.49-.35,1.02-.35,1.6v.52c0,.7.12,1.31.36,1.82.24.52.59.92,1.03,1.21.45.29.97.43,1.57.43.41,0,.77-.06,1.09-.2.31-.13.58-.31.79-.53.21-.22.38-.46.48-.72l.96.32c-.14.36-.35.7-.65,1.01-.3.31-.67.56-1.12.75s-.96.29-1.54.29Z"/>
        <path class="cls-1" d="M239.92,237.11v-1.09h63.27v1.09h-63.27Z"/>
      </g>
      <g>
        <path class="cls-1" d="M68.53,246.1c-.71,0-1.34-.19-1.88-.57-.54-.38-.96-.91-1.26-1.59-.3-.68-.45-1.47-.45-2.38s.15-1.68.45-2.36c.3-.68.72-1.2,1.26-1.58.54-.38,1.17-.57,1.88-.57.54,0,.98.1,1.33.29.35.19.64.42.85.7.22.28.38.54.5.8h.09v-4.58h1.01v11.64h-.98v-1.62h-.12c-.11.27-.28.54-.5.82s-.5.52-.86.71-.8.29-1.33.29ZM68.65,245.18c.57,0,1.05-.16,1.45-.47s.7-.74.91-1.29c.21-.54.32-1.17.32-1.86s-.1-1.32-.31-1.86c-.21-.54-.51-.96-.91-1.26s-.88-.46-1.45-.46-1.07.16-1.47.48c-.4.32-.7.75-.91,1.29s-.31,1.14-.31,1.82.1,1.28.31,1.83.51.98.91,1.3c.4.32.89.48,1.46.48Z"/>
        <path class="cls-1" d="M74.49,245.91v-8.73h.98v1.35h.08c.18-.44.48-.8.92-1.07.43-.27.93-.4,1.47-.4h.28c.1,0,.19,0,.25,0v1.02s-.12-.01-.23-.03c-.11-.01-.24-.02-.38-.02-.45,0-.85.1-1.21.29-.36.19-.64.46-.84.79s-.3.72-.3,1.15v5.63h-1.01Z"/>
        <path class="cls-1" d="M80.39,249.18c-.2,0-.38-.01-.56-.05-.17-.04-.31-.08-.42-.13l.27-.88.12.03c.48.14.89.12,1.22-.05.34-.17.62-.58.85-1.21l.32-.89-3.21-8.82h1.1l2.59,7.41h.08l2.59-7.41h1.09l-3.69,10.11c-.16.42-.35.77-.57,1.05s-.49.49-.79.63c-.3.14-.63.21-1,.21Z"/>
        <path class="cls-1" d="M91.02,246.07c-.71,0-1.34-.14-1.87-.41s-.95-.65-1.25-1.14c-.3-.48-.45-1.03-.45-1.64,0-.44.09-.83.28-1.18s.45-.69.79-1c.34-.32.75-.65,1.22-1.01l1.7-1.26c.4-.29.7-.58.91-.85.21-.28.32-.62.32-1.02s-.15-.74-.44-1.05c-.29-.31-.68-.46-1.14-.46-.32,0-.61.08-.87.24-.26.16-.46.37-.61.63s-.22.53-.22.82c0,.28.07.55.21.82.14.27.33.55.56.84s.49.61.78.96l5.31,6.56h-1.23l-4.63-5.69c-.39-.48-.74-.9-1.04-1.28-.3-.37-.54-.73-.71-1.08-.17-.35-.26-.73-.26-1.14,0-.51.11-.95.34-1.34.23-.39.55-.69.95-.91.41-.22.87-.33,1.4-.33s1.01.11,1.41.33.7.51.92.88c.22.36.33.77.33,1.21,0,.52-.14.98-.41,1.39-.27.4-.66.8-1.18,1.19l-2.12,1.58c-.58.43-.97.84-1.19,1.21s-.32.69-.32.95c0,.41.11.79.32,1.14.21.35.51.62.89.84s.81.32,1.3.32.93-.1,1.36-.29c.43-.19.81-.47,1.15-.82.34-.36.61-.79.82-1.29s.33-1.05.36-1.66l.98.02c-.02.62-.11,1.15-.26,1.58-.15.44-.32.79-.52,1.07s-.37.51-.52.67c-.04.05-.07.09-.1.14-.03.04-.06.09-.09.14-.35.41-.81.74-1.38.98s-1.16.36-1.79.36Z"/>
        <path class="cls-1" d="M103.21,239.11l-.92.25c-.14-.39-.36-.72-.68-1s-.77-.41-1.36-.41-1.07.14-1.45.43c-.38.28-.57.65-.57,1.09,0,.37.13.67.39.91.26.24.66.42,1.2.56l1.32.32c.73.18,1.28.46,1.64.85s.55.87.55,1.45c0,.49-.14.93-.41,1.31-.27.39-.65.69-1.14.91s-1.05.33-1.69.33c-.85,0-1.56-.19-2.11-.58-.55-.39-.91-.94-1.06-1.67l.97-.23c.12.52.36.91.73,1.17s.85.4,1.45.4c.67,0,1.2-.15,1.61-.45.41-.3.61-.68.61-1.12,0-.72-.48-1.2-1.43-1.43l-1.42-.34c-.76-.18-1.32-.47-1.69-.86s-.55-.88-.55-1.46c0-.48.13-.9.39-1.27.26-.37.62-.66,1.08-.87.46-.21.98-.31,1.56-.31.8,0,1.44.18,1.92.55s.82.87,1.03,1.5Z"/>
        <path class="cls-1" d="M106.06,240.46v5.45h-1.01v-11.64h1.01v4.29h.1c.2-.45.52-.81.95-1.09.43-.27.97-.41,1.63-.41.59,0,1.11.12,1.55.36s.8.6,1.05,1.07c.25.47.38,1.06.38,1.76v5.65h-1.02v-5.59c0-.72-.2-1.29-.61-1.71-.4-.42-.95-.62-1.63-.62-.46,0-.88.1-1.24.3-.36.2-.65.48-.86.85s-.32.81-.32,1.32Z"/>
        <path class="cls-1" d="M116.34,246.11c-.53,0-1.01-.1-1.45-.31s-.79-.51-1.04-.9c-.26-.39-.39-.87-.39-1.43,0-.43.08-.79.24-1.09.16-.29.39-.53.7-.72.3-.19.66-.34,1.07-.45.41-.11.86-.2,1.36-.25.49-.06.9-.12,1.24-.16.34-.04.6-.12.77-.21.18-.1.27-.26.27-.48v-.2c0-.6-.18-1.07-.53-1.41-.35-.34-.86-.51-1.52-.51s-1.14.14-1.54.41c-.4.28-.67.6-.83.98l-.97-.35c.2-.47.47-.85.82-1.14.35-.29.74-.49,1.17-.62.43-.13.87-.19,1.31-.19.33,0,.68.04,1.04.13.36.09.7.24,1.01.45.31.21.57.51.76.89s.29.87.29,1.45v5.92h-1.02v-1.38h-.06c-.11.26-.29.5-.53.75s-.54.44-.9.6-.78.23-1.27.23ZM116.48,245.19c.54,0,1-.12,1.39-.36.39-.24.7-.56.91-.96.21-.4.32-.84.32-1.31v-1.26c-.08.07-.2.14-.38.2-.17.06-.38.11-.6.15-.23.04-.46.08-.69.11s-.44.06-.61.08c-.49.06-.91.16-1.26.29-.35.13-.62.31-.8.53-.18.22-.28.51-.28.87,0,.53.19.94.57,1.23.38.29.86.44,1.43.44Z"/>
        <path class="cls-1" d="M122.29,245.91v-8.73h.98v1.35h.1c.17-.45.46-.81.87-1.07.41-.26.9-.39,1.47-.39s1.09.14,1.48.43c.39.28.67.67.87,1.16h.08c.2-.48.52-.86.96-1.15s.98-.43,1.61-.43c.81,0,1.46.26,1.93.77.47.51.71,1.25.71,2.23v5.85h-1.02v-5.85c0-.69-.18-1.2-.53-1.55-.35-.35-.82-.52-1.39-.52-.67,0-1.18.21-1.54.62s-.54.93-.54,1.56v5.74h-1.04v-5.95c0-.59-.16-1.06-.49-1.43-.33-.36-.79-.55-1.39-.55-.4,0-.76.1-1.08.3-.32.2-.57.48-.76.82-.18.35-.28.75-.28,1.21v5.59h-1.01Z"/>
        <path class="cls-1" d="M135.52,249.18v-12h.98v1.67h.12c.12-.26.29-.53.5-.8.21-.28.5-.51.85-.7.35-.19.8-.29,1.33-.29.72,0,1.35.19,1.89.57.54.38.96.91,1.26,1.58.3.68.45,1.46.45,2.36s-.15,1.69-.45,2.38c-.3.68-.72,1.21-1.26,1.59-.54.38-1.17.57-1.89.57-.53,0-.97-.1-1.32-.29s-.64-.43-.86-.71-.38-.55-.5-.82h-.09v4.89h-1.01ZM139.2,245.18c.57,0,1.06-.16,1.46-.48.4-.32.71-.76.91-1.3s.31-1.16.31-1.83-.1-1.28-.31-1.82-.51-.97-.91-1.29c-.4-.32-.89-.48-1.47-.48s-1.06.15-1.45.46-.7.73-.91,1.26c-.21.54-.31,1.16-.31,1.86s.1,1.32.31,1.86c.21.54.51.97.91,1.29s.88.47,1.45.47Z"/>
        <path class="cls-1" d="M148,246.1c-.75,0-1.42-.19-2-.57s-1.03-.91-1.36-1.59-.49-1.46-.49-2.34.16-1.68.49-2.36.78-1.21,1.36-1.59,1.25-.57,2-.57,1.42.19,2,.57,1.03.91,1.36,1.59.49,1.47.49,2.36-.16,1.66-.49,2.34-.78,1.21-1.36,1.59-1.25.57-2,.57ZM148,245.18c.61,0,1.12-.16,1.54-.49.42-.33.74-.76.96-1.31s.33-1.14.33-1.79-.11-1.26-.33-1.8-.54-.98-.96-1.31-.93-.49-1.54-.49-1.12.17-1.54.5c-.42.33-.74.77-.96,1.31-.22.54-.33,1.14-.33,1.8s.11,1.24.33,1.79.54.98.96,1.31c.42.33.93.49,1.54.49Z"/>
        <path class="cls-1" d="M156.95,246.1c-.75,0-1.42-.19-2-.57s-1.03-.91-1.36-1.59-.49-1.46-.49-2.34.16-1.68.49-2.36.78-1.21,1.36-1.59,1.25-.57,2-.57,1.42.19,2,.57,1.03.91,1.36,1.59.49,1.47.49,2.36-.16,1.66-.49,2.34-.78,1.21-1.36,1.59-1.25.57-2,.57ZM156.95,245.18c.61,0,1.12-.16,1.54-.49.42-.33.74-.76.96-1.31s.33-1.14.33-1.79-.11-1.26-.33-1.8-.54-.98-.96-1.31-.93-.49-1.54-.49-1.12.17-1.54.5c-.42.33-.74.77-.96,1.31-.22.54-.33,1.14-.33,1.8s.11,1.24.33,1.79.54.98.96,1.31c.42.33.93.49,1.54.49Z"/>
        <path class="cls-1" d="M64.31,249.09v-1.09h97.12v1.09h-97.12Z"/>
      </g>
      <line class="cls-2" x1="199.3" y1="234.03" x2="234.84" y2="234.03"/>
      <g>
        <path class="cls-1" d="M244.43,250.4v.88h-4.16v-.88h4.16ZM241.57,248.33h1.01v8.53c0,.47.12.83.35,1.07.23.24.56.36.98.36.09,0,.19,0,.29-.02.1-.01.2-.03.31-.06l.22.91c-.12.05-.26.08-.41.11-.16.03-.32.04-.48.04-.65,0-1.18-.2-1.61-.6s-.64-.92-.64-1.57v-8.77Z"/>
        <path class="cls-1" d="M246.23,259.14v-8.73h.98v1.35h.08c.18-.44.48-.8.92-1.07.43-.27.93-.4,1.47-.4h.28c.1,0,.19,0,.25,0v1.02s-.12-.01-.23-.03c-.11-.01-.24-.02-.38-.02-.45,0-.85.1-1.21.29-.36.19-.64.46-.84.79s-.3.72-.3,1.15v5.63h-1.01Z"/>
        <path class="cls-1" d="M254.96,259.33c-.81,0-1.52-.19-2.12-.57s-1.06-.91-1.38-1.59c-.32-.68-.48-1.46-.48-2.34s.16-1.66.48-2.34c.32-.68.77-1.22,1.34-1.61s1.24-.59,1.99-.59c.47,0,.92.09,1.37.26.44.17.84.44,1.2.79.35.35.63.8.84,1.35.2.54.3,1.19.3,1.94v.45h-6.82v-.89h6.27l-.46.34c0-.64-.11-1.2-.32-1.7s-.52-.9-.93-1.19c-.4-.29-.88-.44-1.45-.44s-1.05.15-1.47.44c-.42.29-.75.69-.98,1.17-.23.49-.35,1.02-.35,1.6v.52c0,.7.12,1.31.36,1.82.24.52.59.92,1.03,1.21.45.29.97.43,1.57.43.41,0,.77-.06,1.09-.2.31-.13.58-.31.79-.53.21-.22.38-.46.48-.72l.96.32c-.14.36-.35.7-.65,1.01-.3.31-.67.56-1.12.75s-.96.29-1.54.29Z"/>
        <path class="cls-1" d="M262.61,259.33c-.53,0-1.01-.1-1.45-.31s-.79-.51-1.04-.9c-.26-.39-.39-.87-.39-1.43,0-.43.08-.79.24-1.09.16-.29.39-.53.7-.72.3-.19.66-.34,1.07-.45.41-.11.86-.2,1.36-.25.49-.06.9-.12,1.24-.16.34-.04.6-.12.77-.21.18-.1.27-.26.27-.48v-.2c0-.6-.18-1.07-.53-1.41-.35-.34-.86-.51-1.52-.51s-1.14.14-1.54.41c-.4.28-.67.6-.83.98l-.97-.35c.2-.47.47-.85.82-1.14.35-.29.74-.49,1.17-.62.43-.13.87-.19,1.31-.19.33,0,.68.04,1.04.13.36.09.7.24,1.01.45.31.21.57.51.76.89s.29.87.29,1.45v5.92h-1.02v-1.38h-.06c-.11.26-.29.5-.53.75s-.54.44-.9.6-.78.23-1.27.23ZM262.75,258.41c.54,0,1-.12,1.39-.36.39-.24.7-.56.91-.96.21-.4.32-.84.32-1.31v-1.26c-.08.07-.2.14-.38.2-.17.06-.38.11-.6.15-.23.04-.46.08-.69.11s-.44.06-.61.08c-.49.06-.91.16-1.26.29-.35.13-.62.31-.8.53-.18.22-.28.51-.28.87,0,.53.19.94.57,1.23.38.29.86.44,1.43.44Z"/>
        <path class="cls-1" d="M272,250.4v.88h-4.16v-.88h4.16ZM269.14,248.33h1.01v8.53c0,.47.12.83.35,1.07.23.24.56.36.98.36.09,0,.19,0,.29-.02.1-.01.2-.03.31-.06l.22.91c-.12.05-.26.08-.41.11-.16.03-.32.04-.48.04-.65,0-1.18-.2-1.61-.6s-.64-.92-.64-1.57v-8.77Z"/>
        <path class="cls-1" d="M273.79,259.14v-8.73h.98v1.35h.1c.17-.45.46-.81.87-1.07.41-.26.9-.39,1.47-.39s1.09.14,1.48.43c.39.28.67.67.87,1.16h.08c.2-.48.52-.86.96-1.15s.98-.43,1.61-.43c.81,0,1.46.26,1.93.77.47.51.71,1.25.71,2.23v5.85h-1.02v-5.85c0-.69-.18-1.2-.53-1.55-.35-.35-.82-.52-1.39-.52-.67,0-1.18.21-1.54.62s-.54.93-.54,1.56v5.74h-1.04v-5.95c0-.59-.16-1.06-.49-1.43-.33-.36-.79-.55-1.39-.55-.4,0-.76.1-1.08.3-.32.2-.57.48-.76.82-.18.35-.28.75-.28,1.21v5.59h-1.01Z"/>
        <path class="cls-1" d="M290.56,259.33c-.81,0-1.52-.19-2.12-.57s-1.06-.91-1.38-1.59c-.32-.68-.48-1.46-.48-2.34s.16-1.66.48-2.34c.32-.68.77-1.22,1.34-1.61s1.24-.59,1.99-.59c.47,0,.92.09,1.37.26.44.17.84.44,1.2.79.35.35.63.8.84,1.35.2.54.3,1.19.3,1.94v.45h-6.82v-.89h6.27l-.46.34c0-.64-.11-1.2-.32-1.7s-.52-.9-.93-1.19c-.4-.29-.88-.44-1.45-.44s-1.05.15-1.47.44c-.42.29-.75.69-.98,1.17-.23.49-.35,1.02-.35,1.6v.52c0,.7.12,1.31.36,1.82.24.52.59.92,1.03,1.21.45.29.97.43,1.57.43.41,0,.77-.06,1.09-.2.31-.13.58-.31.79-.53.21-.22.38-.46.48-.72l.96.32c-.14.36-.35.7-.65,1.01-.3.31-.67.56-1.12.75s-.96.29-1.54.29Z"/>
        <path class="cls-1" d="M296.78,253.69v5.45h-1.01v-8.73h.98v1.38h.1c.2-.45.52-.81.95-1.09.43-.27.97-.41,1.61-.41.59,0,1.11.12,1.55.37.45.24.79.6,1.04,1.08.25.47.38,1.06.38,1.75v5.65h-1.01v-5.59c0-.71-.2-1.28-.6-1.7s-.94-.63-1.61-.63c-.46,0-.87.1-1.23.3-.36.2-.64.48-.85.85s-.31.81-.31,1.32Z"/>
        <path class="cls-1" d="M307.98,250.4v.88h-4.16v-.88h4.16ZM305.12,248.33h1.01v8.53c0,.47.12.83.35,1.07.23.24.56.36.98.36.09,0,.19,0,.29-.02.1-.01.2-.03.31-.06l.22.91c-.12.05-.26.08-.41.11-.16.03-.32.04-.48.04-.65,0-1.18-.2-1.61-.6s-.64-.92-.64-1.57v-8.77Z"/>
        <path class="cls-1" d="M239.92,262.32v-1.09h68.77v1.09h-68.77Z"/>
      </g>
      <g>
        <path class="cls-1" d="M131.21,271.31c-.78,0-1.46-.2-2.04-.59s-1.03-.93-1.34-1.61-.48-1.45-.48-2.32.16-1.66.48-2.34.77-1.21,1.35-1.61,1.25-.59,2.01-.59c.58,0,1.11.11,1.59.34s.87.54,1.18.95c.31.41.5.88.58,1.43h-1.02c-.07-.33-.21-.63-.42-.9-.21-.27-.47-.49-.79-.65s-.69-.25-1.11-.25c-.56,0-1.05.15-1.48.45-.43.3-.76.72-1,1.26-.24.54-.36,1.16-.36,1.87s.12,1.33.35,1.88.57.97,1,1.28c.43.31.93.46,1.5.46s1.08-.16,1.5-.49.69-.77.81-1.32h1.02c-.07.53-.26.99-.56,1.41-.3.41-.68.74-1.16.97s-1.01.36-1.61.36Z"/>
        <path class="cls-1" d="M139.62,271.31c-.75,0-1.42-.19-2-.57s-1.03-.91-1.36-1.59-.49-1.46-.49-2.34.16-1.68.49-2.36.78-1.21,1.36-1.59,1.25-.57,2-.57,1.42.19,2,.57,1.03.91,1.36,1.59.49,1.47.49,2.36-.16,1.66-.49,2.34-.78,1.21-1.36,1.59-1.25.57-2,.57ZM139.62,270.39c.61,0,1.12-.16,1.54-.49.42-.33.74-.76.96-1.31s.33-1.14.33-1.79-.11-1.26-.33-1.8-.54-.98-.96-1.31-.93-.49-1.54-.49-1.12.17-1.54.5c-.42.33-.74.77-.96,1.31-.22.54-.33,1.14-.33,1.8s.11,1.24.33,1.79.54.98.96,1.31c.42.33.93.49,1.54.49Z"/>
        <path class="cls-1" d="M146.19,259.48v11.64h-1.01v-11.64h1.01Z"/>
        <path class="cls-1" d="M151.75,271.31c-.75,0-1.42-.19-2-.57s-1.03-.91-1.36-1.59-.49-1.46-.49-2.34.16-1.68.49-2.36.78-1.21,1.36-1.59,1.25-.57,2-.57,1.42.19,2,.57,1.03.91,1.36,1.59.49,1.47.49,2.36-.16,1.66-.49,2.34-.78,1.21-1.36,1.59-1.25.57-2,.57ZM151.75,270.39c.61,0,1.12-.16,1.54-.49.42-.33.74-.76.96-1.31s.33-1.14.33-1.79-.11-1.26-.33-1.8-.54-.98-.96-1.31-.93-.49-1.54-.49-1.12.17-1.54.5c-.42.33-.74.77-.96,1.31-.22.54-.33,1.14-.33,1.8s.11,1.24.33,1.79.54.98.96,1.31c.42.33.93.49,1.54.49Z"/>
        <path class="cls-1" d="M157.31,271.12v-8.73h.98v1.35h.08c.18-.44.48-.8.92-1.07.43-.27.93-.4,1.47-.4h.28c.1,0,.19,0,.25,0v1.02s-.12-.01-.23-.03c-.11-.01-.24-.02-.38-.02-.45,0-.85.1-1.21.29-.36.19-.64.46-.84.79s-.3.72-.3,1.15v5.63h-1.01Z"/>
        <path class="cls-1" d="M126.72,274.3v-1.09h34.71v1.09h-34.71Z"/>
      </g>
      <g>
        <path class="cls-1" d="M302.24,56.64l-.92.25c-.14-.39-.36-.72-.68-1s-.77-.41-1.36-.41-1.07.14-1.45.43c-.38.28-.57.65-.57,1.09,0,.37.13.67.39.91.26.24.66.42,1.2.56l1.32.32c.73.18,1.28.46,1.64.85s.55.87.55,1.45c0,.49-.14.93-.41,1.31-.27.39-.65.69-1.14.91s-1.05.33-1.69.33c-.85,0-1.56-.19-2.11-.58-.55-.39-.91-.94-1.06-1.67l.97-.23c.12.52.36.91.73,1.17s.85.4,1.45.4c.67,0,1.2-.15,1.61-.45.41-.3.61-.68.61-1.12,0-.72-.48-1.2-1.43-1.43l-1.42-.34c-.76-.18-1.32-.47-1.69-.86s-.55-.88-.55-1.46c0-.48.13-.9.39-1.27.26-.37.62-.66,1.08-.87.46-.21.98-.31,1.56-.31.8,0,1.44.18,1.92.55s.82.87,1.03,1.5Z"/>
        <path class="cls-1" d="M305.09,57.99v5.45h-1.01v-11.64h1.01v4.29h.1c.2-.45.52-.81.95-1.09.43-.27.97-.41,1.63-.41.59,0,1.11.12,1.55.36s.8.6,1.05,1.07c.25.47.38,1.06.38,1.76v5.65h-1.02v-5.59c0-.72-.2-1.29-.61-1.71-.4-.42-.95-.62-1.63-.62-.46,0-.88.1-1.24.3-.36.2-.65.48-.86.85s-.32.81-.32,1.32Z"/>
        <path class="cls-1" d="M315.36,63.64c-.53,0-1.01-.1-1.45-.31s-.79-.51-1.04-.9c-.26-.39-.39-.87-.39-1.43,0-.43.08-.79.24-1.09.16-.29.39-.53.7-.72.3-.19.66-.34,1.07-.45.41-.11.86-.2,1.36-.25.49-.06.9-.12,1.24-.16.34-.04.6-.12.77-.21.18-.1.27-.26.27-.48v-.2c0-.6-.18-1.07-.53-1.41-.35-.34-.86-.51-1.52-.51s-1.14.14-1.54.41c-.4.28-.67.6-.83.98l-.97-.35c.2-.47.47-.85.82-1.14.35-.29.74-.49,1.17-.62.43-.13.87-.19,1.31-.19.33,0,.68.04,1.04.13.36.09.7.24,1.01.45.31.21.57.51.76.89s.29.87.29,1.45v5.92h-1.02v-1.38h-.06c-.11.26-.29.5-.53.75s-.54.44-.9.6-.78.23-1.27.23ZM315.5,62.72c.54,0,1-.12,1.39-.36.39-.24.7-.56.91-.96.21-.4.32-.84.32-1.31v-1.26c-.08.07-.2.14-.38.2-.17.06-.38.11-.6.15-.23.04-.46.08-.69.11s-.44.06-.61.08c-.49.06-.91.16-1.26.29-.35.13-.62.31-.8.53-.18.22-.28.51-.28.87,0,.53.19.94.57,1.23.38.29.86.44,1.43.44Z"/>
        <path class="cls-1" d="M321.31,63.45v-8.73h.98v1.35h.1c.17-.45.46-.81.87-1.07.41-.26.9-.39,1.47-.39s1.09.14,1.48.43c.39.28.67.67.87,1.16h.08c.2-.48.52-.86.96-1.15s.98-.43,1.61-.43c.81,0,1.46.26,1.93.77.47.51.71,1.25.71,2.23v5.85h-1.02v-5.85c0-.69-.18-1.2-.53-1.55-.35-.35-.82-.52-1.39-.52-.67,0-1.18.21-1.54.62s-.54.93-.54,1.56v5.74h-1.04v-5.95c0-.59-.16-1.06-.49-1.43-.33-.36-.79-.55-1.39-.55-.4,0-.76.1-1.08.3-.32.2-.57.48-.76.82-.18.35-.28.75-.28,1.21v5.59h-1.01Z"/>
        <path class="cls-1" d="M334.55,66.71v-12h.98v1.67h.12c.12-.26.29-.53.5-.8.21-.28.5-.51.85-.7.35-.19.8-.29,1.33-.29.72,0,1.35.19,1.89.57.54.38.96.91,1.26,1.58.3.68.45,1.46.45,2.36s-.15,1.69-.45,2.38c-.3.68-.72,1.21-1.26,1.59-.54.38-1.17.57-1.89.57-.53,0-.97-.1-1.32-.29s-.64-.43-.86-.71-.38-.55-.5-.82h-.09v4.89h-1.01ZM338.22,62.71c.57,0,1.06-.16,1.46-.48.4-.32.71-.76.91-1.3s.31-1.16.31-1.83-.1-1.28-.31-1.82-.51-.97-.91-1.29c-.4-.32-.89-.48-1.47-.48s-1.06.15-1.45.46-.7.73-.91,1.26c-.21.54-.31,1.16-.31,1.86s.1,1.32.31,1.86c.21.54.51.97.91,1.29s.88.47,1.45.47Z"/>
        <path class="cls-1" d="M347.02,63.63c-.75,0-1.42-.19-2-.57s-1.03-.91-1.36-1.59-.49-1.46-.49-2.34.16-1.68.49-2.36.78-1.21,1.36-1.59,1.25-.57,2-.57,1.42.19,2,.57,1.03.91,1.36,1.59.49,1.47.49,2.36-.16,1.66-.49,2.34-.78,1.21-1.36,1.59-1.25.57-2,.57ZM347.02,62.71c.61,0,1.12-.16,1.54-.49.42-.33.74-.76.96-1.31s.33-1.14.33-1.79-.11-1.26-.33-1.8-.54-.98-.96-1.31-.93-.49-1.54-.49-1.12.17-1.54.5c-.42.33-.74.77-.96,1.31-.22.54-.33,1.14-.33,1.8s.11,1.24.33,1.79.54.98.96,1.31c.42.33.93.49,1.54.49Z"/>
        <path class="cls-1" d="M355.98,63.63c-.75,0-1.42-.19-2-.57s-1.03-.91-1.36-1.59-.49-1.46-.49-2.34.16-1.68.49-2.36.78-1.21,1.36-1.59,1.25-.57,2-.57,1.42.19,2,.57,1.03.91,1.36,1.59.49,1.47.49,2.36-.16,1.66-.49,2.34-.78,1.21-1.36,1.59-1.25.57-2,.57ZM355.98,62.71c.61,0,1.12-.16,1.54-.49.42-.33.74-.76.96-1.31s.33-1.14.33-1.79-.11-1.26-.33-1.8-.54-.98-.96-1.31-.93-.49-1.54-.49-1.12.17-1.54.5c-.42.33-.74.77-.96,1.31-.22.54-.33,1.14-.33,1.8s.11,1.24.33,1.79.54.98.96,1.31c.42.33.93.49,1.54.49Z"/>
        <path class="cls-1" d="M295.29,66.63v-1.09h65.16v1.09h-65.16Z"/>
      </g>
      <line class="cls-2" x1="256.67" y1="59.05" x2="292.21" y2="59.05"/>
      <g>
        <path class="cls-1" d="M246.86,277.54l-.92.25c-.14-.39-.36-.72-.68-1s-.77-.41-1.36-.41-1.07.14-1.45.43c-.38.28-.57.65-.57,1.09,0,.37.13.67.39.91.26.24.66.42,1.2.56l1.32.32c.73.18,1.28.46,1.64.85s.55.87.55,1.45c0,.49-.14.93-.41,1.31-.27.39-.65.69-1.14.91s-1.05.33-1.69.33c-.85,0-1.56-.19-2.11-.58-.55-.39-.91-.94-1.06-1.67l.97-.23c.12.52.36.91.73,1.17s.85.4,1.45.4c.67,0,1.2-.15,1.61-.45.41-.3.61-.68.61-1.12,0-.72-.48-1.2-1.43-1.43l-1.42-.34c-.76-.18-1.32-.47-1.69-.86s-.55-.88-.55-1.46c0-.48.13-.9.39-1.27.26-.37.62-.66,1.08-.87.46-.21.98-.31,1.56-.31.8,0,1.44.18,1.92.55s.82.87,1.03,1.5Z"/>
        <path class="cls-1" d="M252.14,275.61v.88h-4.16v-.88h4.16ZM249.28,273.54h1.01v8.53c0,.47.12.83.35,1.07.23.24.56.36.98.36.09,0,.19,0,.29-.02.1-.01.2-.03.31-.06l.22.91c-.12.05-.26.08-.41.11-.16.03-.32.04-.48.04-.65,0-1.18-.2-1.61-.6s-.64-.92-.64-1.57v-8.77Z"/>
        <path class="cls-1" d="M253.93,284.35v-8.73h.98v1.35h.08c.18-.44.48-.8.92-1.07.43-.27.93-.4,1.47-.4h.28c.1,0,.19,0,.25,0v1.02s-.12-.01-.23-.03c-.11-.01-.24-.02-.38-.02-.45,0-.85.1-1.21.29-.36.19-.64.46-.84.79s-.3.72-.3,1.15v5.63h-1.01Z"/>
        <path class="cls-1" d="M261.57,284.54c-.53,0-1.01-.1-1.45-.31s-.79-.51-1.04-.9c-.26-.39-.39-.87-.39-1.43,0-.43.08-.79.24-1.09.16-.29.39-.53.7-.72.3-.19.66-.34,1.07-.45.41-.11.86-.2,1.36-.25.49-.06.9-.12,1.24-.16.34-.04.6-.12.77-.21.18-.1.27-.26.27-.48v-.2c0-.6-.18-1.07-.53-1.41-.35-.34-.86-.51-1.52-.51s-1.14.14-1.54.41c-.4.28-.67.6-.83.98l-.97-.35c.2-.47.47-.85.82-1.14.35-.29.74-.49,1.17-.62.43-.13.87-.19,1.31-.19.33,0,.68.04,1.04.13.36.09.7.24,1.01.45.31.21.57.51.76.89s.29.87.29,1.45v5.92h-1.02v-1.38h-.06c-.11.26-.29.5-.53.75s-.54.44-.9.6-.78.23-1.27.23ZM261.71,283.62c.54,0,1-.12,1.39-.36.39-.24.7-.56.91-.96.21-.4.32-.84.32-1.31v-1.26c-.08.07-.2.14-.38.2-.17.06-.38.11-.6.15-.23.04-.46.08-.69.11s-.44.06-.61.08c-.49.06-.91.16-1.26.29-.35.13-.62.31-.8.53-.18.22-.28.51-.28.87,0,.53.19.94.57,1.23.38.29.86.44,1.43.44Z"/>
        <path class="cls-1" d="M268.03,274.12c-.21,0-.39-.07-.54-.21-.15-.14-.22-.32-.22-.52s.07-.37.22-.51.33-.21.54-.21.39.07.53.21.22.31.22.51-.07.38-.22.52c-.15.14-.32.21-.53.21ZM267.53,284.35v-8.73h1.01v8.73h-1.01Z"/>
        <path class="cls-1" d="M274.03,287.8c-.89,0-1.62-.17-2.18-.5-.56-.33-.97-.75-1.23-1.25l.83-.55c.12.22.29.44.5.65s.49.39.83.52c.34.14.75.21,1.25.21.78,0,1.4-.19,1.88-.58.48-.39.71-.98.71-1.8v-1.97h-.1c-.11.27-.28.53-.5.79-.22.26-.5.48-.86.66-.35.17-.79.26-1.32.26-.7,0-1.32-.17-1.86-.52s-.96-.84-1.27-1.48c-.31-.64-.46-1.41-.46-2.29s.15-1.66.45-2.33c.3-.67.72-1.19,1.27-1.57.54-.38,1.17-.57,1.89-.57.54,0,.98.1,1.34.29.35.19.64.42.85.7.21.28.38.54.5.8h.11v-1.67h.97v8.96c0,.74-.16,1.35-.46,1.82s-.74.83-1.28,1.06c-.54.23-1.16.34-1.85.34ZM273.97,283.33c.84,0,1.49-.3,1.96-.91.47-.6.7-1.43.7-2.48,0-.68-.1-1.29-.31-1.82-.21-.53-.51-.95-.91-1.25s-.88-.46-1.45-.46-1.08.16-1.48.47c-.4.32-.7.74-.91,1.27s-.31,1.12-.31,1.78.1,1.26.31,1.77c.21.51.51.91.92,1.2.4.29.89.43,1.47.43Z"/>
        <path class="cls-1" d="M280.82,278.9v5.45h-1.01v-11.64h1.01v4.29h.1c.2-.45.52-.81.95-1.09.43-.27.97-.41,1.63-.41.59,0,1.11.12,1.55.36s.8.6,1.05,1.07c.25.47.38,1.06.38,1.76v5.65h-1.02v-5.59c0-.72-.2-1.29-.61-1.71-.4-.42-.95-.62-1.63-.62-.46,0-.88.1-1.24.3-.36.2-.65.48-.86.85s-.32.81-.32,1.32Z"/>
        <path class="cls-1" d="M292.08,275.61v.88h-4.16v-.88h4.16ZM289.22,273.54h1.01v8.53c0,.47.12.83.35,1.07.23.24.56.36.98.36.09,0,.19,0,.29-.02.1-.01.2-.03.31-.06l.22.91c-.12.05-.26.08-.41.11-.16.03-.32.04-.48.04-.65,0-1.18-.2-1.61-.6s-.64-.92-.64-1.57v-8.77Z"/>
        <path class="cls-1" d="M239.92,287.53v-1.09h52.88v1.09h-52.88Z"/>
      </g>
      <g>
        <path class="cls-1" d="M119.32,296.33v-8.73h.98v1.35h.1c.17-.45.46-.81.87-1.07.41-.26.9-.39,1.47-.39s1.09.14,1.48.43c.39.28.67.67.87,1.16h.08c.2-.48.52-.86.96-1.15s.98-.43,1.61-.43c.81,0,1.46.26,1.93.77.47.51.71,1.25.71,2.23v5.85h-1.02v-5.85c0-.69-.18-1.2-.53-1.55-.35-.35-.82-.52-1.39-.52-.67,0-1.18.21-1.54.62s-.54.93-.54,1.56v5.74h-1.04v-5.95c0-.59-.16-1.06-.49-1.43-.33-.36-.79-.55-1.39-.55-.4,0-.76.1-1.08.3-.32.2-.57.48-.76.82-.18.35-.28.75-.28,1.21v5.59h-1.01Z"/>
        <path class="cls-1" d="M135.95,296.52c-.75,0-1.42-.19-2-.57s-1.03-.91-1.36-1.59-.49-1.46-.49-2.34.16-1.68.49-2.36.78-1.21,1.36-1.59,1.25-.57,2-.57,1.42.19,2,.57,1.03.91,1.36,1.59.49,1.47.49,2.36-.16,1.66-.49,2.34-.78,1.21-1.36,1.59-1.25.57-2,.57ZM135.95,295.6c.61,0,1.12-.16,1.54-.49.42-.33.74-.76.96-1.31s.33-1.14.33-1.79-.11-1.26-.33-1.8-.54-.98-.96-1.31-.93-.49-1.54-.49-1.12.17-1.54.5c-.42.33-.74.77-.96,1.31-.22.54-.33,1.14-.33,1.8s.11,1.24.33,1.79.54.98.96,1.31c.42.33.93.49,1.54.49Z"/>
        <path class="cls-1" d="M144.64,296.52c-.71,0-1.34-.19-1.88-.57-.54-.38-.96-.91-1.26-1.59-.3-.68-.45-1.47-.45-2.38s.15-1.68.45-2.36c.3-.68.72-1.2,1.26-1.58.54-.38,1.17-.57,1.88-.57.54,0,.98.1,1.33.29.35.19.64.42.85.7.22.28.38.54.5.8h.09v-4.58h1.01v11.64h-.98v-1.62h-.12c-.11.27-.28.54-.5.82s-.5.52-.86.71-.8.29-1.33.29ZM144.76,295.6c.57,0,1.05-.16,1.45-.47s.7-.74.91-1.29c.21-.54.32-1.17.32-1.86s-.1-1.32-.31-1.86c-.21-.54-.51-.96-.91-1.26s-.88-.46-1.45-.46-1.07.16-1.47.48c-.4.32-.7.75-.91,1.29s-.31,1.14-.31,1.82.1,1.28.31,1.83.51.98.91,1.3c.4.32.89.48,1.46.48Z"/>
        <path class="cls-1" d="M154.13,296.52c-.81,0-1.52-.19-2.12-.57s-1.06-.91-1.38-1.59c-.32-.68-.48-1.46-.48-2.34s.16-1.66.48-2.34c.32-.68.77-1.22,1.34-1.61s1.24-.59,1.99-.59c.47,0,.92.09,1.37.26.44.17.84.44,1.2.79.35.35.63.8.84,1.35.2.54.3,1.19.3,1.94v.45h-6.82v-.89h6.27l-.46.34c0-.64-.11-1.2-.32-1.7s-.52-.9-.93-1.19c-.4-.29-.88-.44-1.45-.44s-1.05.15-1.47.44c-.42.29-.75.69-.98,1.17-.23.49-.35,1.02-.35,1.6v.52c0,.7.12,1.31.36,1.82.24.52.59.92,1.03,1.21.45.29.97.43,1.57.43.41,0,.77-.06,1.09-.2.31-.13.58-.31.79-.53.21-.22.38-.46.48-.72l.96.32c-.14.36-.35.7-.65,1.01-.3.31-.67.56-1.12.75s-.96.29-1.54.29Z"/>
        <path class="cls-1" d="M160.34,284.69v11.64h-1.01v-11.64h1.01Z"/>
        <path class="cls-1" d="M118.24,299.51v-1.09h43.2v1.09h-43.2Z"/>
      </g>
      <g>
        <path class="cls-1" d="M241,312.82v-12h.98v1.67h.12c.12-.26.29-.53.5-.8.21-.28.5-.51.85-.7.35-.19.8-.29,1.33-.29.72,0,1.35.19,1.89.57.54.38.96.91,1.26,1.58.3.68.45,1.46.45,2.36s-.15,1.69-.45,2.38c-.3.68-.72,1.21-1.26,1.59-.54.38-1.17.57-1.89.57-.53,0-.97-.1-1.32-.29s-.64-.43-.86-.71-.38-.55-.5-.82h-.09v4.89h-1.01ZM244.67,308.82c.57,0,1.06-.16,1.46-.48.4-.32.71-.76.91-1.3s.31-1.16.31-1.83-.1-1.28-.31-1.82-.51-.97-.91-1.29c-.4-.32-.89-.48-1.47-.48s-1.06.15-1.45.46-.7.73-.91,1.26c-.21.54-.31,1.16-.31,1.86s.1,1.32.31,1.86c.21.54.51.97.91,1.29s.88.47,1.45.47Z"/>
        <path class="cls-1" d="M253.62,309.74c-.81,0-1.52-.19-2.12-.57s-1.06-.91-1.38-1.59c-.32-.68-.48-1.46-.48-2.34s.16-1.66.48-2.34c.32-.68.77-1.22,1.34-1.61s1.24-.59,1.99-.59c.47,0,.92.09,1.37.26.44.17.84.44,1.2.79.35.35.63.8.84,1.35.2.54.3,1.19.3,1.94v.45h-6.82v-.89h6.27l-.46.34c0-.64-.11-1.2-.32-1.7s-.52-.9-.93-1.19c-.4-.29-.88-.44-1.45-.44s-1.05.15-1.47.44c-.42.29-.75.69-.98,1.17-.23.49-.35,1.02-.35,1.6v.52c0,.7.12,1.31.36,1.82.24.52.59.92,1.03,1.21.45.29.97.43,1.57.43.41,0,.77-.06,1.09-.2.31-.13.58-.31.79-.53.21-.22.38-.46.48-.72l.96.32c-.14.36-.35.7-.65,1.01-.3.31-.67.56-1.12.75s-.96.29-1.54.29Z"/>
        <path class="cls-1" d="M258.83,309.56v-8.73h.98v1.35h.08c.18-.44.48-.8.92-1.07.43-.27.93-.4,1.47-.4h.28c.1,0,.19,0,.25,0v1.02s-.12-.01-.23-.03c-.11-.01-.24-.02-.38-.02-.45,0-.85.1-1.21.29-.36.19-.64.46-.84.79s-.3.72-.3,1.15v5.63h-1.01Z"/>
        <path class="cls-1" d="M264.03,309.56v-8.73h.98v1.35h.1c.17-.45.46-.81.87-1.07.41-.26.9-.39,1.47-.39s1.09.14,1.48.43c.39.28.67.67.87,1.16h.08c.2-.48.52-.86.96-1.15s.98-.43,1.61-.43c.81,0,1.46.26,1.93.77.47.51.71,1.25.71,2.23v5.85h-1.02v-5.85c0-.69-.18-1.2-.53-1.55-.35-.35-.82-.52-1.39-.52-.67,0-1.18.21-1.54.62s-.54.93-.54,1.56v5.74h-1.04v-5.95c0-.59-.16-1.06-.49-1.43-.33-.36-.79-.55-1.39-.55-.4,0-.76.1-1.08.3-.32.2-.57.48-.76.82-.18.35-.28.75-.28,1.21v5.59h-1.01Z"/>
        <path class="cls-1" d="M283.71,309.75c-.53,0-1.01-.1-1.45-.31s-.79-.51-1.04-.9c-.26-.39-.39-.87-.39-1.43,0-.43.08-.79.24-1.09.16-.29.39-.53.7-.72.3-.19.66-.34,1.07-.45.41-.11.86-.2,1.36-.25.49-.06.9-.12,1.24-.16.34-.04.6-.12.77-.21.18-.1.27-.26.27-.48v-.2c0-.6-.18-1.07-.53-1.41-.35-.34-.86-.51-1.52-.51s-1.14.14-1.54.41c-.4.28-.67.6-.83.98l-.97-.35c.2-.47.47-.85.82-1.14.35-.29.74-.49,1.17-.62.43-.13.87-.19,1.31-.19.33,0,.68.04,1.04.13.36.09.7.24,1.01.45.31.21.57.51.76.89s.29.87.29,1.45v5.92h-1.02v-1.38h-.06c-.11.26-.29.5-.53.75s-.54.44-.9.6-.78.23-1.27.23ZM283.85,308.83c.54,0,1-.12,1.39-.36.39-.24.7-.56.91-.96.21-.4.32-.84.32-1.31v-1.26c-.08.07-.2.14-.38.2-.17.06-.38.11-.6.15-.23.04-.46.08-.69.11s-.44.06-.61.08c-.49.06-.91.16-1.26.29-.35.13-.62.31-.8.53-.18.22-.28.51-.28.87,0,.53.19.94.57,1.23.38.29.86.44,1.43.44Z"/>
        <path class="cls-1" d="M289.66,312.82v-12h.98v1.67h.12c.12-.26.29-.53.5-.8.21-.28.5-.51.85-.7.35-.19.8-.29,1.33-.29.72,0,1.35.19,1.89.57.54.38.96.91,1.26,1.58.3.68.45,1.46.45,2.36s-.15,1.69-.45,2.38c-.3.68-.72,1.21-1.26,1.59-.54.38-1.17.57-1.89.57-.53,0-.97-.1-1.32-.29s-.64-.43-.86-.71-.38-.55-.5-.82h-.09v4.89h-1.01ZM293.33,308.82c.57,0,1.06-.16,1.46-.48.4-.32.71-.76.91-1.3s.31-1.16.31-1.83-.1-1.28-.31-1.82-.51-.97-.91-1.29c-.4-.32-.89-.48-1.47-.48s-1.06.15-1.45.46-.7.73-.91,1.26c-.21.54-.31,1.16-.31,1.86s.1,1.32.31,1.86c.21.54.51.97.91,1.29s.88.47,1.45.47Z"/>
        <path class="cls-1" d="M298.75,312.82v-12h.98v1.67h.12c.12-.26.29-.53.5-.8.21-.28.5-.51.85-.7.35-.19.8-.29,1.33-.29.72,0,1.35.19,1.89.57.54.38.96.91,1.26,1.58.3.68.45,1.46.45,2.36s-.15,1.69-.45,2.38c-.3.68-.72,1.21-1.26,1.59-.54.38-1.17.57-1.89.57-.53,0-.97-.1-1.32-.29s-.64-.43-.86-.71-.38-.55-.5-.82h-.09v4.89h-1.01ZM302.42,308.82c.57,0,1.06-.16,1.46-.48.4-.32.71-.76.91-1.3s.31-1.16.31-1.83-.1-1.28-.31-1.82-.51-.97-.91-1.29c-.4-.32-.89-.48-1.47-.48s-1.06.15-1.45.46-.7.73-.91,1.26c-.21.54-.31,1.16-.31,1.86s.1,1.32.31,1.86c.21.54.51.97.91,1.29s.88.47,1.45.47Z"/>
        <path class="cls-1" d="M308.84,297.92v11.64h-1.01v-11.64h1.01Z"/>
        <path class="cls-1" d="M311.71,312.82c-.2,0-.38-.01-.56-.05-.17-.04-.31-.08-.42-.13l.27-.88.12.03c.48.14.89.12,1.22-.05.34-.17.62-.58.85-1.21l.32-.89-3.21-8.82h1.1l2.59,7.41h.08l2.59-7.41h1.09l-3.69,10.11c-.16.42-.35.77-.57,1.05s-.49.49-.79.63c-.3.14-.63.21-1,.21Z"/>
        <path class="cls-1" d="M239.92,312.74v-1.09h78.23v1.09h-78.23Z"/>
      </g>
      <g>
        <line class="cls-2" x1="199.01" y1="188.14" x2="199.01" y2="872.48"/>
        <circle class="cls-1" cx="198.9" cy="388.07" r="58"/>
        <circle class="cls-1" cx="198.9" cy="648.29" r="58"/>
        <circle class="cls-1" cx="198.9" cy="892.57" r="58"/>
        <circle class="cls-5" cx="198.9" cy="58.25" r="58"/>
        <circle class="cls-5" cx="199.01" cy="160.06" r="58"/>
        <circle class="cls-4" cx="198.9" cy="58.25" r="58"/>
        <circle class="cls-4" cx="198.9" cy="159.95" r="58"/>
        <g>
          <path class="cls-5" d="M173.44,377.37c-1.11,0-2.11-.27-2.98-.82s-1.56-1.32-2.06-2.32-.75-2.2-.75-3.57.25-2.58.75-3.59,1.18-1.78,2.06-2.33,1.87-.82,2.98-.82c.66,0,1.28.1,1.86.29.58.19,1.11.47,1.58.84s.86.81,1.17,1.34.53,1.13.65,1.8h-1.58c-.09-.46-.26-.86-.49-1.2s-.51-.64-.84-.87-.7-.42-1.09-.54-.81-.18-1.25-.18c-.79,0-1.51.2-2.15.6s-1.16.99-1.53,1.78c-.38.78-.57,1.74-.57,2.88s.19,2.09.57,2.87c.38.78.89,1.37,1.53,1.77s1.36.6,2.15.6c.43,0,.85-.06,1.25-.18s.76-.3,1.09-.54.61-.53.84-.87.39-.75.49-1.2h1.58c-.12.67-.33,1.27-.65,1.8s-.7.97-1.17,1.34-1,.65-1.58.84c-.58.19-1.2.29-1.86.29Z"/>
          <path class="cls-5" d="M184.2,377.4c-.88,0-1.66-.21-2.33-.63s-1.19-1.01-1.56-1.78c-.37-.76-.56-1.65-.56-2.65s.19-1.92.56-2.69c.37-.76.89-1.36,1.56-1.78s1.44-.63,2.33-.63,1.67.21,2.34.63,1.19,1.02,1.56,1.78.56,1.66.56,2.69-.19,1.89-.56,2.65-.9,1.35-1.56,1.78-1.45.63-2.34.63ZM184.2,376.05c.68,0,1.24-.17,1.67-.52s.76-.8.97-1.37.32-1.17.32-1.82-.11-1.28-.32-1.85-.53-1.03-.97-1.38-.99-.52-1.67-.52-1.22.17-1.65.52-.76.81-.97,1.38-.32,1.18-.32,1.85.11,1.26.32,1.82.53,1.02.97,1.37.98.52,1.65.52Z"/>
          <path class="cls-5" d="M191.62,364.1v13.1h-1.49v-13.1h1.49Z"/>
          <path class="cls-5" d="M197.53,377.4c-.88,0-1.66-.21-2.33-.63s-1.19-1.01-1.56-1.78c-.37-.76-.56-1.65-.56-2.65s.19-1.92.56-2.69c.37-.76.89-1.36,1.56-1.78s1.44-.63,2.33-.63,1.67.21,2.34.63,1.19,1.02,1.56,1.78.56,1.66.56,2.69-.19,1.89-.56,2.65-.9,1.35-1.56,1.78-1.45.63-2.34.63ZM197.53,376.05c.68,0,1.24-.17,1.67-.52s.76-.8.97-1.37.32-1.17.32-1.82-.11-1.28-.32-1.85-.53-1.03-.97-1.38-.99-.52-1.67-.52-1.22.17-1.65.52-.76.81-.97,1.38-.32,1.18-.32,1.85.11,1.26.32,1.82.53,1.02.97,1.37.98.52,1.65.52Z"/>
          <path class="cls-5" d="M204.94,364.1v13.1h-1.49v-13.1h1.49Z"/>
          <path class="cls-5" d="M206.88,377.19v-9.83h1.44v1.49h.11c.18-.49.51-.88.98-1.18.47-.3,1-.45,1.59-.45.11,0,.25,0,.41,0s.29,0,.38.01v1.53c-.05-.01-.17-.03-.35-.05s-.38-.04-.58-.04c-.47,0-.9.1-1.27.3s-.67.47-.88.82-.32.74-.32,1.19v6.21h-1.49Z"/>
          <path class="cls-5" d="M213.49,365.73c-.29,0-.54-.1-.76-.3s-.32-.44-.32-.72.11-.52.32-.72.46-.3.76-.3.54.1.76.3.32.44.32.72-.11.52-.32.72-.46.3-.76.3ZM212.73,377.19v-9.83h1.49v9.83h-1.49Z"/>
          <path class="cls-5" d="M223.1,369.58l-1.35.37c-.13-.33-.35-.65-.66-.95s-.8-.45-1.46-.45c-.6,0-1.1.14-1.49.42s-.6.63-.6,1.04c0,.38.14.67.41.9.27.22.7.4,1.28.54l1.46.35c.87.21,1.53.54,1.96.98.43.44.65,1,.65,1.68,0,.56-.16,1.07-.48,1.51s-.77.8-1.34,1.05-1.24.39-2,.39c-1,0-1.83-.22-2.48-.66-.65-.44-1.07-1.08-1.24-1.91l1.42-.35c.13.53.39.92.78,1.19s.89.4,1.51.4c.7,0,1.25-.15,1.67-.45s.63-.66.63-1.08c0-.69-.49-1.15-1.46-1.39l-1.63-.39c-.9-.22-1.56-.55-1.99-.99s-.63-1-.63-1.68c0-.56.16-1.05.47-1.48.31-.43.74-.76,1.29-1.01s1.16-.36,1.85-.36c.98,0,1.74.22,2.3.65.55.43.95.99,1.18,1.69Z"/>
          <path class="cls-5" d="M228.97,367.37v1.28h-5.08v-1.28h5.08ZM225.37,365.03h1.49v9.35c0,.51.11.88.32,1.12s.54.36,1,.36c.1,0,.2,0,.31-.02.11-.01.23-.03.36-.05l.32,1.35c-.14.05-.31.1-.51.13-.2.03-.41.05-.61.05-.79,0-1.43-.23-1.93-.7s-.74-1.08-.74-1.83v-9.76Z"/>
          <path class="cls-5" d="M177.42,385.7v13.1h-1.58v-13.1h1.58ZM179.88,398.79h-3.15v-1.41h3.04c1.08,0,1.98-.21,2.69-.62.71-.42,1.24-1.01,1.6-1.78s.53-1.69.53-2.76-.17-1.96-.52-2.73-.86-1.35-1.55-1.77-1.54-.62-2.57-.62h-3.29v-1.41h3.39c1.27,0,2.36.26,3.27.78.9.52,1.6,1.27,2.08,2.25s.72,2.14.72,3.49-.24,2.54-.73,3.52-1.19,1.74-2.12,2.26c-.93.53-2.06.79-3.39.79Z"/>
          <path class="cls-5" d="M191.85,399c-.94,0-1.76-.21-2.45-.63-.69-.42-1.22-1.01-1.59-1.77s-.55-1.64-.55-2.64.18-1.9.54-2.66.88-1.37,1.53-1.8c.66-.43,1.43-.65,2.32-.65.51,0,1.02.08,1.52.25s.96.45,1.38.83c.41.38.74.88.99,1.51s.37,1.4.37,2.31v.65h-7.58v-1.3h6.76l-.69.49c0-.66-.1-1.24-.31-1.75s-.51-.91-.92-1.2-.91-.44-1.52-.44-1.12.15-1.55.44c-.43.3-.76.68-.99,1.16s-.34.98-.34,1.53v.86c0,.74.13,1.37.39,1.89s.62.91,1.08,1.17,1,.4,1.61.4c.39,0,.75-.06,1.07-.17s.6-.29.83-.52.41-.52.54-.86l1.46.42c-.15.49-.41.92-.77,1.3-.36.37-.81.66-1.34.87s-1.13.31-1.79.31Z"/>
          <path class="cls-5" d="M201.82,399c-.63,0-1.13-.11-1.51-.32s-.67-.46-.88-.73-.36-.5-.47-.67h-.18v1.51h-1.44v-13.1h1.49v4.83h.12c.11-.17.27-.39.47-.65s.49-.51.86-.72.88-.32,1.52-.32c.83,0,1.55.21,2.18.62s1.12,1,1.47,1.76c.35.76.53,1.65.53,2.69s-.18,1.94-.53,2.7-.84,1.35-1.47,1.77-1.35.62-2.17.62ZM201.62,397.65c.63,0,1.15-.17,1.57-.51s.74-.79.95-1.36c.21-.57.32-1.2.32-1.9s-.11-1.32-.32-1.87-.53-1-.95-1.33-.95-.49-1.59-.49-1.13.15-1.55.46-.73.74-.95,1.29-.32,1.2-.32,1.94.11,1.39.33,1.96.53,1.01.95,1.33c.42.32.93.48,1.53.48Z"/>
          <path class="cls-5" d="M213.63,394.78v-5.82h1.49v9.83h-1.49v-1.67h-.11c-.23.5-.59.92-1.08,1.27-.48.35-1.1.52-1.84.52-.62,0-1.16-.13-1.63-.4s-.85-.68-1.12-1.23c-.27-.55-.41-1.25-.41-2.08v-6.24h1.49v6.15c0,.71.2,1.28.61,1.71.41.43.92.64,1.55.63.38,0,.76-.1,1.15-.29s.72-.48.98-.88.4-.9.4-1.51Z"/>
          <path class="cls-5" d="M221.31,388.97v1.28h-5.08v-1.28h5.08ZM217.71,386.63h1.49v9.35c0,.51.11.88.32,1.12s.54.36,1,.36c.1,0,.2,0,.31-.02.11-.01.23-.03.36-.05l.32,1.35c-.14.05-.31.1-.51.13-.2.03-.41.05-.61.05-.79,0-1.43-.23-1.93-.7s-.74-1.08-.74-1.83v-9.76Z"/>
        </g>
        <g>
          <path class="cls-5" d="M180.23,635.51c-.94,0-1.75-.15-2.43-.45s-1.22-.72-1.61-1.27c-.39-.54-.61-1.17-.66-1.88h1.63c.05.49.21.9.51,1.22.29.32.66.56,1.11.72s.94.24,1.46.24c.6,0,1.15-.1,1.63-.3.48-.2.87-.48,1.15-.83s.42-.78.42-1.26c0-.43-.12-.79-.37-1.05s-.57-.49-.96-.66c-.39-.17-.82-.32-1.29-.45l-1.6-.46c-1.03-.29-1.84-.71-2.43-1.26-.6-.55-.89-1.26-.89-2.15,0-.73.2-1.37.59-1.92.39-.55.93-.97,1.61-1.28.68-.3,1.43-.46,2.26-.46s1.59.15,2.25.45,1.18.71,1.56,1.23.59,1.11.62,1.76h-1.55c-.08-.64-.39-1.15-.93-1.5s-1.21-.54-2.01-.54c-.57,0-1.08.09-1.51.28s-.77.45-1.01.77-.36.7-.36,1.12c0,.46.14.84.43,1.12s.63.51,1.02.66c.39.16.75.28,1.08.38l1.32.37c.34.09.72.22,1.14.38.42.16.82.37,1.21.64.39.27.71.61.96,1.03s.38.94.38,1.55c0,.7-.18,1.34-.55,1.91s-.91,1.03-1.61,1.36-1.56.51-2.57.51Z"/>
          <path class="cls-5" d="M190.78,625.46v1.28h-5.08v-1.28h5.08ZM187.17,623.12h1.49v9.35c0,.51.11.88.32,1.12s.54.36,1,.36c.1,0,.2,0,.31-.02.11-.01.23-.03.36-.05l.32,1.35c-.14.05-.31.09-.51.13-.2.03-.41.05-.61.05-.79,0-1.43-.23-1.93-.7s-.74-1.08-.74-1.83v-9.76Z"/>
          <path class="cls-5" d="M193.18,638.96c-.26,0-.49-.01-.69-.05s-.34-.08-.42-.12l.39-1.32.15.04c.5.12.93.09,1.27-.08.34-.17.64-.6.9-1.31l.28-.77-3.62-9.88h1.63l2.71,7.84h.11l2.71-7.84h1.63l-4.17,11.25c-.19.51-.42.93-.69,1.27s-.59.58-.96.74-.77.24-1.23.24Z"/>
          <path class="cls-5" d="M202.89,622.19v13.1h-1.49v-13.1h1.49Z"/>
          <path class="cls-5" d="M205.58,623.82c-.29,0-.54-.1-.76-.3s-.32-.44-.32-.72.11-.52.32-.72.46-.3.76-.3.54.1.76.3.32.44.32.72-.11.52-.32.72-.46.3-.76.3ZM204.82,635.28v-9.83h1.49v9.83h-1.49Z"/>
          <path class="cls-5" d="M215.19,627.67l-1.35.37c-.13-.33-.35-.65-.66-.95s-.8-.45-1.46-.45c-.6,0-1.1.14-1.49.42s-.6.63-.6,1.04c0,.38.14.67.41.9.27.22.7.4,1.28.54l1.46.35c.87.21,1.53.54,1.96.98.43.44.65,1,.65,1.68,0,.56-.16,1.07-.48,1.51s-.77.8-1.34,1.05-1.24.39-2,.39c-1,0-1.83-.22-2.48-.66-.65-.44-1.07-1.08-1.24-1.91l1.42-.35c.13.53.39.92.78,1.19s.89.4,1.51.4c.7,0,1.25-.15,1.67-.45s.63-.66.63-1.08c0-.69-.49-1.15-1.46-1.39l-1.63-.39c-.9-.22-1.56-.55-1.99-.99s-.63-1-.63-1.68c0-.56.16-1.05.47-1.48.31-.43.74-.76,1.29-1.01s1.16-.36,1.85-.36c.98,0,1.74.21,2.3.65.55.43.95,1,1.18,1.69Z"/>
          <path class="cls-5" d="M221.06,625.46v1.28h-5.08v-1.28h5.08ZM217.46,623.12h1.49v9.35c0,.51.11.88.32,1.12s.54.36,1,.36c.1,0,.2,0,.31-.02.11-.01.23-.03.36-.05l.32,1.35c-.14.05-.31.09-.51.13-.2.03-.41.05-.61.05-.79,0-1.43-.23-1.93-.7s-.74-1.08-.74-1.83v-9.76Z"/>
          <path class="cls-5" d="M177.42,643.79v13.1h-1.58v-13.1h1.58ZM179.88,656.88h-3.15v-1.41h3.04c1.08,0,1.98-.21,2.69-.62.71-.42,1.24-1.01,1.6-1.78s.53-1.69.53-2.76-.17-1.96-.52-2.73-.86-1.35-1.55-1.77-1.54-.62-2.57-.62h-3.29v-1.41h3.39c1.27,0,2.36.26,3.27.78.9.52,1.6,1.27,2.08,2.25s.72,2.14.72,3.49-.24,2.54-.73,3.52-1.19,1.74-2.12,2.26c-.93.53-2.06.79-3.39.79Z"/>
          <path class="cls-5" d="M191.85,657.09c-.94,0-1.76-.21-2.45-.63-.69-.42-1.22-1.01-1.59-1.77s-.55-1.64-.55-2.64.18-1.9.54-2.66.88-1.37,1.53-1.8c.66-.43,1.43-.65,2.32-.65.51,0,1.02.08,1.52.25s.96.45,1.38.83c.41.38.74.88.99,1.51s.37,1.4.37,2.31v.65h-7.58v-1.3h6.76l-.69.49c0-.66-.1-1.24-.31-1.75s-.51-.91-.92-1.2-.91-.44-1.52-.44-1.12.15-1.55.44c-.43.3-.76.68-.99,1.16s-.34.98-.34,1.53v.86c0,.74.13,1.37.39,1.89s.62.91,1.08,1.17,1,.4,1.61.4c.39,0,.75-.06,1.07-.17s.6-.29.83-.52.41-.52.54-.86l1.46.42c-.15.49-.41.92-.77,1.3-.36.37-.81.66-1.34.87s-1.13.31-1.79.31Z"/>
          <path class="cls-5" d="M201.82,657.09c-.63,0-1.13-.11-1.51-.32s-.67-.46-.88-.73-.36-.5-.47-.67h-.18v1.51h-1.44v-13.1h1.49v4.83h.12c.11-.17.27-.39.47-.65s.49-.51.86-.72.88-.32,1.52-.32c.83,0,1.55.21,2.18.62s1.12,1,1.47,1.76c.35.76.53,1.65.53,2.68s-.18,1.94-.53,2.7-.84,1.35-1.47,1.77-1.35.62-2.17.62ZM201.62,655.74c.63,0,1.15-.17,1.57-.5s.74-.79.95-1.36c.21-.57.32-1.2.32-1.9s-.11-1.32-.32-1.87-.53-1-.95-1.33-.95-.49-1.59-.49-1.13.15-1.55.46-.73.74-.95,1.29-.32,1.2-.32,1.94.11,1.39.33,1.96.53,1.01.95,1.33c.42.32.93.48,1.53.48Z"/>
          <path class="cls-5" d="M213.63,652.87v-5.82h1.49v9.83h-1.49v-1.67h-.11c-.23.5-.59.92-1.08,1.27-.48.35-1.1.52-1.84.52-.62,0-1.16-.13-1.63-.4s-.85-.68-1.12-1.23c-.27-.55-.41-1.25-.41-2.08v-6.24h1.49v6.15c0,.71.2,1.28.61,1.71.41.43.92.64,1.55.63.38,0,.76-.09,1.15-.29s.72-.48.98-.88.4-.9.4-1.51Z"/>
          <path class="cls-5" d="M221.31,647.05v1.28h-5.08v-1.28h5.08ZM217.71,644.72h1.49v9.35c0,.51.11.88.32,1.12s.54.36,1,.36c.1,0,.2,0,.31-.02.11-.01.23-.03.36-.05l.32,1.35c-.14.05-.31.1-.51.13-.2.03-.41.05-.61.05-.79,0-1.43-.23-1.93-.7s-.74-1.08-.74-1.83v-9.76Z"/>
        </g>
        <g>
          <path class="cls-5" d="M157.9,882.89v-1.41h9.83v1.41h-4.11v11.69h-1.58v-11.69h-4.13Z"/>
          <path class="cls-5" d="M173.1,894.79c-.88,0-1.66-.21-2.33-.63s-1.19-1.01-1.56-1.78c-.37-.76-.56-1.65-.56-2.65s.19-1.92.56-2.68c.37-.76.89-1.36,1.56-1.78s1.44-.63,2.33-.63,1.67.21,2.34.63,1.19,1.02,1.56,1.78.56,1.66.56,2.68-.19,1.89-.56,2.65-.9,1.35-1.56,1.78-1.45.63-2.34.63ZM173.1,893.44c.68,0,1.24-.17,1.67-.52s.76-.8.97-1.37.32-1.17.32-1.82-.11-1.28-.32-1.85-.53-1.03-.97-1.38-.99-.52-1.67-.52-1.22.17-1.65.52-.76.81-.97,1.38-.32,1.18-.32,1.85.11,1.26.32,1.82.53,1.02.97,1.37.98.52,1.65.52Z"/>
          <path class="cls-5" d="M179.03,898.25v-13.5h1.44v1.56h.18c.11-.17.27-.39.47-.65s.49-.51.86-.72.88-.32,1.52-.32c.83,0,1.55.21,2.18.62s1.12,1,1.47,1.76c.35.76.53,1.65.53,2.68s-.18,1.94-.53,2.7-.84,1.35-1.47,1.77-1.35.62-2.17.62c-.63,0-1.13-.11-1.51-.32s-.67-.46-.88-.73-.36-.5-.47-.67h-.12v5.19h-1.49ZM183.31,893.44c.63,0,1.15-.17,1.57-.5s.74-.79.95-1.36c.21-.57.32-1.2.32-1.9s-.11-1.32-.32-1.87-.53-1-.95-1.33-.95-.49-1.59-.49-1.13.15-1.55.46-.73.74-.95,1.29-.32,1.2-.32,1.94.11,1.39.33,1.96.53,1.01.95,1.33c.42.32.93.48,1.53.48Z"/>
          <path class="cls-5" d="M197.69,894.81c-.94,0-1.75-.15-2.43-.45s-1.22-.72-1.61-1.27c-.39-.54-.61-1.17-.66-1.89h1.63c.05.49.21.9.51,1.22.29.32.66.56,1.11.72s.94.24,1.46.24c.6,0,1.15-.1,1.63-.3.48-.2.87-.48,1.15-.83s.42-.78.42-1.26c0-.43-.12-.79-.37-1.05s-.57-.49-.96-.66c-.39-.17-.82-.32-1.29-.45l-1.6-.46c-1.03-.29-1.84-.71-2.43-1.26-.6-.55-.89-1.26-.89-2.15,0-.73.2-1.37.59-1.92.39-.55.93-.97,1.61-1.28.68-.3,1.43-.46,2.26-.46s1.59.15,2.25.45,1.18.71,1.56,1.23.59,1.11.62,1.76h-1.55c-.08-.64-.39-1.15-.93-1.5s-1.21-.54-2.01-.54c-.57,0-1.08.09-1.51.28s-.77.45-1.01.77-.36.7-.36,1.12c0,.46.14.84.43,1.12s.63.5,1.02.66c.39.16.75.28,1.08.38l1.32.37c.34.09.72.22,1.14.38.42.16.82.37,1.21.64.39.27.71.61.96,1.03s.38.94.38,1.55c0,.7-.18,1.34-.55,1.91s-.91,1.03-1.61,1.36-1.56.5-2.57.5Z"/>
          <path class="cls-5" d="M208.24,884.75v1.28h-5.08v-1.28h5.08ZM204.64,882.42h1.49v9.35c0,.51.11.88.32,1.12s.54.36,1,.36c.1,0,.2,0,.31-.02.11-.01.23-.03.36-.05l.32,1.35c-.14.05-.31.1-.51.13-.2.03-.41.05-.61.05-.79,0-1.43-.23-1.93-.7s-.74-1.08-.74-1.83v-9.76Z"/>
          <path class="cls-5" d="M210.65,898.25c-.26,0-.49-.01-.69-.05s-.34-.08-.42-.12l.39-1.32.15.04c.5.12.93.09,1.27-.07.34-.17.64-.61.9-1.31l.28-.77-3.62-9.88h1.63l2.71,7.84h.11l2.71-7.84h1.63l-4.17,11.25c-.19.51-.42.93-.69,1.27s-.59.58-.96.74-.77.24-1.23.24Z"/>
          <path class="cls-5" d="M220.35,881.48v13.1h-1.49v-13.1h1.49Z"/>
          <path class="cls-5" d="M223.04,883.12c-.29,0-.54-.1-.76-.3s-.32-.44-.32-.72.11-.52.32-.72.46-.3.76-.3.54.1.76.3.32.44.32.72-.11.52-.32.72-.46.3-.76.3ZM222.29,894.58v-9.83h1.49v9.83h-1.49Z"/>
          <path class="cls-5" d="M232.66,886.97l-1.35.37c-.13-.33-.35-.65-.66-.95s-.8-.45-1.46-.45c-.6,0-1.1.14-1.49.42s-.6.62-.6,1.04c0,.38.14.67.41.9.27.22.7.4,1.28.54l1.46.35c.87.21,1.53.54,1.96.98.43.44.65,1,.65,1.68,0,.56-.16,1.07-.48,1.51s-.77.8-1.34,1.05-1.24.39-2,.39c-1,0-1.83-.22-2.48-.66-.65-.44-1.07-1.08-1.24-1.91l1.42-.35c.13.53.39.92.78,1.19s.89.4,1.51.4c.7,0,1.25-.15,1.67-.45s.63-.66.63-1.08c0-.69-.49-1.15-1.46-1.39l-1.63-.39c-.9-.22-1.56-.55-1.99-.99s-.63-1-.63-1.68c0-.56.16-1.05.47-1.48.31-.43.74-.76,1.29-1.01s1.16-.37,1.85-.37c.98,0,1.74.22,2.3.65.55.43.95.99,1.18,1.69Z"/>
          <path class="cls-5" d="M238.53,884.75v1.28h-5.08v-1.28h5.08ZM234.92,882.42h1.49v9.35c0,.51.11.88.32,1.12s.54.36,1,.36c.1,0,.2,0,.31-.02.11-.01.23-.03.36-.05l.32,1.35c-.14.05-.31.1-.51.13-.2.03-.41.05-.61.05-.79,0-1.43-.23-1.93-.7s-.74-1.08-.74-1.83v-9.76Z"/>
        </g>
        <g>
          <path class="cls-1" d="M174.52,36.41v-13.1h4.59c.91,0,1.66.16,2.25.47s1.03.73,1.32,1.26c.29.53.44,1.11.44,1.75,0,.56-.1,1.03-.3,1.39s-.46.66-.78.87-.67.37-1.05.48v.12c.4.02.81.16,1.21.42s.74.62,1.02,1.1c.27.47.41,1.06.41,1.75s-.15,1.25-.45,1.77-.77.94-1.41,1.25c-.64.31-1.48.46-2.52.46h-4.73ZM176.1,29.08h2.95c.47,0,.91-.1,1.29-.29s.69-.46.92-.8c.22-.34.34-.74.34-1.2,0-.57-.2-1.06-.6-1.47s-1.03-.61-1.9-.61h-3.01v4.36ZM176.1,35h3.15c1.04,0,1.77-.2,2.21-.61.44-.4.65-.89.65-1.47,0-.45-.11-.86-.34-1.23-.23-.38-.55-.68-.96-.91s-.91-.34-1.48-.34h-3.23v4.55Z"/>
          <path class="cls-1" d="M189.31,36.62c-.94,0-1.76-.21-2.45-.63-.69-.42-1.22-1.01-1.59-1.77s-.55-1.64-.55-2.64.18-1.9.54-2.66.88-1.37,1.53-1.8c.66-.43,1.43-.65,2.32-.65.51,0,1.02.08,1.52.25s.96.45,1.38.83c.41.38.74.88.99,1.51s.37,1.4.37,2.31v.65h-7.58v-1.3h6.76l-.69.49c0-.66-.1-1.24-.31-1.75s-.51-.91-.92-1.2-.91-.44-1.52-.44-1.12.15-1.55.44c-.43.3-.76.68-.99,1.16s-.34.98-.34,1.53v.86c0,.74.13,1.37.39,1.89s.62.91,1.08,1.17,1,.4,1.61.4c.39,0,.75-.06,1.07-.17s.6-.29.83-.52.41-.52.54-.86l1.46.42c-.15.49-.41.92-.77,1.3-.36.37-.81.66-1.34.87s-1.13.31-1.79.31Z"/>
          <path class="cls-1" d="M199.15,26.58v1.28h-5.29v-1.28h5.29ZM195.44,36.41v-11.18c0-.56.13-1.03.4-1.41.27-.38.61-.66,1.03-.84s.86-.28,1.33-.28c.38,0,.68.03.92.09.24.06.41.12.52.17l-.44,1.3c-.08-.03-.18-.06-.31-.1-.13-.04-.31-.06-.53-.06-.5,0-.86.13-1.09.38s-.34.63-.34,1.11v10.81h-1.49Z"/>
          <path class="cls-1" d="M204.41,36.62c-.88,0-1.66-.21-2.33-.63s-1.19-1.01-1.56-1.78c-.37-.76-.56-1.65-.56-2.65s.19-1.92.56-2.69c.37-.76.89-1.36,1.56-1.78s1.44-.63,2.33-.63,1.67.21,2.34.63,1.19,1.02,1.56,1.78.56,1.66.56,2.69-.19,1.89-.56,2.65-.9,1.35-1.56,1.78-1.45.63-2.34.63ZM204.41,35.26c.68,0,1.24-.17,1.67-.52s.76-.8.97-1.37.32-1.17.32-1.82-.11-1.28-.32-1.85-.53-1.03-.97-1.38-.99-.52-1.67-.52-1.22.17-1.65.52-.76.81-.97,1.38-.32,1.18-.32,1.85.11,1.26.32,1.82.53,1.02.97,1.37.98.52,1.65.52Z"/>
          <path class="cls-1" d="M210.33,36.41v-9.83h1.44v1.49h.11c.18-.49.51-.88.98-1.18.47-.3,1-.45,1.59-.45.11,0,.25,0,.41,0s.29,0,.38.01v1.53c-.05-.01-.17-.03-.35-.05s-.38-.04-.58-.04c-.47,0-.9.1-1.27.3s-.67.47-.88.82-.32.74-.32,1.19v6.21h-1.49Z"/>
          <path class="cls-1" d="M220.3,36.62c-.94,0-1.76-.21-2.45-.63-.69-.42-1.22-1.01-1.59-1.77s-.55-1.64-.55-2.64.18-1.9.54-2.66.88-1.37,1.53-1.8c.66-.43,1.43-.65,2.32-.65.51,0,1.02.08,1.52.25s.96.45,1.38.83c.41.38.74.88.99,1.51s.37,1.4.37,2.31v.65h-7.58v-1.3h6.76l-.69.49c0-.66-.1-1.24-.31-1.75s-.51-.91-.92-1.2-.91-.44-1.52-.44-1.12.15-1.55.44c-.43.3-.76.68-.99,1.16s-.34.98-.34,1.53v.86c0,.74.13,1.37.39,1.89s.62.91,1.08,1.17,1,.4,1.61.4c.39,0,.75-.06,1.07-.17s.6-.29.83-.52.41-.52.54-.86l1.46.42c-.15.49-.41.92-.77,1.3-.36.37-.81.66-1.34.87s-1.13.31-1.79.31Z"/>
          <path class="cls-1" d="M184.16,55.91c-.94,0-1.76-.21-2.45-.63-.69-.42-1.22-1.01-1.59-1.77s-.55-1.64-.55-2.64.18-1.9.54-2.66.88-1.37,1.53-1.8c.66-.43,1.43-.65,2.32-.65.51,0,1.02.08,1.52.25s.96.45,1.38.83c.41.38.74.88.99,1.51s.37,1.4.37,2.31v.65h-7.58v-1.3h6.76l-.69.49c0-.66-.1-1.24-.31-1.75s-.51-.91-.92-1.2-.91-.44-1.52-.44-1.12.15-1.55.44c-.43.3-.76.68-.99,1.16s-.34.98-.34,1.53v.86c0,.74.13,1.37.39,1.89s.62.91,1.08,1.17,1,.4,1.61.4c.39,0,.75-.06,1.07-.17s.6-.29.83-.52.41-.52.54-.86l1.46.42c-.15.49-.41.92-.77,1.3-.36.37-.81.66-1.34.87s-1.13.31-1.79.31Z"/>
          <path class="cls-1" d="M191.13,49.79v5.91h-1.49v-9.83h1.44v1.55h.14c.23-.5.58-.91,1.05-1.21s1.08-.46,1.82-.46c.66,0,1.24.13,1.74.4s.89.68,1.16,1.23.42,1.24.42,2.08v6.24h-1.49v-6.13c0-.77-.2-1.37-.61-1.81s-.96-.65-1.65-.65c-.48,0-.91.11-1.29.32s-.68.52-.9.91c-.22.4-.33.88-.33,1.46Z"/>
          <path class="cls-1" d="M203.6,45.87v1.28h-5.08v-1.28h5.08ZM199.99,43.53h1.49v9.35c0,.51.11.88.32,1.12s.54.36,1,.36c.1,0,.2,0,.31-.02.11-.01.23-.03.36-.05l.32,1.35c-.14.05-.31.1-.51.13-.2.03-.41.05-.61.05-.79,0-1.43-.23-1.93-.7s-.74-1.08-.74-1.83v-9.76Z"/>
          <path class="cls-1" d="M205.04,55.7v-9.83h1.44v1.49h.11c.18-.49.51-.88.98-1.18.47-.3,1-.45,1.59-.45.11,0,.25,0,.41,0s.29,0,.38.01v1.53c-.05-.01-.17-.03-.35-.05s-.38-.04-.58-.04c-.47,0-.9.1-1.27.3s-.67.47-.88.82-.32.74-.32,1.19v6.21h-1.49Z"/>
          <path class="cls-1" d="M211.86,59.37c-.26,0-.49-.01-.69-.05s-.34-.08-.42-.12l.39-1.32.15.04c.5.12.93.09,1.27-.07.34-.17.64-.6.9-1.31l.28-.77-3.62-9.88h1.63l2.71,7.84h.11l2.71-7.84h1.63l-4.17,11.25c-.19.51-.42.93-.69,1.27s-.59.58-.96.74-.77.24-1.23.24Z"/>
          <path class="cls-1" d="M163.99,74.98h-1.67l4.82-13.1h1.63l4.8,13.1h-1.65l-3.92-11.02h-.11l-3.9,11.02ZM164.61,69.87h6.7v1.41h-6.7v-1.41Z"/>
          <path class="cls-1" d="M178.55,75.2c-.91,0-1.7-.22-2.37-.65s-1.18-1.04-1.54-1.8c-.36-.76-.54-1.63-.54-2.61s.18-1.89.55-2.65.89-1.36,1.55-1.8c.66-.43,1.44-.65,2.32-.65.69,0,1.31.13,1.87.38.55.25,1.01.61,1.36,1.08.35.46.57,1,.65,1.62h-1.51c-.08-.3-.21-.58-.41-.84s-.46-.48-.79-.64c-.33-.16-.71-.24-1.16-.24-.59,0-1.1.15-1.54.46s-.78.73-1.03,1.29-.37,1.2-.37,1.95.12,1.42.36,1.98.58,1,1.02,1.31c.44.31.96.47,1.55.47s1.1-.15,1.52-.46.7-.73.83-1.26h1.51c-.08.58-.29,1.1-.63,1.56s-.78.83-1.33,1.1c-.55.27-1.19.41-1.91.41Z"/>
          <path class="cls-1" d="M186.72,75.21c-.62,0-1.19-.12-1.7-.36s-.91-.58-1.21-1.03-.45-1-.45-1.63c0-.56.11-1.02.33-1.37s.52-.62.89-.83c.37-.2.78-.35,1.23-.45.45-.1.9-.18,1.36-.24.6-.08,1.08-.13,1.46-.18.37-.04.64-.11.82-.21s.26-.27.26-.51v-.05c0-.63-.17-1.11-.51-1.46-.34-.35-.86-.52-1.56-.52s-1.28.16-1.69.47-.7.65-.86,1.01l-1.44-.51c.26-.6.6-1.06,1.03-1.4.43-.33.9-.57,1.41-.7.51-.13,1.01-.2,1.5-.2.32,0,.68.04,1.09.11s.81.23,1.2.46.71.58.97,1.05c.26.47.38,1.09.38,1.87v6.47h-1.51v-1.34h-.07c-.1.21-.27.44-.51.68s-.56.45-.95.62c-.4.17-.88.26-1.46.26ZM186.95,73.86c.6,0,1.1-.12,1.51-.35s.72-.54.93-.91.32-.76.32-1.16v-1.39c-.06.08-.2.15-.42.21s-.46.12-.74.16-.55.09-.81.12-.47.06-.63.07c-.39.05-.76.14-1.1.25s-.61.28-.82.51c-.21.22-.31.53-.31.91,0,.52.19.92.58,1.18s.89.4,1.49.4Z"/>
          <path class="cls-1" d="M196.85,75.2c-.82,0-1.54-.21-2.17-.62s-1.12-1.01-1.47-1.77-.53-1.67-.53-2.7.18-1.93.53-2.69.85-1.34,1.47-1.76,1.35-.62,2.18-.62c.64,0,1.15.11,1.53.32.37.21.66.45.86.72s.35.48.47.65h.12v-4.83h1.49v13.1h-1.44v-1.51h-.18c-.11.18-.27.4-.47.67s-.5.52-.88.73c-.38.21-.88.32-1.52.32ZM197.04,73.84c.61,0,1.12-.16,1.54-.48s.73-.76.95-1.33.33-1.22.33-1.96-.11-1.38-.32-1.94-.53-.98-.95-1.29-.94-.46-1.55-.46-1.16.16-1.58.49-.74.77-.95,1.33-.32,1.18-.32,1.87.11,1.33.32,1.9.53,1.02.95,1.36.95.51,1.57.51Z"/>
          <path class="cls-1" d="M207.38,75.2c-.94,0-1.76-.21-2.45-.63-.69-.42-1.22-1.01-1.59-1.77s-.55-1.64-.55-2.64.18-1.9.54-2.66.88-1.37,1.53-1.8c.66-.43,1.43-.65,2.32-.65.51,0,1.02.08,1.52.25s.96.45,1.38.83c.41.38.74.88.99,1.51s.37,1.4.37,2.31v.65h-7.58v-1.3h6.76l-.69.49c0-.66-.1-1.24-.31-1.75s-.51-.91-.92-1.2-.91-.44-1.52-.44-1.12.15-1.55.44c-.43.3-.76.68-.99,1.16s-.34.98-.34,1.53v.86c0,.74.13,1.37.39,1.89s.62.91,1.08,1.17,1,.4,1.61.4c.39,0,.75-.06,1.07-.17s.6-.29.83-.52.41-.52.54-.86l1.46.42c-.15.49-.41.92-.77,1.3-.36.37-.81.66-1.34.87s-1.13.31-1.79.31Z"/>
          <path class="cls-1" d="M212.86,74.98v-9.83h1.44v1.55h.14c.21-.53.54-.94.99-1.23s1-.44,1.64-.44,1.18.15,1.61.44c.43.29.77.7,1.01,1.23h.11c.26-.51.64-.92,1.14-1.22.5-.3,1.1-.45,1.8-.45.88,0,1.6.27,2.16.82s.84,1.4.84,2.55v6.57h-1.51v-6.57c0-.73-.2-1.25-.6-1.56s-.87-.47-1.41-.47c-.69,0-1.22.21-1.6.63-.38.42-.57.94-.57,1.57v6.4h-1.55v-6.73c0-.56-.18-1.01-.54-1.35s-.82-.51-1.4-.51c-.39,0-.76.11-1.1.32s-.61.5-.82.87c-.21.37-.31.79-.31,1.27v6.13h-1.49Z"/>
          <path class="cls-1" d="M228.65,78.66c-.26,0-.49-.01-.69-.05s-.34-.08-.42-.12l.39-1.32.15.04c.5.12.93.09,1.27-.07.34-.17.64-.6.9-1.31l.28-.77-3.62-9.88h1.63l2.71,7.84h.11l2.71-7.84h1.63l-4.17,11.25c-.19.51-.42.93-.69,1.27s-.59.58-.96.74-.77.24-1.23.24Z"/>
        </g>
        <g>
          <path class="cls-1" d="M180.08,162.49v-13.1h7.91v1.41h-6.33v4.38h5.91v1.41h-5.91v4.5h6.42v1.41h-8Z"/>
          <path class="cls-1" d="M191.29,156.58v5.91h-1.49v-9.83h1.44v1.55h.14c.23-.5.58-.91,1.05-1.21s1.08-.46,1.82-.46c.66,0,1.24.13,1.74.4s.89.68,1.16,1.23.42,1.24.42,2.08v6.24h-1.49v-6.13c0-.77-.2-1.37-.61-1.81s-.96-.65-1.65-.65c-.48,0-.91.11-1.29.32s-.68.52-.9.91c-.22.4-.33.88-.33,1.46Z"/>
          <path class="cls-1" d="M203.75,152.66v1.28h-5.08v-1.28h5.08ZM200.15,150.32h1.49v9.35c0,.51.11.88.32,1.12s.54.36,1,.36c.1,0,.2,0,.31-.02.11-.01.23-.03.36-.05l.32,1.35c-.14.05-.31.1-.51.13-.2.03-.41.05-.61.05-.79,0-1.43-.23-1.93-.7s-.74-1.08-.74-1.83v-9.76Z"/>
          <path class="cls-1" d="M205.2,162.49v-9.83h1.44v1.49h.11c.18-.49.51-.88.98-1.18.47-.3,1-.45,1.59-.45.11,0,.25,0,.41,0s.29,0,.38.01v1.53c-.05-.01-.17-.03-.35-.05s-.38-.04-.58-.04c-.47,0-.9.1-1.27.3s-.67.47-.88.82-.32.74-.32,1.19v6.21h-1.49Z"/>
          <path class="cls-1" d="M212.02,166.16c-.26,0-.49-.01-.69-.05s-.34-.08-.42-.12l.39-1.32.15.04c.5.12.93.09,1.27-.07.34-.17.64-.6.9-1.31l.28-.77-3.62-9.88h1.63l2.71,7.84h.11l2.71-7.84h1.63l-4.17,11.25c-.19.51-.42.93-.69,1.27s-.59.58-.96.74-.77.24-1.23.24Z"/>
        </g>
        <line class="cls-2" x1="198.91" y1="474.14" x2="234.45" y2="474.14"/>
        <line class="cls-2" x1="163.37" y1="494.88" x2="198.91" y2="494.88"/>
        <line class="cls-2" x1="198.91" y1="731.04" x2="234.45" y2="731.04"/>
        <line class="cls-2" x1="163.37" y1="243.09" x2="198.91" y2="243.09"/>
        <line class="cls-2" x1="198.91" y1="256.68" x2="234.45" y2="256.68"/>
        <line class="cls-2" x1="163.37" y1="268.3" x2="198.91" y2="268.3"/>
        <line class="cls-2" x1="198.91" y1="281.89" x2="234.45" y2="281.89"/>
        <line class="cls-2" x1="163.37" y1="293.51" x2="198.91" y2="293.51"/>
        <line class="cls-2" x1="198.91" y1="307.1" x2="234.45" y2="307.1"/>
        <g>
          <path class="cls-1" d="M163.48,82.89c0,1.95.25,6.09,4.57,8.66-.19.13-.52.48-.66.68-2.71-1.64-3.87-4.05-4.37-6.13-.81,2.85-2.2,4.85-4.39,6.14-.15-.17-.52-.51-.74-.65,2.43-1.27,3.78-3.48,4.46-6.56l.48.08c-.08-.51-.12-.99-.14-1.41h-2.71v-.81h3.5Z"/>
          <path class="cls-1" d="M172.33,89.11c-.29-.32-.89-.94-1.39-1.4v4.55h-.8v-4.27c-.55.55-1.12,1.01-1.68,1.38-.09-.21-.3-.58-.43-.74,1.31-.76,2.68-2.15,3.44-3.61h-3.06v-.75h1.73v-2.05h.8v2.05h.96l.14-.03.46.31c-.34.85-.85,1.66-1.43,2.4.52.41,1.49,1.25,1.76,1.5l-.51.66ZM178.39,91.15v.8h-6.16v-.8h2.78v-4.57h-2.35v-.79h2.35v-3.49h.81v3.49h2.34v.79h-2.34v4.57h2.56Z"/>
          <path class="cls-1" d="M189.01,83.96v.75h-9.76v-.75h2.7c-.2-.43-.63-1.02-1-1.46l.75-.29c.43.46.89,1.11,1.1,1.54l-.54.21h3.28c.37-.53.79-1.25,1.03-1.78l.86.29c-.3.51-.66,1.05-.98,1.5h2.56ZM183.93,91.33c0,.42-.1.63-.4.76-.31.13-.78.13-1.53.13-.04-.21-.15-.52-.26-.72.55.02,1.05.02,1.19.01.17-.01.21-.05.21-.2v-1.46h-2.43v2.37h-.78v-6.53h4v5.64ZM180.71,86.39v1.08h2.43v-1.08h-2.43ZM183.14,89.2v-1.1h-2.43v1.1h2.43ZM186.02,90.26h-.76v-4.47h.76v4.47ZM187.48,85.46h.8v5.78c0,.5-.11.72-.44.85-.35.13-.9.15-1.74.14-.04-.22-.18-.56-.3-.78.67.02,1.27.02,1.43.01.19-.01.24-.05.24-.22v-5.78Z"/>
          <path class="cls-1" d="M199.28,84.39c-.44.75-1.49,2.17-2.74,3.04l-.73-.58c1.01-.58,2.05-1.78,2.41-2.46h-6.27c-.41,0-.83.02-1.25.07v-1c.38.05.85.1,1.25.1h6.32c.21,0,.6-.03.77-.07l.54.52c-.08.11-.22.27-.3.4ZM192.12,91.83l-.81-.66c.31-.1.68-.28.99-.5,1.71-1.05,1.95-2.61,1.95-4.44,0-.26-.01-.51-.04-.79h.99c0,2.98-.26,4.99-3.07,6.39Z"/>
          <path class="cls-1" d="M205.29,83.67c-.01.4-.03.77-.05,1.13h2.62c.3,0,.52-.02.7-.05l.62.31c-.03.19-.05.4-.05.54-.04,1.06-.18,4.26-.67,5.31-.22.46-.57.67-1.18.67-.56,0-1.2-.04-1.77-.08l-.11-.91c.59.08,1.18.12,1.64.12.32,0,.52-.09.64-.36.42-.84.56-3.54.56-4.72h-3.08c-.4,3.16-1.54,4.83-3.38,6.09l-.8-.65c.35-.19.8-.5,1.13-.81,1.09-.99,1.88-2.37,2.18-4.63h-1.85c-.43,0-.88,0-1.26.04v-.94c.38.04.84.07,1.25.07h1.94c.02-.35.04-.73.04-1.12,0-.24-.03-.65-.08-.91h1.03c-.03.25-.05.64-.07.9Z"/>
          <path class="cls-1" d="M212.05,86.2h7.21c.23,0,.59-.01.86-.05v.91c-.24-.01-.59-.02-.86-.02h-2.99c-.03,1.19-.21,2.19-.65,3.01-.4.73-1.23,1.52-2.17,2l-.81-.61c.86-.35,1.65-.99,2.08-1.68.48-.76.6-1.68.64-2.73h-3.3c-.33,0-.65,0-.95.02v-.91c.3.03.6.05.95.05ZM213.41,83.45h3.81c.32,0,.7-.02,1.02-.07v.91c-.32-.02-.7-.03-1.02-.03h-3.8c-.36,0-.73.01-1.01.03v-.91c.32.03.65.07,1,.07ZM219.71,84l-.59.26c-.22-.45-.59-1.11-.89-1.53l.58-.24c.27.39.68,1.06.9,1.51ZM220.94,83.55l-.59.26c-.24-.48-.59-1.1-.91-1.52l.58-.24c.29.4.71,1.09.92,1.5Z"/>
          <path class="cls-1" d="M228.91,90.85l-.37.85c-1.46-.64-4.73-1.38-6.51-1.66l.34-.84c1.85.29,5.04,1.05,6.55,1.65ZM228.51,87.32l-.35.85c-1.28-.51-3.96-1.11-5.52-1.34l.33-.83c1.51.25,4.17.81,5.54,1.32ZM229.24,84.37l-.35.85c-1.34-.48-4.22-1.11-5.74-1.31l.32-.81c1.43.18,4.39.79,5.78,1.28Z"/>
          <path class="cls-1" d="M232.72,86.72h6.03c.55,0,.95-.03,1.19-.05v1.08c-.22-.01-.68-.05-1.18-.05h-6.04c-.61,0-1.19.02-1.53.05v-1.08c.33.02.91.05,1.53.05Z"/>
        </g>
        <g>
          <path class="cls-1" d="M194.63,171.14c0,1.95.25,6.09,4.57,8.66-.19.13-.52.48-.66.68-2.71-1.64-3.87-4.05-4.37-6.13-.81,2.85-2.2,4.85-4.39,6.14-.15-.17-.52-.51-.74-.65,2.43-1.27,3.78-3.48,4.46-6.56l.48.08c-.08-.51-.12-.99-.14-1.41h-2.71v-.81h3.5Z"/>
          <path class="cls-1" d="M203.48,177.35c-.29-.32-.89-.94-1.39-1.4v4.55h-.8v-4.27c-.55.55-1.12,1.01-1.68,1.38-.09-.21-.3-.58-.43-.74,1.31-.76,2.68-2.15,3.44-3.61h-3.06v-.75h1.73v-2.05h.8v2.05h.96l.14-.03.46.31c-.34.85-.85,1.66-1.43,2.4.52.41,1.49,1.25,1.76,1.5l-.51.66ZM209.54,179.4v.8h-6.16v-.8h2.78v-4.57h-2.35v-.79h2.35v-3.49h.81v3.49h2.34v.79h-2.34v4.57h2.56Z"/>
        </g>
        <g>
          <path class="cls-5" d="M154.43,407.67c-.01.4-.03.77-.05,1.13h2.62c.3,0,.52-.02.7-.05l.62.31c-.03.19-.05.4-.05.54-.04,1.06-.18,4.26-.67,5.31-.22.46-.57.67-1.18.67-.56,0-1.2-.04-1.77-.08l-.11-.91c.59.08,1.18.12,1.64.12.32,0,.52-.09.64-.36.42-.84.56-3.54.56-4.72h-3.08c-.4,3.16-1.54,4.83-3.38,6.09l-.8-.65c.35-.19.8-.5,1.13-.81,1.09-.99,1.88-2.37,2.18-4.63h-1.85c-.43,0-.88,0-1.26.04v-.94c.38.04.84.07,1.25.07h1.94c.02-.35.04-.73.04-1.12,0-.24-.03-.65-.08-.91h1.03c-.03.25-.05.64-.07.9Z"/>
          <path class="cls-5" d="M168.53,410.46c-.3,1.09-.79,2.23-1.61,3.12-1.16,1.27-2.53,1.91-3.94,2.3l-.68-.78c1.56-.32,2.94-1.02,3.87-2.01.67-.7,1.11-1.64,1.31-2.43h-5.84c-.26,0-.68.01-1.08.03v-.92c.41.04.78.07,1.08.07h5.8c.25,0,.48-.02.61-.09l.63.4c-.05.1-.12.24-.14.32ZM162.54,407.29h4.32c.35,0,.74-.01,1-.06v.91c-.26-.02-.64-.03-1.01-.03h-4.31c-.34,0-.69.01-.99.03v-.91c.29.04.64.06.99.06Z"/>
          <path class="cls-5" d="M172.06,410.72h6.03c.55,0,.95-.03,1.19-.05v1.08c-.22-.01-.68-.05-1.18-.05h-6.04c-.61,0-1.19.02-1.53.05v-1.08c.33.02.91.05,1.53.05Z"/>
          <path class="cls-5" d="M182.86,407.96v3.67c0,.28.02.64.04.84h-1.01c.02-.17.06-.52.06-.85v-3.66c0-.2-.02-.58-.04-.79h1c-.02.21-.04.53-.04.79ZM187.98,408.04v1.78c0,2.64-.36,3.51-1.16,4.46-.71.86-1.81,1.33-2.62,1.61l-.71-.76c1.01-.25,1.95-.69,2.63-1.46.78-.91.91-1.8.91-3.88v-1.74c0-.37-.02-.68-.05-.96h1.03c-.02.27-.03.58-.03.96Z"/>
          <path class="cls-5" d="M197.44,408.55c-.37.95-1.07,2.23-1.85,3.22,1.16.99,2.5,2.42,3.21,3.29l-.77.66c-.74-.97-1.9-2.27-3.03-3.27-1.18,1.27-2.66,2.48-4.29,3.21l-.7-.74c1.77-.69,3.4-2,4.53-3.27.75-.85,1.55-2.15,1.83-3.06h-4.29c-.38,0-.99.04-1.11.06v-1c.15.02.78.07,1.11.07h4.25c.36,0,.65-.03.83-.09l.56.43c-.07.09-.21.33-.27.48Z"/>
          <path class="cls-5" d="M201.94,408.06c0-.31-.02-.8-.09-1.14h1.08c-.03.34-.08.81-.08,1.14v1.79c1.45.44,3.54,1.23,4.7,1.82l-.37.94c-1.2-.65-3.1-1.39-4.32-1.77.01,1.65.01,3.31.01,3.63,0,.34.02.94.07,1.3h-1.07c.05-.35.08-.89.08-1.3v-6.4Z"/>
          <path class="cls-5" d="M210.32,410.2h7.21c.23,0,.59-.01.86-.05v.91c-.24-.01-.59-.02-.86-.02h-2.99c-.03,1.19-.21,2.19-.65,3.01-.4.73-1.23,1.52-2.17,2l-.81-.61c.86-.35,1.65-.99,2.08-1.68.48-.76.6-1.68.64-2.73h-3.3c-.33,0-.65,0-.95.02v-.91c.3.03.6.05.95.05ZM211.67,407.45h3.81c.32,0,.7-.02,1.02-.07v.91c-.32-.02-.7-.03-1.02-.03h-3.8c-.36,0-.73.01-1.01.03v-.91c.32.03.65.07,1,.07ZM217.97,408l-.59.26c-.22-.45-.59-1.11-.89-1.53l.58-.24c.27.39.68,1.06.9,1.51ZM219.21,407.55l-.59.26c-.24-.48-.59-1.1-.91-1.52l.58-.24c.29.4.71,1.09.92,1.5Z"/>
          <path class="cls-5" d="M222,408.07v2.49c1.3-.32,3.04-.85,4.18-1.34.33-.14.66-.31.97-.5l.38.88c-.31.13-.7.31-1.03.43-1.23.5-3.13,1.08-4.5,1.43v2.42c0,.56.23.7.77.81.34.05.91.09,1.45.09,1.17,0,2.85-.11,3.76-.35v1c-.96.14-2.61.23-3.81.23-.65,0-1.31-.03-1.76-.11-.85-.15-1.32-.54-1.32-1.43v-6.05c0-.26-.02-.64-.07-.89h1.02c-.03.25-.05.58-.05.89ZM227.9,408.31l-.59.27c-.22-.45-.59-1.11-.89-1.53l.58-.25c.28.4.67,1.07.9,1.51ZM229.13,407.86l-.59.28c-.24-.48-.61-1.1-.91-1.52l.58-.25c.29.41.71,1.09.92,1.5Z"/>
          <path class="cls-5" d="M236.9,410.53c-.09.75-.41,2.93-.56,3.94h1.08c.24,0,.64-.01.87-.03v.89c-.2-.01-.6-.02-.84-.02h-6.03c-.34,0-.59.01-.91.03v-.91c.26.02.58.04.91.04h3.98c.17-.92.48-3.07.52-3.7h-3.5c-.32,0-.61.02-.88.03v-.92c.26.03.59.07.87.07h3.34c.18,0,.45-.03.55-.08l.67.32c-.03.11-.07.25-.08.34Z"/>
          <path class="cls-5" d="M241.26,410.72h6.03c.55,0,.95-.03,1.19-.05v1.08c-.22-.01-.68-.05-1.18-.05h-6.04c-.61,0-1.19.02-1.53.05v-1.08c.33.02.91.05,1.53.05Z"/>
        </g>
        <g>
          <path class="cls-5" d="M157.83,665.43c-.37.95-1.07,2.23-1.85,3.22,1.16.99,2.5,2.42,3.21,3.29l-.77.66c-.74-.97-1.9-2.27-3.03-3.27-1.18,1.27-2.66,2.48-4.29,3.21l-.7-.74c1.77-.69,3.4-2,4.53-3.27.75-.85,1.55-2.15,1.83-3.06h-4.29c-.39,0-.99.04-1.11.06v-1c.15.02.78.07,1.11.07h4.25c.36,0,.65-.03.83-.09l.56.43c-.07.09-.21.33-.28.48Z"/>
          <path class="cls-5" d="M164.82,664.53c-.07.13-.14.26-.23.4h2.98c.3,0,.54-.04.73-.11l.73.44c-.1.15-.2.42-.26.59-.29,1.01-.88,2.3-1.72,3.42.46.34.9.68,1.25.97l-.65.76c-.33-.3-.75-.64-1.2-1-.98,1.09-2.33,2.1-4.19,2.79l-.79-.68c1.86-.57,3.27-1.58,4.26-2.65-.79-.57-1.63-1.14-2.33-1.58l.59-.6c.73.42,1.55.95,2.32,1.49.72-.96,1.28-2.15,1.5-3.05h-3.72c-.7.99-1.68,2.07-2.92,2.92l-.74-.57c1.89-1.18,3.01-2.83,3.53-3.83.11-.2.29-.58.35-.87l1,.32c-.19.29-.38.66-.5.86Z"/>
          <path class="cls-5" d="M175.08,666.28c1.14-.72,2.24-1.67,3-2.59l.74.68c-.84.87-1.85,1.71-2.97,2.45v4.64c0,.42.02.96.07,1.18h-1.08c.03-.21.07-.76.07-1.18v-4.07c-1.16.66-2.66,1.32-4.19,1.79l-.44-.86c1.9-.52,3.59-1.29,4.81-2.06Z"/>
          <path class="cls-5" d="M182.46,664.84v3.67c0,.27.02.64.04.84h-1.01c.02-.17.06-.52.06-.85v-3.66c0-.2-.02-.58-.04-.79h1c-.02.21-.04.53-.04.79ZM187.57,664.92v1.78c0,2.64-.36,3.51-1.16,4.46-.71.86-1.81,1.33-2.62,1.61l-.71-.76c1.01-.25,1.95-.69,2.63-1.46.78-.91.91-1.8.91-3.88v-1.74c0-.37-.02-.68-.05-.96h1.03c-.02.27-.03.58-.03.96Z"/>
          <path class="cls-5" d="M197.04,665.43c-.37.95-1.07,2.23-1.85,3.22,1.16.99,2.5,2.42,3.21,3.29l-.77.66c-.74-.97-1.9-2.27-3.03-3.27-1.18,1.27-2.66,2.48-4.29,3.21l-.7-.74c1.77-.69,3.4-2,4.53-3.27.75-.85,1.55-2.15,1.83-3.06h-4.29c-.39,0-.99.04-1.11.06v-1c.15.02.78.07,1.11.07h4.25c.36,0,.65-.03.83-.09l.56.43c-.07.09-.21.33-.28.48Z"/>
          <path class="cls-5" d="M201.54,664.94c0-.31-.02-.8-.09-1.14h1.08c-.03.34-.08.81-.08,1.14v1.79c1.45.44,3.54,1.23,4.7,1.82l-.37.94c-1.2-.65-3.1-1.39-4.32-1.77.01,1.65.01,3.31.01,3.63,0,.34.02.94.07,1.3h-1.07c.05-.35.08-.89.08-1.3v-6.4Z"/>
          <path class="cls-5" d="M209.91,667.08h7.21c.23,0,.59-.01.86-.05v.91c-.24-.01-.59-.02-.86-.02h-2.99c-.03,1.19-.21,2.19-.65,3.01-.4.73-1.23,1.52-2.17,2l-.81-.6c.86-.35,1.65-.99,2.08-1.68.48-.76.6-1.68.64-2.73h-3.3c-.33,0-.65,0-.95.02v-.91c.3.03.6.05.95.05ZM211.27,664.33h3.81c.32,0,.7-.02,1.02-.07v.91c-.32-.02-.7-.03-1.02-.03h-3.8c-.36,0-.73.01-1.01.03v-.91c.32.03.65.07,1,.07ZM217.57,664.88l-.59.26c-.22-.45-.59-1.11-.89-1.53l.58-.24c.27.39.68,1.06.9,1.51ZM218.8,664.43l-.59.26c-.24-.48-.59-1.1-.91-1.52l.58-.24c.29.4.71,1.09.92,1.5Z"/>
          <path class="cls-5" d="M221.6,664.95v2.49c1.3-.32,3.04-.85,4.18-1.34.33-.14.66-.31.97-.5l.38.88c-.31.13-.7.31-1.03.43-1.23.5-3.13,1.08-4.5,1.43v2.42c0,.56.23.7.77.81.34.06.91.09,1.45.09,1.17,0,2.85-.11,3.76-.35v1c-.96.14-2.61.23-3.81.23-.65,0-1.31-.03-1.76-.11-.85-.15-1.32-.54-1.32-1.43v-6.05c0-.26-.02-.64-.07-.89h1.02c-.03.25-.05.58-.05.89ZM227.49,665.19l-.59.27c-.22-.45-.59-1.11-.89-1.53l.58-.25c.28.4.67,1.07.9,1.51ZM228.73,664.74l-.59.27c-.24-.48-.61-1.1-.91-1.52l.58-.25c.29.41.71,1.09.92,1.5Z"/>
          <path class="cls-5" d="M236.5,667.42c-.09.75-.41,2.93-.56,3.94h1.08c.24,0,.64-.01.87-.03v.89c-.2-.01-.6-.02-.84-.02h-6.03c-.34,0-.59.01-.91.03v-.91c.26.02.58.04.91.04h3.98c.17-.92.48-3.07.52-3.7h-3.5c-.32,0-.61.02-.88.03v-.92c.26.03.59.07.87.07h3.34c.18,0,.45-.03.55-.08l.67.32c-.03.11-.07.25-.08.34Z"/>
          <path class="cls-5" d="M240.86,667.6h6.03c.55,0,.95-.03,1.19-.06v1.08c-.22-.01-.68-.05-1.18-.05h-6.04c-.61,0-1.19.02-1.53.05v-1.08c.33.02.91.06,1.53.06Z"/>
        </g>
        <g>
          <path class="cls-5" d="M158.22,904.71c0-.31-.02-.8-.09-1.14h1.08c-.03.34-.08.81-.08,1.14v1.79c1.45.44,3.54,1.23,4.7,1.82l-.37.93c-1.2-.65-3.1-1.39-4.32-1.77.01,1.65.01,3.31.01,3.63,0,.34.02.94.07,1.3h-1.07c.05-.35.08-.89.08-1.3v-6.4Z"/>
          <path class="cls-5" d="M167.85,908.78l-.84.31c-.17-.57-.76-2.09-.98-2.48l.81-.32c.22.47.79,1.91,1,2.49ZM173.22,906.91c-.3,1.21-.77,2.39-1.56,3.38-1.01,1.3-2.35,2.15-3.59,2.62l-.73-.74c1.28-.37,2.67-1.21,3.58-2.34.78-.96,1.35-2.35,1.52-3.76l.95.3c-.08.23-.12.41-.17.55ZM170.27,908.12l-.81.29c-.12-.5-.63-1.89-.86-2.39l.8-.27c.19.44.73,1.89.87,2.38Z"/>
          <path class="cls-5" d="M183.47,902.94c.68,0,1.24.56,1.24,1.24s-.56,1.23-1.24,1.23c-.14,0-.29-.02-.42-.07,0,.03-.01.08-.02.12-.23,1.16-.77,2.93-1.64,4.06-1,1.29-2.31,2.31-4.33,2.94l-.75-.83c2.13-.53,3.38-1.46,4.29-2.64.78-1,1.3-2.53,1.44-3.59h-5.62c-.44,0-.81.02-1.1.03v-.98c.31.04.74.08,1.1.08h5.52c.1,0,.22,0,.35-.01-.03-.11-.05-.23-.05-.35,0-.68.55-1.24,1.23-1.24ZM183.47,904.91c.41,0,.74-.33.74-.73s-.33-.74-.74-.74-.73.33-.73.74.33.73.73.73Z"/>
          <path class="cls-5" d="M193,905.21c-.37.95-1.07,2.23-1.85,3.22,1.16.99,2.5,2.42,3.21,3.29l-.77.66c-.74-.97-1.9-2.27-3.03-3.27-1.18,1.27-2.66,2.48-4.29,3.21l-.7-.74c1.77-.69,3.4-2,4.53-3.27.75-.85,1.55-2.15,1.83-3.06h-4.29c-.38,0-.99.04-1.11.05v-1c.15.02.78.07,1.11.07h4.25c.36,0,.65-.03.83-.09l.56.43c-.07.09-.21.33-.27.48Z"/>
          <path class="cls-5" d="M199.98,904.31c-.07.13-.14.26-.23.4h2.98c.3,0,.54-.04.73-.11l.73.44c-.1.15-.2.42-.26.59-.29,1.01-.88,2.3-1.72,3.42.46.34.9.68,1.25.97l-.65.76c-.33-.3-.75-.64-1.2-1-.98,1.09-2.33,2.1-4.19,2.79l-.79-.68c1.86-.57,3.27-1.58,4.26-2.65-.79-.57-1.63-1.14-2.33-1.58l.59-.61c.73.42,1.55.95,2.32,1.49.72-.96,1.28-2.15,1.5-3.05h-3.72c-.7.99-1.68,2.07-2.92,2.92l-.74-.57c1.89-1.18,3.01-2.83,3.53-3.83.11-.2.29-.58.35-.87l1,.32c-.19.29-.38.66-.5.86Z"/>
          <path class="cls-5" d="M210.25,906.06c1.14-.71,2.24-1.67,3-2.58l.74.68c-.84.87-1.85,1.71-2.97,2.45v4.64c0,.42.02.96.07,1.18h-1.08c.03-.21.07-.76.07-1.18v-4.07c-1.16.66-2.66,1.32-4.19,1.79l-.44-.86c1.9-.52,3.59-1.29,4.81-2.06Z"/>
          <path class="cls-5" d="M217.62,904.61v3.67c0,.28.02.64.04.84h-1.01c.02-.17.06-.52.06-.85v-3.66c0-.2-.02-.58-.04-.79h1c-.02.21-.04.53-.04.79ZM222.74,904.69v1.78c0,2.64-.36,3.51-1.16,4.46-.71.86-1.81,1.33-2.62,1.61l-.71-.76c1.01-.25,1.95-.69,2.63-1.46.78-.91.91-1.8.91-3.88v-1.74c0-.37-.02-.68-.05-.96h1.03c-.02.28-.03.58-.03.96Z"/>
          <path class="cls-5" d="M232.2,905.21c-.37.95-1.07,2.23-1.85,3.22,1.16.99,2.5,2.42,3.21,3.29l-.77.66c-.74-.97-1.9-2.27-3.03-3.27-1.18,1.27-2.66,2.48-4.29,3.21l-.7-.74c1.77-.69,3.4-2,4.53-3.27.75-.85,1.55-2.15,1.83-3.06h-4.29c-.38,0-.99.04-1.11.05v-1c.15.02.78.07,1.11.07h4.25c.36,0,.65-.03.83-.09l.56.43c-.07.09-.21.33-.27.48Z"/>
          <path class="cls-5" d="M236.7,904.71c0-.31-.02-.8-.09-1.14h1.08c-.03.34-.08.81-.08,1.14v1.79c1.45.44,3.54,1.23,4.7,1.82l-.37.93c-1.2-.65-3.1-1.39-4.32-1.77.01,1.65.01,3.31.01,3.63,0,.34.02.94.07,1.3h-1.07c.05-.35.08-.89.08-1.3v-6.4Z"/>
        </g>
      </g>
    </g>
  </g>
</svg>