<?xml version="1.0" encoding="UTF-8"?>
<svg id="_レイヤー_2" data-name="レイヤー 2" xmlns="http://www.w3.org/2000/svg" viewBox="0 0 138.96 24.82">
  <defs>
    <style>
      .cls-1 {
        fill: #231815;
      }
    </style>
  </defs>
  <g id="_レイヤー_1-2" data-name="レイヤー 1">
    <g>
      <g>
        <path class="cls-1" d="M1.23,23.89v-.85H.35v.85h-.2v-1.86h.2v.83h.88v-.83h.2v1.86h-.2Z"/>
        <path class="cls-1" d="M4.27,23.89l-.15-.42h-.81l-.15.42h-.21l.68-1.86h.17l.68,1.86h-.21ZM3.72,22.31l-.35.98h.69l-.34-.98Z"/>
        <path class="cls-1" d="M6.01,23.89v-1.86h.2v1.86h-.2Z"/>
        <path class="cls-1" d="M9.03,23.89l-.42-.82h-.45v.82h-.2v-1.86h.71c.08,0,.15.01.22.04.07.02.13.06.17.1.05.04.09.1.11.16.03.06.04.14.04.22,0,.14-.04.25-.11.33-.07.09-.17.14-.29.17l.44.84h-.23ZM8.93,22.29c-.07-.06-.16-.08-.27-.08h-.5v.68h.5c.11,0,.2-.03.27-.08.07-.06.1-.14.1-.26s-.03-.2-.1-.26Z"/>
        <path class="cls-1" d="M13.15,23.69l-.39-.39-.39.39-.12-.12.39-.39-.39-.39.12-.12.39.4.39-.4.12.12-.4.39.4.39-.12.12Z"/>
        <path class="cls-1" d="M17.53,23.89v-1.41l-.51,1.12h-.17l-.52-1.12v1.41h-.2v-1.86h.2l.6,1.32.59-1.32h.2v1.86h-.2Z"/>
        <path class="cls-1" d="M20.57,23.89l-.15-.42h-.81l-.15.42h-.21l.68-1.86h.17l.68,1.86h-.21ZM20.02,22.31l-.35.98h.69l-.34-.98Z"/>
        <path class="cls-1" d="M23.47,23.89l-.57-.99-.39.47v.52h-.2v-1.86h.2v1.07l.87-1.07h.24l-.58.72.67,1.14h-.23Z"/>
        <path class="cls-1" d="M25.23,23.89v-1.86h1.15v.18h-.95v.65h.81v.18h-.81v.67h.95v.18h-1.15Z"/>
        <path class="cls-1" d="M0,.49h1.93v19.31H0V.49Z"/>
        <path class="cls-1" d="M11.83,0v1.7c-.69,0-1.4-.04-2.09.04-.16.02-.31.04-.45.12-.51.27-.5.91-.52,1.41,0,.2,0,.4,0,.61v1.89s2.98,0,2.98,0v1.56h-2.98v12.46h-1.85V7.33h-1.88v-1.56h1.88v-2.19c0-1.01.09-1.72.28-2.15.19-.43.51-.78.96-1.04.45-.26,1.12-.39,2.07-.39h1.61Z"/>
        <path class="cls-1" d="M14.49,0h1.84v7.53c1.06-1.75,3.1-2.78,5.14-2.58,1.9.18,3.66,1.43,4.41,3.19.39.91.56,2.35.56,4.3v7.35h-1.84v-6.81c0-1.65-.07-2.61-.2-3.16-.33-1.39-1.27-2.53-2.7-2.88-1.1-.27-2.31,0-3.24.66-1.04.74-1.58,1.87-1.88,3.07-.18.7-.27,1.94-.26,3.89v5.24h-1.84V0Z"/>
      </g>
      <g>
        <path class="cls-1" d="M111.3,24.24c.05-.17.1-.31.17-.56-.02,0-.05-.02-.05-.02-.07-.02-.08-.04-.08-.08,0-.07.03-.11.07-.11t.08.02s.01,0,.02,0c.01,0,.02-.02.04-.04.27-.79.37-1.05.63-1.73-.19.02-.29.04-.5.1-.02,0-.05,0-.07,0-.02,0-.04-.02-.04-.04,0-.08.07-.15.21-.18.19-.05.4-.07.57-.07.74,0,1.24.34,1.24.86,0,.45-.34.91-.84,1.16-.25.12-.55.18-.87.18-.04,0-.11,0-.17,0-.04.12-.07.2-.08.23-.19.6-.22.71-.25.8,0,.06-.02.08-.07.08-.08,0-.14-.03-.14-.07,0-.02,0-.06.02-.1.01-.02.02-.06.04-.11l.09-.3ZM112.35,21.69s-.04,0-.04.02c0,.02.01.03.04.05.02.01.02.02.02.03,0,.03-.01.08-.04.12-.04.08-.48,1.3-.57,1.61.08.02.12.03.21.03.39,0,.73-.14,1.01-.4.23-.23.37-.52.37-.78,0-.37-.39-.68-.86-.68t-.13,0h-.02Z"/>
        <path class="cls-1" d="M113.88,24.39q-.04.1-.08.1c-.07,0-.1-.02-.1-.05s0-.03.1-.31q.19-.54.19-.56s0,0-.02-.03c0,0,0,0,0-.02t.07-.06s.02-.02.02-.04c0-.02.04-.12.08-.22.04-.1.08-.21.12-.32.08-.21.12-.31.22-.58-.09,0-.12,0-.29.06-.02,0-.05.02-.07.02-.02,0-.05-.04-.05-.08,0-.03.01-.04.06-.05.17-.06.39-.09.59-.09.51,0,.85.22.85.55,0,.28-.2.56-.52.72-.22.11-.43.16-.78.17.05.04.13.12.24.23.07.06.13.12.19.18.08.07.15.15.22.22.05.05.1.09.15.14.05.05.11.1.12.11.05.04.08.07.08.09,0,.02-.07.07-.1.07-.02,0-.05-.02-.09-.06l-.1-.09-.17-.16c-.07-.07-.13-.13-.2-.2-.07-.07-.17-.17-.26-.25-.1-.1-.17-.16-.17-.17-.01-.02-.02-.02-.02-.02t-.04.07l-.08.24-.08.23-.05.16ZM114.62,22.27s-.05,0-.05.02,0,.01.05.05h0s0,.02-.14.4c-.04.11-.08.22-.13.32-.02.05-.04.1-.06.17-.03.08-.05.15-.07.2,0,0,0,.02,0,.02,0,.01.01.02.04.02.64,0,1.13-.33,1.13-.76,0-.28-.22-.42-.74-.44h-.02Z"/>
        <path class="cls-1" d="M115.79,23.55s-.03,0-.03-.03c0-.07.03-.1.1-.1h.08l.06-.16c.03-.08.06-.16.1-.25.02-.07.05-.15.08-.23.04-.08.07-.17.1-.26.03-.08.06-.16.07-.18,0,0,0-.01,0-.02,0-.02-.01-.02-.1-.02-.08,0-.08,0-.08-.04,0-.06.02-.09.08-.09h1.12c.07,0,.08,0,.08.04,0,.03-.01.05-.04.08-.01,0-.05.01-.23.01h-.68s-.03,0-.03,0,0,0,.02.03c0,0,0,.01,0,.02t-.13.33c-.12.3-.19.5-.23.6-.01.03-.02.07-.03.07,0,.02-.01.03-.01.04,0,.01.01.01.06.01h.81c.08.01.1.01.1.04,0,.05-.04.09-.09.09h-.93l-.26.71s-.03.08-.03.09.02.01.1.01h.75c.25,0,.27,0,.27.03,0,.07-.02.09-.1.09h-.95c-.17,0-.23-.03-.23-.11t.1-.33l.18-.49h-.11Z"/>
        <path class="cls-1" d="M118.26,22.42c-.28.1-.51.32-.51.48,0,.1.1.19.4.35.34.18.46.34.46.57,0,.4-.45.7-1.05.7-.16,0-.23-.03-.23-.09,0-.04.02-.11.06-.18.01-.03.03-.06.04-.07.02-.05.04-.06.1-.06.05,0,.07,0,.07.03t-.05.11-.05.13s.02.01.05.01c.52,0,.89-.24.89-.58,0-.18-.11-.3-.47-.49-.28-.15-.41-.28-.41-.43,0-.37.71-.75,1.41-.75.1,0,.14.02.14.08s-.03.15-.07.2c-.02.03-.06.04-.11.04-.03,0-.04,0-.04-.03s0-.02.02-.09t.02-.07c-.25.02-.48.06-.68.14Z"/>
        <path class="cls-1" d="M119.14,23.55s-.03,0-.03-.03c0-.07.03-.1.1-.1h.08l.06-.16c.03-.08.06-.16.1-.25.02-.07.05-.15.08-.23.04-.08.07-.17.1-.26.03-.08.06-.16.07-.18,0,0,0-.01,0-.02,0-.02-.01-.02-.1-.02-.08,0-.08,0-.08-.04,0-.06.02-.09.08-.09h1.12c.07,0,.08,0,.08.04,0,.03-.01.05-.04.08-.01,0-.05.01-.23.01h-.68s-.03,0-.03,0,0,0,.02.03c0,0,0,.01,0,.02t-.13.33c-.12.3-.19.5-.23.6-.01.03-.02.07-.03.07,0,.02-.01.03-.01.04,0,.01.01.01.06.01h.81c.08.01.1.01.1.04,0,.05-.04.09-.09.09h-.93l-.26.71s-.03.08-.03.09.02.01.1.01h.75c.25,0,.27,0,.27.03,0,.07-.02.09-.1.09h-.95c-.17,0-.23-.03-.23-.11t.1-.33l.18-.49h-.11Z"/>
        <path class="cls-1" d="M121.99,24.22s.01.04.02.04.02-.02.02-.04t.1-.27c.23-.63.35-1.01.55-1.72.02-.07.04-.09.09-.09.05,0,.1.02.1.04,0,.07-.36,1.18-.58,1.81-.05.13-.16.42-.17.45-.02.03-.04.04-.11.04-.11,0-.14-.02-.16-.12-.08-.38-.08-.42-.19-1.02l-.07-.39q-.05-.37-.07-.37s-.02.02-.02.04c0,0-.02.06-.04.12,0,.03-.06.2-.14.48-.13.39-.22.68-.37,1.09q-.06.18-.13.18c-.05,0-.09-.02-.09-.05,0-.02,0-.05.02-.08.08-.22.09-.26.29-.83l.13-.37c.2-.61.23-.71.3-.92,0-.05.02-.07.04-.07q.14,0,.22.47c.02.14.02.16.15.87l.07.43c.02.1.04.21.05.28h0Z"/>
        <path class="cls-1" d="M124.36,22.17c.44,0,.49,0,.49.04,0,.05-.04.09-.09.09h-.51s-.05,0-.05,0t.04.03v.02s0,.02,0,.04c-.04.1-.07.18-.31.83l-.11.31q-.15.41-.17.48c-.04.12-.06.17-.14.42,0,.03-.03.04-.09.04-.05,0-.08-.02-.08-.04,0-.08.28-.88.74-2.11,0,0,0-.02,0-.02t-.13-.02h-.43c-.07,0-.1-.01-.1-.04,0-.05.05-.08.11-.08h.82Z"/>
        <path class="cls-1" d="M124.71,23.55s-.03,0-.03-.03c0-.07.03-.1.1-.1h.08l.06-.16c.03-.08.06-.16.1-.25.02-.07.05-.15.08-.23.04-.08.07-.17.1-.26.03-.08.06-.16.07-.18,0,0,0-.01,0-.02,0-.02-.01-.02-.1-.02-.08,0-.08,0-.08-.04,0-.06.02-.09.08-.09h1.12c.07,0,.08,0,.08.04,0,.03-.01.05-.04.08-.01,0-.05.01-.23.01h-.68s-.03,0-.03,0,0,0,.02.03c0,0,0,.01,0,.02t-.13.33c-.12.3-.19.5-.23.6-.01.03-.02.07-.03.07,0,.02-.01.03-.01.04,0,.01.01.01.06.01h.81c.08.01.1.01.1.04,0,.05-.04.09-.09.09h-.93l-.26.71s-.03.08-.03.09.02.01.1.01h.75c.25,0,.27,0,.27.03,0,.07-.02.09-.1.09h-.95c-.17,0-.23-.03-.23-.11t.1-.33l.18-.49h-.11Z"/>
        <path class="cls-1" d="M126.79,22.33s-.07.02-.08.02-.02,0-.02-.02c0-.05.02-.09.07-.12.11-.07.37-.12.58-.12.57,0,.94.33.94.85,0,.36-.22.76-.6,1.07-.33.27-.83.46-1.2.46-.08,0-.14-.05-.14-.12,0-.03.01-.08.04-.14,0-.02.03-.08.06-.18.01-.04.05-.13.09-.26.04-.09.07-.18.1-.27.08-.23.13-.38.15-.43.05-.14.11-.29.17-.44.08-.23.13-.35.13-.36,0,0,0,0-.01,0-.04,0-.19.03-.25.06ZM127.33,22.22h-.1s-.07.02-.07.03c0,0,0,.01.02.02.03,0,.04.02.04.03,0,0,0,.01,0,.02,0,0-.03.08-.05.15-.01.04-.07.21-.14.39-.05.14-.1.28-.16.43-.08.23-.18.51-.3.82-.03.09-.05.16-.07.19,0,.02-.01.03-.01.04s.01.01.03.01c.2,0,.57-.12.76-.25.51-.32.8-.75.8-1.16s-.3-.72-.73-.72h-.02Z"/>
        <path class="cls-1" d="M130.73,23.81c0,.23-.16.42-.44.55-.24.1-.34.12-.73.12-.11,0-.14,0-.18-.05-.03-.03-.05-.07-.05-.09t.16-.47c.25-.73.35-1,.52-1.45.01-.02.02-.04.02-.06,0,0,0,0-.01,0-.02,0-.13.04-.21.07-.03.02-.06.02-.07.02s-.02-.01-.02-.05c0-.06,0-.07.05-.1.14-.07.4-.13.63-.13.46,0,.75.18.75.47,0,.2-.12.39-.33.54-.12.08-.22.12-.46.19.27.13.37.25.37.46ZM130.14,22.33s.02.02.04.04c.02.01.02.04.02.08,0,.08-.05.2-.26.61-.1.18-.23.54-.39,1.06-.02.07-.04.13-.05.15-.01.02-.02.04-.02.06,0,.03.03.04.14.04.24,0,.37-.02.54-.1.24-.11.38-.28.38-.46,0-.14-.1-.26-.27-.34-.09-.04-.21-.07-.27-.08-.08,0-.09,0-.09-.02,0-.07.04-.1.13-.1.1,0,.29-.03.39-.07.33-.12.52-.33.52-.54s-.22-.36-.52-.36c-.17,0-.31.02-.31.03Z"/>
        <path class="cls-1" d="M131.74,22.98s-.02-.17-.04-.33c-.01-.15-.02-.26-.03-.3,0-.06-.01-.12-.01-.17,0-.03.02-.05.07-.05.1,0,.12.02.11.12.02.4.03.44.11.99,0,.06.02.13.02.21,0,.02,0,.03.01.03.01,0,.07-.08.16-.24.02-.03.11-.17.19-.31.08-.13.16-.26.19-.31q.28-.5.33-.5c.07,0,.13.02.13.05,0,.02,0,.03-.02.05-.02.03-.06.09-.11.19-.36.6-.77,1.23-1.11,1.7q-.26.37-.3.37s-.1-.03-.1-.05.02-.05.05-.09c.14-.17.25-.32.46-.66q-.04-.26-.11-.72Z"/>
        <path class="cls-1" d="M134.62,21.94q.16-.45.23-.45c.07,0,.15.04.15.07,0,.02-.01.06-.02.1-.02.04-.05.14-.11.28-.02.05-.06.18-.13.37-.23.64-.7,2.01-.8,2.38-.01.05-.03.06-.09.06-.08,0-.14-.03-.14-.07,0-.02,0-.06.02-.09,0,0,.07-.19.12-.37.17-.57.45-1.38.66-1.96l.11-.32Z"/>
        <path class="cls-1" d="M135.41,23.16l.13-.35c.04-.11.08-.21.1-.26.03-.08.05-.13.06-.15,0-.03.01-.05.02-.06s0-.02,0-.02t-.05-.02h-.07c-.05,0-.08,0-.08-.03,0-.05.04-.09.1-.09h1.29s.04,0,.04.03c0,.06-.05.1-.11.1h-.93s-.05,0-.05,0,0,.02.01.02c.02.02.02.02.02.03t-.06.16c-.04.1-.07.19-.1.27-.04.1-.07.2-.11.3l-.11.3h.75c.22,0,.24,0,.24.04,0,.05-.04.09-.08.09h-.96s-.02.08-.03.09c-.02.04-.04.09-.05.14-.11.33-.14.4-.16.48q-.08.25-.14.25c-.06,0-.1-.02-.1-.05,0-.02,0-.03.01-.06.01-.02.03-.07.05-.14l.07-.21.11-.35c.02-.05.04-.12.04-.12,0,0,0-.02,0-.02,0-.01-.01-.01-.03-.01h-.05s-.04-.01-.04-.04c0-.05.04-.09.09-.09h.08l.09-.23Z"/>
        <path class="cls-1" d="M136.82,23.52s-.04,0-.04-.02c0-.04.05-.1.08-.1h.11c.43-1.16.48-1.26.52-1.26.07,0,.12.02.12.05,0,.02,0,.04-.02.06,0,0-.02.06-.05.12-.01.03-.04.09-.07.18-.04.11-.08.2-.1.26-.03.09-.07.18-.1.27l-.07.2-.04.11.83.02c.1,0,.15,0,.16,0,.03,0,.04,0,.05-.04,0-.01.02-.06.04-.12.05-.1.16-.43.3-.83.03-.08.05-.14.06-.17.01-.02.02-.04.02-.04.02-.05.04-.07.07-.07.04,0,.12.03.12.05s0,.05-.02.08c0,0-.04.1-.07.2-.03.09-.07.21-.13.35l-.13.36-.19.49-.17.45-.08.19s-.02.07-.04.1v.04s-.04.04-.07.04c-.05,0-.12-.03-.12-.06,0-.01,0-.04.02-.07,0,0,.01-.03.02-.05.02-.07.04-.12.05-.14l.07-.18c.08-.22.14-.36.16-.4,0-.03.02-.06.02-.06,0,0,.01-.02.01-.03,0,0,0-.01-.01-.01s-.01,0-.03.02c-.02.02-.04.03-.05.03h-.94c-.03.06-.05.11-.05.14l-.09.25c-.05.15-.1.3-.15.45q-.04.11-.07.11c-.06,0-.12-.02-.12-.05,0-.05.08-.3.3-.91h-.11Z"/>
        <path class="cls-1" d="M62.18,5.73h5.44c.53,0,1.04.06,1.56.19s.97.33,1.37.61c.4.28.73.65.98,1.09.25.45.37.99.37,1.62,0,.79-.22,1.44-.67,1.95-.45.51-1.03.88-1.75,1.1v.04c.43.05.84.17,1.21.36.37.19.69.43.96.73.26.3.47.64.62,1.03.15.39.23.81.23,1.25,0,.76-.15,1.4-.45,1.9-.3.51-.7.91-1.19,1.22-.49.31-1.06.53-1.7.66-.64.13-1.29.2-1.94.2h-5.03V5.73ZM64.66,11.41h2.27c.83,0,1.45-.16,1.86-.48s.62-.75.62-1.27c0-.6-.21-1.05-.64-1.35-.43-.3-1.11-.44-2.06-.44h-2.05v3.55ZM64.66,17.56h2.29c.32,0,.65-.02,1.02-.06.36-.04.69-.13,1-.28.3-.14.55-.35.75-.62.2-.27.3-.63.3-1.09,0-.74-.24-1.25-.72-1.54-.48-.29-1.23-.43-2.24-.43h-2.39v4.02Z"/>
        <path class="cls-1" d="M75.92,5.73h2.48v13.96h-2.48V5.73Z"/>
        <path class="cls-1" d="M87.01,5.73h2.15l6.01,13.96h-2.84l-1.3-3.19h-6.05l-1.26,3.19h-2.78l6.07-13.96ZM90.16,14.37l-2.15-5.68-2.19,5.68h4.34Z"/>
        <path class="cls-1" d="M96.96,5.73h3.29l6.76,10.37h.04V5.73h2.48v13.96h-3.15l-6.9-10.71h-.04v10.71h-2.48V5.73Z"/>
        <path class="cls-1" d="M121.71,16.77c-.28.26-.57.47-.88.62-.53.27-1.08.4-1.65.4-.72,0-1.38-.13-1.96-.39-.59-.26-1.09-.62-1.51-1.08-.42-.46-.75-1.01-.98-1.64-.23-.63-.35-1.32-.35-2.07,0-.7.12-1.35.35-1.95.23-.6.56-1.13.98-1.59.42-.45.92-.81,1.51-1.06.58-.26,1.24-.38,1.96-.38.49,0,.97.09,1.45.28.4.15.81.44,1.24.85l1.54-1.82c-.51-.46-1.05-.81-1.61-1.05-.81-.34-1.69-.5-2.63-.5-1.08,0-2.07.17-2.97.52-.9.35-1.68.84-2.33,1.49-.65.64-1.16,1.42-1.53,2.34-.37.91-.55,1.93-.55,3.05s.18,2.08.55,2.98c.37.89.88,1.66,1.53,2.3.65.64,1.43,1.13,2.33,1.48.9.35,1.89.52,2.97.52s1.99-.2,2.9-.59c.45-.2.87-.46,1.26-.77l-1.61-1.91Z"/>
        <path class="cls-1" d="M130.8,5.73h2.15l6.01,13.96h-2.84l-1.3-3.19h-6.05l-1.26,3.19h-2.78l6.07-13.96ZM133.95,14.37l-2.15-5.68-2.19,5.68h4.34Z"/>
      </g>
      <polygon class="cls-1" points="52.61 6 51.97 5.35 44.81 12.37 37.78 5.21 37.13 5.85 44.16 13.01 37 20.03 37.64 20.68 44.8 13.66 51.82 20.82 52.47 20.18 45.45 13.02 52.61 6"/>
    </g>
  </g>
</svg>