<?xml version="1.0" encoding="UTF-8"?>
<svg id="_レイヤー_2" data-name="レイヤー 2" xmlns="http://www.w3.org/2000/svg" viewBox="0 0 389.21 945.61">
  <defs>
    <style>
      .cls-1 {
        fill: #231815;
      }

      .cls-2 {
        fill: #fff;
      }

      .cls-3 {
        stroke-linecap: round;
        stroke-linejoin: round;
      }

      .cls-3, .cls-4 {
        fill: none;
        stroke: #231815;
      }

      .cls-4 {
        stroke-miterlimit: 10;
        stroke-width: .5px;
      }
    </style>
  </defs>
  <g id="_レイヤー_1-2" data-name="レイヤー 1">
    <g>
      <line class="cls-3" x1="201.4" y1="98.09" x2="201.4" y2="868.37"/>
      <g>
        <path class="cls-1" d="M6.05,17.93c-1.23,0-2.28-.36-3.15-1.07s-1.54-1.73-2-3.06S.21,10.86.21,8.98s.23-3.49.69-4.83S2.03,1.78,2.91,1.07s1.92-1.07,3.14-1.07,2.26.36,3.13,1.07,1.53,1.74,2,3.08.7,2.95.7,4.83-.23,3.49-.69,4.82-1.12,2.35-1.99,3.06-1.91,1.07-3.14,1.07ZM6.05,16.51c.91,0,1.68-.3,2.32-.9s1.13-1.46,1.47-2.58.51-2.48.51-4.05-.17-2.94-.51-4.07-.83-1.99-1.47-2.59-1.41-.9-2.32-.9c-1.37,0-2.43.67-3.18,2s-1.13,3.19-1.13,5.56c0,1.58.17,2.93.51,4.05s.83,1.99,1.48,2.58,1.42.9,2.33.9Z"/>
        <path class="cls-1" d="M20.03,17.93c-1.23,0-2.28-.36-3.15-1.07s-1.54-1.73-2-3.06-.69-2.94-.69-4.82.23-3.49.69-4.83,1.13-2.37,2-3.08,1.92-1.07,3.14-1.07,2.26.36,3.13,1.07,1.53,1.74,2,3.08.7,2.95.7,4.83-.23,3.49-.69,4.82-1.12,2.35-1.99,3.06-1.91,1.07-3.14,1.07ZM20.03,16.51c.91,0,1.68-.3,2.32-.9s1.13-1.46,1.47-2.58.51-2.48.51-4.05-.17-2.94-.51-4.07-.83-1.99-1.47-2.59-1.41-.9-2.32-.9c-1.37,0-2.43.67-3.18,2s-1.13,3.19-1.13,5.56c0,1.58.17,2.93.51,4.05s.83,1.99,1.48,2.58,1.42.9,2.33.9Z"/>
      </g>
      <g>
        <path class="cls-1" d="M6.05,259.39c-1.23,0-2.28-.36-3.15-1.07s-1.54-1.73-2-3.06-.69-2.94-.69-4.82.23-3.49.69-4.83,1.13-2.37,2-3.08,1.92-1.07,3.14-1.07,2.26.36,3.13,1.07,1.53,1.74,2,3.08.7,2.95.7,4.83-.23,3.49-.69,4.82-1.12,2.35-1.99,3.06-1.91,1.07-3.14,1.07ZM6.05,257.97c.91,0,1.68-.3,2.32-.9s1.13-1.46,1.47-2.58.51-2.48.51-4.05-.17-2.94-.51-4.07-.83-1.99-1.47-2.59-1.41-.9-2.32-.9c-1.37,0-2.43.67-3.18,2s-1.13,3.19-1.13,5.56c0,1.58.17,2.93.51,4.05s.83,1.99,1.48,2.58,1.42.9,2.33.9Z"/>
        <path class="cls-1" d="M20.27,259.39c-1.08,0-2.04-.19-2.89-.58s-1.52-.93-2.01-1.62-.75-1.49-.79-2.4h1.61c.03.63.23,1.19.59,1.66s.85.85,1.45,1.11,1.27.39,2,.39c.81,0,1.53-.15,2.15-.45s1.11-.71,1.45-1.24.52-1.12.52-1.78c0-.71-.18-1.34-.54-1.88s-.87-.96-1.54-1.26-1.46-.45-2.38-.45h-1.02v-1.44h1.02c.75,0,1.42-.14,2-.41s1.04-.66,1.38-1.15.5-1.08.5-1.76c0-.64-.14-1.21-.43-1.7s-.7-.88-1.22-1.15-1.14-.41-1.84-.41-1.29.13-1.86.39-1.02.63-1.37,1.1-.52,1.03-.54,1.68h-1.55c.02-.91.28-1.7.76-2.39s1.12-1.23,1.92-1.62,1.68-.59,2.66-.59,1.91.21,2.67.63,1.34.98,1.75,1.68.61,1.47.6,2.3c0,1-.26,1.85-.8,2.55s-1.27,1.19-2.18,1.46v.12c1.11.22,1.98.71,2.62,1.48s.96,1.7.96,2.81c0,.93-.24,1.76-.73,2.5s-1.16,1.32-2,1.75-1.82.64-2.91.64Z"/>
        <path class="cls-1" d="M29,259.16v-13.1h1.46v2.03h.15c.26-.68.69-1.21,1.31-1.61s1.35-.59,2.21-.59,1.64.21,2.21.64,1.01,1.01,1.3,1.74h.12c.3-.72.78-1.29,1.45-1.73s1.47-.65,2.42-.65c1.22,0,2.18.38,2.89,1.15s1.07,1.88,1.07,3.34v8.78h-1.52v-8.78c0-1.03-.26-1.81-.79-2.33s-1.22-.78-2.09-.78c-1,0-1.77.31-2.31.93s-.81,1.4-.81,2.34v8.61h-1.56v-8.92c0-.88-.25-1.6-.74-2.14s-1.19-.82-2.09-.82c-.6,0-1.14.15-1.62.45s-.86.71-1.14,1.24-.42,1.13-.42,1.82v8.38h-1.51Z"/>
      </g>
      <line class="cls-3" x1="30.63" y1="10.3" x2="388.71" y2="10.3"/>
      <line class="cls-3" x1="50.22" y1="252.2" x2="388.71" y2="252.2"/>
      <g>
        <path class="cls-1" d="M6.05,415.24c-1.23,0-2.28-.36-3.15-1.07s-1.54-1.73-2-3.06-.69-2.94-.69-4.82.23-3.49.69-4.83,1.13-2.37,2-3.08,1.92-1.07,3.14-1.07,2.26.36,3.13,1.07,1.53,1.74,2,3.08.7,2.95.7,4.83-.23,3.49-.69,4.82-1.12,2.35-1.99,3.06-1.91,1.07-3.14,1.07ZM6.05,413.82c.91,0,1.68-.3,2.32-.9s1.13-1.46,1.47-2.58.51-2.48.51-4.05-.17-2.94-.51-4.07-.83-1.99-1.47-2.59-1.41-.9-2.32-.9c-1.37,0-2.43.67-3.18,2s-1.13,3.19-1.13,5.56c0,1.58.17,2.93.51,4.05s.83,1.99,1.48,2.58,1.42.9,2.33.9Z"/>
        <path class="cls-1" d="M14.19,411.24v-1.29l7.77-12.41h.96v2.17h-.71l-6.25,9.98v.12h10.21v1.43h-11.98ZM22.32,415v-17.46h1.52v17.46h-1.52Z"/>
        <path class="cls-1" d="M28.93,415v-13.1h1.46v2.03h.15c.26-.68.69-1.21,1.31-1.61s1.35-.59,2.21-.59,1.64.21,2.21.64,1.01,1.01,1.3,1.74h.12c.3-.72.78-1.29,1.45-1.73s1.47-.65,2.42-.65c1.22,0,2.18.38,2.89,1.15s1.07,1.88,1.07,3.34v8.78h-1.52v-8.78c0-1.03-.26-1.81-.79-2.33s-1.22-.78-2.09-.78c-1,0-1.77.31-2.31.93s-.81,1.4-.81,2.34v8.61h-1.56v-8.92c0-.88-.25-1.6-.74-2.14s-1.19-.82-2.09-.82c-.6,0-1.14.15-1.62.45s-.86.71-1.14,1.24-.42,1.13-.42,1.82v8.38h-1.51Z"/>
      </g>
      <line class="cls-3" x1="49.16" y1="408.04" x2="388.71" y2="408.04"/>
      <g>
        <path class="cls-1" d="M5.74,818.6v17.46h-1.56v-15.79h-.11l-4.08,2.72v-1.64l4.11-2.75h1.63Z"/>
        <path class="cls-1" d="M10.36,840.96c-.3,0-.58-.02-.84-.07s-.47-.12-.63-.2l.41-1.32.18.05c.72.21,1.33.19,1.83-.08s.93-.87,1.27-1.81l.48-1.34-4.82-13.23h1.65l3.88,11.11h.12l3.89-11.11h1.64l-5.53,15.16c-.23.63-.52,1.16-.86,1.58s-.73.74-1.18.94-.95.31-1.5.31Z"/>
      </g>
      <line class="cls-3" x1="49.16" y1="829.1" x2="388.71" y2="829.1"/>
      <circle class="cls-1" cx="201.29" cy="310.06" r="58"/>
      <circle class="cls-1" cx="201.29" cy="466.4" r="58"/>
      <circle class="cls-1" cx="201.99" cy="887.61" r="58"/>
      <circle class="cls-2" cx="201.29" cy="61.4" r="58"/>
      <circle class="cls-4" cx="201.29" cy="61.4" r="58"/>
      <g>
        <path class="cls-2" d="M188.76,297.35v-13.1h4.43c1.03,0,1.86.18,2.52.55s1.14.87,1.45,1.49.47,1.33.47,2.1-.16,1.47-.47,2.1-.8,1.14-1.45,1.51-1.49.56-2.51.56h-3.16v-1.41h3.11c.7,0,1.27-.12,1.7-.36s.74-.57.93-.99.29-.89.29-1.41-.1-1-.29-1.41-.51-.74-.94-.98-1-.36-1.71-.36h-2.79v11.69h-1.58Z"/>
        <path class="cls-2" d="M199.15,297.35v-9.83h1.44v1.49h.11c.18-.49.51-.88.98-1.18s1-.45,1.59-.45c.11,0,.25,0,.41,0s.29,0,.38.01v1.53c-.05-.01-.17-.03-.35-.05s-.38-.04-.58-.04c-.47,0-.9.1-1.27.3s-.67.47-.88.82-.32.74-.32,1.19v6.21h-1.49Z"/>
        <path class="cls-2" d="M209.12,297.56c-.94,0-1.76-.21-2.45-.63s-1.22-1.01-1.59-1.77-.55-1.64-.55-2.64.18-1.9.54-2.66.87-1.37,1.53-1.8,1.43-.65,2.32-.65c.51,0,1.02.08,1.52.25s.96.45,1.38.83.74.88.99,1.51.37,1.4.37,2.31v.65h-7.58v-1.3h6.76l-.69.49c0-.66-.1-1.24-.31-1.75s-.51-.91-.92-1.2-.91-.44-1.52-.44-1.12.15-1.55.44-.76.68-.99,1.16-.34.98-.34,1.53v.86c0,.74.13,1.37.39,1.89s.62.91,1.08,1.17,1,.4,1.61.4c.39,0,.75-.06,1.07-.17s.6-.29.83-.52.41-.52.54-.86l1.46.42c-.15.49-.41.92-.77,1.3s-.81.66-1.34.87-1.13.31-1.79.31Z"/>
        <path class="cls-2" d="M179.81,305.86v13.1h-1.58v-13.1h1.58ZM182.27,318.95h-3.15v-1.41h3.04c1.08,0,1.98-.21,2.69-.62s1.24-1.01,1.6-1.78.53-1.69.53-2.76-.17-1.96-.52-2.73-.86-1.35-1.55-1.77-1.55-.62-2.57-.62h-3.29v-1.41h3.39c1.27,0,2.36.26,3.27.78s1.6,1.27,2.08,2.25.72,2.14.72,3.49-.24,2.54-.73,3.52-1.19,1.74-2.12,2.26-2.06.79-3.39.79Z"/>
        <path class="cls-2" d="M194.24,319.17c-.94,0-1.76-.21-2.45-.63s-1.22-1.01-1.59-1.77-.55-1.64-.55-2.64.18-1.9.54-2.66.87-1.37,1.53-1.8,1.43-.65,2.32-.65c.51,0,1.02.08,1.52.25s.96.45,1.38.83.74.88.99,1.51.37,1.4.37,2.31v.65h-7.58v-1.3h6.76l-.69.49c0-.66-.1-1.24-.31-1.75s-.51-.91-.92-1.2-.91-.44-1.52-.44-1.12.15-1.55.44-.76.68-.99,1.16-.34.98-.34,1.53v.86c0,.74.13,1.37.39,1.89s.62.91,1.08,1.17,1,.4,1.61.4c.39,0,.75-.06,1.07-.17s.6-.29.83-.52.41-.52.54-.86l1.46.42c-.15.49-.41.92-.77,1.3s-.81.66-1.34.87-1.13.31-1.79.31Z"/>
        <path class="cls-2" d="M204.21,319.17c-.63,0-1.13-.11-1.51-.32s-.67-.46-.88-.73-.36-.5-.47-.67h-.18v1.51h-1.44v-13.1h1.49v4.83h.12c.11-.17.27-.39.47-.65s.49-.51.86-.72.88-.32,1.52-.32c.83,0,1.55.21,2.18.62s1.12,1,1.47,1.76.53,1.65.53,2.69-.18,1.94-.53,2.7-.84,1.35-1.47,1.77-1.35.62-2.17.62ZM204.01,317.81c.63,0,1.15-.17,1.57-.51s.74-.79.95-1.36.32-1.2.32-1.9-.11-1.32-.32-1.87-.53-1-.94-1.33-.95-.49-1.59-.49-1.13.15-1.55.46-.73.74-.94,1.29-.32,1.2-.32,1.94.11,1.39.33,1.96.53,1.01.95,1.33.93.48,1.53.48Z"/>
        <path class="cls-2" d="M216.02,314.95v-5.82h1.49v9.83h-1.49v-1.67h-.11c-.23.5-.59.92-1.08,1.27s-1.1.52-1.84.52c-.62,0-1.16-.13-1.63-.4s-.85-.68-1.12-1.23-.41-1.25-.41-2.08v-6.24h1.49v6.15c0,.71.2,1.28.61,1.71s.92.64,1.55.63c.38,0,.76-.1,1.15-.29s.72-.48.98-.88.4-.9.4-1.51Z"/>
        <path class="cls-2" d="M223.7,309.13v1.28h-5.08v-1.28h5.08ZM220.1,306.79h1.49v9.35c0,.51.11.88.32,1.12s.54.36,1,.36c.1,0,.2,0,.31-.02s.23-.03.36-.05l.32,1.35c-.14.05-.31.1-.51.13s-.41.05-.61.05c-.79,0-1.43-.23-1.93-.7s-.74-1.08-.74-1.83v-9.76Z"/>
      </g>
      <g>
        <path class="cls-2" d="M153.95,453.4v-13.1h7.91v1.41h-6.33v4.38h5.91v1.41h-5.91v4.5h6.42v1.41h-8Z"/>
        <path class="cls-2" d="M164.64,457.07c-.26,0-.49-.01-.69-.05s-.34-.08-.42-.12l.39-1.32.15.04c.5.12.93.09,1.27-.07s.64-.6.9-1.31l.28-.77-3.62-9.88h1.63l2.71,7.84h.11l2.71-7.84h1.63l-4.17,11.25c-.19.51-.42.93-.69,1.27s-.59.58-.96.74-.77.24-1.23.24Z"/>
        <path class="cls-2" d="M176.96,453.61c-.94,0-1.76-.21-2.45-.63s-1.22-1.01-1.59-1.77-.55-1.64-.55-2.64.18-1.9.54-2.66.87-1.37,1.53-1.8,1.43-.65,2.32-.65c.51,0,1.02.08,1.52.25s.96.45,1.38.83.74.88.99,1.51.37,1.4.37,2.31v.65h-7.58v-1.3h6.76l-.69.49c0-.66-.1-1.24-.31-1.75s-.51-.91-.92-1.2-.91-.44-1.52-.44-1.12.15-1.55.44-.76.68-.99,1.16-.34.98-.34,1.53v.86c0,.74.13,1.37.39,1.89s.62.91,1.08,1.17,1,.4,1.61.4c.39,0,.75-.06,1.07-.17s.6-.29.83-.52.41-.52.54-.86l1.46.42c-.15.49-.41.92-.77,1.3s-.81.66-1.34.87-1.13.31-1.79.31Z"/>
        <path class="cls-2" d="M186.14,453.61c-.82,0-1.54-.21-2.17-.62s-1.12-1.01-1.47-1.77-.53-1.67-.53-2.7.18-1.93.53-2.69.85-1.34,1.47-1.76,1.35-.62,2.18-.62c.64,0,1.15.11,1.52.32s.66.45.86.72.35.48.47.65h.12v-4.83h1.49v13.1h-1.44v-1.51h-.18c-.11.18-.27.4-.47.67s-.5.52-.87.73-.88.32-1.52.32ZM186.33,452.25c.61,0,1.12-.16,1.54-.48s.73-.76.95-1.33.33-1.22.33-1.96-.11-1.38-.32-1.94-.53-.98-.94-1.29-.94-.46-1.55-.46-1.16.16-1.58.49-.74.77-.95,1.33-.32,1.18-.32,1.87.11,1.33.32,1.9.53,1.02.95,1.36.95.51,1.57.51Z"/>
        <path class="cls-2" d="M196.67,453.61c-.94,0-1.76-.21-2.45-.63s-1.22-1.01-1.59-1.77-.55-1.64-.55-2.64.18-1.9.54-2.66.87-1.37,1.53-1.8,1.43-.65,2.32-.65c.51,0,1.02.08,1.52.25s.96.45,1.38.83.74.88.99,1.51.37,1.4.37,2.31v.65h-7.58v-1.3h6.76l-.69.49c0-.66-.1-1.24-.31-1.75s-.51-.91-.92-1.2-.91-.44-1.52-.44-1.12.15-1.55.44-.76.68-.99,1.16-.34.98-.34,1.53v.86c0,.74.13,1.37.39,1.89s.62.91,1.08,1.17,1,.4,1.61.4c.39,0,.75-.06,1.07-.17s.6-.29.83-.52.41-.52.54-.86l1.46.42c-.15.49-.41.92-.77,1.3s-.81.66-1.34.87-1.13.31-1.79.31Z"/>
        <path class="cls-2" d="M209.09,445.79l-1.35.37c-.13-.33-.35-.65-.66-.95s-.8-.45-1.46-.45c-.6,0-1.1.14-1.49.42s-.6.63-.6,1.04c0,.38.14.67.41.9s.7.4,1.28.54l1.46.35c.87.21,1.52.54,1.96.98s.65,1,.65,1.68c0,.56-.16,1.07-.48,1.51s-.77.8-1.34,1.05-1.24.39-2,.39c-1,0-1.83-.22-2.48-.66s-1.07-1.08-1.24-1.91l1.42-.35c.13.53.39.92.78,1.19s.89.4,1.51.4c.7,0,1.26-.15,1.67-.45s.63-.66.63-1.08c0-.69-.49-1.15-1.46-1.39l-1.63-.39c-.9-.22-1.56-.55-1.99-.99s-.63-1-.63-1.68c0-.56.16-1.05.47-1.48s.74-.76,1.29-1.01,1.16-.36,1.85-.36c.98,0,1.74.22,2.3.65s.95.99,1.18,1.69Z"/>
        <path class="cls-2" d="M211.47,441.94c-.29,0-.54-.1-.76-.3s-.32-.44-.32-.72.11-.52.32-.72.46-.3.76-.3.54.1.76.3.32.44.32.72-.11.52-.32.72-.46.3-.76.3ZM210.71,453.4v-9.83h1.49v9.83h-1.49Z"/>
        <path class="cls-2" d="M218.09,457.28c-1.1,0-1.96-.2-2.6-.6s-1.11-.86-1.41-1.37l1.2-.84c.13.18.31.39.52.62s.5.43.86.6.84.25,1.43.25c.79,0,1.45-.19,1.96-.57s.78-.98.78-1.8v-1.99h-.14c-.11.18-.26.39-.46.65s-.49.49-.87.69-.89.3-1.53.3c-.79,0-1.5-.19-2.13-.56s-1.12-.92-1.49-1.63-.55-1.58-.55-2.6.18-1.89.53-2.63.85-1.33,1.48-1.74,1.36-.62,2.19-.62c.64,0,1.15.11,1.52.32s.67.45.87.72.36.48.47.65h.16v-1.56h1.44v10.11c0,.84-.19,1.53-.57,2.06s-.89.92-1.53,1.17-1.35.37-2.14.37ZM218.04,451.88c.91,0,1.6-.31,2.09-.92s.73-1.47.73-2.56c0-.71-.11-1.33-.32-1.87s-.53-.96-.94-1.27-.94-.46-1.55-.46-1.17.16-1.6.49-.74.76-.95,1.31-.32,1.15-.32,1.81.11,1.28.32,1.81.53.93.96,1.23.96.44,1.58.44Z"/>
        <path class="cls-2" d="M225.76,447.49v5.91h-1.49v-9.83h1.44v1.55h.14c.23-.5.58-.91,1.05-1.21s1.08-.46,1.82-.46c.66,0,1.24.13,1.74.4s.89.68,1.16,1.23.42,1.24.42,2.08v6.24h-1.49v-6.13c0-.77-.2-1.37-.61-1.81s-.96-.65-1.65-.65c-.48,0-.91.11-1.29.32s-.68.52-.9.91-.33.88-.33,1.46Z"/>
        <path class="cls-2" d="M238.08,453.61c-.94,0-1.76-.21-2.45-.63s-1.22-1.01-1.59-1.77-.55-1.64-.55-2.64.18-1.9.54-2.66.87-1.37,1.53-1.8,1.43-.65,2.32-.65c.51,0,1.02.08,1.52.25s.96.45,1.38.83.74.88.99,1.51.37,1.4.37,2.31v.65h-7.58v-1.3h6.76l-.69.49c0-.66-.1-1.24-.31-1.75s-.51-.91-.92-1.2-.91-.44-1.52-.44-1.12.15-1.55.44-.76.68-.99,1.16-.34.98-.34,1.53v.86c0,.74.13,1.37.39,1.89s.62.91,1.08,1.17,1,.4,1.61.4c.39,0,.75-.06,1.07-.17s.6-.29.83-.52.41-.52.54-.86l1.46.42c-.15.49-.41.92-.77,1.3s-.81.66-1.34.87-1.13.31-1.79.31Z"/>
        <path class="cls-2" d="M243.56,453.4v-9.83h1.44v1.49h.11c.18-.49.51-.88.98-1.18s1-.45,1.59-.45c.11,0,.25,0,.41,0s.29,0,.38.01v1.53c-.05-.01-.17-.03-.35-.05s-.38-.04-.58-.04c-.47,0-.9.1-1.27.3s-.67.47-.88.82-.32.74-.32,1.19v6.21h-1.49Z"/>
        <path class="cls-2" d="M179.81,461.9v13.1h-1.58v-13.1h1.58ZM182.27,475h-3.15v-1.41h3.04c1.08,0,1.98-.21,2.69-.62s1.24-1.01,1.6-1.78.53-1.69.53-2.76-.17-1.96-.52-2.73-.86-1.35-1.55-1.77-1.55-.62-2.57-.62h-3.29v-1.41h3.39c1.27,0,2.36.26,3.27.78s1.6,1.27,2.08,2.25.72,2.14.72,3.49-.24,2.54-.73,3.52-1.19,1.74-2.12,2.26-2.06.79-3.39.79Z"/>
        <path class="cls-2" d="M194.24,475.21c-.94,0-1.76-.21-2.45-.63s-1.22-1.01-1.59-1.77-.55-1.64-.55-2.64.18-1.9.54-2.66.87-1.37,1.53-1.8,1.43-.65,2.32-.65c.51,0,1.02.08,1.52.25s.96.45,1.38.83.74.88.99,1.51.37,1.4.37,2.31v.65h-7.58v-1.3h6.76l-.69.49c0-.66-.1-1.24-.31-1.75s-.51-.91-.92-1.2-.91-.44-1.52-.44-1.12.15-1.55.44-.76.68-.99,1.16-.34.98-.34,1.53v.86c0,.74.13,1.37.39,1.89s.62.91,1.08,1.17,1,.4,1.61.4c.39,0,.75-.06,1.07-.17s.6-.29.83-.52.41-.52.54-.86l1.46.42c-.15.49-.41.92-.77,1.3s-.81.66-1.34.87-1.13.31-1.79.31Z"/>
        <path class="cls-2" d="M204.21,475.21c-.63,0-1.13-.11-1.51-.32s-.67-.46-.88-.73-.36-.5-.47-.67h-.18v1.51h-1.44v-13.1h1.49v4.83h.12c.11-.17.27-.39.47-.65s.49-.51.86-.72.88-.32,1.52-.32c.83,0,1.55.21,2.18.62s1.12,1,1.47,1.76.53,1.65.53,2.69-.18,1.94-.53,2.7-.84,1.35-1.47,1.77-1.35.62-2.17.62ZM204.01,473.85c.63,0,1.15-.17,1.57-.51s.74-.79.95-1.36.32-1.2.32-1.9-.11-1.32-.32-1.87-.53-1-.94-1.33-.95-.49-1.59-.49-1.13.15-1.55.46-.73.74-.94,1.29-.32,1.2-.32,1.94.11,1.39.33,1.96.53,1.01.95,1.33.93.48,1.53.48Z"/>
        <path class="cls-2" d="M216.02,470.99v-5.82h1.49v9.83h-1.49v-1.67h-.11c-.23.5-.59.92-1.08,1.27s-1.1.52-1.84.52c-.62,0-1.16-.13-1.63-.4s-.85-.68-1.12-1.23-.41-1.25-.41-2.08v-6.24h1.49v6.15c0,.71.2,1.28.61,1.71s.92.64,1.55.63c.38,0,.76-.1,1.15-.29s.72-.48.98-.88.4-.9.4-1.51Z"/>
        <path class="cls-2" d="M223.7,465.17v1.28h-5.08v-1.28h5.08ZM220.1,462.83h1.49v9.35c0,.51.11.88.32,1.12s.54.36,1,.36c.1,0,.2,0,.31-.02s.23-.03.36-.05l.32,1.35c-.14.05-.31.1-.51.13s-.41.05-.61.05c-.79,0-1.43-.23-1.93-.7s-.74-1.08-.74-1.83v-9.76Z"/>
      </g>
      <g>
        <path class="cls-2" d="M172.48,860.15v-13.1h4.43c1.03,0,1.86.17,2.52.52s1.14.83,1.45,1.43.47,1.3.47,2.07-.16,1.45-.47,2.05-.8,1.06-1.45,1.4-1.49.51-2.51.51h-3.57v-1.42h3.52c.7,0,1.27-.1,1.7-.31s.74-.5.93-.87.29-.83.29-1.35-.1-.99-.29-1.38-.51-.7-.94-.91-1-.33-1.71-.33h-2.79v11.69h-1.58ZM180.02,860.15l-3.16-5.89h1.79l3.22,5.89h-1.85Z"/>
        <path class="cls-2" d="M187.07,860.36c-.94,0-1.76-.21-2.45-.63s-1.22-1.01-1.59-1.77-.55-1.64-.55-2.64.18-1.9.54-2.66.87-1.37,1.53-1.8,1.43-.65,2.32-.65c.51,0,1.02.08,1.52.25s.96.45,1.38.83.74.88.99,1.51.37,1.4.37,2.31v.65h-7.58v-1.3h6.76l-.69.49c0-.66-.1-1.24-.31-1.75s-.51-.91-.92-1.2-.91-.44-1.52-.44-1.12.15-1.55.44-.76.68-.99,1.16-.34.98-.34,1.53v.86c0,.74.13,1.37.39,1.89s.62.91,1.08,1.17,1,.4,1.61.4c.39,0,.75-.06,1.07-.17s.6-.29.83-.52.41-.52.54-.86l1.46.42c-.15.49-.41.92-.77,1.3s-.81.66-1.34.87-1.13.31-1.79.31Z"/>
        <path class="cls-2" d="M196.51,864.03c-1.1,0-1.96-.2-2.6-.6s-1.11-.86-1.41-1.37l1.2-.84c.13.18.31.39.52.62s.5.43.86.6.84.25,1.43.25c.79,0,1.45-.19,1.96-.57s.78-.98.78-1.8v-1.99h-.14c-.11.18-.26.39-.46.65s-.49.49-.87.69-.89.3-1.53.3c-.79,0-1.5-.19-2.13-.56s-1.12-.92-1.49-1.63-.55-1.58-.55-2.6.18-1.89.53-2.63.85-1.33,1.48-1.74,1.36-.62,2.19-.62c.64,0,1.15.11,1.52.32s.67.45.87.72.36.48.47.65h.16v-1.56h1.44v10.11c0,.84-.19,1.53-.57,2.06s-.89.92-1.53,1.17-1.35.37-2.14.37ZM196.45,858.63c.91,0,1.6-.31,2.09-.92s.73-1.47.73-2.56c0-.71-.11-1.33-.32-1.87s-.53-.96-.94-1.27-.94-.46-1.55-.46-1.17.16-1.6.49-.74.76-.95,1.31-.32,1.15-.32,1.81.11,1.28.32,1.81.53.93.96,1.23.96.44,1.58.44Z"/>
        <path class="cls-2" d="M208.86,856.14v-5.82h1.49v9.83h-1.49v-1.67h-.11c-.23.5-.59.92-1.08,1.27s-1.1.52-1.84.52c-.62,0-1.16-.13-1.63-.4s-.85-.68-1.12-1.23-.41-1.25-.41-2.08v-6.24h1.49v6.15c0,.71.2,1.28.61,1.71s.92.64,1.55.63c.38,0,.76-.1,1.15-.29s.72-.48.98-.88.4-.9.4-1.51Z"/>
        <path class="cls-2" d="M213.79,847.05v13.1h-1.49v-13.1h1.49Z"/>
        <path class="cls-2" d="M218.6,860.37c-.62,0-1.19-.12-1.7-.36s-.91-.58-1.21-1.03-.45-1-.45-1.63c0-.56.11-1.02.33-1.37s.52-.62.89-.83.78-.35,1.23-.45.9-.18,1.36-.24c.6-.08,1.08-.13,1.45-.18s.64-.11.82-.21.26-.27.26-.51v-.05c0-.63-.17-1.11-.51-1.46s-.86-.52-1.56-.52-1.28.16-1.69.47-.7.65-.86,1.01l-1.44-.51c.26-.6.6-1.06,1.03-1.4s.9-.57,1.41-.7,1.01-.2,1.5-.2c.32,0,.68.04,1.09.11s.81.23,1.2.46.71.58.97,1.05.38,1.09.38,1.87v6.47h-1.51v-1.34h-.07c-.1.21-.27.44-.51.68s-.56.45-.95.62-.88.26-1.45.26ZM218.83,859.02c.6,0,1.1-.12,1.51-.35s.72-.54.93-.91.32-.76.32-1.16v-1.39c-.06.08-.2.15-.42.21s-.46.12-.74.16-.55.09-.81.12-.47.06-.63.07c-.39.05-.76.14-1.1.25s-.61.28-.82.51-.31.53-.31.91c0,.52.19.92.58,1.18s.89.4,1.49.4Z"/>
        <path class="cls-2" d="M225.04,860.15v-9.83h1.44v1.49h.11c.18-.49.51-.88.98-1.18s1-.45,1.59-.45c.11,0,.25,0,.41,0s.29,0,.38.01v1.53c-.05-.01-.17-.03-.35-.05s-.38-.04-.58-.04c-.47,0-.9.1-1.27.3s-.67.47-.88.82-.32.74-.32,1.19v6.21h-1.49Z"/>
        <path class="cls-2" d="M153.95,881.75v-13.1h7.91v1.41h-6.33v4.38h5.91v1.41h-5.91v4.5h6.42v1.41h-8Z"/>
        <path class="cls-2" d="M164.64,885.42c-.26,0-.49-.01-.69-.05s-.34-.08-.42-.12l.39-1.32.15.04c.5.12.93.09,1.27-.07s.64-.6.9-1.31l.28-.77-3.62-9.88h1.63l2.71,7.84h.11l2.71-7.84h1.63l-4.17,11.25c-.19.51-.42.93-.69,1.27s-.59.58-.96.74-.77.24-1.23.24Z"/>
        <path class="cls-2" d="M176.96,881.96c-.94,0-1.76-.21-2.45-.63s-1.22-1.01-1.59-1.77-.55-1.64-.55-2.64.18-1.9.54-2.66.87-1.37,1.53-1.8,1.43-.65,2.32-.65c.51,0,1.02.08,1.52.25s.96.45,1.38.83.74.88.99,1.51.37,1.4.37,2.31v.65h-7.58v-1.3h6.76l-.69.49c0-.66-.1-1.24-.31-1.75s-.51-.91-.92-1.2-.91-.44-1.52-.44-1.12.15-1.55.44-.76.68-.99,1.16-.34.98-.34,1.53v.86c0,.74.13,1.37.39,1.89s.62.91,1.08,1.17,1,.4,1.61.4c.39,0,.75-.06,1.07-.17s.6-.29.83-.52.41-.52.54-.86l1.46.42c-.15.49-.41.92-.77,1.3s-.81.66-1.34.87-1.13.31-1.79.31Z"/>
        <path class="cls-2" d="M186.14,881.96c-.82,0-1.54-.21-2.17-.62s-1.12-1.01-1.47-1.77-.53-1.67-.53-2.7.18-1.93.53-2.69.85-1.34,1.47-1.76,1.35-.62,2.18-.62c.64,0,1.15.11,1.52.32s.66.45.86.72.35.48.47.65h.12v-4.83h1.49v13.1h-1.44v-1.51h-.18c-.11.18-.27.4-.47.67s-.5.52-.87.73-.88.32-1.52.32ZM186.33,880.6c.61,0,1.12-.16,1.54-.48s.73-.76.95-1.33.33-1.22.33-1.96-.11-1.38-.32-1.94-.53-.98-.94-1.29-.94-.46-1.55-.46-1.16.16-1.58.49-.74.77-.95,1.33-.32,1.18-.32,1.87.11,1.33.32,1.9.53,1.02.95,1.36.95.51,1.57.51Z"/>
        <path class="cls-2" d="M196.67,881.96c-.94,0-1.76-.21-2.45-.63s-1.22-1.01-1.59-1.77-.55-1.64-.55-2.64.18-1.9.54-2.66.87-1.37,1.53-1.8,1.43-.65,2.32-.65c.51,0,1.02.08,1.52.25s.96.45,1.38.83.74.88.99,1.51.37,1.4.37,2.31v.65h-7.58v-1.3h6.76l-.69.49c0-.66-.1-1.24-.31-1.75s-.51-.91-.92-1.2-.91-.44-1.52-.44-1.12.15-1.55.44-.76.68-.99,1.16-.34.98-.34,1.53v.86c0,.74.13,1.37.39,1.89s.62.91,1.08,1.17,1,.4,1.61.4c.39,0,.75-.06,1.07-.17s.6-.29.83-.52.41-.52.54-.86l1.46.42c-.15.49-.41.92-.77,1.3s-.81.66-1.34.87-1.13.31-1.79.31Z"/>
        <path class="cls-2" d="M209.09,874.13l-1.35.37c-.13-.33-.35-.65-.66-.95s-.8-.45-1.46-.45c-.6,0-1.1.14-1.49.42s-.6.63-.6,1.04c0,.38.14.67.41.9s.7.4,1.28.54l1.46.35c.87.21,1.52.54,1.96.98s.65,1,.65,1.68c0,.56-.16,1.07-.48,1.51s-.77.8-1.34,1.05-1.24.39-2,.39c-1,0-1.83-.22-2.48-.66s-1.07-1.08-1.24-1.91l1.42-.35c.13.53.39.92.78,1.19s.89.4,1.51.4c.7,0,1.26-.15,1.67-.45s.63-.66.63-1.08c0-.69-.49-1.15-1.46-1.39l-1.63-.39c-.9-.22-1.56-.55-1.99-.99s-.63-1-.63-1.68c0-.56.16-1.05.47-1.48s.74-.76,1.29-1.01,1.16-.36,1.85-.36c.98,0,1.74.22,2.3.65s.95.99,1.18,1.69Z"/>
        <path class="cls-2" d="M211.47,870.29c-.29,0-.54-.1-.76-.3s-.32-.44-.32-.72.11-.52.32-.72.46-.3.76-.3.54.1.76.3.32.44.32.72-.11.52-.32.72-.46.3-.76.3ZM210.71,881.75v-9.83h1.49v9.83h-1.49Z"/>
        <path class="cls-2" d="M218.09,885.63c-1.1,0-1.96-.2-2.6-.6s-1.11-.86-1.41-1.37l1.2-.84c.13.18.31.39.52.62s.5.43.86.6.84.25,1.43.25c.79,0,1.45-.19,1.96-.57s.78-.98.78-1.8v-1.99h-.14c-.11.18-.26.39-.46.65s-.49.49-.87.69-.89.3-1.53.3c-.79,0-1.5-.19-2.13-.56s-1.12-.92-1.49-1.63-.55-1.58-.55-2.6.18-1.89.53-2.63.85-1.33,1.48-1.74,1.36-.62,2.19-.62c.64,0,1.15.11,1.52.32s.67.45.87.72.36.48.47.65h.16v-1.56h1.44v10.11c0,.84-.19,1.53-.57,2.06s-.89.92-1.53,1.17-1.35.37-2.14.37ZM218.04,880.23c.91,0,1.6-.31,2.09-.92s.73-1.47.73-2.56c0-.71-.11-1.33-.32-1.87s-.53-.96-.94-1.27-.94-.46-1.55-.46-1.17.16-1.6.49-.74.76-.95,1.31-.32,1.15-.32,1.81.11,1.28.32,1.81.53.93.96,1.23.96.44,1.58.44Z"/>
        <path class="cls-2" d="M225.76,875.84v5.91h-1.49v-9.83h1.44v1.55h.14c.23-.5.58-.91,1.05-1.21s1.08-.46,1.82-.46c.66,0,1.24.13,1.74.4s.89.68,1.16,1.23.42,1.24.42,2.08v6.24h-1.49v-6.13c0-.77-.2-1.37-.61-1.81s-.96-.65-1.65-.65c-.48,0-.91.11-1.29.32s-.68.52-.9.91-.33.88-.33,1.46Z"/>
        <path class="cls-2" d="M238.08,881.96c-.94,0-1.76-.21-2.45-.63s-1.22-1.01-1.59-1.77-.55-1.64-.55-2.64.18-1.9.54-2.66.87-1.37,1.53-1.8,1.43-.65,2.32-.65c.51,0,1.02.08,1.52.25s.96.45,1.38.83.74.88.99,1.51.37,1.4.37,2.31v.65h-7.58v-1.3h6.76l-.69.49c0-.66-.1-1.24-.31-1.75s-.51-.91-.92-1.2-.91-.44-1.52-.44-1.12.15-1.55.44-.76.68-.99,1.16-.34.98-.34,1.53v.86c0,.74.13,1.37.39,1.89s.62.91,1.08,1.17,1,.4,1.61.4c.39,0,.75-.06,1.07-.17s.6-.29.83-.52.41-.52.54-.86l1.46.42c-.15.49-.41.92-.77,1.3s-.81.66-1.34.87-1.13.31-1.79.31Z"/>
        <path class="cls-2" d="M243.56,881.75v-9.83h1.44v1.49h.11c.18-.49.51-.88.98-1.18s1-.45,1.59-.45c.11,0,.25,0,.41,0s.29,0,.38.01v1.53c-.05-.01-.17-.03-.35-.05s-.38-.04-.58-.04c-.47,0-.9.1-1.27.3s-.67.47-.88.82-.32.74-.32,1.19v6.21h-1.49Z"/>
        <path class="cls-2" d="M179.81,890.25v13.1h-1.58v-13.1h1.58ZM182.27,903.35h-3.15v-1.41h3.04c1.08,0,1.98-.21,2.69-.62s1.24-1.01,1.6-1.78.53-1.69.53-2.76-.17-1.96-.52-2.73-.86-1.35-1.55-1.77-1.55-.62-2.57-.62h-3.29v-1.41h3.39c1.27,0,2.36.26,3.27.78s1.6,1.27,2.08,2.25.72,2.14.72,3.49-.24,2.54-.73,3.52-1.19,1.74-2.12,2.26-2.06.79-3.39.79Z"/>
        <path class="cls-2" d="M194.24,903.56c-.94,0-1.76-.21-2.45-.63s-1.22-1.01-1.59-1.77-.55-1.64-.55-2.64.18-1.9.54-2.66.87-1.37,1.53-1.8,1.43-.65,2.32-.65c.51,0,1.02.08,1.52.25s.96.45,1.38.83.74.88.99,1.51.37,1.4.37,2.31v.65h-7.58v-1.3h6.76l-.69.49c0-.66-.1-1.24-.31-1.75s-.51-.91-.92-1.2-.91-.44-1.52-.44-1.12.15-1.55.44-.76.68-.99,1.16-.34.98-.34,1.53v.86c0,.74.13,1.37.39,1.89s.62.91,1.08,1.17,1,.4,1.61.4c.39,0,.75-.06,1.07-.17s.6-.29.83-.52.41-.52.54-.86l1.46.42c-.15.49-.41.92-.77,1.3s-.81.66-1.34.87-1.13.31-1.79.31Z"/>
        <path class="cls-2" d="M204.21,903.56c-.63,0-1.13-.11-1.51-.32s-.67-.46-.88-.73-.36-.5-.47-.67h-.18v1.51h-1.44v-13.1h1.49v4.83h.12c.11-.17.27-.39.47-.65s.49-.51.86-.72.88-.32,1.52-.32c.83,0,1.55.21,2.18.62s1.12,1,1.47,1.76.53,1.65.53,2.69-.18,1.94-.53,2.7-.84,1.35-1.47,1.77-1.35.62-2.17.62ZM204.01,902.2c.63,0,1.15-.17,1.57-.51s.74-.79.95-1.36.32-1.2.32-1.9-.11-1.32-.32-1.87-.53-1-.94-1.33-.95-.49-1.59-.49-1.13.15-1.55.46-.73.74-.94,1.29-.32,1.2-.32,1.94.11,1.39.33,1.96.53,1.01.95,1.33.93.48,1.53.48Z"/>
        <path class="cls-2" d="M216.02,899.34v-5.82h1.49v9.83h-1.49v-1.67h-.11c-.23.5-.59.92-1.08,1.27s-1.1.52-1.84.52c-.62,0-1.16-.13-1.63-.4s-.85-.68-1.12-1.23-.41-1.25-.41-2.08v-6.24h1.49v6.15c0,.71.2,1.28.61,1.71s.92.64,1.55.63c.38,0,.76-.1,1.15-.29s.72-.48.98-.88.4-.9.4-1.51Z"/>
        <path class="cls-2" d="M223.7,893.52v1.28h-5.08v-1.28h5.08ZM220.1,891.18h1.49v9.35c0,.51.11.88.32,1.12s.54.36,1,.36c.1,0,.2,0,.31-.02s.23-.03.36-.05l.32,1.35c-.14.05-.31.1-.51.13s-.41.05-.61.05c-.79,0-1.43-.23-1.93-.7s-.74-1.08-.74-1.83v-9.76Z"/>
      </g>
      <g>
        <path class="cls-1" d="M182.46,63.94v-13.1h7.91v1.41h-6.33v4.38h5.91v1.41h-5.91v4.5h6.42v1.41h-8Z"/>
        <path class="cls-1" d="M193.68,58.03v5.91h-1.49v-9.83h1.44v1.55h.14c.23-.5.58-.91,1.05-1.21s1.08-.46,1.82-.46c.66,0,1.24.13,1.74.4s.89.68,1.16,1.23.42,1.24.42,2.08v6.24h-1.49v-6.13c0-.77-.2-1.37-.61-1.81s-.96-.65-1.65-.65c-.48,0-.91.11-1.29.32s-.68.52-.9.91-.33.88-.33,1.46Z"/>
        <path class="cls-1" d="M206.14,54.11v1.28h-5.08v-1.28h5.08ZM202.54,51.77h1.49v9.35c0,.51.11.88.32,1.12s.54.36,1,.36c.1,0,.2,0,.31-.02s.23-.03.36-.05l.32,1.35c-.14.05-.31.1-.51.13s-.41.05-.61.05c-.79,0-1.43-.23-1.93-.7s-.74-1.08-.74-1.83v-9.76Z"/>
        <path class="cls-1" d="M207.58,63.94v-9.83h1.44v1.49h.11c.18-.49.51-.88.98-1.18s1-.45,1.59-.45c.11,0,.25,0,.41,0s.29,0,.38.01v1.53c-.05-.01-.17-.03-.35-.05s-.38-.04-.58-.04c-.47,0-.9.1-1.27.3s-.67.47-.88.82-.32.74-.32,1.19v6.21h-1.49Z"/>
        <path class="cls-1" d="M214.4,67.61c-.26,0-.49-.01-.69-.05s-.34-.08-.42-.12l.39-1.32.15.04c.5.12.93.09,1.27-.07s.64-.6.9-1.31l.28-.77-3.62-9.88h1.63l2.71,7.84h.11l2.71-7.84h1.63l-4.17,11.25c-.19.51-.42.93-.69,1.27s-.59.58-.96.74-.77.24-1.23.24Z"/>
      </g>
      <g>
        <path class="cls-1" d="M241,389.69v-8.73h.98v1.35h.1c.17-.45.46-.81.87-1.07.41-.26.9-.39,1.47-.39s1.09.14,1.48.43c.39.28.67.67.87,1.16h.08c.2-.48.52-.86.96-1.15s.98-.43,1.61-.43c.81,0,1.46.26,1.93.77.47.51.71,1.25.71,2.23v5.85h-1.02v-5.85c0-.69-.18-1.2-.53-1.55-.35-.35-.82-.52-1.39-.52-.67,0-1.18.21-1.54.62s-.54.93-.54,1.56v5.74h-1.04v-5.95c0-.59-.16-1.06-.49-1.43-.33-.36-.79-.55-1.39-.55-.4,0-.76.1-1.08.3-.32.2-.57.48-.76.82-.19.35-.28.75-.28,1.21v5.59h-1.01Z"/>
        <path class="cls-1" d="M257.62,389.88c-.76,0-1.42-.19-2-.57s-1.03-.91-1.36-1.59c-.33-.68-.49-1.46-.49-2.34s.16-1.68.49-2.36c.33-.68.78-1.21,1.36-1.59s1.24-.57,2-.57,1.42.19,2,.57c.58.38,1.03.91,1.36,1.59s.49,1.47.49,2.36-.16,1.66-.49,2.34c-.33.68-.78,1.21-1.36,1.59s-1.25.57-2,.57ZM257.62,388.96c.61,0,1.12-.16,1.54-.49.42-.33.74-.76.96-1.31s.33-1.14.33-1.79-.11-1.26-.33-1.8-.54-.98-.96-1.31-.94-.49-1.54-.49-1.12.17-1.54.5c-.42.33-.74.77-.96,1.31-.22.54-.33,1.14-.33,1.8s.11,1.24.33,1.79.54.98.96,1.31c.42.33.93.49,1.54.49Z"/>
        <path class="cls-1" d="M266.32,389.88c-.71,0-1.34-.19-1.88-.57-.54-.38-.96-.91-1.26-1.59-.3-.68-.45-1.47-.45-2.38s.15-1.68.45-2.36c.3-.68.72-1.2,1.26-1.58.54-.38,1.17-.57,1.88-.57.54,0,.98.1,1.33.29.35.19.64.42.85.7.22.28.38.54.5.8h.09v-4.58h1.01v11.64h-.98v-1.62h-.12c-.11.27-.28.54-.5.82s-.51.52-.86.71c-.35.19-.8.29-1.33.29ZM266.44,388.96c.57,0,1.05-.16,1.45-.47.4-.31.7-.74.91-1.29.21-.54.32-1.17.32-1.86s-.1-1.32-.31-1.86c-.21-.54-.51-.96-.91-1.26s-.88-.46-1.45-.46-1.07.16-1.47.48c-.4.32-.7.75-.91,1.29-.21.54-.31,1.14-.31,1.82s.1,1.28.31,1.83c.21.55.51.98.91,1.3.4.32.89.48,1.46.48Z"/>
        <path class="cls-1" d="M275.8,389.88c-.81,0-1.52-.19-2.12-.57-.6-.38-1.06-.91-1.38-1.59-.32-.68-.48-1.46-.48-2.34s.16-1.66.48-2.34c.32-.68.77-1.22,1.34-1.61.57-.39,1.24-.59,1.99-.59.47,0,.92.09,1.37.26.44.17.84.44,1.2.79.35.35.63.8.84,1.35.2.54.3,1.19.3,1.94v.45h-6.82v-.89h6.27l-.46.34c0-.64-.11-1.2-.32-1.7-.22-.5-.52-.9-.93-1.19-.4-.29-.88-.44-1.45-.44s-1.05.15-1.47.44c-.42.29-.75.69-.98,1.17-.23.49-.35,1.02-.35,1.6v.52c0,.7.12,1.31.36,1.82.24.52.59.92,1.03,1.21.45.29.97.43,1.57.43.41,0,.77-.06,1.09-.2.31-.13.58-.31.79-.53.21-.22.38-.46.48-.72l.96.32c-.14.36-.35.7-.65,1.01-.3.31-.67.56-1.12.75-.45.19-.96.29-1.54.29Z"/>
        <path class="cls-1" d="M282.02,378.05v11.64h-1.01v-11.64h1.01Z"/>
        <path class="cls-1" d="M239.91,392.87v-1.09h43.2v1.09h-43.2Z"/>
      </g>
      <line class="cls-3" x1="201.29" y1="385.3" x2="236.83" y2="385.3"/>
      <g>
        <path class="cls-1" d="M244.53,146c-.81,0-1.52-.19-2.12-.57-.6-.38-1.06-.91-1.38-1.59-.32-.68-.48-1.46-.48-2.34s.16-1.66.48-2.34c.32-.68.77-1.22,1.34-1.61.57-.39,1.24-.59,1.99-.59.47,0,.92.09,1.37.26.44.17.84.44,1.2.79.35.35.63.8.84,1.35.2.54.3,1.19.3,1.94v.45h-6.82v-.89h6.27l-.46.34c0-.64-.11-1.2-.32-1.7-.22-.5-.52-.9-.93-1.19-.4-.29-.88-.44-1.45-.44s-1.05.15-1.47.44c-.42.29-.75.69-.98,1.17-.23.49-.35,1.02-.35,1.6v.52c0,.7.12,1.31.36,1.82.24.52.59.92,1.03,1.21.45.29.97.43,1.57.43.41,0,.77-.06,1.09-.2.31-.13.58-.31.79-.53.21-.22.38-.46.48-.72l.96.32c-.14.36-.35.7-.65,1.01-.3.31-.67.56-1.12.75-.45.19-.96.29-1.54.29Z"/>
        <path class="cls-1" d="M250.44,149.08c-.2,0-.38-.01-.56-.05-.17-.04-.31-.08-.42-.13l.27-.88.12.03c.48.14.89.12,1.22-.05.34-.17.62-.58.85-1.21l.32-.89-3.21-8.82h1.1l2.59,7.41h.08l2.59-7.41h1.09l-3.69,10.11c-.16.42-.35.77-.57,1.05s-.49.49-.79.63c-.3.14-.63.21-1,.21Z"/>
        <path class="cls-1" d="M261.5,146c-.81,0-1.52-.19-2.12-.57-.6-.38-1.06-.91-1.38-1.59-.32-.68-.48-1.46-.48-2.34s.16-1.66.48-2.34c.32-.68.77-1.22,1.34-1.61.57-.39,1.24-.59,1.99-.59.47,0,.92.09,1.37.26.44.17.84.44,1.2.79.35.35.63.8.84,1.35.2.54.3,1.19.3,1.94v.45h-6.82v-.89h6.27l-.46.34c0-.64-.11-1.2-.32-1.7-.22-.5-.52-.9-.93-1.19-.4-.29-.88-.44-1.45-.44s-1.05.15-1.47.44c-.42.29-.75.69-.98,1.17-.23.49-.35,1.02-.35,1.6v.52c0,.7.12,1.31.36,1.82.24.52.59.92,1.03,1.21.45.29.97.43,1.57.43.41,0,.77-.06,1.09-.2.31-.13.58-.31.79-.53.21-.22.38-.46.48-.72l.96.32c-.14.36-.35.7-.65,1.01-.3.31-.67.56-1.12.75-.45.19-.96.29-1.54.29Z"/>
        <path class="cls-1" d="M267.72,134.17v11.64h-1.01v-11.64h1.01Z"/>
        <path class="cls-1" d="M272.33,146.01c-.53,0-1.01-.1-1.45-.31s-.79-.51-1.04-.9c-.26-.39-.39-.87-.39-1.43,0-.43.08-.79.24-1.09.16-.29.39-.53.7-.72.3-.19.66-.34,1.07-.45.41-.11.86-.2,1.36-.25.49-.06.9-.12,1.24-.16.34-.04.6-.12.77-.21.18-.1.27-.26.27-.48v-.2c0-.6-.18-1.07-.53-1.41-.35-.34-.86-.51-1.52-.51s-1.14.14-1.54.41c-.4.28-.67.6-.83.98l-.97-.35c.2-.47.47-.85.82-1.14.35-.29.74-.49,1.17-.62.43-.13.87-.19,1.31-.19.33,0,.68.04,1.04.13.36.09.7.24,1.01.45.31.21.57.51.76.89s.29.87.29,1.45v5.92h-1.02v-1.38h-.06c-.11.26-.29.5-.53.75-.24.24-.54.44-.9.6s-.78.23-1.27.23ZM272.47,145.08c.54,0,1-.12,1.39-.36.39-.24.7-.56.91-.96.21-.4.32-.84.32-1.31v-1.26c-.08.07-.2.14-.38.2-.17.06-.38.11-.6.15-.23.04-.46.08-.69.11-.23.03-.44.06-.61.08-.49.06-.91.16-1.26.29-.35.13-.62.31-.8.53-.19.22-.28.51-.28.87,0,.53.19.94.57,1.23.38.29.86.44,1.43.44Z"/>
        <path class="cls-1" d="M284.14,139.01l-.92.25c-.14-.39-.36-.72-.68-1-.32-.27-.77-.41-1.36-.41s-1.07.14-1.45.43c-.38.28-.57.65-.57,1.09,0,.37.13.67.39.91.26.24.66.42,1.2.56l1.32.32c.73.18,1.28.46,1.64.85s.55.87.55,1.45c0,.49-.14.93-.41,1.31-.27.39-.65.69-1.14.91s-1.05.33-1.69.33c-.85,0-1.56-.19-2.11-.58-.55-.39-.91-.94-1.06-1.67l.97-.23c.12.52.36.91.73,1.17.37.27.85.4,1.45.4.67,0,1.2-.15,1.61-.45.41-.3.61-.68.61-1.12,0-.72-.48-1.2-1.43-1.43l-1.42-.34c-.76-.18-1.32-.47-1.69-.86-.36-.39-.55-.88-.55-1.46,0-.48.13-.9.39-1.27.26-.37.62-.66,1.08-.87.46-.21.98-.31,1.56-.31.8,0,1.44.18,1.92.55.48.37.82.87,1.03,1.5Z"/>
        <path class="cls-1" d="M286.99,140.36v5.45h-1.01v-11.64h1.01v4.29h.1c.2-.45.52-.81.95-1.09.43-.27.97-.41,1.63-.41.59,0,1.11.12,1.55.36.45.24.8.6,1.05,1.07.25.47.38,1.06.38,1.76v5.65h-1.02v-5.59c0-.72-.2-1.29-.61-1.71-.4-.42-.95-.62-1.63-.62-.46,0-.88.1-1.24.3-.36.2-.65.48-.86.85s-.32.81-.32,1.32Z"/>
        <path class="cls-1" d="M298.83,149.08v-12h.98v1.67h.12c.12-.26.29-.53.5-.8.21-.28.5-.51.85-.7.35-.19.8-.29,1.33-.29.72,0,1.35.19,1.89.57.54.38.96.91,1.26,1.58.3.68.45,1.46.45,2.36s-.15,1.69-.45,2.38c-.3.68-.72,1.21-1.26,1.59-.54.38-1.17.57-1.89.57-.53,0-.97-.1-1.32-.29-.36-.19-.64-.43-.86-.71-.22-.28-.38-.55-.5-.82h-.09v4.89h-1.01ZM302.5,145.08c.57,0,1.06-.16,1.46-.48.4-.32.71-.76.91-1.3.21-.55.31-1.16.31-1.83s-.1-1.28-.31-1.82c-.21-.54-.51-.97-.91-1.29-.4-.32-.89-.48-1.47-.48s-1.06.15-1.45.46c-.4.3-.7.73-.91,1.26-.21.54-.31,1.16-.31,1.86s.1,1.32.31,1.86c.21.54.51.97.91,1.29s.88.47,1.45.47Z"/>
        <path class="cls-1" d="M311.44,146c-.81,0-1.52-.19-2.12-.57-.6-.38-1.06-.91-1.38-1.59-.32-.68-.48-1.46-.48-2.34s.16-1.66.48-2.34c.32-.68.77-1.22,1.34-1.61.57-.39,1.24-.59,1.99-.59.47,0,.92.09,1.37.26.44.17.84.44,1.2.79.35.35.63.8.84,1.35.2.54.3,1.19.3,1.94v.45h-6.82v-.89h6.27l-.46.34c0-.64-.11-1.2-.32-1.7-.22-.5-.52-.9-.93-1.19-.4-.29-.88-.44-1.45-.44s-1.05.15-1.47.44c-.42.29-.75.69-.98,1.17-.23.49-.35,1.02-.35,1.6v.52c0,.7.12,1.31.36,1.82.24.52.59.92,1.03,1.21.45.29.97.43,1.57.43.41,0,.77-.06,1.09-.2.31-.13.58-.31.79-.53.21-.22.38-.46.48-.72l.96.32c-.14.36-.35.7-.65,1.01-.3.31-.67.56-1.12.75-.45.19-.96.29-1.54.29Z"/>
        <path class="cls-1" d="M316.65,145.81v-8.73h.98v1.35h.08c.18-.44.48-.8.92-1.07.43-.27.93-.4,1.47-.4h.28c.1,0,.19,0,.25,0v1.02s-.12-.01-.23-.03c-.11-.01-.24-.02-.38-.02-.45,0-.85.1-1.21.29-.36.19-.64.46-.84.79s-.3.72-.3,1.15v5.63h-1.01Z"/>
        <path class="cls-1" d="M321.86,145.81v-8.73h.98v1.35h.1c.17-.45.46-.81.87-1.07.41-.26.9-.39,1.47-.39s1.09.14,1.48.43c.39.28.67.67.87,1.16h.08c.2-.48.52-.86.96-1.15s.98-.43,1.61-.43c.81,0,1.46.26,1.93.77.47.51.71,1.25.71,2.23v5.85h-1.02v-5.85c0-.69-.18-1.2-.53-1.55-.35-.35-.82-.52-1.39-.52-.67,0-1.18.21-1.54.62s-.54.93-.54,1.56v5.74h-1.04v-5.95c0-.59-.16-1.06-.49-1.43-.33-.36-.79-.55-1.39-.55-.4,0-.76.1-1.08.3-.32.2-.57.48-.76.82-.19.35-.28.75-.28,1.21v5.59h-1.01Z"/>
        <path class="cls-1" d="M239.91,148.99v-1.09h94.09v1.09h-94.09Z"/>
      </g>
      <g>
        <path class="cls-1" d="M106.73,158.48c-.81,0-1.52-.19-2.12-.57-.6-.38-1.06-.91-1.38-1.59-.32-.68-.48-1.46-.48-2.34s.16-1.66.48-2.34c.32-.68.77-1.22,1.34-1.61.57-.39,1.24-.59,1.99-.59.47,0,.92.09,1.37.26.44.17.84.44,1.2.79.35.35.63.8.84,1.35.2.54.3,1.19.3,1.94v.45h-6.82v-.89h6.27l-.46.34c0-.64-.11-1.2-.32-1.7-.22-.5-.52-.9-.93-1.19-.4-.29-.88-.44-1.45-.44s-1.05.15-1.47.44c-.42.29-.75.69-.98,1.17-.23.49-.35,1.02-.35,1.6v.52c0,.7.12,1.31.36,1.82.24.52.59.92,1.03,1.21.45.29.97.43,1.57.43.41,0,.77-.06,1.09-.2.31-.13.58-.31.79-.53.21-.22.38-.46.48-.72l.96.32c-.14.36-.35.7-.65,1.01-.3.31-.67.56-1.12.75-.45.19-.96.29-1.54.29Z"/>
        <path class="cls-1" d="M112.64,161.56c-.2,0-.38-.01-.56-.05-.17-.04-.31-.08-.42-.13l.27-.88.12.03c.48.14.89.12,1.22-.05.34-.17.62-.58.85-1.21l.32-.89-3.21-8.82h1.1l2.59,7.41h.08l2.59-7.41h1.09l-3.69,10.11c-.16.42-.35.77-.57,1.05s-.49.49-.79.63c-.3.14-.63.21-1,.21Z"/>
        <path class="cls-1" d="M123.7,158.48c-.81,0-1.52-.19-2.12-.57-.6-.38-1.06-.91-1.38-1.59-.32-.68-.48-1.46-.48-2.34s.16-1.66.48-2.34c.32-.68.77-1.22,1.34-1.61.57-.39,1.24-.59,1.99-.59.47,0,.92.09,1.37.26.44.17.84.44,1.2.79.35.35.63.8.84,1.35.2.54.3,1.19.3,1.94v.45h-6.82v-.89h6.27l-.46.34c0-.64-.11-1.2-.32-1.7-.22-.5-.52-.9-.93-1.19-.4-.29-.88-.44-1.45-.44s-1.05.15-1.47.44c-.42.29-.75.69-.98,1.17-.23.49-.35,1.02-.35,1.6v.52c0,.7.12,1.31.36,1.82.24.52.59.92,1.03,1.21.45.29.97.43,1.57.43.41,0,.77-.06,1.09-.2.31-.13.58-.31.79-.53.21-.22.38-.46.48-.72l.96.32c-.14.36-.35.7-.65,1.01-.3.31-.67.56-1.12.75-.45.19-.96.29-1.54.29Z"/>
        <path class="cls-1" d="M132.69,158.48c-.53,0-.97-.1-1.32-.29-.36-.19-.64-.43-.86-.71-.22-.28-.38-.55-.5-.82h-.12v1.62h-.98v-11.64h1.01v4.58h.09c.12-.26.29-.53.5-.8.21-.28.5-.51.85-.7.35-.19.8-.29,1.33-.29.72,0,1.35.19,1.89.57.54.38.96.91,1.26,1.58.3.68.45,1.46.45,2.36s-.15,1.69-.45,2.38c-.3.68-.72,1.21-1.26,1.59-.54.38-1.17.57-1.89.57ZM132.58,157.56c.57,0,1.06-.16,1.46-.48.4-.32.71-.76.91-1.3.21-.55.31-1.16.31-1.83s-.1-1.28-.31-1.82c-.21-.54-.51-.97-.91-1.29-.4-.32-.89-.48-1.47-.48s-1.06.15-1.45.46c-.4.3-.7.73-.91,1.26-.21.54-.31,1.16-.31,1.86s.1,1.32.31,1.86c.21.54.51.97.91,1.29s.88.47,1.45.47Z"/>
        <path class="cls-1" d="M139,146.65v11.64h-1.01v-11.64h1.01Z"/>
        <path class="cls-1" d="M144.57,158.48c-.76,0-1.42-.19-2-.57s-1.03-.91-1.36-1.59c-.33-.68-.49-1.46-.49-2.34s.16-1.68.49-2.36c.33-.68.78-1.21,1.36-1.59s1.24-.57,2-.57,1.42.19,2,.57c.58.38,1.03.91,1.36,1.59s.49,1.47.49,2.36-.16,1.66-.49,2.34c-.33.68-.78,1.21-1.36,1.59s-1.25.57-2,.57ZM144.57,157.56c.61,0,1.12-.16,1.54-.49.42-.33.74-.76.96-1.31s.33-1.14.33-1.79-.11-1.26-.33-1.8-.54-.98-.96-1.31-.94-.49-1.54-.49-1.12.17-1.54.5c-.42.33-.74.77-.96,1.31-.22.54-.33,1.14-.33,1.8s.11,1.24.33,1.79.54.98.96,1.31c.42.33.93.49,1.54.49Z"/>
        <path class="cls-1" d="M152.07,158.29l-2.64-8.73h1.07l2.07,7.2h.08l2.06-7.2h1.08l2.03,7.2h.08l2.08-7.2h1.06l-2.63,8.73h-1.04l-2.08-7.15h-.1l-2.08,7.15h-1.04Z"/>
        <path class="cls-1" d="M102.11,161.47v-1.09h59.31v1.09h-59.31Z"/>
      </g>
      <line class="cls-3" x1="201.29" y1="141.41" x2="236.83" y2="141.41"/>
      <line class="cls-3" x1="165.76" y1="153.03" x2="201.29" y2="153.03"/>
      <g>
        <path class="cls-1" d="M244.4,171.21c-.78,0-1.46-.2-2.04-.59s-1.03-.93-1.34-1.61c-.32-.68-.48-1.45-.48-2.32s.16-1.66.48-2.34c.32-.68.77-1.21,1.35-1.61s1.25-.59,2.01-.59c.58,0,1.11.11,1.59.34.47.23.87.54,1.18.95.31.41.5.88.58,1.43h-1.02c-.07-.33-.21-.63-.42-.9-.21-.27-.47-.49-.79-.65s-.69-.25-1.11-.25c-.56,0-1.05.15-1.48.45-.43.3-.76.72-1,1.26-.24.54-.36,1.16-.36,1.87s.12,1.33.35,1.88.57.97,1,1.28c.43.31.93.46,1.5.46s1.08-.16,1.5-.49.69-.77.81-1.32h1.02c-.07.53-.26.99-.56,1.41-.3.41-.69.74-1.16.97-.47.24-1.01.36-1.61.36Z"/>
        <path class="cls-1" d="M252.81,171.21c-.76,0-1.42-.19-2-.57s-1.03-.91-1.36-1.59c-.33-.68-.49-1.46-.49-2.34s.16-1.68.49-2.36c.33-.68.78-1.21,1.36-1.59s1.24-.57,2-.57,1.42.19,2,.57c.58.38,1.03.91,1.36,1.59s.49,1.47.49,2.36-.16,1.66-.49,2.34c-.33.68-.78,1.21-1.36,1.59s-1.25.57-2,.57ZM252.81,170.29c.61,0,1.12-.16,1.54-.49.42-.33.74-.76.96-1.31s.33-1.14.33-1.79-.11-1.26-.33-1.8-.54-.98-.96-1.31-.94-.49-1.54-.49-1.12.17-1.54.5c-.42.33-.74.77-.96,1.31-.22.54-.33,1.14-.33,1.8s.11,1.24.33,1.79.54.98.96,1.31c.42.33.93.49,1.54.49Z"/>
        <path class="cls-1" d="M263.92,167.69v-5.41h1.01v8.73h-1.01v-1.45h-.08c-.21.45-.53.82-.98,1.12-.44.3-.98.45-1.62.44-.56,0-1.05-.12-1.48-.36s-.77-.6-1.02-1.08c-.25-.48-.37-1.06-.37-1.75v-5.66h1.01v5.6c0,.68.2,1.22.61,1.64.4.42.92.62,1.54.62.4,0,.78-.09,1.14-.28.36-.19.66-.46.9-.83.23-.36.35-.81.35-1.34Z"/>
        <path class="cls-1" d="M268.11,165.57v5.45h-1.01v-8.73h.98v1.38h.1c.2-.45.52-.81.95-1.09.43-.27.97-.41,1.61-.41.59,0,1.11.12,1.55.37.45.24.79.6,1.04,1.08.25.47.38,1.06.38,1.75v5.65h-1.01v-5.59c0-.71-.2-1.28-.6-1.7-.4-.42-.94-.63-1.61-.63-.46,0-.87.1-1.23.3-.36.2-.64.48-.85.85-.21.37-.31.81-.31,1.32Z"/>
        <path class="cls-1" d="M281.74,164.22l-.92.25c-.14-.39-.36-.72-.68-1-.32-.27-.77-.41-1.36-.41s-1.07.14-1.45.43c-.38.28-.57.65-.57,1.09,0,.37.13.67.39.91.26.24.66.42,1.2.56l1.32.32c.73.18,1.28.46,1.64.85s.55.87.55,1.45c0,.49-.14.93-.41,1.31-.27.39-.65.69-1.14.91s-1.05.33-1.69.33c-.85,0-1.56-.19-2.11-.58-.55-.39-.91-.94-1.06-1.67l.97-.23c.12.52.36.91.73,1.17.37.27.85.4,1.45.4.67,0,1.2-.15,1.61-.45.41-.3.61-.68.61-1.12,0-.72-.48-1.2-1.43-1.43l-1.42-.34c-.76-.18-1.32-.47-1.69-.86-.36-.39-.55-.88-.55-1.46,0-.48.13-.9.39-1.27.26-.37.62-.66,1.08-.87.46-.21.98-.31,1.56-.31.8,0,1.44.18,1.92.55.48.37.82.87,1.03,1.5Z"/>
        <path class="cls-1" d="M287.12,171.21c-.81,0-1.52-.19-2.12-.57-.6-.38-1.06-.91-1.38-1.59-.32-.68-.48-1.46-.48-2.34s.16-1.66.48-2.34c.32-.68.77-1.22,1.34-1.61.57-.39,1.24-.59,1.99-.59.47,0,.92.09,1.37.26.44.17.84.44,1.2.79.35.35.63.8.84,1.35.2.54.3,1.19.3,1.94v.45h-6.82v-.89h6.27l-.46.34c0-.64-.11-1.2-.32-1.7-.22-.5-.52-.9-.93-1.19-.4-.29-.88-.44-1.45-.44s-1.05.15-1.47.44c-.42.29-.75.69-.98,1.17-.23.49-.35,1.02-.35,1.6v.52c0,.7.12,1.31.36,1.82.24.52.59.92,1.03,1.21.45.29.97.43,1.57.43.41,0,.77-.06,1.09-.2.31-.13.58-.31.79-.53.21-.22.38-.46.48-.72l.96.32c-.14.36-.35.7-.65,1.01-.3.31-.67.56-1.12.75-.45.19-.96.29-1.54.29Z"/>
        <path class="cls-1" d="M293.33,159.38v11.64h-1.01v-11.64h1.01Z"/>
        <path class="cls-1" d="M296.01,160.79c-.21,0-.39-.07-.54-.21-.15-.14-.22-.32-.22-.52s.07-.37.22-.51.33-.21.54-.21.39.07.53.21c.15.14.22.31.22.51s-.07.38-.22.52c-.15.14-.32.21-.53.21ZM295.51,171.02v-8.73h1.01v8.73h-1.01Z"/>
        <path class="cls-1" d="M299.69,165.57v5.45h-1.01v-8.73h.98v1.38h.1c.2-.45.52-.81.95-1.09.43-.27.97-.41,1.61-.41.59,0,1.11.12,1.55.37.45.24.79.6,1.04,1.08.25.47.38,1.06.38,1.75v5.65h-1.01v-5.59c0-.71-.2-1.28-.6-1.7-.4-.42-.94-.63-1.61-.63-.46,0-.87.1-1.23.3-.36.2-.64.48-.85.85-.21.37-.31.81-.31,1.32Z"/>
        <path class="cls-1" d="M310.79,174.47c-.89,0-1.62-.17-2.18-.5-.56-.33-.97-.75-1.23-1.25l.83-.55c.12.22.29.44.5.65.21.21.49.39.83.52.34.14.75.21,1.25.21.78,0,1.4-.19,1.88-.58.48-.39.71-.98.71-1.8v-1.97h-.1c-.11.27-.28.53-.5.79-.22.26-.51.48-.86.66-.35.17-.79.26-1.32.26-.7,0-1.32-.17-1.86-.52s-.96-.84-1.27-1.48c-.31-.64-.46-1.41-.46-2.29s.15-1.66.45-2.33c.3-.67.72-1.19,1.27-1.57.54-.38,1.17-.57,1.89-.57.54,0,.98.1,1.34.29.35.19.64.42.85.7.21.28.38.54.5.8h.11v-1.67h.97v8.96c0,.74-.16,1.35-.46,1.82-.31.48-.74.83-1.28,1.06-.54.23-1.16.34-1.85.34ZM310.73,170c.84,0,1.49-.3,1.96-.91.47-.6.7-1.43.7-2.48,0-.68-.1-1.29-.31-1.82-.21-.53-.51-.95-.91-1.25s-.88-.46-1.45-.46-1.08.16-1.48.47c-.4.32-.7.74-.91,1.27-.21.53-.31,1.12-.31,1.78s.1,1.26.31,1.77c.21.51.51.91.92,1.2.4.29.89.43,1.47.43Z"/>
        <path class="cls-1" d="M239.91,174.2v-1.09h75.57v1.09h-75.57Z"/>
      </g>
      <g>
        <path class="cls-1" d="M32.47,183.69c-.81,0-1.52-.19-2.12-.57-.6-.38-1.06-.91-1.38-1.59-.32-.68-.48-1.46-.48-2.34s.16-1.66.48-2.34c.32-.68.77-1.22,1.34-1.61.57-.39,1.24-.59,1.99-.59.47,0,.92.09,1.37.26.44.17.84.44,1.2.79.35.35.63.8.84,1.35.2.54.3,1.19.3,1.94v.45h-6.82v-.89h6.27l-.46.34c0-.64-.11-1.2-.32-1.7-.22-.5-.52-.9-.93-1.19-.4-.29-.88-.44-1.45-.44s-1.05.15-1.47.44c-.42.29-.75.69-.98,1.17-.23.49-.35,1.02-.35,1.6v.52c0,.7.12,1.31.36,1.82.24.52.59.92,1.03,1.21.45.29.97.43,1.57.43.41,0,.77-.06,1.09-.2.31-.13.58-.31.79-.53.21-.22.38-.46.48-.72l.96.32c-.14.36-.35.7-.65,1.01-.3.31-.67.56-1.12.75-.45.19-.96.29-1.54.29Z"/>
        <path class="cls-1" d="M38.39,186.77c-.2,0-.38-.01-.56-.05-.17-.04-.31-.08-.42-.13l.27-.88.12.03c.48.14.89.12,1.22-.05.34-.17.62-.58.85-1.21l.32-.89-3.21-8.82h1.1l2.59,7.41h.08l2.59-7.41h1.09l-3.69,10.11c-.16.42-.35.77-.57,1.05s-.49.49-.79.63c-.3.14-.63.21-1,.21Z"/>
        <path class="cls-1" d="M49.44,183.69c-.81,0-1.52-.19-2.12-.57-.6-.38-1.06-.91-1.38-1.59-.32-.68-.48-1.46-.48-2.34s.16-1.66.48-2.34c.32-.68.77-1.22,1.34-1.61.57-.39,1.24-.59,1.99-.59.47,0,.92.09,1.37.26.44.17.84.44,1.2.79.35.35.63.8.84,1.35.2.54.3,1.19.3,1.94v.45h-6.82v-.89h6.27l-.46.34c0-.64-.11-1.2-.32-1.7-.22-.5-.52-.9-.93-1.19-.4-.29-.88-.44-1.45-.44s-1.05.15-1.47.44c-.42.29-.75.69-.98,1.17-.23.49-.35,1.02-.35,1.6v.52c0,.7.12,1.31.36,1.82.24.52.59.92,1.03,1.21.45.29.97.43,1.57.43.41,0,.77-.06,1.09-.2.31-.13.58-.31.79-.53.21-.22.38-.46.48-.72l.96.32c-.14.36-.35.7-.65,1.01-.3.31-.67.56-1.12.75-.45.19-.96.29-1.54.29Z"/>
        <path class="cls-1" d="M55.66,171.86v11.64h-1.01v-11.64h1.01Z"/>
        <path class="cls-1" d="M60.27,183.7c-.53,0-1.01-.1-1.45-.31s-.79-.51-1.04-.9c-.26-.39-.39-.87-.39-1.43,0-.43.08-.79.24-1.09.16-.29.39-.53.7-.72.3-.19.66-.34,1.07-.45.41-.11.86-.2,1.36-.25.49-.06.9-.12,1.24-.16.34-.04.6-.12.77-.21.18-.1.27-.26.27-.48v-.2c0-.6-.18-1.07-.53-1.41-.35-.34-.86-.51-1.52-.51s-1.14.14-1.54.41c-.4.28-.67.6-.83.98l-.97-.35c.2-.47.47-.85.82-1.14.35-.29.74-.49,1.17-.62.43-.13.87-.19,1.31-.19.33,0,.68.04,1.04.13.36.09.7.24,1.01.45.31.21.57.51.76.89s.29.87.29,1.45v5.92h-1.02v-1.38h-.06c-.11.26-.29.5-.53.75-.24.24-.54.44-.9.6s-.78.23-1.27.23ZM60.41,182.78c.54,0,1-.12,1.39-.36.39-.24.7-.56.91-.96.21-.4.32-.84.32-1.31v-1.26c-.08.07-.2.14-.38.2-.17.06-.38.11-.6.15-.23.04-.46.08-.69.11-.23.03-.44.06-.61.08-.49.06-.91.16-1.26.29-.35.13-.62.31-.8.53-.19.22-.28.51-.28.87,0,.53.19.94.57,1.23.38.29.86.44,1.43.44Z"/>
        <path class="cls-1" d="M72.08,176.7l-.92.25c-.14-.39-.36-.72-.68-1-.32-.27-.77-.41-1.36-.41s-1.07.14-1.45.43c-.38.28-.57.65-.57,1.09,0,.37.13.67.39.91.26.24.66.42,1.2.56l1.32.32c.73.18,1.28.46,1.64.85s.55.87.55,1.45c0,.49-.14.93-.41,1.31-.27.39-.65.69-1.14.91s-1.05.33-1.69.33c-.85,0-1.56-.19-2.11-.58-.55-.39-.91-.94-1.06-1.67l.97-.23c.12.52.36.91.73,1.17.37.27.85.4,1.45.4.67,0,1.2-.15,1.61-.45.41-.3.61-.68.61-1.12,0-.72-.48-1.2-1.43-1.43l-1.42-.34c-.76-.18-1.32-.47-1.69-.86-.36-.39-.55-.88-.55-1.46,0-.48.13-.9.39-1.27.26-.37.62-.66,1.08-.87.46-.21.98-.31,1.56-.31.8,0,1.44.18,1.92.55.48.37.82.87,1.03,1.5Z"/>
        <path class="cls-1" d="M74.93,178.05v5.45h-1.01v-11.64h1.01v4.29h.1c.2-.45.52-.81.95-1.09.43-.27.97-.41,1.63-.41.59,0,1.11.12,1.55.36.45.24.8.6,1.05,1.07.25.47.38,1.06.38,1.76v5.65h-1.02v-5.59c0-.72-.2-1.29-.61-1.71-.4-.42-.95-.62-1.63-.62-.46,0-.88.1-1.24.3-.36.2-.65.48-.86.85s-.32.81-.32,1.32Z"/>
        <path class="cls-1" d="M90.3,183.69c-.81,0-1.52-.19-2.12-.57-.6-.38-1.06-.91-1.38-1.59-.32-.68-.48-1.46-.48-2.34s.16-1.66.48-2.34c.32-.68.77-1.22,1.34-1.61.57-.39,1.24-.59,1.99-.59.47,0,.92.09,1.37.26.44.17.84.44,1.2.79.35.35.63.8.84,1.35.2.54.3,1.19.3,1.94v.45h-6.82v-.89h6.27l-.46.34c0-.64-.11-1.2-.32-1.7-.22-.5-.52-.9-.93-1.19-.4-.29-.88-.44-1.45-.44s-1.05.15-1.47.44c-.42.29-.75.69-.98,1.17-.23.49-.35,1.02-.35,1.6v.52c0,.7.12,1.31.36,1.82.24.52.59.92,1.03,1.21.45.29.97.43,1.57.43.41,0,.77-.06,1.09-.2.31-.13.58-.31.79-.53.21-.22.38-.46.48-.72l.96.32c-.14.36-.35.7-.65,1.01-.3.31-.67.56-1.12.75-.45.19-.96.29-1.54.29Z"/>
        <path class="cls-1" d="M96.14,174.77l2.24,3.73,2.25-3.73h1.17l-2.8,4.38,2.8,4.36h-1.17l-2.25-3.6-2.24,3.6h-1.18l2.77-4.36-2.77-4.38h1.18Z"/>
        <path class="cls-1" d="M106.87,174.77v.88h-4.16v-.88h4.16ZM104.01,172.69h1.01v8.53c0,.47.12.83.35,1.07.23.24.56.36.98.36.09,0,.19,0,.29-.02.1-.01.2-.03.31-.06l.22.91c-.12.05-.26.08-.41.11-.16.03-.32.04-.48.04-.65,0-1.18-.2-1.61-.6-.43-.4-.64-.92-.64-1.57v-8.77Z"/>
        <path class="cls-1" d="M112.2,183.69c-.81,0-1.52-.19-2.12-.57-.6-.38-1.06-.91-1.38-1.59-.32-.68-.48-1.46-.48-2.34s.16-1.66.48-2.34c.32-.68.77-1.22,1.34-1.61.57-.39,1.24-.59,1.99-.59.47,0,.92.09,1.37.26.44.17.84.44,1.2.79.35.35.63.8.84,1.35.2.54.3,1.19.3,1.94v.45h-6.82v-.89h6.27l-.46.34c0-.64-.11-1.2-.32-1.7-.22-.5-.52-.9-.93-1.19-.4-.29-.88-.44-1.45-.44s-1.05.15-1.47.44c-.42.29-.75.69-.98,1.17-.23.49-.35,1.02-.35,1.6v.52c0,.7.12,1.31.36,1.82.24.52.59.92,1.03,1.21.45.29.97.43,1.57.43.41,0,.77-.06,1.09-.2.31-.13.58-.31.79-.53.21-.22.38-.46.48-.72l.96.32c-.14.36-.35.7-.65,1.01-.3.31-.67.56-1.12.75-.45.19-.96.29-1.54.29Z"/>
        <path class="cls-1" d="M118.42,178.05v5.45h-1.01v-8.73h.98v1.38h.1c.2-.45.52-.81.95-1.09.43-.27.97-.41,1.61-.41.59,0,1.11.12,1.55.37.45.24.79.6,1.04,1.08.25.47.38,1.06.38,1.75v5.65h-1.01v-5.59c0-.71-.2-1.28-.6-1.7-.4-.42-.94-.63-1.61-.63-.46,0-.87.1-1.23.3-.36.2-.64.48-.85.85-.21.37-.31.81-.31,1.32Z"/>
        <path class="cls-1" d="M132.05,176.7l-.92.25c-.14-.39-.36-.72-.68-1-.32-.27-.77-.41-1.36-.41s-1.07.14-1.45.43c-.38.28-.57.65-.57,1.09,0,.37.13.67.39.91.26.24.66.42,1.2.56l1.32.32c.73.18,1.28.46,1.64.85s.55.87.55,1.45c0,.49-.14.93-.41,1.31-.27.39-.65.69-1.14.91s-1.05.33-1.69.33c-.85,0-1.56-.19-2.11-.58-.55-.39-.91-.94-1.06-1.67l.97-.23c.12.52.36.91.73,1.17.37.27.85.4,1.45.4.67,0,1.2-.15,1.61-.45.41-.3.61-.68.61-1.12,0-.72-.48-1.2-1.43-1.43l-1.42-.34c-.76-.18-1.32-.47-1.69-.86-.36-.39-.55-.88-.55-1.46,0-.48.13-.9.39-1.27.26-.37.62-.66,1.08-.87.46-.21.98-.31,1.56-.31.8,0,1.44.18,1.92.55.48.37.82.87,1.03,1.5Z"/>
        <path class="cls-1" d="M134.4,173.28c-.21,0-.39-.07-.54-.21-.15-.14-.22-.32-.22-.52s.07-.37.22-.51.33-.21.54-.21.39.07.53.21c.15.14.22.31.22.51s-.07.38-.22.52c-.15.14-.32.21-.53.21ZM133.89,183.5v-8.73h1.01v8.73h-1.01Z"/>
        <path class="cls-1" d="M140.46,183.69c-.76,0-1.42-.19-2-.57s-1.03-.91-1.36-1.59c-.33-.68-.49-1.46-.49-2.34s.16-1.68.49-2.36c.33-.68.78-1.21,1.36-1.59s1.24-.57,2-.57,1.42.19,2,.57c.58.38,1.03.91,1.36,1.59s.49,1.47.49,2.36-.16,1.66-.49,2.34c-.33.68-.78,1.21-1.36,1.59s-1.25.57-2,.57ZM140.46,182.77c.61,0,1.12-.16,1.54-.49.42-.33.74-.76.96-1.31s.33-1.14.33-1.79-.11-1.26-.33-1.8-.54-.98-.96-1.31-.94-.49-1.54-.49-1.12.17-1.54.5c-.42.33-.74.77-.96,1.31-.22.54-.33,1.14-.33,1.8s.11,1.24.33,1.79.54.98.96,1.31c.42.33.93.49,1.54.49Z"/>
        <path class="cls-1" d="M147.04,178.05v5.45h-1.01v-8.73h.98v1.38h.1c.2-.45.52-.81.95-1.09.43-.27.97-.41,1.61-.41.59,0,1.11.12,1.55.37.45.24.79.6,1.04,1.08.25.47.38,1.06.38,1.75v5.65h-1.01v-5.59c0-.71-.2-1.28-.6-1.7-.4-.42-.94-.63-1.61-.63-.46,0-.87.1-1.23.3-.36.2-.64.48-.85.85-.21.37-.31.81-.31,1.32Z"/>
        <path class="cls-1" d="M160.67,176.7l-.92.25c-.14-.39-.36-.72-.68-1-.32-.27-.77-.41-1.36-.41s-1.07.14-1.45.43c-.38.28-.57.65-.57,1.09,0,.37.13.67.39.91.26.24.66.42,1.2.56l1.32.32c.73.18,1.28.46,1.64.85s.55.87.55,1.45c0,.49-.14.93-.41,1.31-.27.39-.65.69-1.14.91s-1.05.33-1.69.33c-.85,0-1.56-.19-2.11-.58-.55-.39-.91-.94-1.06-1.67l.97-.23c.12.52.36.91.73,1.17.37.27.85.4,1.45.4.67,0,1.2-.15,1.61-.45.41-.3.61-.68.61-1.12,0-.72-.48-1.2-1.43-1.43l-1.42-.34c-.76-.18-1.32-.47-1.69-.86-.36-.39-.55-.88-.55-1.46,0-.48.13-.9.39-1.27.26-.37.62-.66,1.08-.87.46-.21.98-.31,1.56-.31.8,0,1.44.18,1.92.55.48.37.82.87,1.03,1.5Z"/>
        <path class="cls-1" d="M27.86,186.68v-1.09h133.57v1.09H27.86Z"/>
      </g>
      <line class="cls-3" x1="201.29" y1="166.62" x2="236.83" y2="166.62"/>
      <line class="cls-3" x1="165.76" y1="178.24" x2="201.29" y2="178.24"/>
      <g>
        <path class="cls-1" d="M244.39,196.42c-.76,0-1.42-.19-2-.57s-1.03-.91-1.36-1.59c-.33-.68-.49-1.46-.49-2.34s.16-1.68.49-2.36c.33-.68.78-1.21,1.36-1.59s1.24-.57,2-.57,1.42.19,2,.57c.58.38,1.03.91,1.36,1.59s.49,1.47.49,2.36-.16,1.66-.49,2.34c-.33.68-.78,1.21-1.36,1.59s-1.25.57-2,.57ZM244.39,195.5c.61,0,1.12-.16,1.54-.49.42-.33.74-.76.96-1.31s.33-1.14.33-1.79-.11-1.26-.33-1.8-.54-.98-.96-1.31-.94-.49-1.54-.49-1.12.17-1.54.5c-.42.33-.74.77-.96,1.31-.22.54-.33,1.14-.33,1.8s.11,1.24.33,1.79.54.98.96,1.31c.42.33.93.49,1.54.49Z"/>
        <path class="cls-1" d="M253.54,187.5v.88h-4.29v-.88h4.29ZM250.59,196.23v-10.01c0-.47.11-.87.33-1.19s.5-.56.86-.73c.35-.17.72-.25,1.11-.25.27,0,.49.02.67.07.18.04.31.09.41.14l-.3.88c-.08-.03-.17-.06-.28-.09-.11-.03-.25-.04-.42-.04-.44,0-.78.12-1.02.38-.25.25-.37.6-.37,1.06v9.79h-1Z"/>
        <path class="cls-1" d="M258.65,187.5v.88h-4.29v-.88h4.29ZM255.7,196.23v-10.01c0-.47.11-.87.33-1.19s.5-.56.86-.73c.35-.17.72-.25,1.11-.25.27,0,.49.02.67.07.18.04.31.09.41.14l-.3.88c-.08-.03-.17-.06-.28-.09-.11-.03-.25-.04-.42-.04-.44,0-.78.12-1.02.38-.25.25-.37.6-.37,1.06v9.79h-1Z"/>
        <path class="cls-1" d="M239.91,199.41v-1.09h19.17v1.09h-19.17Z"/>
      </g>
      <g>
        <path class="cls-1" d="M119.32,208.72v-8.73h.98v1.35h.1c.17-.45.46-.81.87-1.07.41-.26.9-.39,1.47-.39s1.09.14,1.48.43c.39.28.67.67.87,1.16h.08c.2-.48.52-.86.96-1.15s.98-.43,1.61-.43c.81,0,1.46.26,1.93.77.47.51.71,1.25.71,2.23v5.85h-1.02v-5.85c0-.69-.18-1.2-.53-1.55-.35-.35-.82-.52-1.39-.52-.67,0-1.18.21-1.54.62s-.54.93-.54,1.56v5.74h-1.04v-5.95c0-.59-.16-1.06-.49-1.43-.33-.36-.79-.55-1.39-.55-.4,0-.76.1-1.08.3-.32.2-.57.48-.76.82-.19.35-.28.75-.28,1.21v5.59h-1.01Z"/>
        <path class="cls-1" d="M135.94,208.9c-.76,0-1.42-.19-2-.57s-1.03-.91-1.36-1.59c-.33-.68-.49-1.46-.49-2.34s.16-1.68.49-2.36c.33-.68.78-1.21,1.36-1.59s1.24-.57,2-.57,1.42.19,2,.57c.58.38,1.03.91,1.36,1.59s.49,1.47.49,2.36-.16,1.66-.49,2.34c-.33.68-.78,1.21-1.36,1.59s-1.25.57-2,.57ZM135.94,207.98c.61,0,1.12-.16,1.54-.49.42-.33.74-.76.96-1.31s.33-1.14.33-1.79-.11-1.26-.33-1.8-.54-.98-.96-1.31-.94-.49-1.54-.49-1.12.17-1.54.5c-.42.33-.74.77-.96,1.31-.22.54-.33,1.14-.33,1.8s.11,1.24.33,1.79.54.98.96,1.31c.42.33.93.49,1.54.49Z"/>
        <path class="cls-1" d="M144.64,208.9c-.71,0-1.34-.19-1.88-.57-.54-.38-.96-.91-1.26-1.59-.3-.68-.45-1.47-.45-2.38s.15-1.68.45-2.36c.3-.68.72-1.2,1.26-1.58.54-.38,1.17-.57,1.88-.57.54,0,.98.1,1.33.29.35.19.64.42.85.7.22.28.38.54.5.8h.09v-4.58h1.01v11.64h-.98v-1.62h-.12c-.11.27-.28.54-.5.82s-.51.52-.86.71c-.35.19-.8.29-1.33.29ZM144.75,207.98c.57,0,1.05-.16,1.45-.47.4-.31.7-.74.91-1.29.21-.54.32-1.17.32-1.86s-.1-1.32-.31-1.86c-.21-.54-.51-.96-.91-1.26s-.88-.46-1.45-.46-1.07.16-1.47.48c-.4.32-.7.75-.91,1.29-.21.54-.31,1.14-.31,1.82s.1,1.28.31,1.83c.21.55.51.98.91,1.3.4.32.89.48,1.46.48Z"/>
        <path class="cls-1" d="M154.12,208.9c-.81,0-1.52-.19-2.12-.57-.6-.38-1.06-.91-1.38-1.59-.32-.68-.48-1.46-.48-2.34s.16-1.66.48-2.34c.32-.68.77-1.22,1.34-1.61.57-.39,1.24-.59,1.99-.59.47,0,.92.09,1.37.26.44.17.84.44,1.2.79.35.35.63.8.84,1.35.2.54.3,1.19.3,1.94v.45h-6.82v-.89h6.27l-.46.34c0-.64-.11-1.2-.32-1.7-.22-.5-.52-.9-.93-1.19-.4-.29-.88-.44-1.45-.44s-1.05.15-1.47.44c-.42.29-.75.69-.98,1.17-.23.49-.35,1.02-.35,1.6v.52c0,.7.12,1.31.36,1.82.24.52.59.92,1.03,1.21.45.29.97.43,1.57.43.41,0,.77-.06,1.09-.2.31-.13.58-.31.79-.53.21-.22.38-.46.48-.72l.96.32c-.14.36-.35.7-.65,1.01-.3.31-.67.56-1.12.75-.45.19-.96.29-1.54.29Z"/>
        <path class="cls-1" d="M160.34,197.07v11.64h-1.01v-11.64h1.01Z"/>
        <path class="cls-1" d="M118.23,211.9v-1.09h43.2v1.09h-43.2Z"/>
      </g>
      <line class="cls-3" x1="201.29" y1="191.83" x2="236.83" y2="191.83"/>
      <line class="cls-3" x1="165.76" y1="203.45" x2="201.29" y2="203.45"/>
      <g>
        <path class="cls-1" d="M244.58,540.05v.88h-4.29v-.88h4.29ZM241.64,548.79v-10.01c0-.47.11-.87.33-1.19s.5-.56.86-.73c.35-.17.72-.25,1.11-.25.27,0,.49.02.67.07.18.04.31.09.41.14l-.3.88c-.08-.03-.17-.06-.28-.09-.11-.03-.25-.04-.42-.04-.44,0-.78.12-1.02.38-.25.25-.37.6-.37,1.06v9.79h-1Z"/>
        <path class="cls-1" d="M248.54,548.98c-.53,0-1.01-.1-1.45-.31s-.79-.5-1.04-.9c-.26-.39-.39-.87-.39-1.43,0-.43.08-.79.24-1.09.16-.29.39-.53.7-.72.3-.19.66-.34,1.07-.45.41-.11.86-.2,1.36-.25.49-.06.9-.12,1.24-.16.34-.04.6-.12.77-.21.18-.1.27-.26.27-.48v-.2c0-.6-.18-1.07-.53-1.41-.35-.34-.86-.51-1.52-.51s-1.14.14-1.54.41c-.4.28-.67.6-.83.98l-.97-.35c.2-.47.47-.85.82-1.14.35-.29.74-.49,1.17-.62.43-.13.87-.19,1.31-.19.33,0,.68.04,1.04.13.36.09.7.24,1.01.45.31.21.57.51.76.89s.29.87.29,1.45v5.92h-1.02v-1.38h-.06c-.11.26-.29.5-.53.75-.24.24-.54.44-.9.6s-.78.23-1.27.23ZM248.69,548.06c.54,0,1-.12,1.39-.36.39-.24.7-.56.91-.96.21-.4.32-.84.32-1.31v-1.26c-.08.07-.2.14-.38.2-.17.06-.38.11-.6.15-.23.04-.46.08-.69.11-.23.03-.44.06-.61.08-.49.06-.91.16-1.26.29-.35.13-.62.31-.8.53-.19.22-.28.51-.28.87,0,.53.19.94.57,1.23.38.29.86.44,1.43.44Z"/>
        <path class="cls-1" d="M255.51,543.33v5.45h-1.01v-8.73h.98v1.38h.1c.2-.45.52-.81.95-1.09.43-.27.97-.41,1.61-.41.59,0,1.11.12,1.55.37.45.25.79.6,1.04,1.08.25.47.38,1.06.38,1.75v5.65h-1.01v-5.59c0-.71-.2-1.28-.6-1.7-.4-.42-.94-.63-1.61-.63-.46,0-.87.1-1.23.3-.36.2-.64.48-.85.85-.21.37-.31.81-.31,1.32Z"/>
        <path class="cls-1" d="M267.28,552.05v-12h.98v1.67h.12c.12-.26.29-.53.5-.8.21-.28.5-.51.85-.7.35-.19.8-.29,1.33-.29.72,0,1.35.19,1.89.57.54.38.96.91,1.26,1.58.3.68.45,1.46.45,2.36s-.15,1.69-.45,2.38c-.3.68-.72,1.21-1.26,1.59-.54.38-1.17.57-1.89.57-.53,0-.97-.1-1.32-.29-.36-.19-.64-.43-.86-.71-.22-.28-.38-.55-.5-.82h-.09v4.89h-1.01ZM270.95,548.05c.57,0,1.06-.16,1.46-.48.4-.32.71-.76.91-1.3.21-.55.31-1.16.31-1.83s-.1-1.28-.31-1.82c-.21-.54-.51-.97-.91-1.29-.4-.32-.89-.48-1.47-.48s-1.06.15-1.45.46c-.4.3-.7.73-.91,1.26-.21.54-.31,1.16-.31,1.86s.1,1.32.31,1.86c.21.54.51.97.91,1.29s.88.47,1.45.47Z"/>
        <path class="cls-1" d="M276.37,548.79v-8.73h.98v1.35h.08c.18-.44.48-.8.92-1.07.43-.27.93-.4,1.47-.4h.28c.1,0,.19,0,.25,0v1.02s-.12-.01-.23-.03c-.11-.01-.24-.02-.38-.02-.45,0-.85.1-1.21.29-.36.19-.64.46-.84.79s-.3.72-.3,1.15v5.63h-1.01Z"/>
        <path class="cls-1" d="M284.01,548.98c-.53,0-1.01-.1-1.45-.31s-.79-.5-1.04-.9c-.26-.39-.39-.87-.39-1.43,0-.43.08-.79.24-1.09.16-.29.39-.53.7-.72.3-.19.66-.34,1.07-.45.41-.11.86-.2,1.36-.25.49-.06.9-.12,1.24-.16.34-.04.6-.12.77-.21.18-.1.27-.26.27-.48v-.2c0-.6-.18-1.07-.53-1.41-.35-.34-.86-.51-1.52-.51s-1.14.14-1.54.41c-.4.28-.67.6-.83.98l-.97-.35c.2-.47.47-.85.82-1.14.35-.29.74-.49,1.17-.62.43-.13.87-.19,1.31-.19.33,0,.68.04,1.04.13.36.09.7.24,1.01.45.31.21.57.51.76.89s.29.87.29,1.45v5.92h-1.02v-1.38h-.06c-.11.26-.29.5-.53.75-.24.24-.54.44-.9.6s-.78.23-1.27.23ZM284.15,548.06c.54,0,1-.12,1.39-.36.39-.24.7-.56.91-.96.21-.4.32-.84.32-1.31v-1.26c-.08.07-.2.14-.38.2-.17.06-.38.11-.6.15-.23.04-.46.08-.69.11-.23.03-.44.06-.61.08-.49.06-.91.16-1.26.29-.35.13-.62.31-.8.53-.19.22-.28.51-.28.87,0,.53.19.94.57,1.23.38.29.86.44,1.43.44Z"/>
        <path class="cls-1" d="M293.37,548.97c-.78,0-1.46-.2-2.04-.59s-1.03-.93-1.34-1.61c-.32-.68-.48-1.45-.48-2.32s.16-1.66.48-2.34c.32-.68.77-1.21,1.35-1.61s1.25-.59,2.01-.59c.58,0,1.11.11,1.59.34.47.23.87.54,1.18.95.31.41.5.88.58,1.43h-1.02c-.07-.33-.21-.63-.42-.9-.21-.27-.47-.49-.79-.65s-.69-.25-1.11-.25c-.56,0-1.05.15-1.48.45-.43.3-.76.72-1,1.26-.24.54-.36,1.16-.36,1.87s.12,1.33.35,1.88.57.97,1,1.28c.43.31.93.46,1.5.46s1.08-.16,1.5-.49.69-.77.81-1.32h1.02c-.07.53-.26,1-.56,1.41-.3.41-.69.74-1.16.97-.47.24-1.01.36-1.61.36Z"/>
        <path class="cls-1" d="M301.81,540.05v.88h-4.16v-.88h4.16ZM298.95,537.97h1.01v8.53c0,.47.12.83.35,1.07.23.24.56.36.98.36.09,0,.19,0,.29-.02.1-.01.2-.03.31-.06l.22.91c-.12.05-.26.08-.41.11-.16.03-.32.04-.48.04-.65,0-1.18-.2-1.61-.6-.43-.4-.64-.92-.64-1.57v-8.77Z"/>
        <path class="cls-1" d="M304.12,538.56c-.21,0-.39-.07-.54-.21-.15-.14-.22-.32-.22-.52s.07-.37.22-.51.33-.21.54-.21.39.07.53.21c.15.14.22.31.22.51s-.07.38-.22.52c-.15.14-.32.21-.53.21ZM303.61,548.79v-8.73h1.01v8.73h-1.01Z"/>
        <path class="cls-1" d="M310.19,548.97c-.78,0-1.46-.2-2.04-.59s-1.03-.93-1.34-1.61c-.32-.68-.48-1.45-.48-2.32s.16-1.66.48-2.34c.32-.68.77-1.21,1.35-1.61s1.25-.59,2.01-.59c.58,0,1.11.11,1.59.34.47.23.87.54,1.18.95.31.41.5.88.58,1.43h-1.02c-.07-.33-.21-.63-.42-.9-.21-.27-.47-.49-.79-.65s-.69-.25-1.11-.25c-.56,0-1.05.15-1.48.45-.43.3-.76.72-1,1.26-.24.54-.36,1.16-.36,1.87s.12,1.33.35,1.88.57.97,1,1.28c.43.31.93.46,1.5.46s1.08-.16,1.5-.49.69-.77.81-1.32h1.02c-.07.53-.26,1-.56,1.41-.3.41-.69.74-1.16.97-.47.24-1.01.36-1.61.36Z"/>
        <path class="cls-1" d="M318.74,548.97c-.81,0-1.52-.19-2.12-.57-.6-.38-1.06-.91-1.38-1.59-.32-.68-.48-1.46-.48-2.34s.16-1.66.48-2.34c.32-.68.77-1.22,1.34-1.61.57-.39,1.24-.59,1.99-.59.47,0,.92.09,1.37.26.44.17.84.44,1.2.79.35.35.63.8.84,1.35.2.54.3,1.19.3,1.94v.45h-6.82v-.89h6.27l-.46.34c0-.64-.11-1.2-.32-1.7-.22-.5-.52-.9-.93-1.19-.4-.29-.88-.44-1.45-.44s-1.05.15-1.47.44c-.42.29-.75.69-.98,1.17-.23.49-.35,1.02-.35,1.6v.52c0,.7.12,1.31.36,1.82.24.52.59.92,1.03,1.21.45.29.97.43,1.57.43.41,0,.77-.06,1.09-.2.31-.13.58-.31.79-.53.21-.22.38-.46.48-.72l.96.32c-.14.36-.35.7-.65,1.01-.3.31-.67.56-1.12.75-.45.19-.96.29-1.54.29Z"/>
        <path class="cls-1" d="M239.91,551.97v-1.09h82.95v1.09h-82.95Z"/>
      </g>
      <g>
        <path class="cls-1" d="M119.32,561.27v-8.73h.98v1.35h.1c.17-.45.46-.81.87-1.07.41-.26.9-.39,1.47-.39s1.09.14,1.48.43c.39.28.67.67.87,1.16h.08c.2-.48.52-.86.96-1.15s.98-.43,1.61-.43c.81,0,1.46.26,1.93.77.47.51.71,1.25.71,2.23v5.85h-1.02v-5.85c0-.69-.18-1.2-.53-1.55-.35-.35-.82-.52-1.39-.52-.67,0-1.18.21-1.54.62s-.54.93-.54,1.56v5.74h-1.04v-5.95c0-.59-.16-1.06-.49-1.43-.33-.36-.79-.55-1.39-.55-.4,0-.76.1-1.08.3-.32.2-.57.48-.76.82-.19.35-.28.75-.28,1.21v5.59h-1.01Z"/>
        <path class="cls-1" d="M135.94,561.46c-.76,0-1.42-.19-2-.57s-1.03-.91-1.36-1.59c-.33-.68-.49-1.46-.49-2.34s.16-1.68.49-2.36c.33-.68.78-1.21,1.36-1.59s1.24-.57,2-.57,1.42.19,2,.57c.58.38,1.03.91,1.36,1.59s.49,1.47.49,2.36-.16,1.66-.49,2.34c-.33.68-.78,1.21-1.36,1.59s-1.25.57-2,.57ZM135.94,560.54c.61,0,1.12-.16,1.54-.49.42-.33.74-.76.96-1.31s.33-1.14.33-1.79-.11-1.26-.33-1.8-.54-.98-.96-1.31-.94-.49-1.54-.49-1.12.17-1.54.5c-.42.33-.74.77-.96,1.31-.22.54-.33,1.14-.33,1.8s.11,1.24.33,1.79.54.98.96,1.31c.42.33.93.49,1.54.49Z"/>
        <path class="cls-1" d="M144.64,561.46c-.71,0-1.34-.19-1.88-.57-.54-.38-.96-.91-1.26-1.59-.3-.68-.45-1.47-.45-2.38s.15-1.68.45-2.36c.3-.68.72-1.2,1.26-1.58.54-.38,1.17-.57,1.88-.57.54,0,.98.1,1.33.29.35.19.64.42.85.7.22.28.38.54.5.8h.09v-4.58h1.01v11.64h-.98v-1.62h-.12c-.11.27-.28.54-.5.82s-.51.52-.86.71c-.35.19-.8.29-1.33.29ZM144.75,560.54c.57,0,1.05-.16,1.45-.47.4-.31.7-.74.91-1.29.21-.54.32-1.17.32-1.86s-.1-1.32-.31-1.86c-.21-.54-.51-.96-.91-1.26s-.88-.46-1.45-.46-1.07.16-1.47.48c-.4.32-.7.75-.91,1.29-.21.54-.31,1.14-.31,1.82s.1,1.28.31,1.83c.21.55.51.98.91,1.3.4.32.89.48,1.46.48Z"/>
        <path class="cls-1" d="M154.12,561.46c-.81,0-1.52-.19-2.12-.57-.6-.38-1.06-.91-1.38-1.59-.32-.68-.48-1.46-.48-2.34s.16-1.66.48-2.34c.32-.68.77-1.22,1.34-1.61.57-.39,1.24-.59,1.99-.59.47,0,.92.09,1.37.26.44.17.84.44,1.2.79.35.35.63.8.84,1.35.2.54.3,1.19.3,1.94v.45h-6.82v-.89h6.27l-.46.34c0-.64-.11-1.2-.32-1.7-.22-.5-.52-.9-.93-1.19-.4-.29-.88-.44-1.45-.44s-1.05.15-1.47.44c-.42.29-.75.69-.98,1.17-.23.49-.35,1.02-.35,1.6v.52c0,.7.12,1.31.36,1.82.24.52.59.92,1.03,1.21.45.29.97.43,1.57.43.41,0,.77-.06,1.09-.2.31-.13.58-.31.79-.53.21-.22.38-.46.48-.72l.96.32c-.14.36-.35.7-.65,1.01-.3.31-.67.56-1.12.75-.45.19-.96.29-1.54.29Z"/>
        <path class="cls-1" d="M160.34,549.63v11.64h-1.01v-11.64h1.01Z"/>
        <path class="cls-1" d="M118.23,564.45v-1.09h43.2v1.09h-43.2Z"/>
      </g>
      <line class="cls-3" x1="201.29" y1="544.39" x2="236.83" y2="544.39"/>
      <line class="cls-3" x1="165.76" y1="556.01" x2="201.29" y2="556.01"/>
      <g>
        <path class="cls-1" d="M244.74,574.15c-.72,0-1.36-.13-1.93-.39-.57-.26-1.01-.62-1.34-1.08s-.5-.99-.52-1.6h1.07c.02.42.15.79.39,1.11.24.32.56.56.96.74.4.17.85.26,1.34.26.54,0,1.02-.1,1.43-.3.41-.2.74-.48.97-.82.23-.35.35-.74.35-1.19,0-.47-.12-.89-.36-1.25-.24-.36-.58-.64-1.03-.84-.45-.2-.98-.3-1.59-.3h-.68v-.96h.68c.5,0,.94-.09,1.33-.27.39-.18.69-.44.92-.77.22-.33.34-.72.34-1.18,0-.43-.1-.8-.29-1.13-.19-.33-.46-.58-.81-.77-.35-.18-.76-.27-1.23-.27s-.86.09-1.24.26c-.38.17-.68.42-.91.73-.23.32-.35.69-.36,1.12h-1.03c.02-.6.18-1.14.5-1.59.32-.46.75-.82,1.28-1.08.53-.26,1.12-.39,1.77-.39s1.27.14,1.78.42c.5.28.89.65,1.16,1.12.27.47.41.98.4,1.54,0,.67-.17,1.23-.53,1.7s-.84.79-1.45.98v.08c.74.15,1.32.47,1.75.98.42.51.64,1.14.64,1.88,0,.62-.16,1.18-.49,1.67-.33.49-.77.88-1.34,1.17-.57.29-1.21.43-1.94.43Z"/>
        <path class="cls-1" d="M251.83,562.35v11.64h-1.06v-11.64h1.06ZM254.18,573.99h-2.82v-.95h2.76c1,0,1.84-.2,2.51-.59.67-.39,1.18-.96,1.52-1.69.34-.73.51-1.61.51-2.62s-.17-1.86-.5-2.58c-.33-.72-.82-1.28-1.46-1.66-.64-.39-1.44-.58-2.38-.58h-3v-.96h3.06c1.11,0,2.06.23,2.85.7.79.46,1.4,1.13,1.82,1.99.42.86.63,1.9.63,3.1s-.21,2.27-.64,3.14c-.43.87-1.05,1.54-1.88,2.01-.82.47-1.81.7-2.98.7Z"/>
        <path class="cls-1" d="M266.54,562.35v11.64h-1.01v-11.64h1.01Z"/>
        <path class="cls-1" d="M271.15,574.19c-.53,0-1.01-.1-1.45-.31s-.79-.5-1.04-.9c-.26-.39-.39-.87-.39-1.43,0-.43.08-.79.24-1.09.16-.29.39-.53.7-.72.3-.19.66-.34,1.07-.45.41-.11.86-.2,1.36-.25.49-.06.9-.12,1.24-.16.34-.04.6-.12.77-.21.18-.1.27-.26.27-.48v-.2c0-.6-.18-1.07-.53-1.41-.35-.34-.86-.51-1.52-.51s-1.14.14-1.54.41c-.4.28-.67.6-.83.98l-.97-.35c.2-.47.47-.85.82-1.14.35-.29.74-.49,1.17-.62.43-.13.87-.19,1.31-.19.33,0,.68.04,1.04.13.36.09.7.24,1.01.45.31.21.57.51.76.89s.29.87.29,1.45v5.92h-1.02v-1.38h-.06c-.11.26-.29.5-.53.75-.24.24-.54.44-.9.6s-.78.23-1.27.23ZM271.29,573.27c.54,0,1-.12,1.39-.36.39-.24.7-.56.91-.96.21-.4.32-.84.32-1.31v-1.26c-.08.07-.2.14-.38.2-.17.06-.38.11-.6.15-.23.04-.46.08-.69.11-.23.03-.44.06-.61.08-.49.06-.91.16-1.26.29-.35.13-.62.31-.8.53-.19.22-.28.51-.28.87,0,.53.19.94.57,1.23.38.29.86.44,1.43.44Z"/>
        <path class="cls-1" d="M282.97,567.19l-.92.25c-.14-.39-.36-.72-.68-1-.32-.27-.77-.41-1.36-.41s-1.07.14-1.45.43c-.38.28-.57.65-.57,1.09,0,.37.13.67.39.91.26.24.66.42,1.2.56l1.32.32c.73.18,1.28.46,1.64.85s.55.87.55,1.45c0,.49-.14.93-.41,1.31-.27.39-.65.69-1.14.91s-1.05.33-1.69.33c-.85,0-1.56-.19-2.11-.58-.55-.39-.91-.94-1.06-1.67l.97-.23c.12.52.36.91.73,1.17.37.27.85.4,1.45.4.67,0,1.2-.15,1.61-.45.41-.3.61-.68.61-1.12,0-.72-.48-1.2-1.43-1.43l-1.42-.34c-.76-.18-1.32-.47-1.69-.86-.36-.39-.55-.88-.55-1.46,0-.48.13-.9.39-1.27.26-.37.62-.66,1.08-.87.46-.21.98-.31,1.56-.31.8,0,1.44.18,1.92.55.48.37.82.87,1.03,1.5Z"/>
        <path class="cls-1" d="M285.82,568.54v5.45h-1.01v-11.64h1.01v4.29h.1c.2-.45.52-.81.95-1.09.43-.27.97-.41,1.63-.41.59,0,1.11.12,1.55.36.45.24.8.6,1.05,1.07.25.47.38,1.06.38,1.76v5.65h-1.02v-5.59c0-.72-.2-1.29-.61-1.71-.4-.42-.95-.62-1.63-.62-.46,0-.88.1-1.24.3-.36.2-.65.48-.86.85s-.32.81-.32,1.32Z"/>
        <path class="cls-1" d="M239.91,577.17v-1.09h52.66v1.09h-52.66Z"/>
      </g>
      <g>
        <path class="cls-1" d="M103.71,586.66c-.53,0-.97-.1-1.32-.29-.36-.19-.64-.43-.86-.71-.22-.28-.38-.55-.5-.82h-.12v1.62h-.98v-11.64h1.01v4.58h.09c.12-.26.29-.53.5-.8.21-.28.5-.51.85-.7.35-.19.8-.29,1.33-.29.72,0,1.35.19,1.89.57.54.38.96.91,1.26,1.58.3.68.45,1.46.45,2.36s-.15,1.69-.45,2.38c-.3.68-.72,1.21-1.26,1.59-.54.38-1.17.57-1.89.57ZM103.6,585.74c.57,0,1.06-.16,1.46-.48.4-.32.71-.76.91-1.3.21-.55.31-1.16.31-1.83s-.1-1.28-.31-1.82c-.21-.54-.51-.97-.91-1.29-.4-.32-.89-.48-1.47-.48s-1.06.15-1.45.46c-.4.3-.7.73-.91,1.26-.21.54-.31,1.16-.31,1.86s.1,1.32.31,1.86c.21.54.51.97.91,1.29s.88.47,1.45.47Z"/>
        <path class="cls-1" d="M109.52,576.25c-.21,0-.39-.07-.54-.21-.15-.14-.22-.32-.22-.52s.07-.37.22-.51.33-.21.54-.21.39.07.53.21c.15.14.22.31.22.51s-.07.38-.22.52c-.15.14-.32.21-.53.21ZM109.01,586.48v-8.73h1.01v8.73h-1.01Z"/>
        <path class="cls-1" d="M113.2,581.02v5.45h-1.01v-8.73h.98v1.38h.1c.2-.45.52-.81.95-1.09.43-.27.97-.41,1.61-.41.59,0,1.11.12,1.55.37.45.25.79.6,1.04,1.08.25.47.38,1.06.38,1.75v5.65h-1.01v-5.59c0-.71-.2-1.28-.6-1.7-.4-.42-.94-.63-1.61-.63-.46,0-.87.1-1.23.3-.36.2-.64.48-.85.85-.21.37-.31.81-.31,1.32Z"/>
        <path class="cls-1" d="M124.11,586.66c-.71,0-1.34-.19-1.88-.57-.54-.38-.96-.91-1.26-1.59-.3-.68-.45-1.47-.45-2.38s.15-1.68.45-2.36c.3-.68.72-1.2,1.26-1.58.54-.38,1.17-.57,1.88-.57.54,0,.98.1,1.33.29.35.19.64.42.85.7.22.28.38.54.5.8h.09v-4.58h1.01v11.64h-.98v-1.62h-.12c-.11.27-.28.54-.5.82s-.51.52-.86.71c-.35.19-.8.29-1.33.29ZM124.22,585.74c.57,0,1.05-.16,1.45-.47.4-.31.7-.74.91-1.29.21-.54.32-1.17.32-1.86s-.1-1.32-.31-1.86c-.21-.54-.51-.96-.91-1.26s-.88-.46-1.45-.46-1.07.16-1.47.48c-.4.32-.7.75-.91,1.29-.21.54-.31,1.14-.31,1.82s.1,1.28.31,1.83c.21.55.51.98.91,1.3.4.32.89.48,1.46.48Z"/>
        <path class="cls-1" d="M135.07,574.84v11.64h-1.01v-11.64h1.01Z"/>
        <path class="cls-1" d="M140.63,586.66c-.76,0-1.42-.19-2-.57s-1.03-.91-1.36-1.59c-.33-.68-.49-1.46-.49-2.34s.16-1.68.49-2.36c.33-.68.78-1.21,1.36-1.59s1.24-.57,2-.57,1.42.19,2,.57c.58.38,1.03.91,1.36,1.59s.49,1.47.49,2.36-.16,1.66-.49,2.34c-.33.68-.78,1.21-1.36,1.59s-1.25.57-2,.57ZM140.63,585.74c.61,0,1.12-.16,1.54-.49.42-.33.74-.76.96-1.31s.33-1.14.33-1.79-.11-1.26-.33-1.8-.54-.98-.96-1.31-.94-.49-1.54-.49-1.12.17-1.54.5c-.42.33-.74.77-.96,1.31-.22.54-.33,1.14-.33,1.8s.11,1.24.33,1.79.54.98.96,1.31c.42.33.93.49,1.54.49Z"/>
        <path class="cls-1" d="M149.6,586.66c-.78,0-1.46-.2-2.04-.59s-1.03-.93-1.34-1.61c-.32-.68-.48-1.45-.48-2.32s.16-1.66.48-2.34c.32-.68.77-1.21,1.35-1.61s1.25-.59,2.01-.59c.58,0,1.11.11,1.59.34.47.23.87.54,1.18.95.31.41.5.88.58,1.43h-1.02c-.07-.33-.21-.63-.42-.9-.21-.27-.47-.49-.79-.65s-.69-.25-1.11-.25c-.56,0-1.05.15-1.48.45-.43.3-.76.72-1,1.26-.24.54-.36,1.16-.36,1.87s.12,1.33.35,1.88.57.97,1,1.28c.43.31.93.46,1.5.46s1.08-.16,1.5-.49.69-.77.81-1.32h1.02c-.07.53-.26,1-.56,1.41-.3.41-.69.74-1.16.97-.47.24-1.01.36-1.61.36Z"/>
        <path class="cls-1" d="M154.61,586.48v-11.64h1.01v11.64h-1.01ZM155.54,583.18l-.02-1.33h.23l4.09-4.11h1.27l-4.03,4.05-.09.02-1.45,1.37ZM160.04,586.48l-3.54-4.48.73-.7,4.12,5.18h-1.3Z"/>
        <path class="cls-1" d="M98.84,589.66v-1.09h62.59v1.09h-62.59Z"/>
      </g>
      <line class="cls-3" x1="201.29" y1="569.6" x2="236.83" y2="569.6"/>
      <line class="cls-3" x1="165.76" y1="581.22" x2="201.29" y2="581.22"/>
      <g>
        <path class="cls-1" d="M197.01,72.59c0,1.95.25,6.09,4.57,8.66-.19.13-.52.48-.66.68-2.71-1.64-3.87-4.05-4.37-6.13-.81,2.85-2.2,4.85-4.39,6.14-.15-.17-.52-.51-.74-.65,2.43-1.27,3.78-3.48,4.46-6.56l.48.08c-.08-.51-.12-.99-.14-1.41h-2.71v-.81h3.5Z"/>
        <path class="cls-1" d="M205.86,78.8c-.29-.32-.89-.94-1.39-1.4v4.55h-.8v-4.27c-.55.55-1.12,1.01-1.68,1.38-.09-.21-.3-.58-.43-.74,1.31-.76,2.68-2.15,3.44-3.61h-3.06v-.75h1.73v-2.05h.8v2.05h.96l.14-.03.46.31c-.34.85-.85,1.66-1.43,2.4.52.41,1.49,1.25,1.76,1.5l-.51.66ZM211.93,80.85v.8h-6.16v-.8h2.78v-4.57h-2.35v-.79h2.35v-3.49h.81v3.49h2.34v.79h-2.34v4.57h2.56Z"/>
      </g>
      <g>
        <path class="cls-2" d="M180.12,326.44c.68,0,1.24.56,1.24,1.24s-.56,1.23-1.24,1.23c-.14,0-.29-.02-.42-.07,0,.03-.01.08-.02.12-.23,1.16-.77,2.93-1.64,4.06-1,1.29-2.31,2.31-4.33,2.94l-.75-.83c2.13-.53,3.38-1.46,4.29-2.64.78-1,1.3-2.53,1.44-3.59h-5.62c-.44,0-.81.02-1.1.03v-.98c.31.04.74.08,1.1.08h5.52c.1,0,.22,0,.35-.01-.03-.11-.06-.23-.06-.35,0-.68.55-1.24,1.23-1.24ZM180.12,328.41c.41,0,.74-.33.74-.73s-.33-.74-.74-.74-.73.33-.73.74.33.73.73.73Z"/>
        <path class="cls-2" d="M183.47,334.7v-6.29c0-.29-.05-.78-.1-1h1.09c-.04.28-.08.68-.08,1v6.24c2.1-.53,4.65-1.98,6.02-3.75l.5.77c-1.43,1.77-3.7,3.14-6.44,3.93-.12.03-.29.09-.46.2l-.64-.55c.08-.18.11-.32.11-.54Z"/>
        <path class="cls-2" d="M193.46,330.36h7.21c.23,0,.59-.01.86-.05v.91c-.24-.01-.59-.02-.86-.02h-2.99c-.03,1.19-.21,2.19-.65,3.01-.4.73-1.23,1.52-2.17,2l-.81-.61c.86-.35,1.65-.99,2.08-1.68.48-.76.61-1.68.64-2.73h-3.3c-.33,0-.65,0-.95.02v-.91c.3.03.6.05.95.05ZM194.81,327.61h3.81c.32,0,.7-.02,1.02-.07v.91c-.32-.02-.7-.03-1.02-.03h-3.8c-.36,0-.73.01-1.01.03v-.91c.32.03.65.07,1,.07ZM201.11,328.16l-.59.26c-.22-.45-.59-1.11-.89-1.53l.58-.24c.27.39.68,1.06.9,1.51ZM202.35,327.71l-.59.26c-.24-.48-.59-1.1-.91-1.52l.58-.24c.29.4.72,1.09.92,1.5Z"/>
        <path class="cls-2" d="M205.14,328.23v2.49c1.3-.32,3.04-.85,4.18-1.34.33-.14.66-.31.97-.5l.39.88c-.31.13-.7.31-1.03.43-1.23.5-3.14,1.08-4.5,1.43v2.42c0,.56.23.7.77.81.34.05.91.09,1.45.09,1.17,0,2.85-.11,3.76-.35v1c-.96.14-2.61.23-3.81.23-.65,0-1.31-.03-1.76-.11-.85-.15-1.32-.54-1.32-1.43v-6.05c0-.26-.02-.64-.07-.89h1.02c-.03.25-.05.58-.05.89ZM211.04,328.47l-.59.27c-.22-.45-.59-1.11-.89-1.53l.58-.25c.27.4.67,1.07.9,1.51ZM212.27,328.02l-.59.28c-.24-.48-.6-1.1-.91-1.52l.58-.25c.29.41.72,1.09.92,1.5Z"/>
        <path class="cls-2" d="M220.04,330.69c-.09.75-.41,2.93-.56,3.94h1.08c.24,0,.64-.01.87-.03v.89c-.2-.01-.6-.02-.84-.02h-6.03c-.34,0-.59.01-.91.03v-.91c.26.02.58.04.91.04h3.98c.17-.92.48-3.07.52-3.7h-3.5c-.32,0-.61.02-.88.03v-.92c.26.03.59.07.87.07h3.34c.18,0,.45-.03.55-.08l.67.32c-.03.11-.07.25-.08.34Z"/>
        <path class="cls-2" d="M224.4,330.88h6.03c.55,0,.95-.03,1.19-.05v1.08c-.22-.01-.68-.05-1.18-.05h-6.04c-.6,0-1.19.02-1.53.05v-1.08c.33.02.91.05,1.53.05Z"/>
      </g>
      <g>
        <path class="cls-2" d="M155.3,483.39c-.44.75-1.48,2.17-2.74,3.04l-.73-.58c1.01-.58,2.05-1.78,2.41-2.46h-6.27c-.41,0-.82.02-1.25.07v-1c.38.06.85.1,1.25.1h6.31c.21,0,.61-.03.77-.07l.54.52c-.08.11-.22.27-.3.4ZM148.14,490.83l-.81-.66c.31-.1.68-.28.99-.5,1.71-1.05,1.95-2.61,1.95-4.44,0-.26-.01-.51-.04-.79h.99c0,2.98-.26,4.99-3.07,6.39Z"/>
        <path class="cls-2" d="M160.65,484.4c1.14-.72,2.24-1.67,3-2.59l.74.68c-.84.87-1.85,1.71-2.97,2.45v4.64c0,.42.02.96.07,1.18h-1.08c.03-.21.07-.76.07-1.18v-4.07c-1.15.66-2.66,1.32-4.19,1.79l-.44-.86c1.9-.52,3.59-1.29,4.81-2.06Z"/>
        <path class="cls-2" d="M166.63,485.2h7.21c.23,0,.59-.01.86-.06v.91c-.24-.01-.59-.02-.86-.02h-2.99c-.03,1.19-.21,2.19-.65,3.01-.4.73-1.23,1.52-2.17,2l-.81-.6c.86-.35,1.65-.99,2.08-1.68.48-.76.61-1.68.64-2.73h-3.3c-.33,0-.65,0-.95.02v-.91c.3.03.6.06.95.06ZM167.98,482.45h3.81c.32,0,.7-.02,1.02-.07v.91c-.32-.02-.7-.03-1.02-.03h-3.8c-.36,0-.73.01-1.01.03v-.91c.32.03.65.07,1,.07ZM174.28,483l-.59.26c-.22-.45-.59-1.11-.89-1.53l.58-.24c.27.38.68,1.06.9,1.51ZM175.51,482.55l-.59.26c-.24-.48-.59-1.1-.91-1.52l.58-.24c.29.4.72,1.09.92,1.5Z"/>
        <path class="cls-2" d="M180.22,491.13l-.74-.7c2-.76,2.99-1.71,2.99-4.79v-.46h-3.12v1.78c0,.41.03.89.04.99h-.98c.01-.1.06-.57.06-.99v-1.78h-1.19c-.48,0-.98.03-1.1.04v-.96c.1.02.64.08,1.1.08h1.19v-1.41c0-.24-.02-.55-.06-.8h.98c-.01.1-.04.42-.04.79v1.42h3.12v-1.38c0-.44-.03-.8-.04-.9h.99c-.01.11-.06.46-.06.9v1.38h1.2c.5,0,.86-.03,1.01-.07v.94c-.12-.01-.52-.03-1-.03h-1.21v.38c0,2.93-.64,4.44-3.15,5.57ZM185.05,483.56l-.54.19c-.17-.47-.42-1.13-.63-1.55l.53-.17c.2.4.5,1.08.64,1.53ZM186.17,483.22l-.54.18c-.18-.48-.43-1.12-.65-1.53l.53-.17c.21.4.51,1.07.66,1.52Z"/>
        <path class="cls-2" d="M191.61,484.4c1.14-.72,2.24-1.67,3-2.59l.74.68c-.84.87-1.85,1.71-2.97,2.45v4.64c0,.42.02.96.07,1.18h-1.08c.03-.21.07-.76.07-1.18v-4.07c-1.15.66-2.66,1.32-4.19,1.79l-.44-.86c1.9-.52,3.59-1.29,4.81-2.06Z"/>
        <path class="cls-2" d="M200.71,481.91h1.09c-.03.22-.07.77-.07,1.1v1.47h2.93c.36,0,.78-.02.96-.04v.94c-.18-.02-.63-.03-.97-.03h-2.92c-.01,2.42-.83,4.2-3.05,5.5l-.86-.64c2.08-.98,2.98-2.61,2.98-4.86h-3.22c-.41,0-.81.01-1.04.03v-.95c.23.02.64.06,1.02.06h3.25v-1.49c0-.33-.04-.87-.1-1.09Z"/>
        <path class="cls-2" d="M208.74,485.72h6.03c.55,0,.95-.03,1.19-.06v1.08c-.22-.01-.68-.06-1.18-.06h-6.04c-.6,0-1.19.02-1.53.06v-1.08c.33.02.91.06,1.53.06Z"/>
        <path class="cls-2" d="M218.64,485.2h7.21c.23,0,.59-.01.86-.06v.91c-.24-.01-.59-.02-.86-.02h-2.99c-.03,1.19-.21,2.19-.65,3.01-.4.73-1.23,1.52-2.17,2l-.81-.6c.86-.35,1.65-.99,2.08-1.68.48-.76.61-1.68.64-2.73h-3.3c-.33,0-.65,0-.95.02v-.91c.3.03.6.06.95.06ZM219.99,482.45h3.81c.32,0,.7-.02,1.02-.07v.91c-.32-.02-.7-.03-1.02-.03h-3.8c-.36,0-.73.01-1.01.03v-.91c.32.03.65.07,1,.07ZM226.29,483l-.59.26c-.22-.45-.59-1.11-.89-1.53l.58-.24c.27.38.68,1.06.9,1.51ZM227.53,482.55l-.59.26c-.24-.48-.59-1.1-.91-1.52l.58-.24c.29.4.72,1.09.92,1.5Z"/>
        <path class="cls-2" d="M230.32,483.07v2.49c1.3-.32,3.04-.85,4.18-1.34.33-.14.66-.31.97-.5l.39.88c-.31.13-.7.31-1.03.43-1.23.5-3.14,1.08-4.5,1.43v2.42c0,.56.23.7.77.81.34.06.91.09,1.45.09,1.17,0,2.85-.11,3.76-.35v1c-.96.14-2.61.23-3.81.23-.65,0-1.31-.03-1.76-.11-.85-.15-1.32-.54-1.32-1.43v-6.05c0-.26-.02-.64-.07-.89h1.02c-.03.25-.05.58-.05.89ZM236.22,483.31l-.59.28c-.22-.45-.59-1.11-.89-1.53l.58-.25c.27.4.67,1.07.9,1.51ZM237.45,482.86l-.59.28c-.24-.48-.6-1.1-.91-1.52l.58-.25c.29.41.72,1.09.92,1.5Z"/>
        <path class="cls-2" d="M245.23,485.53c-.09.75-.41,2.93-.56,3.94h1.08c.24,0,.64-.01.87-.03v.89c-.2-.01-.6-.02-.84-.02h-6.03c-.34,0-.59.01-.91.03v-.91c.26.02.58.04.91.04h3.98c.17-.92.48-3.07.52-3.7h-3.5c-.32,0-.61.02-.88.03v-.92c.26.03.59.07.87.07h3.34c.18,0,.45-.03.55-.08l.67.32c-.03.11-.07.25-.08.34Z"/>
        <path class="cls-2" d="M249.58,485.72h6.03c.55,0,.95-.03,1.19-.06v1.08c-.22-.01-.68-.06-1.18-.06h-6.04c-.6,0-1.19.02-1.53.06v-1.08c.33.02.91.06,1.53.06Z"/>
      </g>
      <g>
        <path class="cls-2" d="M170.91,920.25v.8h-9.79v-.8h1.5v-5.15h.83v5.15h2.42v-7.16h-4.32v-.79h9.01v.79h-3.85v2.93h3.43v.8h-3.43v3.43h4.21Z"/>
        <path class="cls-2" d="M181,913.65c-.44.75-1.48,2.17-2.74,3.04l-.73-.58c1.01-.58,2.05-1.78,2.41-2.46h-6.27c-.41,0-.82.02-1.25.07v-1c.38.06.85.1,1.25.1h6.31c.21,0,.61-.03.77-.07l.54.52c-.08.11-.22.27-.3.4ZM173.83,921.1l-.81-.66c.31-.1.68-.27.99-.5,1.71-1.05,1.95-2.61,1.95-4.44,0-.26-.01-.51-.04-.79h.99c0,2.98-.26,4.99-3.07,6.39Z"/>
        <path class="cls-2" d="M186.35,914.67c1.14-.72,2.24-1.67,3-2.59l.74.68c-.84.87-1.85,1.71-2.97,2.45v4.64c0,.42.02.96.07,1.18h-1.08c.03-.21.07-.76.07-1.18v-4.07c-1.15.66-2.66,1.32-4.19,1.79l-.44-.86c1.9-.52,3.59-1.29,4.81-2.06Z"/>
        <path class="cls-2" d="M192.32,915.47h7.21c.23,0,.59-.01.86-.06v.91c-.24-.01-.59-.02-.86-.02h-2.99c-.03,1.19-.21,2.19-.65,3.01-.4.73-1.23,1.52-2.17,2l-.81-.6c.86-.35,1.65-.99,2.08-1.68.48-.76.61-1.68.64-2.73h-3.3c-.33,0-.65,0-.95.02v-.91c.3.03.6.06.95.06ZM193.67,912.72h3.81c.32,0,.7-.02,1.02-.07v.91c-.32-.02-.7-.03-1.02-.03h-3.8c-.36,0-.73.01-1.01.03v-.91c.32.03.65.07,1,.07ZM199.98,913.27l-.59.26c-.22-.45-.59-1.11-.89-1.53l.58-.24c.27.38.68,1.06.9,1.51ZM201.21,912.82l-.59.26c-.24-.48-.59-1.1-.91-1.52l.58-.24c.29.4.72,1.09.92,1.5Z"/>
        <path class="cls-2" d="M205.92,921.4l-.74-.7c2-.76,2.99-1.71,2.99-4.79v-.46h-3.12v1.78c0,.41.03.89.04.99h-.98c.01-.1.06-.57.06-.99v-1.78h-1.19c-.48,0-.98.03-1.1.04v-.96c.1.02.64.08,1.1.08h1.19v-1.41c0-.24-.02-.55-.06-.8h.98c-.01.1-.04.42-.04.79v1.42h3.12v-1.38c0-.44-.03-.8-.04-.9h.99c-.01.11-.06.46-.06.9v1.38h1.2c.5,0,.86-.03,1.01-.07v.94c-.12-.01-.52-.03-1-.03h-1.21v.38c0,2.93-.64,4.44-3.15,5.57ZM210.75,913.83l-.54.19c-.17-.47-.42-1.13-.63-1.55l.53-.17c.2.4.5,1.08.64,1.53ZM211.86,913.49l-.54.18c-.18-.48-.43-1.12-.65-1.53l.53-.17c.21.4.51,1.07.66,1.52Z"/>
        <path class="cls-2" d="M217.31,914.67c1.14-.72,2.24-1.67,3-2.59l.74.68c-.84.87-1.85,1.71-2.97,2.45v4.64c0,.42.02.96.07,1.18h-1.08c.03-.21.07-.76.07-1.18v-4.07c-1.15.66-2.66,1.32-4.19,1.79l-.44-.86c1.9-.52,3.59-1.29,4.81-2.06Z"/>
        <path class="cls-2" d="M226.4,912.18h1.09c-.03.22-.07.77-.07,1.1v1.47h2.93c.36,0,.78-.02.96-.04v.94c-.18-.02-.63-.03-.97-.03h-2.92c-.01,2.42-.83,4.2-3.05,5.5l-.86-.64c2.08-.98,2.98-2.61,2.98-4.86h-3.22c-.41,0-.81.01-1.04.03v-.95c.23.02.64.06,1.02.06h3.25v-1.49c0-.33-.04-.87-.1-1.09Z"/>
        <path class="cls-2" d="M234.43,915.99h6.03c.55,0,.95-.03,1.19-.06v1.08c-.22-.01-.68-.06-1.18-.06h-6.04c-.6,0-1.19.02-1.53.06v-1.08c.33.02.91.06,1.53.06Z"/>
        <path class="cls-2" d="M182.94,931.19h7.21c.23,0,.59-.01.86-.06v.91c-.24-.01-.59-.02-.86-.02h-2.99c-.03,1.19-.21,2.19-.65,3.01-.4.73-1.23,1.52-2.17,2l-.81-.6c.86-.35,1.65-.99,2.08-1.68.48-.76.61-1.68.64-2.73h-3.3c-.33,0-.65,0-.95.02v-.91c.3.03.6.06.95.06ZM184.29,928.44h3.81c.32,0,.7-.02,1.02-.07v.91c-.32-.02-.7-.03-1.02-.03h-3.8c-.36,0-.73.01-1.01.03v-.91c.32.03.65.07,1,.07ZM190.59,928.99l-.59.26c-.22-.45-.59-1.11-.89-1.53l.58-.24c.27.38.68,1.06.9,1.51ZM191.83,928.54l-.59.26c-.24-.48-.59-1.1-.91-1.52l.58-.24c.29.4.72,1.09.92,1.5Z"/>
        <path class="cls-2" d="M194.62,929.06v2.49c1.3-.32,3.04-.85,4.18-1.34.33-.14.66-.31.97-.5l.39.88c-.31.13-.7.31-1.03.43-1.23.5-3.14,1.08-4.5,1.43v2.42c0,.56.23.7.77.81.34.06.91.09,1.45.09,1.17,0,2.85-.11,3.76-.35v1c-.96.14-2.61.23-3.81.23-.65,0-1.31-.03-1.76-.11-.85-.15-1.32-.54-1.32-1.43v-6.05c0-.26-.02-.64-.07-.89h1.02c-.03.25-.05.58-.05.89ZM200.52,929.3l-.59.28c-.22-.45-.59-1.11-.89-1.53l.58-.25c.27.4.67,1.07.9,1.51ZM201.75,928.85l-.59.28c-.24-.48-.6-1.1-.91-1.52l.58-.25c.29.41.72,1.09.92,1.5Z"/>
        <path class="cls-2" d="M209.53,931.52c-.09.75-.41,2.93-.56,3.94h1.08c.24,0,.64-.01.87-.03v.89c-.2-.01-.6-.02-.84-.02h-6.03c-.34,0-.59.01-.91.03v-.91c.26.02.58.04.91.04h3.98c.17-.92.48-3.07.52-3.7h-3.5c-.32,0-.61.02-.88.03v-.92c.26.03.59.07.87.07h3.34c.18,0,.45-.03.55-.08l.67.32c-.03.11-.07.25-.08.34Z"/>
        <path class="cls-2" d="M213.88,931.71h6.03c.55,0,.95-.03,1.19-.06v1.08c-.22-.01-.68-.06-1.18-.06h-6.04c-.6,0-1.19.02-1.53.06v-1.08c.33.02.91.06,1.53.06Z"/>
      </g>
    </g>
  </g>
</svg>