<?xml version="1.0" encoding="UTF-8"?>
<svg id="_レイヤー_2" data-name="レイヤー 2" xmlns="http://www.w3.org/2000/svg" viewBox="0 0 180 57">
  <defs>
    <style>
      .cls-1 {
        fill: #231815;
      }

      .cls-2 {
        fill: none;
      }
    </style>
  </defs>
  <g id="_レイヤー_1-2" data-name="レイヤー 1">
    <g>
      <g>
        <g>
          <path class="cls-1" d="M25.04,39.84h-1.38v4.24h-.51v-4.24h-1.37v-.43h3.26v.43Z"/>
          <path class="cls-1" d="M29.43,41.7c0,1.64-.92,2.45-2.02,2.45-1.16,0-1.98-.91-1.98-2.37s.86-2.45,2.04-2.45,1.97.96,1.97,2.37ZM25.96,41.77c0,.99.52,1.96,1.47,1.96s1.47-.94,1.47-2.01c0-.94-.46-1.97-1.46-1.97s-1.48,1.02-1.48,2.01Z"/>
          <path class="cls-1" d="M33.09,39.84h-1.38v4.24h-.51v-4.24h-1.37v-.43h3.26v.43Z"/>
          <path class="cls-1" d="M37.09,44.08h-.54l-.5-1.52h-1.63l-.49,1.52h-.52l1.55-4.67h.59l1.55,4.67ZM35.95,42.16l-.46-1.39c-.1-.32-.18-.61-.24-.89h-.02c-.06.28-.15.58-.23.87l-.47,1.4h1.42Z"/>
          <path class="cls-1" d="M40.36,44.08h-2.44v-4.67h.51v4.24h1.93v.44Z"/>
          <path class="cls-1" d="M44.55,41.58c.44.1.96.47.96,1.18,0,.42-.16.71-.37.92-.31.31-.82.44-1.52.44-.39,0-.67-.03-.86-.05v-4.59c.26-.06.63-.1,1.01-.1.58,0,.96.11,1.23.34.22.19.35.46.35.81,0,.46-.31.86-.79,1.03v.02ZM43.81,41.41c.62,0,1.02-.36,1.02-.83h0c0-.56-.4-.8-1.04-.8-.27,0-.43.02-.52.04v1.59h.55ZM43.27,43.68c.12.02.28.03.5.03.64,0,1.22-.25,1.22-.96s-.61-.96-1.23-.96h-.49v1.88Z"/>
          <path class="cls-1" d="M48.93,44.08h-2.47v-4.67h2.36v.43h-1.85v1.58h1.74v.42h-1.74v1.81h1.96v.43Z"/>
          <path class="cls-1" d="M53.18,44.08h-.54l-.5-1.52h-1.63l-.49,1.52h-.52l1.55-4.67h.59l1.55,4.67ZM52.03,42.16l-.46-1.39c-.1-.32-.18-.61-.24-.89h-.02c-.06.28-.15.58-.23.87l-.47,1.4h1.42Z"/>
          <path class="cls-1" d="M57.23,42.21c0,1.4-.72,1.95-1.66,1.95-.87,0-1.56-.51-1.56-1.92v-2.82h.51v2.83c0,1.06.47,1.49,1.08,1.49.67,0,1.12-.45,1.12-1.49v-2.83h.51v2.79Z"/>
          <path class="cls-1" d="M61.15,39.84h-1.38v4.24h-.51v-4.24h-1.37v-.43h3.26v.43Z"/>
          <path class="cls-1" d="M64.82,39.41l-1.5,2.67v2.01h-.51v-1.99l-1.42-2.68h.58l.65,1.31c.18.35.33.65.47.99h.02c.13-.31.29-.63.47-.99l.67-1.3h.57Z"/>
          <path class="cls-1" d="M69.17,39.99c-.13-.09-.43-.21-.82-.21-.65,0-.9.4-.9.74,0,.46.28.69.91.96.75.32,1.14.71,1.14,1.37,0,.74-.54,1.31-1.55,1.31-.42,0-.88-.13-1.12-.29l.14-.42c.25.17.63.29,1.01.29.63,0,.99-.34.99-.84,0-.46-.25-.74-.86-.99-.71-.26-1.18-.67-1.18-1.32,0-.71.58-1.23,1.43-1.23.44,0,.78.11.96.22l-.15.42Z"/>
          <path class="cls-1" d="M73.81,44.08h-.54l-.5-1.52h-1.63l-.49,1.52h-.52l1.55-4.67h.59l1.55,4.67ZM72.67,42.16l-.46-1.39c-.1-.32-.18-.61-.24-.89h-.02c-.06.28-.15.58-.23.87l-.47,1.4h1.42Z"/>
          <path class="cls-1" d="M77.08,44.08h-2.44v-4.67h.51v4.24h1.93v.44Z"/>
          <path class="cls-1" d="M81.63,41.7c0,1.64-.92,2.45-2.02,2.45-1.16,0-1.98-.91-1.98-2.37s.86-2.45,2.04-2.45,1.97.96,1.97,2.37ZM78.16,41.77c0,.99.52,1.96,1.47,1.96s1.47-.94,1.47-2.01c0-.94-.46-1.97-1.46-1.97s-1.48,1.02-1.48,2.01Z"/>
          <path class="cls-1" d="M85.85,44.08h-.51l-1.49-2.46c-.31-.52-.61-1.04-.84-1.56h-.02c.04.6.05,1.15.05,1.96v2.06h-.48v-4.67h.53l1.51,2.46c.33.56.6,1.04.82,1.53h.01c-.05-.66-.06-1.21-.06-1.95v-2.04h.48v4.67Z"/>
          <path class="cls-1" d="M90.42,41.58c.44.1.96.47.96,1.18,0,.42-.16.71-.37.92-.31.31-.82.44-1.52.44-.39,0-.67-.03-.86-.05v-4.59c.26-.06.63-.1,1.01-.1.58,0,.96.11,1.23.34.22.19.35.46.35.81,0,.46-.31.86-.79,1.03v.02ZM89.67,41.41c.62,0,1.02-.36,1.02-.83h0c0-.56-.4-.8-1.04-.8-.27,0-.43.02-.52.04v1.59h.55ZM89.13,43.68c.12.02.28.03.5.03.64,0,1.22-.25,1.22-.96s-.61-.96-1.23-.96h-.49v1.88Z"/>
          <path class="cls-1" d="M95.34,39.41l-1.5,2.67v2.01h-.51v-1.99l-1.42-2.68h.58l.65,1.31c.18.35.33.65.47.99h.02c.13-.31.29-.63.47-.99l.67-1.3h.57Z"/>
          <path class="cls-1" d="M97.6,39.41h.51v4.67h-.51v-4.67Z"/>
          <path class="cls-1" d="M99.35,40.74c0-.42,0-.96.37-1.34.22-.21.51-.3.77-.3.21,0,.39.05.5.1l-.09.4c-.09-.04-.21-.08-.39-.08-.53,0-.66.49-.66,1.03v.19h.81v.4h-.81v2.94h-.51v-2.94h-.46v-.4h.46Z"/>
          <path class="cls-1" d="M104.02,44.08h-.51v-1.98c0-.55-.2-1.02-.77-1.02-.39,0-.88.33-.88.94v2.05h-.51v-4.91h.51v2.08h.01c.22-.37.63-.59,1.04-.59s1.12.25,1.12,1.39v2.04Z"/>
        </g>
        <path class="cls-1" d="M164.58,36.49c-5.9,7.82-15.25,12.91-25.78,12.91-17.82,0-32.31-14.5-32.31-32.31,0-2.42.29-4.77.8-7.04l-.74-.34c-.54,2.38-.86,4.84-.86,7.38,0,18.26,14.86,33.12,33.12,33.12,10.86,0,20.48-5.28,26.52-13.37l-.74-.34Z"/>
        <g>
          <path class="cls-1" d="M33.15,30.41h-1.59l-1.48-4.45h-4.78l-1.44,4.45h-1.53l4.54-13.74h1.73l4.55,13.74ZM29.77,24.76l-1.35-4.08c-.29-.94-.52-1.8-.7-2.61h-.05c-.18.83-.43,1.7-.69,2.56l-1.37,4.13h4.17Z"/>
          <path class="cls-1" d="M43.77,30.41h-1.5v-5.81c0-1.61-.58-3.01-2.29-3.01-1.28,0-2.58,1.08-2.58,2.8v6.02h-1.5v-7.3c0-1.01-.04-1.75-.07-2.54h1.33l.09,1.61h.04c.49-.96,1.62-1.82,3.16-1.82,1.23,0,3.32.74,3.32,4.08v5.99Z"/>
          <path class="cls-1" d="M54.75,20.56c-.05.7-.09,1.5-.09,2.71v5.74c0,1.71-.04,5.65-4.69,5.65-1.12,0-2.34-.27-3.08-.78l.4-1.17c.63.38,1.59.74,2.76.74,1.8,0,3.12-.96,3.12-3.55v-1.17h-.04c-.5.92-1.55,1.68-3.05,1.68-2.34,0-4.02-2.07-4.02-4.83,0-3.41,2.13-5.21,4.26-5.21,1.68,0,2.56.9,2.98,1.7h.04l.07-1.48h1.35ZM53.15,24.35c0-1.71-1.24-2.8-2.62-2.8-1.73,0-2.94,1.53-2.94,3.91,0,2.09,1.01,3.73,2.92,3.73,1.12,0,2.63-.85,2.63-2.89v-1.97Z"/>
          <path class="cls-1" d="M64.67,29.99c-.56.27-1.59.61-3.08.61-2.87,0-4.58-2.02-4.58-4.96,0-3.08,1.73-5.3,4.38-5.3,3.03,0,3.81,2.78,3.81,4.49,0,.34-.02.59-.04.83h-6.69c.02,2.72,1.57,3.75,3.34,3.75,1.23,0,1.97-.25,2.58-.51l.29,1.08ZM63.71,24.54c.02-1.33-.54-3.07-2.47-3.07-1.8,0-2.6,1.71-2.74,3.07h5.21Z"/>
          <path class="cls-1" d="M69.02,30.41h-1.5v-14.43h1.5v14.43Z"/>
          <path class="cls-1" d="M72.82,18.84c-.58,0-.97-.45-.97-1.03s.41-1.01.99-1.01.97.45.97,1.01c0,.63-.42,1.03-.99,1.03ZM73.58,30.41h-1.5v-9.83h1.5v9.83Z"/>
          <path class="cls-1" d="M84.29,20.56c-.04.78-.07,1.61-.07,2.71v11.16h-1.5v-5.52h-.05c-.49.94-1.55,1.71-3.08,1.71-2.22,0-4-1.97-4-4.98,0-3.7,2.27-5.3,4.29-5.3,1.44,0,2.44.74,2.9,1.7h.05l.05-1.48h1.41ZM82.72,24.47c0-1.62-1.14-2.9-2.65-2.9-1.86,0-2.96,1.66-2.96,3.97,0,2.06.9,3.86,2.9,3.86,1.77,0,2.71-1.68,2.71-2.9v-2.02Z"/>
          <path class="cls-1" d="M94.61,27.79c0,1.01.05,1.86.09,2.62h-1.35l-.07-1.55h-.05c-.45.78-1.46,1.77-3.14,1.77-1.48,0-3.23-.85-3.23-4.24v-5.81h1.5v5.54c0,1.91.56,3.25,2.2,3.25,1.17,0,2.56-.94,2.56-2.67v-6.11h1.5v7.21Z"/>
          <path class="cls-1" d="M104.26,29.99c-.56.27-1.59.61-3.08.61-2.87,0-4.58-2.02-4.58-4.96,0-3.08,1.73-5.3,4.38-5.3,3.03,0,3.81,2.78,3.81,4.49,0,.34-.02.59-.04.83h-6.69c.02,2.72,1.57,3.75,3.34,3.75,1.23,0,1.97-.25,2.58-.51l.29,1.08ZM103.3,24.54c.02-1.33-.54-3.07-2.47-3.07-1.8,0-2.6,1.71-2.74,3.07h5.21Z"/>
        </g>
        <path class="cls-1" d="M128.65,38.03s-.86,1.72-.05,2.83l-.22.22-.35-.4-.24-.81.23-.94.32-.82.32-.08Z"/>
        <g>
          <path class="cls-1" d="M132.6,24.05c-.12.03-.25.15-.4.36-.15.21-.29.45-.43.72-.13.27-.26.52-.38.76-.12.24-.22.42-.31.54-.24.39-.48.76-.72,1.12s-.48.72-.72,1.08c-.51.69-1.03,1.36-1.57,2.02-.54.66-1.14,1.27-1.8,1.84-1.05.87-2.25,1.51-3.61,1.93-1.36.42-2.72.4-4.06-.05h0c-1.04-.4-1.79-1.16-2.17-1.61-.41-.61-.7-1.29-.84-2.04-.15-.82-.16-1.68-.02-2.56.13-.88.37-1.68.7-2.4.08-.19.16-.37.25-.55.35-.72.78-1.4,1.27-2.02.49-.61,1.08-1.12,1.69-1.61.36-.29.72-.57,1.12-.79.34-.19.62-.4,1.08-.57.19.17.49.44.76.59.42.22.86.36,1.39.45.4.06.95.07,1.34-.22.27-.2.41-.52.41-.88,0-.43-.24-.87-.58-1.12-.44-.31-1.07-.43-1.86-.34-.51.05-.97.17-1.41.32-.16-.14-.29-.3-.41-.46-.93-1.53-.58-3.25-.28-4.15.28-.63.59-1.23.97-1.75.45-.63,1.03-1.25,1.75-1.86.72-.61,1.49-1.12,2.31-1.5.82-.39,1.6-.5,2.45-.49.55,0,1.63.18,2.35.78.69.6,1.13,1.24,1.17,1.97.04.67-.1,1.32-.38,1.96-.35.65-1.23,2.02-2.76,2.53,0,0-.57.22-1.05.33,0,0-.44.06-.62.35,0,0-.24.34-.04,1.02,0,0,.13.53.87.53,0,0,1.75.17,3.37-2.57,0,0,.9-1.32.99-2.72.05-.4.05-.79,0-1.18-.09-.72-.33-1.35-.72-1.89-.39-.54-.9-.98-1.53-1.32-.63-.34-1.35-.52-2.15-.52-.78-.03-1.54.07-2.29.31-.75.24-1.44.58-2.09,1.01-.64.43-1.22.95-1.73,1.55-.51.6-.94,1.23-1.3,1.89-.39.69-.64,1.46-.76,2.31-.03.19,0,.37-.02.55l-.03-.08s-.2,1.94.95,3.47c0,.01.01.03.02.04l.15.21c-.4.18-.78.39-1.14.6-.42.25-1.93,1.19-3.03,2.42,0,0-2.78,2.53-2.7,7.14.01.75.23,1.53.51,2.22.42,1,1.1,1.81,2.04,2.36,1.36.79,2.92,1.14,4.48.99,1.09-.1,2.16-.44,3.14-.92,1.11-.54,2.07-1.18,2.87-1.93.69-.66,1.33-1.37,1.93-2.13.6-.76,1.17-1.53,1.71-2.31.24-.36.47-.73.7-1.1.22-.37.46-.75.7-1.15.03-.03.1-.13.22-.29.12-.16.22-.34.31-.54.09-.19.14-.36.16-.49.01-.13-.07-.19-.25-.16ZM123.22,19.44c.6-.07,1.06,0,1.35.21.15.1.26.31.26.51,0,.08-.02.19-.11.26-.14.1-.43.13-.77.08-.46-.07-.82-.19-1.16-.37-.26-.14-.45-.29-.63-.47.34-.1.68-.17,1.05-.21Z"/>
          <path class="cls-1" d="M162.67,24.11c-.12-.04-.24-.04-.36.02-.15.09-.3.29-.45.61-.15.31-.27.55-.36.7-.21.33-.41.64-.61.94-.2.3-.41.6-.65.9-.99,1.38-2.15,2.65-3.5,3.81-1.35,1.17-2.9,1.92-4.67,2.25-.34.06-.67.08-1,.09-1.87-.02-2.77-1.02-3.18-1.79-.23-.53-.37-1.09-.4-1.68-.03-.64.01-1.29.13-1.95,1.14-.09,2.3-.31,3.48-.67,1.18-.36,2.25-.97,3.21-1.84.69-.6,1.28-1.28,1.77-2.04.49-.76.86-1.58,1.1-2.45.09-.3.14-.64.16-1.03.01-.39,0-.77-.07-1.15-.06-.37-.18-.72-.36-1.03-.18-.31-.43-.56-.76-.74-.78-.45-1.54-.55-2.29-.31-.75.24-1.46.64-2.13,1.21-.67.57-1.28,1.21-1.82,1.93-.54.72-.96,1.35-1.26,1.89-.78,1.29-1.39,2.71-1.84,4.26-.45,1.56-.49,3.08-.13,4.58.21.78.5,1.53,1.03,2.13.55.62,1.12.99,1.98,1.19.63.15,1.49.12,2.38-.07.81-.17,1.56-.46,2.24-.79,1.53-.69,2.86-1.64,4.02-2.85,1.15-1.21,2.19-2.49,3.12-3.84l1.21-1.93c.12-.18.12-.29,0-.34ZM147.77,27.19c.03-.12.08-.25.13-.4.21-.78.49-1.58.83-2.4.34-.82.75-1.63,1.21-2.42.46-.79.98-1.53,1.55-2.22.57-.69,1.18-1.27,1.84-1.75.27-.21.58-.38.94-.52.36-.14.7-.2,1.03-.18.33.02.61.13.85.34.24.21.39.54.45.99.09.78-.04,1.54-.38,2.29-.34.75-.73,1.42-1.15,2.02-.84,1.26-1.89,2.32-3.16,3.19-1.27.87-2.67,1.36-4.2,1.48h-.05c.03-.15.06-.29.09-.4Z"/>
          <path class="cls-1" d="M147.41,24.09c-.12.12-.24.27-.36.45-.45.81-.94,1.57-1.48,2.29-1.88,2.66-4.26,4.76-7.08,6.37-.19.08-.39.15-.59.21l1.88-3.84c.9-1.83,1.78-3.65,2.65-5.48.87-1.82,1.75-3.67,2.65-5.52.12-.24.14-.42.07-.54-.08-.12-.2-.17-.36-.16-.17.02-.35.09-.56.22-.21.13-.39.35-.54.65l-.63,1.17c-.39.69-.79,1.35-1.21,1.98-.42.63-.85,1.26-1.3,1.89-.96,1.32-1.99,2.64-3.1,3.97-1.11,1.33-2.36,2.43-3.77,3.3-.33.21-.67.36-1.03.45-.36.09-.67.1-.94.04-.27-.06-.46-.22-.58-.47-.12-.25-.12-.64,0-1.14.18-.78.45-1.52.81-2.22.36-.7.72-1.4,1.08-2.09.69-1.2,1.41-2.38,2.16-3.55.75-1.17,1.51-2.32,2.29-3.46.09-.15.12-.3.09-.45-.03-.15-.1-.26-.22-.34-.12-.08-.26-.1-.43-.09-.16.01-.31.1-.43.25-.15.15-.29.34-.43.58-.13.24-.26.45-.38.63-.48.72-.95,1.44-1.41,2.16-.46.72-.91,1.45-1.32,2.2-.12.21-.31.56-.58,1.05-.27.49-.55,1.05-.85,1.66-.3.61-.57,1.25-.81,1.91-.24.66-.39,1.26-.45,1.82-.06.55,0,1.03.16,1.44.17.4.53.64,1.1.7.42.06.82.03,1.21-.09.39-.12.77-.29,1.14-.52.37-.22.73-.48,1.05-.76.33-.29.63-.56.9-.83.66-.6,1.28-1.24,1.86-1.91.58-.67,1.16-1.35,1.73-2.04.36-.45.72-.9,1.1-1.37.37-.46.73-.95,1.05-1.46-.51,1.08-1.01,2.15-1.5,3.23-.49,1.08-1,2.16-1.5,3.23-.33.72-.65,1.44-.96,2.18-.28.65-.57,1.28-.86,1.9-.35.06-.66.1-.89.12-.14,0-.26.02-.38.03,0,0-.03,0-.03,0h0c-.39.04-.64.08-.64.08v.02c-.23.03-.47.04-.72.09-.87.17-1.68.43-2.45.79-.76.36-1.46.83-2.09,1.41-.63.58-1.12,1.26-1.48,2.04-.42.87-.47,1.66-.16,2.38.31.72.96,1.12,1.95,1.21.87.09,1.66-.12,2.38-.63.72-.51,1.35-1.08,1.89-1.71.69-.81,1.3-1.66,1.84-2.56.51-.85,1.01-1.74,1.5-2.65.03,0,.05,0,.08-.02h0s0,0,0,0c.45-.13,1.16-.47,2.16-1.19.36-.24.71-.48,1.06-.72,1.32-.96,2.53-2.07,3.64-3.32.66-.72,1.26-1.47,1.8-2.24.54-.78,1.05-1.59,1.53-2.42-.06-.33-.15-.43-.27-.31ZM134.44,37.92c-.42.69-.94,1.38-1.55,2.09-.61.7-1.35,1.15-2.22,1.33-.4.08-.77.08-1.12,0-.05-.02-.11-.03-.16-.05-.07-.02-.14-.05-.21-.08-1.02-.51-.92-1.65-.92-1.65l-.11.16c0-.28.03-.57.14-.9.3-.75.73-1.42,1.3-2.02.57-.6,1.23-1.08,1.98-1.46.63-.32,1.3-.55,1.99-.72.94-.21,1.65-.21,1.65-.21.44,0,.84,0,1.18-.02-.56,1.15-1.21,2.32-1.94,3.53Z"/>
        </g>
      </g>
      <rect class="cls-2" width="180" height="57"/>
    </g>
  </g>
</svg>