<?xml version="1.0" encoding="UTF-8"?>
<svg id="_レイヤー_2" data-name="レイヤー 2" xmlns="http://www.w3.org/2000/svg" viewBox="0 0 388.94 945.89">
  <defs>
    <style>
      .cls-1 {
        fill: #231815;
      }

      .cls-2, .cls-3, .cls-4 {
        fill: none;
        stroke: #231815;
      }

      .cls-2, .cls-4 {
        stroke-miterlimit: 10;
      }

      .cls-5 {
        fill: #fff;
      }

      .cls-3 {
        stroke-linecap: round;
        stroke-linejoin: round;
      }

      .cls-4 {
        stroke-width: .5px;
      }
    </style>
  </defs>
  <g id="_レイヤー_1-2" data-name="レイヤー 1">
    <g>
      <line class="cls-2" x1="201.26" y1="98.03" x2="201.26" y2="867.77"/>
      <g>
        <path class="cls-1" d="M6.05,17.93c-1.23,0-2.28-.36-3.15-1.07s-1.54-1.73-2-3.06S.21,10.86.21,8.98s.23-3.49.69-4.83S2.03,1.78,2.91,1.07s1.92-1.07,3.14-1.07,2.26.36,3.13,1.07,1.53,1.74,2,3.08.7,2.95.7,4.83-.23,3.49-.69,4.82-1.12,2.35-1.99,3.06-1.91,1.07-3.14,1.07ZM6.05,16.51c.91,0,1.68-.3,2.32-.9s1.13-1.46,1.47-2.58.51-2.48.51-4.05-.17-2.94-.51-4.07-.83-1.99-1.47-2.59-1.41-.9-2.32-.9c-1.37,0-2.43.67-3.18,2s-1.13,3.19-1.13,5.56c0,1.58.17,2.93.51,4.05s.83,1.99,1.48,2.58,1.42.9,2.33.9Z"/>
        <path class="cls-1" d="M20.03,17.93c-1.23,0-2.28-.36-3.15-1.07s-1.54-1.73-2-3.06-.69-2.94-.69-4.82.23-3.49.69-4.83,1.13-2.37,2-3.08,1.92-1.07,3.14-1.07,2.26.36,3.13,1.07,1.53,1.74,2,3.08.7,2.95.7,4.83-.23,3.49-.69,4.82-1.12,2.35-1.99,3.06-1.91,1.07-3.14,1.07ZM20.03,16.51c.91,0,1.68-.3,2.32-.9s1.13-1.46,1.47-2.58.51-2.48.51-4.05-.17-2.94-.51-4.07-.83-1.99-1.47-2.59-1.41-.9-2.32-.9c-1.37,0-2.43.67-3.18,2s-1.13,3.19-1.13,5.56c0,1.58.17,2.93.51,4.05s.83,1.99,1.48,2.58,1.42.9,2.33.9Z"/>
      </g>
      <g>
        <path class="cls-1" d="M6.05,241.61c-1.23,0-2.28-.36-3.15-1.07s-1.54-1.73-2-3.06-.69-2.94-.69-4.82.23-3.49.69-4.83,1.13-2.37,2-3.08,1.92-1.07,3.14-1.07,2.26.36,3.13,1.07,1.53,1.74,2,3.08.7,2.95.7,4.83-.23,3.49-.69,4.82-1.12,2.35-1.99,3.06-1.91,1.07-3.14,1.07ZM6.05,240.19c.91,0,1.68-.3,2.32-.9s1.13-1.46,1.47-2.58.51-2.48.51-4.05-.17-2.94-.51-4.07-.83-1.99-1.47-2.59-1.41-.9-2.32-.9c-1.37,0-2.43.67-3.18,2s-1.13,3.19-1.13,5.56c0,1.58.17,2.93.51,4.05s.83,1.99,1.48,2.58,1.42.9,2.33.9Z"/>
        <path class="cls-1" d="M20.27,241.61c-1.08,0-2.04-.19-2.89-.58s-1.52-.93-2.01-1.62-.75-1.49-.79-2.4h1.61c.03.63.23,1.19.59,1.66s.85.85,1.45,1.11,1.27.39,2,.39c.81,0,1.53-.15,2.15-.45s1.11-.71,1.45-1.24.52-1.12.52-1.78c0-.71-.18-1.34-.54-1.88s-.87-.96-1.54-1.26-1.46-.45-2.38-.45h-1.02v-1.44h1.02c.75,0,1.42-.14,2-.41s1.04-.66,1.38-1.15.5-1.08.5-1.76c0-.64-.14-1.21-.43-1.7s-.7-.88-1.22-1.15-1.14-.41-1.84-.41-1.29.13-1.86.39-1.02.63-1.37,1.1-.52,1.03-.54,1.68h-1.55c.02-.91.28-1.7.76-2.39s1.12-1.23,1.92-1.62,1.68-.59,2.66-.59,1.91.21,2.67.63,1.34.98,1.75,1.68.61,1.47.6,2.3c0,1-.26,1.85-.8,2.55s-1.27,1.19-2.18,1.46v.12c1.11.22,1.98.71,2.62,1.48s.96,1.7.96,2.81c0,.93-.24,1.76-.73,2.5s-1.16,1.32-2,1.75-1.82.64-2.91.64Z"/>
        <path class="cls-1" d="M29,241.37v-13.1h1.46v2.03h.15c.26-.68.69-1.21,1.31-1.61s1.35-.59,2.21-.59,1.64.21,2.21.64,1.01,1.01,1.3,1.74h.12c.3-.72.78-1.29,1.45-1.73s1.47-.65,2.42-.65c1.22,0,2.18.38,2.89,1.15s1.07,1.88,1.07,3.34v8.78h-1.52v-8.78c0-1.03-.26-1.81-.79-2.33s-1.22-.78-2.09-.78c-1,0-1.77.31-2.31.93s-.81,1.4-.81,2.34v8.61h-1.56v-8.92c0-.88-.25-1.6-.74-2.14s-1.19-.82-2.09-.82c-.6,0-1.14.15-1.62.45s-.86.71-1.14,1.24-.42,1.13-.42,1.82v8.38h-1.51Z"/>
      </g>
      <line class="cls-3" x1="30.61" y1="10.31" x2="388.44" y2="10.31"/>
      <line class="cls-3" x1="50.19" y1="234.42" x2="388.44" y2="234.42"/>
      <g>
        <path class="cls-1" d="M6.05,487.99c-1.23,0-2.28-.36-3.15-1.07s-1.54-1.73-2-3.06-.69-2.94-.69-4.82.23-3.49.69-4.83,1.13-2.37,2-3.08,1.92-1.07,3.14-1.07,2.26.36,3.13,1.07,1.53,1.74,2,3.08.7,2.95.7,4.83-.23,3.49-.69,4.82-1.12,2.35-1.99,3.06-1.91,1.07-3.14,1.07ZM6.05,486.57c.91,0,1.68-.3,2.32-.9s1.13-1.46,1.47-2.58.51-2.48.51-4.05-.17-2.94-.51-4.07-.83-1.99-1.47-2.59-1.41-.9-2.32-.9c-1.37,0-2.43.67-3.18,2s-1.13,3.19-1.13,5.56c0,1.58.17,2.93.51,4.05s.83,1.99,1.48,2.58,1.42.9,2.33.9Z"/>
        <path class="cls-1" d="M15.09,487.76l7.96-15.91v-.11h-9.16v-1.44h10.85v1.51l-7.96,15.95h-1.69Z"/>
        <path class="cls-1" d="M27.25,487.76v-13.1h1.46v2.03h.15c.26-.68.69-1.21,1.31-1.61s1.35-.59,2.21-.59,1.64.21,2.21.64,1.01,1.01,1.3,1.74h.12c.3-.72.78-1.29,1.45-1.73s1.47-.65,2.42-.65c1.22,0,2.18.38,2.89,1.15s1.07,1.88,1.07,3.34v8.78h-1.52v-8.78c0-1.03-.26-1.81-.79-2.33s-1.22-.78-2.09-.78c-1,0-1.77.31-2.31.93s-.81,1.4-.81,2.34v8.61h-1.56v-8.92c0-.88-.25-1.6-.74-2.14s-1.19-.82-2.09-.82c-.6,0-1.14.15-1.62.45s-.86.71-1.14,1.24-.42,1.13-.42,1.82v8.38h-1.51Z"/>
      </g>
      <line class="cls-3" x1="49.13" y1="480.8" x2="388.44" y2="480.8"/>
      <g>
        <path class="cls-1" d="M5.74,818.02v17.46h-1.56v-15.79h-.11l-4.08,2.72v-1.64l4.11-2.75h1.63Z"/>
        <path class="cls-1" d="M10.36,840.38c-.3,0-.58-.02-.84-.07s-.47-.12-.63-.2l.41-1.32.18.05c.72.21,1.33.19,1.83-.08s.93-.87,1.27-1.81l.48-1.34-4.82-13.23h1.65l3.88,11.11h.12l3.89-11.11h1.64l-5.53,15.16c-.23.63-.52,1.16-.86,1.58s-.73.74-1.18.94-.95.31-1.5.31Z"/>
      </g>
      <line class="cls-3" x1="49.13" y1="828.53" x2="388.44" y2="828.53"/>
      <circle class="cls-1" cx="201.19" cy="292.28" r="58"/>
      <circle class="cls-1" cx="201.26" cy="539.23" r="58.07"/>
      <circle class="cls-1" cx="201.19" cy="887.89" r="58"/>
      <circle class="cls-5" cx="201.19" cy="61.41" r="58"/>
      <circle class="cls-4" cx="201.19" cy="61.41" r="58"/>
      <g>
        <path class="cls-5" d="M173.42,279.54v-13.1h7.86v1.41h-6.28v4.57h5.68v1.41h-5.68v5.71h-1.58Z"/>
        <path class="cls-5" d="M185.83,279.77c-.62,0-1.19-.12-1.7-.36s-.91-.58-1.21-1.03-.45-1-.45-1.63c0-.56.11-1.02.33-1.37s.52-.62.89-.83c.37-.2.78-.35,1.23-.45.45-.1.9-.18,1.36-.24.6-.08,1.08-.13,1.46-.18.37-.04.64-.11.82-.21s.26-.27.26-.51v-.05c0-.63-.17-1.11-.51-1.46-.34-.35-.86-.52-1.56-.52s-1.28.16-1.69.47-.7.65-.86,1.01l-1.44-.51c.26-.6.6-1.06,1.03-1.4.43-.33.9-.57,1.41-.7.51-.13,1.01-.2,1.5-.2.32,0,.68.04,1.09.11s.81.23,1.2.46.71.58.97,1.05c.26.47.38,1.09.38,1.87v6.47h-1.51v-1.34h-.07c-.1.21-.27.44-.51.68s-.56.45-.95.62c-.4.17-.88.26-1.46.26ZM186.05,278.41c.6,0,1.1-.12,1.51-.35s.72-.54.93-.91.32-.76.32-1.16v-1.39c-.06.08-.2.15-.42.21s-.46.12-.74.16-.55.09-.81.12-.47.06-.63.07c-.39.05-.76.14-1.1.25s-.61.28-.82.51c-.21.22-.31.53-.31.91,0,.52.19.92.58,1.18s.89.4,1.49.4Z"/>
        <path class="cls-5" d="M199.2,271.93l-1.35.37c-.13-.33-.35-.65-.66-.95s-.8-.45-1.46-.45c-.6,0-1.1.14-1.49.42s-.6.63-.6,1.04c0,.38.14.67.41.9.27.22.7.4,1.28.54l1.46.35c.87.21,1.53.54,1.96.98.43.44.65,1,.65,1.68,0,.56-.16,1.07-.48,1.51s-.77.8-1.34,1.05-1.24.39-2,.39c-1,0-1.83-.22-2.48-.66-.65-.44-1.07-1.08-1.24-1.91l1.42-.35c.13.53.39.92.78,1.19s.89.4,1.51.4c.7,0,1.25-.15,1.67-.45s.63-.66.63-1.08c0-.69-.49-1.15-1.46-1.39l-1.63-.39c-.9-.22-1.56-.55-1.99-.99s-.63-1-.63-1.68c0-.56.16-1.05.47-1.48.31-.43.74-.76,1.29-1.01s1.16-.36,1.85-.36c.98,0,1.74.22,2.3.65.55.43.95.99,1.18,1.69Z"/>
        <path class="cls-5" d="M205.07,269.71v1.28h-5.08v-1.28h5.08ZM201.47,267.37h1.49v9.35c0,.51.11.88.32,1.12s.54.36,1,.36c.1,0,.2,0,.31-.02.11-.01.23-.03.36-.05l.32,1.35c-.14.05-.31.1-.51.13-.2.03-.41.05-.61.05-.79,0-1.43-.23-1.93-.7s-.74-1.08-.74-1.83v-9.76Z"/>
        <path class="cls-5" d="M210.47,283.42c-1.1,0-1.96-.2-2.6-.6s-1.11-.86-1.41-1.37l1.2-.84c.13.18.31.39.52.62s.5.43.86.6.84.25,1.43.25c.79,0,1.45-.19,1.96-.57.52-.38.78-.98.78-1.8v-1.99h-.14c-.11.18-.26.39-.46.65-.2.26-.49.49-.87.69-.38.2-.89.3-1.53.3-.79,0-1.5-.19-2.13-.56s-1.12-.92-1.49-1.63-.55-1.58-.55-2.6.18-1.89.53-2.63.85-1.33,1.48-1.74,1.36-.62,2.19-.62c.64,0,1.15.11,1.53.32.38.21.67.45.87.72.2.27.36.48.47.65h.16v-1.56h1.44v10.11c0,.84-.19,1.53-.57,2.06-.38.53-.89.92-1.53,1.17-.64.25-1.36.37-2.14.37ZM210.42,278.03c.91,0,1.6-.31,2.09-.92.48-.62.72-1.47.72-2.56,0-.71-.11-1.33-.32-1.87s-.53-.96-.95-1.27-.94-.46-1.55-.46-1.17.16-1.6.49-.74.76-.95,1.31-.32,1.15-.32,1.81.11,1.28.32,1.81.54.93.96,1.23.96.44,1.58.44Z"/>
        <path class="cls-5" d="M220.75,279.75c-.94,0-1.76-.21-2.45-.63-.69-.42-1.22-1.01-1.59-1.77s-.55-1.64-.55-2.64.18-1.9.54-2.66.88-1.37,1.53-1.8c.66-.43,1.43-.65,2.32-.65.51,0,1.02.08,1.52.25s.96.45,1.38.83c.41.38.74.88.99,1.51s.37,1.4.37,2.31v.65h-7.58v-1.3h6.76l-.69.49c0-.66-.1-1.24-.31-1.75s-.51-.91-.92-1.2-.91-.44-1.52-.44-1.12.15-1.55.44c-.43.3-.76.68-.99,1.16s-.34.98-.34,1.53v.86c0,.74.13,1.37.39,1.89s.62.91,1.08,1.17,1,.4,1.61.4c.39,0,.75-.06,1.07-.17s.6-.29.83-.52.41-.52.54-.86l1.46.42c-.15.49-.41.92-.77,1.3-.36.37-.81.66-1.34.87s-1.13.31-1.79.31Z"/>
        <path class="cls-5" d="M227.73,266.44v13.1h-1.49v-13.1h1.49Z"/>
        <path class="cls-5" d="M179.67,288.04v13.1h-1.58v-13.1h1.58ZM182.13,301.14h-3.15v-1.41h3.04c1.08,0,1.98-.21,2.69-.62.71-.42,1.24-1.01,1.6-1.78s.53-1.69.53-2.76-.17-1.96-.52-2.73-.86-1.35-1.55-1.77-1.54-.62-2.57-.62h-3.29v-1.41h3.39c1.27,0,2.36.26,3.27.78.9.52,1.6,1.27,2.08,2.25s.72,2.14.72,3.49-.24,2.54-.73,3.52-1.19,1.74-2.12,2.26c-.93.53-2.06.79-3.39.79Z"/>
        <path class="cls-5" d="M194.1,301.35c-.94,0-1.76-.21-2.45-.63-.69-.42-1.22-1.01-1.59-1.77s-.55-1.64-.55-2.64.18-1.9.54-2.66.88-1.37,1.53-1.8c.66-.43,1.43-.65,2.32-.65.51,0,1.02.08,1.52.25s.96.45,1.38.83c.41.38.74.88.99,1.51s.37,1.4.37,2.31v.65h-7.58v-1.3h6.76l-.69.49c0-.66-.1-1.24-.31-1.75s-.51-.91-.92-1.2-.91-.44-1.52-.44-1.12.15-1.55.44c-.43.3-.76.68-.99,1.16s-.34.98-.34,1.53v.86c0,.74.13,1.37.39,1.89s.62.91,1.08,1.17,1,.4,1.61.4c.39,0,.75-.06,1.07-.17s.6-.29.83-.52.41-.52.54-.86l1.46.42c-.15.49-.41.92-.77,1.3-.36.37-.81.66-1.34.87s-1.13.31-1.79.31Z"/>
        <path class="cls-5" d="M204.06,301.35c-.63,0-1.13-.11-1.51-.32s-.67-.46-.88-.73-.36-.5-.47-.67h-.18v1.51h-1.44v-13.1h1.49v4.83h.12c.11-.17.27-.39.47-.65s.49-.51.86-.72.88-.32,1.52-.32c.83,0,1.55.21,2.18.62s1.12,1,1.47,1.76c.35.76.53,1.65.53,2.69s-.18,1.94-.53,2.7-.84,1.35-1.47,1.77-1.35.62-2.17.62ZM203.87,300c.63,0,1.15-.17,1.57-.51s.74-.79.95-1.36c.21-.57.32-1.2.32-1.9s-.11-1.32-.32-1.87-.53-1-.95-1.33-.95-.49-1.59-.49-1.13.15-1.55.46-.73.74-.95,1.29-.32,1.2-.32,1.94.11,1.39.33,1.96.53,1.01.95,1.33c.42.32.93.48,1.53.48Z"/>
        <path class="cls-5" d="M215.88,297.13v-5.82h1.49v9.83h-1.49v-1.67h-.11c-.23.5-.59.92-1.08,1.27-.48.35-1.1.52-1.84.52-.62,0-1.16-.13-1.63-.4s-.85-.68-1.12-1.23c-.27-.55-.41-1.25-.41-2.08v-6.24h1.49v6.15c0,.71.2,1.28.61,1.71.41.43.92.64,1.55.63.38,0,.76-.1,1.15-.29s.72-.48.98-.88.4-.9.4-1.51Z"/>
        <path class="cls-5" d="M223.56,291.31v1.28h-5.08v-1.28h5.08ZM219.95,288.97h1.49v9.35c0,.51.11.88.32,1.12s.54.36,1,.36c.1,0,.2,0,.31-.02.11-.01.23-.03.36-.05l.32,1.35c-.14.05-.31.1-.51.13-.2.03-.41.05-.61.05-.79,0-1.43-.23-1.93-.7s-.74-1.08-.74-1.83v-9.76Z"/>
      </g>
      <g>
        <path class="cls-5" d="M169.56,526.3c-1.11,0-2.11-.27-2.98-.82s-1.56-1.32-2.06-2.32c-.5-1-.75-2.2-.75-3.57s.25-2.58.75-3.59c.5-1.01,1.19-1.78,2.06-2.33s1.87-.82,2.98-.82,2.11.27,2.98.82,1.55,1.32,2.05,2.33.75,2.2.75,3.59-.25,2.57-.75,3.57-1.18,1.78-2.05,2.32-1.86.82-2.98.82ZM169.56,524.82c.79,0,1.51-.2,2.15-.6.64-.4,1.15-.99,1.53-1.77.38-.78.57-1.73.57-2.87s-.19-2.1-.57-2.88c-.38-.78-.89-1.37-1.53-1.78-.64-.4-1.36-.6-2.15-.6s-1.51.2-2.15.6-1.16.99-1.54,1.78-.57,1.74-.57,2.88.19,2.09.57,2.87.89,1.37,1.54,1.77,1.36.6,2.15.6Z"/>
        <path class="cls-5" d="M178.44,520.22v5.91h-1.49v-9.83h1.44v1.55h.14c.23-.5.58-.91,1.05-1.21s1.08-.46,1.82-.46c.66,0,1.24.13,1.74.4s.89.68,1.16,1.23.42,1.24.42,2.08v6.24h-1.49v-6.13c0-.77-.2-1.37-.61-1.81s-.96-.65-1.65-.65c-.48,0-.91.11-1.29.32s-.68.52-.9.91c-.22.4-.33.88-.33,1.46Z"/>
        <path class="cls-5" d="M190.77,526.33c-.94,0-1.76-.21-2.45-.63-.69-.42-1.22-1.01-1.59-1.77s-.55-1.64-.55-2.64.18-1.9.54-2.66.88-1.37,1.53-1.8c.66-.43,1.43-.65,2.32-.65.51,0,1.02.08,1.52.25s.96.45,1.38.83c.41.38.74.88.99,1.51s.37,1.4.37,2.31v.65h-7.58v-1.3h6.76l-.69.49c0-.66-.1-1.24-.31-1.75s-.51-.91-.92-1.2-.91-.44-1.52-.44-1.12.15-1.55.44c-.43.3-.76.68-.99,1.16s-.34.98-.34,1.53v.86c0,.74.13,1.37.39,1.89s.62.91,1.08,1.17,1,.4,1.61.4c.39,0,.75-.06,1.07-.17s.6-.29.83-.52.41-.52.54-.86l1.46.42c-.15.49-.41.92-.77,1.3-.36.37-.81.66-1.34.87s-1.13.31-1.79.31Z"/>
        <path class="cls-5" d="M204.44,526.33c-.91,0-1.7-.22-2.37-.65s-1.18-1.04-1.54-1.8c-.36-.76-.54-1.63-.54-2.61s.18-1.89.55-2.65.89-1.36,1.55-1.8c.66-.43,1.44-.65,2.32-.65.69,0,1.31.13,1.87.38.55.25,1.01.61,1.36,1.08.35.46.57,1,.65,1.62h-1.51c-.08-.3-.21-.58-.41-.84s-.46-.48-.79-.64c-.33-.16-.71-.24-1.16-.24-.59,0-1.1.15-1.54.46s-.78.73-1.03,1.29-.37,1.2-.37,1.95.12,1.42.36,1.98.58,1,1.02,1.31c.44.31.96.47,1.55.47s1.1-.15,1.52-.46.7-.73.83-1.26h1.51c-.08.58-.29,1.1-.63,1.56s-.78.83-1.33,1.1c-.55.27-1.19.41-1.91.41Z"/>
        <path class="cls-5" d="M213.71,526.33c-.88,0-1.66-.21-2.33-.63s-1.19-1.01-1.56-1.78c-.37-.76-.56-1.65-.56-2.65s.19-1.92.56-2.69c.37-.76.89-1.36,1.56-1.78s1.44-.63,2.33-.63,1.67.21,2.34.63,1.19,1.02,1.56,1.78.56,1.66.56,2.69-.19,1.89-.56,2.65-.9,1.35-1.56,1.78-1.45.63-2.34.63ZM213.71,524.98c.68,0,1.24-.17,1.67-.52s.76-.8.97-1.37.32-1.17.32-1.82-.11-1.28-.32-1.85-.53-1.03-.97-1.38-.99-.52-1.67-.52-1.22.17-1.65.52-.76.81-.97,1.38-.32,1.18-.32,1.85.11,1.26.32,1.82.53,1.02.97,1.37.98.52,1.65.52Z"/>
        <path class="cls-5" d="M221.12,513.03v13.1h-1.49v-13.1h1.49Z"/>
        <path class="cls-5" d="M227.03,526.33c-.88,0-1.66-.21-2.33-.63s-1.19-1.01-1.56-1.78c-.37-.76-.56-1.65-.56-2.65s.19-1.92.56-2.69c.37-.76.89-1.36,1.56-1.78s1.44-.63,2.33-.63,1.67.21,2.34.63,1.19,1.02,1.56,1.78.56,1.66.56,2.69-.19,1.89-.56,2.65-.9,1.35-1.56,1.78-1.45.63-2.34.63ZM227.03,524.98c.68,0,1.24-.17,1.67-.52s.76-.8.97-1.37.32-1.17.32-1.82-.11-1.28-.32-1.85-.53-1.03-.97-1.38-.99-.52-1.67-.52-1.22.17-1.65.52-.76.81-.97,1.38-.32,1.18-.32,1.85.11,1.26.32,1.82.53,1.02.97,1.37.98.52,1.65.52Z"/>
        <path class="cls-5" d="M232.95,526.12v-9.83h1.44v1.49h.11c.18-.49.51-.88.98-1.18.47-.3,1-.45,1.59-.45.11,0,.25,0,.41,0s.29,0,.38.01v1.53c-.05-.01-.17-.03-.35-.05s-.38-.04-.58-.04c-.47,0-.9.1-1.27.3s-.67.47-.88.82-.32.74-.32,1.19v6.21h-1.49Z"/>
        <path class="cls-5" d="M179.67,534.63v13.1h-1.58v-13.1h1.58ZM182.13,547.72h-3.15v-1.41h3.04c1.08,0,1.98-.21,2.69-.62.71-.42,1.24-1.01,1.6-1.78s.53-1.69.53-2.76-.17-1.96-.52-2.73-.86-1.35-1.55-1.77-1.54-.62-2.57-.62h-3.29v-1.41h3.39c1.27,0,2.36.26,3.27.78.9.52,1.6,1.27,2.08,2.25s.72,2.14.72,3.49-.24,2.54-.73,3.52-1.19,1.74-2.12,2.26c-.93.53-2.06.79-3.39.79Z"/>
        <path class="cls-5" d="M194.1,547.93c-.94,0-1.76-.21-2.45-.63-.69-.42-1.22-1.01-1.59-1.77s-.55-1.64-.55-2.64.18-1.9.54-2.66.88-1.37,1.53-1.8c.66-.43,1.43-.65,2.32-.65.51,0,1.02.08,1.52.25s.96.45,1.38.83c.41.38.74.88.99,1.51s.37,1.4.37,2.31v.65h-7.58v-1.3h6.76l-.69.49c0-.66-.1-1.24-.31-1.75s-.51-.91-.92-1.2-.91-.44-1.52-.44-1.12.15-1.55.44c-.43.3-.76.68-.99,1.16s-.34.98-.34,1.53v.86c0,.74.13,1.37.39,1.89s.62.91,1.08,1.17,1,.4,1.61.4c.39,0,.75-.06,1.07-.17s.6-.29.83-.52.41-.52.54-.86l1.46.42c-.15.49-.41.92-.77,1.3-.36.37-.81.66-1.34.87s-1.13.31-1.79.31Z"/>
        <path class="cls-5" d="M204.06,547.93c-.63,0-1.13-.11-1.51-.32s-.67-.46-.88-.73-.36-.5-.47-.67h-.18v1.51h-1.44v-13.1h1.49v4.83h.12c.11-.17.27-.39.47-.65s.49-.51.86-.72.88-.32,1.52-.32c.83,0,1.55.21,2.18.62s1.12,1,1.47,1.76c.35.76.53,1.65.53,2.69s-.18,1.94-.53,2.7-.84,1.35-1.47,1.77-1.35.62-2.17.62ZM203.87,546.58c.63,0,1.15-.17,1.57-.51s.74-.79.95-1.36c.21-.57.32-1.2.32-1.9s-.11-1.32-.32-1.87-.53-1-.95-1.33-.95-.49-1.59-.49-1.13.15-1.55.46-.73.74-.95,1.29-.32,1.2-.32,1.94.11,1.39.33,1.96.53,1.01.95,1.33c.42.32.93.48,1.53.48Z"/>
        <path class="cls-5" d="M215.88,543.71v-5.82h1.49v9.83h-1.49v-1.67h-.11c-.23.5-.59.92-1.08,1.27-.48.35-1.1.52-1.84.52-.62,0-1.16-.13-1.63-.4s-.85-.68-1.12-1.23c-.27-.55-.41-1.25-.41-2.08v-6.24h1.49v6.15c0,.71.2,1.28.61,1.71.41.43.92.64,1.55.63.38,0,.76-.1,1.15-.29s.72-.48.98-.88.4-.9.4-1.51Z"/>
        <path class="cls-5" d="M223.56,537.9v1.28h-5.08v-1.28h5.08ZM219.95,535.56h1.49v9.35c0,.51.11.88.32,1.12s.54.36,1,.36c.1,0,.2,0,.31-.02.11-.01.23-.03.36-.05l.32,1.35c-.14.05-.31.1-.51.13-.2.03-.41.05-.61.05-.79,0-1.43-.23-1.93-.7s-.74-1.08-.74-1.83v-9.76Z"/>
      </g>
      <g>
        <path class="cls-5" d="M188.75,859.85v13.1h-1.56l-7.12-10.28h-.14v10.28h-1.58v-13.1h1.53l7.17,10.3h.12v-10.3h1.58Z"/>
        <path class="cls-5" d="M193.76,873.17c-.62,0-1.19-.12-1.7-.36s-.91-.58-1.21-1.03-.45-1-.45-1.63c0-.56.11-1.02.33-1.37s.52-.62.89-.83c.37-.2.78-.35,1.23-.45.45-.1.9-.18,1.36-.24.6-.08,1.08-.13,1.46-.18.37-.04.64-.11.82-.21s.26-.27.26-.51v-.05c0-.63-.17-1.11-.51-1.46-.34-.35-.86-.52-1.56-.52s-1.28.16-1.69.47-.7.65-.86,1.01l-1.44-.51c.26-.6.6-1.06,1.03-1.4.43-.33.9-.57,1.41-.7.51-.13,1.01-.2,1.5-.2.32,0,.68.04,1.09.11s.81.23,1.2.46.71.58.97,1.05c.26.47.38,1.09.38,1.87v6.47h-1.51v-1.34h-.07c-.1.21-.27.44-.51.68s-.56.45-.95.62c-.4.17-.88.26-1.46.26ZM193.99,871.82c.6,0,1.1-.12,1.51-.35s.72-.54.93-.91.32-.76.32-1.16v-1.39c-.06.08-.2.15-.42.21s-.46.12-.74.16-.55.09-.81.12-.47.06-.63.07c-.39.05-.76.14-1.1.25s-.61.28-.82.51c-.21.22-.31.53-.31.91,0,.52.19.92.58,1.18s.89.4,1.49.4Z"/>
        <path class="cls-5" d="M200.95,861.48c-.29,0-.54-.1-.76-.3s-.32-.44-.32-.72.11-.52.32-.72.46-.3.76-.3.54.1.76.3.32.44.32.72-.11.52-.32.72-.46.3-.76.3ZM200.2,872.94v-9.83h1.49v9.83h-1.49Z"/>
        <path class="cls-5" d="M205.12,859.85v13.1h-1.49v-13.1h1.49Z"/>
        <path class="cls-5" d="M207.81,861.48c-.29,0-.54-.1-.76-.3s-.32-.44-.32-.72.11-.52.32-.72.46-.3.76-.3.54.1.76.3.32.44.32.72-.11.52-.32.72-.46.3-.76.3ZM207.05,872.94v-9.83h1.49v9.83h-1.49Z"/>
        <path class="cls-5" d="M217.42,865.33l-1.35.37c-.13-.33-.35-.65-.66-.95s-.8-.45-1.46-.45c-.6,0-1.1.14-1.49.42s-.6.63-.6,1.04c0,.38.14.67.41.9.27.22.7.4,1.28.54l1.46.35c.87.21,1.53.54,1.96.98.43.44.65,1,.65,1.68,0,.56-.16,1.07-.48,1.51s-.77.8-1.34,1.05-1.24.39-2,.39c-1,0-1.83-.22-2.48-.66-.65-.44-1.07-1.08-1.24-1.91l1.42-.35c.13.53.39.92.78,1.19s.89.4,1.51.4c.7,0,1.25-.15,1.67-.45s.63-.66.63-1.08c0-.69-.49-1.15-1.46-1.39l-1.63-.39c-.9-.22-1.56-.55-1.99-.99s-.63-1-.63-1.68c0-.56.16-1.05.47-1.48.31-.43.74-.76,1.29-1.01s1.16-.36,1.85-.36c.98,0,1.74.22,2.3.65.55.43.95.99,1.18,1.69Z"/>
        <path class="cls-5" d="M223.29,863.12v1.28h-5.08v-1.28h5.08ZM219.69,860.78h1.49v9.35c0,.51.11.88.32,1.12s.54.36,1,.36c.1,0,.2,0,.31-.02.11-.01.23-.03.36-.05l.32,1.35c-.14.05-.31.1-.51.13-.2.03-.41.05-.61.05-.79,0-1.43-.23-1.93-.7s-.74-1.08-.74-1.83v-9.76Z"/>
        <path class="cls-5" d="M179.67,881.45v13.1h-1.58v-13.1h1.58ZM182.13,894.54h-3.15v-1.41h3.04c1.08,0,1.98-.21,2.69-.62.71-.42,1.24-1.01,1.6-1.78s.53-1.69.53-2.76-.17-1.96-.52-2.73-.86-1.35-1.55-1.77-1.54-.62-2.57-.62h-3.29v-1.41h3.39c1.27,0,2.36.26,3.27.78.9.52,1.6,1.27,2.08,2.25s.72,2.14.72,3.49-.24,2.54-.73,3.52-1.19,1.74-2.12,2.26c-.93.53-2.06.79-3.39.79Z"/>
        <path class="cls-5" d="M194.1,894.76c-.94,0-1.76-.21-2.45-.63-.69-.42-1.22-1.01-1.59-1.77s-.55-1.64-.55-2.64.18-1.9.54-2.66.88-1.37,1.53-1.8c.66-.43,1.43-.65,2.32-.65.51,0,1.02.08,1.52.25s.96.45,1.38.83c.41.38.74.88.99,1.51s.37,1.4.37,2.31v.65h-7.58v-1.3h6.76l-.69.49c0-.66-.1-1.24-.31-1.75s-.51-.91-.92-1.2-.91-.44-1.52-.44-1.12.15-1.55.44c-.43.3-.76.68-.99,1.16s-.34.98-.34,1.53v.86c0,.74.13,1.37.39,1.89s.62.91,1.08,1.17,1,.4,1.61.4c.39,0,.75-.06,1.07-.17s.6-.29.83-.52.41-.52.54-.86l1.46.42c-.15.49-.41.92-.77,1.3-.36.37-.81.66-1.34.87s-1.13.31-1.79.31Z"/>
        <path class="cls-5" d="M204.06,894.76c-.63,0-1.13-.11-1.51-.32s-.67-.46-.88-.73-.36-.5-.47-.67h-.18v1.51h-1.44v-13.1h1.49v4.83h.12c.11-.17.27-.39.47-.65s.49-.51.86-.72.88-.32,1.52-.32c.83,0,1.55.21,2.18.62s1.12,1,1.47,1.76c.35.76.53,1.65.53,2.69s-.18,1.94-.53,2.7-.84,1.35-1.47,1.77-1.35.62-2.17.62ZM203.87,893.4c.63,0,1.15-.17,1.57-.51s.74-.79.95-1.36c.21-.57.32-1.2.32-1.9s-.11-1.32-.32-1.87-.53-1-.95-1.33-.95-.49-1.59-.49-1.13.15-1.55.46-.73.74-.95,1.29-.32,1.2-.32,1.94.11,1.39.33,1.96.53,1.01.95,1.33c.42.32.93.48,1.53.48Z"/>
        <path class="cls-5" d="M215.88,890.54v-5.82h1.49v9.83h-1.49v-1.67h-.11c-.23.5-.59.92-1.08,1.27-.48.35-1.1.52-1.84.52-.62,0-1.16-.13-1.63-.4s-.85-.68-1.12-1.23c-.27-.55-.41-1.25-.41-2.08v-6.24h1.49v6.15c0,.71.2,1.28.61,1.71.41.43.92.64,1.55.63.38,0,.76-.1,1.15-.29s.72-.48.98-.88.4-.9.4-1.51Z"/>
        <path class="cls-5" d="M223.56,884.72v1.28h-5.08v-1.28h5.08ZM219.95,882.38h1.49v9.35c0,.51.11.88.32,1.12s.54.36,1,.36c.1,0,.2,0,.31-.02.11-.01.23-.03.36-.05l.32,1.35c-.14.05-.31.1-.51.13-.2.03-.41.05-.61.05-.79,0-1.43-.23-1.93-.7s-.74-1.08-.74-1.83v-9.76Z"/>
      </g>
      <g>
        <path class="cls-1" d="M182.32,63.91v-13.1h7.91v1.41h-6.33v4.38h5.91v1.41h-5.91v4.5h6.42v1.41h-8Z"/>
        <path class="cls-1" d="M193.54,58v5.91h-1.49v-9.83h1.44v1.55h.14c.23-.5.58-.91,1.05-1.21s1.08-.46,1.82-.46c.66,0,1.24.13,1.74.4s.89.68,1.16,1.23.42,1.24.42,2.08v6.24h-1.49v-6.13c0-.77-.2-1.37-.61-1.81s-.96-.65-1.65-.65c-.48,0-.91.11-1.29.32s-.68.52-.9.91c-.22.4-.33.88-.33,1.46Z"/>
        <path class="cls-1" d="M206,54.08v1.28h-5.08v-1.28h5.08ZM202.4,51.74h1.49v9.35c0,.51.11.88.32,1.12s.54.36,1,.36c.1,0,.2,0,.31-.02.11-.01.23-.03.36-.05l.32,1.35c-.14.05-.31.1-.51.13-.2.03-.41.05-.61.05-.79,0-1.43-.23-1.93-.7s-.74-1.08-.74-1.83v-9.76Z"/>
        <path class="cls-1" d="M207.44,63.91v-9.83h1.44v1.49h.11c.18-.49.51-.88.98-1.18.47-.3,1-.45,1.59-.45.11,0,.25,0,.41,0s.29,0,.38.01v1.53c-.05-.01-.17-.03-.35-.05s-.38-.04-.58-.04c-.47,0-.9.1-1.27.3s-.67.47-.88.82-.32.74-.32,1.19v6.21h-1.49Z"/>
        <path class="cls-1" d="M214.26,67.58c-.26,0-.49-.01-.69-.05s-.34-.08-.42-.12l.39-1.32.15.04c.5.12.93.09,1.27-.07.34-.17.64-.6.9-1.31l.28-.77-3.62-9.88h1.63l2.71,7.84h.11l2.71-7.84h1.63l-4.17,11.25c-.19.51-.42.93-.69,1.27s-.59.58-.96.74-.77.24-1.23.24Z"/>
      </g>
      <g>
        <path class="cls-1" d="M241.84,366.36v5.45h-1.01v-11.64h1.01v4.29h.1c.2-.45.52-.81.95-1.09.43-.27.97-.41,1.63-.41.59,0,1.11.12,1.55.36s.8.6,1.05,1.07c.25.47.38,1.06.38,1.76v5.65h-1.02v-5.59c0-.72-.2-1.29-.61-1.71-.4-.42-.95-.62-1.63-.62-.46,0-.88.1-1.24.3-.36.2-.65.48-.86.85s-.32.81-.32,1.32Z"/>
        <path class="cls-1" d="M253.06,372c-.75,0-1.42-.19-2-.57s-1.03-.91-1.36-1.59-.49-1.46-.49-2.34.16-1.68.49-2.36.78-1.21,1.36-1.59,1.25-.57,2-.57,1.42.19,2,.57,1.03.91,1.36,1.59.49,1.47.49,2.36-.16,1.66-.49,2.34-.78,1.21-1.36,1.59-1.25.57-2,.57ZM253.06,371.08c.61,0,1.12-.16,1.54-.49.42-.33.74-.76.96-1.31s.33-1.14.33-1.79-.11-1.26-.33-1.8-.54-.98-.96-1.31-.93-.49-1.54-.49-1.12.17-1.54.5c-.42.33-.74.77-.96,1.31-.22.54-.33,1.14-.33,1.8s.11,1.24.33,1.79.54.98.96,1.31c.42.33.93.49,1.54.49Z"/>
        <path class="cls-1" d="M260.56,371.81l-2.64-8.73h1.07l2.07,7.2h.08l2.06-7.2h1.08l2.03,7.2h.08l2.08-7.2h1.06l-2.63,8.73h-1.04l-2.08-7.15h-.1l-2.08,7.15h-1.04Z"/>
        <path class="cls-1" d="M278.44,363.08v.88h-4.16v-.88h4.16ZM275.58,361h1.01v8.53c0,.47.12.83.35,1.07.23.24.56.36.98.36.09,0,.19,0,.29-.02.1-.01.2-.03.31-.06l.22.91c-.12.05-.26.08-.41.11-.16.03-.32.04-.48.04-.65,0-1.18-.2-1.61-.6s-.64-.92-.64-1.57v-8.77Z"/>
        <path class="cls-1" d="M283.63,372c-.75,0-1.42-.19-2-.57s-1.03-.91-1.36-1.59-.49-1.46-.49-2.34.16-1.68.49-2.36.78-1.21,1.36-1.59,1.25-.57,2-.57,1.42.19,2,.57,1.03.91,1.36,1.59.49,1.47.49,2.36-.16,1.66-.49,2.34-.78,1.21-1.36,1.59-1.25.57-2,.57ZM283.63,371.08c.61,0,1.12-.16,1.54-.49.42-.33.74-.76.96-1.31s.33-1.14.33-1.79-.11-1.26-.33-1.8-.54-.98-.96-1.31-.93-.49-1.54-.49-1.12.17-1.54.5c-.42.33-.74.77-.96,1.31-.22.54-.33,1.14-.33,1.8s.11,1.24.33,1.79.54.98.96,1.31c.42.33.93.49,1.54.49Z"/>
        <path class="cls-1" d="M296.32,372c-.71,0-1.34-.19-1.88-.57-.54-.38-.96-.91-1.26-1.59-.3-.68-.45-1.47-.45-2.38s.15-1.68.45-2.36c.3-.68.72-1.2,1.26-1.58.54-.38,1.17-.57,1.88-.57.54,0,.98.1,1.33.29.35.19.64.42.85.7.22.28.38.54.5.8h.09v-4.58h1.01v11.64h-.98v-1.62h-.12c-.11.27-.28.54-.5.82s-.5.52-.86.71-.8.29-1.33.29ZM296.44,371.08c.57,0,1.05-.16,1.45-.47s.7-.74.91-1.29c.21-.54.32-1.17.32-1.86s-.1-1.32-.31-1.86c-.21-.54-.51-.96-.91-1.26s-.88-.46-1.45-.46-1.07.16-1.47.48c-.4.32-.7.75-.91,1.29s-.31,1.14-.31,1.82.1,1.28.31,1.83.51.98.91,1.3c.4.32.89.48,1.46.48Z"/>
        <path class="cls-1" d="M305.81,372c-.81,0-1.52-.19-2.12-.57s-1.06-.91-1.38-1.59c-.32-.68-.48-1.46-.48-2.34s.16-1.66.48-2.34c.32-.68.77-1.22,1.34-1.61s1.24-.59,1.99-.59c.47,0,.92.09,1.37.26.44.17.84.44,1.2.79.35.35.63.8.84,1.35.2.54.3,1.19.3,1.94v.45h-6.82v-.89h6.27l-.46.34c0-.64-.11-1.2-.32-1.7s-.52-.9-.93-1.19c-.4-.29-.88-.44-1.45-.44s-1.05.15-1.47.44c-.42.29-.75.69-.98,1.17-.23.49-.35,1.02-.35,1.6v.52c0,.7.12,1.31.36,1.82.24.52.59.92,1.03,1.21.45.29.97.43,1.57.43.41,0,.77-.06,1.09-.2.31-.13.58-.31.79-.53.21-.22.38-.46.48-.72l.96.32c-.14.36-.35.7-.65,1.01-.3.31-.67.56-1.12.75s-.96.29-1.54.29Z"/>
        <path class="cls-1" d="M316.88,365.01l-.92.25c-.14-.39-.36-.72-.68-1s-.77-.41-1.36-.41-1.07.14-1.45.43c-.38.28-.57.65-.57,1.09,0,.37.13.67.39.91.26.24.66.42,1.2.56l1.32.32c.73.18,1.28.46,1.64.85s.55.87.55,1.45c0,.49-.14.93-.41,1.31-.27.39-.65.69-1.14.91s-1.05.33-1.69.33c-.85,0-1.56-.19-2.11-.58-.55-.39-.91-.94-1.06-1.67l.97-.23c.12.52.36.91.73,1.17s.85.4,1.45.4c.67,0,1.2-.15,1.61-.45.41-.3.61-.68.61-1.12,0-.72-.48-1.2-1.43-1.43l-1.42-.34c-.76-.18-1.32-.47-1.69-.86s-.55-.88-.55-1.46c0-.48.13-.9.39-1.27.26-.37.62-.66,1.08-.87.46-.21.98-.31,1.56-.31.8,0,1.44.18,1.92.55s.82.87,1.03,1.5Z"/>
        <path class="cls-1" d="M319.23,361.59c-.21,0-.39-.07-.54-.21-.15-.14-.22-.32-.22-.52s.07-.37.22-.51.33-.21.54-.21.39.07.53.21.22.31.22.51-.07.38-.22.52c-.15.14-.32.21-.53.21ZM318.72,371.81v-8.73h1.01v8.73h-1.01Z"/>
        <path class="cls-1" d="M325.23,375.27c-.89,0-1.62-.17-2.18-.5-.56-.33-.97-.75-1.23-1.25l.83-.55c.12.22.29.44.5.65s.49.39.83.52c.34.14.75.21,1.25.21.78,0,1.4-.19,1.88-.58.48-.39.71-.98.71-1.8v-1.97h-.1c-.11.27-.28.53-.5.79-.22.26-.5.48-.86.66-.35.17-.79.26-1.32.26-.7,0-1.32-.17-1.86-.52s-.96-.84-1.27-1.48c-.31-.64-.46-1.41-.46-2.29s.15-1.66.45-2.33c.3-.67.72-1.19,1.27-1.57.54-.38,1.17-.57,1.89-.57.54,0,.98.1,1.34.29.35.19.64.42.85.7.21.28.38.54.5.8h.11v-1.67h.97v8.96c0,.74-.16,1.35-.46,1.82s-.74.83-1.28,1.06c-.54.23-1.16.34-1.85.34ZM325.17,370.8c.84,0,1.49-.3,1.96-.91.47-.6.7-1.43.7-2.48,0-.68-.1-1.29-.31-1.82-.21-.53-.51-.95-.91-1.25s-.88-.46-1.45-.46-1.08.16-1.48.47c-.4.32-.7.74-.91,1.27s-.31,1.12-.31,1.78.1,1.26.31,1.77c.21.51.51.91.92,1.2.4.29.89.43,1.47.43Z"/>
        <path class="cls-1" d="M332.01,366.36v5.45h-1.01v-8.73h.98v1.38h.1c.2-.45.52-.81.95-1.09.43-.27.97-.41,1.61-.41.59,0,1.11.12,1.55.37.45.24.79.6,1.04,1.08.25.47.38,1.06.38,1.75v5.65h-1.01v-5.59c0-.71-.2-1.28-.6-1.7s-.94-.63-1.61-.63c-.46,0-.87.1-1.23.3-.36.2-.64.48-.85.85s-.31.81-.31,1.32Z"/>
        <path class="cls-1" d="M239.74,374.99v-1.09h98.95v1.09h-98.95Z"/>
      </g>
      <line class="cls-3" x1="201.15" y1="367.42" x2="236.67" y2="367.42"/>
      <g>
        <path class="cls-1" d="M241.84,393.91v5.45h-1.01v-8.73h.98v1.38h.1c.2-.45.52-.81.95-1.09.43-.27.97-.41,1.61-.41.59,0,1.11.12,1.55.37.45.24.79.6,1.04,1.08.25.47.38,1.06.38,1.75v5.65h-1.01v-5.59c0-.71-.2-1.28-.6-1.7s-.94-.63-1.61-.63c-.46,0-.87.1-1.23.3-.36.2-.64.48-.85.85s-.31.81-.31,1.32Z"/>
        <path class="cls-1" d="M252.05,399.56c-.53,0-1.01-.1-1.45-.31s-.79-.5-1.04-.9c-.26-.39-.39-.87-.39-1.43,0-.43.08-.79.24-1.09.16-.29.39-.53.7-.72.3-.19.66-.34,1.07-.45.41-.11.86-.2,1.36-.25.49-.06.9-.12,1.24-.16.34-.04.6-.12.77-.21.18-.1.27-.26.27-.48v-.2c0-.6-.18-1.07-.53-1.41-.35-.34-.86-.51-1.52-.51s-1.14.14-1.54.41c-.4.28-.67.6-.83.98l-.97-.35c.2-.47.47-.85.82-1.14.35-.29.74-.49,1.17-.62.43-.13.87-.19,1.31-.19.33,0,.68.04,1.04.13.36.09.7.24,1.01.45.31.21.57.51.76.89s.29.87.29,1.45v5.92h-1.02v-1.38h-.06c-.11.26-.29.5-.53.75s-.54.44-.9.6-.78.23-1.27.23ZM252.19,398.64c.54,0,1-.12,1.39-.36.39-.24.7-.56.91-.96.21-.4.32-.84.32-1.31v-1.26c-.08.07-.2.14-.38.2-.17.06-.38.11-.6.15-.23.04-.46.08-.69.11s-.44.06-.61.08c-.49.06-.91.16-1.26.29-.35.13-.62.31-.8.53-.18.22-.28.51-.28.87,0,.53.19.94.57,1.23.38.29.86.44,1.43.44Z"/>
        <path class="cls-1" d="M258.51,389.14c-.21,0-.39-.07-.54-.21-.15-.14-.22-.32-.22-.52s.07-.37.22-.51.33-.21.54-.21.39.07.53.21.22.31.22.51-.07.38-.22.52c-.15.14-.32.21-.53.21ZM258,399.36v-8.73h1.01v8.73h-1.01Z"/>
        <path class="cls-1" d="M262.19,387.72v11.64h-1.01v-11.64h1.01Z"/>
        <path class="cls-1" d="M267.79,390.63v.88h-4.16v-.88h4.16ZM264.93,388.55h1.01v8.53c0,.47.12.83.35,1.07.23.24.56.36.98.36.09,0,.19,0,.29-.02.1-.01.2-.03.31-.06l.22.91c-.12.05-.26.08-.41.11-.16.03-.32.04-.48.04-.65,0-1.18-.2-1.61-.6s-.64-.92-.64-1.57v-8.77Z"/>
        <path class="cls-1" d="M270.09,389.14c-.21,0-.39-.07-.54-.21-.15-.14-.22-.32-.22-.52s.07-.37.22-.51.33-.21.54-.21.39.07.53.21.22.31.22.51-.07.38-.22.52c-.15.14-.32.21-.53.21ZM269.59,399.36v-8.73h1.01v8.73h-1.01Z"/>
        <path class="cls-1" d="M272.77,402.63v-12h.98v1.67h.12c.12-.26.29-.53.5-.8.21-.28.5-.51.85-.7.35-.19.8-.29,1.33-.29.72,0,1.35.19,1.89.57.54.38.96.91,1.26,1.58.3.68.45,1.46.45,2.36s-.15,1.69-.45,2.38-.72,1.21-1.26,1.59c-.54.38-1.17.57-1.89.57-.53,0-.97-.1-1.32-.29s-.64-.43-.86-.71-.38-.55-.5-.82h-.09v4.89h-1.01ZM276.44,398.63c.57,0,1.06-.16,1.46-.48.4-.32.71-.76.91-1.3s.31-1.16.31-1.83-.1-1.28-.31-1.82-.51-.97-.91-1.29c-.4-.32-.89-.48-1.47-.48s-1.06.15-1.45.46-.7.73-.91,1.26c-.21.54-.31,1.16-.31,1.86s.1,1.32.31,1.86c.21.54.51.97.91,1.29s.88.47,1.45.47Z"/>
        <path class="cls-1" d="M285.85,402.63v-12h.98v1.67h.12c.12-.26.29-.53.5-.8.21-.28.5-.51.85-.7.35-.19.8-.29,1.33-.29.72,0,1.35.19,1.89.57.54.38.96.91,1.26,1.58.3.68.45,1.46.45,2.36s-.15,1.69-.45,2.38-.72,1.21-1.26,1.59c-.54.38-1.17.57-1.89.57-.53,0-.97-.1-1.32-.29s-.64-.43-.86-.71-.38-.55-.5-.82h-.09v4.89h-1.01ZM289.52,398.63c.57,0,1.06-.16,1.46-.48.4-.32.71-.76.91-1.3s.31-1.16.31-1.83-.1-1.28-.31-1.82-.51-.97-.91-1.29c-.4-.32-.89-.48-1.47-.48s-1.06.15-1.45.46-.7.73-.91,1.26c-.21.54-.31,1.16-.31,1.86s.1,1.32.31,1.86c.21.54.51.97.91,1.29s.88.47,1.45.47Z"/>
        <path class="cls-1" d="M294.94,399.36v-8.73h.98v1.35h.08c.18-.44.48-.8.92-1.07.43-.27.93-.4,1.47-.4h.28c.1,0,.19,0,.25,0v1.02s-.12-.01-.23-.03c-.11-.01-.24-.02-.38-.02-.45,0-.85.1-1.21.29-.36.19-.64.46-.84.79s-.3.72-.3,1.15v5.63h-1.01Z"/>
        <path class="cls-1" d="M302.58,399.56c-.53,0-1.01-.1-1.45-.31s-.79-.5-1.04-.9c-.26-.39-.39-.87-.39-1.43,0-.43.08-.79.24-1.09.16-.29.39-.53.7-.72.3-.19.66-.34,1.07-.45.41-.11.86-.2,1.36-.25.49-.06.9-.12,1.24-.16.34-.04.6-.12.77-.21.18-.1.27-.26.27-.48v-.2c0-.6-.18-1.07-.53-1.41-.35-.34-.86-.51-1.52-.51s-1.14.14-1.54.41c-.4.28-.67.6-.83.98l-.97-.35c.2-.47.47-.85.82-1.14.35-.29.74-.49,1.17-.62.43-.13.87-.19,1.31-.19.33,0,.68.04,1.04.13.36.09.7.24,1.01.45.31.21.57.51.76.89s.29.87.29,1.45v5.92h-1.02v-1.38h-.06c-.11.26-.29.5-.53.75s-.54.44-.9.6-.78.23-1.27.23ZM302.72,398.64c.54,0,1-.12,1.39-.36.39-.24.7-.56.91-.96.21-.4.32-.84.32-1.31v-1.26c-.08.07-.2.14-.38.2-.17.06-.38.11-.6.15-.23.04-.46.08-.69.11s-.44.06-.61.08c-.49.06-.91.16-1.26.29-.35.13-.62.31-.8.53-.18.22-.28.51-.28.87,0,.53.19.94.57,1.23.38.29.86.44,1.43.44Z"/>
        <path class="cls-1" d="M311.94,399.55c-.78,0-1.46-.2-2.04-.59s-1.03-.93-1.34-1.61-.48-1.45-.48-2.32.16-1.66.48-2.34.77-1.21,1.35-1.61,1.25-.59,2.01-.59c.58,0,1.11.11,1.59.34s.87.54,1.18.95c.31.41.5.88.58,1.43h-1.02c-.07-.33-.21-.63-.42-.9-.21-.27-.47-.49-.79-.65s-.69-.25-1.11-.25c-.56,0-1.05.15-1.48.45-.43.3-.76.72-1,1.26-.24.54-.36,1.16-.36,1.87s.12,1.33.35,1.88.57.97,1,1.28c.43.31.93.46,1.5.46s1.08-.16,1.5-.49.69-.77.81-1.32h1.02c-.07.53-.26.99-.56,1.41-.3.41-.68.74-1.16.97s-1.01.36-1.61.36Z"/>
        <path class="cls-1" d="M320.38,390.63v.88h-4.16v-.88h4.16ZM317.52,388.55h1.01v8.53c0,.47.12.83.35,1.07.23.24.56.36.98.36.09,0,.19,0,.29-.02.1-.01.2-.03.31-.06l.22.91c-.12.05-.26.08-.41.11-.16.03-.32.04-.48.04-.65,0-1.18-.2-1.61-.6s-.64-.92-.64-1.57v-8.77Z"/>
        <path class="cls-1" d="M322.69,389.14c-.21,0-.39-.07-.54-.21-.15-.14-.22-.32-.22-.52s.07-.37.22-.51.33-.21.54-.21.39.07.53.21.22.31.22.51-.07.38-.22.52c-.15.14-.32.21-.53.21ZM322.18,399.36v-8.73h1.01v8.73h-1.01Z"/>
        <path class="cls-1" d="M328.77,399.55c-.78,0-1.46-.2-2.04-.59s-1.03-.93-1.34-1.61-.48-1.45-.48-2.32.16-1.66.48-2.34.77-1.21,1.35-1.61,1.25-.59,2.01-.59c.58,0,1.11.11,1.59.34s.87.54,1.18.95c.31.41.5.88.58,1.43h-1.02c-.07-.33-.21-.63-.42-.9-.21-.27-.47-.49-.79-.65s-.69-.25-1.11-.25c-.56,0-1.05.15-1.48.45-.43.3-.76.72-1,1.26-.24.54-.36,1.16-.36,1.87s.12,1.33.35,1.88.57.97,1,1.28c.43.31.93.46,1.5.46s1.08-.16,1.5-.49.69-.77.81-1.32h1.02c-.07.53-.26.99-.56,1.41-.3.41-.68.74-1.16.97s-1.01.36-1.61.36Z"/>
        <path class="cls-1" d="M337.31,399.55c-.81,0-1.52-.19-2.12-.57s-1.06-.91-1.38-1.59c-.32-.68-.48-1.46-.48-2.34s.16-1.66.48-2.34c.32-.68.77-1.22,1.34-1.61s1.24-.59,1.99-.59c.47,0,.92.09,1.37.26.44.17.84.44,1.2.79.35.35.63.8.84,1.35.2.54.3,1.19.3,1.94v.45h-6.82v-.89h6.27l-.46.34c0-.64-.11-1.2-.32-1.7s-.52-.9-.93-1.19c-.4-.29-.88-.44-1.45-.44s-1.05.15-1.47.44c-.42.29-.75.69-.98,1.17-.23.49-.35,1.02-.35,1.6v.52c0,.7.12,1.31.36,1.82.24.52.59.92,1.03,1.21s.97.43,1.57.43c.41,0,.77-.06,1.09-.2s.58-.31.79-.53.38-.46.48-.72l.96.32c-.14.36-.35.7-.65,1.01s-.67.56-1.12.75-.96.29-1.54.29Z"/>
        <path class="cls-1" d="M239.74,402.54v-1.09h101.7v1.09h-101.7Z"/>
      </g>
      <line class="cls-3" x1="201.15" y1="394.97" x2="236.67" y2="394.97"/>
      <g>
        <path class="cls-1" d="M244.42,136.99v.88h-4.29v-.88h4.29ZM241.47,145.72v-10.01c0-.47.11-.87.33-1.19s.5-.56.86-.73c.35-.17.72-.25,1.11-.25.27,0,.5.02.67.07.18.04.32.09.41.14l-.3.88c-.08-.03-.17-.06-.28-.09-.11-.03-.25-.04-.42-.04-.44,0-.78.12-1.02.38s-.37.6-.37,1.06v9.79h-1Z"/>
        <path class="cls-1" d="M248.38,145.92c-.53,0-1.01-.1-1.45-.31s-.79-.51-1.04-.9c-.26-.39-.39-.87-.39-1.43,0-.43.08-.79.24-1.09.16-.29.39-.53.7-.72.3-.19.66-.34,1.07-.45.41-.11.86-.2,1.36-.25.49-.06.9-.12,1.24-.16.34-.04.6-.12.77-.21.18-.1.27-.26.27-.48v-.2c0-.6-.18-1.07-.53-1.41-.35-.34-.86-.51-1.52-.51s-1.14.14-1.54.41c-.4.28-.67.6-.83.98l-.97-.35c.2-.47.47-.85.82-1.14.35-.29.74-.49,1.17-.62.43-.13.87-.19,1.31-.19.33,0,.68.04,1.04.13.36.09.7.24,1.01.45.31.21.57.51.76.89s.29.87.29,1.45v5.92h-1.02v-1.38h-.06c-.11.26-.29.5-.53.75s-.54.44-.9.6-.78.23-1.27.23ZM248.52,144.99c.54,0,1-.12,1.39-.36.39-.24.7-.56.91-.96.21-.4.32-.84.32-1.31v-1.26c-.08.07-.2.14-.38.2-.17.06-.38.11-.6.15-.23.04-.46.08-.69.11s-.44.06-.61.08c-.49.06-.91.16-1.26.29-.35.13-.62.31-.8.53-.18.22-.28.51-.28.87,0,.53.19.94.57,1.23.38.29.86.44,1.43.44Z"/>
        <path class="cls-1" d="M260.19,138.92l-.92.25c-.14-.39-.36-.72-.68-1s-.77-.41-1.36-.41-1.07.14-1.45.43c-.38.28-.57.65-.57,1.09,0,.37.13.67.39.91.26.24.66.42,1.2.56l1.32.32c.73.18,1.28.46,1.64.85s.55.87.55,1.45c0,.49-.14.93-.41,1.31-.27.39-.65.69-1.14.91s-1.05.33-1.69.33c-.85,0-1.56-.19-2.11-.58-.55-.39-.91-.94-1.06-1.67l.97-.23c.12.52.36.91.73,1.17s.85.4,1.45.4c.67,0,1.2-.15,1.61-.45.41-.3.61-.68.61-1.12,0-.72-.48-1.2-1.43-1.43l-1.42-.34c-.76-.18-1.32-.47-1.69-.86s-.55-.88-.55-1.46c0-.48.13-.9.39-1.27.26-.37.62-.66,1.08-.87.46-.21.98-.31,1.56-.31.8,0,1.44.18,1.92.55s.82.87,1.03,1.5Z"/>
        <path class="cls-1" d="M265.46,136.99v.88h-4.16v-.88h4.16ZM262.6,134.91h1.01v8.53c0,.47.12.83.35,1.07.23.24.56.36.98.36.09,0,.19,0,.29-.02.1-.01.2-.03.31-.06l.22.91c-.12.05-.26.08-.41.11-.16.03-.32.04-.48.04-.65,0-1.18-.2-1.61-.6s-.64-.92-.64-1.57v-8.77Z"/>
        <path class="cls-1" d="M270.59,149.17c-.89,0-1.62-.17-2.18-.5-.56-.33-.97-.75-1.23-1.25l.83-.55c.12.22.29.44.5.65s.49.39.83.52c.34.14.75.21,1.25.21.78,0,1.4-.19,1.88-.58.48-.39.71-.98.71-1.8v-1.97h-.1c-.11.27-.28.53-.5.79-.22.26-.5.48-.86.66-.35.17-.79.26-1.32.26-.7,0-1.32-.17-1.86-.52s-.96-.84-1.27-1.48c-.31-.64-.46-1.41-.46-2.29s.15-1.66.45-2.33c.3-.67.72-1.19,1.27-1.57.54-.38,1.17-.57,1.89-.57.54,0,.98.1,1.34.29.35.19.64.42.85.7.21.28.38.54.5.8h.11v-1.67h.97v8.96c0,.74-.16,1.35-.46,1.82s-.74.83-1.28,1.06c-.54.23-1.16.34-1.85.34ZM270.52,144.71c.84,0,1.49-.3,1.96-.91.47-.6.7-1.43.7-2.48,0-.68-.1-1.29-.31-1.82-.21-.53-.51-.95-.91-1.25s-.88-.46-1.45-.46-1.08.16-1.48.47c-.4.32-.7.74-.91,1.27s-.31,1.12-.31,1.78.1,1.26.31,1.77c.21.51.51.91.92,1.2.4.29.89.43,1.47.43Z"/>
        <path class="cls-1" d="M279.89,145.91c-.81,0-1.52-.19-2.12-.57s-1.06-.91-1.38-1.59c-.32-.68-.48-1.46-.48-2.34s.16-1.66.48-2.34c.32-.68.77-1.22,1.34-1.61s1.24-.59,1.99-.59c.47,0,.92.09,1.37.26.44.17.84.44,1.2.79.35.35.63.8.84,1.35.2.54.3,1.19.3,1.94v.45h-6.82v-.89h6.27l-.46.34c0-.64-.11-1.2-.32-1.7s-.52-.9-.93-1.19c-.4-.29-.88-.44-1.45-.44s-1.05.15-1.47.44c-.42.29-.75.69-.98,1.17-.23.49-.35,1.02-.35,1.6v.52c0,.7.12,1.31.36,1.82.24.52.59.92,1.03,1.21.45.29.97.43,1.57.43.41,0,.77-.06,1.09-.2.31-.13.58-.31.79-.53.21-.22.38-.46.48-.72l.96.32c-.14.36-.35.7-.65,1.01-.3.31-.67.56-1.12.75s-.96.29-1.54.29Z"/>
        <path class="cls-1" d="M286.11,134.08v11.64h-1.01v-11.64h1.01Z"/>
        <path class="cls-1" d="M239.74,148.9v-1.09h47.45v1.09h-47.45Z"/>
      </g>
      <g>
        <path class="cls-1" d="M115.16,146.56v11.64h-1.01v-11.64h1.01Z"/>
        <path class="cls-1" d="M120.87,158.38c-.81,0-1.52-.19-2.12-.57s-1.06-.91-1.38-1.59c-.32-.68-.48-1.46-.48-2.34s.16-1.66.48-2.34c.32-.68.77-1.22,1.34-1.61s1.24-.59,1.99-.59c.47,0,.92.09,1.37.26.44.17.84.44,1.2.79.35.35.63.8.84,1.35.2.54.3,1.19.3,1.94v.45h-6.82v-.89h6.27l-.46.34c0-.64-.11-1.2-.32-1.7s-.52-.9-.93-1.19c-.4-.29-.88-.44-1.45-.44s-1.05.15-1.47.44c-.42.29-.75.69-.98,1.17-.23.49-.35,1.02-.35,1.6v.52c0,.7.12,1.31.36,1.82.24.52.59.92,1.03,1.21.45.29.97.43,1.57.43.41,0,.77-.06,1.09-.2.31-.13.58-.31.79-.53.21-.22.38-.46.48-.72l.96.32c-.14.36-.35.7-.65,1.01-.3.31-.67.56-1.12.75s-.96.29-1.54.29Z"/>
        <path class="cls-1" d="M129.48,158.38c-.78,0-1.46-.2-2.04-.59s-1.03-.93-1.34-1.61-.48-1.45-.48-2.32.16-1.66.48-2.34.77-1.21,1.35-1.61,1.25-.59,2.01-.59c.58,0,1.11.11,1.59.34s.87.54,1.18.95c.31.41.5.88.58,1.43h-1.02c-.07-.33-.21-.63-.42-.9-.21-.27-.47-.49-.79-.65s-.69-.25-1.11-.25c-.56,0-1.05.15-1.48.45-.43.3-.76.72-1,1.26-.24.54-.36,1.16-.36,1.87s.12,1.33.35,1.88.57.97,1,1.28c.43.31.93.46,1.5.46s1.08-.16,1.5-.49.69-.77.81-1.32h1.02c-.07.53-.26.99-.56,1.41-.3.41-.68.74-1.16.97s-1.01.36-1.61.36Z"/>
        <path class="cls-1" d="M137.93,149.46v.88h-4.16v-.88h4.16ZM135.07,147.38h1.01v8.53c0,.47.12.83.35,1.07.23.24.56.36.98.36.09,0,.19,0,.29-.02.1-.01.2-.03.31-.06l.22.91c-.12.05-.26.08-.41.11-.16.03-.32.04-.48.04-.65,0-1.18-.2-1.61-.6s-.64-.92-.64-1.57v-8.77Z"/>
        <path class="cls-1" d="M145.27,154.87v-5.41h1.01v8.73h-1.01v-1.45h-.08c-.21.45-.53.82-.98,1.12-.44.3-.98.45-1.62.44-.56,0-1.05-.12-1.48-.36s-.77-.6-1.02-1.08-.37-1.06-.37-1.75v-5.66h1.01v5.6c0,.68.2,1.22.61,1.64.4.42.92.62,1.54.62.4,0,.78-.09,1.14-.28s.66-.46.9-.83c.23-.36.35-.81.35-1.34Z"/>
        <path class="cls-1" d="M148.45,158.2v-8.73h.98v1.35h.08c.18-.44.48-.8.92-1.07.43-.27.93-.4,1.47-.4h.28c.1,0,.19,0,.25,0v1.02s-.12-.01-.23-.03c-.11-.01-.24-.02-.38-.02-.45,0-.85.1-1.21.29-.36.19-.64.46-.84.79s-.3.72-.3,1.15v5.63h-1.01Z"/>
        <path class="cls-1" d="M157.19,158.38c-.81,0-1.52-.19-2.12-.57s-1.06-.91-1.38-1.59c-.32-.68-.48-1.46-.48-2.34s.16-1.66.48-2.34c.32-.68.77-1.22,1.34-1.61s1.24-.59,1.99-.59c.47,0,.92.09,1.37.26.44.17.84.44,1.2.79.35.35.63.8.84,1.35.2.54.3,1.19.3,1.94v.45h-6.82v-.89h6.27l-.46.34c0-.64-.11-1.2-.32-1.7s-.52-.9-.93-1.19c-.4-.29-.88-.44-1.45-.44s-1.05.15-1.47.44c-.42.29-.75.69-.98,1.17-.23.49-.35,1.02-.35,1.6v.52c0,.7.12,1.31.36,1.82.24.52.59.92,1.03,1.21.45.29.97.43,1.57.43.41,0,.77-.06,1.09-.2.31-.13.58-.31.79-.53.21-.22.38-.46.48-.72l.96.32c-.14.36-.35.7-.65,1.01-.3.31-.67.56-1.12.75s-.96.29-1.54.29Z"/>
        <path class="cls-1" d="M113.07,161.38v-1.09h48.24v1.09h-48.24Z"/>
      </g>
      <line class="cls-3" x1="201.15" y1="141.33" x2="236.67" y2="141.33"/>
      <line class="cls-3" x1="165.64" y1="152.94" x2="201.15" y2="152.94"/>
      <g>
        <path class="cls-1" d="M240.84,162.18h1.01v9.59c0,.49-.08.92-.27,1.29-.18.36-.45.64-.8.84s-.77.29-1.27.29h-.22v-.95h.21c.42,0,.74-.13.98-.38.24-.26.36-.61.36-1.08v-9.59ZM241.34,160.68c-.21,0-.39-.07-.54-.21-.15-.14-.22-.32-.22-.52s.07-.37.22-.51.33-.21.54-.21.39.07.53.21.22.31.22.51-.07.38-.22.52c-.15.14-.32.21-.53.21Z"/>
        <path class="cls-1" d="M247.56,171.1c-.81,0-1.52-.19-2.12-.57s-1.06-.91-1.38-1.59c-.32-.68-.48-1.46-.48-2.34s.16-1.66.48-2.34c.32-.68.77-1.22,1.34-1.61s1.24-.59,1.99-.59c.47,0,.92.09,1.37.26.44.17.84.44,1.2.79.35.35.63.8.84,1.35.2.54.3,1.19.3,1.94v.45h-6.82v-.89h6.27l-.46.34c0-.64-.11-1.2-.32-1.7s-.52-.9-.93-1.19c-.4-.29-.88-.44-1.45-.44s-1.05.15-1.47.44c-.42.29-.75.69-.98,1.17-.23.49-.35,1.02-.35,1.6v.52c0,.7.12,1.31.36,1.82.24.52.59.92,1.03,1.21.45.29.97.43,1.57.43.41,0,.77-.06,1.09-.2.31-.13.58-.31.79-.53.21-.22.38-.46.48-.72l.96.32c-.14.36-.35.7-.65,1.01-.3.31-.67.56-1.12.75s-.96.29-1.54.29Z"/>
        <path class="cls-1" d="M253.77,159.27v11.64h-1.01v-11.64h1.01Z"/>
        <path class="cls-1" d="M256.95,159.27v11.64h-1.01v-11.64h1.01Z"/>
        <path class="cls-1" d="M239.74,174.09v-1.09h18.3v1.09h-18.3Z"/>
      </g>
      <line class="cls-3" x1="201.15" y1="166.52" x2="236.67" y2="166.52"/>
      <g>
        <path class="cls-1" d="M75.8,380.39l-.92.25c-.14-.39-.36-.72-.68-1s-.77-.41-1.36-.41-1.07.14-1.45.43c-.38.28-.57.65-.57,1.09,0,.37.13.67.39.91.26.24.66.42,1.2.56l1.32.32c.73.18,1.28.46,1.64.85s.55.87.55,1.45c0,.49-.14.93-.41,1.31-.27.39-.65.69-1.14.91s-1.05.33-1.69.33c-.85,0-1.56-.19-2.11-.58-.55-.39-.91-.94-1.06-1.67l.97-.23c.12.52.36.91.73,1.17s.85.4,1.45.4c.67,0,1.2-.15,1.61-.45.41-.3.61-.68.61-1.12,0-.72-.48-1.2-1.43-1.43l-1.42-.34c-.76-.18-1.32-.47-1.69-.86s-.55-.88-.55-1.46c0-.48.13-.9.39-1.27.26-.37.62-.66,1.08-.87.46-.21.98-.31,1.56-.31.8,0,1.44.18,1.92.55s.82.87,1.03,1.5Z"/>
        <path class="cls-1" d="M81.08,378.46v.88h-4.16v-.88h4.16ZM78.22,376.38h1.01v8.53c0,.47.12.83.35,1.07.23.24.56.36.98.36.09,0,.19,0,.29-.02.1-.01.2-.03.31-.06l.22.91c-.12.05-.26.08-.41.11-.16.03-.32.04-.48.04-.65,0-1.18-.2-1.61-.6s-.64-.92-.64-1.57v-8.77Z"/>
        <path class="cls-1" d="M86.26,387.38c-.75,0-1.42-.19-2-.57s-1.03-.91-1.36-1.59-.49-1.46-.49-2.34.16-1.68.49-2.36.78-1.21,1.36-1.59,1.25-.57,2-.57,1.42.19,2,.57,1.03.91,1.36,1.59.49,1.47.49,2.36-.16,1.66-.49,2.34-.78,1.21-1.36,1.59-1.25.57-2,.57ZM86.26,386.46c.61,0,1.12-.16,1.54-.49.42-.33.74-.76.96-1.31s.33-1.14.33-1.79-.11-1.26-.33-1.8-.54-.98-.96-1.31-.93-.49-1.54-.49-1.12.17-1.54.5c-.42.33-.74.77-.96,1.31-.22.54-.33,1.14-.33,1.8s.11,1.24.33,1.79.54.98.96,1.31c.42.33.93.49,1.54.49Z"/>
        <path class="cls-1" d="M92.83,381.74v5.45h-1.01v-8.73h.98v1.38h.1c.2-.45.52-.81.95-1.09.43-.27.97-.41,1.61-.41.59,0,1.11.12,1.55.37.45.24.79.6,1.04,1.08.25.47.38,1.06.38,1.75v5.65h-1.01v-5.59c0-.71-.2-1.28-.6-1.7s-.94-.63-1.61-.63c-.46,0-.87.1-1.23.3-.36.2-.64.48-.85.85s-.31.81-.31,1.32Z"/>
        <path class="cls-1" d="M104.14,387.38c-.81,0-1.52-.19-2.12-.57s-1.06-.91-1.38-1.59c-.32-.68-.48-1.46-.48-2.34s.16-1.66.48-2.34c.32-.68.77-1.22,1.34-1.61s1.24-.59,1.99-.59c.47,0,.92.09,1.37.26.44.17.84.44,1.2.79.35.35.63.8.84,1.35.2.54.3,1.19.3,1.94v.45h-6.82v-.89h6.27l-.46.34c0-.64-.11-1.2-.32-1.7s-.52-.9-.93-1.19c-.4-.29-.88-.44-1.45-.44s-1.05.15-1.47.44c-.42.29-.75.69-.98,1.17-.23.49-.35,1.02-.35,1.6v.52c0,.7.12,1.31.36,1.82.24.52.59.92,1.03,1.21.45.29.97.43,1.57.43.41,0,.77-.06,1.09-.2.31-.13.58-.31.79-.53.21-.22.38-.46.48-.72l.96.32c-.14.36-.35.7-.65,1.01-.3.31-.67.56-1.12.75s-.96.29-1.54.29Z"/>
        <path class="cls-1" d="M116.46,387.35c-.71,0-1.34-.14-1.87-.41s-.95-.65-1.25-1.14c-.3-.48-.45-1.03-.45-1.64,0-.44.09-.83.28-1.18s.45-.69.79-1c.34-.32.75-.65,1.22-1.01l1.7-1.26c.4-.29.7-.58.91-.85.21-.28.32-.62.32-1.02s-.15-.74-.44-1.05c-.29-.31-.68-.46-1.14-.46-.32,0-.61.08-.87.24-.26.16-.46.37-.61.63s-.22.53-.22.82c0,.28.07.55.21.82.14.27.33.55.56.84s.49.61.78.96l5.31,6.56h-1.23l-4.63-5.69c-.39-.48-.74-.9-1.04-1.28-.3-.37-.54-.73-.71-1.08-.17-.35-.26-.73-.26-1.14,0-.51.11-.95.34-1.34.23-.39.55-.69.95-.91.41-.22.87-.33,1.4-.33s1.01.11,1.41.33.7.51.92.88c.22.36.33.77.33,1.21,0,.52-.14.98-.41,1.39-.27.4-.66.8-1.18,1.19l-2.12,1.58c-.58.43-.97.84-1.19,1.21s-.32.69-.32.95c0,.41.11.79.32,1.14.21.35.51.62.89.84s.81.32,1.3.32.93-.1,1.36-.29c.43-.19.81-.47,1.15-.82.34-.36.61-.79.82-1.29s.33-1.05.36-1.66l.98.02c-.02.62-.11,1.15-.26,1.58-.15.44-.32.79-.52,1.07s-.37.51-.52.67c-.04.05-.07.09-.1.14-.03.04-.06.09-.09.14-.35.41-.81.74-1.38.98s-1.16.36-1.79.36Z"/>
        <path class="cls-1" d="M126.79,390.46v-12h.98v1.67h.12c.12-.26.29-.53.5-.8.21-.28.5-.51.85-.7.35-.19.8-.29,1.33-.29.72,0,1.35.19,1.89.57.54.38.96.91,1.26,1.58.3.68.45,1.46.45,2.36s-.15,1.69-.45,2.38c-.3.68-.72,1.21-1.26,1.59-.54.38-1.17.57-1.89.57-.53,0-.97-.1-1.32-.29s-.64-.43-.86-.71-.38-.55-.5-.82h-.09v4.89h-1.01ZM130.46,386.46c.57,0,1.06-.16,1.46-.48.4-.32.71-.76.91-1.3s.31-1.16.31-1.83-.1-1.28-.31-1.82-.51-.97-.91-1.29c-.4-.32-.89-.48-1.47-.48s-1.06.15-1.45.46-.7.73-.91,1.26c-.21.54-.31,1.16-.31,1.86s.1,1.32.31,1.86c.21.54.51.97.91,1.29s.88.47,1.45.47Z"/>
        <path class="cls-1" d="M138.31,387.39c-.53,0-1.01-.1-1.45-.31s-.79-.51-1.04-.9c-.26-.39-.39-.87-.39-1.43,0-.43.08-.79.24-1.09.16-.29.39-.53.7-.72.3-.19.66-.34,1.07-.45.41-.11.86-.2,1.36-.25.49-.06.9-.12,1.24-.16.34-.04.6-.12.77-.21.18-.1.27-.26.27-.48v-.2c0-.6-.18-1.07-.53-1.41-.35-.34-.86-.51-1.52-.51s-1.14.14-1.54.41c-.4.28-.67.6-.83.98l-.97-.35c.2-.47.47-.85.82-1.14.35-.29.74-.49,1.17-.62.43-.13.87-.19,1.31-.19.33,0,.68.04,1.04.13.36.09.7.24,1.01.45.31.21.57.51.76.89s.29.87.29,1.45v5.92h-1.02v-1.38h-.06c-.11.26-.29.5-.53.75s-.54.44-.9.6-.78.23-1.27.23ZM138.45,386.46c.54,0,1-.12,1.39-.36.39-.24.7-.56.91-.96.21-.4.32-.84.32-1.31v-1.26c-.08.07-.2.14-.38.2-.17.06-.38.11-.6.15-.23.04-.46.08-.69.11s-.44.06-.61.08c-.49.06-.91.16-1.26.29-.35.13-.62.31-.8.53-.18.22-.28.51-.28.87,0,.53.19.94.57,1.23.38.29.86.44,1.43.44Z"/>
        <path class="cls-1" d="M144.26,387.19v-8.73h.98v1.35h.08c.18-.44.48-.8.92-1.07.43-.27.93-.4,1.47-.4h.28c.1,0,.19,0,.25,0v1.02s-.12-.01-.23-.03c-.11-.01-.24-.02-.38-.02-.45,0-.85.1-1.21.29-.36.19-.64.46-.84.79s-.3.72-.3,1.15v5.63h-1.01Z"/>
        <path class="cls-1" d="M152.9,378.46v.88h-4.16v-.88h4.16ZM150.04,376.38h1.01v8.53c0,.47.12.83.35,1.07.23.24.56.36.98.36.09,0,.19,0,.29-.02.1-.01.2-.03.31-.06l.22.91c-.12.05-.26.08-.41.11-.16.03-.32.04-.48.04-.65,0-1.18-.2-1.61-.6s-.64-.92-.64-1.57v-8.77Z"/>
        <path class="cls-1" d="M160.55,380.39l-.92.25c-.14-.39-.36-.72-.68-1s-.77-.41-1.36-.41-1.07.14-1.45.43c-.38.28-.57.65-.57,1.09,0,.37.13.67.39.91.26.24.66.42,1.2.56l1.32.32c.73.18,1.28.46,1.64.85s.55.87.55,1.45c0,.49-.14.93-.41,1.31-.27.39-.65.69-1.14.91s-1.05.33-1.69.33c-.85,0-1.56-.19-2.11-.58-.55-.39-.91-.94-1.06-1.67l.97-.23c.12.52.36.91.73,1.17s.85.4,1.45.4c.67,0,1.2-.15,1.61-.45.41-.3.61-.68.61-1.12,0-.72-.48-1.2-1.43-1.43l-1.42-.34c-.76-.18-1.32-.47-1.69-.86s-.55-.88-.55-1.46c0-.48.13-.9.39-1.27.26-.37.62-.66,1.08-.87.46-.21.98-.31,1.56-.31.8,0,1.44.18,1.92.55s.82.87,1.03,1.5Z"/>
        <path class="cls-1" d="M68.86,390.37v-1.09h92.45v1.09h-92.45Z"/>
      </g>
      <line class="cls-3" x1="165.64" y1="381.93" x2="201.15" y2="381.93"/>
      <g>
        <path class="cls-1" d="M244.24,621.63c-.78,0-1.46-.2-2.04-.59s-1.03-.93-1.34-1.61-.48-1.45-.48-2.32.16-1.66.48-2.34.77-1.21,1.35-1.61,1.25-.59,2.01-.59c.58,0,1.11.11,1.59.34s.87.54,1.18.95c.31.41.5.88.58,1.43h-1.02c-.07-.33-.21-.63-.42-.9-.21-.27-.47-.49-.79-.65s-.69-.25-1.11-.25c-.56,0-1.05.15-1.48.45-.43.3-.76.72-1,1.26-.24.54-.36,1.16-.36,1.87s.12,1.33.35,1.88.57.97,1,1.28c.43.31.93.46,1.5.46s1.08-.16,1.5-.49.69-.77.81-1.32h1.02c-.07.53-.26,1-.56,1.41-.3.41-.68.74-1.16.97s-1.01.36-1.61.36Z"/>
        <path class="cls-1" d="M252.64,621.63c-.75,0-1.42-.19-2-.57s-1.03-.91-1.36-1.59-.49-1.46-.49-2.34.16-1.68.49-2.36.78-1.21,1.36-1.59,1.25-.57,2-.57,1.42.19,2,.57,1.03.91,1.36,1.59.49,1.47.49,2.36-.16,1.66-.49,2.34-.78,1.21-1.36,1.59-1.25.57-2,.57ZM252.64,620.71c.61,0,1.12-.16,1.54-.49.42-.33.74-.76.96-1.31s.33-1.14.33-1.79-.11-1.26-.33-1.8-.54-.98-.96-1.31-.93-.49-1.54-.49-1.12.17-1.54.5c-.42.33-.74.77-.96,1.31-.22.54-.33,1.14-.33,1.8s.11,1.24.33,1.79.54.98.96,1.31c.42.33.93.49,1.54.49Z"/>
        <path class="cls-1" d="M263.75,618.12v-5.41h1.01v8.73h-1.01v-1.45h-.08c-.21.45-.53.82-.98,1.12-.44.3-.98.45-1.62.44-.56,0-1.05-.12-1.48-.36s-.77-.6-1.02-1.08-.37-1.06-.37-1.75v-5.66h1.01v5.6c0,.68.2,1.22.61,1.64.4.42.92.62,1.54.62.4,0,.78-.09,1.14-.28s.66-.46.9-.83c.23-.36.35-.81.35-1.34Z"/>
        <path class="cls-1" d="M266.93,621.45v-8.73h.98v1.35h.08c.18-.44.48-.8.92-1.07.43-.27.93-.4,1.47-.4h.28c.1,0,.19,0,.25,0v1.02s-.12-.01-.23-.03c-.11-.01-.24-.02-.38-.02-.45,0-.85.1-1.21.29-.36.19-.64.46-.84.79s-.3.72-.3,1.15v5.63h-1.01Z"/>
        <path class="cls-1" d="M277.99,614.64l-.92.25c-.14-.39-.36-.72-.68-1s-.77-.41-1.36-.41-1.07.14-1.45.43c-.38.28-.57.65-.57,1.09,0,.37.13.67.39.91.26.24.66.42,1.2.56l1.32.32c.73.18,1.28.46,1.64.85s.55.87.55,1.45c0,.49-.14.93-.41,1.31-.27.39-.65.69-1.14.91s-1.05.33-1.69.33c-.85,0-1.56-.19-2.11-.58-.55-.39-.91-.94-1.06-1.67l.97-.23c.12.52.36.91.73,1.17s.85.4,1.45.4c.67,0,1.2-.15,1.61-.45.41-.3.61-.68.61-1.12,0-.72-.48-1.2-1.43-1.43l-1.42-.34c-.76-.18-1.32-.47-1.69-.86s-.55-.88-.55-1.46c0-.48.13-.9.39-1.27.26-.37.62-.66,1.08-.87.46-.21.98-.31,1.56-.31.8,0,1.44.18,1.92.55s.82.87,1.03,1.5Z"/>
        <path class="cls-1" d="M283.37,621.63c-.81,0-1.52-.19-2.12-.57s-1.06-.91-1.38-1.59c-.32-.68-.48-1.46-.48-2.34s.16-1.66.48-2.34c.32-.68.77-1.22,1.34-1.61s1.24-.59,1.99-.59c.47,0,.92.09,1.37.26.44.17.84.44,1.2.79.35.35.63.8.84,1.35.2.54.3,1.19.3,1.94v.45h-6.82v-.89h6.27l-.46.34c0-.64-.11-1.2-.32-1.7s-.52-.9-.93-1.19c-.4-.29-.88-.44-1.45-.44s-1.05.15-1.47.44c-.42.29-.75.69-.98,1.17-.23.49-.35,1.02-.35,1.6v.52c0,.7.12,1.31.36,1.82.24.52.59.92,1.03,1.21.45.29.97.43,1.57.43.41,0,.77-.06,1.09-.2.31-.13.58-.31.79-.53.21-.22.38-.46.48-.72l.96.32c-.14.36-.35.7-.65,1.01-.3.31-.67.56-1.12.75s-.96.29-1.54.29Z"/>
        <path class="cls-1" d="M239.74,624.63v-1.09h47.75v1.09h-47.75Z"/>
      </g>
      <g>
        <path class="cls-1" d="M92.55,633.06v.88h-4.29v-.88h4.29ZM89.61,641.8v-10.01c0-.47.11-.87.33-1.19s.5-.56.86-.73c.35-.17.72-.25,1.11-.25.27,0,.5.02.67.07.18.04.32.09.41.14l-.3.88c-.08-.03-.17-.06-.28-.09-.11-.03-.25-.04-.42-.04-.44,0-.78.12-1.02.38s-.37.6-.37,1.06v9.79h-1Z"/>
        <path class="cls-1" d="M97.47,641.98c-.75,0-1.42-.19-2-.57s-1.03-.91-1.36-1.59-.49-1.46-.49-2.34.16-1.68.49-2.36.78-1.21,1.36-1.59,1.25-.57,2-.57,1.42.19,2,.57,1.03.91,1.36,1.59.49,1.47.49,2.36-.16,1.66-.49,2.34-.78,1.21-1.36,1.59-1.25.57-2,.57ZM97.47,641.06c.61,0,1.12-.16,1.54-.49.42-.33.74-.76.96-1.31s.33-1.14.33-1.79-.11-1.26-.33-1.8-.54-.98-.96-1.31-.93-.49-1.54-.49-1.12.17-1.54.5c-.42.33-.74.77-.96,1.31-.22.54-.33,1.14-.33,1.8s.11,1.24.33,1.79.54.98.96,1.31c.42.33.93.49,1.54.49Z"/>
        <path class="cls-1" d="M106.42,641.98c-.75,0-1.42-.19-2-.57s-1.03-.91-1.36-1.59-.49-1.46-.49-2.34.16-1.68.49-2.36.78-1.21,1.36-1.59,1.25-.57,2-.57,1.42.19,2,.57,1.03.91,1.36,1.59.49,1.47.49,2.36-.16,1.66-.49,2.34-.78,1.21-1.36,1.59-1.25.57-2,.57ZM106.42,641.06c.61,0,1.12-.16,1.54-.49.42-.33.74-.76.96-1.31s.33-1.14.33-1.79-.11-1.26-.33-1.8-.54-.98-.96-1.31-.93-.49-1.54-.49-1.12.17-1.54.5c-.42.33-.74.77-.96,1.31-.22.54-.33,1.14-.33,1.8s.11,1.24.33,1.79.54.98.96,1.31c.42.33.93.49,1.54.49Z"/>
        <path class="cls-1" d="M115.41,633.06v.88h-4.16v-.88h4.16ZM112.55,630.98h1.01v8.53c0,.47.12.83.35,1.07.23.24.56.36.98.36.09,0,.19,0,.29-.02.1-.01.2-.03.31-.06l.22.91c-.12.05-.26.08-.41.11-.16.03-.32.04-.48.04-.65,0-1.18-.2-1.61-.6s-.64-.92-.64-1.57v-8.77Z"/>
        <path class="cls-1" d="M128.6,641.98c-.75,0-1.42-.19-2-.57s-1.03-.91-1.36-1.59-.49-1.46-.49-2.34.16-1.68.49-2.36.78-1.21,1.36-1.59,1.25-.57,2-.57,1.42.19,2,.57,1.03.91,1.36,1.59.49,1.47.49,2.36-.16,1.66-.49,2.34-.78,1.21-1.36,1.59-1.25.57-2,.57ZM128.6,641.06c.61,0,1.12-.16,1.54-.49.42-.33.74-.76.96-1.31s.33-1.14.33-1.79-.11-1.26-.33-1.8-.54-.98-.96-1.31-.93-.49-1.54-.49-1.12.17-1.54.5c-.42.33-.74.77-.96,1.31-.22.54-.33,1.14-.33,1.8s.11,1.24.33,1.79.54.98.96,1.31c.42.33.93.49,1.54.49Z"/>
        <path class="cls-1" d="M134.16,641.8v-8.73h.98v1.35h.08c.18-.44.48-.8.92-1.07.43-.27.93-.4,1.47-.4h.28c.1,0,.19,0,.25,0v1.02s-.12-.01-.23-.03c-.11-.01-.24-.02-.38-.02-.45,0-.85.1-1.21.29-.36.19-.64.46-.84.79s-.3.72-.3,1.15v5.63h-1.01Z"/>
        <path class="cls-1" d="M142.5,641.98c-.71,0-1.34-.19-1.88-.57-.54-.38-.96-.91-1.26-1.59-.3-.68-.45-1.47-.45-2.38s.15-1.68.45-2.36c.3-.68.72-1.2,1.26-1.58.54-.38,1.17-.57,1.88-.57.54,0,.98.1,1.33.29.35.19.64.42.85.7.22.28.38.54.5.8h.09v-4.58h1.01v11.64h-.98v-1.62h-.12c-.11.27-.28.54-.5.82s-.5.52-.86.71-.8.29-1.33.29ZM142.62,641.06c.57,0,1.05-.16,1.45-.47s.7-.74.91-1.29c.21-.54.32-1.17.32-1.86s-.1-1.32-.31-1.86c-.21-.54-.51-.96-.91-1.26s-.88-.46-1.45-.46-1.07.16-1.47.48c-.4.32-.7.75-.91,1.29s-.31,1.14-.31,1.82.1,1.28.31,1.83.51.98.91,1.3c.4.32.89.48,1.46.48Z"/>
        <path class="cls-1" d="M151.98,641.98c-.81,0-1.52-.19-2.12-.57s-1.06-.91-1.38-1.59c-.32-.68-.48-1.46-.48-2.34s.16-1.66.48-2.34c.32-.68.77-1.22,1.34-1.61s1.24-.59,1.99-.59c.47,0,.92.09,1.37.26.44.17.84.44,1.2.79.35.35.63.8.84,1.35.2.54.3,1.19.3,1.94v.45h-6.82v-.89h6.27l-.46.34c0-.64-.11-1.2-.32-1.7s-.52-.9-.93-1.19c-.4-.29-.88-.44-1.45-.44s-1.05.15-1.47.44c-.42.29-.75.69-.98,1.17-.23.49-.35,1.02-.35,1.6v.52c0,.7.12,1.31.36,1.82.24.52.59.92,1.03,1.21.45.29.97.43,1.57.43.41,0,.77-.06,1.09-.2.31-.13.58-.31.79-.53.21-.22.38-.46.48-.72l.96.32c-.14.36-.35.7-.65,1.01-.3.31-.67.56-1.12.75s-.96.29-1.54.29Z"/>
        <path class="cls-1" d="M157.19,641.8v-8.73h.98v1.35h.08c.18-.44.48-.8.92-1.07.43-.27.93-.4,1.47-.4h.28c.1,0,.19,0,.25,0v1.02s-.12-.01-.23-.03c-.11-.01-.24-.02-.38-.02-.45,0-.85.1-1.21.29-.36.19-.64.46-.84.79s-.3.72-.3,1.15v5.63h-1.01Z"/>
        <path class="cls-1" d="M87.88,644.98v-1.09h73.43v1.09h-73.43Z"/>
      </g>
      <line class="cls-3" x1="201.15" y1="617.05" x2="236.67" y2="617.05"/>
      <line class="cls-3" x1="165.64" y1="636.54" x2="201.15" y2="636.54"/>
      <g>
        <path class="cls-1" d="M196.87,72.54c0,1.95.25,6.09,4.57,8.66-.19.13-.52.48-.66.68-2.71-1.64-3.87-4.05-4.37-6.13-.81,2.85-2.2,4.85-4.39,6.14-.15-.17-.52-.51-.74-.65,2.43-1.27,3.78-3.48,4.46-6.56l.48.08c-.08-.51-.12-.99-.14-1.41h-2.71v-.81h3.5Z"/>
        <path class="cls-1" d="M205.72,78.76c-.29-.32-.89-.94-1.39-1.4v4.55h-.8v-4.27c-.55.55-1.12,1.01-1.68,1.38-.09-.21-.3-.58-.43-.74,1.31-.76,2.68-2.15,3.44-3.61h-3.06v-.75h1.73v-2.05h.8v2.05h.96l.14-.03.46.31c-.34.85-.85,1.66-1.43,2.4.52.41,1.49,1.25,1.76,1.5l-.51.66ZM211.78,80.8v.8h-6.16v-.8h2.78v-4.57h-2.35v-.79h2.35v-3.49h.81v3.49h2.34v.79h-2.34v4.57h2.56Z"/>
      </g>
      <g>
        <path class="cls-5" d="M155.8,310.98c-.23,1.16-.77,2.93-1.64,4.06-1,1.29-2.31,2.31-4.33,2.95l-.75-.82c2.13-.54,3.37-1.47,4.29-2.65.78-1,1.29-2.53,1.44-3.59h-5.62c-.44,0-.81.02-1.1.03v-.97c.31.03.74.07,1.1.07h5.52c.17,0,.37,0,.58-.05l.67.43c-.08.15-.12.34-.17.55Z"/>
        <path class="cls-5" d="M165.6,312.49c-.32.52-1.24,1.89-2.23,2.57l-.72-.5c.78-.47,1.57-1.44,1.89-1.98-.62,0-4.83-.01-5.26-.01-.33,0-.69.02-1.03.04v-.91c.31.04.7.08,1.03.08h5.43c.17,0,.46-.02.61-.05l.5.46c-.07.08-.17.21-.22.3ZM159.56,318.62l-.78-.62c.24-.09.51-.2.76-.37,1.49-1,1.69-2.21,1.69-3.65,0-.21-.03-.43-.07-.65h.96c-.02,2.34-.24,4-2.56,5.29Z"/>
        <path class="cls-5" d="M173.66,310.87c-.37.95-1.07,2.23-1.85,3.22,1.16.99,2.5,2.42,3.21,3.29l-.77.66c-.74-.97-1.9-2.27-3.03-3.27-1.18,1.27-2.66,2.48-4.29,3.21l-.7-.74c1.77-.69,3.4-2,4.53-3.27.75-.85,1.55-2.15,1.83-3.06h-4.29c-.38,0-.99.04-1.11.06v-1c.15.02.78.07,1.11.07h4.25c.36,0,.65-.03.83-.09l.56.43c-.07.09-.21.33-.27.48Z"/>
        <path class="cls-5" d="M178.16,310.38c0-.31-.02-.8-.09-1.14h1.08c-.03.34-.08.81-.08,1.14v1.79c1.45.44,3.54,1.23,4.7,1.82l-.37.94c-1.2-.65-3.1-1.39-4.32-1.77.01,1.65.01,3.31.01,3.63,0,.34.02.94.07,1.3h-1.07c.05-.35.08-.89.08-1.3v-6.4Z"/>
        <path class="cls-5" d="M188.18,313.34l-.5.77c-.55-.4-1.74-1.17-2.41-1.51l.5-.75c.65.35,1.94,1.14,2.41,1.49ZM189.46,315.97c1.83-1.05,3.28-2.49,4.17-4.04l.53.91c-.96,1.47-2.47,2.89-4.24,3.93-1.1.65-2.62,1.16-3.64,1.36l-.51-.89c1.2-.21,2.57-.65,3.69-1.28ZM189.82,310.93l-.52.76c-.53-.41-1.73-1.2-2.37-1.57l.5-.74c.65.36,1.91,1.21,2.39,1.55ZM193.15,311.25l-.63.29c-.28-.57-.64-1.23-1-1.74l.6-.25c.28.4.77,1.19,1.02,1.71ZM194.62,310.7l-.63.29c-.3-.58-.67-1.21-1.04-1.71l.62-.26c.3.39.78,1.18,1.06,1.68Z"/>
        <path class="cls-5" d="M197.3,312.1h5.06c.27,0,.55-.02.78-.04v.88c-.24-.02-.53-.03-.78-.03h-2.15v4.05h2.66c.26,0,.52-.02.74-.06v.92c-.22-.02-.56-.03-.74-.03h-6.08c-.24,0-.53.01-.79.03v-.92c.25.03.54.06.79.06h2.53v-4.05h-2.02c-.18,0-.53.01-.76.03v-.88c.23.03.58.04.76.04Z"/>
        <path class="cls-5" d="M207.43,314.76c.32-1,.33-3.2.33-4.42,0-.33-.03-.57-.08-.8h1.01c-.01.13-.05.46-.05.79,0,1.22-.04,3.58-.34,4.68-.33,1.18-1.03,2.26-1.96,3.03l-.82-.56c.92-.66,1.58-1.64,1.91-2.71ZM210.63,316.9v-6.59c0-.42-.05-.74-.07-.81h1.01c-.01.08-.04.4-.04.81v6.35c1.01-.46,2.37-1.46,3.21-2.71l.52.75c-.95,1.29-2.48,2.42-3.75,3.05-.18.1-.3.19-.37.25l-.58-.48c.04-.18.08-.4.08-.62Z"/>
        <path class="cls-5" d="M217.22,312.52h7.21c.23,0,.59-.01.86-.05v.91c-.24-.01-.59-.02-.86-.02h-2.99c-.03,1.19-.21,2.19-.65,3.01-.4.73-1.23,1.52-2.17,2l-.81-.61c.86-.35,1.65-.99,2.08-1.68.48-.76.6-1.68.64-2.73h-3.3c-.33,0-.65,0-.95.02v-.91c.3.03.6.05.95.05ZM218.57,309.77h3.81c.32,0,.7-.02,1.02-.07v.91c-.32-.02-.7-.03-1.02-.03h-3.8c-.36,0-.73.01-1.01.03v-.91c.32.03.65.07,1,.07ZM224.88,310.32l-.59.26c-.22-.45-.59-1.11-.89-1.53l.58-.24c.27.39.68,1.06.9,1.51ZM226.11,309.87l-.59.26c-.24-.48-.59-1.1-.91-1.52l.58-.24c.29.4.71,1.09.92,1.5Z"/>
        <path class="cls-5" d="M228.91,310.39v2.49c1.3-.32,3.04-.85,4.18-1.34.33-.14.66-.31.97-.5l.38.88c-.31.13-.7.31-1.03.43-1.23.5-3.13,1.08-4.5,1.43v2.42c0,.56.23.7.77.81.34.05.91.09,1.45.09,1.17,0,2.85-.11,3.76-.35v1c-.96.14-2.61.23-3.81.23-.65,0-1.31-.03-1.76-.11-.85-.15-1.32-.54-1.32-1.43v-6.05c0-.26-.02-.64-.07-.89h1.02c-.03.25-.05.58-.05.89ZM234.8,310.63l-.59.27c-.22-.45-.59-1.11-.89-1.53l.58-.25c.28.4.67,1.07.9,1.51ZM236.03,310.18l-.59.28c-.24-.48-.61-1.1-.91-1.52l.58-.25c.29.41.71,1.09.92,1.5Z"/>
        <path class="cls-5" d="M243.81,312.85c-.09.75-.41,2.93-.56,3.94h1.08c.24,0,.64-.01.87-.03v.89c-.2-.01-.6-.02-.84-.02h-6.03c-.34,0-.59.01-.91.03v-.91c.26.02.58.04.91.04h3.98c.17-.92.48-3.07.52-3.7h-3.5c-.32,0-.61.02-.88.03v-.92c.26.03.59.07.87.07h3.34c.18,0,.45-.03.55-.08l.67.32c-.03.11-.07.25-.08.34Z"/>
        <path class="cls-5" d="M248.16,313.04h6.03c.55,0,.95-.03,1.19-.05v1.08c-.22-.01-.68-.05-1.18-.05h-6.04c-.61,0-1.19.02-1.53.05v-1.08c.33.02.91.05,1.53.05Z"/>
      </g>
      <g>
        <path class="cls-5" d="M164.5,556.31c-.2,1.3-.43,2.86-1.22,4.1-.89,1.41-2.4,2.53-4.17,3.1l-.75-.76c1.62-.43,3.19-1.39,4.09-2.79.63-.98.93-2.39,1.04-3.69h-6.07v2.2c0,.17.01.44.03.7h-1c.03-.26.04-.5.04-.7v-2.34c0-.25-.01-.5-.04-.74.3.02.7.03,1.18.03h5.64c.24,0,.51-.02.69-.07l.67.43c-.04.11-.12.41-.14.52Z"/>
        <path class="cls-5" d="M171.05,560.83c1.69-1.07,3.04-2.7,3.67-4.05l.53.94c-.75,1.38-2.04,2.87-3.7,3.92-1.1.69-2.49,1.36-4.32,1.71l-.58-.9c1.93-.29,3.36-.96,4.4-1.61ZM170.4,557.34l-.69.69c-.55-.57-1.92-1.75-2.74-2.3l.63-.67c.78.52,2.19,1.66,2.81,2.28Z"/>
        <path class="cls-5" d="M181.17,555.37c-.01.4-.03.77-.05,1.13h2.62c.3,0,.52-.02.7-.05l.62.31c-.03.19-.05.4-.05.54-.04,1.06-.18,4.26-.67,5.31-.22.46-.57.67-1.18.67-.56,0-1.2-.04-1.77-.08l-.11-.91c.59.08,1.18.12,1.64.12.32,0,.52-.09.64-.36.42-.84.56-3.54.56-4.72h-3.08c-.4,3.16-1.54,4.83-3.38,6.09l-.8-.65c.35-.19.8-.5,1.13-.81,1.09-.99,1.88-2.37,2.18-4.63h-1.85c-.43,0-.88,0-1.26.04v-.94c.38.04.84.07,1.25.07h1.94c.02-.35.04-.73.04-1.12,0-.24-.03-.65-.08-.91h1.03c-.03.25-.05.64-.07.9Z"/>
        <path class="cls-5" d="M195.27,558.15c-.3,1.09-.79,2.23-1.61,3.12-1.16,1.27-2.53,1.91-3.94,2.3l-.68-.78c1.56-.32,2.94-1.02,3.87-2.01.67-.7,1.11-1.64,1.31-2.43h-5.84c-.26,0-.68.01-1.08.03v-.92c.41.04.78.07,1.08.07h5.8c.25,0,.48-.02.61-.09l.63.4c-.05.1-.12.24-.14.32ZM189.28,554.99h4.32c.35,0,.74-.01,1-.06v.91c-.26-.02-.64-.03-1.01-.03h-4.31c-.34,0-.69.01-.99.03v-.91c.29.04.64.06.99.06Z"/>
        <path class="cls-5" d="M198.8,558.42h6.03c.55,0,.95-.03,1.19-.06v1.08c-.22-.01-.68-.06-1.18-.06h-6.04c-.61,0-1.19.02-1.53.06v-1.08c.33.02.91.06,1.53.06Z"/>
        <path class="cls-5" d="M208.7,557.9h7.21c.23,0,.59-.01.86-.06v.91c-.24-.01-.59-.02-.86-.02h-2.99c-.03,1.19-.21,2.19-.65,3.01-.4.73-1.23,1.52-2.17,2l-.81-.6c.86-.35,1.65-.99,2.08-1.68.48-.76.6-1.68.64-2.73h-3.3c-.33,0-.65,0-.95.02v-.91c.3.03.6.06.95.06ZM210.05,555.15h3.81c.32,0,.7-.02,1.02-.07v.91c-.32-.02-.7-.03-1.02-.03h-3.8c-.36,0-.73.01-1.01.03v-.91c.32.03.65.07,1,.07ZM216.36,555.7l-.59.26c-.22-.45-.59-1.11-.89-1.53l.58-.24c.27.38.68,1.06.9,1.51ZM217.59,555.25l-.59.26c-.24-.48-.59-1.1-.91-1.52l.58-.24c.29.4.71,1.09.92,1.5Z"/>
        <path class="cls-5" d="M220.38,555.77v2.49c1.3-.32,3.04-.85,4.18-1.34.33-.14.66-.31.97-.5l.38.88c-.31.13-.7.31-1.03.43-1.23.5-3.13,1.08-4.5,1.43v2.42c0,.56.23.7.77.81.34.06.91.09,1.45.09,1.17,0,2.85-.11,3.76-.35v1c-.96.14-2.61.23-3.81.23-.65,0-1.31-.03-1.76-.11-.85-.15-1.32-.54-1.32-1.43v-6.05c0-.26-.02-.64-.07-.89h1.02c-.03.25-.05.58-.05.89ZM226.28,556.01l-.59.28c-.22-.45-.59-1.11-.89-1.53l.58-.25c.28.4.67,1.07.9,1.51ZM227.51,555.56l-.59.27c-.24-.48-.61-1.1-.91-1.52l.58-.25c.29.41.71,1.09.92,1.5Z"/>
        <path class="cls-5" d="M235.29,558.23c-.09.75-.41,2.93-.56,3.94h1.08c.24,0,.64-.01.87-.03v.89c-.2-.01-.6-.02-.84-.02h-6.03c-.34,0-.59.01-.91.03v-.91c.26.02.58.04.91.04h3.98c.17-.92.48-3.07.52-3.7h-3.5c-.32,0-.61.02-.88.03v-.92c.26.03.59.07.87.07h3.34c.18,0,.45-.03.55-.08l.67.32c-.03.11-.07.25-.08.34Z"/>
        <path class="cls-5" d="M239.64,558.42h6.03c.55,0,.95-.03,1.19-.06v1.08c-.22-.01-.68-.06-1.18-.06h-6.04c-.61,0-1.19.02-1.53.06v-1.08c.33.02.91.06,1.53.06Z"/>
      </g>
      <g>
        <path class="cls-5" d="M181.88,912.07v.8h-9.79v-.8h1.5v-5.15h.83v5.15h2.42v-7.16h-4.32v-.79h9.01v.79h-3.85v2.93h3.43v.8h-3.43v3.43h4.21Z"/>
        <path class="cls-5" d="M187.77,904.67v.7h1.82c.25,0,.51-.01.69-.07l.57.55c-.2.21-.44.46-.62.66-.55.66-1.47,1.58-2.49,2.29,0,.9-.01,2.22-.01,2.96,0,.38.03.87.05,1.21h-1c.03-.32.07-.83.07-1.21,0-.64.01-1.65.01-2.4-1.02.59-2.23,1.08-3.72,1.53l-.53-.81c2.08-.5,3.45-1.22,4.46-1.87.98-.63,1.86-1.5,2.23-2.01h-4.57c-.38,0-1.01.02-1.35.04v-.92c.35.04.97.05,1.33.05h2.16v-.7c0-.31-.01-.73-.06-.97h1.01c-.04.24-.07.66-.07.97ZM188.71,909.34l.57-.65c1.03.55,1.63.9,2.65,1.6l-.57.75c-.96-.7-1.62-1.14-2.65-1.69Z"/>
        <path class="cls-5" d="M197.78,906.48c1.14-.72,2.24-1.67,3-2.59l.74.68c-.84.87-1.85,1.71-2.97,2.45v4.64c0,.42.02.96.07,1.18h-1.08c.03-.21.07-.76.07-1.18v-4.07c-1.16.66-2.66,1.32-4.19,1.79l-.44-.86c1.9-.52,3.59-1.29,4.81-2.06Z"/>
        <path class="cls-5" d="M205.16,905.04v3.67c0,.27.02.64.04.84h-1.01c.02-.17.06-.52.06-.85v-3.66c0-.2-.02-.58-.04-.79h1c-.02.21-.04.53-.04.79ZM210.27,905.12v1.78c0,2.64-.36,3.51-1.16,4.46-.71.86-1.81,1.33-2.62,1.61l-.71-.76c1.01-.25,1.95-.69,2.63-1.46.78-.91.91-1.8.91-3.88v-1.74c0-.37-.02-.68-.05-.96h1.03c-.02.27-.03.58-.03.96Z"/>
        <path class="cls-5" d="M219.74,905.63c-.37.95-1.07,2.23-1.85,3.22,1.16.99,2.5,2.42,3.21,3.29l-.77.66c-.74-.97-1.9-2.27-3.03-3.27-1.18,1.27-2.66,2.48-4.29,3.21l-.7-.74c1.77-.69,3.4-2,4.53-3.27.75-.85,1.55-2.15,1.83-3.06h-4.29c-.39,0-.99.04-1.11.05v-1c.15.02.78.07,1.11.07h4.25c.36,0,.65-.03.83-.09l.56.43c-.07.09-.21.33-.28.48Z"/>
        <path class="cls-5" d="M224.24,905.14c0-.31-.02-.8-.09-1.14h1.08c-.03.34-.08.81-.08,1.14v1.79c1.45.44,3.54,1.23,4.7,1.81l-.37.94c-1.2-.65-3.1-1.39-4.32-1.77.01,1.65.01,3.31.01,3.63,0,.34.02.94.07,1.3h-1.07c.05-.35.08-.89.08-1.3v-6.4Z"/>
        <path class="cls-5" d="M182.79,923.16h7.21c.23,0,.59-.01.86-.06v.91c-.24-.01-.59-.02-.86-.02h-2.99c-.03,1.19-.21,2.19-.65,3.01-.4.73-1.23,1.52-2.17,2l-.81-.6c.86-.35,1.65-.99,2.08-1.68.48-.76.6-1.68.64-2.73h-3.3c-.33,0-.65,0-.95.02v-.91c.3.03.6.06.95.06ZM184.15,920.41h3.81c.32,0,.7-.02,1.02-.07v.91c-.32-.02-.7-.03-1.02-.03h-3.8c-.36,0-.73.01-1.01.03v-.91c.32.03.65.07,1,.07ZM190.45,920.96l-.59.26c-.22-.45-.59-1.11-.89-1.53l.58-.24c.27.38.68,1.06.9,1.51ZM191.68,920.51l-.59.26c-.24-.48-.59-1.1-.91-1.52l.58-.24c.29.4.71,1.09.92,1.5Z"/>
        <path class="cls-5" d="M194.48,921.03v2.49c1.3-.32,3.04-.85,4.18-1.34.33-.14.66-.31.97-.5l.38.88c-.31.13-.7.31-1.03.43-1.23.5-3.13,1.08-4.5,1.43v2.42c0,.56.23.7.77.81.34.06.91.09,1.45.09,1.17,0,2.85-.11,3.76-.35v1c-.96.14-2.61.23-3.81.23-.65,0-1.31-.03-1.76-.11-.85-.15-1.32-.54-1.32-1.43v-6.05c0-.26-.02-.64-.07-.89h1.02c-.03.25-.05.58-.05.89ZM200.38,921.27l-.59.28c-.22-.45-.59-1.11-.89-1.53l.58-.25c.28.4.67,1.07.9,1.51ZM201.61,920.82l-.59.27c-.24-.48-.61-1.1-.91-1.52l.58-.25c.29.41.71,1.09.92,1.5Z"/>
        <path class="cls-5" d="M209.38,923.49c-.09.75-.41,2.93-.56,3.94h1.08c.24,0,.64-.01.87-.03v.89c-.2-.01-.6-.02-.84-.02h-6.03c-.34,0-.59.01-.91.03v-.91c.26.02.58.04.91.04h3.98c.17-.92.48-3.07.52-3.7h-3.5c-.32,0-.61.02-.88.03v-.92c.26.03.59.07.87.07h3.34c.18,0,.45-.03.55-.08l.67.32c-.03.11-.07.25-.08.34Z"/>
        <path class="cls-5" d="M213.74,923.68h6.03c.55,0,.95-.03,1.19-.06v1.08c-.22-.01-.68-.06-1.18-.06h-6.04c-.61,0-1.19.02-1.53.06v-1.08c.33.02.91.06,1.53.06Z"/>
      </g>
    </g>
  </g>
</svg>