<?xml version="1.0" encoding="UTF-8"?>
<svg xmlns="http://www.w3.org/2000/svg" viewBox="0 0 297.37 178.57">
  <defs>
    <style>
      .cls-1 {
        fill: #231815;
      }

      .cls-2, .cls-3 {
        mix-blend-mode: multiply;
      }

      .cls-2, .cls-4 {
        fill: #726b67;
      }

      .cls-5 {
        fill: #fff;
      }

      .cls-6 {
        isolation: isolate;
      }
    </style>
  </defs>
  <g class="cls-6">
    <g id="_レイヤー_2" data-name="レイヤー 2">
      <g id="_レイヤー_1-2" data-name="レイヤー 1">
        <g>
          <rect class="cls-2" x="0" y="0" width="191.97" height="34.9"/>
          <rect class="cls-2" x="0" y="71.83" width="191.97" height="34.9"/>
          <rect class="cls-2" x="0" y="143.67" width="191.97" height="34.9"/>
          <g>
            <path class="cls-5" d="M31.42,12.94c-.34,1.68-1.12,4.26-2.38,5.91-1.46,1.87-3.36,3.36-6.31,4.29l-1.09-1.2c3.11-.78,4.9-2.14,6.24-3.86,1.14-1.46,1.87-3.68,2.1-5.22h-8.18c-.64,0-1.18.03-1.6.05v-1.41c.45.05,1.07.1,1.6.1h8.04c.24,0,.54,0,.85-.08l.98.62c-.11.22-.18.5-.24.8Z"/>
            <path class="cls-5" d="M45.54,15.13c-.46.75-1.81,2.75-3.25,3.75l-1.04-.72c1.14-.69,2.29-2.1,2.75-2.88-.9,0-7.03-.02-7.65-.02-.48,0-1.01.03-1.5.06v-1.33c.45.06,1.02.11,1.5.11h7.91c.24,0,.67-.03.88-.08l.72.67c-.1.11-.24.3-.32.43ZM36.75,24.05l-1.14-.9c.35-.13.74-.29,1.1-.54,2.16-1.46,2.46-3.22,2.46-5.31,0-.3-.05-.62-.1-.94h1.39c-.03,3.41-.35,5.83-3.73,7.7Z"/>
            <path class="cls-5" d="M57.08,12.78c-.54,1.38-1.55,3.25-2.69,4.69,1.68,1.44,3.63,3.52,4.67,4.79l-1.12.96c-1.07-1.41-2.77-3.3-4.4-4.75-1.71,1.84-3.87,3.6-6.24,4.67l-1.02-1.07c2.58-1.01,4.95-2.91,6.59-4.75,1.09-1.23,2.26-3.12,2.66-4.45h-6.24c-.56,0-1.44.06-1.62.08v-1.46c.22.03,1.14.1,1.62.1h6.18c.53,0,.94-.05,1.2-.13l.82.62c-.1.13-.3.48-.4.7Z"/>
            <path class="cls-5" d="M63.47,12.06c0-.45-.03-1.17-.13-1.66h1.57c-.05.5-.11,1.18-.11,1.66v2.61c2.11.64,5.15,1.79,6.83,2.64l-.54,1.36c-1.75-.94-4.51-2.02-6.29-2.58.02,2.4.02,4.82.02,5.28,0,.5.03,1.36.1,1.89h-1.55c.08-.51.11-1.3.11-1.89v-9.32Z"/>
            <path class="cls-5" d="M77.91,16.36l-.72,1.12c-.8-.58-2.53-1.7-3.51-2.19l.72-1.09c.94.51,2.82,1.66,3.5,2.16ZM79.78,20.19c2.66-1.52,4.77-3.62,6.07-5.87l.77,1.33c-1.39,2.15-3.6,4.21-6.16,5.71-1.6.94-3.81,1.68-5.3,1.98l-.74-1.3c1.75-.3,3.75-.94,5.36-1.86ZM80.29,12.86l-.75,1.1c-.77-.59-2.51-1.74-3.44-2.29l.72-1.07c.94.53,2.79,1.76,3.47,2.26ZM85.14,13.32l-.91.42c-.4-.83-.93-1.79-1.46-2.53l.88-.37c.4.58,1.12,1.73,1.49,2.48ZM87.29,12.52l-.91.42c-.43-.85-.98-1.76-1.52-2.48l.9-.38c.43.56,1.14,1.71,1.54,2.45Z"/>
            <path class="cls-5" d="M91.04,14.57h7.36c.4,0,.8-.03,1.14-.06v1.28c-.35-.03-.77-.05-1.14-.05h-3.12v5.89h3.87c.38,0,.75-.03,1.07-.08v1.34c-.32-.03-.82-.05-1.07-.05h-8.85c-.35,0-.77.02-1.15.05v-1.34c.37.05.78.08,1.15.08h3.68v-5.89h-2.95c-.26,0-.77.02-1.1.05v-1.28c.34.05.85.06,1.1.06Z"/>
            <path class="cls-5" d="M105.66,18.43c.46-1.46.48-4.66.48-6.43,0-.48-.05-.83-.11-1.17h1.47c-.02.19-.08.67-.08,1.15,0,1.78-.06,5.2-.5,6.8-.48,1.71-1.5,3.28-2.85,4.4l-1.2-.82c1.34-.96,2.3-2.38,2.79-3.94ZM110.32,21.55v-9.59c0-.61-.08-1.07-.1-1.18h1.47c-.02.11-.06.58-.06,1.18v9.24c1.47-.67,3.44-2.13,4.67-3.94l.75,1.09c-1.38,1.87-3.6,3.52-5.46,4.43-.26.14-.43.27-.54.37l-.85-.7c.06-.26.11-.58.11-.9Z"/>
            <path class="cls-5" d="M119.79,15.18h10.48c.34,0,.86-.02,1.25-.08v1.33c-.35-.02-.86-.03-1.25-.03h-4.35c-.05,1.73-.3,3.19-.94,4.39-.58,1.06-1.79,2.21-3.15,2.91l-1.18-.88c1.25-.51,2.4-1.44,3.03-2.45.71-1.1.88-2.45.93-3.97h-4.8c-.48,0-.94,0-1.38.03v-1.33c.43.05.88.08,1.38.08ZM121.75,11.18h5.54c.46,0,1.02-.03,1.49-.1v1.33c-.46-.03-1.02-.05-1.49-.05h-5.52c-.53,0-1.06.02-1.47.05v-1.33c.46.05.94.1,1.46.1ZM130.93,11.98l-.86.38c-.32-.66-.87-1.62-1.3-2.22l.85-.35c.4.56.99,1.54,1.31,2.19ZM132.72,11.32l-.86.38c-.35-.7-.86-1.6-1.33-2.21l.85-.35c.42.58,1.04,1.58,1.34,2.18Z"/>
            <path class="cls-5" d="M136.67,12.07v3.62c1.89-.46,4.42-1.23,6.08-1.95.48-.21.96-.45,1.41-.72l.56,1.28c-.45.19-1.02.45-1.5.62-1.79.72-4.56,1.57-6.55,2.08v3.52c0,.82.34,1.02,1.12,1.18.5.08,1.33.13,2.11.13,1.7,0,4.15-.16,5.47-.51v1.46c-1.39.21-3.79.34-5.54.34-.94,0-1.9-.05-2.56-.16-1.23-.22-1.92-.78-1.92-2.08v-8.8c0-.38-.03-.93-.1-1.3h1.49c-.05.37-.08.85-.08,1.3ZM145.25,12.43l-.86.4c-.32-.66-.86-1.62-1.3-2.22l.85-.37c.4.58.98,1.55,1.31,2.19ZM147.04,11.77l-.86.4c-.35-.7-.88-1.6-1.33-2.21l.85-.37c.42.59,1.04,1.58,1.34,2.18Z"/>
            <path class="cls-5" d="M158.21,15.66c-.13,1.09-.59,4.26-.82,5.73h1.57c.35,0,.93-.02,1.26-.05v1.3c-.29-.02-.88-.03-1.22-.03h-8.77c-.5,0-.86.02-1.33.05v-1.33c.38.03.85.06,1.33.06h5.79c.24-1.34.7-4.47.75-5.38h-5.09c-.46,0-.88.03-1.28.05v-1.34c.38.05.86.1,1.26.1h4.87c.26,0,.66-.05.8-.11l.98.46c-.05.16-.1.37-.11.5Z"/>
            <path class="cls-5" d="M164.4,15.93h8.77c.8,0,1.38-.05,1.73-.08v1.57c-.32-.02-.99-.08-1.71-.08h-8.79c-.88,0-1.73.03-2.22.08v-1.57c.48.03,1.33.08,2.22.08Z"/>
          </g>
          <g>
            <path class="cls-1" d="M217.79,13.44c0,2.74.32,8.9,6.85,12.81-.18.13-.5.43-.64.61-4.37-2.66-6.02-6.48-6.63-9.59-1.2,4.53-3.27,7.62-6.72,9.62-.13-.14-.48-.46-.69-.62,3.68-1.92,5.7-5.23,6.75-9.92l.51.1c-.13-.83-.18-1.58-.19-2.23h-4.11v-.77h4.87Z"/>
            <path class="cls-1" d="M230.84,22.15c-.45-.46-1.6-1.52-2.37-2.19v6.96h-.75v-6.67c-.9.91-1.84,1.7-2.75,2.29-.1-.19-.32-.5-.45-.62,1.98-1.25,4.18-3.44,5.33-5.75h-4.8v-.72h2.67v-3.03h.75v3.03h1.78l.14-.05.46.3c-.53,1.25-1.33,2.46-2.22,3.54.69.56,2.26,1.92,2.67,2.29l-.46.62ZM239.51,25.7v.75h-8.98v-.75h4.27v-7.15h-3.65v-.75h3.65v-5.28h.77v5.28h3.62v.75h-3.62v7.15h3.94Z"/>
            <path class="cls-1" d="M244.56,26.15l.99-1.17c1.26,1.35,2.97,2.67,5.76,2.67s4.86-1.8,4.86-4.53-2.04-4.74-7.26-4.74v-1.47c4.8,0,6.48-2.01,6.48-4.47,0-2.31-1.62-3.81-4.14-3.81-1.89,0-3.6.99-4.8,2.28l-1.02-1.17c1.5-1.47,3.36-2.61,5.85-2.61,3.36,0,5.91,1.89,5.91,5.19,0,2.73-1.68,4.41-4.02,5.19v.12c2.64.57,4.8,2.52,4.8,5.52,0,3.69-2.88,6-6.6,6-3.39,0-5.43-1.53-6.81-3Z"/>
            <path class="cls-1" d="M267.89,15.95c-.23.69-.58,1.56-.94,2.32h9.68c.48,0,1.15,0,1.66-.07v1.22c-.53-.05-1.2-.07-1.66-.07h-3.7c-.34,5.56-2.53,8.76-5.79,10.72l-1.22-.8c.41-.16,1.26-.67,1.66-.97,1.75-1.36,3.96-3.84,4.23-8.95h-5.43c-.87,1.47-2.25,3.2-3.24,4l-1.1-.64c1.4-1.01,2.74-2.87,3.47-4.07.57-.97.99-2.05,1.22-2.92.09-.37.18-.76.21-1.2l1.36.3c-.16.41-.28.74-.39,1.13Z"/>
            <path class="cls-1" d="M297.37,28.14c0,.99-.3,1.4-1.04,1.61-.76.21-2.23.21-4.76.21-.07-.32-.28-.8-.46-1.15,2.07.05,3.89.02,4.42.02.53-.02.71-.18.71-.71v-5.36h-11.8c-.55,2.64-1.7,5.31-4.02,7.38-.16-.25-.55-.67-.8-.8,3.82-3.43,4.23-8.21,4.23-12.03v-6.76h13.52v17.59ZM296.24,21.7v-4.53h-11.29v.14c0,1.36-.07,2.85-.3,4.39h11.59ZM284.95,11.62v4.46h11.29v-4.46h-11.29Z"/>
          </g>
          <g>
            <path class="cls-5" d="M43.9,84.55c-.29,1.89-.62,4.16-1.78,5.97-1.3,2.05-3.49,3.68-6.07,4.51l-1.09-1.1c2.35-.62,4.64-2.02,5.95-4.07.91-1.42,1.36-3.47,1.52-5.36h-8.84v3.2c0,.24.02.64.05,1.02h-1.46c.05-.38.06-.72.06-1.02v-3.41c0-.37-.02-.72-.06-1.07.43.03,1.02.05,1.71.05h8.21c.35,0,.74-.03,1.01-.1l.98.62c-.06.16-.18.59-.21.75Z"/>
            <path class="cls-5" d="M53.29,91.12c2.46-1.55,4.42-3.92,5.35-5.89l.77,1.36c-1.09,2-2.96,4.18-5.38,5.7-1.6,1.01-3.62,1.98-6.29,2.48l-.85-1.31c2.8-.42,4.88-1.39,6.4-2.34ZM52.35,86.05l-1.01,1.01c-.8-.83-2.8-2.55-3.99-3.35l.91-.98c1.14.75,3.18,2.42,4.08,3.31Z"/>
            <path class="cls-5" d="M67.89,83.18c-.02.58-.05,1.12-.08,1.65h3.81c.43,0,.75-.03,1.02-.08l.9.45c-.05.27-.08.58-.08.78-.06,1.54-.26,6.19-.98,7.73-.32.67-.83.98-1.71.98-.82,0-1.74-.06-2.58-.11l-.16-1.33c.86.11,1.71.18,2.38.18.46,0,.75-.13.93-.53.61-1.22.82-5.15.82-6.87h-4.48c-.58,4.59-2.24,7.03-4.91,8.87l-1.17-.94c.51-.27,1.17-.72,1.65-1.18,1.58-1.44,2.74-3.44,3.17-6.74h-2.69c-.62,0-1.28,0-1.84.06v-1.36c.56.06,1.22.1,1.82.1h2.82c.03-.51.06-1.06.06-1.63,0-.35-.05-.94-.11-1.33h1.5c-.05.37-.08.93-.1,1.31Z"/>
            <path class="cls-5" d="M88.27,87.23c-.43,1.58-1.15,3.25-2.34,4.55-1.68,1.84-3.68,2.79-5.73,3.35l-.99-1.14c2.27-.46,4.27-1.49,5.63-2.93.98-1.02,1.62-2.39,1.91-3.54h-8.5c-.38,0-.99.02-1.57.05v-1.34c.59.06,1.14.1,1.57.1h8.44c.37,0,.7-.03.88-.13l.91.58c-.08.14-.18.35-.21.46ZM79.56,82.62h6.29c.51,0,1.07-.02,1.46-.08v1.33c-.38-.03-.93-.05-1.47-.05h-6.28c-.5,0-1.01.02-1.44.05v-1.33c.42.06.93.08,1.44.08Z"/>
            <path class="cls-5" d="M93.29,87.62h8.77c.8,0,1.38-.05,1.73-.08v1.57c-.32-.02-.99-.08-1.71-.08h-8.79c-.88,0-1.73.03-2.22.08v-1.57c.48.03,1.33.08,2.22.08Z"/>
            <path class="cls-5" d="M107.58,86.87h10.48c.34,0,.86-.02,1.25-.08v1.33c-.35-.02-.86-.03-1.25-.03h-4.35c-.05,1.73-.3,3.19-.94,4.39-.58,1.06-1.79,2.21-3.15,2.91l-1.18-.88c1.25-.51,2.4-1.44,3.03-2.45.71-1.1.88-2.45.93-3.97h-4.8c-.48,0-.94,0-1.38.03v-1.33c.43.05.88.08,1.38.08ZM109.55,82.86h5.54c.46,0,1.02-.03,1.49-.1v1.33c-.46-.03-1.02-.05-1.49-.05h-5.52c-.53,0-1.06.02-1.47.05v-1.33c.46.05.94.1,1.46.1ZM118.72,83.67l-.86.38c-.32-.66-.87-1.62-1.3-2.22l.85-.35c.4.56.99,1.54,1.31,2.19ZM120.51,83.01l-.86.38c-.35-.7-.86-1.6-1.33-2.21l.85-.35c.42.58,1.04,1.58,1.34,2.18Z"/>
            <path class="cls-5" d="M124.46,83.76v3.62c1.89-.46,4.42-1.23,6.08-1.95.48-.21.96-.45,1.41-.72l.56,1.28c-.45.19-1.02.45-1.5.62-1.79.72-4.56,1.57-6.55,2.08v3.52c0,.82.34,1.02,1.12,1.18.5.08,1.33.13,2.11.13,1.7,0,4.15-.16,5.47-.51v1.46c-1.39.21-3.79.34-5.54.34-.94,0-1.9-.05-2.56-.16-1.23-.22-1.92-.78-1.92-2.08v-8.8c0-.38-.03-.93-.1-1.3h1.49c-.05.37-.08.85-.08,1.3ZM133.04,84.11l-.86.4c-.32-.66-.86-1.62-1.3-2.22l.85-.37c.4.58.98,1.55,1.31,2.19ZM134.83,83.46l-.86.4c-.35-.7-.88-1.6-1.33-2.21l.85-.37c.42.59,1.04,1.58,1.34,2.18Z"/>
            <path class="cls-5" d="M146,87.35c-.13,1.09-.59,4.26-.82,5.73h1.57c.35,0,.93-.02,1.26-.05v1.3c-.29-.02-.88-.03-1.22-.03h-8.77c-.5,0-.86.02-1.33.05v-1.33c.38.03.85.06,1.33.06h5.79c.24-1.34.7-4.47.75-5.38h-5.09c-.46,0-.88.03-1.28.05v-1.34c.38.05.86.1,1.26.1h4.87c.26,0,.66-.05.8-.11l.98.46c-.05.16-.1.37-.11.5Z"/>
            <path class="cls-5" d="M152.19,87.62h8.77c.8,0,1.38-.05,1.73-.08v1.57c-.32-.02-.99-.08-1.71-.08h-8.79c-.88,0-1.73.03-2.22.08v-1.57c.48.03,1.33.08,2.22.08Z"/>
          </g>
          <g>
            <path class="cls-1" d="M219.28,84.88c0,2.74.32,8.9,6.85,12.81-.18.13-.5.43-.64.61-4.37-2.66-6.02-6.48-6.63-9.59-1.2,4.53-3.27,7.62-6.72,9.62-.13-.14-.48-.46-.69-.62,3.68-1.92,5.7-5.23,6.75-9.92l.51.1c-.13-.83-.18-1.58-.19-2.23h-4.11v-.77h4.87Z"/>
            <path class="cls-1" d="M232.33,93.59c-.45-.46-1.6-1.52-2.37-2.19v6.96h-.75v-6.67c-.9.91-1.84,1.7-2.75,2.29-.1-.19-.32-.5-.45-.62,1.98-1.25,4.18-3.44,5.33-5.75h-4.8v-.72h2.67v-3.03h.75v3.03h1.78l.14-.05.46.3c-.53,1.25-1.33,2.46-2.22,3.54.69.56,2.26,1.92,2.67,2.29l-.46.62ZM241,97.14v.75h-8.98v-.75h4.27v-7.15h-3.65v-.75h3.65v-5.28h.77v5.28h3.62v.75h-3.62v7.15h3.94Z"/>
            <path class="cls-1" d="M257.63,82.83h-11.07v-1.56h13.2v1.08c-5.07,6.63-6.27,11.88-6.6,20.16h-1.89c.36-8.43,2.1-13.74,6.36-19.68Z"/>
            <path class="cls-1" d="M266.4,87.39c-.23.69-.58,1.56-.94,2.32h9.68c.48,0,1.15,0,1.66-.07v1.22c-.53-.05-1.2-.07-1.66-.07h-3.7c-.34,5.56-2.53,8.76-5.79,10.72l-1.22-.8c.41-.16,1.26-.67,1.66-.97,1.75-1.36,3.96-3.84,4.23-8.95h-5.43c-.87,1.47-2.25,3.2-3.24,4l-1.1-.64c1.4-1.01,2.74-2.87,3.47-4.07.57-.97.99-2.05,1.22-2.92.09-.37.18-.76.21-1.2l1.36.3c-.16.41-.28.74-.39,1.13Z"/>
            <path class="cls-1" d="M295.88,99.58c0,.99-.3,1.4-1.04,1.61-.76.21-2.23.21-4.76.21-.07-.32-.28-.8-.46-1.15,2.07.05,3.89.02,4.42.02.53-.02.71-.18.71-.71v-5.36h-11.8c-.55,2.64-1.7,5.31-4.02,7.38-.16-.25-.55-.67-.8-.8,3.82-3.43,4.23-8.21,4.23-12.03v-6.76h13.52v17.59ZM294.75,93.14v-4.53h-11.29v.14c0,1.36-.07,2.85-.3,4.39h11.59ZM283.46,83.07v4.46h11.29v-4.46h-11.29Z"/>
          </g>
          <g>
            <path class="cls-5" d="M39.92,165.52v1.17h-14.25v-1.17h2.18v-7.49h1.2v7.49h3.52v-10.42h-6.29v-1.15h13.11v1.15h-5.6v4.26h4.99v1.17h-4.99v4.99h6.13Z"/>
            <path class="cls-5" d="M48.36,154.75v1.02h2.64c.37,0,.74-.02,1.01-.1l.83.8c-.29.3-.64.67-.9.96-.8.96-2.14,2.3-3.62,3.33,0,1.31-.02,3.23-.02,4.31,0,.56.05,1.26.08,1.76h-1.46c.05-.46.1-1.2.1-1.76,0-.93.02-2.4.02-3.49-1.49.86-3.25,1.57-5.41,2.22l-.77-1.18c3.03-.72,5.03-1.78,6.48-2.72,1.42-.91,2.71-2.18,3.25-2.93h-6.64c-.56,0-1.47.03-1.97.06v-1.34c.51.06,1.41.08,1.94.08h3.14v-1.02c0-.45-.02-1.06-.08-1.41h1.47c-.06.35-.1.96-.1,1.41ZM49.73,161.55l.83-.94c1.5.8,2.37,1.31,3.86,2.32l-.83,1.09c-1.39-1.02-2.35-1.66-3.86-2.47Z"/>
            <path class="cls-5" d="M62.8,157.39c1.67-1.04,3.27-2.43,4.37-3.76l1.07.99c-1.22,1.26-2.69,2.48-4.32,3.57v6.75c0,.61.03,1.39.1,1.71h-1.57c.05-.3.1-1.1.1-1.71v-5.92c-1.68.96-3.87,1.92-6.1,2.61l-.64-1.25c2.77-.75,5.22-1.87,6.99-2.99Z"/>
            <path class="cls-5" d="M73.38,155.29v5.35c0,.4.03.93.06,1.22h-1.47c.03-.24.08-.75.08-1.23v-5.33c0-.29-.03-.85-.06-1.15h1.46c-.03.3-.06.77-.06,1.15ZM80.83,155.4v2.59c0,3.84-.53,5.11-1.68,6.48-1.04,1.25-2.64,1.94-3.81,2.34l-1.04-1.1c1.47-.37,2.83-1.01,3.83-2.13,1.14-1.33,1.33-2.62,1.33-5.65v-2.53c0-.54-.03-.99-.08-1.39h1.5c-.03.4-.05.85-.05,1.39Z"/>
            <path class="cls-5" d="M94.44,156.15c-.54,1.38-1.55,3.25-2.69,4.69,1.68,1.44,3.63,3.52,4.67,4.79l-1.12.96c-1.07-1.41-2.77-3.3-4.4-4.75-1.71,1.84-3.87,3.6-6.24,4.67l-1.02-1.07c2.58-1.01,4.95-2.91,6.59-4.75,1.09-1.23,2.26-3.12,2.66-4.45h-6.24c-.56,0-1.44.06-1.62.08v-1.46c.22.03,1.14.1,1.62.1h6.18c.53,0,.94-.05,1.2-.13l.82.62c-.1.13-.3.48-.4.7Z"/>
            <path class="cls-5" d="M100.83,155.43c0-.45-.03-1.17-.13-1.66h1.57c-.05.5-.11,1.18-.11,1.66v2.61c2.11.64,5.15,1.79,6.83,2.64l-.54,1.36c-1.75-.94-4.51-2.02-6.29-2.58.02,2.4.02,4.82.02,5.28,0,.5.03,1.36.1,1.89h-1.55c.08-.51.11-1.3.11-1.89v-9.32Z"/>
            <path class="cls-5" d="M112.88,158.55h10.48c.34,0,.86-.02,1.25-.08v1.33c-.35-.02-.86-.03-1.25-.03h-4.35c-.05,1.73-.3,3.19-.94,4.39-.58,1.06-1.79,2.21-3.15,2.91l-1.18-.88c1.25-.51,2.4-1.44,3.03-2.45.71-1.1.88-2.45.93-3.97h-4.8c-.48,0-.94,0-1.38.03v-1.33c.43.05.88.08,1.38.08ZM114.85,154.55h5.54c.46,0,1.02-.03,1.49-.1v1.33c-.46-.03-1.02-.05-1.49-.05h-5.52c-.53,0-1.06.02-1.47.05v-1.33c.46.05.94.1,1.46.1ZM124.02,155.35l-.86.38c-.32-.66-.87-1.62-1.3-2.22l.85-.35c.4.56.99,1.54,1.31,2.19ZM125.81,154.7l-.86.38c-.35-.7-.86-1.6-1.33-2.21l.85-.35c.42.58,1.04,1.58,1.34,2.18Z"/>
            <path class="cls-5" d="M129.76,155.45v3.62c1.89-.46,4.42-1.23,6.08-1.95.48-.21.96-.45,1.41-.72l.56,1.28c-.45.19-1.02.45-1.5.62-1.79.72-4.56,1.57-6.55,2.08v3.52c0,.82.34,1.02,1.12,1.18.5.08,1.33.13,2.11.13,1.7,0,4.15-.16,5.47-.51v1.46c-1.39.21-3.79.34-5.54.34-.94,0-1.9-.05-2.56-.16-1.23-.22-1.92-.78-1.92-2.08v-8.8c0-.38-.03-.93-.1-1.3h1.49c-.05.37-.08.85-.08,1.3ZM138.34,155.8l-.86.4c-.32-.66-.86-1.62-1.3-2.22l.85-.37c.4.58.98,1.55,1.31,2.19ZM140.14,155.15l-.86.4c-.35-.7-.88-1.6-1.33-2.21l.85-.37c.42.59,1.04,1.58,1.34,2.18Z"/>
            <path class="cls-5" d="M151.31,159.03c-.13,1.09-.59,4.26-.82,5.73h1.57c.35,0,.93-.02,1.26-.05v1.3c-.29-.02-.88-.03-1.22-.03h-8.77c-.5,0-.86.02-1.33.05v-1.33c.38.03.85.06,1.33.06h5.79c.24-1.34.7-4.47.75-5.38h-5.09c-.46,0-.88.03-1.28.05v-1.34c.38.05.86.1,1.26.1h4.87c.26,0,.66-.05.8-.11l.98.46c-.05.16-.1.37-.11.5Z"/>
            <path class="cls-5" d="M157.5,159.31h8.77c.8,0,1.38-.05,1.73-.08v1.57c-.32-.02-.99-.08-1.71-.08h-8.79c-.88,0-1.73.03-2.22.08v-1.57c.48.03,1.33.08,2.22.08Z"/>
          </g>
          <g>
            <path class="cls-1" d="M227.77,156.32c0,2.74.32,8.9,6.85,12.81-.18.13-.5.43-.64.61-4.37-2.66-6.02-6.48-6.63-9.59-1.2,4.53-3.27,7.62-6.72,9.62-.13-.14-.48-.46-.69-.62,3.68-1.92,5.7-5.23,6.75-9.92l.51.1c-.13-.83-.18-1.58-.19-2.23h-4.11v-.77h4.87Z"/>
            <path class="cls-1" d="M240.82,165.03c-.45-.46-1.6-1.52-2.37-2.19v6.96h-.75v-6.67c-.9.91-1.84,1.7-2.75,2.29-.1-.19-.32-.5-.45-.62,1.98-1.25,4.18-3.44,5.33-5.75h-4.8v-.72h2.67v-3.03h.75v3.03h1.78l.14-.05.46.3c-.53,1.25-1.33,2.46-2.22,3.54.69.56,2.26,1.92,2.67,2.29l-.46.62ZM249.49,168.58v.75h-8.98v-.75h4.27v-7.15h-3.65v-.75h3.65v-5.28h.77v5.28h3.62v.75h-3.62v7.15h3.94Z"/>
            <path class="cls-1" d="M256.37,170.11h4.95v-17.13h-3.81v-1.17c1.77-.3,3.12-.78,4.17-1.41h1.41v19.71h4.56v1.53h-11.28v-1.53Z"/>
            <path class="cls-1" d="M290.61,167.47h-8.62v5.52h-1.1v-5.52h-10.85v-1.08h3.89v-6.28h6.97v-3.98h-6.02c-1.08,1.86-2.37,3.5-3.7,4.76-.21-.18-.69-.53-.99-.69,2.28-1.95,4.25-4.94,5.43-8.14l1.13.28c-.37.94-.8,1.86-1.24,2.74h14.16v1.06h-7.66v3.98h7.17v1.06h-7.17v5.22h8.62v1.08ZM280.89,166.39v-5.22h-5.86v5.22h5.86Z"/>
          </g>
          <g class="cls-3">
            <path class="cls-4" d="M101.39,45.47l-7.11,12.31-7.11-12.31h14.22Z"/>
          </g>
          <g class="cls-3">
            <path class="cls-4" d="M101.39,118.05l-7.11,12.31-7.11-12.31h14.22Z"/>
          </g>
        </g>
      </g>
    </g>
  </g>
</svg>