<?xml version="1.0" encoding="UTF-8"?>
<svg xmlns="http://www.w3.org/2000/svg" viewBox="0 0 336.43 306.27">
  <defs>
    <style>
      .cls-1 {
        fill: #231815;
      }

      .cls-2 {
        fill: #726b67;
        mix-blend-mode: multiply;
      }

      .cls-3 {
        fill: #fff;
      }

      .cls-4 {
        isolation: isolate;
      }

      .cls-5 {
        fill: none;
        stroke: #231815;
        stroke-dasharray: .5 4;
        stroke-linecap: round;
        stroke-linejoin: round;
      }
    </style>
  </defs>
  <g class="cls-4">
    <g id="_レイヤー_2" data-name="レイヤー 2">
      <g id="_レイヤー_1-2" data-name="レイヤー 1">
        <g>
          <line class="cls-5" x1="168.14" y1="142.03" x2="168.14" y2="301.03"/>
          <line class="cls-5" x1="176.93" y1="219.37" x2="335.93" y2="219.37"/>
          <g>
            <path class="cls-1" d="M238.67,162.35h-5.91v5.1h-.67v-5.1h-5.83v-.67h5.83v-5.27h-5.11v-.66h10.93v.66h-5.14v5.27h5.91v.67ZM228.63,157.22c.6,1.08,1.23,2.49,1.46,3.35l-.63.24c-.22-.87-.83-2.31-1.41-3.4l.59-.18ZM234.52,160.68c.59-.92,1.32-2.48,1.71-3.54l.7.24c-.53,1.15-1.25,2.62-1.83,3.52l-.57-.21Z"/>
            <path class="cls-1" d="M242.1,163.3c.63-.27,1.3-.53,1.95-.8l.15.64c-1.64.69-3.36,1.4-4.64,1.92l-.25-.67c.59-.22,1.33-.5,2.13-.83v-4.83h-1.91v-.64h1.91v-3.31h.66v3.31h1.83v.64h-1.83v4.57ZM251.84,157.13s0,.31-.01.42c-.22,6.57-.42,8.8-.98,9.46-.28.34-.57.43-1.04.46-.48.03-1.36,0-2.24-.06-.01-.2-.1-.49-.21-.69.99.1,1.93.1,2.25.1.28.01.46-.03.6-.2.5-.52.73-2.72.94-8.85h-5.58c-.49,1.01-1.04,1.91-1.62,2.61-.14-.11-.43-.32-.62-.42,1.16-1.26,2.09-3.19,2.65-5.18l.67.15c-.22.76-.49,1.5-.79,2.2h5.97ZM249.62,163.22c-1.76.7-3.67,1.43-5.06,1.96l-.31-.62c1.29-.46,3.32-1.2,5.25-1.95l.11.6ZM249.34,159.93v.63h-4.48v-.63h4.48Z"/>
            <path class="cls-1" d="M265.95,164.1h-5.25v3.36h-.67v-3.36h-6.61v-.66h2.37v-3.82h4.24v-2.42h-3.67c-.66,1.13-1.44,2.13-2.25,2.9-.13-.11-.42-.32-.6-.42,1.39-1.19,2.59-3.01,3.31-4.96l.69.17c-.22.57-.49,1.13-.76,1.67h8.63v.64h-4.66v2.42h4.37v.64h-4.37v3.18h5.25v.66ZM260.02,163.44v-3.18h-3.57v3.18h3.57Z"/>
            <path class="cls-1" d="M277.05,154.79c.74,1.57,1.95,3.18,3.07,4.09-.11.17-.28.42-.38.62-1.15-1.05-2.33-2.62-3-3.99-.57,1.39-1.69,3.05-2.93,4.15-.08-.17-.27-.42-.39-.55l.17-.14h-6.37v-.6h1.11v-2.76h.6v2.76h1.57v-3.59h.64v1.37h2.4v.6h-2.4v1.61h2.66v.41c1.09-1.05,2.1-2.61,2.59-3.98h.66ZM272.98,159.59h.59v7.72h-.59v-.87h-4.62v.98h-.59v-7.83h.59v6.26h4.62v-6.26ZM270.41,162.94c-.42.81-.98,1.62-1.53,2.09-.06-.15-.21-.36-.31-.48.56-.48,1.23-1.36,1.62-2.2h-1.53v-.52h1.74v-2.17h.53v2.17h1.7v.52h-1.7v.24c.38.31,1.44,1.18,1.71,1.41l-.32.41c-.25-.28-.91-.87-1.39-1.27v2.4h-.53v-2.59ZM269.25,160c.32.46.56,1.08.66,1.48l-.46.17c-.07-.43-.34-1.05-.62-1.51l.42-.14ZM272.5,160.14c-.25.53-.52,1.09-.74,1.48l-.41-.15c.24-.41.53-1.06.67-1.5l.48.17ZM279.32,164.82c0,.38-.07.57-.38.69-.29.13-.81.13-1.62.13-.03-.2-.13-.43-.22-.63.71.03,1.2.03,1.39.01.18-.01.21-.06.21-.2v-3.11h-2.19v5.7h-.63v-5.7h-1.67v-.62h5.11v3.73ZM278.62,158.92v.62h-3.68v-.62h3.68Z"/>
          </g>
          <g>
            <path class="cls-1" d="M238.4,195.17c4.1-4.16,6.21-6.5,6.21-8.7,0-1.55-.83-2.74-2.68-2.74-1.13,0-2.16.68-2.92,1.62l-.67-.63c.99-1.08,2.11-1.89,3.69-1.89,2.29,0,3.64,1.44,3.64,3.6,0,2.5-2.27,4.93-5.71,8.55.7-.05,1.46-.11,2.16-.11h4.18v.94h-7.9v-.65Z"/>
            <path class="cls-1" d="M247.86,190.02c0-5.29,2.23-7.18,4.74-7.18,1.21,0,2.09.52,2.75,1.26l-.61.68c-.54-.67-1.33-1.03-2.16-1.03-1.95,0-3.62,1.53-3.67,6.07.86-1.04,2.02-1.71,3.15-1.71,2.21,0,3.57,1.37,3.57,3.93,0,2.36-1.62,4.02-3.55,4.02-2.54,0-4.21-2.12-4.21-6.03ZM248.92,190.84c.16,2.65,1.19,4.34,3.17,4.34,1.42,0,2.5-1.33,2.5-3.13s-.83-3.08-2.68-3.08c-.86,0-2,.5-2.99,1.87Z"/>
            <path class="cls-1" d="M266.9,190.62c-.4,1.14-.94,2.15-1.61,3.02.55,1.08,1.17,1.74,1.67,1.74.29,0,.41-.56.47-1.85.13.11.31.2.47.25-.11,1.62-.35,2.12-.96,2.12-.66,0-1.38-.71-2-1.85-.64.72-1.36,1.33-2.17,1.82-.08-.11-.28-.32-.4-.43.88-.49,1.66-1.13,2.31-1.9-.47-1.02-.85-2.29-1.07-3.67h-5.14v1.5c0,1.33-.18,3.2-1.15,4.52-.1-.12-.32-.3-.44-.36.91-1.26,1.06-2.93,1.06-4.16v-2h5.6c-.05-.41-.1-.84-.12-1.27h-6.21v-.5h2.03v-2.06h.55v2.06h2.42v-2.59h.56v.92h3.62v.48h-3.62v1.19h4.87v.5h-3.68c.02.43.06.86.11,1.27h2.07c-.37-.32-.92-.7-1.4-.96l.34-.3c.58.3,1.27.78,1.61,1.1l-.16.16h1.04v.5h-3.43c.19,1.24.53,2.33.91,3.21.56-.76,1.01-1.64,1.33-2.6l.53.12ZM260.1,192.21c-.26.86-.68,1.75-1.13,2.34-.08-.08-.3-.23-.41-.29.46-.56.82-1.36,1.04-2.16l.49.11ZM261.38,191.43v3.61c0,.31-.06.47-.26.55-.23.1-.62.11-1.18.11-.02-.16-.12-.35-.19-.5.49.01.84.01.97,0,.12,0,.14-.04.14-.14v-3.62h-1.81v-.49h4.1v.49h-1.77ZM263,194.21c-.16-.54-.55-1.33-.97-1.92l.44-.17c.41.59.82,1.38.97,1.88l-.44.2Z"/>
          </g>
          <g>
            <path class="cls-1" d="M224.12,243.64h-7.42.04c-.48.7-1.05,1.47-1.58,2.09,1.95-.03,4.24-.07,6.53-.13-.63-.49-1.32-.98-1.95-1.37l.5-.36c1.3.8,2.89,1.99,3.66,2.79l-.53.45c-.25-.28-.6-.6-1-.95-3.59.13-7.35.24-9.82.28l-.04-.66,1.88-.03c.5-.6,1.11-1.44,1.51-2.1h-3.96v-.62h5.71v-1.48h.67v1.48h5.8v.62ZM222.13,253.39c0,.43-.11.64-.46.74-.36.1-1.04.1-2.14.1-.04-.17-.15-.41-.25-.59.91.03,1.68.01,1.91,0,.22-.01.28-.07.28-.25v-1.55h-6.81v2.41h-.67v-6.78h8.15v5.93ZM214.65,248.07v1.32h6.81v-1.32h-6.81ZM221.45,251.29v-1.33h-6.81v1.33h6.81Z"/>
            <path class="cls-1" d="M229.88,241.85c-.43,1.06-.98,2.1-1.58,3.04v9.33h-.67v-8.35c-.62.83-1.28,1.58-1.95,2.2-.08-.15-.31-.48-.45-.63,1.62-1.37,3.1-3.5,3.99-5.79l.66.2ZM234.39,245.88c.95,2.35,2.56,4.78,4.09,5.98-.17.13-.39.35-.52.53-1.53-1.33-3.12-3.85-4.1-6.3v8.17h-.66v-7.93c-.97,2.49-2.51,4.85-4.05,6.14-.14-.15-.38-.39-.53-.52,1.6-1.19,3.18-3.64,4.09-6.06h-3.68v-.66h4.17v-3.49h.66v3.49h4.3v.66h-3.77Z"/>
            <path class="cls-1" d="M252.04,246.48h-10.67v1.51c0,1.78-.22,4.38-1.42,6.23-.1-.11-.38-.34-.53-.41,1.13-1.76,1.29-4.16,1.29-5.84v-2.12h11.33v.62ZM251.33,243.56h-10.87v-.62h5.03v-1.39h.67v1.39h5.17v.62ZM247.17,253.32h4.83v.6h-10.1v-.6h4.61v-2.1h-3.35v-.59h3.35v-1.72h-2.96c-.32.53-.67,1.01-1.04,1.4-.14-.1-.42-.28-.56-.34.77-.77,1.44-1.9,1.85-3.04l.62.14c-.15.42-.34.84-.55,1.25h2.63v-1.39h.66v1.39h3.94v.59h-3.94v1.72h3.59v.59h-3.59v2.1ZM243.52,245.83c-.1-.55-.45-1.39-.83-2.02l.59-.15c.39.62.77,1.44.87,1.99l-.63.18ZM247.63,245.63c.32-.55.71-1.46.94-2.06l.7.21c-.35.71-.76,1.51-1.09,2.06l-.55-.21Z"/>
            <path class="cls-1" d="M257.77,241.85c-.43,1.06-.98,2.1-1.58,3.04v9.33h-.67v-8.35c-.62.83-1.28,1.58-1.95,2.2-.08-.15-.31-.48-.45-.63,1.62-1.37,3.1-3.5,3.99-5.79l.66.2ZM262.28,245.88c.95,2.35,2.56,4.78,4.09,5.98-.17.13-.39.35-.52.53-1.53-1.33-3.12-3.85-4.1-6.3v8.17h-.66v-7.93c-.97,2.49-2.51,4.85-4.05,6.14-.14-.15-.38-.39-.53-.52,1.6-1.19,3.18-3.64,4.09-6.06h-3.68v-.66h4.17v-3.49h.66v3.49h4.3v.66h-3.77Z"/>
            <path class="cls-1" d="M273.54,243.12v11.07h-.66v-2.72c-1.88.31-3.75.6-5.11.8l-.13-.67c.41-.06.9-.13,1.41-.2v-8.28h-1.16v-.64h6.68v.64h-1.04ZM272.88,243.12h-3.18v2.16h3.18v-2.16ZM272.88,245.91h-3.18v2.28h3.18v-2.28ZM269.7,251.32c.98-.15,2.09-.31,3.18-.48v-2.02h-3.18v2.49ZM280.09,243.65c-.41,2.98-1.26,5.28-2.42,7.03.83,1.22,1.85,2.19,3.1,2.8-.15.13-.36.39-.48.56-1.22-.66-2.21-1.6-3.04-2.77-.9,1.18-1.95,2.06-3.1,2.7-.11-.17-.31-.42-.45-.53,1.16-.6,2.24-1.53,3.15-2.79-1.02-1.71-1.74-3.84-2.2-6.25l.64-.13c.41,2.19,1.05,4.16,1.97,5.76.97-1.53,1.7-3.46,2.07-5.83h-5.1v-.66h5.29l.13-.03.42.13Z"/>
            <path class="cls-1" d="M285.56,244.9c-.32.59-.71,1.15-1.12,1.7v7.65h-.66v-6.86c-.6.7-1.25,1.32-1.88,1.82-.06-.14-.28-.45-.42-.6,1.29-.95,2.63-2.41,3.46-3.91l.62.21ZM285.42,241.83c-.77,1.16-2.06,2.42-3.28,3.25-.07-.15-.25-.39-.38-.53,1.12-.74,2.38-1.92,3.01-2.94l.64.22ZM294.41,250.29h-2.21v3.11c0,.45-.1.63-.46.76-.36.11-1.01.11-2.1.11-.03-.2-.14-.43-.24-.63.91.03,1.64.03,1.85,0,.24-.01.29-.06.29-.25v-3.1h-5.94v-.62h5.94v-1.44h-5.64v-.6h8.28v.6h-1.97v1.44h2.21v.62ZM293.39,246.48h-6.53v-4.47h6.53v4.47ZM287.48,250.72c.67.59,1.47,1.46,1.82,2.02l-.52.39c-.35-.59-1.12-1.47-1.79-2.1l.49-.31ZM292.72,242.58h-5.2v1.39h5.2v-1.39ZM292.72,244.51h-5.2v1.42h5.2v-1.42Z"/>
          </g>
          <g>
            <path class="cls-1" d="M234.9,278.67h2.97v-10.28h-2.29v-.7c1.06-.18,1.87-.47,2.5-.85h.85v11.83h2.74v.92h-6.77v-.92Z"/>
            <path class="cls-1" d="M243.2,273.18c0-4.25,1.4-6.57,3.87-6.57s3.85,2.34,3.85,6.57-1.4,6.64-3.85,6.64-3.87-2.41-3.87-6.64ZM249.88,273.18c0-3.85-1.12-5.67-2.81-5.67s-2.83,1.82-2.83,5.67,1.12,5.76,2.83,5.76,2.81-1.91,2.81-5.76Z"/>
            <path class="cls-1" d="M253,273.18c0-4.25,1.4-6.57,3.87-6.57s3.85,2.34,3.85,6.57-1.4,6.64-3.85,6.64-3.87-2.41-3.87-6.64ZM259.68,273.18c0-3.85-1.12-5.67-2.81-5.67s-2.83,1.82-2.83,5.67,1.12,5.76,2.83,5.76,2.81-1.91,2.81-5.76Z"/>
            <path class="cls-1" d="M262.59,272.58c0-1.74.73-2.72,1.9-2.72s1.89.98,1.89,2.72-.72,2.77-1.89,2.77-1.9-1-1.9-2.77ZM265.8,272.58c0-1.45-.53-2.24-1.32-2.24s-1.31.79-1.31,2.24.52,2.29,1.31,2.29,1.32-.83,1.32-2.29ZM269.59,269.86h.55l-4.87,9.06h-.55l4.87-9.06ZM268.51,276.15c0-1.75.73-2.73,1.91-2.73s1.89.98,1.89,2.73-.74,2.76-1.89,2.76-1.91-.98-1.91-2.76ZM271.72,276.15c0-1.46-.53-2.25-1.31-2.25s-1.32.79-1.32,2.25.52,2.28,1.32,2.28,1.31-.82,1.31-2.28Z"/>
          </g>
          <g>
            <path class="cls-1" d="M43.24,162.35h-5.91v5.1h-.67v-5.1h-5.83v-.67h5.83v-5.27h-5.11v-.66h10.93v.66h-5.14v5.27h5.91v.67ZM33.2,157.22c.6,1.08,1.23,2.49,1.46,3.35l-.63.24c-.22-.87-.83-2.31-1.42-3.4l.59-.18ZM39.1,160.68c.59-.92,1.32-2.48,1.71-3.54l.7.24c-.53,1.15-1.25,2.62-1.83,3.52l-.57-.21Z"/>
            <path class="cls-1" d="M46.68,163.3c.63-.27,1.3-.53,1.95-.8l.15.64c-1.64.69-3.36,1.4-4.64,1.92l-.25-.67c.59-.22,1.33-.5,2.13-.83v-4.83h-1.9v-.64h1.9v-3.31h.66v3.31h1.83v.64h-1.83v4.57ZM56.41,157.13s0,.31-.01.42c-.22,6.57-.42,8.8-.98,9.46-.28.34-.57.43-1.04.46-.48.03-1.36,0-2.24-.06-.01-.2-.1-.49-.21-.69,1,.1,1.93.1,2.26.1.28.01.46-.03.6-.2.5-.52.73-2.72.94-8.85h-5.58c-.49,1.01-1.04,1.91-1.62,2.61-.14-.11-.43-.32-.62-.42,1.16-1.26,2.09-3.19,2.65-5.18l.67.15c-.22.76-.49,1.5-.78,2.2h5.97ZM54.2,163.22c-1.76.7-3.67,1.43-5.06,1.96l-.31-.62c1.29-.46,3.32-1.2,5.25-1.95l.11.6ZM53.92,159.93v.63h-4.48v-.63h4.48Z"/>
            <path class="cls-1" d="M61.57,154.89c-.24.7-.52,1.51-.76,2.12h2.44v8.96h-3.99v1.15h-.63v-10.11h1.55c.24-.66.53-1.62.67-2.28l.71.17ZM62.6,157.62h-3.35v3.35h3.35v-3.35ZM62.6,165.33v-3.75h-3.35v3.75h3.35ZM70.13,157.39c-.24,6.5-.43,8.63-.99,9.29-.27.31-.55.41-.98.43-.43.03-1.25.01-2.02-.04-.03-.21-.1-.48-.22-.66.92.07,1.75.08,2.06.08.28,0,.45-.03.59-.21.46-.5.7-2.68.91-8.66h-3.92c-.41.99-.87,1.89-1.37,2.61-.11-.1-.41-.27-.57-.36.98-1.27,1.71-3.22,2.14-5.21l.66.15c-.17.74-.38,1.48-.63,2.19h4.36v.39ZM67.39,163.64c-.45-.85-1.43-2.26-2.27-3.26l.55-.31c.83,1.01,1.83,2.37,2.28,3.21l-.56.36Z"/>
            <path class="cls-1" d="M76.37,157.73c.77-.11,1.57-.29,2.38-.56l.03.7c-.81.22-1.71.41-2.62.52-.71,1.99-1.97,4.41-3.1,5.88l-.71-.38c1.19-1.34,2.45-3.7,3.08-5.42-.5.04-1.02.06-1.53.06s-1.09-.01-1.57-.03l-.06-.7c.48.06.98.08,1.64.08.55,0,1.12-.01,1.74-.08.24-.76.46-1.71.49-2.48l.81.08c-.14.55-.35,1.5-.59,2.33ZM80.25,161.05c.01.59.07,1.65.11,2.61,1.21.42,2.17,1.11,2.91,1.72l-.39.62c-.66-.59-1.5-1.23-2.49-1.65.01.32.01.6.01.83,0,1.01-.73,1.86-2.3,1.86-1.43,0-2.61-.53-2.61-1.83s1.25-1.92,2.61-1.92c.57,0,1.11.07,1.61.2-.04-1.22-.13-2.69-.15-3.77h.71c-.03.57-.04.9-.03,1.34ZM78.04,166.37c1.29,0,1.72-.67,1.72-1.41,0-.24,0-.53-.01-.84-.52-.15-1.06-.25-1.64-.25-1.15,0-1.95.55-1.95,1.27s.59,1.23,1.88,1.23ZM80.21,157.97l.35-.53c1.02.45,2.54,1.34,3.17,1.83l-.42.59c-.71-.63-2.2-1.47-3.1-1.89Z"/>
            <path class="cls-1" d="M89.48,156.17c0,.31-.03.99-.06,1.81,1.08-.13,2.23-.35,3.05-.6v.71c-.81.21-1.99.41-3.07.53-.03.78-.04,1.61-.04,2.27v.48c1.13-.41,2.31-.62,3.32-.62,1.99,0,3.32,1.11,3.32,2.63,0,1.71-1.18,2.69-2.93,3.1-.62.14-1.23.15-1.67.17l-.25-.71c.46.01,1.05.01,1.6-.1,1.29-.27,2.54-.97,2.54-2.44,0-1.32-1.22-2.02-2.61-2.02-1.16,0-2.19.22-3.31.64.01,1.23.06,2.56.06,3.25,0,1.05-.39,1.43-1.06,1.43-.94,0-2.69-1.01-2.69-2.13s1.5-2.28,3.04-2.96v-.69c0-.66.01-1.47.03-2.24-.45.04-.87.07-1.2.07-.71,0-1.23-.03-1.7-.07l-.03-.7c.74.1,1.19.13,1.71.13.35,0,.77-.03,1.23-.07.01-.87.03-1.6.03-1.85,0-.28-.03-.63-.07-.85h.84c-.04.25-.06.5-.08.83ZM88.24,165.97c.36,0,.55-.29.55-.74,0-.6-.03-1.78-.04-2.93-1.3.57-2.33,1.53-2.33,2.26s1.16,1.41,1.82,1.41ZM97.17,159l-.39.59c-.7-.71-2.1-1.62-3.03-2.13l.36-.55c.95.53,2.42,1.51,3.05,2.09Z"/>
            <path class="cls-1" d="M99.65,162.73c-.22,1.3-.59,2.63-1.06,3.53-.13-.08-.41-.22-.56-.28.5-.87.81-2.12,1.01-3.38l.62.13ZM101.97,159.3c.59.88,1.16,2.07,1.37,2.82l-.56.25c-.07-.25-.18-.56-.31-.9l-1.34.08v5.94h-.62v-5.9c-.85.06-1.64.1-2.31.14l-.06-.64.88-.04c.35-.43.71-.97,1.09-1.53-.45-.63-1.22-1.46-1.91-2.05l.38-.42c.15.13.31.27.46.41.5-.78,1.06-1.91,1.39-2.7l.6.27c-.46.91-1.06,2.06-1.6,2.82.39.39.76.78,1.02,1.13.57-.91,1.12-1.88,1.53-2.66l.59.27c-.8,1.41-1.92,3.19-2.89,4.44.77-.03,1.62-.07,2.51-.13-.22-.48-.49-.97-.76-1.39l.52-.21ZM102.36,162.53c.42.78.8,1.85.92,2.54l-.55.2c-.14-.7-.5-1.76-.9-2.58l.52-.15ZM107.15,154.84c1.01,1.64,2.66,3.54,4.1,4.65-.17.17-.34.42-.45.62-1.43-1.22-3.07-3.08-3.95-4.55-.77,1.47-2.28,3.33-3.85,4.62-.1-.17-.28-.41-.43-.55,1.57-1.23,3.15-3.21,3.89-4.79h.69ZM104.09,162.02h5.87v5.36h-.64v-.77h-4.58v.83h-.64v-5.42ZM109.31,159.44v.63h-4.68v-.63h4.68ZM104.74,162.63v3.35h4.58v-3.35h-4.58Z"/>
            <path class="cls-1" d="M115.6,160.36c.39.49,1.83,2.52,2.14,3.01l-.49.55c-.27-.56-1.11-1.91-1.65-2.73v6.25h-.64v-6.18c-.56,1.6-1.37,3.29-2.13,4.26-.08-.18-.27-.46-.39-.6.87-1.04,1.86-3.08,2.37-4.8h-2.17v-.64h2.33v-4.68h.64v4.68h2.42v.64h-2.42v.25ZM113.64,158.84c-.1-.81-.45-2.07-.84-3.03l.53-.13c.42.94.77,2.19.88,3l-.57.15ZM117.89,155.82c-.35,1.01-.8,2.33-1.18,3.08l-.46-.17c.35-.8.79-2.19,1.02-3.1l.62.18ZM123.41,163.4v4.03h-.64v-3.92l-4.64.85-.13-.62,4.76-.85v-8.12h.64v8l1.76-.31.11.6-1.88.34ZM120.8,161.52c-.5-.52-1.5-1.22-2.35-1.64l.32-.48c.85.42,1.88,1.08,2.37,1.55l-.34.56ZM121.44,158.15c-.45-.53-1.42-1.29-2.24-1.78l.38-.48c.83.49,1.77,1.19,2.21,1.74l-.35.52Z"/>
          </g>
          <g>
            <path class="cls-1" d="M7.38,206.04c0,2.05.24,6.67,5.13,9.59-.13.1-.37.32-.48.46-3.27-1.99-4.51-4.86-4.96-7.18-.9,3.39-2.45,5.71-5.04,7.21-.1-.11-.36-.35-.52-.47,2.76-1.44,4.27-3.92,5.06-7.44l.38.07c-.1-.62-.13-1.19-.14-1.67h-3.08v-.58h3.65Z"/>
            <path class="cls-1" d="M17.19,212.56c-.33-.35-1.2-1.14-1.77-1.64v5.22h-.56v-5c-.67.68-1.38,1.27-2.06,1.72-.07-.14-.24-.37-.34-.47,1.49-.94,3.13-2.58,3.99-4.31h-3.6v-.54h2v-2.27h.56v2.27h1.33l.11-.04.35.23c-.4.94-1,1.85-1.67,2.65.52.42,1.69,1.44,2,1.71l-.35.47ZM23.69,215.23v.56h-6.73v-.56h3.2v-5.36h-2.73v-.56h2.73v-3.96h.58v3.96h2.71v.56h-2.71v5.36h2.95Z"/>
            <path class="cls-1" d="M24.47,214.22l.4-.47c.5.54,1.19,1.07,2.3,1.07s1.94-.74,1.94-1.88-.82-1.96-2.9-1.96v-.59c1.92,0,2.59-.83,2.59-1.87,0-.94-.65-1.56-1.66-1.57-.76.01-1.44.4-1.92.91l-.41-.48c.6-.56,1.34-1.02,2.34-1.02,1.34,0,2.36.78,2.36,2.11,0,1.13-.67,1.85-1.61,2.16v.06c1.06.23,1.92,1.02,1.92,2.25,0,1.52-1.15,2.47-2.64,2.47-1.35,0-2.17-.61-2.72-1.2Z"/>
            <path class="cls-1" d="M41.95,213.27h-4.5v2.88h-.58v-2.88h-5.66v-.56h2.03v-3.27h3.63v-2.07h-3.14c-.56.97-1.24,1.82-1.93,2.48-.11-.1-.36-.28-.52-.36,1.19-1.02,2.22-2.58,2.83-4.25l.59.14c-.19.49-.42.97-.65,1.43h7.39v.55h-3.99v2.07h3.74v.55h-3.74v2.72h4.5v.56ZM36.88,212.71v-2.72h-3.06v2.72h3.06Z"/>
            <path class="cls-1" d="M51.89,206.08v10.04h-.59v-.86h-6.72v.86h-.58v-10.04h7.88ZM44.59,206.64v2.29h6.72v-2.29h-6.72ZM44.59,209.48v2.31h6.72v-2.31h-6.72ZM51.31,214.69v-2.33h-6.72v2.33h6.72Z"/>
            <path class="cls-1" d="M5.21,229.13c0-.29-.02-.79-.08-1.14h.77c-.04.34-.07.85-.07,1.14v2.08c1.57.48,3.81,1.34,5.19,2.03l-.26.64c-1.33-.73-3.6-1.6-4.93-2,.01,1.98.01,4.03.01,4.28,0,.41.01.94.06,1.27h-.74c.05-.32.06-.84.06-1.27v-7.02Z"/>
            <path class="cls-1" d="M15.14,233.65l-.58.22c-.19-.62-.86-2.31-1.07-2.67l.56-.23c.2.44.85,2.08,1.08,2.69ZM21.01,231.35c-.31,1.39-.84,2.7-1.73,3.8-1.1,1.38-2.55,2.28-3.85,2.77l-.52-.53c1.43-.43,2.87-1.34,3.86-2.57.86-1.07,1.5-2.55,1.71-4.1l.66.2c-.06.16-.11.31-.14.42ZM17.77,232.93l-.56.22c-.12-.53-.7-2.1-.92-2.58l.58-.19c.19.47.78,2.05.91,2.55Z"/>
            <path class="cls-1" d="M32.07,227.35c.72,0,1.29.58,1.29,1.3s-.58,1.28-1.29,1.28c-.23,0-.43-.06-.61-.16v.06c-.25,1.31-.88,3.27-1.79,4.45-1.1,1.39-2.43,2.45-4.67,3.14l-.53-.58c2.29-.6,3.63-1.61,4.67-2.94.88-1.13,1.5-2.99,1.67-4.21h-6.46c-.43,0-.74.02-1.06.04v-.7c.31.04.67.07,1.07.07h6.28c.07,0,.16,0,.23-.01-.06-.13-.08-.29-.08-.46,0-.72.56-1.3,1.28-1.3ZM32.07,229.49c.47,0,.85-.37.85-.84s-.38-.86-.85-.86-.85.4-.85.86.38.84.85.84Z"/>
            <path class="cls-1" d="M43.84,227.35c.72,0,1.3.58,1.3,1.3s-.58,1.28-1.3,1.28c-.23,0-.43-.06-.61-.16v.06c-.25,1.31-.88,3.27-1.79,4.45-1.1,1.39-2.43,2.45-4.67,3.14l-.53-.58c2.29-.6,3.63-1.61,4.67-2.94.88-1.13,1.5-2.99,1.67-4.21h-6.46c-.43,0-.74.02-1.05.04v-.7c.31.04.67.07,1.07.07h6.28c.07,0,.16,0,.23-.01-.06-.13-.08-.29-.08-.46,0-.72.56-1.3,1.28-1.3ZM43.84,229.49c.47,0,.85-.37.85-.84s-.38-.86-.85-.86-.85.4-.85.86.38.84.85.84Z"/>
            <path class="cls-1" d="M47.46,236.35v-7.06c0-.24-.04-.76-.07-.94h.77c-.04.2-.07.65-.07.92v7.15c2.49-.6,5.34-2.21,6.8-4.16l.36.53c-1.51,1.92-3.97,3.42-7.05,4.26-.11.04-.25.08-.38.14l-.43-.36c.06-.13.08-.26.08-.48Z"/>
            <path class="cls-1" d="M62.42,230.74c1.27-.82,2.38-1.75,3.24-2.78l.5.47c-.92.97-1.99,1.87-3.26,2.71v5.19c0,.4.02.9.06,1.1h-.74c.02-.19.05-.71.05-1.1v-4.8c-1.26.76-2.99,1.52-4.75,2.07l-.32-.59c2.04-.56,3.91-1.45,5.23-2.28Z"/>
            <path class="cls-1" d="M70.31,228.63c.13.47.31,1.13.52,1.86,2.18-.41,4.96-.94,5.36-1.03.14-.04.31-.08.42-.13l.43.3c-.58,1.15-2.06,3.05-3.05,3.95l-.62-.31c1.02-.8,2.28-2.41,2.76-3.23-.32.06-2.85.55-5.15,1.01.61,2.22,1.36,4.91,1.54,5.5.07.24.18.56.28.82l-.72.18c-.05-.24-.11-.58-.19-.85-.16-.56-.92-3.41-1.5-5.53-1.47.29-2.75.55-3.09.64l-.19-.68c.4-.04.71-.07,1.12-.13.2-.04,1-.18,2.02-.37-.25-.92-.46-1.63-.52-1.82-.12-.38-.2-.64-.3-.8l.72-.18c.02.22.1.47.18.83Z"/>
            <path class="cls-1" d="M79.71,232.22h6.64c.62,0,.98-.02,1.22-.05v.74c-.22-.01-.66-.04-1.21-.04h-6.66c-.66,0-1.2.01-1.52.04v-.74c.31.02.82.05,1.52.05Z"/>
          </g>
          <g>
            <path class="cls-1" d="M98.53,214.48c4.11-4.16,6.21-6.5,6.21-8.7,0-1.55-.83-2.74-2.68-2.74-1.13,0-2.16.68-2.92,1.62l-.67-.63c.99-1.08,2.11-1.89,3.69-1.89,2.29,0,3.64,1.44,3.64,3.6,0,2.5-2.27,4.93-5.71,8.55.7-.05,1.46-.11,2.16-.11h4.18v.94h-7.9v-.65Z"/>
            <path class="cls-1" d="M108.45,214.1l.63-.68c.54.68,1.33,1.04,2.14,1.04,1.98,0,3.71-1.6,3.71-6.12-.88,1.08-2.03,1.75-3.19,1.75-2.21,0-3.56-1.37-3.56-3.93,0-2.36,1.64-4.02,3.55-4.02,2.54,0,4.23,2.12,4.23,6.05,0,5.28-2.25,7.17-4.72,7.17-1.24,0-2.14-.52-2.79-1.26ZM111.89,209.24c.9,0,2.07-.54,3.01-1.91-.18-2.65-1.22-4.3-3.19-4.3-1.42,0-2.48,1.33-2.48,3.13s.81,3.08,2.67,3.08Z"/>
            <path class="cls-1" d="M124.85,205.81c-.02.88-.06,1.82-.17,2.76h5.35s-.01.23-.01.31c-.23,3.98-.43,5.41-.9,5.89-.22.25-.47.32-.89.35-.42.01-1.27,0-2.11-.07-.01-.18-.08-.4-.2-.56.94.1,1.84.1,2.14.1.29.01.44-.01.56-.14.4-.36.6-1.73.8-5.31h-4.81c-.34,2.43-1.24,4.8-3.67,6.09-.1-.13-.29-.31-.43-.41,3.48-1.79,3.68-5.82,3.75-9h-3.49v-.55h10.42v.55h-6.34Z"/>
            <path class="cls-1" d="M142.87,214.27c0,.46-.13.67-.48.78-.35.1-1,.11-2.07.11-.05-.17-.14-.42-.24-.6.9.04,1.68.02,1.91.01.23-.01.31-.08.31-.3v-4.16h-8.56v5.07h-.58v-10.04h9.71v9.13ZM133.73,209.54h3.95v-3.83h-3.95v3.83ZM142.29,209.54v-3.83h-4.05v3.83h4.05Z"/>
            <path class="cls-1" d="M103.88,234.51h-5.82v-.63l5.8-8.37h1.03v8.14h1.85v.86h-1.85v3.75h-1.01v-3.75ZM103.88,233.65v-4.47c0-.59.04-1.64.09-2.25h-.09c-.31.54-.67,1.04-1.04,1.62l-3.57,5.1h4.61Z"/>
            <path class="cls-1" d="M108.16,237.61c4.11-4.16,6.21-6.5,6.21-8.7,0-1.55-.83-2.74-2.68-2.74-1.13,0-2.16.68-2.92,1.62l-.67-.63c.99-1.08,2.11-1.89,3.69-1.89,2.29,0,3.64,1.44,3.64,3.6,0,2.5-2.27,4.93-5.71,8.55.7-.05,1.46-.11,2.16-.11h4.18v.94h-7.9v-.65Z"/>
            <path class="cls-1" d="M124.85,228.94c-.02.88-.06,1.82-.17,2.76h5.35s-.01.23-.01.31c-.23,3.98-.43,5.41-.9,5.89-.22.25-.47.32-.89.35-.42.01-1.27,0-2.11-.07-.01-.18-.08-.4-.2-.56.94.1,1.84.1,2.14.1.29.01.44-.01.56-.14.4-.36.6-1.73.8-5.31h-4.81c-.34,2.43-1.24,4.8-3.67,6.09-.1-.13-.29-.31-.43-.41,3.48-1.79,3.68-5.82,3.75-8.99h-3.49v-.55h10.42v.55h-6.34Z"/>
            <path class="cls-1" d="M142.87,237.4c0,.46-.13.67-.48.78-.35.1-1,.11-2.07.11-.05-.17-.14-.42-.24-.6.9.04,1.68.02,1.91.01.23-.01.31-.08.31-.3v-4.16h-8.56v5.07h-.58v-10.04h9.71v9.13ZM133.73,232.67h3.95v-3.83h-3.95v3.83ZM142.29,232.67v-3.83h-4.05v3.83h4.05Z"/>
          </g>
          <line class="cls-5" x1=".5" y1="305.77" x2="335.5" y2="305.77"/>
          <line class="cls-5" x1=".5" y1="132.98" x2="335.5" y2="132.98"/>
          <g>
            <path class="cls-1" d="M143.45,6.92v2.99h-.75v-2.29h-11.52v2.29h-.72v-2.99h2.43c-.3-.59-.9-1.41-1.44-2.03l.64-.29c.59.64,1.25,1.54,1.54,2.13l-.37.19h3.42c-.24-.64-.77-1.6-1.26-2.3l.66-.24c.53.7,1.1,1.68,1.3,2.3l-.56.24h3.06c.62-.67,1.36-1.68,1.79-2.39l.75.32c-.5.69-1.09,1.46-1.65,2.06h2.69ZM137.03,12.67c-.18.5-.35,1.02-.54,1.47h5.84v4.71h-.75v-.64h-9.12v.67h-.74v-4.74h4.03c.16-.45.34-1.01.46-1.47h-3.52v-3.57h8.52v3.57h-4.18ZM141.58,14.85h-9.12v2.66h9.12v-2.66ZM133.42,12.01h7.04v-2.26h-7.04v2.26Z"/>
            <path class="cls-1" d="M153.73,14.96c1.49,1.33,3.95,2.48,6.08,3.01-.18.16-.4.46-.51.67-2.24-.66-4.88-2.05-6.43-3.62v3.86h-.75v-3.81c-1.52,1.54-4.13,2.85-6.36,3.49-.11-.21-.35-.5-.51-.66,2.08-.53,4.51-1.65,5.99-2.95h-5.62v-.69h6.5v-1.46h-4.98v-.66h4.98v-1.44h-5.78v-.67h3.78c-.16-.53-.53-1.26-.93-1.82l.62-.16h-4.11v-.69h4.88v-3.01h.75v3.01h2.34v-3.01h.74v3.01h4.98v.69h-3.76l.37.11c-.35.66-.74,1.34-1.1,1.87h3.94v.67h-5.95v1.44h5.17v.66h-5.17v1.46h6.58v.69h-5.71ZM148.49,7.29c-.24-.66-.85-1.7-1.42-2.47l.66-.22c.59.74,1.22,1.76,1.44,2.42l-.67.27ZM149.88,8.06c.42.58.82,1.33.98,1.84l-.51.14h4.24l-.38-.13c.32-.51.72-1.28.98-1.86h-5.3ZM158.13,4.86c-.46.86-1.02,1.86-1.49,2.51l-.62-.24c.46-.69,1.04-1.76,1.36-2.5l.75.22Z"/>
            <path class="cls-1" d="M165.97,15.7h-3.55v1.25h-.75V5.47h4.31v10.23ZM162.42,6.19v3.99h2.82v-3.99h-2.82ZM165.23,14.98v-4.08h-2.82v4.08h2.82ZM173.41,10.24v2.08h2.06v.7h-2.06v4.8c0,.53-.14.78-.56.91-.42.11-1.18.11-2.54.11-.03-.19-.14-.5-.27-.74,1.1.03,2.02.03,2.27.03.29-.02.35-.1.35-.32v-4.8h-6.31v-.7h6.31v-2.08h-6.42v-.72h4.27v-2.4h-3.52v-.7h3.52v-2.05h.75v2.05h3.62v.7h-3.62v2.4h4.42v.72h-2.27ZM168.13,13.79c.86.85,1.81,2.02,2.18,2.82l-.66.43c-.37-.8-1.26-2.02-2.13-2.88l.61-.37Z"/>
            <path class="cls-1" d="M178.49,10.4v8.5h-.75V5.12h5.59v5.28h-4.83ZM178.49,5.76v1.65h4.1v-1.65h-4.1ZM182.59,9.76v-1.73h-4.1v1.73h4.1ZM187.06,17.39h-5.11v.82h-.74v-6.47h5.84v5.65ZM181.95,12.41v1.76h4.37v-1.76h-4.37ZM186.32,16.74v-1.89h-4.37v1.89h4.37ZM190.71,17.7c0,.61-.16.9-.61,1.04-.45.13-1.26.13-2.58.13-.03-.21-.18-.56-.29-.8,1.07.03,2.03.02,2.32,0,.29,0,.38-.1.38-.37v-7.28h-4.96v-5.3h5.73v12.58ZM185.71,5.76v1.65h4.23v-1.65h-4.23ZM189.94,9.76v-1.73h-4.23v1.73h4.23Z"/>
            <path class="cls-1" d="M206.29,17.66c0,.62-.16.91-.62,1.06-.5.14-1.47.14-2.91.14-.05-.24-.18-.58-.29-.82,1.25.05,2.35.03,2.67.02.32-.02.4-.11.4-.4V7.92h-5.19c-.03.72-.11,1.49-.34,2.27,1.73,1.49,3.83,3.51,4.87,4.75l-.64.5c-.91-1.18-2.79-3.06-4.43-4.53-.59,1.62-1.78,3.27-4.18,4.64-.1-.16-.35-.43-.53-.56,3.79-2.08,4.39-4.88,4.47-7.07h-5.14v11h-.77V7.16h5.92v-2.77h.78v2.77h5.92v10.5Z"/>
            <path class="cls-1" d="M215.7,18.06l-.46-.78c.43-.02.94-.1,1.3-.16,2.05-.45,4.32-2.02,4.32-5.03,0-2.53-1.78-4.75-4.85-4.9-.19,1.58-.5,3.31-.94,4.79-.98,3.31-2.19,4.83-3.52,4.83-1.22,0-2.61-1.44-2.61-4.05,0-3.36,3.01-6.31,6.79-6.31s5.94,2.58,5.94,5.67c0,3.36-2.29,5.51-5.95,5.94ZM211.59,15.92c.78,0,1.79-1.1,2.69-4.13.43-1.42.75-3.04.91-4.58-3.31.29-5.47,3.07-5.47,5.49,0,2.26,1.09,3.22,1.87,3.22Z"/>
            <path class="cls-1" d="M223.46,7.07h5.23v.69h-5.23v-.69ZM228.29,9.9h-4.16v-.66h4.16v.66ZM224.13,11.39h4.16v.66h-4.16v-.66ZM228.35,18.06h-3.52v.8h-.7v-5.33h4.23v4.53ZM228.24,5.64h-4.02v-.66h4.02v.66ZM224.83,14.21v3.19h2.83v-3.19h-2.83ZM238.04,16.26h-.93v1.7c0,.46-.11.69-.48.8-.35.11-1.02.11-2.08.11-.05-.18-.14-.46-.24-.67.85.03,1.57.03,1.79.02.22-.02.27-.08.27-.26v-1.7h-5.76v2.62h-.69v-2.62h-1.07v-.67h1.07v-4.1h3.15v-1.12h-4.21v-.66h2.48v-1.31h-1.71v-.64h1.71v-1.22h-2.03v-.64h2.03v-1.5h.7v1.5h2.98v-1.5h.72v1.5h2.08v.64h-2.08v1.22h1.76v.64h-1.76v1.31h2.27v.66h-4.26v1.12h3.35v4.1h.93v.67ZM230.61,12.13v1.46h2.46v-1.46h-2.46ZM230.61,15.58h2.46v-1.39h-2.46v1.39ZM232.05,7.76h2.98v-1.22h-2.98v1.22ZM232.05,9.71h2.98v-1.31h-2.98v1.31ZM233.76,12.13v1.46h2.61v-1.46h-2.61ZM236.37,15.58v-1.39h-2.61v1.39h2.61Z"/>
            <path class="cls-1" d="M244.29,9.29c-1.47.59-2.98,1.22-4.18,1.68l-.32-.66c1.12-.37,2.75-.99,4.37-1.65l.13.62ZM245.32,5.93h-5.17v-.67h5.89v5.28c0,.4-.1.61-.43.74-.35.13-.96.11-1.98.11-.05-.19-.16-.45-.26-.62.82.02,1.49.02,1.68,0,.21,0,.27-.06.27-.22v-4.61ZM241.43,6.27c.8.42,1.73,1.09,2.15,1.58l-.46.53c-.45-.53-1.34-1.22-2.13-1.65l.45-.46ZM247.24,11.02c-.24.46-.5.93-.74,1.33h5.38v6.58h-.79v-.66h-8.35v.66h-.75v-6.58h3.75c.27-.48.58-1.1.72-1.54l.78.21ZM251.1,13.01h-8.35v1.92h8.35v-1.92ZM251.1,17.6v-2h-8.35v2h8.35ZM246.84,9.98c1.17-.38,2.9-1.01,4.59-1.62l.11.61c-1.54.58-3.14,1.18-4.39,1.63l-.32-.62ZM253.15,10.57c0,.43-.11.64-.45.77-.35.11-.99.13-2.07.11-.03-.19-.14-.46-.24-.64.83.03,1.54.03,1.75.02.21-.02.27-.06.27-.26v-4.64h-5.27v-.67h6v5.31ZM249.83,8.33c-.43-.53-1.34-1.17-2.15-1.58l.45-.46c.78.38,1.71,1.02,2.18,1.5l-.48.54Z"/>
          </g>
          <g>
            <path class="cls-1" d="M143.45,39.43v2.99h-.75v-2.29h-11.52v2.29h-.72v-2.99h2.43c-.3-.59-.9-1.41-1.44-2.03l.64-.29c.59.64,1.25,1.54,1.54,2.13l-.37.19h3.42c-.24-.64-.77-1.6-1.26-2.3l.66-.24c.53.7,1.1,1.68,1.3,2.3l-.56.24h3.06c.62-.67,1.36-1.68,1.79-2.39l.75.32c-.5.69-1.09,1.46-1.65,2.06h2.69ZM137.03,45.18c-.18.5-.35,1.02-.54,1.47h5.84v4.71h-.75v-.64h-9.12v.67h-.74v-4.74h4.03c.16-.45.34-1.01.46-1.47h-3.52v-3.57h8.52v3.57h-4.18ZM141.58,47.36h-9.12v2.66h9.12v-2.66ZM133.42,44.52h7.04v-2.26h-7.04v2.26Z"/>
            <path class="cls-1" d="M153.73,47.47c1.49,1.33,3.95,2.48,6.08,3.01-.18.16-.4.46-.51.67-2.24-.66-4.88-2.05-6.43-3.62v3.86h-.75v-3.81c-1.52,1.54-4.13,2.85-6.36,3.49-.11-.21-.35-.5-.51-.66,2.08-.53,4.51-1.65,5.99-2.95h-5.62v-.69h6.5v-1.46h-4.98v-.66h4.98v-1.44h-5.78v-.67h3.78c-.16-.53-.53-1.26-.93-1.82l.62-.16h-4.11v-.69h4.88v-3.01h.75v3.01h2.34v-3.01h.74v3.01h4.98v.69h-3.76l.37.11c-.35.66-.74,1.34-1.1,1.87h3.94v.67h-5.95v1.44h5.17v.66h-5.17v1.46h6.58v.69h-5.71ZM148.49,39.8c-.24-.66-.85-1.7-1.42-2.47l.66-.22c.59.74,1.22,1.76,1.44,2.42l-.67.27ZM149.88,40.57c.42.58.82,1.33.98,1.84l-.51.14h4.24l-.38-.13c.32-.51.72-1.28.98-1.86h-5.3ZM158.13,37.37c-.46.86-1.02,1.86-1.49,2.51l-.62-.24c.46-.69,1.04-1.76,1.36-2.5l.75.22Z"/>
            <path class="cls-1" d="M165.97,48.2h-3.55v1.25h-.75v-11.48h4.31v10.23ZM162.42,38.7v3.99h2.82v-3.99h-2.82ZM165.23,47.48v-4.08h-2.82v4.08h2.82ZM173.41,42.75v2.08h2.06v.7h-2.06v4.8c0,.53-.14.78-.56.91-.42.11-1.18.11-2.54.11-.03-.19-.14-.5-.27-.74,1.1.03,2.02.03,2.27.03.29-.02.35-.1.35-.32v-4.8h-6.31v-.7h6.31v-2.08h-6.42v-.72h4.27v-2.4h-3.52v-.7h3.52v-2.05h.75v2.05h3.62v.7h-3.62v2.4h4.42v.72h-2.27ZM168.13,46.3c.86.85,1.81,2.02,2.18,2.82l-.66.43c-.37-.8-1.26-2.02-2.13-2.88l.61-.37Z"/>
            <path class="cls-1" d="M178.49,42.91v8.5h-.75v-13.78h5.59v5.28h-4.83ZM178.49,38.26v1.65h4.1v-1.65h-4.1ZM182.59,42.27v-1.73h-4.1v1.73h4.1ZM187.06,49.9h-5.11v.82h-.74v-6.47h5.84v5.65ZM181.95,44.92v1.76h4.37v-1.76h-4.37ZM186.32,49.24v-1.89h-4.37v1.89h4.37ZM190.71,50.2c0,.61-.16.9-.61,1.04-.45.13-1.26.13-2.58.13-.03-.21-.18-.56-.29-.8,1.07.03,2.03.02,2.32,0,.29,0,.38-.1.38-.37v-7.28h-4.96v-5.3h5.73v12.58ZM185.71,38.26v1.65h4.23v-1.65h-4.23ZM189.94,42.27v-1.73h-4.23v1.73h4.23Z"/>
            <path class="cls-1" d="M206.29,50.17c0,.62-.16.91-.62,1.06-.5.14-1.47.14-2.91.14-.05-.24-.18-.58-.29-.82,1.25.05,2.35.03,2.67.02.32-.02.4-.11.4-.4v-9.75h-5.19c-.03.72-.11,1.49-.34,2.27,1.73,1.49,3.83,3.51,4.87,4.75l-.64.5c-.91-1.18-2.79-3.06-4.43-4.53-.59,1.62-1.78,3.27-4.18,4.64-.1-.16-.35-.43-.53-.56,3.79-2.08,4.39-4.88,4.47-7.07h-5.14v11h-.77v-11.75h5.92v-2.77h.78v2.77h5.92v10.5Z"/>
            <path class="cls-1" d="M210.11,39.86c.85-.11,4.1-.45,7.06-.69,1.81-.16,3.15-.24,4.19-.27v.82c-.96-.02-2.37.02-3.15.27-2.5.86-3.86,3.52-3.86,5.41,0,3.41,3.2,4.43,5.73,4.51l-.29.82c-2.74-.06-6.23-1.5-6.23-5.14,0-2.61,1.65-4.79,3.36-5.68-1.86.19-6.4.62-8.07.96l-.11-.93c.61-.02,1.04-.05,1.36-.08ZM220.39,44.17l-.61.29c-.34-.7-.86-1.63-1.33-2.27l.59-.27c.35.51.98,1.5,1.34,2.26ZM222.18,43.53l-.61.3c-.35-.74-.9-1.63-1.38-2.29l.56-.27c.38.51,1.02,1.5,1.42,2.26Z"/>
            <path class="cls-1" d="M227.43,44.52v6.85h-.7v-6.82c-.99.06-1.92.11-2.71.14l-.08-.72,1.1-.05c.37-.45.77-.99,1.17-1.57-.48-.72-1.31-1.68-2.1-2.39l.45-.46c.19.16.37.34.56.53.56-.91,1.22-2.22,1.58-3.15l.69.29c-.53,1.09-1.23,2.42-1.84,3.31.42.43.78.88,1.07,1.28.7-1.07,1.38-2.19,1.86-3.11l.69.32c-.94,1.55-2.24,3.52-3.35,4.91.88-.05,1.84-.1,2.85-.14-.26-.53-.56-1.07-.86-1.54l.61-.24c.69,1.02,1.36,2.39,1.62,3.23l-.66.3c-.08-.3-.22-.69-.4-1.09l-1.55.1ZM225.76,45.98c-.26,1.5-.64,3.01-1.17,4.03-.13-.1-.46-.24-.64-.3.56-.99.9-2.43,1.1-3.86l.7.13ZM229.09,48.91c-.1-.78-.45-2-.85-2.93l.61-.18c.43.93.77,2.13.88,2.91l-.64.19ZM234.93,46.32c1.01,1.49,2.67,3.04,4.08,3.78-.18.14-.4.4-.54.59-1.34-.82-2.95-2.37-3.99-3.92v4.61h-.75v-4.55c-1.06,1.65-2.71,3.15-4.21,3.97-.13-.21-.35-.46-.54-.61,1.57-.74,3.28-2.29,4.31-3.87h-2.98v-5.39h3.42v-1.6h-3.97v-.72h3.97v-1.7h.75v1.7h3.99v.72h-3.99v1.6h3.57v5.39h-3.12ZM231.01,43.29h2.75v-1.73h-2.75v1.73ZM231.01,45.66h2.75v-1.74h-2.75v1.74ZM237.32,41.56h-2.87v1.73h2.87v-1.73ZM237.32,43.91h-2.87v1.74h2.87v-1.74Z"/>
            <path class="cls-1" d="M244.67,41.8c-1.47.59-2.98,1.22-4.18,1.68l-.32-.66c1.12-.37,2.75-.99,4.37-1.65l.13.62ZM245.69,38.44h-5.17v-.67h5.89v5.28c0,.4-.1.61-.43.74-.35.13-.96.11-1.98.11-.05-.19-.16-.45-.26-.62.82.02,1.49.02,1.68,0,.21,0,.27-.06.27-.22v-4.61ZM241.81,38.78c.8.42,1.73,1.09,2.14,1.58l-.46.53c-.45-.53-1.34-1.22-2.13-1.65l.45-.46ZM247.62,43.53c-.24.46-.5.93-.74,1.33h5.38v6.58h-.79v-.66h-8.35v.66h-.75v-6.58h3.75c.27-.48.58-1.1.72-1.54l.78.21ZM251.47,45.52h-8.35v1.92h8.35v-1.92ZM251.47,50.11v-2h-8.35v2h8.35ZM247.22,42.49c1.17-.38,2.9-1.01,4.59-1.62l.11.61c-1.54.58-3.14,1.18-4.39,1.63l-.32-.62ZM253.52,43.08c0,.43-.11.64-.45.77-.35.11-.99.13-2.06.11-.03-.19-.14-.46-.24-.64.83.03,1.54.03,1.75.02.21-.02.27-.06.27-.26v-4.64h-5.27v-.67h6v5.31ZM250.21,40.84c-.43-.53-1.34-1.17-2.15-1.58l.45-.46c.78.38,1.71,1.02,2.18,1.5l-.48.54Z"/>
          </g>
          <g>
            <path class="cls-1" d="M143.45,73.85v2.99h-.75v-2.29h-11.52v2.29h-.72v-2.99h2.43c-.3-.59-.9-1.41-1.44-2.03l.64-.29c.59.64,1.25,1.54,1.54,2.13l-.37.19h3.42c-.24-.64-.77-1.6-1.26-2.3l.66-.24c.53.7,1.1,1.68,1.3,2.3l-.56.24h3.06c.62-.67,1.36-1.68,1.79-2.39l.75.32c-.5.69-1.09,1.46-1.65,2.06h2.69ZM137.03,79.6c-.18.5-.35,1.02-.54,1.47h5.84v4.71h-.75v-.64h-9.12v.67h-.74v-4.74h4.03c.16-.45.34-1.01.46-1.47h-3.52v-3.57h8.52v3.57h-4.18ZM141.58,81.78h-9.12v2.66h9.12v-2.66ZM133.42,78.94h7.04v-2.26h-7.04v2.26Z"/>
            <path class="cls-1" d="M153.73,81.89c1.49,1.33,3.95,2.48,6.08,3.01-.18.16-.4.46-.51.67-2.24-.66-4.88-2.05-6.43-3.62v3.86h-.75v-3.81c-1.52,1.54-4.13,2.85-6.36,3.49-.11-.21-.35-.5-.51-.66,2.08-.53,4.51-1.65,5.99-2.95h-5.62v-.69h6.5v-1.46h-4.98v-.66h4.98v-1.44h-5.78v-.67h3.78c-.16-.53-.53-1.26-.93-1.82l.62-.16h-4.11v-.69h4.88v-3.01h.75v3.01h2.34v-3.01h.74v3.01h4.98v.69h-3.76l.37.11c-.35.66-.74,1.34-1.1,1.87h3.94v.67h-5.95v1.44h5.17v.66h-5.17v1.46h6.58v.69h-5.71ZM148.49,74.22c-.24-.66-.85-1.7-1.42-2.47l.66-.22c.59.74,1.22,1.76,1.44,2.42l-.67.27ZM149.88,74.99c.42.58.82,1.33.98,1.84l-.51.14h4.24l-.38-.13c.32-.51.72-1.28.98-1.86h-5.3ZM158.13,71.79c-.46.86-1.02,1.86-1.49,2.51l-.62-.24c.46-.69,1.04-1.76,1.36-2.5l.75.22Z"/>
            <path class="cls-1" d="M165.97,82.62h-3.55v1.25h-.75v-11.48h4.31v10.23ZM162.42,73.12v3.99h2.82v-3.99h-2.82ZM165.23,81.9v-4.08h-2.82v4.08h2.82ZM173.41,77.17v2.08h2.06v.7h-2.06v4.8c0,.53-.14.78-.56.91-.42.11-1.18.11-2.54.11-.03-.19-.14-.5-.27-.74,1.1.03,2.02.03,2.27.03.29-.02.35-.1.35-.32v-4.8h-6.31v-.7h6.31v-2.08h-6.42v-.72h4.27v-2.4h-3.52v-.7h3.52v-2.05h.75v2.05h3.62v.7h-3.62v2.4h4.42v.72h-2.27ZM168.13,80.72c.86.85,1.81,2.02,2.18,2.82l-.66.43c-.37-.8-1.26-2.02-2.13-2.88l.61-.37Z"/>
            <path class="cls-1" d="M178.49,77.33v8.5h-.75v-13.78h5.59v5.28h-4.83ZM178.49,72.68v1.65h4.1v-1.65h-4.1ZM182.59,76.69v-1.73h-4.1v1.73h4.1ZM187.06,84.32h-5.11v.82h-.74v-6.47h5.84v5.65ZM181.95,79.34v1.76h4.37v-1.76h-4.37ZM186.32,83.66v-1.89h-4.37v1.89h4.37ZM190.71,84.62c0,.61-.16.9-.61,1.04-.45.13-1.26.13-2.58.13-.03-.21-.18-.56-.29-.8,1.07.03,2.03.02,2.32,0,.29,0,.38-.1.38-.37v-7.28h-4.96v-5.3h5.73v12.58ZM185.71,72.68v1.65h4.23v-1.65h-4.23ZM189.94,76.69v-1.73h-4.23v1.73h4.23Z"/>
            <path class="cls-1" d="M206.29,84.59c0,.62-.16.91-.62,1.06-.5.14-1.47.14-2.91.14-.05-.24-.18-.58-.29-.82,1.25.05,2.35.03,2.67.02.32-.02.4-.11.4-.4v-9.75h-5.19c-.03.72-.11,1.49-.34,2.27,1.73,1.49,3.83,3.51,4.87,4.75l-.64.5c-.91-1.18-2.79-3.06-4.43-4.53-.59,1.62-1.78,3.27-4.18,4.64-.1-.16-.35-.43-.53-.56,3.79-2.08,4.39-4.88,4.47-7.07h-5.14v11h-.77v-11.75h5.92v-2.77h.78v2.77h5.92v10.5Z"/>
            <path class="cls-1" d="M215.7,84.99l-.46-.78c.43-.02.94-.1,1.3-.16,2.05-.45,4.32-2.02,4.32-5.03,0-2.53-1.78-4.75-4.85-4.9-.19,1.58-.5,3.31-.94,4.79-.98,3.31-2.19,4.83-3.52,4.83-1.22,0-2.61-1.44-2.61-4.05,0-3.36,3.01-6.31,6.79-6.31s5.94,2.58,5.94,5.67c0,3.36-2.29,5.51-5.95,5.94ZM211.59,82.85c.78,0,1.79-1.1,2.69-4.13.43-1.42.75-3.04.91-4.58-3.31.29-5.47,3.07-5.47,5.49,0,2.26,1.09,3.22,1.87,3.22Z"/>
            <path class="cls-1" d="M226.83,73.56h7.54c.53,0,.91-.02,1.25-.05v.85c-.35-.02-.69-.03-1.25-.03h-4.37v3.76h5.71c.34,0,.87-.02,1.2-.05v.86c-.34-.02-.83-.03-1.18-.03h-5.73v3.65c0,.77.56,1.36,2.14,1.36s2.83-.06,4.24-.22l-.03.85c-1.36.1-2.74.18-4.29.18-2.11,0-2.9-.77-2.9-1.89v-3.92h-3.41c-.38,0-.94.02-1.36.05v-.9c.42.05.98.06,1.36.06h3.41v-3.76h-2.34c-.53,0-.98.02-1.38.03v-.85c.4.03.85.05,1.38.05Z"/>
            <path class="cls-1" d="M240.69,77.21h10.47c.34,0,.75-.03,1.12-.06v.88c-.32-.03-.77-.05-1.12-.05h-4.62c-.03,1.76-.26,3.31-.93,4.55-.59,1.04-1.79,2.14-3.11,2.82l-.77-.58c1.3-.56,2.47-1.49,3.09-2.54.74-1.2.85-2.62.88-4.24h-5.01c-.5,0-.88.02-1.31.05v-.88c.42.03.82.06,1.31.06ZM242.59,73.24h5.73c.4,0,.93-.02,1.36-.08v.9c-.43-.03-.96-.05-1.36-.05h-5.7c-.51,0-.94.02-1.31.05v-.9c.42.05.78.08,1.28.08ZM251.76,73.93l-.62.3c-.3-.66-.88-1.62-1.31-2.22l.61-.27c.4.58.98,1.52,1.33,2.19ZM253.48,73.32l-.62.29c-.35-.7-.88-1.6-1.34-2.19l.59-.27c.43.59,1.06,1.57,1.38,2.18Z"/>
            <path class="cls-1" d="M256.48,80.34c.46-1.52.48-4.8.48-6.51,0-.37-.03-.67-.1-.98h.96c-.03.26-.06.61-.06.98,0,1.7-.06,5.17-.5,6.75-.48,1.66-1.52,3.22-2.85,4.27l-.77-.51c1.31-.94,2.32-2.35,2.83-4ZM261.02,83.57v-9.73c0-.54-.05-.9-.06-1.07h.94c-.03.18-.05.53-.05,1.07v9.75c1.58-.74,3.79-2.3,5.09-4.27l.5.7c-1.42,1.95-3.6,3.54-5.47,4.47-.22.11-.38.22-.48.3l-.56-.46c.06-.22.1-.5.1-.75Z"/>
            <path class="cls-1" d="M269.31,78.77c0-3.7,2.02-6,4.83-6s4.85,2.3,4.85,6-2,6.08-4.85,6.08-4.83-2.37-4.83-6.08ZM278,78.77c0-3.17-1.54-5.14-3.86-5.14s-3.83,1.97-3.83,5.14,1.52,5.22,3.83,5.22,3.86-2.05,3.86-5.22Z"/>
            <path class="cls-1" d="M281.53,72.97h.96v6.34h.03l5.47-6.34h1.14l-3.71,4.34,4.24,7.33h-1.1l-3.78-6.58-2.29,2.64v3.94h-.96v-11.67Z"/>
            <path class="cls-1" d="M291.41,83.98c0-.54.4-.88.82-.88s.82.34.82.88-.38.86-.82.86-.82-.34-.82-.86ZM291.76,74.11l-.02-1.34h.96l-.02,1.34-.11,7.28h-.69l-.13-7.28Z"/>
            <path class="cls-1" d="M295.61,83.98c0-.54.4-.88.82-.88s.82.34.82.88-.38.86-.82.86-.82-.34-.82-.86ZM295.97,74.11l-.02-1.34h.96l-.02,1.34-.11,7.28h-.69l-.13-7.28Z"/>
          </g>
          <g>
            <rect class="cls-2" x="35.76" y="0" width="65" height="22"/>
            <g>
              <path class="cls-3" d="M43.8,16.11V7.38h3.12c.68,0,1.24.12,1.68.37s.78.59,1,1.01.33.91.33,1.44-.11,1.02-.33,1.44-.56.77-1,1.01-1.01.37-1.69.37h-2.13v-1.11h2.01c.43,0,.78-.07,1.05-.22s.46-.35.59-.61.18-.55.18-.88-.06-.63-.18-.88-.32-.46-.59-.6-.62-.22-1.05-.22h-1.66v7.6h-1.32Z"/>
              <path class="cls-3" d="M54.63,16.23c-.75,0-1.42-.18-2.02-.54s-1.06-.87-1.41-1.54-.52-1.47-.52-2.39.17-1.74.52-2.41.81-1.18,1.41-1.54,1.27-.54,2.02-.54,1.43.18,2.02.54,1.06.87,1.4,1.54.51,1.47.51,2.41-.17,1.73-.51,2.4-.81,1.18-1.4,1.54-1.26.54-2.02.54ZM54.63,15.03c.5,0,.95-.12,1.35-.38s.71-.62.93-1.11.34-1.09.34-1.79-.11-1.31-.34-1.8-.54-.86-.93-1.11-.84-.38-1.35-.38-.95.12-1.34.38-.71.62-.94,1.11-.35,1.09-.35,1.8.12,1.3.35,1.79.54.86.94,1.11.84.38,1.34.38Z"/>
              <path class="cls-3" d="M61.09,7.38v8.73h-1.32V7.38h1.32Z"/>
              <path class="cls-3" d="M69.68,7.38v8.73h-1.23l-4.42-6.4h-.09v6.4h-1.32V7.38h1.22l4.44,6.41h.08v-6.41h1.32Z"/>
              <path class="cls-3" d="M70.59,8.51v-1.13h6.76v1.13h-2.72v7.6h-1.31v-7.6h-2.73Z"/>
            </g>
            <path class="cls-3" d="M87.52,4.1v13.1h-3.57V7.37h-.07l-2.87,1.72v-3.02l3.22-1.97h3.29Z"/>
          </g>
          <g>
            <rect class="cls-2" x="35.76" y="33.75" width="65" height="22"/>
            <g>
              <path class="cls-3" d="M43.8,49.86v-8.73h3.12c.68,0,1.24.12,1.68.37s.78.59,1,1.01.33.91.33,1.44-.11,1.02-.33,1.44-.56.77-1,1.01-1.01.37-1.69.37h-2.13v-1.11h2.01c.43,0,.78-.07,1.05-.22s.46-.35.59-.61.18-.55.18-.88-.06-.63-.18-.88-.32-.46-.59-.6-.62-.22-1.05-.22h-1.66v7.6h-1.32Z"/>
              <path class="cls-3" d="M54.63,49.97c-.75,0-1.42-.18-2.02-.54s-1.06-.87-1.41-1.54-.52-1.47-.52-2.39.17-1.74.52-2.41.81-1.18,1.41-1.54,1.27-.54,2.02-.54,1.43.18,2.02.54,1.06.87,1.4,1.54.51,1.47.51,2.41-.17,1.73-.51,2.4-.81,1.18-1.4,1.54-1.26.54-2.02.54ZM54.63,48.77c.5,0,.95-.12,1.35-.38s.71-.62.93-1.11.34-1.09.34-1.79-.11-1.31-.34-1.8-.54-.86-.93-1.11-.84-.38-1.35-.38-.95.12-1.34.38-.71.62-.94,1.11-.35,1.09-.35,1.8.12,1.3.35,1.79.54.86.94,1.11.84.38,1.34.38Z"/>
              <path class="cls-3" d="M61.09,41.13v8.73h-1.32v-8.73h1.32Z"/>
              <path class="cls-3" d="M69.68,41.13v8.73h-1.23l-4.42-6.4h-.09v6.4h-1.32v-8.73h1.22l4.44,6.41h.08v-6.41h1.32Z"/>
              <path class="cls-3" d="M70.59,42.26v-1.13h6.76v1.13h-2.72v7.6h-1.31v-7.6h-2.73Z"/>
            </g>
            <path class="cls-3" d="M79.34,50.94v-2.55l4.89-4.04c.32-.27.6-.52.83-.76s.41-.48.54-.73.19-.53.19-.84c0-.33-.07-.62-.21-.86-.14-.24-.34-.42-.59-.55s-.54-.19-.87-.19-.62.07-.87.2c-.25.13-.44.32-.58.58-.14.25-.21.56-.21.93h-3.38c0-.92.21-1.71.62-2.37.41-.66,1-1.17,1.75-1.53s1.64-.54,2.65-.54,1.96.17,2.72.5,1.36.8,1.78,1.41.63,1.32.63,2.13c0,.5-.1,1-.31,1.5s-.58,1.04-1.12,1.65-1.31,1.32-2.31,2.14l-1.23,1.02v.09h5.12v2.83h-10.05Z"/>
          </g>
          <g>
            <rect class="cls-2" x="35.76" y="67.49" width="65" height="22"/>
            <g>
              <path class="cls-3" d="M43.8,83.61v-8.73h3.12c.68,0,1.24.12,1.68.37s.78.59,1,1.01.33.91.33,1.44-.11,1.02-.33,1.44-.56.77-1,1.01-1.01.37-1.69.37h-2.13v-1.11h2.01c.43,0,.78-.07,1.05-.22s.46-.35.59-.61.18-.55.18-.88-.06-.63-.18-.88-.32-.46-.59-.6-.62-.22-1.05-.22h-1.66v7.6h-1.32Z"/>
              <path class="cls-3" d="M54.63,83.72c-.75,0-1.42-.18-2.02-.54s-1.06-.87-1.41-1.54-.52-1.47-.52-2.39.17-1.74.52-2.41.81-1.18,1.41-1.54,1.27-.54,2.02-.54,1.43.18,2.02.54,1.06.87,1.4,1.54.51,1.47.51,2.41-.17,1.73-.51,2.4-.81,1.18-1.4,1.54-1.26.54-2.02.54ZM54.63,82.52c.5,0,.95-.12,1.35-.38s.71-.62.93-1.11.34-1.09.34-1.79-.11-1.31-.34-1.8-.54-.86-.93-1.11-.84-.38-1.35-.38-.95.12-1.34.38-.71.62-.94,1.11-.35,1.09-.35,1.8.12,1.3.35,1.79.54.86.94,1.11.84.38,1.34.38Z"/>
              <path class="cls-3" d="M61.09,74.87v8.73h-1.32v-8.73h1.32Z"/>
              <path class="cls-3" d="M69.68,74.87v8.73h-1.23l-4.42-6.4h-.09v6.4h-1.32v-8.73h1.22l4.44,6.41h.08v-6.41h1.32Z"/>
              <path class="cls-3" d="M70.59,76.01v-1.13h6.76v1.13h-2.72v7.6h-1.31v-7.6h-2.73Z"/>
            </g>
            <path class="cls-3" d="M84.2,84.86c-1.03,0-1.95-.18-2.75-.53-.8-.35-1.43-.85-1.88-1.47-.46-.63-.68-1.35-.68-2.16h3.57c0,.25.08.48.23.67s.36.35.63.46.57.17.91.17.62-.06.87-.18.44-.28.58-.48.21-.44.21-.71-.08-.51-.24-.71-.39-.36-.68-.47c-.29-.11-.63-.17-1.02-.17h-1.34v-2.46h1.34c.35,0,.66-.06.93-.18s.48-.28.63-.48.23-.44.23-.7-.06-.48-.19-.68-.31-.35-.53-.46c-.23-.11-.49-.17-.79-.17-.33,0-.62.06-.88.17-.25.11-.45.27-.6.47s-.21.44-.21.71h-3.41c0-.8.22-1.51.65-2.13s1.04-1.1,1.81-1.45,1.65-.52,2.64-.52,1.82.16,2.57.49,1.33.78,1.74,1.35.63,1.23.63,1.97-.25,1.33-.76,1.8c-.51.47-1.15.75-1.93.84v.09c1.05.12,1.85.44,2.37.97s.79,1.2.79,2-.23,1.45-.69,2.04-1.1,1.06-1.92,1.39c-.82.33-1.76.5-2.83.5Z"/>
          </g>
        </g>
      </g>
    </g>
  </g>
</svg>