<?xml version="1.0" encoding="UTF-8"?>
<svg id="_レイヤー_2" data-name="レイヤー 2" xmlns="http://www.w3.org/2000/svg" viewBox="0 0 295 35">
  <defs>
    <style>
      .cls-1 {
        fill: #fff;
      }

      .cls-2 {
        fill: #06c755;
      }
    </style>
  </defs>
  <g id="_レイヤー_1-2" data-name="レイヤー 1">
    <g>
      <rect class="cls-2" x="0" y="0" width="295" height="35" rx="17.5" ry="17.5"/>
      <g>
        <path class="cls-1" d="M55.05,12.14h1.97v10.86h5.3v1.67h-7.28v-12.53Z"/>
        <path class="cls-1" d="M66.23,12.14h1.97v12.53h-1.97v-12.53Z"/>
        <path class="cls-1" d="M73.18,12.14h2.02l4.15,7.36,1.31,2.65h.08c-.1-1.29-.25-2.8-.25-4.16v-5.85h1.87v12.53h-2.02l-4.15-7.38-1.31-2.62h-.08c.1,1.29.25,2.74.25,4.1v5.9h-1.87v-12.53Z"/>
        <path class="cls-1" d="M87.36,12.14h7.39v1.67h-5.42v3.48h4.59v1.67h-4.59v4.05h5.61v1.67h-7.58v-12.53Z"/>
        <path class="cls-1" d="M100.47,13.2c1.24-.12,4.27-.41,7.39-.68,1.82-.15,3.52-.25,4.69-.29v1.72c-.95,0-2.43.02-3.31.24-2.26.68-3.76,3.11-3.76,5.12,0,3.09,2.89,4.13,5.69,4.25l-.61,1.82c-3.33-.17-6.82-1.95-6.82-5.69,0-2.57,1.51-4.62,2.89-5.52-1.72.17-5.68.58-7.58.99l-.17-1.85c.65-.02,1.24-.05,1.58-.08ZM111.5,18.18l-1.05.48c-.41-.87-.85-1.65-1.36-2.38l1.02-.44c.41.59,1.04,1.63,1.39,2.35ZM113.44,17.41l-1.04.49c-.44-.87-.88-1.62-1.43-2.35l1.02-.46c.41.58,1.07,1.6,1.44,2.31Z"/>
        <path class="cls-1" d="M123.49,14.47h-6.49v-1.26h6.49v1.26ZM122.87,25.08h-3.76v.71h-1.36v-5.71h5.12v5ZM117.79,15.52h5.1v1.22h-5.1v-1.22ZM117.79,17.79h5.1v1.24h-5.1v-1.24ZM122.84,12.21h-4.98v-1.24h4.98v1.24ZM119.12,21.36v2.45h2.38v-2.45h-2.38ZM132.67,21.97h-3.88v4.03h-1.55v-4.03h-3.94v-1.44h3.94v-2.11h-3.08v-1.43h3.08v-1.96h-3.4v-1.43h1.77c-.22-.78-.66-1.84-1.14-2.65l1.27-.46c.54.88,1.09,2.04,1.27,2.82l-.71.29h3.42l-.71-.25c.41-.8.97-2.07,1.22-2.97l1.56.46c-.49.97-1,2.02-1.44,2.77h2.06v1.43h-3.62v1.96h3.25v1.43h-3.25v2.11h3.88v1.44Z"/>
        <path class="cls-1" d="M137.84,20.35c-.2,1.6-.58,3.25-1.1,4.32-.27-.17-.88-.46-1.21-.58.51-1.02.82-2.53.97-3.98l1.34.24ZM150.8,11.72v13.92h-1.48v-.76h-5.18v.9h-1.43v-6.46l-1.17.56c-.08-.34-.22-.75-.39-1.19l-1.31.14v7.16h-1.41v-7.02c-.95.1-1.85.19-2.63.25l-.2-1.41c.39-.02.85-.05,1.34-.08.29-.36.58-.75.88-1.17-.51-.75-1.39-1.7-2.16-2.41l.76-1.05c.15.14.31.27.48.42.53-.97,1.09-2.19,1.41-3.11l1.41.54c-.61,1.16-1.33,2.48-1.94,3.43.32.34.61.68.83.99.68-1.02,1.31-2.09,1.75-2.97l1.33.63c-.93,1.46-2.16,3.21-3.26,4.61l2.16-.15c-.22-.41-.44-.8-.66-1.17l1.17-.51c.65,1,1.31,2.28,1.61,3.21v-7.28h8.09ZM141.42,20.05c.46,1.04.92,2.38,1.1,3.25l-1.26.46c-.15-.9-.63-2.26-1.05-3.31l1.21-.39ZM144.14,13.2v4.32h1.84v-4.32h-1.84ZM144.14,23.41h1.84v-4.45h-1.84v4.45ZM149.33,13.2h-1.95v4.32h1.95v-4.32ZM149.33,23.41v-4.45h-1.95v4.45h1.95Z"/>
        <path class="cls-1" d="M161.28,12.97c1.67-.07,3.45-.22,5-.49v1.58c-1.67.24-3.76.39-5.59.44-.37.8-.83,1.6-1.31,2.24.56-.32,1.51-.51,2.18-.51,1.07,0,1.95.49,2.28,1.44,1.05-.49,1.92-.85,2.72-1.22.58-.26,1.07-.48,1.62-.75l.7,1.56c-.49.15-1.22.42-1.73.63-.87.34-1.97.78-3.16,1.33.02.97.03,2.33.05,3.14h-1.61c.03-.59.05-1.56.07-2.4-1.46.8-2.38,1.58-2.38,2.58,0,1.16,1.1,1.39,2.82,1.39,1.38,0,3.23-.17,4.73-.44l-.05,1.72c-1.22.15-3.2.31-4.73.31-2.53,0-4.5-.59-4.5-2.7s2.04-3.42,4.01-4.42c-.22-.59-.77-.85-1.39-.85-1.04,0-2.11.54-2.82,1.22-.49.48-.99,1.1-1.55,1.82l-1.46-1.09c1.99-1.87,3.15-3.52,3.84-4.96h-.49c-.71,0-1.89-.03-2.84-.1v-1.6c.9.14,2.11.19,2.92.19.32,0,.66,0,1-.02.22-.7.36-1.41.39-2.02l1.77.14c-.1.48-.24,1.1-.46,1.84Z"/>
        <path class="cls-1" d="M186.45,24.36c.66,0,.77-.27.83-2.33.34.29,1.04.53,1.48.65-.19,2.55-.63,3.18-2.16,3.18h-2.52c-1.78,0-2.23-.48-2.23-2.07v-3.08h-2.45c-.39,2.7-1.44,4.44-5.42,5.34-.15-.41-.58-1.07-.9-1.39,3.48-.68,4.32-1.92,4.64-3.94h-2.19v-9.74h10.81v9.74h-2.87v3.08c0,.51.12.58.8.58h2.18ZM177.07,13.81h7.68v-1.43h-7.68v1.43ZM177.07,16.54h7.68v-1.44h-7.68v1.44ZM177.07,19.32h7.68v-1.46h-7.68v1.46Z"/>
        <path class="cls-1" d="M196.38,12.02c.88,0,4.76-.1,5.68-.19.6-.05.9-.09,1.09-.15l.94,1.22c-.36.22-.71.46-1.07.73-.87.65-2.96,2.41-4.16,3.4.68-.2,1.36-.29,2.04-.29,2.84,0,4.95,1.75,4.95,4.13,0,2.7-2.16,4.64-5.98,4.64-2.35,0-3.91-1.04-3.91-2.58,0-1.26,1.12-2.4,2.8-2.4,2.11,0,3.31,1.36,3.54,2.97,1.17-.51,1.8-1.43,1.8-2.67,0-1.6-1.56-2.75-3.69-2.75-2.72,0-4.32,1.27-6.32,3.42l-1.24-1.26c1.33-1.09,3.45-2.87,4.45-3.71.95-.78,2.92-2.41,3.77-3.16-.9.03-3.84.17-4.73.22-.42.02-.87.05-1.26.1l-.05-1.75c.42.05.95.07,1.36.07ZM199.54,23.99c.42,0,.83-.02,1.21-.07-.14-1.24-.88-2.11-2.01-2.11-.71,0-1.24.46-1.24.97,0,.75.83,1.21,2.04,1.21Z"/>
      </g>
      <g>
        <path class="cls-1" d="M253.13,17.25c-.05-5.92-6.01-10.68-13.31-10.63-7.29.06-13.18,4.92-13.14,10.83.04,5.3,4.78,9.71,11.14,10.5.43.09,1.02.28,1.17.64.14.33.09.86.05,1.2,0,0-.15.93-.18,1.13-.06.33-.26,1.31,1.15.7,1.41-.61,7.58-4.54,10.33-7.76h0c1.9-2.12,2.8-4.26,2.78-6.62Z"/>
        <g>
          <path class="cls-2" d="M248.76,20.7l-3.71.03h0c-.14,0-.25-.11-.25-.25h0s0,0,0,0l-.04-5.76h0s0,0,0,0c0-.14.11-.25.25-.25h0s3.71-.03,3.71-.03c.14,0,.25.11.25.25v.94c0,.14-.1.25-.24.25l-2.52.02v.97s2.53-.02,2.53-.02c.14,0,.25.11.25.25v.94c0,.14-.1.25-.24.25l-2.52.02v.97s2.53-.02,2.53-.02c.14,0,.25.11.25.25v.94c0,.14-.1.25-.24.25Z"/>
          <path class="cls-2" d="M235.02,20.81c.14,0,.25-.11.25-.25v-.94c0-.14-.12-.25-.26-.25l-2.52.02-.04-4.58c0-.14-.12-.25-.25-.25h-.94c-.14,0-.25.12-.25.26l.04,5.77h0s0,0,0,0c0,.14.11.25.25.25h0s3.71-.03,3.71-.03Z"/>
          <rect class="cls-2" x="236.04" y="14.52" width="1.44" height="6.28" rx=".25" ry=".25" transform="translate(-.13 1.83) rotate(-.44)"/>
          <path class="cls-2" d="M243.59,14.46h-.94c-.14,0-.25.12-.25.26l.03,3.43-2.67-3.55s-.01-.02-.02-.03c0,0,0,0,0,0,0,0,0-.01-.02-.02,0,0,0,0,0,0,0,0,0,0-.01-.01,0,0,0,0,0,0,0,0,0,0-.01,0,0,0,0,0,0,0,0,0,0,0-.01,0,0,0,0,0,0,0,0,0,0,0-.01,0,0,0,0,0,0,0,0,0-.01,0-.02,0,0,0,0,0,0,0,0,0,0,0-.02,0,0,0,0,0-.01,0,0,0,0,0-.01,0,0,0,0,0-.01,0,0,0,0,0,0,0h-.93c-.14,0-.25.12-.25.26l.04,5.77c0,.14.11.25.25.25h.94c.14,0,.25-.12.25-.26l-.03-3.43,2.67,3.55s.04.05.07.06c0,0,0,0,0,0,0,0,.01,0,.02,0,0,0,0,0,0,0,0,0,0,0,.01,0,0,0,0,0,.01,0,0,0,0,0,0,0,0,0,.01,0,.02,0,0,0,0,0,0,0,.02,0,.04,0,.07,0h.93c.14,0,.25-.12.25-.26l-.04-5.77c0-.14-.12-.25-.25-.25Z"/>
        </g>
      </g>
    </g>
  </g>
</svg>