<?xml version="1.0" encoding="UTF-8"?>
<svg id="_レイヤー_2" data-name="レイヤー 2" xmlns="http://www.w3.org/2000/svg" viewBox="0 0 207 48">
  <defs>
    <style>
      .cls-1 {
        fill: #b3c18f;
      }

      .cls-2 {
        fill: #fff;
      }
    </style>
  </defs>
  <g id="_レイヤー_1-2" data-name="レイヤー 1">
    <g>
      <rect class="cls-1" width="207" height="48"/>
      <g>
        <path class="cls-2" d="M40.66,24.4c0-3.34,2.6-5.79,5.82-5.79s5.83,2.45,5.83,5.79-2.58,5.79-5.83,5.79-5.82-2.47-5.82-5.79ZM41.93,24.4c0,2.57,2.03,4.62,4.55,4.62s4.55-2.05,4.55-4.62-2.03-4.62-4.55-4.62-4.55,2.05-4.55,4.62Z"/>
        <path class="cls-2" d="M57.2,24.13v5.86h-1.21v-5.86h-.67v-1.11h.67v-3.04c0-.64.05-1.44.67-1.96.33-.29.84-.45,1.39-.45.44,0,.72.1.86.15v1.17c-.25-.1-.54-.15-.79-.15-.27,0-.59.07-.77.37-.15.25-.15.64-.15,1.01v2.9h1.71v1.11h-1.71Z"/>
        <path class="cls-2" d="M62.91,24.13v5.86h-1.21v-5.86h-.67v-1.11h.67v-2.62c0-.76.05-1.33.4-1.83.32-.47.99-1.02,2.3-1.02.59,0,1.71.1,2.3,1.02.39.62.4,1.29.4,1.83v.29h-1.21v-.29c0-.27-.02-.76-.24-1.09-.2-.3-.59-.54-1.26-.54s-1.06.24-1.26.54c-.22.32-.23.74-.23,1.09v2.62h1.71v1.11h-1.71ZM67.1,23.02v6.97h-1.21v-6.97h1.21Z"/>
        <path class="cls-2" d="M76.52,24.97c-.64-.81-1.56-1.04-2.18-1.04-1.29,0-2.47.91-2.47,2.6s1.21,2.58,2.45,2.58c.72,0,1.61-.32,2.25-1.09v1.44c-.75.55-1.56.72-2.22.72-2.17,0-3.73-1.54-3.73-3.64s1.58-3.69,3.73-3.69c1.11,0,1.83.44,2.17.67v1.44Z"/>
        <path class="cls-2" d="M80.69,19.53c.47,0,.86.39.86.86s-.39.86-.86.86-.86-.39-.86-.86.39-.86.86-.86ZM81.3,23.02v6.97h-1.21v-6.97h1.21Z"/>
        <path class="cls-2" d="M90.6,23.02h1.21v6.97h-1.21v-.97c-.4.52-1.16,1.18-2.38,1.18-1.76,0-3.39-1.24-3.39-3.69s1.61-3.64,3.39-3.64c1.34,0,2.06.74,2.38,1.16v-.99ZM86.06,26.5c0,1.49.84,2.62,2.28,2.62s2.32-1.23,2.32-2.6c0-1.8-1.24-2.58-2.32-2.58-1.19,0-2.28.87-2.28,2.57Z"/>
        <path class="cls-2" d="M96.97,17.75v12.24h-1.21v-12.24h1.21Z"/>
        <path class="cls-2" d="M108.06,18.79v10.02h3.09v1.17h-4.33v-11.2h1.24Z"/>
        <path class="cls-2" d="M115.75,18.79v11.2h-1.24v-11.2h1.24Z"/>
        <path class="cls-2" d="M120.31,29.99v-11.67l8.73,9.15v-8.68h1.24v11.7l-8.73-9.15v8.64h-1.24Z"/>
        <path class="cls-2" d="M140.65,19.97h-4.57v3.32h4.43v1.18h-4.43v4.35h4.57v1.17h-5.81v-11.2h5.81v1.17Z"/>
      </g>
      <path class="cls-2" d="M182.08,22.95c0-5.88-5.9-10.67-13.15-10.67s-13.15,4.79-13.15,10.67c0,5.27,4.68,9.69,10.99,10.53.43.09,1.01.28,1.16.65.13.33.09.85.04,1.19,0,0-.15.93-.19,1.13-.06.33-.26,1.3,1.14.71,1.4-.59,7.57-4.46,10.33-7.63h0c1.91-2.09,2.82-4.21,2.82-6.56ZM163.79,26.45h-2.61c-.38,0-.69-.31-.69-.69v-5.22c0-.38.31-.69.69-.69s.69.31.69.69v4.53h1.92c.38,0,.69.31.69.69s-.31.69-.69.69ZM166.49,25.76c0,.38-.31.69-.69.69s-.69-.31-.69-.69v-5.22c0-.38.31-.69.69-.69s.69.31.69.69v5.22ZM172.78,25.76c0,.3-.19.56-.47.65-.07.02-.14.04-.22.04-.22,0-.42-.1-.55-.28l-2.68-3.65v3.23c0,.38-.31.69-.69.69s-.69-.31-.69-.69v-5.22c0-.3.19-.56.47-.65.07-.02.14-.04.22-.04.22,0,.42.1.55.28l2.68,3.65v-3.23c0-.38.31-.69.69-.69s.69.31.69.69v5.22ZM177,22.46c.38,0,.69.31.69.69s-.31.69-.69.69h-1.92v1.23h1.92c.38,0,.69.31.69.69s-.31.69-.69.69h-2.61c-.38,0-.69-.31-.69-.69v-2.61h0v-2.61h0c0-.38.31-.69.69-.69h2.61c.38,0,.69.31.69.69s-.31.69-.69.69h-1.92v1.23h1.92Z"/>
    </g>
  </g>
</svg>