<?xml version="1.0" encoding="UTF-8"?>
<svg id="_レイヤー_2" data-name="レイヤー 2" xmlns="http://www.w3.org/2000/svg" viewBox="0 0 207 48">
  <defs>
    <style>
      .cls-1 {
        fill: #fff;
      }

      .cls-2 {
        fill: #d9c18f;
      }
    </style>
  </defs>
  <g id="_レイヤー_1-2" data-name="レイヤー 1">
    <g>
      <rect class="cls-2" width="207" height="48"/>
      <g>
        <path class="cls-1" d="M42.67,18.79v11.2h-1.24v-11.2h1.24Z"/>
        <path class="cls-1" d="M48.17,24.13v5.86h-1.21v-5.86h-.67v-1.11h.67v-3.04c0-.64.05-1.44.67-1.96.33-.29.84-.45,1.39-.45.44,0,.72.1.86.15v1.17c-.25-.1-.54-.15-.79-.15-.27,0-.59.07-.77.37-.15.25-.15.64-.15,1.01v2.9h1.71v1.11h-1.71Z"/>
        <path class="cls-1" d="M52.63,17.75h1.21v6.08c.22-.29.84-.97,2-.97.82,0,1.58.34,2,.96.35.52.4,1.09.4,1.86v4.31h-1.21v-4.28c0-.42-.03-.91-.32-1.28-.23-.3-.6-.5-1.14-.5-.42,0-.87.12-1.23.54-.47.55-.5,1.38-.5,1.88v3.64h-1.21v-12.24Z"/>
        <path class="cls-1" d="M68.39,19.53c.47,0,.86.39.86.86s-.39.86-.86.86-.86-.39-.86-.86.39-.86.86-.86ZM68.99,23.02v6.97h-1.21v-6.97h1.21Z"/>
        <path class="cls-1" d="M73.56,19.53c.47,0,.86.39.86.86s-.39.86-.86.86-.86-.39-.86-.86.39-.86.86-.86ZM74.16,23.02v6.97h-1.21v-6.97h1.21Z"/>
        <path class="cls-1" d="M79.53,28.88h4.83v1.11h-7.25l5.04-5.86h-4.06v-1.11h6.48l-5.04,5.86Z"/>
        <path class="cls-1" d="M88.73,27.08c0,.49,0,1.06.34,1.49.18.23.55.54,1.23.54s1.04-.3,1.22-.54c.34-.44.34-1.01.34-1.49v-4.06h1.21v4.2c0,.86-.08,1.49-.64,2.1-.62.65-1.44.87-2.13.87s-1.51-.22-2.13-.87c-.55-.6-.64-1.24-.64-2.1v-4.2h1.21v4.06Z"/>
        <path class="cls-1" d="M98.22,17.75v7.85l2.55-2.58h1.58l-2.99,2.99,3.52,3.98h-1.58l-2.79-3.17-.3.3v2.87h-1.21v-12.24h1.21Z"/>
        <path class="cls-1" d="M111.11,23.02h1.21v6.97h-1.21v-.97c-.4.52-1.16,1.18-2.38,1.18-1.76,0-3.39-1.24-3.39-3.69s1.61-3.64,3.39-3.64c1.34,0,2.06.74,2.38,1.16v-.99ZM106.58,26.5c0,1.49.84,2.62,2.28,2.62s2.32-1.23,2.32-2.6c0-1.8-1.24-2.58-2.32-2.58-1.19,0-2.28.87-2.28,2.57Z"/>
        <path class="cls-1" d="M124.92,19.97v10.02h-1.24v-10.02h-2.72v-1.17h6.68v1.17h-2.72Z"/>
        <path class="cls-1" d="M136.8,19.97h-4.57v3.32h4.43v1.18h-4.43v4.35h4.57v1.17h-5.81v-11.2h5.81v1.17Z"/>
        <path class="cls-1" d="M142,18.79v10.02h3.09v1.17h-4.33v-11.2h1.24Z"/>
      </g>
      <g>
        <g>
          <path class="cls-1" d="M176.12,7h-12.88c-1.63,0-2.95,1.32-2.95,2.95v27.13c0,1.63,1.32,2.95,2.95,2.95h12.88c1.63,0,2.95-1.32,2.95-2.95V9.95c0-1.63-1.32-2.95-2.95-2.95ZM178.13,37.08c0,1.11-.9,2.01-2.01,2.01h-12.88c-1.11,0-2.01-.9-2.01-2.01V9.95c0-1.11.9-2.01,2.01-2.01h12.88c1.11,0,2.01.9,2.01,2.01v27.13Z"/>
          <rect class="cls-1" x="166.63" y="9.05" width="3.83" height="1.81" rx=".88" ry=".88"/>
          <path class="cls-1" d="M171.83,9.06c-.5,0-.91.41-.91.91s.41.91.91.91.91-.41.91-.91-.41-.91-.91-.91Z"/>
        </g>
        <path class="cls-1" d="M172.17,30.66c-1.84-.31-3.79-1.69-5.23-3.7-2.42-3.4-2.29-7.05-.67-8.21l.9-.64c.26-.19.51-.26.73-.23.32.05.54.33.67.56l.82,1.74c.29.66,0,.88-.12.96l-.73.52c-.5.36-.35,1-.28,1.28l.02.07c.09.38.25,1.09,1.09,2.22.79,1.15,1.41,1.54,1.74,1.75l.06.04c.2.13.42.25.66.29.23.04.46,0,.64-.14l.73-.52c.14-.1.27-.13.42-.11.17.03.35.13.54.31l1.37,1.34c.17.19.35.48.31.79-.03.24-.18.45-.46.65l-.9.64c-.58.41-1.38.55-2.3.39,0,0,0,0,0,0Z"/>
      </g>
    </g>
  </g>
</svg>