<?xml version="1.0" encoding="UTF-8"?>
<svg id="_レイヤー_2" data-name="レイヤー 2" xmlns="http://www.w3.org/2000/svg" viewBox="0 0 392.32 15.59">
  <defs>
    <style>
      .cls-1 {
        fill: #323232;
      }
    </style>
  </defs>
  <g id="_レイヤー_1-2" data-name="レイヤー 1">
    <g>
      <path class="cls-1" d="M11.22,13.6c-.24.02-.31.03-.61.08-1.61.25-3.13.39-4.57.39-1.72,0-3.16-.2-4.03-.54-1.33-.53-2.01-1.41-2.01-2.63,0-1.16.63-2.21,2.02-3.4l1.04.78c-1.09.9-1.6,1.67-1.6,2.45,0,.73.48,1.26,1.39,1.56.61.19,1.73.31,3.08.31,2.09,0,4.15-.27,5.13-.66l.15,1.67ZM1.05,1.84c1.1.27,2.62.41,4.56.41,2.14,0,3.5-.1,4.47-.34l.08,1.36c-1.05.44-2.63,1.41-4.35,2.65l-1.04-.83c1.1-.73,1.41-.92,2.09-1.31.19-.1.22-.12.44-.24l.32-.17c-1,.14-1.6.19-2.53.19-1.12,0-2.57-.08-3.59-.22-.31-.03-.36-.03-.58-.05l.12-1.44ZM9.62,4.9c.8.95,1.19,1.53,1.78,2.63l-1,.56c-.53-1.05-1.07-1.9-1.77-2.69l.99-.51ZM11.56,3.98c.8.94,1.17,1.46,1.79,2.58l-.99.56c-.49-.99-1-1.75-1.75-2.63l.95-.51Z"/>
      <path class="cls-1" d="M28.48,1.72q-.19.15-.53.46c-1.16,1-2.45,1.9-4.08,2.8.36.24.53.37,1.19.85l-.46.46h3.06c1.02,0,1.46-.02,1.83-.08l.77.83q-.05.07-.14.19s-.07.09-.14.15c-.03.05-.1.14-.19.25-1.26,1.6-1.77,2.12-3.08,3.16-.34-.37-.59-.59-1.07-.87,1.17-.82,1.78-1.38,2.65-2.43h-4.81v6.39c0,1.19-.44,1.5-2.23,1.5-.46,0-1.43-.03-1.94-.07-.07-.63-.14-.9-.34-1.38,1.02.14,1.65.19,2.43.19.58,0,.73-.1.73-.48v-6.15h-5.07c-.8,0-1.28.03-1.87.1v-1.41c.51.07,1.04.1,1.99.1h6.37c-1.31-1-2.6-1.8-4.45-2.74l.87-.88c1.31.7,1.87,1.02,2.77,1.58,1.39-.73,2.28-1.33,3.37-2.23h-7.51c-.93,0-1.31.02-1.83.08V.75c.53.08,1,.1,1.87.1h7.73c.65,0,.9-.02,1.31-.07l.78.93Z"/>
      <path class="cls-1" d="M33.99,9.64c-.27,2.48-.46,3.38-1.04,4.88l-1.11-.53c.58-1.33.8-2.33,1.04-4.56l1.1.2ZM31.87,7.39c.24.03.37.05.65.05.15,0,.29,0,.8-.02.58-.7.76-.92,1.21-1.53-.87-1.07-1.24-1.46-2.5-2.58l.73-.95.66.66c.83-1.27,1.43-2.4,1.6-3.03l1.22.53c-.14.15-.2.27-.39.63-.44.83-1.09,1.87-1.65,2.65.37.37.54.56,1.02,1.12,1.19-1.73,1.68-2.55,1.92-3.15l1.16.68c-.15.2-.27.36-.51.71-1.16,1.75-2.23,3.23-3.06,4.18,1.31-.08,1.6-.12,2.5-.22-.2-.49-.29-.68-.61-1.29l.92-.37c.58,1.04.99,1.95,1.46,3.26l-1.04.44c-.15-.54-.22-.71-.32-1.04-.19.02-.32.03-.42.05q-.37.03-1.07.12v5.52c0,.75.03,1.22.1,1.75h-1.41c.07-.48.1-1.02.1-1.77v-5.39q-1.17.1-1.82.15c-.71.05-.73.05-1.05.1l-.19-1.29ZM37.99,9.33c.42,1.44.7,2.63.95,4.13l-1.14.32c-.19-1.51-.44-2.86-.82-4.16l1-.29ZM40.83,4.03c-.53,1.04-1,1.8-1.7,2.65-.32-.37-.59-.59-1.02-.85.78-.87,1.41-1.87,1.94-3.06.49-1.14.73-1.89.85-2.62l1.38.31q-.15.34-.39,1.04c-.17.51-.29.8-.49,1.31h4.1c.7,0,1.02-.02,1.38-.07q-.05.53-.08,2.72c-.02,2.75-.34,6.2-.71,7.79-.41,1.67-.85,2.01-2.67,2.01-.44,0-.95-.03-1.68-.08-.07-.54-.15-.88-.34-1.39.9.15,1.6.22,2.24.22.8,0,.99-.2,1.22-1.29.39-1.82.65-5.05.66-8.67h-4.67ZM42.35,10.91c-.76-1.96-1.17-2.72-2.23-4.23l1.05-.61c1.09,1.56,1.56,2.41,2.33,4.2l-1.16.65Z"/>
      <path class="cls-1" d="M51.03,12.02c.31-1.24.42-1.6.88-2.79.08-.2.1-.25.15-.41l1.07.48c-.8,1.58-1.53,3.89-1.53,4.93,0,.08,0,.17.03.37l-1.48.12c0-.12,0-.15-.08-.63-.34-1.87-.48-3.38-.48-5.17,0-2.29.2-3.98.85-6.97.15-.68.19-.9.19-1.14l1.62.22c-.73,1.65-1.33,5.34-1.33,8.12,0,.39.02,1.22.03,2.01q.02.15.02.42v.41l.05.02ZM53.79,4.16c.85.19,1.61.25,3.2.25.66,0,1.05-.02,1.61-.03q0-1.63-.02-2.8c0-.31-.02-.56-.03-.73h1.51c-.07.42-.1,1.21-.1,2.48v.95c1.26-.15,2.4-.39,2.89-.61l.07,1.36c-.1.02-.14.02-.27.05-.9.2-1.65.32-2.69.44.02,1.56.02,1.77.19,4.64,1.19.54,1.73.87,2.79,1.63.19.15.24.19.44.29l-.61,1.44c-.17-.19-.29-.31-.51-.49-.53-.44-.54-.46-1.77-1.21-.02-.02-.05-.03-.19-.12-.07-.03-.07-.05-.15-.1.02.15.02.22.02.36,0,.49-.07.87-.2,1.17-.41.9-1.51,1.43-2.97,1.43-2.02,0-3.28-.97-3.28-2.52s1.38-2.53,3.31-2.53c.68,0,1.33.12,1.77.31-.05-.37-.08-1.44-.17-4.2-.82.03-1.24.05-1.87.05-.68,0-1.31-.02-1.92-.07-.27-.02-.46-.03-.51-.03-.17-.02-.27-.02-.31-.02-.08-.02-.14-.02-.17-.02-.02,0-.03,0-.07.02l.02-1.39ZM57.08,10.74c-1.22,0-2.02.51-2.02,1.31s.75,1.27,1.85,1.27c.7,0,1.31-.22,1.62-.56.19-.24.29-.61.29-1.19v-.49c-.68-.25-1.11-.34-1.73-.34Z"/>
      <path class="cls-1" d="M74.11,4.3c-.32.05-.39.05-1,.19-1.07.2-1.73.32-2.48.39v2.74c1.39-.41,2.43-.58,3.62-.58s2.28.27,3.04.75c1.12.71,1.75,1.84,1.75,3.11,0,2.06-1.55,3.62-3.59,3.62-1.36,0-2.31-.68-2.67-1.92-.17-.58-.24-1.09-.24-1.99.63-.17.83-.25,1.34-.54-.02.32-.03.46-.03.66,0,.65.08,1.26.2,1.58.24.56.73.87,1.43.87,1.22,0,2.12-.95,2.12-2.28,0-1.61-1.34-2.63-3.45-2.63-1.09,0-2.12.19-3.52.65v3.59c0,.77-.02.94-.08,1.22-.14.53-.63.85-1.31.85-.99,0-2.12-.44-2.91-1.12-.56-.49-.83-1.05-.83-1.7,0-.77.46-1.55,1.38-2.33.63-.53,1.33-.93,2.41-1.41v-3.04q-.14,0-.68.03c-.27.03-.56.03-.95.03-.24,0-.71-.02-1-.02-.19-.02-.32-.02-.39-.02s-.19,0-.32.02v-1.36c.49.1.99.14,1.83.14q.39,0,1.51-.05v-1.51c0-.77-.03-1.19-.1-1.72h1.53c-.07.49-.08.83-.08,1.65v1.48c1.21-.12,2.52-.39,3.4-.7l.07,1.36ZM69.3,9.35c-1.58.8-2.46,1.67-2.46,2.41,0,.36.22.66.68.97.42.27.99.46,1.41.46.31,0,.37-.14.37-.82v-3.03ZM78.67,6.09c-.88-1.27-2.09-2.48-3.43-3.42l1.09-.78c1.51,1.1,2.43,1.97,3.42,3.3l-1.07.9Z"/>
      <path class="cls-1" d="M84.56,1.58c-.7,0-1.17.02-1.72.07V.42c.56.07,1.1.1,1.8.1h8.87c.71,0,1.22-.03,1.73-.1v1.22c-.53-.05-.92-.07-1.67-.07h-4.11v.92h4.93c1,0,1.48-.02,1.94-.07-.05.39-.07.73-.07,1.31v1.02c0,.56.02.85.1,1.31h-1.29v-2.6h-5.61v1.95c0,.85.02,1.19.09,1.65h-1.39c.07-.44.1-.9.1-1.65v-1.95h-5.27v2.6h-1.29c.07-.44.1-.78.1-1.31v-1.02c0-.54-.02-.9-.07-1.31.46.05.93.07,1.92.07h4.61v-.92h-3.71ZM84.46,12.8v.92h-1.34c.07-.44.1-.95.1-1.5v-3.14c0-.63-.02-1.09-.07-1.55.44.05.83.07,1.51.07h8.67c.73,0,1.16-.02,1.6-.07-.05.44-.07.85-.07,1.55v2.55c0,.54.02.92.05,1.24-.53-.05-.92-.07-1.58-.07h-3.88v.95c0,.15.03.24.14.29.25.14.92.19,2.57.19,1.87,0,2.75-.08,3.03-.32.22-.17.29-.68.31-1.97.46.24.56.29,1.24.49-.1,2.74-.32,2.87-4.84,2.87-3.18,0-3.64-.15-3.64-1.19v-1.31h-3.79ZM83.86,4.18c.29.03.53.05.99.05h1.56c.41,0,.7-.02.95-.05v.92c-.27-.03-.54-.05-.95-.05h-1.56c-.42,0-.7.02-.99.05v-.92ZM83.86,5.83c.27.03.51.05.99.05h1.56c.41,0,.7-.02.95-.05v.92c-.32-.03-.54-.05-.95-.05h-1.56c-.44,0-.63.02-.99.05v-.92ZM84.44,8.57v1.07h3.81v-1.07h-3.81ZM84.44,10.59v1.21h3.81v-1.21h-3.81ZM93.64,9.64v-1.07h-4.18v1.07h4.18ZM93.64,11.8v-1.21h-4.18v1.21h4.18ZM90.46,4.18c.29.03.53.05.99.05h1.83c.43,0,.7-.02.95-.05v.92c-.27-.03-.53-.05-.95-.05h-1.83c-.44,0-.71.02-.99.05v-.92ZM90.46,5.83c.25.03.51.05.99.05h1.83c.41,0,.7-.02.95-.05v.92c-.27-.03-.53-.05-.95-.05h-1.83c-.44,0-.7.02-.99.05v-.92Z"/>
      <path class="cls-1" d="M98.29,2.97c.41.07.73.08,1.36.08h3.26c.7,0,.95-.02,1.36-.07v1.24c-.34-.05-.59-.07-1.24-.07h-3.38c-.58,0-.95.02-1.36.07v-1.26ZM98.86.65c.44.07.7.08,1.33.08h2.41c.63,0,.88-.02,1.33-.08v1.24c-.39-.05-.77-.07-1.33-.07h-2.41c-.56,0-.93.02-1.33.07V.65ZM98.93,5.35c.36.05.61.07,1.19.07h2.67c.58,0,.85-.02,1.17-.07v1.21c-.41-.03-.66-.05-1.17-.05h-2.67c-.54,0-.82.02-1.19.05v-1.21ZM98.93,7.72c.34.03.63.05,1.19.05h2.67c.58,0,.82-.02,1.17-.05v1.21c-.39-.05-.63-.07-1.19-.07h-2.65c-.54,0-.85.02-1.19.07v-1.21ZM100.27,15.5h-1.27c.05-.48.08-.94.08-1.61v-2.43c0-.56-.02-.95-.08-1.38.44.05.85.07,1.36.07h2.36c.73,0,.92,0,1.22-.05-.03.32-.05.7-.05,1.29v2.53c0,.56.02.87.07,1.36h-1.22v-.65h-2.46v.87ZM100.26,13.56h2.48v-2.36h-2.48v2.36ZM108.13,2.41c-.9.17-.99.19-3.25.46-.1-.41-.19-.59-.49-1.19,1.94-.09,4.04-.41,5.75-.9,1.09-.31,1.72-.54,2.07-.77l.82,1.17q-.37.1-.7.2c-.46.14-1.75.48-2.94.76v2.98h2.16c.83,0,1.34-.03,1.83-.1v1.36c-.53-.07-1.02-.1-1.83-.1h-2.16v2.7h2.04c.58,0,.92-.02,1.29-.07-.05.36-.07.83-.07,1.51v3.31c0,.66.03,1.33.08,1.68h-1.36v-.82h-5.01v.82h-1.34c.07-.39.08-.87.08-1.67v-3.43c0-.58-.02-.99-.05-1.41.34.05.73.07,1.21.07h1.87v-2.7h-1.73c-.87,0-1.29.02-1.87.1v-1.36c.53.07,1,.1,1.89.1h1.72v-2.72ZM106.36,13.48h5.01v-3.35h-5.01v3.35Z"/>
      <path class="cls-1" d="M115.46,7.21c.71.29,1.55.48,3.03.66.08-.75.25-2.06.39-2.87-1.09-.14-1.34-.19-2.52-.44-.17-.05-.29-.07-.54-.12l.15-1.34c.71.31,1.85.54,3.06.65.24-1.44.39-2.6.39-2.99v-.24l1.61.17c-.1.32-.15.49-.25,1.14q-.03.15-.17,1.02c-.07.41-.1.61-.15.99.49.02.54.02.66.02,1.39,0,2.57-.1,3.37-.32l-.05,1.41q-.32.03-1.24.12c-.49.03-1.17.07-1.62.07-.25,0-.46,0-1.33-.03-.27,1.82-.31,2.11-.39,2.87.61.03.78.03,1.05.03,1.22,0,2.45-.12,3.16-.31l-.05,1.38c-.17.02-.22.02-.48.05-.78.08-1.68.14-2.46.14-.36,0-.56,0-1.33-.05q0,.12-.02.34c-.03.34-.07.88-.07,1.16,0,.9.24,1.53.73,1.97.54.46,1.33.7,2.33.7,2.24,0,3.67-1.12,3.67-2.87,0-1.04-.53-2.01-1.62-2.94.68-.07.92-.12,1.48-.36.43.46.61.7.8.97.53.78.8,1.61.8,2.48,0,2.41-2.09,4.08-5.12,4.08-1.41,0-2.53-.36-3.33-1.04-.77-.66-1.14-1.65-1.14-3.01,0-.54,0-.59.08-1.56-1-.12-1.77-.24-2.5-.43-.31-.07-.34-.08-.56-.1l.15-1.38Z"/>
      <path class="cls-1" d="M133.57.9c-.08.44-.14.9-.19,2.11-.07,1.24-.17,5.35-.17,6.49,0,1.55.12,2.19.48,2.75.44.65,1.31,1,2.48,1,1.9,0,3.47-1.05,4.37-2.96.41-.83.61-1.53.83-2.72.56.49.8.65,1.45.97-.66,2.07-1.16,3.11-1.92,3.99-1.22,1.41-2.86,2.12-4.83,2.12-1.17,0-2.19-.27-2.84-.73-.58-.42-1.04-1.09-1.26-1.82-.15-.51-.24-1.34-.24-2.24,0-1.04.02-1.56.14-6.9.02-.49.02-.88.02-1.14,0-.37-.02-.58-.05-.95l1.73.02Z"/>
      <path class="cls-1" d="M154.75,1.5c-.24.17-.44.36-2.09,1.92-.83.8-1.94,1.7-3.96,3.25-.58.44-.71.59-.71.8,0,.29.1.39,1.51,1.48,2.55,1.94,2.94,2.26,5.42,4.57.25.24.29.27.49.44l-1.28,1.26c-.41-.59-1.05-1.29-2.19-2.33-1.16-1.07-1.8-1.61-4.33-3.59-.99-.78-1.27-1.17-1.27-1.82,0-.43.19-.85.51-1.19q.2-.22,1.46-1.17c2.38-1.84,4.4-3.72,5.03-4.69l1.41,1.07Z"/>
      <path class="cls-1" d="M160.71,12.02c.31-1.24.42-1.6.88-2.79.08-.2.1-.25.15-.41l1.07.48c-.8,1.58-1.53,3.89-1.53,4.93,0,.08,0,.17.03.37l-1.48.12c0-.12,0-.15-.08-.63-.34-1.87-.48-3.38-.48-5.17,0-2.29.2-3.98.85-6.97.15-.68.19-.9.19-1.14l1.62.22c-.73,1.65-1.33,5.34-1.33,8.12,0,.39.02,1.22.03,2.01q.02.15.02.42v.41l.05.02ZM163.47,4.16c.85.19,1.61.25,3.2.25.66,0,1.05-.02,1.62-.03q0-1.63-.02-2.8c0-.31-.02-.56-.03-.73h1.51c-.07.42-.1,1.21-.1,2.48v.95c1.26-.15,2.4-.39,2.89-.61l.07,1.36c-.1.02-.14.02-.27.05-.9.2-1.65.32-2.69.44.02,1.56.02,1.77.19,4.64,1.19.54,1.73.87,2.79,1.63.19.15.24.19.44.29l-.61,1.44c-.17-.19-.29-.31-.51-.49-.53-.44-.54-.46-1.77-1.21-.02-.02-.05-.03-.19-.12-.07-.03-.07-.05-.15-.1.02.15.02.22.02.36,0,.49-.07.87-.2,1.17-.41.9-1.51,1.43-2.97,1.43-2.02,0-3.28-.97-3.28-2.52s1.38-2.53,3.32-2.53c.68,0,1.33.12,1.77.31-.05-.37-.08-1.44-.17-4.2-.82.03-1.24.05-1.87.05-.68,0-1.31-.02-1.92-.07-.27-.02-.46-.03-.51-.03-.17-.02-.27-.02-.31-.02-.08-.02-.14-.02-.17-.02-.02,0-.03,0-.07.02l.02-1.39ZM166.76,10.74c-1.22,0-2.02.51-2.02,1.31s.75,1.27,1.85,1.27c.7,0,1.31-.22,1.62-.56.19-.24.29-.61.29-1.19v-.49c-.68-.25-1.11-.34-1.73-.34Z"/>
      <path class="cls-1" d="M180.84,1.19c-.12.19-.25.42-.46.87-.7,1.39-1.77,2.96-2.86,4.13-.8.87-1.43,1.44-2.55,2.29-.31-.49-.56-.82-.95-1.17,1.94-1.33,3.31-2.74,4.39-4.54.53-.88.82-1.58.92-2.14l1.51.56ZM187.49,15.49c-.39-.8-.51-1.04-.97-1.84-2.82.44-6.03.78-9.3.95-1.33.08-1.41.08-1.96.19l-.29-1.56c.46.02.83.03,1.24.03.32,0,.53,0,.99-.02,1.58-2.67,3.21-6.39,3.59-8.19l1.56.44c-.14.27-.15.32-.32.76-.94,2.38-2.26,5.17-3.28,6.92,3.31-.17,4.52-.27,7.11-.65-.73-1.19-1.28-1.94-2.43-3.37l1.14-.66c1.7,2.12,3.03,4.11,4.18,6.2l-1.26.78ZM184.46.61c.27.9,1.02,2.21,1.92,3.35.99,1.26,2,2.18,3.67,3.28-.42.46-.65.75-.93,1.29-1.45-1.12-2.24-1.85-3.09-2.82-.99-1.12-1.79-2.35-2.52-3.79-.2-.41-.31-.61-.39-.73l1.34-.58Z"/>
      <path class="cls-1" d="M204.56,3.28c.75,0,1.22-.03,1.65-.1v1.41c-.51-.07-1.07-.1-1.82-.1h-2.87c.08,1.92.24,3.11.59,4.74.32,1.46.93,2.99,1.53,3.77.31.39.71.73.88.73.31,0,.58-.9.83-2.75.46.41.66.54,1.19.77-.29,1.48-.53,2.24-.88,2.8-.29.48-.68.71-1.11.71-.63,0-1.41-.6-2.11-1.58-.82-1.21-1.53-3.21-1.9-5.46-.19-1.09-.29-2.23-.36-3.74h-7.02c-.68,0-1.22.03-1.82.1v-1.41c.48.07,1.05.1,1.82.1h6.97q-.03-1.07-.05-2.02,0-.34-.08-.93h1.51c-.05.32-.1,1-.1,1.55,0,.25.02.59.05,1.41h3.09ZM193.6,8.11c-.63,0-1.16.03-1.58.08v-1.33c.41.07.88.08,1.6.08h4.33c.71,0,1.17-.02,1.58-.08v1.33c-.44-.05-.93-.08-1.56-.08h-1.58v4.39c1.16-.24,1.82-.39,3.72-.9v1.24c-1.87.49-3.23.8-5.22,1.19-.14.03-1.05.2-2.74.53-.22.03-.27.05-.44.08l-.27-1.41c.76,0,1.36-.08,3.64-.49v-4.62h-1.48ZM204.14,3.01c-.65-.82-1.1-1.27-1.99-1.96l.97-.65c.95.75,1.34,1.1,2.02,1.87l-1,.73Z"/>
      <path class="cls-1" d="M214.55,14.24c-.88,0-1.33,0-1.96.03.1-.61.14-1.19.14-2.07V3.3c0-.99-.03-1.55-.14-2.16h1.89c-.1.66-.14,1.12-.14,2.14v9.52h5.17c.93,0,1.43-.03,2.11-.12v1.67c-.58-.08-1.07-.1-2.11-.1h-4.96Z"/>
      <path class="cls-1" d="M225.02,1.14c-.1.61-.14,1.19-.14,1.99v9.13c0,.82.03,1.39.14,1.99h-1.89c.1-.65.14-1.09.14-1.99V3.13c0-.92-.03-1.36-.14-1.99h1.89Z"/>
      <path class="cls-1" d="M229.53,1.14c.14.37.39.83.9,1.61l5.07,7.6c.29.42.8,1.26,1.17,1.94-.07-1.36-.1-2.4-.1-2.94V3.2c0-.87-.03-1.44-.14-2.06h1.84c-.1.63-.14,1.16-.14,2.07v9.04c0,.88.03,1.41.14,1.99h-2.09c-.25-.54-.46-.87-.95-1.61l-5.13-7.75c-.19-.29-.71-1.19-1-1.75.07,1.04.1,2.23.1,2.94v6c0,.97.03,1.6.14,2.18h-1.84c.1-.53.14-1.21.14-2.18V3.13c0-.82-.03-1.36-.14-1.99h2.04Z"/>
      <path class="cls-1" d="M249.79,14.35c-.58-.08-1.04-.1-1.97-.1h-5.1c-.9,0-1.31,0-1.94.03.1-.63.14-1.17.14-2.07V3.11c0-.78-.03-1.24-.14-2.02.58.03,1.11.05,1.94.05h4.93c.8,0,1.43-.03,1.99-.12v1.67c-.58-.08-1.09-.12-1.99-.12h-5.13v4.1h4.37c.8,0,1.34-.03,2.01-.12v1.65c-.61-.08-1.07-.12-2.01-.12h-4.37v4.74h5.3c.85,0,1.33-.03,1.97-.12v1.65Z"/>
      <path class="cls-1" d="M257.72,12.02c.17-.95.44-1.77.99-3.11l1.02.48c-.85,1.8-1.43,3.76-1.43,4.79,0,.07,0,.19.02.32l-1.48.1c-.03-.27-.05-.37-.1-.71-.32-1.87-.44-3.13-.44-4.84,0-2.38.2-4.22.75-6.73.17-.85.2-1.02.24-1.44l1.61.22c-.31.8-.61,2.06-.85,3.38-.25,1.5-.39,3.26-.39,5.2,0,.34.02,1.16.03,1.62,0,.37.02.44.02.73h.02ZM263.3,8.01c-.88.97-1.27,1.75-1.27,2.5,0,1.16,1.05,1.73,3.11,1.73,1.53,0,2.99-.22,3.96-.59l.15,1.55c-.22.03-.25.03-.61.1-1.22.22-2.36.32-3.5.32-2.01,0-3.28-.42-3.99-1.34-.32-.43-.51-1.02-.51-1.63,0-1,.46-1.99,1.51-3.21l1.16.58ZM260.95,2.82c.78.19,1.56.25,2.87.25,1.99,0,3.62-.17,4.66-.46l.08,1.44c-.05,0-.44.05-1.17.15-1.04.14-2.36.22-3.62.22-.87,0-1.41-.03-2.28-.12q-.05,0-.31-.03c-.1-.02-.14-.02-.27-.03l.03-1.43Z"/>
      <path class="cls-1" d="M271.38,2.84c.36.02.51.02.61.02.24,0,.46-.02.99-.05,2.38-.17,7.04-.42,9.84-.56,1.04-.03,1.72-.1,1.99-.17l.12,1.51h-.2c-1.38,0-2.99.54-4.33,1.46-1.72,1.17-2.69,2.72-2.69,4.32,0,1.5.85,2.53,2.55,3.09.85.27,1.73.42,2.55.42l-.24,1.65c-.2-.05-.27-.05-.54-.1-1.75-.29-2.75-.61-3.76-1.26-1.31-.83-2.02-2.14-2.02-3.67,0-2.46,1.68-4.69,4.55-5.98-1.09.17-1.9.25-3.74.37-3.3.22-4.69.36-5.59.54l-.08-1.6Z"/>
      <path class="cls-1" d="M291.54,5.22c-.07.19-.1.29-.2.7-.65,2.65-.97,3.62-1.61,4.9-.63,1.22-1.39,2.26-2.53,3.42-.39-.59-.66-.87-1-1.05,1.02-.82,1.8-1.79,2.45-2.99.65-1.17,1.09-2.5,1.44-4.37h-1.99c-.61,0-.94.02-1.31.08v-1.31c.39.07.68.08,1.36.08h1.8c.49,0,.75-.02,1.02-.08l.58.63ZM293.76,6.97h-1c-.44,0-.83.02-1.17.07v-1.16c.37.05.7.07,1.17.07h1v-.65c0-.66-.02-1-.07-1.44h.48c1.34-.7,2.02-1.12,3.06-1.92h-6.22c-.94,0-1.46.03-2.01.1V.71c.56.07,1.14.1,2.01.1h6.14c.85,0,1.22-.02,1.62-.08l.7.88c-.07.05-.29.22-.71.58-.93.75-2.28,1.61-3.79,2.43v1.33h1.09c.48,0,.8-.02,1.16-.07v1.16c-.34-.05-.71-.07-1.16-.07h-1.09v1.33h1.34c.61,0,.88-.02,1.24-.07v1.16c-.41-.07-.65-.08-1.24-.08h-1.34v1.48h2.09c.63,0,.93-.02,1.26-.08v1.22c-.37-.07-.76-.08-1.36-.08h-1.99v2.07c0,.61-.14.95-.48,1.16-.25.19-.66.24-1.56.24-.65,0-1.19-.02-1.9-.07-.09-.63-.15-.9-.32-1.31.92.15,1.65.22,2.31.22s.76-.08.76-.49v-1.82h-1.92c-.61,0-1.04.02-1.41.08v-1.22c.36.07.68.08,1.31.08h2.02v-1.48h-1.19c-.56,0-.85.02-1.29.08v-1.16c.41.05.7.07,1.29.07h1.19v-1.33ZM302.09,5.05c-.07.09-.08.1-.19.22-.78.88-1.82,1.92-2.72,2.7.78,2.18,1.72,3.55,3.4,5.01-.44.37-.68.65-1.02,1.16-1.67-1.82-2.4-2.94-3.18-4.88-.48-1.24-.76-2.24-1.29-4.5-.03-.22-.07-.31-.12-.53l1.21-.34c.12,1,.24,1.63.59,2.84.95-.83,1.72-1.68,2.31-2.63l1,.95Z"/>
      <path class="cls-1" d="M303.83,7.11c.44-.03.46-.05,1.62-.31,2.26-.53,3.77-.75,5.22-.75,1.79,0,3.04.54,3.71,1.63.36.56.56,1.29.56,2.02,0,2.01-1.51,3.71-4.01,4.52-1.04.34-1.39.39-3.55.66-.12-.58-.2-.8-.53-1.39h.25c1.04,0,2.4-.22,3.38-.53,1.92-.63,3.06-1.87,3.06-3.35s-1.04-2.29-3.01-2.29c-1.17,0-2.45.19-4.49.68-1.05.24-1.33.32-1.87.56l-.34-1.46Z"/>
      <path class="cls-1" d="M316.44,2.84c.36.02.51.02.61.02.24,0,.46-.02.99-.05,2.38-.17,7.04-.42,9.84-.56,1.04-.03,1.72-.1,1.99-.17l.12,1.51h-.2c-1.38,0-2.99.54-4.33,1.46-1.72,1.17-2.69,2.72-2.69,4.32,0,1.5.85,2.53,2.55,3.09.85.27,1.73.42,2.55.42l-.24,1.65c-.2-.05-.27-.05-.54-.1-1.75-.29-2.75-.61-3.76-1.26-1.31-.83-2.02-2.14-2.02-3.67,0-2.46,1.68-4.69,4.55-5.98-1.09.17-1.9.25-3.74.37-3.3.22-4.69.36-5.59.54l-.08-1.6Z"/>
      <path class="cls-1" d="M340.91,4.3c-.32.05-.39.05-1,.19-1.07.2-1.73.32-2.48.39v2.74c1.39-.41,2.43-.58,3.62-.58s2.28.27,3.04.75c1.12.71,1.75,1.84,1.75,3.11,0,2.06-1.55,3.62-3.59,3.62-1.36,0-2.31-.68-2.67-1.92-.17-.58-.24-1.09-.24-1.99.63-.17.83-.25,1.34-.54-.02.32-.03.46-.03.66,0,.65.08,1.26.2,1.58.24.56.73.87,1.43.87,1.22,0,2.12-.95,2.12-2.28,0-1.61-1.34-2.63-3.45-2.63-1.09,0-2.12.19-3.52.65v3.59c0,.77-.02.94-.08,1.22-.14.53-.63.85-1.31.85-.99,0-2.12-.44-2.91-1.12-.56-.49-.83-1.05-.83-1.7,0-.77.46-1.55,1.38-2.33.63-.53,1.33-.93,2.41-1.41v-3.04q-.14,0-.68.03c-.27.03-.56.03-.95.03-.24,0-.71-.02-1-.02-.19-.02-.32-.02-.39-.02s-.19,0-.32.02v-1.36c.49.1.99.14,1.83.14q.39,0,1.51-.05v-1.51c0-.77-.03-1.19-.1-1.72h1.53c-.07.49-.08.83-.08,1.65v1.48c1.21-.12,2.52-.39,3.4-.7l.07,1.36ZM336.1,9.35c-1.58.8-2.46,1.67-2.46,2.41,0,.36.22.66.68.97.42.27.99.46,1.41.46.31,0,.37-.14.37-.82v-3.03ZM345.46,6.09c-.88-1.27-2.09-2.48-3.43-3.42l1.09-.78c1.51,1.1,2.43,1.97,3.42,3.3l-1.07.9Z"/>
      <path class="cls-1" d="M351.11,6.37q.03-.12.12-.46c.22-.92.54-1.67,1.02-2.38.93-1.36,2.06-2.06,3.35-2.06,1.16,0,2.11.51,2.8,1.51.75,1.09,1.07,2.36,1.07,4.25,0,3.13-1.41,5.49-4.06,6.77-.83.39-1.87.73-3.11.99-.25-.68-.37-.88-.76-1.39,1.63-.22,2.52-.48,3.54-1.04,1.99-1.1,2.91-2.84,2.91-5.52s-.92-4.16-2.52-4.16c-1.21,0-2.29.95-3.23,2.84-.63,1.24-.93,2.52-.93,3.79v.41l-1.46.03c.02-.08.02-.15.02-.19,0-.05,0-.15-.02-.32,0-.17-.03-1.99-.03-2.19,0-1.72.12-3.16.56-6.29.03-.26.03-.34.03-.54l1.56.12c-.2.6-.25.83-.68,3.81-.15,1.07-.19,1.44-.24,2.04h.07Z"/>
      <path class="cls-1" d="M374.88,14.16c-.8-.85-2.04-1.73-3.47-2.45q-.37-.19-.99-.44c.02.2.02.29.02.44,0,.66-.15,1.31-.41,1.75-.44.78-1.58,1.21-3.2,1.21-2.14,0-3.48-.93-3.48-2.43,0-1.67,1.58-2.67,4.2-2.67.58,0,1,.03,1.5.1q-.03-.41-.08-2.16c-.9.02-1.5.03-1.92.03-1,0-1.84-.03-2.92-.14-.2-.02-.34-.02-.44-.02h-.15l.02-1.33c.77.17,2.23.27,3.93.27.39,0,.9-.02,1.48-.03-.02-1.68-.03-1.85-.03-2.12-.58.02-.87.02-1.19.02-1.02,0-2.89-.08-4.1-.17-.15-.02-.27-.02-.34-.02-.05,0-.14,0-.24.02l.02-1.38c.82.2,2.53.34,4.42.34.32,0,.92-.02,1.43-.03q-.02-1.96-.08-2.35h1.53c-.07.39-.1,1-.12,2.29,2.24-.12,4.01-.36,5.01-.68l.07,1.38q-.32.02-1.22.15c-1.46.2-2.31.29-3.86.37,0,.92.02,1.17.03,2.11,2.02-.12,3.69-.36,4.66-.66l.07,1.38c-.29.02-.34.03-1.65.22-.66.1-2.18.24-3.06.29q.05,1.73.08,2.43c1.61.49,2.92,1.17,4.73,2.46.29.19.36.25.59.39l-.82,1.41ZM367.4,10.78c-1.04,0-1.94.27-2.36.71-.17.17-.27.44-.27.71,0,.78.82,1.24,2.18,1.24.87,0,1.5-.19,1.8-.53.24-.26.34-.68.34-1.39,0-.14-.02-.58-.02-.58-.65-.14-.97-.17-1.67-.17Z"/>
      <path class="cls-1" d="M385.93,1.48c-.02-.46-.03-.63-.08-.99h1.53c-.07.53-.08.78-.08,2.23,3.18-.02,4.47-.05,5.03-.12v1.43c-.65-.07-1.26-.08-3.13-.08-.24,0-.53,0-1.89.02v3.26c.31.73.42,1.29.42,2.11,0,1.84-.78,3.35-2.33,4.49-.71.51-1.43.87-2.8,1.38-.34-.68-.46-.87-.87-1.31,2.19-.59,3.5-1.43,4.23-2.75.31-.54.44-1.04.49-1.72-.17.36-.27.54-.46.75-.51.58-1.26.88-2.14.88-1.67,0-2.89-1.17-2.89-2.77s1.33-2.89,3.14-2.89c.8,0,1.46.24,1.89.68v-.12c-.02-.15-.03-1.04-.03-1.97-2.91.05-6.87.27-7.92.44l-.05-1.46c.34.02.48.02.73.02.46,0,.56,0,3.13-.1,1.44-.05,2.19-.07,4.1-.12l-.02-1.27ZM382.36,8.18c0,.95.68,1.61,1.67,1.61,1.1,0,1.89-.76,1.89-1.87,0-.41-.1-.66-.34-.9-.34-.32-.82-.49-1.34-.49-1.07,0-1.87.71-1.87,1.65Z"/>
    </g>
  </g>
</svg>