<?xml version="1.0" encoding="UTF-8"?>
<svg xmlns="http://www.w3.org/2000/svg" viewBox="0 0 165 128">
  <defs>
    <style>
      .cls-1 {
        letter-spacing: 0em;
      }

      .cls-2 {
        fill: #231815;
        font-family: Marydale-Regular, Marydale;
        font-size: 11.59px;
      }

      .cls-3 {
        letter-spacing: 0em;
      }

      .cls-4 {
        letter-spacing: -.04em;
      }

      .cls-5 {
        fill: #fff;
      }

      .cls-6 {
        letter-spacing: 0em;
      }

      .cls-7 {
        fill: #9e9f9f;
      }

      .cls-8 {
        letter-spacing: -.01em;
      }

      .cls-9 {
        letter-spacing: -.04em;
      }

      .cls-10 {
        fill: none;
      }

      .cls-11 {
        letter-spacing: .01em;
      }

      .cls-12 {
        letter-spacing: 0em;
      }

      .cls-13 {
        isolation: isolate;
      }

      .cls-14 {
        letter-spacing: -.02em;
      }

      .cls-15 {
        letter-spacing: -.02em;
      }

      .cls-16 {
        letter-spacing: -.02em;
      }

      .cls-17 {
        letter-spacing: 0em;
      }

      .cls-18 {
        fill: #dbdcdc;
      }

      .cls-19 {
        letter-spacing: 0em;
      }

      .cls-20 {
        mix-blend-mode: multiply;
      }

      .cls-21 {
        fill: #eee;
      }

      .cls-22 {
        letter-spacing: -.03em;
      }

      .cls-23 {
        letter-spacing: -.02em;
      }

      .cls-24 {
        letter-spacing: -.01em;
      }

      .cls-25 {
        letter-spacing: 0em;
      }

      .cls-26 {
        letter-spacing: -.09em;
      }

      .cls-27 {
        fill: #585757;
      }

      .cls-28 {
        letter-spacing: -.01em;
      }

      .cls-29 {
        letter-spacing: -.03em;
      }
    </style>
  </defs>
  <g class="cls-13">
    <g id="_レイヤー_2" data-name="レイヤー 2">
      <g id="_レイヤー_1-2" data-name="レイヤー 1">
        <g>
          <g>
            <text class="cls-2" transform="translate(7.54 50.16) rotate(-15.95)"><tspan class="cls-24" x="0" y="0">w</tspan><tspan class="cls-28" x="8.08" y="0">e</tspan><tspan class="cls-16" x="13.57" y="0">l</tspan><tspan class="cls-4" x="15.78" y="0">l</tspan><tspan class="cls-14" x="17.81" y="0">-</tspan><tspan class="cls-3" x="23.01" y="0">b</tspan><tspan class="cls-15" x="27.5" y="0">e</tspan><tspan class="cls-23" x="32.95" y="0">i</tspan><tspan class="cls-19" x="35.47" y="0">n</tspan><tspan x="39.94" y="0">g </tspan><tspan class="cls-17" x="49.95" y="0">f</tspan><tspan class="cls-25" x="54.53" y="0">o</tspan><tspan x="58.79" y="0">r</tspan><tspan class="cls-8" x="4.62" y="13.04">w</tspan><tspan class="cls-1" x="12.66" y="13.04">o</tspan><tspan class="cls-12" x="16.87" y="13.04">m</tspan><tspan class="cls-6" x="24.26" y="13.04">e</tspan><tspan class="cls-22" x="29.9" y="13.04">n</tspan><tspan class="cls-26" x="33.95" y="13.04">’</tspan><tspan x="35.71" y="13.04">s </tspan><tspan class="cls-29" x="44.2" y="13.04">l</tspan><tspan class="cls-9" x="46.34" y="13.04">i</tspan><tspan class="cls-11" x="48.6" y="13.04">f</tspan><tspan x="53.26" y="13.04">e</tspan></text>
            <g class="cls-20">
              <g>
                <path class="cls-5" d="M154.66,77v-9.07l-25.24-6.36.07-7.49-41.25-.91-.11,6.97-22.02,12.83-.07,11.55-21.02.87.02,8.57,7.65,4.42,3.65,2.11.21.12s-.02,5.59,0,5.73v.32h.07c.25.78,1.03,1.63,2.28,2.35,2.42,1.4,5.68,1.78,7.28.86.75-.44.87-1.09.87-1.09.18-1.06,1.49-1.25,2.91-.43l15.77,10.75,12.44-9.48c1.23-.71,2.61-.41,3.07.67,0,0,.24.58,1.09,1.07,1.85,1.07,5.04.95,7.14-.26.92-.53,1.48-1.19,1.66-1.85h.04v-.19c.03-.18.03-.35,0-.53v-6.42l8.75-5.05,6.52-3.76,2.37-1.37,4.11-2.38c1.23-.71,2.61-.41,3.07.67,0,0,.24.58,1.09,1.07,1.85,1.07,5.04.95,7.14-.26,1.29-.74,1.86-1.73,1.68-2.62v-6.35l8.76-5.06Z"/>
                <path class="cls-21" d="M52.69,89.51l-7.65-4.42,13-7.51c1.23-.71,2.61-.41,3.07.67,0,0,.24.58,1.09,1.07,1.85,1.07,5.04.95,7.14-.26,2.1-1.21,2.3-3.06.46-4.12-.85-.49-1.85-.63-1.85-.63-1.87-.26-2.4-1.06-1.17-1.77l13-7.51,7.88,4.55,2.28,1.32,4.83,2.79c1.42.82,2.73.63,2.91-.43,0,0,.11-.65.87-1.09,1.6-.92,4.86-.54,7.28.86,2.42,1.4,3.09,3.28,1.49,4.2-.76.44-1.89.5-1.89.5-1.83.1-2.16.86-.74,1.68l15.21,8.78-13,7.51c-1.23.71-.71,1.51,1.17,1.77,0,0,1,.14,1.85.63,1.85,1.07,1.64,2.91-.46,4.12-2.1,1.21-5.3,1.33-7.14.26-.85-.49-1.09-1.07-1.09-1.07-.45-1.08-1.84-1.38-3.07-.67l-12.44,8.66-15.77-9.93c-1.42-.82-2.73-.63-2.91.43,0,0-.11.65-.87,1.09-1.6.92-4.86.54-7.28-.86-2.42-1.4-3.09-3.28-1.49-4.2.76-.44,1.89-.5,1.89-.5,1.83-.1,2.16-.86.74-1.68l-3.69-2.13-3.65-2.11Z"/>
                <path class="cls-18" d="M135.61,59.2s-.11.65-.87,1.09c-1.6.92-4.86.54-7.28-.86-2.42-1.4-3.09-3.28-1.49-4.2.76-.44,1.89-.5,1.89-.5,1.83-.1,2.16-.86.74-1.68l-3.69-2.13-3.65-2.11-6.72-3.83-13.15,7.59c-1.23.71-2.6.41-3.03-.67,0,0-.3-.76-1.2-1.28-1.85-1.07-5.04-.95-7.14.26-2.1,1.21-2.3,3.06-.46,4.12.9.52,2.21.69,2.21.69,1.88.25,2.4,1.04,1.17,1.75l-3.27,1.89-2.57,1.48-7.31,4.22,14.99,8.65c1.42.82,2.73.63,2.91-.43,0,0,.11-.65.87-1.09,1.6-.92,4.86-.54,7.28.86,2.42,1.4,3.09,3.28,1.49,4.2-.76.44-1.89.5-1.89.5-1.83.1-2.16.86-.74,1.68l15.21,8.78,6.52-3.76,2.37-1.37,4.11-2.38c1.23-.71,2.61-.41,3.07.67,0,0,.24.58,1.09,1.07,1.85,1.07,5.04.95,7.14-.26,2.1-1.21,2.3-3.06.46-4.12-.85-.49-1.85-.63-1.85-.63-1.87-.26-2.4-1.06-1.17-1.77l13-7.91-16.14-8.96c-1.42-.82-2.73-.63-2.91.43Z"/>
                <path class="cls-27" d="M154.91,77.03s0-.02,0-.03v-9.27s0,0,0,0c0,0,0,0,0,0,0-.03,0-.06-.02-.08,0,0,0-.01,0-.02-.01-.02-.03-.05-.05-.07,0,0,0,0,0,0-.02-.02-.03-.03-.06-.04l-16.13-8.96c-.95-.55-1.9-.69-2.56-.39-.4.19-.66.54-.74.99,0,.02-.11.55-.74.91-1.09.63-3,.61-4.87.05v-6.04s0-.05-.01-.07c0-.3-.19-.71-1.01-1.19l-7.34-4.24-6.72-3.83c-.08-.05-.18-.04-.26,0l-13.15,7.59c-.61.35-1.27.44-1.81.26-.4-.14-.7-.42-.85-.8-.01-.03-.35-.85-1.31-1.4-1.91-1.11-5.23-.99-7.4.26-1.09.63-1.75,1.48-1.83,2.34-.04.05-.07.11-.07.17v6.7s.01.08.03.12l-8.36,4.83-13,7.51c-.72.42-.83.83-.79,1.11,0,.03-.02.05-.02.08v6.28c-1.31.08-2.59-.14-3.52-.68-.75-.43-.98-.94-.98-.95-.22-.52-.64-.91-1.19-1.1-.69-.23-1.51-.12-2.24.3l-12.96,7.48s-.02,0-.03,0c-.14,0-.26.12-.26.26v8.42c0,.06.02.1.05.15,0,0,0,0-.01.01-.07.12-.03.28.09.35l11.41,6.68s.05.02.08.03v5.36s-.01.05-.01.08c.02,1.02.95,2.17,2.49,3.05,2.49,1.44,5.87,1.82,7.54.86.85-.49.98-1.24.99-1.27.05-.29.2-.5.45-.61.49-.23,1.29-.09,2.06.36l15.77,10.75s.09.04.14.04c.05,0,.11-.02.16-.05l12.42-9.47c.6-.34,1.26-.43,1.81-.25.41.14.72.42.88.81.01.03.29.67,1.2,1.19,1.91,1.1,5.23.99,7.4-.26,1.05-.6,1.69-1.4,1.82-2.23.01-.07,0-.14-.05-.19.06-.05.09-.11.09-.19v-6.47l21.58-12.46c.61-.35,1.27-.44,1.82-.26.41.14.72.42.88.81.01.03.29.66,1.2,1.19,1.91,1.1,5.23.99,7.4-.26,1-.58,1.64-1.33,1.8-2.13.02-.09.03-.19.04-.28,0-.07-.02-.14-.07-.19.05-.05.08-.11.08-.19v-6.33s.08-.01.11-.03l8.47-4.89s.02-.01.02-.02c.01-.01.03-.02.04-.03.01-.01.02-.03.03-.04,0-.01.02-.03.02-.04,0-.02,0-.03.01-.05ZM127.59,59.2c-1.38-.8-2.23-1.81-2.23-2.64,0-.46.25-.83.74-1.11.69-.4,1.76-.47,1.77-.47.59-.03,1.05-.14,1.36-.3v5.27c-.57-.2-1.13-.45-1.64-.75ZM90.15,51.1c2.02-1.17,5.11-1.29,6.88-.26.8.46,1.09,1.14,1.09,1.15.21.52.62.91,1.16,1.1.69.24,1.5.13,2.24-.3l13.02-7.52,6.59,3.76,7.34,4.24c.65.37.78.66.75.76-.03.13-.36.38-1.38.44-.05,0-1.2.07-2,.53-.82.48-1,1.11-1,1.56,0,1.03.93,2.19,2.49,3.09,2.49,1.44,5.87,1.82,7.54.86.85-.49.99-1.24.99-1.27.05-.29.2-.5.45-.61.49-.23,1.29-.09,2.08.37l15.75,8.75-12.62,7.68c-.75.43-.84.86-.78,1.14.11.54.83.94,2.04,1.11,0,0,.97.14,1.76.6.73.42,1.13.99,1.13,1.6,0,.74-.58,1.5-1.59,2.08-2.02,1.17-5.11,1.29-6.88.26-.75-.43-.98-.94-.98-.95-.22-.52-.64-.91-1.19-1.1-.69-.23-1.51-.12-2.24.3l-12.88,7.43-15.08-8.71c-.65-.37-.78-.65-.75-.76.03-.13.36-.38,1.38-.44.05,0,1.2-.07,2-.53.82-.48,1-1.11,1-1.56,0-1.03-.93-2.19-2.49-3.09-.18-.1-.36-.2-.55-.29-.06-.03-.12-.06-.18-.08-.13-.06-.26-.12-.4-.18-.07-.03-.14-.06-.2-.08-.14-.05-.27-.1-.41-.15-.06-.02-.12-.04-.19-.06-.2-.06-.39-.13-.59-.18-.02,0-.04-.01-.07-.02-.18-.05-.36-.09-.53-.13-.07-.01-.13-.03-.2-.04-.13-.03-.27-.05-.4-.07-.07-.01-.14-.02-.22-.03-.14-.02-.27-.03-.4-.04-.06,0-.12-.01-.19-.02-.19-.01-.38-.02-.56-.02,0,0,0,0-.01,0-.14,0-.28,0-.42.01-.03,0-.07,0-.1,0-.11,0-.22.02-.32.03-.04,0-.07,0-.11.01-.13.02-.26.04-.38.06,0,0,0,0-.01,0-.13.03-.25.06-.36.09-.03,0-.06.02-.09.03-.09.03-.17.06-.25.09-.03.01-.06.02-.09.04-.1.05-.21.09-.3.15-.85.49-.99,1.24-.99,1.27-.05.29-.2.5-.45.61-.49.23-1.29.09-2.08-.37l-14.61-8.43,12.76-7.37c.75-.43.84-.86.78-1.14-.11-.54-.83-.93-2.04-1.09-.01,0-1.27-.17-2.12-.66-.73-.42-1.13-.99-1.13-1.6,0-.74.58-1.5,1.59-2.08ZM88.5,54.44c.23.29.54.56.93.78.93.54,2.25.72,2.3.72,1.2.16,1.57.5,1.61.68.03.16-.17.38-.54.59l-4.31,2.49v-5.27ZM66.37,74.08c.35.22.87.39,1.55.49,0,0,.96.14,1.76.6.73.42,1.13.99,1.13,1.6,0,.74-.58,1.5-1.59,2.08-.83.48-1.83.78-2.85.9v-5.66ZM58.17,77.81c.61-.35,1.27-.44,1.82-.26.41.14.72.42.88.81.01.03.29.67,1.2,1.19,1.91,1.1,5.23.99,7.4-.26,1.17-.68,1.85-1.6,1.85-2.53,0-.8-.49-1.52-1.39-2.04-.88-.51-1.9-.66-1.95-.66-1.05-.15-1.56-.45-1.61-.7-.03-.16.17-.39.54-.6l12.88-7.43,14.86,8.58c.95.55,1.9.69,2.56.39.4-.19.66-.54.74-.99,0-.02.11-.55.74-.91,1.53-.88,4.68-.49,7.02.86,1.38.8,2.23,1.81,2.23,2.64,0,.46-.25.83-.74,1.11-.69.4-1.76.47-1.77.47-1.09.06-1.73.35-1.85.84-.07.3.04.78.99,1.33l14.82,8.56-12.62,7.29c-.75.43-.84.86-.78,1.14.11.54.83.94,2.04,1.11,0,0,.97.14,1.76.6.73.42,1.13.99,1.13,1.6,0,.74-.58,1.5-1.59,2.08-2.02,1.17-5.11,1.29-6.88.26-.75-.43-.98-.94-.98-.95-.22-.52-.64-.91-1.19-1.1-.69-.23-1.51-.12-2.26.31l-12.28,8.55s-.04-.01-.07-.02l-15.59-9.82c-.62-.36-1.24-.54-1.78-.54-.29,0-.55.05-.77.16-.4.19-.66.54-.74.99,0,.02-.11.55-.74.91-1.53.88-4.68.49-7.02-.86-1.28-.74-2.11-1.66-2.22-2.46v-.19s0-.03-.01-.05c.02-.43.27-.78.74-1.05.69-.4,1.76-.47,1.77-.47,1.09-.06,1.73-.35,1.85-.83.07-.3-.04-.78-.99-1.33l-7.34-4.24-7.27-4.19,12.62-7.29ZM45.15,93.64s.03-.08.03-.12v-8.05l14.72,8.5c.65.37.78.66.75.76-.03.13-.36.38-1.38.44-.05,0-1.2.07-2,.53-.82.48-1,1.11-1,1.56,0,.07,0,.14.01.22v2.67l-11.15-6.52ZM67.53,107.74c-.4.19-.66.54-.74.99,0,.02-.11.55-.74.91-1.53.88-4.68.49-7.02-.86-1.37-.79-2.2-1.76-2.23-2.59,0-.02.01-.04.01-.06v-7.43c.43.59,1.1,1.17,1.96,1.67,2.49,1.44,5.87,1.82,7.54.86.85-.49.98-1.24.99-1.27.05-.29.2-.5.45-.61.49-.23,1.29-.09,2.07.36l15.56,9.79v9.05l-15.29-10.42c-.95-.55-1.9-.69-2.56-.39ZM109.34,110.87c-2.02,1.17-5.11,1.29-6.88.26-.75-.43-.98-.94-.98-.95-.22-.52-.64-.91-1.19-1.1-.69-.23-1.51-.12-2.24.3,0,0-.02.01-.03.02l-12.12,9.24v-9.04l12.4-8.64c.61-.35,1.27-.44,1.82-.26.41.14.72.42.88.81.01.03.29.67,1.2,1.19,1.91,1.1,5.23.99,7.4-.26.58-.34,1.04-.73,1.35-1.16v7.41c0,.06.02.11.05.15-.05.04-.08.09-.09.16-.1.67-.66,1.33-1.57,1.86ZM145.65,89.03c-.13.65-.69,1.28-1.56,1.78-2.02,1.17-5.11,1.29-6.88.26-.75-.43-.98-.94-.98-.95-.22-.52-.64-.91-1.19-1.1-.69-.23-1.51-.12-2.24.3l-12.47,7.2v-7.64c0-.14-.12-.26-.26-.26s-.26.12-.26.26v7.65c0,.09.05.17.12.21l-8.46,4.89v-1.8s-.02-.09-.04-.13c-.08-.72-.56-1.36-1.37-1.83-.88-.51-1.9-.66-1.95-.66-1.05-.15-1.56-.45-1.61-.7-.03-.16.17-.39.54-.6l13-7.51,13-7.51c.61-.35,1.27-.44,1.82-.26.41.14.72.42.88.81.01.03.29.66,1.2,1.19,1.91,1.11,5.23.99,7.4-.26.58-.33,1.03-.72,1.34-1.15v7.23c0,.07.03.12.07.17-.05.04-.08.11-.08.18,0,.07-.01.14-.03.21ZM146.21,81.59v-1.97c0-.06-.03-.12-.07-.17-.14-.63-.6-1.2-1.34-1.62-.88-.51-1.9-.66-1.95-.66-1.05-.15-1.56-.45-1.61-.7-.03-.16.17-.39.54-.6l12.61-7.67v8.66l-8.2,4.73ZM68.54,101.23v4.97c0,.14-.12.26-.26.26s-.26-.12-.26-.26v-4.97c0-.14.12-.26.26-.26s.26.12.26.26ZM99.96,102.44v4.97c0,.14-.12.26-.26.26s-.26-.12-.26-.26v-4.97c0-.14.12-.26.26-.26s.26.12.26.26ZM134.75,82.3v4.97c0,.14-.12.26-.26.26s-.26-.12-.26-.26v-4.97c0-.14.12-.26.26-.26s.26.12.26.26Z"/>
              </g>
              <g>
                <path class="cls-27" d="M81.15,83.33c-.07.12.53-12.73.53-12.73,0,0-.06-1.31-.18-1.67l-2.98-.84c.12,1.91.12,2.81.12,2.81,0,0,.19,12.6.13,12.6-.49.88-2.49,2.04-2.57,2.09.08,0,.91.03,1.13.22.2.17.26.64.51.72.38.13,1.48-.33,1.82-.44.48-.16,1.12-.25,1.44-.72.02-.03.07-.35.04-.66.01-.53.02-1.03.02-1.37Z"/>
                <path class="cls-7" d="M79.36,86.09c-.34.12-1.15.56-1.53.43-.25-.09-.44-.67-.64-.84-.22-.19-.81-.07-.88-.07-.66.36-2.05.92-2.08,1.21-.04.33.62.81,1.3,1.05.99.35,1.53.37,2.41-.17.45-.28,2.94-.74,3.33-.82.04-.57-.03-.74,0-1.66-.13.27-.14.1-.16.13-.31.47-1.25.57-1.73.73Z"/>
                <path class="cls-7" d="M85.41,87.16c-.36.34-.53,1.23-.96.84-.3-.28-1.13-.69-1.61-.67,0,0-.49.34-.59.34-.72.35-1.54.8-1.46,1.39.04.33,1.38.75,2.1.75.92,0,1.51-.07,2.12-.9.48-.65,1.43-.8,1.43-.8,0,0,.68-.41.84-.54.03-.52-.01-1.05-.08-1.6-.07.08-1,.45-1.79,1.2Z"/>
                <path class="cls-5" d="M86.79,69.69c-.06-.22-2.78-.37-2.78-.37.43,1.87.72,15.67.72,15.67,0,0-.83,1.28-1.68,2.05-.12.11.04.25.05.25.48-.02,1.05.43,1.36.71.43.4.73-.59,1.11-.91.89-.75,1.57-1.05,1.64-1.13-.05-.35-.1-.72-.17-1.1-.15-.93.79-11.41-.25-15.17Z"/>
                <path class="cls-5" d="M87.58,70.51c.22,2.57.13,9.85-.12,12.43-1.04,1.23-2.61.87-3.35-.16-.16-.22-.53-17.7-.81-18l3.83.38s.15,2.04.44,5.35Z"/>
                <path class="cls-5" d="M81.81,69.26c.22,2.57.1,9.85-.16,12.43-1.05,1.23-2.61.86-3.35-.17-.16-.22-.48-17.7-.75-18l3.83.39s.15,2.04.43,5.35Z"/>
                <path class="cls-7" d="M76.09,57.76c0,2.32-.49,6.97-.49,6.97,0,0,1.58,2.69,3.75,2.23.41-.09,2.83,1.12,3.35,1.25,1.46.36,6.51-.74,7.69-2.76.14-.24-1.32-10.06-2.24-16.16,1.38-.61,3.94-2.12,3.17-4.64l-1.87-7.24c-.36-1.18-.27-1.93-.76-2.72-.29-.46-.67-.85-1.12-1.15-.91-.62-.56-.42-1.57-.82-2,1.6-4.93,2.22-4.93-.39-.72-.16-1.14.64-1.42.95-.28.32-.33.6-.61,1.48-.19.59-.56,2.98-.78,4.51-.97,1.95-2.85,5.05-3.05,9.22-.15,3.1.89,7.64.89,9.27ZM87.63,45.9c-.13-.84-.21-1.34-.21-1.34,0,0,.09-1.52.19-2.94l1.09,3.56s-.47.35-1.08.72Z"/>
                <path class="cls-27" d="M79.1,48.75c0-.18.33-.27.76-.32-1.09-.38.18-.69,1.34-.74.39-.02,1.33-.14,1.68-.25.76-.25-.89-1.48-.54-1.72.32-.27.99.12,1.4.54.21.21.79.88.99,1.3,0,0,0,0,0,0,.08.14,2.04-.79,2.04-.79,0,0,.9.71.94,1.35.03.64-.13.85-.13.85-1.39.9-2.65.86-2.65.86,0,0-1.69.8-1.93.85-1.26.25-3.64-.07-3.55-.49,0-.15.24-.33.52-.3v-.02c-.5-.09-.83-.22-.79-.4,0-.14.45-.31.74-.3h0c-.51-.1-.85-.24-.81-.42Z"/>
                <path class="cls-27" d="M84.76,28.66c-.39-.16-.81-.87-1.15-1.66-.09-.21-.18-.43-.25-.64-.16-.45-.64-2.09-1.39-1.73l-.02.02-.35.08c-.21-.43-1.62.91-1.62,1.85l-.05.2c-.07.88.06,1.55.07,1.92.03.78.27,2.01.62,2.42.42.48.8.76,1.11.92v.13s-.66.18-.66.18c0,0-.38,1.4,1.2,1.74,1.73.38,3.73-1.35,3.73-1.35l-1.3-.59-.14-.97c.09-.11.16-.24.21-.37h0s.16-.26.16-.26c.34-.15.59-.45.7-.89.24-.98-.48-1.4-.87-.98Z"/>
                <path class="cls-5" d="M86.08,29.9c.34,0,.65.02.98.12.25.08,1.23.43,1.18.83-.01.12-.32.26-.42.33.26.3.84.42.88.62.05.25-.62.6-.79.7l-.66-.62s-.85-.49-1.22-1.08c-.59-.95.03-.89.03-.89Z"/>
                <path class="cls-7" d="M86.87,31.55c-.69-.49-1.14-1.19-1.15-1.38-.03-.36.92-.53,1.45-.92.48-.36.49-.72.5-1.35.01-.88.1-1.78-.07-2.63-.18-.91-.96-2.45-2.08-2.37l-.79-.28c-.81-.61-2.46-.6-3.75.67l-.27.33c-.27.1-1.15,1.42-1.26,1.84-.17.66-.2,1.22.39,1.91l.33-.3,1.02-.16c-.39-1.02.03-2.04.41-2.19l.37-.1c.75-.36,1.23,1.28,1.39,1.73.08.21.16.43.25.64.34.79.76,1.5,1.15,1.66,0,0,.19-.32.69-.1.49.22.2,1.23-.1,1.65-.3.42-.06,1.07-.06,1.07l.36,1.18s2.16,1.21,2.14,1.25c0,0,.56-1.11-.92-2.17Z"/>
                <path class="cls-27" d="M83.25,27.83c.15,0,.27.19.27.42,0,.23-.13.42-.28.41-.15,0-.27-.19-.27-.42,0-.23.13-.42.28-.41ZM80.39,28.08c0,.22.12.4.26.4.14,0,.25-.18.25-.41,0-.22-.12-.4-.26-.4-.14,0-.25.18-.25.41ZM76.43,85.26c.8-.32,1.83-1.55,2.08-1.85v-1.2s0-.07,0-.1c-.15-.13-.29-.28-.41-.44-.1-.13-.12-.4-.33-7.34-.08-2.58-.16-5.26-.24-7.34,0-.01,0-.02,0-.03-1.29-.64-2.11-2.01-2.16-2.1-.03-.05-.04-.1-.03-.16,0-.05.49-4.66.49-6.94,0-.61-.15-1.67-.33-2.89-.29-1.98-.65-4.45-.55-6.38.18-3.71,1.68-6.62,2.68-8.55.14-.26.27-.51.38-.75,0,0,0,0,0-.02.25-1.72.6-3.9.78-4.49.05-.15.09-.28.13-.4.18-.59.27-.86.53-1.17.3-.34.98-1.04,1.68-1.17-.22-.16-.45-.38-.71-.67-.42-.48-.65-1.79-.69-2.57,0-.1-.02-.22-.03-.35-.03-.27-.06-.61-.06-1-.03-.01-.07-.03-.09-.06-.57-.57-.49-1.24-.36-1.88.09-.44,1.01-1.88,1.42-2.03.04-.01.08-.02.11-.01-.03-.09,0-.19.06-.26,1.38-1.36,3.22-1.4,4.14-.66.11.09.13.25.04.36-.09.11-.25.13-.36.04-.74-.6-2.28-.53-3.45.62-.05.05-.11.07-.18.07,0,0-.01,0-.02,0,.04.13-.02.27-.15.31-.22.12-1.03,1.3-1.1,1.66-.1.48-.13.83.01,1.12.03-.05.08-.09.14-.11-.09-.8.31-1.7.68-2.14.09-.11.25-.12.36-.03.11.09.12.25.03.36-.3.36-.78,1.37-.48,2.07,0,.01,0,.03,0,.04.05-.02.1-.03.15-.03h0c.09,0,.23.03.36.18.07.07.06.19-.02.25-.03.03-.08.04-.12.04-.05,0-.1-.02-.13-.06-.02-.03-.06-.06-.09-.06h0s-.06.02-.09.05c-.07.07-.18.08-.25.01-.03-.02-.04-.05-.05-.08,0,0,0,0,0,0-.01,0-.02,0-.03,0-.01.46.03.86.06,1.16.02.15.03.28.03.38.03.8.27,1.93.56,2.26.66.75,1.22.98,1.45.99.23.02,1.93-.3,2.27-1.23.03-.07.08-.12.15-.15-.01-.11.04-.22.15-.26.28-.12.47-.37.55-.71.1-.43-.01-.72-.17-.8-.09-.05-.18-.03-.26.05,0,0,0,0-.01,0-.02.02-.04.03-.06.04,0,0-.02,0-.03.01-.02,0-.05.01-.07.02,0,0-.01,0-.02,0,0,0,0,0,0,0-.01,0-.03,0-.04,0-.02,0-.03,0-.05,0,0,0,0,0,0,0-.68-.27-1.26-1.65-1.55-2.45-.3-.83-.67-1.42-.98-1.54-.08-.03-.14-.03-.22,0-.1.05-.21.02-.28-.04-.31.28-.39,1.03-.17,1.81.04.14-.04.28-.18.32-.02,0-.05,0-.07,0-.11,0-.22-.07-.25-.19-.31-1.12-.12-2.1.48-2.46.11-.07.25-.04.33.06.18-.07.37-.07.56.01.61.25,1.05,1.26,1.26,1.84.37,1.02.81,1.82,1.14,2.08.22-.13.48-.15.71-.02.21.11.41.36.46.73.67-.74.29-1.24-.34-2.09-.39-.53-.84-1.13-1.09-1.92-.04-.14.03-.28.17-.32.14-.04.28.03.32.17.22.7.64,1.27,1.01,1.76.63.85,1.22,1.65.37,2.66.45-.16.94-.39,1.05-1.45.1-.96.08-1.82-.06-2.55-.15-.79-.89-1.99-1.87-2.17-.14-.03-.23-.16-.21-.3.03-.14.16-.23.3-.21,1.14.21,2.08,1.5,2.28,2.57.15.78.17,1.69.07,2.7-.12,1.15-.64,1.56-1.12,1.77.11.02.22.04.34.08.43.14,1.43.51,1.36,1.1-.02.14-.11.24-.22.32.06.03.12.06.18.09.23.12.46.23.5.45.08.37-.37.66-.83.93l-.06.03c.04.2.05.44.03.73,0,.06-.03.11-.06.15.34.28.63.61.86.97.32.52.41,1.02.52,1.59.06.35.14.74.27,1.2l1.87,7.23c.79,2.58-1.66,4.17-3.14,4.86,2.38,15.78,2.26,16,2.18,16.14-.52.89-1.7,1.59-3.01,2.09.06.79.14,1.73.24,2.82.23,2.68.13,9.94-.12,12.47,0,.05-.03.1-.06.14-.12.14-.25.27-.38.37,0,.02.01.04.01.07,0,.27-.04,1.08,0,1.27.16.95.3,1.85.25,2.76,0,.07-.04.14-.09.18-.07.06-.19.11-.47.24-.51.22-1.45.64-1.76,1.06-.68.93-1.36,1-2.33,1.01h0c-.65,0-2.27-.38-2.35-.97-.09-.73.79-1.2,1.5-1.57.27-.14.52-.28.63-.38.72-.65,1.59-1.92,1.8-2.22,0-.18,0-.67-.02-1.37,0-.02,0-.04.01-.06-.2-.15-.39-.33-.54-.54-.1-.13-.13-.4-.35-7.35-.08-2.47-.16-5.02-.25-7.05-.27,0-.5-.03-.68-.07-.14-.03-.36-.12-.65-.24.03.33.05.66.08,1.02.23,2.69.1,9.94-.16,12.47,0,.05-.03.1-.06.14-.15.18-.32.33-.5.46,0,0,0,0,0,.01v.35c-.03.75-.05,1.28-.05,1.46,0,.44.06.85.11,1.24.07.48.14.99.1,1.54,0,.12-.09.21-.21.23l-.17.03c-2.24.44-2.91.65-3.08.75-.54.33-.96.46-1.4.46-.38,0-.76-.1-1.23-.27-.63-.22-1.54-.76-1.47-1.32.07-.58,2.21-1.45,2.46-1.55ZM82.26,32.44s-.03,0-.04,0c-.04,0-.11-.01-.21-.04l.08.49c.02.14-.07.27-.21.3-.01,0-.03,0-.04,0-.12,0-.23-.09-.25-.21l-.09-.54s-.02,0-.03,0c-.04,0-.09,0-.14,0,.02.64.25,1.07.67,1.27.8.38,2.26-.03,3.57-.98-.16-.07-.33-.14-.5-.22.01.1-.04.21-.14.26-.04.02-.07.03-.11.03-.1,0-.19-.05-.23-.15-.11-.23-.15-.6-.18-.97-.73.57-1.81.76-2.13.76ZM87.6,33.26c.02-.9-.32-1.1-.78-1.38-.42-.25-.93-.56-1.19-1.4-.13.59,0,1.51.37,1.87,0,0,0,.01.01.02.53.25,1.04.53,1.59.89ZM85.03,30.77s0,.08-.01.11c-.04.1-.09.19-.14.28,0,.09.01.18.02.27.01.15.02.32.04.48,0,0,0,0,.01,0,.1.04.19.08.29.12-.14-.42-.19-.89-.16-1.29-.02,0-.03.02-.05.02,0,0,0,0,0,0ZM86.98,30.27c-.28-.09-.56-.11-.91-.11,0,0,0,0,0,0,0,.03.01.06.02.1.2.71.58.94.99,1.18,0,0,.01,0,.02,0,0,0,0-.01.02-.02.12-.09.19-.15.27-.22.08-.07.15-.14.28-.24.03-.03.09-.06.15-.09.04-.02.11-.06.15-.09-.1-.13-.51-.37-.99-.52ZM88.42,31.85c-.05-.03-.13-.07-.19-.1-.13-.06-.28-.14-.41-.24-.03.03-.06.05-.09.08-.06.05-.11.1-.19.16.14.12.27.26.37.45.3-.18.44-.29.51-.35ZM82.27,87.97c-.5.27-1.25.67-1.23,1.03.15.19,1.18.54,1.84.54h0c.93,0,1.39-.08,1.92-.8.39-.53,1.38-.97,1.97-1.23.09-.04.19-.09.26-.12.01-.33-.01-.66-.04-1-.11.09-.24.17-.38.25-.31.18-.7.4-1.16.89-.07.08-.14.17-.21.26-.17.23-.36.47-.64.5-.02,0-.03,0-.05,0-.15,0-.3-.07-.45-.2-.27-.25-.64-.54-1.12-.56-.16.14-.42.28-.71.43ZM84.07,75.57c.11,3.27.22,6.65.28,7.11.36.47.91.77,1.47.79.36,0,.9-.09,1.39-.63.23-2.55.33-9.74.11-12.3-.09-1.03-.17-1.93-.23-2.69-1.15.38-2.35.61-3.28.67.08,2.04.17,4.58.25,7.05ZM82.76,67.96c1.3.32,6.21-.71,7.38-2.6,0-.34-.23-2.65-2.19-15.71-.32.13-.53.2-.54.2-.03,0-.05.01-.08.01-.08,0-.16-.04-.21-.11-.05-.08-.06-.18-.02-.26-1,.46-1.89.55-2.12.57-.45.21-1.7.8-1.95.84-.31.06-.71.09-1.12.09-1.07,0-2.28-.19-2.61-.53-.12-.12-.13-.24-.12-.32,0-.08.03-.16.08-.23-.11-.05-.2-.11-.26-.18-.08-.09-.11-.2-.09-.31,0-.07.03-.16.13-.25.01-.01.03-.02.04-.03-.06-.04-.12-.08-.15-.12-.07-.09-.11-.2-.09-.3,0-.22.18-.35.38-.42-.03-.06-.05-.12-.04-.2.06-.51,1.27-.64,1.99-.67.38-.02,1.3-.14,1.62-.24.01,0,.02,0,.03,0-.01-.13-.26-.46-.39-.62-.25-.32-.44-.58-.4-.82.01-.1.07-.19.14-.23.45-.38,1.22.03,1.75.56.17.17.68.76.96,1.21.2-.06.64-.23,1.4-.56-.06-.05-.1-.13-.09-.21,0-.1.07-.18.16-.22.33-.14.68-.33,1.01-.53l-.18-1.17s0-.04,0-.05c0-.01.08-1.46.18-2.84,0-.01,0-.02,0-.03l-.97-3.15c-.04-.14.03-.28.17-.32.14-.04.28.03.32.17l2.07,6.74c.03.1,0,.22-.09.28-.04.03-.98.72-1.9,1.18.55.42.88.9.98,1.45.08.43.01.82-.09,1.12,1.25-.53,3.96-1.98,3.22-4.42l-1.87-7.23c-.14-.48-.22-.88-.29-1.24-.1-.54-.18-.97-.45-1.41-.26-.42-.61-.78-1.04-1.07-.47-.31-.9-.56-1.33-.78-.96.76-2.28,1.39-3.38,1.39-.34,0-.65-.06-.93-.19-.4-.19-.87-.63-.95-1.57-.35.2-.71.53-.99.85-.19.22-.26.43-.43.98-.04.12-.08.25-.13.41-.04.13-.1.37-.16.71.04-.07.08-.15.12-.21.25-.44.39-.71.48-1.1.03-.14.17-.22.31-.2.14.03.23.17.2.31-.1.46-.27.77-.53,1.24-.05.09-.11.2-.17.31-.33.61-.5.92-.44,1.64.05.61-.38,1.45-.99,2.63-1.03,2-2.45,4.74-2.62,8.34-.09,1.88.26,4.32.55,6.28.18,1.25.34,2.32.34,2.97,0,2.13-.42,6.25-.49,6.9.26.4,1.66,2.42,3.43,2.04.3-.06.97.2,2.32.79.48.21.97.42,1.15.46ZM87.44,48.11c-.08-.38-.31-.73-.68-1.05-2.08.94-2.13.83-2.25.6-.19-.39-.76-1.04-.95-1.23-.36-.36-.77-.57-.98-.55.06.11.18.26.27.38.29.39.57.75.47,1.09-.03.11-.12.25-.36.33-.39.13-1.37.25-1.75.27-.63.03-1.13.12-1.38.21.07.03.17.07.31.1.08,0,.59,0,1.01,0,.96,0,1.08,0,1.14.01.14.03.23.17.2.3-.03.12-.12.2-.24.2-.02,0-.04,0-.05,0-.08,0-.64,0-1.05,0-1,0-1.06,0-1.12-.01-.08-.02-.16-.05-.24-.07-.02.01-.04.02-.07.03-.14.02-.24.04-.3.06.4.17,1.76.33,3.07.28.13,0,.26.1.26.24,0,.14-.1.26-.24.26,0,0-.17,0-.42,0-.52,0-1.42-.02-2.14-.14-.01,0-.02,0-.03,0-.11-.01-.28.03-.4.07.43.17,1.76.32,3.05.27h0c.14,0,.25.11.25.24,0,.14-.1.26-.24.26,0,0-.17,0-.42,0-.52,0-1.43-.02-2.16-.14-.03,0-.06,0-.09,0-.08,0-.15.01-.19.04.39.22,2.12.46,3.21.25.14-.03,1.06-.45,1.87-.83.03-.01.06-.02.1-.02.01,0,1.26-.07,2.5-.79,0,0,0,0,.01,0,.04-.2.07-.42.02-.66ZM87.78,43.03c-.05.77-.09,1.38-.09,1.52l.14.93c.25-.16.45-.3.58-.39l-.63-2.05ZM81.56,69.28c-.04-.46-.07-.88-.11-1.29-.01,0-.03-.01-.04-.02-.66-.28-1.75-.76-2-.76,0,0,0,0-.01,0-.48.1-.93.07-1.34-.06.08,2.05.16,4.64.23,7.15.1,3.27.2,6.64.26,7.1.36.48.91.77,1.47.79.37.01.9-.08,1.39-.62.24-2.55.36-9.74.15-12.3ZM80.08,82.72s-.06,0-.09,0c-.34-.01-.68-.11-.99-.27v1.05c.01.06,0,.11-.04.16-.04.06-.88,1.12-1.75,1.74.05.03.1.06.15.1.12.1.21.26.3.42.07.12.19.33.25.36.19.06.67-.1,1.09-.25.19-.07.39-.14.58-.19.11-.03.24-.06.36-.09.33-.08.67-.16.89-.34.02-.02.04-.03.07-.04-.06-.39-.11-.79-.11-1.24,0-.18.02-.71.04-1.47v-.07c-.24.09-.49.13-.75.13ZM75.61,87.64c.91.32,1.38.35,2.19-.15.31-.19,1.3-.44,3.22-.81,0-.26-.02-.51-.04-.76-.28.16-.61.25-.91.32-.12.03-.23.06-.34.09-.19.06-.37.12-.56.19-.44.15-.83.29-1.15.29-.1,0-.19-.01-.27-.04-.24-.08-.39-.34-.54-.6-.06-.11-.14-.25-.19-.29-.09-.07-.16-.07-.38-.04-.09.01-.2.03-.32.03,0,0,0,0,0,0-.01,0-.02,0-.04,0-.77.34-1.65.81-1.8,1.01.04.15.47.52,1.13.75ZM81.06,29.89s.08.05.12.05c.05,0,.1-.02.13-.06.07-.07.06-.19-.01-.25-.11-.1-.12-.14-.12-.14,0,0,.02-.02.03-.05.04-.06.1-.15.13-.29.02-.1-.04-.19-.14-.21-.1-.02-.19.04-.21.14-.01.06-.04.11-.07.16-.13.2-.15.37.14.64ZM82.44,30.27c.06,0,.11.04.14.09.03.05.03.11,0,.17-.13.26-.32.57-.61.59,0,0-.02,0-.03,0-.3,0-.55-.32-.78-.67-.04-.06-.04-.13,0-.19.03-.06.1-.09.17-.09l1.1.09ZM81.95,30.76h0s.08-.02.18-.16l-.43-.04c.14.16.21.19.25.19Z"/>
              </g>
              <g>
                <path class="cls-5" d="M125.2,19.98c-.26-.54-1.09-3.11-1.4-3.81-.25-.56-.44-1.19-.59-1.81-.07-.28-.12-.56-.17-.84-.16-.97-.29-1.95-.44-2.92-.12-.79-.3-1.68-.23-2.47l-1.25.16-2.75,5.16-.42,2.26,4.6,4.54.28,1.84c.49.59,1.1.23,1.5-.38.03-.23-.31-.79-.38-1,0-.02.08-.16.08-.16.46.29,1.01-.15,1.16-.56Z"/>
                <path class="cls-27" d="M127.7,37.75s-2.37-8.2-2.66-8.79l-1.53-8.22c-.14-1-.59-1.75-1.08-2.54-.29-.46-.67-.85-1.12-1.15-.91-.62-1.9-1.08-2.9-1.48l-.1-.9c.09-.11.16-.24.21-.37h0s.32-.2.32-.2c.34-.15.61-.52.71-.96.24-.98-.35-1.21-.74-.79-.39-.16-.72-1.04-1.06-1.83-.09-.21-.14-.91-.22-1.12-.16-.45-.38-1.78-1.14-1.42l-.51.04-.25-.05c-.21-.43-1.46.89-1.45,1.82l-.2.52c-.07.88-.11,1.58-.1,1.95.03.78.19,1.65.49,2.09.44.64.79,1.03,1.1,1.18l-.2.18c-.72-.16-1.6.77-1.88,1.09-.28.32-.33.6-.61,1.48-.28.89-1.9,4.69-1.9,4.69-1.31,3.29-3.53,5.94-1.95,7.13.49.37,1.1.22,1.69-.1.13.19.31.29.63.2.56-.16,1.42-1.08,1.22-1.31-.06-.11-.28-.05-.48.05.33-.33.52-.58.45-.5l-.16-.07c.02-.07.02-.14-.03-.18-.09-.07-.23-.06-.38,0l-.17-.08c.26-.25.51-.52.45-.73-.06-.18-.26-.17-.49-.07l1.39-3.12,7.86-1.83,1.63,6.95,2.96,9.59c-.46.53-.58.45-.85,1.25-.09.25-.6,1.55-.46,1.71.48.58,1.13-1.23,1.48-1.34.17-.05-.23,2.64-.23,2.64l.59,1.94c.54-1.18,1.23-2.13,1.7-3.35.47-1.21,0-2.69,0-3.98Z"/>
                <path class="cls-5" d="M124.94,41.57c-.14.26-.49.6-.71.37-.27-.32.05-1.08.32-1.77-.52-1.85-1-3.49-1.37-4.77-.42-1.45-.71-2.46-.79-2.84-.08-.39-1.63-6.01-1.63-6.01,0,0,.31-1.58.56-2.72-.08-.61-.21-1.22-.36-1.83-.63-.68-1.56-1.64-2.1-1.96-1.4-.84-2.51-.25-3.33-.05-.81.2-1.45-1.21-2.27-1.2-.08.14-.15.3-.23.5-.26.69-.56.99-.47,1.79.1.83.32,1.81.32,2.37l.14,1.3.1.96s.13,1.43-.49,3.79c-.04.17-.09.34-.13.52-2.14,8.28-4.97,24.25-3.55,34.89-.16,2.24-.23,3.82-.16,3.92.16.23,2.02,3.87,4.34,3.75.94-.05,3.74.83,4.24.89,7.29.89,8.66-2.47,9.99-3.61-.24-.66.07-.33.07-.33.49-1.68,1.43-1.13,2.17-1.68,1.24-4.05-2.1-17.19-4.64-26.27Z"/>
                <path class="cls-7" d="M121.7,11.64c.12-.79.27-1.59.21-2.36-.07-.93-.66-2.54-1.79-2.6l-.75-.37c-.73-.7-2.37-.89-3.81.22l-.31.29c-.28.07-.98,1.09-1.3,1.38.24-.21-1.31.46-.12,3.06l.36-1.59.34-.76c.5-.68,1.36-1.22,1.48-.89l.37-.05c.79-.27,1.07,1.41,1.18,1.88.05.22.11.45.18.67.25.82.58,1.58.95,1.78,0,0,.23-.3.69-.02.46.28.05,1.25-.29,1.63-.34.38-.64.51-.64.51l.9-.26c1.31-.84,1.92-1.51,2.35-2.52Z"/>
                <path class="cls-5" d="M118.48,5.62l-.07-.26c-.03-.37-.47-.19-.72-.13-.03.2.04.4.07.59-.68-.19-.32.7.27.7.19,0,.21-.15.44-.1.16.04.18.47.54.23.32-.21.02-.38.1-.61.08-.26.24-.2.36-.45.4-.84-1.05-.82-.99.03Z"/>
                <path class="cls-5" d="M120.82,6.1c-.25-.14-.12-.16-.32-.34-.36-.35-1.03-.4-.91.31,0,0,0,0,.01,0v.05s-.01-.03-.01-.05c-.3.07-.65-.12-.63.39.02.34.37.57.67.56.1.72.64.53.92.25.18-.18.1-.19.33-.31.26-.13.47.06.5-.38.03-.51-.33-.34-.57-.47Z"/>
                <path class="cls-5" d="M116.97,5.49l-.04-.05c.08-.31-.03-.53-.4-.5-.66.05-.39.42-.38.7-.18-.01-.68-.1-.61.13.08.27.7.4.9.42-.11.61.79.5.77-.11.33.07.79-.01.7-.47-.09-.42-.69-.46-.93-.11Z"/>
                <path class="cls-5" d="M122.14,7.04c-.29-.04-.13.08-.39.11-.16.02-.3-.2-.57-.11-.28.1-.37.39-.46.58l-.38.14c-.52.43.54.64.77.66,0,.21.24.43.47.35.28-.1.08-.34.2-.53.25-.37.49,0,.65-.47.1-.29.04-.69-.31-.74Z"/>
                <path class="cls-5" d="M109.22,22.09c-.2-1.35-.51-2.89-.16-4.58l-.07-.05c.46-1.8-1.16-2.58-.61-3.34-.7.99-.43,1.71-1.36,1.75-.47.02-1.65.79-1.18,1.71l.11.51c.02-.12.15.63.48.87.77,1.43,1.65,2.61,2.55,3.81l.25-.69Z"/>
                <path class="cls-5" d="M111.64,16.72c-.74.71-1.1,1.1-1.88.98-.39-.06-1.48.38-1.27,1.21h-.04c.19,1.37,1.2,3.8,1.96,5.36l.18-.61c.05-1.16.03-2.91.6-4.26l-.03-.03c.61-1.01-.1-2.13.47-2.66Z"/>
                <path class="cls-5" d="M110.6,27.19c.1-.13-1.27-5.31-1.31-5.47-.02-.12-.29-.44-.29-.44-.1-1.36-1.72-1.05-2.1-.7-.68.62-1.29.47-2.48.25.91.15.93,1.72,2.2,2.31l-.02.04c1.43.96,2.68,2.9,3.49,4.01h.52Z"/>
                <path class="cls-27" d="M117.29,11.31c.15.02.25.22.22.45-.03.23-.18.4-.33.38-.15-.02-.25-.22-.22-.45.03-.23.18-.4.33-.38ZM114.42,11.22c-.02.22.07.41.21.43.14.01.27-.15.3-.37.02-.22-.07-.41-.21-.43-.14-.02-.27.15-.29.37ZM115.89,17.91s.02,0,.03,0c.08,0,.16-.06.18-.15.02-.1-.05-.19-.14-.21-.35-.07-.53-.15-.61-.21-.08-.06-.19-.04-.25.04-.06.08-.04.19.04.25.17.12.42.21.76.28ZM116.58,17.99c.13,0,.26.01.39.01.39,0,.77-.03,1.07-.09.1-.02.16-.11.14-.21-.02-.1-.11-.16-.21-.14-.37.07-.9.1-1.37.07-.1,0-.18.07-.19.17,0,.1.07.18.17.19ZM115.13,13.11c.08-.06.08-.18.02-.25-.08-.1-.1-.14-.1-.14,0-.01.03-.03.04-.05.05-.06.12-.14.16-.27.03-.09-.02-.19-.12-.23-.09-.03-.2.02-.23.12-.02.06-.05.1-.09.15-.16.19-.2.35.06.66.04.04.09.06.14.06.04,0,.08-.01.12-.04ZM116.23,13.97c.09-.04.14-.14.1-.23-.04-.09-.14-.14-.23-.1-.33.13-.6.09-.8-.13-.07-.07-.18-.08-.25-.01-.07.07-.08.18-.01.25.19.21.44.32.72.32.15,0,.32-.03.48-.1ZM114.81,10.33s.07.04.09.07c.03.05.09.08.15.08.04,0,.07-.01.1-.03.08-.06.1-.17.05-.25-.11-.16-.24-.21-.34-.22-.13-.01-.26.03-.37.13-.07.07-.08.18-.02.25.07.07.18.08.25.02.03-.03.07-.04.09-.04ZM122.18,44.73c-.78-1.21-2.41-3.74-3.4-8.77-.36-1.86-1.04-5.88-.98-7.73,0-.14-.11-.26-.25-.26,0,0,0,0,0,0-.14,0-.25.11-.26.25-.06,1.9.62,5.96.99,7.84,1,5.13,2.67,7.71,3.47,8.95.13.2.23.36.3.49.05.08.13.13.22.13.04,0,.08-.01.12-.03.12-.07.17-.22.1-.35-.08-.14-.18-.31-.32-.52ZM129.82,67.92c-.02.05-.05.1-.09.13-.29.21-.59.28-.86.34-.52.12-.92.21-1.21,1.2-.02.05-.05.1-.09.13,0,0,0,0,0,0v.03c.05.1.02.21-.06.28-.21.18-.42.42-.66.7-1.07,1.21-2.76,3.13-7.24,3.13-.69,0-1.45-.05-2.28-.15-.18-.02-.57-.12-1.12-.27-.99-.26-2.49-.65-3.08-.62-1.04.06-2.66-.55-4.5-3.74-.03-.06-.06-.1-.07-.12-.11-.17-.04-1.8.11-4.08-1.28-9.67.9-23.31,2.77-31.65-.02-.6-.06-1.21-.14-1.82-.11,1.83-.64,3.8-1.58,5.79-.04.09-.14.15-.23.15-.04,0-.07,0-.11-.03-.13-.06-.18-.21-.12-.34,1.08-2.27,1.61-4.51,1.55-6.52-.1-.03-.19-.08-.27-.15-.38.18-.7.25-.97.25-.36,0-.63-.12-.82-.27-1.17-.88-.54-2.43.27-4.06.01-.03.03-.05.06-.07-.76-1.01-1.69-2.14-2.64-2.77-.03-.02-.06-.05-.08-.09-.64-.35-.97-.92-1.24-1.4-.26-.46-.44-.75-.73-.81h-.03c-.14-.03-.23-.16-.21-.3.02-.14.15-.23.29-.21.01,0,.03,0,.04,0l.16.03c1.04.19,1.52.28,2.07-.22.04-.04.09-.07.15-.11-.66-1.07-1.11-1.95-1.34-2.61-.01-.04-.01-.08,0-.12-.12-.34-.06-.64.03-.86.27-.62,1.03-1.04,1.43-1.06.41-.02.47-.17.64-.61.1-.27.23-.61.49-.99,0-.01.02-.03.03-.04.08-.11.24-.14.36-.06.11.08.14.24.06.36,0,0-.01.01-.02.02-.12.18-.03.38.22.83.31.56.73,1.32.45,2.41.22-.07.43-.1.58-.08.61.1.9-.19,1.54-.8l.1-.09s.02-.02.03-.03c.1-.1.26-.09.36.01.1.1.09.26,0,.36l-.02.02c-.16.17-.15.45-.13.89.03.47.06,1.04-.22,1.59,0,.04,0,.07-.02.11-.35.83-.47,1.81-.52,2.72.47-1.12,1.41-3.38,1.62-4.03.05-.15.09-.29.13-.41.18-.59.27-.86.53-1.16.27-.31,1.21-1.07,1.9-1.17-.28-.2-.63-.53-1.01-1.07-.36-.52-.44-1.86-.38-2.64,0-.07,0-.17.01-.26-.05-.03-.09-.07-.12-.12-.64-1.43-.63-2.35.04-3.07.09-.09.24-.29.4-.5.6-.79.91-1.16,1.17-1.22.04,0,.08,0,.11,0-.02-.09.01-.19.09-.25.06-.05.13-.09.2-.14-.15-.09-.27-.2-.31-.35-.04-.12-.01-.24.06-.33.11-.13.28-.16.49-.15-.02-.13-.02-.28.08-.42.14-.2.4-.24.58-.25.32-.02.48.09.57.2.03.04.07.1.09.17.12-.04.25-.05.38-.03.02-.01.04-.02.07-.03l.09-.03c.22-.06.52-.15.75,0,0,0,0,0,0,0,.07-.07.16-.13.26-.18.33-.15.7-.1.91.11.06.06.15.18.16.36.3-.06.65.09.88.3.11.1.15.18.18.25,0,0,.02.02.08.06.03.02.09.03.15.03.18.03.59.09.55.68,0,.1-.02.17-.04.24.03.01.05.02.07.03.02.01.06.03.07.03,0,0,.01,0,.01,0,.09-.1.21-.13.42-.1.2.03.36.13.46.3.13.21.15.51.05.78-.02.07-.05.12-.08.17.02.04.03.08.02.12-.06.65.06,1.37.17,2.07l.05.34c.06.4.12.79.18,1.19.08.58.17,1.15.26,1.73.16.98.42,1.87.74,2.59.16.36.45,1.17.72,1.96.27.78.55,1.58.68,1.84.03.06.03.13,0,.2-.13.34-.44.65-.77.77-.1.03-.2.05-.31.05-.01,0-.03,0-.04,0,0,0,0,0,0,0,.17.36.29.63.27.84,0,.04-.02.08-.04.11-.14.21-.29.39-.45.52,0,0-.02.01-.03.02l1.22,6.51c.35.81,2.42,7.97,2.66,8.8,0,.02.01.05.01.07,0,.41.05.83.1,1.28.1.94.21,1.91-.12,2.78-.28.72-.67,1.43-1.06,2.12-.22.39-.44.78-.63,1.17-.01.03-.03.05-.06.07,3.32,12.41,4.51,19.87,3.63,22.75ZM125.42,41.18s-.04.07-.06.1c-.06.09-.11.18-.17.26,0,0,.01.02.01.03.03.09.05.18.07.27.04-.19.09-.39.13-.58,0-.03.01-.05.02-.08ZM121.45,16.84c.49.33.9.75,1.19,1.23.19.3.38.62.56.97-.02-.08-.04-.16-.06-.23-.09-.31-.16-.57-.2-.72-.25-.82-.52-2-.73-2.94l-.14-.61c-.1-.42-.16-.85-.21-1.26-.04-.32-.09-.66-.15-.97,0-.03,0-.05,0-.08,0,.01-.01.03-.02.04,0,0,0,0,0,0-.01.05-.04.09-.07.13-.58.98-1.76,1.68-2.59,2.17-.14.08-.27.16-.39.23v.15c.02.15.03.32.05.48.02,0,.04.01.06.02.57.36,1,.54,1.42.72.06.03.12.05.19.08-.15-.71-.26-1.52-.29-2.1,0-.14.1-.26.24-.27.14,0,.26.1.27.24.03.65.18,1.65.37,2.4.17.09.34.18.52.31ZM122.1,8.31s-.06.02-.1.08c0,0,0,0,0,.01.04.14.08.28.1.42,0-.17-.01-.34,0-.51ZM124.07,21.62c-.03-.12-.15-.38-.21-.52-.02-.03-.03-.06-.04-.09l.14.75s.08-.09.12-.15ZM122.52,11.82c-.06-.39-.11-.79-.18-1.18l-.05-.34c-.04-.23-.07-.46-.11-.7.01.76-.12,1.39-.3,2.11-.03.13-.08.25-.13.37.04-.04.08-.07.14-.08.14-.03.27.06.3.2.07.33.11.68.16,1.01.05.4.11.82.2,1.22l.14.62c.22.94.48,2.11.72,2.91.05.15.12.42.21.73.14.48.31,1.11.47,1.62.03,0,.05.01.08.03.1.06.2.07.32.03.16-.06.33-.2.42-.37-.15-.35-.39-1.05-.65-1.78-.27-.78-.55-1.58-.7-1.92-.34-.75-.61-1.69-.78-2.71-.1-.58-.18-1.16-.27-1.74ZM121.44,7.32c-.1-.05-.13-.06-.18-.04-.12.04-.19.17-.27.35l-.04.09c-.06.13-.21.19-.34.13,0,0-.02,0-.03-.01-.01.04-.04.09-.08.12,0,0-.02.01-.02.02.12.08.44.17.65.19.13.01.23.12.23.25,0,.02.02.07.07.1.01,0,.03.02.05.02,0-.01,0-.03,0-.04,0-.1,0-.25.09-.39.18-.27.4-.3.52-.31.02,0,.05,0,.06,0,0,0,.02-.02.04-.1.04-.12.04-.26,0-.34-.02-.04-.05-.05-.09-.06-.01,0-.02,0-.03,0-.06.05-.14.1-.29.12-.14.02-.26-.04-.34-.08ZM119.84,5.96s.01.02.02.03c.01.04,0,.09,0,.13,0,.11-.08.22-.2.24-.06.01-.12,0-.17-.02-.02,0-.05,0-.07,0,.02.09.01.21-.05.32.08.06.18.1.26.1,0,0,0,0,0,0,.13,0,.24.09.25.22.03.18.08.26.12.28.07.02.23-.04.36-.17.05-.05.07-.08.09-.11.07-.1.13-.16.3-.25.13-.06.24-.08.32-.09,0,0,.02,0,.03,0,0-.02,0-.04,0-.08,0-.1,0-.13,0-.13,0,0-.07,0-.11-.01-.09-.01-.21-.03-.32-.09-.18-.1-.25-.18-.3-.29-.01-.03-.02-.05-.07-.09-.17-.16-.38-.2-.45-.17-.03.01-.04.08-.03.18ZM118.16,5.39s-.04,0-.06,0c.02.05.04.1.06.16.05.24,0,.45-.16.59-.03.03-.07.06-.11.08.04.02.09.03.14.03.01,0,.02,0,.06-.02.08-.05.21-.12.45-.07.15.04.24.16.29.24,0,.01.02.03.03.04,0,0,.02,0,.03-.02.01,0,.02-.02.03-.02,0-.01,0-.03-.01-.05-.03-.09-.08-.24-.02-.4.06-.21.18-.3.26-.36.05-.04.08-.06.11-.13.04-.08.06-.17.03-.21-.04-.04-.19-.07-.33,0-.1.04-.21.14-.2.34.01.14-.1.26-.24.27-.14.01-.26-.1-.27-.24,0-.04,0-.07,0-.1-.03-.04-.06-.08-.07-.14h0ZM116.41,5.63c0,.07-.03.14-.08.19-.03.03-.06.04-.1.06.03,0,.05,0,.08.02.05.01.1.02.15.03.07,0,.14.04.18.1.04.06.06.13.05.2-.01.07,0,.09,0,.1.01.01.07.02.14-.02.05-.03.13-.09.12-.22,0-.08.03-.15.09-.2.06-.05.14-.07.22-.05.17.04.33,0,.38-.04.02-.02.03-.06.01-.12,0-.05-.04-.08-.07-.1,0,0,0,0,0,0-.02-.01-.04-.03-.07-.03-.1-.02-.24,0-.32.12-.08.12-.24.14-.36.06-.03-.02-.05-.05-.07-.08-.06-.06-.09-.16-.07-.25.03-.11.01-.16,0-.16,0,0-.03-.02-.14-.01-.17.01-.22.05-.22.05,0,0,.02.09.04.14.02.07.04.16.04.24ZM113.78,10.39c.02-.18.05-.37.09-.57.01-.05.04-.1.08-.13,0-.01,0-.02,0-.04.1-.89,1.26-1.9,1.85-1.97.19-.02.32.05.4.15.03-.04.07-.07.12-.09.21-.07.41-.05.6.05.54.31.76,1.32.88,1.86l.03.15c.25,1.06.59,1.9.89,2.2.23-.11.49-.09.71.06.29.2.53.69.27,1.42-.01.04-.03.07-.05.11.38-.26.77-.55,1.08-.88.04-.1.06-.19.04-.23-.05-.1-.3-.17-.51-.23-.38-.1-.84-.24-.98-.68-.19-.62-.28-1.2-.37-1.82-.03-.17-.05-.35-.08-.52-.16-.96-.57-2.07-1.66-1.93-.14.02-.27-.08-.29-.22-.02-.14.08-.27.22-.29,1.15-.15,1.96.71,2.23,2.35.03.18.06.35.08.53.09.6.17,1.17.35,1.75.05.17.35.26.63.33.3.08.6.17.77.39,0-.02.02-.03.03-.05.13-.88-.51-2.05-1.22-2.83-.09-.11-.09-.27.02-.36.11-.1.27-.09.36.02.47.52.95,1.24,1.2,1.98.1-.51.16-1.02.11-1.61,0-.09-.02-.18-.04-.28-.04.01-.09.02-.13.02-.11,0-.23-.04-.33-.11-.11-.07-.19-.17-.24-.29-.29-.05-.84-.19-.95-.54-.02-.07-.03-.2.04-.34-.05,0-.11-.01-.16-.03-.15-.05-.33-.18-.43-.49-.17-.04-.33-.12-.45-.24-.01-.01-.02-.03-.03-.04-.04,0-.07.02-.11.02-.16,0-.31-.1-.44-.29,0,0-.01-.02-.02-.03,0,0-.02.01-.03.02-.06.03-.16.09-.31.09-.25,0-.49-.11-.67-.31-.07.12-.17.22-.3.29-.11.06-.22.08-.33.08-.13,0-.25-.04-.34-.11-.1-.07-.17-.18-.2-.31-.16.09-.32.19-.47.31-.05.04-.1.05-.16.05-.02,0-.04,0-.06-.01.03.13-.05.26-.18.3-.16.08-.63.7-.89,1.04-.17.23-.33.43-.43.54-.39.43-.47.96-.24,1.74ZM115.82,15.26c.21.04,1.96-.07,2.4-.95.03-.07.09-.11.16-.13,0-.11.07-.21.18-.24.29-.09.51-.31.63-.64.15-.42.07-.71-.08-.82-.08-.06-.18-.05-.26.02,0,0,0,0-.01,0-.02.02-.04.03-.07.04,0,0,0,0-.01,0-.02,0-.05.01-.07.01,0,0,0,0,0,0-.04,0-.08-.01-.11-.03,0,0,0,0,0,0-.64-.35-1.06-1.79-1.25-2.62l-.03-.16c-.08-.36-.29-1.33-.63-1.53-.06-.03-.11-.04-.18-.01-.09.03-.18,0-.25-.05-.03.04-.07.08-.13.1-.11.04-.22,0-.29-.08-.31.06-1.29.86-1.37,1.52,0,.06-.04.12-.08.16,0,.02,0,.03,0,.05-.12.6-.13,1.12-.14,1.5,0,.15,0,.28-.01.39-.06.8.04,1.95.29,2.31.57.83,1.1,1.12,1.32,1.16ZM111.12,23.07c-.08.2-.17.41-.27.63,0,.05-.03.09-.05.12,0,.01-.01.03-.02.04.07.04.12.11.13.19.06.6.24,1.48.43,2.35.09-.03.19-.06.28-.08.06-.01.11-.02.16-.02l.91-1.94s.02-.02.03-.04l-.09-.85c0-.35-.08-.84-.17-1.36-.05-.33-.11-.68-.15-1.01-.08-.66.09-1.03.29-1.45.06-.14.13-.29.2-.46.13-.33.26-.57.38-.78.13-.23.24-.42.29-.66.03-.14.17-.23.31-.2.14.03.23.17.2.31-.07.32-.2.55-.34.8,0,0,0,0,0,.01.45.09.77.34,1.06.57.27.22.53.43.9.49.22.03.57-.04.9-.12.35-.08.71-.16,1.01-.13,1.47.15,2.4,1,3.08,1.77-.05-.26-.07-.41-.08-.42-.03-.14.07-.27.21-.3.14-.02.27.07.3.21.01.07,1.29,7.15,2.13,9.86.09.29.32.99.61,1.86.63,1.91,1.53,4.66,1.88,5.9.09-.11.26-.12.36-.02.11.09.12.26.02.36-.13.15-.25.27-.38.39-.31.31-.58.57-.76,1.1-.01.04-.04.1-.07.19-.26.7-.4,1.15-.4,1.31,0,0,0,0,0,0,.11-.03.4-.48.54-.7.3-.48.56-.9.94-.81.07.02.14.07.17.14.07.15.03.35-.12,1.03-.13.55-.32,1.39-.25,1.72,0,.04,0,.07,0,.11.06.21.11.41.17.62.18-.72.32-1.36.51-2.3.03-.14.17-.23.3-.2.14.03.23.16.2.3-.19.91-.32,1.54-.49,2.22.03-.05.06-.1.08-.15.37-.67.76-1.36,1.03-2.05.29-.75.19-1.66.09-2.54-.05-.43-.1-.88-.1-1.31-.95-3.29-2.43-8.29-2.63-8.71-.01-.02-.02-.04-.02-.07l-1.53-8.22c-.14-.98-.6-1.73-1.05-2.45-.26-.42-.61-.78-1.04-1.07-.43-.29-.79-.45-1.21-.62-.33-.14-.71-.31-1.15-.56-.01.08-.06.16-.14.2-.04.02-.07.03-.11.03-.1,0-.19-.05-.23-.15-.11-.24-.16-.62-.19-1-.68.49-1.68.62-2.17.62-.1,0-.19,0-.24-.02l.11.65c.02.14-.07.27-.21.3-.01,0-.03,0-.04,0-.12,0-.23-.09-.25-.21l-.09-.53c-.43-.03-1.36.65-1.67,1-.19.22-.26.43-.43.98-.04.12-.08.26-.13.41-.28.89-1.84,4.56-1.91,4.71ZM121.08,23.98c-.13-.68-.25-1.29-.35-1.8-.04-.01-.09-.04-.12-.07l-.1-.12c-.69-.82-1.56-1.83-3.09-1.99-.22-.02-.54.05-.85.12-.38.09-.77.17-1.09.13-.5-.08-.85-.35-1.15-.6-.3-.25-.57-.47-.98-.48-.03.07-.06.14-.09.22-.07.19-.14.35-.21.5-.18.4-.3.66-.24,1.17.04.31.09.65.15.98.09.54.17,1.05.17,1.42l.22,2.12c.16.13.34.34.57.63.12.15.23.29.31.36,1.35,1.31,4.21.73,6.31-.19.07-.36.28-1.38.46-2.26.01-.05.04-.09.08-.13ZM114.14,27.45c0-.09.04-.17.11-.22-.13-.09-.26-.19-.38-.3-.1-.1-.22-.24-.35-.41-.04-.05-.09-.12-.14-.18-.02.65-.12,1.76-.51,3.23-.16.59-.32,1.24-.49,1.94.16.92.3,1.92.39,2.96.07-.21.14-.42.2-.61.87-2.61,1.25-4.7,1.17-6.41ZM111.17,29.95c.35-.1.82-.56.99-.83-.12.05-.26.13-.33.19-.1.08-.24.08-.34,0-.09-.09-.11-.23-.04-.33.04-.05.1-.12.18-.21.07-.08.23-.25.32-.38-.18.06-.47.23-.55.32-.09.11-.24.13-.35.05-.11-.08-.14-.23-.07-.34.08-.13.22-.26.39-.41.14-.13.43-.4.49-.54-.19.03-.61.3-.71.45-.08.11-.24.14-.35.07-.12-.08-.15-.23-.08-.35.07-.12.23-.28.41-.47.05-.05.12-.12.18-.19-.34.16-.69.42-.99.76-.09.11-.26.12-.36.02-.02-.01-.03-.03-.04-.05,0,0,0,0,0,0-.06.17.18.58.33.85.11.19.21.36.27.53.04.1.07.2.1.3.19.57.26.64.54.56ZM108.48,22.77s.08-.07.11-.1c-.11-.24-.4-.61-.6-.65,0,0-.02,0-.03,0,.04.12.15.39.51.75ZM108,18.43c-.11-.55-.27-.81-.36-.92,0,0-.01.02-.02.03-.08.2.09.69.24.9.01.02.02.03.02.05,0,0,.01,0,.02,0,.03-.01.06-.03.09-.04ZM109.64,19.96c.06-.32.05-.54.03-.65-.08.13-.12.44-.09.65.02,0,.04,0,.06,0ZM109.5,18.8s-.03,0-.04,0c-.05,0-.1,0-.14.03-.22.13-.34.31-.35.51,0,.11.03.22.1.32.02-.27.09-.57.28-.75.05-.05.1-.08.16-.1ZM109.07,20.31c.32,1,.8,2.17,1.28,3.22,0-.12,0-.24.01-.37.03-.84.07-1.92.31-2.92-.28.16-.58.25-.88.25-.25,0-.5-.06-.72-.19ZM110.85,26.63c-.19-.87-.33-1.54-.4-2.07-.04.08-.07.15-.11.23.05.24.09.48.13.72,0,0,0,0,0,.01.13.37.25.75.36,1.12,0,0,.01,0,.02-.01ZM108.07,21.34c-.16,0-.33.19-.38.25.12-.07.25-.09.39-.07.32.06.6.34.8.62.04-.19,0-.37-.1-.52-.14-.19-.39-.29-.71-.29ZM112.81,25.3l-.75,1.6s-.02.04-.04.06c.17.03.29.14.34.31.06.21-.01.42-.16.61.08.02.14.06.19.09.08.07.13.17.14.27,0,.11-.03.22-.09.33.05.01.09.03.12.06.38-1.8.29-2.89.29-2.9l-.05-.43ZM112.09,29.96c.02.1.04.21.06.32.04-.17.09-.34.13-.5-.06.06-.12.12-.19.18ZM121.03,26.55c.17.63,1.54,5.59,1.61,5.97.09.41.45,1.68.96,3.44.29,1.02.64,2.22,1.02,3.54.17-.28.36-.49.57-.7-.25-.99-1.27-4.09-1.95-6.17-.29-.87-.52-1.57-.61-1.87-.4-1.3-.9-3.58-1.32-5.62-.13.65-.25,1.23-.28,1.41ZM108.83,18.4s0,.01-.01.02c-.05.08-.08.15-.09.24.09-.1.19-.19.32-.26.34-.21.76-.06.81-.04.13.05.2.2.15.33-.02.04-.04.07-.08.1.04.02.08.04.11.07.05.06.24.35.14,1.05.21-.07.43-.21.62-.44.45-.51.41-1.08.37-1.63,0-.11-.01-.21-.02-.32-.42.34-.82.53-1.42.43-.16-.03-.66.12-.9.43ZM106.01,17.34c.08-.17.2-.33.36-.48.27-.25,1-.52,1.08-.56.03-.01.06-.02.09-.02.1,0,.2.06.24.17.05.13-.02.28-.15.33-.27.1-.76.31-.91.45-.23.22-.34.47-.31.7.03.21.17.39.39.5.17.08.36.12.55.13-.18-.33-.36-.86-.19-1.24.09-.21.27-.34.51-.37.05,0,.1,0,.15.03.08.04.42.25.63,1.07.01-.02.03-.03.04-.05.05-.08.1-.17.14-.27.42-1.08.04-1.77-.29-2.37-.06-.1-.11-.2-.16-.31-.02.04-.03.08-.05.13-.18.47-.35.91-1.1.94-.23,0-.8.33-.98.75-.07.15-.08.3-.03.45ZM107.37,20.09c.35-.08.75-.1,1.1.04-.13-.43-.22-.83-.27-1.17,0-.02,0-.05,0-.07-.04.02-.07.04-.11.06-.22.09-.46.13-.7.13-.24,0-.47-.05-.69-.13.19.35.41.73.66,1.14ZM107.03,23.02c.37.1.7.09.98,0-.59-.64-.58-1.06-.57-1.14,0-.05.03-.1.06-.14.02-.03.05-.05.08-.07-.08.03-.16.02-.23-.03-.11-.08-.14-.24-.06-.36.03-.05.33-.45.78-.47.22,0,.41.02.59.09-.07-.14-.19-.24-.34-.3-.43-.17-1.05,0-1.23.16-.55.5-1.06.56-1.73.48.08.13.16.26.24.4.32.57.66,1.16,1.45,1.38ZM110.16,26.74c-.2-1.34-.51-2.92-.87-4.19-.3.66-.96,1.06-1.73,1.06,0,0,0,0,0,0,1.01.93,1.94,2.2,2.61,3.13ZM110.27,29.88c-.05-.11-.09-.23-.12-.34-.03-.09-.06-.19-.1-.28-.05-.13-.14-.29-.24-.46-.25-.44-.51-.89-.37-1.28.04-.12.15-.27.38-.38l-.04-.05c-.11-.15-.23-.32-.36-.49-.82,1.68-1.11,2.71-.35,3.28.29.22.69.21,1.19-.01ZM111.84,31.54s0-.03.01-.05c-.01-.09-.03-.17-.04-.25.01.1.02.2.03.3ZM124.8,42.03c-.12.11-.25.18-.39.18-.08,0-.2-.01-.31-.09.17.56.34,1.11.53,1.66,2.61,7.8,3.86,14.75,3.93,21.9,0,.14-.11.26-.25.26h0c-.14,0-.26-.11-.26-.25-.07-7.09-1.31-13.99-3.91-21.74-.69-2.07-1.27-4.23-1.83-6.32-.8-3.01-1.63-6.11-2.83-9.01-.05-.13,0-.28.14-.34.13-.05.28,0,.34.14,1.21,2.93,2.04,6.05,2.85,9.07.35,1.31.71,2.65,1.1,3.98.05-.26.17-.64.4-1.25,0-.01-.02-.03-.02-.04-.44-1.54-.84-2.92-1.17-4.08-.53-1.84-.88-3.05-.97-3.48-.06-.29-1-3.71-1.54-5.71-1.28.54-2.73.94-4.03.94-.7,0-1.35-.12-1.91-.38.08,1.77-.31,3.91-1.2,6.56-.17.52-.38,1.17-.6,1.9.04,1.09,0,2.19-.15,3.25-.02.13-.13.22-.25.22-.01,0-.02,0-.04,0-.14-.02-.24-.15-.22-.29.06-.41.1-.83.12-1.26-.45,1.72-.86,3.67-1.03,5.49-.01.13-.12.23-.26.23,0,0-.02,0-.02,0-.14-.01-.24-.14-.23-.28.23-2.51.89-5.2,1.55-7.43-.04-1.03-.14-2.05-.28-3.01-.03.15-.07.3-.1.45.04,1.43-.06,2.81-.31,4.11-.02.12-.13.21-.25.21-.02,0-.03,0-.05,0-.14-.03-.23-.16-.2-.3.05-.28.1-.57.14-.86-1.48,7.38-2.88,17.34-2.39,25.42.44-5.39,1.11-12.06,1.29-13.18.02-.14.15-.23.3-.21.14.02.23.16.21.3-.35,2.08-1.14,10.93-1.51,16.14,0,.01,0,.02,0,.04,0,.04,0,.08-.02.12-.14,1.96-.21,3.38-.17,3.67.02.03.04.06.06.11,1.33,2.31,2.76,3.55,4.02,3.49.67-.04,2.15.35,3.24.64.48.13.9.24,1.05.25,5.95.72,7.83-1.4,9.08-2.81.22-.25.42-.48.62-.66.01-.05.05-.09.09-.12-.01-.03-.02-.06-.02-.09-.06-.05-.11-.12-.1-.21.15-4.12-.87-8.14-3.3-13.06l-.4-.82c-2.03-4.1-4.14-8.33-4.77-12.89-.02-.14.08-.27.22-.29.14-.02.27.08.29.22.62,4.47,2.7,8.67,4.72,12.73l.41.82c.79,1.6,1.43,3.1,1.94,4.55-.02-.32-.05-.62-.07-.88-.16-1.56-1-8.34-1.57-10.3-.04-.14.04-.28.17-.32.14-.04.28.04.32.17.58,1.99,1.43,8.82,1.59,10.39.08.77.13,1.72.19,2.98.55,2.04.81,3.99.81,5.94.35-.47.78-.57,1.17-.66.22-.05.42-.1.61-.21.86-3.06-.67-11.69-4.56-25.66ZM115.83,29.22c0-.14-.11-.26-.25-.26-.14,0-.26.11-.26.25-.22,9.53,1.48,25.82,2.76,34.35.02.13.13.22.25.22.01,0,.03,0,.04,0,.14-.02.24-.15.22-.29-1.28-8.5-2.98-24.75-2.76-34.26Z"/>
              </g>
            </g>
          </g>
          <rect class="cls-10" width="165" height="128"/>
        </g>
      </g>
    </g>
  </g>
</svg>