<?xml version="1.0" encoding="UTF-8"?>
<svg id="_レイヤー_2" data-name="レイヤー 2" xmlns="http://www.w3.org/2000/svg" viewBox="0 0 22.77 15.41">
  <defs>
    <style>
      .cls-1 {
        fill: #040000;
        stroke-width: 0px;
      }
    </style>
  </defs>
  <g id="_レイヤー_1-2" data-name="レイヤー 1">
    <g>
      <path class="cls-1" d="m0,1.2h1.32v14.2H0V1.2Z"/>
      <path class="cls-1" d="m7.56,7.22h-1.93v-1.08h1.93v-3.03c0-.6.09-1.1.27-1.5.18-.39.41-.71.67-.95.27-.24.56-.41.89-.51.33-.1.64-.15.93-.15.56,0,1.02.08,1.38.24l-.24,1.04c-.27-.13-.63-.2-1.08-.2-1.08,0-1.62.82-1.62,2.47v2.59h2.17v1.08h-2.17v8.19h-1.2V7.22Z"/>
      <path class="cls-1" d="m14.83.24h1.2v7.52h.04c.24-.51.64-.95,1.2-1.31.56-.37,1.22-.55,1.97-.55s1.31.11,1.77.34c.46.23.81.53,1.07.89s.44.79.54,1.27.15.98.15,1.49v5.52h-1.2v-5.46c0-.37-.03-.74-.1-1.09-.07-.35-.18-.67-.35-.95-.17-.28-.4-.5-.7-.67-.3-.17-.69-.25-1.17-.25-.44,0-.86.08-1.25.23s-.74.39-1.02.7c-.29.31-.52.71-.68,1.18s-.25,1.03-.25,1.67v4.63h-1.2V.24Z"/>
    </g>
  </g>
</svg>