<?xml version="1.0" encoding="UTF-8"?><svg id="_レイヤー_2" xmlns="http://www.w3.org/2000/svg" viewBox="0 0 46.84 40"><defs><style>.cls-1{fill:#6ec8e2;}</style></defs><g id="_レイヤー_1-2"><g><path class="cls-1" d="M45.8,9.74C44.62,2.48,38.53,.49,36.63,.15c-2.52-.45-6.59,0-9.82,2.49-2.51,1.93-3.8,3.58-3.8,3.58,0,0-1.3-1.65-3.8-3.58C15.98,.15,11.91-.29,9.39,.15,7.48,.49,1.39,2.48,.22,9.74c-1.35,8.34,3.73,14.07,12.12,21.43,4.6,4.03,10.67,8.83,10.67,8.83,0,0,6.08-4.8,10.67-8.83,8.38-7.36,13.47-13.09,12.12-21.43Z"/><path class="cls-1" d="M46.1,39.99H28.02c-.05,.06,5.93-4.82,10.06-8.35,5.99-5.13,8.76-8.7,8.76-8.7v16.34c0,.73-.74,.72-.74,.72Z"/></g></g></svg>