<?xml version="1.0" encoding="UTF-8"?>
<svg id="_レイヤー_2" data-name="レイヤー 2" xmlns="http://www.w3.org/2000/svg" viewBox="0 0 80 97.86">
  <defs>
    <style>
      .cls-1 {
        fill: #6fc7e2;
        stroke-width: 0px;
      }
    </style>
  </defs>
  <g id="_レイヤー_1-2" data-name="レイヤー 1">
    <g>
      <g>
        <g>
          <path class="cls-1" d="m9.23,84.6h.95v10.19h-.95v-10.19Z"/>
          <path class="cls-1" d="m14.66,88.92h-1.38v-.78h1.38v-2.17c0-.43.06-.79.19-1.07.13-.28.29-.51.48-.68.19-.17.41-.29.64-.37.23-.07.46-.11.67-.11.4,0,.73.06.99.17l-.17.75c-.19-.1-.45-.14-.78-.14-.78,0-1.17.59-1.17,1.77v1.86h1.55v.78h-1.55v5.87h-.86v-5.87Z"/>
          <path class="cls-1" d="m19.86,83.91h.86v5.4h.03c.17-.36.46-.68.86-.94.4-.26.87-.4,1.41-.4s.94.08,1.27.24c.33.16.58.38.77.64.19.26.32.57.39.91.07.35.11.7.11,1.06v3.96h-.86v-3.91c0-.27-.02-.53-.07-.78s-.13-.48-.25-.68-.29-.36-.5-.48-.5-.18-.84-.18c-.32,0-.62.06-.9.17-.28.11-.53.28-.73.5-.21.23-.37.51-.49.85-.12.34-.18.74-.18,1.2v3.32h-.86v-10.88Z"/>
        </g>
        <g>
          <path class="cls-1" d="m39.79,94.4c0,.73-.11,1.33-.32,1.78-.21.45-.48.8-.8,1.05-.32.25-.66.41-1.03.5s-.7.13-1,.13-.59-.03-.88-.08c-.29-.06-.56-.14-.81-.24-.26-.11-.49-.24-.7-.39-.21-.15-.39-.33-.54-.52l.6-.56c.27.38.61.67,1.02.84.41.18.84.27,1.3.27.39,0,.72-.05.99-.15s.49-.24.67-.4.31-.35.41-.55c.1-.2.17-.4.22-.6.05-.2.07-.39.08-.57s.01-.32.01-.43v-.82h-.03c-.22.36-.52.64-.9.84-.38.2-.83.31-1.34.31-.43,0-.84-.08-1.23-.24-.38-.16-.72-.38-1-.65-.29-.28-.51-.6-.68-.97-.17-.37-.25-.76-.25-1.18s.08-.81.25-1.18c.17-.37.39-.69.68-.96.29-.27.62-.49,1-.65s.79-.24,1.23-.24c.51,0,.96.1,1.34.31.38.2.68.49.9.84h.03v-1h.77v5.52Zm-.74-2.65c0-.32-.06-.63-.19-.91-.12-.29-.29-.53-.5-.74s-.46-.38-.74-.5c-.29-.12-.59-.19-.91-.19s-.63.06-.91.19c-.29.12-.53.29-.74.5s-.38.46-.5.74c-.12.29-.19.59-.19.91s.06.63.19.91c.12.29.29.53.5.74s.46.38.74.5c.29.12.59.19.91.19s.63-.06.91-.19c.29-.12.53-.29.74-.5s.38-.46.5-.74c.12-.29.19-.59.19-.91Z"/>
          <path class="cls-1" d="m42.95,90.54c0-.11,0-.25-.01-.4,0-.16-.02-.32-.02-.48,0-.16-.01-.31-.02-.45,0-.14-.01-.25-.01-.33h.77c0,.22.01.43.02.64,0,.2.01.34.03.4.2-.35.45-.64.75-.86.31-.22.68-.33,1.12-.33.08,0,.15,0,.22.02.07.01.15.03.22.04l-.09.75c-.1-.03-.2-.05-.29-.05-.33,0-.62.05-.86.16-.24.11-.44.25-.6.44-.16.19-.27.41-.35.66-.08.25-.12.52-.12.81v3.22h-.77v-4.25Z"/>
          <path class="cls-1" d="m47.92,91.83c0-.45.08-.87.23-1.25.15-.38.37-.71.64-.98.27-.28.6-.49.98-.65.38-.15.8-.23,1.25-.23s.87.08,1.25.23c.38.15.71.37.99.65.28.28.49.61.65.98.15.38.23.8.23,1.25s-.08.87-.23,1.25-.37.71-.65.98c-.28.28-.61.49-.99.65-.38.15-.79.23-1.25.23s-.87-.08-1.25-.23c-.38-.15-.71-.37-.98-.65-.27-.28-.49-.61-.64-.98s-.23-.79-.23-1.25Zm.77,0c0,.33.05.65.16.94.11.29.26.55.47.77.2.22.45.39.74.52s.61.19.97.19.68-.06.97-.19c.29-.13.54-.3.74-.52.21-.22.36-.47.47-.77.11-.29.16-.61.16-.94s-.05-.65-.16-.94-.26-.55-.47-.77c-.2-.22-.45-.39-.74-.52-.29-.13-.61-.19-.97-.19s-.68.06-.97.19-.54.3-.74.52c-.21.22-.36.47-.47.77-.11.29-.16.61-.16.94Z"/>
          <path class="cls-1" d="m62.13,93.13c0,.11,0,.25.01.4,0,.16.01.32.02.48,0,.16.01.31.02.45,0,.14.01.25.01.33h-.77c0-.22-.01-.43-.02-.64,0-.2-.01-.34-.03-.4h-.04c-.15.32-.41.6-.77.84-.36.23-.78.35-1.25.35s-.84-.07-1.13-.22-.52-.33-.69-.57c-.17-.23-.28-.51-.34-.81-.06-.31-.09-.62-.09-.95v-3.52h.77v3.48c0,.24.02.47.06.7.04.23.12.43.22.61.11.18.26.32.45.43.19.11.44.16.75.16.28,0,.55-.05.8-.15.25-.1.47-.25.65-.45.18-.2.33-.45.44-.75.11-.3.16-.66.16-1.07v-2.95h.77v4.25Z"/>
          <path class="cls-1" d="m65.36,88.88h.77v1.04h.03c.12-.2.27-.38.45-.53.18-.15.37-.27.58-.37.21-.1.43-.17.66-.22.23-.05.46-.07.68-.07.45,0,.87.08,1.25.23.38.15.71.37.98.65s.49.61.65.98c.15.38.23.8.23,1.25s-.08.87-.23,1.25c-.15.38-.37.71-.65.98-.28.28-.61.49-.98.65-.38.15-.79.23-1.25.23-.22,0-.45-.02-.68-.07s-.45-.12-.66-.22c-.21-.1-.4-.22-.58-.37-.18-.15-.33-.33-.45-.53h-.03v3.95h-.77v-8.82Zm.69,2.95c0,.33.06.65.19.94.13.29.3.55.52.77.22.22.48.39.78.52.3.13.62.19.97.19s.68-.06.97-.19.54-.3.74-.52c.2-.22.36-.47.47-.77.11-.29.16-.61.16-.94s-.05-.65-.16-.94-.26-.55-.47-.77c-.21-.22-.45-.39-.74-.52s-.61-.19-.97-.19-.67.06-.97.19c-.3.13-.56.3-.78.52-.22.22-.4.47-.52.77s-.19.61-.19.94Z"/>
        </g>
      </g>
      <g>
        <path class="cls-1" d="m78.22,16.63C76.21,4.23,65.82.84,62.56.26c-4.31-.76-11.26,0-16.77,4.25-4.28,3.3-6.5,6.11-6.5,6.11,0,0-2.22-2.81-6.5-6.11C27.29.26,20.34-.5,16.03.26,12.78.84,2.38,4.23.37,16.63c-2.31,14.25,6.38,24.04,20.7,36.6,7.85,6.89,18.23,15.08,18.23,15.08,0,0,10.38-8.19,18.23-15.08,14.32-12.57,23.01-22.35,20.7-36.6Z"/>
        <path class="cls-1" d="m78.74,68.31h-30.87c-.09.1,10.13-8.24,17.18-14.27,10.24-8.76,14.96-14.87,14.96-14.87v27.9c0,1.25-1.26,1.23-1.26,1.23Z"/>
      </g>
    </g>
  </g>
</svg>