<?xml version="1.0" encoding="UTF-8"?><svg id="_レイヤー_1" xmlns="http://www.w3.org/2000/svg" viewBox="0 0 100 100"><defs><style>.cls-1{fill:#fff;}.cls-2{fill:#828282;}</style></defs><circle class="cls-2" cx="50" cy="50" r="50"/><g><path class="cls-1" d="M50,25.2c8.08,0,9.03,.03,12.22,.18,2.95,.13,4.55,.63,5.62,1.04,1.41,.55,2.42,1.2,3.48,2.26,1.06,1.06,1.71,2.07,2.26,3.48,.41,1.07,.91,2.67,1.04,5.62,.15,3.19,.18,4.15,.18,12.22s-.03,9.03-.18,12.22c-.13,2.95-.63,4.55-1.04,5.62-.55,1.41-1.2,2.42-2.26,3.48s-2.07,1.71-3.48,2.26c-1.07,.41-2.67,.91-5.62,1.04-3.19,.15-4.15,.18-12.22,.18s-9.03-.03-12.22-.18c-2.95-.13-4.55-.63-5.62-1.04-1.41-.55-2.42-1.2-3.48-2.26-1.06-1.06-1.71-2.07-2.26-3.48-.41-1.07-.91-2.67-1.04-5.62-.15-3.19-.18-4.15-.18-12.22s.03-9.03,.18-12.22c.13-2.95,.63-4.55,1.04-5.62,.55-1.41,1.2-2.42,2.26-3.48,1.06-1.06,2.07-1.71,3.48-2.26,1.07-.41,2.67-.91,5.62-1.04,3.19-.15,4.15-.18,12.22-.18m0-5.45c-8.22,0-9.25,.03-12.47,.18-3.22,.15-5.42,.66-7.34,1.41-1.99,.77-3.68,1.81-5.36,3.49-1.68,1.68-2.72,3.37-3.49,5.36-.75,1.92-1.26,4.12-1.41,7.34-.15,3.23-.18,4.26-.18,12.47s.03,9.25,.18,12.47c.15,3.22,.66,5.42,1.41,7.34,.77,1.99,1.81,3.68,3.49,5.36,1.68,1.68,3.37,2.72,5.36,3.49,1.92,.75,4.12,1.26,7.34,1.41,3.23,.15,4.26,.18,12.47,.18s9.25-.03,12.47-.18c3.22-.15,5.42-.66,7.34-1.41,1.99-.77,3.68-1.81,5.36-3.49,1.68-1.68,2.72-3.37,3.49-5.36,.75-1.92,1.26-4.12,1.41-7.34,.15-3.23,.18-4.26,.18-12.47s-.03-9.25-.18-12.47c-.15-3.22-.66-5.42-1.41-7.34-.77-1.99-1.81-3.68-3.49-5.36-1.68-1.68-3.37-2.72-5.36-3.49-1.92-.75-4.12-1.26-7.34-1.41-3.23-.15-4.26-.18-12.47-.18h0Z"/><path class="cls-1" d="M50,34.47c-8.58,0-15.53,6.95-15.53,15.53s6.95,15.53,15.53,15.53,15.53-6.95,15.53-15.53-6.95-15.53-15.53-15.53Zm0,25.62c-5.57,0-10.08-4.51-10.08-10.08s4.51-10.08,10.08-10.08,10.08,4.51,10.08,10.08-4.51,10.08-10.08,10.08Z"/><circle class="cls-1" cx="66.15" cy="33.85" r="3.63"/></g></svg>