<?xml version="1.0" encoding="UTF-8"?>
<svg id="_レイヤー_2" data-name="レイヤー 2" xmlns="http://www.w3.org/2000/svg" viewBox="0 0 52 52">
  <defs>
    <style>
      .cls-1 {
        fill: #fff;
      }

      .cls-1, .cls-2 {
        stroke-width: 0px;
      }

      .cls-2 {
        fill: #484947;
      }
    </style>
  </defs>
  <g id="_レイヤー_1-2" data-name="レイヤー 1">
    <g>
      <rect class="cls-2" x="0" y="0" width="52" height="52" rx="12.58" ry="12.58"/>
      <g>
        <path class="cls-1" d="M43.33,23.55c0-7.76-7.78-14.07-17.34-14.07s-17.34,6.31-17.34,14.07c0,6.95,6.17,12.78,14.5,13.88.56.12,1.33.37,1.53.85.17.44.11,1.12.06,1.57,0,0-.2,1.22-.25,1.48-.08.44-.35,1.71,1.5.93,1.85-.78,9.98-5.88,13.62-10.07h0c2.51-2.76,3.72-5.55,3.72-8.66Z"/>
        <g>
          <path class="cls-2" d="M37.56,28.03h-4.87c-.18,0-.33-.15-.33-.33h0v-7.56h0c0-.19.15-.34.33-.34h4.87c.18,0,.33.15.33.33v1.23c0,.18-.15.33-.33.33h-3.31v1.28h3.31c.18,0,.33.15.33.33v1.23c0,.18-.15.33-.33.33h-3.31v1.28h3.31c.18,0,.33.15.33.33v1.23c0,.18-.15.33-.33.33Z"/>
          <path class="cls-2" d="M19.55,28.03c.18,0,.33-.15.33-.33v-1.23c0-.18-.15-.33-.33-.33h-3.31v-6.01c0-.18-.15-.33-.33-.33h-1.23c-.18,0-.33.15-.33.33v7.56h0c0,.19.15.34.33.34h4.87Z"/>
          <rect class="cls-2" x="20.92" y="19.8" width="1.89" height="8.23" rx=".33" ry=".33"/>
          <path class="cls-2" d="M30.85,19.8h-1.23c-.18,0-.33.15-.33.33v4.49l-3.46-4.68s-.02-.02-.03-.03c0,0,0,0,0,0,0,0-.01-.01-.02-.02,0,0,0,0,0,0,0,0-.01-.01-.02-.02,0,0,0,0,0,0,0,0-.01,0-.02-.01,0,0,0,0-.01,0,0,0-.01,0-.02-.01,0,0,0,0-.01,0,0,0-.01,0-.02,0,0,0,0,0-.01,0,0,0-.01,0-.02,0,0,0,0,0-.01,0,0,0-.01,0-.02,0,0,0,0,0-.01,0,0,0-.01,0-.02,0,0,0-.01,0-.02,0,0,0,0,0-.01,0h-1.22c-.18,0-.33.15-.33.33v7.57c0,.18.15.33.33.33h1.23c.18,0,.33-.15.33-.33v-4.49l3.47,4.68s.05.06.09.08c0,0,0,0,0,0,0,0,.01,0,.02.01,0,0,0,0,0,0,0,0,.01,0,.02,0,0,0,.01,0,.02,0,0,0,0,0,.01,0,0,0,.02,0,.02,0,0,0,0,0,0,0,.03,0,.06.01.09.01h1.22c.18,0,.33-.15.33-.33v-7.57c0-.18-.15-.33-.33-.33Z"/>
        </g>
      </g>
    </g>
  </g>
</svg>