<?xml version="1.0" encoding="UTF-8"?>
<svg id="_レイヤー_2" data-name="レイヤー 2" xmlns="http://www.w3.org/2000/svg" viewBox="0 0 40 40">
  <defs>
    <style>
      .cls-1 {
        fill: #484947;
        stroke-width: 0px;
      }
    </style>
  </defs>
  <g id="_レイヤー_1-2" data-name="レイヤー 1">
    <g>
      <path class="cls-1" d="M20,3.6c5.34,0,5.97.02,8.08.12,1.95.09,3.01.41,3.71.69.93.36,1.6.8,2.3,1.5.7.7,1.13,1.37,1.5,2.3.27.7.6,1.76.69,3.71.1,2.11.12,2.74.12,8.08s-.02,5.97-.12,8.08c-.09,1.95-.41,3.01-.69,3.71-.36.93-.8,1.6-1.5,2.3s-1.37,1.13-2.3,1.5c-.7.27-1.76.6-3.71.69-2.11.1-2.74.12-8.08.12s-5.97-.02-8.08-.12c-1.95-.09-3.01-.41-3.71-.69-.93-.36-1.6-.8-2.3-1.5-.7-.7-1.13-1.37-1.5-2.3-.27-.7-.6-1.76-.69-3.71-.1-2.11-.12-2.74-.12-8.08s.02-5.97.12-8.08c.09-1.95.41-3.01.69-3.71.36-.93.8-1.6,1.5-2.3s1.37-1.13,2.3-1.5c.7-.27,1.76-.6,3.71-.69,2.11-.1,2.74-.12,8.08-.12M20,0c-5.43,0-6.11.02-8.25.12-2.13.1-3.58.44-4.85.93-1.32.51-2.43,1.19-3.54,2.31-1.11,1.11-1.8,2.23-2.31,3.54-.49,1.27-.83,2.73-.93,4.85-.1,2.13-.12,2.81-.12,8.25s.02,6.11.12,8.25c.1,2.13.44,3.58.93,4.85.51,1.32,1.19,2.43,2.31,3.54,1.11,1.11,2.23,1.8,3.54,2.31,1.27.49,2.73.83,4.85.93,2.13.1,2.81.12,8.25.12s6.11-.02,8.25-.12c2.13-.1,3.58-.44,4.85-.93,1.32-.51,2.43-1.19,3.54-2.31,1.11-1.11,1.8-2.23,2.31-3.54.49-1.27.83-2.73.93-4.85.1-2.13.12-2.81.12-8.25s-.02-6.11-.12-8.25c-.1-2.13-.44-3.58-.93-4.85-.51-1.32-1.19-2.43-2.31-3.54-1.11-1.11-2.23-1.8-3.54-2.31-1.27-.49-2.73-.83-4.85-.93-2.13-.1-2.81-.12-8.25-.12h0Z"/>
      <path class="cls-1" d="M20,9.73c-5.67,0-10.27,4.6-10.27,10.27s4.6,10.27,10.27,10.27,10.27-4.6,10.27-10.27-4.6-10.27-10.27-10.27ZM20,26.67c-3.68,0-6.67-2.98-6.67-6.67s2.98-6.67,6.67-6.67,6.67,2.98,6.67,6.67-2.98,6.67-6.67,6.67Z"/>
      <circle class="cls-1" cx="30.68" cy="9.32" r="2.4"/>
    </g>
  </g>
</svg>