<?xml version="1.0" encoding="UTF-8"?><svg id="_レイヤー_2" xmlns="http://www.w3.org/2000/svg" viewBox="0 0 170 100"><defs><style>.cls-1{fill:#484947;}.cls-2{fill:#b2c7d8;}.cls-3{fill:none;stroke:#484947;stroke-miterlimit:10;}.cls-4{fill:#f9f9ef;}</style></defs><g id="_レイヤー_1-2"><path class="cls-2" d="M13.57,0C6.08,0,0,6.72,0,15v70c0,8.28,6.08,15,13.57,15h156.43V0H13.57Z"/><circle class="cls-4" cx="141.02" cy="74.43" r="20"/><path class="cls-1" d="M134.41,71.01c-.13,0-.16.02-.32.04-.86.13-1.66.21-2.42.21-.91,0-1.67-.11-2.13-.29-.7-.28-1.06-.75-1.06-1.4,0-.61.33-1.17,1.07-1.8l.55.41c-.58.48-.85.88-.85,1.3,0,.39.25.67.74.83.32.1.92.16,1.63.16,1.11,0,2.2-.14,2.72-.35l.08.88ZM129.03,64.78c.59.14,1.39.22,2.41.22,1.13,0,1.85-.05,2.37-.18l.05.72c-.56.23-1.4.75-2.3,1.4l-.55-.44c.58-.39.75-.49,1.11-.69.1-.05.12-.06.23-.13l.17-.09c-.53.07-.85.1-1.34.1-.59,0-1.36-.05-1.9-.12-.16-.02-.19-.02-.31-.03l.06-.77ZM133.56,66.4c.42.5.63.81.95,1.39l-.53.3c-.28-.56-.57-1.01-.94-1.42l.52-.27ZM134.59,65.91c.42.5.62.77.94,1.37l-.52.3c-.26-.52-.53-.93-.93-1.4l.5-.27Z"/><path class="cls-1" d="M144.11,64.72q-.1.08-.28.24c-.61.53-1.3,1.01-2.16,1.49.19.13.28.2.63.45l-.24.24h1.62c.54,0,.77,0,.97-.04l.41.44s-.03.04-.07.1c0,0-.04.04-.07.08-.02.03-.05.07-.1.13-.67.85-.94,1.12-1.63,1.67-.18-.2-.32-.31-.57-.46.62-.43.95-.73,1.4-1.29h-2.55v3.38c0,.63-.23.79-1.18.79-.24,0-.76-.02-1.03-.04-.04-.33-.07-.48-.18-.73.54.07.87.1,1.29.1.31,0,.39-.05.39-.25v-3.26h-2.68c-.42,0-.68.02-.99.05v-.75c.27.04.55.05,1.05.05h3.38c-.69-.53-1.38-.96-2.36-1.45l.46-.47c.69.37.99.54,1.47.84.74-.39,1.21-.7,1.78-1.18h-3.98c-.5,0-.69,0-.97.04v-.72c.28.04.53.05.99.05h4.1c.34,0,.48,0,.69-.04l.41.5Z"/><path class="cls-1" d="M147.49,68.91c-.14,1.31-.24,1.79-.55,2.58l-.58-.28c.31-.7.42-1.23.55-2.41l.58.11ZM146.37,67.72c.13.02.2.03.34.03.08,0,.15,0,.42,0,.31-.37.41-.49.64-.81-.46-.57-.66-.77-1.32-1.37l.39-.5.35.35c.44-.68.76-1.27.85-1.6l.65.28c-.07.08-.11.14-.21.33-.23.44-.58.99-.87,1.4.2.2.29.3.54.59.63-.92.89-1.35,1.02-1.67l.61.36c-.08.11-.14.19-.27.38-.61.93-1.18,1.71-1.62,2.21.69-.04.85-.06,1.32-.12-.11-.26-.15-.36-.32-.68l.49-.2c.31.55.52,1.04.77,1.73l-.55.23c-.08-.29-.12-.38-.17-.55-.1,0-.17.02-.23.03q-.2.02-.57.06v2.93c0,.4.02.65.05.93h-.75c.04-.25.05-.54.05-.94v-2.85q-.62.05-.96.08c-.38.03-.39.03-.56.05l-.1-.68ZM149.61,68.75c.23.77.37,1.4.5,2.19l-.6.17c-.1-.8-.23-1.51-.43-2.21l.53-.15ZM151.11,65.94c-.28.55-.53.95-.9,1.4-.17-.2-.32-.32-.54-.45.41-.46.75-.99,1.03-1.62.26-.6.39-1,.45-1.39l.73.16q-.08.18-.21.55c-.09.27-.15.42-.26.69h2.17c.37,0,.54,0,.73-.04q-.03.28-.04,1.44c0,1.46-.18,3.29-.38,4.12-.22.88-.45,1.06-1.41,1.06-.23,0-.5-.02-.89-.04-.04-.29-.08-.47-.18-.74.48.08.85.12,1.19.12.42,0,.52-.11.65-.68.21-.96.34-2.67.35-4.59h-2.48ZM151.92,69.59c-.4-1.04-.62-1.44-1.18-2.24l.56-.32c.58.83.83,1.28,1.23,2.22l-.61.34Z"/><path class="cls-1" d="M134.24,80.3c-.13.12-.19.19-.32.34-.66.79-1.05,1.16-1.75,1.66,1.04.54,1.95.81,3.47,1.02-.14.22-.26.43-.36.71-1.11-.19-1.72-.35-2.48-.67-.48-.2-.78-.36-1.26-.66-1.08.63-2.18,1.03-3.64,1.31-.1-.29-.18-.43-.37-.68,1.34-.18,2.39-.5,3.42-1.05-.66-.53-.97-.91-1.57-1.84-.24,0-.41.02-.6.04v-.7c.23.04.53.05.91.05h3.32c.38,0,.59,0,.79-.05l.43.5ZM129.37,78.29c-.13-.41-.25-.72-.45-1.12-.23,0-.35,0-.75,0q-.05-.25-.24-.67c.24.03.36.03.59.03,2.32,0,5.02-.33,5.99-.74l.46.62q-.12.03-.37.09c-.78.19-1.65.32-3.03.48.2.46.3.76.45,1.31h.96c.32-.55.52-.98.71-1.53l.69.23c-.39.8-.5,1.01-.67,1.3h.72c.49,0,.75,0,1.01-.04-.03.23-.04.42-.04.7v.6c0,.23.02.41.04.59h-.72v-1.22h-6.35v1.27h-.72c.03-.19.04-.43.04-.66v-.59c0-.24,0-.42-.04-.7.27.04.56.04,1.07.04h.63ZM131.35,78.29c-.13-.47-.26-.83-.45-1.24-.65.05-.68.05-1.31.08.21.45.32.73.47,1.16h1.29ZM130.15,80.43c.42.65.8,1.05,1.4,1.49.69-.45,1.12-.83,1.66-1.49h-3.06Z"/><path class="cls-1" d="M138.9,82.96c0,.41,0,.73.04,1.07h-.79c.04-.32.05-.62.05-1.09v-2.91c0-.43,0-.67.03-1.06-.33.56-.51.8-.95,1.28-.17-.34-.19-.38-.42-.64.77-.8,1.29-1.59,1.76-2.67.23-.52.35-.86.4-1.14l.76.23c-.04.08-.12.25-.18.41-.14.38-.41.95-.7,1.53v5ZM143.77,83c0,.67-.21.82-1.09.82-.4,0-.67,0-1.08-.05-.04-.3-.09-.45-.21-.72.54.08.8.1,1.21.1s.48-.04.48-.22v-4.34h-2.73c-.37,0-.71.02-.98.05v-.74c.25.04.57.05.96.05h2.75v-.97c0-.42-.03-.81-.06-1.07h.81c-.04.32-.05.63-.05,1.08v.96h.39c.37,0,.64-.02.86-.05v.72c-.25-.02-.56-.04-.85-.04h-.4v4.42ZM140.47,79.32c.66.74.98,1.2,1.49,2.05l-.6.44c-.44-.86-.86-1.49-1.44-2.12l.56-.38Z"/><path class="cls-1" d="M150.02,76.79c0-.44-.02-.66-.06-.95h.84c-.04.27-.05.52-.05.93v.73h2.58c.32,0,.5,0,.71-.04-.03.23-.04.42-.04.74v2.55c0,.32,0,.56.04.82h-.76v-.58h-2.55v2.02c0,.52,0,.77.06,1.05h-.85c.04-.32.06-.57.06-1.05v-2.02h-2.42v.58h-.76c.04-.27.05-.5.05-.82v-2.56c0-.3-.02-.5-.04-.73.23.03.4.04.71.04h2.47v-.71ZM147.6,78.16v2.17h2.42v-2.17h-2.42ZM153.29,80.33v-2.17h-2.55v2.17h2.55Z"/><path class="cls-1" d="M48.49,51.21c-.11.22-.54.43-1.05.24-.92.78-2.73,1.97-4.35,2.89,1.4,2.35,3.32,4.21,5.72,5.18l-.03.3c-.84.19-1.51.92-1.78,2-3.97-2.51-5.75-6.8-6.64-13.01h-1.89v9.37c1.3-.3,2.67-.65,4.08-1.03l.11.41c-1.59.84-3.91,2.05-7.18,3.56-.11.38-.32.57-.57.67l-1.54-2.46c.7-.13,1.81-.38,3.13-.67v-9.85h-1.86c-.19,4.32-1.05,9.31-4.83,12.88l-.4-.3c2.92-4.45,3.24-10.04,3.24-15.22v-2.43c-.11.22-.32.3-.65.3h-2.94v5.05c1.03-.32,2.13-.67,3.21-1.03l.11.35c-.89.54-2,1.19-3.32,1.97v8.64c0,1.67-.3,2.62-2.92,2.89-.05-.67-.19-1.21-.51-1.54-.38-.35-.94-.59-1.97-.76v-.4s2.27.16,2.75.16c.43,0,.57-.13.57-.51v-7.31c-.73.4-1.51.84-2.35,1.27-.11.32-.32.59-.62.7l-1.05-2.64c.81-.19,2.27-.59,4.02-1.13v-5.7h-3.37l-.22-.78h3.59v-6.26l3.05.32c-.05.41-.32.67-.97.76v5.18h.43l1.16-1.73s1.24,1.16,2,2.02v-5.34l2.43,1h9.37l1.35-1.78s1.54,1.24,2.48,2.13c-.08.27-.35.41-.7.41h-12.88v6.21c0,.59,0,1.21-.03,1.86h9.96l1.35-1.75s1.54,1.24,2.48,2.11c-.08.3-.35.43-.7.43h-6.88c.46,1.84,1.11,3.56,1.97,5.07,1.16-1.38,2.51-3.32,3.16-4.37l2.48,1.7ZM43.25,43.59l1.3-1.67s1.46,1.19,2.4,2.05c-.08.3-.35.43-.73.43h-9.99l-.22-.81h7.23Z"/><path class="cls-1" d="M64.64,46.52c-.19.24-.49.32-1.11.35-.76,1.65-1.84,3.32-3.16,4.91.49.19.92.38,1.3.59.49-.73,1.05-1.65,1.59-2.59l1.94,1.13c-.16.22-.51.43-1.03.27-.59.54-1.24,1.11-1.83,1.57,3.21,2.05,1.89,4.54.32,3.4-.35-1.11-1.38-2.54-2.32-3.64v12.12c0,.16-.67.67-1.65.67h-.35v-11.36c-1.19,1.11-2.51,2.13-3.94,2.97l-.3-.38c2.97-2.51,5.72-6.4,7.1-9.88h-6.4l-.24-.81h3.83v-5.37l3,.3c-.05.38-.3.65-1,.75v4.32h.97l1.29-1.19,1.97,1.86ZM79.19,46.87c-.19.24-.49.43-1.11.51v17.11c0,.16-.76.65-1.75.65h-.32v-1.97h-8.77v1.48c0,.16-.65.62-1.67.62h-.35v-19.84l2.35.95h3v-5.83l2.89.3c-.05.38-.24.62-.86.73v4.8h3.29l1.08-1.3,2.24,1.78ZM67.23,47.16v6.96h3.32v-6.96h-3.32ZM67.23,62.39h3.32v-7.45h-3.32v7.45ZM72.58,47.16v6.96h3.43v-6.96h-3.43ZM76.01,62.39v-7.45h-3.43v7.45h3.43Z"/><path class="cls-1" d="M42.2,69.74s1.09.95,1.74,1.62c-.06.23-.27.34-.57.34h-2.86v1.89c4.72,1.78,3.4,4.85,1.89,3.67-.25-1.03-1.11-2.33-1.89-3.25v10.85c0,.21-.67.57-1.28.57h-.36v-9.72c-.9,1.89-2.06,3.59-3.48,5.02l-.29-.23c1.64-2.41,2.77-5.69,3.42-8.8h-2.86l-.17-.61h3.38v-4.98l2.42.27c-.06.32-.23.5-.78.59v4.12h.73l.95-1.34ZM54.53,68.25c-.13.19-.46.36-.88.44v15.96c-.02.13-.82.59-1.43.59h-.25v-1.89h-5.88v1.32c0,.21-.61.63-1.36.63h-.29v-18.33l1.76.82h5.56l.88-1.03,1.89,1.49ZM46.08,68.35v4.3h5.88v-4.3h-5.88ZM46.08,73.26v4.37h5.88v-4.37h-5.88ZM51.96,82.73v-4.49h-5.88v4.49h5.88Z"/><path class="cls-1" d="M64.73,77.46s1.07.86,1.74,1.47c-.06.23-.25.34-.55.34h-7.41l-.17-.61h5.42l.97-1.2ZM59.46,76.62l-.17-.59h3.57l.92-1.22s1.09.86,1.74,1.49c-.06.23-.25.32-.53.32h-5.54ZM64,80.24s1.01.8,1.6,1.41c-.04.23-.23.34-.52.34h-5.56l-.17-.63h3.74l.92-1.11ZM59.51,84.67l-.17-.61h3.74l.92-1.13s1.01.82,1.6,1.41c-.04.23-.23.34-.52.34h-5.56ZM65.97,87.14c-.13.17-.44.34-.86.4v5.04c0,.15-.76.5-1.28.5h-.25v-1.03h-2.71v1.3c0,.15-.63.5-1.3.5h-.21v-7.89l1.62.74h2.42l.82-.9,1.76,1.34ZM63.58,91.43v-4.14h-2.71v4.14h2.71ZM77.67,85.88c-.08.17-.34.36-.78.27-.67.73-1.93,2.04-3.13,2.96.82,1.41,2.14,2.42,4.22,3.13l-.02.25c-.82.15-1.28.57-1.43,1.49-2.81-1.32-3.86-3.88-4.28-7.41-.34,3.15-1.51,5.65-6.78,7.33l-.23-.34c5.61-2.37,5.5-5.77,5.52-10.58l2.31.21c-.04.29-.21.48-.67.55.15,2.04.46,3.7,1.16,5.02.69-1.28,1.51-3.07,1.85-3.99l2.27,1.11ZM65.93,84.1c5.04-2.21,5-5.29,5.02-9.3l2.29.21c-.04.27-.21.48-.65.55-.06,1.55-.13,2.98-.61,4.28.53.13.99.25,1.41.4.69-1.22,1.55-3.07,1.91-4.01l2.16,1.05c-.08.19-.36.38-.78.29-.63.71-1.85,1.87-2.98,2.77,4.72,1.68,4.12,4.41,2.46,3.7-.82-1.18-2.77-2.79-4.33-3.82-.76,1.7-2.31,3.13-5.67,4.22l-.23-.34ZM68.87,84.88c.57,2.08-.08,3.57-.86,4.09-.52.36-1.26.38-1.51-.13-.19-.48.1-.92.57-1.2.69-.44,1.45-1.57,1.45-2.79l.36.02ZM68.93,76.33c.44,1.85-.06,3.21-.69,3.76-.44.36-1.18.42-1.43-.04-.19-.44.06-.9.48-1.2.59-.42,1.26-1.51,1.28-2.54l.36.02Z"/><path class="cls-1" d="M93.08,72.75c-.08.25-.36.38-.92.42,1.87,2.48,5.52,4.58,8.92,5.67l-.04.32c-.8.21-1.36.94-1.53,1.62-3.32-1.55-6.32-4.35-7.71-7.35-1.91,2.94-6.13,6.11-10.18,7.71l-.17-.29c3.59-1.93,7.62-5.94,8.65-8.8l2.98.71ZM97.91,81.7s1.32.99,2.16,1.72c-.06.23-.29.34-.59.34h-8.78c-.94,1.72-2.22,3.76-3.36,5.21,2.42-.13,5.42-.31,8.61-.52-.8-1.13-1.76-2.23-2.65-3.04l.23-.17c7.18,2.86,5.96,7.45,3.86,5.98-.23-.74-.63-1.53-1.16-2.31-2.77.55-6.49,1.18-11.63,1.95-.13.25-.36.4-.57.44l-1.03-2.14c.84-.02,2.02-.06,3.44-.15.71-1.51,1.51-3.65,1.97-5.25h-5.71l-.19-.61h14.17l1.2-1.45ZM94.34,78s1.26.95,2.06,1.66c-.04.23-.27.34-.57.34h-9.64l-.15-.61h7.16l1.13-1.39Z"/><path class="cls-4" d="M77.27,11.35c0,.08-.08.12-.22.12s-.22-.04-.22-.12c-.16-1.46-.66-2.58-1.5-3.36-.84-.78-1.93-1.17-3.28-1.17h-2.23c-1.21,0-2.04.17-2.47.51-.43.34-.65.98-.65,1.92v8.87h3.89c1.46,0,2.51-.24,3.16-.71.65-.47.97-1.21.97-2.21,0-.05.08-.08.24-.08s.24.03.24.08l-.04,3.36c0,.78.01,1.38.04,1.78l.04,2.03c0,.05-.08.08-.24.08s-.24-.03-.24-.08c0-1.19-.34-2.04-1.01-2.57-.68-.53-1.77-.79-3.28-.79h-3.77v8.79c0,.86.11,1.49.34,1.88s.67.67,1.34.83c.66.16,1.71.24,3.14.24.05,0,.08.08.08.24s-.03.24-.08.24c-1.11,0-1.97-.01-2.59-.04l-3.77-.04-2.75.04c-.51.03-1.22.04-2.11.04-.08,0-.12-.08-.12-.24s.04-.24.12-.24c1,0,1.73-.07,2.21-.2.47-.13.8-.4.97-.79.17-.39.26-.99.26-1.8V9.2c0-.81-.08-1.4-.24-1.78-.16-.38-.47-.64-.93-.79-.46-.15-1.19-.22-2.19-.22-.05,0-.08-.08-.08-.24s.03-.24.08-.24h16.44c.24,0,.36.12.36.36l.08,5.06Z"/><path class="cls-4" d="M94.21,11.15c-.41-.46-1-.69-1.77-.69-.05,0-.08-.05-.08-.16s.03-.16.08-.16l1.19.03c.61.04,1.12.05,1.54.05.34,0,.8-.02,1.38-.05l1.13-.03s.05.05.05.16-.02.16-.05.16c-.72,0-1.26.23-1.62.69-.36.46-.54,1.14-.54,2.04v7.64c0,2.03-.59,3.63-1.76,4.79-1.17,1.16-2.74,1.74-4.7,1.74-1.33,0-2.5-.26-3.5-.78-1-.52-1.78-1.26-2.33-2.23-.56-.96-.84-2.09-.84-3.39v-8.64c0-.54-.05-.94-.16-1.19-.11-.25-.32-.43-.62-.53-.31-.1-.79-.15-1.46-.15-.04,0-.05-.05-.05-.16s.02-.16.05-.16l1.35.03c.79.04,1.41.05,1.86.05.5,0,1.15-.02,1.94-.05l1.27-.03c.05,0,.08.05.08.16s-.03.16-.08.16c-.65,0-1.12.05-1.43.16-.31.11-.51.29-.62.55-.11.26-.16.66-.16,1.2v7.64c0,2.12.47,3.74,1.4,4.85.94,1.11,2.26,1.66,3.97,1.66,1.6,0,2.85-.5,3.74-1.5s1.34-2.39,1.34-4.17v-7.67c0-.9-.2-1.58-.61-2.04Z"/><path class="cls-4" d="M116.88,26.85c0,.11-.03.16-.08.16h-3.7c-.43,0-1.25-.73-2.44-2.2s-2.66-3.51-4.39-6.14c-.49.09-.94.13-1.35.13-.09,0-.51-.03-1.27-.08v6.1c0,.56.05.96.16,1.21.11.25.32.42.62.51.31.09.79.13,1.46.13.05,0,.08.05.08.16s-.03.16-.08.16c-.58,0-1.02,0-1.32-.03l-1.92-.03-1.86.03c-.34.02-.8.03-1.38.03-.04,0-.05-.05-.05-.16s.02-.16.05-.16c.67,0,1.15-.04,1.46-.13.31-.09.52-.26.63-.53.12-.26.17-.66.17-1.2v-12.5c0-.54-.05-.94-.16-1.19-.11-.25-.31-.43-.62-.53-.31-.1-.78-.15-1.43-.15-.05,0-.08-.05-.08-.16s.03-.16.08-.16l1.32.03c.76.04,1.38.05,1.86.05.38,0,.74,0,1.08-.03.34-.02.64-.04.89-.05.67-.05,1.29-.08,1.86-.08,1.44,0,2.56.32,3.36.96.8.64,1.2,1.5,1.2,2.58,0,.97-.28,1.85-.85,2.65-.57.79-1.32,1.41-2.25,1.86,1.51,2.18,2.78,3.88,3.79,5.1,1.02,1.22,1.93,2.11,2.73,2.66.8.55,1.58.82,2.33.82.05,0,.08.05.08.16ZM105.24,18.16c1.35,0,2.31-.3,2.89-.91.58-.6.86-1.54.86-2.82,0-1.42-.3-2.43-.89-3.04-.59-.6-1.45-.9-2.57-.9-.7,0-1.19.13-1.47.39s-.42.76-.42,1.5v5.7c.5.05,1.03.08,1.59.08Z"/><path class="cls-4" d="M122.22,26.04c.11.25.31.42.62.51.31.09.79.13,1.46.13.04,0,.05.05.05.16s-.02.16-.05.16c-.56,0-1,0-1.32-.03l-1.94-.03-1.86.03c-.34.02-.8.03-1.38.03-.05,0-.08-.05-.08-.16s.03-.16.08-.16c.67,0,1.15-.04,1.46-.13.31-.09.52-.26.63-.53.12-.26.17-.66.17-1.2v-12.5c0-.54-.06-.94-.17-1.19-.12-.25-.33-.43-.63-.53-.31-.1-.79-.15-1.46-.15-.05,0-.08-.05-.08-.16s.03-.16.08-.16l1.38.03c.76.04,1.38.05,1.86.05.52,0,1.18-.02,1.97-.05l1.3-.03s.05.05.05.16-.02.16-.05.16c-.65,0-1.13.05-1.44.16-.32.11-.53.29-.63.55s-.16.66-.16,1.2v12.45c0,.56.05.96.16,1.21Z"/><path class="cls-4" d="M92.55,32.67c.51.78,1.13,1.44,1.86,1.98.73.54,1.75,1.2,3.08,1.98,1.38.84,2.46,1.55,3.24,2.15s1.45,1.34,2,2.23c.55.89.83,1.94.83,3.16,0,1.32-.33,2.51-.99,3.56-.66,1.05-1.63,1.88-2.9,2.49-1.27.61-2.77.91-4.5.91-2.19,0-4.13-.49-5.83-1.46-.13-.08-.23-.18-.28-.28-.05-.11-.09-.27-.12-.49l-.45-5.67c-.03-.11.03-.18.18-.2.15-.03.24.01.26.12.54,2,1.39,3.71,2.55,5.12,1.16,1.42,2.7,2.13,4.62,2.13,1.32,0,2.43-.35,3.32-1.05.89-.7,1.34-1.85,1.34-3.44,0-1.21-.27-2.26-.81-3.14-.54-.88-1.19-1.62-1.96-2.23s-1.82-1.3-3.14-2.09c-1.32-.84-2.35-1.53-3.08-2.09-.73-.55-1.35-1.25-1.86-2.11s-.77-1.86-.77-3.02c0-1.38.36-2.54,1.09-3.5.73-.96,1.69-1.67,2.88-2.15s2.44-.71,3.77-.71c1.67,0,3.28.31,4.82.93.41.19.61.43.61.73l.24,4.86c0,.11-.07.18-.22.2-.15.03-.24-.01-.26-.12-.27-1.43-.88-2.78-1.82-4.05-.95-1.27-2.31-1.9-4.09-1.9-1.43,0-2.52.42-3.26,1.25-.74.84-1.11,1.89-1.11,3.16,0,1.03.26,1.93.77,2.71Z"/><path class="cls-4" d="M111.17,45.59c-1.3-.78-2.31-1.84-3.02-3.19-.71-1.34-1.07-2.8-1.07-4.39,0-1.85.47-3.44,1.4-4.77.94-1.32,2.14-2.32,3.6-2.98,1.47-.67,2.97-1,4.5-1,1.71,0,3.21.4,4.51,1.2,1.3.8,2.29,1.86,2.98,3.17.69,1.31,1.04,2.71,1.04,4.19,0,1.64-.43,3.14-1.3,4.51-.86,1.37-2.02,2.45-3.47,3.24-1.45.79-3.02,1.19-4.71,1.19s-3.16-.39-4.47-1.17ZM119.78,45.28c.95-.59,1.69-1.46,2.24-2.61.55-1.14.82-2.51.82-4.09,0-1.67-.3-3.17-.9-4.48-.6-1.31-1.46-2.34-2.58-3.08-1.12-.74-2.41-1.11-3.89-1.11-1.93,0-3.43.63-4.51,1.9-1.08,1.27-1.62,3.02-1.62,5.25,0,1.69.31,3.23.92,4.62.61,1.39,1.47,2.48,2.57,3.28,1.1.8,2.35,1.2,3.75,1.2,1.19,0,2.25-.3,3.2-.89Z"/><path class="cls-4" d="M132.86,46.46c-.27-.02-.6-.04-.99-.05-.39-.02-.81-.03-1.28-.03l-1.86.03c-.34.02-.8.03-1.38.03-.04,0-.05-.05-.05-.16s.02-.16.05-.16c.67,0,1.15-.04,1.46-.13.31-.09.52-.26.63-.53.12-.26.17-.66.17-1.2v-12.5c0-.54-.05-.94-.16-1.19-.11-.25-.32-.43-.62-.53-.31-.1-.79-.15-1.46-.15-.04,0-.05-.05-.05-.16s.02-.16.05-.16l1.35.03c.79.04,1.41.05,1.86.05.68,0,1.36-.03,2.02-.08.86-.04,1.44-.05,1.73-.05,1.87,0,3.53.36,4.97,1.08s2.56,1.7,3.35,2.94c.79,1.24,1.19,2.64,1.19,4.18,0,1.75-.41,3.29-1.23,4.63-.82,1.34-1.93,2.38-3.32,3.1-1.39.73-2.92,1.09-4.58,1.09-.54,0-1.16-.03-1.86-.08ZM138.14,45.21c1.07-.6,1.91-1.49,2.51-2.67.6-1.18.9-2.59.9-4.23s-.29-2.98-.86-4.25c-.58-1.27-1.39-2.27-2.44-3.01s-2.27-1.11-3.66-1.11c-.77,0-1.37.05-1.78.14s-.72.27-.92.53-.3.66-.3,1.2v12.15c0,.79.19,1.35.58,1.67s1.15.49,2.28.49c1.39,0,2.62-.3,3.69-.9Z"/><path class="cls-4" d="M158.27,42.32c.11,0,.16.04.16.09-.16,1.17-.24,2.38-.24,3.62,0,.14-.03.25-.09.31s-.18.09-.34.09h-11.42s-.05-.05-.05-.16.02-.16.05-.16c.67,0,1.15-.04,1.46-.13.31-.09.51-.26.62-.53.11-.26.16-.66.16-1.2v-12.5c0-.54-.05-.94-.16-1.19-.11-.25-.32-.43-.62-.53-.31-.1-.79-.15-1.46-.15-.04,0-.05-.05-.05-.16s.02-.16.05-.16h10.96c.16,0,.24.08.24.24l.05,3.38c0,.05-.05.08-.15.08s-.15-.03-.15-.08c-.11-.97-.44-1.72-1-2.24-.56-.52-1.29-.78-2.19-.78h-1.48c-.85,0-1.4.12-1.67.35-.27.23-.41.68-.41,1.35v5.51h3.1c.9,0,1.55-.15,1.96-.46.41-.31.61-.8.61-1.49,0-.04.05-.05.16-.05s.16.02.16.05l-.03,2.24c0,.52,0,.92.03,1.19l.03,1.35s-.05.05-.16.05-.16-.02-.16-.05c0-.79-.21-1.36-.62-1.71-.41-.35-1.09-.53-2.03-.53h-3.05v6.18c0,.47.05.82.16,1.05.11.23.3.4.57.5.27.1.68.15,1.24.15h1.92c.95,0,1.75-.3,2.38-.9s1.06-1.45,1.3-2.55c0-.05.05-.08.16-.07Z"/><path class="cls-1" d="M23.29,13.69l.81,1.89.33-.14.16-.79s.69.21,1.11.39c.02.11-.06.2-.18.25l-8.1,3.48-.19-.24,1.39-.6-.81-1.89-1.38.59-.2-.23,1.46-.63-.66-1.54c-.24.57-.55,1.1-.89,1.52l-.15-.05c.39-.92.66-2.32.64-3.66h1.25c-.01.13-.09.24-.31.3-.05.33-.12.65-.21.96h.14s4.77-2.05,4.77-2.05l.21-.81s.71.19,1.17.36c.02.11-.06.2-.18.25l-1.09.47.81,1.89.35-.15.18-.79s.69.19,1.12.37c.03.11-.05.19-.17.25l-1.38.59ZM18.35,15.51l.9-.39-.81-1.89-.9.39.81,1.89ZM19.07,18.46c.74,1.04.51,1.96.16,2.39-.22.29-.6.43-.81.23-.19-.18-.11-.44.04-.66.39-.4.71-1.16.46-1.9l.15-.05ZM19.28,17.66l.9-.39-.81-1.89-.9.39.81,1.89ZM19.1,12.94l.81,1.89.97-.42-.81-1.89-.97.42ZM20.02,15.1l.81,1.89.97-.42-.81-1.89-.97.42ZM20.29,18.03c2.03.54,1.8,2.21.94,1.79-.18-.61-.65-1.28-1.05-1.69l.11-.1ZM20.73,12.24l.81,1.89.96-.41-.81-1.89-.96.41ZM22.62,13.98l-.96.41.81,1.89.96-.41-.81-1.89ZM21.95,17.31c2.44.09,2.45,1.85,1.53,1.56-.31-.57-1.04-1.14-1.61-1.45l.08-.11ZM23.69,16.43c3.12-.34,3.42,1.68,2.37,1.51-.5-.61-1.6-1.15-2.43-1.38l.07-.13Z"/><path class="cls-1" d="M19.84,24.15c2.16.4,2.02,2.02,1.2,1.69-.26-.6-.85-1.21-1.28-1.59l.09-.1ZM23.59,26.76c2.45-.39,2.58,1.32,1.67,1.14-.33-.43-1.02-.81-1.6-.99l1.58,3.68c.04.1-.19.4-.44.5l-.14.06-1.48-3.43c-.08.96-.35,1.88-.79,2.75l-.17-.07c.32-1.17.32-2.54.12-3.82l-1.4.6-.18-.23,1.76-.76-1.5-3.49,1.07-.33c.03.14,0,.26-.22.4l1.34,3.12.56-.24.19-.74s.66.17,1.08.32c.02.11-.06.2-.18.25l-1.54.66.25.59ZM23.22,25.1c-.07-.59-.23-1.51-.37-2.28l1.11-.12c0,.12-.07.25-.26.33-.06.68-.15,1.49-.31,2.07h-.17ZM24.16,22.38c2.38-.46,2.52,1.21,1.61,1.06-.34-.44-1.1-.8-1.66-.96l.06-.1ZM24.87,24.62c2.4-.59,2.62,1.1,1.7.99-.38-.42-1.15-.76-1.75-.87l.05-.12ZM29.13,24.78s.66.12,1.08.22c.04.1-.01.2-.11.28l-1.07.75,1.06,2.47c.04.1-.19.41-.47.53l-.14.06-1.11-2.59-2.35,1.65-.23-.17,2.46-1.74-2.4-5.58,1.09-.34c.03.14,0,.26-.21.4l2.18,5.06.16-.11.05-.87Z"/><line class="cls-3" x1="7.73" y1="19.57" x2="19.56" y2="35.9"/><line class="cls-3" x1="32.72" y1="7.59" x2="35.78" y2="28.92"/></g></svg>