<?xml version="1.0" encoding="UTF-8"?>
<svg id="_レイヤー_2" data-name="レイヤー 2" xmlns="http://www.w3.org/2000/svg" viewBox="0 0 170 100">
  <defs>
    <style>
      .cls-1 {
        fill: #fad7d4;
      }

      .cls-1, .cls-2, .cls-3 {
        stroke-width: 0px;
      }

      .cls-4 {
        fill: none;
        stroke: #484947;
        stroke-miterlimit: 10;
      }

      .cls-2 {
        fill: #f9efef;
      }

      .cls-3 {
        fill: #484947;
      }
    </style>
  </defs>
  <g id="_レイヤー_1-2" data-name="レイヤー 1">
    <g>
      <path class="cls-1" d="M13.57,0C6.08,0,0,6.72,0,15v70c0,8.28,6.08,15,13.57,15h156.43V0H13.57Z"/>
      <circle class="cls-2" cx="140.76" cy="74.98" r="20"/>
      <g>
        <path class="cls-3" d="M134.15,71.56c-.13,0-.16.02-.32.04-.86.13-1.66.21-2.42.21-.91,0-1.67-.11-2.13-.29-.7-.28-1.06-.75-1.06-1.4,0-.61.33-1.17,1.07-1.8l.55.41c-.58.48-.85.88-.85,1.3,0,.39.25.67.74.83.32.1.92.16,1.63.16,1.11,0,2.2-.14,2.72-.35l.08.88ZM128.77,65.33c.59.14,1.39.22,2.41.22,1.13,0,1.85-.05,2.37-.18l.05.72c-.56.23-1.4.75-2.3,1.4l-.55-.44c.58-.39.75-.49,1.11-.69.1-.05.12-.06.23-.13l.17-.09c-.53.07-.85.1-1.34.1-.59,0-1.36-.05-1.9-.12-.16-.02-.19-.02-.31-.03l.06-.77ZM133.3,66.95c.42.5.63.81.95,1.39l-.53.3c-.28-.56-.57-1.01-.94-1.42l.52-.27ZM134.33,66.47c.42.5.62.77.94,1.37l-.52.3c-.26-.52-.53-.93-.93-1.4l.5-.27Z"/>
        <path class="cls-3" d="M143.85,65.27q-.1.08-.28.24c-.61.53-1.3,1.01-2.16,1.49.19.13.28.2.63.45l-.24.24h1.62c.54,0,.77,0,.97-.04l.41.44s-.03.04-.07.1c0,0-.04.04-.07.08-.02.03-.05.07-.1.13-.67.85-.94,1.12-1.63,1.67-.18-.2-.32-.31-.57-.46.62-.43.95-.73,1.4-1.29h-2.55v3.38c0,.63-.23.79-1.18.79-.24,0-.76-.02-1.03-.04-.04-.33-.07-.48-.18-.73.54.07.87.1,1.29.1.31,0,.39-.05.39-.25v-3.26h-2.68c-.42,0-.68.02-.99.05v-.75c.27.04.55.05,1.05.05h3.38c-.69-.53-1.38-.96-2.36-1.45l.46-.47c.69.37.99.54,1.47.84.74-.39,1.21-.7,1.78-1.18h-3.98c-.5,0-.69,0-.97.04v-.72c.28.04.53.05.99.05h4.1c.34,0,.48,0,.69-.04l.41.5Z"/>
        <path class="cls-3" d="M147.23,69.47c-.14,1.31-.24,1.79-.55,2.58l-.58-.28c.31-.7.42-1.23.55-2.41l.58.11ZM146.11,68.28c.13.02.2.03.34.03.08,0,.15,0,.42,0,.31-.37.41-.49.64-.81-.46-.57-.66-.77-1.32-1.37l.39-.5.35.35c.44-.68.76-1.27.85-1.6l.65.28c-.07.08-.11.14-.21.33-.23.44-.58.99-.87,1.4.2.2.29.3.54.59.63-.92.89-1.35,1.02-1.67l.61.36c-.08.11-.14.19-.27.38-.61.93-1.18,1.71-1.62,2.21.69-.04.85-.06,1.32-.12-.11-.26-.15-.36-.32-.68l.49-.2c.31.55.52,1.04.77,1.73l-.55.23c-.08-.29-.12-.38-.17-.55-.1,0-.17.02-.23.03q-.2.02-.57.06v2.93c0,.4.02.65.05.93h-.75c.04-.25.05-.54.05-.94v-2.85q-.62.05-.96.08c-.38.03-.39.03-.56.05l-.1-.68ZM149.35,69.3c.23.77.37,1.4.5,2.19l-.6.17c-.1-.8-.23-1.51-.43-2.21l.53-.15ZM150.85,66.49c-.28.55-.53.95-.9,1.4-.17-.2-.32-.32-.54-.45.41-.46.75-.99,1.03-1.62.26-.6.39-1,.45-1.39l.73.16q-.08.18-.21.55c-.09.27-.15.42-.26.69h2.17c.37,0,.54,0,.73-.04q-.03.28-.04,1.44c0,1.46-.18,3.29-.38,4.12-.22.88-.45,1.06-1.41,1.06-.23,0-.5-.02-.89-.04-.04-.29-.08-.47-.18-.74.48.08.85.12,1.19.12.42,0,.52-.11.65-.68.21-.96.34-2.67.35-4.59h-2.48ZM151.66,70.14c-.4-1.04-.62-1.44-1.18-2.24l.56-.32c.58.83.83,1.28,1.23,2.22l-.61.34Z"/>
        <path class="cls-3" d="M133.98,80.85c-.13.12-.19.19-.32.34-.66.79-1.05,1.16-1.75,1.66,1.04.54,1.95.81,3.47,1.02-.14.22-.26.43-.36.71-1.11-.19-1.72-.35-2.48-.67-.48-.2-.78-.36-1.26-.66-1.08.63-2.18,1.03-3.64,1.31-.1-.29-.18-.43-.37-.68,1.34-.18,2.39-.5,3.42-1.05-.66-.53-.97-.91-1.57-1.84-.24,0-.41.02-.6.04v-.7c.23.04.53.05.91.05h3.32c.38,0,.59,0,.79-.05l.43.5ZM129.11,78.85c-.13-.41-.25-.72-.45-1.12-.23,0-.35,0-.75,0q-.05-.25-.24-.67c.24.03.36.03.59.03,2.32,0,5.02-.33,5.99-.74l.46.62q-.12.03-.37.09c-.78.19-1.65.32-3.03.48.2.46.3.76.45,1.31h.96c.32-.55.52-.98.71-1.53l.69.23c-.39.8-.5,1.01-.67,1.3h.72c.49,0,.75,0,1.01-.04-.03.23-.04.42-.04.7v.6c0,.23.02.41.04.59h-.72v-1.22h-6.35v1.27h-.72c.03-.19.04-.43.04-.66v-.59c0-.24,0-.42-.04-.7.27.04.56.04,1.07.04h.63ZM131.09,78.85c-.13-.47-.26-.83-.45-1.24-.65.05-.68.05-1.31.08.21.45.32.73.47,1.16h1.29ZM129.89,80.99c.42.65.8,1.05,1.4,1.49.69-.45,1.12-.83,1.66-1.49h-3.06Z"/>
        <path class="cls-3" d="M138.64,83.51c0,.41,0,.73.04,1.07h-.79c.04-.32.05-.62.05-1.09v-2.91c0-.43,0-.67.03-1.06-.33.56-.51.8-.95,1.28-.17-.34-.19-.38-.42-.64.77-.8,1.29-1.59,1.76-2.67.23-.52.35-.86.4-1.14l.76.23c-.04.08-.12.25-.18.41-.14.38-.41.95-.7,1.53v5ZM143.51,83.55c0,.67-.21.82-1.09.82-.4,0-.67,0-1.08-.05-.04-.3-.09-.45-.21-.72.54.08.8.1,1.21.1s.48-.04.48-.22v-4.34h-2.73c-.37,0-.71.02-.98.05v-.74c.25.04.57.05.96.05h2.75v-.97c0-.42-.03-.81-.06-1.07h.81c-.04.32-.05.63-.05,1.08v.96h.39c.37,0,.64-.02.86-.05v.72c-.25-.02-.56-.04-.85-.04h-.4v4.42ZM140.21,79.87c.66.74.98,1.2,1.49,2.05l-.6.44c-.44-.86-.86-1.49-1.44-2.12l.56-.38Z"/>
        <path class="cls-3" d="M149.76,77.34c0-.44-.02-.66-.06-.95h.84c-.04.27-.05.52-.05.93v.73h2.58c.32,0,.5,0,.71-.04-.03.23-.04.42-.04.74v2.55c0,.32,0,.56.04.82h-.76v-.58h-2.55v2.02c0,.52,0,.77.06,1.05h-.85c.04-.32.06-.57.06-1.05v-2.02h-2.42v.58h-.76c.04-.27.05-.5.05-.82v-2.56c0-.3-.02-.5-.04-.73.23.03.4.04.71.04h2.47v-.71ZM147.34,78.71v2.17h2.42v-2.17h-2.42ZM153.03,80.88v-2.17h-2.55v2.17h2.55Z"/>
      </g>
      <g>
        <path class="cls-3" d="M48.23,51.76c-.11.22-.54.43-1.05.24-.92.78-2.73,1.97-4.35,2.89,1.4,2.35,3.32,4.21,5.72,5.18l-.03.3c-.84.19-1.51.92-1.78,2-3.97-2.51-5.75-6.8-6.64-13.01h-1.89v9.37c1.3-.3,2.67-.65,4.08-1.03l.11.41c-1.59.84-3.91,2.05-7.18,3.56-.11.38-.32.57-.57.67l-1.54-2.46c.7-.13,1.81-.38,3.13-.67v-9.85h-1.86c-.19,4.32-1.05,9.31-4.83,12.88l-.4-.3c2.92-4.45,3.24-10.04,3.24-15.22v-2.43c-.11.22-.32.3-.65.3h-2.94v5.05c1.03-.32,2.13-.67,3.21-1.03l.11.35c-.89.54-2,1.19-3.32,1.97v8.64c0,1.67-.3,2.62-2.92,2.89-.05-.67-.19-1.21-.51-1.54-.38-.35-.94-.59-1.97-.76v-.41s2.27.16,2.75.16c.43,0,.57-.13.57-.51v-7.32c-.73.41-1.51.84-2.35,1.27-.11.32-.32.59-.62.7l-1.05-2.65c.81-.19,2.27-.59,4.02-1.13v-5.7h-3.37l-.22-.78h3.59v-6.26l3.05.32c-.05.4-.32.67-.97.75v5.18h.43l1.16-1.73s1.24,1.16,2,2.03v-5.34l2.43,1h9.37l1.35-1.78s1.54,1.24,2.48,2.13c-.08.27-.35.4-.7.4h-12.88v6.21c0,.59,0,1.21-.03,1.86h9.96l1.35-1.75s1.54,1.24,2.48,2.11c-.08.3-.35.43-.7.43h-6.88c.46,1.84,1.11,3.56,1.97,5.08,1.16-1.38,2.51-3.32,3.16-4.37l2.48,1.7ZM42.99,44.15l1.3-1.67s1.46,1.19,2.4,2.05c-.08.3-.35.43-.73.43h-9.99l-.22-.81h7.23Z"/>
        <path class="cls-3" d="M64.38,47.07c-.19.24-.49.32-1.11.35-.76,1.65-1.84,3.32-3.16,4.91.49.19.92.38,1.3.59.49-.73,1.05-1.65,1.59-2.59l1.94,1.13c-.16.22-.51.43-1.03.27-.59.54-1.24,1.11-1.83,1.57,3.21,2.05,1.89,4.54.32,3.4-.35-1.11-1.38-2.54-2.32-3.64v12.12c0,.16-.67.67-1.65.67h-.35v-11.36c-1.19,1.11-2.51,2.13-3.94,2.97l-.3-.38c2.97-2.51,5.72-6.4,7.1-9.88h-6.4l-.24-.81h3.83v-5.37l3,.3c-.05.38-.3.65-1,.76v4.32h.97l1.29-1.19,1.97,1.86ZM78.93,47.42c-.19.24-.49.43-1.11.51v17.11c0,.16-.76.65-1.75.65h-.32v-1.97h-8.77v1.48c0,.16-.65.62-1.67.62h-.35v-19.84l2.35.94h3v-5.83l2.89.3c-.05.38-.24.62-.86.73v4.8h3.29l1.08-1.29,2.24,1.78ZM66.97,47.72v6.96h3.32v-6.96h-3.32ZM66.97,62.94h3.32v-7.45h-3.32v7.45ZM72.32,47.72v6.96h3.43v-6.96h-3.43ZM75.74,62.94v-7.45h-3.43v7.45h3.43Z"/>
      </g>
      <g>
        <path class="cls-3" d="M41.94,70.29s1.09.94,1.74,1.62c-.06.23-.27.34-.57.34h-2.86v1.89c4.72,1.79,3.4,4.85,1.89,3.67-.25-1.03-1.11-2.33-1.89-3.25v10.86c0,.21-.67.57-1.28.57h-.36v-9.72c-.9,1.89-2.06,3.59-3.48,5.02l-.29-.23c1.64-2.42,2.77-5.69,3.42-8.8h-2.86l-.17-.61h3.38v-4.98l2.42.27c-.06.31-.23.5-.78.59v4.12h.73l.95-1.34ZM54.26,68.8c-.13.19-.46.36-.88.44v15.96c-.02.13-.82.59-1.43.59h-.25v-1.89h-5.88v1.32c0,.21-.61.63-1.36.63h-.29v-18.33l1.76.82h5.56l.88-1.03,1.89,1.49ZM45.82,68.91v4.3h5.88v-4.3h-5.88ZM45.82,73.82v4.37h5.88v-4.37h-5.88ZM51.7,83.29v-4.49h-5.88v4.49h5.88Z"/>
        <path class="cls-3" d="M64.47,78.02s1.07.86,1.74,1.47c-.06.23-.25.34-.55.34h-7.41l-.17-.61h5.42l.97-1.2ZM59.2,77.18l-.17-.59h3.57l.92-1.22s1.09.86,1.74,1.49c-.06.23-.25.31-.53.31h-5.54ZM63.74,80.79s1.01.8,1.6,1.41c-.04.23-.23.34-.52.34h-5.56l-.17-.63h3.74l.92-1.11ZM59.24,85.22l-.17-.61h3.74l.92-1.13s1.01.82,1.6,1.41c-.04.23-.23.34-.52.34h-5.56ZM65.71,87.7c-.13.17-.44.34-.86.4v5.04c0,.15-.76.5-1.28.5h-.25v-1.03h-2.71v1.3c0,.15-.63.5-1.3.5h-.21v-7.89l1.62.73h2.42l.82-.9,1.76,1.34ZM63.32,91.98v-4.14h-2.71v4.14h2.71ZM77.41,86.44c-.08.17-.34.36-.78.27-.67.74-1.93,2.04-3.13,2.96.82,1.41,2.14,2.41,4.22,3.13l-.02.25c-.82.15-1.28.57-1.43,1.49-2.81-1.32-3.86-3.88-4.28-7.41-.34,3.15-1.51,5.65-6.78,7.33l-.23-.34c5.61-2.37,5.5-5.77,5.52-10.58l2.31.21c-.04.29-.21.48-.67.55.15,2.04.46,3.7,1.16,5.02.69-1.28,1.51-3.07,1.85-3.99l2.27,1.11ZM65.67,84.65c5.04-2.2,5-5.29,5.02-9.3l2.29.21c-.04.27-.21.48-.65.55-.06,1.55-.13,2.98-.61,4.28.53.13.99.25,1.41.4.69-1.22,1.55-3.07,1.91-4.01l2.16,1.05c-.08.19-.36.38-.78.29-.63.71-1.85,1.87-2.98,2.77,4.72,1.68,4.12,4.41,2.46,3.7-.82-1.18-2.77-2.79-4.33-3.82-.76,1.7-2.31,3.13-5.67,4.22l-.23-.34ZM68.61,85.43c.57,2.08-.08,3.57-.86,4.09-.52.36-1.26.38-1.51-.13-.19-.48.1-.92.57-1.2.69-.44,1.45-1.58,1.45-2.79l.36.02ZM68.67,76.88c.44,1.85-.06,3.21-.69,3.76-.44.36-1.18.42-1.43-.04-.19-.44.06-.9.48-1.2.59-.42,1.26-1.51,1.28-2.54l.36.02Z"/>
        <path class="cls-3" d="M92.82,73.31c-.08.25-.36.38-.92.42,1.87,2.48,5.52,4.58,8.92,5.67l-.04.31c-.8.21-1.36.95-1.53,1.62-3.32-1.55-6.32-4.35-7.71-7.35-1.91,2.94-6.13,6.11-10.18,7.71l-.17-.29c3.59-1.93,7.62-5.94,8.65-8.8l2.98.71ZM97.65,82.25s1.32.99,2.16,1.72c-.06.23-.29.34-.59.34h-8.78c-.94,1.72-2.22,3.76-3.36,5.21,2.42-.13,5.42-.32,8.61-.53-.8-1.13-1.76-2.23-2.65-3.04l.23-.17c7.18,2.86,5.96,7.45,3.86,5.98-.23-.73-.63-1.53-1.16-2.31-2.77.55-6.49,1.18-11.63,1.95-.13.25-.36.4-.57.44l-1.03-2.14c.84-.02,2.02-.06,3.44-.15.71-1.51,1.51-3.65,1.97-5.25h-5.71l-.19-.61h14.17l1.2-1.45ZM94.08,78.55s1.26.94,2.06,1.66c-.04.23-.27.34-.57.34h-9.64l-.15-.61h7.16l1.13-1.39Z"/>
      </g>
      <g>
        <path class="cls-2" d="M59.79,31.54c0-.16.04-.24.12-.24,1,0,1.73-.07,2.19-.2.46-.13.78-.4.95-.79.18-.39.26-.99.26-1.8V9.76c0-.81-.08-1.4-.24-1.78-.16-.38-.47-.64-.91-.79-.45-.15-1.15-.22-2.13-.22-.08,0-.12-.08-.12-.24s.04-.24.12-.24h16.52c.27,0,.4.12.4.36l.08,5.1c0,.08-.07.13-.22.14-.15.01-.24-.02-.26-.1-.19-1.48-.72-2.62-1.58-3.4-.86-.78-2-1.17-3.4-1.17h-2.07c-1.16,0-1.95.17-2.37.51-.42.34-.63.97-.63,1.88v18.55c0,.86.11,1.49.34,1.88.23.39.67.67,1.32.83s1.67.24,3.08.24c.05,0,.08.08.08.24s-.03.24-.08.24c-1.11,0-1.97-.01-2.59-.04l-3.81-.04-2.83.04c-.51.03-1.21.04-2.11.04-.08,0-.12-.08-.12-.24ZM73.48,20.39c-.7-.55-1.82-.83-3.36-.83h-5.14v-.93h5.26c1.46,0,2.53-.24,3.22-.73.69-.49,1.03-1.21,1.03-2.19,0-.05.08-.08.24-.08s.24.03.24.08l-.04,3.4c0,.81.01,1.42.04,1.82l.04,2.02c0,.05-.08.08-.24.08s-.24-.03-.24-.08c0-1.16-.35-2.02-1.05-2.57Z"/>
        <path class="cls-2" d="M93.89,11.73c-.41-.48-1.01-.72-1.78-.72-.05,0-.08-.05-.08-.16s.03-.16.08-.16l1.21.03c.65.04,1.16.05,1.54.05.32,0,.79-.02,1.4-.05l1.16-.03s.05.05.05.16-.02.16-.05.16c-.72,0-1.26.23-1.63.7-.37.47-.55,1.16-.55,2.08v7.64c0,2.02-.59,3.6-1.77,4.75-1.18,1.15-2.75,1.73-4.71,1.73-1.33,0-2.5-.26-3.51-.77-1.01-.51-1.79-1.25-2.35-2.21-.56-.96-.84-2.09-.84-3.39v-8.67c0-.54-.05-.94-.16-1.19-.11-.25-.31-.43-.61-.53-.3-.1-.77-.15-1.42-.15-.05,0-.08-.05-.08-.16s.03-.16.08-.16l1.35.03c.79.04,1.42.05,1.89.05.52,0,1.16-.02,1.92-.05l1.32-.03c.05,0,.08.05.08.16s-.03.16-.08.16c-.63,0-1.09.05-1.39.16-.3.11-.5.29-.61.55-.11.26-.16.66-.16,1.2v7.67c0,2.12.46,3.73,1.39,4.82.93,1.09,2.23,1.63,3.9,1.63,1.57,0,2.79-.49,3.69-1.47.89-.98,1.34-2.35,1.34-4.12v-7.67c0-.9-.21-1.59-.62-2.07Z"/>
        <path class="cls-2" d="M109.68,11.56c.81.63,1.21,1.49,1.21,2.57,0,.97-.28,1.86-.85,2.66-.57.8-1.32,1.43-2.25,1.89-.94.46-1.94.69-3,.69-.38,0-.82-.02-1.32-.05v6.08c0,.54.05.94.16,1.2s.31.44.61.53.77.13,1.42.13c.05,0,.08.05.08.16s-.03.16-.08.16c-.56,0-1,0-1.32-.03l-1.94-.03-1.89.03c-.34.02-.8.03-1.38.03-.05,0-.08-.05-.08-.16s.03-.16.08-.16c.65,0,1.12-.04,1.43-.13s.51-.27.62-.53c.11-.26.16-.66.16-1.2v-12.5c0-.54-.05-.94-.16-1.19-.11-.25-.31-.43-.61-.53-.3-.1-.77-.15-1.42-.15-.04,0-.05-.05-.05-.16s.02-.16.05-.16l1.35.03c.79.04,1.42.05,1.89.05.38,0,.74,0,1.08-.03s.64-.04.89-.05c.68-.05,1.3-.08,1.86-.08,1.49,0,2.65.32,3.46.94ZM107.85,11.95c-.56-.58-1.38-.88-2.46-.88-.7,0-1.2.13-1.48.39-.29.26-.43.75-.43,1.47v5.7c.52.05,1.05.08,1.59.08,1.3,0,2.22-.3,2.78-.9.56-.6.84-1.54.84-2.82,0-1.44-.28-2.45-.84-3.04ZM110.24,25.3c-1.21-1.51-2.69-3.63-4.41-6.34l1.81-.57c1.53,2.25,2.82,4.01,3.86,5.27,1.04,1.26,1.97,2.17,2.77,2.74.8.57,1.58.85,2.33.85.05,0,.08.05.08.16s-.03.16-.08.16h-3.86c-.45,0-1.28-.76-2.5-2.27Z"/>
        <path class="cls-2" d="M122.12,26.6c.1.25.3.42.59.51s.78.13,1.44.13c.04,0,.05.05.05.16s-.02.16-.05.16c-.58,0-1.03,0-1.35-.03l-1.94-.03-1.89.03c-.34.02-.81.03-1.4.03-.04,0-.05-.05-.05-.16s.02-.16.05-.16c.65,0,1.12-.04,1.43-.13.31-.09.52-.27.63-.53s.18-.66.18-1.2v-12.5c0-.54-.06-.94-.18-1.19-.12-.25-.33-.43-.63-.53-.31-.1-.78-.15-1.43-.15-.04,0-.05-.05-.05-.16s.02-.16.05-.16l1.4.03c.79.04,1.42.05,1.89.05.52,0,1.18-.02,1.97-.05l1.32-.03s.05.05.05.16-.02.16-.05.16c-.65,0-1.12.05-1.42.16-.3.11-.5.29-.61.55-.11.26-.16.66-.16,1.2v12.45c0,.56.05.96.15,1.21Z"/>
      </g>
      <g>
        <path class="cls-2" d="M92.32,33.13c.51.77,1.13,1.43,1.86,1.98.73.55,1.74,1.22,3.04,2,1.35.84,2.42,1.56,3.22,2.17.8.61,1.48,1.36,2.04,2.25.57.89.85,1.94.85,3.16,0,1.32-.34,2.52-1.03,3.58-.69,1.07-1.67,1.9-2.96,2.51s-2.77.91-4.48.91c-1.08,0-2.15-.13-3.2-.38-1.05-.26-1.97-.63-2.75-1.11-.14-.08-.23-.18-.28-.28-.05-.11-.08-.27-.08-.49l-.41-5.79c-.03-.11.03-.17.18-.2.15-.03.24.01.26.12.65,2.05,1.55,3.79,2.71,5.22,1.16,1.43,2.67,2.15,4.54,2.15,1.27,0,2.33-.34,3.2-1.03s1.3-1.82,1.3-3.38c0-1.19-.27-2.23-.81-3.12-.54-.89-1.2-1.64-1.98-2.25-.78-.61-1.82-1.3-3.12-2.09-1.27-.81-2.27-1.5-3.02-2.09-.74-.58-1.37-1.3-1.88-2.15s-.77-1.84-.77-2.98c0-1.38.37-2.55,1.11-3.52.74-.97,1.71-1.69,2.92-2.17,1.2-.47,2.46-.71,3.79-.71,1.78,0,3.42.31,4.9.93.41.19.61.43.61.73l.2,5.06c0,.11-.08.17-.22.18-.15.01-.24-.03-.26-.14-.3-1.46-.92-2.83-1.88-4.13-.96-1.3-2.33-1.94-4.11-1.94-1.35,0-2.4.4-3.14,1.21-.74.81-1.11,1.84-1.11,3.08,0,1.03.26,1.92.77,2.69Z"/>
        <path class="cls-2" d="M110.94,46.14c-1.3-.78-2.31-1.84-3.02-3.19-.71-1.34-1.07-2.8-1.07-4.39,0-1.85.47-3.44,1.4-4.77.94-1.32,2.14-2.32,3.6-2.98,1.47-.67,2.97-1,4.5-1,1.71,0,3.21.4,4.51,1.2s2.29,1.86,2.98,3.17c.69,1.31,1.04,2.71,1.04,4.18,0,1.64-.43,3.14-1.3,4.51-.86,1.37-2.02,2.45-3.47,3.24-1.45.79-3.02,1.19-4.71,1.19s-3.16-.39-4.47-1.17ZM119.45,45.83c.92-.59,1.64-1.46,2.17-2.61.53-1.14.8-2.51.8-4.09,0-1.67-.29-3.17-.88-4.48-.58-1.31-1.42-2.34-2.51-3.08-1.09-.74-2.35-1.11-3.79-1.11-1.87,0-3.33.63-4.37,1.9-1.04,1.27-1.57,3.02-1.57,5.25,0,1.71.3,3.26.89,4.64.59,1.39,1.43,2.48,2.5,3.27,1.07.79,2.29,1.19,3.66,1.19,1.15,0,2.19-.3,3.1-.89Z"/>
        <path class="cls-2" d="M132.69,47.02c-.27-.02-.6-.04-.99-.05-.39-.02-.82-.03-1.31-.03l-1.89.03c-.34.02-.81.03-1.4.03-.04,0-.05-.05-.05-.16s.02-.16.05-.16c.65,0,1.12-.04,1.43-.13.31-.09.52-.27.63-.53s.18-.66.18-1.2v-12.5c0-.54-.05-.94-.16-1.19-.11-.25-.31-.43-.61-.53s-.77-.15-1.42-.15c-.05,0-.08-.05-.08-.16s.03-.16.08-.16l1.35.03c.79.04,1.42.05,1.89.05.67,0,1.35-.03,2.05-.08.86-.04,1.45-.05,1.75-.05,1.85,0,3.5.36,4.94,1.08,1.44.72,2.56,1.7,3.35,2.94.79,1.24,1.19,2.64,1.19,4.18,0,1.75-.41,3.29-1.23,4.63s-1.93,2.38-3.32,3.11c-1.4.73-2.91,1.09-4.55,1.09-.56,0-1.19-.03-1.89-.08ZM137.9,45.71c1.04-.6,1.86-1.48,2.44-2.65.58-1.16.88-2.56.88-4.2s-.28-2.98-.84-4.25c-.56-1.27-1.35-2.27-2.36-3-1.02-.73-2.2-1.09-3.55-1.09-.77,0-1.37.05-1.78.14-.42.09-.72.27-.92.53s-.3.65-.3,1.17v12.15c0,.52.08.93.23,1.23.15.3.43.52.84.66.41.14,1,.22,1.77.22,1.35,0,2.55-.3,3.59-.91Z"/>
        <path class="cls-2" d="M146.08,46.83c0-.11.03-.16.08-.16.65,0,1.12-.04,1.42-.13.3-.09.5-.27.61-.53.11-.26.16-.66.16-1.2v-12.5c0-.54-.05-.94-.16-1.19-.11-.25-.31-.43-.61-.53-.3-.1-.77-.15-1.42-.15-.05,0-.08-.05-.08-.16s.03-.16.08-.16h11.02c.18,0,.27.08.27.24l.05,3.4c0,.05-.05.09-.15.09-.1,0-.16-.01-.18-.07-.13-.99-.48-1.75-1.05-2.27-.58-.52-1.33-.78-2.27-.78h-1.38c-.79,0-1.32.12-1.59.35-.27.23-.4.67-.4,1.32v12.29c0,.65.12,1.09.36,1.32.24.23.73.35,1.47.35h1.78c1.01,0,1.85-.3,2.52-.9.68-.6,1.14-1.46,1.39-2.58,0-.04.04-.05.11-.05.05,0,.1.01.15.04.04.03.07.05.07.07-.18,1.3-.27,2.51-.27,3.64,0,.14-.03.25-.08.31-.05.06-.16.09-.32.09h-11.5c-.05,0-.08-.05-.08-.16ZM155.49,39.07c-.44-.37-1.14-.55-2.09-.55h-3.94v-.62h4c.92,0,1.59-.16,2.02-.47.43-.32.65-.81.65-1.47,0-.04.05-.05.15-.05s.15.02.15.05l-.03,2.27.03,1.21c.04.58.05,1.03.05,1.35,0,.04-.05.05-.16.05s-.16-.02-.16-.05c0-.77-.22-1.35-.66-1.71Z"/>
      </g>
      <g>
        <path class="cls-3" d="M23.03,14.25l.81,1.89.33-.14.16-.79s.69.21,1.11.39c.02.11-.06.2-.18.25l-8.1,3.48-.19-.24,1.39-.6-.81-1.89-1.38.59-.2-.23,1.46-.63-.66-1.54c-.24.57-.55,1.1-.89,1.52l-.15-.05c.39-.92.66-2.32.64-3.66h1.25c-.01.13-.09.24-.31.3-.05.33-.12.65-.21.96h.14s4.77-2.05,4.77-2.05l.21-.81s.71.19,1.17.36c.02.11-.06.2-.18.25l-1.09.47.81,1.89.35-.15.18-.79s.69.19,1.12.37c.03.11-.05.19-.17.25l-1.38.59ZM18.09,16.06l.9-.39-.81-1.89-.9.39.81,1.89ZM18.81,19.01c.74,1.04.51,1.96.16,2.39-.22.29-.6.43-.81.23-.19-.18-.11-.44.04-.66.39-.4.71-1.16.46-1.9l.15-.05ZM19.01,18.22l.9-.39-.81-1.89-.9.39.81,1.89ZM18.83,13.5l.81,1.89.97-.42-.81-1.89-.97.42ZM19.76,15.65l.81,1.89.97-.42-.81-1.89-.97.42ZM20.03,18.58c2.03.54,1.8,2.21.94,1.79-.18-.61-.65-1.28-1.05-1.69l.11-.1ZM20.47,12.79l.81,1.89.96-.41-.81-1.89-.96.41ZM22.36,14.54l-.96.41.81,1.89.96-.41-.81-1.89ZM21.69,17.86c2.44.09,2.45,1.85,1.53,1.56-.31-.57-1.04-1.14-1.61-1.45l.08-.11ZM23.42,16.98c3.12-.34,3.42,1.68,2.37,1.51-.5-.61-1.6-1.15-2.43-1.38l.07-.13Z"/>
        <path class="cls-3" d="M19.57,24.71c2.16.4,2.02,2.02,1.2,1.69-.26-.6-.85-1.21-1.28-1.59l.09-.1ZM23.33,27.31c2.45-.39,2.58,1.32,1.67,1.14-.33-.43-1.02-.81-1.6-.99l1.58,3.68c.04.1-.19.4-.44.5l-.14.06-1.48-3.43c-.08.96-.35,1.88-.79,2.75l-.17-.07c.32-1.17.32-2.54.12-3.82l-1.4.6-.18-.23,1.76-.76-1.5-3.49,1.07-.33c.03.14,0,.26-.22.4l1.34,3.12.56-.24.19-.74s.66.17,1.08.32c.02.11-.06.2-.18.25l-1.54.66.25.59ZM22.96,25.65c-.07-.59-.23-1.51-.37-2.28l1.11-.12c0,.12-.07.25-.26.33-.06.68-.15,1.49-.31,2.07h-.17ZM23.89,22.94c2.38-.46,2.52,1.21,1.61,1.06-.34-.44-1.1-.8-1.66-.96l.06-.1ZM24.61,25.18c2.4-.59,2.62,1.1,1.7.99-.38-.42-1.15-.76-1.75-.87l.05-.12ZM28.87,25.33s.66.12,1.08.22c.04.1-.01.2-.11.28l-1.07.75,1.06,2.47c.04.1-.19.41-.47.53l-.14.06-1.11-2.59-2.35,1.65-.23-.17,2.46-1.74-2.4-5.58,1.09-.34c.03.14,0,.26-.21.4l2.18,5.06.16-.11.05-.87Z"/>
      </g>
      <line class="cls-4" x1="7.47" y1="20.13" x2="19.3" y2="36.45"/>
      <line class="cls-4" x1="32.46" y1="8.15" x2="35.52" y2="29.48"/>
    </g>
  </g>
</svg>