<?xml version="1.0" encoding="UTF-8"?><svg id="_レイヤー_2" xmlns="http://www.w3.org/2000/svg" viewBox="0 0 375 60"><defs><style>.cls-1{fill:#484947;}.cls-2{fill:#b2c7d8;}.cls-3{fill:none;stroke:#484947;stroke-miterlimit:10;}.cls-4{fill:#f9f9ef;}</style></defs><g id="_レイヤー_1-2"><rect class="cls-2" width="375" height="60"/><path class="cls-4" d="M27.69,12.43c0,.09-.08.13-.24.13s-.24-.04-.24-.13c-.17-1.57-.71-2.77-1.61-3.61-.9-.84-2.07-1.26-3.52-1.26h-2.39c-1.3,0-2.19.18-2.65.54-.46.36-.7,1.05-.7,2.07v9.53h4.18c1.57,0,2.7-.25,3.39-.76.7-.51,1.04-1.3,1.04-2.37,0-.06.09-.09.26-.09s.26.03.26.09l-.04,3.61c0,.84.01,1.48.04,1.91l.04,2.18c0,.06-.09.09-.26.09s-.26-.03-.26-.09c0-1.28-.36-2.2-1.09-2.76-.73-.57-1.9-.85-3.52-.85h-4.05v9.44c0,.93.12,1.6.37,2.02.25.42.72.72,1.44.89.71.17,1.83.26,3.37.26.06,0,.09.09.09.26s-.03.26-.09.26c-1.19,0-2.12-.01-2.78-.04l-4.05-.04-2.96.04c-.55.03-1.3.04-2.26.04-.09,0-.13-.09-.13-.26s.04-.26.13-.26c1.07,0,1.86-.07,2.37-.22.51-.15.85-.43,1.04-.85.19-.42.28-1.07.28-1.94V10.12c0-.87-.09-1.51-.26-1.91-.17-.41-.51-.69-1-.85-.49-.16-1.28-.24-2.35-.24-.06,0-.09-.09-.09-.26s.03-.26.09-.26h17.66c.26,0,.39.13.39.39l.09,5.44Z"/><path class="cls-4" d="M45.88,12.22c-.43-.49-1.07-.74-1.9-.74-.06,0-.09-.06-.09-.17s.03-.17.09-.17l1.28.03c.66.04,1.21.06,1.65.06.37,0,.86-.02,1.48-.06l1.22-.03s.06.06.06.17-.02.17-.06.17c-.77,0-1.35.25-1.74.74-.39.49-.58,1.22-.58,2.19v8.21c0,2.19-.63,3.9-1.88,5.15s-2.94,1.87-5.05,1.87c-1.43,0-2.68-.28-3.76-.84s-1.91-1.36-2.51-2.39c-.6-1.03-.9-2.25-.9-3.64v-9.28c0-.58-.06-1.01-.17-1.28-.12-.27-.34-.46-.67-.57-.33-.11-.85-.16-1.57-.16-.04,0-.06-.06-.06-.17s.02-.17.06-.17l1.45.03c.85.04,1.52.06,2,.06.54,0,1.24-.02,2.09-.06l1.36-.03c.06,0,.09.06.09.17s-.03.17-.09.17c-.7,0-1.21.06-1.54.17-.33.12-.55.31-.67.59s-.17.71-.17,1.29v8.21c0,2.28.5,4.02,1.51,5.21,1,1.19,2.43,1.78,4.26,1.78,1.72,0,3.06-.54,4.02-1.61.96-1.07,1.44-2.57,1.44-4.48v-8.24c0-.97-.22-1.7-.65-2.19Z"/><path class="cls-4" d="M70.23,29.08c0,.12-.03.17-.09.17h-3.97c-.46,0-1.34-.79-2.62-2.36s-2.86-3.77-4.71-6.6c-.52.1-1.01.15-1.45.15-.1,0-.55-.03-1.36-.09v6.55c0,.6.06,1.03.17,1.31.12.27.34.45.67.55.33.1.85.15,1.57.15.06,0,.09.06.09.17s-.03.17-.09.17c-.62,0-1.09,0-1.42-.03l-2.06-.03-2,.03c-.37.02-.86.03-1.48.03-.04,0-.06-.06-.06-.17s.02-.17.06-.17c.71,0,1.24-.05,1.57-.15.33-.1.55-.28.68-.57.13-.28.19-.71.19-1.29v-13.43c0-.58-.06-1.01-.17-1.28-.12-.27-.34-.46-.67-.57-.33-.11-.84-.16-1.54-.16-.06,0-.09-.06-.09-.17s.03-.17.09-.17l1.42.03c.81.04,1.48.06,2,.06.41,0,.79,0,1.16-.03.37-.02.69-.04.96-.06.71-.06,1.38-.09,2-.09,1.55,0,2.75.34,3.61,1.03.86.69,1.29,1.61,1.29,2.77,0,1.04-.3,1.99-.91,2.84-.61.85-1.42,1.52-2.42,2,1.62,2.34,2.98,4.17,4.07,5.48,1.09,1.31,2.07,2.27,2.93,2.86.86.59,1.7.88,2.51.88.06,0,.09.06.09.17ZM57.73,19.74c1.45,0,2.48-.32,3.1-.97.62-.65.93-1.66.93-3.03,0-1.53-.32-2.61-.96-3.26-.64-.65-1.56-.97-2.75-.97-.75,0-1.28.14-1.58.42-.3.28-.45.82-.45,1.61v6.12c.54.06,1.11.09,1.71.09Z"/><path class="cls-4" d="M75.97,28.21c.12.27.34.45.67.55.33.1.85.15,1.57.15.04,0,.06.06.06.17s-.02.17-.06.17c-.6,0-1.07,0-1.42-.03l-2.09-.03-2,.03c-.37.02-.86.03-1.48.03-.06,0-.09-.06-.09-.17s.03-.17.09-.17c.71,0,1.24-.05,1.57-.15.33-.1.55-.28.68-.57.13-.28.19-.71.19-1.29v-13.43c0-.58-.06-1.01-.19-1.28-.13-.27-.35-.46-.68-.57-.33-.11-.85-.16-1.57-.16-.06,0-.09-.06-.09-.17s.03-.17.09-.17l1.48.03c.81.04,1.48.06,2,.06.56,0,1.27-.02,2.12-.06l1.39-.03s.06.06.06.17-.02.17-.06.17c-.7,0-1.21.06-1.55.17-.34.12-.57.31-.68.59s-.17.71-.17,1.29v13.37c0,.6.06,1.03.17,1.31Z"/><path class="cls-4" d="M43.61,35.22c.55.84,1.22,1.55,2,2.13.78.58,1.88,1.29,3.31,2.13,1.48.9,2.64,1.67,3.48,2.31.84.64,1.56,1.44,2.15,2.39.59.96.89,2.09.89,3.39,0,1.42-.36,2.7-1.07,3.83-.71,1.13-1.75,2.02-3.11,2.68-1.36.65-2.97.98-4.83.98-2.35,0-4.44-.52-6.26-1.57-.15-.09-.25-.19-.3-.3-.06-.12-.1-.29-.13-.52l-.48-6.09c-.03-.12.04-.19.2-.22.16-.03.25.02.28.13.58,2.15,1.49,3.98,2.74,5.5,1.25,1.52,2.9,2.28,4.96,2.28,1.42,0,2.61-.38,3.57-1.13.96-.75,1.44-1.99,1.44-3.7,0-1.31-.29-2.43-.87-3.37-.58-.94-1.28-1.74-2.11-2.39-.83-.65-1.95-1.4-3.37-2.24-1.42-.9-2.52-1.65-3.31-2.24-.78-.59-1.45-1.35-2-2.26-.55-.91-.83-1.99-.83-3.24,0-1.48.39-2.73,1.17-3.76.78-1.03,1.81-1.8,3.09-2.31,1.28-.51,2.62-.76,4.04-.76,1.8,0,3.52.33,5.18,1,.43.2.65.46.65.78l.26,5.22c0,.12-.08.19-.24.22s-.25-.01-.28-.13c-.29-1.54-.94-2.99-1.96-4.35-1.02-1.36-2.48-2.04-4.39-2.04-1.54,0-2.7.45-3.5,1.35-.8.9-1.2,2.03-1.2,3.39,0,1.1.27,2.07.83,2.91Z"/><path class="cls-4" d="M63.6,49.09c-1.4-.84-2.48-1.98-3.25-3.42-.76-1.44-1.15-3.01-1.15-4.71,0-1.99.5-3.7,1.51-5.12s2.3-2.49,3.87-3.2c1.58-.71,3.18-1.07,4.83-1.07,1.84,0,3.45.43,4.84,1.29,1.39.86,2.46,2,3.21,3.41.74,1.41,1.12,2.91,1.12,4.5,0,1.76-.46,3.37-1.39,4.84-.93,1.47-2.17,2.63-3.73,3.48-1.56.85-3.24,1.28-5.06,1.28s-3.4-.42-4.8-1.26ZM72.85,48.76c1.01-.64,1.82-1.57,2.41-2.8.59-1.23.88-2.69.88-4.39,0-1.8-.32-3.4-.97-4.81-.65-1.41-1.57-2.51-2.77-3.31-1.2-.79-2.59-1.19-4.18-1.19-2.07,0-3.68.68-4.84,2.04-1.16,1.36-1.74,3.24-1.74,5.64,0,1.82.33,3.47.99,4.96.66,1.49,1.58,2.66,2.75,3.52,1.18.86,2.52,1.29,4.03,1.29,1.28,0,2.42-.32,3.44-.96Z"/><path class="cls-4" d="M86.9,50.03c-.29-.02-.64-.04-1.06-.06-.42-.02-.88-.03-1.38-.03l-2,.03c-.37.02-.86.03-1.48.03-.04,0-.06-.06-.06-.17s.02-.17.06-.17c.71,0,1.24-.05,1.57-.15.33-.1.56-.28.68-.57.13-.28.19-.71.19-1.29v-13.43c0-.58-.06-1.01-.17-1.28-.12-.27-.34-.46-.67-.57-.33-.11-.85-.16-1.57-.16-.04,0-.06-.06-.06-.17s.02-.17.06-.17l1.45.03c.85.04,1.52.06,2,.06.73,0,1.46-.03,2.17-.09.93-.04,1.55-.06,1.86-.06,2.01,0,3.79.39,5.34,1.16,1.55.77,2.75,1.83,3.6,3.16s1.28,2.83,1.28,4.49c0,1.88-.44,3.53-1.32,4.97-.88,1.44-2.07,2.55-3.57,3.33-1.5.78-3.14,1.17-4.92,1.17-.58,0-1.25-.03-2-.09ZM92.57,48.68c1.15-.65,2.05-1.6,2.7-2.87.65-1.27.97-2.78.97-4.54s-.31-3.2-.93-4.57c-.62-1.36-1.49-2.44-2.62-3.23s-2.44-1.19-3.93-1.19c-.83,0-1.47.05-1.91.15-.44.1-.77.29-.99.57-.21.28-.32.71-.32,1.29v13.05c0,.85.21,1.45.62,1.8.42.35,1.23.52,2.45.52,1.49,0,2.81-.32,3.96-.97Z"/><path class="cls-4" d="M114.19,45.58c.12,0,.17.04.17.1-.17,1.26-.26,2.55-.26,3.89,0,.15-.03.27-.1.33-.07.07-.19.1-.36.1h-12.27s-.06-.06-.06-.17.02-.17.06-.17c.71,0,1.24-.05,1.57-.15.33-.1.55-.28.67-.57.12-.28.17-.71.17-1.29v-13.43c0-.58-.06-1.01-.17-1.28-.12-.27-.34-.46-.67-.57-.33-.11-.85-.16-1.57-.16-.04,0-.06-.06-.06-.17s.02-.17.06-.17h11.77c.17,0,.26.09.26.26l.06,3.62c0,.06-.05.09-.16.09s-.16-.03-.16-.09c-.12-1.04-.47-1.85-1.07-2.41-.6-.56-1.38-.84-2.35-.84h-1.59c-.91,0-1.51.13-1.8.38-.29.25-.43.73-.43,1.45v5.92h3.33c.97,0,1.67-.16,2.1-.49.43-.33.65-.86.65-1.6,0-.04.06-.06.17-.06s.17.02.17.06l-.03,2.41c0,.56,0,.99.03,1.28l.03,1.45s-.06.06-.17.06-.17-.02-.17-.06c0-.85-.22-1.46-.67-1.84-.44-.38-1.17-.57-2.17-.57h-3.28v6.64c0,.5.06.88.17,1.13.12.25.32.43.61.54.29.11.73.16,1.33.16h2.06c1.02,0,1.88-.32,2.55-.97.68-.65,1.14-1.56,1.39-2.74,0-.06.06-.08.17-.07Z"/><path class="cls-1" d="M174.34,39.47c-.11.22-.56.45-1.09.25-.95.81-2.83,2.04-4.51,3,1.46,2.44,3.44,4.37,5.94,5.38l-.03.31c-.87.2-1.57.95-1.85,2.07-4.12-2.6-5.96-7.06-6.89-13.5h-1.96v9.72c1.34-.31,2.77-.67,4.23-1.06l.11.42c-1.65.87-4.06,2.13-7.45,3.7-.11.39-.34.59-.59.7l-1.6-2.55c.73-.14,1.88-.39,3.25-.7v-10.22h-1.93c-.2,4.48-1.09,9.66-5.01,13.36l-.42-.31c3.02-4.62,3.36-10.42,3.36-15.79v-2.52c-.11.22-.34.31-.67.31h-3.05v5.24c1.06-.34,2.21-.7,3.33-1.06l.11.36c-.92.56-2.07,1.23-3.44,2.04v8.96c0,1.74-.31,2.72-3.02,3-.06-.7-.2-1.26-.53-1.6-.39-.36-.98-.62-2.04-.78v-.42s2.35.17,2.86.17c.45,0,.59-.14.59-.53v-7.59c-.76.42-1.57.87-2.44,1.32-.11.34-.34.62-.64.73l-1.09-2.74c.84-.2,2.35-.62,4.17-1.18v-5.91h-3.5l-.22-.81h3.72v-6.5l3.16.34c-.06.42-.34.7-1.01.78v5.38h.45l1.2-1.79s1.29,1.2,2.07,2.1v-5.54l2.52,1.04h9.72l1.4-1.85s1.6,1.29,2.58,2.21c-.08.28-.36.42-.73.42h-13.36v6.44c0,.62,0,1.26-.03,1.93h10.33l1.4-1.82s1.6,1.29,2.58,2.18c-.08.31-.36.45-.73.45h-7.14c.48,1.9,1.15,3.7,2.04,5.26,1.2-1.43,2.6-3.44,3.28-4.54l2.58,1.76ZM168.91,31.57l1.34-1.74s1.51,1.23,2.49,2.13c-.08.31-.36.45-.76.45h-10.36l-.22-.84h7.5Z"/><path class="cls-1" d="M191.09,31.01c-.2.25-.5.34-1.15.36-.78,1.71-1.9,3.44-3.28,5.1.5.2.95.39,1.34.62.5-.76,1.09-1.71,1.65-2.69l2.02,1.18c-.17.22-.53.45-1.06.28-.62.56-1.29,1.15-1.9,1.62,3.33,2.13,1.96,4.7.34,3.53-.36-1.15-1.43-2.63-2.41-3.78v12.57c0,.17-.7.7-1.71.7h-.36v-11.79c-1.23,1.15-2.6,2.21-4.09,3.08l-.31-.39c3.08-2.6,5.94-6.64,7.36-10.25h-6.64l-.25-.84h3.98v-5.57l3.11.31c-.06.39-.31.67-1.04.78v4.48h1.01l1.34-1.23,2.04,1.93ZM206.18,31.38c-.2.25-.5.45-1.15.53v17.75c0,.17-.78.67-1.82.67h-.34v-2.04h-9.1v1.54c0,.17-.67.64-1.74.64h-.36v-20.58l2.44.98h3.11v-6.05l3,.31c-.06.39-.25.64-.9.76v4.98h3.42l1.12-1.34,2.32,1.85ZM193.78,31.69v7.22h3.44v-7.22h-3.44ZM193.78,47.48h3.44v-7.73h-3.44v7.73ZM199.32,31.69v7.22h3.56v-7.22h-3.56ZM202.88,47.48v-7.73h-3.56v7.73h3.56Z"/><path class="cls-1" d="M221.83,29.61s1.46,1.26,2.32,2.16c-.08.31-.36.45-.76.45h-3.81v2.52c6.3,2.38,4.54,6.47,2.52,4.9-.34-1.37-1.48-3.11-2.52-4.34v14.48c0,.28-.9.76-1.71.76h-.48v-12.96c-1.2,2.52-2.74,4.79-4.65,6.69l-.39-.31c2.18-3.22,3.7-7.59,4.56-11.73h-3.81l-.22-.81h4.51v-6.64l3.22.36c-.08.42-.31.67-1.04.78v5.49h.98l1.26-1.79ZM238.27,27.63c-.17.25-.62.48-1.18.59v21.28c-.03.17-1.09.78-1.9.78h-.34v-2.52h-7.84v1.76c0,.28-.81.84-1.82.84h-.39v-24.44l2.35,1.09h7.42l1.18-1.37,2.52,1.99ZM227.01,27.77v5.74h7.84v-5.74h-7.84ZM227.01,34.32v5.82h7.84v-5.82h-7.84ZM234.85,46.95v-5.99h-7.84v5.99h7.84Z"/><path class="cls-1" d="M253.27,28.61s1.43,1.15,2.32,1.96c-.08.31-.34.45-.73.45h-9.88l-.22-.81h7.22l1.29-1.6ZM246.25,27.49l-.22-.78h4.76l1.23-1.62s1.46,1.15,2.32,1.99c-.08.31-.34.42-.7.42h-7.39ZM252.3,32.3s1.34,1.06,2.13,1.88c-.06.31-.31.45-.7.45h-7.42l-.22-.84h4.98l1.23-1.48ZM246.3,38.21l-.22-.81h4.98l1.23-1.51s1.34,1.09,2.13,1.88c-.06.31-.31.45-.7.45h-7.42ZM254.93,41.51c-.17.22-.59.45-1.15.53v6.72c0,.2-1.01.67-1.71.67h-.34v-1.37h-3.61v1.74c0,.2-.84.67-1.74.67h-.28v-10.53l2.16.98h3.22l1.09-1.2,2.35,1.79ZM251.73,47.23v-5.52h-3.61v5.52h3.61ZM270.52,39.83c-.11.22-.45.48-1.04.36-.9.98-2.58,2.72-4.17,3.95,1.09,1.88,2.86,3.22,5.63,4.17l-.03.34c-1.09.2-1.71.76-1.9,1.99-3.75-1.76-5.15-5.18-5.71-9.88-.45,4.2-2.02,7.53-9.04,9.77l-.31-.45c7.48-3.16,7.34-7.7,7.36-14.11l3.08.28c-.06.39-.28.64-.9.73.2,2.72.62,4.93,1.54,6.69.92-1.71,2.02-4.09,2.46-5.32l3.02,1.48ZM254.87,37.45c6.72-2.94,6.66-7.06,6.69-12.4l3.05.28c-.06.36-.28.64-.87.73-.08,2.07-.17,3.98-.81,5.71.7.17,1.32.34,1.88.53.92-1.62,2.07-4.09,2.55-5.35l2.88,1.4c-.11.25-.48.5-1.04.39-.84.95-2.46,2.49-3.98,3.7,6.3,2.24,5.49,5.88,3.28,4.93-1.09-1.57-3.7-3.72-5.77-5.1-1.01,2.27-3.08,4.17-7.56,5.63l-.31-.45ZM258.79,38.49c.76,2.77-.11,4.76-1.15,5.46-.7.48-1.68.5-2.02-.17-.25-.64.14-1.23.76-1.6.92-.59,1.93-2.1,1.93-3.72l.48.03ZM258.87,27.09c.59,2.46-.08,4.28-.92,5.01-.59.48-1.57.56-1.9-.06-.25-.59.08-1.2.64-1.6.78-.56,1.68-2.02,1.71-3.39l.48.03Z"/><path class="cls-1" d="M292.47,25.55c-.11.34-.48.5-1.23.56,2.49,3.3,7.36,6.1,11.9,7.56l-.06.42c-1.06.28-1.82,1.26-2.04,2.16-4.42-2.07-8.43-5.8-10.28-9.8-2.55,3.92-8.18,8.15-13.58,10.28l-.22-.39c4.79-2.58,10.16-7.92,11.54-11.73l3.98.95ZM298.92,37.48s1.76,1.32,2.88,2.3c-.08.31-.39.45-.78.45h-11.7c-1.26,2.3-2.97,5.01-4.48,6.94,3.22-.17,7.22-.42,11.48-.7-1.06-1.51-2.35-2.97-3.53-4.06l.31-.22c9.58,3.81,7.95,9.94,5.15,7.98-.31-.98-.84-2.04-1.54-3.08-3.7.73-8.65,1.57-15.51,2.6-.17.34-.48.53-.76.59l-1.37-2.86c1.12-.03,2.69-.08,4.59-.2.95-2.02,2.02-4.87,2.63-7h-7.62l-.25-.81h18.9l1.6-1.93ZM294.15,32.55s1.68,1.26,2.74,2.21c-.06.31-.36.45-.76.45h-12.85l-.2-.81h9.55l1.51-1.85Z"/><circle class="cls-4" cx="335.64" cy="30" r="26.5"/><path class="cls-1" d="M327.56,25.84c-.15.01-.2.02-.4.05-1.04.17-2.02.25-2.96.25-1.11,0-2.05-.13-2.61-.35-.86-.34-1.3-.91-1.3-1.71,0-.75.41-1.43,1.31-2.2l.67.51c-.7.58-1.03,1.08-1.03,1.58,0,.47.31.81.9,1.01.4.12,1.12.2,1.99.2,1.35,0,2.68-.18,3.32-.43l.1,1.08ZM320.98,18.23c.71.18,1.69.26,2.95.26,1.39,0,2.27-.07,2.89-.22l.05.88c-.68.29-1.71.91-2.82,1.72l-.67-.54c.71-.47.91-.59,1.35-.85.12-.07.14-.08.29-.15l.21-.11c-.65.09-1.03.12-1.64.12-.73,0-1.66-.06-2.32-.14-.2-.02-.23-.02-.37-.03l.08-.94ZM326.53,20.21c.52.62.77.99,1.15,1.71l-.65.36c-.34-.68-.69-1.23-1.14-1.74l.64-.33ZM327.78,19.62c.52.6.76.95,1.16,1.67l-.64.36c-.32-.64-.65-1.13-1.13-1.71l.62-.33Z"/><path class="cls-1" d="M339.42,18.15q-.12.1-.34.3c-.75.65-1.58,1.23-2.64,1.81.23.15.34.24.77.55l-.3.3h1.98c.66,0,.95-.01,1.19-.05l.5.54s-.03.04-.09.12c-.01.01-.04.05-.09.1-.02.03-.07.09-.12.17-.81,1.03-1.14,1.38-1.99,2.05-.22-.24-.39-.38-.69-.56.76-.53,1.16-.89,1.72-1.57h-3.11v4.14c0,.77-.29.97-1.44.97-.3,0-.92-.02-1.25-.04-.04-.41-.09-.58-.22-.89.66.09,1.07.12,1.57.12.37,0,.47-.07.47-.31v-3.98h-3.28c-.52,0-.83.02-1.21.07v-.91c.33.04.67.07,1.29.07h4.12c-.85-.65-1.68-1.17-2.88-1.77l.56-.57c.85.45,1.21.66,1.79,1.02.9-.47,1.47-.86,2.18-1.44h-4.86c-.61,0-.85.01-1.19.06v-.88c.34.06.65.07,1.21.07h5.01c.42,0,.58-.01.85-.04l.51.6Z"/><path class="cls-1" d="M343.55,23.28c-.18,1.61-.3,2.19-.67,3.16l-.72-.34c.38-.86.52-1.51.67-2.95l.71.13ZM342.18,21.83c.15.02.24.03.42.03.1,0,.19,0,.52-.01.37-.45.5-.59.78-.99-.56-.69-.8-.95-1.62-1.67l.47-.62.43.43c.54-.82.92-1.55,1.03-1.96l.79.34c-.09.1-.13.18-.25.41-.29.54-.7,1.21-1.07,1.72.24.24.35.36.66.73.77-1.12,1.09-1.65,1.24-2.04l.75.44c-.1.13-.18.23-.33.46-.75,1.13-1.44,2.09-1.98,2.71.85-.06,1.03-.08,1.62-.14-.13-.32-.19-.44-.4-.84l.59-.24c.37.67.64,1.27.95,2.11l-.67.29c-.1-.35-.14-.46-.21-.67-.12.01-.21.02-.28.03q-.24.02-.69.08v3.58c0,.48.02.79.07,1.13h-.91c.04-.31.07-.66.07-1.14v-3.49q-.76.07-1.18.1c-.46.03-.47.03-.68.07l-.12-.84ZM346.14,23.08c.28.94.45,1.71.62,2.67l-.74.21c-.12-.98-.29-1.85-.53-2.7l.65-.19ZM347.97,19.65c-.34.67-.65,1.17-1.1,1.72-.21-.24-.38-.39-.66-.55.51-.56.91-1.21,1.25-1.98.32-.74.47-1.22.55-1.69l.89.2q-.1.22-.25.67c-.11.33-.19.52-.32.85h2.65c.45,0,.66-.01.89-.04q-.03.34-.05,1.76c-.01,1.78-.22,4.02-.46,5.04-.26,1.08-.55,1.3-1.73,1.3-.29,0-.62-.02-1.09-.05-.04-.35-.1-.57-.22-.9.58.1,1.03.14,1.45.14.52,0,.64-.13.79-.84.25-1.18.42-3.27.43-5.61h-3.03ZM348.97,24.11c-.5-1.27-.76-1.76-1.44-2.74l.68-.4c.7,1.01,1.01,1.56,1.51,2.72l-.75.42Z"/><path class="cls-1" d="M327.35,37.35c-.15.14-.23.23-.4.42-.8.97-1.29,1.42-2.13,2.02,1.27.66,2.39.99,4.24,1.24-.18.26-.32.53-.44.87-1.35-.23-2.1-.43-3.03-.81-.58-.24-.96-.44-1.54-.8-1.32.77-2.66,1.25-4.45,1.61-.12-.35-.22-.53-.45-.84,1.64-.22,2.93-.62,4.18-1.29-.8-.65-1.19-1.11-1.92-2.24-.3,0-.5.02-.74.06v-.86c.29.04.65.07,1.11.07h4.06c.46,0,.73-.01.97-.06l.53.62ZM321.4,34.9c-.15-.49-.31-.88-.55-1.38-.29.01-.43.01-.91.01q-.07-.31-.3-.81c.3.03.44.03.73.03,2.84,0,6.14-.41,7.32-.9l.56.76q-.14.03-.45.11c-.96.23-2.01.4-3.71.58.24.56.36.92.55,1.6h1.18c.4-.67.64-1.2.87-1.87l.85.29c-.47.98-.61,1.23-.83,1.58h.88c.59,0,.91-.01,1.23-.04-.03.28-.04.52-.04.86v.74c0,.28.02.51.05.73h-.88v-1.5h-7.76v1.55h-.88c.03-.23.06-.53.06-.8v-.73c0-.3-.01-.52-.04-.86.33.04.68.05,1.31.05h.77ZM323.82,34.9c-.17-.57-.32-1.01-.55-1.52-.79.07-.84.07-1.6.1.25.55.4.89.57,1.42h1.57ZM322.36,37.52c.52.79.98,1.29,1.72,1.82.85-.55,1.36-1.01,2.02-1.82h-3.74Z"/><path class="cls-1" d="M333.05,40.6c0,.51.01.89.06,1.31h-.97c.04-.4.07-.76.07-1.33v-3.55c0-.53,0-.83.03-1.3-.41.68-.63.98-1.16,1.56-.21-.42-.23-.46-.52-.78.95-.98,1.57-1.95,2.16-3.27.29-.64.43-1.06.48-1.4l.92.27c-.05.1-.14.31-.22.51-.18.46-.5,1.16-.86,1.87v6.11ZM339,40.65c0,.81-.25,1-1.33,1-.48,0-.81-.01-1.32-.07-.05-.36-.11-.55-.25-.88.66.1.98.12,1.47.12s.58-.04.58-.28v-5.3h-3.33c-.45,0-.87.02-1.2.07v-.9c.31.04.69.07,1.18.07h3.36v-1.19c0-.52-.03-.99-.08-1.31h.99c-.05.38-.07.77-.07,1.32v1.18h.47c.45,0,.78-.02,1.06-.07v.88c-.31-.02-.68-.04-1.04-.04h-.48v5.4ZM334.96,36.15c.8.9,1.2,1.46,1.82,2.51l-.74.54c-.54-1.04-1.06-1.81-1.76-2.59l.68-.46Z"/><path class="cls-1" d="M346.64,33.06c0-.54-.02-.8-.08-1.16h1.02c-.04.33-.07.64-.07,1.13v.89h3.16c.4,0,.61-.01.87-.04-.03.29-.04.52-.04.9v3.11c0,.4.01.68.05,1h-.92v-.72h-3.11v2.46c0,.64.01.94.08,1.29h-1.03c.05-.38.08-.69.08-1.29v-2.46h-2.96v.72h-.93c.04-.33.07-.62.07-1v-3.12c0-.36-.02-.61-.05-.89.27.03.48.04.87.04h3.01v-.87ZM343.68,34.73v2.65h2.96v-2.65h-2.96ZM350.64,37.38v-2.65h-3.11v2.65h3.11Z"/><path class="cls-1" d="M128.34,10.59l1.06,2.46.43-.18.21-1.02s.89.27,1.44.51c.02.15-.07.26-.23.32l-10.53,4.53-.25-.32,1.8-.78-1.06-2.46-1.79.77-.26-.3,1.9-.82-.86-2.01c-.32.75-.72,1.43-1.16,1.98l-.2-.07c.51-1.2.86-3.02.83-4.76h1.63c-.01.17-.12.31-.4.39-.07.43-.16.85-.27,1.25h.18s6.2-2.67,6.2-2.67l.27-1.05s.93.25,1.52.47c.02.15-.07.26-.24.33l-1.42.61,1.06,2.46.45-.2.24-1.02s.9.25,1.46.47c.03.14-.06.25-.22.32l-1.79.77ZM121.91,12.95l1.17-.5-1.06-2.46-1.17.5,1.06,2.46ZM122.85,16.79c.96,1.35.66,2.55.2,3.11-.29.38-.78.56-1.05.3-.24-.24-.15-.57.05-.86.51-.52.92-1.51.59-2.48l.2-.07ZM123.11,15.75l1.17-.5-1.06-2.46-1.17.5,1.06,2.46ZM122.88,9.61l1.06,2.46,1.27-.54-1.06-2.46-1.27.54ZM124.09,12.42l1.06,2.46,1.27-.54-1.06-2.46-1.27.54ZM124.44,16.23c2.64.71,2.34,2.87,1.23,2.33-.24-.79-.84-1.66-1.37-2.2l.14-.13ZM125.01,8.7l1.06,2.46,1.25-.54-1.06-2.46-1.25.54ZM127.47,10.97l-1.25.54,1.06,2.46,1.25-.54-1.06-2.46ZM126.59,15.29c3.18.12,3.19,2.41,1.99,2.03-.41-.74-1.36-1.48-2.1-1.88l.11-.15ZM128.85,14.15c4.05-.44,4.45,2.19,3.08,1.96-.65-.79-2.09-1.5-3.16-1.8l.09-.16Z"/><path class="cls-1" d="M123.84,24.19c2.81.52,2.63,2.63,1.56,2.2-.33-.78-1.1-1.58-1.67-2.07l.11-.13ZM128.72,27.58c3.19-.51,3.35,1.71,2.17,1.49-.42-.55-1.33-1.05-2.08-1.28l2.06,4.79c.06.13-.25.52-.57.65l-.18.08-1.92-4.47c-.1,1.25-.45,2.44-1.02,3.58l-.22-.09c.42-1.52.42-3.31.16-4.96l-1.81.78-.24-.29,2.29-.99-1.95-4.54,1.39-.43c.04.18,0,.34-.29.52l1.75,4.06.73-.31.25-.96s.86.22,1.41.41c.03.14-.07.26-.24.33l-2.01.86.33.76ZM128.24,25.42c-.09-.77-.29-1.97-.48-2.96l1.45-.16c0,.15-.09.32-.34.43-.07.88-.2,1.94-.4,2.69h-.23ZM129.46,21.89c3.1-.6,3.28,1.58,2.09,1.38-.44-.57-1.42-1.04-2.17-1.25l.07-.13ZM130.38,24.8c3.12-.76,3.41,1.44,2.21,1.29-.49-.54-1.5-.98-2.27-1.13l.06-.15ZM135.93,25s.86.15,1.41.29c.06.13-.02.26-.14.36l-1.39.98,1.38,3.21c.06.13-.25.53-.61.69l-.18.08-1.45-3.37-3.05,2.15-.3-.23,3.2-2.27-3.12-7.26,1.42-.44c.04.18,0,.34-.27.51l2.83,6.58.21-.15.07-1.13Z"/><line class="cls-3" x1="113.28" y1="20.55" x2="125.11" y2="36.87"/><line class="cls-3" x1="139.22" y1="8.89" x2="142.28" y2="30.21"/></g></svg>