<?xml version="1.0" encoding="UTF-8"?>
<svg id="_レイヤー_2" data-name="レイヤー 2" xmlns="http://www.w3.org/2000/svg" viewBox="0 0 100.5 20.5">
  <defs>
    <style>
      .cls-1 {
        fill: #000;
        stroke-width: 0px;
      }
    </style>
  </defs>
  <g id="_レイヤー_1-2" data-name="レイヤー 1">
    <g>
      <g>
        <path class="cls-1" d="M10.25,20.5C4.6,20.5,0,15.9,0,10.25S4.6,0,10.25,0h73.32v.5H10.25C4.87.5.5,4.87.5,10.25s4.37,9.75,9.75,9.75v.5Z"/>
        <path class="cls-1" d="M90.25,20.5H17.34v-.5h72.91c5.38,0,9.75-4.37,9.75-9.75S95.63.5,90.25.5v-.5c5.65,0,10.25,4.6,10.25,10.25s-4.6,10.25-10.25,10.25Z"/>
      </g>
      <g>
        <rect class="cls-1" x="77.39" y="10.27" width="9.85" height=".5"/>
        <polygon class="cls-1" points="85.51 12.6 85.16 12.25 86.88 10.52 85.16 8.79 85.51 8.44 87.59 10.52 85.51 12.6"/>
      </g>
    </g>
  </g>
</svg>