<?xml version="1.0" encoding="UTF-8"?>
<svg xmlns="http://www.w3.org/2000/svg" version="1.1" viewBox="0 0 158 110">
  <defs>
    <style>
      .cls-1 {
        fill: #fff;
      }

      .cls-2 {
        fill: red;
      }
    </style>
  </defs>
  <!-- Generator: Adobe Illustrator 28.7.1, SVG Export Plug-In . SVG Version: 1.2.0 Build 142)  -->
  <g>
    <g id="Layer_1">
      <g>
        <path class="cls-2" d="M153.5,17.5c-1.8-6.7-7.1-12-13.8-13.8C127.6.4,78.9.4,78.9.4c0,0-48.7.1-60.8,3.4-6.7,1.8-12,7.1-13.8,13.8C1.1,29.7,1.1,55,1.1,55c0,0,0,25.3,3.3,37.5,1.8,6.7,7.1,12,13.8,13.8,12.1,3.3,60.8,3.3,60.8,3.3,0,0,48.7,0,60.8-3.3,6.7-1.8,12-7.1,13.8-13.8,3.3-12.1,3.3-37.5,3.3-37.5,0,0-.1-25.3-3.4-37.5Z"/>
        <polygon class="cls-1" points="63.4 78.4 103.8 55 63.4 31.6 63.4 78.4"/>
      </g>
    </g>
  </g>
</svg>