<?xml version="1.0" encoding="UTF-8"?>
<svg id="_レイヤー_2" data-name="レイヤー 2" xmlns="http://www.w3.org/2000/svg" viewBox="0 0 83.77 26.02">
  <defs>
    <style>
      .cls-1 {
        fill: #727171;
        stroke-width: 0px;
      }
    </style>
  </defs>
  <g id="_レイヤー_1-2" data-name="レイヤー 1">
    <g>
      <g>
        <path class="cls-1" d="M33.05,24.95l-3.95-4,.2.05v3.79s-.67,0-.67,0v-5.26h.04l3.9,4.02-.16-.04v-3.83s.67,0,.67,0v5.27h-.03Z"/>
        <path class="cls-1" d="M34.04,24.79l2.22-5.32h.04l2.23,5.32h-.78l-1.67-4.24.49-.32-1.86,4.56h-.68ZM35.34,22.86h1.9l.23.59h-2.32l.2-.59Z"/>
        <path class="cls-1" d="M39.11,19.68h3.4v.66h-1.37v4.45h-.68v-4.45h-1.34v-.66Z"/>
        <path class="cls-1" d="M44.21,22.98c0,.23.06.44.17.62.11.18.26.32.45.43.19.1.39.16.62.16.24,0,.45-.05.64-.16.19-.1.34-.25.44-.43.11-.18.16-.39.16-.62v-3.3h.68v3.32c0,.37-.09.7-.25.97-.17.28-.4.49-.69.64s-.62.23-.97.23-.68-.08-.97-.23-.52-.36-.69-.64c-.17-.28-.25-.6-.25-.97v-3.32h.69v3.3Z"/>
        <path class="cls-1" d="M50.12,19.68c.26,0,.5.03.72.1.22.07.41.17.57.3.16.13.29.3.38.5s.14.42.14.68c0,.2-.03.4-.09.59s-.15.37-.29.53c-.13.16-.31.29-.53.38-.22.1-.49.15-.81.15h-.76v1.88h-.68v-5.11h1.36ZM50.19,22.25c.2,0,.37-.03.51-.09.13-.06.24-.14.31-.24s.13-.2.16-.31c.03-.11.05-.21.05-.32s-.02-.21-.05-.32c-.04-.11-.09-.21-.17-.31s-.18-.18-.3-.24c-.12-.06-.28-.09-.46-.09h-.79v1.91h.74ZM51.03,22.64l1.33,2.15h-.79l-1.36-2.13.82-.02Z"/>
        <path class="cls-1" d="M52.9,24.79l2.22-5.32h.04l2.23,5.32h-.78l-1.67-4.24.49-.32-1.86,4.56h-.68ZM54.21,22.86h1.9l.23.59h-2.32l.2-.59Z"/>
        <path class="cls-1" d="M58.36,19.68h.68v4.45h2.59v.66h-3.28v-5.11Z"/>
        <path class="cls-1" d="M66.3,19.68c.51,0,.92.11,1.21.31s.44.53.44.97c0,.27-.06.51-.18.71-.12.2-.29.35-.51.47-.22.11-.48.18-.77.2l-.1-.36c.34.01.65.07.93.18.27.11.49.27.65.47.16.2.24.44.24.72,0,.25-.05.47-.14.65-.09.18-.22.33-.38.44-.16.12-.34.2-.54.25-.2.05-.41.08-.63.08h-1.52v-5.11h1.31ZM66.44,21.92c.28,0,.49-.08.61-.23s.19-.34.19-.57c0-.27-.08-.47-.25-.59-.17-.12-.39-.18-.66-.18h-.66v1.57h.77ZM66.47,24.15c.19,0,.37-.03.52-.08.16-.06.28-.15.37-.27.09-.12.14-.27.14-.44,0-.2-.05-.35-.16-.47-.11-.11-.24-.19-.41-.24-.16-.05-.33-.07-.51-.07h-.76v1.57h.8Z"/>
        <path class="cls-1" d="M68.84,24.79l2.22-5.32h.04l2.23,5.32h-.78l-1.67-4.24.49-.32-1.86,4.56h-.68ZM70.15,22.86h1.9l.23.59h-2.32l.2-.59Z"/>
        <path class="cls-1" d="M74.3,19.68h.68v4.45h2.59v.66h-3.28v-5.11Z"/>
        <path class="cls-1" d="M78.69,24.79v-5.27h0l2.68,3.81-.29-.06,2.68-3.74h0v5.27h-.68v-3.71l.05.35-1.92,2.72h-.01l-1.96-2.72.11-.32v3.69h-.66Z"/>
      </g>
      <g>
        <path class="cls-1" d="M6.97,20.97v.53h-3.25v3.94h-.55v-3.94H0v-.53h3.18v-2.67l.71.04c0,.06-.05.1-.16.12v2.52h3.25Z"/>
        <path class="cls-1" d="M8.39,21.51h7.13v.57h-7.13v-.57Z"/>
        <path class="cls-1" d="M22.23,22.43c-.05.25-.08.47-.08.65,0,.41.14.61.39.62.57,0,1.19-.8,1.19-2.09,0-1.6-.91-2.71-2.54-2.71-1.76,0-3.24,1.47-3.24,3.72,0,1.8,1.14,2.93,2.72,2.93.63,0,1.19-.15,1.62-.39l.15.43c-.57.31-1.17.43-1.87.43-1.74,0-3.19-1.26-3.19-3.36,0-2.27,1.53-4.23,3.89-4.23,1.82,0,3.01,1.3,3.01,3.08s-.89,2.67-1.87,2.67c-.42,0-.8-.29-.76-.96h-.04c-.39.67-.9.96-1.52.96s-1.13-.49-1.13-1.33c0-1.34,1.05-2.62,2.56-2.62.44,0,.82.09,1.09.21l-.38,2ZM21.95,20.82c-.11-.04-.29-.09-.54-.09-1,0-1.8.99-1.8,2.08,0,.5.25.84.72.84.65,0,1.23-.85,1.37-1.52l.25-1.31Z"/>
      </g>
      <g>
        <g>
          <path class="cls-1" d="M21.09,1.84h1.91v3.45h2.91v1.48h-2.91v6.25h-1.91v-6.25h-1.37v-1.48h1.37V1.84Z"/>
          <path class="cls-1" d="M28.09,9.07c0-.78.19-1.48.56-2.11.37-.63.88-1.13,1.54-1.49.65-.36,1.41-.55,2.26-.55s1.6.18,2.23.55c.64.36,1.13.86,1.48,1.49.35.63.53,1.33.53,2.11s-.18,1.48-.53,2.11c-.35.63-.85,1.13-1.49,1.49-.64.36-1.4.55-2.26.55s-1.57-.17-2.21-.51c-.65-.34-1.16-.82-1.54-1.45-.38-.62-.57-1.36-.57-2.2ZM30.02,9.07c0,.49.1.93.31,1.32.21.38.49.69.85.92.36.23.75.34,1.19.34.47,0,.89-.11,1.25-.34.36-.23.65-.54.84-.93.2-.39.3-.82.3-1.31s-.1-.9-.3-1.29c-.2-.39-.48-.7-.83-.94-.36-.23-.78-.35-1.26-.35-.44,0-.85.12-1.2.35-.36.23-.64.55-.84.94-.2.39-.31.82-.31,1.29Z"/>
          <path class="cls-1" d="M61.72,9.07c0-.78.19-1.48.56-2.11.37-.63.88-1.13,1.54-1.49.65-.36,1.41-.55,2.26-.55s1.6.18,2.23.55c.64.36,1.13.86,1.48,1.49.35.63.53,1.33.53,2.11s-.18,1.48-.53,2.11c-.35.63-.85,1.13-1.49,1.49-.64.36-1.4.55-2.26.55s-1.57-.17-2.21-.51c-.65-.34-1.16-.82-1.54-1.45-.38-.62-.57-1.36-.57-2.2ZM63.64,9.07c0,.49.1.93.31,1.32.21.38.49.69.85.92.36.23.75.34,1.19.34.47,0,.89-.11,1.25-.34.36-.23.65-.54.84-.93.2-.39.3-.82.3-1.31s-.1-.9-.3-1.29c-.2-.39-.48-.7-.83-.94-.36-.23-.78-.35-1.26-.35-.44,0-.85.12-1.2.35-.36.23-.64.55-.84.94-.2.39-.31.82-.31,1.29Z"/>
          <path class="cls-1" d="M40.06,2.47c0-.3.12-.54.36-.74.24-.2.5-.3.77-.3s.52.1.74.3c.22.2.33.44.33.74s-.11.54-.33.74c-.22.2-.47.3-.74.3s-.53-.1-.77-.3c-.24-.2-.36-.44-.36-.74ZM40.17,5.27h1.91v7.75h-1.91v-7.75Z"/>
          <path class="cls-1" d="M46.73,2.47c0-.3.12-.54.36-.74.24-.2.5-.3.77-.3s.52.1.74.3c.22.2.33.44.33.74s-.11.54-.33.74c-.22.2-.47.3-.74.3s-.53-.1-.77-.3c-.24-.2-.36-.44-.36-.74ZM46.84,5.27h1.91v7.75h-1.91v-7.75Z"/>
          <path class="cls-1" d="M54.09,13.02v-6.08h-1.32v-1.69h1.32v-1.79c0-1.1.27-1.95.8-2.56.53-.61,1.3-.91,2.32-.91.27,0,.57.04.91.11.33.07.63.2.89.39l-.8,1.39c-.11-.12-.24-.21-.38-.25-.14-.04-.28-.06-.42-.06-.44,0-.79.15-1.04.44-.25.29-.37.79-.37,1.49v1.75h3.29v1.69h-3.29v6.08h-1.91Z"/>
          <path class="cls-1" d="M63.66,2.6h4.84v1.33h-4.84v-1.33Z"/>
        </g>
        <rect class="cls-1" x="68.53" y="5.27" width="1.89" height="7.75"/>
      </g>
    </g>
  </g>
</svg>