<?xml version="1.0" encoding="UTF-8"?>
<svg xmlns="http://www.w3.org/2000/svg" xmlns:xlink="http://www.w3.org/1999/xlink" viewBox="0 0 170 100">
  <defs>
    <style>
      .cls-1 {
        fill: #c92a1d;
        mix-blend-mode: multiply;
      }

      .cls-2 {
        opacity: .8;
      }

      .cls-2, .cls-3 {
        mix-blend-mode: overlay;
      }

      .cls-4 {
        fill: #fff;
      }

      .cls-5, .cls-6, .cls-7 {
        fill: none;
      }

      .cls-8 {
        isolation: isolate;
      }

      .cls-6 {
        stroke: #040000;
        stroke-width: .76px;
      }

      .cls-6, .cls-7 {
        stroke-miterlimit: 10;
      }

      .cls-9 {
        fill: #f0f0f2;
      }

      .cls-10 {
        fill: #484947;
      }

      .cls-11 {
        fill: #ab8f4a;
      }

      .cls-12 {
        clip-path: url(#clippath);
      }

      .cls-7 {
        stroke: #484947;
      }
    </style>
    <clipPath id="clippath">
      <path class="cls-5" d="M13.57,0C6.08,0,0,6.72,0,15v70c0,8.28,6.08,15,13.57,15h156.43V0H13.57Z"/>
    </clipPath>
  </defs>
  <g class="cls-8">
    <g id="_レイヤー_2" data-name="レイヤー 2">
      <g id="_レイヤー_1-2" data-name="レイヤー 1">
        <g>
          <path class="cls-9" d="M13.57,0C6.08,0,0,6.72,0,15v70c0,8.28,6.08,15,13.57,15h156.43V0H13.57Z"/>
          <g class="cls-12">
            <circle class="cls-1" cx="124.16" cy="-11.66" r="65.13"/>
            <g class="cls-2">
              <path class="cls-6" d="M37.78-152.33c10.93,25.65-.4,62.36-15.69,93.94C12.98-39.57,2.19-20.45-.52-1.16c-4.79,34.17,16.94,57.41,39.66,72.8,22.73,15.39,49.07,28.78,58.24,57.49,11.25,35.23-6.82,81.74-24.41,123.28-11.06,26.14-22.13,52.28-33.19,78.42-5.47,12.93-11.01,26.07-13.38,39.19-3.55,19.69.3,37.72,5.41,54.28,5.07,16.46,11.4,32.12,18.9,46.83"/>
              <path class="cls-6" d="M33.49-147.96c11.29,25.27.45,61.89-14.42,93.49C10.21-35.64-.33-16.48-2.77,2.71-7.1,36.7,14.97,59.39,37.93,74.28c22.96,14.89,49.52,27.74,59.09,56.06,11.75,34.77-5.71,81.23-22.74,122.76-10.72,26.13-21.43,52.26-32.15,78.39-5.3,12.93-10.66,26.06-12.85,39.12-3.29,19.6.82,37.43,6.16,53.77,5.31,16.25,11.85,31.69,19.56,46.16"/>
              <path class="cls-6" d="M29.2-143.59c11.66,24.89,1.31,61.43-13.14,93.05C7.45-31.7-2.85-12.51-5.03,6.58c-3.86,33.82,18.55,55.96,41.75,70.35,23.2,14.39,49.97,26.69,59.94,54.64,12.25,34.31-4.59,80.73-21.07,122.23-10.37,26.12-20.74,52.23-31.11,78.35-5.13,12.92-10.32,26.04-12.33,39.05-3.02,19.51,1.34,37.14,6.91,53.27,5.54,16.03,12.3,31.25,20.23,45.48"/>
              <path class="cls-6" d="M24.91-139.22c12.02,24.51,2.17,60.96-11.87,92.6C4.68-27.77-5.36-8.54-7.28,10.45c-3.4,33.64,19.36,55.24,42.79,69.13,23.44,13.89,50.41,25.64,60.8,53.22,12.74,33.85-3.47,80.22-19.4,121.71-10.02,26.11-20.04,52.21-30.06,78.32-4.96,12.92-9.97,26.03-11.81,38.98-2.75,19.42,1.86,36.85,7.66,52.77,5.77,15.82,12.76,30.81,20.89,44.81"/>
              <path class="cls-6" d="M20.61-134.85c12.38,24.13,3.02,60.5-10.59,92.15C1.91-23.84-7.88-4.57-9.53,14.32c-2.93,33.46,20.17,54.52,43.84,67.91,23.67,13.39,50.86,24.59,61.65,51.8,13.24,33.4-2.36,79.72-17.73,121.19-9.67,26.1-19.35,52.19-29.02,78.29-4.79,12.91-9.62,26.02-11.28,38.91-2.49,19.33,2.38,36.56,8.42,52.26,6,15.61,13.21,30.38,21.56,44.13"/>
              <path class="cls-6" d="M16.32-130.49c12.75,23.75,3.88,60.03-9.31,91.71C-.86-19.91-10.4-.6-11.79,18.19c-2.47,33.28,20.97,53.8,44.88,66.68,23.91,12.89,51.31,23.54,62.5,50.38,13.73,32.94-1.24,79.21-16.06,120.67-9.33,26.08-18.65,52.17-27.98,78.25-4.61,12.9-9.28,26.01-10.76,38.84-2.22,19.25,2.9,36.27,9.17,51.76,6.23,15.4,13.67,29.94,22.22,43.46"/>
              <path class="cls-6" d="M12.03-126.12c13.11,23.37,4.74,59.56-8.04,91.26C-3.62-15.97-12.91,3.37-14.04,22.06c-2,33.1,21.78,53.07,45.93,65.46,24.14,12.39,51.76,22.49,63.36,48.95,14.23,32.48-.12,78.71-14.39,120.15-8.98,26.07-17.96,52.15-26.94,78.22-4.44,12.9-8.93,26-10.23,38.77-1.95,19.16,3.42,35.98,9.92,51.26,6.47,15.19,14.12,29.5,22.88,42.78"/>
              <path class="cls-6" d="M7.74-121.75C21.22-98.76,13.33-62.65.97-30.94-6.39-12.04-15.43,7.34-16.3,25.92c-1.54,32.92,22.59,52.35,46.97,64.23,24.38,11.88,52.21,21.44,64.21,47.53,14.73,32.02.99,78.21-12.72,119.62-8.63,26.06-17.26,52.12-25.89,78.19-4.27,12.89-8.58,25.99-9.71,38.69-1.69,19.07,3.94,35.68,10.67,50.75,6.7,14.98,14.57,29.07,23.55,42.11"/>
              <path class="cls-6" d="M3.45-117.38c13.84,22.61,6.45,58.63-5.49,90.37C-9.16-8.11-17.95,11.31-18.55,29.79c-1.07,32.75,23.4,51.63,48.01,63.01,24.62,11.38,52.66,20.39,65.06,46.11,15.22,31.57,2.11,77.7-11.05,119.1-8.28,26.05-16.57,52.1-24.85,78.15-4.1,12.89-8.24,25.98-9.18,38.62-1.42,18.98,4.46,35.39,11.42,50.25,6.93,14.77,15.03,28.63,24.21,41.43"/>
              <path class="cls-6" d="M-.85-113.01c14.21,22.23,7.31,58.16-4.21,89.92C-11.93-4.17-20.46,15.28-20.8,33.66c-.61,32.57,24.2,50.91,49.06,61.79,24.85,10.88,53.11,19.34,65.91,44.69,15.72,31.11,3.23,77.2-9.38,118.58-7.94,26.04-15.87,52.08-23.81,78.12-3.93,12.88-7.89,25.96-8.66,38.55-1.15,18.89,4.97,35.1,12.18,49.75,7.16,14.56,15.48,28.19,24.88,40.76"/>
              <path class="cls-6" d="M-5.14-108.64c14.57,21.85,8.17,57.7-2.94,89.47C-14.69-.24-22.98,19.25-23.06,37.53c-.14,32.39,25.01,50.18,50.1,60.56,25.09,10.38,53.55,18.29,66.77,43.27,16.22,30.65,4.34,76.69-7.71,118.06-7.59,26.03-15.18,52.06-22.76,78.09-3.75,12.88-7.54,25.95-8.13,38.48-.88,18.8,5.49,34.81,12.93,49.24,7.39,14.35,15.94,27.76,25.54,40.08"/>
              <path class="cls-6" d="M-9.43-104.28C5.5-82.8-.41-47.04-11.09-15.25c-6.37,18.94-14.4,38.47-14.22,56.66.32,32.21,25.82,49.46,51.14,59.34,25.32,9.88,54,17.24,67.62,41.84,16.71,30.19,5.46,76.19-6.04,117.53-7.24,26.02-14.48,52.04-21.72,78.05-3.58,12.87-7.2,25.94-7.61,38.41-.62,18.71,6.01,34.52,13.68,48.74,7.62,14.14,16.39,27.32,26.21,39.41"/>
              <path class="cls-6" d="M-13.72-99.91C1.58-78.82-3.84-43.14-14.11-11.33c-6.12,18.95-13.9,38.52-13.46,56.6.79,32.03,26.63,48.74,52.19,58.12,25.56,9.38,54.45,16.2,68.47,40.42,17.21,29.73,6.58,75.68-4.37,117.01-6.89,26.01-13.78,52.01-20.68,78.02-3.41,12.87-6.85,25.93-7.08,38.34-.35,18.62,6.53,34.23,14.43,48.24,7.86,13.93,16.84,26.88,26.87,38.73"/>
              <path class="cls-6" d="M-18.02-95.54c15.66,20.71,10.74,56.3.89,88.13-5.87,18.97-13.4,38.57-12.69,56.55,1.25,31.86,27.44,48.02,53.23,56.89,25.8,8.87,54.9,15.15,69.33,39,17.71,29.28,7.7,75.18-2.7,116.49-6.54,26-13.09,51.99-19.63,77.99-3.24,12.86-6.5,25.92-6.56,38.27-.08,18.53,7.05,33.94,15.19,47.73,8.09,13.72,17.3,26.45,27.53,38.05"/>
              <path class="cls-6" d="M-22.31-91.17C-6.28-70.84-10.71-35.34-20.14-3.49c-5.62,18.98-12.9,38.62-11.93,56.5,1.72,31.68,28.24,47.3,54.28,55.67,26.03,8.37,55.35,14.1,70.18,37.58,18.2,28.82,8.81,74.67-1.04,115.97-6.2,25.99-12.39,51.97-18.59,77.96-3.07,12.86-6.16,25.91-6.03,38.2.18,18.44,7.57,33.65,15.94,47.23,8.32,13.51,17.75,26.01,28.2,37.38"/>
              <path class="cls-6" d="M-26.6-86.8C-10.21-66.85-14.14-31.44-23.16.43c-5.37,18.99-12.4,38.67-11.17,56.45,2.18,31.5,29.05,46.57,55.32,54.44,26.27,7.87,55.8,13.05,71.03,36.16,18.7,28.36,9.93,74.17.63,115.45-5.85,25.97-11.7,51.95-17.55,77.92-2.89,12.85-5.81,25.9-5.51,38.13.45,18.35,8.09,33.35,16.69,46.73,8.55,13.3,18.21,25.57,28.86,36.7"/>
              <path class="cls-6" d="M-30.89-82.43C-14.13-62.86-17.58-27.53-26.18,4.35c-5.12,19-11.9,38.72-10.4,56.4,2.65,31.32,29.86,45.85,56.36,53.22,26.5,7.37,56.24,12,71.89,34.74,19.2,27.9,11.05,73.66,2.3,114.92-5.5,25.96-11,51.93-16.51,77.89-2.72,12.84-5.46,25.89-4.98,38.06.72,18.26,8.61,33.06,17.44,46.22,8.78,13.08,18.66,25.14,29.53,36.03"/>
              <path class="cls-6" d="M-35.18-78.07c17.12,19.19,14.17,54.43,5.99,86.34-4.87,19.01-11.4,38.77-9.64,56.35,3.11,31.14,30.67,45.13,57.41,52,26.74,6.87,56.69,10.95,72.74,33.31,19.69,27.45,12.16,73.16,3.97,114.4-5.15,25.95-10.31,51.9-15.46,77.86-2.55,12.84-5.12,25.87-4.46,37.99.99,18.17,9.13,32.77,18.2,45.72,9.01,12.87,19.11,24.7,30.19,35.35"/>
              <path class="cls-6" d="M-39.48-73.7c17.49,18.81,15.03,53.97,7.26,85.89-4.63,19.02-10.9,38.82-8.88,56.3,3.58,30.97,31.47,44.41,58.45,50.77,26.98,6.37,57.14,9.9,73.59,31.89,20.19,26.99,13.28,72.65,5.64,113.88-4.81,25.94-9.61,51.88-14.42,77.82-2.38,12.83-4.77,25.86-3.93,37.91,1.25,18.09,9.65,32.48,18.95,45.22,9.25,12.66,19.57,24.26,30.86,34.68"/>
              <path class="cls-6" d="M-43.77-69.33c17.85,18.44,15.88,53.5,8.54,85.45-4.38,19.03-10.4,38.86-8.12,56.24,4.04,30.79,32.28,43.68,59.49,49.55,27.21,5.87,57.59,8.85,74.44,30.47,20.69,26.53,14.4,72.15,7.31,113.36-4.46,25.93-8.92,51.86-13.38,77.79-2.21,12.83-4.42,25.85-3.41,37.84,1.52,18,10.17,32.19,19.7,44.71,9.48,12.45,20.02,23.83,31.52,34"/>
              <path class="cls-6" d="M-48.06-64.96C-29.84-46.91-31.32-11.93-38.25,20.04c-4.13,19.05-9.9,38.91-7.35,56.19,4.51,30.61,33.09,42.96,60.54,48.33,27.45,5.36,58.04,7.8,75.3,29.05,21.18,26.07,15.51,71.65,8.98,112.84-4.11,25.92-8.22,51.84-12.33,77.76-2.03,12.82-4.08,25.84-2.89,37.77,1.79,17.91,10.69,31.9,20.45,44.21,9.71,12.24,20.48,23.39,32.19,33.33"/>
              <path class="cls-6" d="M-52.35-60.59c18.58,17.68,17.6,52.57,11.09,84.55-3.88,19.06-9.4,38.96-6.59,56.14,4.97,30.43,33.9,42.24,61.58,47.1,27.68,4.86,58.49,6.75,76.15,27.63,21.68,25.62,16.63,71.14,10.65,112.31-3.76,25.91-7.53,51.82-11.29,77.72-1.86,12.82-3.73,25.83-2.36,37.7,2.05,17.82,11.2,31.61,21.21,43.71,9.94,12.03,20.93,22.95,32.85,32.65"/>
              <path class="cls-6" d="M-56.64-56.22c18.94,17.3,18.46,52.1,12.37,84.11-3.63,19.07-8.9,39.01-5.83,56.09,5.44,30.25,34.7,41.52,62.63,45.88,27.92,4.36,58.93,5.71,77,26.2,22.18,25.16,17.75,70.64,12.32,111.79-3.42,25.9-6.83,51.79-10.25,77.69-1.69,12.81-3.38,25.82-1.84,37.63,2.32,17.73,11.72,31.31,21.96,43.2,10.17,11.82,21.38,22.52,33.51,31.98"/>
              <path class="cls-6" d="M-60.94-51.86C-41.63-34.94-41.62-.22-47.3,31.8c-3.38,19.08-8.4,39.06-5.06,56.04,5.9,30.07,35.51,40.8,63.67,44.65,28.16,3.86,59.38,4.66,77.86,24.78,22.67,24.7,18.87,70.13,13.99,111.27-3.07,25.89-6.14,51.77-9.2,77.66-1.52,12.81-3.04,25.81-1.31,37.56,2.59,17.64,12.24,31.02,22.71,42.7,10.41,11.61,21.84,22.08,34.18,31.3"/>
              <path class="cls-6" d="M-65.23-47.49C-45.55-30.95-45.06,3.68-50.31,35.72c-3.13,19.09-7.9,39.11-4.3,55.99,6.37,29.9,36.32,40.07,64.71,43.43,28.39,3.36,59.83,3.61,78.71,23.36,23.17,24.24,19.98,69.63,15.66,110.75-2.72,25.87-5.44,51.75-8.16,77.62-1.35,12.8-2.69,25.79-.79,37.49,2.85,17.55,12.76,30.73,23.46,42.2,10.64,11.4,22.29,21.64,34.84,30.63"/>
              <path class="cls-6" d="M-69.52-43.12C-49.48-26.96-48.49,7.58-53.33,39.64c-2.88,19.1-7.39,39.16-3.54,55.94,6.83,29.72,37.13,39.35,65.76,42.21,28.63,2.86,60.28,2.56,79.56,21.94,23.67,23.78,21.1,69.12,17.33,110.22-2.37,25.86-4.75,51.73-7.12,77.59-1.17,12.8-2.34,25.78-.26,37.42,3.12,17.46,13.28,30.44,24.21,41.69,10.87,11.19,22.75,21.21,35.51,29.95"/>
              <path class="cls-6" d="M-73.81-38.75c20.4,15.78,21.89,50.24,17.47,82.32-2.63,19.11-6.89,39.21-2.78,55.88,7.29,29.54,37.94,38.63,66.8,40.98,28.86,2.35,60.73,1.51,80.42,20.52,24.16,23.33,22.22,68.62,19,109.7-2.02,25.85-4.05,51.71-6.07,77.56-1,12.79-2,25.77.26,37.35,3.39,17.37,13.8,30.15,24.97,41.19,11.1,10.98,23.2,20.77,36.17,29.28"/>
              <path class="cls-6" d="M-78.1-34.38c20.77,15.4,22.74,49.77,18.74,81.87-2.38,19.13-6.39,39.26-2.01,55.83,7.76,29.36,38.74,37.91,67.84,39.76,29.1,1.85,61.18.46,81.27,19.09,24.66,22.87,23.33,68.11,20.67,109.18-1.68,25.84-3.35,51.68-5.03,77.53-.83,12.78-1.65,25.76.79,37.28,3.66,17.28,14.32,29.86,25.72,40.69,11.33,10.77,23.66,20.33,36.84,28.6"/>
              <path class="cls-6" d="M-82.4-30.01c21.13,15.02,23.6,49.3,20.02,81.42-2.13,19.14-5.89,39.31-1.25,55.78,8.22,29.18,39.55,37.18,68.89,38.54,29.34,1.35,61.63-.59,82.12,17.67,25.16,22.41,24.45,67.61,22.34,108.66-1.33,25.83-2.66,51.66-3.99,77.49-.66,12.78-1.3,25.75,1.31,37.21,3.92,17.19,14.84,29.57,26.47,40.18,11.56,10.56,24.11,19.9,37.5,27.93"/>
              <path class="cls-6" d="M-86.69-25.65c21.5,14.64,24.46,48.84,21.29,80.98-1.89,19.15-5.39,39.36-.49,55.73,8.69,29.01,40.36,36.46,69.93,37.31,29.57.85,62.07-1.64,82.98,16.25,25.65,21.95,25.57,67.1,24.01,108.14-.98,25.82-1.96,51.64-2.95,77.46-.49,12.77-.95,25.74,1.84,37.14,4.19,17.1,15.36,29.28,27.22,39.68,11.8,10.34,24.56,19.46,38.16,27.25"/>
            </g>
          </g>
          <circle class="cls-11" cx="141.02" cy="74.43" r="20"/>
          <g>
            <path class="cls-4" d="M134.41,71.01c-.13,0-.16.02-.32.04-.86.14-1.66.21-2.42.21-.91,0-1.67-.11-2.13-.29-.7-.28-1.06-.75-1.06-1.4,0-.61.33-1.17,1.07-1.8l.55.41c-.58.48-.85.88-.85,1.3,0,.39.25.67.74.83.32.1.92.16,1.63.16,1.11,0,2.2-.14,2.72-.35l.08.88ZM129.03,64.78c.59.14,1.39.22,2.41.22,1.13,0,1.85-.05,2.37-.18l.05.72c-.56.23-1.4.75-2.3,1.4l-.55-.44c.58-.39.75-.49,1.11-.69.1-.05.12-.06.23-.13l.17-.09c-.53.07-.85.1-1.34.1-.59,0-1.36-.04-1.9-.12-.16-.02-.19-.02-.31-.03l.06-.77ZM133.56,66.4c.42.5.63.81.95,1.4l-.53.3c-.28-.56-.57-1.01-.94-1.42l.52-.27ZM134.59,65.91c.42.5.62.77.94,1.37l-.52.3c-.26-.52-.53-.93-.93-1.4l.5-.27Z"/>
            <path class="cls-4" d="M144.11,64.72q-.1.08-.28.24c-.61.53-1.3,1.01-2.16,1.49.19.13.28.2.63.45l-.24.24h1.62c.54,0,.77,0,.97-.04l.41.44s-.03.04-.07.1c0,0-.04.04-.07.08-.02.03-.05.07-.1.14-.67.85-.94,1.13-1.63,1.67-.18-.2-.32-.31-.57-.46.62-.43.95-.73,1.4-1.29h-2.55v3.38c0,.63-.23.79-1.18.79-.24,0-.76-.02-1.03-.04-.04-.33-.07-.48-.18-.73.54.07.87.1,1.29.1.31,0,.39-.05.39-.25v-3.26h-2.68c-.42,0-.68.02-.99.05v-.75c.27.04.55.05,1.05.05h3.38c-.69-.53-1.38-.95-2.36-1.45l.46-.47c.69.37.99.54,1.47.84.74-.39,1.21-.7,1.78-1.18h-3.98c-.5,0-.69,0-.97.04v-.72c.28.04.53.05.99.05h4.1c.34,0,.48,0,.69-.04l.41.5Z"/>
            <path class="cls-4" d="M147.5,68.91c-.14,1.31-.24,1.79-.55,2.58l-.58-.28c.31-.7.42-1.23.55-2.41l.58.11ZM146.37,67.72c.13.02.2.03.34.03.08,0,.15,0,.42,0,.31-.37.41-.49.64-.81-.46-.57-.66-.77-1.32-1.37l.39-.5.35.35c.44-.67.76-1.27.85-1.6l.65.28c-.07.08-.11.14-.21.33-.23.44-.58.99-.87,1.4.2.2.29.3.54.59.63-.92.89-1.35,1.02-1.67l.61.36c-.08.11-.14.19-.27.38-.61.93-1.18,1.71-1.62,2.21.69-.04.85-.06,1.32-.12-.11-.26-.15-.36-.32-.68l.49-.2c.31.55.52,1.04.77,1.73l-.55.23c-.08-.29-.12-.38-.17-.55-.1,0-.17.02-.23.03q-.2.02-.57.06v2.93c0,.4.02.65.05.93h-.75c.04-.25.05-.54.05-.94v-2.85q-.62.05-.96.08c-.38.03-.39.03-.56.05l-.1-.68ZM149.61,68.75c.23.77.37,1.4.5,2.19l-.6.17c-.1-.8-.23-1.51-.43-2.21l.53-.15ZM151.11,65.94c-.28.55-.53.95-.9,1.4-.17-.2-.32-.31-.54-.45.41-.46.75-.99,1.03-1.62.26-.6.39-1,.45-1.39l.73.16q-.08.18-.21.55c-.09.27-.15.42-.26.69h2.17c.37,0,.54,0,.73-.04q-.03.28-.04,1.44c0,1.46-.18,3.29-.38,4.12-.22.88-.45,1.06-1.41,1.06-.23,0-.5-.02-.89-.05-.04-.29-.08-.47-.18-.74.48.08.85.12,1.19.12.42,0,.52-.11.65-.68.21-.96.34-2.67.35-4.59h-2.48ZM151.92,69.59c-.4-1.04-.62-1.44-1.18-2.24l.56-.32c.58.83.83,1.28,1.23,2.22l-.61.34Z"/>
            <path class="cls-4" d="M134.24,80.3c-.13.12-.19.19-.32.34-.66.79-1.05,1.16-1.75,1.66,1.04.54,1.95.81,3.47,1.02-.14.22-.26.43-.36.71-1.11-.19-1.72-.35-2.48-.67-.48-.2-.78-.36-1.26-.66-1.08.63-2.18,1.03-3.64,1.31-.1-.29-.18-.43-.37-.68,1.34-.18,2.39-.5,3.42-1.05-.66-.53-.97-.91-1.57-1.84-.24,0-.41.02-.6.04v-.7c.23.04.53.05.91.05h3.32c.38,0,.59,0,.79-.04l.43.5ZM129.37,78.29c-.13-.4-.25-.72-.45-1.13-.23,0-.35,0-.75,0q-.05-.25-.24-.67c.24.03.36.03.59.03,2.32,0,5.02-.33,5.99-.74l.46.62q-.12.03-.37.09c-.78.19-1.65.32-3.03.48.2.46.3.76.45,1.31h.96c.32-.55.52-.98.71-1.53l.69.23c-.39.8-.5,1.01-.67,1.3h.72c.49,0,.75,0,1.01-.04-.03.22-.04.42-.04.7v.6c0,.23.02.41.04.59h-.72v-1.22h-6.35v1.27h-.72c.03-.19.04-.43.04-.66v-.59c0-.24,0-.42-.04-.7.27.04.56.04,1.07.04h.63ZM131.35,78.29c-.13-.47-.26-.83-.45-1.24-.65.05-.68.05-1.31.08.21.45.32.73.47,1.16h1.29ZM130.15,80.43c.42.65.8,1.05,1.4,1.49.69-.45,1.12-.83,1.66-1.49h-3.06Z"/>
            <path class="cls-4" d="M138.9,82.96c0,.41,0,.73.04,1.07h-.79c.04-.32.05-.62.05-1.09v-2.91c0-.43,0-.68.03-1.06-.33.56-.51.8-.95,1.28-.17-.34-.19-.38-.42-.64.77-.8,1.29-1.59,1.76-2.67.23-.52.35-.86.4-1.14l.76.22c-.04.08-.12.25-.18.41-.14.38-.41.95-.7,1.53v5ZM143.77,83c0,.67-.21.82-1.09.82-.4,0-.67,0-1.08-.05-.04-.3-.09-.45-.21-.72.54.08.8.1,1.21.1s.48-.04.48-.23v-4.34h-2.73c-.37,0-.71.02-.98.05v-.74c.25.04.57.05.96.05h2.75v-.97c0-.42-.03-.81-.06-1.07h.81c-.04.31-.05.63-.05,1.08v.96h.39c.37,0,.64-.02.86-.05v.72c-.25-.02-.56-.04-.85-.04h-.4v4.42ZM140.47,79.32c.66.74.98,1.2,1.49,2.05l-.6.44c-.44-.86-.86-1.49-1.44-2.12l.56-.38Z"/>
            <path class="cls-4" d="M150.02,76.79c0-.44-.02-.66-.06-.95h.84c-.04.27-.05.52-.05.93v.73h2.58c.32,0,.5,0,.71-.04-.03.23-.04.42-.04.74v2.55c0,.32,0,.56.04.82h-.76v-.58h-2.55v2.02c0,.52,0,.77.06,1.05h-.85c.04-.31.06-.57.06-1.05v-2.02h-2.42v.58h-.76c.04-.27.05-.5.05-.82v-2.56c0-.3-.02-.5-.04-.73.23.03.4.04.71.04h2.47v-.71ZM147.6,78.16v2.17h2.42v-2.17h-2.42ZM153.29,80.33v-2.17h-2.55v2.17h2.55Z"/>
          </g>
          <g>
            <path class="cls-10" d="M48.49,51.21c-.11.22-.54.43-1.05.24-.92.78-2.73,1.97-4.35,2.89,1.4,2.35,3.32,4.21,5.72,5.18l-.03.3c-.84.19-1.51.92-1.78,2-3.97-2.51-5.75-6.8-6.64-13.01h-1.89v9.37c1.3-.3,2.67-.65,4.08-1.03l.11.41c-1.59.84-3.91,2.05-7.18,3.56-.11.38-.32.57-.57.67l-1.54-2.46c.7-.13,1.81-.38,3.13-.67v-9.85h-1.86c-.19,4.32-1.05,9.31-4.83,12.88l-.4-.3c2.92-4.45,3.24-10.04,3.24-15.22v-2.43c-.11.22-.32.3-.65.3h-2.94v5.05c1.03-.32,2.13-.67,3.21-1.03l.11.35c-.89.54-2,1.19-3.32,1.97v8.64c0,1.67-.3,2.62-2.92,2.89-.05-.67-.19-1.21-.51-1.54-.38-.35-.94-.59-1.97-.76v-.4s2.27.16,2.75.16c.43,0,.57-.13.57-.51v-7.31c-.73.4-1.51.84-2.35,1.27-.11.32-.32.59-.62.7l-1.05-2.65c.81-.19,2.27-.59,4.02-1.13v-5.7h-3.37l-.22-.78h3.59v-6.26l3.05.32c-.05.4-.32.67-.97.76v5.18h.43l1.16-1.73s1.24,1.16,2,2.02v-5.34l2.43,1h9.37l1.35-1.78s1.54,1.24,2.48,2.13c-.08.27-.35.4-.7.4h-12.88v6.21c0,.59,0,1.21-.03,1.86h9.96l1.35-1.75s1.54,1.24,2.48,2.11c-.08.3-.35.43-.7.43h-6.88c.46,1.84,1.11,3.56,1.97,5.07,1.16-1.38,2.51-3.32,3.16-4.37l2.48,1.7ZM43.25,43.59l1.3-1.67s1.46,1.19,2.4,2.05c-.08.3-.35.43-.73.43h-9.99l-.22-.81h7.23Z"/>
            <path class="cls-10" d="M64.64,46.52c-.19.24-.49.32-1.11.35-.76,1.65-1.84,3.32-3.16,4.91.49.19.92.38,1.3.59.49-.73,1.05-1.65,1.59-2.59l1.94,1.13c-.16.22-.51.43-1.03.27-.59.54-1.24,1.11-1.83,1.57,3.21,2.05,1.89,4.54.32,3.4-.35-1.11-1.38-2.54-2.32-3.64v12.12c0,.16-.67.67-1.65.67h-.35v-11.36c-1.19,1.11-2.51,2.13-3.94,2.97l-.3-.38c2.97-2.51,5.72-6.4,7.1-9.88h-6.4l-.24-.81h3.83v-5.37l3,.3c-.05.38-.3.65-1,.76v4.32h.97l1.29-1.19,1.97,1.86ZM79.19,46.87c-.19.24-.49.43-1.11.51v17.11c0,.16-.76.65-1.75.65h-.32v-1.97h-8.77v1.48c0,.16-.65.62-1.67.62h-.35v-19.84l2.35.94h3v-5.83l2.89.3c-.05.38-.24.62-.86.73v4.8h3.29l1.08-1.3,2.24,1.78ZM67.23,47.16v6.96h3.32v-6.96h-3.32ZM67.23,62.39h3.32v-7.45h-3.32v7.45ZM72.58,47.16v6.96h3.43v-6.96h-3.43ZM76.01,62.39v-7.45h-3.43v7.45h3.43Z"/>
          </g>
          <g>
            <path class="cls-10" d="M42.2,69.74s1.09.94,1.74,1.62c-.06.23-.27.34-.57.34h-2.86v1.89c4.72,1.78,3.4,4.85,1.89,3.67-.25-1.03-1.11-2.33-1.89-3.25v10.85c0,.21-.67.57-1.28.57h-.36v-9.72c-.9,1.89-2.06,3.59-3.48,5.02l-.29-.23c1.64-2.41,2.77-5.69,3.42-8.8h-2.86l-.17-.61h3.38v-4.98l2.42.27c-.06.31-.23.5-.78.59v4.12h.73l.95-1.34ZM54.53,68.25c-.13.19-.46.36-.88.44v15.96c-.02.13-.82.59-1.43.59h-.25v-1.89h-5.88v1.32c0,.21-.61.63-1.36.63h-.29v-18.33l1.76.82h5.56l.88-1.03,1.89,1.49ZM46.08,68.35v4.3h5.88v-4.3h-5.88ZM46.08,73.26v4.37h5.88v-4.37h-5.88ZM51.96,82.73v-4.49h-5.88v4.49h5.88Z"/>
            <path class="cls-10" d="M64.73,77.46s1.07.86,1.74,1.47c-.06.23-.25.34-.55.34h-7.41l-.17-.61h5.42l.97-1.2ZM59.46,76.62l-.17-.59h3.57l.92-1.22s1.09.86,1.74,1.49c-.06.23-.25.31-.53.31h-5.54ZM64,80.24s1.01.8,1.6,1.41c-.04.23-.23.34-.52.34h-5.56l-.17-.63h3.74l.92-1.11ZM59.51,84.67l-.17-.61h3.74l.92-1.13s1.01.82,1.6,1.41c-.04.23-.23.34-.52.34h-5.56ZM65.97,87.14c-.13.17-.44.34-.86.4v5.04c0,.15-.76.5-1.28.5h-.25v-1.03h-2.71v1.3c0,.15-.63.5-1.3.5h-.21v-7.89l1.62.73h2.42l.82-.9,1.76,1.34ZM63.58,91.43v-4.14h-2.71v4.14h2.71ZM77.67,85.88c-.08.17-.34.36-.78.27-.67.73-1.93,2.04-3.13,2.96.82,1.41,2.14,2.41,4.22,3.13l-.02.25c-.82.15-1.28.57-1.43,1.49-2.81-1.32-3.86-3.88-4.28-7.41-.34,3.15-1.51,5.65-6.78,7.33l-.23-.34c5.61-2.37,5.5-5.77,5.52-10.58l2.31.21c-.04.29-.21.48-.67.55.15,2.04.46,3.7,1.16,5.02.69-1.28,1.51-3.07,1.85-3.99l2.27,1.11ZM65.93,84.1c5.04-2.2,5-5.29,5.02-9.3l2.29.21c-.04.27-.21.48-.65.55-.06,1.55-.13,2.98-.61,4.28.53.13.99.25,1.41.4.69-1.22,1.55-3.07,1.91-4.01l2.16,1.05c-.08.19-.36.38-.78.29-.63.71-1.85,1.87-2.98,2.77,4.72,1.68,4.12,4.41,2.46,3.7-.82-1.18-2.77-2.79-4.33-3.82-.76,1.7-2.31,3.13-5.67,4.22l-.23-.34ZM68.87,84.88c.57,2.08-.08,3.57-.86,4.09-.52.36-1.26.38-1.51-.13-.19-.48.1-.92.57-1.2.69-.44,1.45-1.57,1.45-2.79l.36.02ZM68.93,76.33c.44,1.85-.06,3.21-.69,3.76-.44.36-1.18.42-1.43-.04-.19-.44.06-.9.48-1.2.59-.42,1.26-1.51,1.28-2.54l.36.02Z"/>
            <path class="cls-10" d="M93.08,72.75c-.08.25-.36.38-.92.42,1.87,2.48,5.52,4.58,8.92,5.67l-.04.31c-.8.21-1.36.94-1.53,1.62-3.32-1.55-6.32-4.35-7.71-7.35-1.91,2.94-6.13,6.11-10.18,7.71l-.17-.29c3.59-1.93,7.62-5.94,8.65-8.8l2.98.71ZM97.91,81.7s1.32.99,2.16,1.72c-.06.23-.29.34-.59.34h-8.78c-.94,1.72-2.22,3.76-3.36,5.21,2.42-.13,5.42-.31,8.61-.52-.8-1.13-1.76-2.23-2.65-3.04l.23-.17c7.18,2.86,5.96,7.45,3.86,5.98-.23-.73-.63-1.53-1.16-2.31-2.77.55-6.49,1.18-11.63,1.95-.13.25-.36.4-.57.44l-1.03-2.14c.84-.02,2.02-.06,3.44-.15.71-1.51,1.51-3.65,1.97-5.25h-5.71l-.19-.61h14.17l1.2-1.45ZM94.34,78s1.26.94,2.06,1.66c-.04.23-.27.34-.57.34h-9.64l-.15-.61h7.16l1.13-1.39Z"/>
          </g>
          <g class="cls-3">
            <g>
              <path class="cls-4" d="M76.92,31.29c0-.13.03-.2.1-.2.81,0,1.41-.05,1.78-.17.37-.11.63-.32.78-.64.14-.32.21-.81.21-1.47v-15.28c0-.66-.07-1.14-.2-1.45s-.38-.52-.74-.64c-.36-.12-.94-.18-1.73-.18-.07,0-.1-.07-.1-.2s.03-.2.1-.2h13.46c.22,0,.33.1.33.3l.07,4.16c0,.07-.06.1-.18.12-.12.01-.19-.02-.21-.08-.15-1.21-.58-2.13-1.29-2.77-.7-.64-1.63-.96-2.77-.96h-1.68c-.95,0-1.59.14-1.93.41-.34.28-.51.79-.51,1.53v15.11c0,.7.09,1.22.28,1.53.19.32.54.54,1.07.68.53.13,1.36.2,2.51.2.04,0,.07.07.07.2s-.02.2-.07.2c-.9,0-1.61-.01-2.11-.03l-3.1-.03-2.31.03c-.42.02-.99.03-1.72.03-.07,0-.1-.07-.1-.2ZM88.07,22.2c-.57-.45-1.48-.68-2.74-.68h-4.19v-.76h4.29c1.19,0,2.06-.2,2.62-.59s.84-.99.84-1.78c0-.04.07-.07.2-.07s.2.02.2.07l-.03,2.77c0,.66.01,1.16.03,1.48l.03,1.65s-.07.07-.2.07-.2-.02-.2-.07c0-.95-.29-1.64-.86-2.1Z"/>
              <path class="cls-4" d="M104.7,15.15c-.34-.39-.82-.58-1.45-.58-.04,0-.07-.04-.07-.13s.02-.13.07-.13l.99.02c.53.03.95.04,1.25.04.26,0,.65-.01,1.14-.04l.95-.02s.04.04.04.13-.01.13-.04.13c-.59,0-1.03.19-1.33.57-.3.38-.45.95-.45,1.69v6.23c0,1.64-.48,2.93-1.44,3.87-.96.94-2.24,1.41-3.84,1.41-1.09,0-2.04-.21-2.86-.63s-1.46-1.02-1.91-1.8c-.46-.78-.68-1.71-.68-2.76v-7.06c0-.44-.04-.76-.13-.97-.09-.21-.25-.35-.49-.43-.24-.08-.63-.12-1.16-.12-.04,0-.07-.04-.07-.13s.02-.13.07-.13l1.1.02c.65.03,1.16.04,1.54.04.43,0,.95-.01,1.56-.04l1.08-.02s.07.04.07.13-.02.13-.07.13c-.51,0-.89.04-1.13.13-.24.09-.41.24-.5.45-.09.21-.13.54-.13.98v6.25c0,1.73.38,3.04,1.13,3.93.75.89,1.81,1.33,3.18,1.33,1.28,0,2.28-.4,3-1.2.73-.8,1.09-1.92,1.09-3.35v-6.25c0-.73-.17-1.29-.51-1.68Z"/>
              <path class="cls-4" d="M117.57,15.01c.66.51.99,1.21.99,2.09,0,.79-.23,1.51-.69,2.17-.46.65-1.07,1.17-1.84,1.54s-1.58.56-2.44.56c-.31,0-.67-.01-1.08-.04v4.95c0,.44.04.77.13.98.09.21.25.36.5.43.24.07.63.11,1.15.11.04,0,.07.04.07.13s-.02.13-.07.13c-.45,0-.81,0-1.08-.02l-1.58-.02-1.54.02c-.28.01-.65.02-1.12.02-.04,0-.07-.04-.07-.13s.02-.13.07-.13c.53,0,.92-.04,1.17-.11.25-.07.42-.22.51-.43.09-.21.13-.54.13-.98v-10.19c0-.44-.04-.76-.13-.97-.09-.21-.25-.35-.5-.43-.24-.08-.63-.12-1.16-.12-.03,0-.04-.04-.04-.13s.01-.13.04-.13l1.1.02c.64.03,1.16.04,1.54.04.31,0,.6,0,.88-.02.28-.01.52-.03.73-.04.56-.04,1.06-.07,1.52-.07,1.22,0,2.16.26,2.82.77ZM116.08,15.33c-.45-.48-1.12-.71-2-.71-.57,0-.98.11-1.21.32-.23.21-.35.61-.35,1.2v4.64c.42.04.86.07,1.3.07,1.06,0,1.81-.25,2.27-.74.46-.49.68-1.26.68-2.3,0-1.17-.23-2-.68-2.48ZM118.02,26.21c-.99-1.23-2.19-2.96-3.6-5.17l1.47-.46c1.25,1.83,2.29,3.26,3.15,4.29.85,1.03,1.6,1.77,2.25,2.23.65.46,1.29.69,1.9.69.04,0,.07.04.07.13s-.02.13-.07.13h-3.15c-.37,0-1.04-.62-2.04-1.85Z"/>
              <path class="cls-4" d="M127.7,27.26c.08.21.24.34.48.42.24.07.63.11,1.18.11.03,0,.04.04.04.13s-.01.13-.04.13c-.47,0-.84,0-1.1-.02l-1.58-.02-1.54.02c-.28.01-.66.02-1.14.02-.03,0-.04-.04-.04-.13s.01-.13.04-.13c.53,0,.92-.04,1.17-.11.25-.07.42-.22.52-.43.1-.21.14-.54.14-.98v-10.19c0-.44-.05-.76-.14-.97-.1-.21-.27-.35-.52-.43-.25-.08-.64-.12-1.17-.12-.03,0-.04-.04-.04-.13s.01-.13.04-.13l1.14.02c.65.03,1.16.04,1.54.04.43,0,.96-.01,1.61-.04l1.08-.02s.04.04.04.13-.01.13-.04.13c-.53,0-.91.04-1.16.13s-.41.24-.5.45-.13.54-.13.98v10.14c0,.46.04.79.12.99Z"/>
            </g>
          </g>
          <g class="cls-3">
            <g>
              <path class="cls-4" d="M102.91,32.96c.42.63.92,1.17,1.52,1.62.59.45,1.42,1,2.48,1.63,1.1.68,1.97,1.27,2.62,1.77.65.49,1.21,1.11,1.67,1.83.46.73.69,1.58.69,2.57,0,1.08-.28,2.05-.84,2.92-.56.87-1.36,1.55-2.41,2.05-1.04.5-2.26.74-3.65.74-.88,0-1.75-.1-2.61-.31-.86-.21-1.61-.51-2.24-.91-.11-.07-.19-.14-.23-.23-.04-.09-.07-.22-.07-.4l-.33-4.72c-.02-.09.03-.14.15-.17.12-.02.19.01.21.1.53,1.67,1.26,3.09,2.21,4.26.95,1.17,2.18,1.75,3.7,1.75,1.03,0,1.9-.28,2.61-.84.7-.56,1.06-1.48,1.06-2.76,0-.97-.22-1.81-.66-2.54-.44-.73-.98-1.34-1.62-1.83-.64-.49-1.48-1.06-2.54-1.7-1.03-.66-1.85-1.23-2.46-1.7-.61-.47-1.12-1.06-1.54-1.75-.42-.69-.63-1.5-.63-2.43,0-1.12.3-2.08.91-2.87.6-.79,1.4-1.38,2.38-1.77.98-.38,2.01-.58,3.08-.58,1.45,0,2.78.25,3.99.76.33.15.5.35.5.59l.17,4.12c0,.09-.06.14-.18.15s-.19-.03-.21-.12c-.24-1.19-.75-2.31-1.53-3.37-.78-1.06-1.9-1.58-3.35-1.58-1.1,0-1.95.33-2.56.99s-.91,1.5-.91,2.51c0,.84.21,1.57.63,2.19Z"/>
              <path class="cls-4" d="M118.08,43.57c-1.06-.64-1.88-1.5-2.46-2.6-.58-1.09-.87-2.28-.87-3.57,0-1.51.38-2.81,1.14-3.88s1.74-1.89,2.94-2.43c1.2-.54,2.42-.81,3.66-.81,1.39,0,2.62.33,3.67.98,1.06.65,1.87,1.51,2.43,2.58.56,1.07.85,2.21.85,3.41,0,1.33-.35,2.56-1.06,3.67-.7,1.12-1.65,2-2.83,2.64-1.18.65-2.46.97-3.84.97s-2.58-.32-3.64-.96ZM125.02,43.31c.75-.48,1.34-1.19,1.77-2.12.43-.93.65-2.04.65-3.33,0-1.36-.24-2.58-.72-3.65-.48-1.07-1.16-1.91-2.05-2.51-.89-.6-1.92-.9-3.09-.9-1.53,0-2.71.52-3.56,1.55-.85,1.03-1.28,2.46-1.28,4.28,0,1.39.24,2.65.73,3.78.48,1.13,1.16,2.02,2.04,2.66.87.65,1.87.97,2.98.97.94,0,1.78-.24,2.53-.73Z"/>
              <path class="cls-4" d="M135.8,44.28c-.22-.01-.49-.03-.8-.04s-.67-.02-1.07-.02l-1.54.02c-.28.01-.66.02-1.14.02-.03,0-.04-.04-.04-.13s.01-.13.04-.13c.53,0,.92-.04,1.17-.11.25-.07.42-.22.52-.43.09-.21.14-.54.14-.98v-10.19c0-.44-.04-.76-.13-.97-.09-.21-.25-.35-.5-.43-.24-.08-.63-.12-1.16-.12-.04,0-.07-.04-.07-.13s.02-.13.07-.13l1.1.02c.65.03,1.16.04,1.54.04.54,0,1.1-.02,1.67-.07.7-.03,1.18-.04,1.43-.04,1.51,0,2.85.29,4.03.88,1.17.59,2.08,1.39,2.73,2.4.65,1.01.97,2.15.97,3.41,0,1.42-.33,2.68-1,3.77-.67,1.09-1.57,1.94-2.71,2.53-1.14.59-2.37.89-3.71.89-.46,0-.97-.02-1.54-.07ZM140.04,43.21c.85-.49,1.51-1.21,1.99-2.16.48-.95.72-2.09.72-3.42s-.23-2.43-.68-3.46c-.45-1.03-1.1-1.85-1.92-2.44-.83-.59-1.79-.89-2.89-.89-.63,0-1.12.04-1.45.11-.34.07-.59.22-.75.43-.16.21-.24.53-.24.96v9.9c0,.43.06.76.19,1,.12.24.35.42.68.54.33.12.81.18,1.44.18,1.1,0,2.08-.25,2.93-.74Z"/>
              <path class="cls-4" d="M146.71,44.13c0-.09.02-.13.07-.13.53,0,.91-.04,1.15-.11.24-.07.41-.22.5-.43.09-.21.13-.54.13-.98v-10.19c0-.44-.04-.76-.13-.97-.09-.21-.25-.35-.5-.43-.24-.08-.63-.12-1.15-.12-.04,0-.07-.04-.07-.13s.02-.13.07-.13h8.98c.15,0,.22.07.22.2l.04,2.77s-.04.07-.12.08c-.08,0-.13-.01-.14-.05-.1-.81-.39-1.42-.86-1.85-.47-.43-1.09-.64-1.85-.64h-1.12c-.65,0-1.08.1-1.3.29-.22.19-.33.55-.33,1.08v10.01c0,.53.1.89.3,1.08.2.19.6.29,1.2.29h1.45c.82,0,1.51-.25,2.06-.74.55-.49.93-1.19,1.13-2.1,0-.03.03-.04.09-.04.04,0,.08.01.12.03.04.02.05.04.05.06-.15,1.06-.22,2.05-.22,2.97,0,.12-.02.2-.07.25-.04.05-.13.08-.26.08h-9.37s-.07-.04-.07-.13ZM154.37,37.8c-.36-.3-.93-.45-1.71-.45h-3.21v-.51h3.26c.75,0,1.3-.13,1.65-.38.35-.26.53-.66.53-1.2,0-.03.04-.04.12-.04s.12.01.12.04l-.02,1.85.02.99c.03.47.04.84.04,1.1,0,.03-.04.04-.13.04s-.13-.01-.13-.04c0-.63-.18-1.1-.54-1.4Z"/>
            </g>
          </g>
          <g>
            <path class="cls-10" d="M23.29,13.69l.81,1.89.33-.14.16-.79s.69.21,1.11.39c.02.11-.06.2-.18.25l-8.1,3.48-.19-.24,1.39-.6-.81-1.89-1.38.59-.2-.23,1.46-.63-.66-1.54c-.24.57-.55,1.1-.89,1.52l-.15-.05c.39-.92.66-2.32.64-3.66h1.25c-.01.13-.09.24-.31.3-.05.33-.12.65-.21.96h.14s4.77-2.05,4.77-2.05l.21-.81s.71.19,1.17.36c.02.11-.06.2-.18.25l-1.09.47.81,1.89.35-.15.18-.79s.69.19,1.12.37c.03.11-.05.19-.17.25l-1.38.59ZM18.35,15.51l.9-.39-.81-1.89-.9.39.81,1.89ZM19.07,18.46c.74,1.04.51,1.96.16,2.39-.22.29-.6.43-.81.23-.19-.18-.11-.44.04-.66.39-.4.71-1.16.46-1.9l.15-.05ZM19.28,17.66l.9-.39-.81-1.89-.9.39.81,1.89ZM19.1,12.94l.81,1.89.97-.42-.81-1.89-.97.42ZM20.02,15.1l.81,1.89.97-.42-.81-1.89-.97.42ZM20.29,18.03c2.03.54,1.8,2.21.94,1.79-.18-.61-.65-1.28-1.05-1.69l.11-.1ZM20.73,12.24l.81,1.89.96-.41-.81-1.89-.96.41ZM22.62,13.98l-.96.41.81,1.89.96-.41-.81-1.89ZM21.95,17.31c2.44.09,2.45,1.85,1.53,1.56-.31-.57-1.04-1.14-1.61-1.45l.08-.11ZM23.68,16.43c3.12-.34,3.42,1.68,2.37,1.51-.5-.61-1.6-1.15-2.43-1.38l.07-.13Z"/>
            <path class="cls-10" d="M19.84,24.15c2.16.4,2.02,2.02,1.2,1.69-.26-.6-.85-1.21-1.28-1.59l.09-.1ZM23.59,26.76c2.45-.39,2.58,1.32,1.67,1.14-.33-.43-1.02-.81-1.6-.99l1.58,3.68c.04.1-.19.4-.44.5l-.14.06-1.48-3.43c-.08.96-.35,1.88-.79,2.75l-.17-.07c.32-1.17.32-2.54.12-3.82l-1.4.6-.18-.23,1.76-.76-1.5-3.49,1.07-.33c.03.14,0,.26-.22.4l1.34,3.12.56-.24.19-.74s.66.17,1.08.32c.02.11-.06.2-.18.25l-1.54.66.25.59ZM23.22,25.1c-.07-.59-.23-1.51-.37-2.28l1.11-.12c0,.12-.07.25-.26.33-.06.68-.15,1.49-.31,2.07h-.17ZM24.16,22.38c2.38-.46,2.52,1.21,1.61,1.06-.34-.44-1.1-.8-1.66-.96l.06-.1ZM24.87,24.62c2.4-.59,2.62,1.1,1.7.99-.38-.42-1.15-.76-1.75-.87l.05-.12ZM29.13,24.78s.66.12,1.08.22c.04.1-.01.2-.11.28l-1.07.75,1.06,2.47c.04.1-.19.41-.47.53l-.14.06-1.11-2.59-2.35,1.65-.23-.17,2.46-1.74-2.4-5.58,1.09-.34c.03.14,0,.26-.21.4l2.18,5.06.16-.11.05-.87Z"/>
          </g>
          <line class="cls-7" x1="7.73" y1="19.57" x2="19.56" y2="35.9"/>
          <line class="cls-7" x1="32.72" y1="7.59" x2="35.78" y2="28.92"/>
        </g>
      </g>
    </g>
  </g>
</svg>