<?xml version="1.0" encoding="UTF-8"?>
<svg id="_レイヤー_2" data-name="レイヤー 2" xmlns="http://www.w3.org/2000/svg" xmlns:xlink="http://www.w3.org/1999/xlink" viewBox="0 0 1032.91 286.32">
  <defs>
    <style>
      .cls-1 {
        fill: none;
      }

      .cls-2 {
        fill: #fff;
      }

      .cls-2, .cls-3 {
        fill-rule: evenodd;
      }

      .cls-3 {
        fill: #e23362;
      }

      .cls-4 {
        fill: #ff184c;
      }

      .cls-5 {
        clip-path: url(#clippath-1);
      }

      .cls-6 {
        clip-path: url(#clippath);
      }
    </style>
    <clipPath id="clippath">
      <rect class="cls-1" x="270" y="-270" width="210" height="750" transform="translate(480 -270) rotate(90)"/>
    </clipPath>
    <clipPath id="clippath-1">
      <rect class="cls-1" x="336" y="-271" width="78" height="750" transform="translate(479 -271) rotate(90)"/>
    </clipPath>
  </defs>
  <g id="_レイヤー_1-2" data-name="レイヤー 1">
    <rect class="cls-4" x="336" y="-271" width="78" height="750" transform="translate(479 -271) rotate(90)"/>
    <g>
      <g class="cls-6">
        <path class="cls-3" d="M615.89,167.2c2.43,16.22,5.54,24.47,8.31,27.66,1.03,1.19,1.97,1.61,2.76,1.46.81-.16,1.54-.93,2.11-2.13.92-1.94,1.38-4.91,1.12-8.21-4.65-4.47-7.09-8.58-8.05-11.49-.59-1.8-.62-3.19-.26-3.96.47-1,1.43-1.18,2.66-.26,1.43,1.07,3.36,3.94,5.22,9.2.73,2.07,1.16,4.17,1.34,6.16,3.12,2.96,7.24,6.07,12.58,9.09,7.73,4.37,12.53,6.26,15.2,6.44,1.61.11,2.33-.48,2.39-1.55.08-1.26-.62-3.12-1.81-5.33-1.67-3.08-4.3-6.78-7.19-10.41-6.17-3.66-12.27-8.17-17.25-13.28-2.07-2.12-3.13-3.69-3.35-4.62-.14-.57,0-.97.39-1.2.34-.19.83-.2,1.47,0,1.42.45,3.87,2.02,7.02,4.88,3.1,2.82,8.03,8.13,12.39,13.61,7.9,4.67,15.92,7.96,21.8,9.35,3.27.77,5.84.96,7.32.47,1.27-.42,1.63-1.45.74-3.18-1.33-2.57-5.2-6.48-12.52-11.94-2.8-1-5.85-2.24-9.12-3.76-7.29-3.38-13.3-7.58-15.88-10.04-.97-.92-1.49-1.67-1.47-2.1.04-.69.75-.86,2.27-.3,2.37.87,7.43,3.67,16.03,9.41,3.29,2.2,6.16,4.22,8.64,6.06,7.44,2.64,13.09,3.49,16.51,3.09,1.69-.2,2.78-.7,3.22-1.43.43-.71.25-1.7-.61-2.89-2.23-3.11-8.79-7.36-20.6-11.7-3.13-1.15-6.46-2.13-9.81-3.12-7.53-2.22-15.2-4.48-21.44-8.87-2.45,1.14-5.12,2.22-8.13,3.19h-.01c-7.3,2.19-13.94,2.07-19.86.33-7.01-2.06-12.98-6.38-17.81-11.8-4.81-5.4-8.48-11.88-10.9-18.3-3.49-9.24-4.39-18.35-2.35-23.86.17-.47.19-.7.1-.81-.1-.11-.39-.17-.78-.25-1.78-.33-2.81-1.06-3.68-1.69-.69-.5-1.28-.91-2.07-.91-.07,0-.14,0-.21-.03-5.16-2.02-6.77-2.7-6.39-3.48.18-.37.75-.55,1.57-.81,1.68-.54,4.63-1.48,6.39-4.45,1.36-2.3,3.28-3.72,5.44-4.37,1.35-.41,2.8-.52,4.25-.36,1.44.16,2.9.58,4.3,1.24,3.5,1.65,6.64,4.78,8.2,8.87l.28.73c.36.94.7,1.85,1.07,2.7,2.02,4.63,4.9,7.52,15.46,3.86,2.7-.94,5.55-2.21,8.31-3.67,2.81-1.49,5.53-3.18,7.88-4.91,1.5-1.1,3.02-2.18,4.55-3.26-10.04,5.26-19.05,8.56-25.5,8.12-7.16-.49-11.22-5.4-10.23-16.98.81-9.47,5.03-19.9,10.54-29.86,8.09-14.61,18.98-28.19,26-36.16,2.98-3.38,5.9-5.68,8.23-6.53,1.11-.41,2.1-.49,2.93-.23.85.27,1.5.9,1.89,1.91.63,1.63.57,4.35-.44,8.32-1.26,4.98-3.07,9.97-4.98,14.21-.16.36-.32.71-.48,1.05,3.52-.83,6.07-.87,7.81-.33,1.76.55,2.71,1.67,3,3.17.28,1.42-.05,3.18-.85,5.1-.86,2.08-2.28,4.36-4.07,6.62,1.11.08,2.14.26,3.07.53,1.7.5,3.05,1.31,3.86,2.43.82,1.13,1.08,2.55.62,4.25-.51,1.88-1.94,4.13-4.54,6.73,1.76.22,3.27.7,4.38,1.48,1.21.85,1.93,2.03,1.99,3.57.08,2-.98,4.6-3.61,7.85-1.61,2-3.72,3.98-6.11,5.94,14.81-9.26,30.35-20.8,42.48-29.81,8.21-6.09,14.86-11.03,18.68-13.33.94-.57,1.78-.59,2.48-.18.65.38,1.13,1.14,1.42,2.18.27.97.39,2.21.32,3.61-.26,5.75-3.54,14.43-11.35,19.18l-1.14.69c1.91.12,3.76.53,5.47,1.31,2.22,1.02,2.37,2.8,1.1,5.01-2.31,4.02-9.63,9.58-17.36,14.14,2.57.44,4.9,1.09,6.64,1.92,3.21,1.52,4.55,3.63,2.25,6.13-1.9,2.06-6.5,4.39-15.02,6.85,1.36.43,2.76.93,4.2,1.5,1.6.63,2.52,1.33,2.86,2.07.48,1.03-.1,2.06-1.47,3.04-1.23.88-3.14,1.75-5.48,2.56-3.49,1.21-7.96,2.3-12.59,3.12.69,1.02.76,2.12.32,3.25-.51,1.3-1.72,2.62-3.43,3.87-3.87,2.81-10.42,5.31-17.28,6.37,1.37,1.07,2.36,2.22,2.78,3.42.49,1.4.2,2.84-1.18,4.25-1.77,1.81-5.4,3.58-11.6,5.17-4.76,1.22-8.83,1.49-12.25,1.15.73,1.14,1.48,2.37,2.25,3.71,2.1,3.61,4.79,6.4,7.87,8.65,4.59-2.19,8.39-4.61,12.14-7,97.5-62.15,73.84,91.68,179.27,61.07,17.94-5.21,32.19-9.34,49.67,20.62,4.92,8.43,11.32,15.22,22.29,18.54,11.03,3.34,26.68,3.21,50.09-2.24,17.55-4.09,28.28,7.52,39.59,19.76,10.95,11.85,22.46,24.3,41.22,23.35.26-.01.48.16.49.39.01.23-.18.43-.44.44-19.23.97-30.9-11.65-42-23.65-11.12-12.03-21.66-23.44-38.64-19.48-23.6,5.5-39.43,5.62-50.62,2.22-11.25-3.41-17.8-10.35-22.82-18.95-17.12-29.34-31.03-25.3-48.55-20.21-106.27,30.85-82.53-122.69-179.02-61.18-3.68,2.35-7.41,4.72-11.88,6.89,6.07,4.17,13.52,6.36,20.82,8.51,3.36.99,6.69,1.97,9.88,3.14,12.01,4.41,18.72,8.78,21.03,12.02,1.05,1.47,1.24,2.75.64,3.74-.59.97-1.92,1.62-3.92,1.86-3.15.37-8.1-.28-14.52-2.32,6.17,4.78,9.54,8.3,10.79,10.71,1.18,2.29.6,3.7-1.27,4.31-1.66.55-4.43.37-7.88-.45-5.48-1.3-12.79-4.21-20.15-8.35,2.39,3.11,4.52,6.2,5.95,8.85,1.26,2.32,1.99,4.32,1.9,5.73-.1,1.6-1.12,2.49-3.39,2.34-2.82-.19-7.77-2.12-15.63-6.57-4.98-2.82-8.93-5.73-12-8.52.11,3.05-.37,5.77-1.25,7.62-.69,1.44-1.63,2.39-2.76,2.61-1.15.23-2.42-.28-3.71-1.76-2.85-3.28-6.05-11.67-8.5-28.06-.03-.23.15-.44.4-.47.26-.03.49.13.52.36h0ZM628.87,179.7c-1.8-5.1-3.61-7.83-4.93-8.81-.59-.44-1.02-.43-1.19-.06-.29.61-.23,1.79.3,3.4.87,2.64,3.01,6.31,7,10.34-.22-1.6-.6-3.25-1.18-4.88h0ZM639.89,170.24c-3.04-2.76-5.35-4.26-6.66-4.68-.34-.11-.56-.14-.65-.09-.03.02-.03.13.02.32.2.8,1.19,2.24,3.14,4.25,4.35,4.47,9.56,8.46,14.93,11.83-3.92-4.75-8.06-9.15-10.78-11.63h0ZM661.57,171.85c-8.52-5.69-13.51-8.45-15.82-9.3-.67-.25-.97-.48-.98-.43-.01.21.42.74,1.21,1.49,2.52,2.4,8.43,6.52,15.63,9.87,2.15,1,4.2,1.87,6.14,2.64-1.87-1.34-3.92-2.76-6.18-4.27h0ZM629.44,143.06c-.9-1.54-1.76-2.95-2.59-4.23-4.62-.68-7.95-2.52-10.12-4.54-2.22-2.07-3.23-4.37-3.16-5.89.08-1.8,1.42-2.66,3.88-1.4,2.27,1.17,5.66,4.43,9.99,11.06,3.44.45,7.61.24,12.57-1.04,6.01-1.55,9.5-3.23,11.16-4.92,1.14-1.16,1.38-2.32.99-3.45-.41-1.18-1.51-2.34-3.03-3.43l-.08-.06c-2.28.3-4.57.43-6.81.36-5.52-.18-11.15-2.38-13.85-4.28-.84-.59-1.42-1.17-1.65-1.68-.31-.67-.12-1.22.68-1.55.87-.36,2.67-.38,5.65.15,4.99.89,11.96,3.21,16.24,6.12,6.98-.96,13.73-3.47,17.65-6.32,1.58-1.15,2.69-2.34,3.14-3.5.38-.97.28-1.92-.43-2.8-7.09,1.2-14.41,1.77-19.01,1.19-3.33-.42-5.51-1.35-6.43-2.35-.46-.5-.64-1.03-.53-1.55.11-.51.49-.98,1.14-1.37,1.55-.93,4.82-1.5,9.92-1.09,8.53.7,13.28,2.29,15.29,4.27,4.73-.83,9.32-1.93,12.87-3.16,2.25-.78,4.07-1.61,5.23-2.44,1.02-.73,1.49-1.44,1.19-2.08-.25-.54-1.01-1.09-2.37-1.63-1.84-.72-3.61-1.33-5.32-1.84-1.85.51-3.87,1.03-6.08,1.55-9.28,2.19-14.94,2.25-17.59,1.46-1.81-.54-2.39-1.49-1.91-2.51.41-.88,1.74-1.78,3.83-2.45,4.27-1.35,11.95-1.78,21.77,1.08,9.08-2.52,13.89-4.88,15.78-6.93,1.79-1.94.65-3.62-1.97-4.86-1.88-.89-4.47-1.57-7.34-1.99l-.09.05c-8.21,4.7-16.67,8.14-19.99,7.31-1.47-.37-2.08-1.41-1.48-3.3,1.3-4.14,9.25-5.66,16.97-5.32,1.49.06,2.96.2,4.39.39,7.92-4.58,15.56-10.28,17.88-14.31,1.01-1.75.94-3.14-.69-3.89-1.96-.9-4.12-1.27-6.36-1.26-10.95,6.55-17.27,9.53-20.3,10.4-2.8.8-3.44.14-2.55-1.29.59-.94,2.28-2.4,4.64-3.9,4.47-2.85,11.42-5.92,17.91-6.03.72-.43,1.47-.88,2.23-1.35,7.53-4.58,10.69-12.96,10.94-18.52.06-1.32-.05-2.48-.3-3.38-.23-.83-.58-1.42-1.02-1.68-.37-.22-.85-.18-1.44.18-3.81,2.29-10.43,7.21-18.61,13.28-14.06,10.44-32.67,24.26-49.5,34.04-1.51,1.08-3.05,2.16-4.6,3.24-2.21,1.55-4.42,3.09-6.46,4.59-2.4,1.76-5.15,3.47-8,4.98-2.8,1.48-5.7,2.77-8.45,3.73-11.33,3.93-14.46.74-16.67-4.34-.38-.87-.73-1.78-1.08-2.73l-.28-.73c-1.48-3.88-4.44-6.84-7.75-8.4-1.3-.61-2.65-1.01-3.98-1.15-1.32-.15-2.62-.05-3.84.32-1.94.59-3.66,1.87-4.91,3.97-1.93,3.25-5.1,4.26-6.9,4.84-.6.19-1.01.32-1.03.36-.03.06,1.38.62,5.81,2.35,1.07.02,1.76.51,2.57,1.09.79.57,1.72,1.23,3.29,1.52.58.11,1.03.22,1.32.55.29.34.34.81.06,1.58-1.98,5.35-1.08,14.26,2.34,23.34,2.39,6.33,6.01,12.72,10.75,18.04,4.72,5.3,10.55,9.52,17.37,11.52,5.73,1.68,12.17,1.8,19.25-.32,2.81-.91,5.34-1.91,7.65-2.98-3.03-2.27-5.69-5.08-7.79-8.69h0ZM616.98,127.72c-1.57-.81-2.42-.34-2.47.71-.06,1.33.87,3.38,2.9,5.28,1.93,1.8,4.83,3.43,8.82,4.16-4.03-6.07-7.15-9.07-9.25-10.15h0ZM632.89,118.98c-2.76-.49-4.37-.5-5.07-.21-.25.1-.3.27-.21.47.17.37.65.84,1.36,1.34,2.58,1.82,7.99,3.93,13.3,4.1,1.87.06,3.79-.03,5.7-.23-4.19-2.6-10.49-4.65-15.09-5.47h0ZM654.68,107.32c-4.85-.4-7.91.11-9.31.95-.44.26-.69.55-.75.83-.06.27.05.57.33.87.79.86,2.75,1.66,5.84,2.05,4.4.56,11.34.04,18.14-1.08-2.08-1.66-6.55-3-14.26-3.63h0ZM660.2,98.45c-1.83.58-2.96,1.31-3.28,1.98-.25.53.17,1.05,1.35,1.4,2.51.76,7.97.67,17.06-1.47,1.69-.4,3.27-.79,4.74-1.19-8.96-2.4-15.93-1.97-19.87-.72h0ZM683.49,84.53c-7.34-.32-14.86,1.02-16.02,4.71-.42,1.33-.07,2.05.83,2.27,2.95.74,10.66-2.39,18.41-6.74-1.05-.12-2.13-.2-3.22-.25h0ZM681.08,70.52c-2.25,1.43-3.84,2.78-4.36,3.63-.22.36.19.45,1.44.09,2.84-.82,8.7-3.56,18.76-9.52-5.81.51-11.84,3.26-15.84,5.8h0ZM640.06,85.8c4.97-3.56,9.57-7.13,12.47-10.73,2.49-3.09,3.5-5.51,3.43-7.33-.05-1.27-.65-2.25-1.64-2.94-1.03-.72-2.48-1.16-4.21-1.34l-.38-.03c-2.11,1.99-4.88,4.17-8.42,6.54-8.46,5.66-13.53,8.06-16.12,8.5-1.44.24-2.25-.08-2.54-.79-.25-.62-.01-1.53.63-2.59,1.63-2.7,5.97-6.67,11.02-9.11,5.02-2.43,10.7-3.65,15.07-3.41,2.77-2.67,4.27-4.95,4.78-6.83.4-1.46.18-2.67-.5-3.61-.69-.95-1.86-1.65-3.36-2.08-1.01-.3-2.17-.47-3.42-.53-3.33,3.99-7.75,7.81-12.22,10.14-4.64,2.41-7.51,3.3-9.04,3.22-1.08-.06-1.61-.54-1.7-1.29-.07-.63.22-1.45.8-2.36,1.72-2.73,6.09-6.55,10.59-8.36,3.82-1.54,7.76-2.26,11.12-2.19,1.9-2.33,3.4-4.71,4.3-6.86.74-1.79,1.05-3.4.8-4.67-.24-1.19-.99-2.09-2.39-2.53-1.69-.53-4.28-.44-7.96.51-1.77,3.63-3.57,6.53-5.08,8.13-2.73,2.89-5.48,3.95-7.45,3.84-1.15-.06-2.05-.5-2.58-1.21-.53-.7-.67-1.64-.31-2.71.7-2.07,3.38-4.69,9.09-6.87,2.09-.8,3.97-1.41,5.65-1.86.26-.54.51-1.09.77-1.65,1.9-4.2,3.69-9.15,4.93-14.08.97-3.81,1.04-6.38.46-7.87-.29-.75-.74-1.21-1.32-1.39-.6-.19-1.37-.11-2.26.21-2.18.8-4.97,3.01-7.85,6.28-7,7.94-17.85,21.48-25.9,36.02-5.47,9.87-9.65,20.2-10.45,29.55-.94,10.99,2.79,15.64,9.37,16.09,7.7.52,19.22-4.47,31.83-11.79h0ZM639.98,35.45c-1.44.42-3.03.95-4.78,1.62-5.41,2.07-7.93,4.47-8.56,6.34-.28.82-.18,1.51.19,2.01.37.49,1.02.8,1.86.84,1.72.09,4.17-.88,6.68-3.55,1.36-1.44,2.99-4.02,4.61-7.27h0ZM645.72,49.5c-3.06.04-6.59.74-10.04,2.13-4.32,1.74-8.51,5.39-10.16,8.01-.48.77-.74,1.42-.69,1.87.04.31.29.51.82.54,1.36.07,4.05-.78,8.51-3.11,4.2-2.18,8.35-5.71,11.55-9.44h0ZM634.74,66.71c-4.89,2.36-9.07,6.18-10.64,8.77-.51.85-.73,1.52-.57,1.91.12.3.59.41,1.49.25,2.47-.42,7.4-2.77,15.73-8.34,3.2-2.14,5.76-4.12,7.75-5.93-4.09-.05-9.2,1.13-13.77,3.34Z"/>
      </g>
      <g class="cls-5">
        <path class="cls-2" d="M615.89,167.2c2.43,16.22,5.54,24.47,8.31,27.66,1.03,1.19,1.97,1.61,2.76,1.46.81-.16,1.54-.93,2.11-2.13.92-1.94,1.38-4.91,1.12-8.21-4.65-4.47-7.09-8.58-8.05-11.49-.59-1.8-.62-3.19-.26-3.96.47-1,1.43-1.18,2.66-.26,1.43,1.07,3.36,3.94,5.22,9.2.73,2.07,1.16,4.17,1.34,6.16,3.12,2.96,7.24,6.07,12.58,9.09,7.73,4.37,12.53,6.26,15.2,6.44,1.61.11,2.33-.48,2.39-1.55.08-1.26-.62-3.12-1.81-5.33-1.67-3.08-4.3-6.78-7.19-10.41-6.17-3.66-12.27-8.17-17.25-13.28-2.07-2.12-3.13-3.69-3.35-4.62-.14-.57,0-.97.39-1.2.34-.19.83-.2,1.47,0,1.42.45,3.87,2.02,7.02,4.88,3.1,2.82,8.03,8.13,12.39,13.61,7.9,4.67,15.92,7.96,21.8,9.35,3.27.77,5.84.96,7.32.47,1.27-.42,1.63-1.45.74-3.18-1.33-2.57-5.2-6.48-12.52-11.94-2.8-1-5.85-2.24-9.12-3.76-7.29-3.38-13.3-7.58-15.88-10.04-.97-.92-1.49-1.67-1.47-2.1.04-.69.75-.86,2.27-.3,2.37.87,7.43,3.67,16.03,9.41,3.29,2.2,6.16,4.22,8.64,6.06,7.44,2.64,13.09,3.49,16.51,3.09,1.69-.2,2.78-.7,3.22-1.43.43-.71.25-1.7-.61-2.89-2.23-3.11-8.79-7.36-20.6-11.7-3.13-1.15-6.46-2.13-9.81-3.12-7.53-2.22-15.2-4.48-21.44-8.87-2.45,1.14-5.12,2.22-8.13,3.19h-.01c-7.3,2.19-13.94,2.07-19.86.33-7.01-2.06-12.98-6.38-17.81-11.8-4.81-5.4-8.48-11.88-10.9-18.3-3.49-9.24-4.39-18.35-2.35-23.86.17-.47.19-.7.1-.81-.1-.11-.39-.17-.78-.25-1.78-.33-2.81-1.06-3.68-1.69-.69-.5-1.28-.91-2.07-.91-.07,0-.14,0-.21-.03-5.16-2.02-6.77-2.7-6.39-3.48.18-.37.75-.55,1.57-.81,1.68-.54,4.63-1.48,6.39-4.45,1.36-2.3,3.28-3.72,5.44-4.37,1.35-.41,2.8-.52,4.25-.36,1.44.16,2.9.58,4.3,1.24,3.5,1.65,6.64,4.78,8.2,8.87l.28.73c.36.94.7,1.85,1.07,2.7,2.02,4.63,4.9,7.52,15.46,3.86,2.7-.94,5.55-2.21,8.31-3.67,2.81-1.49,5.53-3.18,7.88-4.91,1.5-1.1,3.02-2.18,4.55-3.26-10.04,5.26-19.05,8.56-25.5,8.12-7.16-.49-11.22-5.4-10.23-16.98.81-9.47,5.03-19.9,10.54-29.86,8.09-14.61,18.98-28.19,26-36.16,2.98-3.38,5.9-5.68,8.23-6.53,1.11-.41,2.1-.49,2.93-.23.85.27,1.5.9,1.89,1.91.63,1.63.57,4.35-.44,8.32-1.26,4.98-3.07,9.97-4.98,14.21-.16.36-.32.71-.48,1.05,3.52-.83,6.07-.87,7.81-.33,1.76.55,2.71,1.67,3,3.17.28,1.42-.05,3.18-.85,5.1-.86,2.08-2.28,4.36-4.07,6.62,1.11.08,2.14.26,3.07.53,1.7.5,3.05,1.31,3.86,2.43.82,1.13,1.08,2.55.62,4.25-.51,1.88-1.94,4.13-4.54,6.73,1.76.22,3.27.7,4.38,1.48,1.21.85,1.93,2.03,1.99,3.57.08,2-.98,4.6-3.61,7.85-1.61,2-3.72,3.98-6.11,5.94,14.81-9.26,30.35-20.8,42.48-29.81,8.21-6.09,14.86-11.03,18.68-13.33.94-.57,1.78-.59,2.48-.18.65.38,1.13,1.14,1.42,2.18.27.97.39,2.21.32,3.61-.26,5.75-3.54,14.43-11.35,19.18l-1.14.69c1.91.12,3.76.53,5.47,1.31,2.22,1.02,2.37,2.8,1.1,5.01-2.31,4.02-9.63,9.58-17.36,14.14,2.57.44,4.9,1.09,6.64,1.92,3.21,1.52,4.55,3.63,2.25,6.13-1.9,2.06-6.5,4.39-15.02,6.85,1.36.43,2.76.93,4.2,1.5,1.6.63,2.52,1.33,2.86,2.07.48,1.03-.1,2.06-1.47,3.04-1.23.88-3.14,1.75-5.48,2.56-3.49,1.21-7.96,2.3-12.59,3.12.69,1.02.76,2.12.32,3.25-.51,1.3-1.72,2.62-3.43,3.87-3.87,2.81-10.42,5.31-17.28,6.37,1.37,1.07,2.36,2.22,2.78,3.42.49,1.4.2,2.84-1.18,4.25-1.77,1.81-5.4,3.58-11.6,5.17-4.76,1.22-8.83,1.49-12.25,1.15.73,1.14,1.48,2.37,2.25,3.71,2.1,3.61,4.79,6.4,7.87,8.65,4.59-2.19,8.39-4.61,12.14-7,97.5-62.15,73.84,91.68,179.27,61.07,17.94-5.21,32.19-9.34,49.67,20.62,4.92,8.43,11.32,15.22,22.29,18.54,11.03,3.34,26.68,3.21,50.09-2.24,17.55-4.09,28.28,7.52,39.59,19.76,10.95,11.85,22.46,24.3,41.22,23.35.26-.01.48.16.49.39.01.23-.18.43-.44.44-19.23.97-30.9-11.65-42-23.65-11.12-12.03-21.66-23.44-38.64-19.48-23.6,5.5-39.43,5.62-50.62,2.22-11.25-3.41-17.8-10.35-22.82-18.95-17.12-29.34-31.03-25.3-48.55-20.21-106.27,30.85-82.53-122.69-179.02-61.18-3.68,2.35-7.41,4.72-11.88,6.89,6.07,4.17,13.52,6.36,20.82,8.51,3.36.99,6.69,1.97,9.88,3.14,12.01,4.41,18.72,8.78,21.03,12.02,1.05,1.47,1.24,2.75.64,3.74-.59.97-1.92,1.62-3.92,1.86-3.15.37-8.1-.28-14.52-2.32,6.17,4.78,9.54,8.3,10.79,10.71,1.18,2.29.6,3.7-1.27,4.31-1.66.55-4.43.37-7.88-.45-5.48-1.3-12.79-4.21-20.15-8.35,2.39,3.11,4.52,6.2,5.95,8.85,1.26,2.32,1.99,4.32,1.9,5.73-.1,1.6-1.12,2.49-3.39,2.34-2.82-.19-7.77-2.12-15.63-6.57-4.98-2.82-8.93-5.73-12-8.52.11,3.05-.37,5.77-1.25,7.62-.69,1.44-1.63,2.39-2.76,2.61-1.15.23-2.42-.28-3.71-1.76-2.85-3.28-6.05-11.67-8.5-28.06-.03-.23.15-.44.4-.47.26-.03.49.13.52.36h0ZM628.87,179.7c-1.8-5.1-3.61-7.83-4.93-8.81-.59-.44-1.02-.43-1.19-.06-.29.61-.23,1.79.3,3.4.87,2.64,3.01,6.31,7,10.34-.22-1.6-.6-3.25-1.18-4.88h0ZM639.89,170.24c-3.04-2.76-5.35-4.26-6.66-4.68-.34-.11-.56-.14-.65-.09-.03.02-.03.13.02.32.2.8,1.19,2.24,3.14,4.25,4.35,4.47,9.56,8.46,14.93,11.83-3.92-4.75-8.06-9.15-10.78-11.63h0ZM661.57,171.85c-8.52-5.69-13.51-8.45-15.82-9.3-.67-.25-.97-.48-.98-.43-.01.21.42.74,1.21,1.49,2.52,2.4,8.43,6.52,15.63,9.87,2.15,1,4.2,1.87,6.14,2.64-1.87-1.34-3.92-2.76-6.18-4.27h0ZM629.44,143.06c-.9-1.54-1.76-2.95-2.59-4.23-4.62-.68-7.95-2.52-10.12-4.54-2.22-2.07-3.23-4.37-3.16-5.89.08-1.8,1.42-2.66,3.88-1.4,2.27,1.17,5.66,4.43,9.99,11.06,3.44.45,7.61.24,12.57-1.04,6.01-1.55,9.5-3.23,11.16-4.92,1.14-1.16,1.38-2.32.99-3.45-.41-1.18-1.51-2.34-3.03-3.43l-.08-.06c-2.28.3-4.57.43-6.81.36-5.52-.18-11.15-2.38-13.85-4.28-.84-.59-1.42-1.17-1.65-1.68-.31-.67-.12-1.22.68-1.55.87-.36,2.67-.38,5.65.15,4.99.89,11.96,3.21,16.24,6.12,6.98-.96,13.73-3.47,17.65-6.32,1.58-1.15,2.69-2.34,3.14-3.5.38-.97.28-1.92-.43-2.8-7.09,1.2-14.41,1.77-19.01,1.19-3.33-.42-5.51-1.35-6.43-2.35-.46-.5-.64-1.03-.53-1.55.11-.51.49-.98,1.14-1.37,1.55-.93,4.82-1.5,9.92-1.09,8.53.7,13.28,2.29,15.29,4.27,4.73-.83,9.32-1.93,12.87-3.16,2.25-.78,4.07-1.61,5.23-2.44,1.02-.73,1.49-1.44,1.19-2.08-.25-.54-1.01-1.09-2.37-1.63-1.84-.72-3.61-1.33-5.32-1.84-1.85.51-3.87,1.03-6.08,1.55-9.28,2.19-14.94,2.25-17.59,1.46-1.81-.54-2.39-1.49-1.91-2.51.41-.88,1.74-1.78,3.83-2.45,4.27-1.35,11.95-1.78,21.77,1.08,9.08-2.52,13.89-4.88,15.78-6.93,1.79-1.94.65-3.62-1.97-4.86-1.88-.89-4.47-1.57-7.34-1.99l-.09.05c-8.21,4.7-16.67,8.14-19.99,7.31-1.47-.37-2.08-1.41-1.48-3.3,1.3-4.14,9.25-5.66,16.97-5.32,1.49.06,2.96.2,4.39.39,7.92-4.58,15.56-10.28,17.88-14.31,1.01-1.75.94-3.14-.69-3.89-1.96-.9-4.12-1.27-6.36-1.26-10.95,6.55-17.27,9.53-20.3,10.4-2.8.8-3.44.14-2.55-1.29.59-.94,2.28-2.4,4.64-3.9,4.47-2.85,11.42-5.92,17.91-6.03.72-.43,1.47-.88,2.23-1.35,7.53-4.58,10.69-12.96,10.94-18.52.06-1.32-.05-2.48-.3-3.38-.23-.83-.58-1.42-1.02-1.68-.37-.22-.85-.18-1.44.18-3.81,2.29-10.43,7.21-18.61,13.28-14.06,10.44-32.67,24.26-49.5,34.04-1.51,1.08-3.05,2.16-4.6,3.24-2.21,1.55-4.42,3.09-6.46,4.59-2.4,1.76-5.15,3.47-8,4.98-2.8,1.48-5.7,2.77-8.45,3.73-11.33,3.93-14.46.74-16.67-4.34-.38-.87-.73-1.78-1.08-2.73l-.28-.73c-1.48-3.88-4.44-6.84-7.75-8.4-1.3-.61-2.65-1.01-3.98-1.15-1.32-.15-2.62-.05-3.84.32-1.94.59-3.66,1.87-4.91,3.97-1.93,3.25-5.1,4.26-6.9,4.84-.6.19-1.01.32-1.03.36-.03.06,1.38.62,5.81,2.35,1.07.02,1.76.51,2.57,1.09.79.57,1.72,1.23,3.29,1.52.58.11,1.03.22,1.32.55.29.34.34.81.06,1.58-1.98,5.35-1.08,14.26,2.34,23.34,2.39,6.33,6.01,12.72,10.75,18.04,4.72,5.3,10.55,9.52,17.37,11.52,5.73,1.68,12.17,1.8,19.25-.32,2.81-.91,5.34-1.91,7.65-2.98-3.03-2.27-5.69-5.08-7.79-8.69h0ZM616.98,127.72c-1.57-.81-2.42-.34-2.47.71-.06,1.33.87,3.38,2.9,5.28,1.93,1.8,4.83,3.43,8.82,4.16-4.03-6.07-7.15-9.07-9.25-10.15h0ZM632.89,118.98c-2.76-.49-4.37-.5-5.07-.21-.25.1-.3.27-.21.47.17.37.65.84,1.36,1.34,2.58,1.82,7.99,3.93,13.3,4.1,1.87.06,3.79-.03,5.7-.23-4.19-2.6-10.49-4.65-15.09-5.47h0ZM654.68,107.32c-4.85-.4-7.91.11-9.31.95-.44.26-.69.55-.75.83-.06.27.05.57.33.87.79.86,2.75,1.66,5.84,2.05,4.4.56,11.34.04,18.14-1.08-2.08-1.66-6.55-3-14.26-3.63h0ZM660.2,98.45c-1.83.58-2.96,1.31-3.28,1.98-.25.53.17,1.05,1.35,1.4,2.51.76,7.97.67,17.06-1.47,1.69-.4,3.27-.79,4.74-1.19-8.96-2.4-15.93-1.97-19.87-.72h0ZM683.49,84.53c-7.34-.32-14.86,1.02-16.02,4.71-.42,1.33-.07,2.05.83,2.27,2.95.74,10.66-2.39,18.41-6.74-1.05-.12-2.13-.2-3.22-.25h0ZM681.08,70.52c-2.25,1.43-3.84,2.78-4.36,3.63-.22.36.19.45,1.44.09,2.84-.82,8.7-3.56,18.76-9.52-5.81.51-11.84,3.26-15.84,5.8h0ZM640.06,85.8c4.97-3.56,9.57-7.13,12.47-10.73,2.49-3.09,3.5-5.51,3.43-7.33-.05-1.27-.65-2.25-1.64-2.94-1.03-.72-2.48-1.16-4.21-1.34l-.38-.03c-2.11,1.99-4.88,4.17-8.42,6.54-8.46,5.66-13.53,8.06-16.12,8.5-1.44.24-2.25-.08-2.54-.79-.25-.62-.01-1.53.63-2.59,1.63-2.7,5.97-6.67,11.02-9.11,5.02-2.43,10.7-3.65,15.07-3.41,2.77-2.67,4.27-4.95,4.78-6.83.4-1.46.18-2.67-.5-3.61-.69-.95-1.86-1.65-3.36-2.08-1.01-.3-2.17-.47-3.42-.53-3.33,3.99-7.75,7.81-12.22,10.14-4.64,2.41-7.51,3.3-9.04,3.22-1.08-.06-1.61-.54-1.7-1.29-.07-.63.22-1.45.8-2.36,1.72-2.73,6.09-6.55,10.59-8.36,3.82-1.54,7.76-2.26,11.12-2.19,1.9-2.33,3.4-4.71,4.3-6.86.74-1.79,1.05-3.4.8-4.67-.24-1.19-.99-2.09-2.39-2.53-1.69-.53-4.28-.44-7.96.51-1.77,3.63-3.57,6.53-5.08,8.13-2.73,2.89-5.48,3.95-7.45,3.84-1.15-.06-2.05-.5-2.58-1.21-.53-.7-.67-1.64-.31-2.71.7-2.07,3.38-4.69,9.09-6.87,2.09-.8,3.97-1.41,5.65-1.86.26-.54.51-1.09.77-1.65,1.9-4.2,3.69-9.15,4.93-14.08.97-3.81,1.04-6.38.46-7.87-.29-.75-.74-1.21-1.32-1.39-.6-.19-1.37-.11-2.26.21-2.18.8-4.97,3.01-7.85,6.28-7,7.94-17.85,21.48-25.9,36.02-5.47,9.87-9.65,20.2-10.45,29.55-.94,10.99,2.79,15.64,9.37,16.09,7.7.52,19.22-4.47,31.83-11.79h0ZM639.98,35.45c-1.44.42-3.03.95-4.78,1.62-5.41,2.07-7.93,4.47-8.56,6.34-.28.82-.18,1.51.19,2.01.37.49,1.02.8,1.86.84,1.72.09,4.17-.88,6.68-3.55,1.36-1.44,2.99-4.02,4.61-7.27h0ZM645.72,49.5c-3.06.04-6.59.74-10.04,2.13-4.32,1.74-8.51,5.39-10.16,8.01-.48.77-.74,1.42-.69,1.87.04.31.29.51.82.54,1.36.07,4.05-.78,8.51-3.11,4.2-2.18,8.35-5.71,11.55-9.44h0ZM634.74,66.71c-4.89,2.36-9.07,6.18-10.64,8.77-.51.85-.73,1.52-.57,1.91.12.3.59.41,1.49.25,2.47-.42,7.4-2.77,15.73-8.34,3.2-2.14,5.76-4.12,7.75-5.93-4.09-.05-9.2,1.13-13.77,3.34Z"/>
      </g>
    </g>
  </g>
</svg>