<?xml version="1.0" encoding="UTF-8"?>
<svg id="_レイヤー_2" data-name="レイヤー 2" xmlns="http://www.w3.org/2000/svg" viewBox="0 0 569 474.21">
  <defs>
    <style>
      .cls-1 {
        fill: #0c3f3c;
      }

      .cls-2 {
        fill: #c92a1d;
      }

      .cls-3 {
        fill: #fff;
      }

      .cls-4 {
        fill: #ab8f4a;
      }
    </style>
  </defs>
  <g id="_レイヤー_1-2" data-name="レイヤー 1">
    <g>
      <g>
        <path d="M58.26,164.53c-1.74,1.98-3.6,3.84-5.4,5.34-.84-.84-2.58-2.34-3.66-2.94,5.16-3.78,9.96-9.6,12.78-15.66l4.26,1.26c-.9,1.92-1.98,3.84-3.18,5.64h37.86v3.96h-6.18v10.14h8.4v3.96h-8.4v10.26h7.56v4.02h-51.42v-4.02h7.38v-10.26h-8.34v-3.96h8.34v-7.74ZM49.5,204.37c3.12-2.46,5.94-7.02,7.44-11.34l4.14,1.02c-1.44,4.5-4.14,9.24-7.38,12.06l-4.2-1.74ZM62.28,172.27h6.66v-10.14h-6.66v10.14ZM62.28,186.49h6.66v-10.26h-6.66v10.26ZM71.4,194.11c.72,3.54,1.38,8.1,1.44,10.8l-4.26.6c-.06-2.76-.54-7.38-1.26-10.98l4.08-.42ZM79.68,172.27v-10.14h-6.96v10.14h6.96ZM72.72,176.23v10.26h6.96v-10.26h-6.96ZM83.58,193.81c1.62,3.42,3.24,8.04,3.84,10.86l-4.32.9c-.6-2.82-2.16-7.44-3.66-10.98l4.14-.78ZM90.54,162.13h-7.02v10.14h7.02v-10.14ZM90.54,176.23h-7.02v10.26h7.02v-10.26ZM95.7,192.79c3,3.6,6.54,8.52,8.16,11.76l-4.44,1.62c-1.44-3.18-4.86-8.28-7.8-12l4.08-1.38Z"/>
        <path d="M132.3,176.35c1.68,1.86,7.68,9.78,9,11.82l-2.94,3.48c-1.08-2.22-3.9-6.84-6.06-10.2v24.6h-4.14v-24.66c-2.22,6.42-5.28,13.08-8.28,17.1-.48-1.26-1.56-3.24-2.28-4.32,3.48-4.2,7.26-11.94,9.36-18.66h-8.4v-4.2h9.6v-19.8h4.14v19.8h9.78v4.2h-9.78v.84ZM122.22,169.21c-.3-3.6-1.68-9.12-3.24-13.32l3.24-.78c1.74,4.14,3.12,9.54,3.54,13.14l-3.54.96ZM142.08,155.83c-1.44,4.5-3.3,10.14-4.92,13.5l-2.88-.96c1.38-3.54,3.06-9.48,3.96-13.5l3.84.96ZM165.48,189.19v16.86h-4.2v-16.08l-18.6,3.36-.72-4.14,19.32-3.42v-34.44h4.2v33.66l7.08-1.26.66,4.08-7.74,1.38ZM153.36,180.79c-2.1-2.22-6.36-5.28-9.96-7.2l2.1-3.12c3.54,1.86,7.98,4.56,10.08,6.72l-2.22,3.6ZM155.88,166.27c-1.92-2.28-6-5.52-9.42-7.74l2.28-3c3.36,2.04,7.5,5.1,9.42,7.32l-2.28,3.42Z"/>
        <path d="M198.84,182.83v18.06c0,2.4-.54,3.66-2.04,4.38-1.44.66-3.72.84-7.44.78-.18-1.02-.72-2.88-1.32-4.08,2.58.06,4.92.06,5.64,0,.72,0,1.02-.18,1.02-1.08v-16.74l-7.14,2.34-1.14-4.32c2.28-.6,5.16-1.5,8.28-2.46v-12.3h-7.5v-4.08h7.5v-12h4.14v12h6.42v4.08h-6.42v11.04c1.98-.6,3.96-1.26,5.94-1.92l.6,4.14-6.54,2.16ZM241.08,183.97c-2.82,2.52-6.24,5.28-9.18,7.26,2.4,5.1,5.82,8.94,10.74,11.1-.9.78-2.16,2.46-2.82,3.6-9-4.5-13.32-13.98-15.3-26.88h-4.92v20.28c3.12-.54,6.54-1.2,9.9-1.86l.36,3.66c-6.54,1.32-13.26,2.76-18.42,3.78l-1.02-3.9,5.16-.9v-21.06h-3.66c-.54,8.94-2.34,19.32-7.44,26.76-.66-.72-2.46-2.04-3.42-2.46,6.3-9.36,6.9-22.5,6.9-32.1v-16.98h32.28v3.96h-28.08v13.08c0,1.26,0,2.52-.06,3.9h29.22v3.84h-12.96c.54,3.24,1.26,6.24,2.28,8.94,2.64-2.1,5.58-4.8,7.44-6.84l3,2.82ZM215.04,168.37v-3.78h23.58v3.78h-23.58Z"/>
        <path d="M279.54,175.93c-1.62,2.22-3.6,4.62-5.34,6.42,1.74,1.92,3.42,3.78,4.08,4.56l-2.64,3.12c-1.2-1.8-3.96-5.28-6.24-7.98v24h-4.26v-22.08c-2.46,2.82-5.04,5.28-7.56,7.26-.48-1.08-1.68-3.12-2.34-3.84,6.36-4.56,13.02-12.6,16.68-20.88h-15.06v-4.02h8.1v-10.8h4.26v10.8h4.8l.84-.24,2.34,1.62c-1.74,4.86-4.32,9.66-7.26,13.92.6.66,1.44,1.5,2.28,2.4,1.62-1.98,3.48-4.44,4.56-6.3l2.76,2.04ZM309.18,163.99v41.58h-4.26v-2.7h-20.76v3.12h-4.2v-42h12.24v-12.66h4.26v12.66h12.72ZM284.16,168.07v13.08h8.04v-13.08h-8.04ZM284.16,198.73h8.04v-13.56h-8.04v13.56ZM296.46,168.07v13.08h8.46v-13.08h-8.46ZM304.92,198.73v-13.56h-8.46v13.56h8.46Z"/>
        <path d="M339.72,173.59c2.1,2.16,7.62,8.52,8.88,10.14l-2.76,3.66c-1.14-1.98-3.84-5.76-6.12-8.7v27.3h-4.2v-28.68c-2.34,6.9-5.46,13.56-8.7,17.64-.48-1.26-1.62-3-2.34-4.08,4.14-4.98,8.4-14.28,10.5-22.56h-9.18v-4.2h9.72v-12.84h4.2v12.84h8.58v4.2h-8.58v5.28ZM377.76,154.81v50.64h-4.38v-3.42h-18.18v3.6h-4.26v-50.82h26.82ZM355.2,159.01v10.02h18.18v-10.02h-18.18ZM355.2,183.43h18.18v-10.32h-18.18v10.32ZM373.38,197.89v-10.38h-18.18v10.38h18.18Z"/>
        <path d="M416.22,164.89h-22.2v-3.66h22.2v3.66ZM414.24,202.63h-13.62v2.76h-3.9v-20.1h17.52v17.34ZM414.18,172.87h-17.4v-3.54h17.4v3.54ZM396.78,177.25h17.4v3.6h-17.4v-3.6ZM414.06,156.97h-17.04v-3.6h17.04v3.6ZM400.62,188.95v10.08h9.78v-10.08h-9.78ZM434.88,184.63c0,3.3,2.1,13.08,14.52,17.7-.84,1.02-2.1,2.76-2.7,3.78-9.12-3.66-13.14-11.4-14.04-15-.9,3.66-5.1,11.16-15.6,15-.54-.96-1.74-2.7-2.64-3.6,13.92-4.8,16.02-14.46,16.02-17.88v-8.58h4.44v8.58ZM415.86,191.35c2.88-2.1,4.74-6.24,5.58-10.44l3.96.84c-.84,4.5-2.76,9.06-6,11.7l-3.54-2.1ZM445.8,177.91c-3-2.7-8.7-6.72-13.74-9.9-2.34,4.68-6.3,8.04-13.26,10.38-.48-1.08-1.62-2.64-2.52-3.48,12.3-3.78,13.98-10.86,14.58-23.58h4.32c-.24,5.04-.66,9.3-1.68,12.9,5.28,3.18,11.82,7.44,15.24,10.32l-2.94,3.36ZM425.76,156.07c-.6,3.96-2.22,8.28-5.04,10.74l-3.42-1.68c2.52-2.04,4.14-6,4.74-9.78l3.72.72ZM447.54,156.49c-1.92,3.36-4.14,7.14-6,9.54l-3.3-1.38c1.74-2.58,3.96-6.72,5.1-9.66l4.2,1.5ZM438.36,190.93c1.92-2.76,4.32-7.32,5.58-10.44l4.32,1.5c-2.04,3.6-4.5,7.74-6.54,10.38l-3.36-1.44Z"/>
        <path d="M492.3,151.39c6.3,8.82,16.74,16.62,26.16,20.52-1.02,1.08-2.1,2.64-2.88,3.96-9.24-4.5-19.74-12.48-25.32-20.22-4.86,7.2-14.58,15.42-24.78,20.46-.48-1.02-1.62-2.64-2.58-3.54,10.26-4.92,20.22-13.56,24.84-21.18h4.56ZM466.02,181.21h49.32v4.14h-28.14c-2.1,4.44-4.68,9.6-7.08,13.8,7.44-.24,15.9-.54,24.3-.9-2.46-2.82-5.28-5.76-7.92-8.1l3.78-2.04c5.52,4.74,11.34,11.22,14.1,15.66l-4.02,2.46c-.72-1.2-1.62-2.58-2.76-4.02-14.7.72-30.24,1.38-40.5,1.74l-.6-4.38c2.58-.06,5.58-.12,8.82-.24,2.28-4.14,4.86-9.6,6.48-13.98h-15.78v-4.14ZM504.6,169.81v4.08h-28.38v-4.08h28.38Z"/>
      </g>
      <g>
        <g>
          <path d="M267.23,51.16c5.32,0,8.23,2.49,8.23,6.16,0,2.73-1.75,5.15-5.99,6.06,5.11.67,7.28,3.19,7.28,6.37,0,3.54-2.83,6.93-9.77,6.93h-10.29v-1.26l3.64-.39c.1-3.36.1-6.76.1-10.19v-1.93c0-3.36,0-6.79-.1-10.15l-3.64-.39v-1.23h10.54ZM263.45,52.6c-.11,3.29-.11,6.65-.11,10.15h2.21c4.76,0,6.97-1.75,6.97-5.32s-1.96-4.83-6.23-4.83h-2.83ZM266.29,75.24c4.87,0,7.35-1.96,7.35-5.5s-2.38-5.6-7.84-5.6h-2.45c0,4.1,0,7.67.11,11.1h2.83Z"/>
          <path d="M290.58,52.77c-.11,3.33-.11,6.72-.11,10.19v1.93c0,3.36,0,6.79.11,10.15l3.64.39v1.26h-10.4v-1.26l3.64-.39c.1-3.33.1-6.72.1-10.15v-1.93c0-3.4,0-6.83-.1-10.19l-3.64-.39v-1.23h10.4v1.23l-3.64.39Z"/>
          <path d="M324.39,75.42v1.26h-10.12v-1.26l3.85-.39-2.31-6.97h-9l-2.28,6.9,3.67.46v1.26h-8.4v-1.26l3.15-.42,8.09-24.08h1.96l8.23,24.15,3.15.35ZM315.32,66.63l-4.03-12.11-3.99,12.11h8.02Z"/>
          <path d="M354.63,52.39l-3.25.46-.04,24.12h-1.16l-15.58-21.6.04,19.6,4.06.46v1.26h-9v-1.26l3.29-.42.03-21.84-.31-.46-2.87-.35v-1.19h5.46l14.49,20.27-.04-18.55-4.1-.49v-1.23h8.96v1.23Z"/>
          <path d="M382.07,69.82l-.11,5.53c-2.38,1.36-4.9,1.89-7.6,1.89-7.63,0-12.81-5.5-12.81-13.34s5.43-13.34,12.81-13.34c2.28,0,4.76.42,7.25,1.89l.14,5.5h-1.92l-.84-4.73c-1.44-.77-2.84-1.09-4.24-1.09-5.57,0-9.77,4.27-9.77,11.76s3.96,11.76,9.52,11.76c1.61,0,3.25-.31,4.83-1.09l.84-4.76h1.89Z"/>
          <path d="M412.13,75.42v1.26h-10.12v-1.26l3.85-.39-2.31-6.97h-9l-2.28,6.9,3.67.46v1.26h-8.4v-1.26l3.15-.42,8.09-24.08h1.96l8.23,24.15,3.15.35ZM403.07,66.63l-4.03-12.11-3.99,12.11h8.02Z"/>
        </g>
        <path d="M227.53,70.45l-.62-.62,5.5-5.5-5.5-5.5.62-.62,5.5,5.5,5.5-5.5.62.62-5.5,5.5,5.5,5.5-.62.62-5.5-5.5-5.5,5.5Z"/>
        <g>
          <path d="M163.13,52.77c-.11,3.33-.11,6.72-.11,10.19v1.93c0,3.36,0,6.79.11,10.15l3.64.39v1.26h-10.4v-1.26l3.64-.39c.1-3.33.1-6.72.1-10.15v-1.93c0-3.4,0-6.83-.1-10.19l-3.64-.39v-1.23h10.4v1.23l-3.64.39Z"/>
          <path d="M176.78,58.58c.25-4.1.98-6.48,2.66-8.23,1.54-1.72,3.43-2.28,5.08-2.28s3.08.59,3.46,1.85c-.07.84-.77,1.47-1.96,1.47-.91,0-1.72-.39-2.62-1.08l-1.02-.81c-.63.31-1.22.84-1.65,1.54-.94,1.4-1.5,3.54-1.4,7.63h5.5v1.61h-5.43v8.4c0,2.14.04,4.27.07,6.41l3.57.46v1.12h-9.63v-1.12l3.26-.46c.03-2.14.07-4.27.07-6.41v-8.4h-3.36v-1.3l3.4-.42Z"/>
          <path d="M210.77,75.56v1.12h-8.54v-1.12l2.98-.42c.04-1.96.07-4.62.07-6.44v-3.5c0-3.64-1.08-4.83-3.36-4.83-1.75,0-3.54.63-5.81,2.8v5.53c0,1.79.03,4.48.07,6.44l2.77.42v1.12h-8.58v-1.12l3.01-.46c.04-1.93.07-4.62.07-6.41v-17.43l-3.18-.28v-1.09l5.36-1.47.52.32-.14,5.39v7.74c2.03-2.24,4.69-3.68,7.11-3.68,3.19,0,4.8,1.89,4.8,6.86v3.64c0,1.82.04,4.48.07,6.41l2.8.46Z"/>
        </g>
      </g>
      <g>
        <path d="M165.65,2.93c-.07,2.28-.07,4.63-.07,7.03v1.32c0,2.3,0,4.66.07,6.96l2.76.26v.86h-7.66v-.86l2.78-.26c.05-2.28.05-4.61.05-6.96v-1.32c0-2.35,0-4.73-.05-7.03h-4.39l-.67,3.5h-1.2l.19-4.56h14.21l.24,4.56h-1.2l-.67-3.5h-4.39Z"/>
        <path d="M176.04,13.25c0-4.37,2.93-6.55,5.91-6.55s5.88,2.18,5.88,6.55-2.93,6.46-5.88,6.46-5.91-2.11-5.91-6.46ZM185.81,13.25c0-3.58-1.46-5.59-3.86-5.59s-3.86,2.02-3.86,5.59,1.44,5.5,3.86,5.5,3.86-1.9,3.86-5.5Z"/>
        <path d="M199.78,18.51c-.67.77-1.66,1.2-2.88,1.2-1.82,0-2.83-.98-2.83-3.02,0-.6.02-1.15.02-2.09v-6.46h-2.35v-.89l2.45-.29.58-3.55h1.32l-.14,3.62h3.6v1.1h-3.62v8.45c0,1.42.58,2.02,1.56,2.02.62,0,1.15-.22,1.82-.7l.48.6Z"/>
        <path d="M215.36,18.46c-.58.86-1.25,1.2-2.09,1.2-1.22,0-1.99-.82-2.21-2.14-1.46,1.49-2.42,2.18-3.98,2.18-1.92,0-3.46-1.1-3.46-3.17,0-1.61.94-2.78,4.2-3.96.94-.29,2.09-.62,3.19-.86v-.77c0-2.64-.79-3.29-2.62-3.29-.5,0-1.06.05-1.68.26l-.53,1.78c-.19.7-.55,1.06-1.18,1.06s-1.01-.34-1.06-.91c.5-1.97,2.38-3.14,4.92-3.14s3.96,1.2,3.96,4.32v5.69c0,1.39.38,1.82,1.03,1.82.43,0,.72-.19,1.08-.58l.41.5ZM211.01,12.48c-.98.26-2.04.6-2.69.86-2.33.89-2.76,1.9-2.76,2.86,0,1.44.91,2.09,2.21,2.09,1.01,0,1.7-.43,3.24-1.66v-4.15Z"/>
        <path d="M225.05,18.6v.77h-6.31v-.77l2.23-.31c.02-1.42.05-2.98.05-4.39V1.94l-2.18-.19v-.74l3.72-1.01.36.22-.07,3.7v9.98c0,1.42.02,2.98.05,4.39l2.16.31Z"/>
        <path d="M241.54,8.69c1.27-1.42,2.69-1.99,4.08-1.99,2.86,0,4.99,2.42,4.99,6.36s-2.18,6.65-5.3,6.65c-1.22,0-2.54-.43-3.74-1.9l-.19,1.8-3.7-.24v-.77l2.06-.31c.02-1.32.05-3.17.05-4.39V1.97l-2.18-.22v-.74l3.67-1.01.36.22-.1,3.7v4.78ZM241.61,16.95c1.13,1.1,2.28,1.54,3.34,1.54,1.99,0,3.72-1.56,3.72-5.28,0-3.48-1.49-5.3-3.6-5.3-.91,0-1.97.24-3.46,1.61v7.44Z"/>
        <path d="M257.4,13.06c.02,3.55,1.9,5.3,4.44,5.3,1.7,0,2.83-.74,3.77-1.87l.5.38c-.98,1.73-2.64,2.83-4.87,2.83-3.36,0-5.79-2.33-5.79-6.43s2.71-6.58,5.88-6.58c2.78,0,4.8,1.9,4.8,4.9,0,.62-.05,1.13-.17,1.49l-8.57-.02ZM263.04,12.15c1.06,0,1.3-.53,1.3-1.3,0-1.68-1.27-3.19-3.12-3.19-1.75,0-3.5,1.44-3.79,4.49h5.62Z"/>
        <path d="M282.79,18.46c-.58.86-1.25,1.2-2.09,1.2-1.22,0-1.99-.82-2.21-2.14-1.46,1.49-2.42,2.18-3.98,2.18-1.92,0-3.46-1.1-3.46-3.17,0-1.61.94-2.78,4.2-3.96.94-.29,2.09-.62,3.19-.86v-.77c0-2.64-.79-3.29-2.62-3.29-.5,0-1.06.05-1.68.26l-.53,1.78c-.19.7-.55,1.06-1.18,1.06s-1.01-.34-1.06-.91c.5-1.97,2.38-3.14,4.92-3.14s3.96,1.2,3.96,4.32v5.69c0,1.39.38,1.82,1.03,1.82.43,0,.72-.19,1.08-.58l.41.5ZM278.45,12.48c-.98.26-2.04.6-2.69.86-2.33.89-2.76,1.9-2.76,2.86,0,1.44.91,2.09,2.21,2.09,1.01,0,1.7-.43,3.24-1.66v-4.15Z"/>
        <path d="M299.79,18.6v.77l-3.41.22-.19-2.4c-1.34,1.66-3,2.52-4.68,2.52-2.16,0-3.43-1.22-3.41-4.75l.07-6.67-1.99-.34v-.77l3.6-.31.24.26-.12,3.65v4.03c0,2.5.77,3.36,2.33,3.36,1.37,0,2.69-.65,3.91-1.92l.05-7.97-1.97-.34v-.77l3.55-.31.26.26-.1,3.65v7.54l1.85.29Z"/>
        <path d="M311.5,18.51c-.67.77-1.66,1.2-2.88,1.2-1.82,0-2.83-.98-2.83-3.02,0-.6.02-1.15.02-2.09v-6.46h-2.35v-.89l2.45-.29.58-3.55h1.32l-.14,3.62h3.6v1.1h-3.62v8.45c0,1.42.58,2.02,1.56,2.02.62,0,1.15-.22,1.82-.7l.48.6Z"/>
        <path d="M327.34,7.78l-1.46.29-4.42,11.69c-1.66,4.39-3.29,6.17-5.23,6.17-1.18,0-2.21-.6-2.23-1.51.14-.65.82-.96,1.51-.96s1.18.29,1.8.89l.19.19c1.22-.86,2.06-2.33,2.66-3.98l.22-.55-4.75-12-1.54-.22v-.74h5.95v.77l-2.3.26,3.53,9.55,3.41-9.53-2.35-.31v-.74h5.02v.74Z"/>
        <path d="M344.95,12.39c2.54.94,3.5,2.09,3.5,3.7,0,1.9-1.66,3.62-4.92,3.62-1.44,0-2.57-.34-3.84-.94l-.1-2.81h1.15l.53,2.33c.65.29,1.37.46,2.26.46,2.14,0,3.14-.89,3.14-2.18,0-1.18-.74-1.78-2.5-2.42l-1.2-.46c-1.92-.7-3.17-1.7-3.17-3.48,0-1.87,1.56-3.5,4.39-3.5,1.39,0,2.45.36,3.6,1.03l-.1,2.59h-1.06l-.43-2.14c-.65-.36-1.32-.53-2.02-.53-1.75,0-2.64.82-2.64,1.99s.67,1.73,2.45,2.4l.94.34Z"/>
        <path d="M364.97,18.46c-.58.86-1.25,1.2-2.09,1.2-1.22,0-1.99-.82-2.21-2.14-1.46,1.49-2.42,2.18-3.98,2.18-1.92,0-3.46-1.1-3.46-3.17,0-1.61.94-2.78,4.2-3.96.94-.29,2.09-.62,3.19-.86v-.77c0-2.64-.79-3.29-2.62-3.29-.5,0-1.06.05-1.68.26l-.53,1.78c-.19.7-.55,1.06-1.18,1.06s-1.01-.34-1.06-.91c.5-1.97,2.38-3.14,4.92-3.14s3.96,1.2,3.96,4.32v5.69c0,1.39.38,1.82,1.03,1.82.43,0,.72-.19,1.08-.58l.41.5ZM360.62,12.48c-.98.26-2.04.6-2.69.86-2.33.89-2.76,1.9-2.76,2.86,0,1.44.91,2.09,2.21,2.09,1.01,0,1.7-.43,3.24-1.66v-4.15Z"/>
        <path d="M374.66,18.6v.77h-6.31v-.77l2.23-.31c.02-1.42.05-2.98.05-4.39V1.94l-2.18-.19v-.74l3.72-1.01.36.22-.07,3.7v9.98c0,1.42.02,2.98.05,4.39l2.16.31Z"/>
        <path d="M379.03,13.25c0-4.37,2.93-6.55,5.91-6.55s5.88,2.18,5.88,6.55-2.93,6.46-5.88,6.46-5.91-2.11-5.91-6.46ZM388.8,13.25c0-3.58-1.46-5.59-3.86-5.59s-3.86,2.02-3.86,5.59,1.44,5.5,3.86,5.5,3.86-1.9,3.86-5.5Z"/>
        <path d="M409.44,18.6v.77h-5.88v-.77l2.04-.29c.02-1.32.05-3.17.05-4.42v-2.4c0-2.5-.72-3.31-2.26-3.31-1.18,0-2.4.5-3.94,1.92v3.79c0,1.22.02,3.07.05,4.39l1.9.31v.77h-5.86v-.77l2.02-.29c.05-1.34.07-3.19.07-4.42v-1.32c0-1.51-.05-2.52-.1-3.65l-2.14-.17v-.77l3.46-1.27.34.24.19,2.21c1.39-1.54,3.19-2.47,4.8-2.47,2.18,0,3.29,1.32,3.29,4.7v2.5c0,1.25.02,3.07.07,4.39l1.9.31Z"/>
      </g>
      <g>
        <g>
          <path class="cls-2" d="M214.49,448.08v4.04h-19.91v-3.1c2.58-2.67,5.07-5.33,7.18-7.48,4.82-5.07,6.75-8.47,6.75-12.43s-2.19-6.45-5.72-6.45c-.65,0-1.46.09-2.32.26l-.99,3.66c-.52,2.32-1.46,3.05-2.71,3.05-1.03,0-1.85-.56-2.36-1.51.56-4.77,4.9-7.22,9.85-7.22,6.19,0,9.07,3.35,9.07,8.17,0,4.13-2.62,7.57-10.06,13.97-1.33,1.2-3.31,3.05-5.5,5.03h16.73Z"/>
          <path class="cls-2" d="M231.7,418.37h2.75l-12.69,41.37h-2.79l12.73-41.37Z"/>
        </g>
        <g>
          <path class="cls-2" d="M214.49,379.08v4.04h-19.91v-3.1c2.58-2.67,5.07-5.33,7.18-7.48,4.82-5.07,6.75-8.47,6.75-12.43s-2.19-6.45-5.72-6.45c-.65,0-1.46.09-2.32.26l-.99,3.66c-.52,2.32-1.46,3.05-2.71,3.05-1.03,0-1.85-.56-2.36-1.51.56-4.77,4.9-7.22,9.85-7.22,6.19,0,9.07,3.35,9.07,8.17,0,4.13-2.62,7.57-10.06,13.97-1.33,1.2-3.31,3.05-5.5,5.03h16.73Z"/>
          <path class="cls-2" d="M240.94,367.9c0,11.48-4.94,15.87-10.15,15.87s-10.19-4.39-10.19-15.87,4.9-16,10.19-16,10.15,4.51,10.15,16ZM230.79,382.05c2.79,0,5.42-3.01,5.42-14.15s-2.62-14.23-5.42-14.23-5.46,3.01-5.46,14.23,2.54,14.15,5.46,14.15Z"/>
          <path class="cls-2" d="M267.3,379.08v4.04h-19.91v-3.1c2.58-2.67,5.07-5.33,7.18-7.48,4.82-5.07,6.75-8.47,6.75-12.43s-2.19-6.45-5.72-6.45c-.65,0-1.46.09-2.32.26l-.99,3.66c-.52,2.32-1.46,3.05-2.71,3.05-1.03,0-1.85-.56-2.36-1.51.56-4.77,4.9-7.22,9.85-7.22,6.19,0,9.07,3.35,9.07,8.17,0,4.13-2.62,7.57-10.06,13.97-1.33,1.2-3.31,3.05-5.5,5.03h16.73Z"/>
          <path class="cls-2" d="M292.37,353.11c-8.73,2.02-13.29,6.88-14.15,14.19,1.93-1.94,4.39-3.01,7.05-3.01,5.2,0,8.6,3.78,8.6,9.37,0,6.28-4.04,10.1-9.98,10.1-6.58,0-10.62-4.86-10.62-13.16,0-9.46,7.05-17.37,18.83-18.7l.26,1.2ZM289.14,374.14c0-4.99-2.06-7.31-5.38-7.31-1.89,0-3.91.52-5.68,2.11-.04.34-.04.69-.04,1.03,0,8.17,2.28,12.08,5.89,12.08,3.05,0,5.2-2.54,5.2-7.91Z"/>
        </g>
        <g>
          <path class="cls-2" d="M335.71,449.09c3.7,1.5,5.07,3.05,5.07,5.67,0,3.22-2.62,5.3-6.67,5.3-2.07,0-4.1-.65-5.42-1.47l.15-3.97h1.37l.85,3.65c.87.45,1.67.62,2.82.62,2.6,0,4.27-1.2,4.27-3.37,0-1.75-.92-2.65-3.3-3.57l-1.08-.47c-2.97-1.25-4.8-2.85-4.8-5.62,0-3.25,2.67-5.1,6.27-5.1,1.88,0,3.35.55,4.6,1.45l-.15,3.7h-1.4l-.85-3.5c-.65-.35-1.3-.48-2.1-.48-2.22,0-3.77,1.07-3.77,3.15,0,1.75,1.08,2.75,3,3.52l1.12.5Z"/>
          <path class="cls-2" d="M361.21,458.71v.9h-7.67v-.9l2.57-.3-1.6-4.85h-6.2l-1.55,4.82,2.6.32v.9h-6v-.9l2.2-.32,5.75-17.3h1.85l5.9,17.37,2.15.25ZM354.19,452.54l-2.82-8.55-2.72,8.55h5.55Z"/>
          <path class="cls-2" d="M372.69,442.29c-.05,2.45-.05,4.92-.05,7.47v1.27c0,2.45,0,4.92.05,7.4l2.75.27v.9h-8.52v-.9l2.75-.27c.08-2.42.08-4.9.08-7.4v-1.27c0-2.47,0-4.97-.08-7.47h-4.1l-.92,3.9h-1.35l.2-5h15.37l.2,5h-1.35l-.92-3.9h-4.1Z"/>
        </g>
        <g>
          <path class="cls-2" d="M504.73,449.09c3.7,1.5,5.07,3.05,5.07,5.67,0,3.22-2.62,5.3-6.67,5.3-2.07,0-4.1-.65-5.42-1.47l.15-3.97h1.37l.85,3.65c.88.45,1.67.62,2.83.62,2.6,0,4.27-1.2,4.27-3.37,0-1.75-.92-2.65-3.3-3.57l-1.08-.47c-2.97-1.25-4.8-2.85-4.8-5.62,0-3.25,2.67-5.1,6.27-5.1,1.88,0,3.35.55,4.6,1.45l-.15,3.7h-1.4l-.85-3.5c-.65-.35-1.3-.48-2.1-.48-2.22,0-3.77,1.07-3.77,3.15,0,1.75,1.07,2.75,3,3.52l1.12.5Z"/>
          <path class="cls-2" d="M531.4,442.09l-2.47.35-.05,9.65c-.03,5.62-2.57,7.97-6.55,7.97s-6.82-2.12-6.82-7.52v-2.85c0-2.42,0-4.9-.08-7.35l-2.25-.25v-.9h7.95v.9l-2.67.3c-.05,2.4-.05,4.82-.05,7.3v2.27c0,4.7,1.7,6.27,4.57,6.27,3.15,0,4.77-1.82,4.75-6.62l-.05-9.15-2.87-.38v-.9h6.6v.9Z"/>
          <path class="cls-2" d="M552.77,442.09l-2.3.35-.08,17.32h-1.3l-11.12-15.45.08,14.02,3.05.37v.9h-6.6v-.9l2.3-.35.1-15.57-.35-.45-1.92-.25v-.9h4.67l10,13.9-.05-12.62-3.07-.38v-.9h6.6v.9Z"/>
        </g>
        <path class="cls-2" d="M399.67,444.81c-2.28,0-4.12-1.84-4.12-4.12s1.84-4.12,4.12-4.12,4.12,1.84,4.12,4.12-1.84,4.12-4.12,4.12Z"/>
        <g>
          <path class="cls-2" d="M275.45,457.4v2.24h-28.98v-2.24l10.78-1.4c.07-4.2.14-8.47.14-12.6v-28.49l-9.8,1.05v-2.66l16.52-4.06.98.77-.21,11.06v22.33c0,4.13.07,8.33.14,12.6l10.43,1.4Z"/>
          <path class="cls-2" d="M318.15,445.43h-7.98v14.21h-7.07v-14.21h-20.79v-4.2l22.68-31.78h5.18v30.8h7.98v5.18ZM303.1,440.25v-23.73l-16.87,23.73h16.87Z"/>
        </g>
        <g>
          <path class="cls-2" d="M442.74,457.4v2.24h-28.98v-2.24l10.78-1.4c.07-4.2.14-8.47.14-12.6v-28.49l-9.8,1.05v-2.66l16.52-4.06.98.77-.21,11.06v22.33c0,4.13.07,8.33.14,12.6l10.43,1.4Z"/>
          <path class="cls-2" d="M458.21,430.03c2.66-.84,5.25-1.19,8.26-1.19,10.43,0,17.29,5.53,17.29,15.4s-7.49,16.45-18.55,16.45c-8.26,0-13.51-3.92-14.77-11.06.63-1.75,2.1-2.59,3.78-2.59,2.31,0,3.5,1.26,4.34,4.97l1.19,5.25c1.47.42,2.87.63,4.55.63,7.35,0,11.62-4.9,11.62-12.74s-4.48-12.32-11.55-12.32c-2.66,0-5.18.28-7.63,1.05l-2.03-.77,1.61-23.24h25.9v6.58h-23.1l-.91,13.58Z"/>
        </g>
      </g>
      <g>
        <path d="M128.96,244.95c-1.87,3.04-5.17,7.28-9.46,10.56,1.56,1.56,3.41,3.51,4.45,4.78l-1.9,1.51c-.96-1.33-3.04-3.61-4.68-5.3-1.56-1.56-4.58-4.16-5.95-5.12l1.69-1.38c.96.7,3.09,2.44,4.86,4.03,3.82-2.86,6.81-6.68,8.11-9.02h-15.29c-1.01,0-2.13.1-2.65.16v-2.34c.73.1,1.74.21,2.65.21h15.5c.73,0,1.33-.08,1.69-.21l1.64,1.33c-.26.29-.49.57-.65.81Z"/>
        <path d="M158.86,244.95c-1.87,3.04-5.17,7.28-9.46,10.56,1.56,1.56,3.41,3.51,4.45,4.78l-1.9,1.51c-.96-1.33-3.04-3.61-4.68-5.3-1.56-1.56-4.58-4.16-5.95-5.12l1.69-1.38c.96.7,3.09,2.44,4.86,4.03,3.82-2.86,6.81-6.68,8.11-9.02h-15.29c-1.01,0-2.13.1-2.65.16v-2.34c.73.1,1.74.21,2.65.21h15.5c.73,0,1.33-.08,1.69-.21l1.64,1.33c-.26.29-.49.57-.65.81Z"/>
        <path d="M171.47,252.54v7.83c0,1.04-.23,1.59-.88,1.9-.62.29-1.61.36-3.22.34-.08-.44-.31-1.25-.57-1.77,1.12.03,2.13.03,2.44,0,.31,0,.44-.08.44-.47v-7.25l-3.09,1.01-.49-1.87c.99-.26,2.24-.65,3.59-1.07v-5.33h-3.25v-1.77h3.25v-5.2h1.79v5.2h2.78v1.77h-2.78v4.78c.86-.26,1.72-.55,2.57-.83l.26,1.79-2.83.94ZM189.77,253.04c-1.22,1.09-2.7,2.29-3.98,3.15,1.04,2.21,2.52,3.87,4.65,4.81-.39.34-.94,1.07-1.22,1.56-3.9-1.95-5.77-6.06-6.63-11.65h-2.13v8.79c1.35-.23,2.83-.52,4.29-.81l.16,1.59c-2.83.57-5.75,1.2-7.98,1.64l-.44-1.69,2.24-.39v-9.13h-1.59c-.23,3.87-1.01,8.37-3.22,11.6-.29-.31-1.07-.88-1.48-1.07,2.73-4.06,2.99-9.75,2.99-13.91v-7.36h13.99v1.72h-12.17v5.67c0,.55,0,1.09-.03,1.69h12.66v1.66h-5.62c.23,1.4.55,2.7.99,3.87,1.14-.91,2.42-2.08,3.22-2.96l1.3,1.22ZM178.49,246.28v-1.64h10.22v1.64h-10.22Z"/>
        <path d="M209.01,261.43l-1.22-1.92c.83-.08,1.64-.21,2.24-.34,3.33-.75,6.6-3.22,6.6-7.72,0-3.93-2.52-7.18-6.94-7.54-.34,2.42-.83,5.07-1.56,7.49-1.59,5.36-3.64,8.09-6.06,8.09s-4.63-2.65-4.63-6.94c0-5.64,5.02-10.58,11.36-10.58s9.96,4.29,9.96,9.57-3.59,9.1-9.75,9.91ZM202.15,257.09c1.22,0,2.6-1.74,3.93-6.14.65-2.16,1.17-4.63,1.46-7.02-4.99.62-8.06,4.89-8.06,8.42,0,3.28,1.51,4.73,2.68,4.73Z"/>
        <path d="M235.56,241.65c-.03.62-.08,1.64-.1,2.81,1.9-.23,3.87-.6,5.36-1.04l.05,2.03c-1.53.36-3.56.7-5.46.91-.03,1.22-.05,2.47-.05,3.51v.91c1.98-.62,4-.96,5.72-.96,3.8,0,6.53,2.05,6.53,5.17s-1.98,5.15-5.54,6.01c-1.17.26-2.31.31-3.22.36l-.73-2.11c.96.03,2.08.03,3.04-.18,2.29-.44,4.37-1.66,4.37-4.06,0-2.21-2-3.41-4.47-3.41-1.95,0-3.8.36-5.67,1.01.05,2.21.1,4.52.1,5.64,0,2.42-.88,3.2-2.29,3.2-2.03,0-5.41-2-5.41-4.32,0-2.16,2.7-4.42,5.69-5.69v-1.48c0-1.04,0-2.26.03-3.41-.73.05-1.38.08-1.92.08-1.48,0-2.44-.03-3.33-.13l-.05-1.98c1.43.18,2.37.21,3.33.21.6,0,1.27-.03,2-.08,0-1.35.03-2.5.03-2.96,0-.52-.05-1.4-.13-1.85h2.31c-.08.47-.16,1.2-.18,1.79ZM232.65,259.25c.6,0,.96-.42.96-1.27,0-.94-.05-2.7-.08-4.6-2.13.99-3.72,2.5-3.72,3.67s1.82,2.21,2.83,2.21ZM249.76,246.54l-1.07,1.66c-1.27-1.22-4.16-3.02-5.82-3.9l.94-1.56c1.85.99,4.68,2.76,5.95,3.8Z"/>
        <path d="M274.95,246.09c-1.25,1.92-3.04,3.59-5.12,4.99,2.91,1.35,6.42,2.26,10.09,2.73-.44.47-.96,1.27-1.22,1.85-1.2-.18-2.37-.42-3.51-.7v7.59h-1.95v-.83h-10.5v.86h-1.85v-7.36c-1.33.42-2.65.75-3.95,1.04-.18-.49-.6-1.27-.96-1.69,3.48-.62,7.15-1.79,10.27-3.41-1.33-.88-2.52-1.9-3.51-3.04-1.17.94-2.52,1.79-4.06,2.55-.29-.44-.86-1.07-1.3-1.38,3.56-1.59,6.08-3.85,7.38-5.85l2.08.39c-.36.52-.75,1.04-1.2,1.53h7.67l.34-.08,1.3.81ZM258.91,246.07h-1.85v-4.86h9.85v-2.31h1.95v2.31h9.96v4.86h-1.92v-3.07h-17.99v3.07ZM274.12,254.67c-2.21-.62-4.26-1.43-6.11-2.44-1.72.96-3.56,1.77-5.46,2.44h11.57ZM273.23,260.06v-3.77h-10.5v3.77h10.5ZM264.08,247c1.01,1.2,2.37,2.24,3.95,3.15,1.56-.96,2.91-2.05,3.95-3.25h-7.83l-.08.1Z"/>
        <path d="M293.75,253.95c-.36-.83-1.27-2.44-2.05-3.74v12.38h-1.77v-12.14c-.86,2.83-1.98,5.56-3.17,7.25-.21-.49-.68-1.22-.99-1.66,1.61-2.16,3.2-6.21,3.95-9.75h-3.43v-1.79h3.64v-5.62h1.77v5.62h2.96v1.79h-2.96v1.64c.73.96,2.68,3.9,3.12,4.6l-1.07,1.43ZM300.59,257.69c-2.08,1.22-4.29,2.5-6.06,3.48l-.91-1.61c1.64-.83,4.08-2.16,6.45-3.46l.52,1.59ZM304.93,255.61c1.3,1.95,3.04,3.48,5.15,4.34-.39.36-.96,1.07-1.25,1.56-2.44-1.22-4.37-3.41-5.77-6.08v5.02c0,1.04-.21,1.56-.88,1.87-.68.31-1.85.34-3.46.34-.08-.49-.29-1.3-.55-1.77,1.14.03,2.26.03,2.6,0,.34,0,.42-.1.42-.44v-9.72h-6.55v-1.64h6.55v-2h-5.25v-1.51h5.25v-1.85h-6.01v-1.59h3.25c-.29-.81-.83-1.85-1.3-2.68l1.51-.49c.62.91,1.3,2.18,1.56,2.99l-.47.18h4.52l-.23-.08c.52-.88,1.17-2.29,1.51-3.22l1.9.55c-.55.96-1.12,1.98-1.61,2.76h3.43v1.59h-6.19v1.85h5.62v1.51h-5.62v2h6.55v1.64h-6.55v1.04c.39,1.22.94,2.34,1.56,3.38,1.04-.94,2.42-2.42,3.2-3.48l1.48,1.04c-1.07,1.27-2.47,2.6-3.54,3.54l-.83-.62ZM296.81,251.76c1.01,1.01,2.16,2.42,2.68,3.35l-1.4.99c-.49-.96-1.61-2.42-2.6-3.48l1.33-.86Z"/>
        <path d="M325.94,242.01c-.08.68-.21,1.59-.36,2.68,2,0,3.77-.1,5.28-.34l-.05,1.95c-1.66.16-3.17.23-5.28.23h-.18c-.18,1.53-.39,3.17-.57,4.71h.49c1.77,0,3.59-.08,5.41-.34l-.05,1.98c-1.72.18-3.33.26-5.1.26h-.94c-.1,1.04-.16,1.95-.16,2.57,0,2.52,1.4,4.08,4.37,4.08,3.95,0,6.47-1.74,6.47-4.42,0-1.74-.94-3.69-2.83-5.3l2.29-.47c1.79,1.98,2.65,3.77,2.65,6.01,0,3.87-3.43,6.21-8.58,6.21-3.54,0-6.37-1.53-6.37-5.8,0-.73.08-1.77.21-2.99-1.95-.16-3.85-.44-5.43-.94l.1-2c1.72.6,3.69.91,5.54,1.07.16-1.53.36-3.17.57-4.71-1.9-.16-3.95-.49-5.59-.91l.1-1.9c1.64.52,3.77.83,5.69.96.13-1.04.23-1.98.29-2.73.08-.88.08-1.35.03-1.85l2.34.16c-.18.7-.26,1.25-.34,1.82Z"/>
        <path d="M359.27,248.28c1.82,5.72,5.2,10.43,10.22,12.48-.47.44-1.12,1.25-1.46,1.82-4.99-2.37-8.29-6.97-10.35-12.87-1.25,4.99-4.06,9.98-10.37,12.87-.29-.52-.91-1.2-1.46-1.59,6.45-2.81,9.05-7.8,10.11-12.71h-9.59v-1.98h9.91c.39-2.73.36-5.33.39-7.38h2.08c-.03,2.08-.05,4.65-.42,7.38h10.74v1.98h-9.8Z"/>
        <path d="M394.29,248.82c-.03,2.03.68,8.68,5.33,12.01-.36.42-.94,1.2-1.22,1.64-3.56-2.63-4.81-7.62-5.04-9.62-.26,2.05-1.64,6.89-5.59,9.65-.21-.42-.78-1.2-1.09-1.56h-7.15v1.64h-1.72v-10.19c-.44.57-.91,1.09-1.4,1.56-.21-.39-.81-1.14-1.14-1.51,1.53-1.4,2.81-3.28,3.85-5.41h-3.38v-1.61h4.11c.34-.86.65-1.72.91-2.63h-1.74c-.55.99-1.14,1.87-1.77,2.57-.31-.29-1.07-.81-1.51-1.01,1.33-1.35,2.42-3.43,3.04-5.49l1.74.42c-.21.65-.44,1.3-.73,1.92h7.75v1.59h-4.99c-.26.88-.55,1.77-.86,2.63h6.37v1.61h-7.05c-.39.91-.83,1.77-1.3,2.57h2.81c.31-.78.65-1.69.83-2.34l1.77.39c-.31.68-.62,1.35-.91,1.95h3.38v1.48h-3.46v1.79h3.12v1.4h-3.12v1.85h3.12v1.43h-3.12v1.85h3.85v.49c3.9-3.59,4.45-9.18,4.45-11.08v-3.54h-1.53c-.55,1.92-1.22,3.67-2.03,5.02-.34-.26-1.2-.7-1.66-.91,1.64-2.52,2.57-6.47,3.07-10.53l1.85.26c-.21,1.51-.47,2.96-.78,4.37h6.34l.34-.08,1.25.36c-.31,2.24-.81,4.94-1.27,6.63l-1.53-.44c.31-1.22.6-3.02.78-4.68h-2.94v3.54ZM382.41,251.09h-2.89v1.79h2.89v-1.79ZM382.41,254.28h-2.89v1.85h2.89v-1.85ZM379.52,259.41h2.89v-1.85h-2.89v1.85Z"/>
        <path d="M410.72,257.4c1.22,1.95,3.54,2.83,6.58,2.96,2.94.13,9,.05,12.17-.16-.23.42-.55,1.27-.62,1.82-2.94.13-8.55.18-11.49.08-3.43-.13-5.8-1.07-7.41-3.12-1.09,1.14-2.26,2.24-3.51,3.38l-1.01-1.79c1.09-.81,2.37-1.9,3.51-2.99v-6.71h-3.2v-1.82h4.99v8.35ZM409.71,244.87c-.68-1.3-2.34-3.15-3.85-4.42l1.48-.99c1.53,1.22,3.25,3.02,3.98,4.32l-1.61,1.09ZM411.89,254.78c.49-.13,1.07-.26,1.69-.44v-13.49l1.09.31c1.53-.7,3.2-1.59,4.16-2.34l1.43,1.43c-1.4.83-3.2,1.61-4.89,2.26v11.36c1.3-.36,2.7-.75,4.11-1.14l.23,1.66c-2.55.75-5.28,1.56-7.33,2.16l-.49-1.77ZM422.29,259.33h-1.74v-18.54h7.72v13.36c0,.91-.18,1.43-.86,1.74-.62.26-1.66.29-3.22.29-.1-.47-.36-1.22-.6-1.66,1.14.05,2.13.03,2.47.03.31,0,.42-.1.42-.42v-11.65h-4.19v16.85Z"/>
        <path d="M443.32,259.17c0-1.09.78-1.85,1.72-1.85s1.72.75,1.72,1.85-.75,1.79-1.72,1.79-1.72-.73-1.72-1.79ZM443.92,243.86l-.08-2.7h2.42l-.08,2.7-.31,11.02h-1.64l-.31-11.02Z"/>
        <path d="M455.62,259.17c0-1.09.78-1.85,1.72-1.85s1.72.75,1.72,1.85-.75,1.79-1.72,1.79-1.72-.73-1.72-1.79ZM456.22,243.86l-.08-2.7h2.42l-.08,2.7-.31,11.02h-1.64l-.31-11.02Z"/>
      </g>
      <circle class="cls-4" cx="81.5" cy="392.71" r="81.5"/>
      <g>
        <path class="cls-3" d="M61.03,355.21c-.27.27-.75.37-1.53.41-1.16,2.04-3.37,5.68-4.93,7.62,3.6,2.41,4.93,5.37,4.93,7.92.03,3.09-1.22,4.69-4.69,4.83,0-.78-.14-1.7-.41-2.04-.27-.31-.95-.51-1.77-.65v-.51h2.48c.37,0,.58-.03.88-.2.54-.31.88-.92.88-2.11,0-2.28-.85-4.76-3.16-7.14.88-2.07,2.07-5.85,2.86-8.43h-4.39v27.33c0,.2-.82.88-2.14.88h-.44v-30.46l3.03,1.26h3.81l1.63-1.6,2.96,2.89ZM78.87,369.8c-.24.31-.61.41-1.36.17-2.01,1.5-4.49,2.79-6.53,3.54,2.18,3.2,5.24,5.44,8.98,6.87l-.07.34c-1.16.17-2.07.99-2.55,2.24-5.58-3.2-8.63-8.13-9.93-16.42h-3.33v12.1c1.97-.44,4.08-.92,6.19-1.43l.14.51c-2.62,1.29-6.15,2.89-10.95,4.69-.14.41-.48.71-.78.82l-1.6-3.26c1.02-.17,2.55-.44,4.35-.82v-26.48l3.09,1.29h8.57l1.46-1.63,3.09,2.41c-.2.27-.78.54-1.5.71v11.86c-.03.07-.14.14-.34.24l3.06,2.24ZM64.09,354.94v4.56h9.38v-4.56h-9.38ZM64.09,365.55h9.38v-5.07h-9.38v5.07ZM68.06,366.53c.54,2.41,1.43,4.56,2.55,6.36,1.56-1.29,3.54-3.26,5.03-5.27-.48.24-1.19.44-1.73.44h-.44v-1.53h-5.41Z"/>
        <path class="cls-3" d="M100.94,379.45c1.7.24,3.64.31,5.85.31,1.94,0,6.46,0,8.64-.07v.48c-.99.2-1.5,1.16-1.56,2.28h-7.28c-7.89,0-12.21-1.46-14.86-8.09-1.5,3.4-3.88,6.6-7.72,8.81l-.34-.37c4.52-3.88,6.43-10.1,7.04-15.37l3.98.82c-.14.44-.51.71-1.26.75-.34,1.5-.75,3.03-1.36,4.52,1.46,2.89,3.4,4.49,6.12,5.34v-15.03h-10.06l-.27-.99h18.66l1.73-2.04s.48.34,1.09.78c.48-1.02,1.05-2.58,1.46-3.81h-21.79c.07,2.38-.92,3.98-1.97,4.69-.95.68-2.35.61-2.72-.34-.37-.82.17-1.6.95-2.07,1.46-.78,2.82-2.82,2.69-5.13l.54-.03c.2.68.37,1.33.44,1.9h9.21v-5.1l4.01.41c-.07.48-.37.82-1.22.92v3.77h9.76l1.6-1.67,2.92,2.82c-.27.24-.61.31-1.29.37-.99,1.09-2.75,2.69-4.11,3.64.54.41,1.16.88,1.63,1.33-.07.37-.41.54-.88.54h-9.62v6.56h5.68l1.7-2.18s2.01,1.5,3.2,2.62c-.1.37-.41.54-.88.54h-9.69v8.09Z"/>
        <path class="cls-3" d="M59.93,429.66v4.7h-23.15v-3.6c3-3.1,5.9-6.2,8.35-8.7,5.6-5.9,7.85-9.85,7.85-14.45s-2.55-7.5-6.65-7.5c-.75,0-1.7.1-2.7.3l-1.15,4.25c-.6,2.7-1.7,3.55-3.15,3.55-1.2,0-2.15-.65-2.75-1.75.65-5.55,5.7-8.4,11.45-8.4,7.2,0,10.55,3.9,10.55,9.5,0,4.8-3.05,8.8-11.7,16.25-1.55,1.4-3.85,3.55-6.4,5.85h19.45Z"/>
        <path class="cls-3" d="M89.58,432.76v1.6h-20.7v-1.6l7.7-1c.05-3,.1-6.05.1-9v-20.35l-7,.75v-1.9l11.8-2.9.7.55-.15,7.9v15.95c0,2.95.05,5.95.1,9l7.45,1Z"/>
        <path class="cls-3" d="M96.56,430.96c1.05-2.45,2.01-6.09,2.45-9.55l3.54.92c-.14.44-.51.71-1.22.71-.95,3.16-2.45,6.22-4.22,8.23l-.54-.31ZM105.9,413.73c6.8,3.5,4.45,8.57,2.11,6.49-.07-.78-.27-1.67-.61-2.55-.71.2-1.5.41-2.38.65v15.03c0,.2-.82.75-2.07.75h-.41v-15.16c-1.19.31-2.52.61-3.98.95-.17.41-.51.65-.85.68l-1.02-2.92c.82-.03,2.04-.1,3.5-.2,2.07-3.23,4.42-7.41,5.92-10.47l3.47,1.6c-.17.37-.65.61-1.39.51-1.63,2.31-4.28,5.61-6.77,8.3,1.7-.1,3.67-.27,5.71-.41-.48-1.12-1.09-2.18-1.67-3.03l.44-.2ZM106.18,404.41c-.17.34-.61.61-1.33.54-1.22,1.63-2.69,3.4-4.05,4.76,2.48,2.07.95,4.59-.85,3.3-.34-1.6-1.9-3.6-3.16-4.76l.34-.27c1.19.31,2.14.71,2.86,1.16.82-1.77,1.73-4.11,2.52-6.29l3.67,1.56ZM106.35,421.34c6.29,4.01,3.71,8.84,1.5,6.7-.03-2.07-1.05-4.76-1.9-6.53l.41-.17ZM126.54,430.39s1.46,1.43,2.31,2.41c-.07.34-.37.51-.85.51h-20.09l-.27-.95h4.11v-28.05l3.03,1.26h7.17l1.56-1.7,3.03,2.48c-.24.31-.85.58-1.56.71v25.29h.24l1.33-1.97ZM114.34,406.52v7.79h7.99v-7.79h-7.99ZM122.33,415.29h-7.99v7.82h7.99v-7.82ZM114.34,432.36h7.99v-8.23h-7.99v8.23Z"/>
      </g>
      <rect class="cls-1" x="318" y="338.21" width="251" height="50"/>
      <g>
        <path class="cls-3" d="M341.13,370.33c0,2.55,2.61,4.2,7.71,4.2,4.17,0,8.07-.45,10.08-1.17l.03,1.62c-1.86.57-5.79,1.05-10.08,1.05-5.67,0-9.24-1.83-9.24-5.4,0-1.44.3-2.82.63-4.08l1.53.18c-.42,1.23-.66,2.43-.66,3.6ZM349.17,355.36c2.85,0,5.64-.18,7.74-.42v1.56c-2.01.15-5.04.36-7.74.36-2.94,0-5.49-.12-7.8-.33v-1.53c2.13.24,4.89.36,7.8.36ZM360.3,355.66l-1.2.57c-.57-1.23-1.65-3.09-2.46-4.2l1.14-.51c.75,1.05,1.86,2.85,2.52,4.14ZM363.54,354.52l-1.17.54c-.69-1.35-1.68-3.03-2.55-4.14l1.11-.51c.81,1.08,2.01,2.94,2.61,4.11Z"/>
        <path class="cls-3" d="M382.95,365.08c2.85,4.02,7.68,8.01,11.88,9.87-.33.27-.75.81-1.02,1.2-4.26-2.1-9.12-6.33-12.09-10.59v11.91h-1.47v-11.91c-2.94,4.35-7.74,8.4-11.94,10.47-.24-.39-.66-.9-1.02-1.2,4.2-1.8,8.94-5.76,11.76-9.75h-11.22v-1.41h12.42v-8.13h-10.98v-1.41h10.98v-3.78h1.47v3.78h11.22v1.41h-11.22v8.13h12.51v1.41h-11.28ZM373.2,356.62c1.29,1.83,2.58,4.26,3.03,5.85l-1.35.54c-.42-1.56-1.65-4.08-2.91-5.91l1.23-.48ZM385.77,362.71c1.11-1.65,2.55-4.38,3.3-6.27l1.47.54c-1.05,2.04-2.43,4.59-3.57,6.15l-1.2-.42Z"/>
        <path class="cls-3" d="M408.21,367.3c-3.09,1.53-6.39,3.15-8.85,4.32l-.6-1.41c1.17-.48,2.67-1.17,4.29-1.95v-10.02h-3.78v-1.38h3.78v-6.42h1.38v6.42h3.54v1.38h-3.54v9.39l3.45-1.65.33,1.32ZM413.46,364.03c-.42.87-.96,1.71-1.56,2.49h13.38s-.03.45-.06.72c-.48,6.39-.96,8.7-1.77,9.54-.42.45-.9.57-1.56.6-.63.03-1.8.03-2.94-.03,0-.36-.15-.93-.36-1.29,1.23.12,2.37.15,2.79.15.48,0,.72-.03.93-.3.6-.6,1.08-2.73,1.5-8.13h-3.06c-1.17,3.78-3.54,7.8-6.18,9.78-.24-.3-.72-.66-1.11-.84,2.52-1.77,4.86-5.4,6.06-8.94h-3.57c-1.56,3.27-4.59,6.72-7.44,8.52-.24-.3-.66-.69-1.02-.96,2.67-1.5,5.52-4.59,7.14-7.56h-3.72c-1.29,1.5-2.76,2.79-4.23,3.78-.18-.24-.72-.72-1.02-.96,2.52-1.56,4.86-3.87,6.33-6.57h-4.68v-1.32h18.81v1.32h-12.66ZM423.93,360.73h-13.47v-9.45h13.47v9.45ZM422.55,352.45h-10.77v2.91h10.77v-2.91ZM422.55,356.56h-10.77v2.97h10.77v-2.97Z"/>
        <path class="cls-3" d="M437.37,366.01v11.43h-1.41v-10.98l-5.25,1.71-.45-1.41c1.53-.45,3.54-1.02,5.7-1.68v-7.08h-3.18c-.39,1.8-.87,3.45-1.44,4.77-.27-.21-.87-.51-1.23-.66,1.23-2.58,1.89-6.45,2.31-10.17l1.32.21c-.18,1.5-.42,3.03-.69,4.47h2.91v-6.3h1.41v6.3h3.42v1.38h-3.42v6.63l3.87-1.2.21,1.26-4.08,1.32ZM453.57,361.12v4.17h3.87v1.35h-3.87v8.82c0,1.05-.21,1.5-1.05,1.77-.78.21-2.31.24-4.65.24-.06-.39-.24-1.02-.48-1.47,2.01.06,3.66.06,4.17,0,.51-.03.6-.12.6-.54v-8.82h-11.37v-1.35h11.37v-4.17h-11.79v-1.35h7.98v-4.56h-6.24v-1.35h6.24v-3.6h1.41v3.6h6.36v1.35h-6.36v4.56h7.77v1.35h-3.96ZM443.79,368.05c1.59,1.44,3.27,3.48,3.96,4.92l-1.17.75c-.69-1.44-2.34-3.54-3.93-5.04l1.14-.63Z"/>
        <path class="cls-3" d="M489.12,369.01v1.38h-27.27v-1.38h3.06v-15h6.57v-3.72h1.35v3.72h5.31v-3.75h1.38v3.75h6.84v15h2.76ZM472.35,372.19c-2.28,2.01-5.94,4.05-9,5.37-.24-.33-.72-.81-1.02-1.08,3.06-1.23,6.75-3.3,8.58-5.07l1.44.78ZM466.32,355.39v5.79h5.16v-5.79h-5.16ZM466.32,369.01h5.16v-6.45h-5.16v6.45ZM472.83,355.39v5.79h5.31v-5.79h-5.31ZM478.14,362.56h-5.31v6.45h5.31v-6.45ZM479.73,371.35c3.24,1.56,6.66,3.54,8.79,5.04l-1.23.99c-2.01-1.47-5.28-3.42-8.52-5.07l.96-.96ZM479.52,355.39v5.79h5.4v-5.79h-5.4ZM479.52,369.01h5.4v-6.45h-5.4v6.45Z"/>
        <path class="cls-3" d="M505.41,352.93c-.12.69-.27,1.59-.39,2.67,3.87-.18,7.77-.63,10.71-1.26l.03,1.5c-3.3.57-7.26.96-10.92,1.14-.12,1.35-.24,2.82-.33,4.32,1.8-.6,3.84-.93,5.37-.93.48,0,.96.03,1.41.06.09-.3.18-.6.27-.9.09-.36.21-.84.24-1.26l1.62.42c-.15.33-.3.81-.45,1.2-.09.27-.18.54-.27.78,3.93.9,6.12,3.72,6.12,6.93,0,4.32-3.06,7.83-9.78,8.94l-.87-1.32c5.19-.57,9.15-3.27,9.15-7.71,0-2.58-1.8-4.92-5.07-5.67-1.71,4.38-4.14,7.8-6.81,10.11.21.9.45,1.74.72,2.52l-1.44.45c-.18-.6-.39-1.29-.57-2.01-1.74,1.2-3.69,1.95-5.31,1.95-1.86,0-3.24-1.14-3.24-3.39,0-3.87,3.48-7.77,7.56-9.63.09-1.65.21-3.33.36-4.8-.81.03-1.59.03-2.34.03-1.11,0-3.45-.12-4.56-.21l-.06-1.53c1.05.21,3.66.36,4.62.36.81,0,1.65,0,2.49-.03.12-1.08.24-2.04.3-2.73.03-.48.06-.96.06-1.23l1.68.06c-.12.24-.24.78-.3,1.17ZM499.02,373.36c1.38,0,3.03-.6,4.8-1.95-.42-2.16-.75-4.59-.75-6.75,0-.45,0-.9.03-1.35-3.33,1.71-6,5.04-6,8.01,0,1.35.72,2.04,1.92,2.04ZM505.08,370.39c2.28-2.13,4.41-4.92,5.82-8.76-.33-.03-.63-.03-.96-.03-2.04,0-3.99.54-5.49,1.11-.03.66-.03,1.29-.03,1.92,0,1.89.27,3.87.66,5.76Z"/>
        <path class="cls-3" d="M531.78,361.45c1.11-3.51,4.5-7.98,8.58-7.98,3.84,0,6.51,3.93,6.51,10.08,0,8.22-5.28,11.7-12.39,12.96l-.93-1.38c6.42-.93,11.76-3.84,11.76-11.55,0-4.8-1.62-8.73-5.16-8.73-3.9,0-7.59,5.55-8.07,9.48-.21,1.32-.21,2.4.03,3.99l-1.53.12c-.12-1.11-.3-2.73-.3-4.62,0-2.88.69-7.71.99-9.75.12-.78.15-1.44.24-2.28l1.74.06c-.75,2.64-1.29,7.26-1.47,9.6Z"/>
      </g>
    </g>
  </g>
</svg>