<?xml version="1.0" encoding="UTF-8"?>
<svg id="_レイヤー_2" data-name="レイヤー 2" xmlns="http://www.w3.org/2000/svg" viewBox="0 0 221 216.49">
  <defs>
    <style>
      .cls-1, .cls-2 {
        fill: none;
        stroke: #ff184c;
        stroke-miterlimit: 10;
      }

      .cls-3 {
        fill: #ff184c;
      }

      .cls-4 {
        opacity: .3;
      }

      .cls-2 {
        stroke-width: 2.69px;
      }
    </style>
  </defs>
  <g id="_レイヤー_1-2" data-name="レイヤー 1">
    <g class="cls-4">
      <g>
        <path class="cls-2" d="M111.31,117.18c-2.67,9.24-4.28,18.78-4.72,28.39l-.12,3.6c-.01,1.2-.03,2.49,0,3.32.05,1.87.26,3.71.62,5.51.72,3.6,2.02,7.01,3.88,10.11,3.82,6.25,9.74,11.11,16.6,13.65,6.92,2.46,14.64,2.5,21.53.16,6.84-2.44,13.02-7.24,16.82-13.43,3.81-6.2,5.55-13.76,4.64-21.03-.47-3.62-1.55-7.14-3.18-10.4-1.63-3.29-3.77-6.32-6.38-8.76-.65-.62-1.34-1.22-2.05-1.79-.69-.56-1.41-1.07-2.63-1.96l-6.58-4.78-13.15-9.55-52.61-38.22c-3.06-2.22-6.2-3.86-9.74-4.81-3.52-1.12-7.19-1.49-10.82-1.29-7.24.4-14.5,3.25-19.88,8.23-5.4,4.87-9.17,11.61-10.25,18.9-.58,3.6-.56,7.28.07,10.88.7,3.59,2,7.07,3.83,10.24,1.83,3.17,4.18,6.03,6.93,8.43,2.76,2.39,5.97,4.21,9.39,5.53,6.8,2.77,14.33,2.81,21.47.52"/>
        <path class="cls-2" d="M81.54,108.55c-3.34,11.56-5.35,23.52-5.91,35.54l-.15,4.51c-.02,1.5-.04,2.92,0,4.8.1,3.55.5,7.1,1.2,10.62,1.39,7.02,4.01,13.88,7.73,20.06,7.42,12.29,19.14,21.92,32.63,26.83,13.5,4.85,28.59,4.97,42.21.3,13.57-4.78,25.38-14.07,32.99-26.33,7.57-12.22,10.87-26.94,9.1-41.2-.9-7.12-3.02-14.09-6.23-20.51-3.18-6.39-7.43-12.33-12.7-17.31-1.3-1.25-2.66-2.43-4.06-3.55-1.42-1.14-2.91-2.2-3.87-2.9l-6.56-4.77-13.12-9.53-52.49-38.14c-5.67-4.16-12.32-7.59-19.22-9.51-6.83-2.11-14.1-2.92-21.26-2.53-14.34.76-28.36,6.43-38.97,16.13-10.69,9.59-18,22.91-20.14,37.06-1.14,7.08-1.07,14.37.21,21.44,1.34,7.05,3.87,13.85,7.45,20.05,3.57,6.2,8.19,11.81,13.63,16.5,5.45,4.69,11.77,8.35,18.43,10.92,13.33,5.36,28.76,5.49,42.18,1.07"/>
        <path class="cls-2" d="M103.86,115.05c-2.83,9.82-4.54,19.97-5.01,30.18-.12,2.48-.18,5.26-.13,7.52.06,2.29.32,4.56.77,6.78.89,4.45,2.52,8.72,4.85,12.59,4.72,7.76,12.1,13.8,20.62,16.93,8.56,3.06,18.13,3.1,26.7.18,8.52-3.02,16.1-8.96,20.86-16.66,4.75-7.71,6.87-17.06,5.74-26.08-1.18-8.94-5.38-17.63-11.92-23.82-.82-.78-1.67-1.52-2.55-2.23-.87-.7-1.79-1.35-2.95-2.2l-6.57-4.77-13.14-9.55-52.57-38.2c-3.71-2.7-7.73-4.78-12.11-5.98-4.35-1.36-8.92-1.85-13.43-1.59-9.02.5-17.97,4.06-24.65,10.22-6.72,6.06-11.37,14.44-12.71,23.45-.71,4.47-.68,9.05.12,13.52.86,4.45,2.47,8.76,4.74,12.69,2.27,3.93,5.19,7.47,8.61,10.44,3.43,2.97,7.42,5.24,11.65,6.87,8.43,3.41,17.94,3.47,26.65.64"/>
        <path class="cls-2" d="M96.43,112.9c-3.61,12.45-5.47,25.42-5.47,38.54,0,9.74,2.82,19.57,8.99,28.06,15.5,21.33,45.35,26.06,66.68,10.56,21.33-15.5,26.06-45.35,10.56-66.68-3.03-4.17-6.63-7.66-10.6-10.51l-73.46-53.37c-3.93-2.9-8.36-5.24-13.27-6.83-25.07-8.15-52.01,5.58-60.15,30.65-8.15,25.07,5.58,52.01,30.65,60.15,9.98,3.24,20.2,2.9,29.46-.12"/>
        <path class="cls-2" d="M88.97,110.73c-3.17,10.98-5.08,22.34-5.61,33.76-.13,2.92-.21,5.56-.14,8.72.09,3.13.44,6.25,1.06,9.34,1.22,6.17,3.52,12.16,6.78,17.57,6.52,10.78,16.8,19.2,28.64,23.51,11.86,4.25,25.11,4.34,37.04.25,11.88-4.19,22.28-12.38,28.94-23.12,6.62-10.72,9.53-23.65,7.97-36.16-1.64-12.49-7.41-24.41-16.61-33.15-1.14-1.09-2.33-2.13-3.56-3.11-1.24-1-2.53-1.91-3.56-2.66l-6.56-4.77-13.13-9.54-52.52-38.16c-5.02-3.67-10.79-6.65-16.86-8.33-6-1.85-12.37-2.56-18.65-2.21-12.56.68-24.89,5.65-34.19,14.17-9.36,8.42-15.78,20.09-17.65,32.53-.99,6.21-.94,12.6.18,18.8,1.18,6.19,3.41,12.16,6.55,17.6,3.14,5.44,7.2,10.36,11.97,14.48,4.78,4.12,10.32,7.31,16.17,9.56,11.7,4.71,25.16,4.81,37,.91"/>
      </g>
      <path class="cls-1" d="M165.45,127.44c-2.12.69-4.31,1.05-6.52,1.25-.76-.67-1.31-1.53-2.14-2.12l-46.28-33.62,27.4-19.91c.43-.32.91-.55,1.35-.84l37.23,27.05c3.23,2.31,6.15,5.01,8.89,7.9-.52,1.68-1.13,3.34-1.94,4.94-3.75,7.36-10.14,12.82-17.99,15.36ZM30.21,113.47c1.63-2.25,3.5-4.32,5.42-6.33-1.87-6.04-1.91-12.48.09-18.62,2.54-7.85,8-14.24,15.36-17.99,7.35-3.75,15.72-4.39,23.55-1.86,2.51.82,4.85,2.05,7.11,3.54l28.76-20.9-7.36-5.35c-5.49-4.06-11.58-7.19-18.08-9.32C51.2,25.62,14.7,44.24,3.69,78.1c-5.33,16.41-3.95,33.91,3.88,49.27,2.88,5.65,6.72,10.55,10.97,15.02,1.42-10.14,5.24-20.08,11.67-28.92ZM202.31,142.93c-7.1,7.37-16.04,13.17-26.44,16.55-2.67.87-5.4,1.44-8.13,1.95-2.04,5.98-5.8,11.22-11.02,15.01-13.78,10.03-33.13,6.95-43.15-6.83-3.78-5.21-5.78-11.48-5.77-18.17,0-.62.06-1.22.07-1.84-7.33,3.76-14.87,7.17-22.84,9.76-3.34,1.09-6.73,1.79-10.12,2.31,1.56,10.03,5.42,19.47,11.41,27.72,12.63,17.38,32.35,26.6,52.34,26.6,13.16,0,26.43-4,37.87-12.3,13.96-10.14,23.13-25.12,25.83-42.16.99-6.27.76-12.48-.05-18.6Z"/>
      <g>
        <path class="cls-2" d="M55.14,128.73c6.23,2.02,12.95,2.03,19.4.03,7.98-2.57,16.14-6.11,23.58-10.4,15.05-8.56,28.16-20.44,38.37-34.4"/>
        <path class="cls-2" d="M45.56,158.22c12.32,4.06,26,3.99,38.15.16,10.57-3.4,20.37-7.7,29.82-13.11,18.84-10.73,35.27-25.58,48.05-43.08"/>
        <path class="cls-2" d="M52.75,136.11c7.75,2.53,16.22,2.52,24.09.06,8.62-2.78,17.2-6.5,25.14-11.08,16-9.1,29.93-21.73,40.79-36.57"/>
        <path class="cls-2" d="M47.96,150.85c10.8,3.55,22.74,3.5,33.46.12,9.92-3.19,19.31-7.3,28.26-12.44,17.89-10.19,33.49-24.3,45.63-40.91"/>
      </g>
      <path class="cls-2" d="M50.36,143.46c9.98,3.24,20.2,2.9,29.46-.12,27.8-9.03,52.03-26.63,69.21-50.28h0"/>
      <path class="cls-1" d="M113.11,146.76c-8.89,5.01-18.18,9.38-28.08,12.59-10.44,3.39-21.26,4.01-31.76,2.07-.57-1.67-1.06-3.38-1.34-5.16-1.29-8.16.67-16.31,5.54-23.01,1.21-1.67,2.69-3.17,4.28-4.59,4.25.43,8.61.03,12.87-1.34,13.04-4.24,25.03-10.57,35.71-18.67,1.66,13.91,2.58,26.61,2.78,38.12ZM145.13,118.09c.14,1.53.21,2.95.33,4.46.83-.82,1.76-1.51,2.58-2.34l-2.91-2.11Z"/>
      <g>
        <path class="cls-2" d="M108.54,170.4c3.88-5.34,5.97-11.79,6.03-18.61,0-9.02-.47-18.59-1.27-27.97-1.63-18.88-4.46-37.88-7.97-56.81"/>
        <path class="cls-2" d="M133.62,188.62c7.73-10.55,11.89-23.7,11.95-36.54,0-10.62-.52-20.69-1.38-30.88-1.75-20.27-4.74-40.16-8.39-59.85"/>
        <path class="cls-2" d="M114.81,174.95c4.84-6.64,7.45-14.77,7.5-23.09,0-9.42-.48-19.11-1.3-28.7-1.66-19.23-4.53-38.45-8.08-57.57"/>
        <path class="cls-2" d="M121.07,179.49c6.17-8.49,9-18.31,8.99-28.06,0-29.23-4.79-61.9-9.51-87.26"/>
        <path class="cls-2" d="M127.35,184.06c6.77-9.25,10.41-20.73,10.46-32.06,0-10.22-.51-20.17-1.35-30.15-1.72-19.92-4.67-39.59-8.28-59.09"/>
      </g>
      <path class="cls-1" d="M110.51,164.12c.85,1.92,1.82,3.77,3.06,5.48,6.13,8.44,15.77,12.81,25.48,12.67,5.1-9.39,7.86-19.88,7.85-30.84,0-10.17-.69-21.45-1.77-33.34l-34.62-25.15-2.05,1.49c3.11,21.48,4.76,40.66,4.76,57.02,0,4.47-.97,8.74-2.71,12.66Z"/>
      <g>
        <path class="cls-2" d="M136.39,158.09c-26.16-8.52-49.98-24.14-68.08-44.86-2.27-2.58-4.47-5.23-6.54-7.97l-1.55-2.05-.78-1.03-.87-1.24c-1.16-1.66-2.23-3.39-3.23-5.16-4-7.1-6.65-15.07-7.63-23.26-1.93-16.31,2.74-33.29,12.88-46.2,9.98-12.96,25.23-21.8,41.54-23.88,16.17-2.22,33.29,2.18,46.34,12.12,13.12,9.78,22.19,24.88,24.54,41.15l.44,3.04.17,3.06c.13,2.04.19,4.08.08,6.14-.19,4.11-.79,8.21-1.78,12.21-2,8-5.59,15.53-10.35,22.06l-25.06-18.25c5.05-6.95,7.23-15.34,5.85-23.69-1.18-8.24-5.79-15.93-12.51-20.95-6.67-5.07-15.27-7.27-23.63-6.16-8.27,1.04-16.02,5.53-21.15,12.18-5.18,6.58-7.5,15.2-6.58,23.48.5,4.1,1.81,8.09,3.88,11.77.52.92,1.07,1.82,1.69,2.7l.46.66.62.82,1.25,1.64c1.66,2.2,3.41,4.31,5.22,6.37,14.46,16.56,33.48,29.02,54.37,35.83l-9.58,29.48Z"/>
        <path class="cls-2" d="M142.77,88.51c6.19-8.45,8.95-19.1,7.24-29.4-1.48-10.25-7.21-19.79-15.53-25.99-8.27-6.28-19-9.03-29.31-7.64-10.28,1.31-19.91,6.89-26.24,15.11-6.42,8.17-9.32,18.87-8.14,29.16.62,5.12,2.27,10.11,4.82,14.64,1.25,2.28,2.77,4.32,4.63,6.74,1.76,2.33,3.62,4.58,5.55,6.77,15.37,17.6,35.59,30.85,57.8,38.08"/>
        <path class="cls-2" d="M149.03,93.06c5.73-7.88,9.22-17.49,9.22-27.98,0-26.37-21.37-47.74-47.74-47.74s-47.74,21.37-47.74,47.74c0,10.49,3.48,20.11,9.22,27.98,17.18,23.65,41.41,41.25,69.21,50.28"/>
        <path class="cls-2" d="M155.31,97.63c8.48-11.47,12.4-26.63,10.04-40.82-2.06-14.26-10.03-27.5-21.55-36.09-11.46-8.71-26.45-12.56-40.67-10.61-14.3,1.83-27.67,9.58-36.44,20.97-8.9,11.33-12.97,26.22-11.29,40.52.86,7.17,3.18,14.14,6.7,20.39,1.73,3.15,3.92,6.08,5.83,8.57,1.97,2.6,4.05,5.12,6.21,7.57,17.2,19.68,39.82,34.51,64.66,42.6"/>
      </g>
      <path class="cls-1" d="M53.64,34.52C64.56,14.28,85.95.5,110.51.5c35.61,0,64.58,28.97,64.58,64.58,0,9.88-2.33,19.47-6.69,28.28l-28.13-20.43c.7-2.56,1.14-5.18,1.14-7.85,0-17.04-13.86-30.9-30.9-30.9-6.61,0-12.71,2.13-17.74,5.68-2.51-1.2-5.05-2.35-7.71-3.22-10.5-3.42-21.25-3.97-31.42-2.12ZM113.18,149.9c-.03-1.05-.06-2.1-.07-3.14-.94.53-1.94.96-2.9,1.48,1,.54,1.96,1.14,2.97,1.66ZM78.78,125.77c11.42-4.18,22.03-9.9,31.55-17.12-.01-.1-.03-.21-.04-.3-9.32-7.11-17.65-15.52-24.68-25.21-2.63-3.6-4.34-7.62-5.24-11.8-1.84-1.08-3.72-2.02-5.72-2.67-7.83-2.52-16.2-1.89-23.55,1.86-1.61.82-3.08,1.81-4.49,2.87,1.39,10.59,5.32,20.7,11.77,29.56,6.08,8.36,12.96,15.93,20.41,22.81Z"/>
      <g>
        <path class="cls-2" d="M133.6,188.64c-8.05,10.93-19.69,19.46-32.79,23.27-6.52,1.96-13.34,2.94-20.16,2.74-6.81-.23-13.6-1.54-20.01-3.88-6.45-2.29-12.4-5.8-17.7-10.03-5.32-4.22-10.02-9.33-13.66-15.12-3.68-5.75-6.43-12.08-8.14-18.67-1.67-6.61-2.21-13.48-1.72-20.27.89-13.67,6.64-26.79,15.62-37.1,2.28-2.57,4.78-4.95,7.43-7.1,2.96-2.34,4.76-3.52,6.88-5.1l12.48-9.07,49.91-36.26,6.24-4.53c.89-.65,2.54-1.85,3.9-2.72,1.43-.93,2.91-1.8,4.42-2.61,3.02-1.62,6.2-2.99,9.45-4.09,3.28-.95,6.52-1.96,9.92-2.41,13.48-2.37,27.65.13,39.69,6.41,12.04,6.33,22.03,16.69,27.77,29.09,2.84,6.19,4.78,12.76,5.6,19.55.74,6.79.42,13.7-.97,20.37-2.73,13.4-10.11,25.63-20.33,34.67-10.4,8.88-23.48,14.52-37.25,15.35-6.85.44-13.72-.28-20.25-2.01-3.47-.94-5.97-1.84-8.68-2.81-2.69-.99-5.35-2.03-7.98-3.17-10.52-4.51-20.54-10.21-29.79-16.93l18.22-25.08c7.4,5.38,15.4,9.92,23.8,13.52,2.1.91,4.23,1.74,6.37,2.53,2.13.77,4.49,1.58,5.99,1.97,3.42.91,6.92,1.26,10.35,1.04,6.85-.38,13.61-3.37,18.87-7.8,5.14-4.62,9.01-10.87,10.36-17.71.7-3.4.86-6.89.51-10.34-.43-3.44-1.46-6.84-2.89-10.01-2.92-6.3-7.97-11.53-14.14-14.8-6.2-3.18-13.36-4.51-20.2-3.26-1.73.17-3.4.8-5.08,1.21-1.62.55-3.19,1.23-4.71,2.04-.76.41-1.5.84-2.23,1.31-.8.52-1.24.84-2.43,1.7l-6.25,4.54-50.02,36.34-12.51,9.09c-4.78,3.44-6.89,4.91-9.27,7.64-4.45,5.23-7.51,11.9-7.89,18.84-.24,3.46,0,6.98.86,10.37.89,3.37,2.3,6.58,4.16,9.51,1.82,2.95,4.21,5.52,6.95,7.68,2.73,2.17,5.76,4.02,9.04,5.13,3.26,1.17,6.69,1.85,10.17,1.98,3.48.1,6.98-.43,10.31-1.42,6.74-1.92,12.5-6.26,16.71-11.84l25.07,18.24Z"/>
        <path class="cls-2" d="M107.16,117.42c7.87,5.71,16.37,10.54,25.3,14.37,2.23.97,4.49,1.85,6.77,2.69,2.28.82,4.67,1.65,6.66,2.18,4.2,1.11,8.54,1.55,12.83,1.28,8.58-.5,16.92-4.15,23.46-9.7,6.41-5.73,11.15-13.48,12.84-21.96.87-4.22,1.07-8.56.62-12.85-.52-4.28-1.79-8.47-3.57-12.39-3.63-7.83-9.92-14.33-17.56-18.36-7.66-3.95-16.58-5.57-25.08-4.03-4.26.71-8.43,2-12.18,4.06-.95.51-1.87,1.05-2.78,1.64-.95.61-1.68,1.14-2.8,1.96l-6.25,4.54-49.99,36.32-12.5,9.08c-2.04,1.51-4.33,3.09-5.87,4.33-1.67,1.36-3.23,2.84-4.65,4.45-5.58,6.51-9.31,14.79-9.81,23.41-.3,4.29.03,8.65,1.08,12.84,1.1,4.18,2.85,8.17,5.16,11.8,2.28,3.66,5.24,6.86,8.63,9.54,3.38,2.68,7.13,4.94,11.21,6.35,4.05,1.46,8.32,2.29,12.63,2.45,4.32.13,8.64-.52,12.77-1.76,8.33-2.4,15.56-7.79,20.73-14.71"/>
        <path class="cls-2" d="M102.61,123.68c11.68,8.49,24.69,15.14,38.59,19.66,9.26,3.02,19.49,3.36,29.46.12,25.07-8.15,38.8-35.08,30.65-60.15-8.15-25.07-35.08-38.8-60.15-30.65-4.91,1.59-9.34,3.94-13.27,6.83l-73.46,53.37c-3.97,2.84-7.57,6.33-10.6,10.51-15.5,21.33-10.77,51.18,10.56,66.68,21.33,15.5,51.18,10.77,66.68-10.56"/>
        <path class="cls-2" d="M98.05,129.96c8.8,6.39,18.31,11.79,28.3,16.07,2.49,1.08,5.03,2.07,7.58,3.01,2.56.92,5.04,1.8,8.01,2.6,5.75,1.52,11.79,2.15,17.78,1.76,12.04-.73,23.54-5.71,32.65-13.48,8.95-7.94,15.44-18.68,17.82-30.44,1.22-5.86,1.5-11.91.85-17.86-.72-5.96-2.45-11.73-4.93-17.16-5.04-10.87-13.8-19.94-24.38-25.5-10.59-5.5-23-7.7-34.82-5.61-5.88.97-11.68,2.81-16.97,5.69-1.32.71-2.62,1.47-3.87,2.29-1.22.78-2.57,1.76-3.53,2.46l-6.24,4.54-49.94,36.28-12.48,9.07c-2.09,1.56-4.06,2.87-6.55,4.85-2.33,1.88-4.51,3.96-6.5,6.22-7.84,9.05-12.91,20.56-13.67,32.55-.43,5.96.05,11.99,1.51,17.8,1.51,5.79,3.93,11.33,7.15,16.38,3.19,5.07,7.31,9.55,11.99,13.25,4.66,3.71,9.88,6.8,15.54,8.79,5.63,2.04,11.57,3.19,17.55,3.4,5.99.17,11.97-.7,17.69-2.42,11.51-3.35,21.67-10.83,28.76-20.43"/>
      </g>
      <path class="cls-1" d="M80.85,72.86l37.14-26.99c3.17-2.35,6.65-4.29,10.26-6.02,7.94,5.6,13.16,14.8,13.16,25.23,0,2.13-.33,4.22-.8,6.28-.91.54-1.84,1.05-2.69,1.68l-37.28,27.09c-5.46-5.16-10.53-10.8-15.03-16.99-2.3-3.16-3.78-6.66-4.75-10.28ZM64.28,176.43c-6.69-4.84-11.05-12.02-12.34-20.16-1.29-8.16.67-16.31,5.54-23.01,1.84-2.54,4.12-4.79,6.86-6.75l8.65-6.29c-5.23-5.37-10.14-11.1-14.62-17.25-2.23-3.06-4.05-6.31-5.67-9.64l-8.06,5.86c-5.6,4-10.46,8.83-14.42,14.3-20.94,28.79-14.54,69.26,14.28,90.2,11.42,8.3,24.71,12.31,37.87,12.31,9.71,0,19.34-2.22,28.15-6.45-9.31-4.48-17.7-11.21-24.19-20.15-1.66-2.28-3.11-4.67-4.44-7.13-6.12-.11-12.27-1.97-17.6-5.83ZM175.87,159.48c-9.65,3.14-19.78,3.9-29.78,2.3.53-3.39.81-6.85.81-10.35,0-7.52-.48-15.8-1.12-24.34.21.07.42.16.63.23,6.35,2.05,12.93,2.12,19.04.12,7.85-2.54,14.24-8,17.99-15.36,3.75-7.35,4.41-15.72,1.85-23.56-2.04-6.26-5.92-11.39-10.82-15.08.37-2.76.61-5.55.61-8.36,0-11.05-2.8-21.45-7.71-30.55,22.62,4.13,42.34,20.22,49.95,43.58,11,33.87-7.6,70.37-41.47,81.38Z"/>
    </g>
    <circle class="cls-3" cx="110.5" cy="114.47" r="55.71"/>
  </g>
</svg>