<?xml version="1.0" encoding="UTF-8"?>
<svg id="_レイヤー_2" data-name="レイヤー 2" xmlns="http://www.w3.org/2000/svg" viewBox="0 0 297.38 114.57">
  <defs>
    <style>
      .cls-1 {
        fill: #484947;
        stroke-width: 0px;
      }
    </style>
  </defs>
  <g id="_レイヤー_1-2" data-name="レイヤー 1">
    <g>
      <g>
        <path class="cls-1" d="M28.5,95.15v7.86h1.63l1.63-2.28s1.94,1.6,3.08,2.77c-.11.38-.42.57-.95.57H.57l-.3-1.06h5.89v-7.86H.3l-.3-1.06h6.15v-7.03c-1.75,1.82-3.69,3.31-5.58,4.41l-.46-.46c2.81-2.51,5.93-6.8,7.9-11.44l3.76,1.75c-.23.34-.72.61-1.56.49-.65,1.06-1.33,2.05-2.09,3l.68.3h20.25l1.82-2.28s2.01,1.63,3.23,2.77c-.08.42-.46.61-.99.61h-4.64v7.86h1.75l1.71-2.28s2.01,1.6,3.19,2.74c-.08.42-.42.61-.95.61h-5.7ZM6.65,105.56c.84,4.67-1.37,7.37-3.19,8.36-1.06.68-2.47.72-2.89-.15-.3-.76.19-1.48.99-1.98,1.98-.84,4.26-3.15,4.45-6.27l.65.04ZM8.43,94.09h4.18v-7.86h-4.18v7.86ZM8.43,103.02h4.18v-7.86h-4.18v7.86ZM11.7,105.94c5.66,4.9,2.85,9.99.8,7.64.23-2.39-.49-5.43-1.33-7.45l.53-.19ZM14.89,86.23v7.86h4.48v-7.86h-4.48ZM14.89,95.15v7.86h4.48v-7.86h-4.48ZM18.69,105.87c7.71,4.14,5.59,9.69,3.19,7.6-.27-2.36-2.13-5.43-3.65-7.29l.46-.3ZM21.73,86.23v7.86h4.41v-7.86h-4.41ZM26.14,95.15h-4.41v7.86h4.41v-7.86ZM26.14,105.41c10.75,3.8,9.12,10.64,6.08,8.66-.76-2.81-3.91-6.34-6.54-8.32l.46-.34Z"/>
        <path class="cls-1" d="M53.54,97.7c8.78,2.43,7.14,8.09,4.52,6.38-.57-1.94-2.66-4.29-4.52-5.74v15.16c0,.38-.99.95-1.9.95h-.46v-15.08c-1.71,3.53-4.1,6.65-7.1,9.23l-.46-.53c3-3.57,5.13-8.24,6.38-12.92h-6l-.3-1.1h7.48v-14.29l3.72.46c-.11.53-.42.91-1.37,1.06v12.77h2.85l1.6-2.09s1.9,1.52,3.08,2.58c-.08.42-.46.61-.99.61h-6.54v2.55ZM44.73,82.92c6.42,4.67,3.99,9.69,1.82,7.56-.04-2.39-1.25-5.43-2.32-7.37l.49-.19ZM54.91,91.2c.76-2.17,1.63-5.55,2.36-8.47l3.69,1.22c-.15.42-.57.76-1.33.76-1.22,2.28-2.74,4.94-4.07,6.8l-.65-.3ZM76.03,99.03s2.09,1.37,3.34,2.24c0,.42-.34.72-.8.84l-4.9,1.06v10.3c0,.38-1.06.99-1.94.99h-.49v-10.75l-11.02,2.36-.49-.99,11.51-2.51v-22.8l3.8.46c-.11.53-.42.91-1.37,1.06v20.74l1.03-.23,1.33-2.77ZM61.63,92.15c8.81,1.71,7.41,7.37,4.67,5.81-.68-1.9-3.08-4.22-5.02-5.43l.34-.38ZM62.58,83.3c8.51,2.09,6.95,7.64,4.33,5.97-.61-1.94-2.85-4.29-4.67-5.62l.34-.34Z"/>
        <path class="cls-1" d="M100.01,95.95c-1.33.68-2.93,1.56-4.79,2.58v12.31c0,2.05-.38,3.27-3.65,3.65-.11-.8-.3-1.48-.72-1.82-.53-.46-1.37-.72-2.85-.91v-.65s3.31.27,3.99.27c.65,0,.84-.19.84-.76v-10.83c-1.18.61-2.43,1.25-3.8,1.94-.11.46-.42.84-.76.99l-1.41-3.15c1.18-.3,3.34-.95,5.97-1.82v-8.24h-5.05l-.27-1.14h5.32v-8.66l3.8.42c-.11.53-.49.91-1.41,1.03v7.22h.84l1.52-2.13s1.75,1.56,2.77,2.66c-.08.42-.42.61-.95.61h-4.18v7.45c1.48-.49,3.04-1.03,4.6-1.56l.19.57ZM122.54,99.41c-.15.34-.72.61-1.48.38-1.33,1.18-3.88,3.08-6.19,4.45,2.01,3.38,4.71,6.04,8.21,7.45l-.04.42c-.99.23-1.82,1.03-2.17,2.32-5.81-3.5-8.55-9.65-9.95-18.2h-2.81v13.41c1.94-.49,4.03-1.06,6.16-1.63l.15.61c-2.36,1.14-5.77,2.77-10.49,4.75-.15.49-.42.76-.72.91l-2.01-3c1.03-.19,2.66-.57,4.6-1.06v-13.98h-2.93c-.27,6.04-1.41,12.92-6.23,17.97l-.61-.42c4.07-6.23,4.52-13.94,4.52-21.24v-11.13l2.85,1.22h13.87l1.75-2.2s2.01,1.56,3.23,2.74c-.11.42-.46.61-.99.61h-18.31v8.74c0,.84,0,1.71-.04,2.58h14.63l1.71-2.2s2.05,1.56,3.27,2.74c-.11.42-.46.61-.99.61h-9.84c.68,2.66,1.6,5.17,2.85,7.41,1.79-1.98,3.91-4.71,4.83-6.31l3.19,2.09ZM115.55,88.85l1.67-2.17s1.9,1.52,3.12,2.66c-.11.42-.49.61-1.03.61h-14.17l-.3-1.1h10.71Z"/>
        <path class="cls-1" d="M141.21,96.48c.68-1.03,1.56-2.36,2.36-3.69l2.55,1.52c-.23.34-.72.61-1.44.42-.8.76-1.75,1.6-2.58,2.24,4.37,2.89,2.85,6,.87,4.67-.57-1.52-2.17-3.57-3.65-5.09v17.02c0,.23-.8.84-1.9.84h-.38v-16.38c-1.75,1.71-3.69,3.27-5.85,4.6l-.46-.53c4.29-3.53,8.4-8.97,10.45-13.83h-9.46l-.3-1.1h5.66v-7.45l3.72.38c-.04.53-.42.91-1.37,1.03v6.04h1.86l1.67-1.52,2.55,2.39c-.3.3-.72.42-1.6.46-1.14,2.36-2.7,4.79-4.6,7.07.72.3,1.37.61,1.9.91ZM165.83,88.77c-.23.3-.72.57-1.56.68v23.94c0,.19-.95.84-2.01.84h-.38v-2.81h-13.11v2.17c0,.19-.8.8-1.98.8h-.38v-27.47l2.81,1.18h4.79v-8.32l3.57.42c-.08.53-.34.87-1.18.99v6.92h5.28l1.25-1.6,2.89,2.28ZM148.77,89.19v9.69h5.24v-9.69h-5.24ZM148.77,110.31h5.24v-10.33h-5.24v10.33ZM156.4,89.19v9.69h5.47v-9.69h-5.47ZM161.88,110.31v-10.33h-5.47v10.33h5.47Z"/>
        <path class="cls-1" d="M187.19,86.38s1.9,1.56,3.04,2.7c-.08.42-.46.61-.99.61h-5.24v3.5c8.28,3.31,6.38,8.47,3.84,6.69-.49-1.9-2.28-4.29-3.84-5.93v19.61c0,.34-1.06.91-1.94.91h-.53v-18.58c-1.63,3.8-3.8,7.26-6.5,10.22l-.53-.49c3-4.41,5.13-10.3,6.38-15.92h-5.43l-.3-1.1h6.38v-8.85l3.8.46c-.11.57-.42.91-1.33,1.06v7.33h1.52l1.67-2.2ZM209.41,83.49c-.27.3-.91.61-1.67.76v28.91c-.04.27-1.22.95-2.09.95h-.38v-3.31h-11.47v2.43c0,.34-.91.99-2.05.99h-.46v-32.83l2.66,1.25h10.94l1.44-1.63,3.08,2.47ZM193.8,83.72v7.71h11.47v-7.71h-11.47ZM193.8,92.57v7.9h11.47v-7.9h-11.47ZM205.27,109.74v-8.13h-11.47v8.13h11.47Z"/>
        <path class="cls-1" d="M229.9,84.97s1.82,1.52,3,2.62c-.11.38-.46.57-.99.57h-13.18l-.3-1.1h9.8l1.67-2.09ZM220.4,83.41l-.3-1.14h6.38l1.63-2.01s1.82,1.44,2.96,2.55c-.11.42-.46.61-.99.61h-9.69ZM227.05,91.89l1.48-1.86s1.67,1.33,2.74,2.36c-.08.42-.42.61-.95.61h-9.84l-.3-1.1h6.88ZM220.48,97.85l-.3-1.1h6.88l1.48-1.9s1.67,1.37,2.74,2.39c-.08.42-.42.61-.95.61h-9.84ZM231.87,102.34c-.27.27-.8.57-1.56.72v9.12c-.04.27-1.22.8-2.01.8h-.3v-1.86h-5.43v2.51c0,.23-.95.8-1.94.8h-.38v-14.02l2.51,1.1h4.86l1.29-1.44,2.96,2.28ZM228,109.97v-7.33h-5.43v7.33h5.43ZM253,100.02c-.15.34-.65.61-1.44.46-1.22,1.48-3.5,3.88-5.62,5.66,1.52,2.58,3.95,4.56,7.79,5.93l-.08.46c-1.22.23-1.98.68-2.24,2.05-5.4-2.51-7.41-7.07-8.24-13.22-.61,5.55-2.74,10.03-11.93,13.11l-.42-.65c10.22-4.22,10.11-10.33,10.14-18.96l3.65.42c-.08.46-.38.84-1.18.95.27,3.72.87,6.8,2.17,9.31,1.44-2.32,3.12-5.55,3.88-7.37l3.53,1.86ZM231.91,96.79c9.35-3.95,9.35-9.5,9.38-16.6l3.65.38c-.08.46-.38.87-1.14.95-.11,2.77-.23,5.36-1.14,7.75,1.03.27,1.98.57,2.81.87,1.37-2.24,3.08-5.55,3.84-7.33l3.38,1.75c-.15.27-.65.61-1.37.46-1.18,1.37-3.31,3.57-5.28,5.36,8.24,3.19,7.48,7.48,4.79,6.46-1.56-2.17-5.47-5.13-8.43-6.91-1.37,3-4.14,5.55-10.03,7.48l-.46-.61ZM237.31,98.38c.84,3.65-.42,6.12-1.71,7.1-.84.65-2.05.8-2.47,0-.38-.72.08-1.44.8-1.94,1.29-.8,2.66-2.96,2.74-5.21l.65.04ZM237.42,82.96c.61,3.23-.34,5.59-1.41,6.57-.68.65-1.86.87-2.32.15-.38-.65.04-1.41.68-1.86,1.1-.84,2.28-2.96,2.36-4.86h.68Z"/>
        <path class="cls-1" d="M282.79,80.68c-.15.46-.61.65-1.56.76,3.31,4.41,9.76,8.55,16.15,10.83l-.08.57c-1.22.27-2.17,1.29-2.43,2.28-6.15-2.89-11.74-7.98-14.36-13.26-3.46,5.21-10.9,10.94-18.08,13.91l-.27-.57c6.42-3.38,13.91-10.49,15.88-15.65l4.75,1.14ZM291.91,97.09s2.17,1.63,3.57,2.89c-.11.42-.49.57-1.06.57h-15.96c-1.6,3.19-3.88,7.07-5.89,9.76,4.48-.27,10.07-.68,15.96-1.06-1.52-2.05-3.38-4.07-4.98-5.51l.46-.3c12.23,5.47,10.49,12.8,7.18,10.6-.38-1.25-1.14-2.62-2.09-3.99-5.24.87-12.12,1.9-21.58,3.15-.23.46-.61.72-.99.8l-1.56-3.34c1.48-.04,3.61-.11,6.16-.27,1.37-2.81,3-6.88,3.91-9.84h-10.64l-.3-1.06h25.87l1.94-2.39ZM285.53,90.29s2.13,1.63,3.5,2.85c-.11.42-.49.61-1.03.61h-17.4l-.3-1.14h13.41l1.82-2.32Z"/>
      </g>
      <g>
        <g>
          <path class="cls-1" d="M134.27,27.47c3.34,0,5.17,1.56,5.17,3.87,0,1.72-1.1,3.23-3.76,3.81,3.21.42,4.58,2,4.58,4,0,2.22-1.78,4.36-6.14,4.36h-6.47v-.79l2.29-.24c.07-2.11.07-4.25.07-6.4v-1.21c0-2.11,0-4.27-.07-6.38l-2.29-.24v-.77h6.62ZM131.9,28.37c-.07,2.07-.07,4.18-.07,6.38h1.39c2.99,0,4.38-1.1,4.38-3.34s-1.23-3.04-3.92-3.04h-1.78ZM133.68,42.61c3.06,0,4.62-1.23,4.62-3.45s-1.5-3.52-4.93-3.52h-1.54c0,2.57,0,4.82.07,6.98h1.78Z"/>
          <path class="cls-1" d="M148.95,28.48c-.07,2.09-.07,4.22-.07,6.4v1.21c0,2.11,0,4.27.07,6.38l2.29.24v.79h-6.54v-.79l2.29-.24c.07-2.09.07-4.22.07-6.38v-1.21c0-2.13,0-4.29-.07-6.4l-2.29-.24v-.77h6.54v.77l-2.29.24Z"/>
          <path class="cls-1" d="M170.2,42.72v.79h-6.36v-.79l2.42-.24-1.45-4.38h-5.65l-1.43,4.33,2.31.29v.79h-5.28v-.79l1.98-.26,5.08-15.14h1.23l5.17,15.18,1.98.22ZM164.5,37.19l-2.53-7.61-2.51,7.61h5.04Z"/>
          <path class="cls-1" d="M189.21,28.24l-2.05.29-.02,15.16h-.73l-9.79-13.58.02,12.32,2.55.29v.79h-5.65v-.79l2.07-.26.02-13.73-.2-.29-1.8-.22v-.75h3.43l9.11,12.74-.02-11.66-2.57-.31v-.77h5.63v.77Z"/>
          <path class="cls-1" d="M206.45,39.2l-.07,3.48c-1.5.86-3.08,1.19-4.77,1.19-4.8,0-8.05-3.45-8.05-8.38s3.41-8.38,8.05-8.38c1.43,0,2.99.26,4.55,1.19l.09,3.45h-1.21l-.53-2.97c-.9-.48-1.78-.68-2.66-.68-3.5,0-6.14,2.68-6.14,7.39s2.49,7.39,5.98,7.39c1.01,0,2.05-.2,3.04-.68l.53-2.99h1.19Z"/>
          <path class="cls-1" d="M225.35,42.72v.79h-6.36v-.79l2.42-.24-1.45-4.38h-5.65l-1.43,4.33,2.31.29v.79h-5.28v-.79l1.98-.26,5.08-15.14h1.23l5.17,15.18,1.98.22ZM219.65,37.19l-2.53-7.61-2.51,7.61h5.04Z"/>
        </g>
        <path class="cls-1" d="M108.63,40.38l-.31-.31,2.75-2.75-2.75-2.75.31-.31,2.75,2.75,2.75-2.75.31.31-2.75,2.75,2.75,2.75-.31.31-2.75-2.75-2.75,2.75Z"/>
        <g>
          <path class="cls-1" d="M69.19,28.48c-.07,2.09-.07,4.22-.07,6.4v1.21c0,2.11,0,4.27.07,6.38l2.29.24v.79h-6.54v-.79l2.29-.24c.07-2.09.07-4.22.07-6.38v-1.21c0-2.13,0-4.29-.07-6.4l-2.29-.24v-.77h6.54v.77l-2.29.24Z"/>
          <path class="cls-1" d="M77.76,32.13c.15-2.57.62-4.07,1.67-5.17.97-1.08,2.16-1.43,3.19-1.43s1.94.37,2.18,1.17c-.04.53-.48.92-1.23.92-.57,0-1.08-.24-1.65-.68l-.64-.51c-.4.2-.77.53-1.03.97-.59.88-.95,2.22-.88,4.8h3.45v1.01h-3.41v5.28c0,1.34.02,2.68.04,4.03l2.24.29v.7h-6.05v-.7l2.05-.29c.02-1.34.04-2.68.04-4.03v-5.28h-2.11v-.81l2.13-.26Z"/>
          <path class="cls-1" d="M99.13,42.81v.7h-5.37v-.7l1.87-.26c.02-1.23.04-2.9.04-4.05v-2.2c0-2.29-.68-3.04-2.11-3.04-1.1,0-2.22.4-3.65,1.76v3.48c0,1.12.02,2.82.04,4.05l1.74.26v.7h-5.39v-.7l1.89-.29c.02-1.21.04-2.9.04-4.03v-10.96l-2-.18v-.68l3.37-.92.33.2-.09,3.39v4.86c1.28-1.41,2.95-2.31,4.47-2.31,2,0,3.01,1.19,3.01,4.31v2.29c0,1.14.02,2.82.04,4.03l1.76.29Z"/>
        </g>
      </g>
      <g>
        <path class="cls-1" d="M82.54,1.46c-.04,1.14-.04,2.31-.04,3.51v.66c0,1.15,0,2.33.04,3.48l1.38.13v.43h-3.83v-.43l1.39-.13c.02-1.14.02-2.3.02-3.48v-.66c0-1.18,0-2.36-.02-3.51h-2.19l-.34,1.75h-.6l.1-2.28h7.1l.12,2.28h-.6l-.34-1.75h-2.19Z"/>
        <path class="cls-1" d="M87.74,6.62c0-2.18,1.46-3.27,2.95-3.27s2.94,1.09,2.94,3.27-1.46,3.23-2.94,3.23-2.95-1.06-2.95-3.23ZM92.62,6.62c0-1.79-.73-2.79-1.93-2.79s-1.93,1.01-1.93,2.79.72,2.75,1.93,2.75,1.93-.95,1.93-2.75Z"/>
        <path class="cls-1" d="M99.61,9.25c-.34.38-.83.6-1.44.6-.91,0-1.42-.49-1.42-1.51,0-.3.01-.58.01-1.04v-3.23h-1.18v-.44l1.22-.14.29-1.78h.66l-.07,1.81h1.8v.55h-1.81v4.22c0,.71.29,1.01.78,1.01.31,0,.58-.11.91-.35l.24.3Z"/>
        <path class="cls-1" d="M107.39,9.22c-.29.43-.62.6-1.04.6-.61,0-1-.41-1.1-1.07-.73.74-1.21,1.09-1.99,1.09-.96,0-1.73-.55-1.73-1.58,0-.8.47-1.39,2.1-1.98.47-.14,1.04-.31,1.6-.43v-.38c0-1.32-.4-1.64-1.31-1.64-.25,0-.53.02-.84.13l-.26.89c-.1.35-.28.53-.59.53s-.5-.17-.53-.46c.25-.98,1.19-1.57,2.46-1.57s1.98.6,1.98,2.16v2.84c0,.7.19.91.52.91.22,0,.36-.1.54-.29l.2.25ZM105.22,6.24c-.49.13-1.02.3-1.34.43-1.16.44-1.38.95-1.38,1.43,0,.72.46,1.04,1.1,1.04.5,0,.85-.22,1.62-.83v-2.07Z"/>
        <path class="cls-1" d="M112.24,9.29v.38h-3.15v-.38l1.12-.16c.01-.71.02-1.49.02-2.19V.97l-1.09-.1v-.37l1.86-.5.18.11-.04,1.85v4.99c0,.71.01,1.49.02,2.19l1.08.16Z"/>
        <path class="cls-1" d="M120.49,4.34c.64-.71,1.34-1,2.04-1,1.43,0,2.49,1.21,2.49,3.18s-1.09,3.32-2.65,3.32c-.61,0-1.27-.22-1.87-.95l-.1.9-1.85-.12v-.38l1.03-.16c.01-.66.02-1.58.02-2.19V.98l-1.09-.11v-.37l1.83-.5.18.11-.05,1.85v2.39ZM120.52,8.47c.56.55,1.14.77,1.67.77,1,0,1.86-.78,1.86-2.64,0-1.74-.74-2.65-1.8-2.65-.46,0-.98.12-1.73.8v3.72Z"/>
        <path class="cls-1" d="M128.42,6.52c.01,1.78.95,2.65,2.22,2.65.85,0,1.42-.37,1.88-.94l.25.19c-.49.86-1.32,1.42-2.43,1.42-1.68,0-2.89-1.16-2.89-3.21s1.35-3.29,2.94-3.29c1.39,0,2.4.95,2.4,2.45,0,.31-.02.56-.08.74h-4.28ZM131.24,6.07c.53,0,.65-.26.65-.65,0-.84-.64-1.6-1.56-1.6-.88,0-1.75.72-1.9,2.24h2.81Z"/>
        <path class="cls-1" d="M141.11,9.22c-.29.43-.62.6-1.04.6-.61,0-1-.41-1.1-1.07-.73.74-1.21,1.09-1.99,1.09-.96,0-1.73-.55-1.73-1.58,0-.8.47-1.39,2.1-1.98.47-.14,1.04-.31,1.59-.43v-.38c0-1.32-.4-1.64-1.31-1.64-.25,0-.53.02-.84.13l-.26.89c-.1.35-.28.53-.59.53s-.5-.17-.53-.46c.25-.98,1.19-1.57,2.46-1.57s1.98.6,1.98,2.16v2.84c0,.7.19.91.52.91.22,0,.36-.1.54-.29l.2.25ZM138.94,6.24c-.49.13-1.02.3-1.34.43-1.16.44-1.38.95-1.38,1.43,0,.72.46,1.04,1.1,1.04.5,0,.85-.22,1.62-.83v-2.07Z"/>
        <path class="cls-1" d="M149.61,9.29v.38l-1.7.11-.1-1.2c-.67.83-1.5,1.26-2.34,1.26-1.08,0-1.72-.61-1.7-2.37l.04-3.33-1-.17v-.38l1.8-.16.12.13-.06,1.82v2.01c0,1.25.38,1.68,1.16,1.68.68,0,1.34-.32,1.95-.96l.02-3.98-.98-.17v-.38l1.78-.16.13.13-.05,1.82v3.77l.92.14Z"/>
        <path class="cls-1" d="M155.47,9.25c-.34.38-.83.6-1.44.6-.91,0-1.42-.49-1.42-1.51,0-.3.01-.58.01-1.04v-3.23h-1.18v-.44l1.22-.14.29-1.78h.66l-.07,1.81h1.8v.55h-1.81v4.22c0,.71.29,1.01.78,1.01.31,0,.58-.11.91-.35l.24.3Z"/>
        <path class="cls-1" d="M163.38,3.89l-.73.14-2.21,5.84c-.83,2.19-1.64,3.08-2.61,3.08-.59,0-1.1-.3-1.12-.76.07-.32.41-.48.76-.48s.59.14.9.44l.1.1c.61-.43,1.03-1.16,1.33-1.99l.11-.28-2.37-6-.77-.11v-.37h2.97v.38l-1.15.13,1.76,4.77,1.7-4.76-1.18-.16v-.37h2.51v.37Z"/>
        <path class="cls-1" d="M172.19,6.19c1.27.47,1.75,1.04,1.75,1.85,0,.95-.83,1.81-2.46,1.81-.72,0-1.28-.17-1.92-.47l-.05-1.4h.58l.26,1.16c.32.14.68.23,1.13.23,1.07,0,1.57-.44,1.57-1.09,0-.59-.37-.89-1.25-1.21l-.6-.23c-.96-.35-1.58-.85-1.58-1.74,0-.94.78-1.75,2.19-1.75.7,0,1.22.18,1.8.52l-.05,1.3h-.53l-.22-1.07c-.32-.18-.66-.26-1.01-.26-.88,0-1.32.41-1.32,1s.34.86,1.22,1.2l.47.17Z"/>
        <path class="cls-1" d="M182.2,9.22c-.29.43-.62.6-1.04.6-.61,0-1-.41-1.1-1.07-.73.74-1.21,1.09-1.99,1.09-.96,0-1.73-.55-1.73-1.58,0-.8.47-1.39,2.1-1.98.47-.14,1.04-.31,1.59-.43v-.38c0-1.32-.4-1.64-1.31-1.64-.25,0-.53.02-.84.13l-.26.89c-.1.35-.28.53-.59.53s-.5-.17-.53-.46c.25-.98,1.19-1.57,2.46-1.57s1.98.6,1.98,2.16v2.84c0,.7.19.91.52.91.22,0,.36-.1.54-.29l.2.25ZM180.03,6.24c-.49.13-1.02.3-1.34.43-1.16.44-1.38.95-1.38,1.43,0,.72.46,1.04,1.1,1.04.5,0,.85-.22,1.62-.83v-2.07Z"/>
        <path class="cls-1" d="M187.05,9.29v.38h-3.15v-.38l1.12-.16c.01-.71.02-1.49.02-2.19V.97l-1.09-.1v-.37l1.86-.5.18.11-.04,1.85v4.99c0,.71.01,1.49.02,2.19l1.08.16Z"/>
        <path class="cls-1" d="M189.23,6.62c0-2.18,1.46-3.27,2.95-3.27s2.94,1.09,2.94,3.27-1.46,3.23-2.94,3.23-2.95-1.06-2.95-3.23ZM194.12,6.62c0-1.79-.73-2.79-1.93-2.79s-1.93,1.01-1.93,2.79.72,2.75,1.93,2.75,1.93-.95,1.93-2.75Z"/>
        <path class="cls-1" d="M204.43,9.29v.38h-2.94v-.38l1.02-.14c.01-.66.02-1.58.02-2.21v-1.2c0-1.25-.36-1.66-1.13-1.66-.59,0-1.2.25-1.97.96v1.9c0,.61.01,1.54.02,2.19l.95.16v.38h-2.93v-.38l1.01-.14c.02-.67.04-1.6.04-2.21v-.66c0-.76-.02-1.26-.05-1.82l-1.07-.08v-.38l1.73-.64.17.12.1,1.1c.7-.77,1.6-1.24,2.4-1.24,1.09,0,1.64.66,1.64,2.35v1.25c0,.62.01,1.54.04,2.19l.95.16Z"/>
      </g>
    </g>
  </g>
</svg>