<?xml version="1.0" encoding="UTF-8"?>
<svg id="_レイヤー_2" data-name="レイヤー 2" xmlns="http://www.w3.org/2000/svg" viewBox="0 0 335.5 257.5">
  <defs>
    <style>
      .cls-1 {
        stroke-width: .5px;
      }

      .cls-1, .cls-2, .cls-3, .cls-4, .cls-5, .cls-6, .cls-7 {
        fill: none;
        stroke-miterlimit: 10;
      }

      .cls-1, .cls-4, .cls-5, .cls-7 {
        stroke: #484947;
      }

      .cls-8 {
        fill: #231815;
      }

      .cls-8, .cls-9, .cls-10, .cls-11 {
        stroke-width: 0px;
      }

      .cls-2 {
        stroke-width: .11px;
      }

      .cls-2, .cls-6 {
        stroke: #231815;
      }

      .cls-3 {
        stroke: #c8c9ca;
        stroke-width: 1.17px;
      }

      .cls-4 {
        stroke-width: 4.22px;
      }

      .cls-5 {
        stroke-width: 2.35px;
      }

      .cls-9 {
        fill: #fff;
      }

      .cls-6 {
        stroke-width: .35px;
      }

      .cls-10 {
        fill: #9e9e9f;
      }

      .cls-11 {
        fill: #484947;
      }

      .cls-7 {
        stroke-width: 2.81px;
      }
    </style>
  </defs>
  <g id="_レイヤー_1-2" data-name="レイヤー 1">
    <g>
      <g>
        <path class="cls-11" d="M90.55,134.66c-.04,1.33-.04,2.69-.04,4.08v.77c0,1.34,0,2.72.04,4.06l1.46.15v.5h-4.16v-.5l1.46-.15c.04-1.33.04-2.69.04-4.06v-.77c0-1.36,0-2.73-.04-4.08l-1.46-.15v-.49h4.16v.49l-1.46.15Z"/>
        <path class="cls-11" d="M95.31,136.98c.1-1.64.39-2.59,1.06-3.29.62-.69,1.37-.91,2.03-.91s1.23.24,1.39.74c-.03.34-.31.59-.78.59-.36,0-.69-.15-1.05-.43l-.41-.32c-.25.13-.49.34-.66.62-.38.56-.6,1.42-.56,3.05h2.2v.64h-2.17v3.36c0,.85.01,1.71.03,2.56l1.43.18v.45h-3.85v-.45l1.3-.18c.01-.85.03-1.71.03-2.56v-3.36h-1.34v-.52l1.36-.17Z"/>
        <path class="cls-11" d="M108.21,143.78v.45h-3.42v-.45l1.19-.17c.01-.78.03-1.85.03-2.58v-1.4c0-1.46-.43-1.93-1.34-1.93-.7,0-1.42.25-2.33,1.12v2.21c0,.71.01,1.79.03,2.58l1.11.17v.45h-3.43v-.45l1.21-.18c.01-.77.03-1.85.03-2.56v-6.98l-1.28-.11v-.43l2.14-.59.21.13-.06,2.16v3.1c.81-.9,1.88-1.47,2.84-1.47,1.27,0,1.92.76,1.92,2.75v1.46c0,.73.01,1.79.03,2.56l1.12.18Z"/>
        <path class="cls-11" d="M121.17,137.82h-1.6c.29.38.45.88.45,1.5,0,1.6-1.13,2.51-2.68,2.51-.43,0-.83-.07-1.18-.2-.31.39-.48.7-.48,1.08,0,.43.24.74,1.02.74h2.06c1.55,0,2.31.66,2.31,1.86,0,1.3-1.22,2.58-3.64,2.58-2.13,0-3.14-.77-3.14-1.91,0-.67.42-1.22,1.47-1.72-.62-.17-.98-.55-.98-1.12,0-.5.28-1,1.02-1.67-.71-.41-1.16-1.13-1.16-2.16,0-1.58,1.15-2.49,2.7-2.49.73,0,1.36.2,1.84.56l1.74-.55.24.15v.83ZM116.8,144.4c-.28,0-.52-.01-.74-.04-.48.46-.7.87-.7,1.44,0,1.04.83,1.51,2.1,1.51,1.75,0,2.68-.76,2.68-1.68,0-.7-.42-1.23-1.54-1.23h-1.79ZM118.98,139.29c0-1.16-.6-1.96-1.62-1.96s-1.67.81-1.67,2,.62,1.99,1.62,1.99,1.67-.84,1.67-2.03Z"/>
        <path class="cls-11" d="M125.14,138.82c.5-1.23,1.4-1.99,2.28-1.99.45,0,.91.2,1.06.5,0,.6-.24.95-.78.95-.35,0-.62-.17-.9-.41l-.2-.17c-.66.43-1.11,1.08-1.46,2.04v1.28c0,.71.01,1.78.03,2.56l1.29.18v.45h-3.57v-.45l1.15-.17c.03-.78.04-1.86.04-2.58v-.77c0-.9-.03-1.47-.06-2.13l-1.25-.1v-.45l2.02-.74.2.14.14,1.83Z"/>
        <path class="cls-11" d="M130.01,140.65c0-2.55,1.71-3.82,3.45-3.82s3.43,1.27,3.43,3.82-1.71,3.77-3.43,3.77-3.45-1.23-3.45-3.77ZM135.72,140.65c0-2.09-.85-3.26-2.26-3.26s-2.25,1.18-2.25,3.26.84,3.21,2.25,3.21,2.26-1.11,2.26-3.21Z"/>
        <path class="cls-11" d="M146.68,143.78v.45l-1.99.13-.11-1.4c-.78.97-1.75,1.47-2.73,1.47-1.26,0-2-.71-1.99-2.77l.04-3.89-1.16-.2v-.45l2.1-.18.14.15-.07,2.13v2.35c0,1.46.45,1.96,1.36,1.96.8,0,1.57-.38,2.28-1.12l.03-4.65-1.15-.2v-.45l2.07-.18.15.15-.06,2.13v4.4l1.08.17Z"/>
        <path class="cls-11" d="M150.82,137.99c.73-.81,1.54-1.16,2.37-1.16,1.64,0,2.89,1.44,2.89,3.74s-1.3,3.85-3.1,3.85c-.7,0-1.46-.22-2.14-1.05v1.3c0,.81.01,1.74.04,2.59l1.44.18v.45h-3.8v-.45l1.27-.18c.01-.84.03-1.74.03-2.56v-4.43c0-.9-.01-1.48-.06-2.14l-1.26-.1v-.45l2.03-.74.2.14.08,1.01ZM150.89,142.86c.62.62,1.22.84,1.85.84,1.21,0,2.21-.9,2.21-3.03s-.87-3.15-2.09-3.15c-.5,0-1.13.15-1.97.91v4.43Z"/>
        <path class="cls-11" d="M168.76,136.2c1.27,2.47,3.61,4.64,5.8,5.65l-.03.14c-.39.04-.76.32-.92.77-2.13-1.3-4.05-3.64-5.17-6.56v5.74h1.27l.66-.88s.74.62,1.22,1.06c-.04.15-.18.22-.38.22h-2.77v2.62c0,.14-.39.35-.76.35h-.18v-2.97h-2.96l-.11-.41h3.07v-4.93c-1.26,2.4-3.26,4.45-5.86,5.87l-.14-.21c2.31-1.6,4.22-4.05,5.25-6.47h-4.97l-.13-.42h5.84v-3.31l1.46.17c-.04.21-.15.35-.52.41v2.73h3.87l.73-.91s.81.63,1.3,1.11c-.03.15-.17.22-.36.22h-5.21Z"/>
        <path class="cls-11" d="M181.72,135.59c-.13.1-.29.13-.63.15-.36.76-.9,1.54-1.53,2.3,2.7.81,2.17,2.52,1.27,2-.21-.53-.78-1.21-1.33-1.68v6.63c0,.08-.31.32-.76.32h-.14v-6.26c-.76.74-1.6,1.4-2.44,1.91l-.17-.15c1.64-1.3,3.32-3.45,4.09-5.21h-3.64l-.11-.39h2.24v-2.66l1.39.15c-.03.2-.17.34-.5.38v2.13h.66l.62-.59.98.98ZM188.01,143.38s.76.6,1.21,1.04c-.03.15-.17.22-.35.22h-8.19l-.11-.41h3.73v-6.47h-2.79l-.11-.41h2.9v-4.79l1.44.17c-.03.21-.15.35-.49.39v4.23h1.71l.64-.84s.74.59,1.21,1.02c-.04.15-.17.22-.36.22h-3.19v6.47h2.12l.66-.85Z"/>
      </g>
      <rect class="cls-1" x=".25" y=".25" width="335" height="257"/>
      <line class="cls-3" x1="31.75" y1="196.87" x2="290.83" y2="196.87"/>
      <line class="cls-7" x1="31.75" y1="82.47" x2="294.39" y2="82.47"/>
      <line class="cls-4" x1="204.71" y1="33.77" x2="204.71" y2="240.02"/>
      <line class="cls-5" x1="206.32" y1="184.09" x2="68.91" y2="184.09"/>
      <line class="cls-5" x1="68.91" y1="187.91" x2="68.91" y2="81.81"/>
      <rect class="cls-11" x="174.14" y="157.09" width="19.01" height="19.01"/>
      <rect class="cls-10" x="155.07" y="157.09" width="19.01" height="19.01"/>
      <g>
        <path class="cls-11" d="M231.24,230.7c.2.29.43.72.83.72.66,0,3.02-.42,3.68-.59.25-.07.4-.3.56-.3.36,0,1.14.62,1.14.89,0,.24-.36.34-.52.58-.41.65-1.12,1.75-1.99,2.72,1.93.88,3.9,2.21,3.9,3.2,0,.24-.13.44-.41.44-.32,0-.49-.38-1.13-1.1-.8-.9-1.57-1.61-2.65-2.24-1.1,1.16-2.81,2.63-5.09,3.54l-.18-.3c2.82-1.46,5.65-4.28,6.76-6.74.06-.16-.01-.18-.14-.17-.85.13-2.52.54-3.18.71-.37.1-.42.31-.71.31-.35,0-.83-.52-.97-.83-.07-.14-.14-.4-.17-.73l.25-.11Z"/>
        <path class="cls-11" d="M247.03,231.35c.58,0,2.12-.2,2.45-.28.34-.06.41-.28.61-.28.3,0,1.02.52,1.02.83,0,.23-.41.31-.55.61-.54,1-1.14,1.91-1.82,2.76.73.55,1.34,1.16,1.34,1.62.01.26-.14.43-.4.43-.34.01-.55-.52-1.46-1.45-1.41,1.55-3.15,2.81-5.38,3.72l-.17-.28c1.94-.98,3.71-2.42,5.01-3.95-.72-.64-1.56-1.18-2.53-1.62-.72.71-1.52,1.33-2.36,1.8l-.19-.25c1.85-1.33,3.89-4.08,3.89-4.77,0-.22-.31-.4-.73-.58l.06-.23c.22-.01.46-.01.72.05.48.11,1.08.46,1.08.68,0,.2-.18.31-.35.62-.11.18-.23.37-.35.55h.12ZM249.64,231.56c-.42.04-1.54.22-1.96.31-.25.06-.49.14-.66.14-.12,0-.28-.08-.44-.2-.37.49-.78.98-1.21,1.44.96.37,1.98.84,2.73,1.32.77-.96,1.34-1.93,1.67-2.82.06-.16,0-.19-.13-.19Z"/>
        <path class="cls-11" d="M257.04,232.56l.08-.23c.18,0,.46,0,.71.07.5.13,1.14.83,1.14,1.19,0,.23-.26.34-.48.6-1.09,1.37-2.66,2.73-4.28,3.54l-.18-.24c1.55-1.06,3.83-3.35,3.83-4.19,0-.28-.5-.59-.82-.74ZM263.97,237.21c-.3,0-.37-.24-.56-.72-.67-1.61-1.66-2.85-3.08-3.98l.19-.24c1.7.92,3.72,2.78,3.89,4.23.05.44-.16.71-.43.71ZM262.78,232.29c-.26-.31-.59-.68-1.12-1.06l.17-.2c.6.25,1.07.52,1.37.79.29.29.41.49.41.72,0,.2-.11.32-.29.32s-.3-.28-.54-.58ZM263.78,231.32c-.28-.3-.56-.6-1.1-.97l.14-.2c.61.22,1.08.44,1.37.7.32.26.44.49.44.73,0,.2-.1.31-.28.31-.19,0-.31-.28-.58-.56Z"/>
      </g>
      <g>
        <path class="cls-11" d="M100.72,64.8c2.21.2,4.13.88,4.98,1.45.41.28.62.54.62.82,0,.19-.12.37-.41.37-.26,0-.54-.26-.95-.54-1.46-.97-2.55-1.32-4.33-1.81l.08-.29ZM101.25,61.59c1.56.1,2.73.46,3.36.74.46.22.71.44.71.78,0,.19-.14.35-.37.35-.17,0-.35-.12-.66-.31-.74-.44-1.56-.82-3.09-1.28l.06-.28ZM106.09,60.39c0,.2-.14.37-.34.37-.25,0-.41-.16-.73-.38-.92-.6-1.87-1.01-3.57-1.45l.05-.26c1.73.14,3.02.48,3.74.83.66.32.85.56.85.9Z"/>
        <path class="cls-11" d="M109.93,64.48l.24-.08c.25.32.52.62.94.62.53,0,4.2-.47,6.6-.55.52-.04.67-.14.82-.14.49,0,1.44.46,1.44.88,0,.2-.13.31-.36.31-.3,0-1.24-.32-2.66-.32-1.3,0-3.62.19-4.86.52-.44.11-.65.28-.94.28-.36,0-.92-.58-1.06-.84-.08-.16-.12-.35-.16-.66ZM117.56,60.9c-1.97.23-4.2.5-4.63.5-.34,0-.7-.31-.9-.58-.12-.2-.2-.38-.3-.68l.22-.12c.46.46.76.66,1.12.66.52,0,1.99-.18,2.73-.34.7-.14.77-.31,1.06-.31.44,0,1.1.18,1.1.49,0,.19-.13.34-.4.37Z"/>
        <path class="cls-11" d="M123.37,59.23c.2.29.43.72.83.72.66,0,3.02-.42,3.68-.59.25-.07.4-.3.56-.3.36,0,1.14.62,1.14.89,0,.24-.36.34-.52.58-.41.65-1.12,1.75-1.99,2.72,1.93.88,3.9,2.21,3.9,3.2,0,.24-.13.44-.41.44-.32,0-.49-.38-1.13-1.1-.8-.9-1.57-1.61-2.65-2.24-1.1,1.16-2.81,2.63-5.08,3.54l-.18-.3c2.82-1.46,5.65-4.28,6.77-6.74.06-.16-.01-.18-.14-.17-.85.13-2.52.54-3.18.71-.37.1-.42.31-.71.31-.35,0-.83-.52-.97-.83-.07-.14-.14-.4-.17-.73l.25-.11Z"/>
        <path class="cls-11" d="M134.12,58.34c.31-.07.54-.14.77-.14.5,0,1.32.46,1.32.73,0,.24-.21.29-.26.68-.06.58-.08,1.45-.1,2.11,1.16.26,2.3.68,2.96,1.1.36.23.67.53.67.9,0,.2-.13.41-.38.41-.4,0-.53-.41-1.25-.96-.54-.37-1.19-.72-2-1.03-.01.83-.02,2.79-.01,4.07.01.53.04.89.04,1.09,0,.31-.12.46-.38.46-.4,0-.6-.66-.6-1.07,0-.26.11-.48.16-.94.1-.89.1-2.85.1-3.77,0-.96,0-2.27-.07-2.87-.04-.38-.3-.46-.94-.53v-.25Z"/>
        <path class="cls-11" d="M141.79,62.03l.14-.13c.32.17.64.42.84.61.49.42.75.84.75,1.22,0,.25-.12.43-.37.43-.38,0-.4-.47-.73-1.12-.19-.4-.41-.73-.64-1.02ZM142.74,67.89l-.14-.22c3.18-1.66,4.99-4.75,4.99-5.66,0-.19-.17-.34-.63-.53l.06-.18c.16-.01.37-.04.56,0,.44.07,1.02.6,1.02.9,0,.19-.2.29-.34.56-.89,1.94-2.63,4.02-5.52,5.12ZM143.9,61.4l.14-.13c.35.19.62.38.89.64.38.32.64.72.64,1.15,0,.26-.17.41-.4.41-.36,0-.36-.49-.65-1.08-.17-.32-.38-.71-.62-.98Z"/>
        <path class="cls-11" d="M153.42,60.2c.67,0,4.49-.41,5.06-.53.31-.06.38-.24.59-.24.36,0,1.23.68,1.23,1.02,0,.26-.35.38-.52.78-1.26,3-3.41,5.24-6.94,6.58l-.18-.26c3.44-1.74,5.65-4.29,6.38-7.1.05-.18-.02-.2-.14-.2-.53,0-3.93.49-4.62.64-.32.07-.58.29-.82.29-.36,0-.92-.56-1.04-.86-.06-.17-.1-.36-.12-.68l.23-.1c.2.3.46.67.89.67ZM159.8,58.64c0-.7.56-1.26,1.27-1.26s1.26.56,1.26,1.26-.55,1.27-1.26,1.27-1.27-.55-1.27-1.27ZM160.21,58.64c0,.49.38.88.86.88s.86-.38.86-.88-.38-.85-.86-.85-.86.38-.86.85Z"/>
      </g>
      <g>
        <path class="cls-11" d="M234.38,132.79c.23.04.4.1.56.2.32.23.67.67.67.92s-.31.31-.77.55c-.85.42-2.54,1.2-4.52,1.76-.02.72-.04,1.36-.04,1.67,0,1.18.26,1.26,1.7,1.26,1.9,0,2.71-.38,3.12-.38.56,0,.92.13.92.41,0,.24-.17.35-.4.43-.49.14-1.69.29-3.56.29-2.15,0-2.46-.36-2.47-2.05-.01-1.07.13-5.01.07-5.58-.05-.34-.31-.41-.94-.49v-.22c.26-.07.58-.17.84-.16.49.02,1.19.48,1.19.77,0,.23-.23.28-.26.65-.06.52-.12,1.77-.17,2.93,1.63-.58,3.24-1.37,4.01-1.96.2-.16.24-.25.14-.46-.06-.14-.18-.29-.29-.4l.18-.16ZM235.11,131.44c.6.26,1.04.55,1.34.84.28.29.41.49.39.72,0,.2-.14.35-.32.32-.18-.01-.29-.29-.53-.59-.24-.32-.56-.71-1.05-1.09l.17-.2ZM236.13,130.55c.6.24,1.05.49,1.34.74.31.26.42.49.41.74,0,.2-.11.31-.29.31-.19-.01-.31-.29-.56-.6-.26-.3-.53-.6-1.06-1l.16-.2Z"/>
        <path class="cls-11" d="M242.71,133.71l.08-.23c.18,0,.46,0,.71.07.5.13,1.14.83,1.14,1.19,0,.23-.26.34-.48.6-1.09,1.37-2.66,2.73-4.28,3.54l-.18-.24c1.55-1.06,3.83-3.35,3.83-4.19,0-.28-.5-.59-.82-.74ZM249.64,138.35c-.3,0-.37-.24-.56-.72-.67-1.61-1.65-2.85-3.08-3.98l.19-.24c1.7.92,3.72,2.78,3.89,4.23.05.44-.16.71-.43.71ZM248.45,133.44c-.26-.31-.59-.68-1.12-1.06l.17-.2c.6.25,1.07.52,1.37.79.29.29.41.49.41.72,0,.2-.11.32-.29.32s-.3-.28-.54-.58ZM249.45,132.46c-.28-.3-.56-.6-1.1-.97l.14-.2c.61.22,1.08.44,1.37.7.32.26.44.49.44.73,0,.2-.1.31-.28.31-.19,0-.31-.28-.58-.56Z"/>
        <path class="cls-11" d="M256.63,131.16c.28-.06.65-.12.9-.12.49.02,1.12.42,1.12.7,0,.22-.24.24-.26.58-.02.29-.04.77-.05,1.3,2.48-.31,2.6-.5,2.87-.5.44,0,1.04.28,1.04.55s-.12.35-.42.35c-.36,0-.7-.04-1.22-.04-.48,0-1.48.11-2.28.19-.01.4-.01.79-.01,1.09,0,.9.06,3.5.06,3.83,0,.52-.28,1.04-.68,1.04-.33,0-.32-.24-.59-.56-.22-.24-.62-.53-1.01-.74l.12-.25c.4.13.85.29,1.16.36.13.02.24.01.25-.16.04-.55.04-2.51.04-3.53v-1.01c-.78.11-1.83.24-2.46.38-.48.1-.6.31-.86.31s-.71-.35-.91-.73c-.07-.14-.12-.43-.14-.66l.22-.1c.23.31.48.62.74.61.55-.01,2.51-.26,3.41-.37-.01-.73-.02-1.45-.06-1.73-.05-.37-.32-.44-.95-.53v-.26ZM255.7,135.85c-.13,1.31-1.06,2.96-1.91,2.96-.28,0-.42-.19-.42-.42,0-.3.24-.37.61-.66.86-.66,1.18-1.28,1.4-1.96l.31.07ZM259.97,135.63c1.21.48,2.41,1.34,2.6,2.33.06.34-.08.59-.37.59-.34,0-.48-.4-.71-.78-.31-.56-.84-1.32-1.69-1.92l.17-.22Z"/>
        <path class="cls-11" d="M265.88,134.84c.26.41.46.78.96.78,1.07,0,5.27-.28,5.82-.3.8-.06,1.14-.13,1.45-.13.46,0,1,.2,1,.53,0,.22-.12.35-.53.35s-.84-.02-1.57-.02-4.13.18-5.03.29c-.68.07-.82.25-1.16.25s-.9-.59-1.07-1c-.08-.23-.1-.43-.11-.67l.24-.07Z"/>
        <path class="cls-11" d="M284.41,135.31c1.37.83,2.91,2.51,2.91,3.79,0,.34-.18.56-.47.56-.38,0-.36-.54-.82-1.6-1.76.38-4.75.85-5.83,1.09-.25.05-.49.35-.7.35-.32,0-.8-.53-.91-.88-.04-.17-.05-.3-.04-.46l.16-.08c.25.19.44.29.65.29.11,0,.32-.01.61-.04.89-1.56,2.6-5.27,2.6-5.84,0-.26-.23-.48-.62-.7l.08-.22c.23.01.5.05.68.12.49.16,1.02.65,1.02.95,0,.2-.28.29-.41.54-.55,1.14-1.83,3.66-2.69,5.09,1.5-.16,3.85-.44,5.17-.68-.41-.77-.98-1.48-1.63-2.07l.22-.22Z"/>
        <path class="cls-11" d="M236.9,146.46s.7.52,1.14.92c-.04.12-.16.18-.32.18h-10.3l-.1-.35h4.88v-1.34l1.22.13c-.02.17-.14.29-.43.32v.89h3.29l.62-.76ZM236.81,151.19l1.02.76c-.07.08-.28.19-.52.23v3.59c0,.6-.14.98-1.22,1.09-.04-.23-.1-.43-.25-.54-.18-.12-.47-.23-.98-.29v-.18s1.15.08,1.4.08c.22,0,.28-.07.28-.25v-3.65h-7.81v4.53c0,.08-.32.26-.63.26h-.13v-5.54l.85.38h7.6l.4-.48ZM234.75,151.13v-.53h-4.26v.35c0,.07-.34.25-.65.25h-.12v-3.07l.83.36h4.08l.44-.47.97.73c-.08.1-.29.19-.52.24v1.9c-.01.07-.42.24-.66.24h-.12ZM234.88,155.42c-.01.08-.38.26-.63.26h-.12v-.52h-3.03v.47c0,.06-.34.24-.64.24h-.12v-3.26l.8.35h2.89l.4-.43.9.68c-.06.08-.23.17-.44.2v2ZM234.75,150.25v-1.4h-4.26v1.4h4.26ZM234.13,154.82v-1.5h-3.03v1.5h3.03Z"/>
        <path class="cls-11" d="M244.05,148.09c-.04.17-.13.29-.43.32v6.49c0,.11-.29.26-.55.26h-.13v-.74h-2.13v1c0,.1-.28.26-.54.26h-.13v-7.69l1.12.13c-.02.17-.13.29-.44.31v5.65h.71v-7.93l1.08.12c-.02.17-.12.26-.4.31v7.5h.74v-6.13l1.12.13ZM249.88,149.7s.61.5.98.85c-.04.13-.16.19-.31.19h-.96v4.93c0,.61-.16,1.07-1.29,1.19-.02-.24-.11-.47-.29-.58-.21-.14-.54-.24-1.16-.32v-.19s1.43.11,1.7.11c.23,0,.3-.06.3-.23v-4.91h-5.12l-.1-.34h5.71l.54-.71ZM243.85,147.3h2.71c.07-.42.1-.89.11-1.42l1.13.11c-.02.14-.12.28-.37.31-.02.36-.05.68-.11,1h1.75l.56-.71s.63.5,1.02.86c-.02.13-.14.19-.31.19h-3.09c-.04.16-.08.31-.14.47,3.01.56,2.87,2.19,1.99,1.86-.37-.54-1.32-1.22-2.1-1.64-.42.77-1.27,1.34-3.11,1.79l-.11-.24c1.76-.58,2.43-1.26,2.7-2.23h-2.53l-.1-.35ZM245.3,154.32v.71c0,.07-.29.24-.56.24h-.11v-3.79l.73.34h1.5l.41-.43.9.68c-.08.08-.29.18-.5.23v2.41c-.01.07-.36.24-.59.24h-.1v-.62h-1.68ZM245.3,152.16v1.81h1.68v-1.81h-1.68Z"/>
        <path class="cls-11" d="M262.19,146.83s.67.54,1.08.92c-.02.13-.13.19-.3.19h-8.58v2.57c0,1.98-.13,4.53-1.96,6.31l-.17-.13c1.21-1.8,1.36-4.04,1.36-6.17v-3.32l.91.38h3.19v-1.73l1.21.12c-.02.17-.14.29-.44.34v1.27h3.08l.61-.76ZM262.07,149.51s.64.52,1.04.9c-.04.12-.14.18-.32.18h-3.89v2.11h2.28l.38-.46.85.66c-.08.08-.19.16-.43.2v3.44s-.29.24-.66.24h-.11v-.77h-5.08v.58c0,.07-.25.24-.64.24h-.12v-4.51l.89.37h1.86v-4.35l1.21.12c-.02.17-.13.29-.43.34v1.44h2.58l.59-.73ZM256.14,153.05v2.61h5.08v-2.61h-5.08Z"/>
      </g>
      <g>
        <path class="cls-11" d="M41.63,209.78s.68.53,1.1.92c-.04.13-.16.19-.31.19h-2.94v4.2c0,.12-.34.32-.63.32h-.16v-4.52h-3.08c-.23,1.94-1.06,3.5-3.17,4.56l-.14-.16c1.68-1.12,2.35-2.57,2.53-4.4h-3.05l-.1-.36h3.17c.01-.26.02-.54.02-.83v-2.17h-2.7l-.1-.35h2.79v-2.69l1.21.13c-.02.17-.12.29-.42.34v2.22h3.02v-2.7l1.21.13c-.02.17-.12.29-.42.34v2.23h1.24l.58-.73s.65.53,1.07.89c-.04.13-.16.19-.34.19h-2.54v3h1.55l.6-.76ZM38.69,210.54v-3h-3.02v2.17c0,.29-.01.56-.04.83h3.06Z"/>
        <path class="cls-11" d="M50.12,213.05c-1.19.43-2.83.98-5.12,1.68-.06.17-.16.24-.28.29l-.55-1.03c.52-.07,1.4-.23,2.47-.43v-1.92h-2.1l-.1-.35h2.2v-1.69h-1.31v.5c0,.07-.29.25-.6.25h-.12v-5.4l.78.35h3.21l.44-.47.96.73c-.08.1-.28.2-.52.25v4.02c-.01.08-.38.29-.65.29h-.12v-.53h-1.34v1.69h1.06l.5-.64s.55.44.9.79c-.02.13-.14.19-.3.19h-2.16v1.77c.84-.17,1.75-.35,2.69-.54l.05.18ZM45.33,205.66v1.62h1.31v-1.62h-1.31ZM46.64,209.24v-1.61h-1.31v1.61h1.31ZM47.38,205.66v1.62h1.34v-1.62h-1.34ZM48.73,209.24v-1.61h-1.34v1.61h1.34ZM55.48,209.3c-.1.08-.23.11-.46.13-.36.59-1.02,1.42-1.58,1.92l-.16-.11c.28-.52.64-1.33.84-1.96h-1.44v4.93c0,.64-.17,1.09-1.34,1.21-.02-.26-.11-.48-.26-.59-.22-.16-.58-.26-1.2-.34v-.18s1.43.1,1.72.1c.25,0,.32-.06.32-.24v-4.89h-2.25l-.11-.35h4.53l.49-.5.9.86ZM50.09,205.63l-.11-.36h3.79l.52-.5.91.88c-.08.08-.23.11-.49.12-.47.46-1.31,1.07-2.03,1.51,1.01.8.68,1.72.04,1.38-.31-.78-1.37-1.66-2.18-2.11l.11-.13c.8.17,1.38.42,1.8.7.41-.44.9-1.02,1.23-1.48h-3.59Z"/>
        <path class="cls-11" d="M59.73,205.14c-.04.17-.12.29-.42.34v3.69c-.01,2.33-.41,4.73-2.33,6.26l-.17-.14c1.44-1.62,1.73-3.86,1.73-6.12v-4.15l1.19.12ZM63.28,205.59c-.02.17-.12.29-.43.34v8.01c0,.1-.32.28-.62.28h-.14v-8.75l1.2.13ZM67.08,205.13c-.04.17-.12.29-.42.34v9.64c0,.11-.34.31-.64.31h-.16v-10.42l1.21.13Z"/>
      </g>
      <g>
        <g>
          <rect class="cls-9" x="189.25" y="76.18" width="31.75" height="12.23" rx="1.45" ry="1.45"/>
          <rect class="cls-2" x="189.25" y="76.18" width="31.75" height="12.23" rx="1.45" ry="1.45"/>
        </g>
        <circle class="cls-11" cx="196.11" cy="82.43" r="4.25"/>
        <circle class="cls-11" cx="205.49" cy="82.43" r="4.25"/>
        <circle class="cls-11" cx="214.86" cy="82.43" r="4.25"/>
      </g>
      <g>
        <g>
          <rect class="cls-9" x="189.25" y="214.79" width="31.75" height="12.23" rx="1.45" ry="1.45"/>
          <rect class="cls-2" x="189.25" y="214.79" width="31.75" height="12.23" rx="1.45" ry="1.45"/>
        </g>
        <circle class="cls-11" cx="196.11" cy="221.04" r="4.25"/>
        <circle class="cls-11" cx="205.49" cy="221.04" r="4.25"/>
        <circle class="cls-11" cx="214.86" cy="221.04" r="4.25"/>
      </g>
      <line class="cls-6" x1="226.19" y1="49.27" x2="207.97" y2="68.21"/>
      <circle class="cls-8" cx="220.98" cy="134.21" r="3.04"/>
      <circle class="cls-11" cx="187.01" cy="64.68" r="3.04"/>
      <circle class="cls-11" cx="220.98" cy="233.96" r="3.04"/>
      <g>
        <path class="cls-11" d="M241.25,44.43s.7.52,1.14.92c-.04.12-.16.18-.32.18h-10.3l-.1-.35h4.88v-1.34l1.22.13c-.02.17-.14.29-.43.32v.89h3.29l.62-.76ZM241.17,49.15l1.02.76c-.07.08-.28.19-.52.23v3.59c0,.6-.14.98-1.22,1.09-.04-.23-.1-.43-.25-.54-.18-.12-.47-.23-.98-.29v-.18s1.15.08,1.4.08c.22,0,.28-.07.28-.25v-3.65h-7.81v4.53c0,.08-.32.26-.64.26h-.13v-5.54l.85.38h7.6l.4-.48ZM239.11,49.09v-.53h-4.26v.35c0,.07-.34.25-.65.25h-.12v-3.07l.83.36h4.08l.44-.47.97.73c-.08.1-.29.19-.52.24v1.9c-.01.07-.42.24-.66.24h-.12ZM239.24,53.39c-.01.08-.38.26-.64.26h-.12v-.52h-3.04v.47c0,.06-.33.24-.63.24h-.12v-3.26l.8.35h2.89l.4-.43.9.68c-.06.08-.23.17-.44.2v2ZM239.11,48.22v-1.4h-4.26v1.4h4.26ZM238.48,52.79v-1.5h-3.04v1.5h3.04Z"/>
        <path class="cls-11" d="M244.15,46.48c2.53.31,2.05,2.03,1.2,1.55-.19-.53-.79-1.12-1.31-1.44l.11-.11ZM247.67,45.89c-.54,1.52-1.57,4.38-1.74,4.95-.11.38-.19.76-.19,1.06.01.52.35,1.08.3,2.05-.02.52-.25.83-.66.83-.21,0-.35-.23-.37-.6.14-1.22.1-2.15-.18-2.33-.16-.12-.34-.16-.6-.17v-.26h.55c.14,0,.18-.01.3-.24q.2-.44,2.36-5.35l.23.06ZM245.15,43.97c2.61.38,2.13,2.16,1.26,1.68-.19-.55-.84-1.22-1.37-1.56l.11-.12ZM246.85,53.84c.64-.24,2.17-.92,3.68-1.65l.07.16c-.65.5-1.59,1.25-2.88,2.13-.01.16-.1.28-.2.34l-.67-.97ZM254.13,47.51s.67.53,1.08.91c-.04.13-.16.19-.31.19h-7.86l-.1-.35h1.56v-3.41l1.16.13c-.02.16-.14.28-.42.31v2.96h1.62v-4.33l1.16.13c-.01.16-.13.28-.42.32v1.51h1.6l.56-.71s.63.49,1.02.88c-.04.13-.16.19-.32.19h-2.86v2h1.93l.59-.76ZM247.83,49.26c3.09.73,2.63,2.7,1.69,2.15-.26-.71-1.13-1.57-1.81-2.04l.12-.11ZM251.71,52.14c3.91.91,3.67,3.09,2.6,2.61-.47-.84-1.75-1.91-2.71-2.48l.11-.13ZM254.66,49.83c-.08.11-.25.18-.52.1-.73.65-1.62,1.27-2.36,1.63l-.14-.14c.56-.53,1.32-1.44,1.92-2.34l1.1.76Z"/>
        <path class="cls-11" d="M259.69,44.26c-.06.13-.2.22-.46.2-.4.64-.88,1.33-1.32,1.85.86.71.4,1.55-.18,1.14-.13-.54-.65-1.2-1.09-1.58l.12-.1c.37.11.66.23.89.37.28-.65.6-1.55.85-2.33l1.19.44ZM256.67,53.74c.31-.82.59-2,.71-3.12l1.08.26c-.05.16-.18.26-.42.26-.28.98-.67,2.01-1.17,2.69l-.19-.1ZM259.69,47.81c2.09,1.19,1.36,2.67.67,2.06-.02-.2-.07-.43-.16-.66-.25.05-.53.11-.84.17v5.18c0,.06-.26.24-.64.24h-.11v-5.29c-.38.07-.82.14-1.27.22-.08.16-.19.23-.31.25l-.34-.91c.26,0,.65-.01,1.12-.02.7-1.15,1.54-2.71,2.05-3.84l1.12.52c-.07.12-.24.2-.48.17-.56.88-1.49,2.14-2.35,3.14.59-.02,1.26-.05,1.96-.08-.17-.4-.38-.78-.58-1.07l.16-.07ZM259.91,50.51c1.86,1.36,1.08,2.81.43,2.16,0-.66-.31-1.54-.59-2.1l.16-.06ZM263.78,50.63c-.1.11-.2.13-.47.14-.42,1.36-1.27,2.64-2.81,3.43l-.11-.18c1.13-.8,1.83-2.04,2.15-3.31h-1.57l-.11-.35h1.64l.46-.44.82.71ZM267.75,50.15c-.05.1-.22.18-.44.1-.37.31-1.03.79-1.66,1.15.64.94,1.44,1.51,2.29,1.93l-.02.14c-.3.06-.52.31-.64.68-1.38-1.02-2.3-2.31-2.73-4.92v4.4c0,.61-.13,1.04-1.14,1.16-.01-.23-.07-.44-.22-.56-.17-.13-.46-.24-.95-.3v-.18s1.1.08,1.33.08c.19,0,.24-.06.24-.23v-4.67h-1.44v.32c0,.07-.25.23-.64.23h-.11v-4.68l.88.38h.85c.1-.41.22-.98.3-1.39l1.25.25c-.05.17-.19.26-.43.26-.19.25-.47.59-.7.88h2.29l.38-.47.85.67c-.07.08-.19.14-.44.19v3.57c0,.06-.28.23-.64.23h-.12v-.46h-1.44c.19.91.49,1.65.86,2.25.47-.54,1.02-1.31,1.27-1.75l.95.7ZM262.38,45.54v1.36h3.73v-1.36h-3.73ZM266.11,48.6v-1.35h-3.73v1.35h3.73Z"/>
      </g>
      <g>
        <path class="cls-11" d="M197.28,25.53s.71.54,1.14.94c-.04.13-.14.19-.31.19h-10.6l-.1-.35h5.06v-2.76h-3.8l-.1-.35h3.9v-1.97l1.24.13c-.04.17-.14.29-.43.34v1.5h2.36l.62-.77s.68.54,1.1.92c-.02.13-.13.19-.31.19h-3.78v2.76h3.38l.62-.78ZM187.78,17.51l-.1-.35h8.76l.61-.76s.7.53,1.13.91c-.02.13-.16.19-.32.19h-5.01c-.55.94-1.31,2-1.96,2.76,1.45-.07,3.21-.16,5.05-.26-.61-.59-1.33-1.14-1.94-1.52l.12-.13c4.25,1.4,4.03,3.66,2.99,3.13-.19-.38-.52-.8-.91-1.21-1.8.28-4.14.55-7.34.9-.08.13-.2.22-.32.24l-.49-1.04c.56-.01,1.4-.04,2.42-.08.44-.78.98-1.92,1.31-2.77h-3.98Z"/>
        <path class="cls-11" d="M200.06,18.86c2.53.31,2.05,2.03,1.2,1.55-.19-.53-.79-1.12-1.31-1.44l.11-.11ZM203.57,18.28c-.54,1.52-1.57,4.38-1.74,4.95-.11.38-.19.76-.19,1.06.01.52.35,1.08.3,2.05-.02.52-.25.83-.66.83-.21,0-.35-.23-.37-.6.14-1.22.1-2.15-.18-2.33-.16-.12-.34-.16-.6-.17v-.26h.55c.14,0,.18-.01.3-.24q.2-.44,2.36-5.35l.23.06ZM201.05,16.36c2.61.38,2.13,2.16,1.26,1.68-.19-.55-.84-1.22-1.37-1.56l.11-.12ZM202.76,26.23c.64-.24,2.17-.92,3.68-1.65l.07.16c-.65.5-1.59,1.25-2.88,2.13-.01.16-.1.28-.2.34l-.67-.97ZM210.04,19.9s.67.53,1.08.91c-.04.13-.16.19-.31.19h-7.86l-.1-.35h1.56v-3.41l1.16.13c-.02.16-.14.28-.42.31v2.96h1.62v-4.33l1.16.13c-.01.16-.13.28-.42.32v1.51h1.6l.56-.71s.63.49,1.02.88c-.04.13-.16.19-.32.19h-2.86v2h1.93l.59-.76ZM203.74,21.65c3.09.73,2.63,2.7,1.69,2.15-.26-.71-1.13-1.57-1.81-2.04l.12-.11ZM207.61,24.53c3.91.91,3.67,3.09,2.6,2.61-.47-.84-1.75-1.91-2.71-2.48l.11-.13ZM210.56,22.21c-.08.11-.25.18-.52.1-.73.65-1.62,1.27-2.36,1.63l-.14-.14c.56-.53,1.32-1.44,1.92-2.34l1.1.76Z"/>
        <path class="cls-11" d="M215.48,16.91c-.04.17-.12.29-.42.34v3.69c-.01,2.33-.41,4.73-2.33,6.26l-.17-.14c1.44-1.62,1.73-3.86,1.73-6.12v-4.15l1.19.12ZM219.03,17.35c-.02.17-.12.29-.43.34v8.01c0,.1-.32.28-.62.28h-.14v-8.75l1.2.13ZM222.83,16.9c-.04.17-.12.29-.42.34v9.64c0,.11-.34.31-.64.31h-.16v-10.42l1.21.13Z"/>
      </g>
      <path class="cls-9" d="M161.75,173.42v-11.6h2.8c.88,0,1.63.1,2.25.31.62.21,1.09.54,1.41,1,.32.46.49,1.08.49,1.85s-.16,1.36-.48,1.85c-.32.49-.78.86-1.39,1.1-.61.25-1.35.37-2.22.37h-2.27v5.11h-.59ZM162.34,167.78h2.06c1.24,0,2.15-.22,2.76-.65.6-.43.9-1.15.9-2.15s-.31-1.7-.92-2.08c-.61-.37-1.55-.56-2.8-.56h-2v5.43Z"/>
    </g>
  </g>
</svg>