<?xml version="1.0" encoding="UTF-8"?>
<svg id="_レイヤー_2" data-name="レイヤー 2" xmlns="http://www.w3.org/2000/svg" viewBox="0 0 588.6 312.9">
  <defs>
    <style>
      .cls-1 {
        fill: #fff;
      }

      .cls-2 {
        fill: #f94e57;
      }

      .cls-3 {
        fill: #484947;
      }

      .cls-4 {
        fill: #e84e55;
      }
    </style>
  </defs>
  <g id="_レイヤー_1-2" data-name="レイヤー 1">
    <g>
      <g>
        <g>
          <g>
            <path class="cls-2" d="M12.14,309.33v2.44H.1v-1.87c1.56-1.61,3.07-3.22,4.34-4.52,2.91-3.07,4.08-5.12,4.08-7.51s-1.33-3.9-3.46-3.9c-.39,0-.88.05-1.4.16l-.6,2.21c-.31,1.4-.88,1.85-1.64,1.85-.62,0-1.12-.34-1.43-.91.34-2.89,2.96-4.37,5.95-4.37,3.74,0,5.49,2.03,5.49,4.94,0,2.5-1.59,4.58-6.08,8.45-.81.73-2,1.85-3.33,3.04h10.11Z"/>
            <path class="cls-2" d="M28.13,302.57c0,6.94-2.99,9.59-6.14,9.59s-6.16-2.65-6.16-9.59,2.96-9.67,6.16-9.67,6.14,2.73,6.14,9.67ZM22,311.13c1.69,0,3.28-1.82,3.28-8.55s-1.59-8.61-3.28-8.61-3.3,1.82-3.3,8.61,1.53,8.55,3.3,8.55Z"/>
            <path class="cls-2" d="M44.07,309.33v2.44h-12.04v-1.87c1.56-1.61,3.07-3.22,4.34-4.52,2.91-3.07,4.08-5.12,4.08-7.51s-1.33-3.9-3.46-3.9c-.39,0-.88.05-1.4.16l-.6,2.21c-.31,1.4-.88,1.85-1.64,1.85-.62,0-1.12-.34-1.43-.91.34-2.89,2.96-4.37,5.95-4.37,3.74,0,5.49,2.03,5.49,4.94,0,2.5-1.59,4.58-6.08,8.45-.81.73-2,1.85-3.33,3.04h10.11Z"/>
            <path class="cls-2" d="M50.57,300.78c.99-.31,1.95-.44,3.07-.44,3.87,0,6.42,2.05,6.42,5.72s-2.78,6.11-6.89,6.11c-3.07,0-5.02-1.46-5.49-4.11.23-.65.78-.96,1.4-.96.86,0,1.3.47,1.61,1.85l.44,1.95c.55.16,1.07.23,1.69.23,2.73,0,4.32-1.82,4.32-4.73s-1.66-4.58-4.29-4.58c-.99,0-1.92.1-2.83.39l-.75-.29.6-8.63h9.62v2.44h-8.58l-.34,5.04Z"/>
          </g>
          <g>
            <path class="cls-2" d="M75.09,290.8c1.37-.43,2.7-.61,4.25-.61,5.36,0,8.89,2.84,8.89,7.92s-3.85,8.46-9.54,8.46c-4.25,0-6.95-2.02-7.6-5.69.32-.9,1.08-1.33,1.94-1.33,1.19,0,1.8.65,2.23,2.56l.61,2.7c.76.22,1.48.32,2.34.32,3.78,0,5.98-2.52,5.98-6.55s-2.3-6.34-5.94-6.34c-1.37,0-2.66.14-3.92.54l-1.04-.4.83-11.95h13.32v3.38h-11.88l-.47,6.98Z"/>
            <path class="cls-2" d="M102.59,277.77h2.3l-10.62,34.63h-2.34l10.65-34.63Z"/>
          </g>
          <g>
            <path class="cls-2" d="M178.07,302.57c3.11,1.26,4.26,2.56,4.26,4.77,0,2.71-2.2,4.45-5.61,4.45-1.74,0-3.44-.55-4.56-1.24l.13-3.34h1.15l.71,3.07c.73.38,1.41.52,2.37.52,2.18,0,3.59-1.01,3.59-2.83,0-1.47-.78-2.23-2.77-3l-.9-.4c-2.5-1.05-4.03-2.39-4.03-4.72,0-2.73,2.25-4.28,5.27-4.28,1.57,0,2.81.46,3.86,1.22l-.13,3.11h-1.18l-.71-2.94c-.55-.29-1.09-.4-1.76-.4-1.87,0-3.17.9-3.17,2.65,0,1.47.9,2.31,2.52,2.96l.94.42Z"/>
            <path class="cls-2" d="M199.49,310.66v.76h-6.45v-.76l2.16-.25-1.34-4.07h-5.21l-1.3,4.05,2.18.27v.76h-5.04v-.76l1.85-.27,4.83-14.53h1.55l4.96,14.59,1.81.21ZM193.59,305.47l-2.37-7.18-2.29,7.18h4.66Z"/>
            <path class="cls-2" d="M209.13,296.86c-.04,2.06-.04,4.14-.04,6.28v1.07c0,2.06,0,4.14.04,6.21l2.31.23v.76h-7.16v-.76l2.31-.23c.06-2.04.06-4.12.06-6.21v-1.07c0-2.08,0-4.18-.06-6.28h-3.44l-.78,3.28h-1.13l.17-4.2h12.91l.17,4.2h-1.13l-.78-3.28h-3.44Z"/>
          </g>
          <g>
            <path class="cls-2" d="M311.43,302.57c3.11,1.26,4.26,2.56,4.26,4.77,0,2.71-2.2,4.45-5.61,4.45-1.74,0-3.44-.55-4.56-1.24l.13-3.34h1.15l.71,3.07c.73.38,1.41.52,2.37.52,2.18,0,3.59-1.01,3.59-2.83,0-1.47-.78-2.23-2.77-3l-.9-.4c-2.5-1.05-4.03-2.39-4.03-4.72,0-2.73,2.25-4.28,5.27-4.28,1.57,0,2.81.46,3.86,1.22l-.13,3.11h-1.18l-.71-2.94c-.55-.29-1.09-.4-1.76-.4-1.87,0-3.17.9-3.17,2.65,0,1.47.9,2.31,2.52,2.96l.94.42Z"/>
            <path class="cls-2" d="M333.83,296.7l-2.08.29-.04,8.1c-.02,4.72-2.16,6.7-5.5,6.7s-5.73-1.78-5.73-6.32v-2.39c0-2.04,0-4.12-.06-6.17l-1.89-.21v-.76h6.68v.76l-2.25.25c-.04,2.02-.04,4.05-.04,6.13v1.91c0,3.95,1.43,5.27,3.84,5.27,2.65,0,4.01-1.53,3.99-5.56l-.04-7.68-2.41-.31v-.76h5.54v.76Z"/>
            <path class="cls-2" d="M351.79,296.7l-1.93.29-.06,14.55h-1.09l-9.34-12.98.06,11.78,2.56.31v.76h-5.54v-.76l1.93-.29.08-13.08-.29-.38-1.62-.21v-.76h3.93l8.4,11.67-.04-10.6-2.58-.31v-.76h5.54v.76Z"/>
          </g>
          <path class="cls-2" d="M230.4,300.16c-1.82,0-3.3-1.47-3.3-3.3s1.47-3.3,3.3-3.3,3.3,1.47,3.3,3.3-1.47,3.3-3.3,3.3Z"/>
          <g>
            <path class="cls-2" d="M132.25,310.17v1.86h-24.01v-1.86l8.93-1.16c.06-3.48.12-7.02.12-10.44v-23.61l-8.12.87v-2.2l13.69-3.36.81.64-.17,9.16v18.5c0,3.42.06,6.9.12,10.44l8.64,1.16Z"/>
            <path class="cls-2" d="M166.24,291.5c0,15.49-6.67,21.4-13.69,21.4s-13.75-5.92-13.75-21.4,6.61-21.58,13.75-21.58,13.69,6.09,13.69,21.58ZM152.55,310.58c3.77,0,7.31-4.06,7.31-19.08s-3.54-19.2-7.31-19.2-7.37,4.06-7.37,19.2,3.42,19.08,7.37,19.08Z"/>
          </g>
          <g>
            <path class="cls-2" d="M265.83,310.17v1.86h-24.01v-1.86l8.93-1.16c.06-3.48.12-7.02.12-10.44v-23.61l-8.12.87v-2.2l13.69-3.36.81.64-.17,9.16v18.5c0,3.42.06,6.9.12,10.44l8.64,1.16Z"/>
            <path class="cls-2" d="M298.54,310.17v1.86h-24.01v-1.86l8.93-1.16c.06-3.48.12-7.02.12-10.44v-23.61l-8.12.87v-2.2l13.69-3.36.81.64-.17,9.16v18.5c0,3.42.06,6.9.12,10.44l8.64,1.16Z"/>
          </g>
        </g>
        <g>
          <g>
            <path class="cls-3" d="M101.23,150.13v12.48h1.68l3-4.44s3.48,3.06,5.46,5.16c-.18.66-.78.96-1.62.96h-53.28l-.48-1.68h8.88v-12.48h-8.88l-.54-1.74h9.42v-9.3c-2.7,2.4-5.52,4.38-8.4,5.94l-.66-.66c4.2-4.38,8.94-11.7,11.88-19.32l7.92,3.3c-.3.6-1.02,1.08-2.4.9-1.08,1.74-2.28,3.36-3.54,4.86l.54.24h30.3l3.3-4.44s3.78,3.06,5.94,5.22c-.18.66-.72.96-1.56.96h-6.96v12.3h1.74l3.12-4.2s3.54,2.88,5.64,4.98c-.12.66-.72.96-1.56.96h-8.94ZM66.55,166.21c1.8,7.62-1.44,12.36-4.68,13.92-2.04,1.14-4.62.84-5.34-.96-.6-1.74.6-3.18,2.1-4.02,3.12-1.14,6.66-4.5,7.08-9l.84.06ZM69.85,148.39h5.1v-12.3h-5.1v12.3ZM69.85,162.61h5.1v-12.48h-5.1v12.48ZM74.05,166.81c10.86,7.74,4.8,17.1.72,12.24.48-3.9-.36-8.64-1.5-12l.78-.24ZM79.99,136.09v12.3h5.52v-12.3h-5.52ZM79.99,150.13v12.48h5.52v-12.48h-5.52ZM84.73,166.75c14.28,6.06,9.42,16.68,4.5,12.48-.3-4.08-2.82-8.94-5.16-12.12l.66-.36ZM90.61,136.09v12.3h5.46v-12.3h-5.46ZM96.07,150.13h-5.46v12.48h5.46v-12.48ZM96.31,166.03c19.02,4.98,15.42,17.88,9.36,14.1-1.38-4.68-6-10.26-9.96-13.62l.6-.48Z"/>
            <path class="cls-3" d="M140.89,153.61c15.18,3.48,11.04,14.04,5.88,10.38-.66-3.24-3.36-7.02-5.88-9.48v24.42c0,.66-2.28,1.92-4.26,1.92h-1.02v-21.24c-2.7,4.62-6.3,8.7-10.56,12.12l-.72-.72c4.38-5.7,7.56-13.44,9.36-21h-8.82l-.48-1.74h11.22v-23.04l7.5.78c-.18.9-.6,1.5-2.22,1.74v20.52h3.06l2.94-3.84s3.48,2.64,5.58,4.62c-.12.66-.72.96-1.56.96h-10.02v3.6ZM125.83,130.33c11.76,7.26,6.54,16.62,2.28,12.36,0-4.02-1.5-8.7-3-12.06l.72-.3ZM142.63,143.83c.9-3.48,2.04-9,3-13.68l7.02,2.22c-.18.66-.9,1.2-2.16,1.26-2.1,3.6-4.62,7.74-6.9,10.62l-.96-.42ZM175.99,155.95s3.48,2.34,5.7,3.96c0,.66-.54,1.14-1.26,1.26l-7.68,1.56v16.08c0,.66-2.4,1.98-4.44,1.98h-1.08v-16.86l-16.38,3.36-.84-1.56,17.22-3.6v-36.9l7.68.78c-.12.84-.6,1.5-2.16,1.74v33.24l.78-.18,2.46-4.86ZM152.47,144.85c15.42,2.16,11.88,13.02,6.54,9.66-.96-3.24-4.2-7.08-7.08-9.12l.54-.54ZM153.67,130.63c15.12,3,11.04,13.5,5.88,9.9-.78-3.24-3.78-7.14-6.36-9.48l.48-.42Z"/>
            <path class="cls-3" d="M249.97,157.15c-.3.48-1.2.9-2.4.48-1.98,1.5-6,4.02-9.54,5.76,3.12,5.16,7.32,9.18,12.54,11.28l-.06.66c-2.1.54-3.78,2.46-4.5,5.28-8.34-5.7-12.06-15.12-13.86-29.1h-3.9v20.46c2.7-.6,5.58-1.26,8.46-1.98l.18.84c-3.36,1.92-8.28,4.8-15.42,8.46-.18.72-.66,1.2-1.26,1.44l-3.84-6.18c1.56-.3,3.9-.78,6.72-1.38v-21.66h-3.54c-.48,9.78-2.58,20.94-11.76,28.8l-.78-.48c6.54-10.08,7.26-22.68,7.26-34.2v-5.1c-.3.18-.66.3-1.14.3h-6.48v10.74c2.28-.72,4.68-1.44,7.08-2.16l.24.78c-1.98,1.26-4.38,2.82-7.32,4.62v19.02c0,4.14-.78,6.42-7.2,7.08-.12-1.74-.42-3.12-1.14-3.96-.78-.96-1.98-1.56-4.38-1.92v-.9s4.98.36,6.06.36c.96,0,1.2-.3,1.2-1.08v-15.36c-1.44.78-2.94,1.62-4.5,2.52-.24.78-.72,1.38-1.38,1.62l-2.58-6.78c1.68-.36,4.74-1.2,8.46-2.28v-12.3h-7.08l-.48-1.74h7.56v-13.98l7.68.78c-.18.84-.78,1.44-2.22,1.68v11.52h.6l2.76-4.26s2.52,2.52,4.26,4.56v-11.64l6.36,2.4h19.62l3.3-4.26s3.66,2.94,5.94,5.04c-.18.66-.78.96-1.62.96h-28.2v13.68c0,1.38,0,2.76-.06,4.2h21.12l3.24-4.26s3.66,2.94,5.94,5.04c-.18.66-.78.96-1.62.96h-15c.96,3.9,2.34,7.62,4.14,10.86,2.4-3,5.22-7.26,6.48-9.6l6.06,4.38ZM237.79,139.99l3.06-4.08s3.54,2.82,5.7,4.86c-.18.66-.78.96-1.62.96h-21.96l-.48-1.74h15.3Z"/>
            <path class="cls-3" d="M318.13,139.27c-.42.54-1.14.96-2.46,1.2v38.34c0,.36-1.98,1.56-4.62,1.56h-.9v-4.38h-18.36v3.18c0,.42-1.62,1.56-4.38,1.56h-.9v-31.8c-.42.24-1.02.36-1.86.18-1.32,1.14-2.7,2.34-4.02,3.3,7.5,4.62,3.9,10.74,0,7.8-.6-2.58-2.58-5.7-4.5-8.16v27.06c0,.42-1.74,1.68-4.26,1.68h-.9v-24.84c-2.52,2.28-5.34,4.38-8.4,6.12l-.66-.78c6.48-5.7,12.36-14.52,15.3-22.32h-13.74l-.54-1.62h8.1v-12.18l7.44.66c-.12.84-.66,1.44-2.22,1.68v9.84h1.32l3.18-3.06,4.74,4.5c-.42.6-1.02.78-2.46.84-1.62,3.6-3.9,7.26-6.78,10.74,1.08.36,1.98.78,2.82,1.2,1.02-1.62,2.22-3.66,3.3-5.7l4.14,2.34v-12.36l6,2.34h5.76v-12.78l7.2.72c-.12.84-.54,1.38-1.92,1.56v10.5h6.24l2.88-3.3,5.46,4.38ZM291.79,139.93v15.72h6.48v-15.72h-6.48ZM291.79,174.25h6.48v-16.86h-6.48v16.86ZM303.55,139.93v15.72h6.6v-15.72h-6.6ZM310.15,174.25v-16.86h-6.6v16.86h6.6Z"/>
            <path class="cls-3" d="M351.37,135.49s3.3,2.88,5.16,4.92c-.18.66-.78.96-1.62.96h-7.98v5.34c13.8,4.92,9.24,14.22,4.62,10.44-.54-2.94-2.64-6.54-4.62-9.18v31.14c0,.6-2.4,1.74-4.44,1.74h-1.14v-26.52c-2.52,4.8-5.76,9.12-9.66,12.84l-.78-.72c4.56-6.84,7.74-16.14,9.54-25.08h-7.86l-.48-1.74h9.24v-14.4l7.74.84c-.12.9-.6,1.44-2.16,1.68v11.88h1.62l2.82-4.14ZM386.83,131.59c-.42.54-1.32,1.02-2.46,1.26v45.48c-.06.48-2.76,1.92-4.92,1.92h-.84v-5.58h-15.36v3.66c0,.78-2.16,2.16-4.68,2.16h-.96v-52.92l5.94,2.58h14.46l2.94-3.24,5.88,4.68ZM363.25,131.83v12.3h15.36v-12.3h-15.36ZM363.25,145.87v12.42h15.36v-12.42h-15.36ZM378.61,172.93v-12.9h-15.36v12.9h15.36Z"/>
            <path class="cls-3" d="M418.69,133.27s3.24,2.64,5.28,4.44c-.18.66-.78.96-1.62.96h-21.54l-.48-1.68h15.48l2.88-3.72ZM403.63,131.11l-.48-1.74h10.14l2.94-3.66s3.24,2.64,5.22,4.44c-.18.66-.78.96-1.56.96h-16.26ZM416.59,141.19s3.12,2.52,4.92,4.32c-.12.6-.72.9-1.56.9h-16.32l-.48-1.68h10.68l2.76-3.54ZM416.59,148.93s3.12,2.52,4.92,4.32c-.12.66-.72.96-1.56.96h-16.32l-.48-1.74h10.68l2.76-3.54ZM420.31,176.83c0,.42-2.52,1.62-4.26,1.62h-.84v-2.94h-6.9v3.48c0,.48-2.22,1.62-4.44,1.62h-.72v-22.92l5.4,2.28h6.06l2.58-2.82,5.52,4.26c-.42.42-1.2.9-2.4,1.14v14.28ZM415.21,173.77v-12.06h-6.9v12.06h6.9ZM456.19,157.69c-.18.54-.96,1.08-2.22.84-1.92,2.1-5.58,5.46-8.94,8.1,2.4,3.84,6.12,6.54,11.88,8.4l-.06.72c-2.76.6-4.2,2.1-4.62,5.28-7.62-3.6-10.38-11.04-11.46-21.36-1.02,9.24-4.5,16.38-19.98,21.18l-.54-.96c15.78-6.9,15.36-16.68,15.42-30.6l7.5.66c-.12.84-.66,1.38-1.98,1.56.36,5.76,1.26,10.38,3.24,14.04,1.68-3.78,3.6-8.76,4.38-11.34l7.38,3.48ZM422.35,152.65c14.04-6.48,13.8-15.3,13.86-26.94l7.32.66c-.12.78-.66,1.38-1.92,1.56-.18,4.44-.36,8.52-1.62,12.24,1.26.24,2.46.54,3.6.9,1.74-3.48,3.96-8.76,4.86-11.46l6.96,3.42c-.24.48-1.02,1.02-2.22.78-1.86,1.98-5.52,5.1-8.7,7.56,13.92,4.56,11.76,13.2,6.48,10.92-2.22-3.48-7.32-8.04-11.46-10.98-2.16,4.98-6.66,9.12-16.5,12.24l-.66-.9ZM430.57,154.57c2.04,6.24.18,10.62-2.16,12.18-1.56,1.08-3.96.96-4.68-.78-.6-1.56.42-3,1.86-3.78,2.04-1.2,4.08-4.32,4.02-7.62h.96ZM430.87,129.97c1.56,5.52.12,9.54-1.86,11.16-1.26,1.08-3.66,1.02-4.38-.54-.6-1.5.3-2.88,1.68-3.72,1.68-1.14,3.54-4.14,3.54-6.96l1.02.06Z"/>
            <path class="cls-3" d="M503.17,127.09c-.18.78-.96,1.14-2.76,1.26,5.4,7.02,16.08,12.54,25.5,15.3l-.06.9c-2.7.72-4.44,3.24-4.92,5.58-9.42-4.32-17.7-12.24-21.54-21.12-5.46,8.58-17.76,17.64-29.64,22.14l-.42-.78c10.38-5.76,21.6-17.4,24.3-25.68l9.54,2.4ZM516.37,152.23s4.2,3.06,6.66,5.28c-.12.66-.72.96-1.62.96h-24.96c-2.82,4.8-6.6,10.38-9.96,14.52,6.78-.36,15.18-.84,24.06-1.38-2.16-3.24-4.8-6.3-7.2-8.7l.6-.36c21.84,7.5,17.52,22.14,10.62,17.34-.6-2.16-1.68-4.56-3.12-6.9-7.68,1.74-17.94,3.72-32.46,6.24-.36.66-1.02,1.08-1.68,1.2l-3.54-6.96c2.4-.06,5.82-.18,10.02-.36,1.86-4.32,3.9-10.2,5.1-14.64h-15.9l-.54-1.74h40.26l3.66-4.5ZM505.99,141.85s3.9,2.94,6.36,5.04c-.18.66-.78.96-1.62.96h-27.6l-.48-1.74h19.92l3.42-4.26Z"/>
          </g>
          <g>
            <g>
              <path class="cls-3" d="M276.97,43.1c5.32,0,8.23,2.49,8.23,6.16,0,2.73-1.75,5.15-5.99,6.06,5.11.67,7.28,3.19,7.28,6.37,0,3.54-2.83,6.93-9.77,6.93h-10.29v-1.26l3.64-.39c.1-3.36.1-6.76.1-10.19v-1.93c0-3.36,0-6.79-.1-10.15l-3.64-.39v-1.23h10.54ZM273.19,44.53c-.11,3.29-.11,6.65-.11,10.15h2.21c4.76,0,6.97-1.75,6.97-5.32s-1.96-4.83-6.23-4.83h-2.83ZM276.02,67.18c4.87,0,7.35-1.96,7.35-5.5s-2.38-5.6-7.84-5.6h-2.45c0,4.1,0,7.67.11,11.1h2.83Z"/>
              <path class="cls-3" d="M300.31,44.71c-.11,3.33-.11,6.72-.11,10.19v1.93c0,3.36,0,6.79.11,10.15l3.64.39v1.26h-10.4v-1.26l3.64-.39c.1-3.33.1-6.72.1-10.15v-1.93c0-3.4,0-6.83-.1-10.19l-3.64-.39v-1.23h10.4v1.23l-3.64.39Z"/>
              <path class="cls-3" d="M334.12,67.35v1.26h-10.12v-1.26l3.85-.39-2.31-6.97h-9l-2.27,6.9,3.67.46v1.26h-8.4v-1.26l3.15-.42,8.09-24.08h1.96l8.23,24.15,3.15.35ZM325.06,58.57l-4.03-12.11-3.99,12.11h8.02Z"/>
              <path class="cls-3" d="M364.36,44.32l-3.25.45-.04,24.12h-1.16l-15.58-21.6.04,19.6,4.06.46v1.26h-9v-1.26l3.29-.42.03-21.84-.31-.46-2.87-.35v-1.19h5.46l14.49,20.27-.04-18.55-4.1-.49v-1.23h8.96v1.23Z"/>
              <path class="cls-3" d="M391.8,61.75l-.11,5.53c-2.38,1.37-4.9,1.89-7.6,1.89-7.63,0-12.81-5.5-12.81-13.34s5.43-13.34,12.81-13.34c2.28,0,4.76.42,7.25,1.89l.14,5.5h-1.92l-.84-4.73c-1.44-.77-2.84-1.09-4.24-1.09-5.57,0-9.77,4.27-9.77,11.76s3.96,11.76,9.52,11.76c1.61,0,3.25-.31,4.83-1.09l.84-4.76h1.89Z"/>
              <path class="cls-3" d="M421.87,67.35v1.26h-10.12v-1.26l3.85-.39-2.31-6.97h-9l-2.27,6.9,3.67.46v1.26h-8.4v-1.26l3.15-.42,8.09-24.08h1.96l8.23,24.15,3.15.35ZM412.8,58.57l-4.03-12.11-3.99,12.11h8.02Z"/>
            </g>
            <path class="cls-3" d="M237.18,63.67l-.5-.5,4.4-4.4-4.4-4.4.5-.5,4.4,4.4,4.4-4.4.5.5-4.4,4.4,4.4,4.4-.5.5-4.4-4.4-4.4,4.4Z"/>
            <g>
              <path class="cls-3" d="M174.92,44.71c-.11,3.33-.11,6.72-.11,10.19v1.93c0,3.36,0,6.79.11,10.15l3.64.39v1.26h-10.4v-1.26l3.64-.39c.1-3.33.1-6.72.1-10.15v-1.93c0-3.4,0-6.83-.1-10.19l-3.64-.39v-1.23h10.4v1.23l-3.64.39Z"/>
              <path class="cls-3" d="M188.57,50.52c.25-4.1.98-6.48,2.66-8.23,1.54-1.72,3.43-2.28,5.08-2.28s3.08.6,3.46,1.86c-.07.84-.77,1.47-1.96,1.47-.91,0-1.72-.39-2.62-1.09l-1.02-.81c-.63.32-1.22.84-1.65,1.54-.94,1.4-1.5,3.54-1.4,7.63h5.5v1.61h-5.43v8.4c0,2.14.04,4.27.07,6.41l3.57.46v1.12h-9.63v-1.12l3.26-.46c.03-2.14.07-4.27.07-6.41v-8.4h-3.36v-1.3l3.4-.42Z"/>
              <path class="cls-3" d="M222.55,67.49v1.12h-8.54v-1.12l2.98-.42c.04-1.96.07-4.62.07-6.44v-3.5c0-3.64-1.09-4.83-3.36-4.83-1.75,0-3.54.63-5.81,2.8v5.53c0,1.79.03,4.48.07,6.44l2.77.42v1.12h-8.58v-1.12l3.01-.46c.04-1.93.07-4.62.07-6.41v-17.43l-3.18-.28v-1.09l5.36-1.47.52.32-.14,5.39v7.74c2.03-2.24,4.69-3.68,7.11-3.68,3.19,0,4.8,1.89,4.8,6.86v3.64c0,1.82.04,4.48.07,6.41l2.8.46Z"/>
            </g>
          </g>
          <g>
            <path class="cls-3" d="M201.53,2.32c-.06,1.8-.06,3.67-.06,5.57v1.04c0,1.82,0,3.69.06,5.51l2.18.21v.68h-6.06v-.68l2.2-.21c.04-1.8.04-3.65.04-5.51v-1.04c0-1.86,0-3.74-.04-5.57h-3.48l-.53,2.77h-.95l.15-3.61h11.25l.19,3.61h-.95l-.53-2.77h-3.48Z"/>
            <path class="cls-3" d="M209.76,10.49c0-3.46,2.32-5.19,4.67-5.19s4.65,1.73,4.65,5.19-2.32,5.11-4.65,5.11-4.67-1.67-4.67-5.11ZM217.49,10.49c0-2.83-1.16-4.43-3.06-4.43s-3.06,1.6-3.06,4.43,1.14,4.35,3.06,4.35,3.06-1.5,3.06-4.35Z"/>
            <path class="cls-3" d="M228.55,14.65c-.53.61-1.31.95-2.28.95-1.44,0-2.24-.78-2.24-2.39,0-.47.02-.91.02-1.65v-5.11h-1.86v-.7l1.94-.23.46-2.81h1.04l-.11,2.87h2.85v.87h-2.87v6.69c0,1.12.46,1.6,1.23,1.6.49,0,.91-.17,1.44-.55l.38.47Z"/>
            <path class="cls-3" d="M240.88,14.61c-.46.68-.99.95-1.65.95-.97,0-1.58-.65-1.75-1.69-1.16,1.18-1.92,1.73-3.15,1.73-1.52,0-2.74-.87-2.74-2.51,0-1.27.74-2.2,3.32-3.13.74-.23,1.65-.49,2.53-.68v-.61c0-2.09-.63-2.6-2.07-2.6-.4,0-.84.04-1.33.21l-.42,1.41c-.15.55-.44.84-.93.84s-.8-.27-.84-.72c.4-1.56,1.88-2.49,3.89-2.49s3.13.95,3.13,3.42v4.5c0,1.1.3,1.44.82,1.44.34,0,.57-.15.85-.46l.32.4ZM237.44,9.88c-.78.21-1.61.47-2.13.68-1.84.7-2.18,1.5-2.18,2.26,0,1.14.72,1.65,1.75,1.65.8,0,1.35-.34,2.56-1.31v-3.29Z"/>
            <path class="cls-3" d="M248.56,14.72v.61h-5v-.61l1.77-.25c.02-1.12.04-2.36.04-3.48V1.54l-1.73-.15v-.59l2.95-.8.28.17-.06,2.93v7.9c0,1.12.02,2.36.04,3.48l1.71.25Z"/>
            <path class="cls-3" d="M261.61,6.88c1.01-1.12,2.13-1.58,3.23-1.58,2.26,0,3.95,1.92,3.95,5.03s-1.73,5.26-4.2,5.26c-.97,0-2.01-.34-2.96-1.5l-.15,1.42-2.93-.19v-.61l1.63-.25c.02-1.04.04-2.51.04-3.48V1.56l-1.73-.17v-.59l2.91-.8.29.17-.08,2.93v3.78ZM261.67,13.41c.89.87,1.8,1.22,2.64,1.22,1.58,0,2.94-1.23,2.94-4.18,0-2.75-1.18-4.2-2.85-4.2-.72,0-1.56.19-2.74,1.27v5.89Z"/>
            <path class="cls-3" d="M274.17,10.33c.02,2.81,1.5,4.2,3.51,4.2,1.35,0,2.24-.59,2.98-1.48l.4.3c-.78,1.37-2.09,2.24-3.86,2.24-2.66,0-4.58-1.84-4.58-5.09s2.15-5.21,4.65-5.21c2.2,0,3.8,1.5,3.8,3.88,0,.49-.04.89-.13,1.18l-6.78-.02ZM278.64,9.61c.84,0,1.03-.42,1.03-1.03,0-1.33-1.01-2.53-2.47-2.53-1.39,0-2.77,1.14-3,3.55h4.45Z"/>
            <path class="cls-3" d="M294.27,14.61c-.46.68-.99.95-1.65.95-.97,0-1.58-.65-1.75-1.69-1.16,1.18-1.92,1.73-3.15,1.73-1.52,0-2.74-.87-2.74-2.51,0-1.27.74-2.2,3.32-3.13.74-.23,1.65-.49,2.53-.68v-.61c0-2.09-.63-2.6-2.07-2.6-.4,0-.84.04-1.33.21l-.42,1.41c-.15.55-.44.84-.93.84s-.8-.27-.84-.72c.4-1.56,1.88-2.49,3.89-2.49s3.13.95,3.13,3.42v4.5c0,1.1.3,1.44.82,1.44.34,0,.57-.15.85-.46l.32.4ZM290.83,9.88c-.78.21-1.61.47-2.13.68-1.84.7-2.18,1.5-2.18,2.26,0,1.14.72,1.65,1.75,1.65.8,0,1.35-.34,2.56-1.31v-3.29Z"/>
            <path class="cls-3" d="M307.72,14.72v.61l-2.7.17-.15-1.9c-1.06,1.31-2.38,1.99-3.71,1.99-1.71,0-2.72-.97-2.7-3.76l.06-5.28-1.58-.27v-.61l2.85-.25.19.21-.09,2.89v3.19c0,1.98.61,2.66,1.84,2.66,1.08,0,2.13-.51,3.1-1.52l.04-6.31-1.56-.27v-.61l2.81-.25.21.21-.08,2.89v5.97l1.46.23Z"/>
            <path class="cls-3" d="M317,14.65c-.53.61-1.31.95-2.28.95-1.44,0-2.24-.78-2.24-2.39,0-.47.02-.91.02-1.65v-5.11h-1.86v-.7l1.94-.23.46-2.81h1.04l-.11,2.87h2.85v.87h-2.87v6.69c0,1.12.46,1.6,1.23,1.6.49,0,.91-.17,1.44-.55l.38.47Z"/>
            <path class="cls-3" d="M329.53,6.16l-1.16.23-3.5,9.25c-1.31,3.48-2.6,4.88-4.14,4.88-.93,0-1.75-.47-1.77-1.2.11-.51.65-.76,1.2-.76s.93.23,1.42.7l.15.15c.97-.68,1.63-1.84,2.11-3.15l.17-.44-3.76-9.5-1.22-.17v-.59h4.71v.61l-1.82.21,2.79,7.56,2.7-7.54-1.86-.25v-.59h3.97v.59Z"/>
            <path class="cls-3" d="M343.48,9.8c2.01.74,2.77,1.65,2.77,2.93,0,1.5-1.31,2.87-3.89,2.87-1.14,0-2.03-.27-3.04-.74l-.08-2.22h.91l.42,1.84c.51.23,1.08.36,1.79.36,1.69,0,2.49-.7,2.49-1.73,0-.93-.59-1.41-1.98-1.92l-.95-.36c-1.52-.55-2.51-1.35-2.51-2.75,0-1.48,1.23-2.77,3.48-2.77,1.1,0,1.94.28,2.85.82l-.08,2.05h-.84l-.34-1.69c-.51-.29-1.04-.42-1.6-.42-1.39,0-2.09.65-2.09,1.58s.53,1.37,1.94,1.9l.74.27Z"/>
            <path class="cls-3" d="M359.33,14.61c-.46.68-.99.95-1.65.95-.97,0-1.58-.65-1.75-1.69-1.16,1.18-1.92,1.73-3.15,1.73-1.52,0-2.74-.87-2.74-2.51,0-1.27.74-2.2,3.32-3.13.74-.23,1.65-.49,2.53-.68v-.61c0-2.09-.63-2.6-2.07-2.6-.4,0-.84.04-1.33.21l-.42,1.41c-.15.55-.44.84-.93.84s-.8-.27-.84-.72c.4-1.56,1.88-2.49,3.89-2.49s3.13.95,3.13,3.42v4.5c0,1.1.3,1.44.82,1.44.34,0,.57-.15.85-.46l.32.4ZM355.89,9.88c-.78.21-1.61.47-2.13.68-1.84.7-2.18,1.5-2.18,2.26,0,1.14.72,1.65,1.75,1.65.8,0,1.35-.34,2.56-1.31v-3.29Z"/>
            <path class="cls-3" d="M367,14.72v.61h-5v-.61l1.77-.25c.02-1.12.04-2.36.04-3.48V1.54l-1.73-.15v-.59l2.95-.8.28.17-.06,2.93v7.9c0,1.12.02,2.36.04,3.48l1.71.25Z"/>
            <path class="cls-3" d="M370.46,10.49c0-3.46,2.32-5.19,4.67-5.19s4.65,1.73,4.65,5.19-2.32,5.11-4.65,5.11-4.67-1.67-4.67-5.11ZM378.19,10.49c0-2.83-1.16-4.43-3.06-4.43s-3.06,1.6-3.06,4.43,1.14,4.35,3.06,4.35,3.06-1.5,3.06-4.35Z"/>
            <path class="cls-3" d="M394.53,14.72v.61h-4.65v-.61l1.61-.23c.02-1.04.04-2.51.04-3.5v-1.9c0-1.98-.57-2.62-1.79-2.62-.93,0-1.9.4-3.12,1.52v3c0,.97.02,2.43.04,3.48l1.5.25v.61h-4.64v-.61l1.6-.23c.04-1.06.06-2.53.06-3.5v-1.04c0-1.2-.04-1.99-.08-2.89l-1.69-.13v-.61l2.74-1.01.27.19.15,1.75c1.1-1.22,2.53-1.96,3.8-1.96,1.73,0,2.6,1.04,2.6,3.72v1.98c0,.99.02,2.43.06,3.48l1.5.25Z"/>
          </g>
        </g>
      </g>
      <rect class="cls-4" x="362.76" y="272.87" width="225.84" height="39.76"/>
      <g>
        <path class="cls-1" d="M382.11,287.17c-.14.14-.38.19-.78.21-.59,1.04-1.71,2.88-2.5,3.87,1.83,1.23,2.5,2.73,2.5,4.02.02,1.57-.62,2.38-2.38,2.45,0-.4-.07-.86-.21-1.04-.14-.16-.48-.26-.9-.33v-.26h1.26c.19,0,.29-.02.45-.1.28-.16.45-.47.45-1.07,0-1.16-.43-2.42-1.6-3.62.45-1.05,1.05-2.97,1.45-4.28h-2.23v13.88c0,.1-.41.45-1.09.45h-.22v-15.46l1.54.64h1.93l.83-.81,1.5,1.47ZM391.17,294.58c-.12.16-.31.21-.69.09-1.02.76-2.28,1.42-3.31,1.79,1.1,1.62,2.66,2.76,4.56,3.49l-.03.17c-.59.09-1.05.5-1.29,1.14-2.83-1.62-4.38-4.12-5.04-8.34h-1.69v6.14c1-.22,2.07-.47,3.14-.72l.07.26c-1.33.66-3.12,1.47-5.56,2.38-.07.21-.24.36-.4.41l-.81-1.66c.52-.09,1.29-.22,2.21-.41v-13.44l1.57.66h4.35l.74-.83,1.57,1.23c-.1.14-.4.28-.76.36v6.02s-.07.07-.17.12l1.55,1.14ZM383.66,287.03v2.31h4.76v-2.31h-4.76ZM383.66,292.42h4.76v-2.57h-4.76v2.57ZM385.68,292.92c.28,1.23.73,2.31,1.29,3.23.79-.66,1.79-1.66,2.55-2.67-.24.12-.6.22-.88.22h-.22v-.78h-2.74Z"/>
        <path class="cls-1" d="M402.37,299.48c.86.12,1.85.16,2.97.16.98,0,3.28,0,4.38-.03v.24c-.5.1-.76.59-.79,1.16h-3.69c-4,0-6.2-.74-7.54-4.11-.76,1.73-1.97,3.35-3.92,4.47l-.17-.19c2.3-1.97,3.26-5.13,3.57-7.8l2.02.41c-.07.22-.26.36-.64.38-.17.76-.38,1.54-.69,2.3.74,1.47,1.73,2.28,3.11,2.71v-7.63h-5.11l-.14-.5h9.47l.88-1.04s.24.17.55.4c.24-.52.53-1.31.74-1.93h-11.06c.03,1.21-.47,2.02-1,2.38-.48.35-1.19.31-1.38-.17-.19-.41.09-.81.48-1.05.74-.4,1.43-1.43,1.36-2.61l.28-.02c.1.34.19.67.22.97h4.68v-2.59l2.04.21c-.03.24-.19.41-.62.47v1.92h4.95l.81-.85,1.48,1.43c-.14.12-.31.16-.66.19-.5.55-1.4,1.36-2.09,1.85.28.21.59.45.83.67-.03.19-.21.28-.45.28h-4.88v3.33h2.88l.86-1.1s1.02.76,1.62,1.33c-.05.19-.21.28-.45.28h-4.92v4.11Z"/>
        <path class="cls-1" d="M423.82,299.24v2.13h-11.3v-1.71c1.51-1.51,2.96-3.09,4.17-4.34,2.79-2.91,3.94-5.05,3.94-7.25s-1.31-3.74-3.36-3.74c-.4,0-.93.05-1.48.18l-.55,2.01c-.33,1.26-.8,1.73-1.51,1.73-.58,0-1.05-.3-1.33-.83.38-2.81,2.79-4.17,5.52-4.17,3.54,0,5.12,1.93,5.12,4.69,0,2.36-1.28,4.24-5.5,8.23-.78.75-1.96,1.88-3.21,3.06h9.49Z"/>
        <path class="cls-1" d="M438.41,300.52v.85h-10.14v-.85l3.92-.55c.02-1.46.05-2.94.05-4.39v-10.14l-3.66.35v-.95l5.65-1.46.38.28-.1,3.94v7.98c0,1.46.02,2.94.05,4.39l3.87.55Z"/>
        <path class="cls-1" d="M441.82,299.74c.54-1.24,1.02-3.09,1.24-4.85l1.79.47c-.07.22-.26.36-.62.36-.48,1.6-1.24,3.16-2.14,4.18l-.28-.16ZM446.56,290.99c3.45,1.78,2.26,4.35,1.07,3.3-.03-.4-.14-.85-.31-1.29-.36.1-.76.21-1.21.33v7.63c0,.1-.41.38-1.05.38h-.21v-7.7c-.6.16-1.28.31-2.02.48-.09.21-.26.33-.43.35l-.52-1.48c.41-.02,1.04-.05,1.78-.1,1.05-1.64,2.24-3.76,3-5.32l1.76.81c-.09.19-.33.31-.71.26-.83,1.17-2.17,2.85-3.43,4.21.86-.05,1.86-.14,2.9-.21-.24-.57-.55-1.1-.85-1.54l.22-.1ZM446.7,286.26c-.09.17-.31.31-.67.28-.62.83-1.36,1.73-2.05,2.42,1.26,1.05.48,2.33-.43,1.67-.17-.81-.97-1.83-1.6-2.42l.17-.14c.6.16,1.09.36,1.45.59.41-.9.88-2.09,1.28-3.19l1.86.79ZM446.79,294.85c3.19,2.04,1.88,4.49.76,3.4-.02-1.05-.53-2.42-.97-3.31l.21-.09ZM457.04,299.44s.74.72,1.17,1.23c-.03.17-.19.26-.43.26h-10.2l-.14-.48h2.09v-14.24l1.54.64h3.64l.79-.86,1.54,1.26c-.12.16-.43.29-.79.36v12.84h.12l.67-1ZM450.84,287.33v3.95h4.06v-3.95h-4.06ZM454.9,291.78h-4.06v3.97h4.06v-3.97ZM450.84,300.44h4.06v-4.18h-4.06v4.18Z"/>
      </g>
      <rect class="cls-1" x="463.65" y="281.41" width="115.34" height="23.22"/>
      <g>
        <path class="cls-4" d="M479.88,298.15c-.2.01-.25.03-.51.07-1.34.21-2.6.32-3.8.32-1.43,0-2.63-.17-3.35-.45-1.1-.44-1.67-1.17-1.67-2.19,0-.96.52-1.83,1.68-2.82l.86.65c-.9.75-1.33,1.38-1.33,2.03,0,.61.4,1.04,1.16,1.3.51.16,1.44.25,2.55.25,1.74,0,3.44-.23,4.26-.55l.13,1.38ZM471.44,288.39c.92.23,2.17.34,3.78.34,1.78,0,2.91-.08,3.71-.28l.07,1.13c-.88.37-2.19,1.17-3.61,2.2l-.86-.69c.92-.61,1.17-.76,1.74-1.09.16-.08.18-.1.37-.2l.27-.14c-.83.11-1.33.16-2.1.16-.93,0-2.13-.07-2.98-.18-.25-.03-.3-.03-.48-.04l.1-1.2ZM478.56,290.93c.66.79.99,1.27,1.48,2.19l-.83.47c-.44-.88-.89-1.58-1.47-2.23l.82-.42ZM480.17,290.16c.66.78.97,1.21,1.48,2.15l-.82.47c-.41-.82-.83-1.45-1.45-2.19l.79-.42Z"/>
        <path class="cls-4" d="M491.11,292.97c.72-1.1,1.13-1.89,1.58-3.12l1.06.4c-.44,1-.86,1.76-1.48,2.72h1.92c.85,0,1.23-.03,1.58-.1v1.17c-.45-.06-.92-.08-1.61-.08h-3.7c.85,1.06,1.09,1.33,1.78,1.91,1.14.97,2.31,1.69,3.71,2.27-.3.34-.48.59-.71,1.03-1.52-.78-2.48-1.43-3.46-2.33-.71-.65-1.19-1.21-1.96-2.3.04.72.06,1.13.06,1.47v2.37c0,.59.03.96.1,1.4h-1.26c.07-.42.1-.8.1-1.4v-2.36c0-.44.01-.69.04-1.45-.96,1.43-1.57,2.12-2.55,2.94-.76.62-1.61,1.19-2.48,1.67-.25-.45-.37-.61-.72-.99,1.41-.65,2.75-1.58,3.77-2.58.48-.47.76-.82,1.38-1.64h-3.43c-.58,0-1.03.03-1.57.08v-1.17c.47.07.88.1,1.57.1h3.99v-3.51h-3.32c-.56,0-1.03.03-1.52.08v-1.16c.49.07.92.1,1.57.1h3.27v-.45c0-.45-.01-.75-.08-1.14h1.21c-.06.37-.07.61-.07,1.16v.44h3.54c.82,0,1.24-.03,1.61-.1v1.16c-.42-.06-.88-.08-1.55-.08h-3.6v3.51h1.23ZM486.04,289.81c.58.92.8,1.35,1.34,2.57l-.96.47c-.42-1.12-.71-1.69-1.3-2.6l.92-.44Z"/>
        <path class="cls-4" d="M503.03,295.15c-.61.62-1.03.96-1.92,1.51-.18-.28-.35-.49-.56-.68-.68.35-1.76.88-2.5,1.19-.21.08-.41.18-.55.27l-.27-1.2c.56-.11.61-.11,1.76-.58v-4.25h-.55c-.45,0-.8.01-1.19.07v-1.1c.37.06.71.07,1.21.07h.52v-1.91c0-.68-.03-1.14-.08-1.55h1.21c-.06.44-.08.88-.08,1.57v1.89h.32c.52,0,.8-.01,1.1-.06v1.07c-.38-.04-.72-.06-1.1-.06h-.32v3.78c.44-.2.61-.3,1.09-.58v.89c1.03-.66,1.69-1.33,2.1-2.12h-.71c-.59,0-.99.03-1.28.08v-1.06c.3.06.66.08,1.3.08h6.08c.68,0,1.09-.03,1.41-.08v1.03c-.32-.04-.79-.06-1.41-.06h-4.32c-.2.35-.31.54-.58.92h4.62c.68,0,1-.01,1.4-.06q-.04.24-.14,1.57c-.06,1.02-.23,2.1-.41,2.72-.14.47-.4.78-.76.9-.23.08-.61.13-1.14.13-.23,0-.58-.01-1.13-.06-.06-.42-.13-.68-.34-1.07.65.1,1.19.16,1.59.16.48,0,.65-.07.76-.3.2-.45.38-1.71.47-3.15h-.83c-.37.86-.78,1.54-1.3,2.16-.42.49-1.23,1.26-1.76,1.67-.32.25-.59.44-1.17.78-.27-.38-.37-.49-.75-.78,1.17-.61,1.75-1.02,2.51-1.75.61-.61,1.09-1.3,1.44-2.07h-1.24c-.78,1.31-2.09,2.46-3.9,3.4-.17-.31-.35-.51-.68-.78,1.61-.71,2.79-1.61,3.49-2.63h-1.41ZM503.45,291.67c-.58,0-.95.01-1.3.06.04-.37.06-.75.06-1.31v-1.91c0-.62-.01-.83-.06-1.24.44.06.73.07,1.38.07h3.82c.66,0,1.06-.01,1.47-.07-.04.4-.06.66-.06,1.33v1.83c0,.62.01,1.02.06,1.28-.3-.03-.72-.04-1.28-.04h-4.09ZM503.23,289.11h4.53v-.9h-4.53v.9ZM503.23,290.86h4.53v-.95h-4.53v.95Z"/>
        <path class="cls-4" d="M512.69,290.83c-.17.9-.3,1.31-.59,2.12-.42-.25-.59-.34-.92-.45.32-.78.49-1.37.65-2.3.11-.64.18-1.31.18-1.79,0-.13,0-.21-.01-.4l1.06.16c-.03.18-.04.23-.06.47-.03.32-.08.71-.16,1.23h.89v-1.79c0-.47-.03-.8-.1-1.17h1.23c-.07.35-.1.69-.1,1.17v1.79h.25c.54,0,.89-.03,1.21-.08v1.13c-.37-.06-.72-.07-1.14-.07h-.32v2.68q.18-.08,1.21-.55l.1.68c.35.06.78.08,1.45.08h3.87v-1.5h-3.94c-.66,0-1.1.03-1.48.08v-1.13c.37.06.82.08,1.48.08h1.88v-1.75h-1.44c-.55,0-1,.03-1.37.07v-1.11c.37.06.79.08,1.37.08h1.44v-.54c0-.42-.03-.78-.08-1.11h1.21c-.06.34-.08.66-.08,1.1v.55h1.83c.58,0,1-.03,1.37-.08v1.11c-.38-.04-.82-.07-1.37-.07h-1.83v1.75h2.29c.66,0,1.1-.03,1.47-.08v1.13c-.37-.06-.86-.08-1.41-.08h-.28v1.5h.3c.65,0,1.03-.01,1.38-.08v1.13c-.42-.06-.8-.08-1.38-.08h-.3v3.81c0,.88-.37,1.13-1.64,1.13-.4,0-.83-.01-1.38-.06-.04-.49-.1-.75-.25-1.13.65.11,1.23.17,1.64.17.51,0,.59-.06.59-.4v-3.53h-3.95c-.59,0-.96.03-1.38.08v-.83c-.4.23-.51.27-1.3.64v3.73c0,.56.03,1.06.1,1.54h-1.23c.06-.34.1-.93.1-1.54v-3.29q-1.89.75-2.07.85l-.32-1.19c.55-.08,1.28-.31,2.4-.73v-3.11h-1.04ZM517.69,295.06c.8.76,1.31,1.34,1.98,2.26l-.89.66c-.55-.9-1.1-1.61-1.91-2.36l.82-.56Z"/>
        <path class="cls-4" d="M530.47,297.25c-1.52,1.37-2.51,1.96-4.33,2.58-.31-.51-.45-.68-.79-.99,1.04-.27,1.6-.48,2.37-.9.72-.38,1.09-.66,1.83-1.33l.92.64ZM529.82,288.29c0-.64-.01-.89-.08-1.24h1.17c-.07.37-.08.64-.08,1.26v.58h2.03v-.58c0-.66-.01-.92-.08-1.26h1.19c-.07.37-.1.66-.1,1.26v.58h1.93c.69,0,1.07-.01,1.35-.04-.04.28-.06.64-.06,1.14v5.29c.59,0,.89-.03,1.3-.08v1.14c-.42-.06-.88-.08-1.52-.08h-9.96c-.64,0-1.1.03-1.52.08v-1.14c.41.06.66.07,1.28.08v-5.29c0-.51-.01-.82-.06-1.14.35.03.72.04,1.31.04h1.91v-.59ZM529.82,289.84h-2.12v2.13h2.12v-2.13ZM529.82,292.93h-2.12v2.34h2.12v-2.34ZM532.85,291.97v-2.13h-2.03v2.13h2.03ZM532.85,295.27v-2.34h-2.03v2.34h2.03ZM533.76,296.63c.78.65,1.16.92,1.91,1.3.88.48,1.47.69,2.53.97-.32.38-.44.55-.69,1.02-1.03-.32-1.64-.61-2.47-1.09-.75-.44-1.2-.78-2.1-1.55l.83-.65ZM536.04,291.97v-2.13h-2.19v2.13h2.19ZM536.04,295.27v-2.34h-2.19v2.34h2.19Z"/>
        <path class="cls-4" d="M540.82,288.96c.61.16,1.37.21,2.63.21h.34q.03-.31.08-1c.01-.17.04-.68.04-.8,0-.04-.01-.11-.03-.23l1.28.08c-.13.38-.18.85-.28,1.91,2.27-.11,4.29-.41,5.36-.78l.07,1.17c-.2.01-.25.03-.51.07-1.6.27-3.68.49-5,.54-.07,1.07-.08,1.19-.08,1.74.73-.18,1.28-.25,1.99-.25.27,0,.44.01.79.04.17-.44.27-.83.32-1.21l1.16.34c-.03.06-.17.41-.44,1.07,1.88.44,2.99,1.68,2.99,3.32,0,1.44-.78,2.58-2.27,3.34-.83.42-1.64.65-2.89.79-.14-.47-.23-.66-.54-1.13.85-.03,1.43-.13,2.1-.35,1.52-.54,2.4-1.52,2.4-2.72,0-1.13-.75-1.93-2.13-2.31-.82,1.86-1.61,3.11-2.75,4.23-1.12,1.11-2.17,1.67-3.19,1.67-1.12,0-1.91-.93-1.91-2.23,0-1.79,1.23-3.39,3.29-4.29q.01-1.02.07-2h-.47c-.16,0-.8-.01-1.95-.06-.13-.01-.23-.01-.25-.01-.06,0-.14,0-.25.01v-1.14ZM542.27,294.38c-.52.62-.8,1.31-.8,1.99,0,.73.38,1.21.96,1.21.48,0,.93-.2,1.51-.68-.18-1.02-.27-2.06-.27-3.64-.66.38-1.03.68-1.4,1.11ZM544.9,296.2q.1-.14.34-.44c.88-1.06,1.37-1.86,1.93-3.18-.25-.03-.32-.03-.61-.03-.62,0-1.28.11-1.86.32.03,1.72.04,1.91.14,2.91.01.14.03.27.03.32v.08h.03Z"/>
        <path class="cls-4" d="M557.24,292.15q.03-.1.1-.38c.18-.76.45-1.38.85-1.98.78-1.13,1.71-1.71,2.78-1.71.96,0,1.75.42,2.33,1.26.62.9.89,1.96.89,3.53,0,2.6-1.17,4.56-3.37,5.62-.69.32-1.55.61-2.58.82-.21-.56-.31-.73-.64-1.16,1.35-.18,2.09-.4,2.94-.86,1.65-.92,2.41-2.36,2.41-4.59s-.76-3.46-2.09-3.46c-1,0-1.91.79-2.68,2.36-.52,1.03-.78,2.09-.78,3.15v.34l-1.21.03c.01-.07.01-.13.01-.16,0-.04,0-.13-.01-.27,0-.14-.03-1.65-.03-1.82,0-1.43.1-2.63.47-5.22.03-.21.03-.28.03-.45l1.3.1c-.17.49-.21.69-.56,3.16-.13.89-.16,1.2-.2,1.69h.06Z"/>
        <path class="cls-4" d="M568.82,295.89c.03-.35.03-.49.03-.82v-.72l-.14-4.95c-.01-.61-.04-1.07-.1-1.59h1.65c-.06.54-.08,1.02-.1,1.59l-.14,4.95c-.01.23-.01.4-.03.54v.21c0,.17.01.48.04.79h-1.21ZM568.67,298.69v-1.5h1.55v1.5h-1.55Z"/>
        <path class="cls-4" d="M573.34,295.89c.03-.35.03-.49.03-.82v-.72l-.14-4.95c-.01-.61-.04-1.07-.1-1.59h1.65c-.06.54-.08,1.02-.1,1.59l-.14,4.95c-.01.23-.01.4-.03.54v.21c0,.17.01.48.04.79h-1.21ZM573.19,298.69v-1.5h1.55v1.5h-1.55Z"/>
      </g>
      <g>
        <path class="cls-3" d="M133.86,214.79c.6.65,1.06,1.27,1.87,1.27,2.5,0,11.14-.98,13.3-1.25.6-.07.96-.65,1.49-.65.96,0,3.14,1.85,3.14,2.78,0,.84-1.01.58-1.9,1.3-1.46,1.22-3.82,3.24-6.62,5.14,1.32,1.15,2.21,2.47,2.21,3.86,0,.82-.55,1.27-1.25,1.27-1.1,0-1.06-1.66-3.46-4.42-1.27-1.56-2.57-2.69-3.7-3.53l.26-.41c1.68.53,3.53,1.42,5.04,2.52,2.35-1.99,4.54-4.42,5.45-5.95.19-.34.07-.53-.26-.5-2.64.22-9.34,1.18-11.42,1.73-.6.14-1.15.77-1.75.77-.84,0-2.11-1.22-2.47-2.09-.17-.38-.29-.96-.31-1.68l.38-.17Z"/>
        <path class="cls-3" d="M161.46,214.79c.6.65,1.06,1.27,1.87,1.27,2.5,0,11.14-.98,13.3-1.25.6-.07.96-.65,1.49-.65.96,0,3.14,1.85,3.14,2.78,0,.84-1.01.58-1.9,1.3-1.46,1.22-3.82,3.24-6.62,5.14,1.32,1.15,2.21,2.47,2.21,3.86,0,.82-.55,1.27-1.25,1.27-1.1,0-1.06-1.66-3.46-4.42-1.27-1.56-2.57-2.69-3.7-3.53l.26-.41c1.68.53,3.53,1.42,5.04,2.52,2.35-1.99,4.54-4.42,5.45-5.95.19-.34.07-.53-.26-.5-2.64.22-9.34,1.18-11.42,1.73-.6.14-1.15.77-1.75.77-.84,0-2.11-1.22-2.47-2.09-.17-.38-.29-.96-.31-1.68l.38-.17Z"/>
        <path class="cls-3" d="M210.28,221.97c-.12.19-.48.36-.96.19-.79.6-2.4,1.61-3.82,2.3,1.25,2.06,2.93,3.67,5.02,4.51l-.02.26c-.84.22-1.51.98-1.8,2.11-3.34-2.28-4.82-6.05-5.54-11.64h-1.56v8.19c1.08-.24,2.23-.5,3.38-.79l.07.34c-1.34.77-3.31,1.92-6.17,3.38-.07.29-.26.48-.5.58l-1.54-2.47c.62-.12,1.56-.31,2.69-.55v-8.67h-1.42c-.19,3.91-1.03,8.38-4.7,11.52l-.31-.19c2.62-4.03,2.9-9.07,2.9-13.68v-2.04c-.12.07-.26.12-.46.12h-2.59v4.3c.91-.29,1.87-.58,2.83-.86l.1.31c-.79.5-1.75,1.13-2.93,1.85v7.61c0,1.66-.31,2.57-2.88,2.83-.05-.7-.17-1.25-.46-1.58-.31-.38-.79-.62-1.75-.77v-.36s1.99.14,2.42.14c.38,0,.48-.12.48-.43v-6.14c-.58.31-1.18.65-1.8,1.01-.1.31-.29.55-.55.65l-1.03-2.71c.67-.14,1.9-.48,3.38-.91v-4.92h-2.83l-.19-.7h3.02v-5.59l3.07.31c-.07.34-.31.58-.89.67v4.61h.24l1.1-1.7s1.01,1.01,1.7,1.82v-4.66l2.54.96h7.85l1.32-1.7s1.46,1.18,2.38,2.02c-.07.26-.31.38-.65.38h-11.28v5.47c0,.55,0,1.1-.02,1.68h8.45l1.3-1.7s1.46,1.18,2.38,2.02c-.07.26-.31.38-.65.38h-6c.38,1.56.94,3.05,1.66,4.34.96-1.2,2.09-2.9,2.59-3.84l2.42,1.75ZM205.41,215.1l1.22-1.63s1.42,1.13,2.28,1.94c-.07.26-.31.38-.65.38h-8.79l-.19-.7h6.12Z"/>
        <path class="cls-3" d="M225.42,229.19c5.98-1.25,8.5-4.46,8.5-8.71s-2.98-7.13-6.91-7.13c-.29,0-.6.02-.91.05.67.77,1.37,1.8,1.37,2.86,0,1.18-.26,2.66-.79,4.08-1.03,2.98-3.77,7.46-6.48,7.46-1.8,0-3.53-2.76-3.53-5.83,0-2.3,1.1-5.02,3.38-6.96,1.94-1.7,4.39-2.54,7.18-2.54,5.26,0,9.15,3.58,9.15,8.57,0,4.3-2.9,8.26-10.85,8.67l-.1-.5ZM225.11,213.59c-1.61.38-3.19,1.25-4.37,2.47-1.44,1.51-2.28,3.29-2.28,5.3s.91,3.84,1.9,3.84c1.46,0,3.62-3.5,4.46-5.42.58-1.3.98-2.88.98-4.06,0-.82-.31-1.51-.7-2.14Z"/>
        <path class="cls-3" d="M251.75,221.73c1.94-.94,3.98-1.66,6.34-1.66,3,0,5.11,1.75,5.11,4.68,0,2.5-1.94,4.66-5.14,4.66-1.99,0-3.46-1.08-4.56-2.93l.34-.34c.89.79,2.09,1.44,3.72,1.44,2.18,0,3.53-1.42,3.53-3.36,0-1.7-1.03-3.17-3.58-3.17-1.85,0-3.94.96-5.74,2.04.12,3.41.43,4.22.43,5.14,0,1.15-.82,2.5-1.68,2.5-.72,0-.74-.89-1.49-1.61-.6-.58-1.54-1.3-2.35-1.85-.7.72-.96,1.08-1.37,1.08-.36,0-.67-.19-.96-.48-.38-.41-.55-.86-.55-1.34,0-.77.17-.96.79-.94.62.07.96-.05,1.42-.31.79-.43,2.62-1.85,4.27-2.81v-4.2c-.86.22-1.9.41-2.57.41-1.34,0-2.5-.43-3.31-2.83l.36-.26c1.18,1.13,1.66,1.37,2.81,1.34.74-.02,1.75-.24,2.71-.5,0-1.58.02-3.02,0-3.62,0-.65-.14-.74-.53-.89-.43-.17-.96-.22-1.66-.24l-.05-.41c.6-.41,1.22-.65,1.99-.65,1.1,0,2.81.82,2.81,1.46s-.38,1.01-.55,1.78c-.1.46-.19,1.15-.29,1.99,1.54-.62,2.21-1.25,2.62-1.27.34,0,1.56.02,1.61.91,0,.43-.31.79-.86,1.08-.86.43-2.33.91-3.53,1.3-.05,1.01-.1,2.06-.1,3v.86ZM250.29,224.06c-1.08.79-2.21,1.87-3.1,2.74.84.38,1.78.82,2.42,1.03.5.17.67-.02.67-.48v-3.29ZM257.63,213.83c1.08-.31,2.16-.48,3.34-.29,2.14.34,3.84,1.97,3.89,3.62.02.65-.29,1.2-.98,1.22-.58.07-.96-.65-1.66-.55-.48.05-1.46.41-1.99.6l-.22-.36c.48-.31,1.54-1.01,1.85-1.32.29-.31.34-.53.1-.94-.84-1.25-2.71-1.56-4.27-1.49l-.05-.5Z"/>
        <path class="cls-3" d="M288.14,216.28c-.22.24-.48.31-1.1.34-1.01,1.34-2.23,2.57-3.65,3.67,2.86,1.32,6.29,2.16,9.55,2.59l-.05.29c-.94.19-1.56.91-1.82,1.94-.77-.17-1.51-.38-2.23-.6l.02.02c-.12.14-.41.34-.82.41v5.81c-.02.17-1.15.6-1.92.6h-.36v-1.61h-7.99v1.03c0,.17-.72.65-1.85.65h-.38v-7.06c-1.51.5-3.14.94-4.85,1.25l-.19-.36c3.79-1.15,7.34-2.9,10.13-5.04-.98-.86-1.82-1.8-2.54-2.86-1.7,1.54-3.82,2.95-6.17,3.89l-.22-.26c3.17-2.04,5.88-5.38,7.08-7.9l3.22.77c-.1.26-.36.41-1.06.43-.31.41-.65.84-1.03,1.25h4.68l1.42-1.25,2.14,1.99ZM274.31,212.73c.05,1.7-.6,2.88-1.34,3.43-.67.53-1.7.5-2.04-.24-.29-.67.12-1.27.7-1.66.94-.53,1.94-1.99,1.94-3.6h.38c.14.48.24.94.31,1.37h6.19v-2.88l3.24.29c-.05.34-.26.58-.89.67v1.92h6.43l1.27-1.27,2.18,2.14c-.17.19-.43.24-.91.26-.77.86-2.18,1.97-3.24,2.64l-.24-.17c.31-.77.74-1.97,1.01-2.9h-15ZM286,223.48c-1.44-.6-2.81-1.34-4.01-2.21-1.42.94-2.95,1.73-4.66,2.42l.74.29h7.46l.46-.5ZM285.76,229.05v-4.39h-7.99v4.39h7.99ZM279.26,216.23c-.22.24-.48.48-.72.72.84.91,1.87,1.73,3.07,2.42,1.13-.98,2.09-2.04,2.83-3.14h-5.18Z"/>
        <path class="cls-3" d="M303.66,218.15c4.85,2.18,2.88,5.57,1.22,4.03-.1-1.08-.65-2.4-1.22-3.41v11.95c0,.26-.91.67-1.7.67h-.46v-9.99c-.86,1.66-1.94,3.14-3.29,4.46l-.31-.31c1.75-2.74,2.81-6.31,3.38-9.91h-2.93l-.19-.7h3.34v-5.78l3.02.31c-.05.36-.24.6-.86.7v4.78h.46l1.15-1.61s1.27,1.13,2.04,1.92c-.07.26-.31.38-.62.38h-3.02v2.5ZM320.11,222.38c-.14.24-.36.34-.89.19-.89.67-2.23,1.51-3.5,2.16,1.39,1.78,3.26,2.69,5.14,3.26l-.02.26c-.84.24-1.42,1.06-1.66,2.11-2.66-1.66-4.32-3.79-5.21-8.14v6.48c0,1.49-.34,2.5-2.86,2.71-.05-.62-.14-1.13-.41-1.44-.31-.31-.77-.55-1.75-.7v-.34s1.92.14,2.35.14c.38,0,.48-.14.48-.46v-3.26c-1.03.94-2.47,2.3-4.42,3.98-.05.31-.19.55-.43.67l-1.68-2.21c1.13-.38,3.84-1.61,6.53-2.86v-4.75h-5.3l-.19-.7h5.5v-2.57h-4.27l-.19-.67h4.46v-2.33h-4.97l-.19-.7h7.3c.43-1.25.98-2.93,1.32-4.13l2.98.84c-.1.29-.36.48-.91.46-.7.79-1.8,1.92-2.81,2.83h2.21l1.25-1.54s1.42,1.06,2.26,1.85c-.07.26-.31.38-.62.38h-5.62v2.33h2.18l1.22-1.54s1.42,1.06,2.23,1.82c-.05.26-.26.38-.6.38h-5.04v2.57h3.07l1.25-1.63s1.42,1.13,2.28,1.94c-.07.26-.31.38-.65.38h-5.95v.62c.31,1.39.82,2.52,1.44,3.43.84-1.08,1.8-2.59,2.26-3.5l2.45,1.61ZM307.43,221.06c5.06,1.32,3.07,4.97,1.3,3.46-.02-1.1-.79-2.47-1.54-3.29l.24-.17ZM308.63,209.22c5.11,1.42,3.1,5.16,1.22,3.62-.1-1.2-.79-2.59-1.46-3.48l.24-.14Z"/>
        <path class="cls-3" d="M339.02,218.63c3.89,1.68,5.66,4.03,5.66,6.82,0,2.42-1.94,5.33-6.55,5.33-3.53,0-5.26-2.06-5.26-5.04,0-.55.05-1.22.14-1.97-2.26-.58-3.53-1.82-3.53-3.24s1.3-2.71,3.02-3.62c-.6-.19-1.08-.38-1.66-.79-.79-.58-1.25-1.27-1.51-2.69l.36-.19c.58.82,1.2,1.51,2.23,1.9.94.34,1.85.48,2.69.55.41-1.56.72-2.74.77-3.31.02-.55-.19-.77-.6-1.01-.34-.17-.77-.31-1.15-.41l.02-.46c.46-.12.94-.22,1.54-.22,1.34,0,2.95,1.37,2.95,2.11,0,.53-.38.77-.67,1.32-.29.53-.58,1.13-.91,2.06l.31.02c1.03.12,1.42.7,1.42,1.22,0,.58-.41.77-1.06.82-.36.02-.86.02-1.39-.02-.38,1.15-.84,2.64-1.18,4.08,1.08.05,1.97,0,2.5.05.74.05,1.22.36,1.22,1.03,0,.6-.46.96-1.42,1.08-.67.07-1.66.07-2.71-.05-.1.58-.14,1.13-.14,1.61,0,2.3,1.44,3.34,3.67,3.34,2.88,0,4.63-1.9,4.63-4.08,0-2.69-1.56-4.25-3.7-5.88l.29-.36ZM333.3,221.78c.24-1.42.53-2.88.79-4.03-1.56.1-3.58,1.3-3.58,2.38,0,.74.86,1.37,2.78,1.66Z"/>
        <path class="cls-3" d="M365.46,217.02c.84,4.49,3.53,9.1,10.44,12.02l-.05.26c-1.2.22-1.94.86-2.21,2.16-6.05-3.5-7.92-9.34-8.59-14.11-.7,5.69-3,10.61-11.5,14.11l-.26-.38c6.84-3.91,8.81-8.64,9.36-14.06h-8.91l-.22-.7h9.17c.19-2.26.17-4.63.17-7.1l3.41.34c-.07.36-.29.6-.86.7-.05,2.09-.07,4.13-.24,6.07h6.07l1.56-1.97s1.78,1.34,2.83,2.28c-.07.26-.34.38-.67.38h-9.5Z"/>
        <path class="cls-3" d="M398.03,214.74c.36,6.82,1.54,11.45,5.57,14.16l-.05.29c-1.06.24-1.7.96-1.94,2.23-2.45-2.4-3.41-6.79-3.79-12.17-.41,4.87-1.68,9.05-6.5,12.15l-.34-.34c.7-.62,1.27-1.3,1.8-1.97h-7.56v1.32c0,.14-.67.65-1.75.65h-.36v-10.11c-.7.67-1.44,1.32-2.23,1.87l-.24-.29c1.56-1.73,2.86-3.96,3.74-6.24h-3.19l-.19-.7h3.62c.31-.94.58-1.87.72-2.78h-.98c-.84,1.01-1.8,1.85-2.76,2.5l-.31-.24c.96-1.42,1.94-3.7,2.52-5.98l2.98,1.1c-.1.26-.41.46-.91.43-.29.53-.62,1.01-.96,1.49h4.68l1.25-1.51s1.37,1.01,2.28,1.82c-.07.26-.31.38-.65.38h-4.54c-.29.94-.65,1.87-1.08,2.78h3.14l1.22-1.56s1.37,1.08,2.18,1.87c-.05.26-.29.38-.62.38h-6.26c-.5.96-1.08,1.87-1.75,2.74l.74.31h1.73c.14-.82.29-1.94.38-2.71l2.86.55c-.07.29-.34.5-.86.53-.43.5-1.03,1.1-1.66,1.63h2.3l1.08-1.34s1.2.94,1.97,1.66c-.07.26-.31.38-.65.38h-3.31v2.26h.96l1.01-1.34s1.1.96,1.78,1.66c-.05.26-.26.38-.6.38h-3.14v2.28h.96l1.01-1.32s1.13.94,1.82,1.63c-.07.26-.29.38-.62.38h-3.17v2.42h1.25l1.15-1.46s.86.65,1.61,1.32c2.45-3.89,2.47-8.47,2.52-13.51h-.24c-.86,1.58-1.9,2.93-3.12,3.96l-.34-.22c1.37-2.3,2.52-5.81,3.02-9.34l3.1.86c-.12.31-.38.53-.94.53-.38,1.25-.84,2.42-1.37,3.5h4.34l1.2-1.15,2.06,1.99c-.19.19-.46.24-.94.26-.72,1.25-2.11,3.05-3.17,4.18l-.29-.17c.43-1.2.96-3.07,1.27-4.42h-2.45ZM385.22,220.05v2.26h2.14v-2.26h-2.14ZM387.35,223h-2.14v2.28h2.14v-2.28ZM385.22,228.4h2.14v-2.42h-2.14v2.42Z"/>
        <path class="cls-3" d="M413.71,226.74c1.7,1.8,3.48,2.06,7.8,2.06,2.81,0,6.58,0,9.58-.1v.31c-.94.19-1.44.84-1.56,1.9h-7.99c-4.54,0-6.46-.65-8.14-3.74-.89,1.18-2.33,2.78-3.24,3.7.05.29-.1.43-.31.55l-1.34-2.57c.79-.31,1.92-.84,3.07-1.42v-7.2h-2.88l-.14-.7h2.69l1.15-1.56,2.52,2.09c-.17.19-.53.38-1.2.48v6.19ZM409.65,209.9c6.55,1.56,4.63,6.29,2.38,4.61-.29-1.54-1.49-3.36-2.57-4.44l.19-.17ZM416.13,210.81l2.09.67c.79-.82,1.61-1.78,2.14-2.4l2.26,1.75c-.05.07-.12.14-.22.17l2.02.82h2.83l1.01-1.18,2.3,1.75c-.17.19-.5.36-.94.46v10.15c0,1.56-.29,2.45-2.64,2.66-.02-.65-.1-1.22-.34-1.51-.22-.34-.6-.58-1.39-.7v-.36s1.44.1,1.82.1c.34,0,.41-.12.41-.43v-10.25h-3.36v14.88c0,.14-.67.65-1.73.65h-.34v-17.02c-.1-.02-.19-.05-.29-.07-.84.41-2.35.98-3.55,1.42v10.75c1.13-.29,2.4-.65,3.65-1.01l.1.31c-1.3.79-3.14,1.92-5.76,3.36-.07.29-.26.5-.5.6l-1.51-2.26c.46-.1,1.13-.26,1.94-.46v-12.87Z"/>
        <path class="cls-3" d="M443.49,227.99c0-.96.79-1.8,1.8-1.8s1.78.84,1.78,1.8-.79,1.75-1.78,1.75-1.8-.79-1.8-1.75ZM446.9,213.06c0,1.1-.29,3.26-.82,6.89l-.43,3.79h-.77l-.43-3.79c-.53-3.62-.82-5.78-.82-6.89s.65-1.75,1.66-1.75,1.61.6,1.61,1.75Z"/>
        <path class="cls-3" d="M455.01,227.99c0-.96.79-1.8,1.8-1.8s1.78.84,1.78,1.8-.79,1.75-1.78,1.75-1.8-.79-1.8-1.75ZM458.42,213.06c0,1.1-.29,3.26-.82,6.89l-.43,3.79h-.77l-.43-3.79c-.53-3.62-.82-5.78-.82-6.89s.65-1.75,1.66-1.75,1.61.6,1.61,1.75Z"/>
      </g>
    </g>
  </g>
</svg>