<?xml version="1.0" encoding="UTF-8"?>
<svg id="_レイヤー_2" data-name="レイヤー 2" xmlns="http://www.w3.org/2000/svg" viewBox="0 0 297.95 224.96">
  <defs>
    <style>
      .cls-1 {
        fill: #fff;
      }

      .cls-2 {
        fill: #484947;
      }

      .cls-3 {
        fill: #e84e55;
      }
    </style>
  </defs>
  <g id="_レイヤー_1-2" data-name="レイヤー 1">
    <g>
      <g>
        <path class="cls-2" d="M28.99,87v7.9h1.06l1.9-2.81s2.2,1.94,3.46,3.27c-.11.42-.49.61-1.03.61H.65l-.3-1.06h5.62v-7.9H.34l-.34-1.1h5.97v-5.89c-1.71,1.52-3.5,2.77-5.32,3.76l-.42-.42c2.66-2.77,5.66-7.41,7.52-12.23l5.02,2.09c-.19.38-.65.68-1.52.57-.68,1.1-1.44,2.13-2.24,3.08l.34.15h19.19l2.09-2.81s2.39,1.94,3.76,3.31c-.11.42-.46.61-.99.61h-4.41v7.79h1.1l1.98-2.66s2.24,1.82,3.57,3.15c-.08.42-.46.61-.99.61h-5.66ZM7.03,97.18c1.14,4.83-.91,7.83-2.96,8.81-1.29.72-2.93.53-3.38-.61-.38-1.1.38-2.01,1.33-2.55,1.98-.72,4.22-2.85,4.48-5.7l.53.04ZM9.12,85.9h3.23v-7.79h-3.23v7.79ZM9.12,94.9h3.23v-7.9h-3.23v7.9ZM11.78,97.56c6.88,4.9,3.04,10.83.46,7.75.3-2.47-.23-5.47-.95-7.6l.49-.15ZM15.54,78.11v7.79h3.5v-7.79h-3.5ZM15.54,87v7.9h3.5v-7.9h-3.5ZM18.54,97.52c9.04,3.84,5.96,10.56,2.85,7.9-.19-2.58-1.79-5.66-3.27-7.67l.42-.23ZM22.26,78.11v7.79h3.46v-7.79h-3.46ZM25.72,87h-3.46v7.9h3.46v-7.9ZM25.87,97.07c12.04,3.15,9.76,11.32,5.93,8.93-.87-2.96-3.8-6.5-6.31-8.62l.38-.3Z"/>
        <path class="cls-2" d="M54.11,89.2c9.61,2.2,6.99,8.89,3.72,6.57-.42-2.05-2.13-4.45-3.72-6v15.46c0,.42-1.44,1.22-2.7,1.22h-.65v-13.45c-1.71,2.93-3.99,5.51-6.69,7.67l-.46-.46c2.77-3.61,4.79-8.51,5.93-13.3h-5.58l-.3-1.1h7.1v-14.59l4.75.49c-.11.57-.38.95-1.41,1.1v12.99h1.94l1.86-2.43s2.2,1.67,3.53,2.93c-.08.42-.46.61-.99.61h-6.34v2.28ZM44.57,74.46c7.45,4.6,4.14,10.52,1.44,7.83,0-2.55-.95-5.51-1.9-7.64l.46-.19ZM55.21,83.01c.57-2.2,1.29-5.7,1.9-8.66l4.45,1.41c-.11.42-.57.76-1.37.8-1.33,2.28-2.93,4.9-4.37,6.73l-.61-.27ZM76.34,90.69s2.2,1.48,3.61,2.51c0,.42-.34.72-.8.8l-4.86.99v10.18c0,.42-1.52,1.25-2.81,1.25h-.68v-10.68l-10.37,2.13-.53-.99,10.9-2.28v-23.37l4.86.49c-.08.53-.38.95-1.37,1.1v21.05l.49-.11,1.56-3.08ZM61.44,83.66c9.76,1.37,7.52,8.24,4.14,6.12-.61-2.05-2.66-4.48-4.48-5.78l.34-.34ZM62.2,74.65c9.57,1.9,6.99,8.55,3.72,6.27-.49-2.05-2.39-4.52-4.03-6l.3-.27Z"/>
        <path class="cls-2" d="M123.19,91.44c-.19.3-.76.57-1.52.3-1.25.95-3.8,2.55-6.04,3.65,1.98,3.27,4.64,5.81,7.94,7.14l-.04.42c-1.33.34-2.39,1.56-2.85,3.34-5.28-3.61-7.64-9.57-8.78-18.43h-2.47v12.96c1.71-.38,3.53-.8,5.36-1.25l.11.53c-2.13,1.22-5.24,3.04-9.76,5.36-.11.46-.42.76-.8.91l-2.43-3.91c.99-.19,2.47-.49,4.26-.87v-13.72h-2.24c-.3,6.19-1.63,13.26-7.45,18.24l-.49-.3c4.14-6.38,4.6-14.36,4.6-21.66v-3.23c-.19.11-.42.19-.72.19h-4.1v6.8c1.44-.46,2.96-.91,4.48-1.37l.15.49c-1.25.8-2.77,1.79-4.64,2.93v12.04c0,2.62-.49,4.07-4.56,4.48-.08-1.1-.27-1.98-.72-2.51-.49-.61-1.25-.99-2.77-1.22v-.57s3.15.23,3.84.23c.61,0,.76-.19.76-.68v-9.73c-.91.49-1.86,1.03-2.85,1.6-.15.49-.46.87-.87,1.03l-1.63-4.29c1.06-.23,3-.76,5.36-1.44v-7.79h-4.48l-.3-1.1h4.79v-8.85l4.86.49c-.11.53-.49.91-1.41,1.06v7.29h.38l1.75-2.7s1.6,1.6,2.7,2.89v-7.37l4.03,1.52h12.42l2.09-2.7s2.32,1.86,3.76,3.19c-.11.42-.49.61-1.03.61h-17.86v8.66c0,.87,0,1.75-.04,2.66h13.37l2.05-2.7s2.32,1.86,3.76,3.19c-.11.42-.49.61-1.03.61h-9.5c.61,2.47,1.48,4.83,2.62,6.88,1.52-1.9,3.31-4.6,4.1-6.08l3.84,2.77ZM115.48,80.58l1.94-2.58s2.24,1.79,3.61,3.08c-.11.42-.49.61-1.03.61h-13.91l-.3-1.1h9.69Z"/>
        <path class="cls-2" d="M166.36,80.12c-.27.34-.72.61-1.56.76v24.28c0,.23-1.25.99-2.93.99h-.57v-2.77h-11.63v2.01c0,.27-1.03.99-2.77.99h-.57v-20.14c-.27.15-.65.23-1.18.11-.84.72-1.71,1.48-2.55,2.09,4.75,2.93,2.47,6.8,0,4.94-.38-1.63-1.63-3.61-2.85-5.17v17.14c0,.27-1.1,1.06-2.7,1.06h-.57v-15.73c-1.6,1.44-3.38,2.77-5.32,3.88l-.42-.49c4.1-3.61,7.83-9.19,9.69-14.13h-8.7l-.34-1.03h5.13v-7.71l4.71.42c-.08.53-.42.91-1.41,1.06v6.23h.84l2.01-1.94,3,2.85c-.27.38-.65.49-1.56.53-1.03,2.28-2.47,4.6-4.29,6.8.68.23,1.25.49,1.79.76.65-1.03,1.41-2.32,2.09-3.61l2.62,1.48v-7.83l3.8,1.48h3.65v-8.09l4.56.46c-.08.53-.34.87-1.22.99v6.65h3.95l1.82-2.09,3.46,2.77ZM149.68,80.54v9.95h4.1v-9.95h-4.1ZM149.68,102.27h4.1v-10.68h-4.1v10.68ZM157.13,80.54v9.95h4.18v-9.95h-4.18ZM161.31,102.27v-10.68h-4.18v10.68h4.18Z"/>
        <path class="cls-2" d="M187.41,77.73s2.09,1.82,3.27,3.12c-.11.42-.49.61-1.03.61h-5.05v3.38c8.74,3.12,5.85,9,2.93,6.61-.34-1.86-1.67-4.14-2.93-5.81v19.72c0,.38-1.52,1.1-2.81,1.1h-.72v-16.79c-1.6,3.04-3.65,5.78-6.12,8.13l-.49-.46c2.89-4.33,4.9-10.22,6.04-15.88h-4.98l-.3-1.1h5.85v-9.12l4.9.53c-.08.57-.38.91-1.37,1.06v7.52h1.03l1.79-2.62ZM209.87,75.26c-.27.34-.84.65-1.56.8v28.8c-.04.3-1.75,1.22-3.12,1.22h-.53v-3.53h-9.73v2.32c0,.49-1.37,1.37-2.96,1.37h-.61v-33.51l3.76,1.63h9.16l1.86-2.05,3.72,2.96ZM194.94,75.41v7.79h9.73v-7.79h-9.73ZM194.94,84.3v7.86h9.73v-7.86h-9.73ZM204.66,101.44v-8.17h-9.73v8.17h9.73Z"/>
        <path class="cls-2" d="M230.05,76.32s2.05,1.67,3.34,2.81c-.11.42-.49.61-1.03.61h-13.64l-.3-1.06h9.8l1.82-2.36ZM220.51,74.96l-.3-1.1h6.42l1.86-2.32s2.05,1.67,3.31,2.81c-.11.42-.49.61-.99.61h-10.3ZM228.72,81.34s1.98,1.6,3.12,2.74c-.08.38-.46.57-.99.57h-10.33l-.3-1.06h6.76l1.75-2.24ZM228.72,86.24s1.98,1.6,3.12,2.74c-.08.42-.46.61-.99.61h-10.33l-.3-1.1h6.76l1.75-2.24ZM231.08,103.91c0,.27-1.6,1.03-2.7,1.03h-.53v-1.86h-4.37v2.2c0,.3-1.41,1.03-2.81,1.03h-.46v-14.51l3.42,1.44h3.84l1.63-1.79,3.5,2.7c-.27.27-.76.57-1.52.72v9.04ZM227.85,101.97v-7.64h-4.37v7.64h4.37ZM253.8,91.79c-.11.34-.61.68-1.41.53-1.22,1.33-3.53,3.46-5.66,5.13,1.52,2.43,3.88,4.14,7.52,5.32l-.04.46c-1.75.38-2.66,1.33-2.93,3.34-4.83-2.28-6.57-6.99-7.26-13.53-.65,5.85-2.85,10.37-12.65,13.41l-.34-.61c9.99-4.37,9.73-10.56,9.76-19.38l4.75.42c-.08.53-.42.87-1.25.99.23,3.65.8,6.57,2.05,8.89,1.06-2.39,2.28-5.55,2.77-7.18l4.67,2.2ZM232.37,88.6c8.89-4.1,8.74-9.69,8.78-17.06l4.64.42c-.08.49-.42.87-1.22.99-.11,2.81-.23,5.4-1.03,7.75.8.15,1.56.34,2.28.57,1.1-2.2,2.51-5.55,3.08-7.26l4.41,2.17c-.15.3-.65.65-1.41.49-1.18,1.25-3.5,3.23-5.51,4.79,8.81,2.89,7.45,8.36,4.1,6.91-1.41-2.2-4.64-5.09-7.26-6.95-1.37,3.15-4.22,5.78-10.45,7.75l-.42-.57ZM237.57,89.81c1.29,3.95.11,6.73-1.37,7.71-.99.68-2.51.61-2.96-.49-.38-.99.27-1.9,1.18-2.39,1.29-.76,2.58-2.74,2.55-4.83h.61ZM237.76,74.23c.99,3.5.08,6.04-1.18,7.07-.8.68-2.32.65-2.77-.34-.38-.95.19-1.82,1.06-2.36,1.06-.72,2.24-2.62,2.24-4.41l.65.04Z"/>
        <path class="cls-2" d="M283.55,72.41c-.11.49-.61.72-1.75.8,3.42,4.45,10.18,7.94,16.15,9.69l-.04.57c-1.71.46-2.81,2.05-3.12,3.53-5.96-2.74-11.21-7.75-13.64-13.37-3.46,5.43-11.25,11.17-18.77,14.02l-.27-.49c6.57-3.65,13.68-11.02,15.39-16.26l6.04,1.52ZM291.91,88.33s2.66,1.94,4.22,3.34c-.08.42-.46.61-1.03.61h-15.81c-1.79,3.04-4.18,6.57-6.31,9.19,4.29-.23,9.61-.53,15.24-.87-1.37-2.05-3.04-3.99-4.56-5.51l.38-.23c13.83,4.75,11.09,14.02,6.73,10.98-.38-1.37-1.06-2.89-1.98-4.37-4.86,1.1-11.36,2.36-20.56,3.95-.23.42-.65.68-1.06.76l-2.24-4.41c1.52-.04,3.69-.11,6.34-.23,1.18-2.74,2.47-6.46,3.23-9.27h-10.07l-.34-1.1h25.49l2.32-2.85ZM285.34,81.76s2.47,1.86,4.03,3.19c-.11.42-.49.61-1.03.61h-17.48l-.3-1.1h12.61l2.17-2.7Z"/>
      </g>
      <g>
        <g>
          <path class="cls-2" d="M129.18,27.47c3.34,0,5.17,1.56,5.17,3.87,0,1.72-1.1,3.23-3.76,3.81,3.21.42,4.58,2,4.58,4,0,2.22-1.78,4.36-6.14,4.36h-6.47v-.79l2.29-.24c.07-2.11.07-4.25.07-6.4v-1.21c0-2.11,0-4.27-.07-6.38l-2.29-.24v-.77h6.62ZM126.81,28.37c-.07,2.07-.07,4.18-.07,6.38h1.39c2.99,0,4.38-1.1,4.38-3.34s-1.23-3.04-3.92-3.04h-1.78ZM128.59,42.61c3.06,0,4.62-1.23,4.62-3.45s-1.5-3.52-4.93-3.52h-1.54c0,2.57,0,4.82.07,6.98h1.78Z"/>
          <path class="cls-2" d="M143.86,28.48c-.07,2.09-.07,4.22-.07,6.4v1.21c0,2.11,0,4.27.07,6.38l2.29.24v.79h-6.54v-.79l2.29-.24c.07-2.09.07-4.22.07-6.38v-1.21c0-2.13,0-4.29-.07-6.4l-2.29-.24v-.77h6.54v.77l-2.29.24Z"/>
          <path class="cls-2" d="M165.11,42.72v.79h-6.36v-.79l2.42-.24-1.45-4.38h-5.65l-1.43,4.33,2.31.29v.79h-5.28v-.79l1.98-.26,5.08-15.14h1.23l5.17,15.18,1.98.22ZM159.41,37.19l-2.53-7.61-2.51,7.61h5.04Z"/>
          <path class="cls-2" d="M184.12,28.24l-2.05.29-.02,15.16h-.73l-9.79-13.58.02,12.32,2.55.29v.79h-5.65v-.79l2.07-.26.02-13.73-.2-.29-1.8-.22v-.75h3.43l9.11,12.74-.02-11.66-2.57-.31v-.77h5.63v.77Z"/>
          <path class="cls-2" d="M201.37,39.2l-.07,3.48c-1.5.86-3.08,1.19-4.77,1.19-4.8,0-8.05-3.45-8.05-8.38s3.41-8.38,8.05-8.38c1.43,0,2.99.26,4.55,1.19l.09,3.45h-1.21l-.53-2.97c-.9-.48-1.78-.68-2.66-.68-3.5,0-6.14,2.68-6.14,7.39s2.49,7.39,5.98,7.39c1.01,0,2.05-.2,3.04-.68l.53-2.99h1.19Z"/>
          <path class="cls-2" d="M220.26,42.72v.79h-6.36v-.79l2.42-.24-1.45-4.38h-5.65l-1.43,4.33,2.31.29v.79h-5.28v-.79l1.98-.26,5.08-15.14h1.23l5.17,15.18,1.98.22ZM214.56,37.19l-2.53-7.61-2.51,7.61h5.04Z"/>
        </g>
        <path class="cls-2" d="M103.54,40.38l-.31-.31,2.75-2.75-2.75-2.75.31-.31,2.75,2.75,2.75-2.75.31.31-2.75,2.75,2.75,2.75-.31.31-2.75-2.75-2.75,2.75Z"/>
        <g>
          <path class="cls-2" d="M64.1,28.48c-.07,2.09-.07,4.22-.07,6.4v1.21c0,2.11,0,4.27.07,6.38l2.29.24v.79h-6.54v-.79l2.29-.24c.07-2.09.07-4.22.07-6.38v-1.21c0-2.13,0-4.29-.07-6.4l-2.29-.24v-.77h6.54v.77l-2.29.24Z"/>
          <path class="cls-2" d="M72.68,32.13c.15-2.57.62-4.07,1.67-5.17.97-1.08,2.16-1.43,3.19-1.43s1.94.37,2.18,1.17c-.04.53-.48.92-1.23.92-.57,0-1.08-.24-1.65-.68l-.64-.51c-.4.2-.77.53-1.03.97-.59.88-.95,2.22-.88,4.8h3.45v1.01h-3.41v5.28c0,1.34.02,2.68.04,4.03l2.24.29v.7h-6.05v-.7l2.05-.29c.02-1.34.04-2.68.04-4.03v-5.28h-2.11v-.81l2.13-.26Z"/>
          <path class="cls-2" d="M94.04,42.8v.7h-5.37v-.7l1.87-.26c.02-1.23.04-2.9.04-4.05v-2.2c0-2.29-.68-3.04-2.11-3.04-1.1,0-2.22.4-3.65,1.76v3.48c0,1.12.02,2.82.04,4.05l1.74.26v.7h-5.39v-.7l1.89-.29c.02-1.21.04-2.9.04-4.03v-10.96l-2-.18v-.68l3.37-.92.33.2-.09,3.39v4.86c1.28-1.41,2.95-2.31,4.47-2.31,2,0,3.01,1.19,3.01,4.31v2.29c0,1.14.02,2.82.04,4.03l1.76.29Z"/>
        </g>
      </g>
      <g>
        <path class="cls-2" d="M77.45,1.46c-.04,1.14-.04,2.31-.04,3.51v.66c0,1.15,0,2.33.04,3.48l1.38.13v.43h-3.83v-.43l1.39-.13c.02-1.14.02-2.3.02-3.48v-.66c0-1.18,0-2.36-.02-3.51h-2.19l-.34,1.75h-.6l.1-2.28h7.1l.12,2.28h-.6l-.34-1.75h-2.19Z"/>
        <path class="cls-2" d="M82.65,6.62c0-2.18,1.46-3.27,2.95-3.27s2.94,1.09,2.94,3.27-1.46,3.23-2.94,3.23-2.95-1.06-2.95-3.23ZM87.53,6.62c0-1.79-.73-2.79-1.93-2.79s-1.93,1.01-1.93,2.79.72,2.75,1.93,2.75,1.93-.95,1.93-2.75Z"/>
        <path class="cls-2" d="M94.52,9.25c-.34.38-.83.6-1.44.6-.91,0-1.42-.49-1.42-1.51,0-.3.01-.58.01-1.04v-3.23h-1.18v-.44l1.22-.14.29-1.77h.66l-.07,1.81h1.8v.55h-1.81v4.22c0,.71.29,1.01.78,1.01.31,0,.58-.11.91-.35l.24.3Z"/>
        <path class="cls-2" d="M102.3,9.22c-.29.43-.62.6-1.04.6-.61,0-1-.41-1.1-1.07-.73.74-1.21,1.09-1.99,1.09-.96,0-1.73-.55-1.73-1.58,0-.8.47-1.39,2.1-1.98.47-.14,1.04-.31,1.6-.43v-.38c0-1.32-.4-1.64-1.31-1.64-.25,0-.53.02-.84.13l-.26.89c-.1.35-.28.53-.59.53s-.5-.17-.53-.46c.25-.98,1.19-1.57,2.46-1.57s1.98.6,1.98,2.16v2.84c0,.7.19.91.52.91.22,0,.36-.1.54-.29l.2.25ZM100.13,6.24c-.49.13-1.02.3-1.34.43-1.16.44-1.38.95-1.38,1.43,0,.72.46,1.04,1.1,1.04.5,0,.85-.22,1.62-.83v-2.07Z"/>
        <path class="cls-2" d="M107.15,9.29v.38h-3.15v-.38l1.12-.16c.01-.71.02-1.49.02-2.19V.97l-1.09-.1v-.37l1.86-.5.18.11-.04,1.85v4.99c0,.71.01,1.49.02,2.19l1.08.16Z"/>
        <path class="cls-2" d="M115.4,4.34c.64-.71,1.34-1,2.04-1,1.43,0,2.49,1.21,2.49,3.18s-1.09,3.32-2.65,3.32c-.61,0-1.27-.22-1.87-.95l-.1.9-1.85-.12v-.38l1.03-.16c.01-.66.02-1.58.02-2.19V.98l-1.09-.11v-.37l1.83-.5.18.11-.05,1.85v2.39ZM115.43,8.47c.56.55,1.14.77,1.67.77,1,0,1.86-.78,1.86-2.64,0-1.74-.74-2.65-1.8-2.65-.46,0-.98.12-1.73.8v3.72Z"/>
        <path class="cls-2" d="M123.33,6.52c.01,1.77.95,2.65,2.22,2.65.85,0,1.42-.37,1.88-.94l.25.19c-.49.86-1.32,1.42-2.43,1.42-1.68,0-2.89-1.16-2.89-3.21s1.35-3.29,2.94-3.29c1.39,0,2.4.95,2.4,2.45,0,.31-.02.56-.08.74h-4.28ZM126.15,6.07c.53,0,.65-.26.65-.65,0-.84-.64-1.59-1.56-1.59-.88,0-1.75.72-1.9,2.24h2.81Z"/>
        <path class="cls-2" d="M136.02,9.22c-.29.43-.62.6-1.04.6-.61,0-1-.41-1.1-1.07-.73.74-1.21,1.09-1.99,1.09-.96,0-1.73-.55-1.73-1.58,0-.8.47-1.39,2.1-1.98.47-.14,1.04-.31,1.59-.43v-.38c0-1.32-.4-1.64-1.31-1.64-.25,0-.53.02-.84.13l-.26.89c-.1.35-.28.53-.59.53s-.5-.17-.53-.46c.25-.98,1.19-1.57,2.46-1.57s1.98.6,1.98,2.16v2.84c0,.7.19.91.52.91.22,0,.36-.1.54-.29l.2.25ZM133.85,6.24c-.49.13-1.02.3-1.34.43-1.16.44-1.38.95-1.38,1.43,0,.72.46,1.04,1.1,1.04.5,0,.85-.22,1.62-.83v-2.07Z"/>
        <path class="cls-2" d="M144.52,9.29v.38l-1.7.11-.1-1.2c-.67.83-1.5,1.26-2.34,1.26-1.08,0-1.72-.61-1.7-2.37l.04-3.33-1-.17v-.38l1.8-.16.12.13-.06,1.82v2.01c0,1.25.38,1.68,1.16,1.68.68,0,1.34-.32,1.95-.96l.02-3.98-.98-.17v-.38l1.78-.16.13.13-.05,1.82v3.77l.92.14Z"/>
        <path class="cls-2" d="M150.38,9.25c-.34.38-.83.6-1.44.6-.91,0-1.42-.49-1.42-1.51,0-.3.01-.58.01-1.04v-3.23h-1.18v-.44l1.22-.14.29-1.77h.66l-.07,1.81h1.8v.55h-1.81v4.22c0,.71.29,1.01.78,1.01.31,0,.58-.11.91-.35l.24.3Z"/>
        <path class="cls-2" d="M158.3,3.89l-.73.14-2.21,5.84c-.83,2.19-1.64,3.08-2.61,3.08-.59,0-1.1-.3-1.12-.76.07-.32.41-.48.76-.48s.59.14.9.44l.1.1c.61-.43,1.03-1.16,1.33-1.99l.11-.28-2.37-6-.77-.11v-.37h2.97v.38l-1.15.13,1.76,4.77,1.7-4.76-1.18-.16v-.37h2.51v.37Z"/>
        <path class="cls-2" d="M167.11,6.19c1.27.47,1.75,1.04,1.75,1.85,0,.95-.83,1.81-2.46,1.81-.72,0-1.28-.17-1.92-.47l-.05-1.4h.58l.26,1.16c.32.14.68.23,1.13.23,1.07,0,1.57-.44,1.57-1.09,0-.59-.37-.89-1.25-1.21l-.6-.23c-.96-.35-1.58-.85-1.58-1.74,0-.94.78-1.75,2.19-1.75.7,0,1.22.18,1.8.52l-.05,1.3h-.53l-.22-1.07c-.32-.18-.66-.26-1.01-.26-.88,0-1.32.41-1.32,1s.34.86,1.22,1.2l.47.17Z"/>
        <path class="cls-2" d="M177.11,9.22c-.29.43-.62.6-1.04.6-.61,0-1-.41-1.1-1.07-.73.74-1.21,1.09-1.99,1.09-.96,0-1.73-.55-1.73-1.58,0-.8.47-1.39,2.1-1.98.47-.14,1.04-.31,1.59-.43v-.38c0-1.32-.4-1.64-1.31-1.64-.25,0-.53.02-.84.13l-.26.89c-.1.35-.28.53-.59.53s-.5-.17-.53-.46c.25-.98,1.19-1.57,2.46-1.57s1.98.6,1.98,2.16v2.84c0,.7.19.91.52.91.22,0,.36-.1.54-.29l.2.25ZM174.94,6.24c-.49.13-1.02.3-1.34.43-1.16.44-1.38.95-1.38,1.43,0,.72.46,1.04,1.1,1.04.5,0,.85-.22,1.62-.83v-2.07Z"/>
        <path class="cls-2" d="M181.96,9.29v.38h-3.15v-.38l1.12-.16c.01-.71.02-1.49.02-2.19V.97l-1.09-.1v-.37l1.86-.5.18.11-.04,1.85v4.99c0,.71.01,1.49.02,2.19l1.08.16Z"/>
        <path class="cls-2" d="M184.15,6.62c0-2.18,1.46-3.27,2.95-3.27s2.94,1.09,2.94,3.27-1.46,3.23-2.94,3.23-2.95-1.06-2.95-3.23ZM189.03,6.62c0-1.79-.73-2.79-1.93-2.79s-1.93,1.01-1.93,2.79.72,2.75,1.93,2.75,1.93-.95,1.93-2.75Z"/>
        <path class="cls-2" d="M199.35,9.29v.38h-2.94v-.38l1.02-.14c.01-.66.02-1.58.02-2.21v-1.2c0-1.25-.36-1.66-1.13-1.66-.59,0-1.2.25-1.97.96v1.89c0,.61.01,1.54.02,2.19l.95.16v.38h-2.93v-.38l1.01-.14c.02-.67.04-1.59.04-2.21v-.66c0-.76-.02-1.26-.05-1.82l-1.07-.08v-.38l1.73-.64.17.12.1,1.1c.7-.77,1.6-1.24,2.4-1.24,1.09,0,1.64.66,1.64,2.35v1.25c0,.62.01,1.54.04,2.19l.95.16Z"/>
      </g>
      <g>
        <g>
          <path class="cls-3" d="M41.86,175.52v1.5h-7.41v-1.15c.96-.99,1.89-1.98,2.67-2.79,1.79-1.89,2.51-3.15,2.51-4.63s-.82-2.4-2.13-2.4c-.24,0-.54.03-.86.1l-.37,1.36c-.19.86-.54,1.14-1.01,1.14-.38,0-.69-.21-.88-.56.21-1.78,1.82-2.69,3.67-2.69,2.3,0,3.38,1.25,3.38,3.04,0,1.54-.98,2.82-3.75,5.2-.5.45-1.23,1.14-2.05,1.87h6.23Z"/>
          <path class="cls-3" d="M51.7,171.36c0,4.27-1.84,5.91-3.78,5.91s-3.79-1.63-3.79-5.91,1.82-5.95,3.79-5.95,3.78,1.68,3.78,5.95ZM47.92,176.63c1.04,0,2.02-1.12,2.02-5.27s-.98-5.3-2.02-5.3-2.03,1.12-2.03,5.3.94,5.27,2.03,5.27Z"/>
          <path class="cls-3" d="M61.51,175.52v1.5h-7.41v-1.15c.96-.99,1.89-1.98,2.67-2.79,1.79-1.89,2.51-3.15,2.51-4.63s-.82-2.4-2.13-2.4c-.24,0-.54.03-.86.1l-.37,1.36c-.19.86-.54,1.14-1.01,1.14-.38,0-.69-.21-.88-.56.21-1.78,1.82-2.69,3.67-2.69,2.3,0,3.38,1.25,3.38,3.04,0,1.54-.98,2.82-3.75,5.2-.5.45-1.23,1.14-2.05,1.87h6.23Z"/>
          <path class="cls-3" d="M65.51,170.26c.61-.19,1.2-.27,1.89-.27,2.38,0,3.95,1.26,3.95,3.52s-1.71,3.76-4.24,3.76c-1.89,0-3.09-.9-3.38-2.53.14-.4.48-.59.86-.59.53,0,.8.29.99,1.14l.27,1.2c.34.1.66.14,1.04.14,1.68,0,2.66-1.12,2.66-2.91s-1.02-2.82-2.64-2.82c-.61,0-1.18.06-1.74.24l-.46-.18.37-5.31h5.92v1.5h-5.28l-.21,3.11Z"/>
        </g>
        <g>
          <path class="cls-3" d="M83.95,164.1c.84-.26,1.65-.37,2.6-.37,3.28,0,5.43,1.74,5.43,4.84s-2.35,5.17-5.83,5.17c-2.6,0-4.25-1.23-4.64-3.48.2-.55.66-.81,1.19-.81.73,0,1.1.4,1.36,1.56l.37,1.65c.46.13.9.2,1.43.2,2.31,0,3.65-1.54,3.65-4s-1.41-3.87-3.63-3.87c-.84,0-1.63.09-2.4.33l-.64-.24.51-7.3h8.14v2.07h-7.26l-.29,4.27Z"/>
          <path class="cls-3" d="M100.76,156.13h1.41l-6.49,21.17h-1.43l6.51-21.17Z"/>
        </g>
        <g>
          <path class="cls-3" d="M148.8,171.33c1.92.78,2.64,1.59,2.64,2.95,0,1.68-1.37,2.76-3.47,2.76-1.08,0-2.13-.34-2.82-.77l.08-2.07h.72l.44,1.9c.46.23.87.33,1.47.33,1.35,0,2.22-.62,2.22-1.75,0-.91-.48-1.38-1.72-1.86l-.56-.25c-1.55-.65-2.5-1.48-2.5-2.92,0-1.69,1.39-2.65,3.26-2.65.98,0,1.74.29,2.39.75l-.08,1.92h-.73l-.44-1.82c-.34-.18-.68-.25-1.09-.25-1.16,0-1.96.56-1.96,1.64,0,.91.56,1.43,1.56,1.83l.58.26Z"/>
          <path class="cls-3" d="M162.06,176.33v.47h-3.99v-.47l1.34-.16-.83-2.52h-3.22l-.81,2.51,1.35.17v.47h-3.12v-.47l1.14-.17,2.99-9h.96l3.07,9.04,1.12.13ZM158.41,173.12l-1.47-4.45-1.42,4.45h2.89Z"/>
          <path class="cls-3" d="M168.03,167.79c-.03,1.27-.03,2.56-.03,3.89v.66c0,1.27,0,2.56.03,3.85l1.43.14v.47h-4.43v-.47l1.43-.14c.04-1.26.04-2.55.04-3.85v-.66c0-1.29,0-2.59-.04-3.89h-2.13l-.48,2.03h-.7l.1-2.6h8l.1,2.6h-.7l-.48-2.03h-2.13Z"/>
        </g>
        <g>
          <path class="cls-3" d="M232.75,171.33c1.92.78,2.64,1.59,2.64,2.95,0,1.68-1.37,2.76-3.47,2.76-1.08,0-2.13-.34-2.82-.77l.08-2.07h.72l.44,1.9c.46.23.87.33,1.47.33,1.35,0,2.22-.62,2.22-1.75,0-.91-.48-1.38-1.72-1.86l-.56-.25c-1.55-.65-2.5-1.48-2.5-2.92,0-1.69,1.39-2.65,3.26-2.65.98,0,1.74.29,2.39.75l-.08,1.92h-.73l-.44-1.82c-.34-.18-.68-.25-1.09-.25-1.16,0-1.96.56-1.96,1.64,0,.91.56,1.43,1.56,1.83l.58.26Z"/>
          <path class="cls-3" d="M246.62,167.69l-1.29.18-.03,5.02c-.01,2.92-1.34,4.15-3.41,4.15s-3.55-1.1-3.55-3.91v-1.48c0-1.26,0-2.55-.04-3.82l-1.17-.13v-.47h4.13v.47l-1.39.16c-.03,1.25-.03,2.51-.03,3.8v1.18c0,2.44.88,3.26,2.38,3.26,1.64,0,2.48-.95,2.47-3.45l-.03-4.76-1.5-.19v-.47h3.43v.47Z"/>
          <path class="cls-3" d="M257.73,167.69l-1.2.18-.04,9.01h-.68l-5.79-8.03.04,7.29,1.59.2v.47h-3.43v-.47l1.2-.18.05-8.1-.18-.23-1-.13v-.47h2.43l5.2,7.23-.03-6.57-1.6-.19v-.47h3.43v.47Z"/>
        </g>
        <path class="cls-3" d="M181.78,169.75c-1.14,0-2.06-.92-2.06-2.06s.92-2.06,2.06-2.06,2.06.92,2.06,2.06-.92,2.06-2.06,2.06Z"/>
        <g>
          <path class="cls-3" d="M119.29,176.06v1.12h-14.49v-1.12l5.39-.7c.04-2.1.07-4.24.07-6.3v-14.25l-4.9.52v-1.33l8.26-2.03.49.39-.1,5.53v11.17c0,2.07.04,4.17.07,6.3l5.22.7Z"/>
          <path class="cls-3" d="M139.8,164.79c0,9.35-4.03,12.92-8.26,12.92s-8.3-3.57-8.3-12.92,3.99-13.02,8.3-13.02,8.26,3.68,8.26,13.02ZM131.54,176.31c2.27,0,4.41-2.45,4.41-11.52s-2.14-11.59-4.41-11.59-4.45,2.45-4.45,11.59,2.07,11.52,4.45,11.52Z"/>
        </g>
        <g>
          <path class="cls-3" d="M203.37,176.06v1.12h-14.49v-1.12l5.39-.7c.04-2.1.07-4.24.07-6.3v-14.25l-4.9.52v-1.33l8.26-2.03.49.39-.1,5.53v11.17c0,2.07.04,4.17.07,6.3l5.22.7Z"/>
          <path class="cls-3" d="M223.11,176.06v1.12h-14.49v-1.12l5.39-.7c.04-2.1.07-4.24.07-6.3v-14.25l-4.9.52v-1.33l8.26-2.03.49.39-.1,5.53v11.17c0,2.07.04,4.17.07,6.3l5.22.7Z"/>
        </g>
      </g>
      <rect class="cls-3" x="33.8" y="185.2" width="225.84" height="39.76"/>
      <g>
        <path class="cls-1" d="M53.15,199.49c-.14.14-.38.19-.78.21-.59,1.04-1.71,2.88-2.5,3.87,1.83,1.23,2.5,2.73,2.5,4.02.02,1.57-.62,2.38-2.38,2.45,0-.4-.07-.86-.21-1.04-.14-.16-.48-.26-.9-.33v-.26h1.26c.19,0,.29-.02.45-.1.28-.16.45-.47.45-1.07,0-1.16-.43-2.42-1.6-3.62.45-1.05,1.05-2.97,1.45-4.28h-2.23v13.88c0,.1-.41.45-1.09.45h-.22v-15.46l1.54.64h1.93l.83-.81,1.5,1.47ZM62.21,206.9c-.12.16-.31.21-.69.09-1.02.76-2.28,1.42-3.31,1.79,1.1,1.62,2.66,2.76,4.56,3.49l-.03.17c-.59.09-1.05.5-1.29,1.14-2.83-1.62-4.38-4.12-5.04-8.34h-1.69v6.14c1-.22,2.07-.47,3.14-.72l.07.26c-1.33.66-3.12,1.47-5.56,2.38-.07.21-.24.36-.4.41l-.81-1.66c.52-.09,1.29-.22,2.21-.41v-13.44l1.57.66h4.35l.74-.83,1.57,1.23c-.1.14-.4.28-.76.36v6.02s-.07.07-.17.12l1.55,1.14ZM54.7,199.36v2.31h4.76v-2.31h-4.76ZM54.7,204.74h4.76v-2.57h-4.76v2.57ZM56.72,205.24c.28,1.23.73,2.31,1.29,3.23.79-.66,1.79-1.66,2.55-2.67-.24.12-.6.22-.88.22h-.22v-.78h-2.74Z"/>
        <path class="cls-1" d="M73.41,211.8c.86.12,1.85.16,2.97.16.98,0,3.28,0,4.38-.03v.24c-.5.1-.76.59-.79,1.16h-3.69c-4,0-6.2-.74-7.54-4.11-.76,1.73-1.97,3.35-3.92,4.47l-.17-.19c2.3-1.97,3.26-5.13,3.57-7.8l2.02.41c-.07.22-.26.36-.64.38-.17.76-.38,1.54-.69,2.3.74,1.47,1.73,2.28,3.11,2.71v-7.63h-5.11l-.14-.5h9.47l.88-1.04s.24.17.55.4c.24-.52.53-1.31.74-1.93h-11.06c.03,1.21-.47,2.02-1,2.38-.48.35-1.19.31-1.38-.17-.19-.41.09-.81.48-1.05.74-.4,1.43-1.43,1.36-2.61l.28-.02c.1.34.19.67.22.97h4.68v-2.59l2.04.21c-.03.24-.19.41-.62.47v1.92h4.95l.81-.85,1.48,1.43c-.14.12-.31.16-.66.19-.5.55-1.4,1.36-2.09,1.85.28.21.59.45.83.67-.03.19-.21.28-.45.28h-4.88v3.33h2.88l.86-1.1s1.02.76,1.62,1.33c-.05.19-.21.28-.45.28h-4.92v4.11Z"/>
        <path class="cls-1" d="M94.86,211.56v2.13h-11.3v-1.71c1.51-1.51,2.96-3.09,4.17-4.34,2.79-2.91,3.94-5.05,3.94-7.25s-1.31-3.74-3.36-3.74c-.4,0-.93.05-1.48.18l-.55,2.01c-.33,1.26-.8,1.73-1.51,1.73-.58,0-1.05-.3-1.33-.83.38-2.81,2.79-4.17,5.52-4.17,3.54,0,5.12,1.93,5.12,4.69,0,2.36-1.28,4.24-5.5,8.23-.78.75-1.96,1.88-3.21,3.06h9.49Z"/>
        <path class="cls-1" d="M109.45,212.84v.85h-10.14v-.85l3.92-.55c.02-1.46.05-2.94.05-4.39v-10.14l-3.66.35v-.95l5.65-1.46.38.28-.1,3.94v7.98c0,1.46.02,2.94.05,4.39l3.87.55Z"/>
        <path class="cls-1" d="M112.86,212.06c.54-1.24,1.02-3.09,1.24-4.85l1.79.47c-.07.22-.26.36-.62.36-.48,1.6-1.24,3.16-2.14,4.18l-.28-.16ZM117.6,203.31c3.45,1.78,2.26,4.35,1.07,3.3-.03-.4-.14-.85-.31-1.29-.36.1-.76.21-1.21.33v7.63c0,.1-.41.38-1.05.38h-.21v-7.7c-.6.16-1.28.31-2.02.48-.09.21-.26.33-.43.35l-.52-1.48c.41-.02,1.04-.05,1.78-.1,1.05-1.64,2.24-3.76,3-5.32l1.76.81c-.09.19-.33.31-.71.26-.83,1.17-2.17,2.85-3.43,4.21.86-.05,1.86-.14,2.9-.21-.24-.57-.55-1.1-.85-1.54l.22-.1ZM117.74,198.58c-.09.17-.31.31-.67.28-.62.83-1.36,1.73-2.05,2.42,1.26,1.05.48,2.33-.43,1.67-.17-.81-.97-1.83-1.6-2.42l.17-.14c.6.16,1.09.36,1.45.59.41-.9.88-2.09,1.28-3.19l1.86.79ZM117.83,207.17c3.19,2.04,1.88,4.49.76,3.4-.02-1.05-.53-2.42-.97-3.31l.21-.09ZM128.08,211.76s.74.72,1.17,1.23c-.03.17-.19.26-.43.26h-10.2l-.14-.48h2.09v-14.24l1.54.64h3.64l.79-.86,1.54,1.26c-.12.16-.43.29-.79.36v12.84h.12l.67-1ZM121.88,199.65v3.95h4.06v-3.95h-4.06ZM125.94,204.1h-4.06v3.97h4.06v-3.97ZM121.88,212.77h4.06v-4.18h-4.06v4.18Z"/>
      </g>
      <rect class="cls-1" x="134.69" y="193.73" width="115.34" height="23.22"/>
      <g>
        <path class="cls-3" d="M150.92,210.48c-.2.01-.25.03-.51.07-1.34.21-2.6.32-3.8.32-1.43,0-2.63-.17-3.35-.45-1.1-.44-1.67-1.17-1.67-2.19,0-.96.52-1.83,1.68-2.82l.86.65c-.9.75-1.33,1.38-1.33,2.03,0,.61.4,1.04,1.16,1.3.51.16,1.44.25,2.55.25,1.74,0,3.44-.23,4.26-.55l.13,1.38ZM142.48,200.71c.92.23,2.17.34,3.78.34,1.78,0,2.91-.08,3.71-.28l.07,1.13c-.88.37-2.19,1.17-3.61,2.2l-.86-.69c.92-.61,1.17-.76,1.74-1.09.16-.08.18-.1.37-.2l.27-.14c-.83.11-1.33.16-2.1.16-.93,0-2.13-.07-2.98-.18-.25-.03-.3-.03-.48-.04l.1-1.2ZM149.59,203.25c.66.79.99,1.27,1.48,2.19l-.83.47c-.44-.88-.89-1.58-1.47-2.23l.82-.42ZM151.2,202.49c.66.78.97,1.21,1.48,2.15l-.82.47c-.41-.82-.83-1.45-1.45-2.19l.79-.42Z"/>
        <path class="cls-3" d="M162.15,205.3c.72-1.1,1.13-1.89,1.58-3.12l1.06.4c-.44,1-.86,1.76-1.48,2.72h1.92c.85,0,1.23-.03,1.58-.1v1.17c-.45-.06-.92-.08-1.61-.08h-3.7c.85,1.06,1.09,1.33,1.78,1.91,1.14.97,2.31,1.69,3.71,2.27-.3.34-.48.59-.71,1.03-1.52-.78-2.48-1.43-3.46-2.33-.71-.65-1.19-1.21-1.96-2.3.04.72.06,1.13.06,1.47v2.37c0,.59.03.96.1,1.4h-1.26c.07-.42.1-.8.1-1.4v-2.36c0-.44.01-.69.04-1.45-.96,1.43-1.57,2.12-2.55,2.94-.76.62-1.61,1.19-2.48,1.67-.25-.45-.37-.61-.72-.99,1.41-.65,2.75-1.58,3.77-2.58.48-.47.76-.82,1.38-1.64h-3.43c-.58,0-1.03.03-1.57.08v-1.17c.47.07.88.1,1.57.1h3.99v-3.51h-3.32c-.56,0-1.03.03-1.52.08v-1.16c.49.07.92.1,1.57.1h3.27v-.45c0-.45-.01-.75-.08-1.14h1.21c-.06.37-.07.61-.07,1.16v.44h3.54c.82,0,1.24-.03,1.61-.1v1.16c-.42-.06-.88-.08-1.55-.08h-3.6v3.51h1.23ZM157.08,202.13c.58.92.8,1.35,1.34,2.57l-.96.47c-.42-1.12-.71-1.69-1.3-2.6l.92-.44Z"/>
        <path class="cls-3" d="M174.07,207.47c-.61.62-1.03.96-1.92,1.51-.18-.28-.35-.49-.56-.68-.68.35-1.76.88-2.5,1.19-.21.08-.41.18-.55.27l-.27-1.2c.56-.11.61-.11,1.76-.58v-4.25h-.55c-.45,0-.8.01-1.19.07v-1.1c.37.06.71.07,1.21.07h.52v-1.91c0-.68-.03-1.14-.08-1.55h1.21c-.06.44-.08.88-.08,1.57v1.89h.32c.52,0,.8-.01,1.1-.06v1.07c-.38-.04-.72-.06-1.1-.06h-.32v3.78c.44-.2.61-.3,1.09-.58v.89c1.03-.66,1.69-1.33,2.1-2.12h-.71c-.59,0-.99.03-1.28.08v-1.06c.3.06.66.08,1.3.08h6.08c.68,0,1.09-.03,1.41-.08v1.03c-.32-.04-.79-.06-1.41-.06h-4.32c-.2.35-.31.54-.58.92h4.62c.68,0,1-.01,1.4-.06q-.04.24-.14,1.57c-.06,1.02-.23,2.1-.41,2.72-.14.47-.4.78-.76.9-.23.08-.61.13-1.14.13-.23,0-.58-.01-1.13-.06-.06-.42-.13-.68-.34-1.07.65.1,1.19.16,1.59.16.48,0,.65-.07.76-.3.2-.45.38-1.71.47-3.15h-.83c-.37.86-.78,1.54-1.3,2.16-.42.49-1.23,1.26-1.76,1.67-.32.25-.59.44-1.17.78-.27-.38-.37-.49-.75-.78,1.17-.61,1.75-1.02,2.51-1.75.61-.61,1.09-1.3,1.44-2.07h-1.24c-.78,1.31-2.09,2.46-3.9,3.4-.17-.31-.35-.51-.68-.78,1.61-.71,2.79-1.61,3.49-2.63h-1.41ZM174.49,204c-.58,0-.95.01-1.3.06.04-.37.06-.75.06-1.31v-1.91c0-.62-.01-.83-.06-1.24.44.06.73.07,1.38.07h3.82c.66,0,1.06-.01,1.47-.07-.04.4-.06.66-.06,1.33v1.83c0,.62.01,1.02.06,1.28-.3-.03-.72-.04-1.28-.04h-4.09ZM174.27,201.43h4.53v-.9h-4.53v.9ZM174.27,203.18h4.53v-.95h-4.53v.95Z"/>
        <path class="cls-3" d="M183.73,203.15c-.17.9-.3,1.31-.59,2.12-.42-.25-.59-.34-.92-.45.32-.78.49-1.37.65-2.3.11-.64.18-1.31.18-1.79,0-.13,0-.21-.01-.4l1.06.16c-.03.18-.04.23-.06.47-.03.32-.08.71-.16,1.23h.89v-1.79c0-.47-.03-.8-.1-1.17h1.23c-.07.35-.1.69-.1,1.17v1.79h.25c.54,0,.89-.03,1.21-.08v1.13c-.37-.06-.72-.07-1.14-.07h-.32v2.68q.18-.08,1.21-.55l.1.68c.35.06.78.08,1.45.08h3.87v-1.5h-3.94c-.66,0-1.1.03-1.48.08v-1.13c.37.06.82.08,1.48.08h1.88v-1.75h-1.44c-.55,0-1,.03-1.37.07v-1.11c.37.06.79.08,1.37.08h1.44v-.54c0-.42-.03-.78-.08-1.11h1.21c-.06.34-.08.66-.08,1.1v.55h1.83c.58,0,1-.03,1.37-.08v1.11c-.38-.04-.82-.07-1.37-.07h-1.83v1.75h2.29c.66,0,1.1-.03,1.47-.08v1.13c-.37-.06-.86-.08-1.41-.08h-.28v1.5h.3c.65,0,1.03-.01,1.38-.08v1.13c-.42-.06-.8-.08-1.38-.08h-.3v3.81c0,.88-.37,1.13-1.64,1.13-.4,0-.83-.01-1.38-.06-.04-.49-.1-.75-.25-1.13.65.11,1.23.17,1.64.17.51,0,.59-.06.59-.4v-3.53h-3.95c-.59,0-.96.03-1.38.08v-.83c-.4.23-.51.27-1.3.64v3.73c0,.56.03,1.06.1,1.54h-1.23c.06-.34.1-.93.1-1.54v-3.29q-1.89.75-2.07.85l-.32-1.19c.55-.08,1.28-.31,2.4-.73v-3.11h-1.04ZM188.73,207.38c.8.76,1.31,1.34,1.98,2.26l-.89.66c-.55-.9-1.1-1.61-1.91-2.36l.82-.56Z"/>
        <path class="cls-3" d="M201.5,209.57c-1.52,1.37-2.51,1.96-4.33,2.58-.31-.51-.45-.68-.79-.99,1.04-.27,1.6-.48,2.37-.9.72-.38,1.09-.66,1.83-1.33l.92.64ZM200.86,200.61c0-.64-.01-.89-.08-1.24h1.17c-.07.37-.08.64-.08,1.26v.58h2.03v-.58c0-.66-.01-.92-.08-1.26h1.19c-.07.37-.1.66-.1,1.26v.58h1.93c.69,0,1.07-.01,1.35-.04-.04.28-.06.64-.06,1.14v5.29c.59,0,.89-.03,1.3-.08v1.14c-.42-.06-.88-.08-1.52-.08h-9.96c-.64,0-1.1.03-1.52.08v-1.14c.41.06.66.07,1.28.08v-5.29c0-.51-.01-.82-.06-1.14.35.03.72.04,1.31.04h1.91v-.59ZM200.86,202.16h-2.12v2.13h2.12v-2.13ZM200.86,205.25h-2.12v2.34h2.12v-2.34ZM203.89,204.29v-2.13h-2.03v2.13h2.03ZM203.89,207.6v-2.34h-2.03v2.34h2.03ZM204.79,208.95c.78.65,1.16.92,1.91,1.3.88.48,1.47.69,2.53.97-.32.38-.44.55-.69,1.02-1.03-.32-1.64-.61-2.47-1.09-.75-.44-1.2-.78-2.1-1.55l.83-.65ZM207.08,204.29v-2.13h-2.19v2.13h2.19ZM207.08,207.6v-2.34h-2.19v2.34h2.19Z"/>
        <path class="cls-3" d="M211.86,201.29c.61.16,1.37.21,2.63.21h.34q.03-.31.08-1c.01-.17.04-.68.04-.8,0-.04-.01-.11-.03-.23l1.28.08c-.13.38-.18.85-.28,1.91,2.27-.11,4.29-.41,5.36-.78l.07,1.17c-.2.01-.25.03-.51.07-1.6.27-3.68.49-5,.54-.07,1.07-.08,1.19-.08,1.74.73-.18,1.28-.25,1.99-.25.27,0,.44.01.79.04.17-.44.27-.83.32-1.21l1.16.34c-.03.06-.17.41-.44,1.07,1.88.44,2.99,1.68,2.99,3.32,0,1.44-.78,2.58-2.27,3.34-.83.42-1.64.65-2.89.79-.14-.47-.23-.66-.54-1.13.85-.03,1.43-.13,2.1-.35,1.52-.54,2.4-1.52,2.4-2.72,0-1.13-.75-1.93-2.13-2.31-.82,1.86-1.61,3.11-2.75,4.23-1.12,1.11-2.17,1.67-3.19,1.67-1.12,0-1.91-.93-1.91-2.23,0-1.79,1.23-3.39,3.29-4.29q.01-1.02.07-2h-.47c-.16,0-.8-.01-1.95-.06-.13-.01-.23-.01-.25-.01-.06,0-.14,0-.25.01v-1.14ZM213.31,206.71c-.52.62-.8,1.31-.8,1.99,0,.73.38,1.21.96,1.21.48,0,.93-.2,1.51-.68-.18-1.02-.27-2.06-.27-3.64-.66.38-1.03.68-1.4,1.11ZM215.94,208.53q.1-.14.34-.44c.88-1.06,1.37-1.86,1.93-3.18-.25-.03-.32-.03-.61-.03-.62,0-1.28.11-1.86.32.03,1.72.04,1.91.14,2.91.01.14.03.27.03.32v.08h.03Z"/>
        <path class="cls-3" d="M228.28,204.48q.03-.1.1-.38c.18-.76.45-1.38.85-1.98.78-1.13,1.71-1.71,2.78-1.71.96,0,1.75.42,2.33,1.26.62.9.89,1.96.89,3.53,0,2.6-1.17,4.56-3.37,5.62-.69.32-1.55.61-2.58.82-.21-.56-.31-.73-.64-1.16,1.35-.18,2.09-.4,2.94-.86,1.65-.92,2.41-2.36,2.41-4.59s-.76-3.46-2.09-3.46c-1,0-1.91.79-2.68,2.36-.52,1.03-.78,2.09-.78,3.15v.34l-1.21.03c.01-.07.01-.13.01-.16,0-.04,0-.13-.01-.27,0-.14-.03-1.65-.03-1.82,0-1.43.1-2.63.47-5.22.03-.21.03-.28.03-.45l1.3.1c-.17.49-.21.69-.56,3.16-.13.89-.16,1.2-.2,1.69h.06Z"/>
        <path class="cls-3" d="M239.86,208.22c.03-.35.03-.49.03-.82v-.72l-.14-4.95c-.01-.61-.04-1.07-.1-1.59h1.65c-.06.54-.08,1.02-.1,1.59l-.14,4.95c-.01.23-.01.4-.03.54v.21c0,.17.01.48.04.79h-1.21ZM239.7,211.01v-1.5h1.55v1.5h-1.55Z"/>
        <path class="cls-3" d="M244.38,208.22c.03-.35.03-.49.03-.82v-.72l-.14-4.95c-.01-.61-.04-1.07-.1-1.59h1.65c-.06.54-.08,1.02-.1,1.59l-.14,4.95c-.01.23-.01.4-.03.54v.21c0,.17.01.48.04.79h-1.21ZM244.22,211.01v-1.5h1.55v1.5h-1.55Z"/>
      </g>
      <g>
        <path class="cls-2" d="M41.74,123.81c.38.41.66.79,1.17.79,1.56,0,6.96-.62,8.31-.78.38-.05.6-.41.93-.41.6,0,1.96,1.15,1.96,1.74,0,.53-.63.36-1.19.81-.91.76-2.38,2.02-4.14,3.21.83.72,1.38,1.54,1.38,2.42,0,.51-.34.79-.78.79-.69,0-.66-1.04-2.16-2.76-.79-.98-1.61-1.68-2.31-2.21l.16-.25c1.05.33,2.21.88,3.15,1.57,1.47-1.24,2.83-2.76,3.41-3.72.12-.21.04-.33-.17-.31-1.65.13-5.83.73-7.14,1.08-.38.09-.72.48-1.1.48-.52,0-1.32-.76-1.54-1.3-.1-.24-.18-.6-.19-1.05l.24-.11Z"/>
        <path class="cls-2" d="M58.99,123.81c.38.41.66.79,1.17.79,1.56,0,6.96-.62,8.31-.78.38-.05.6-.41.93-.41.6,0,1.96,1.15,1.96,1.74,0,.53-.63.36-1.19.81-.91.76-2.38,2.02-4.14,3.21.83.72,1.38,1.54,1.38,2.42,0,.51-.34.79-.78.79-.69,0-.66-1.04-2.16-2.76-.79-.98-1.61-1.68-2.31-2.21l.16-.25c1.05.33,2.21.88,3.15,1.57,1.47-1.24,2.83-2.76,3.41-3.72.12-.21.04-.33-.17-.31-1.65.13-5.83.73-7.14,1.08-.38.09-.72.48-1.1.48-.52,0-1.32-.76-1.54-1.3-.1-.24-.18-.6-.19-1.05l.24-.11Z"/>
        <path class="cls-2" d="M89.5,128.3c-.08.12-.3.22-.6.12-.5.38-1.5,1.01-2.38,1.44.78,1.29,1.83,2.29,3.13,2.82l-.02.16c-.52.14-.94.62-1.12,1.32-2.08-1.42-3.01-3.78-3.46-7.27h-.97v5.11c.67-.15,1.39-.31,2.12-.49l.04.21c-.84.48-2.07,1.2-3.86,2.11-.04.18-.17.3-.31.36l-.96-1.54c.39-.08.97-.2,1.68-.34v-5.42h-.88c-.12,2.44-.65,5.23-2.94,7.2l-.19-.12c1.63-2.52,1.81-5.67,1.81-8.55v-1.28c-.08.04-.17.08-.29.08h-1.62v2.68c.57-.18,1.17-.36,1.77-.54l.06.2c-.49.31-1.09.71-1.83,1.16v4.75c0,1.04-.2,1.61-1.8,1.77-.03-.44-.1-.78-.28-.99-.2-.24-.5-.39-1.1-.48v-.23s1.25.09,1.52.09c.24,0,.3-.07.3-.27v-3.84c-.36.2-.74.41-1.12.63-.06.2-.18.34-.34.41l-.65-1.7c.42-.09,1.19-.3,2.12-.57v-3.08h-1.77l-.12-.44h1.89v-3.49l1.92.19c-.04.21-.2.36-.55.42v2.88h.15l.69-1.06s.63.63,1.06,1.14v-2.91l1.59.6h4.91l.83-1.07s.92.74,1.48,1.26c-.04.17-.2.24-.41.24h-7.05v3.42c0,.35,0,.69-.02,1.05h5.28l.81-1.06s.92.73,1.49,1.26c-.04.17-.2.24-.41.24h-3.75c.24.97.58,1.9,1.04,2.71.6-.75,1.3-1.82,1.62-2.4l1.51,1.1ZM86.45,124.01l.76-1.02s.89.71,1.43,1.21c-.05.17-.2.24-.41.24h-5.49l-.12-.43h3.83Z"/>
        <path class="cls-2" d="M98.96,132.81c3.73-.78,5.31-2.79,5.31-5.45s-1.86-4.45-4.32-4.45c-.18,0-.38.01-.57.03.42.48.85,1.12.85,1.79,0,.74-.17,1.67-.5,2.55-.64,1.86-2.35,4.67-4.05,4.67-1.12,0-2.21-1.72-2.21-3.64,0-1.44.69-3.14,2.12-4.35,1.21-1.06,2.75-1.59,4.48-1.59,3.29,0,5.71,2.24,5.71,5.36,0,2.68-1.81,5.16-6.78,5.41l-.06-.31ZM98.77,123.06c-1,.24-2,.78-2.73,1.54-.9.95-1.42,2.05-1.42,3.32s.57,2.4,1.19,2.4c.92,0,2.26-2.19,2.79-3.39.36-.81.61-1.8.61-2.54,0-.51-.19-.94-.43-1.33Z"/>
        <path class="cls-2" d="M115.42,128.15c1.22-.58,2.49-1.04,3.96-1.04,1.88,0,3.2,1.09,3.2,2.92,0,1.56-1.21,2.91-3.21,2.91-1.25,0-2.16-.67-2.85-1.83l.21-.21c.55.5,1.3.9,2.32.9,1.37,0,2.21-.89,2.21-2.1,0-1.06-.64-1.98-2.23-1.98-1.16,0-2.46.6-3.58,1.27.08,2.13.27,2.64.27,3.21,0,.72-.51,1.56-1.05,1.56-.45,0-.46-.56-.93-1-.38-.36-.96-.81-1.47-1.16-.44.45-.6.67-.86.67-.22,0-.42-.12-.6-.3-.24-.25-.34-.54-.34-.84,0-.48.1-.6.49-.58.39.04.6-.03.89-.2.49-.27,1.63-1.15,2.67-1.75v-2.62c-.54.13-1.19.25-1.61.25-.84,0-1.56-.27-2.07-1.77l.23-.17c.74.71,1.04.85,1.75.84.46-.01,1.09-.15,1.7-.31,0-.99.01-1.89,0-2.27,0-.4-.09-.46-.33-.55-.27-.1-.6-.13-1.04-.15l-.03-.25c.38-.25.76-.4,1.25-.4.69,0,1.75.51,1.75.92s-.24.63-.34,1.11c-.06.29-.12.72-.18,1.25.96-.39,1.38-.78,1.64-.79.21,0,.97.01,1,.57,0,.27-.2.49-.54.67-.54.27-1.46.57-2.21.81-.03.63-.06,1.29-.06,1.88v.54ZM114.5,129.6c-.68.5-1.38,1.17-1.94,1.71.53.24,1.11.51,1.51.64.32.11.42-.01.42-.3v-2.05ZM119.09,123.21c.67-.2,1.35-.3,2.08-.18,1.33.21,2.4,1.23,2.43,2.27.01.4-.18.75-.62.76-.36.04-.6-.41-1.04-.34-.3.03-.92.25-1.25.38l-.13-.23c.3-.19.96-.63,1.16-.82.18-.2.21-.33.06-.58-.52-.78-1.69-.98-2.67-.93l-.03-.31Z"/>
        <path class="cls-2" d="M138.16,124.74c-.13.15-.3.2-.69.21-.63.84-1.39,1.61-2.28,2.29,1.79.83,3.93,1.35,5.97,1.62l-.03.18c-.58.12-.97.57-1.14,1.21-.48-.11-.95-.24-1.4-.38h.02c-.08.1-.25.22-.51.27v3.63c-.02.11-.72.38-1.2.38h-.23v-1h-4.99v.64c0,.11-.45.41-1.16.41h-.24v-4.41c-.94.31-1.96.58-3.03.78l-.12-.22c2.37-.72,4.59-1.82,6.33-3.15-.62-.54-1.14-1.12-1.59-1.78-1.06.96-2.38,1.84-3.85,2.43l-.13-.17c1.98-1.28,3.67-3.36,4.42-4.93l2.01.48c-.06.17-.22.25-.66.27-.19.25-.41.52-.64.78h2.92l.88-.78,1.33,1.24ZM129.52,122.52c.03,1.07-.38,1.8-.84,2.15-.42.33-1.07.31-1.28-.15-.18-.42.08-.79.44-1.04.58-.33,1.21-1.25,1.21-2.25h.24c.09.3.15.58.19.86h3.87v-1.8l2.03.18c-.03.21-.17.36-.56.42v1.2h4.02l.79-.79,1.36,1.33c-.1.12-.27.15-.57.17-.48.54-1.37,1.23-2.03,1.65l-.15-.1c.19-.48.46-1.23.63-1.82h-9.38ZM136.82,129.24c-.9-.38-1.75-.84-2.5-1.38-.88.58-1.84,1.08-2.91,1.51l.46.18h4.67l.29-.32ZM136.67,132.72v-2.75h-4.99v2.75h4.99ZM132.61,124.71c-.13.15-.3.3-.45.45.53.57,1.17,1.08,1.92,1.52.71-.62,1.31-1.28,1.77-1.96h-3.24Z"/>
        <path class="cls-2" d="M147.86,125.91c3.03,1.37,1.8,3.48.77,2.52-.06-.67-.41-1.5-.77-2.13v7.47c0,.17-.57.42-1.06.42h-.29v-6.24c-.54,1.04-1.21,1.96-2.05,2.79l-.2-.2c1.09-1.71,1.75-3.94,2.12-6.19h-1.83l-.12-.43h2.08v-3.62l1.89.2c-.03.22-.15.38-.54.43v2.99h.29l.72-1s.79.7,1.28,1.2c-.04.17-.2.24-.39.24h-1.89v1.56ZM158.14,128.55c-.09.15-.22.21-.55.12-.55.42-1.39.94-2.19,1.35.87,1.11,2.04,1.68,3.21,2.04l-.02.17c-.52.15-.88.66-1.04,1.32-1.66-1.03-2.7-2.37-3.25-5.08v4.05c0,.93-.21,1.56-1.78,1.69-.03-.39-.09-.71-.25-.9-.2-.2-.48-.35-1.1-.44v-.21s1.2.09,1.47.09c.24,0,.3-.09.3-.29v-2.04c-.65.58-1.54,1.44-2.76,2.49-.03.2-.12.35-.27.42l-1.05-1.38c.71-.24,2.4-1,4.08-1.78v-2.97h-3.32l-.12-.43h3.44v-1.61h-2.67l-.12-.42h2.79v-1.45h-3.11l-.12-.44h4.56c.27-.78.61-1.83.82-2.58l1.86.53c-.06.18-.22.3-.57.29-.43.5-1.12,1.2-1.75,1.77h1.38l.78-.96s.88.66,1.41,1.16c-.04.17-.2.24-.39.24h-3.51v1.45h1.37l.76-.96s.89.66,1.4,1.14c-.03.17-.17.24-.38.24h-3.15v1.61h1.92l.78-1.02s.88.7,1.42,1.21c-.04.17-.19.24-.4.24h-3.72v.39c.2.87.51,1.57.9,2.14.53-.67,1.12-1.62,1.41-2.19l1.53,1ZM150.22,127.73c3.16.83,1.92,3.1.81,2.16-.01-.69-.5-1.54-.96-2.06l.15-.1ZM150.97,120.33c3.19.88,1.93,3.22.76,2.26-.06-.75-.5-1.62-.92-2.17l.15-.09Z"/>
        <path class="cls-2" d="M169.96,126.21c2.43,1.05,3.54,2.52,3.54,4.26,0,1.51-1.21,3.33-4.09,3.33-2.21,0-3.29-1.29-3.29-3.15,0-.34.03-.76.09-1.23-1.41-.36-2.2-1.14-2.2-2.03s.81-1.7,1.89-2.26c-.38-.12-.67-.24-1.04-.5-.5-.36-.78-.79-.95-1.68l.23-.12c.36.51.75.94,1.39,1.18.58.21,1.16.3,1.68.34.25-.97.45-1.71.48-2.07.01-.34-.12-.48-.38-.63-.21-.11-.48-.2-.72-.25v-.29c.3-.08.6-.13.97-.13.84,0,1.84.85,1.84,1.32,0,.33-.24.48-.42.83-.18.33-.36.71-.57,1.29h.19c.65.09.89.45.89.78,0,.36-.26.48-.66.51-.23.01-.54.01-.87-.02-.24.72-.53,1.65-.74,2.55.67.03,1.23,0,1.56.03.46.03.76.23.76.65,0,.38-.29.6-.88.67-.42.04-1.04.04-1.7-.03-.06.36-.09.71-.09,1,0,1.44.9,2.08,2.29,2.08,1.8,0,2.89-1.18,2.89-2.55,0-1.68-.97-2.66-2.31-3.67l.18-.22ZM166.39,128.18c.15-.88.33-1.8.5-2.52-.98.06-2.24.81-2.24,1.49,0,.46.54.85,1.74,1.04Z"/>
        <path class="cls-2" d="M186.49,125.21c.53,2.8,2.21,5.68,6.52,7.51l-.03.17c-.75.13-1.21.54-1.38,1.35-3.78-2.19-4.95-5.83-5.37-8.82-.43,3.55-1.88,6.63-7.18,8.82l-.17-.24c4.27-2.44,5.5-5.4,5.85-8.79h-5.56l-.14-.44h5.73c.12-1.41.1-2.89.1-4.44l2.13.21c-.04.22-.18.38-.54.43-.03,1.3-.04,2.58-.15,3.79h3.79l.97-1.23s1.11.84,1.77,1.42c-.04.17-.21.24-.42.24h-5.94Z"/>
        <path class="cls-2" d="M206.84,123.78c.23,4.26.96,7.16,3.48,8.85l-.03.18c-.66.15-1.06.6-1.21,1.39-1.53-1.5-2.13-4.25-2.37-7.6-.25,3.04-1.05,5.65-4.06,7.59l-.21-.21c.43-.39.79-.81,1.12-1.23h-4.72v.83c0,.09-.42.41-1.1.41h-.22v-6.31c-.44.42-.9.82-1.39,1.17l-.15-.18c.97-1.08,1.79-2.47,2.34-3.9h-2l-.12-.44h2.27c.19-.58.36-1.17.45-1.74h-.61c-.53.63-1.12,1.15-1.73,1.56l-.19-.15c.6-.88,1.21-2.31,1.57-3.73l1.86.69c-.06.17-.25.29-.57.27-.18.33-.39.63-.6.93h2.92l.78-.94s.85.63,1.42,1.14c-.04.17-.2.24-.41.24h-2.83c-.18.58-.41,1.17-.67,1.74h1.96l.76-.97s.86.67,1.37,1.17c-.03.17-.18.24-.39.24h-3.92c-.32.6-.67,1.17-1.09,1.71l.46.19h1.08c.09-.51.18-1.21.24-1.69l1.79.34c-.04.18-.21.32-.54.33-.27.32-.64.69-1.03,1.02h1.44l.67-.84s.75.58,1.23,1.04c-.04.17-.2.24-.41.24h-2.07v1.41h.6l.63-.84s.69.6,1.11,1.03c-.03.17-.17.24-.38.24h-1.96v1.42h.6l.63-.83s.71.58,1.14,1.02c-.04.17-.18.24-.39.24h-1.98v1.51h.78l.72-.92s.54.41,1,.83c1.53-2.43,1.54-5.29,1.58-8.45h-.15c-.54.99-1.19,1.83-1.95,2.48l-.21-.14c.85-1.44,1.57-3.63,1.89-5.83l1.93.54c-.07.19-.24.33-.58.33-.24.78-.52,1.51-.85,2.19h2.71l.75-.72,1.29,1.25c-.12.12-.29.15-.58.17-.45.78-1.32,1.9-1.98,2.61l-.18-.1c.27-.75.6-1.92.79-2.76h-1.53ZM198.83,127.1v1.41h1.33v-1.41h-1.33ZM200.17,128.94h-1.33v1.42h1.33v-1.42ZM198.83,132.32h1.33v-1.51h-1.33v1.51Z"/>
        <path class="cls-2" d="M216.64,131.28c1.06,1.12,2.17,1.29,4.88,1.29,1.75,0,4.11,0,5.98-.06v.19c-.58.12-.9.53-.97,1.19h-5c-2.83,0-4.04-.41-5.08-2.34-.55.73-1.46,1.74-2.02,2.31.03.18-.06.27-.2.34l-.84-1.6c.5-.2,1.2-.53,1.92-.88v-4.5h-1.8l-.09-.44h1.68l.72-.97,1.58,1.3c-.11.12-.33.24-.75.3v3.87ZM214.1,120.75c4.09.97,2.89,3.93,1.49,2.88-.18-.96-.93-2.1-1.61-2.78l.12-.1ZM218.15,121.32l1.3.42c.5-.51,1-1.11,1.33-1.5l1.41,1.09s-.08.09-.13.1l1.26.51h1.77l.63-.74,1.44,1.09c-.1.12-.31.23-.58.29v6.34c0,.97-.18,1.53-1.65,1.67-.02-.41-.06-.76-.21-.95-.14-.21-.38-.36-.87-.43v-.23s.9.06,1.14.06c.21,0,.25-.08.25-.27v-6.4h-2.1v9.3c0,.09-.42.41-1.08.41h-.21v-10.63c-.06-.02-.12-.03-.18-.04-.53.25-1.47.61-2.22.88v6.72c.71-.18,1.5-.41,2.28-.63l.06.19c-.81.5-1.96,1.2-3.6,2.1-.04.18-.17.31-.31.38l-.95-1.41c.29-.06.71-.17,1.21-.29v-8.04Z"/>
        <path class="cls-2" d="M235.25,132.06c0-.6.5-1.12,1.12-1.12s1.11.52,1.11,1.12-.5,1.09-1.11,1.09-1.12-.5-1.12-1.09ZM237.38,122.73c0,.69-.18,2.04-.51,4.3l-.27,2.37h-.48l-.27-2.37c-.33-2.26-.51-3.61-.51-4.3s.41-1.09,1.04-1.09,1,.38,1,1.09Z"/>
        <path class="cls-2" d="M242.45,132.06c0-.6.5-1.12,1.12-1.12s1.11.52,1.11,1.12-.5,1.09-1.11,1.09-1.12-.5-1.12-1.09ZM244.58,122.73c0,.69-.18,2.04-.51,4.3l-.27,2.37h-.48l-.27-2.37c-.33-2.26-.51-3.61-.51-4.3s.41-1.09,1.04-1.09,1,.38,1,1.09Z"/>
      </g>
    </g>
  </g>
</svg>