<?xml version="1.0" encoding="UTF-8"?><svg id="_レイヤー_2" xmlns="http://www.w3.org/2000/svg" viewBox="0 0 335 60"><defs><style>.cls-1{fill:#484947;}.cls-2{fill:#fad7d4;}</style></defs><g id="_レイヤー_1-2"><rect class="cls-2" width="335" height="60"/><path class="cls-1" d="M128.95,25.49c-.05,1.71-.05,3.46-.05,5.24v.99c0,1.73,0,3.49.05,5.22l1.87.2v.65h-5.35v-.65l1.87-.2c.05-1.71.05-3.46.05-5.22v-.99c0-1.75,0-3.51-.05-5.24l-1.87-.2v-.63h5.35v.63l-1.87.2Z"/><path class="cls-1" d="M145.69,37.21v.58h-4.41v-.58l1.53-.22c.02-.99.04-2.38.04-3.31v-1.8c0-1.87-.54-2.49-1.69-2.49-.88,0-1.8.38-2.95,1.44v2.84c0,.92.02,2.3.04,3.3l1.42.23v.58h-4.39v-.58l1.51-.22c.04-1.01.05-2.39.05-3.31v-.99c0-1.13-.04-1.89-.07-2.74l-1.6-.12v-.58l2.59-.96.25.18.14,1.66c1.04-1.15,2.4-1.85,3.6-1.85,1.64,0,2.47.99,2.47,3.53v1.87c0,.94.02,2.3.05,3.3l1.42.23Z"/><path class="cls-1" d="M153.98,32.55c1.91.7,2.63,1.57,2.63,2.77,0,1.42-1.24,2.72-3.69,2.72-1.08,0-1.93-.25-2.88-.7l-.07-2.11h.86l.4,1.75c.49.21,1.03.34,1.69.34,1.6,0,2.36-.67,2.36-1.64,0-.88-.56-1.33-1.87-1.82l-.9-.34c-1.44-.52-2.38-1.28-2.38-2.61,0-1.4,1.17-2.63,3.29-2.63,1.04,0,1.84.27,2.7.77l-.07,1.94h-.79l-.32-1.6c-.49-.27-.99-.4-1.51-.4-1.31,0-1.98.61-1.98,1.49s.5,1.3,1.84,1.8l.7.25Z"/><path class="cls-1" d="M166.39,37.14c-.5.58-1.24.9-2.16.9-1.37,0-2.12-.74-2.12-2.27,0-.45.02-.86.02-1.57v-4.84h-1.76v-.67l1.84-.22.43-2.67h.99l-.11,2.72h2.7v.83h-2.72v6.34c0,1.06.43,1.51,1.17,1.51.47,0,.86-.16,1.37-.52l.36.45Z"/><path class="cls-1" d="M178.97,37.11c-.43.65-.94.9-1.57.9-.92,0-1.49-.61-1.66-1.6-1.1,1.12-1.82,1.64-2.99,1.64-1.44,0-2.59-.83-2.59-2.38,0-1.21.7-2.09,3.15-2.97.7-.22,1.57-.47,2.39-.65v-.58c0-1.98-.59-2.47-1.96-2.47-.38,0-.79.04-1.26.2l-.4,1.33c-.14.52-.41.79-.88.79s-.76-.25-.79-.68c.38-1.48,1.78-2.36,3.69-2.36s2.97.9,2.97,3.24v4.27c0,1.04.29,1.37.77,1.37.32,0,.54-.14.81-.43l.31.38ZM175.71,32.62c-.74.2-1.53.45-2.02.65-1.75.67-2.07,1.42-2.07,2.14,0,1.08.68,1.57,1.66,1.57.76,0,1.28-.32,2.43-1.24v-3.11Z"/><path class="cls-1" d="M191.46,29.56l-2.05-.02c.38.5.58,1.15.58,1.95,0,2.05-1.46,3.22-3.44,3.22-.56,0-1.06-.09-1.51-.25-.4.5-.61.9-.61,1.39,0,.56.31.95,1.31.95h2.65c2,0,2.97.85,2.97,2.39,0,1.67-1.57,3.31-4.68,3.31-2.74,0-4.03-.99-4.03-2.45,0-.86.54-1.57,1.89-2.21-.79-.22-1.26-.7-1.26-1.44,0-.65.36-1.28,1.31-2.14-.92-.52-1.49-1.46-1.49-2.77,0-2.04,1.48-3.21,3.47-3.21.94,0,1.75.25,2.36.72l2.23-.7.31.2v1.06ZM185.84,38.02c-.36,0-.67-.02-.95-.05-.61.59-.9,1.12-.9,1.85,0,1.33,1.06,1.95,2.7,1.95,2.25,0,3.44-.97,3.44-2.16,0-.9-.54-1.58-1.98-1.58h-2.3ZM188.65,31.45c0-1.5-.77-2.52-2.09-2.52s-2.14,1.04-2.14,2.57.79,2.56,2.09,2.56,2.14-1.08,2.14-2.61Z"/><path class="cls-1" d="M198.37,30.84c.65-1.58,1.8-2.56,2.94-2.56.58,0,1.17.25,1.37.65,0,.77-.31,1.22-1.01,1.22-.45,0-.79-.22-1.15-.52l-.25-.22c-.85.56-1.42,1.39-1.87,2.63v1.64c0,.92.02,2.29.04,3.3l1.66.23v.58h-4.59v-.58l1.48-.22c.04-1.01.05-2.39.05-3.31v-.99c0-1.15-.04-1.89-.07-2.74l-1.6-.12v-.58l2.59-.96.25.18.18,2.36Z"/><path class="cls-1" d="M215.26,37.11c-.43.65-.94.9-1.57.9-.92,0-1.49-.61-1.66-1.6-1.1,1.12-1.82,1.64-2.99,1.64-1.44,0-2.59-.83-2.59-2.38,0-1.21.7-2.09,3.15-2.97.7-.22,1.57-.47,2.39-.65v-.58c0-1.98-.59-2.47-1.96-2.47-.38,0-.79.04-1.26.2l-.4,1.33c-.14.52-.41.79-.88.79s-.76-.25-.79-.68c.38-1.48,1.78-2.36,3.69-2.36s2.97.9,2.97,3.24v4.27c0,1.04.29,1.37.77,1.37.32,0,.54-.14.81-.43l.31.38ZM212,32.62c-.74.2-1.53.45-2.02.65-1.75.67-2.07,1.42-2.07,2.14,0,1.08.68,1.57,1.66,1.57.76,0,1.28-.32,2.43-1.24v-3.11Z"/><path class="cls-1" d="M235.11,37.21v.58h-4.38v-.58l1.53-.22c.02-1.01.04-2.38.04-3.31v-1.84c0-1.87-.59-2.43-1.73-2.43-.85,0-1.75.34-2.86,1.44.04.29.05.61.05.96v1.87c0,.94.02,2.3.04,3.3l1.42.23v.58h-4.38v-.58l1.53-.22c.02-.99.04-2.38.04-3.31v-1.8c0-1.84-.56-2.47-1.67-2.47-.88,0-1.73.38-2.84,1.4v2.86c0,.92.02,2.3.04,3.3l1.42.23v.58h-4.39v-.58l1.51-.22c.04-1.01.05-2.39.05-3.31v-.99c0-1.15-.04-1.91-.07-2.74l-1.6-.12v-.58l2.59-.96.25.18.14,1.66c1.03-1.13,2.29-1.85,3.48-1.85s1.98.56,2.29,1.89c1.04-1.28,2.32-1.89,3.58-1.89,1.55,0,2.47.95,2.47,3.38v2.02c0,.94.02,2.3.04,3.3l1.42.23Z"/><path class="cls-1" d="M54.86,14.38c5.34,0,5.97.02,8.08.12,1.95.09,3.01.41,3.71.69.93.36,1.6.8,2.3,1.5.7.7,1.13,1.37,1.5,2.3.27.7.6,1.76.69,3.71.1,2.11.12,2.74.12,8.08s-.02,5.97-.12,8.08c-.09,1.95-.41,3.01-.69,3.71-.36.93-.8,1.6-1.5,2.3s-1.37,1.13-2.3,1.5c-.7.27-1.76.6-3.71.69-2.11.1-2.74.12-8.08.12s-5.97-.02-8.08-.12c-1.95-.09-3.01-.41-3.71-.69-.93-.36-1.6-.8-2.3-1.5-.7-.7-1.13-1.37-1.5-2.3-.27-.7-.6-1.76-.69-3.71-.1-2.11-.12-2.74-.12-8.08s.02-5.97.12-8.08c.09-1.95.41-3.01.69-3.71.36-.93.8-1.6,1.5-2.3s1.37-1.13,2.3-1.5c.7-.27,1.76-.6,3.71-.69,2.11-.1,2.74-.12,8.08-.12M54.86,10.78c-5.43,0-6.11.02-8.25.12-2.13.1-3.58.44-4.85.93-1.32.51-2.43,1.19-3.54,2.31-1.11,1.11-1.8,2.23-2.31,3.54-.49,1.27-.83,2.73-.93,4.85-.1,2.13-.12,2.81-.12,8.25s.02,6.11.12,8.25c.1,2.13.44,3.58.93,4.85.51,1.32,1.19,2.43,2.31,3.54,1.11,1.11,2.23,1.8,3.54,2.31,1.27.49,2.73.83,4.85.93,2.13.1,2.81.12,8.25.12s6.11-.02,8.25-.12c2.13-.1,3.58-.44,4.85-.93,1.32-.51,2.43-1.19,3.54-2.31,1.11-1.11,1.8-2.23,2.31-3.54.49-1.27.83-2.73.93-4.85.1-2.13.12-2.81.12-8.25s-.02-6.11-.12-8.25c-.1-2.13-.44-3.58-.93-4.85-.51-1.32-1.19-2.43-2.31-3.54-1.11-1.11-2.23-1.8-3.54-2.31-1.27-.49-2.73-.83-4.85-.93-2.13-.1-2.81-.12-8.25-.12h0Z"/><path class="cls-1" d="M54.86,20.51c-5.67,0-10.27,4.6-10.27,10.27s4.6,10.27,10.27,10.27,10.27-4.6,10.27-10.27-4.6-10.27-10.27-10.27ZM54.86,37.45c-3.68,0-6.67-2.98-6.67-6.67s2.98-6.67,6.67-6.67,6.67,2.98,6.67,6.67-2.98,6.67-6.67,6.67Z"/><circle class="cls-1" cx="65.53" cy="20.11" r="2.4"/></g></svg>