<?xml version="1.0" encoding="UTF-8"?><svg id="_レイヤー_2" xmlns="http://www.w3.org/2000/svg" viewBox="0 0 186.86 60"><defs><style>.cls-1{fill:#484947;}.cls-2{fill:#fff;}.cls-3{fill:#f2f0f0;}</style></defs><g id="_レイヤー_1-2"><rect class="cls-3" width="186.86" height="60"/><path class="cls-1" d="M97.77,23.47l-.1,2.47h-6.51v-.46l1.22-.13c.02-1.16.02-2.33.02-3.44v-.68c0-1.17,0-2.35-.02-3.49l-1.22-.13v-.46h3.71v.46l-1.24.13c-.02,1.15-.02,2.31-.02,3.48v.88c0,1,0,2.13.02,3.29h3.02l.43-1.91h.68Z"/><path class="cls-1" d="M102.01,17.74c-.02,1.14-.02,2.31-.02,3.49v.65c0,1.15,0,2.31.02,3.47l1.22.14v.46h-3.69v-.46l1.22-.13c.02-1.15.02-2.3.02-3.48v-.65c0-1.17,0-2.34-.02-3.49l-1.22-.13v-.46h3.69v.46l-1.22.13Z"/><path class="cls-1" d="M113.55,17.61l-1.1.16v8.26h-.48l-5.36-7.36.02,6.64,1.4.18v.46h-3.11v-.46l1.1-.16.02-7.44-.13-.17-.94-.12v-.46h2.03l4.86,6.72-.02-6.09-1.4-.17v-.46h3.11v.46Z"/><path class="cls-1" d="M122.09,23.61l-.07,2.34h-6.76v-.46l1.22-.13c.02-1.15.02-2.3.02-3.48v-.65c0-1.17,0-2.34-.02-3.49l-1.22-.13v-.46h6.51l.07,2.31h-.65l-.35-1.74h-3.12c-.02,1.14-.02,2.29-.02,3.48h1.98l.19-1.29h.54v3.09h-.54l-.18-1.27h-1.99c0,1.3,0,2.47.02,3.63h3.37l.35-1.76h.65Z"/><path class="cls-1" d="M127.05,18.39c.18.31.49.6.77.6.66,0,2.81-.62,4.82-1.09,1.34-.32,2.38-.53,2.77-.53.34,0,.67.05.9.16.28.12.42.28.42.49,0,.2-.17.37-.47.37-.26,0-.62-.04-1.04-.04-.56,0-1.37.07-1.99.47-.5.31-1.64,1.39-1.64,3.68,0,1.33.55,1.85,1.02,2.12.76.44,1.79.37,2.23.37.32,0,.75.26.75.6,0,.36-.4.48-.95.48-.76,0-1.86-.07-2.66-.65-.77-.54-1.2-1.29-1.2-2.7,0-1.5.54-3.06,1.9-4.09.08-.06.07-.13-.06-.11-1.36.32-3.05.9-3.77,1.26-.24.12-.49.34-.77.34-.47,0-1.14-.6-1.22-1.07-.04-.22-.01-.42,0-.6l.19-.07ZM134.48,19.94c.61.24,1.12.5,1.44.8.28.25.38.47.38.7,0,.22-.13.36-.34.36-.18,0-.31-.25-.55-.55-.24-.31-.56-.71-1.09-1.1l.16-.2ZM135.53,19.14c.62.2,1.13.42,1.43.67.31.25.43.48.43.74,0,.22-.11.34-.31.34s-.34-.25-.58-.55c-.26-.29-.54-.6-1.1-1l.13-.2Z"/><path class="cls-1" d="M64.73,40.5c.02,1.58.38,2.71,3.05,2.71,2,0,2.88-.48,3.2-.48.35,0,.8.19.8.52,0,.28-.12.4-.53.54-.59.19-1.69.38-3.27.38-3.19,0-4.04-1.5-3.55-3.66h.3ZM66.25,38.26c.56-.37,1.27-.86,1.69-1.15.12-.1.11-.13-.06-.13-1.36,0-2.27-.11-3.02-1.16l.16-.19c.82.53,1.37.64,2.33.64,1.46,0,1.75-.26,2.24-.26s1.2.26,1.2.6c0,.24-.14.36-.48.42-.35.07-.73.12-1.28.31-.64.22-1.73.72-2.63,1.16l-.14-.23ZM70.55,34.83c.62.24,1.13.5,1.43.79.29.26.41.48.4.72,0,.22-.13.34-.32.34s-.34-.24-.55-.54c-.24-.31-.56-.7-1.09-1.1l.14-.2ZM71.61,34.09c.62.19,1.12.42,1.42.66.32.26.43.49.43.74,0,.23-.1.35-.3.35s-.34-.25-.59-.55c-.25-.29-.53-.6-1.1-1.01l.14-.19Z"/><path class="cls-1" d="M86.31,38.88c-.1.1-.24.13-.5.14-.66.75-1.94,1.8-2.9,2.4l-.13-.1c.59-.66,1.36-1.73,1.8-2.52h-3.38v4.75c0,.74-.22,1.25-1.64,1.37-.02-.31-.13-.55-.35-.71-.23-.16-.61-.29-1.36-.38v-.17s1.7.11,2.03.11c.24,0,.32-.07.32-.25v-4.71h-4.93l-.11-.34h6.08c-.38-.62-1.42-1.61-2.88-2.3l.07-.17c1.09.17,1.88.43,2.45.72.71-.46,1.59-1.09,2.18-1.61h-6.42l-.1-.35h6.74l.65-.6,1.04,1.01c-.11.08-.24.11-.53.12-.78.53-2.22,1.16-3.33,1.57,1,.62,1.04,1.36.72,1.61h2.77l.64-.62,1.07,1.03Z"/><path class="cls-1" d="M87.68,43.79c.37-.86.71-2.12.86-3.32l1.21.31c-.05.14-.17.24-.43.25-.32,1.08-.84,2.16-1.45,2.85l-.19-.1ZM91.07,37.76c2.47,1.15,1.68,2.89.85,2.19-.05-.29-.16-.6-.29-.91l-.9.22v5.36c0,.07-.3.29-.74.29h-.16v-5.43c-.44.1-.94.2-1.46.31-.07.16-.19.24-.31.25l-.3-1.02c.3,0,.78-.02,1.36-.06.72-1.1,1.5-2.58,1.97-3.68l1.3.52c-.06.13-.22.23-.48.19-.55.86-1.47,2.03-2.4,2.95.61-.05,1.29-.1,2-.14-.18-.36-.38-.7-.58-.96l.14-.07ZM91.11,34.33c-.05.13-.2.24-.46.22-.4.62-.9,1.27-1.38,1.76,1.02.74.49,1.7-.17,1.26-.16-.59-.73-1.29-1.2-1.69l.11-.11c.4.1.71.22.96.36.28-.64.58-1.48.8-2.28l1.33.48ZM91.23,40.39c2.31,1.38,1.44,3.12.62,2.36-.06-.72-.43-1.68-.77-2.29l.14-.07ZM98.81,36.7c-.1.11-.25.18-.52.2-.11,3.96-.36,6.68-1,7.39-.38.41-.89.59-1.58.59,0-.3-.06-.56-.25-.71-.23-.18-.84-.34-1.43-.44v-.19c.66.06,1.69.16,2,.16.25,0,.36-.05.49-.18.48-.42.71-3.2.82-6.75h-3.48c-.4.74-.85,1.4-1.37,1.93l-.17-.11c.62-1.17,1.21-2.94,1.51-4.68l1.39.42c-.06.13-.18.25-.44.25-.22.64-.47,1.26-.74,1.83h3.17l.55-.59,1.04.88ZM93.87,38.34c2.84,1.34,1.96,3.44,1.02,2.63-.06-.85-.64-1.88-1.15-2.54l.13-.08Z"/><path class="cls-1" d="M103.48,40.85c0-2.17,1.48-3.31,3.01-3.31s3.02,1.13,3.02,3.31-1.49,3.26-3.02,3.26-3.01-1.1-3.01-3.26ZM108.3,40.85c0-1.82-.67-2.81-1.81-2.81s-1.81.98-1.81,2.81.66,2.76,1.81,2.76,1.81-.95,1.81-2.76Z"/><path class="cls-1" d="M113.31,39.25c.43-1.08,1.19-1.71,1.92-1.71.41,0,.79.18.95.49,0,.55-.22.9-.74.9-.31,0-.56-.14-.82-.37l-.16-.14c-.54.4-.89.94-1.14,1.74v1.03c0,.61.01,1.52.02,2.2l1.09.16v.41h-3.19v-.41l.96-.14c.01-.66.02-1.59.02-2.21v-.68c0-.74-.01-1.2-.04-1.73l-1.04-.11v-.4l1.85-.72.18.12.13,1.58Z"/><path class="cls-1" d="M124.65,40.18c1-.49,2.05-.86,3.24-.86,1.44,0,2.46.86,2.46,2.27,0,1.22-.95,2.27-2.5,2.27-.92,0-1.69-.46-2.28-1.33l.19-.18c.46.4,1.06.72,1.87.72,1.14,0,1.8-.73,1.8-1.69,0-.88-.54-1.58-1.82-1.58-.95,0-2.01.49-2.95,1.02.05,1.67.19,2.1.19,2.54,0,.55-.36,1.16-.77,1.16-.31,0-.32-.4-.71-.76-.28-.26-.8-.65-1.24-.93-.35.33-.49.49-.68.49-.16,0-.29-.1-.42-.23-.18-.18-.25-.37-.25-.59,0-.32.07-.42.36-.4.32.04.48-.02.71-.16.41-.24,1.33-.96,2.16-1.43v-2.2c-.43.1-.96.2-1.31.2-.63,0-1.16-.16-1.62-1.31l.19-.14c.6.58.8.71,1.42.68.36-.01.84-.11,1.32-.24,0-.84.01-1.59,0-1.88-.01-.3-.07-.35-.26-.42-.2-.07-.46-.08-.78-.1l-.04-.22c.28-.17.58-.28.92-.28.49,0,1.31.4,1.31.71,0,.29-.18.48-.26.86-.06.24-.11.62-.14,1.08.84-.32,1.21-.68,1.44-.68.19-.01.66.02.67.38,0,.2-.14.36-.41.49-.43.22-1.19.48-1.76.66-.04.53-.05,1.07-.05,1.58v.47ZM124.01,41.2c-.55.4-1.15.94-1.63,1.38.43.22.95.46,1.28.6.26.1.35.01.35-.23v-1.75ZM127.65,36.18c.56-.14,1.08-.2,1.63-.11,1,.17,1.86.98,1.88,1.78.01.28-.11.52-.4.54-.28.05-.43-.3-.8-.24-.22.02-.7.23-.95.34l-.13-.19c.24-.16.79-.5.95-.66.14-.16.16-.26.02-.46-.44-.65-1.37-.77-2.18-.72l-.02-.28Z"/><path class="cls-1" d="M134.48,38.02v6.52c0,.12-.32.36-.76.36h-.17v-10.72l.97.47h2.19l.47-.52,1,.78c-.07.07-.24.17-.44.2v3.31c-.01.07-.47.26-.77.26h-.14v-.67h-2.35ZM134.48,34.99v1.15h2.35v-1.15h-2.35ZM136.83,37.67v-1.19h-2.35v1.19h2.35ZM141.09,39.95c-.07.08-.24.18-.46.22v2.85c-.01.08-.46.3-.76.3h-.16v-.71h-2.69v.61c0,.07-.4.29-.78.29h-.13v-4.23l.96.42h2.53l.47-.52,1.01.77ZM139.72,42.25v-2.22h-2.69v2.22h2.69ZM143.85,34.93c-.07.08-.26.19-.5.23v8.49c0,.7-.16,1.09-1.37,1.2-.04-.26-.1-.48-.26-.6-.17-.14-.44-.25-.97-.32v-.18s1.14.08,1.38.08c.23,0,.29-.08.29-.28v-5.53h-2.45v.3c0,.1-.4.29-.78.29h-.12v-4.38l.96.42h2.27l.46-.58,1.1.85ZM139.96,34.99v1.15h2.45v-1.15h-2.45ZM142.41,37.67v-1.19h-2.45v1.19h2.45Z"/><path class="cls-1" d="M152.07,34.18c-.04.14-.19.2-.5.23,1.07,1.51,3.09,2.67,5.13,3.42v.17c-.44.11-.76.47-.84.83-1.93-.96-3.69-2.48-4.51-4.26-1.12,1.75-3.49,3.71-5.8,4.7l-.08-.17c2.04-1.16,4.4-3.59,5.01-5.3l1.59.38ZM153.98,39.88l1.12.86c-.08.1-.28.19-.52.24v3.54c-.01.07-.53.28-.84.28h-.16v-.82h-5v.6c0,.08-.43.31-.84.31h-.16v-4.91l1.07.47h4.8l.53-.58ZM152.82,37.46s.71.55,1.15.96c-.04.13-.16.18-.32.18h-5.31l-.1-.34h3.95l.64-.8ZM153.58,43.63v-2.83h-5v2.83h5Z"/><path class="cls-1" d="M164.43,34.94c.29-.13.58-.25.83-.25.62,0,1.37.5,1.37.86,0,.2-.23.3-.25.73-.02.35-.05.78-.07,1.28.92-.19,1.56-.3,1.8-.3.53,0,1.04.22,1.04.65,0,.29-.2.37-.56.37-.5,0-.92-.11-1.82-.02-.16.01-.31.04-.49.06-.04.83-.11,1.87-.24,2.4-.12.56-.43.94-.92.94-.2,0-.32-.06-.44-.31-.18-.38-.72-.61-1.2-.84l.08-.24c.54.16,1.14.3,1.35.3.2,0,.34-.04.42-.31.08-.35.14-1.17.17-1.81-1.13.2-2.42.5-3.29.76-.05,1.03-.07,2.17-.05,2.7.04,1.2.28,1.38,1.8,1.38s2.46-.32,2.81-.32c.43,0,.82.17.82.52,0,.25-.16.38-.56.48-.49.12-1.5.2-2.72.2-1.81,0-2.81-.37-2.87-1.79-.04-.67-.02-1.8-.04-2.91-1.33.46-1.85.78-2.17.78-.35,0-.82-.43-1.01-.89-.08-.17-.07-.42-.07-.67l.18-.07c.2.31.5.62.79.62.26,0,1.45-.3,2.28-.5,0-.8,0-1.52-.04-1.89-.04-.35-.1-.42-.29-.5-.18-.08-.47-.11-.7-.13v-.24c.24-.1.54-.2.85-.2.54,0,1.33.47,1.33.8,0,.23-.2.29-.25.77-.02.25-.05.68-.07,1.19.84-.2,2.25-.54,3.29-.77,0-.7.01-1.62-.02-2.11-.01-.19-.11-.3-.32-.36-.2-.05-.43-.07-.71-.1l-.02-.23Z"/><rect class="cls-1" x="17.41" y="10.26" width="40" height="40" rx="12.58" ry="12.58"/><path class="cls-2" d="M50.75,28.38c0-5.97-5.98-10.82-13.34-10.82s-13.34,4.86-13.34,10.82c0,5.35,4.74,9.83,11.15,10.68.43.09,1.03.29,1.17.66.13.34.09.87.04,1.21,0,0-.16.94-.19,1.14-.06.34-.27,1.32,1.16.72,1.42-.6,7.68-4.52,10.48-7.74h0c1.93-2.12,2.86-4.27,2.86-6.66Z"/><path class="cls-1" d="M46.31,31.82h-3.75c-.14,0-.25-.11-.25-.25h0v-5.81h0c0-.15.11-.26.25-.26h3.75c.14,0,.25.11.25.25v.95c0,.14-.11.25-.25.25h-2.55v.98h2.55c.14,0,.25.11.25.25v.95c0,.14-.11.25-.25.25h-2.55v.98h2.55c.14,0,.25.11.25.25v.95c0,.14-.11.25-.25.25Z"/><path class="cls-1" d="M32.45,31.82c.14,0,.25-.11.25-.25v-.95c0-.14-.11-.25-.25-.25h-2.55v-4.62c0-.14-.11-.25-.25-.25h-.95c-.14,0-.25.11-.25.25v5.82h0c0,.15.11.26.25.26h3.75Z"/><rect class="cls-1" x="33.51" y="25.49" width="1.46" height="6.33" rx=".25" ry=".25"/><path class="cls-1" d="M41.14,25.49h-.95c-.14,0-.25.11-.25.25v3.46l-2.66-3.6s-.01-.02-.02-.03c0,0,0,0,0,0,0,0,0-.01-.02-.02,0,0,0,0,0,0,0,0,0,0-.01-.01,0,0,0,0,0,0,0,0,0,0-.01,0,0,0,0,0,0,0,0,0,0,0-.01,0,0,0,0,0,0,0,0,0,0,0-.01,0,0,0,0,0,0,0,0,0-.01,0-.02,0,0,0,0,0,0,0,0,0-.01,0-.02,0,0,0,0,0-.01,0,0,0,0,0-.01,0,0,0,0,0-.01,0,0,0,0,0,0,0h-.94c-.14,0-.25.11-.25.25v5.82c0,.14.11.25.25.25h.95c.14,0,.25-.11.25-.25v-3.46l2.67,3.6s.04.05.07.06c0,0,0,0,0,0,0,0,.01,0,.02,0,0,0,0,0,0,0,0,0,0,0,.01,0,0,0,0,0,.01,0,0,0,0,0,0,0,0,0,.01,0,.02,0,0,0,0,0,0,0,.02,0,.04,0,.07,0h.94c.14,0,.25-.11.25-.25v-5.82c0-.14-.11-.25-.25-.25Z"/></g></svg>