<?xml version="1.0" encoding="UTF-8"?><svg id="_レイヤー_2" xmlns="http://www.w3.org/2000/svg" viewBox="0 0 187.87 60"><defs><style>.cls-1{fill:#484947;}.cls-2{fill:#fad7d4;}</style></defs><g id="_レイヤー_1-2"><rect class="cls-2" width="187.87" height="60"/><path class="cls-1" d="M86.38,26.15c-.02,1.14-.02,2.31-.02,3.49v.65c0,1.15,0,2.31.02,3.47l1.22.14v.46h-3.69v-.46l1.22-.13c.02-1.15.02-2.3.02-3.48v-.65c0-1.17,0-2.34-.02-3.49l-1.22-.13v-.46h3.69v.46l-1.22.13Z"/><path class="cls-1" d="M95.76,33.94v.41h-3.02v-.41l.97-.14c.01-.66.02-1.57.02-2.21v-1.22c0-1.19-.32-1.6-1.09-1.6-.59,0-1.15.25-1.83.88v1.94c0,.61.01,1.54.02,2.21l.91.14v.41h-3.02v-.41l.97-.14c.01-.67.02-1.59.02-2.21v-.68c0-.74-.01-1.2-.04-1.73l-1.04-.11v-.4l1.85-.72.18.12.11,1.08c.67-.74,1.55-1.21,2.36-1.21,1.12,0,1.68.7,1.68,2.39v1.26c0,.64.01,1.55.02,2.21l.92.14Z"/><path class="cls-1" d="M99.56,30.75c1.3.46,1.8,1.07,1.8,1.89,0,1.01-.88,1.87-2.54,1.87-.76,0-1.33-.17-1.98-.49l-.02-1.44h.62l.29,1.21c.31.14.66.22,1.08.22,1.03,0,1.51-.43,1.51-1.06,0-.58-.36-.88-1.22-1.2l-.61-.2c-.97-.36-1.61-.88-1.61-1.77,0-.97.82-1.83,2.29-1.83.71,0,1.26.19,1.83.54l-.05,1.33h-.59l-.25-1.12c-.31-.16-.62-.24-.95-.24-.84,0-1.28.38-1.28.96s.34.84,1.22,1.16l.46.17Z"/><path class="cls-1" d="M106.11,33.85c-.34.42-.85.67-1.52.67-.94,0-1.49-.48-1.49-1.54,0-.31.01-.6.01-1.09v-3.19h-1.12v-.47l1.18-.14.35-1.77h.76l-.07,1.81h1.76v.58h-1.77v4.23c0,.7.29.98.76.98.31,0,.55-.12.9-.37l.26.3Z"/><path class="cls-1" d="M112.78,33.82c-.3.49-.67.67-1.13.67-.65,0-1.07-.4-1.18-1.03-.72.71-1.18,1.06-1.97,1.06-.96,0-1.74-.55-1.74-1.61,0-.8.46-1.38,2.17-1.99.42-.16.98-.31,1.51-.43v-.41c0-1.3-.37-1.63-1.26-1.63-.23,0-.47.04-.74.11l-.25.9c-.11.41-.32.61-.66.61-.36,0-.55-.18-.59-.5.23-1.01,1.19-1.62,2.54-1.62s2.04.62,2.04,2.25v2.85c0,.62.18.84.48.84.22,0,.36-.12.53-.32l.24.25ZM110.45,30.9c-.47.13-.92.29-1.21.4-1.15.44-1.36.96-1.36,1.44,0,.71.46,1.02,1.07,1.02.47,0,.77-.19,1.5-.77v-2.09Z"/><path class="cls-1" d="M119.37,28.87l-1.33-.04c.22.34.35.75.35,1.26,0,1.38-1,2.17-2.36,2.17-.38,0-.73-.06-1.04-.17-.24.3-.36.55-.36.86,0,.38.18.61.84.61h1.74c1.44,0,2.11.62,2.11,1.67,0,1.14-1.09,2.25-3.24,2.25-1.91,0-2.73-.67-2.73-1.62,0-.56.35-1.01,1.27-1.45-.54-.17-.85-.5-.85-1.02,0-.42.24-.84.9-1.45-.62-.35-1.01-.97-1.01-1.86,0-1.37,1-2.15,2.37-2.15.67,0,1.25.17,1.66.52l1.5-.5.19.13v.78ZM115.54,34.53c-.26,0-.47-.01-.65-.02-.38.38-.54.73-.54,1.19,0,.88.68,1.27,1.71,1.27,1.5,0,2.28-.6,2.28-1.38,0-.59-.35-1.06-1.3-1.06h-1.51ZM117.34,30.07c0-.98-.48-1.67-1.31-1.67s-1.35.7-1.35,1.7.49,1.72,1.31,1.72,1.36-.73,1.36-1.75Z"/><path class="cls-1" d="M122.27,29.66c.43-1.08,1.19-1.71,1.92-1.71.41,0,.79.18.95.49,0,.55-.22.9-.74.9-.31,0-.56-.14-.82-.37l-.16-.14c-.54.4-.89.94-1.14,1.74v1.03c0,.61.01,1.52.02,2.2l1.09.16v.41h-3.19v-.41l.96-.14c.01-.66.02-1.59.02-2.21v-.68c0-.74-.01-1.2-.04-1.73l-1.04-.11v-.4l1.85-.72.18.12.13,1.58Z"/><path class="cls-1" d="M131.84,33.82c-.3.49-.67.67-1.13.67-.65,0-1.07-.4-1.18-1.03-.72.71-1.18,1.06-1.97,1.06-.96,0-1.74-.55-1.74-1.61,0-.8.46-1.38,2.17-1.99.42-.16.98-.31,1.51-.43v-.41c0-1.3-.37-1.63-1.26-1.63-.23,0-.47.04-.74.11l-.25.9c-.11.41-.32.61-.66.61-.36,0-.55-.18-.59-.5.23-1.01,1.19-1.62,2.54-1.62s2.04.62,2.04,2.25v2.85c0,.62.18.84.48.84.22,0,.36-.12.53-.32l.24.25ZM129.51,30.9c-.47.13-.92.29-1.21.4-1.15.44-1.36.96-1.36,1.44,0,.71.46,1.02,1.07,1.02.47,0,.77-.19,1.5-.77v-2.09Z"/><path class="cls-1" d="M143.35,33.94v.41h-3.01v-.41l.97-.14c.01-.66.02-1.57.02-2.21v-1.24c0-1.22-.35-1.57-1.1-1.57-.55,0-1.1.24-1.8.88.02.2.04.42.04.67v1.26c0,.64.01,1.55.04,2.21l.9.14v.41h-3.02v-.41l1-.14c.01-.66.02-1.57.02-2.21v-1.21c0-1.2-.34-1.6-1.08-1.6-.6,0-1.12.25-1.79.86v1.94c0,.61.01,1.54.02,2.21l.91.14v.41h-3.02v-.41l.97-.14c.01-.67.02-1.59.02-2.21v-.68c0-.74,0-1.2-.04-1.73l-1.04-.11v-.4l1.85-.72.18.12.11,1.07c.65-.73,1.49-1.2,2.29-1.2s1.33.37,1.56,1.24c.7-.84,1.54-1.24,2.37-1.24,1.07,0,1.68.66,1.68,2.28v1.37c0,.64.01,1.55.02,2.21l.92.14Z"/><path class="cls-1" d="M55.91,13.86c5.34,0,5.97.02,8.08.12,1.95.09,3.01.41,3.71.69.93.36,1.6.8,2.3,1.5.7.7,1.13,1.37,1.5,2.3.27.7.6,1.76.69,3.71.1,2.11.12,2.74.12,8.08s-.02,5.97-.12,8.08c-.09,1.95-.41,3.01-.69,3.71-.36.93-.8,1.6-1.5,2.3s-1.37,1.13-2.3,1.5c-.7.27-1.76.6-3.71.69-2.11.1-2.74.12-8.08.12s-5.97-.02-8.08-.12c-1.95-.09-3.01-.41-3.71-.69-.93-.36-1.6-.8-2.3-1.5-.7-.7-1.13-1.37-1.5-2.3-.27-.7-.6-1.76-.69-3.71-.1-2.11-.12-2.74-.12-8.08s.02-5.97.12-8.08c.09-1.95.41-3.01.69-3.71.36-.93.8-1.6,1.5-2.3s1.37-1.13,2.3-1.5c.7-.27,1.76-.6,3.71-.69,2.11-.1,2.74-.12,8.08-.12M55.91,10.26c-5.43,0-6.11.02-8.25.12-2.13.1-3.58.44-4.85.93-1.32.51-2.43,1.19-3.54,2.31-1.11,1.11-1.8,2.23-2.31,3.54-.49,1.27-.83,2.73-.93,4.85-.1,2.13-.12,2.81-.12,8.25s.02,6.11.12,8.25c.1,2.13.44,3.58.93,4.85.51,1.32,1.19,2.43,2.31,3.54,1.11,1.11,2.23,1.8,3.54,2.31,1.27.49,2.73.83,4.85.93,2.13.1,2.81.12,8.25.12s6.11-.02,8.25-.12c2.13-.1,3.58-.44,4.85-.93,1.32-.51,2.43-1.19,3.54-2.31,1.11-1.11,1.8-2.23,2.31-3.54.49-1.27.83-2.73.93-4.85.1-2.13.12-2.81.12-8.25s-.02-6.11-.12-8.25c-.1-2.13-.44-3.58-.93-4.85-.51-1.32-1.19-2.43-2.31-3.54-1.11-1.11-2.23-1.8-3.54-2.31-1.27-.49-2.73-.83-4.85-.93-2.13-.1-2.81-.12-8.25-.12h0Z"/><path class="cls-1" d="M55.91,19.99c-5.67,0-10.27,4.6-10.27,10.27s4.6,10.27,10.27,10.27,10.27-4.6,10.27-10.27-4.6-10.27-10.27-10.27ZM55.91,36.93c-3.68,0-6.67-2.98-6.67-6.67s2.98-6.67,6.67-6.67,6.67,2.98,6.67,6.67-2.98,6.67-6.67,6.67Z"/><circle class="cls-1" cx="66.58" cy="19.59" r="2.4"/></g></svg>