<?xml version="1.0" encoding="UTF-8"?><svg id="_レイヤー_2" xmlns="http://www.w3.org/2000/svg" viewBox="0 0 335 60"><defs><style>.cls-1{fill:#484947;}.cls-2{fill:#fff;}.cls-3{fill:#f2f0f0;}</style></defs><g id="_レイヤー_1-2"><rect class="cls-3" width="335" height="60"/><path class="cls-1" d="M86.04,34.21l-.16,3.58h-9.6v-.65l1.87-.2c.05-1.73.05-3.47.05-5.2v-1.01c0-1.78,0-3.53-.05-5.24l-1.87-.2v-.63h5.35v.63l-1.87.2c-.05,1.73-.05,3.49-.05,5.33v1.26c0,1.46,0,3.19.05,4.9h4.75l.58-2.77h.96Z"/><path class="cls-1" d="M93.07,25.49c-.05,1.71-.05,3.46-.05,5.24v.99c0,1.73,0,3.49.05,5.22l1.87.2v.65h-5.35v-.65l1.87-.2c.05-1.71.05-3.46.05-5.22v-.99c0-1.75,0-3.51-.05-5.24l-1.87-.2v-.63h5.35v.63l-1.87.2Z"/><path class="cls-1" d="M111.28,25.3l-1.67.23-.02,12.41h-.59l-8.01-11.11.02,10.08,2.09.23v.65h-4.63v-.65l1.69-.22.02-11.24-.16-.23-1.48-.18v-.61h2.81l7.45,10.43-.02-9.54-2.11-.25v-.63h4.61v.63Z"/><path class="cls-1" d="M124.9,34.39l-.13,3.4h-9.99v-.65l1.87-.2c.05-1.71.05-3.46.05-5.22v-.99c0-1.75,0-3.51-.05-5.24l-1.87-.2v-.63h9.63l.13,3.38h-.88l-.49-2.59h-4.92c-.05,1.69-.05,3.46-.05,5.29h3.15l.27-1.95h.74v4.56h-.74l-.25-1.89h-3.17c0,2,0,3.76.05,5.51h5.28l.47-2.59h.9Z"/><path class="cls-1" d="M133.29,26.63c.25.47.74.9,1.13.9.94,0,4.41-1.04,7.38-1.73,2.07-.49,3.47-.74,4.09-.74.47,0,.99.07,1.28.2.4.18.54.38.54.63s-.22.47-.61.47c-.34,0-.88-.05-1.55-.05-.86,0-2.12.11-3.02.67-.81.49-2.61,2.16-2.61,5.76,0,1.96.81,2.77,1.53,3.22,1.17.7,2.75.59,3.49.59.43,0,1.03.31,1.03.76s-.49.59-1.3.59c-1.04,0-2.83-.07-4.05-1.01-1.13-.83-1.73-1.91-1.73-3.94s.67-4.5,2.7-6.1c.13-.11.11-.22-.09-.16-2.02.49-4.57,1.33-5.65,1.84-.36.16-.72.45-1.1.45-.67,0-1.57-.79-1.73-1.4-.07-.29-.05-.56-.07-.83l.34-.11ZM144.34,28.81c.9.36,1.6.79,2.05,1.21.43.41.61.72.61,1.08,0,.29-.16.47-.43.47s-.47-.41-.83-.88c-.4-.43-.88-1.01-1.66-1.57l.25-.31ZM145.93,27.6c.9.34,1.62.68,2.04,1.04.49.4.67.74.67,1.12,0,.31-.14.47-.41.47-.29,0-.47-.41-.85-.86-.41-.45-.86-.88-1.67-1.44l.23-.32Z"/><path class="cls-1" d="M155.77,32.75c-.02,2.29.45,4.11,4.61,4.11,3.11,0,4.39-.7,4.88-.7.45,0,.99.25.99.63,0,.32-.2.5-.74.68-.83.27-2.43.59-4.93.59-4.57,0-5.92-2.14-5.29-5.31h.49ZM158.11,29.26c.9-.58,2.04-1.31,2.68-1.75.2-.13.18-.18-.07-.2-2.11.04-3.4-.11-4.74-1.57l.27-.32c1.28.83,2.18.99,3.58.99,2.14,0,2.56-.38,3.26-.38s1.6.34,1.6.76c0,.32-.18.47-.63.54-.5.11-1.04.18-1.94.5-.9.32-2.54,1.15-3.78,1.78l-.23-.36ZM164.41,24.18c.92.38,1.62.81,2.05,1.22.45.4.63.72.63,1.08,0,.31-.18.45-.45.45s-.47-.4-.81-.86c-.38-.45-.88-1.01-1.66-1.57l.23-.32ZM165.98,23.08c.92.32,1.62.67,2.05,1.04.49.4.65.74.65,1.12,0,.31-.12.45-.4.45-.29,0-.47-.41-.86-.86-.41-.43-.85-.88-1.66-1.44l.22-.31Z"/><path class="cls-1" d="M188.91,30.12c-.14.13-.34.18-.74.2-.97,1.17-2.88,2.75-4.32,3.69l-.2-.14c.92-.97,2.18-2.58,2.92-3.78h-5.44v7.33c0,.95-.27,1.62-2.21,1.8-.04-.38-.2-.68-.49-.87-.34-.21-.96-.38-2.02-.5v-.27s2.52.18,3.01.18c.38,0,.5-.13.5-.4v-7.27h-7.53l-.14-.54h9.34c-.58-.92-2.18-2.38-4.46-3.38l.11-.29c1.51.29,2.63.7,3.44,1.12,1.13-.67,2.61-1.64,3.58-2.45h-9.79l-.16-.52h10.32l.88-.79,1.4,1.35c-.14.13-.38.16-.81.18-1.19.81-3.38,1.8-5.06,2.45,1.57.95,1.69,2,1.28,2.34h4.34l.83-.79,1.42,1.37Z"/><path class="cls-1" d="M191.97,37.48c.56-1.26,1.1-3.17,1.35-4.95l1.62.43c-.07.22-.25.38-.65.4-.47,1.58-1.19,3.2-2.05,4.29l-.27-.16ZM197.03,28.54c3.46,1.8,2.47,4.14,1.35,3.26-.07-.42-.25-.88-.47-1.37-.47.11-.97.22-1.51.32v8.03c0,.11-.4.4-.95.4h-.18v-8.19c-.7.14-1.48.29-2.3.43-.11.22-.27.34-.47.36l-.38-1.35c.43,0,1.1-.04,1.93-.09,1.12-1.66,2.36-3.91,3.1-5.56l1.69.67c-.09.2-.34.34-.7.31-.83,1.33-2.2,3.13-3.51,4.56.92-.07,1.98-.16,3.1-.25-.29-.5-.61-1.01-.9-1.39l.22-.13ZM196.92,23.33c-.07.18-.29.32-.65.31-.61.95-1.31,1.98-2.02,2.74,1.44,1.08.79,2.36-.07,1.78-.25-.83-1.13-1.85-1.89-2.45l.18-.16c.58.16,1.03.36,1.39.58.47-.96.96-2.25,1.33-3.44l1.73.65ZM197.31,32.5c3.15,2.14,2.05,4.52.97,3.53-.09-1.08-.7-2.52-1.22-3.46l.25-.07ZM208.51,26.92c-.13.14-.36.25-.76.29-.14,5.67-.54,10.01-1.44,11.07-.54.59-1.26.86-2.21.86,0-.38-.07-.7-.36-.9-.32-.23-1.3-.43-2.14-.59l.02-.32c.95.11,2.56.27,3.01.27.41,0,.56-.07.77-.27.7-.67,1.04-5.01,1.21-10.28h-5.47c-.58,1.12-1.22,2.11-1.93,2.88l-.27-.18c.97-1.71,1.89-4.38,2.38-6.97l1.84.54c-.09.22-.29.36-.65.36-.32.99-.7,1.96-1.12,2.86h5.02l.7-.79,1.41,1.17ZM201.27,29.49c4.07,2.05,2.92,4.99,1.67,3.92-.11-1.26-1.04-2.84-1.87-3.82l.2-.11Z"/><path class="cls-1" d="M220.14,32.6c-.92,0-1.66-.74-1.66-1.66s.74-1.66,1.66-1.66,1.66.74,1.66,1.66-.74,1.66-1.66,1.66Z"/><path class="cls-1" d="M238.05,32.26c1.51-.77,3.17-1.39,4.99-1.39,2.07,0,3.55,1.3,3.55,3.29,0,1.84-1.39,3.33-3.65,3.33-1.28,0-2.45-.56-3.39-1.8l.29-.29c.72.58,1.62,1.08,2.85,1.08,1.78,0,2.77-1.13,2.77-2.56s-.86-2.4-2.79-2.4c-1.5,0-3.17.76-4.59,1.57.07,2.45.27,3.12.27,3.76,0,.81-.49,1.64-1.03,1.64-.41,0-.45-.56-1.03-1.08-.4-.34-1.26-.99-1.93-1.42-.54.5-.77.65-1.03.65-.2,0-.4-.13-.58-.31-.23-.23-.32-.47-.32-.74,0-.41.11-.56.5-.52.49.07.72-.02,1.03-.2.67-.4,2.07-1.49,3.28-2.18v-3.48c-.65.16-1.46.32-1.98.32-.88,0-1.64-.16-2.38-1.8l.3-.23c.92.9,1.19,1.08,2.14,1.04.5-.02,1.19-.13,1.91-.32,0-1.33.02-2.54,0-2.97,0-.4-.07-.47-.36-.56-.31-.11-.67-.13-1.13-.13l-.05-.34c.38-.2.81-.34,1.26-.34.68,0,1.84.58,1.84,1.01s-.27.7-.4,1.28c-.09.38-.16,1.01-.22,1.76,1.4-.52,2-1.12,2.38-1.13.32,0,.79.07.81.47,0,.31-.2.52-.58.7-.67.34-1.8.72-2.67.99-.05.81-.07,1.67-.07,2.5v.77ZM237.24,33.61c-.86.58-1.78,1.37-2.54,2.07.67.34,1.48.76,2.03,1.01.38.16.5.02.5-.32v-2.75ZM242.66,26.16c.9-.18,1.6-.23,2.39-.09,1.39.27,2.68,1.46,2.74,2.59.02.36-.11.67-.45.7-.41.09-.58-.38-1.15-.27-.31.04-1.01.36-1.39.54l-.2-.32c.36-.23,1.19-.74,1.44-.99.2-.22.22-.36.02-.65-.72-1.01-2.11-1.13-3.37-1.04l-.04-.47Z"/><path class="cls-1" d="M253.62,28.93v9.78c0,.18-.4.47-.92.47h-.21v-15.93l1.22.59h3.57l.59-.67,1.37,1.03c-.11.13-.36.29-.68.34v4.97c-.02.09-.59.36-.95.36h-.16v-.94h-3.82ZM253.62,24.36v1.75h3.82v-1.75h-3.82ZM257.43,28.41v-1.8h-3.82v1.8h3.82ZM263.59,31.78c-.11.13-.34.27-.67.32v4.39c-.02.11-.59.4-.95.4h-.18v-1.08h-4.32v.97c0,.11-.5.36-.97.36h-.18v-6.28l1.21.54h4.11l.61-.67,1.35,1.04ZM261.79,35.31v-3.38h-4.32v3.38h4.32ZM267.77,24.23c-.13.14-.43.31-.79.36v12.87c0,.92-.2,1.48-1.87,1.64-.05-.32-.14-.63-.38-.77-.27-.18-.72-.32-1.53-.43v-.27s1.8.13,2.18.13.45-.11.45-.41v-8.41h-3.96v.47c0,.13-.49.38-.97.38h-.16v-6.48l1.22.54h3.69l.61-.76,1.51,1.15ZM261.86,24.36v1.75h3.96v-1.75h-3.96ZM265.82,28.41v-1.8h-3.96v1.8h3.96Z"/><path class="cls-1" d="M280.94,23.1c-.05.22-.29.29-.72.32,1.58,2.27,4.57,4.21,7.74,5.47l-.04.27c-.52.09-.94.49-1.06.94-2.97-1.48-5.71-3.83-6.99-6.46-1.67,2.61-5.19,5.58-8.59,7.13l-.14-.27c3.08-1.71,6.72-5.33,7.67-7.92l2.12.52ZM283.97,31.76l1.49,1.15c-.12.14-.41.29-.76.36v5.37c-.02.12-.65.38-1.04.38h-.18v-1.17h-7.87v.92c0,.13-.52.4-1.03.4h-.2v-7.24l1.31.59h7.6l.67-.76ZM282.37,28.12s.95.74,1.57,1.3c-.05.18-.23.27-.49.27h-8.01l-.14-.52h6.25l.83-1.04ZM283.48,37.3v-4.27h-7.87v4.27h7.87Z"/><path class="cls-1" d="M300.6,24.34c.41-.14.77-.29,1.13-.29.87,0,1.93.68,1.93,1.17,0,.31-.34.41-.36,1.04-.04.56-.05,1.28-.09,2.12,1.39-.27,2.5-.47,2.9-.47.74,0,1.39.27,1.39.83,0,.36-.27.45-.77.45-.7,0-1.35-.11-2.61,0-.29.04-.59.07-.94.13-.05,1.28-.16,2.83-.36,3.64-.18.83-.58,1.33-1.22,1.33-.25,0-.4-.05-.59-.4-.27-.54-1.06-.85-1.78-1.15l.13-.4c.79.23,1.67.47,1.98.47.27,0,.45-.07.58-.43.14-.58.25-1.89.29-2.9-1.77.32-3.84.81-5.11,1.15-.02,1.57-.05,3.26-.04,4.09.07,1.93.45,2.16,2.88,2.16,2.21,0,3.57-.45,4.14-.45s1.08.22,1.08.65c0,.36-.22.5-.76.63-.72.16-2.3.29-4.18.29-2.59,0-4-.56-4.09-2.59-.05-.99-.04-2.75-.05-4.46-2.16.67-2.9,1.15-3.38,1.15s-1.19-.63-1.46-1.3c-.11-.22-.09-.56-.09-.9l.27-.11c.29.49.74,1.01,1.17,1.01s2.3-.49,3.49-.79c.02-1.24.02-2.36-.04-2.88-.04-.52-.14-.63-.43-.74-.27-.11-.7-.13-1.04-.16l-.02-.38c.34-.11.74-.23,1.21-.23.67,0,1.82.59,1.82,1.06,0,.32-.29.4-.34,1.1-.05.43-.07,1.15-.11,1.98,1.19-.29,3.46-.83,5.1-1.17.02-1.1.02-2.52-.04-3.24-.02-.29-.16-.43-.47-.5-.29-.07-.65-.11-1.08-.14l-.02-.36Z"/><rect class="cls-1" x="24.16" y="10.08" width="40" height="40" rx="12.58" ry="12.58"/><path class="cls-2" d="M57.49,28.2c0-5.97-5.98-10.82-13.34-10.82s-13.34,4.86-13.34,10.82c0,5.35,4.74,9.83,11.15,10.68.43.09,1.03.29,1.17.66.13.34.09.87.04,1.21,0,0-.16.94-.19,1.14-.06.34-.27,1.32,1.16.72,1.42-.6,7.68-4.52,10.48-7.74h0c1.93-2.12,2.86-4.27,2.86-6.66Z"/><path class="cls-1" d="M53.06,31.65h-3.75c-.14,0-.25-.11-.25-.25h0v-5.81h0c0-.15.11-.26.25-.26h3.75c.14,0,.25.11.25.25v.95c0,.14-.11.25-.25.25h-2.55v.98h2.55c.14,0,.25.11.25.25v.95c0,.14-.11.25-.25.25h-2.55v.98h2.55c.14,0,.25.11.25.25v.95c0,.14-.11.25-.25.25Z"/><path class="cls-1" d="M39.2,31.65c.14,0,.25-.11.25-.25v-.95c0-.14-.11-.25-.25-.25h-2.55v-4.62c0-.14-.11-.25-.25-.25h-.95c-.14,0-.25.11-.25.25v5.82h0c0,.15.11.26.25.26h3.75Z"/><rect class="cls-1" x="40.25" y="25.32" width="1.46" height="6.33" rx=".25" ry=".25"/><path class="cls-1" d="M47.89,25.32h-.95c-.14,0-.25.11-.25.25v3.46l-2.66-3.6s-.01-.02-.02-.03c0,0,0,0,0,0,0,0,0-.01-.02-.02,0,0,0,0,0,0,0,0,0,0-.01-.01,0,0,0,0,0,0,0,0,0,0-.01,0,0,0,0,0,0,0,0,0,0,0-.01,0,0,0,0,0,0,0,0,0,0,0-.01,0,0,0,0,0,0,0,0,0-.01,0-.02,0,0,0,0,0,0,0,0,0-.01,0-.02,0,0,0,0,0-.01,0,0,0,0,0-.01,0,0,0,0,0-.01,0,0,0,0,0,0,0h-.94c-.14,0-.25.11-.25.25v5.82c0,.14.11.25.25.25h.95c.14,0,.25-.11.25-.25v-3.46l2.67,3.6s.04.05.07.06c0,0,0,0,0,0,0,0,.01,0,.02,0,0,0,0,0,0,0,0,0,0,0,.01,0,0,0,0,0,.01,0,0,0,0,0,0,0,0,0,.01,0,.02,0,0,0,0,0,0,0,.02,0,.04,0,.07,0h.94c.14,0,.25-.11.25-.25v-5.82c0-.14-.11-.25-.25-.25Z"/></g></svg>