<?xml version="1.0" encoding="UTF-8"?><svg id="_レイヤー_2" xmlns="http://www.w3.org/2000/svg" viewBox="0 0 424.9 81.42"><g id="_レイヤー_1-2"><g><path d="m53.28,48.31c-3.15,1.96-9.52,5.18-13.86,5.18-2.52,0-4.27-1.05-4.27-3.99,0-1.33.42-2.94,1.19-4.62-8.05,5.04-17.22,9.03-23.94,9.03S0,50.41,0,42.84C0,20.02,30.03,0,50.27,0c9.03,0,11.97,3.22,11.97,7.35,0,11.83-25.2,26.39-37.66,26.39-2.87,0-5.11-.63-5.11-2.38,0-1.54,1.61-2.24,2.03-2.24.07,0,.21,0,.21.21,0,1.54,2.59,1.75,3.71,1.75,12.74,0,33.74-14.7,33.74-24.22,0-4.48-3.43-5.95-9.52-5.95C28.98.91,1.82,22.47,1.82,40.11c0,7.63,4.83,11.69,11.83,11.69,7.42,0,16.1-3.78,23.24-8.33,3.78-7.56,12.53-16.8,15.89-16.8.28,0,.49.07.63.21.28.21.42.49.42.84,0,3.29-6.58,9.8-14.98,15.47-.84,1.96-1.4,3.85-1.4,5.39,0,2.66,1.47,3.57,3.5,3.57,3.29,0,7.98-2.45,9.94-3.57l9.31-5.46c.21-.14.35-.21.49-.21s.28.14.28.28c0,.21-.28.56-.77.84l-6.93,4.27Zm-13.65-6.58c6.93-4.9,11.9-10.22,11.9-12.74,0-.14,0-.21-.07-.28-.07-.07-.14-.07-.28-.07-2.45,0-8.33,6.79-11.55,13.09Z"/><path d="m68.04,50.27c1.89,0,4.62-.63,8.68-2.59,2.17-1.05,7.35-4.06,8.19-4.76.21-.14.35-.21.49-.21s.28.14.28.28c0,.21-.28.56-.77.84,0,0-3.43,2.31-7.49,4.48-2.38,1.26-7.77,3.5-11.62,3.5-2.45,0-4.34-.91-4.34-3.57,0-5.32,11.34-14.7,19.18-14.7,1.33,0,2.31.7,2.31,1.75,0,1.4-1.96,4.06-6.09,5.95-.14.07-.35.14-.63.14-.35,0-.98-.21-.98-.7,0-.35.28-.77.7-.98.63-.35,4.55-2.94,4.55-4.34,0-.42-.42-.7-1.4-.7-5.74,0-15.12,7.7-15.12,12.11,0,.49.07,3.5,4.06,3.5Z"/><path d="m109.69,47.75c-2.38,1.26-6.72,3.92-9.38,3.92-.98,0-1.61-.42-1.61-1.47,0-1.47,1.33-3.78,1.47-4.06,0-.07-.07-.14-.14-.14-.7,0-7,5.32-11.83,5.32-2.1,0-3.08-.84-3.08-2.17,0-4.83,12.11-16.1,21.63-16.1,3.29,0,4.06.98,4.06,2.03,0,2.31-4.62,5.11-6.93,5.95-.14.07-.28.07-.42.07-.49,0-.84-.35-1.05-.7-.07-.14-.14-.28-.14-.42,0-.21.14-.35.56-.56.21-.07,5.67-2.59,5.67-4.41,0-.7-.63-1.26-1.68-1.26-8.68,0-19.18,9.8-19.18,14,0,1.12.77,1.89,2.59,1.89,3.92,0,11.41-5.39,12.46-7,.35-.49.7-.63.98-.63.21,0,.56.14.56.42,0,.42-.7,1.12-1.47,2.24-.35.49-1.26,2.45-1.26,3.92,0,.84.49,1.12,1.19,1.12,1.82,0,5.18-1.96,4.9-1.82,2.1-1.12,7.35-4.06,8.19-4.76.21-.14.35-.21.49-.21s.28.14.28.28c0,.21-.28.56-.77.84,0,0-2.66,1.82-6.09,3.71Z"/><path d="m118.93,44.8c-.98,1.26-1.61,2.38-1.61,3.29,0,1.54.56,2.24,1.68,2.24,2.45,0,7.21-3.36,12.81-8.26,8.12-14.35,33.39-39.76,35.84-39.76.49,0,.7.35.7.84,0,2.94-20.44,26.11-35.98,39.55-.91,1.75-1.4,3.29-1.4,4.41,0,1.68,1.12,2.24,2.45,2.24,2.45,0,4.97-1.47,4.97-1.47,2.1-1.12,7.35-4.06,8.19-4.76.21-.14.35-.21.49-.21s.28.14.28.28c0,.21-.28.56-.77.84,0,0-2.66,1.82-6.09,3.71,0,0-5.6,3.43-8.89,3.43-1.4,0-2.31-.63-2.31-2.31,0-1.26.49-2.87,1.4-4.76-5.81,4.83-10.78,8.12-13.44,8.12-1.33,0-2.1-.84-2.1-2.73,0-4.69,13.23-15.4,19.67-15.4.21,0,.35,0,.49.14.07.07.14.21.14.35,0,1.54-14.49,8.68-16.52,10.22Zm1.4-1.61c1.47-.77,10.57-5.6,10.57-6.44,0-.07,0-.21-.07-.21-2.31,0-7.28,3.36-10.5,6.65Zm13.37-2.8c14-12.67,31.92-33.25,31.92-35.07l-.21-.07c-1.12,0-23.8,22.19-31.71,35.14Z"/><path d="m169.26,33.74c0,2.8-9.52,9.31-18.34,10.57-.42.91-.63,1.75-.63,2.45,0,.49.07,3.5,4.06,3.5,1.89,0,4.62-.63,8.68-2.59,2.17-1.05,7.35-4.06,8.19-4.76.21-.14.35-.21.49-.21s.28.14.28.28c0,.21-.28.56-.77.84,0,0-3.43,2.31-7.49,4.48-2.38,1.26-7.77,3.5-11.62,3.5-2.45,0-4.34-.91-4.34-3.57,0-5.32,11.2-15.75,19.04-15.75,1.75,0,2.45.49,2.45,1.26Zm-17.92,9.87c6.72-1.19,15.61-7,15.61-9.17,0-.49-.49-.84-1.68-.84-4.62,0-11.34,5.53-13.93,10.01Z"/><path d="m188.44,35.35c0,2.73-10.08,10.99-10.08,12.18,0,.07.07.14.21.14,1.19,0,18.27-12.18,20.58-12.18.49,0,.84.63.84,1.12,0,1.19-7.98,9.03-7.98,9.52,0,.07.07.14.21.14.07,0,.21,0,.35-.07l17.22-9.52c.77-.42,1.96-1.4,2.8-1.4.21,0,.35.14.49.28.07.07.07.14.07.28,0,.77-1.33,2.1-2.17,2.94-4.62,5.39-6.09,8.12-6.09,9.31,0,.63.42.91,1.05.91,1.47,0,3.92-1.33,3.92-1.33,2.17-1.05,7.35-4.06,8.19-4.76.21-.14.35-.21.49-.21s.28.14.28.28c0,.21-.28.56-.77.84,0,0-3.43,2.31-7.49,4.48-3.29,1.75-5.46,2.52-6.79,2.52-1.12,0-1.61-.56-1.61-1.4,0-2.24,3.15-6.72,6.79-10.64.21-.21.35-.49.35-.7,0-.14,0-.21-.14-.21-1.05,0-17.99,10.01-21,11.48h-.07c-.21,0-.42-.28-.42-.56,0-1.47,8.82-8.61,8.82-10.64,0-.35-.28-.49-.56-.49-.63,0-17.5,11.2-18.41,11.69-.63.42-1.26.77-1.75.77-.14,0-.28,0-.42-.14-.07-.07-.07-.21-.07-.28,0-1.61,9.03-10.36,9.03-11.62,0-.21-.07-.28-.28-.28-1.26,0-8.61,5.67-10.71,6.93-.21.14-.49.35-.63.35s-.28-.14-.28-.28c0-.21.28-.56.77-.84,1.05-.7,2.03-1.4,2.94-2.1,0,0,10.22-7.35,11.62-7.35.49,0,.7.49.7.84Z"/><path d="m242.62,43.05c.21-.14.35-.21.49-.21s.28.14.28.28c0,.21-.28.56-.77.84-.7.35-3.64,2.45-7.35,4.41-4.41,2.38-8.26,4.69-11.69,6.93-10.99,13.16-21.21,26.11-23.73,26.11-.77,0-1.26-1.05-1.26-1.96,0-5.32,12.25-16.59,24.85-25.06,4.06-4.9,7.56-9.38,9.38-11.76,0,0-11.13,8.96-15.05,8.96-.63,0-1.47-.49-1.47-1.4,0-2.73,9.17-11.48,9.17-11.48.21-.21.42-.35.63-.35.14,0,.21.07.28.14.07.07.07.21.07.35,0,.21-.07.42-.28.63-1.33,1.05-7.28,7.35-7.28,9.38,0,.56.28.98.91.98,2.17,0,8.54-4.83,11.13-6.79,1.61-1.19,7.21-6.23,7.91-7.28.28-.28.7-.49,1.05-.49.28,0,.63.28.63.56s-.14.7-.49,1.05c-4.55,4.55-9.59,10.36-14.49,16.17,3.08-1.96,6.16-3.71,9.03-5.18,2.31-1.19,7.21-4.13,8.05-4.83Zm-21,13.65c-16.1,11.06-21.07,20.09-21.07,22.33,0,.14,0,.21.07.28.07.07.14.14.28.14,1.54,0,11.97-12.11,20.72-22.75Z"/><path d="m266.56,45.08c-.14,0-.28-.14-.28-.28,0-.21.28-.56.77-.84l2.45-1.68c.49-.35,2.94-2.1,5.74-4.2-.07-.35-.07-.63-.07-.98,0-4.34,7.07-9.66,10.36-9.66.77,0,1.05.49,1.05.91,0,1.89-5.04,6.02-9.59,9.45.7,3.78,3.01,6.37,3.01,10.43,0,2.8-2.66,4.13-5.67,4.13-2.31,0-4.76-.77-6.44-2.38-.21-.21-.28-.56-.28-.77s.07-.28.21-.28.35.07.7.35c1.89,1.47,3.64,2.03,5.18,2.03,2.52,0,4.2-1.61,4.2-3.71,0-2.31-1.89-5.53-2.52-8.61-2.66,1.96-4.97,3.57-5.39,3.92-.7.56-3.08,2.17-3.43,2.17Zm17.08-15.75c-2.31,0-6.79,3.64-6.79,6.37v1.12c3.71-2.87,7.42-6.02,7.42-6.93,0-.28-.14-.56-.63-.56Z"/><path d="m312.41,43.05c.21-.14.35-.21.49-.21s.28.14.28.28c0,.21-.28.56-.77.84-.7.35-3.64,2.45-7.35,4.41-4.41,2.38-8.26,4.69-11.69,6.93-10.99,13.16-21.21,26.11-23.73,26.11-.77,0-1.26-1.05-1.26-1.96,0-5.32,12.25-16.59,24.85-25.06,4.06-4.9,7.56-9.38,9.38-11.76,0,0-11.13,8.96-15.05,8.96-.63,0-1.47-.49-1.47-1.4,0-2.73,9.17-11.48,9.17-11.48.21-.21.42-.35.63-.35.14,0,.21.07.28.14.07.07.07.21.07.35,0,.21-.07.42-.28.63-1.33,1.05-7.28,7.35-7.28,9.38,0,.56.28.98.91.98,2.17,0,8.54-4.83,11.13-6.79,1.61-1.19,7.21-6.23,7.91-7.28.28-.28.7-.49,1.05-.49.28,0,.63.28.63.56s-.14.7-.49,1.05c-4.55,4.55-9.59,10.36-14.49,16.17,3.08-1.96,6.16-3.71,9.03-5.18,2.31-1.19,7.21-4.13,8.05-4.83Zm-21,13.65c-16.1,11.06-21.07,20.09-21.07,22.33,0,.14,0,.21.07.28.07.07.14.14.28.14,1.54,0,11.97-12.11,20.72-22.75Z"/><path d="m313.94,45.08c-.14,0-.28-.14-.28-.28,0-.21.28-.56.77-.84l2.45-1.68c.49-.35,2.94-2.1,5.74-4.2-.07-.35-.07-.63-.07-.98,0-4.34,7.07-9.66,10.36-9.66.77,0,1.05.49,1.05.91,0,1.89-5.04,6.02-9.59,9.45.7,3.78,3.01,6.37,3.01,10.43,0,2.8-2.66,4.13-5.67,4.13-2.31,0-4.76-.77-6.44-2.38-.21-.21-.28-.56-.28-.77s.07-.28.21-.28.35.07.7.35c1.89,1.47,3.64,2.03,5.18,2.03,2.52,0,4.2-1.61,4.2-3.71,0-2.31-1.89-5.53-2.52-8.61-2.66,1.96-4.97,3.57-5.39,3.92-.7.56-3.08,2.17-3.43,2.17Zm17.08-15.75c-2.31,0-6.79,3.64-6.79,6.37v1.12c3.71-2.87,7.42-6.02,7.42-6.93,0-.28-.14-.56-.63-.56Z"/><path d="m355.32,22.75c5.39-5.39,9.94-9.38,10.92-9.38.21,0,.35,0,.49.14.14.14.21.28.21.49,0,1.47-2.52,4.83-6.09,8.82,7.84.14,15.61.28,15.96.28.21,0,.42.14.42.42,0,.63,0,1.05-1.82,1.19-2.17,0-9.24-.07-16.17-.14-7.07,7.56-16.94,16.66-20.37,19.25-.91,1.68-1.4,3.15-1.4,4.27,0,.91.7,1.19,1.61,1.19,2.1,0,5.53-1.54,5.32-1.4,2.1-1.12,7.35-4.06,8.19-4.76.21-.14.35-.21.49-.21s.28.14.28.28c0,.21-.28.56-.77.84,0,0-2.66,1.82-6.09,3.71-3.78,2.1-6.93,3.36-8.89,3.36-1.47,0-2.31-.7-2.31-2.17,0-4.2,9.73-15.68,18.34-24.5-5.32-.14-9.52-.14-9.66-.14-.63,0-.84-.49-.84-.98.07-.49.56-.77,1.19-.84,0,0,4.97.14,10.99.28Zm-15.33,19.18c3.36-2.52,11.97-10.92,17.78-17.43h-2.94c-5.18,5.25-11.41,12.04-14.84,17.43Zm16.59-19.18c.91,0,1.75,0,2.73.07,2.45-2.87,4.2-5.18,4.2-6.02,0-.14-.07-.21-.14-.21-.35,0-3.15,2.52-6.79,6.16Z"/><path d="m375.33,33.74c0,2.8-9.52,9.31-18.34,10.57-.42.91-.63,1.75-.63,2.45,0,.49.07,3.5,4.06,3.5,1.89,0,4.62-.63,8.68-2.59,2.17-1.05,7.35-4.06,8.19-4.76.21-.14.35-.21.49-.21s.28.14.28.28c0,.21-.28.56-.77.84,0,0-3.43,2.31-7.49,4.48-2.38,1.26-7.77,3.5-11.62,3.5-2.45,0-4.34-.91-4.34-3.57,0-5.32,11.2-15.75,19.04-15.75,1.75,0,2.45.49,2.45,1.26Zm-17.92,9.87c6.72-1.19,15.61-7,15.61-9.17,0-.49-.49-.84-1.68-.84-4.62,0-11.34,5.53-13.93,10.01Z"/><path d="m394.51,35.35c0,2.73-10.08,10.99-10.08,12.18,0,.07.07.14.21.14,1.19,0,18.27-12.18,20.58-12.18.49,0,.84.63.84,1.12,0,1.19-7.98,9.03-7.98,9.52,0,.07.07.14.21.14.07,0,.21,0,.35-.07l17.22-9.52c.77-.42,1.96-1.4,2.8-1.4.21,0,.35.14.49.28.07.07.07.14.07.28,0,.77-1.33,2.1-2.17,2.94-4.62,5.39-6.09,8.12-6.09,9.31,0,.63.42.91,1.05.91,1.47,0,3.92-1.33,3.92-1.33,2.17-1.05,7.35-4.06,8.19-4.76.21-.14.35-.21.49-.21s.28.14.28.28c0,.21-.28.56-.77.84,0,0-3.43,2.31-7.49,4.48-3.29,1.75-5.46,2.52-6.79,2.52-1.12,0-1.61-.56-1.61-1.4,0-2.24,3.15-6.72,6.79-10.64.21-.21.35-.49.35-.7,0-.14,0-.21-.14-.21-1.05,0-17.99,10.01-21,11.48h-.07c-.21,0-.42-.28-.42-.56,0-1.47,8.82-8.61,8.82-10.64,0-.35-.28-.49-.56-.49-.63,0-17.5,11.2-18.41,11.69-.63.42-1.26.77-1.75.77-.14,0-.28,0-.42-.14-.07-.07-.07-.21-.07-.28,0-1.61,9.03-10.36,9.03-11.62,0-.21-.07-.28-.28-.28-1.26,0-8.61,5.67-10.71,6.93-.21.14-.49.35-.63.35s-.28-.14-.28-.28c0-.21.28-.56.77-.84,1.05-.7,2.03-1.4,2.94-2.1,0,0,10.22-7.35,11.62-7.35.49,0,.7.49.7.84Z"/></g></g></svg>