<?xml version="1.0" encoding="UTF-8"?>
<svg id="_レイヤー_2" data-name="レイヤー 2" xmlns="http://www.w3.org/2000/svg" viewBox="0 0 459.69 83.24">
  <g id="_レイヤー_1-2" data-name="レイヤー 1">
    <g>
      <path d="m39.7,44.95c.21-.14.35-.21.49-.21s.28.14.28.28c0,.21-.28.56-.77.84l-6.93,4.27c-4.76,2.94-11.55,5.32-17.85,5.32-2.87,0-5.67-.49-8.19-1.75-3.92-1.96-6.72-5.67-6.72-12.11C0,21,30.59,0,50.83,0c9.03,0,11.97,3.22,11.97,7.35,0,12.53-25.2,27.09-37.66,27.09-2.87,0-5.11-.63-5.11-2.38,0-1.54,1.61-2.24,2.03-2.24.07,0,.21,0,.21.21,0,1.54,2.59,1.75,3.71,1.75,12.74,0,33.74-14.7,33.74-24.92,0-4.48-3.43-5.95-9.52-5.95C29.54.91,2.38,23.17,2.38,40.81c0,4.97,2.1,8.68,5.6,10.78,2.38,1.4,5.18,2.03,8.26,2.03,5.11,0,10.99-1.75,16.52-4.62l6.93-4.06Z"/>
      <path d="m43.12,49.5c0,2.03.84,2.8,2.17,2.8,3.92,0,8.05-3.36,10.99-6.79-.21-.49-.28-1.12-.28-1.68,0-3.5,2.8-7.98,4.13-7.98.7,0,1.05.49,1.05,1.33,0,1.68-1.26,4.62-3.43,7.56.49,1.82,2.24,2.03,3.08,2.03,1.54,0,3.5-.98,5.04-2.03.21-.14.35-.21.49-.21s.28.14.28.28c0,.21-.28.56-.77.84-2.38,1.54-4.13,2.17-5.46,2.17-1.96,0-3.15-.63-3.78-1.61-3.22,3.99-7.84,7.56-12.74,7.56-1.61,0-3.15-1.12-3.15-3.29,0-4.76,10.78-14.98,16.31-14.98.56,0,.91.42.91.84,0,.56-.49,1.12-1.54,1.12-5.46,0-13.3,7.21-13.3,12.04Zm14.49-5.74c1.47-2.03,2.38-3.92,2.38-4.9,0-.49-.21-.77-.63-.77-1.26,2.59-1.75,4.34-1.75,5.67Z"/>
      <path d="m83.02,37.17c0,2.73-10.08,10.99-10.08,12.18,0,.07.07.14.21.14,1.19,0,18.27-12.18,20.58-12.18.49,0,.84.63.84,1.12,0,1.19-7.98,9.03-7.98,9.52,0,.07.07.14.21.14.07,0,.21,0,.35-.07l17.22-9.52c.77-.42,1.96-1.4,2.8-1.4.21,0,.35.14.49.28.07.07.07.14.07.28,0,.77-1.33,2.1-2.17,2.94-4.62,5.39-6.09,8.12-6.09,9.31,0,.63.42.91,1.05.91,1.47,0,3.92-1.33,3.92-1.33,2.17-1.05,7.35-4.06,8.19-4.76.21-.14.35-.21.49-.21s.28.14.28.28c0,.21-.28.56-.77.84,0,0-3.43,2.31-7.49,4.48-3.29,1.75-5.46,2.52-6.79,2.52-1.12,0-1.61-.56-1.61-1.4,0-2.24,3.15-6.72,6.79-10.64.21-.21.35-.49.35-.7,0-.14,0-.21-.14-.21-1.05,0-17.99,10.01-21,11.48h-.07c-.21,0-.42-.28-.42-.56,0-1.47,8.82-8.61,8.82-10.64,0-.35-.28-.49-.56-.49-.63,0-17.5,11.2-18.41,11.69-.63.42-1.26.77-1.75.77-.14,0-.28,0-.42-.14-.07-.07-.07-.21-.07-.28,0-1.61,9.03-10.36,9.03-11.62,0-.21-.07-.28-.28-.28-1.26,0-8.61,5.67-10.71,6.93-.21.14-.49.35-.63.35s-.28-.14-.28-.28c0-.21.28-.56.77-.84,1.05-.7,2.03-1.4,2.94-2.1,0,0,10.22-7.35,11.62-7.35.49,0,.7.49.7.84Z"/>
      <path d="m103.11,61.68c0,.07.07.14.14.14s.21-.07.35-.21c.42-.42,22.54-19.04,30.1-25.48.21-.21.63-.49,1.05-.49.21,0,.49.07.7.28.21.21.35.35.35.63,0,.21-.14.49-.49.91-1.75,1.89-7.63,7.56-7.63,10.5,0,1.68.98,2.24,2.31,2.24,1.47,0,3.43-.7,4.83-1.33,2.17-1.05,6.37-3.43,7.21-4.13.21-.14.35-.21.49-.21s.28.14.28.28c0,.21-.28.56-.77.84,0,0-2.45,1.68-6.51,3.85-2.59,1.4-5.53,2.45-7.56,2.45-1.47,0-2.52-.56-2.52-2.1,0-3.15,2.1-4.9,5.81-9.73.21-.21.28-.35.28-.42s-.07-.14-.21-.14c-.63.49-12.95,10.43-20.86,17.15-7.91,6.79-8.96,7.56-12.32,11.13-2.52,2.59-4.76,5.39-5.04,5.67-.21.21-.42.35-.63.35-.28,0-.49-.07-.49-.35,0-.35.21-.91.56-1.47.49-.7,7.77-9.1,8.4-10.01.7-.84,7.7-9.1,8.19-9.59.42-.49,10.5-12.11,10.99-12.6.49-.56,9.59-11.06,10.43-11.97,3.36-3.92,9.03-9.8,11.9-9.8.63,0,1.05.35,1.05,1.19,0,4.97-13.86,14.84-26.6,26.25-6.37,7.35-13.44,15.61-13.58,15.89-.14.14-.21.21-.21.28Zm38.36-42c-1.75,0-4.41,3.43-6.44,5.46-1.68,1.75-7.7,8.33-8.19,8.89l-6.65,7.7c8.47-7.14,21.7-18.55,21.7-21.7,0,0,0-.35-.42-.35Z"/>
      <path d="m166.81,49.57c-2.38,1.26-6.72,3.92-9.38,3.92-.98,0-1.61-.42-1.61-1.47,0-1.47,1.33-3.78,1.47-4.06,0-.07-.07-.14-.14-.14-.7,0-7,5.32-11.83,5.32-2.1,0-3.08-.84-3.08-2.17,0-4.83,12.11-16.1,21.63-16.1,3.29,0,4.06.98,4.06,2.03,0,2.31-4.62,5.11-6.93,5.95-.14.07-.28.07-.42.07-.49,0-.84-.35-1.05-.7-.07-.14-.14-.28-.14-.42,0-.21.14-.35.56-.56.21-.07,5.67-2.59,5.67-4.41,0-.7-.63-1.26-1.68-1.26-8.68,0-19.18,9.8-19.18,14,0,1.12.77,1.89,2.59,1.89,3.92,0,11.41-5.39,12.46-7,.35-.49.7-.63.98-.63.21,0,.56.14.56.42,0,.42-.7,1.12-1.47,2.24-.35.49-1.26,2.45-1.26,3.92,0,.84.49,1.12,1.19,1.12,1.82,0,5.18-1.96,4.9-1.82,2.1-1.12,7.35-4.06,8.19-4.76.21-.14.35-.21.49-.21s.28.14.28.28c0,.21-.28.56-.77.84,0,0-2.66,1.82-6.09,3.71Z"/>
      <path d="m175.28,46.56c-.21.14-.49.35-.63.35s-.28-.14-.28-.28c0-.21.28-.56.77-.84,1.05-.7,2.03-1.4,2.94-2.1,0,0,4.83-3.5,8.26-5.67.35-.21,1.05-.63,1.61-.63.21,0,.35,0,.49.14.21.21.35.42.35.7,0,.49-.35,1.26-.98,2.03-.77.98-6.37,7.14-6.79,7.63-.14.14-.21.28-.21.35,0,.14.07.21.21.21.42-.21,15.61-10.08,16.31-10.5.7-.42,3.99-2.73,4.34-2.94.21-.14.49-.28.77-.28.21,0,.42.07.56.28.07.14.14.28.14.42,0,.42-.35.91-.63,1.19-6.93,7.42-8.61,10.99-8.61,12.67s1.47,1.54,1.47,1.54c1.47,0,3.92-1.33,3.92-1.33,2.17-1.05,7.35-4.06,8.19-4.76.21-.14.35-.21.49-.21s.28.14.28.28c0,.21-.28.56-.77.84,0,0-3.43,2.31-7.49,4.48-3.29,1.75-5.46,2.52-6.79,2.52-1.4,0-1.96-.7-1.96-1.75,0-3.36,5.6-10.5,6.44-11.34.35-.35.49-.7.49-.98,0-.14-.07-.21-.21-.21-.42.14-14.7,9.66-15.75,10.29-1.12.63-3.92,2.52-4.2,2.73-.21.14-.49.21-.77.21s-.49-.07-.56-.21c-.07-.07-.07-.21-.07-.35,0-.21.14-.49.63-1.12l7.42-8.68c.14-.14.21-.28.21-.42,0-.35-.14-.42-.35-.42-.35,0-.77.35-.77.35-2.73,1.68-6.93,4.9-8.47,5.81Z"/>
      <path d="m232.05,44.88c.21-.14.35-.21.49-.21s.28.14.28.28c0,.21-.28.56-.77.84-.7.35-3.64,2.45-7.35,4.41-4.41,2.38-8.26,4.69-11.69,6.93-10.99,13.16-21.21,26.11-23.73,26.11-.77,0-1.26-1.05-1.26-1.96,0-5.32,12.25-16.59,24.85-25.06,4.06-4.9,7.56-9.38,9.38-11.76,0,0-11.13,8.96-15.05,8.96-.63,0-1.47-.49-1.47-1.4,0-2.73,9.17-11.48,9.17-11.48.21-.21.42-.35.63-.35.14,0,.21.07.28.14.07.07.07.21.07.35,0,.21-.07.42-.28.63-1.33,1.05-7.28,7.35-7.28,9.38,0,.56.28.98.91.98,2.17,0,8.54-4.83,11.13-6.79,1.61-1.19,7.21-6.23,7.91-7.28.28-.28.7-.49,1.05-.49.28,0,.63.28.63.56s-.14.7-.49,1.05c-4.55,4.55-9.59,10.36-14.49,16.17,3.08-1.96,6.16-3.71,9.03-5.18,2.31-1.19,7.21-4.13,8.05-4.83Zm-21,13.65c-16.1,11.06-21.07,20.09-21.07,22.33,0,.14,0,.21.07.28.07.07.14.14.28.14,1.54,0,11.97-12.11,20.72-22.75Z"/>
      <path d="m257.8,49.5c0,2.03.84,2.8,2.17,2.8,3.92,0,8.05-3.36,10.99-6.79-.21-.49-.28-1.12-.28-1.68,0-3.5,2.8-7.98,4.13-7.98.7,0,1.05.49,1.05,1.33,0,1.68-1.26,4.62-3.43,7.56.49,1.82,2.24,2.03,3.08,2.03,1.54,0,3.5-.98,5.04-2.03.21-.14.35-.21.49-.21s.28.14.28.28c0,.21-.28.56-.77.84-2.38,1.54-4.13,2.17-5.46,2.17-1.96,0-3.15-.63-3.78-1.61-3.22,3.99-7.84,7.56-12.74,7.56-1.61,0-3.15-1.12-3.15-3.29,0-4.76,10.78-14.98,16.31-14.98.56,0,.91.42.91.84,0,.56-.49,1.12-1.54,1.12-5.46,0-13.3,7.21-13.3,12.04Zm14.49-5.74c1.47-2.03,2.38-3.92,2.38-4.9,0-.49-.21-.77-.63-.77-1.26,2.59-1.75,4.34-1.75,5.67Z"/>
      <path d="m289.16,34.86c.84,0,3.36.07,3.36,1.05,0,.63-.98,1.26-1.61,1.96-4.06,4.76-7.56,9.87-7.56,12.6,0,1.26.77,2.03,2.59,2.03,5.25,0,9.52-8.26,9.59-8.61.14-.56.21-.91.28-1.96.07-.91.49-1.05.91-1.05.7.07.84.84.84,1.54,0,.35-.07.7-.14,1.68,0,1.96.98,2.66,2.24,2.66,1.54,0,3.5-.98,5.04-2.03.21-.14.35-.21.49-.21s.28.14.28.28c0,.21-.28.56-.77.84-2.31,1.68-4.13,2.17-5.46,2.17-2.52,0-3.5-1.82-3.71-1.82-.07,0-.14.07-.28.35-3.08,4.83-8.4,7.84-11.62,7.84-1.68,0-2.8-.84-2.8-2.59,0-2.66,2.52-7.42,9.45-14.98,0-.63-2.1-.63-2.1-1.4,0-.21.35-.35.7-.35h.28Z"/>
      <path d="m327.11,35.56c0,2.8-9.52,9.31-18.34,10.57-.42.91-.63,1.75-.63,2.45,0,.49.07,3.5,4.06,3.5,1.89,0,4.62-.63,8.68-2.59,2.17-1.05,7.35-4.06,8.19-4.76.21-.14.35-.21.49-.21s.28.14.28.28c0,.21-.28.56-.77.84,0,0-3.43,2.31-7.49,4.48-2.38,1.26-7.77,3.5-11.62,3.5-2.45,0-4.34-.91-4.34-3.57,0-5.32,11.2-15.75,19.04-15.75,1.75,0,2.45.49,2.45,1.26Zm-17.92,9.87c6.72-1.19,15.61-7,15.61-9.17,0-.49-.49-.84-1.68-.84-4.62,0-11.34,5.53-13.93,10.01Z"/>
      <path d="m344.46,32.13c0,.07,0,.14-.07.21-.35.42-1.47,1.96-1.54,2.31-.07.14-.14.42-.14.7,0,.56.7,1.89,2.87,1.96,1.89.07,3.15-.14,3.15,1.05-.14,2.66-6.23,7.21-6.23,11.2,0,.49.28.91,1.19.91.7,0,1.75-.28,3.22-.98,2.17-1.05,7.35-4.06,8.19-4.76.21-.14.35-.21.49-.21s.28.14.28.28c0,.21-.28.56-.77.84,0,0-3.43,2.31-7.49,4.48-1.75.91-4.27,2.24-5.95,2.24-.98,0-1.68-.49-1.68-1.89,0-4.83,6.65-9.45,6.65-10.71,0-.35-.35-.7-.84-.7-2.38,0-3.64-.42-4.27-2.45-.35.21.35,2.52-7.7,8.12-.7.56-3.08,2.17-3.43,2.17-.14,0-.28-.14-.28-.28,0-.21.28-.56.77-.84l2.45-1.68c6.3-4.2,6.51-5.6,7.77-9.1.63-1.33,1.82-3.22,2.94-3.22.28,0,.42.14.42.35Z"/>
      <path d="m363.71,34.86c.84,0,3.36.07,3.36,1.05,0,.63-.98,1.26-1.61,1.96-4.06,4.76-7.56,9.87-7.56,12.6,0,1.26.77,2.03,2.59,2.03,5.25,0,9.52-8.26,9.59-8.61.14-.56.21-.91.28-1.96.07-.91.49-1.05.91-1.05.7.07.84.84.84,1.54,0,.35-.07.7-.14,1.68,0,1.96.98,2.66,2.24,2.66,1.54,0,3.5-.98,5.04-2.03.21-.14.35-.21.49-.21s.28.14.28.28c0,.21-.28.56-.77.84-2.31,1.68-4.13,2.17-5.46,2.17-2.52,0-3.5-1.82-3.71-1.82-.07,0-.14.07-.28.35-3.08,4.83-8.4,7.84-11.62,7.84-1.68,0-2.8-.84-2.8-2.59,0-2.66,2.52-7.42,9.45-14.98,0-.63-2.1-.63-2.1-1.4,0-.21.35-.35.7-.35h.28Z"/>
      <path d="m378.9,51.39c0-3.64,9.24-11.97,9.24-11.97.21-.21.42-.28.63-.28.35,0,.63.28.63.63,0,.21-.07.49-.28.7-1.75,1.89-7.77,7.42-7.77,10.22,0,.7.49.98,1.26.98,1.75,0,4.9-1.54,5.95-2.17,2.17-1.05,7.35-4.06,8.19-4.76.21-.14.35-.21.49-.21s.28.14.28.28c0,.21-.28.56-.77.84,0,0-3.43,2.31-7.49,4.48-1.33.84-5.67,3.15-8.26,3.15-1.26,0-2.1-.49-2.1-1.89Zm17.85-20.16c0-.56-.42-.84-.98-.84-1.12,0-2.66,1.47-2.66,2.38,0,0,0,.91.98.91,1.47,0,2.66-1.12,2.66-2.45Z"/>
      <path d="m419.08,35.56c0,2.8-9.52,9.31-18.34,10.57-.42.91-.63,1.75-.63,2.45,0,.49.07,3.5,4.06,3.5,1.89,0,4.62-.63,8.68-2.59,2.17-1.05,7.35-4.06,8.19-4.76.21-.14.35-.21.49-.21s.28.14.28.28c0,.21-.28.56-.77.84,0,0-3.43,2.31-7.49,4.48-2.38,1.26-7.77,3.5-11.62,3.5-2.45,0-4.34-.91-4.34-3.57,0-5.32,11.2-15.75,19.04-15.75,1.75,0,2.45.49,2.45,1.26Zm-17.92,9.87c6.72-1.19,15.61-7,15.61-9.17,0-.49-.49-.84-1.68-.84-4.62,0-11.34,5.53-13.93,10.01Z"/>
      <path d="m431.61,52.37c0-.49.07-1.05.21-1.61-2.94,1.68-5.95,2.94-8.05,2.94-1.61,0-2.73-.77-2.73-2.66,0-2.38,4.2-9.24,12.81-13.44.21-.07.42-.14.63-.14.35,0,.63.14.63.35,0,.14-.14.28-.42.42-9.38,5.88-10.92,9.52-10.92,12.11.07,1.33,1.12,1.54,2.45,1.54,1.75,0,3.85-.84,5.81-2.03,1.47-4.13,5.88-8.75,8.33-8.75.56,0,.98.07.98.63,0,1.68-3.22,4.83-7.14,7.49-.21.63-.28,1.33-.28,1.96,0,2.17,1.33,3.92,5.39,3.92,5.74,0,10.5-6.02,10.5-9.03,0,0-1.4-3.92-1.4-6.65,0-1.47.42-2.59,1.68-2.59,1.82,0,1.89,4.27,1.89,4.27v.98c0,3.5.7,4.69,1.89,4.69,1.54,0,3.5-.98,5.04-2.03.21-.14.35-.21.49-.21s.28.14.28.28c0,.21-.28.56-.77.84-2.31,1.68-4.13,2.17-5.46,2.17-.91,0-1.61-.21-2.1-.49,0,0-4.41,9.03-14.14,9.03-4.06,0-5.6-1.68-5.6-3.99Zm7.56-9.59c-1.19,0-3.5,2.66-4.62,5.46,2.66-2.03,4.76-4.27,4.83-5.18,0-.21-.14-.28-.21-.28Z"/>
    </g>
  </g>
</svg>