<?xml version="1.0" encoding="UTF-8"?>
<svg id="_レイヤー_2" data-name="レイヤー 2" xmlns="http://www.w3.org/2000/svg" viewBox="0 0 174.24 27.03">
  <defs>
    <style>
      .cls-1 {
        fill: #231815;
      }
    </style>
  </defs>
  <g id="_レイヤー_1-2" data-name="レイヤー 1">
    <g>
      <g>
        <path class="cls-1" d="m6.03,19.58c0,1.59-.27,2.93-.81,4.03-.54,1.1-1.27,1.94-2.19,2.51-.92.57-1.93.88-3.03.92v-.57c1.54-.08,2.83-.74,3.87-1.95,1.04-1.22,1.55-2.89,1.55-5.03V.25h.6v19.32Z"/>
        <path class="cls-1" d="m13.26,1.87h4.16v20.66h-.63V2.51h-3.52v-.63Z"/>
        <path class="cls-1" d="m42.3,21.16c-.55.32-1.14.6-1.76.84s-1.29.43-1.98.57c-.7.14-1.43.21-2.19.21-1.69,0-3.23-.3-4.62-.89-1.39-.59-2.58-1.41-3.57-2.44-.99-1.04-1.76-2.24-2.28-3.6-.53-1.36-.79-2.81-.79-4.33,0-1.61.29-3.11.87-4.51.58-1.4,1.39-2.62,2.43-3.67,1.04-1.05,2.24-1.87,3.62-2.46,1.38-.59,2.84-.89,4.41-.89,1.08,0,2.11.14,3.09.43s1.91.68,2.78,1.19l-.32.54c-.8-.49-1.68-.87-2.62-1.14-.94-.27-1.92-.41-2.94-.41-1.46,0-2.84.28-4.14.84s-2.44,1.34-3.41,2.35c-.97,1-1.74,2.17-2.3,3.49-.56,1.32-.84,2.74-.84,4.27,0,1.42.25,2.77.75,4.06.5,1.29,1.21,2.43,2.14,3.41.93.98,2.05,1.76,3.35,2.32,1.3.56,2.77.84,4.39.84,1.04,0,2.02-.14,2.95-.43s1.8-.66,2.6-1.13l.38.54Z"/>
      </g>
      <g>
        <path class="cls-1" d="m54.46,13.07c-.03.27-.04.51-.04.95v6c0,1.73-.7,2.56-2.11,2.56-.32,0-.66-.06-.96-.18-.19-.08-.37-.18-.5-.28l.13-.28c.25.28.81.48,1.33.48,1.28,0,1.82-.69,1.82-2.31v-6c0-.44-.01-.69-.04-.95h.37Z"/>
        <path class="cls-1" d="m61.18,21.95c0-.29.03-.63.06-.94h-.03c-.48,1.07-1.38,1.65-2.53,1.65-1.4,0-2.21-.66-2.21-1.78,0-1.42,1.18-2.11,3.62-2.11.48,0,.8.01,1.07.04v-.62c0-1.47-.62-2.09-2.03-2.09-.47,0-.85.11-1.21.29-.32.17-.57.38-.77.61l-.18-.23c.27-.27.55-.48.85-.63.39-.2.83-.3,1.33-.3,1.57,0,2.3.72,2.3,2.32v3.42c0,.38.01.65.04.96h-.32v-.58Zm-.01-2.88c-.28-.03-.6-.04-1.07-.04-2.29,0-3.34.58-3.34,1.85,0,.96.7,1.51,1.93,1.51,1.16,0,1.98-.56,2.48-1.65v-1.68Z"/>
        <path class="cls-1" d="m64.21,17.9c.38-1.32,1.33-2.09,2.69-2.09,1.79,0,2.93,1.35,2.93,3.43s-1.17,3.43-2.93,3.43c-1.33,0-2.31-.8-2.68-2.11h-.05c.04.18.06.71.06,1.21v2.87c0,.44.01.69.04.95h-.37c.03-.27.04-.51.04-.95v-7.74c0-.44-.01-.69-.04-.95h.33v1.02c0,.32-.03.67-.06.95h.04Zm5.33,1.33c0-1.94-1.03-3.16-2.65-3.16s-2.65,1.21-2.65,3.16,1.04,3.16,2.65,3.16,2.65-1.22,2.65-3.16Z"/>
        <path class="cls-1" d="m75.8,21.95c0-.29.03-.63.06-.94h-.03c-.48,1.07-1.38,1.65-2.53,1.65-1.4,0-2.21-.66-2.21-1.78,0-1.42,1.18-2.11,3.62-2.11.48,0,.8.01,1.07.04v-.62c0-1.47-.62-2.09-2.03-2.09-.47,0-.85.11-1.21.29-.32.17-.57.38-.77.61l-.18-.23c.27-.27.55-.48.85-.63.39-.2.83-.3,1.33-.3,1.57,0,2.3.72,2.3,2.32v3.42c0,.38.01.65.04.96h-.32v-.58Zm-.01-2.88c-.28-.03-.6-.04-1.07-.04-2.29,0-3.34.58-3.34,1.85,0,.96.7,1.51,1.93,1.51,1.16,0,1.98-.56,2.48-1.65v-1.68Z"/>
        <path class="cls-1" d="m83.35,22.53c.03-.28.04-.53.04-.95v-3.26c0-1.46-.72-2.25-2.08-2.25-1.46.01-2.45.94-2.45,2.27v3.24c0,.43.01.69.04.95h-.37c.03-.27.04-.52.04-.95v-4.7c0-.44-.01-.69-.04-.95h.33v.53c0,.29-.01.66-.05.95h.04c.36-.98,1.28-1.61,2.49-1.61,1.49,0,2.35.89,2.35,2.44v3.34c0,.42.01.67.04.95h-.37Z"/>
        <path class="cls-1" d="m96.34,21.58c0,.32,0,.63.04.95h-.41c-.17-.34-.36-.63-.58-.95l-5.34-7.55c-.18-.24-.34-.48-.53-.72v8.28c0,.32,0,.63.04.95h-.37c.04-.32.04-.63.04-.95v-7.55c0-.32,0-.63-.04-.95h.56c.19.32.41.63.63.95l5.67,8.01v-8.01c0-.32,0-.63-.04-.95h.37c-.04.32-.04.63-.04.95v7.55Z"/>
        <path class="cls-1" d="m104.45,19.24c0,2.07-1.17,3.42-2.96,3.42s-2.96-1.4-2.96-3.44,1.17-3.42,2.96-3.42,2.96,1.4,2.96,3.44Zm-.29,0c0-1.92-1.04-3.17-2.67-3.17s-2.67,1.22-2.67,3.15,1.04,3.17,2.67,3.17,2.67-1.22,2.67-3.15Z"/>
        <path class="cls-1" d="m106.96,22.26c0,.22-.18.39-.41.39-.22,0-.39-.18-.39-.39,0-.23.18-.41.39-.41.23,0,.41.18.41.41Z"/>
        <path class="cls-1" d="m111.55,21.56c0,.32,0,.63.04.96h-.37c.04-.33.04-.65.04-.96v-8.12l-2.22,1.49c-.19.13-.34.24-.41.32v-.38c.08-.04.18-.09.28-.17l2.06-1.37c.14-.09.24-.18.3-.25h.32c-.04.33-.04.65-.04.96v7.53Z"/>
        <path class="cls-1" d="m125.1,20.4c-.19.33-.41.63-.61.88-.8.94-1.75,1.38-3.03,1.38-2.69,0-4.33-1.87-4.33-4.91,0-2.87,1.65-4.8,4.11-4.8,1.23,0,2.17.33,2.88,1.03.34.33.62.74.89,1.22l-.33.19c-.2-.5-.46-.9-.79-1.23-.63-.63-1.52-.94-2.67-.94-2.3,0-3.81,1.76-3.81,4.53,0,2.92,1.51,4.65,4.04,4.65,1.17,0,2.03-.38,2.82-1.27.19-.23.37-.51.58-.89l.24.17Z"/>
        <path class="cls-1" d="m132.34,19.24c0,2.07-1.17,3.42-2.96,3.42s-2.96-1.4-2.96-3.44,1.17-3.42,2.96-3.42,2.96,1.4,2.96,3.44Zm-.29,0c0-1.92-1.04-3.17-2.67-3.17s-2.67,1.22-2.67,3.15,1.04,3.17,2.67,3.17,2.67-1.22,2.67-3.15Z"/>
        <path class="cls-1" d="m134.74,12.88c-.03.27-.04.51-.04.95v7.74c0,.43.01.69.04.95h-.37c.03-.27.04-.52.04-.95v-7.74c0-.44-.01-.69-.04-.95h.37Z"/>
        <path class="cls-1" d="m137.77,12.88c-.03.27-.04.51-.04.95v7.74c0,.43.01.69.04.95h-.37c.03-.27.04-.52.04-.95v-7.74c0-.44-.01-.69-.04-.95h.37Z"/>
        <path class="cls-1" d="m140.1,19.13v.06c0,1.93,1.12,3.2,2.82,3.2.67,0,1.32-.19,1.8-.55.2-.15.37-.32.51-.51l.2.19c-.11.14-.32.33-.48.46-.53.43-1.26.67-2.03.67-1.84,0-3.11-1.41-3.11-3.47s1.14-3.43,3.01-3.43,2.78,1.13,2.78,3.14v.23h-5.5Zm5.21-.25c0-1.83-.89-2.84-2.5-2.84s-2.59,1.07-2.69,2.84h5.19Z"/>
        <path class="cls-1" d="m152.56,21.55c-.14.15-.29.29-.48.44-.55.43-1.26.66-2.02.66-1.82,0-3.07-1.4-3.07-3.43s1.21-3.39,3.08-3.39c.62,0,1.18.13,1.65.42.29.19.55.41.74.65l-.23.22c-.19-.27-.41-.47-.74-.67-.41-.25-.9-.34-1.43-.34-1.7,0-2.78,1.21-2.78,3.12s1.1,3.16,2.78,3.16c.67,0,1.31-.18,1.76-.52.27-.22.41-.34.53-.52l.2.2Z"/>
        <path class="cls-1" d="m157.47,22.43c-.28.15-.66.23-1,.23-1.12,0-1.74-.58-1.74-1.57v-4.89h-.63c-.43,0-.69.01-.96.04v-.34c.28.03.53.04.96.04h.63v-1.16c0-.44-.01-.7-.04-.96h.37c-.03.27-.04.52-.04.96v1.16h1.1c.43,0,.69-.01.95-.04v.34c-.27-.03-.52-.04-.95-.04h-1.1v4.81c0,.9.52,1.38,1.45,1.38.37,0,.65-.08.91-.22l.09.25Z"/>
        <path class="cls-1" d="m159.34,13.68c0,.19-.13.32-.3.32s-.32-.13-.32-.32c0-.18.14-.3.32-.3s.3.13.3.3Zm-.13,2.25c-.03.27-.04.51-.04.95v4.7c0,.43.01.69.04.95h-.37c.03-.27.04-.52.04-.95v-4.7c0-.44-.01-.69-.04-.95h.37Z"/>
        <path class="cls-1" d="m167.14,19.24c0,2.07-1.17,3.42-2.96,3.42s-2.96-1.4-2.96-3.44,1.17-3.42,2.96-3.42,2.96,1.4,2.96,3.44Zm-.29,0c0-1.92-1.04-3.17-2.67-3.17s-2.67,1.22-2.67,3.15,1.04,3.17,2.67,3.17,2.67-1.22,2.67-3.15Z"/>
        <path class="cls-1" d="m173.87,22.53c.03-.28.04-.53.04-.95v-3.26c0-1.46-.72-2.25-2.08-2.25-1.46.01-2.45.94-2.45,2.27v3.24c0,.43.01.69.04.95h-.37c.03-.27.04-.52.04-.95v-4.7c0-.44-.01-.69-.04-.95h.33v.53c0,.29-.01.66-.05.95h.04c.36-.98,1.28-1.61,2.49-1.61,1.49,0,2.35.89,2.35,2.44v3.34c0,.42.01.67.04.95h-.37Z"/>
      </g>
    </g>
  </g>
</svg>