<?xml version="1.0" encoding="UTF-8"?><svg id="_レイヤー_2" xmlns="http://www.w3.org/2000/svg" viewBox="0 0 440.71 55.45"><g id="_レイヤー_1-2"><g><path d="m39.69,44.95c.21-.14.35-.21.49-.21s.28.14.28.28c0,.21-.28.56-.77.84l-6.93,4.27c-4.76,2.94-11.55,5.32-17.85,5.32-2.87,0-5.67-.49-8.19-1.75-3.92-1.96-6.72-5.67-6.72-12.11C0,21,30.59,0,50.83,0c9.03,0,11.97,3.22,11.97,7.35,0,12.53-25.2,27.09-37.66,27.09-2.87,0-5.11-.63-5.11-2.38,0-1.54,1.61-2.24,2.03-2.24.07,0,.21,0,.21.21,0,1.54,2.59,1.75,3.71,1.75,12.74,0,33.74-14.7,33.74-24.92,0-4.48-3.43-5.95-9.52-5.95C29.54.91,2.38,23.17,2.38,40.81c0,4.97,2.1,8.68,5.6,10.78,2.38,1.4,5.18,2.03,8.26,2.03,5.11,0,10.99-1.75,16.52-4.62l6.93-4.06Z"/><path d="m55.37,32.13c0,.07,0,.14-.07.21-.35.42-1.47,1.96-1.54,2.31-.07.14-.14.42-.14.7,0,.56.7,1.89,2.87,1.96,1.89.07,3.15-.14,3.15,1.05-.14,2.66-6.23,7.21-6.23,11.2,0,.49.28.91,1.19.91.7,0,1.75-.28,3.22-.98,2.17-1.05,7.35-4.06,8.19-4.76.21-.14.35-.21.49-.21s.28.14.28.28c0,.21-.28.56-.77.84,0,0-3.43,2.31-7.49,4.48-1.75.91-4.27,2.24-5.95,2.24-.98,0-1.68-.49-1.68-1.89,0-4.83,6.65-9.45,6.65-10.71,0-.35-.35-.7-.84-.7-2.38,0-3.64-.42-4.27-2.45-.35.21.35,2.52-7.7,8.12-.7.56-3.08,2.17-3.43,2.17-.14,0-.28-.14-.28-.28,0-.21.28-.56.77-.84l2.45-1.68c6.3-4.2,6.51-5.6,7.77-9.1.63-1.33,1.82-3.22,2.94-3.22.28,0,.42.14.42.35Z"/><path d="m88.34,35.56c0,2.8-9.52,9.31-18.34,10.57-.42.91-.63,1.75-.63,2.45,0,.49.07,3.5,4.06,3.5,1.89,0,4.62-.63,8.68-2.59,2.17-1.05,7.35-4.06,8.19-4.76.21-.14.35-.21.49-.21s.28.14.28.28c0,.21-.28.56-.77.84,0,0-3.43,2.31-7.49,4.48-2.38,1.26-7.77,3.5-11.62,3.5-2.45,0-4.34-.91-4.34-3.57,0-5.32,11.2-15.75,19.04-15.75,1.75,0,2.45.49,2.45,1.26Zm-17.92,9.87c6.72-1.19,15.61-7,15.61-9.17,0-.49-.49-.84-1.68-.84-4.62,0-11.34,5.53-13.93,10.01Z"/><path d="m115.08,49.57c-2.38,1.26-6.72,3.92-9.38,3.92-.98,0-1.61-.42-1.61-1.47,0-1.47,1.33-3.78,1.47-4.06,0-.07-.07-.14-.14-.14-.7,0-7,5.32-11.83,5.32-2.1,0-3.08-.84-3.08-2.17,0-4.83,12.11-16.1,21.63-16.1,3.29,0,4.06.98,4.06,2.03,0,2.31-4.62,5.11-6.93,5.95-.14.07-.28.07-.42.07-.49,0-.84-.35-1.05-.7-.07-.14-.14-.28-.14-.42,0-.21.14-.35.56-.56.21-.07,5.67-2.59,5.67-4.41,0-.7-.63-1.26-1.68-1.26-8.68,0-19.18,9.8-19.18,14,0,1.12.77,1.89,2.59,1.89,3.92,0,11.41-5.39,12.46-7,.35-.49.7-.63.98-.63.21,0,.56.14.56.42,0,.42-.7,1.12-1.47,2.24-.35.49-1.26,2.45-1.26,3.92,0,.84.49,1.12,1.19,1.12,1.82,0,5.18-1.96,4.9-1.82,2.1-1.12,7.35-4.06,8.19-4.76.21-.14.35-.21.49-.21s.28.14.28.28c0,.21-.28.56-.77.84,0,0-2.66,1.82-6.09,3.71Z"/><path d="m141.54,24.57c5.39-5.39,9.94-9.38,10.92-9.38.21,0,.35,0,.49.14.14.14.21.28.21.49,0,1.47-2.52,4.83-6.09,8.82,7.84.14,15.61.28,15.96.28.21,0,.42.14.42.42,0,.63,0,1.05-1.82,1.19-2.17,0-9.24-.07-16.17-.14-7.07,7.56-16.94,16.66-20.37,19.25-.91,1.68-1.4,3.15-1.4,4.27,0,.91.7,1.19,1.61,1.19,2.1,0,5.53-1.54,5.32-1.4,2.1-1.12,7.35-4.06,8.19-4.76.21-.14.35-.21.49-.21s.28.14.28.28c0,.21-.28.56-.77.84,0,0-2.66,1.82-6.09,3.71-3.78,2.1-6.93,3.36-8.89,3.36-1.47,0-2.31-.7-2.31-2.17,0-4.2,9.73-15.68,18.34-24.5-5.32-.14-9.52-.14-9.66-.14-.63,0-.84-.49-.84-.98.07-.49.56-.77,1.19-.84,0,0,4.97.14,10.99.28Zm-15.33,19.18c3.36-2.52,11.97-10.92,17.78-17.43h-2.94c-5.18,5.25-11.41,12.04-14.84,17.43Zm16.59-19.18c.91,0,1.75,0,2.73.07,2.45-2.87,4.2-5.18,4.2-6.02,0-.14-.07-.21-.14-.21-.35,0-3.15,2.52-6.79,6.16Z"/><path d="m138.81,51.39c0-3.64,9.24-11.97,9.24-11.97.21-.21.42-.28.63-.28.35,0,.63.28.63.63,0,.21-.07.49-.28.7-1.75,1.89-7.77,7.42-7.77,10.22,0,.7.49.98,1.26.98,1.75,0,4.9-1.54,5.95-2.17,2.17-1.05,7.35-4.06,8.19-4.76.21-.14.35-.21.49-.21s.28.14.28.28c0,.21-.28.56-.77.84,0,0-3.43,2.31-7.49,4.48-1.33.84-5.67,3.15-8.26,3.15-1.26,0-2.1-.49-2.1-1.89Zm17.85-20.16c0-.56-.42-.84-.98-.84-1.12,0-2.66,1.47-2.66,2.38,0,0,0,.91.98.91,1.47,0,2.66-1.12,2.66-2.45Z"/><path d="m165.27,34.86c.84,0,3.36.07,3.36,1.05,0,.63-.98,1.26-1.61,1.96-4.06,4.76-7.56,9.87-7.56,12.6,0,1.26.77,2.03,2.59,2.03,5.25,0,9.52-8.26,9.59-8.61.14-.56.21-.91.28-1.96.07-.91.49-1.05.91-1.05.7.07.84.84.84,1.54,0,.35-.07.7-.14,1.68,0,1.96.98,2.66,2.24,2.66,1.54,0,3.5-.98,5.04-2.03.21-.14.35-.21.49-.21s.28.14.28.28c0,.21-.28.56-.77.84-2.31,1.68-4.13,2.17-5.46,2.17-2.52,0-3.5-1.82-3.71-1.82-.07,0-.14.07-.28.35-3.08,4.83-8.4,7.84-11.62,7.84-1.68,0-2.8-.84-2.8-2.59,0-2.66,2.52-7.42,9.45-14.98,0-.63-2.1-.63-2.1-1.4,0-.21.35-.35.7-.35h.28Z"/><path d="m203.21,35.56c0,2.8-9.52,9.31-18.34,10.57-.42.91-.63,1.75-.63,2.45,0,.49.07,3.5,4.06,3.5,1.89,0,4.62-.63,8.68-2.59,2.17-1.05,7.35-4.06,8.19-4.76.21-.14.35-.21.49-.21s.28.14.28.28c0,.21-.28.56-.77.84,0,0-3.43,2.31-7.49,4.48-2.38,1.26-7.77,3.5-11.62,3.5-2.45,0-4.34-.91-4.34-3.57,0-5.32,11.2-15.75,19.04-15.75,1.75,0,2.45.49,2.45,1.26Zm-17.92,9.87c6.72-1.19,15.61-7,15.61-9.17,0-.49-.49-.84-1.68-.84-4.62,0-11.34,5.53-13.93,10.01Z"/><path d="m252.35,49.57c-2.38,1.26-6.72,3.92-9.38,3.92-.98,0-1.61-.42-1.61-1.47,0-1.47,1.33-3.78,1.47-4.06,0-.07-.07-.14-.14-.14-.7,0-7,5.32-11.83,5.32-2.1,0-3.08-.84-3.08-2.17,0-4.83,12.11-16.1,21.63-16.1,3.29,0,4.06.98,4.06,2.03,0,2.31-4.62,5.11-6.93,5.95-.14.07-.28.07-.42.07-.49,0-.84-.35-1.05-.7-.07-.14-.14-.28-.14-.42,0-.21.14-.35.56-.56.21-.07,5.67-2.59,5.67-4.41,0-.7-.63-1.26-1.68-1.26-8.68,0-19.18,9.8-19.18,14,0,1.12.77,1.89,2.59,1.89,3.92,0,11.41-5.39,12.46-7,.35-.49.7-.63.98-.63.21,0,.56.14.56.42,0,.42-.7,1.12-1.47,2.24-.35.49-1.26,2.45-1.26,3.92,0,.84.49,1.12,1.19,1.12,1.82,0,5.18-1.96,4.9-1.82,2.1-1.12,7.35-4.06,8.19-4.76.21-.14.35-.21.49-.21s.28.14.28.28c0,.21-.28.56-.77.84,0,0-2.66,1.82-6.09,3.71Z"/><path d="m266.21,52.09c1.89,0,4.62-.63,8.68-2.59,2.17-1.05,7.35-4.06,8.19-4.76.21-.14.35-.21.49-.21s.28.14.28.28c0,.21-.28.56-.77.84,0,0-3.43,2.31-7.49,4.48-2.38,1.26-7.77,3.5-11.62,3.5-2.45,0-4.34-.91-4.34-3.57,0-5.32,11.34-14.7,19.18-14.7,1.33,0,2.31.7,2.31,1.75,0,1.4-1.96,4.06-6.09,5.95-.14.07-.35.14-.63.14-.35,0-.98-.21-.98-.7,0-.35.28-.77.7-.98.63-.35,4.55-2.94,4.55-4.34,0-.42-.42-.7-1.4-.7-5.74,0-15.12,7.7-15.12,12.11,0,.49.07,3.5,4.06,3.5Z"/><path d="m303.17,24.57c5.39-5.39,9.94-9.38,10.92-9.38.21,0,.35,0,.49.14.14.14.21.28.21.49,0,1.47-2.52,4.83-6.09,8.82,7.84.14,15.61.28,15.96.28.21,0,.42.14.42.42,0,.63,0,1.05-1.82,1.19-2.17,0-9.24-.07-16.17-.14-7.07,7.56-16.94,16.66-20.37,19.25-.91,1.68-1.4,3.15-1.4,4.27,0,.91.7,1.19,1.61,1.19,2.1,0,5.53-1.54,5.32-1.4,2.1-1.12,7.35-4.06,8.19-4.76.21-.14.35-.21.49-.21s.28.14.28.28c0,.21-.28.56-.77.84,0,0-2.66,1.82-6.09,3.71-3.78,2.1-6.93,3.36-8.89,3.36-1.47,0-2.31-.7-2.31-2.17,0-4.2,9.73-15.68,18.34-24.5-5.32-.14-9.52-.14-9.66-.14-.63,0-.84-.49-.84-.98.07-.49.56-.77,1.19-.84,0,0,4.97.14,10.99.28Zm-15.33,19.18c3.36-2.52,11.97-10.92,17.78-17.43h-2.94c-5.18,5.25-11.41,12.04-14.84,17.43Zm16.59-19.18c.91,0,1.75,0,2.73.07,2.45-2.87,4.2-5.18,4.2-6.02,0-.14-.07-.21-.14-.21-.35,0-3.15,2.52-6.79,6.16Z"/><path d="m300.43,51.39c0-3.64,9.24-11.97,9.24-11.97.21-.21.42-.28.63-.28.35,0,.63.28.63.63,0,.21-.07.49-.28.7-1.75,1.89-7.77,7.42-7.77,10.22,0,.7.49.98,1.26.98,1.75,0,4.9-1.54,5.95-2.17,2.17-1.05,7.35-4.06,8.19-4.76.21-.14.35-.21.49-.21s.28.14.28.28c0,.21-.28.56-.77.84,0,0-3.43,2.31-7.49,4.48-1.33.84-5.67,3.15-8.26,3.15-1.26,0-2.1-.49-2.1-1.89Zm17.85-20.16c0-.56-.42-.84-.98-.84-1.12,0-2.66,1.47-2.66,2.38,0,0,0,.91.98.91,1.47,0,2.66-1.12,2.66-2.45Z"/><path d="m326.89,34.86c.84,0,3.36.07,3.36,1.05,0,.63-.98,1.26-1.61,1.96-4.06,4.76-7.56,9.87-7.56,12.6,0,1.26.77,2.03,2.59,2.03,5.25,0,9.52-8.26,9.59-8.61.14-.56.21-.91.28-1.96.07-.91.49-1.05.91-1.05.7.07.84.84.84,1.54,0,.35-.07.7-.14,1.68,0,1.96.98,2.66,2.24,2.66,1.54,0,3.5-.98,5.04-2.03.21-.14.35-.21.49-.21s.28.14.28.28c0,.21-.28.56-.77.84-2.31,1.68-4.13,2.17-5.46,2.17-2.52,0-3.5-1.82-3.71-1.82-.07,0-.14.07-.28.35-3.08,4.83-8.4,7.84-11.62,7.84-1.68,0-2.8-.84-2.8-2.59,0-2.66,2.52-7.42,9.45-14.98,0-.63-2.1-.63-2.1-1.4,0-.21.35-.35.7-.35h.28Z"/><path d="m342.08,51.39c0-3.64,9.24-11.97,9.24-11.97.21-.21.42-.28.63-.28.35,0,.63.28.63.63,0,.21-.07.49-.28.7-1.75,1.89-7.77,7.42-7.77,10.22,0,.7.49.98,1.26.98,1.75,0,4.9-1.54,5.95-2.17,2.17-1.05,7.35-4.06,8.19-4.76.21-.14.35-.21.49-.21s.28.14.28.28c0,.21-.28.56-.77.84,0,0-3.43,2.31-7.49,4.48-1.33.84-5.67,3.15-8.26,3.15-1.26,0-2.1-.49-2.1-1.89Zm17.85-20.16c0-.56-.42-.84-.98-.84-1.12,0-2.66,1.47-2.66,2.38,0,0,0,.91.98.91,1.47,0,2.66-1.12,2.66-2.45Z"/><path d="m379.95,24.57c5.39-5.39,9.94-9.38,10.92-9.38.21,0,.35,0,.49.14.14.14.21.28.21.49,0,1.47-2.52,4.83-6.09,8.82,7.84.14,15.61.28,15.96.28.21,0,.42.14.42.42,0,.63,0,1.05-1.82,1.19-2.17,0-9.24-.07-16.17-.14-7.07,7.56-16.94,16.66-20.37,19.25-.91,1.68-1.4,3.15-1.4,4.27,0,.91.7,1.19,1.61,1.19,2.1,0,5.53-1.54,5.32-1.4,2.1-1.12,7.35-4.06,8.19-4.76.21-.14.35-.21.49-.21s.28.14.28.28c0,.21-.28.56-.77.84,0,0-2.66,1.82-6.09,3.71-3.78,2.1-6.93,3.36-8.89,3.36-1.47,0-2.31-.7-2.31-2.17,0-4.2,9.73-15.68,18.34-24.5-5.32-.14-9.52-.14-9.66-.14-.63,0-.84-.49-.84-.98.07-.49.56-.77,1.19-.84,0,0,4.97.14,10.99.28Zm-15.33,19.18c3.36-2.52,11.97-10.92,17.78-17.43h-2.94c-5.18,5.25-11.41,12.04-14.84,17.43Zm16.59-19.18c.91,0,1.75,0,2.73.07,2.45-2.87,4.2-5.18,4.2-6.02,0-.14-.07-.21-.14-.21-.35,0-3.15,2.52-6.79,6.16Z"/><path d="m377.22,51.39c0-3.64,9.24-11.97,9.24-11.97.21-.21.42-.28.63-.28.35,0,.63.28.63.63,0,.21-.07.49-.28.7-1.75,1.89-7.77,7.42-7.77,10.22,0,.7.49.98,1.26.98,1.75,0,4.9-1.54,5.95-2.17,2.17-1.05,7.35-4.06,8.19-4.76.21-.14.35-.21.49-.21s.28.14.28.28c0,.21-.28.56-.77.84,0,0-3.43,2.31-7.49,4.48-1.33.84-5.67,3.15-8.26,3.15-1.26,0-2.1-.49-2.1-1.89Zm17.85-20.16c0-.56-.42-.84-.98-.84-1.12,0-2.66,1.47-2.66,2.38,0,0,0,.91.98.91,1.47,0,2.66-1.12,2.66-2.45Z"/><path d="m417.4,35.56c0,2.8-9.52,9.31-18.34,10.57-.42.91-.63,1.75-.63,2.45,0,.49.07,3.5,4.06,3.5,1.89,0,4.62-.63,8.68-2.59,2.17-1.05,7.35-4.06,8.19-4.76.21-.14.35-.21.49-.21s.28.14.28.28c0,.21-.28.56-.77.84,0,0-3.43,2.31-7.49,4.48-2.38,1.26-7.77,3.5-11.62,3.5-2.45,0-4.34-.91-4.34-3.57,0-5.32,11.2-15.75,19.04-15.75,1.75,0,2.45.49,2.45,1.26Zm-17.92,9.87c6.72-1.19,15.61-7,15.61-9.17,0-.49-.49-.84-1.68-.84-4.62,0-11.34,5.53-13.93,10.01Z"/><path d="m420.69,46.91c-.14,0-.28-.14-.28-.28,0-.21.28-.56.77-.84l2.45-1.68c.49-.35,2.94-2.1,5.74-4.2-.07-.35-.07-.63-.07-.98,0-4.34,7.07-9.66,10.36-9.66.77,0,1.05.49,1.05.91,0,1.89-5.04,6.02-9.59,9.45.7,3.78,3.01,6.37,3.01,10.43,0,2.8-2.66,4.13-5.67,4.13-2.31,0-4.76-.77-6.44-2.38-.21-.21-.28-.56-.28-.77s.07-.28.21-.28.35.07.7.35c1.89,1.47,3.64,2.03,5.18,2.03,2.52,0,4.2-1.61,4.2-3.71,0-2.31-1.89-5.53-2.52-8.61-2.66,1.96-4.97,3.57-5.39,3.92-.7.56-3.08,2.17-3.43,2.17Zm17.08-15.75c-2.31,0-6.79,3.64-6.79,6.37v1.12c3.71-2.87,7.42-6.02,7.42-6.93,0-.28-.14-.56-.63-.56Z"/></g></g></svg>