<?xml version="1.0" encoding="UTF-8"?>
<svg id="_レイヤー_2" data-name="レイヤー 2" xmlns="http://www.w3.org/2000/svg" viewBox="0 0 200.14 101.95">
  <defs>
    <style>
      .cls-1 {
        fill: #231815;
      }
    </style>
  </defs>
  <g id="_レイヤー_1-2" data-name="レイヤー 1">
    <g>
      <path class="cls-1" d="m32.39,1.06c-.01.55-.06,1.06-.1,1.55h3.75c.39,0,.62-.03.8-.04l.55.27c-.04.25-.07.46-.08.66-.04,1.25-.21,5.41-.85,6.71-.28.53-.66.71-1.33.71s-1.44-.03-2.2-.07l-.08-.76c.78.08,1.53.14,2.14.14.38,0,.67-.1.83-.43.62-1.19.78-5.02.78-6.5h-4.37c-.5,4.24-2.06,6.29-4.27,7.8l-.66-.53c.36-.18.85-.55,1.19-.84,1.43-1.21,2.65-3.04,3.05-6.43h-2.65c-.6,0-1.04,0-1.48.04v-.78c.43.03.92.06,1.47.06h2.72c.04-.48.07-.99.07-1.54,0-.32-.01-.76-.07-1.08h.85c-.03.31-.04.73-.06,1.06Z"/>
      <path class="cls-1" d="m50.1,4.43c-.32,1.39-.97,2.9-2.02,4.03-1.5,1.62-3.24,2.38-5.01,2.86l-.56-.64c1.9-.38,3.71-1.29,4.97-2.63.91-.97,1.54-2.34,1.81-3.5h-7.84c-.32,0-.76.01-1.2.04v-.8c.45.06.87.08,1.2.08h7.65c.24,0,.49-.03.63-.08l.53.32c-.06.1-.13.24-.15.32Zm-7.49-3.73h5.59c.43,0,.81-.01,1.12-.06v.77c-.31-.03-.69-.03-1.13-.03h-5.58c-.41,0-.77.01-1.13.03v-.77c.35.04.7.06,1.13.06Z"/>
      <path class="cls-1" d="m54.84,5.13h7.76c.73,0,1.15-.03,1.43-.06v.87c-.25-.01-.77-.04-1.41-.04h-7.77c-.77,0-1.4.01-1.78.04v-.87c.36.03.95.06,1.78.06Z"/>
      <path class="cls-1" d="m46.99,30.7v1.46h3.56c.49,0,.7-.06.84-.1l.49.31c-.06.15-.13.43-.17.69-.15.99-.59,2.97-1.42,4.34-1.01,1.71-2.83,3.11-5.44,3.82l-.59-.66c.36-.06.77-.17,1.13-.29,1.55-.46,3.26-1.64,4.16-3.08.8-1.29,1.29-3.19,1.39-4.36h-8.35v2.76c0,.21.01.55.06.71h-.8c.03-.18.04-.52.04-.73v-2.48c0-.28,0-.71-.04-1.01.36.04.77.07,1.23.07h3.17v-1.46c0-.22-.01-.57-.06-.91h.85c-.06.34-.07.69-.07.91Z"/>
      <path class="cls-1" d="m59.14,35.31c1.29-.78,2.51-1.89,3.24-2.77l.56.53c-.71.78-1.89,1.82-3.18,2.66v5.11c0,.38.01.87.04,1.04h-.83c.03-.17.06-.66.06-1.04v-4.66c-1.13.64-2.77,1.43-4.59,2l-.36-.69c1.85-.46,3.91-1.47,5.07-2.19Z"/>
      <path class="cls-1" d="m67.4,36.79l-.67.25c-.22-.73-1.01-2.7-1.25-3.12l.66-.27c.24.52.99,2.42,1.26,3.14Zm6.85-2.69c-.36,1.62-.98,3.15-2.02,4.44-1.29,1.61-2.98,2.66-4.5,3.24l-.6-.62c1.67-.5,3.35-1.57,4.51-3,1.01-1.25,1.75-2.98,2-4.79l.77.24c-.07.18-.13.36-.17.49Zm-3.78,1.85l-.66.25c-.14-.62-.81-2.45-1.08-3.01l.67-.22c.22.55.91,2.4,1.06,2.98Z"/>
      <path class="cls-1" d="m81.56,31.3c-.14.28-.31.57-.49.88h4.37c.34,0,.56-.03.73-.11l.63.38c-.08.15-.2.45-.24.59-.38,1.51-1.27,3.42-2.51,4.92-1.23,1.51-2.91,2.79-5.53,3.73l-.63-.59c2.4-.69,4.26-1.99,5.56-3.54,1.16-1.39,2.06-3.28,2.38-4.71h-5.2c-.8,1.16-1.95,2.44-3.57,3.5l-.62-.46c2.4-1.41,3.87-3.59,4.43-4.87.1-.2.27-.62.32-.9l.84.28c-.17.29-.35.66-.48.91Zm5.67.45l-.55.25c-.27-.56-.77-1.42-1.15-1.93l.53-.24c.35.49.85,1.33,1.16,1.92Zm1.5-.53l-.55.25c-.31-.62-.77-1.4-1.18-1.92l.52-.24c.38.5.92,1.37,1.21,1.91Z"/>
      <path class="cls-1" d="m91.41,33.42c-.42-.39-1.27-.95-1.97-1.3l.39-.45c.7.34,1.54.85,1.98,1.23l-.39.52Zm10.67,7.42v.59h-12.65v-.59h5.97v-1.53h-4.48v-.59h4.48v-.84h.66v.84h4.76v.59h-4.76v1.53h6.02Zm-12.27-3.22c.57-.74,1.4-1.99,2.04-3.1l.42.38c-.6,1.02-1.36,2.21-1.99,3.1l-.48-.38Zm2.58-6.43c-.43-.42-1.29-1.02-1.99-1.42l.39-.43c.7.36,1.57.94,1.99,1.34l-.39.5Zm4.83-1.99c1.22,1.34,3.15,2.51,4.83,3.12-.13.14-.28.39-.38.56-1.65-.67-3.59-1.88-4.72-3.11-.95,1.13-2.73,2.35-4.54,3.12-.07-.14-.22-.38-.36-.53,1.83-.73,3.66-1.95,4.57-3.17h.6Zm-2.02,5.88c-.56.81-1.44,1.67-2.33,2.25-.11-.11-.28-.27-.43-.35.85-.56,1.72-1.41,2.2-2.13l.56.22Zm2.09,1.65c0,.36-.08.55-.41.66-.29.11-.84.11-1.78.11-.04-.18-.14-.41-.24-.56.76.01,1.37.01,1.55.01.2-.01.24-.07.24-.22v-2.42h-3.53v-.57h3.53v-1.15h-2.25v-.56h5.13v.56h-2.24v1.15h3.75v.57h-3.75v2.42Zm3.68.52c-.48-.57-1.46-1.47-2.28-2.1l.48-.31c.83.6,1.81,1.47,2.33,2.03l-.52.38Z"/>
      <path class="cls-1" d="m108.53,32.12c-.49.99-1.04,1.93-1.69,2.82h3.56v-2.04h.66v2.04h4.31v4.61c0,.43-.11.64-.48.76-.38.11-1.11.13-2.38.11-.04-.18-.14-.42-.25-.6,1.04.03,1.89.01,2.13,0,.24-.01.31-.07.31-.28v-3.95h-3.64v6.36h-.66v-6.36h-3.43v5h-.67v-4.94c-.64.76-1.37,1.44-2.2,2.02-.1-.14-.28-.39-.42-.53,1.78-1.23,3.15-3.05,4.12-5h-3.77v-.66h4.06c.34-.74.6-1.5.81-2.24l.69.17c-.21.7-.46,1.39-.77,2.07h7.38v.66h-7.66Z"/>
      <path class="cls-1" d="m120.98,35.9v6h-.62v-5.97c-.87.06-1.68.1-2.37.13l-.07-.63.97-.04c.32-.39.67-.87,1.02-1.37-.42-.63-1.15-1.47-1.83-2.09l.39-.41c.17.14.32.29.49.46.49-.8,1.06-1.95,1.39-2.76l.6.25c-.46.95-1.08,2.12-1.61,2.9.36.38.69.77.94,1.12.62-.94,1.21-1.92,1.62-2.72l.6.28c-.83,1.36-1.96,3.08-2.93,4.3.77-.04,1.61-.08,2.49-.13-.22-.46-.49-.94-.76-1.34l.53-.21c.6.9,1.19,2.09,1.42,2.83l-.57.27c-.07-.27-.2-.6-.35-.95l-1.36.08Zm-1.46,1.27c-.22,1.32-.56,2.63-1.02,3.53-.11-.08-.41-.21-.56-.27.49-.87.78-2.13.97-3.38l.62.11Zm2.91,2.56c-.08-.69-.39-1.75-.74-2.56l.53-.15c.38.81.67,1.86.77,2.55l-.56.17Zm5.11-2.27c.88,1.3,2.34,2.66,3.57,3.31-.15.13-.35.35-.48.52-1.18-.71-2.58-2.07-3.49-3.43v4.03h-.66v-3.98c-.92,1.44-2.37,2.76-3.68,3.47-.11-.18-.31-.41-.48-.53,1.37-.64,2.87-2,3.77-3.39h-2.61v-4.72h3v-1.4h-3.47v-.63h3.47v-1.48h.66v1.48h3.49v.63h-3.49v1.4h3.12v4.72h-2.73Zm-3.43-2.65h2.41v-1.51h-2.41v1.51Zm0,2.07h2.41v-1.53h-2.41v1.53Zm5.52-3.59h-2.51v1.51h2.51v-1.51Zm0,2.06h-2.51v1.53h2.51v-1.53Z"/>
      <path class="cls-1" d="m136.55,33.52c-1.29.52-2.61,1.06-3.66,1.47l-.28-.57c.98-.32,2.41-.87,3.82-1.44l.11.55Zm.9-2.94h-4.52v-.59h5.15v4.62c0,.35-.08.53-.38.64-.31.11-.84.1-1.74.1-.04-.17-.14-.39-.22-.55.71.01,1.3.01,1.47,0,.18,0,.24-.06.24-.2v-4.03Zm-3.4.29c.7.36,1.51.95,1.88,1.39l-.41.46c-.39-.46-1.18-1.07-1.86-1.44l.39-.41Zm5.08,4.16c-.21.41-.43.81-.64,1.16h4.71v5.76h-.69v-.57h-7.31v.57h-.66v-5.76h3.28c.24-.42.5-.97.63-1.34l.69.18Zm3.38,1.74h-7.31v1.68h7.31v-1.68Zm0,4.02v-1.75h-7.31v1.75h7.31Zm-3.73-6.67c1.02-.34,2.54-.88,4.02-1.42l.1.53c-1.34.5-2.75,1.04-3.84,1.43l-.28-.55Zm5.52.52c0,.38-.1.56-.39.67-.31.1-.87.11-1.81.1-.03-.17-.13-.41-.21-.56.73.03,1.34.03,1.53.01.18-.01.24-.06.24-.22v-4.06h-4.61v-.59h5.25v4.65Zm-2.9-1.96c-.38-.46-1.18-1.02-1.88-1.39l.39-.41c.69.34,1.5.9,1.91,1.32l-.42.48Z"/>
      <path class="cls-1" d="m155.52,32.72l.59-.38c.95,1.23,2.33,2.44,3.56,3.22-1.23.79-2.61,1.99-3.56,3.22l-.59-.38c.7-.94,1.72-1.89,2.52-2.49h-11.33v-.7h11.33c-.8-.6-1.82-1.55-2.52-2.49Z"/>
      <path class="cls-1" d="m163.8,31.19h6.6c.46,0,.8-.01,1.09-.04v.74c-.31-.01-.6-.03-1.09-.03h-3.82v3.29h5c.29,0,.76-.01,1.05-.04v.76c-.29-.01-.73-.03-1.04-.03h-5.01v3.19c0,.67.49,1.19,1.88,1.19s2.48-.06,3.71-.2l-.03.74c-1.19.08-2.39.15-3.75.15-1.85,0-2.54-.67-2.54-1.65v-3.43h-2.98c-.34,0-.83.01-1.19.04v-.78c.36.04.85.06,1.19.06h2.98v-3.29h-2.04c-.46,0-.85.01-1.21.03v-.74c.35.03.74.04,1.21.04Z"/>
      <path class="cls-1" d="m176.15,34.38h9.16c.29,0,.66-.03.98-.06v.77c-.28-.03-.67-.04-.98-.04h-4.05c-.03,1.54-.22,2.9-.81,3.98-.52.91-1.57,1.88-2.72,2.46l-.67-.5c1.13-.49,2.16-1.3,2.7-2.23.64-1.05.74-2.3.77-3.71h-4.38c-.43,0-.77.01-1.15.04v-.77c.36.03.71.06,1.15.06Zm1.67-3.47h5.01c.35,0,.81-.01,1.19-.07v.78c-.38-.03-.84-.04-1.19-.04h-4.99c-.45,0-.83.01-1.15.04v-.78c.36.04.69.07,1.12.07Zm8.03.6l-.55.27c-.27-.58-.77-1.42-1.15-1.95l.53-.24c.35.5.85,1.33,1.16,1.92Zm1.5-.53l-.55.25c-.31-.62-.77-1.4-1.18-1.92l.52-.24c.38.52.92,1.37,1.2,1.91Z"/>
      <path class="cls-1" d="m190.54,37.12c.41-1.33.42-4.2.42-5.7,0-.32-.03-.59-.08-.85h.84c-.03.22-.06.53-.06.85,0,1.48-.06,4.52-.43,5.91-.42,1.46-1.33,2.82-2.49,3.74l-.67-.45c1.15-.83,2.03-2.06,2.48-3.5Zm3.98,2.83v-8.52c0-.48-.04-.78-.06-.94h.83c-.03.15-.04.46-.04.94v8.53c1.39-.64,3.32-2.02,4.45-3.74l.43.62c-1.25,1.71-3.15,3.1-4.79,3.91-.2.1-.34.2-.42.27l-.49-.41c.06-.2.08-.43.08-.66Z"/>
      <path class="cls-1" d="m35.85,62.04c-.49,1.29-1.44,3.04-2.45,4.27,1.53,1.3,3.22,3.11,4.19,4.27l-.6.53c-.95-1.22-2.58-2.98-4.05-4.29-1.54,1.65-3.43,3.22-5.6,4.19l-.56-.6c2.26-.9,4.27-2.55,5.79-4.23.97-1.11,2.1-2.93,2.47-4.19h-5.87c-.45,0-1.22.06-1.28.06v-.83c.08,0,.84.07,1.28.07h5.67c.36,0,.63-.03.81-.08l.46.36c-.07.1-.21.34-.25.46Z"/>
      <path class="cls-1" d="m41.64,61.51c0-.34-.03-.92-.1-1.33h.9c-.04.39-.08,1-.08,1.33v2.42c1.83.56,4.45,1.57,6.07,2.37l-.31.74c-1.55-.85-4.2-1.86-5.76-2.34.01,2.31.01,4.71.01,5,0,.48.01,1.09.07,1.49h-.87c.06-.38.07-.98.07-1.49v-8.19Z"/>
      <path class="cls-1" d="m52.5,69.95v-8.25c0-.28-.04-.88-.08-1.09h.9c-.04.24-.08.76-.08,1.08v8.35c2.91-.7,6.23-2.58,7.94-4.86l.42.62c-1.76,2.24-4.64,3.99-8.24,4.97-.13.04-.29.1-.45.17l-.5-.42c.07-.15.1-.31.1-.56Z"/>
      <path class="cls-1" d="m65.82,65.13h7.76c.73,0,1.15-.03,1.43-.06v.87c-.25-.01-.77-.04-1.41-.04h-7.77c-.77,0-1.4.01-1.78.04v-.87c.36.03.95.06,1.78.06Z"/>
      <path class="cls-1" d="m79.59,61.51c0-.34-.03-.92-.1-1.33h.9c-.04.39-.08,1-.08,1.33v2.42c1.83.56,4.46,1.57,6.07,2.37l-.31.74c-1.55-.85-4.2-1.86-5.76-2.34.01,2.31.01,4.71.01,5,0,.48.01,1.09.07,1.49h-.87c.06-.38.07-.98.07-1.49v-8.19Z"/>
      <path class="cls-1" d="m46.99,90.7v1.46h3.56c.49,0,.7-.06.84-.1l.49.31c-.06.15-.13.43-.17.69-.15.99-.59,2.97-1.42,4.34-1.01,1.71-2.83,3.11-5.44,3.82l-.59-.66c.36-.06.77-.17,1.13-.29,1.55-.46,3.26-1.64,4.16-3.08.8-1.29,1.29-3.19,1.39-4.36h-8.35v2.76c0,.21.01.55.06.71h-.8c.03-.18.04-.52.04-.73v-2.48c0-.28,0-.71-.04-1.01.36.04.77.07,1.23.07h3.17v-1.46c0-.22-.01-.57-.06-.91h.85c-.06.34-.07.69-.07.91Z"/>
      <path class="cls-1" d="m59.14,95.31c1.29-.78,2.51-1.89,3.24-2.77l.56.53c-.71.78-1.89,1.82-3.18,2.66v5.11c0,.38.01.87.04,1.04h-.83c.03-.17.06-.66.06-1.04v-4.66c-1.13.64-2.77,1.43-4.59,2l-.36-.69c1.85-.46,3.91-1.47,5.07-2.19Z"/>
      <path class="cls-1" d="m67.4,96.79l-.67.25c-.22-.73-1.01-2.7-1.25-3.12l.66-.27c.24.52.99,2.42,1.26,3.14Zm6.85-2.69c-.36,1.62-.98,3.15-2.02,4.44-1.29,1.61-2.98,2.66-4.5,3.24l-.6-.62c1.67-.5,3.35-1.57,4.51-3,1.01-1.25,1.75-2.98,2-4.79l.77.24c-.07.18-.13.36-.17.49Zm-3.78,1.85l-.66.25c-.14-.62-.81-2.45-1.08-3.01l.67-.22c.22.55.91,2.4,1.06,2.98Z"/>
      <path class="cls-1" d="m81.56,91.3c-.14.28-.31.57-.49.88h4.37c.34,0,.56-.03.73-.11l.63.38c-.08.15-.2.45-.24.59-.38,1.51-1.27,3.42-2.51,4.92-1.23,1.51-2.91,2.79-5.53,3.73l-.63-.59c2.4-.69,4.26-1.99,5.56-3.54,1.16-1.39,2.06-3.28,2.38-4.71h-5.2c-.8,1.16-1.95,2.44-3.57,3.5l-.62-.46c2.4-1.41,3.87-3.59,4.43-4.87.1-.2.27-.62.32-.9l.84.28c-.17.29-.35.66-.48.91Zm5.67.45l-.55.25c-.27-.56-.77-1.42-1.15-1.93l.53-.24c.35.49.85,1.33,1.16,1.92Zm1.5-.53l-.55.25c-.31-.62-.77-1.4-1.18-1.92l.52-.24c.38.5.92,1.37,1.21,1.91Z"/>
      <path class="cls-1" d="m92.28,95.9v6h-.62v-5.97c-.87.06-1.68.1-2.37.13l-.07-.63.97-.04c.32-.39.67-.87,1.02-1.37-.42-.63-1.15-1.47-1.84-2.09l.39-.41c.17.14.32.29.49.46.49-.8,1.06-1.95,1.39-2.76l.6.25c-.46.95-1.08,2.12-1.61,2.9.36.38.69.77.94,1.12.62-.94,1.21-1.92,1.62-2.72l.6.28c-.83,1.36-1.96,3.08-2.93,4.3.77-.04,1.61-.08,2.49-.13-.22-.46-.49-.94-.76-1.34l.53-.21c.6.9,1.19,2.09,1.42,2.83l-.57.27c-.07-.27-.2-.6-.35-.95l-1.36.08Zm-1.46,1.27c-.22,1.32-.56,2.63-1.02,3.53-.11-.08-.41-.21-.56-.27.49-.87.78-2.13.97-3.38l.62.11Zm2.91,2.56c-.08-.69-.39-1.75-.74-2.56l.53-.15c.38.81.67,1.86.77,2.55l-.56.17Zm5.11-2.27c.88,1.3,2.34,2.66,3.57,3.31-.15.13-.35.35-.48.52-1.18-.71-2.58-2.07-3.49-3.43v4.03h-.66v-3.98c-.92,1.44-2.37,2.76-3.68,3.47-.11-.18-.31-.41-.48-.53,1.37-.64,2.87-2,3.77-3.39h-2.6v-4.72h3v-1.4h-3.47v-.63h3.47v-1.48h.66v1.48h3.49v.63h-3.49v1.4h3.12v4.72h-2.73Zm-3.43-2.65h2.41v-1.51h-2.41v1.51Zm0,2.07h2.41v-1.53h-2.41v1.53Zm5.52-3.59h-2.51v1.51h2.51v-1.51Zm0,2.06h-2.51v1.53h2.51v-1.53Z"/>
      <path class="cls-1" d="m107.85,93.52c-1.29.52-2.61,1.06-3.66,1.47l-.28-.57c.98-.32,2.41-.87,3.82-1.44l.11.55Zm.9-2.94h-4.52v-.59h5.15v4.62c0,.35-.08.53-.38.64-.31.11-.84.1-1.74.1-.04-.17-.14-.39-.22-.55.71.01,1.3.01,1.47,0,.18,0,.24-.06.24-.2v-4.03Zm-3.4.29c.7.36,1.51.95,1.88,1.39l-.41.46c-.39-.46-1.18-1.07-1.86-1.44l.39-.41Zm5.08,4.16c-.21.41-.43.81-.64,1.16h4.71v5.76h-.69v-.57h-7.31v.57h-.66v-5.76h3.28c.24-.42.5-.97.63-1.34l.69.18Zm3.38,1.74h-7.31v1.68h7.31v-1.68Zm0,4.02v-1.75h-7.31v1.75h7.31Zm-3.73-6.67c1.02-.34,2.54-.88,4.02-1.42l.1.53c-1.34.5-2.75,1.04-3.84,1.43l-.28-.55Zm5.52.52c0,.38-.1.56-.39.67-.31.1-.87.11-1.81.1-.03-.17-.13-.41-.21-.56.73.03,1.34.03,1.53.01.18-.01.24-.06.24-.22v-4.06h-4.61v-.59h5.25v4.65Zm-2.9-1.96c-.38-.46-1.18-1.02-1.88-1.39l.39-.41c.69.34,1.5.9,1.91,1.32l-.42.48Z"/>
      <path class="cls-1" d="m126.82,92.72l.59-.38c.95,1.23,2.33,2.44,3.56,3.22-1.23.79-2.61,1.99-3.56,3.22l-.59-.38c.7-.94,1.72-1.89,2.52-2.49h-11.33v-.7h11.33c-.8-.6-1.82-1.55-2.52-2.49Z"/>
      <path class="cls-1" d="m135.1,91.19h6.6c.46,0,.8-.01,1.09-.04v.74c-.31-.01-.6-.03-1.09-.03h-3.82v3.29h5c.29,0,.76-.01,1.05-.04v.76c-.29-.01-.73-.03-1.04-.03h-5.01v3.19c0,.67.49,1.19,1.88,1.19s2.48-.06,3.71-.2l-.03.74c-1.19.08-2.39.15-3.75.15-1.85,0-2.54-.67-2.54-1.65v-3.43h-2.98c-.34,0-.83.01-1.19.04v-.78c.36.04.85.06,1.19.06h2.98v-3.29h-2.04c-.46,0-.85.01-1.21.03v-.74c.35.03.74.04,1.21.04Z"/>
      <path class="cls-1" d="m147.45,94.38h9.16c.29,0,.66-.03.98-.06v.77c-.28-.03-.67-.04-.98-.04h-4.05c-.03,1.54-.22,2.9-.81,3.98-.52.91-1.57,1.88-2.72,2.46l-.67-.5c1.13-.49,2.16-1.3,2.7-2.23.64-1.05.74-2.3.77-3.71h-4.38c-.43,0-.77.01-1.15.04v-.77c.36.03.71.06,1.15.06Zm1.67-3.47h5.01c.35,0,.81-.01,1.19-.07v.78c-.38-.03-.84-.04-1.19-.04h-4.99c-.45,0-.83.01-1.15.04v-.78c.36.04.69.07,1.12.07Zm8.03.6l-.55.27c-.27-.58-.77-1.42-1.15-1.95l.53-.24c.35.5.85,1.33,1.16,1.92Zm1.5-.53l-.55.25c-.31-.62-.77-1.4-1.18-1.92l.52-.24c.38.52.92,1.37,1.2,1.91Z"/>
      <path class="cls-1" d="m161.84,97.12c.41-1.33.42-4.2.42-5.7,0-.32-.03-.59-.08-.85h.84c-.03.22-.06.53-.06.85,0,1.48-.06,4.52-.43,5.91-.42,1.46-1.33,2.82-2.49,3.74l-.67-.45c1.15-.83,2.03-2.06,2.48-3.5Zm3.98,2.83v-8.52c0-.48-.04-.78-.06-.94h.83c-.03.15-.04.46-.04.94v8.53c1.39-.64,3.32-2.02,4.45-3.74l.43.62c-1.25,1.71-3.15,3.1-4.79,3.91-.2.1-.34.2-.42.27l-.49-.41c.06-.2.08-.43.08-.66Z"/>
    </g>
    <g>
      <path class="cls-1" d="m7.12,9.24H0V2.12h7.12v7.12Z"/>
      <path class="cls-1" d="m7.12,67.24H0v-7.12h7.12v7.12Z"/>
    </g>
  </g>
</svg>