<?xml version="1.0" encoding="UTF-8"?>
<svg id="_レイヤー_2" data-name="レイヤー 2" xmlns="http://www.w3.org/2000/svg" viewBox="0 0 591.15 8.52">
  <defs>
    <style>
      .cls-1 {
        fill: none;
        stroke: #000;
        stroke-linecap: round;
        stroke-linejoin: round;
        stroke-width: .5px;
      }
    </style>
  </defs>
  <g id="_レイヤー_1-2" data-name="レイヤー 1">
    <g>
      <g>
        <path d="m4.57.63c0,1.6.19,5.2,4,7.48-.1.08-.29.25-.37.36-2.55-1.55-3.52-3.79-3.87-5.6-.7,2.65-1.91,4.45-3.93,5.62-.07-.08-.28-.27-.4-.36,2.15-1.12,3.33-3.06,3.95-5.8l.3.06c-.08-.49-.1-.93-.11-1.3H1.73v-.45h2.84Z"/>
        <path d="m13.36,5.71c-.26-.27-.94-.89-1.38-1.28v4.07h-.44v-3.9c-.52.53-1.08.99-1.61,1.34-.06-.11-.19-.29-.26-.37,1.16-.73,2.44-2.01,3.11-3.36h-2.81v-.42h1.56V.03h.44v1.77h1.04l.08-.03.27.18c-.31.73-.78,1.44-1.3,2.07.4.33,1.32,1.12,1.56,1.34l-.27.37Zm5.07,2.08v.44h-5.25v-.44h2.5V3.61h-2.13v-.44h2.13V.08h.45v3.09h2.11v.44h-2.11v4.18h2.3Z"/>
      </g>
      <g>
        <path d="m95.42,6.79l.32-.36c.51.63,1.17,1.02,2.18,1.02.94,0,1.75-.55,1.75-1.46s-.75-1.51-2.47-1.51v-.46c1.57,0,2.27-.69,2.27-1.41s-.58-1.26-1.55-1.26c-.76,0-1.43.33-1.95.88l-.33-.35c.61-.6,1.34-1.01,2.29-1.01,1.28,0,2.1.69,2.1,1.67,0,.84-.55,1.44-1.38,1.66v.04c.91.15,1.58.81,1.58,1.76,0,1.21-1.02,1.93-2.28,1.93s-2.01-.5-2.52-1.14Z"/>
        <path d="m106.8,2.75c-.09.28-.23.64-.38.94h3.94c.2,0,.47,0,.67-.03v.5c-.22-.02-.49-.03-.67-.03h-1.51c-.14,2.26-1.03,3.56-2.36,4.36l-.5-.33c.17-.07.51-.27.67-.39.71-.55,1.61-1.56,1.72-3.64h-2.21c-.36.6-.92,1.3-1.32,1.63l-.45-.26c.57-.41,1.11-1.17,1.41-1.66.23-.39.4-.83.5-1.19.04-.15.07-.31.08-.49l.55.12c-.07.17-.11.3-.16.46Z"/>
        <path d="m120.47,7.71c0,.4-.12.57-.42.66-.31.08-.91.08-1.94.08-.03-.13-.11-.33-.19-.47.84.02,1.58,0,1.8,0,.21,0,.29-.07.29-.29v-2.18h-4.8c-.22,1.08-.69,2.16-1.64,3-.07-.1-.22-.27-.33-.33,1.55-1.39,1.72-3.34,1.72-4.89V.55h5.5v7.16Zm-.46-2.62v-1.84h-4.59v.06c0,.55-.03,1.16-.12,1.79h4.71Zm-4.59-4.1v1.81h4.59V.99h-4.59Z"/>
      </g>
      <g>
        <path d="m398.77,7.34h1.54V2h-1.19v-.36c.55-.09.97-.24,1.3-.44h.44v6.15h1.42v.48h-3.52v-.48Z"/>
        <path d="m414.58,6.27h-3.51v2.25h-.45v-2.25h-4.42v-.44h1.58v-2.55h2.83v-1.62h-2.45c-.44.76-.96,1.42-1.51,1.94-.08-.08-.28-.22-.4-.28.93-.79,1.73-2.01,2.21-3.31l.46.11c-.15.38-.33.76-.51,1.11h5.76v.43h-3.11v1.62h2.92v.43h-2.92v2.12h3.51v.44Zm-3.96-.44v-2.12h-2.39v2.12h2.39Z"/>
      </g>
      <g>
        <path d="m193.59,4.81c0-2.75,1.16-3.73,2.46-3.73.63,0,1.08.27,1.43.66l-.32.36c-.28-.35-.69-.53-1.12-.53-1.01,0-1.88.79-1.91,3.15.45-.54,1.05-.89,1.64-.89,1.15,0,1.85.71,1.85,2.04,0,1.22-.84,2.09-1.84,2.09-1.32,0-2.19-1.1-2.19-3.13Zm.55.42c.08,1.38.62,2.25,1.65,2.25.74,0,1.3-.69,1.3-1.63s-.43-1.6-1.39-1.6c-.45,0-1.04.26-1.55.97Z"/>
        <path d="m204.57,2.75c-.09.28-.23.64-.38.94h3.94c.2,0,.47,0,.67-.03v.5c-.21-.02-.49-.03-.67-.03h-1.51c-.14,2.26-1.03,3.56-2.36,4.36l-.5-.33c.17-.07.51-.27.67-.39.71-.55,1.61-1.56,1.72-3.64h-2.21c-.36.6-.92,1.3-1.32,1.63l-.45-.26c.57-.41,1.11-1.17,1.41-1.66.23-.39.4-.83.5-1.19.04-.15.07-.31.08-.49l.55.12c-.07.17-.11.3-.16.46Z"/>
        <path d="m218.24,7.71c0,.4-.12.57-.42.66-.31.08-.91.08-1.94.08-.03-.13-.11-.33-.19-.47.84.02,1.58,0,1.8,0,.21,0,.29-.07.29-.29v-2.18h-4.8c-.22,1.08-.69,2.16-1.64,3-.07-.1-.22-.27-.33-.33,1.55-1.39,1.72-3.34,1.72-4.89V.55h5.5v7.16Zm-.46-2.62v-1.84h-4.59v.06c0,.55-.03,1.16-.12,1.79h4.71Zm-4.59-4.1v1.81h4.59V.99h-4.59Z"/>
      </g>
      <g>
        <path d="m574.9,7.48c2.13-2.16,3.23-3.38,3.23-4.52,0-.8-.43-1.42-1.39-1.42-.59,0-1.12.36-1.52.84l-.35-.33c.51-.56,1.09-.98,1.92-.98,1.19,0,1.89.75,1.89,1.87,0,1.3-1.18,2.56-2.96,4.44.36-.03.76-.06,1.12-.06h2.17v.49h-4.11v-.34Z"/>
        <path d="m591.15,6.27h-3.51v2.25h-.45v-2.25h-4.42v-.44h1.58v-2.55h2.83v-1.62h-2.45c-.44.76-.96,1.42-1.51,1.94-.08-.08-.28-.22-.4-.28.93-.79,1.73-2.01,2.21-3.31l.46.11c-.15.38-.33.76-.51,1.11h5.76v.43h-3.11v1.62h2.92v.43h-2.92v2.12h3.51v.44Zm-3.96-.44v-2.12h-2.39v2.12h2.39Z"/>
      </g>
      <g>
        <line class="cls-1" x1="29.81" y1="3.96" x2="84.08" y2="3.96"/>
        <circle cx="29.81" cy="3.96" r="1.87"/>
        <circle cx="84.08" cy="3.96" r="1.87"/>
      </g>
      <g>
        <line class="cls-1" x1="235.6" y1="3.96" x2="385.71" y2="3.96"/>
        <circle cx="235.6" cy="3.96" r="1.87"/>
        <circle cx="385.71" cy="3.96" r="1.87"/>
      </g>
      <g>
        <line class="cls-1" x1="426.98" y1="3.96" x2="563.74" y2="3.96"/>
        <circle cx="426.98" cy="3.96" r="1.87"/>
        <circle cx="563.74" cy="3.96" r="1.87"/>
      </g>
      <g>
        <line class="cls-1" x1="137.51" y1="3.96" x2="181.17" y2="3.96"/>
        <circle cx="137.51" cy="3.96" r="1.87"/>
        <circle cx="181.17" cy="3.96" r="1.87"/>
      </g>
    </g>
  </g>
</svg>