<?xml version="1.0" encoding="UTF-8"?>
<svg id="_レイヤー_2" data-name="レイヤー 2" xmlns="http://www.w3.org/2000/svg" viewBox="0 0 257.65 132.97">
  <defs>
    <style>
      .cls-1 {
        fill: #231815;
      }
    </style>
  </defs>
  <g id="_レイヤー_1-2" data-name="レイヤー 1">
    <g>
      <path class="cls-1" d="m32.27,6.04v6.64h-.66v-1.5l-4.89.67-.1-.63c.42-.04.88-.1,1.4-.17v-5.01h-1.27v-.59h12.2v.59h-6.68Zm5.13-1.54h-8.96V.43h8.96v4.06Zm-5.79,1.54h-2.94v1.19h2.94v-1.19Zm-2.94,2.98h2.94v-1.23h-2.94v1.23Zm0,1.96c.91-.13,1.93-.25,2.94-.39v-1.02h-2.94v1.42ZM36.74.98h-7.65v1.22h7.65V.98Zm0,1.75h-7.65v1.23h7.65v-1.23Zm1.76,4.55c-.48,1.36-1.29,2.45-2.27,3.31.85.71,1.89,1.26,3.07,1.55-.15.13-.34.38-.43.53-1.19-.35-2.24-.92-3.11-1.7-.94.71-2,1.25-3.05,1.58-.07-.17-.22-.41-.36-.55,1.01-.29,2.06-.79,2.97-1.47-.73-.76-1.32-1.67-1.71-2.7l.45-.13h-1.21v-.59h5.13l.11-.03.42.18Zm-4.34.43c.36.92.91,1.76,1.62,2.47.79-.67,1.44-1.5,1.86-2.47h-3.49Z"/>
      <path class="cls-1" d="m42.31,7.97c-.22,1.3-.59,2.63-1.06,3.53-.13-.08-.41-.22-.56-.28.5-.87.81-2.12,1.01-3.38l.62.13Zm1.47-1.18v5.94h-.62v-5.9c-.85.06-1.64.1-2.31.14l-.06-.64.88-.04c.35-.43.71-.97,1.09-1.53-.45-.63-1.22-1.46-1.91-2.05l.38-.42c.15.13.31.27.46.41.5-.78,1.07-1.91,1.39-2.7l.6.27c-.46.91-1.06,2.06-1.6,2.82.39.39.76.79,1.02,1.13.57-.91,1.12-1.88,1.53-2.66l.59.27c-.8,1.42-1.92,3.19-2.89,4.44.77-.03,1.62-.07,2.51-.13-.22-.48-.49-.97-.76-1.39l.52-.21c.56.87,1.12,2,1.33,2.72l-.56.25c-.06-.22-.15-.5-.28-.8l-1.33.08Zm1.23.98c.42.79.8,1.85.92,2.54l-.55.2c-.14-.7-.5-1.76-.9-2.58l.52-.15Zm7.47-6.02c-.53,1.32-1.36,2.46-2.34,3.45,1.08,1.01,2.33,1.83,3.59,2.33-.15.14-.36.38-.46.55-1.25-.53-2.49-1.4-3.56-2.45-1.06.95-2.27,1.71-3.46,2.24-.07-.15-.28-.42-.43-.53,1.19-.5,2.41-1.23,3.45-2.17-.67-.71-1.26-1.51-1.74-2.35-.46.59-.99,1.16-1.61,1.68-.11-.14-.34-.32-.48-.41,1.47-1.19,2.51-2.83,3.04-4.08l.67.11c-.21.46-.46.94-.76,1.43h3.54l.14-.03.41.24Zm-5.44,8.26c1.89.52,4.25,1.47,5.49,2.17l-.41.55c-1.23-.74-3.59-1.71-5.5-2.23l.42-.49Zm.85-7.72c.45.85,1.08,1.7,1.79,2.45.77-.77,1.43-1.64,1.88-2.59h-3.57l-.1.14Zm.7,5.03c.98.42,2.18,1.11,2.82,1.58l-.45.46c-.64-.49-1.85-1.21-2.82-1.61l.45-.43Z"/>
      <path class="cls-1" d="m61.18,1.9c1.19-.15,2.98-.5,3.66-.78l.49.64c-.21.06-.41.11-.6.17-.71.17-1.95.43-3.04.59v2.98h4.06c.31,0,.74-.03,1.02-.06v.77c-.27-.03-.67-.04-.99-.04h-4.1c-.08,2.82-1.13,4.55-3.57,5.93l-.69-.5c2.23-1.05,3.43-2.62,3.54-5.42h-4.34c-.45,0-.9.01-1.2.04v-.78c.27.03.77.07,1.19.07h4.37v-2.9c-1.46.17-3.11.2-4.27.22l-.18-.7c1.05.06,3.17-.03,4.66-.22Z"/>
      <path class="cls-1" d="m70.21,4.68h6.49c.35,0,.67-.03.92-.04v.74c-.27-.03-.62-.03-.92-.03h-2.94v5.52h3.59c.31,0,.6-.01.87-.04v.77c-.27-.01-.66-.03-.87-.03h-7.75c-.28,0-.6.01-.92.03v-.77c.31.03.63.04.92.04h3.45v-5.52h-2.82c-.17,0-.6,0-.88.03v-.74c.29.03.7.04.87.04Z"/>
      <path class="cls-1" d="m82.59,7.58l-.67.25c-.22-.73-1.01-2.7-1.25-3.12l.66-.27c.24.52.99,2.42,1.26,3.14Zm6.85-2.69c-.36,1.62-.98,3.15-2.02,4.44-1.29,1.61-2.98,2.66-4.5,3.24l-.6-.62c1.67-.5,3.35-1.57,4.51-3,1.01-1.25,1.75-2.98,2-4.79l.77.24c-.07.18-.13.36-.17.49Zm-3.78,1.85l-.66.25c-.14-.62-.81-2.45-1.08-3.01l.67-.22c.22.55.91,2.4,1.06,2.98Z"/>
      <path class="cls-1" d="m97.23,1.72c-.14.28-.31.59-.5.9h4.38c.34,0,.56-.04.73-.11l.63.36c-.08.17-.2.45-.24.6-.38,1.5-1.27,3.42-2.51,4.92-1.23,1.51-2.91,2.79-5.53,3.73l-.63-.6c2.4-.69,4.26-1.97,5.56-3.53,1.16-1.4,2.06-3.29,2.38-4.71h-5.21c-.8,1.16-1.93,2.44-3.56,3.49l-.62-.46c2.4-1.4,3.87-3.59,4.43-4.86.1-.2.27-.62.32-.91l.84.29c-.17.28-.35.66-.48.9Z"/>
      <path class="cls-1" d="m46.74,31.85c-.01.55-.06,1.06-.1,1.55h3.75c.39,0,.62-.03.8-.04l.55.27c-.04.25-.07.46-.08.66-.04,1.25-.21,5.41-.85,6.71-.28.53-.66.71-1.33.71s-1.44-.03-2.2-.07l-.08-.76c.78.08,1.53.14,2.14.14.38,0,.67-.1.83-.43.62-1.19.78-5.02.78-6.5h-4.37c-.5,4.24-2.06,6.29-4.27,7.8l-.66-.53c.36-.18.85-.55,1.19-.84,1.43-1.21,2.65-3.04,3.05-6.43h-2.65c-.6,0-1.04,0-1.48.04v-.78c.43.03.92.06,1.47.06h2.72c.04-.48.07-.99.07-1.54,0-.32-.01-.76-.07-1.08h.85c-.03.31-.04.73-.06,1.06Z"/>
      <path class="cls-1" d="m60.3,31.48v1.46h3.56c.49,0,.7-.06.84-.1l.49.31c-.06.15-.13.43-.17.69-.15.99-.59,2.97-1.42,4.34-1.01,1.71-2.83,3.11-5.44,3.82l-.59-.66c.36-.06.77-.17,1.13-.29,1.55-.46,3.26-1.64,4.16-3.08.8-1.29,1.29-3.19,1.39-4.36h-8.35v2.76c0,.21.01.55.06.71h-.8c.03-.18.04-.52.04-.73v-2.48c0-.28,0-.71-.04-1.01.36.04.77.07,1.23.07h3.17v-1.46c0-.22-.01-.57-.06-.91h.85c-.06.34-.07.69-.07.91Z"/>
      <path class="cls-1" d="m73.65,38.87c2.02-1.3,3.66-3.35,4.41-4.99l.43.76c-.9,1.64-2.38,3.53-4.43,4.85-1.39.9-3.14,1.81-5.69,2.31l-.48-.74c2.59-.39,4.43-1.33,5.74-2.19Zm-1.33-4.38l-.55.56c-.7-.7-2.42-2.2-3.47-2.88l.49-.52c1,.66,2.79,2.12,3.53,2.84Z"/>
      <path class="cls-1" d="m83.64,35.42c-1.51.31-2.83.57-3.38.7l-.15-.78c.62-.07,1.99-.32,3.53-.62v-2.63c0-.39,0-.7-.07-1.11h.87c-.06.41-.08.73-.08,1.11v2.49c2.56-.5,5.37-1.08,5.91-1.19.25-.06.48-.13.59-.21l.52.41c-.08.13-.2.31-.28.45-.66,1.15-1.65,2.82-2.86,4.06l-.63-.38c1.12-1.05,2.21-2.73,2.65-3.63-.1.03-3.15.63-5.9,1.19v4.44c0,1.02.43,1.33,2.19,1.33s2.94-.11,4.34-.38l-.04.78c-1.3.2-2.54.29-4.43.29-2.27,0-2.77-.64-2.77-1.85v-4.48Z"/>
      <path class="cls-1" d="m96.04,32.25v4.65c0,.35.01.77.04.98h-.83c.03-.2.06-.59.06-.99v-4.64c0-.24-.03-.73-.06-.97h.83c-.03.24-.04.7-.04.97Zm6.51.03v1.97c0,3.57-.38,4.57-1.37,5.8-.9,1.13-2.27,1.71-3.29,2.06l-.59-.62c1.22-.34,2.45-.9,3.33-1.93,1.02-1.22,1.18-2.41,1.18-5.32v-1.96c0-.41-.03-.79-.06-1.09h.84c-.03.31-.04.69-.04,1.09Z"/>
      <path class="cls-1" d="m111.92,38.87c2.02-1.3,3.66-3.35,4.41-4.99l.43.76c-.9,1.64-2.38,3.53-4.43,4.85-1.39.9-3.14,1.81-5.69,2.31l-.48-.74c2.59-.39,4.43-1.33,5.74-2.19Zm-1.33-4.38l-.55.56c-.7-.7-2.42-2.2-3.47-2.88l.49-.52c1,.66,2.79,2.12,3.53,2.84Z"/>
      <path class="cls-1" d="m123.4,32.09c-.14.28-.31.57-.49.88h4.37c.34,0,.56-.03.73-.11l.63.38c-.08.15-.2.45-.24.59-.38,1.51-1.27,3.42-2.51,4.92-1.23,1.51-2.91,2.79-5.53,3.73l-.63-.59c2.4-.69,4.26-1.99,5.56-3.54,1.16-1.39,2.06-3.28,2.38-4.71h-5.2c-.8,1.16-1.95,2.44-3.57,3.5l-.62-.46c2.4-1.41,3.87-3.59,4.43-4.87.1-.2.27-.62.32-.9l.84.28c-.17.29-.35.66-.48.91Zm5.67.45l-.55.25c-.27-.56-.77-1.42-1.15-1.93l.53-.24c.35.49.85,1.33,1.16,1.92Zm1.5-.53l-.55.25c-.31-.62-.77-1.4-1.18-1.92l.52-.24c.38.5.92,1.37,1.21,1.91Z"/>
      <path class="cls-1" d="m134.14,40.07c.71,1.11,2.06,1.62,3.78,1.69,1.44.06,4.55.01,6.07-.07-.08.15-.2.46-.22.69-1.44.04-4.37.07-5.83.03-1.91-.07-3.21-.62-4.1-1.74-.7.63-1.46,1.27-2.21,1.9l-.39-.69c.67-.46,1.51-1.13,2.26-1.78v-3.92h-2.14v-.64h2.8v4.52Zm-.08-7.07c-.46-.69-1.54-1.62-2.48-2.24l.48-.41c.97.59,2.03,1.53,2.52,2.21l-.52.43Zm5.39-2.21c.43,4.47,1.65,7.76,4.4,9.19-.17.13-.41.35-.53.5-2.1-1.19-3.32-3.4-3.98-6.39-.73,2.86-2.02,4.99-3.98,6.39-.13-.11-.38-.38-.55-.5,2.12-1.37,3.36-3.63,3.98-6.61l.41.07c-.11-.64-.21-1.3-.29-2h-2.62v-.64h3.17Z"/>
      <path class="cls-1" d="m149.08,31.62c.7,0,2.75-.11,3.31-.15.21-.01.39-.06.53-.11l.46.38c-.1.13-.2.24-.31.41-.39.63-1.08,2.21-1.71,3.59,1.58.11,3.07.63,4.31,1.25.08-.46.14-.94.17-1.39.01-.35.03-.77,0-1.15l.74.07c-.06,1.04-.15,1.96-.31,2.79.7.39,1.32.8,1.81,1.16l-.35.76c-.46-.39-1.01-.81-1.64-1.19-.55,1.97-1.61,3.35-3.74,4.4l-.59-.5c2.25-.94,3.28-2.55,3.74-4.24-1.29-.7-2.82-1.25-4.44-1.33-.55,1.22-1.29,3.04-1.85,3.82-.46.63-.92.83-1.51.83-.94,0-1.62-.7-1.62-1.72,0-2.03,1.91-3.57,4.58-3.57.56-1.23,1.16-2.59,1.65-3.59-.56.03-2.55.13-3.19.15-.32.01-.67.04-.98.08l-.04-.77c.35.04.7.04.98.04Zm-1.36,8.67c.35,0,.6-.11.91-.49.59-.73,1.22-2.28,1.74-3.47-2.31.1-3.63,1.48-3.63,2.87,0,.71.48,1.09.98,1.09Z"/>
      <path class="cls-1" d="m167.73,31.88c0,.28.01.84.03,1.57h2.46c.32,0,.8-.04,1.05-.07v.78c-.27-.01-.71-.04-1.04-.04h-2.48c.04,2.14.08,5.18.08,6.86,0,.64-.39.95-1.11.95-.63,0-1.5-.04-2.13-.08l-.06-.76c.69.11,1.48.17,2.04.17.42,0,.55-.18.55-.55,0-1.22-.03-3.75-.06-5.83-1.13,1.65-3.68,4.12-6.37,5.55l-.52-.59c2.91-1.44,5.52-3.99,6.61-5.73h-5.1c-.45,0-.73.03-1.15.06v-.8c.42.04.74.07,1.15.07h5.37c-.01-.73-.03-1.29-.04-1.57-.03-.49-.06-.77-.11-1.02h.88c-.04.35-.07.67-.07,1.02Z"/>
      <path class="cls-1" d="m182.86,32.91c-.29,1.53-1.01,3.82-2.09,5.2-1.29,1.62-2.83,2.86-5.43,3.67l-.62-.67c2.68-.7,4.24-1.88,5.45-3.43,1.02-1.33,1.74-3.49,1.93-4.92h-7.54c-.5,0-.88.03-1.23.04v-.81c.36.04.78.08,1.25.08h7.34c.18,0,.35,0,.55-.06l.55.35c-.08.15-.11.28-.15.55Z"/>
      <path class="cls-1" d="m190.32,31.23c-.06.32-.13.74-.18,1.25,1.81-.08,3.63-.29,5-.59v.7c-1.53.27-3.38.45-5.08.53-.06.63-.11,1.32-.15,2.02.84-.28,1.79-.43,2.51-.43.22,0,.45.01.66.03.04-.14.08-.28.13-.42.04-.17.1-.39.11-.59l.76.2c-.07.15-.14.38-.21.56-.04.13-.08.25-.13.36,1.83.42,2.86,1.74,2.86,3.24,0,2.02-1.43,3.66-4.57,4.17l-.41-.62c2.42-.27,4.27-1.53,4.27-3.6,0-1.21-.84-2.3-2.37-2.65-.8,2.04-1.93,3.64-3.18,4.72.1.42.21.81.34,1.18l-.67.21c-.08-.28-.18-.6-.27-.94-.81.56-1.72.91-2.48.91-.87,0-1.51-.53-1.51-1.58,0-1.81,1.62-3.63,3.53-4.5.04-.77.1-1.55.17-2.24-.38.01-.74.01-1.09.01-.52,0-1.61-.06-2.13-.1l-.03-.71c.49.1,1.71.17,2.16.17.38,0,.77,0,1.16-.01.06-.5.11-.95.14-1.27.01-.22.03-.45.03-.57l.78.03c-.06.11-.11.36-.14.55Zm-2.98,9.54c.64,0,1.42-.28,2.24-.91-.2-1.01-.35-2.14-.35-3.15,0-.21,0-.42.01-.63-1.55.8-2.8,2.35-2.8,3.74,0,.63.34.95.9.95Zm2.83-1.39c1.06-.99,2.06-2.3,2.72-4.09-.15-.01-.29-.01-.45-.01-.95,0-1.86.25-2.56.52-.01.31-.01.6-.01.9,0,.88.13,1.81.31,2.69Z"/>
      <path class="cls-1" d="m201.21,35.21c.52-1.64,2.1-3.73,4.01-3.73,1.79,0,3.04,1.83,3.04,4.71,0,3.84-2.47,5.46-5.79,6.05l-.43-.64c3-.43,5.49-1.79,5.49-5.39,0-2.24-.76-4.08-2.41-4.08-1.82,0-3.54,2.59-3.77,4.43-.1.62-.1,1.12.01,1.86l-.71.06c-.06-.52-.14-1.28-.14-2.16,0-1.34.32-3.6.46-4.55.06-.36.07-.67.11-1.06l.81.03c-.35,1.23-.6,3.39-.69,4.48Z"/>
      <path class="cls-1" d="m45.14,66.07l-.42.63c-.63-.46-2.19-1.46-2.98-1.86l.41-.6c.76.41,2.45,1.44,3,1.84Zm1.93,3.43c2.28-1.33,4.08-3.11,5.21-5.07l.45.71c-1.18,1.85-3.08,3.68-5.29,4.99-1.4.84-3.28,1.46-4.62,1.75l-.41-.73c1.53-.27,3.31-.87,4.67-1.65Zm.11-6.43l-.45.6c-.6-.49-2.16-1.54-2.91-1.98l.39-.6c.77.45,2.42,1.57,2.97,1.98Z"/>
      <path class="cls-1" d="m57.74,64.09c.07.25.25.94.49,1.81,2.1-.39,4.75-.91,5.17-1.01.14-.03.31-.08.43-.14l.45.32c-.57,1.16-2.04,3.04-3,3.92l-.64-.34c.95-.81,2.07-2.19,2.61-3.1-.31.06-2.66.52-4.83.94.56,2.07,1.3,4.72,1.47,5.27.1.28.18.6.28.84l-.8.21c-.01-.27-.08-.57-.17-.9-.17-.56-.9-3.22-1.47-5.28-1.41.28-2.65.53-2.98.6l-.2-.71c.38-.03.7-.08,1.09-.15.21-.03.95-.17,1.92-.35-.24-.87-.43-1.55-.5-1.78-.1-.35-.18-.59-.29-.76l.8-.2c.04.18.1.45.18.8Z"/>
      <path class="cls-1" d="m72.47,68.87c2.02-1.3,3.66-3.35,4.41-4.99l.43.76c-.9,1.64-2.38,3.53-4.43,4.85-1.39.9-3.14,1.81-5.69,2.31l-.48-.74c2.59-.39,4.43-1.33,5.74-2.19Zm-1.33-4.38l-.55.56c-.7-.7-2.42-2.2-3.47-2.88l.49-.52c1,.66,2.79,2.12,3.53,2.84Z"/>
      <path class="cls-1" d="m89.55,60.22c.84,0,1.51.67,1.51,1.51s-.67,1.5-1.51,1.5c-.27,0-.5-.07-.71-.18v.07c-.29,1.53-1.02,3.82-2.09,5.2-1.29,1.62-2.84,2.86-5.45,3.67l-.62-.67c2.68-.7,4.24-1.88,5.45-3.43,1.02-1.32,1.75-3.49,1.95-4.92h-7.55c-.5,0-.87.03-1.23.04v-.81c.36.04.78.08,1.25.08h7.34c.08,0,.18,0,.27-.01-.07-.15-.1-.34-.1-.53,0-.84.66-1.51,1.5-1.51Zm0,2.49c.55,0,1-.43,1-.98s-.45-1.01-1-1.01-.99.46-.99,1.01.45.98.99.98Z"/>
      <path class="cls-1" d="m94.53,65.91h7.76c.73,0,1.15-.03,1.43-.06v.87c-.25-.01-.77-.04-1.41-.04h-7.77c-.77,0-1.4.01-1.78.04v-.87c.36.03.95.06,1.78.06Z"/>
      <path class="cls-1" d="m106.3,69.2l.57-.52c1.02.81,2.23,2.02,3.21,3.12l-.63.53c-.94-1.15-2.14-2.34-3.15-3.14Z"/>
      <path class="cls-1" d="m115.66,62.3c0-.34-.03-.92-.1-1.33h.9c-.04.39-.08,1-.08,1.33v2.42c1.83.56,4.45,1.57,6.07,2.37l-.31.74c-1.55-.85-4.2-1.86-5.76-2.34.01,2.31.01,4.71.01,5,0,.48.01,1.09.07,1.49h-.87c.06-.38.07-.98.07-1.49v-8.19Z"/>
      <path class="cls-1" d="m127.04,62.25v4.65c0,.35.01.77.04.98h-.83c.03-.2.06-.59.06-.99v-4.64c0-.24-.03-.73-.06-.97h.83c-.03.24-.04.7-.04.97Zm6.51.03v1.97c0,3.57-.38,4.57-1.37,5.8-.9,1.13-2.27,1.71-3.29,2.06l-.59-.62c1.22-.34,2.45-.9,3.33-1.93,1.02-1.22,1.18-2.41,1.18-5.32v-1.96c0-.41-.03-.79-.06-1.09h.84c-.03.31-.04.69-.04,1.09Z"/>
      <path class="cls-1" d="m138.97,65.91h7.76c.73,0,1.15-.03,1.43-.06v.87c-.25-.01-.77-.04-1.41-.04h-7.77c-.77,0-1.4.01-1.78.04v-.87c.36.03.95.06,1.78.06Z"/>
      <path class="cls-1" d="m152.74,62.3c0-.34-.03-.92-.1-1.33h.9c-.04.39-.08,1-.08,1.33v2.42c1.83.56,4.46,1.57,6.07,2.37l-.31.74c-1.55-.85-4.2-1.86-5.76-2.34.01,2.31.01,4.71.01,5,0,.48.01,1.09.07,1.49h-.87c.06-.38.07-.98.07-1.49v-8.19Z"/>
      <path class="cls-1" d="m170.93,62.41c-.48,1.3-1.23,2.93-2.24,4.3,1.26,1.06,2.51,2.16,3.52,3.29l-.55.59c-1.06-1.21-2.18-2.24-3.43-3.31-1.34,1.67-3.17,3.42-5.65,4.65l-.62-.55c2.55-1.2,4.33-2.86,5.72-4.57-1.07-.85-2.77-2.13-4.06-2.91l.46-.56c1.26.81,2.98,2.06,4.05,2.9,1.02-1.4,1.68-2.87,2.11-4.12.08-.22.2-.6.25-.88l.81.28c-.13.22-.28.62-.38.88Z"/>
      <path class="cls-1" d="m180.77,68.87c2.02-1.3,3.66-3.35,4.41-4.99l.43.76c-.9,1.64-2.38,3.53-4.43,4.85-1.39.9-3.14,1.81-5.69,2.31l-.48-.74c2.59-.39,4.43-1.33,5.74-2.19Zm-1.33-4.38l-.55.56c-.7-.7-2.42-2.2-3.47-2.88l.49-.52c1,.66,2.79,2.12,3.53,2.84Z"/>
      <path class="cls-1" d="m189.24,62.3c0-.34-.03-.92-.1-1.33h.9c-.04.39-.08,1-.08,1.33v2.42c1.83.56,4.46,1.57,6.07,2.37l-.31.74c-1.55-.85-4.2-1.86-5.76-2.34.01,2.31.01,4.71.01,5,0,.48.01,1.09.07,1.49h-.87c.06-.38.07-.98.07-1.49v-8.19Z"/>
      <path class="cls-1" d="m198.37,69.2l.57-.52c1.02.81,2.23,2.02,3.21,3.12l-.63.53c-.94-1.15-2.14-2.34-3.15-3.14Z"/>
      <path class="cls-1" d="m213.63,61.88c0,.28.01.84.03,1.57h2.46c.32,0,.8-.04,1.05-.07v.78c-.27-.01-.71-.04-1.04-.04h-2.48c.04,2.14.08,5.18.08,6.86,0,.64-.39.95-1.11.95-.63,0-1.5-.04-2.13-.08l-.06-.76c.69.11,1.48.17,2.04.17.42,0,.55-.18.55-.55,0-1.22-.03-3.75-.06-5.83-1.13,1.65-3.68,4.12-6.37,5.55l-.52-.59c2.91-1.44,5.52-3.99,6.61-5.73h-5.1c-.45,0-.73.03-1.15.06v-.8c.42.04.74.07,1.15.07h5.37c-.01-.73-.03-1.29-.04-1.57-.03-.49-.06-.77-.11-1.02h.88c-.04.35-.07.67-.07,1.02Z"/>
      <path class="cls-1" d="m228.77,62.91c-.29,1.53-1.01,3.82-2.09,5.2-1.29,1.62-2.83,2.86-5.43,3.67l-.62-.67c2.68-.7,4.24-1.88,5.45-3.43,1.02-1.33,1.74-3.49,1.93-4.92h-7.54c-.5,0-.88.03-1.23.04v-.81c.36.04.78.08,1.25.08h7.34c.18,0,.35,0,.55-.06l.55.35c-.08.15-.11.28-.15.55Z"/>
      <path class="cls-1" d="m233.7,70.07c.71,1.11,2.06,1.62,3.78,1.69,1.44.06,4.55.01,6.07-.07-.08.15-.2.46-.22.69-1.44.04-4.37.07-5.83.03-1.91-.07-3.21-.62-4.1-1.74-.7.63-1.46,1.27-2.21,1.9l-.39-.69c.67-.46,1.51-1.13,2.26-1.78v-3.92h-2.14v-.64h2.8v4.52Zm-.08-7.07c-.46-.69-1.54-1.62-2.48-2.24l.48-.41c.97.59,2.03,1.53,2.52,2.21l-.52.43Zm5.39-2.21c.43,4.47,1.65,7.76,4.4,9.19-.17.13-.41.35-.53.5-2.1-1.19-3.32-3.4-3.98-6.39-.73,2.86-2.02,4.99-3.98,6.39-.13-.11-.38-.38-.55-.5,2.12-1.37,3.36-3.63,3.98-6.61l.41.07c-.11-.64-.21-1.3-.29-2h-2.62v-.64h3.17Z"/>
      <path class="cls-1" d="m248.64,61.62c.7,0,2.75-.11,3.31-.15.21-.01.39-.06.53-.11l.46.38c-.1.13-.2.24-.31.41-.39.63-1.08,2.21-1.71,3.59,1.58.11,3.07.63,4.31,1.25.08-.46.14-.94.17-1.39.01-.35.03-.77,0-1.15l.74.07c-.06,1.04-.15,1.96-.31,2.79.7.39,1.32.8,1.81,1.16l-.35.76c-.46-.39-1.01-.81-1.64-1.19-.55,1.97-1.61,3.35-3.74,4.4l-.59-.5c2.25-.94,3.28-2.55,3.74-4.24-1.29-.7-2.82-1.25-4.44-1.33-.55,1.22-1.29,3.04-1.85,3.82-.46.63-.92.83-1.51.83-.94,0-1.62-.7-1.62-1.72,0-2.03,1.91-3.57,4.58-3.57.56-1.23,1.16-2.59,1.65-3.59-.56.03-2.55.13-3.19.15-.32.01-.67.04-.98.08l-.04-.77c.35.04.7.04.98.04Zm-1.36,8.67c.35,0,.6-.11.91-.49.59-.73,1.22-2.28,1.74-3.47-2.31.1-3.63,1.48-3.63,2.87,0,.71.48,1.09.98,1.09Z"/>
      <path class="cls-1" d="m43.53,91.97h6.6c.46,0,.8-.01,1.09-.04v.74c-.31-.01-.6-.03-1.09-.03h-3.82v3.29h5c.29,0,.76-.01,1.05-.04v.76c-.29-.01-.73-.03-1.04-.03h-5.01v3.19c0,.67.49,1.19,1.88,1.19s2.48-.06,3.71-.2l-.03.74c-1.19.08-2.39.15-3.75.15-1.85,0-2.54-.67-2.54-1.65v-3.43h-2.98c-.34,0-.83.01-1.19.04v-.78c.36.04.85.06,1.19.06h2.98v-3.29h-2.04c-.46,0-.85.01-1.21.03v-.74c.35.03.74.04,1.21.04Z"/>
      <path class="cls-1" d="m55.88,95.17h9.16c.29,0,.66-.03.98-.06v.77c-.28-.03-.67-.04-.98-.04h-4.05c-.03,1.54-.22,2.9-.81,3.98-.52.91-1.57,1.88-2.72,2.46l-.67-.5c1.13-.49,2.16-1.3,2.7-2.23.64-1.05.74-2.3.77-3.71h-4.38c-.43,0-.77.01-1.15.04v-.77c.36.03.71.06,1.15.06Zm1.67-3.47h5.01c.35,0,.81-.01,1.19-.07v.78c-.38-.03-.84-.04-1.19-.04h-4.99c-.45,0-.83.01-1.15.04v-.78c.36.04.69.07,1.12.07Zm8.03.6l-.55.27c-.27-.58-.77-1.42-1.15-1.95l.53-.24c.35.5.85,1.33,1.16,1.92Zm1.5-.53l-.55.25c-.31-.62-.77-1.4-1.18-1.92l.52-.24c.38.52.92,1.37,1.2,1.91Z"/>
      <path class="cls-1" d="m70.27,97.9c.41-1.33.42-4.2.42-5.7,0-.32-.03-.59-.08-.85h.84c-.03.22-.06.53-.06.85,0,1.48-.06,4.52-.43,5.91-.42,1.46-1.33,2.82-2.49,3.74l-.67-.45c1.15-.83,2.03-2.06,2.48-3.5Zm3.98,2.83v-8.52c0-.48-.04-.78-.06-.94h.83c-.03.15-.04.46-.04.94v8.53c1.39-.64,3.32-2.02,4.45-3.74l.43.62c-1.25,1.71-3.15,3.1-4.79,3.91-.2.1-.34.2-.42.27l-.49-.41c.06-.2.08-.43.08-.66Z"/>
      <path class="cls-1" d="m82.76,95.06h9.17c.29,0,.66-.01.98-.04v.76c-.28-.01-.67-.03-.98-.03h-4.06c-.03,1.54-.21,2.9-.8,3.98-.52.91-1.57,1.88-2.72,2.47l-.67-.5c1.13-.49,2.16-1.3,2.7-2.23.64-1.05.74-2.31.77-3.71h-4.4c-.42,0-.76,0-1.13.03v-.76c.36.03.7.04,1.13.04Zm1.68-3.46h5.7c.35,0,.83-.03,1.19-.07v.78c-.38-.03-.84-.04-1.19-.04h-5.67c-.46,0-.84.01-1.15.04v-.78c.36.03.69.07,1.12.07Z"/>
      <path class="cls-1" d="m103.82,92.83c-.49,1.29-1.44,3.04-2.45,4.27,1.53,1.3,3.22,3.11,4.19,4.27l-.6.53c-.95-1.22-2.58-2.98-4.05-4.29-1.54,1.65-3.43,3.22-5.6,4.19l-.56-.6c2.26-.9,4.27-2.55,5.79-4.23.97-1.11,2.1-2.93,2.47-4.19h-5.87c-.45,0-1.22.06-1.28.06v-.83c.08,0,.84.07,1.28.07h5.67c.36,0,.63-.03.81-.08l.46.36c-.07.1-.21.34-.25.46Z"/>
      <path class="cls-1" d="m109.61,92.3c0-.34-.03-.92-.1-1.33h.9c-.04.39-.08,1-.08,1.33v2.42c1.83.56,4.46,1.57,6.07,2.37l-.31.74c-1.55-.85-4.2-1.86-5.76-2.34.01,2.31.01,4.71.01,5,0,.48.01,1.09.07,1.49h-.87c.06-.38.07-.98.07-1.49v-8.19Z"/>
      <path class="cls-1" d="m33.24,121.58c-.01.18-.01.56-.01,1.02,1.32-.06,2.68-.2,3.92-.39v.67c-1.23.14-2.59.27-3.92.34v2.27c1.29-.06,2.66-.18,4.01-.39v.7c-1.37.18-2.69.29-3.99.34.03.85.07,1.71.11,2.45,1.89.5,3.39,1.58,4.16,2.2l-.42.66c-.87-.77-2.14-1.7-3.71-2.19.03.45.04.83.04,1.06,0,.84-.49,1.86-2.31,1.86s-2.94-.63-2.94-1.91c0-1.19,1.18-1.98,3.12-1.98.48,0,.92.04,1.36.13-.01-.76-.04-1.58-.07-2.28-.27.01-.55.01-.83.01-1.04,0-2.55-.08-3.6-.2v-.7c1.04.15,2.56.25,3.6.25.27,0,.55,0,.81-.01v-2.27c-.24.01-.48.01-.7.01-1.01,0-2.79-.13-3.66-.24v-.69c.85.17,2.68.31,3.64.31.24,0,.48,0,.71-.01v-1.18c0-.22-.01-.63-.04-.77h.77c-.03.22-.04.46-.06.91Zm-2.18,9.97c.85,0,1.64-.27,1.64-1.33,0-.31-.01-.7-.01-1.15-.48-.1-.97-.15-1.47-.15-1.56,0-2.37.6-2.37,1.33s.59,1.3,2.21,1.3Z"/>
      <path class="cls-1" d="m41.33,124.19c1.25-.41,3.94-1.43,5.98-1.43,2.2,0,3.95,1.28,3.95,3.49,0,3.46-3.53,4.83-7.48,5.08l-.31-.76c3.59-.11,7.03-1.23,7.03-4.34,0-1.56-1.19-2.82-3.21-2.82-2.44,0-6.15,1.62-7.06,1.96l-.35-.81c.5-.1.9-.22,1.44-.38Z"/>
      <path class="cls-1" d="m64.23,131.78c.85,0,.99-.39,1.09-2.06.18.13.46.25.67.31-.15,1.82-.39,2.41-1.78,2.41h-3.88c-1.47,0-1.91-.31-1.91-1.6v-2.4l-4.75.63-.11-.63,4.86-.64v-2.55l-4.34.62-.11-.63,4.45-.64v-2.45c-1.47.28-3.01.5-4.45.7-.01-.17-.1-.42-.18-.57,3.47-.48,7.55-1.23,9.65-2.13l.6.52c-1.29.52-3.05.98-4.94,1.34v2.51l5.5-.77.11.62-5.62.8v2.56l6.51-.87.08.63-6.6.88v2.49c0,.73.21.92,1.22.92h3.91Z"/>
      <path class="cls-1" d="m69.88,122.61h7.73c.43,0,.83-.03,1.13-.06v.8c-.32-.03-.74-.04-1.13-.04h-3.59v6.88h4.36c.38,0,.71-.04,1.06-.07v.83c-.36-.04-.83-.04-1.06-.04h-9.27c-.36,0-.74.01-1.15.04v-.83c.39.06.78.07,1.15.07h4.17v-6.88h-3.4c-.21,0-.74.01-1.09.04v-.8c.36.04.85.06,1.09.06Z"/>
      <path class="cls-1" d="m87.1,121.72c-.14.28-.31.59-.5.9h4.38c.34,0,.56-.04.73-.11l.63.36c-.08.17-.2.45-.24.6-.38,1.5-1.27,3.42-2.51,4.92-1.23,1.51-2.91,2.79-5.53,3.73l-.63-.6c2.4-.69,4.26-1.97,5.56-3.53,1.16-1.4,2.06-3.29,2.38-4.71h-5.21c-.8,1.16-1.93,2.44-3.56,3.49l-.62-.46c2.4-1.4,3.87-3.59,4.43-4.86.1-.2.27-.62.32-.91l.84.29c-.17.28-.35.66-.48.9Z"/>
      <path class="cls-1" d="m103.66,122.83c-.49,1.29-1.44,3.04-2.45,4.27,1.53,1.3,3.22,3.11,4.19,4.27l-.6.53c-.95-1.22-2.58-2.98-4.05-4.29-1.54,1.65-3.43,3.22-5.6,4.19l-.56-.6c2.26-.9,4.27-2.55,5.79-4.23.97-1.11,2.1-2.93,2.47-4.19h-5.87c-.45,0-1.22.06-1.28.06v-.83c.08,0,.84.07,1.28.07h5.67c.36,0,.63-.03.81-.08l.46.36c-.07.1-.21.34-.25.46Z"/>
      <path class="cls-1" d="m108.6,125.06h9.17c.29,0,.66-.01.98-.04v.76c-.28-.01-.67-.03-.98-.03h-4.06c-.03,1.54-.21,2.9-.8,3.98-.52.91-1.57,1.88-2.72,2.47l-.67-.5c1.13-.49,2.16-1.3,2.7-2.23.64-1.05.74-2.31.77-3.71h-4.4c-.42,0-.76,0-1.13.03v-.76c.36.03.7.04,1.13.04Zm1.68-3.46h5.7c.35,0,.83-.03,1.19-.07v.78c-.38-.03-.84-.04-1.19-.04h-5.67c-.46,0-.84.01-1.15.04v-.78c.36.03.69.07,1.12.07Z"/>
      <path class="cls-1" d="m122.99,121.97h6.6c.46,0,.8-.01,1.09-.04v.74c-.31-.01-.6-.03-1.09-.03h-3.82v3.29h5c.29,0,.76-.01,1.05-.04v.76c-.29-.01-.73-.03-1.04-.03h-5.01v3.19c0,.67.49,1.19,1.88,1.19s2.48-.06,3.71-.2l-.03.74c-1.19.08-2.39.15-3.75.15-1.85,0-2.54-.67-2.54-1.65v-3.43h-2.98c-.34,0-.83.01-1.19.04v-.78c.36.04.85.06,1.19.06h2.98v-3.29h-2.04c-.46,0-.85.01-1.21.03v-.74c.35.03.74.04,1.21.04Z"/>
      <path class="cls-1" d="m135.34,125.17h9.16c.29,0,.66-.03.98-.06v.77c-.28-.03-.67-.04-.98-.04h-4.05c-.03,1.54-.22,2.9-.81,3.98-.52.91-1.57,1.88-2.72,2.46l-.67-.5c1.13-.49,2.16-1.3,2.7-2.23.64-1.05.74-2.3.77-3.71h-4.38c-.43,0-.77.01-1.15.04v-.77c.36.03.71.06,1.15.06Zm1.67-3.47h5.01c.35,0,.81-.01,1.19-.07v.78c-.38-.03-.84-.04-1.19-.04h-4.99c-.45,0-.83.01-1.15.04v-.78c.36.04.69.07,1.12.07Zm8.03.6l-.55.27c-.27-.58-.77-1.42-1.15-1.95l.53-.24c.35.5.85,1.33,1.16,1.92Zm1.5-.53l-.55.25c-.31-.62-.77-1.4-1.18-1.92l.52-.24c.38.52.92,1.37,1.2,1.91Z"/>
      <path class="cls-1" d="m149.73,127.9c.41-1.33.42-4.2.42-5.7,0-.32-.03-.59-.08-.85h.84c-.03.22-.06.53-.06.85,0,1.48-.06,4.52-.43,5.91-.42,1.46-1.33,2.82-2.49,3.74l-.67-.45c1.15-.83,2.03-2.06,2.48-3.5Zm3.98,2.83v-8.52c0-.48-.04-.78-.06-.94h.83c-.03.15-.04.46-.04.94v8.53c1.39-.64,3.32-2.02,4.45-3.74l.43.62c-1.25,1.71-3.15,3.1-4.79,3.91-.2.1-.34.2-.42.27l-.49-.41c.06-.2.08-.43.08-.66Z"/>
      <path class="cls-1" d="m167.7,120.9c0,2.39.28,7.79,6,11.21-.15.11-.43.38-.56.53-3.82-2.33-5.27-5.67-5.8-8.39-1.05,3.96-2.86,6.67-5.88,8.42-.11-.13-.42-.41-.6-.55,3.22-1.68,4.99-4.58,5.91-8.68l.45.08c-.11-.73-.15-1.39-.17-1.95h-3.6v-.67h4.26Z"/>
      <path class="cls-1" d="m185.24,123.74c-.71,1.07-1.75,1.99-2.94,2.77,1.64.85,3.63,1.44,5.7,1.74-.15.17-.34.42-.43.63-2.13-.35-4.17-1.02-5.88-2-1.04.62-2.19,1.13-3.33,1.54h7.05v4.23h-.67v-.48h-6.23v.49h-.67v-4.06c-.77.25-1.54.46-2.28.63-.06-.17-.22-.43-.35-.59,1.93-.39,4.08-1.12,5.9-2.13-.9-.57-1.67-1.23-2.27-1.99-.7.6-1.51,1.16-2.45,1.65-.11-.15-.32-.36-.49-.45,1.93-.94,3.32-2.25,4.03-3.36l.73.14c-.22.32-.48.66-.77.98h4.8l.13-.04.45.29Zm-8.82-.04h-.66v-2.35h5.48v-1.34h.67v1.34h5.52v2.35h-.69v-1.72h-10.32v1.72Zm2.07,5.34v2.54h6.23v-2.54h-6.23Zm.78-4.94c.6.8,1.43,1.48,2.41,2.07.99-.62,1.86-1.32,2.51-2.1h-4.87l-.04.03Z"/>
      <path class="cls-1" d="m194.75,119.72l.55.34c-1.72,1.76-2.66,3.91-2.66,6.29s.94,4.52,2.66,6.29l-.55.34c-1.78-1.83-2.8-4.03-2.8-6.63s1.02-4.79,2.8-6.62Z"/>
      <path class="cls-1" d="m197.58,130.95h2.31v-8h-1.78v-.55c.83-.14,1.46-.36,1.95-.66h.66v9.2h2.13v.71h-5.27v-.71Z"/>
      <path class="cls-1" d="m204.77,131.16c3.19-3.24,4.83-5.06,4.83-6.77,0-1.21-.64-2.13-2.09-2.13-.88,0-1.68.53-2.27,1.26l-.52-.49c.77-.84,1.64-1.47,2.87-1.47,1.78,0,2.83,1.12,2.83,2.8,0,1.95-1.76,3.84-4.44,6.65.55-.04,1.13-.08,1.68-.08h3.25v.73h-6.15v-.5Z"/>
      <path class="cls-1" d="m212.72,126.68c0-3.31,1.09-5.11,3.01-5.11s3,1.82,3,5.11-1.09,5.17-3,5.17-3.01-1.88-3.01-5.17Zm5.2,0c0-3-.87-4.41-2.19-4.41s-2.2,1.42-2.2,4.41.87,4.48,2.2,4.48,2.19-1.49,2.19-4.48Z"/>
      <path class="cls-1" d="m227.6,123.75c1.19,2.58,3.36,4.96,5.69,6.07-.15.11-.38.38-.49.56-2.26-1.16-4.36-3.5-5.65-6.12v4.99h2.9v.67h-2.9v2.76h-.69v-2.76h-2.94v-.67h2.94v-5.02c-1.32,2.62-3.45,4.95-5.63,6.16-.11-.17-.32-.41-.48-.55,2.21-1.12,4.43-3.53,5.65-6.09h-5.21v-.67h5.67v-3.07h.69v3.07h5.71v.67h-5.27Z"/>
      <path class="cls-1" d="m235.37,132.97l-.55-.34c1.72-1.77,2.66-3.91,2.66-6.29s-.94-4.52-2.66-6.29l.55-.34c1.78,1.83,2.8,4.03,2.8,6.62s-1.02,4.79-2.8,6.63Z"/>
    </g>
    <path class="cls-1" d="m7.12,10.02H0V2.91h7.12v7.12Z"/>
    <path class="cls-1" d="m7.12,129.02H0v-7.12h7.12v7.12Z"/>
  </g>
</svg>