<?xml version="1.0" encoding="UTF-8"?>
<svg id="_レイヤー_2" data-name="レイヤー 2" xmlns="http://www.w3.org/2000/svg" viewBox="0 0 125.87 66.85">
  <defs>
    <style>
      .cls-1 {
        fill: #fff;
      }

      .cls-2 {
        fill: #686969;
      }

      .cls-3 {
        fill: #231815;
      }
    </style>
  </defs>
  <g id="_レイヤー_1-2" data-name="レイヤー 1">
    <g>
      <path class="cls-3" d="m12.8,1.17h3.82c.26,0,.48-.02.66-.03v.64c-.19,0-.38-.02-.66-.02h-2.09v1.7h2.71c.17,0,.49-.02.67-.03v.66c-.18-.02-.47-.02-.65-.02h-2.72v1.61c0,.4.28.64,1.02.64s1.42-.03,2.11-.11l-.04.67c-.63.05-1.4.08-2.16.08-1.21,0-1.6-.42-1.6-1.08v-1.81h-1.57c-.2,0-.53.02-.75.03v-.67c.22.02.55.04.75.04h1.57v-1.7h-1.07c-.27,0-.51,0-.72.02v-.64c.22.02.45.03.72.03Z"/>
      <path class="cls-3" d="m19.87,3.03h5.26c.17,0,.43,0,.63-.04v.67c-.18,0-.43-.02-.63-.02h-2.18c-.02.87-.15,1.6-.47,2.2-.29.53-.9,1.11-1.58,1.46l-.59-.44c.63-.26,1.2-.72,1.52-1.23.35-.55.44-1.23.47-1.99h-2.41c-.24,0-.47,0-.69.02v-.67c.22.02.44.04.69.04Zm.99-2.01h2.78c.23,0,.51-.02.75-.05v.67c-.23-.02-.51-.02-.75-.02h-2.77c-.26,0-.53,0-.74.02v-.67c.23.02.47.05.73.05Zm4.6.4l-.43.19c-.16-.33-.43-.81-.65-1.12l.42-.18c.2.28.5.77.66,1.1Zm.9-.33l-.43.19c-.18-.35-.43-.8-.67-1.11l.43-.18c.21.29.52.79.67,1.09Z"/>
      <path class="cls-3" d="m28,4.65c.23-.73.24-2.33.24-3.23,0-.24-.02-.42-.06-.59h.74c0,.1-.04.34-.04.58,0,.89-.03,2.61-.25,3.41-.24.86-.75,1.65-1.43,2.21l-.6-.41c.67-.48,1.16-1.2,1.4-1.97Zm2.33,1.57V1.41c0-.3-.04-.54-.05-.59h.74c0,.06-.03.29-.03.59v4.63c.74-.34,1.73-1.07,2.34-1.97l.38.54c-.69.94-1.81,1.77-2.74,2.22-.13.07-.22.14-.27.18l-.42-.35c.03-.13.06-.29.06-.45Z"/>
      <path class="cls-3" d="m34.4,6.16l.36-.48c.34.34.76.65,1.44.65s1.25-.51,1.25-1.3-.48-1.27-1.22-1.27c-.39,0-.64.13-.98.35l-.39-.25.18-2.75h2.87v.63h-2.22l-.14,1.71c.26-.14.52-.24.88-.24.98,0,1.77.56,1.77,1.8s-.93,1.93-1.93,1.93c-.92,0-1.48-.39-1.87-.78Z"/>
      <path class="cls-3" d="m39.22,3.96c0-1.92.7-2.95,1.84-2.95s1.83,1.04,1.83,2.95-.69,2.99-1.83,2.99-1.84-1.07-1.84-2.99Zm2.95,0c0-1.68-.45-2.36-1.12-2.36s-1.12.68-1.12,2.36.45,2.4,1.12,2.4,1.12-.72,1.12-2.4Z"/>
      <path class="cls-3" d="m50.57,7.46h-.6v-.34h-3.29v.32h-.59v-2.54c-.64.38-1.31.68-1.97.9-.07-.16-.22-.41-.35-.52,1.02-.3,2.07-.83,2.98-1.54-.35-.41-.94-.92-1.47-1.32-.32.26-.67.51-1.05.73-.08-.14-.28-.35-.42-.46,1.32-.71,2.23-1.74,2.7-2.61l.67.14c-.14.22-.29.46-.46.69h2.26l.11-.03.39.21c-.47,1.19-1.26,2.17-2.19,2.96h3.28v3.4Zm-4.29-6c-.18.2-.36.4-.57.59.54.38,1.15.89,1.52,1.29.59-.55,1.1-1.18,1.45-1.88h-2.39Zm3.69,5.12v-1.97h-3.29v1.97h3.29Z"/>
      <path class="cls-3" d="m18.19,16.99c-.25.76-.67,1.39-1.18,1.89.46.35,1,.62,1.62.77-.13.11-.29.33-.36.46-.64-.18-1.2-.49-1.68-.88-.49.38-1.04.65-1.6.84-.06-.14-.21-.34-.31-.45v.5h-.57v-.78c-.98.12-1.96.23-2.71.32l-.06-.53c.22-.02.48-.04.76-.07v-2.7h-.69v-.5h7.01v.5h-3.76v3.25c.53-.16,1.05-.42,1.51-.76-.37-.4-.67-.88-.88-1.41l.34-.1h-.69v-.47h2.76l.1-.02.36.14Zm-.65-1.57h-5.16v-2.37h5.16v2.37Zm-4.88.95v.54h1.45v-.54h-1.45Zm0,1.55h1.45v-.56h-1.45v.56Zm0,1.09c.46-.05.96-.1,1.45-.15v-.49h-1.45v.64Zm4.29-5.53h-4.01v.55h4.01v-.55Zm0,.96h-4.01v.56h4.01v-.56Zm-1.15,2.91c.18.44.46.84.79,1.18.36-.34.66-.73.87-1.18h-1.65Z"/>
      <path class="cls-3" d="m20.42,17.44c-.11.75-.3,1.52-.57,2.04-.1-.07-.34-.18-.46-.22.26-.49.43-1.2.52-1.91l.51.1Zm5.88-3.63c-.3.76-.77,1.43-1.32,1.99.58.51,1.25.93,1.94,1.18-.12.12-.3.34-.38.49-.7-.29-1.36-.75-1.95-1.3-.59.51-1.24.92-1.9,1.2-.06-.09-.16-.24-.26-.35l-.38.17c-.03-.12-.08-.27-.14-.43l-.63.04v3.34h-.53v-3.31c-.46.02-.89.05-1.26.07l-.05-.53.53-.02c.17-.22.35-.47.53-.74-.25-.35-.67-.8-1.04-1.13l.31-.39c.08.06.15.14.23.21.27-.45.55-1.05.72-1.49l.52.21c-.27.53-.61,1.16-.91,1.61.18.18.34.36.47.52.31-.5.6-1.01.81-1.44l.51.22c-.46.76-1.07,1.7-1.6,2.39l1.18-.05c-.11-.25-.24-.5-.37-.72l.42-.17c.29.45.57,1.04.7,1.45.61-.26,1.21-.62,1.73-1.06-.32-.35-.61-.74-.85-1.14-.25.3-.52.59-.84.85-.09-.13-.28-.3-.41-.38.86-.67,1.44-1.58,1.73-2.31l.59.1c-.1.24-.23.49-.38.74h1.8l.1-.03.36.21Zm-4.31,3.47c.22.46.43,1.07.51,1.46l-.46.15c-.08-.4-.28-1-.49-1.47l.43-.14Zm1.16,1.18c1.06.3,2.37.83,3.09,1.22l-.35.47c-.71-.43-2.01-.96-3.09-1.27l.35-.42Zm.88-1.46c.55.23,1.26.61,1.63.89l-.37.41c-.36-.29-1.06-.69-1.62-.93l.36-.37Zm-.35-2.81c.24.43.55.84.92,1.23.38-.39.7-.81.94-1.28h-1.81l-.04.05Z"/>
      <path class="cls-3" d="m28.5,15.62h5.26c.17,0,.43,0,.63-.04v.67c-.18,0-.43-.02-.63-.02h-2.18c-.02.87-.15,1.6-.47,2.19-.29.54-.9,1.12-1.58,1.47l-.59-.44c.63-.26,1.2-.72,1.52-1.23.35-.56.44-1.24.47-1.99h-2.41c-.24,0-.47,0-.7.02v-.67c.22.02.45.04.7.04Zm.99-2.01h3.25c.22,0,.51-.02.75-.05v.67c-.23-.02-.51-.02-.75-.02h-3.24c-.26,0-.53,0-.73.02v-.67c.22.02.47.05.72.05Z"/>
      <path class="cls-3" d="m40.68,14.49c-.27.69-.78,1.63-1.35,2.35.84.72,1.82,1.77,2.34,2.4l-.56.48c-.54-.71-1.39-1.65-2.21-2.38-.86.92-1.94,1.81-3.13,2.34l-.51-.54c1.29-.51,2.48-1.46,3.31-2.38.55-.62,1.13-1.56,1.33-2.23h-3.13c-.28,0-.72.03-.81.04v-.73c.11.02.57.05.81.05h3.1c.26,0,.47-.02.6-.06l.41.31c-.05.06-.15.24-.2.35Z"/>
      <path class="cls-3" d="m43.79,14.13c0-.22-.02-.59-.06-.83h.79c-.02.25-.06.59-.06.83v1.31c1.06.32,2.58.9,3.43,1.32l-.27.68c-.88-.47-2.26-1.01-3.15-1.29,0,1.2,0,2.42,0,2.65,0,.25.02.68.05.95h-.78c.04-.26.06-.65.06-.95v-4.67Z"/>
      <path class="cls-3" d="m14.18,29.73c-.14,1.63-.55,2.58-2.54,3.07-.05-.15-.21-.39-.34-.51,1.84-.39,2.16-1.17,2.27-2.56h.61Zm.43-2.92h-3.14v-.55h3.14v-.79h.61v.79h3.2v.55h-3.2v.79h2.49v.53h-5.49v-.53h2.39v-.79Zm2.99,3.5v-.99h-5.34v.99h-.58v-1.53h6.53v1.53h-.6Zm-.04,1.79c.3,0,.35-.14.37-1.04.14.1.38.18.55.23-.07,1.08-.23,1.35-.86,1.35h-1.17c-.72,0-.91-.18-.91-.79v-2.13h.59v2.12c0,.22.06.26.37.26h1.06Z"/>
      <path class="cls-3" d="m26.74,31.81v.59h-7.15v-.59h2.99v-6.23h.63v2.46h2.99v.59h-2.99v3.18h3.53Z"/>
      <path class="cls-3" d="m34.07,25.96v6.78h-.62v-.55h-4.2v.55h-.59v-6.78h5.4Zm-4.82.58v1.3h4.2v-1.3h-4.2Zm0,1.87v1.32h4.2v-1.32h-4.2Zm4.2,3.2v-1.32h-4.2v1.32h4.2Z"/>
      <path class="cls-3" d="m38.34,30.15c-.11-.26-.39-.75-.63-1.14v3.77h-.55v-3.75c-.26.88-.61,1.72-.98,2.24-.06-.15-.21-.38-.31-.51.5-.67.99-1.92,1.22-3.01h-1.06v-.55h1.12v-1.73h.55v1.73h.9v.55h-.9v.55c.22.3.82,1.19.96,1.41l-.33.44Zm1.67,1.07c-.32.48-.83.96-1.31,1.3-.08-.11-.24-.26-.37-.36.47-.3.96-.79,1.22-1.19l.46.25Zm1.2-.43v1.42c0,.27-.05.42-.25.5-.21.08-.53.09-1.04.09-.02-.15-.1-.35-.18-.49h.79c.1,0,.12-.03.12-.11v-1.41h-2.03v-.48h4.66v.48h-2.07Zm-1.12-4.47h-1.43v-.5h4.62v.5h-1.48v.55h1.27v1.91h-4.16v-1.91h1.18v-.55Zm-.97,3.4v-.46h3.75v.46h-3.75Zm.3-1.4h.72v-.99h-.72v.99Zm1.16-.99v.99h.75v-.99h-.75Zm.75-1.02h-.74v.55h.74v-.55Zm1.23,1.02h-.79v.99h.79v-.99Zm-.34,3.66c.4.36.9.87,1.13,1.21l-.44.32c-.23-.34-.71-.87-1.11-1.26l.42-.27Z"/>
      <path class="cls-3" d="m45.81,31.18c.38.59,1.08.87,2.02.9.88.04,2.73.02,3.69-.05-.07.14-.17.41-.19.59-.9.04-2.59.06-3.49.02-1.05-.04-1.77-.32-2.27-.95-.35.34-.72.68-1.12,1.03l-.31-.57c.34-.25.75-.59,1.11-.92v-2.05h-1.02v-.56h1.58v2.58Zm-.24-3.84c-.24-.4-.78-.96-1.27-1.34l.46-.34c.49.37,1.04.92,1.29,1.31l-.48.37Zm2.01.24h-1.39v-.46h2.27v-.6h-1.74v-.45h1.74v-.61h.59v.61h1.81v.45h-1.81v.6h2.36v.46h-1.42l.34.1c-.15.28-.3.56-.43.77h1.4v.46h-2.25v.54h1.93v.44h-1.93v.59h2.3v.46h-2.3v.75h-.59v-.75h-2.19v-.46h2.19v-.59h-1.79v-.44h1.79v-.54h-2.09v-.46h1.2c-.06-.22-.2-.54-.35-.78l.37-.09Zm1.81.8c.12-.23.26-.56.35-.8h-2c.18.25.32.56.38.79l-.28.07h1.77l-.22-.06Z"/>
      <path class="cls-3" d="m59.17,28.18c-.35,1.04-.82,1.95-1.41,2.71.3.79.67,1.24,1.08,1.24.22,0,.32-.42.38-1.49.14.14.35.27.51.32-.11,1.36-.33,1.76-.94,1.76s-1.1-.49-1.47-1.32c-.48.52-1.04.97-1.65,1.33-.09-.12-.3-.36-.43-.47.71-.39,1.33-.88,1.85-1.49-.29-.91-.48-2.09-.59-3.38h-2.77v1.04h2.05v.26c-.04,1.8-.09,2.47-.26,2.68-.12.15-.26.21-.48.23-.2.02-.56.02-.96,0,0-.18-.07-.41-.17-.56.37.03.71.04.85.04.11,0,.19-.02.24-.09.11-.12.15-.63.18-2.01h-1.46v.06c0,1.12-.12,2.74-.84,3.78-.1-.12-.36-.33-.5-.4.66-.98.73-2.35.73-3.39v-2.24h3.35c-.03-.44-.04-.89-.05-1.35h.62c0,.47,0,.92.03,1.35h2.59v.59h-2.55c.08,1.07.22,2.02.44,2.79.43-.63.78-1.36,1.03-2.17l.6.15Zm-1.39-2.68c.5.25,1.12.63,1.44.92l-.37.41c-.3-.28-.92-.69-1.42-.96l.35-.36Z"/>
      <path class="cls-3" d="m41.2,42.99l.28.48c-.71.54-1.41,1.34-1.87,2.05-.46-.71-1.16-1.52-1.87-2.05l.28-.48c.5.36,1,.89,1.32,1.3v-6.19h.55v6.19c.31-.41.82-.94,1.32-1.3Z"/>
    </g>
    <path class="cls-3" d="m3,6.14H0v-3h3v3Z"/>
    <rect class="cls-2" x="8.67" y="50.72" width="117.2" height="16.13"/>
    <g>
      <path class="cls-1" d="m23.16,61.22v1.04h-8.06v-1.04h1.09v-3.94h1.11v3.94h1.53v-5.31h-3.42v-1.03h7.51v1.03h-2.96v1.95h2.5v1.03h-2.5v2.33h3.2Z"/>
      <path class="cls-1" d="m31.58,56.27c-.42.69-1.26,1.81-2.13,2.43l-.92-.74c.71-.43,1.4-1.21,1.63-1.65h-4.62c-.37,0-.67.03-1.08.06v-1.23c.34.05.71.09,1.08.09h4.78c.25,0,.74-.03.9-.08l.7.66c-.1.12-.27.33-.35.46Zm-5.73,6.04l-1.04-.84c.28-.1.6-.25.93-.49,1.13-.78,1.34-1.72,1.34-3.17,0-.28-.02-.51-.06-.8h1.29c0,2.2-.04,4.01-2.46,5.3Z"/>
      <path class="cls-1" d="m36.42,56.78c.91-.57,1.92-1.45,2.5-2.15l.96.91c-.67.67-1.53,1.36-2.38,1.92v3.58c0,.39.02.94.08,1.16h-1.4c.04-.21.06-.77.06-1.16v-2.84c-.91.48-2.04.96-3.13,1.28l-.56-1.12c1.59-.41,2.89-.98,3.87-1.59Z"/>
      <path class="cls-1" d="m41.66,57.44h5.81c.19,0,.58-.02.81-.05v1.15c-.22-.02-.56-.03-.81-.03h-2.14c-.05.91-.25,1.66-.57,2.28-.31.62-.99,1.3-1.78,1.7l-1.04-.75c.63-.24,1.25-.74,1.6-1.27.36-.55.51-1.21.55-1.96h-2.44c-.26,0-.6.02-.85.04v-1.16c.27.04.58.05.85.05Zm1.13-2.25h2.9c.3,0,.66-.03.96-.07v1.14c-.3-.02-.65-.03-.96-.03h-2.9c-.3,0-.68,0-.95.03v-1.14c.28.04.65.07.95.07Zm5.09.53l-.71.31c-.19-.36-.46-.9-.7-1.23l.71-.29c.22.33.53.89.7,1.21Zm1.06-.41l-.71.31c-.19-.37-.47-.89-.71-1.22l.7-.29c.23.34.56.9.72,1.21Z"/>
      <path class="cls-1" d="m52.88,62.51l-.95-.9c1.71-.6,2.46-1.37,2.46-3.55v-.34h-2.1v1.21c0,.4.03.75.04.93h-1.24c.03-.18.05-.53.05-.93v-1.21h-.75c-.44,0-.76.03-.96.04v-1.21c.16.03.51.08.96.08h.75v-.88c0-.26-.03-.52-.05-.8h1.26c-.02.17-.05.45-.05.81v.87h2.1v-.93c0-.35-.03-.65-.05-.82h1.27c-.03.19-.06.47-.06.82v.93h.66c.47,0,.74-.02.98-.06v1.18c-.2-.02-.51-.03-.97-.03h-.67v.29c0,2.2-.52,3.54-2.67,4.49Zm3.9-6.38l-.61.2c-.12-.37-.28-.86-.45-1.21l.59-.2c.17.35.37.87.47,1.21Zm.93-.29l-.61.2c-.12-.38-.29-.86-.48-1.21l.6-.19c.17.35.37.87.49,1.21Z"/>
      <path class="cls-1" d="m62.22,56.78c.91-.57,1.92-1.45,2.5-2.15l.96.91c-.67.67-1.53,1.36-2.38,1.92v3.58c0,.39.02.94.08,1.16h-1.4c.04-.21.06-.77.06-1.16v-2.84c-.91.48-2.04.96-3.13,1.28l-.56-1.12c1.59-.41,2.89-.98,3.87-1.59Z"/>
      <path class="cls-1" d="m69.96,54.8h1.41c-.05.28-.07.76-.07,1.05v.97h1.99c.41,0,.78-.04.97-.05v1.21c-.19,0-.62-.04-.98-.04h-1.99c-.05,1.78-.61,3.24-2.53,4.38l-1.1-.82c1.74-.79,2.33-2.07,2.4-3.56h-2.26c-.39,0-.75.03-1.02.04v-1.22c.27.03.63.06.98.06h2.3v-.98c0-.3-.04-.76-.12-1.04Z"/>
      <path class="cls-1" d="m76.79,57.76h4.76c.42,0,.81-.04,1.04-.05v1.39c-.21,0-.67-.04-1.04-.04h-4.76c-.51,0-1.1.02-1.43.04v-1.39c.32.03.97.05,1.43.05Z"/>
      <path class="cls-1" d="m84.71,57.44h5.81c.19,0,.58-.02.81-.05v1.15c-.22-.02-.56-.03-.81-.03h-2.14c-.05.91-.25,1.66-.57,2.28-.31.62-.99,1.3-1.78,1.7l-1.04-.75c.63-.24,1.25-.74,1.6-1.27.36-.55.51-1.21.55-1.96h-2.44c-.26,0-.6.02-.85.04v-1.16c.27.04.58.05.85.05Zm1.13-2.25h2.9c.3,0,.66-.03.96-.07v1.14c-.3-.02-.65-.03-.96-.03h-2.9c-.3,0-.68,0-.95.03v-1.14c.28.04.65.07.95.07Zm5.09.53l-.71.31c-.19-.36-.46-.9-.7-1.23l.71-.29c.22.33.53.89.7,1.21Zm1.06-.41l-.71.31c-.19-.37-.47-.89-.71-1.22l.7-.29c.23.34.56.9.72,1.21Z"/>
      <path class="cls-1" d="m94.52,55.94v1.68c1.05-.26,2.28-.65,3.07-.98.32-.12.62-.27.97-.48l.48,1.13c-.35.14-.74.31-1.04.42-.9.35-2.32.8-3.47,1.08v1.64c0,.38.18.48.58.56.27.04.63.05,1.03.05.92,0,2.36-.12,3.08-.31v1.29c-.83.12-2.18.19-3.16.19-.58,0-1.11-.04-1.49-.1-.77-.14-1.21-.57-1.21-1.33v-4.83c0-.2-.03-.66-.07-.92h1.31c-.04.27-.07.67-.07.92Zm4.6-.09l-.72.3c-.18-.36-.45-.89-.69-1.23l.7-.28c.22.33.54.89.71,1.21Zm1.05-.41l-.7.3c-.19-.37-.47-.89-.72-1.22l.7-.28c.24.33.57.9.72,1.21Z"/>
      <path class="cls-1" d="m106.39,57.96c-.07.52-.3,2.05-.43,2.89h.57c.23,0,.64,0,.87-.04v1.14c-.18,0-.61-.03-.85-.03h-4.66c-.32,0-.54,0-.88.03v-1.15c.24.03.57.04.88.04h2.87c.12-.75.32-2.01.35-2.51h-2.39c-.28,0-.63.03-.89.04v-1.17c.23.03.64.05.88.05h2.27c.19,0,.55-.04.66-.1l.86.42c-.04.12-.07.28-.09.37Z"/>
      <path class="cls-1" d="m110.29,57.76h4.76c.42,0,.81-.04,1.04-.05v1.39c-.21,0-.67-.04-1.04-.04h-4.76c-.51,0-1.1.02-1.43.04v-1.39c.32.03.97.05,1.43.05Z"/>
    </g>
  </g>
</svg>