<?xml version="1.0" encoding="UTF-8"?>
<svg id="_レイヤー_2" data-name="レイヤー 2" xmlns="http://www.w3.org/2000/svg" viewBox="0 0 268.2 103.11">
  <defs>
    <style>
      .cls-1 {
        fill: #231815;
      }
    </style>
  </defs>
  <g id="_レイヤー_1-2" data-name="レイヤー 1">
    <g>
      <path class="cls-1" d="m29.07,6.05c-.56-.48-1.64-1.11-2.56-1.51l.38-.49c.9.36,2.02.98,2.56,1.44l-.38.56Zm.71,1.97c-.67,1.49-1.58,3.32-2.31,4.59l-.57-.43c.69-1.11,1.67-3,2.37-4.58l.52.42Zm-.07-5.62c-.55-.53-1.6-1.22-2.51-1.64l.39-.48c.88.41,1.98,1.05,2.49,1.54l-.38.57Zm5.35,4.85c.69,2.44,2.1,4.23,4.27,5.04-.15.13-.36.38-.48.56-2.26-.92-3.7-2.84-4.43-5.53-.36,2.12-1.43,4.05-4.43,5.52-.1-.13-.32-.36-.49-.49,2.86-1.37,3.88-3.15,4.25-5.1h-3.66v-.64h3.74c.07-.57.08-1.16.08-1.75v-1.78h-3v-.64h3V.17h.67v2.27h3.42v4.17h1.22v.64h-4.17Zm-.46-2.38c0,.59-.01,1.16-.07,1.74h2.82v-3.53h-2.75v1.79Z"/>
      <path class="cls-1" d="m47.59,1.72c-.01.18-.01.56-.01,1.02,1.32-.06,2.68-.2,3.92-.39v.67c-1.23.14-2.59.27-3.92.34v2.27c1.29-.06,2.66-.18,4.01-.39v.7c-1.37.18-2.69.29-3.99.34.03.85.07,1.71.11,2.45,1.89.5,3.39,1.58,4.16,2.2l-.42.66c-.87-.77-2.14-1.7-3.71-2.19.03.45.04.83.04,1.06,0,.84-.49,1.86-2.31,1.86s-2.94-.63-2.94-1.91c0-1.19,1.18-1.98,3.12-1.98.48,0,.92.04,1.36.13-.01-.76-.04-1.58-.07-2.28-.27.01-.55.01-.83.01-1.04,0-2.55-.08-3.6-.2v-.7c1.04.15,2.56.25,3.6.25.27,0,.55,0,.81-.01v-2.27c-.24.01-.48.01-.7.01-1.01,0-2.79-.13-3.66-.24v-.69c.85.17,2.68.31,3.64.31.24,0,.48,0,.71-.01v-1.18c0-.22-.01-.63-.04-.77h.77c-.03.22-.04.46-.06.91Zm-2.18,9.97c.85,0,1.64-.27,1.64-1.33,0-.31-.01-.7-.01-1.15-.48-.1-.97-.15-1.47-.15-1.56,0-2.37.6-2.37,1.33s.59,1.3,2.21,1.3Z"/>
      <path class="cls-1" d="m55.48,6.09c1.01-.32,3.28-1.18,4.89-1.18,1.85,0,3.26,1.11,3.26,2.9,0,2.8-2.82,3.95-6.19,4.16l-.29-.7c2.94-.08,5.77-.97,5.77-3.47,0-1.28-1.02-2.24-2.58-2.24-1.79,0-5.03,1.34-5.74,1.62l-.32-.77c.41-.08.76-.18,1.2-.32Z"/>
      <path class="cls-1" d="m70.34,1.86c-.08.39-.17.85-.27,1.36.98-.11,1.99-.29,2.9-.53v.71c-.97.21-2.03.38-3.04.48-.13.63-.28,1.29-.46,1.92-.5,2.02-1.46,4.93-2.17,6.37l-.8-.27c.85-1.47,1.79-4.26,2.31-6.25.14-.5.28-1.12.42-1.71-.56.04-1.06.07-1.53.07-.57,0-1.06-.01-1.58-.06l-.03-.7c.63.08,1.16.1,1.64.1s1.04-.03,1.64-.07c.13-.63.22-1.18.27-1.48.06-.31.07-.73.06-1l.87.07c-.08.27-.17.73-.22.98Zm1.64,7.96c0,.69.35,1.43,2.63,1.43.91,0,1.86-.1,2.65-.27l-.03.74c-.74.11-1.67.2-2.63.2-2.12,0-3.28-.59-3.28-1.96,0-.48.07-.91.2-1.53l.67.07c-.14.49-.21.92-.21,1.32Zm2.67-4.76c.83,0,1.68.03,2.41.11l-.03.7c-.73-.1-1.53-.15-2.34-.15s-1.67.06-2.52.14v-.69c.71-.07,1.6-.11,2.48-.11Z"/>
      <path class="cls-1" d="m80.7,5.31h9.16c.29,0,.66-.03.98-.06v.77c-.28-.03-.67-.04-.98-.04h-4.05c-.03,1.54-.22,2.9-.81,3.98-.52.91-1.57,1.88-2.72,2.46l-.67-.5c1.13-.49,2.16-1.3,2.7-2.23.64-1.05.74-2.3.77-3.71h-4.38c-.43,0-.77.01-1.15.04v-.77c.36.03.71.06,1.15.06Zm1.67-3.47h5.01c.35,0,.81-.01,1.19-.07v.78c-.38-.03-.84-.04-1.19-.04h-4.99c-.45,0-.83.01-1.15.04v-.78c.36.04.69.07,1.12.07Zm8.03.6l-.55.27c-.27-.58-.77-1.42-1.15-1.95l.53-.24c.35.5.85,1.33,1.16,1.92Zm1.5-.53l-.55.25c-.31-.62-.77-1.4-1.18-1.92l.52-.24c.38.52.92,1.37,1.2,1.91Z"/>
      <path class="cls-1" d="m97.81,12.58l-.62-.57c2.45-1,3.78-2.2,3.78-6.4v-.62h-4.38v2.48c0,.46.04,1.09.04,1.15h-.81c.01-.06.07-.67.07-1.15v-2.48h-1.71c-.56,0-1.27.04-1.33.04v-.8s.8.07,1.33.07h1.71v-2.03c0-.24-.03-.62-.06-.87h.81s-.06.42-.06.85v2.04h4.38v-1.92c0-.53-.06-1-.07-1.05h.84c-.01.06-.07.52-.07,1.05v1.92h1.83c.56,0,1.05-.06,1.13-.07v.8c-.07,0-.57-.04-1.13-.04h-1.83v.5c0,3.89-.78,5.69-3.87,7.09Zm6.15-9.37l-.53.18c-.21-.59-.59-1.47-.85-1.99l.5-.15c.27.48.67,1.39.88,1.96Zm1.39-.43l-.55.2c-.24-.63-.57-1.47-.87-1.97l.52-.17c.27.49.66,1.36.9,1.95Z"/>
      <path class="cls-1" d="m112.93,4.31c1.49-.95,2.77-2.04,3.78-3.25l.59.55c-1.08,1.13-2.33,2.18-3.81,3.17v6.07c0,.46.03,1.05.07,1.29h-.87c.03-.22.06-.83.06-1.29v-5.6c-1.47.88-3.49,1.78-5.55,2.42l-.38-.69c2.38-.66,4.57-1.69,6.11-2.66Z"/>
      <path class="cls-1" d="m125.77,9.01c2.02-1.3,3.66-3.35,4.41-4.99l.43.76c-.9,1.64-2.38,3.53-4.43,4.85-1.39.9-3.14,1.81-5.69,2.31l-.48-.74c2.59-.39,4.43-1.33,5.74-2.19Zm-1.33-4.38l-.55.56c-.7-.7-2.42-2.2-3.47-2.88l.49-.52c1,.66,2.79,2.12,3.53,2.84Z"/>
      <path class="cls-1" d="m133.28,2.75c.74-.1,3.59-.39,6.18-.6,1.58-.14,2.76-.21,3.67-.24v.71c-.84-.01-2.07.01-2.76.24-2.19.76-3.38,3.08-3.38,4.74,0,2.98,2.8,3.88,5.01,3.95l-.25.71c-2.4-.06-5.45-1.32-5.45-4.5,0-2.28,1.44-4.19,2.94-4.97-1.62.17-5.6.55-7.06.84l-.1-.81c.53-.01.91-.04,1.19-.07Zm8.99,3.77l-.53.25c-.29-.62-.76-1.43-1.16-1.99l.52-.24c.31.45.85,1.32,1.18,1.97Zm1.57-.56l-.53.27c-.31-.64-.78-1.43-1.2-2l.49-.24c.34.45.9,1.32,1.25,1.97Z"/>
      <path class="cls-1" d="m148,2.12h6.6c.46,0,.8-.01,1.09-.04v.74c-.31-.01-.6-.03-1.09-.03h-3.82v3.29h5c.29,0,.76-.01,1.05-.04v.76c-.29-.01-.73-.03-1.04-.03h-5.01v3.19c0,.67.49,1.19,1.88,1.19s2.48-.06,3.71-.2l-.03.74c-1.19.08-2.39.15-3.75.15-1.85,0-2.54-.67-2.54-1.65v-3.43h-2.98c-.34,0-.83.01-1.19.04v-.78c.36.04.85.06,1.19.06h2.98v-3.29h-2.04c-.46,0-.85.01-1.21.03v-.74c.35.03.74.04,1.21.04Z"/>
      <path class="cls-1" d="m160.35,5.31h9.16c.29,0,.66-.03.98-.06v.77c-.28-.03-.67-.04-.98-.04h-4.05c-.03,1.54-.22,2.9-.81,3.98-.52.91-1.57,1.88-2.72,2.46l-.67-.5c1.13-.49,2.16-1.3,2.7-2.23.64-1.05.74-2.3.77-3.71h-4.38c-.43,0-.77.01-1.15.04v-.77c.36.03.71.06,1.15.06Zm1.67-3.47h5.01c.35,0,.81-.01,1.19-.07v.78c-.38-.03-.84-.04-1.19-.04h-4.99c-.45,0-.83.01-1.15.04v-.78c.36.04.69.07,1.12.07Zm8.03.6l-.55.27c-.27-.58-.77-1.42-1.15-1.95l.53-.24c.35.5.85,1.33,1.16,1.92Zm1.5-.53l-.55.25c-.31-.62-.77-1.4-1.18-1.92l.52-.24c.38.52.92,1.37,1.2,1.91Z"/>
      <path class="cls-1" d="m174.74,8.04c.41-1.33.42-4.2.42-5.7,0-.32-.03-.59-.08-.85h.84c-.03.22-.06.53-.06.85,0,1.48-.06,4.52-.43,5.91-.42,1.46-1.33,2.82-2.49,3.74l-.67-.45c1.15-.83,2.03-2.06,2.48-3.5Zm3.98,2.83V2.35c0-.48-.04-.78-.06-.94h.83c-.03.15-.04.46-.04.94v8.53c1.39-.64,3.32-2.02,4.45-3.74l.43.62c-1.25,1.71-3.15,3.1-4.79,3.91-.2.1-.34.2-.42.27l-.49-.41c.06-.2.08-.43.08-.66Z"/>
      <path class="cls-1" d="m188.78,6.82v6h-.62v-5.97c-.87.06-1.68.1-2.37.13l-.07-.63.97-.04c.32-.39.67-.87,1.02-1.37-.42-.63-1.15-1.47-1.83-2.09l.39-.41c.17.14.32.29.49.46.49-.8,1.06-1.95,1.39-2.76l.6.25c-.46.95-1.08,2.12-1.61,2.9.36.38.69.77.94,1.12.62-.94,1.21-1.92,1.62-2.72l.6.28c-.83,1.36-1.96,3.08-2.93,4.3.77-.04,1.61-.08,2.49-.13-.22-.46-.49-.94-.76-1.34l.53-.21c.6.9,1.19,2.09,1.42,2.83l-.57.27c-.07-.27-.2-.6-.35-.95l-1.36.08Zm-1.46,1.27c-.22,1.32-.56,2.63-1.02,3.53-.11-.08-.41-.21-.56-.27.49-.87.78-2.13.97-3.38l.62.11Zm2.91,2.56c-.08-.69-.39-1.75-.74-2.56l.53-.15c.38.81.67,1.86.77,2.55l-.56.17Zm5.11-2.27c.88,1.3,2.34,2.66,3.57,3.31-.15.13-.35.35-.48.52-1.18-.71-2.58-2.07-3.49-3.43v4.03h-.66v-3.98c-.92,1.44-2.37,2.76-3.68,3.47-.11-.18-.31-.41-.48-.53,1.37-.64,2.87-2,3.77-3.39h-2.61V3.67h3v-1.4h-3.47v-.63h3.47V.15h.66v1.48h3.49v.63h-3.49v1.4h3.12v4.72h-2.73Zm-3.43-2.65h2.41v-1.51h-2.41v1.51Zm0,2.07h2.41v-1.53h-2.41v1.53Zm5.52-3.59h-2.51v1.51h2.51v-1.51Zm0,2.06h-2.51v1.53h2.51v-1.53Z"/>
      <path class="cls-1" d="m204.35,4.44c-1.29.52-2.61,1.06-3.66,1.47l-.28-.57c.98-.32,2.41-.87,3.82-1.44l.11.55Zm.9-2.94h-4.53v-.59h5.16v4.62c0,.35-.08.53-.38.64-.31.11-.84.1-1.74.1-.04-.17-.14-.39-.22-.55.71.01,1.3.01,1.47,0,.18,0,.24-.06.24-.2V1.5Zm-3.4.29c.7.36,1.51.95,1.88,1.39l-.41.46c-.39-.46-1.18-1.07-1.86-1.44l.39-.41Zm5.08,4.16c-.21.41-.43.81-.64,1.16h4.71v5.76h-.69v-.57h-7.31v.57h-.66v-5.76h3.28c.24-.42.5-.97.63-1.34l.69.18Zm3.38,1.74h-7.31v1.68h7.31v-1.68Zm0,4.02v-1.75h-7.31v1.75h7.31Zm-3.73-6.67c1.02-.34,2.54-.88,4.02-1.42l.1.53c-1.34.5-2.75,1.04-3.84,1.43l-.28-.55Zm5.52.52c0,.38-.1.56-.39.67-.31.1-.87.11-1.81.1-.03-.17-.13-.41-.21-.56.73.03,1.35.03,1.53.01.18-.01.24-.06.24-.22V1.5h-4.61v-.59h5.25v4.65Zm-2.9-1.96c-.38-.46-1.18-1.02-1.88-1.39l.39-.41c.69.34,1.5.9,1.91,1.32l-.42.48Z"/>
      <path class="cls-1" d="m34.61,32.02c0,.28.01.84.03,1.57h2.46c.32,0,.8-.04,1.05-.07v.78c-.27-.01-.71-.04-1.04-.04h-2.48c.04,2.14.08,5.18.08,6.86,0,.64-.39.95-1.11.95-.63,0-1.5-.04-2.13-.08l-.06-.76c.69.11,1.48.17,2.04.17.42,0,.55-.18.55-.55,0-1.22-.03-3.75-.06-5.83-1.13,1.65-3.68,4.12-6.37,5.55l-.52-.59c2.91-1.44,5.52-3.99,6.61-5.73h-5.1c-.45,0-.73.03-1.15.06v-.8c.42.04.74.07,1.15.07h5.37c-.01-.73-.03-1.29-.04-1.57-.03-.49-.06-.77-.11-1.02h.88c-.04.35-.07.67-.07,1.02Z"/>
      <path class="cls-1" d="m49.75,33.05c-.29,1.53-1.01,3.82-2.09,5.2-1.29,1.62-2.83,2.86-5.43,3.67l-.62-.67c2.68-.7,4.24-1.88,5.45-3.43,1.02-1.33,1.74-3.49,1.93-4.92h-7.54c-.5,0-.88.03-1.23.04v-.81c.36.04.78.08,1.25.08h7.34c.18,0,.35,0,.55-.06l.55.35c-.08.15-.11.28-.15.55Z"/>
      <path class="cls-1" d="m51.97,39.34l.57-.52c1.02.81,2.23,2.02,3.21,3.12l-.63.53c-.94-1.15-2.14-2.34-3.15-3.14Z"/>
      <path class="cls-1" d="m70.55,32.72c-.5.87-1.83,2.69-3.56,3.88l-.62-.5c1.39-.77,2.84-2.47,3.35-3.43h-8.38c-.49,0-1.04.03-1.53.06v-.85c.46.06,1.04.11,1.53.11h8.33c.2,0,.55-.04.7-.07l.46.45c-.1.1-.21.24-.29.36Zm-9.16,9.46l-.67-.56c.34-.1.81-.34,1.13-.53,2.4-1.39,2.69-3.68,2.69-6.04,0-.28-.01-.56-.04-.87h.8c0,3.98-.48,6.37-3.91,8Z"/>
      <path class="cls-1" d="m78.87,34.31c1.49-.95,2.77-2.04,3.78-3.25l.59.55c-1.08,1.13-2.33,2.18-3.81,3.17v6.07c0,.46.03,1.05.07,1.29h-.87c.03-.22.06-.83.06-1.29v-5.6c-1.47.88-3.49,1.78-5.55,2.42l-.38-.69c2.38-.66,4.57-1.69,6.11-2.66Z"/>
      <path class="cls-1" d="m89.48,36.21l-.42.63c-.63-.46-2.19-1.46-2.98-1.86l.41-.6c.76.41,2.45,1.44,3,1.84Zm1.93,3.43c2.28-1.33,4.08-3.11,5.21-5.07l.45.71c-1.18,1.85-3.08,3.68-5.29,4.99-1.4.84-3.28,1.46-4.62,1.75l-.41-.73c1.53-.27,3.31-.87,4.67-1.65Zm.11-6.43l-.45.6c-.6-.49-2.16-1.54-2.91-1.98l.39-.6c.77.45,2.42,1.57,2.97,1.98Z"/>
      <path class="cls-1" d="m102.08,34.23c.07.25.25.94.49,1.81,2.1-.39,4.75-.91,5.17-1.01.14-.03.31-.08.43-.14l.45.32c-.57,1.16-2.04,3.04-3,3.92l-.64-.34c.95-.81,2.07-2.19,2.61-3.1-.31.06-2.66.52-4.83.94.56,2.07,1.3,4.72,1.47,5.27.1.28.18.6.28.84l-.8.21c-.01-.27-.08-.57-.17-.9-.17-.56-.9-3.22-1.47-5.28-1.41.28-2.65.53-2.98.6l-.2-.71c.38-.03.7-.08,1.09-.15.21-.03.95-.17,1.92-.35-.24-.87-.43-1.55-.5-1.78-.1-.35-.18-.59-.29-.76l.8-.2c.04.18.1.45.18.8Z"/>
      <path class="cls-1" d="m116.81,39.01c2.02-1.3,3.66-3.35,4.41-4.99l.43.76c-.9,1.64-2.38,3.53-4.43,4.85-1.39.9-3.14,1.81-5.69,2.31l-.48-.74c2.59-.39,4.43-1.33,5.74-2.19Zm-1.33-4.38l-.55.56c-.7-.7-2.42-2.2-3.47-2.88l.49-.52c1,.66,2.79,2.12,3.53,2.84Z"/>
      <path class="cls-1" d="m133.89,30.36c.84,0,1.51.67,1.51,1.51s-.67,1.5-1.51,1.5c-.27,0-.5-.07-.71-.18v.07c-.29,1.53-1.02,3.82-2.09,5.2-1.29,1.62-2.84,2.86-5.45,3.67l-.62-.67c2.68-.7,4.24-1.88,5.45-3.43,1.02-1.32,1.75-3.49,1.95-4.92h-7.55c-.5,0-.87.03-1.23.04v-.81c.36.04.78.08,1.25.08h7.34c.08,0,.18,0,.27-.01-.07-.15-.1-.34-.1-.53,0-.84.66-1.51,1.5-1.51Zm0,2.49c.55,0,1-.43,1-.98s-.45-1.01-1-1.01-.99.46-.99,1.01.45.98.99.98Z"/>
      <path class="cls-1" d="m138.87,36.05h7.76c.73,0,1.15-.03,1.43-.06v.87c-.25-.01-.77-.04-1.41-.04h-7.77c-.77,0-1.4.01-1.78.04v-.87c.36.03.95.06,1.78.06Z"/>
      <path class="cls-1" d="m150.64,39.34l.57-.52c1.02.81,2.23,2.02,3.21,3.12l-.63.53c-.94-1.15-2.14-2.34-3.15-3.14Z"/>
      <path class="cls-1" d="m169.23,32.72c-.5.87-1.83,2.69-3.56,3.88l-.62-.5c1.39-.77,2.84-2.47,3.35-3.43h-8.38c-.49,0-1.04.03-1.53.06v-.85c.46.06,1.04.11,1.53.11h8.33c.2,0,.55-.04.7-.07l.46.45c-.1.1-.21.24-.29.36Zm-9.16,9.46l-.67-.56c.34-.1.81-.34,1.13-.53,2.4-1.39,2.69-3.68,2.69-6.04,0-.28-.01-.56-.04-.87h.8c0,3.98-.48,6.37-3.91,8Z"/>
      <path class="cls-1" d="m177.54,34.31c1.49-.95,2.77-2.04,3.78-3.25l.59.55c-1.08,1.13-2.33,2.18-3.81,3.17v6.07c0,.46.03,1.05.07,1.29h-.87c.03-.22.06-.83.06-1.29v-5.6c-1.47.88-3.49,1.78-5.55,2.42l-.38-.69c2.38-.66,4.57-1.69,6.11-2.66Z"/>
      <path class="cls-1" d="m186.06,32.44c0-.34-.03-.92-.1-1.33h.9c-.04.39-.08,1-.08,1.33v2.42c1.83.56,4.46,1.57,6.07,2.37l-.31.74c-1.55-.85-4.2-1.86-5.76-2.34.01,2.31.01,4.71.01,5,0,.48.01,1.09.07,1.49h-.87c.06-.38.07-.98.07-1.49v-8.19Z"/>
      <path class="cls-1" d="m197.44,32.4v4.65c0,.35.01.77.04.98h-.83c.03-.2.06-.59.06-.99v-4.64c0-.24-.03-.73-.06-.97h.83c-.03.24-.04.7-.04.97Zm6.51.03v1.97c0,3.57-.38,4.57-1.37,5.8-.9,1.13-2.27,1.71-3.29,2.06l-.59-.62c1.22-.34,2.45-.9,3.33-1.93,1.02-1.22,1.18-2.41,1.18-5.32v-1.96c0-.41-.03-.79-.06-1.09h.84c-.03.31-.04.69-.04,1.09Z"/>
      <path class="cls-1" d="m209.37,36.05h7.76c.73,0,1.15-.03,1.43-.06v.87c-.25-.01-.77-.04-1.41-.04h-7.77c-.77,0-1.4.01-1.78.04v-.87c.36.03.95.06,1.78.06Z"/>
      <path class="cls-1" d="m223.15,32.44c0-.34-.03-.92-.1-1.33h.9c-.04.39-.08,1-.08,1.33v2.42c1.83.56,4.46,1.57,6.07,2.37l-.31.74c-1.55-.85-4.2-1.86-5.76-2.34.01,2.31.01,4.71.01,5,0,.48.01,1.09.07,1.49h-.87c.06-.38.07-.98.07-1.49v-8.19Z"/>
      <path class="cls-1" d="m241.34,32.55c-.48,1.3-1.23,2.93-2.24,4.3,1.26,1.06,2.51,2.16,3.52,3.29l-.55.59c-1.06-1.21-2.18-2.24-3.43-3.31-1.34,1.67-3.17,3.42-5.65,4.65l-.62-.55c2.55-1.2,4.33-2.86,5.72-4.57-1.07-.85-2.77-2.13-4.06-2.91l.46-.56c1.26.81,2.98,2.06,4.05,2.9,1.02-1.4,1.68-2.87,2.11-4.12.08-.22.2-.6.25-.88l.81.28c-.13.22-.28.62-.38.88Z"/>
      <path class="cls-1" d="m251.18,39.01c2.02-1.3,3.66-3.35,4.41-4.99l.43.76c-.9,1.64-2.38,3.53-4.43,4.85-1.39.9-3.14,1.81-5.69,2.31l-.48-.74c2.59-.39,4.43-1.33,5.74-2.19Zm-1.33-4.38l-.55.56c-.7-.7-2.42-2.2-3.47-2.88l.49-.52c1,.66,2.79,2.12,3.53,2.84Z"/>
      <path class="cls-1" d="m259.65,32.44c0-.34-.03-.92-.1-1.33h.9c-.04.39-.08,1-.08,1.33v2.42c1.83.56,4.45,1.57,6.07,2.37l-.31.74c-1.55-.85-4.2-1.86-5.76-2.34.01,2.31.01,4.71.01,5,0,.48.01,1.09.07,1.49h-.87c.06-.38.07-.98.07-1.49v-8.19Z"/>
      <path class="cls-1" d="m27.88,65.31h9.16c.29,0,.66-.03.98-.06v.77c-.28-.03-.67-.04-.98-.04h-4.05c-.03,1.54-.22,2.9-.81,3.98-.52.91-1.57,1.88-2.72,2.46l-.67-.5c1.13-.49,2.16-1.3,2.7-2.23.64-1.05.74-2.3.77-3.71h-4.38c-.43,0-.77.01-1.15.04v-.77c.36.03.71.06,1.15.06Zm1.67-3.47h5.01c.35,0,.81-.01,1.19-.07v.78c-.38-.03-.84-.04-1.19-.04h-4.99c-.45,0-.83.01-1.15.04v-.78c.36.04.69.07,1.12.07Zm8.03.6l-.55.27c-.27-.58-.77-1.42-1.15-1.95l.53-.24c.35.5.85,1.33,1.16,1.92Zm1.5-.53l-.55.25c-.31-.62-.77-1.4-1.18-1.92l.52-.24c.38.52.92,1.37,1.2,1.91Z"/>
      <path class="cls-1" d="m44.99,72.58l-.62-.57c2.45-1,3.78-2.2,3.78-6.4v-.62h-4.38v2.48c0,.46.04,1.09.04,1.15h-.81c.01-.06.07-.67.07-1.15v-2.48h-1.71c-.56,0-1.27.04-1.33.04v-.8s.8.07,1.33.07h1.71v-2.03c0-.24-.03-.62-.06-.87h.81s-.06.42-.06.85v2.04h4.38v-1.92c0-.53-.06-1-.07-1.05h.84c-.01.06-.07.52-.07,1.05v1.92h1.83c.56,0,1.05-.06,1.13-.07v.8c-.07,0-.57-.04-1.13-.04h-1.83v.5c0,3.89-.78,5.69-3.87,7.09Zm6.15-9.37l-.53.18c-.21-.59-.59-1.47-.85-1.99l.5-.15c.27.48.67,1.39.88,1.96Zm1.39-.43l-.55.2c-.24-.63-.57-1.47-.87-1.97l.52-.17c.27.49.66,1.36.9,1.95Z"/>
      <path class="cls-1" d="m60.11,64.31c1.49-.95,2.77-2.04,3.78-3.25l.59.55c-1.08,1.13-2.33,2.18-3.81,3.17v6.07c0,.46.03,1.05.07,1.29h-.87c.03-.22.06-.83.06-1.29v-5.6c-1.47.88-3.49,1.78-5.55,2.42l-.38-.69c2.38-.66,4.57-1.69,6.11-2.66Z"/>
      <path class="cls-1" d="m72.94,69.01c2.02-1.3,3.66-3.35,4.41-4.99l.43.76c-.9,1.64-2.38,3.53-4.43,4.85-1.39.9-3.14,1.81-5.69,2.31l-.48-.74c2.59-.39,4.43-1.33,5.74-2.19Zm-1.33-4.38l-.55.56c-.7-.7-2.42-2.2-3.47-2.88l.49-.52c1,.66,2.79,2.12,3.53,2.84Z"/>
      <path class="cls-1" d="m81.73,67.58v4.34c0,.45-.13.63-.42.76-.28.11-.77.14-1.65.13-.04-.17-.13-.43-.22-.63.67.01,1.25.01,1.4,0,.18,0,.27-.06.27-.27v-4.1c-.66.24-1.27.46-1.82.63l-.22-.66c.56-.18,1.26-.42,2.04-.67v-3.4h-1.86v-.63h1.86v-2.9h.63v2.9h1.65v.63h-1.65v3.19l1.51-.5.1.63-1.61.56Zm10.32,4.41c-.1.15-.21.43-.22.6h-2.45c-2.16,0-3.67-.41-4.57-2.55-.38,1.18-.98,2.1-1.79,2.82-.1-.11-.36-.34-.52-.43,1.3-1.01,1.95-2.62,2.19-4.78l.63.07c-.06.55-.15,1.06-.27,1.53.45,1.43,1.2,2.14,2.18,2.47v-4.86h-3.52v-.6h7.87v.6h-3.74v1.89h3.08v.59h-3.08v2.54c.48.1.99.13,1.55.13h2.65Zm-1.28-6.96h-6.44v-4.4h6.44v4.4Zm-.64-3.84h-5.18v1.36h5.18v-1.36Zm0,1.89h-5.18v1.37h5.18v-1.37Z"/>
      <path class="cls-1" d="m101,69.23c1.29,1.27,3.47,2.37,5.43,2.84-.15.14-.35.39-.45.57-2.09-.6-4.45-1.92-5.74-3.42v3.59h-.66v-3.53c-1.26,1.44-3.57,2.75-5.62,3.32-.1-.17-.29-.42-.45-.56,1.95-.48,4.12-1.58,5.37-2.82h-5.14v-.62h5.84v-1.28h.66v1.28h5.91v.62h-5.16Zm-5.13-3.33c.42-.48.92-1.09,1.44-1.74h-3.36v-.59h3.81c.38-.49.76-.98,1.06-1.42l.64.21c-.28.38-.59.79-.91,1.21h7.44v.59h-2.86c-.39.85-.98,1.53-1.83,2.06,1.51.39,2.94.81,3.95,1.2l-.41.52c-1.04-.41-2.62-.88-4.3-1.32-1.37.63-3.29,1.01-6,1.2-.03-.15-.14-.43-.21-.57,2.31-.15,4.01-.43,5.25-.88-.95-.24-1.91-.45-2.79-.63l-.34.39-.6-.24Zm-1.09-2.72h-.63v-1.93h5.43v-1.11h.67v1.11h5.55v1.93h-.64v-1.33h-10.38v1.33Zm3.32.98c-.31.39-.62.79-.91,1.13,1.04.2,2.16.45,3.28.71.94-.48,1.55-1.08,1.95-1.85h-4.31Z"/>
      <path class="cls-1" d="m113.09,59.86l.55.34c-1.72,1.76-2.66,3.91-2.66,6.29s.94,4.52,2.66,6.29l-.55.34c-1.78-1.83-2.8-4.03-2.8-6.63s1.02-4.79,2.8-6.62Z"/>
      <path class="cls-1" d="m117.1,62.7v3.03c0,2.07-.18,5.04-1.34,7.12-.11-.11-.42-.29-.58-.38,1.13-1.99,1.25-4.75,1.25-6.74v-3.67h5.25v-1.92h.69v1.92h5.52v.64h-10.79Zm.15,8.43c.76-1.06,1.18-2.84,1.37-4.27l.6.14c-.2,1.47-.62,3.32-1.37,4.41l-.6-.28Zm6.92.79c.66,0,.74-.39.81-2.54.17.14.43.25.63.31-.1,2.25-.29,2.86-1.42,2.86h-2.33c-1.09,0-1.39-.25-1.39-1.2v-5.76h.66v5.77c0,.46.13.56.77.56h2.25Zm-.22-5.91c-.67-.63-2.03-1.54-3.18-2.16l.48-.42c1.12.56,2.49,1.46,3.19,2.09l-.49.49Zm1.99.6c.98,1.42,1.91,3.31,2.17,4.55l-.64.28c-.25-1.23-1.15-3.15-2.12-4.58l.59-.25Z"/>
      <path class="cls-1" d="m141.27,71.74c0,.56-.17.79-.57.91-.42.13-1.19.13-2.56.11-.01-.18-.14-.48-.24-.66,1.09.03,2.06.01,2.34,0,.27,0,.36-.08.36-.36v-3.31h-4.24v4.29h-.67v-4.29h-3.88c-.2,1.58-.66,3.24-1.75,4.48-.1-.15-.36-.39-.52-.48,1.56-1.75,1.71-4.23,1.71-6.21v-5.07h10.03v10.58Zm-5.59-3.95v-2.7h-3.77v1.15c0,.49-.01,1.02-.06,1.55h3.82Zm-3.77-5.98v2.63h3.77v-2.63h-3.77Zm8.68,0h-4.24v2.63h4.24v-2.63Zm0,5.98v-2.7h-4.24v2.7h4.24Z"/>
      <path class="cls-1" d="m146.79,66.82v6h-.62v-5.97c-.84.06-1.64.1-2.3.13l-.07-.63,1.01-.04c.32-.39.64-.87.98-1.37-.42-.64-1.15-1.47-1.84-2.09l.39-.41c.17.15.35.32.52.49.46-.8,1.04-1.96,1.36-2.79l.6.25c-.45.97-1.08,2.16-1.58,2.93.35.36.66.74.9,1.08.59-.94,1.15-1.92,1.55-2.7l.6.27c-.8,1.36-1.89,3.1-2.82,4.31l2.3-.11c-.2-.48-.43-.95-.67-1.37l.53-.2c.53.91,1.05,2.12,1.23,2.87l-.57.24c-.06-.27-.15-.6-.29-.95l-1.22.07Zm-1.4,1.26c-.21,1.32-.56,2.65-1.01,3.54-.11-.08-.41-.21-.56-.27.49-.87.78-2.13.97-3.38l.6.1Zm2.67,2.58c-.07-.7-.34-1.76-.67-2.56l.53-.15c.34.81.63,1.86.69,2.55l-.55.17Zm8.31,1.43c0,.32-.06.52-.28.63-.22.08-.59.1-1.13.1-.01-.15-.13-.41-.2-.59.42.01.74.01.87.01.11-.01.14-.04.14-.17v-2.1h-1.43v2.7h-.53v-2.7h-1.37v2.7h-.53v-2.7h-1.33v2.86h-.57v-5.34c-.13,1.7-.53,3.61-1.62,5.06-.11-.13-.36-.34-.5-.41,1.4-1.85,1.57-4.36,1.57-6.23v-3.17h6.64v3.05h-6.02v.13c0,.32,0,.66-.03,1.02h6.35v5.14Zm.06-11.05v.62h-7.55v-.62h7.55Zm-6.37,2.3v1.85h5.38v-1.85h-5.38Zm1.85,6.07v-1.88h-1.33v1.88h1.33Zm1.91,0v-1.88h-1.37v1.88h1.37Zm1.96,0v-1.88h-1.43v1.88h1.43Z"/>
      <path class="cls-1" d="m158.89,73.11l-.55-.34c1.72-1.77,2.66-3.91,2.66-6.29s-.94-4.52-2.66-6.29l.55-.34c1.78,1.83,2.8,4.03,2.8,6.62s-1.02,4.79-2.8,6.63Z"/>
      <path class="cls-1" d="m33.24,91.72c-.01.18-.01.56-.01,1.02,1.32-.06,2.68-.2,3.92-.39v.67c-1.23.14-2.59.27-3.92.34v2.27c1.29-.06,2.66-.18,4.01-.39v.7c-1.37.18-2.69.29-3.99.34.03.85.07,1.71.11,2.45,1.89.5,3.39,1.58,4.16,2.2l-.42.66c-.87-.77-2.14-1.7-3.71-2.19.03.45.04.83.04,1.06,0,.84-.49,1.86-2.31,1.86s-2.94-.63-2.94-1.91c0-1.19,1.18-1.98,3.12-1.98.48,0,.92.04,1.36.13-.01-.76-.04-1.58-.07-2.28-.27.01-.55.01-.83.01-1.04,0-2.55-.08-3.6-.2v-.7c1.04.15,2.56.25,3.6.25.27,0,.55,0,.81-.01v-2.27c-.24.01-.48.01-.7.01-1.01,0-2.79-.13-3.66-.24v-.69c.85.17,2.68.31,3.64.31.24,0,.48,0,.71-.01v-1.18c0-.22-.01-.63-.04-.77h.77c-.03.22-.04.46-.06.91Zm-2.18,9.97c.85,0,1.64-.27,1.64-1.33,0-.31-.01-.7-.01-1.15-.48-.1-.97-.15-1.47-.15-1.56,0-2.37.6-2.37,1.33s.59,1.3,2.21,1.3Z"/>
      <path class="cls-1" d="m41.33,94.33c1.25-.41,3.94-1.43,5.98-1.43,2.2,0,3.95,1.28,3.95,3.49,0,3.46-3.53,4.83-7.48,5.08l-.31-.76c3.59-.11,7.03-1.23,7.03-4.34,0-1.56-1.19-2.82-3.21-2.82-2.44,0-6.15,1.62-7.06,1.96l-.35-.81c.5-.1.9-.22,1.44-.38Z"/>
      <path class="cls-1" d="m64.23,101.92c.85,0,.99-.39,1.09-2.06.18.13.46.25.67.31-.15,1.82-.39,2.41-1.78,2.41h-3.88c-1.47,0-1.91-.31-1.91-1.6v-2.4l-4.75.63-.11-.63,4.86-.64v-2.55l-4.34.62-.11-.63,4.45-.64v-2.45c-1.47.28-3.01.5-4.45.7-.01-.17-.1-.42-.18-.57,3.47-.48,7.55-1.23,9.65-2.13l.6.52c-1.29.52-3.05.98-4.94,1.34v2.51l5.5-.77.11.62-5.62.8v2.56l6.51-.87.08.63-6.6.88v2.49c0,.73.21.92,1.22.92h3.91Z"/>
      <path class="cls-1" d="m69.88,92.75h7.73c.43,0,.83-.03,1.13-.06v.8c-.32-.03-.74-.04-1.13-.04h-3.59v6.88h4.36c.38,0,.71-.04,1.06-.07v.83c-.36-.04-.83-.04-1.06-.04h-9.27c-.36,0-.74.01-1.15.04v-.83c.39.06.78.07,1.15.07h4.17v-6.88h-3.4c-.21,0-.74.01-1.09.04v-.8c.36.04.85.06,1.09.06Z"/>
      <path class="cls-1" d="m87.1,91.86c-.14.28-.31.59-.5.9h4.38c.34,0,.56-.04.73-.11l.63.36c-.08.17-.2.45-.24.6-.38,1.5-1.27,3.42-2.51,4.92-1.23,1.51-2.91,2.79-5.53,3.73l-.63-.6c2.4-.69,4.26-1.97,5.56-3.53,1.16-1.4,2.06-3.29,2.38-4.71h-5.21c-.8,1.16-1.93,2.44-3.56,3.49l-.62-.46c2.4-1.4,3.87-3.59,4.43-4.86.1-.2.27-.62.32-.91l.84.29c-.17.28-.35.66-.48.9Z"/>
      <path class="cls-1" d="m103.66,92.97c-.49,1.29-1.44,3.04-2.45,4.27,1.53,1.3,3.22,3.11,4.19,4.27l-.6.53c-.95-1.22-2.58-2.98-4.05-4.29-1.54,1.65-3.43,3.22-5.6,4.19l-.56-.6c2.26-.9,4.27-2.55,5.79-4.23.97-1.11,2.1-2.93,2.47-4.19h-5.87c-.45,0-1.22.06-1.28.06v-.83c.08,0,.84.07,1.28.07h5.67c.36,0,.63-.03.81-.08l.46.36c-.07.1-.21.34-.25.46Z"/>
      <path class="cls-1" d="m108.6,95.2h9.17c.29,0,.66-.01.98-.04v.76c-.28-.01-.67-.03-.98-.03h-4.06c-.03,1.54-.21,2.9-.8,3.98-.52.91-1.57,1.88-2.72,2.47l-.67-.5c1.13-.49,2.16-1.3,2.7-2.23.64-1.05.74-2.31.77-3.71h-4.4c-.42,0-.76,0-1.13.03v-.76c.36.03.7.04,1.13.04Zm1.68-3.46h5.7c.35,0,.83-.03,1.19-.07v.78c-.38-.03-.84-.04-1.19-.04h-5.67c-.46,0-.84.01-1.15.04v-.78c.36.03.69.07,1.12.07Z"/>
      <path class="cls-1" d="m122.99,92.12h6.6c.46,0,.8-.01,1.09-.04v.74c-.31-.01-.6-.03-1.09-.03h-3.82v3.29h5c.29,0,.76-.01,1.05-.04v.76c-.29-.01-.73-.03-1.04-.03h-5.01v3.19c0,.67.49,1.19,1.88,1.19s2.48-.06,3.71-.2l-.03.74c-1.19.08-2.39.15-3.75.15-1.85,0-2.54-.67-2.54-1.65v-3.43h-2.98c-.34,0-.83.01-1.19.04v-.78c.36.04.85.06,1.19.06h2.98v-3.29h-2.04c-.46,0-.85.01-1.21.03v-.74c.35.03.74.04,1.21.04Z"/>
      <path class="cls-1" d="m135.34,95.31h9.16c.29,0,.66-.03.98-.06v.77c-.28-.03-.67-.04-.98-.04h-4.05c-.03,1.54-.22,2.9-.81,3.98-.52.91-1.57,1.88-2.72,2.46l-.67-.5c1.13-.49,2.16-1.3,2.7-2.23.64-1.05.74-2.3.77-3.71h-4.38c-.43,0-.77.01-1.15.04v-.77c.36.03.71.06,1.15.06Zm1.67-3.47h5.01c.35,0,.81-.01,1.19-.07v.78c-.38-.03-.84-.04-1.19-.04h-4.99c-.45,0-.83.01-1.15.04v-.78c.36.04.69.07,1.12.07Zm8.03.6l-.55.27c-.27-.58-.77-1.42-1.15-1.95l.53-.24c.35.5.85,1.33,1.16,1.92Zm1.5-.53l-.55.25c-.31-.62-.77-1.4-1.18-1.92l.52-.24c.38.52.92,1.37,1.2,1.91Z"/>
      <path class="cls-1" d="m149.73,98.04c.41-1.33.42-4.2.42-5.7,0-.32-.03-.59-.08-.85h.84c-.03.22-.06.53-.06.85,0,1.48-.06,4.52-.43,5.91-.42,1.46-1.33,2.82-2.49,3.74l-.67-.45c1.15-.83,2.03-2.06,2.48-3.5Zm3.98,2.83v-8.52c0-.48-.04-.78-.06-.94h.83c-.03.15-.04.46-.04.94v8.53c1.39-.64,3.32-2.02,4.45-3.74l.43.62c-1.25,1.71-3.15,3.1-4.79,3.91-.2.1-.34.2-.42.27l-.49-.41c.06-.2.08-.43.08-.66Z"/>
      <path class="cls-1" d="m167.7,91.04c0,2.39.28,7.79,6,11.21-.15.11-.43.38-.56.53-3.82-2.33-5.27-5.67-5.8-8.39-1.05,3.96-2.86,6.67-5.88,8.42-.11-.13-.42-.41-.6-.55,3.22-1.68,4.99-4.58,5.91-8.68l.45.08c-.11-.73-.15-1.39-.17-1.95h-3.6v-.67h4.26Z"/>
      <path class="cls-1" d="m185.24,93.88c-.71,1.07-1.75,1.99-2.94,2.77,1.64.85,3.63,1.44,5.7,1.74-.15.17-.34.42-.43.63-2.13-.35-4.17-1.02-5.88-2-1.04.62-2.19,1.13-3.33,1.54h7.05v4.23h-.67v-.48h-6.23v.49h-.67v-4.06c-.77.25-1.54.46-2.28.63-.06-.17-.22-.43-.35-.59,1.93-.39,4.08-1.12,5.9-2.13-.9-.57-1.67-1.23-2.27-1.99-.7.6-1.51,1.16-2.45,1.65-.11-.15-.32-.36-.49-.45,1.93-.94,3.32-2.25,4.03-3.36l.73.14c-.22.32-.48.66-.77.98h4.8l.13-.04.45.29Zm-8.82-.04h-.66v-2.35h5.48v-1.34h.67v1.34h5.52v2.35h-.69v-1.72h-10.32v1.72Zm2.07,5.34v2.54h6.23v-2.54h-6.23Zm.78-4.94c.6.8,1.43,1.48,2.41,2.07.99-.62,1.86-1.32,2.51-2.1h-4.87l-.04.03Z"/>
      <path class="cls-1" d="m194.75,89.86l.55.34c-1.72,1.76-2.66,3.91-2.66,6.29s.94,4.52,2.66,6.29l-.55.34c-1.78-1.83-2.8-4.03-2.8-6.63s1.02-4.79,2.8-6.62Z"/>
      <path class="cls-1" d="m196.93,99.27c0-1.33,1.02-2.28,1.95-2.77v-.06c-.73-.49-1.4-1.23-1.4-2.28,0-1.46,1.15-2.45,2.63-2.45,1.7,0,2.7,1.11,2.7,2.59,0,1.09-.83,2.03-1.4,2.49v.07c.85.53,1.74,1.19,1.74,2.54,0,1.44-1.23,2.59-3.05,2.59s-3.17-1.16-3.17-2.72Zm5.41.11c0-1.49-1.44-1.99-2.97-2.59-.95.57-1.67,1.37-1.67,2.44,0,1.19,1.01,2.1,2.4,2.1s2.24-.85,2.24-1.95Zm-.28-5.06c0-1.06-.71-1.96-1.96-1.96-1.06,0-1.83.74-1.83,1.79,0,1.36,1.27,1.92,2.55,2.41.81-.67,1.25-1.41,1.25-2.24Z"/>
      <path class="cls-1" d="m204.88,96.82c0-3.31,1.09-5.11,3.01-5.11s3,1.82,3,5.11-1.09,5.17-3,5.17-3.01-1.88-3.01-5.17Zm5.2,0c0-3-.87-4.41-2.19-4.41s-2.2,1.42-2.2,4.41.87,4.48,2.2,4.48,2.19-1.49,2.19-4.48Z"/>
      <path class="cls-1" d="m216.16,95.52c-1.21,0-2.28.78-2.89,1.96l-.69-.36c.87-1.53,2.12-2.37,3.57-2.37,1.23,0,2.09.53,3.07,1.46.84.78,1.51,1.25,2.56,1.25,1.21,0,2.28-.78,2.89-1.96l.69.36c-.87,1.53-2.12,2.37-3.57,2.37-1.23,0-2.09-.53-3.07-1.46-.84-.77-1.51-1.25-2.56-1.25Z"/>
      <path class="cls-1" d="m227.62,101.09h2.31v-8h-1.78v-.55c.83-.14,1.46-.36,1.95-.66h.66v9.2h2.13v.71h-5.27v-.71Z"/>
      <path class="cls-1" d="m234.91,96.82c0-3.31,1.09-5.11,3.01-5.11s3,1.82,3,5.11-1.09,5.17-3,5.17-3.01-1.88-3.01-5.17Zm5.2,0c0-3-.87-4.41-2.19-4.41s-2.2,1.42-2.2,4.41.87,4.48,2.2,4.48,2.19-1.49,2.19-4.48Z"/>
      <path class="cls-1" d="m242.75,96.82c0-3.31,1.09-5.11,3.01-5.11s3,1.82,3,5.11-1.09,5.17-3,5.17-3.01-1.88-3.01-5.17Zm5.2,0c0-3-.87-4.41-2.19-4.41s-2.2,1.42-2.2,4.41.87,4.48,2.2,4.48,2.19-1.49,2.19-4.48Z"/>
      <path class="cls-1" d="m257.64,93.89c1.19,2.58,3.36,4.96,5.69,6.07-.15.11-.38.38-.49.56-2.26-1.16-4.36-3.5-5.65-6.12v4.99h2.9v.67h-2.9v2.76h-.69v-2.76h-2.94v-.67h2.94v-5.02c-1.32,2.62-3.45,4.95-5.63,6.16-.11-.17-.32-.41-.48-.55,2.21-1.12,4.43-3.53,5.65-6.09h-5.21v-.67h5.67v-3.07h.69v3.07h5.71v.67h-5.27Z"/>
      <path class="cls-1" d="m265.4,103.11l-.55-.34c1.72-1.77,2.66-3.91,2.66-6.29s-.94-4.52-2.66-6.29l.55-.34c1.78,1.83,2.8,4.03,2.8,6.62s-1.02,4.79-2.8,6.63Z"/>
    </g>
    <g>
      <path class="cls-1" d="m7.12,10.16H0V3.05h7.12v7.12Z"/>
      <path class="cls-1" d="m7.12,39.16H0v-7.12h7.12v7.12Z"/>
      <path class="cls-1" d="m7.12,68.16H0v-7.12h7.12v7.12Z"/>
      <path class="cls-1" d="m7.12,97.16H0v-7.12h7.12v7.12Z"/>
    </g>
  </g>
</svg>