<?xml version="1.0" encoding="UTF-8"?>
<svg id="_レイヤー_2" data-name="レイヤー 2" xmlns="http://www.w3.org/2000/svg" viewBox="0 0 125.87 41.52">
  <defs>
    <style>
      .cls-1 {
        fill: #fff;
      }

      .cls-2 {
        fill: #686969;
      }

      .cls-3 {
        fill: #231815;
      }
    </style>
  </defs>
  <g id="_レイヤー_1-2" data-name="レイヤー 1">
    <g>
      <path class="cls-3" d="m15.73,5.38c.75.58,1.92,1.08,2.93,1.32-.13.12-.3.34-.38.49-1.04-.31-2.25-.91-3.07-1.6v1.73h-.59v-1.72c-.82.7-2.02,1.32-3.04,1.64-.09-.15-.26-.38-.39-.49,1.01-.26,2.18-.79,2.94-1.38h-2.75v-.49h3.24v-.5h-2.27v-2.36c-.23.25-.48.5-.75.72-.1-.14-.3-.31-.43-.39.89-.7,1.54-1.64,1.89-2.36l.62.12c-.14.27-.31.55-.51.84h1.55c.16-.3.33-.68.42-.96l.67.1c-.16.3-.33.6-.48.86h2.63v.47h-2.62v.54h2.3v.43h-2.3v.53h2.33v.42h-2.33v.55h2.93v.48h-3.07v.5h3.29v.49h-2.77Zm-.96-3.94h-1.87v.54h1.87v-.54Zm0,.96h-1.87v.53h1.87v-.53Zm-1.87,1.51h1.87v-.55h-1.87v.55Z"/>
      <path class="cls-3" d="m25.32,2.24c-.38.59-.94,1.11-1.58,1.54.9.42,1.98.7,3.11.84-.14.14-.3.39-.38.57-.37-.06-.73-.13-1.08-.22v2.34h-.6v-.26h-3.24v.26h-.57v-2.27c-.41.13-.82.23-1.22.32-.06-.15-.18-.39-.3-.52,1.08-.19,2.21-.55,3.17-1.05-.41-.27-.78-.59-1.08-.94-.36.29-.78.55-1.25.79-.09-.14-.27-.33-.4-.42,1.1-.49,1.88-1.19,2.28-1.81l.64.12c-.11.16-.23.32-.37.47h2.37l.1-.02.4.25Zm-4.95,0h-.57V.73h3.04V.02h.6v.71h3.07v1.5h-.59v-.95h-5.55v.95Zm4.69,2.66c-.68-.19-1.32-.44-1.89-.75-.53.3-1.1.55-1.69.75h3.57Zm-.27,1.66v-1.16h-3.24v1.16h3.24Zm-2.83-4.03c.31.37.73.69,1.22.97.48-.3.9-.63,1.22-1h-2.42l-.02.03Z"/>
      <path class="cls-3" d="m27.79,5.38l.52-.46c.58.47,1.3,1.2,1.8,1.78l-.55.46c-.51-.63-1.2-1.32-1.77-1.79Z"/>
      <path class="cls-3" d="m39.21,3.17c-.43.7-.95,1.46-1.44,1.95l-.48-.3c.3-.32.65-.79.94-1.25h-2.28v3.03c0,.37-.1.54-.38.63-.28.09-.75.1-1.44.1-.04-.17-.14-.41-.22-.58.55.02,1.09.02,1.25,0,.14,0,.19-.04.19-.16v-3.02h-3.31v-.57h4.16c-.68-.34-1.6-.76-2.31-1.07l.3-.44c.44.18.96.39,1.45.61.51-.29,1.09-.71,1.53-1.1h-4.37V.44h4.95l.14-.03.43.33c-.57.57-1.36,1.17-2.09,1.63.33.14.64.3.87.42l-.14.21h1.65l.12-.05.47.22Z"/>
      <path class="cls-3" d="m41.08,4.66c-.11.75-.3,1.52-.57,2.04-.1-.07-.34-.18-.47-.22.26-.49.43-1.2.52-1.91l.51.1Zm1.47-2.08c.33.51.68,1.2.79,1.63l-.47.22c-.03-.14-.08-.29-.15-.46l-.7.04v3.34h-.54v-3.31l-1.31.06-.05-.54c.16,0,.35,0,.53-.02.18-.21.36-.45.54-.71-.25-.36-.67-.81-1.05-1.15l.3-.39c.08.06.16.14.24.21.26-.45.54-1.05.71-1.49l.53.2c-.27.54-.61,1.18-.92,1.61.19.19.36.38.49.55.33-.51.63-1.03.86-1.46l.51.22c-.46.75-1.11,1.7-1.66,2.39.4-.02.84-.04,1.28-.06-.12-.25-.26-.5-.39-.71l.44-.19Zm.21,1.95c.23.49.47,1.12.54,1.54l-.47.16c-.07-.42-.3-1.06-.51-1.56l.45-.14Zm4.57-2.77c-.14,3.6-.26,4.84-.59,5.23-.18.23-.36.29-.67.32-.26.02-.75.02-1.24-.02-.02-.17-.08-.43-.19-.59.54.05,1.03.05,1.23.05.15,0,.26-.02.34-.12.27-.27.4-1.49.52-4.62h-2.63c-.22.42-.48.81-.75,1.12-.11-.1-.38-.27-.52-.35.62-.67,1.13-1.72,1.43-2.78l.6.14c-.14.45-.3.89-.49,1.31h2.95v.31Zm-2.32,3.53c-.18-.49-.63-1.28-1.08-1.87l.48-.23c.45.56.93,1.32,1.12,1.83l-.52.27Z"/>
      <path class="cls-3" d="m51.78,1.07v6.25h-.58v-1.45c-1.01.17-2.04.32-2.8.45l-.1-.6c.22-.02.49-.06.78-.1V1.07h-.63v-.55h3.89v.55h-.56Zm-.58,0h-1.57v1.07h1.57v-1.07Zm0,1.6h-1.57v1.12h1.57v-1.12Zm-1.57,2.87c.49-.06,1.03-.14,1.57-.22v-.99h-1.57v1.21Zm5.87-4.34c-.21,1.72-.66,3.05-1.3,4.07.44.64.99,1.16,1.65,1.49-.14.11-.33.34-.43.49-.63-.36-1.16-.85-1.6-1.45-.47.6-1.03,1.08-1.64,1.43-.09-.15-.26-.37-.39-.48.63-.33,1.2-.83,1.69-1.48-.55-.95-.93-2.11-1.2-3.43l.57-.1c.21,1.11.53,2.12.99,2.97.47-.82.81-1.82,1-3h-2.7v-.59h2.87l.11-.02.38.11Z"/>
      <path class="cls-3" d="m58.12,2.62c.33-.82,1.16-1.82,2.18-1.82s1.83,1.07,1.83,2.75c0,2.23-1.4,3.21-3.39,3.57l-.38-.58c1.74-.26,3.11-.97,3.11-2.99,0-1.27-.43-2.18-1.28-2.18-1,0-1.93,1.46-2.03,2.51-.04.31-.03.59.02.99l-.62.05c-.04-.3-.09-.75-.09-1.28,0-.76.15-1.94.25-2.59.03-.24.05-.47.06-.69l.71.02c-.17.59-.33,1.67-.38,2.23Z"/>
      <path class="cls-3" d="m63.56,5.38l.52-.46c.58.47,1.3,1.2,1.8,1.78l-.55.46c-.51-.63-1.2-1.32-1.77-1.79Z"/>
      <path class="cls-3" d="m70.61,4.28c-.14,1.63-.55,2.58-2.54,3.07-.05-.15-.21-.39-.34-.51,1.84-.39,2.16-1.17,2.27-2.56h.61Zm.43-2.92h-3.14v-.55h3.14V.02h.61v.79h3.2v.55h-3.2v.79h2.49v.53h-5.49v-.53h2.39v-.79Zm2.99,3.5v-.99h-5.34v.99h-.58v-1.53h6.53v1.53h-.6Zm-.04,1.79c.3,0,.35-.14.37-1.04.14.1.38.18.55.23-.07,1.08-.23,1.35-.86,1.35h-1.17c-.72,0-.91-.18-.91-.79v-2.13h.59v2.12c0,.22.06.26.37.26h1.06Z"/>
      <path class="cls-3" d="m83.17,6.36v.59h-7.15v-.59h2.99V.14h.63v2.46h2.99v.59h-2.99v3.18h3.53Z"/>
      <path class="cls-3" d="m90.49.51v6.78h-.62v-.55h-4.2v.55h-.59V.51h5.4Zm-4.82.58v1.3h4.2v-1.3h-4.2Zm0,1.87v1.32h4.2v-1.32h-4.2Zm4.2,3.2v-1.32h-4.2v1.32h4.2Z"/>
      <path class="cls-3" d="m94.76,4.7c-.11-.26-.39-.75-.63-1.14v3.77h-.55v-3.75c-.26.88-.61,1.72-.98,2.24-.06-.15-.21-.38-.31-.51.5-.67.99-1.92,1.22-3.01h-1.06v-.55h1.12V0h.55v1.73h.9v.55h-.9v.55c.22.3.82,1.19.96,1.41l-.33.44Zm1.67,1.07c-.32.48-.83.96-1.31,1.3-.08-.11-.24-.26-.37-.36.47-.3.96-.79,1.22-1.19l.46.25Zm1.2-.43v1.42c0,.27-.05.42-.25.5-.21.08-.53.09-1.04.09-.02-.15-.1-.35-.18-.49h.79c.1,0,.12-.03.12-.11v-1.41h-2.03v-.48h4.66v.48h-2.07Zm-1.12-4.47h-1.43v-.5h4.62v.5h-1.48v.55h1.27v1.91h-4.16v-1.91h1.18v-.55Zm-.97,3.4v-.46h3.75v.46h-3.75Zm.3-1.4h.72v-.99h-.72v.99Zm1.16-.99v.99h.75v-.99h-.75Zm.75-1.02h-.74v.55h.74v-.55Zm1.23,1.02h-.79v.99h.79v-.99Zm-.34,3.66c.4.36.9.87,1.13,1.21l-.44.32c-.23-.34-.71-.87-1.11-1.26l.42-.27Z"/>
      <path class="cls-3" d="m102.23,5.73c.38.59,1.08.87,2.02.9.88.04,2.73.02,3.69-.05-.07.14-.17.41-.19.59-.9.04-2.59.06-3.49.02-1.05-.04-1.77-.32-2.27-.95-.35.34-.72.68-1.12,1.03l-.31-.57c.34-.25.75-.59,1.11-.92v-2.05h-1.02v-.56h1.58v2.58Zm-.24-3.84c-.24-.4-.78-.96-1.27-1.34l.46-.34c.49.37,1.04.92,1.29,1.31l-.48.37Zm2.01.24h-1.39v-.46h2.27v-.6h-1.74v-.45h1.74V0h.59v.61h1.81v.45h-1.81v.6h2.36v.46h-1.42l.34.1c-.15.28-.3.56-.43.77h1.4v.46h-2.25v.54h1.93v.44h-1.93v.59h2.3v.46h-2.3v.75h-.59v-.75h-2.19v-.46h2.19v-.59h-1.79v-.44h1.79v-.54h-2.09v-.46h1.2c-.06-.22-.2-.54-.35-.78l.37-.09Zm1.81.8c.12-.23.26-.56.35-.8h-2c.18.25.32.56.38.79l-.28.07h1.77l-.22-.06Z"/>
      <path class="cls-3" d="m115.59,2.73c-.35,1.04-.82,1.95-1.41,2.71.3.79.67,1.24,1.08,1.24.22,0,.32-.42.38-1.49.14.14.35.27.51.32-.11,1.36-.33,1.76-.94,1.76s-1.1-.49-1.47-1.32c-.48.52-1.04.97-1.65,1.33-.09-.12-.3-.36-.43-.47.71-.39,1.33-.88,1.85-1.49-.29-.91-.48-2.09-.59-3.38h-2.77v1.04h2.05v.26c-.04,1.8-.09,2.47-.26,2.68-.12.15-.26.21-.48.23-.2.02-.56.02-.96,0,0-.18-.07-.41-.17-.56.37.03.71.04.85.04.11,0,.19-.02.24-.09.11-.12.15-.63.18-2.01h-1.46v.06c0,1.12-.12,2.74-.84,3.78-.1-.12-.36-.33-.5-.4.66-.98.73-2.35.73-3.39V1.37h3.35c-.03-.44-.04-.89-.05-1.35h.62c0,.47,0,.92.03,1.35h2.59v.59h-2.55c.08,1.07.22,2.02.44,2.79.43-.63.78-1.36,1.03-2.17l.6.15Zm-1.39-2.68c.5.25,1.12.63,1.44.92l-.37.41c-.3-.28-.92-.69-1.42-.96l.35-.36Z"/>
      <path class="cls-3" d="m41.2,17.54l.28.48c-.71.54-1.41,1.34-1.87,2.05-.46-.71-1.16-1.52-1.87-2.05l.28-.48c.5.36,1,.89,1.32,1.3v-6.19h.55v6.19c.31-.41.82-.94,1.32-1.3Z"/>
    </g>
    <path class="cls-3" d="m3,6.03H0v-3h3v3Z"/>
    <rect class="cls-2" x="8.67" y="25.39" width="117.2" height="16.13"/>
    <g>
      <path class="cls-1" d="m14.89,35.46l.9-.67c.26.48.6.68.98.68.58,0,.88-.31.88-1.21v-4.34h1.31v4.45c0,1.23-.62,2.24-2.03,2.24-.96,0-1.6-.39-2.03-1.15Z"/>
      <path class="cls-1" d="m20.65,31.52h1.06l.1.88h.03c.36-.65.9-1,1.41-1,.28,0,.43.04.58.11l-.22,1.13c-.18-.05-.32-.08-.52-.08-.39,0-.86.26-1.13.98v2.96h-1.3v-4.96Z"/>
      <path class="cls-1" d="m24.67,35.76c0-.49.35-.85.81-.85s.82.36.82.85-.35.85-.82.85-.81-.37-.81-.85Z"/>
      <path class="cls-1" d="m34.94,30.95c-.42.69-1.26,1.81-2.13,2.43l-.92-.74c.71-.43,1.4-1.21,1.63-1.65h-4.62c-.37,0-.67.03-1.08.06v-1.23c.34.05.71.09,1.08.09h4.78c.25,0,.74-.03.9-.08l.7.66c-.1.12-.27.33-.35.46Zm-5.73,6.04l-1.04-.84c.28-.1.6-.25.93-.49,1.13-.78,1.34-1.72,1.34-3.17,0-.28-.02-.51-.06-.8h1.29c0,2.2-.04,4.01-2.46,5.3Z"/>
      <path class="cls-1" d="m39.79,31.45c.91-.57,1.92-1.45,2.5-2.15l.96.91c-.67.67-1.53,1.36-2.38,1.92v3.58c0,.39.02.94.08,1.16h-1.4c.04-.21.06-.77.06-1.16v-2.84c-.91.48-2.04.96-3.13,1.28l-.56-1.12c1.59-.41,2.89-.98,3.87-1.59Z"/>
      <path class="cls-1" d="m45.02,32.12h5.81c.19,0,.58-.02.81-.05v1.15c-.22-.02-.56-.03-.81-.03h-2.14c-.05.91-.25,1.66-.57,2.28-.31.62-.99,1.3-1.78,1.7l-1.04-.75c.63-.24,1.25-.74,1.6-1.27.36-.55.51-1.21.55-1.96h-2.44c-.26,0-.6.02-.85.04v-1.16c.27.04.58.05.85.05Zm1.13-2.25h2.9c.3,0,.66-.03.96-.07v1.14c-.3-.02-.65-.03-.96-.03h-2.9c-.3,0-.68,0-.95.03v-1.14c.28.04.65.07.95.07Zm5.09.53l-.71.31c-.19-.36-.46-.9-.7-1.23l.71-.29c.22.33.53.89.7,1.21Zm1.06-.41l-.71.31c-.19-.37-.47-.89-.71-1.22l.7-.29c.23.34.56.9.72,1.21Z"/>
      <path class="cls-1" d="m56.25,37.19l-.95-.9c1.71-.6,2.46-1.37,2.46-3.55v-.34h-2.1v1.21c0,.4.03.75.04.93h-1.24c.03-.18.05-.53.05-.93v-1.21h-.75c-.44,0-.76.03-.96.04v-1.21c.16.03.51.08.96.08h.75v-.88c0-.26-.03-.52-.05-.8h1.26c-.02.17-.05.45-.05.81v.87h2.1v-.93c0-.35-.03-.65-.05-.82h1.27c-.03.19-.06.47-.06.82v.93h.66c.47,0,.74-.02.97-.06v1.18c-.19-.02-.5-.03-.97-.03h-.67v.29c0,2.2-.52,3.54-2.67,4.49Zm3.9-6.38l-.61.2c-.12-.37-.28-.86-.45-1.21l.59-.2c.17.35.37.87.47,1.21Zm.93-.29l-.61.2c-.12-.38-.29-.86-.48-1.21l.6-.19c.17.35.37.87.49,1.21Z"/>
      <path class="cls-1" d="m65.58,31.45c.91-.57,1.92-1.45,2.5-2.15l.96.91c-.67.67-1.53,1.36-2.38,1.92v3.58c0,.39.02.94.08,1.16h-1.4c.04-.21.06-.77.06-1.16v-2.84c-.91.48-2.04.96-3.13,1.28l-.56-1.12c1.59-.41,2.89-.98,3.87-1.59Z"/>
      <path class="cls-1" d="m73.32,29.47h1.41c-.05.28-.07.76-.07,1.05v.97h1.99c.41,0,.78-.04.97-.05v1.21c-.19,0-.62-.04-.98-.04h-1.99c-.05,1.78-.61,3.24-2.53,4.38l-1.1-.82c1.74-.79,2.33-2.07,2.4-3.56h-2.26c-.39,0-.75.03-1.02.04v-1.22c.27.03.63.06.98.06h2.3v-.98c0-.3-.04-.76-.12-1.04Z"/>
      <path class="cls-1" d="m80.15,32.44h4.76c.42,0,.81-.04,1.04-.05v1.39c-.21,0-.67-.04-1.04-.04h-4.76c-.51,0-1.1.02-1.43.04v-1.39c.32.03.97.05,1.43.05Z"/>
      <path class="cls-1" d="m88.07,32.12h5.81c.19,0,.58-.02.81-.05v1.15c-.22-.02-.56-.03-.81-.03h-2.14c-.05.91-.25,1.66-.57,2.28-.31.62-.99,1.3-1.78,1.7l-1.04-.75c.63-.24,1.25-.74,1.6-1.27.36-.55.51-1.21.55-1.96h-2.44c-.26,0-.6.02-.85.04v-1.16c.27.04.58.05.85.05Zm1.13-2.25h2.9c.3,0,.66-.03.96-.07v1.14c-.3-.02-.65-.03-.96-.03h-2.9c-.3,0-.68,0-.95.03v-1.14c.28.04.65.07.95.07Zm5.09.53l-.71.31c-.19-.36-.46-.9-.7-1.23l.71-.29c.22.33.53.89.7,1.21Zm1.06-.41l-.71.31c-.19-.37-.47-.89-.71-1.22l.7-.29c.23.34.56.9.72,1.21Z"/>
      <path class="cls-1" d="m97.88,30.61v1.68c1.05-.26,2.28-.65,3.07-.98.32-.12.62-.27.97-.48l.48,1.13c-.35.14-.74.31-1.04.42-.9.35-2.32.8-3.47,1.08v1.64c0,.38.18.48.58.56.27.04.63.05,1.03.05.92,0,2.36-.12,3.08-.31v1.29c-.83.12-2.18.19-3.16.19-.58,0-1.11-.04-1.49-.1-.77-.14-1.21-.57-1.21-1.33v-4.83c0-.2-.03-.66-.07-.92h1.31c-.04.27-.07.67-.07.92Zm4.6-.09l-.72.3c-.18-.36-.45-.89-.69-1.23l.7-.28c.22.33.54.89.71,1.21Zm1.05-.41l-.7.3c-.19-.37-.47-.89-.72-1.22l.7-.28c.24.33.57.9.72,1.21Z"/>
      <path class="cls-1" d="m109.76,32.63c-.07.52-.3,2.05-.43,2.89h.57c.23,0,.64,0,.87-.04v1.14c-.18,0-.61-.03-.85-.03h-4.66c-.32,0-.54,0-.88.03v-1.15c.24.03.57.04.88.04h2.87c.12-.75.32-2.01.35-2.51h-2.39c-.28,0-.63.03-.89.04v-1.17c.23.03.64.05.88.05h2.27c.19,0,.55-.04.66-.1l.86.42c-.04.12-.07.28-.09.37Z"/>
      <path class="cls-1" d="m113.65,32.44h4.76c.42,0,.81-.04,1.04-.05v1.39c-.21,0-.67-.04-1.04-.04h-4.76c-.5,0-1.1.02-1.43.04v-1.39c.32.03.97.05,1.43.05Z"/>
    </g>
  </g>
</svg>