<?xml version="1.0" encoding="UTF-8"?>
<svg id="_レイヤー_2" data-name="レイヤー 2" xmlns="http://www.w3.org/2000/svg" viewBox="0 0 356.36 223.84">
  <defs>
    <style>
      .cls-1 {
        fill: #fff;
      }

      .cls-2 {
        fill: #231815;
      }

      .cls-3 {
        fill: #686868;
      }
    </style>
  </defs>
  <g id="_レイヤー_1-2" data-name="レイヤー 1">
    <g>
      <path class="cls-2" d="m37.31,12.8c1.67,1.42,4.29,2.58,6.78,3.12-.3.27-.68.76-.84,1.1-2.68-.7-5.47-2.17-7.24-3.97v4.26h-1.37v-4.26c-1.8,1.79-4.62,3.31-7.16,4.07-.15-.34-.55-.83-.86-1.08,2.32-.61,4.9-1.82,6.61-3.23h-6.19v-1.22h7.6v-1.1h-2.7v-6.04h2.32c.19-.49.4-1.06.51-1.48l1.35.25c-.19.44-.36.85-.55,1.23h3.3v6.04h-2.87v1.1h7.71v1.22h-6.42Zm-5.72-3.89c-1.39.68-2.87,1.39-4.08,1.92l-.59-1.16c1.12-.44,2.75-1.16,4.37-1.86l.3,1.1Zm-.19-6.4h-4.35v-1.22h4.35V0h1.41v1.29h5.07V0h1.41v1.29h4.48v1.22h-4.48v1.46h-1.41v-1.46h-5.07v1.46h-1.41v-1.46Zm-2.85,1.37c1.01.68,2.15,1.73,2.64,2.51l-1.04.8c-.49-.76-1.62-1.86-2.6-2.58l1.01-.72Zm4.67,3.1h4.35v-1.52h-4.35v1.52Zm0,2.51h4.35v-1.56h-4.35v1.56Zm9.71,1.39c-.85-.74-2.58-1.79-3.97-2.47l.8-.87c1.37.61,3.12,1.61,3.99,2.34l-.82,1.01Zm.38-6.5c-.87.93-2.03,1.94-2.94,2.57l-1.04-.57c.89-.67,2.11-1.8,2.79-2.62l1.2.63Z"/>
      <path class="cls-2" d="m55.32,3c-.61,1.04-1.46,1.9-2.45,2.64,1.27.59,2.64.97,4.08,1.31-.3.29-.65.8-.78,1.22-1.61-.42-3.13-.91-4.56-1.73-1.5.85-3.23,1.46-5.04,1.94-.13-.3-.51-.87-.76-1.18,1.67-.34,3.27-.84,4.64-1.52-.93-.68-1.8-1.56-2.58-2.68h-1.54v-1.24h4.43V.11h1.39v1.65h4.62v1.24h-1.44Zm-1.22,5.09h1.35v9.18h-1.35v-3.95h-4.94c-.23,1.46-.78,2.96-2.01,4.14-.25-.25-.76-.59-1.1-.76,1.71-1.61,1.9-3.89,1.9-5.6v-3.02h1.37v1.27h4.79v-1.25Zm0,4.03v-1.61h-4.79v.61c0,.32,0,.67-.02,1.01h4.81Zm-4.73-9.12c.7.82,1.46,1.46,2.3,1.99.84-.57,1.56-1.23,2.11-1.99h-4.41Zm9.44,9.27h-1.35V1.82h1.35v10.45ZM62.75.36v15.14c0,.91-.23,1.33-.82,1.58-.57.23-1.54.27-3.13.25-.06-.38-.29-1.01-.49-1.41,1.22.06,2.3.04,2.6.02.34,0,.47-.11.47-.44V.36h1.37Z"/>
      <path class="cls-2" d="m69.4,13.53c.89,1.42,2.58,2.07,4.81,2.17,2.15.1,6.57.04,8.89-.11-.17.3-.4.93-.46,1.33-2.15.1-6.25.13-8.4.06-2.51-.09-4.24-.78-5.41-2.28-.8.84-1.65,1.63-2.57,2.47l-.74-1.31c.8-.59,1.73-1.39,2.56-2.18v-4.9h-2.34v-1.33h3.65v6.1Zm-.74-9.14c-.49-.95-1.71-2.3-2.81-3.23l1.08-.72c1.12.89,2.38,2.2,2.91,3.15l-1.18.8Zm14.17,7.56h-12.63v-1.1h3.42v-1.8h-2.81v-1.08h2.81v-1.37h1.31v1.37h3.12v-1.37h1.35v1.37h2.85v1.08h-2.85v1.8h3.44v1.1Zm-8.21-10.24h-4.07v-.99h5.26v3.21h-3.74v.99c0,.34.09.42.7.42h2.05c.46,0,.55-.11.61-.95.25.19.7.34,1.04.4-.13,1.24-.49,1.56-1.46,1.56h-2.36c-1.41,0-1.77-.29-1.77-1.42v-1.98h3.72v-1.23Zm.87,10.89c-.97.91-2.49,1.84-3.74,2.45-.23-.25-.74-.7-1.04-.89,1.29-.51,2.7-1.24,3.53-2l1.25.44Zm-.57-1.75h3.12v-1.8h-3.12v1.8Zm5.81-9.14h-4.01v-.99h5.26v3.21h-3.71v.97c0,.36.11.44.74.44h2.26c.46,0,.55-.11.61-1.01.25.17.7.32,1.04.4-.13,1.27-.49,1.62-1.5,1.62h-2.54c-1.41,0-1.8-.29-1.8-1.42v-1.98h3.65v-1.23Zm.44,13.37c-.8-.7-2.17-1.6-3.48-2.26l1.01-.63c1.39.67,2.94,1.58,3.84,2.28l-1.37.61Z"/>
      <path class="cls-2" d="m94.5,15.45c.93.17,1.98.23,3.08.23.68,0,3.95,0,4.86-.02-.23.34-.48,1.01-.53,1.42h-4.41c-3.93,0-6.76-.68-8.49-3.89-.66,1.75-1.6,3.15-2.83,4.24-.23-.25-.82-.74-1.16-.95,2.11-1.63,3.13-4.33,3.55-7.73l1.44.13c-.11.89-.27,1.73-.46,2.53.72,2,1.94,3.08,3.5,3.67v-7.96h-4.71v-1.33h11v1.33h-4.84v3.15h5.62v1.31h-5.62v3.88Zm-7.2-9.18h-1.39V2.17h7.12V0h1.46v2.17h7.18v4.1h-1.44v-2.77h-12.94v2.77Z"/>
      <path class="cls-2" d="m104.57,3.17h6.33v1.16h-6.33v-1.16Zm5.91,13.28h-3.93v.85h-1.2v-6.34h5.13v5.49Zm-.08-9.54h-5.01v-1.12h5.01v1.12Zm-5.01,1.46h5.01v1.12h-5.01v-1.12Zm4.94-6.59h-4.84V.65h4.84v1.14Zm-3.78,10.33v3.17h2.72v-3.17h-2.72Zm15.46,2.22h-1.04v1.58c0,.67-.15,1.01-.67,1.2-.49.19-1.33.21-2.6.21-.06-.34-.21-.82-.36-1.14.91.02,1.77.02,1.99,0,.27,0,.32-.06.32-.29v-1.56h-6.27v2.98h-1.23v-2.98h-1.14v-1.14h1.14v-4.81h3.72v-1.08h-4.84v-1.12h2.75v-1.27h-1.86v-1.04h1.86v-1.2h-2.24v-1.08h2.24V0h1.29v1.6h3V0h1.27v1.6h2.36v1.08h-2.36v1.2h1.98v1.04h-1.98v1.27h2.64v1.12h-4.92v1.08h3.89v4.81h1.04v1.14Zm-8.62-4.88v1.39h2.49v-1.39h-2.49Zm0,3.74h2.49v-1.37h-2.49v1.37Zm1.69-9.33h3v-1.2h-3v1.2Zm0,2.32h3v-1.27h-3v1.27Zm1.99,3.27v1.39h2.58v-1.39h-2.58Zm2.58,3.74v-1.37h-2.58v1.37h2.58Z"/>
      <path class="cls-2" d="m129.54,6.1c-1.67.72-3.38,1.42-4.75,1.96l-.55-1.16c1.29-.4,3.21-1.1,5.09-1.84l.21,1.04Zm1.04-3.99h-5.89V.95h7.2v6.25c0,.63-.15.95-.61,1.14-.49.19-1.25.17-2.45.17-.06-.32-.23-.74-.36-1.04.84.02,1.6.02,1.82,0,.23,0,.29-.08.29-.29V2.11Zm-4.35.17c.89.47,1.98,1.22,2.49,1.79l-.76.91c-.49-.59-1.56-1.37-2.47-1.86l.74-.83Zm7.24,5.76c-.27.51-.55,1.04-.82,1.5h6.19v7.85h-1.42v-.74h-9.21v.74h-1.39v-7.85h4.45c.29-.59.57-1.27.74-1.79l1.46.29Zm3.95,2.6h-9.21v1.84h9.21v-1.84Zm0,4.88v-1.92h-9.21v1.92h9.21Zm-4.77-8.99c1.37-.44,3.36-1.14,5.34-1.84l.21,1.04c-1.75.67-3.59,1.35-5.03,1.88l-.51-1.08Zm7.69.67c0,.67-.15.99-.65,1.2-.51.19-1.31.19-2.56.19-.06-.34-.23-.8-.4-1.12.89.04,1.71.04,1.98.04.23-.02.3-.08.3-.3V2.11h-5.93V.95h7.26v6.25Zm-4.24-2.26c-.49-.59-1.6-1.35-2.51-1.8l.74-.85c.89.44,1.99,1.16,2.54,1.73l-.78.93Z"/>
      <path class="cls-2" d="m34.95,32.49c-.02.68-.06,1.33-.09,1.96h4.52c.51,0,.89-.04,1.22-.09l1.06.53c-.06.32-.09.68-.09.93-.08,1.82-.3,7.35-1.16,9.18-.38.8-.99,1.16-2.03,1.16-.97,0-2.07-.08-3.06-.13l-.19-1.58c1.03.13,2.03.21,2.83.21.55,0,.89-.15,1.1-.63.72-1.44.97-6.12.97-8.15h-5.32c-.68,5.45-2.66,8.34-5.83,10.52l-1.39-1.12c.61-.32,1.39-.85,1.96-1.41,1.88-1.71,3.25-4.08,3.76-8h-3.19c-.74,0-1.52,0-2.18.08v-1.61c.66.08,1.44.11,2.17.11h3.34c.04-.61.08-1.25.08-1.94,0-.42-.06-1.12-.13-1.58h1.79c-.06.44-.09,1.1-.11,1.56Z"/>
      <path class="cls-2" d="m58.99,37.29c-.51,1.88-1.37,3.86-2.77,5.4-2,2.18-4.37,3.31-6.8,3.97l-1.18-1.35c2.7-.55,5.07-1.77,6.69-3.48,1.16-1.22,1.92-2.83,2.26-4.2h-10.09c-.46,0-1.18.02-1.86.06v-1.6c.7.08,1.35.11,1.86.11h10.01c.44,0,.84-.04,1.04-.15l1.08.68c-.09.17-.21.42-.25.55Zm-10.33-5.47h7.47c.61,0,1.27-.02,1.73-.1v1.58c-.46-.04-1.1-.06-1.75-.06h-7.45c-.59,0-1.2.02-1.71.06v-1.58c.49.08,1.1.1,1.71.1Z"/>
      <path class="cls-2" d="m65.3,37.75h10.41c.95,0,1.63-.06,2.05-.09v1.86c-.38-.02-1.18-.09-2.03-.09h-10.43c-1.04,0-2.05.04-2.64.09v-1.86c.57.04,1.58.09,2.64.09Z"/>
      <path class="cls-2" d="m94.08,40.26c1.06,1.25,2.68,2.36,4.27,2.93-.32.27-.72.76-.93,1.08-1.84-.76-3.69-2.34-4.83-4.01h-5.95c-1.2,1.77-3.12,3.4-4.96,4.25-.21-.34-.59-.82-.91-1.08,1.58-.63,3.21-1.82,4.29-3.17h-4.1v-1.2h3.76v-6.06h-2.89v-1.18h2.89v-1.82h1.39v1.82h6.9v-1.82h1.42v1.82h2.85v1.18h-2.85v6.06h3.67v1.2h-4.03Zm-3.88,5.36h6.55v1.2h-14.32v-1.2h6.36v-2h-3.88v-1.16h3.88v-1.6h1.41v1.6h3.97v1.16h-3.97v2Zm-4.08-12.61v1.27h6.9v-1.27h-6.9Zm0,3.65h6.9v-1.31h-6.9v1.31Zm0,2.41h6.9v-1.35h-6.9v1.35Z"/>
      <path class="cls-2" d="m102.96,44.82v1.58h-1.18v-5.87c-.25.51-.51,1.01-.8,1.44-.17-.3-.59-.93-.84-1.22,1.29-2.01,2.01-5.09,2.45-8.34h-2.15v-1.27h6.52v.99h2.01v-2.13h1.2v2.13h1.69v1.1h-1.69v.46c.38.3,1.54,1.27,1.8,1.54l-.7.84c-.21-.29-.66-.8-1.1-1.25v3.08h-1.2v-3.06c-.55.99-1.24,1.94-1.9,2.58-.15-.29-.44-.72-.68-.95.84-.7,1.73-1.99,2.28-3.23h-1.75v-.82h-3c-.23,1.52-.49,3-.85,4.39h3.32v8.02h-3.44Zm2.22-6.78h-2.22v5.55h2.22v-5.55Zm7.62,7.67c.44.08.89.09,1.39.09.42,0,3.06,0,3.67-.02-.17.3-.34.87-.4,1.22h-3.34c-2.47,0-4.1-.53-5.15-2.79-.46,1.25-1.18,2.34-2.34,3.12-.19-.27-.59-.72-.87-.93,1.94-1.22,2.47-3.51,2.66-5.81h1.25c-.06.65-.13,1.29-.25,1.92.46,1.52,1.14,2.38,2.07,2.83v-5.68h-4.58v-1.18h9.52l.23-.08.89.32c-.32.93-.72,1.98-1.1,2.68l-1.08-.4c.19-.38.36-.86.53-1.35h-3.1v2.24h3.69v1.18h-3.69v2.64Zm1.33-11.08c-.57,1.1-1.33,2.11-2.11,2.75-.13-.28-.44-.7-.67-.93.93-.67,1.86-1.94,2.41-3.23h-1.54v-1.1h1.9v-2.13h1.2v2.13h2.3v1.1h-1.96c.51,1.27,1.35,2.6,2.22,3.27-.25.19-.59.55-.78.84-.68-.59-1.31-1.58-1.79-2.64v3.19h-1.2v-3.25Z"/>
      <path class="cls-2" d="m125.22,36.97c0,.19,0,.42-.02.65h3.57v1.35h-3.65c-.04.42-.11.85-.19,1.27.89.89,3.19,3.46,3.78,4.12l-.95,1.2c-.65-.93-2.13-2.72-3.15-3.88-.61,2.01-1.77,4.07-3.93,5.6-.19-.3-.68-.84-.99-1.04,2.89-2.05,3.78-4.79,4.03-7.28h-3.82v-1.35h3.91v-3.78h-1.44c-.46,1.14-.95,2.17-1.54,2.98-.25-.25-.84-.63-1.16-.82,1.12-1.46,1.9-3.72,2.36-6.02l1.37.27c-.15.8-.36,1.56-.59,2.28h5.41v1.31h-3v3.13Zm10.94-5.34v14.97h-1.41v-1.31h-4.01v1.5h-1.37v-15.16h6.78Zm-1.41,12.33v-11h-4.01v11h4.01Z"/>
      <path class="cls-2" d="m145.08,34.29h-5.81v-1.16h5.81v1.16Zm-.44,11.93h-3.53v.89h-1.12v-6.36h4.65v5.47Zm-.02-9.4h-4.58v-1.12h4.58v1.12Zm-4.58,1.39h4.58v1.14h-4.58v-1.14Zm4.54-6.42h-4.46v-1.14h4.46v1.14Zm-3.48,10.12v3.17h2.38v-3.17h-2.38Zm14.84-2.92c-.49,1.63-1.22,3.1-2.09,4.37.34,1.56.82,2.45,1.46,2.51.32.02.55-.97.67-2.53.21.27.7.61.91.74-.34,2.6-.97,3.34-1.62,3.32-1.12-.06-1.86-1.06-2.36-2.83-.93,1.08-1.98,1.98-3.1,2.68-.17-.23-.53-.59-.8-.8.67-.4,1.29-.86,1.88-1.41h-3.97v1.03h-1.12v-7.31h5.21v6.17c.57-.53,1.1-1.12,1.6-1.79-.27-1.52-.42-3.38-.51-5.57h-7.29v-1.18h7.24c-.06-1.94-.08-4.07-.09-6.38h1.23c-.02,2.34,0,4.48.06,6.38h3.21v1.18h-3.17c.06,1.52.15,2.89.3,4.03.51-.97.95-2.03,1.27-3.19l1.08.57Zm-4.45-5.81h-6.17v-1.12h2.47v-2.05h1.31v2.05h2.39v1.12Zm-4.88,3.15c-.02-.74-.21-1.86-.53-2.75l1.03-.23c.34.85.55,2,.59,2.74l-1.08.25Zm.32,3.48v1.56h2.89v-1.56h-2.89Zm2.89,4.2v-1.61h-2.89v1.61h2.89Zm-.85-7.88c.25-.78.53-2.01.65-2.87l1.22.25c-.3.99-.59,2.13-.85,2.85l-1.01-.23Zm6.5-1.41c-.3-.97-1.06-2.39-1.88-3.4l1.06-.44c.84,1.01,1.65,2.38,1.98,3.32l-1.16.51Z"/>
      <path class="cls-2" d="m158.74,33.17h6.33v1.16h-6.33v-1.16Zm5.91,13.28h-3.93v.85h-1.2v-6.34h5.13v5.49Zm-.08-9.54h-5.01v-1.12h5.01v1.12Zm-5.01,1.46h5.01v1.12h-5.01v-1.12Zm4.94-6.59h-4.84v-1.14h4.84v1.14Zm-3.78,10.33v3.17h2.72v-3.17h-2.72Zm15.46,2.22h-1.04v1.58c0,.67-.15,1.01-.67,1.2-.49.19-1.33.21-2.6.21-.06-.34-.21-.82-.36-1.14.91.02,1.77.02,1.99,0,.27,0,.32-.06.32-.29v-1.56h-6.27v2.98h-1.23v-2.98h-1.14v-1.14h1.14v-4.81h3.72v-1.08h-4.84v-1.12h2.75v-1.27h-1.86v-1.04h1.86v-1.2h-2.24v-1.08h2.24v-1.6h1.29v1.6h3v-1.6h1.27v1.6h2.36v1.08h-2.36v1.2h1.98v1.04h-1.98v1.27h2.64v1.12h-4.92v1.08h3.89v4.81h1.04v1.14Zm-8.62-4.88v1.39h2.49v-1.39h-2.49Zm0,3.74h2.49v-1.37h-2.49v1.37Zm1.69-9.33h3v-1.2h-3v1.2Zm0,2.32h3v-1.27h-3v1.27Zm1.99,3.27v1.39h2.58v-1.39h-2.58Zm2.58,3.74v-1.37h-2.58v1.37h2.58Z"/>
      <path class="cls-2" d="m183.7,36.1c-1.67.72-3.38,1.42-4.75,1.96l-.55-1.16c1.29-.4,3.21-1.1,5.09-1.84l.21,1.04Zm1.04-3.99h-5.89v-1.16h7.2v6.25c0,.63-.15.95-.61,1.14-.49.19-1.25.17-2.45.17-.06-.32-.23-.74-.36-1.04.84.02,1.6.02,1.82,0,.23,0,.29-.08.29-.29v-5.07Zm-4.35.17c.89.47,1.98,1.22,2.49,1.79l-.76.91c-.49-.59-1.56-1.37-2.47-1.86l.74-.83Zm7.24,5.76c-.27.51-.55,1.04-.82,1.5h6.19v7.85h-1.42v-.74h-9.21v.74h-1.39v-7.85h4.45c.29-.59.57-1.27.74-1.79l1.46.29Zm3.95,2.6h-9.21v1.84h9.21v-1.84Zm0,4.88v-1.92h-9.21v1.92h9.21Zm-4.77-8.99c1.37-.44,3.36-1.14,5.34-1.84l.21,1.04c-1.75.67-3.59,1.35-5.03,1.88l-.51-1.08Zm7.69.67c0,.67-.15.99-.65,1.2-.51.19-1.31.19-2.56.19-.06-.34-.23-.8-.4-1.12.89.04,1.71.04,1.98.04.23-.02.3-.08.3-.3v-5.09h-5.93v-1.16h7.26v6.25Zm-4.24-2.26c-.49-.59-1.6-1.35-2.51-1.8l.74-.85c.89.44,1.99,1.16,2.54,1.73l-.78.93Z"/>
      <path class="cls-2" d="m34.95,62.49c-.02.68-.06,1.33-.09,1.96h4.52c.51,0,.89-.04,1.22-.09l1.06.53c-.06.32-.09.68-.09.93-.08,1.82-.3,7.35-1.16,9.18-.38.8-.99,1.16-2.03,1.16-.97,0-2.07-.08-3.06-.13l-.19-1.58c1.03.13,2.03.21,2.83.21.55,0,.89-.15,1.1-.63.72-1.44.97-6.12.97-8.15h-5.32c-.68,5.45-2.66,8.34-5.83,10.52l-1.39-1.12c.61-.32,1.39-.85,1.96-1.41,1.88-1.71,3.25-4.08,3.76-8h-3.19c-.74,0-1.52,0-2.18.08v-1.61c.66.08,1.44.11,2.17.11h3.34c.04-.61.08-1.25.08-1.94,0-.42-.06-1.12-.13-1.58h1.79c-.06.44-.09,1.1-.11,1.56Z"/>
      <path class="cls-2" d="m58.99,67.29c-.51,1.88-1.37,3.86-2.77,5.4-2,2.18-4.37,3.31-6.8,3.97l-1.18-1.35c2.7-.55,5.07-1.77,6.69-3.48,1.16-1.22,1.92-2.83,2.26-4.2h-10.09c-.46,0-1.18.02-1.86.06v-1.6c.7.08,1.35.11,1.86.11h10.01c.44,0,.84-.04,1.04-.15l1.08.68c-.09.17-.21.42-.25.55Zm-10.33-5.47h7.47c.61,0,1.27-.02,1.73-.1v1.58c-.46-.04-1.1-.06-1.75-.06h-7.45c-.59,0-1.2.02-1.71.06v-1.58c.49.08,1.1.1,1.71.1Z"/>
      <path class="cls-2" d="m65.3,67.75h10.41c.95,0,1.63-.06,2.05-.09v1.86c-.38-.02-1.18-.09-2.03-.09h-10.43c-1.04,0-2.05.04-2.64.09v-1.86c.57.04,1.58.09,2.64.09Z"/>
      <path class="cls-2" d="m84.49,62.47h9.04c.61,0,1.14-.04,1.56-.08v1.52c-.46-.02-.89-.06-1.56-.06h-4.94v4.03h6.4c.4,0,1.16-.04,1.58-.08v1.56c-.44-.06-1.12-.06-1.54-.06h-6.44v3.82c0,.95.67,1.52,2.41,1.52s3.36-.08,5-.27l-.09,1.6c-1.48.11-3.31.19-5.11.19-2.87,0-3.78-1.01-3.78-2.56v-4.29h-3.7c-.48,0-1.25.04-1.79.08v-1.6c.51.04,1.29.09,1.79.09h3.7v-4.03h-2.53c-.65,0-1.2.02-1.71.06v-1.52c.51.04,1.06.08,1.71.08Z"/>
      <path class="cls-2" d="m101.23,66.86h12.44c.4,0,1.03-.02,1.48-.09v1.58c-.42-.02-1.03-.04-1.48-.04h-5.17c-.06,2.05-.36,3.78-1.12,5.21-.68,1.25-2.13,2.62-3.74,3.46l-1.41-1.04c1.48-.61,2.85-1.71,3.59-2.91.84-1.31,1.04-2.91,1.1-4.71h-5.7c-.57,0-1.12,0-1.63.04v-1.58c.51.06,1.04.09,1.63.09Zm2.34-4.75h6.57c.55,0,1.22-.04,1.77-.11v1.58c-.55-.04-1.22-.06-1.77-.06h-6.55c-.63,0-1.25.02-1.75.06v-1.58c.55.06,1.12.11,1.73.11Zm10.89.95l-1.03.46c-.38-.78-1.03-1.92-1.54-2.64l1.01-.42c.47.67,1.18,1.82,1.56,2.6Zm2.13-.78l-1.03.46c-.42-.83-1.03-1.9-1.58-2.62l1.01-.42c.49.68,1.23,1.88,1.6,2.58Z"/>
      <path class="cls-2" d="m120.47,70.71c.55-1.73.57-5.53.57-7.64,0-.57-.06-.99-.13-1.39h1.75c-.02.23-.09.8-.09,1.37,0,2.11-.08,6.17-.59,8.07-.57,2.03-1.79,3.89-3.38,5.22l-1.42-.97c1.6-1.14,2.74-2.83,3.31-4.67Zm5.53,3.7v-11.38c0-.72-.1-1.27-.11-1.41h1.75c-.02.13-.08.68-.08,1.41v10.96c1.75-.8,4.08-2.53,5.55-4.67l.89,1.29c-1.63,2.22-4.27,4.18-6.48,5.26-.3.17-.51.32-.65.44l-1.01-.84c.08-.3.13-.68.13-1.06Z"/>
      <path class="cls-2" d="m33.36,89.62l1.14.59c-2.18,2.26-3.53,5.07-3.53,8.45s1.35,6.19,3.53,8.45l-1.14.59c-2.28-2.32-3.78-5.34-3.78-9.04s1.5-6.73,3.78-9.04Z"/>
      <path class="cls-2" d="m50.49,94.2c-.4,2-1.33,5.05-2.83,7.01-1.73,2.22-3.99,3.99-7.49,5.09l-1.29-1.42c3.69-.93,5.81-2.55,7.41-4.58,1.35-1.73,2.22-4.37,2.49-6.19h-9.71c-.76,0-1.41.04-1.9.06v-1.67c.53.06,1.27.11,1.9.11h9.54c.29,0,.65,0,1.01-.09l1.16.74c-.13.27-.21.59-.29.95Z"/>
      <path class="cls-2" d="m66.53,96.8c-.55.89-2.15,3.27-3.86,4.45l-1.24-.85c1.35-.82,2.72-2.49,3.27-3.42-1.06,0-8.34-.02-9.08-.02-.57,0-1.2.04-1.79.08v-1.58c.53.08,1.22.13,1.79.13h9.38c.28,0,.8-.04,1.04-.09l.85.8c-.11.13-.29.36-.38.51Zm-10.43,10.58l-1.35-1.06c.42-.15.87-.34,1.31-.65,2.56-1.73,2.93-3.82,2.93-6.31,0-.36-.06-.74-.11-1.12h1.65c-.04,4.05-.42,6.92-4.43,9.14Z"/>
      <path class="cls-2" d="m72.48,100.18l-1.44.53c-.29-.99-1.31-3.61-1.69-4.27l1.41-.55c.38.82,1.37,3.31,1.73,4.29Zm9.27-3.23c-.51,2.09-1.33,4.12-2.7,5.83-1.75,2.24-4.07,3.71-6.19,4.52l-1.25-1.27c2.2-.65,4.62-2.09,6.17-4.05,1.35-1.65,2.34-4.07,2.62-6.5l1.63.51c-.13.4-.21.7-.29.95Zm-5.09,2.09l-1.41.49c-.21-.86-1.08-3.27-1.48-4.12l1.39-.47c.32.76,1.25,3.27,1.5,4.1Z"/>
      <path class="cls-2" d="m90.32,98.13l-.87,1.33c-.93-.68-3-2.01-4.14-2.6l.84-1.29c1.12.61,3.34,1.96,4.18,2.56Zm2.2,4.52c3.15-1.8,5.66-4.27,7.2-6.95l.91,1.56c-1.63,2.56-4.27,5.02-7.29,6.8-1.92,1.1-4.54,1.99-6.31,2.36l-.87-1.54c2.09-.36,4.45-1.12,6.36-2.22Zm.61-8.68l-.89,1.29c-.91-.68-2.96-2.05-4.08-2.7l.85-1.27c1.12.63,3.31,2.07,4.12,2.68Z"/>
      <path class="cls-2" d="m105.25,95.53h7.35c.42,0,.91-.02,1.16-.04-.02.21-.02.61-.02.97v9.46c0,.3.02.76.04,1.03h-1.5c.02-.17.02-.46.02-.76h-7.64c-.61,0-1.27.04-1.58.04v-1.52c.3.04.91.08,1.56.08h7.66v-3.38h-6.86c-.67,0-1.33.02-1.71.04v-1.46c.36.02,1.04.06,1.69.06h6.88v-3.15h-7.05c-.49,0-1.6.04-1.94.06v-1.48c.36.04,1.44.08,1.94.08Z"/>
      <path class="cls-2" d="m125.36,101.91c2.93-1.84,5.24-4.65,6.34-6.99l.91,1.61c-1.29,2.38-3.51,4.96-6.38,6.76-1.9,1.2-4.29,2.36-7.47,2.95l-1.01-1.56c3.32-.49,5.79-1.65,7.6-2.77Zm-1.12-6.02l-1.2,1.2c-.95-.99-3.32-3.02-4.73-3.97l1.08-1.16c1.35.89,3.78,2.87,4.84,3.93Z"/>
      <path class="cls-2" d="m134.48,102.71l1.23-1.08c1.37,1.1,3.08,2.83,4.26,4.22l-1.29,1.1c-1.22-1.5-2.85-3.13-4.2-4.24Z"/>
      <path class="cls-2" d="m151.71,93.08c-.13.27-.29.53-.44.8h5.15c.51,0,.93-.06,1.24-.17l1.25.76c-.15.27-.34.7-.44,1.01-.51,1.92-1.67,4.48-3.36,6.55-1.73,2.11-4.01,3.84-7.56,5.17l-1.39-1.25c3.5-1.03,5.87-2.74,7.6-4.77,1.46-1.73,2.64-4.2,3.02-5.93h-6.4c-1.16,1.62-2.74,3.31-4.83,4.67l-1.31-.97c3.27-1.96,5.13-4.73,5.96-6.42.19-.34.47-1.03.59-1.52l1.75.59c-.3.49-.65,1.14-.84,1.48Zm7.5.21l-1.03.46c-.38-.76-1.03-1.92-1.54-2.62l1.01-.44c.47.68,1.16,1.82,1.56,2.6Zm2.13-.78l-1.03.46c-.42-.82-1.04-1.9-1.58-2.6l1.01-.44c.49.7,1.24,1.88,1.6,2.58Z"/>
      <path class="cls-2" d="m164.38,104.34v-10.87c0-.49-.09-1.35-.17-1.73h1.88c-.08.47-.13,1.18-.13,1.73v10.77c3.63-.91,8.04-3.42,10.39-6.48l.85,1.33c-2.47,3.06-6.38,5.41-11.11,6.78-.21.06-.49.15-.8.34l-1.1-.95c.13-.3.19-.55.19-.93Z"/>
      <path class="cls-2" d="m187.6,95.47c1.98-1.24,3.88-2.89,5.19-4.46l1.27,1.18c-1.44,1.5-3.19,2.95-5.13,4.24v8.02c0,.72.04,1.65.11,2.03h-1.86c.06-.36.11-1.31.11-2.03v-7.03c-2,1.14-4.6,2.28-7.24,3.1l-.76-1.48c3.29-.89,6.19-2.22,8.3-3.55Z"/>
      <path class="cls-2" d="m196.57,102.71l1.23-1.08c1.37,1.1,3.08,2.83,4.26,4.22l-1.29,1.1c-1.22-1.5-2.85-3.13-4.2-4.24Z"/>
      <path class="cls-2" d="m220.28,92.6l-.72.32.93.59c-.13.27-.21.57-.28.95-.42,1.99-1.33,5.05-2.83,7.01-1.75,2.22-4.01,3.99-7.49,5.07l-1.29-1.42c3.69-.91,5.81-2.53,7.41-4.56,1.35-1.73,2.22-4.37,2.49-6.19h-9.73c-.74,0-1.41.04-1.88.06v-1.69c.51.08,1.27.13,1.9.13h9.52c.25,0,.53,0,.82-.06-.4-.74-.95-1.67-1.39-2.28l1.04-.44c.44.65,1.12,1.79,1.5,2.51Zm2.49-.49l-1.04.46c-.42-.78-1.04-1.86-1.56-2.53l1.04-.44c.47.65,1.16,1.79,1.56,2.51Z"/>
      <path class="cls-2" d="m227.16,92.98v6.35c0,.47.04,1.1.08,1.44h-1.75c.04-.29.09-.89.09-1.46v-6.33c0-.34-.04-1.01-.08-1.37h1.73c-.04.36-.08.91-.08,1.37Zm8.83.13v3.08c0,4.56-.63,6.06-1.99,7.69-1.24,1.48-3.13,2.3-4.52,2.77l-1.24-1.31c1.75-.44,3.36-1.2,4.54-2.53,1.35-1.58,1.58-3.12,1.58-6.71v-3c0-.65-.04-1.18-.09-1.65h1.79c-.04.47-.06,1.01-.06,1.65Z"/>
      <path class="cls-2" d="m243.16,97.75h10.41c.95,0,1.63-.06,2.05-.09v1.86c-.38-.02-1.18-.09-2.03-.09h-10.43c-1.04,0-2.05.04-2.64.09v-1.86c.57.04,1.58.09,2.64.09Z"/>
      <path class="cls-2" d="m266.77,92.39c1.73-.25,3.97-.7,4.9-1.1l1.01,1.31c-.42.11-.8.21-1.06.29-.95.25-2.41.53-3.78.74v3.65h5.24c.42,0,1.1-.04,1.5-.08v1.58c-.42-.04-.99-.08-1.46-.08h-5.3c-.21,3.55-1.6,6.06-4.86,7.96l-1.5-1.04c3-1.39,4.58-3.51,4.81-6.92h-5.64c-.61,0-1.25.04-1.71.08v-1.58c.44.04,1.1.08,1.67.08h5.72v-3.46c-1.92.19-4.07.25-5.53.27l-.38-1.41c1.44.06,4.33-.02,6.38-.29Z"/>
      <path class="cls-2" d="m276.71,102.71l1.23-1.08c1.37,1.1,3.08,2.83,4.26,4.22l-1.29,1.1c-1.22-1.5-2.85-3.13-4.2-4.24Z"/>
      <path class="cls-2" d="m288.36,96.86h12.44c.4,0,1.03-.02,1.48-.09v1.58c-.42-.02-1.03-.04-1.48-.04h-5.17c-.06,2.05-.36,3.78-1.12,5.21-.68,1.25-2.13,2.62-3.74,3.46l-1.41-1.04c1.48-.61,2.85-1.71,3.59-2.91.84-1.31,1.04-2.91,1.1-4.71h-5.7c-.57,0-1.12,0-1.63.04v-1.58c.51.06,1.04.09,1.63.09Zm2.34-4.75h6.57c.55,0,1.22-.04,1.77-.11v1.58c-.55-.04-1.22-.06-1.77-.06h-6.55c-.63,0-1.25.02-1.75.06v-1.58c.55.06,1.12.11,1.73.11Zm10.89.95l-1.03.46c-.38-.78-1.03-1.92-1.54-2.64l1.01-.42c.47.67,1.18,1.82,1.56,2.6Zm2.13-.78l-1.03.46c-.42-.83-1.03-1.9-1.58-2.62l1.01-.42c.49.68,1.23,1.88,1.6,2.58Z"/>
      <path class="cls-2" d="m311.78,107.1l-1.27-1.22c3.46-1.31,5.17-2.94,5.17-8.26v-.8h-5.39v3.08c0,.7.06,1.54.08,1.71h-1.69c.02-.17.09-.99.09-1.71v-3.08h-2.05c-.84,0-1.69.06-1.9.08v-1.65c.17.04,1.1.13,1.9.13h2.05v-2.43c0-.42-.04-.95-.09-1.39h1.69c-.02.17-.08.72-.08,1.37v2.45h5.39v-2.37c0-.76-.06-1.39-.08-1.56h1.71c-.02.19-.09.8-.09,1.56v2.37h2.07c.86,0,1.48-.06,1.75-.11v1.61c-.21-.02-.89-.06-1.73-.06h-2.09v.67c0,5.05-1.1,7.67-5.43,9.61Zm8.34-13.07l-.93.32c-.29-.82-.72-1.96-1.08-2.68l.91-.29c.34.68.86,1.86,1.1,2.64Zm1.92-.59l-.93.3c-.3-.83-.74-1.94-1.12-2.64l.91-.28c.36.68.87,1.84,1.14,2.62Z"/>
      <path class="cls-2" d="m331.91,95.47c1.98-1.24,3.88-2.89,5.19-4.46l1.27,1.18c-1.44,1.5-3.19,2.95-5.13,4.24v8.02c0,.72.04,1.65.11,2.03h-1.86c.06-.36.11-1.31.11-2.03v-7.03c-2,1.14-4.6,2.28-7.24,3.1l-.76-1.48c3.29-.89,6.19-2.22,8.3-3.55Z"/>
      <path class="cls-2" d="m349.1,101.91c2.93-1.84,5.24-4.65,6.34-6.99l.91,1.61c-1.29,2.38-3.51,4.96-6.38,6.76-1.9,1.2-4.29,2.36-7.47,2.95l-1.01-1.56c3.32-.49,5.79-1.65,7.6-2.77Zm-1.12-6.02l-1.2,1.2c-.95-.99-3.32-3.02-4.73-3.97l1.08-1.16c1.35.89,3.78,2.87,4.84,3.93Z"/>
      <path class="cls-2" d="m31.31,122.81l1.69.34c-.13.42-.27.99-.36,1.39-.25,1.18-.91,3.99-1.71,5.95-.7,1.75-1.75,3.69-2.81,5.22l-1.62-.68c1.2-1.58,2.28-3.59,2.93-5.17.84-1.98,1.61-4.86,1.88-7.05Zm4.73.3l1.54-.51c.74,1.39,1.96,4.01,2.77,6.02.76,1.86,1.77,4.79,2.28,6.5l-1.69.55c-.47-1.94-1.37-4.52-2.15-6.54-.76-1.96-1.94-4.6-2.75-6.02Z"/>
      <path class="cls-2" d="m53.82,125.47c1.98-1.24,3.88-2.89,5.19-4.46l1.27,1.18c-1.44,1.5-3.19,2.95-5.13,4.24v8.02c0,.72.04,1.65.11,2.03h-1.86c.06-.36.11-1.31.11-2.03v-7.03c-2,1.14-4.6,2.28-7.24,3.1l-.76-1.48c3.29-.89,6.19-2.22,8.3-3.55Z"/>
      <path class="cls-2" d="m76.85,127.29c-.51,1.88-1.37,3.86-2.77,5.4-2,2.18-4.37,3.31-6.8,3.97l-1.18-1.35c2.7-.55,5.07-1.77,6.69-3.48,1.16-1.22,1.92-2.83,2.26-4.2h-10.09c-.46,0-1.18.02-1.86.06v-1.6c.7.08,1.35.11,1.86.11h10.01c.44,0,.84-.04,1.04-.15l1.08.68c-.09.17-.21.42-.25.55Zm-10.33-5.47h7.47c.61,0,1.27-.02,1.73-.1v1.58c-.46-.04-1.1-.06-1.75-.06h-7.45c-.59,0-1.2.02-1.71.06v-1.58c.49.08,1.1.1,1.71.1Z"/>
      <path class="cls-2" d="m87.94,125.47c1.98-1.24,3.88-2.89,5.19-4.46l1.27,1.18c-1.44,1.5-3.19,2.95-5.13,4.24v8.02c0,.72.04,1.65.11,2.03h-1.86c.06-.36.11-1.31.11-2.03v-7.03c-2,1.14-4.6,2.28-7.24,3.1l-.76-1.48c3.29-.89,6.19-2.22,8.3-3.55Z"/>
      <path class="cls-2" d="m99.5,123.15c0-.53-.04-1.39-.15-1.98h1.86c-.06.59-.13,1.41-.13,1.98v3.1c2.51.76,6.12,2.13,8.11,3.13l-.65,1.62c-2.07-1.12-5.36-2.39-7.47-3.06.02,2.85.02,5.72.02,6.27,0,.59.04,1.62.11,2.24h-1.84c.09-.61.13-1.54.13-2.24v-11.06Z"/>
      <path class="cls-2" d="m113.05,137.71l-1.14-.59c2.18-2.26,3.53-5.07,3.53-8.45s-1.35-6.19-3.53-8.45l1.14-.59c2.28,2.32,3.78,5.34,3.78,9.04s-1.5,6.72-3.78,9.04Z"/>
      <path class="cls-2" d="m155.98,161.49l.67,1.14c-1.67,1.27-3.34,3.17-4.43,4.86-1.08-1.69-2.75-3.59-4.43-4.86l.67-1.14c1.18.86,2.37,2.11,3.12,3.08v-14.65h1.29v14.65c.74-.97,1.94-2.22,3.12-3.08Z"/>
    </g>
    <g>
      <path class="cls-2" d="m7.12,14.24H0v-7.12h7.12v7.12Z"/>
      <path class="cls-2" d="m7.12,43.24H0v-7.12h7.12v7.12Z"/>
      <path class="cls-2" d="m7.12,72.24H0v-7.12h7.12v7.12Z"/>
    </g>
    <rect class="cls-3" x="20.53" y="185.65" width="277.53" height="38.19"/>
    <g>
      <path class="cls-1" d="m63.91,196.95c-.02.65-.04,1.28-.08,1.89h3.95c.53,0,1.07-.06,1.57-.15l1.83.88c-.06.34-.15.88-.15,1.11-.08,2.27-.34,8.13-1.24,10.27-.46,1.07-1.26,1.62-2.71,1.62-1.2,0-2.46-.08-3.46-.17l-.34-2.81c1.03.19,2.12.29,2.94.29.67,0,.97-.23,1.2-.74.61-1.32.88-5.52.88-7.79h-4.72c-.78,5.54-2.77,8.84-6.53,11.51l-2.44-1.97c.86-.48,1.91-1.2,2.75-2.06,1.95-1.93,3-4.28,3.46-7.47h-2.77c-.71,0-1.87,0-2.77.08v-2.75c.88.08,1.97.15,2.77.15h3c.02-.59.04-1.2.04-1.83,0-.46-.06-1.43-.15-1.93h3.09c-.06.48-.1,1.37-.13,1.87Z"/>
      <path class="cls-1" d="m90.92,202.78c-.63,2.04-1.53,4.07-3.11,5.82-2.12,2.35-4.81,3.78-7.5,4.54l-2.08-2.37c3.15-.65,5.67-2.04,7.26-3.67,1.13-1.15,1.79-2.46,2.16-3.63h-10.14c-.5,0-1.55.02-2.44.11v-2.73c.88.06,1.79.13,2.44.13h10.39c.67,0,1.24-.08,1.53-.21l1.87,1.16c-.15.27-.31.65-.4.88Zm-11.72-6.87h8.08c.65,0,1.68-.02,2.27-.11v2.71c-.57-.04-1.55-.06-2.31-.06h-8.04c-.67,0-1.57.02-2.18.06v-2.71c.59.08,1.47.11,2.18.11Z"/>
      <path class="cls-1" d="m98.29,202.32h11.27c.99,0,1.91-.08,2.46-.13v3.3c-.5-.02-1.57-.11-2.46-.11h-11.27c-1.2,0-2.6.04-3.38.11v-3.3c.76.06,2.29.13,3.38.13Z"/>
      <path class="cls-1" d="m119.96,197.41v7.1c0,.52.02,1.34.06,1.83h-3.04c.02-.4.11-1.22.11-1.85v-7.08c0-.4-.02-1.13-.08-1.62h3.02c-.04.48-.06.94-.06,1.62Zm9.72.32v4.16c0,4.51-.88,6.47-2.44,8.19-1.39,1.51-3.57,2.54-5.1,3.02l-2.18-2.31c2.08-.48,3.78-1.28,5.04-2.65,1.45-1.58,1.72-3.15,1.72-6.42v-3.99c0-.84-.04-1.51-.13-2.1h3.17c-.04.59-.08,1.26-.08,2.1Z"/>
      <path class="cls-1" d="m148.6,198.98c-.71,1.64-1.89,3.88-3.3,5.77,2.08,1.8,4.62,4.49,5.86,6l-2.39,2.08c-1.36-1.89-3.32-4.03-5.29-5.94-2.22,2.35-5.02,4.54-7.89,5.9l-2.16-2.27c3.38-1.26,6.63-3.82,8.61-6.03,1.39-1.58,2.67-3.65,3.13-5.14h-7.12c-.88,0-2.04.13-2.48.15v-2.98c.57.08,1.85.15,2.48.15h7.41c.9,0,1.74-.13,2.16-.27l1.72,1.28c-.17.23-.55.88-.74,1.3Z"/>
      <path class="cls-1" d="m157.34,197.83c0-.73-.06-1.78-.21-2.52h3.28c-.08.74-.19,1.66-.19,2.52v3.11c2.81.82,6.85,2.31,8.78,3.25l-1.2,2.9c-2.16-1.13-5.31-2.35-7.58-3.13v5.94c0,.61.11,2.08.19,2.94h-3.28c.13-.84.21-2.1.21-2.94v-12.07Z"/>
      <path class="cls-1" d="m174.06,201.56h13.75c.44,0,1.36-.04,1.91-.13v2.73c-.53-.04-1.32-.06-1.91-.06h-5.06c-.13,2.16-.59,3.93-1.34,5.4-.73,1.47-2.35,3.09-4.22,4.03l-2.46-1.78c1.49-.57,2.96-1.76,3.8-3,.86-1.3,1.22-2.88,1.3-4.64h-5.77c-.61,0-1.43.04-2.02.08v-2.75c.63.08,1.36.13,2.02.13Zm2.67-5.33h6.87c.71,0,1.55-.06,2.27-.17v2.71c-.71-.04-1.53-.06-2.27-.06h-6.87c-.71,0-1.62.02-2.25.06v-2.71c.67.11,1.53.17,2.25.17Zm12.05,1.26l-1.68.74c-.44-.86-1.09-2.12-1.66-2.92l1.68-.69c.53.78,1.26,2.1,1.66,2.88Zm2.52-.96l-1.68.73c-.44-.88-1.11-2.1-1.68-2.9l1.66-.69c.55.8,1.32,2.12,1.7,2.86Z"/>
      <path class="cls-1" d="m197.28,197.99v3.97c2.48-.61,5.4-1.53,7.27-2.33.76-.29,1.47-.63,2.29-1.13l1.13,2.67c-.82.34-1.76.74-2.46.99-2.12.84-5.5,1.89-8.23,2.56v3.88c0,.9.42,1.13,1.37,1.32.63.08,1.49.13,2.44.13,2.18,0,5.58-.27,7.31-.74v3.07c-1.97.29-5.17.44-7.47.44-1.37,0-2.62-.08-3.53-.23-1.83-.34-2.88-1.34-2.88-3.15v-11.44c0-.46-.06-1.55-.17-2.18h3.11c-.1.63-.17,1.6-.17,2.18Zm10.9-.21l-1.7.71c-.42-.86-1.07-2.1-1.64-2.92l1.66-.67c.52.78,1.28,2.1,1.68,2.88Zm2.5-.97l-1.66.71c-.44-.88-1.11-2.1-1.7-2.9l1.66-.67c.57.78,1.34,2.12,1.7,2.86Z"/>
      <path class="cls-1" d="m225.4,202.78c-.17,1.24-.71,4.85-1.03,6.85h1.34c.55,0,1.51-.02,2.06-.08v2.71c-.42-.02-1.45-.06-2.02-.06h-11.04c-.76,0-1.28.02-2.08.06v-2.73c.57.06,1.34.11,2.08.11h6.8c.29-1.79.76-4.77.82-5.94h-5.67c-.67,0-1.49.06-2.1.1v-2.77c.54.06,1.51.13,2.08.13h5.38c.44,0,1.3-.08,1.55-.23l2.04.99c-.1.27-.17.67-.21.88Z"/>
      <path class="cls-1" d="m234.62,202.32h11.28c.99,0,1.91-.08,2.46-.13v3.3c-.5-.02-1.58-.11-2.46-.11h-11.28c-1.2,0-2.6.04-3.38.11v-3.3c.76.06,2.29.13,3.38.13Z"/>
    </g>
  </g>
</svg>