<?xml version="1.0" encoding="UTF-8"?>
<svg id="_レイヤー_2" data-name="レイヤー 2" xmlns="http://www.w3.org/2000/svg" viewBox="0 0 140.71 47.41">
  <defs>
    <style>
      .cls-1 {
        fill: #231815;
      }
    </style>
  </defs>
  <g id="_レイヤー_1-2" data-name="レイヤー 1">
    <g>
      <path class="cls-1" d="m13.49,7.79l-1.86-3.9,1.86-3.9.46.15-1.81,3.75,1.81,3.75-.46.15Zm1.32,0l-1.86-3.9,1.86-3.9.45.15-1.8,3.75,1.8,3.75-.45.15Z"/>
      <path class="cls-1" d="m18.78,3.72l-.38.59c-.42-.3-1.32-.89-1.83-1.15l.38-.57c.49.27,1.47.87,1.83,1.13Zm.98,2c1.39-.79,2.49-1.89,3.17-3.07l.4.69c-.73,1.12-1.88,2.2-3.22,2.99-.84.49-1.99.88-2.77,1.04l-.38-.68c.91-.16,1.96-.49,2.8-.97Zm.27-3.83l-.39.58c-.4-.31-1.31-.91-1.8-1.2l.38-.56c.49.28,1.45.92,1.81,1.18Zm2.53.24l-.48.22c-.21-.43-.49-.94-.76-1.32l.46-.19c.21.3.58.9.78,1.3Zm1.12-.42l-.48.22c-.23-.44-.51-.92-.79-1.3l.47-.2c.23.29.59.89.8,1.28Z"/>
      <path class="cls-1" d="m25.7,2.78h3.85c.21,0,.42-.02.59-.03v.67c-.18-.02-.4-.03-.59-.03h-1.63v3.08h2.02c.2,0,.39-.02.56-.04v.7c-.17-.02-.43-.03-.56-.03h-4.62c-.18,0-.4,0-.6.03v-.7c.19.03.41.04.6.04h1.92v-3.08h-1.54c-.13,0-.4,0-.58.03v-.67c.18.03.44.03.58.03Z"/>
      <path class="cls-1" d="m32.85,4.8c.24-.76.25-2.43.25-3.36,0-.25-.03-.44-.06-.61h.77c0,.1-.04.35-.04.6,0,.93-.03,2.72-.26,3.55-.25.89-.79,1.71-1.49,2.3l-.63-.43c.7-.5,1.2-1.25,1.46-2.06Zm2.43,1.63V1.42c0-.32-.04-.56-.05-.62h.77c0,.06-.03.3-.03.62v4.82c.77-.35,1.8-1.11,2.44-2.06l.39.57c-.72.98-1.88,1.84-2.85,2.32-.13.08-.23.14-.28.19l-.44-.37c.03-.13.06-.3.06-.47Z"/>
      <path class="cls-1" d="m50.25,1.32l.74.15c-.06.18-.12.43-.16.61-.11.52-.4,1.76-.75,2.62-.31.77-.77,1.62-1.24,2.3l-.71-.3c.53-.69,1-1.58,1.29-2.27.37-.87.71-2.14.83-3.1Zm2.08.13l.68-.23c.33.61.86,1.76,1.22,2.65.33.82.78,2.11,1,2.86l-.74.24c-.21-.85-.6-1.99-.95-2.88-.33-.86-.85-2.02-1.21-2.65Z"/>
      <path class="cls-1" d="m60.15,5.33c1.29-.81,2.31-2.05,2.79-3.08l.4.71c-.57,1.04-1.55,2.18-2.81,2.98-.84.53-1.89,1.04-3.29,1.3l-.44-.69c1.46-.22,2.55-.73,3.34-1.22Zm-.49-2.65l-.53.53c-.42-.43-1.46-1.33-2.08-1.75l.48-.51c.59.39,1.66,1.26,2.13,1.73Z"/>
      <path class="cls-1" d="m65.3,1.58c0-.23-.02-.61-.07-.87h.83c-.03.26-.06.62-.06.87v1.36c1.1.34,2.68.94,3.57,1.38l-.29.71c-.9-.49-2.35-1.05-3.28-1.34v2.75c0,.27.03.72.05.99h-.8c.03-.27.05-.68.05-.99V1.58Zm3.7.74l-.48.22c-.21-.43-.47-.89-.74-1.27l.46-.21c.21.31.57.87.76,1.26Zm1.04-.44l-.47.23c-.23-.44-.49-.89-.78-1.25l.46-.22c.22.29.58.85.79,1.24Z"/>
      <path class="cls-1" d="m73.54,3.9c0,.49-.39.89-.89.89s-.89-.39-.89-.89.39-.89.89-.89.89.39.89.89Z"/>
      <path class="cls-1" d="m81.41,1.93c-.18.88-.58,2.22-1.25,3.08-.76.98-1.76,1.76-3.29,2.24l-.57-.63c1.62-.41,2.56-1.12,3.26-2.02.59-.76.98-1.92,1.09-2.73h-4.27c-.33,0-.62.02-.84.03v-.74c.23.03.56.05.84.05h4.2c.13,0,.28,0,.44-.04l.51.33c-.06.12-.09.26-.12.42Z"/>
      <path class="cls-1" d="m84.08,4.57l-.63.23c-.13-.43-.58-1.59-.74-1.88l.62-.24c.17.36.6,1.46.76,1.89Zm4.08-1.42c-.23.92-.58,1.81-1.19,2.57-.77.99-1.79,1.63-2.73,1.99l-.55-.56c.97-.28,2.03-.92,2.72-1.78.59-.73,1.03-1.79,1.15-2.86l.72.23c-.06.18-.09.31-.12.42Zm-2.24.92l-.62.22c-.09-.38-.48-1.44-.65-1.81l.61-.21c.14.33.55,1.44.66,1.81Z"/>
      <path class="cls-1" d="m90.51,1.47c0-.23-.02-.61-.07-.87h.82c-.02.26-.06.62-.06.87v1.36c1.1.33,2.69.94,3.57,1.38l-.28.71c-.91-.49-2.36-1.05-3.29-1.35,0,1.25,0,2.52,0,2.76,0,.26.02.71.05.99h-.81c.04-.27.06-.68.06-.99V1.47Z"/>
      <path class="cls-1" d="m97.69,3.9l-1.8-3.75.45-.15,1.86,3.9-1.86,3.9-.45-.15,1.8-3.75Zm1.32,0l-1.8-3.75.45-.15,1.86,3.9-1.86,3.9-.45-.15,1.8-3.75Z"/>
      <path class="cls-1" d="m12.12,19.65h1.36v-4.4h-1.09v-.49c.54-.09.94-.23,1.27-.43h.58v5.33h1.23v.64h-3.36v-.64Z"/>
      <path class="cls-1" d="m20.24,14.39c0,.3-.02.59-.04.86h1.99c.23,0,.39-.02.54-.04l.47.23c-.03.14-.04.3-.04.41-.03.8-.13,3.24-.51,4.04-.17.35-.43.51-.89.51-.43,0-.91-.03-1.35-.06l-.08-.69c.45.06.9.09,1.25.09.24,0,.39-.07.49-.28.32-.64.43-2.69.43-3.59h-2.34c-.3,2.4-1.17,3.67-2.57,4.63l-.61-.49c.27-.14.61-.38.86-.62.83-.75,1.43-1.8,1.66-3.52h-1.41c-.33,0-.67,0-.96.03v-.71c.29.03.64.05.95.05h1.47c.02-.27.03-.55.03-.85,0-.18-.03-.49-.06-.69h.79c-.03.19-.04.49-.05.69Z"/>
      <path class="cls-1" d="m30.82,16.5c-.23.83-.6,1.7-1.22,2.37-.88.96-1.92,1.46-2.99,1.75l-.52-.59c1.19-.24,2.23-.78,2.94-1.53.51-.54.84-1.25,1-1.85h-4.44c-.2,0-.52,0-.82.02v-.7c.31.03.59.05.82.05h4.41c.19,0,.37-.02.46-.07l.48.3c-.04.08-.09.18-.11.24Zm-4.55-2.41h3.29c.27,0,.56,0,.76-.04v.69c-.2-.02-.49-.02-.77-.02h-3.28c-.26,0-.53,0-.75.02v-.69c.22.03.49.04.75.04Z"/>
      <path class="cls-1" d="m33.6,16.7h4.58c.42,0,.72-.03.9-.04v.82c-.17,0-.52-.04-.9-.04h-4.59c-.46,0-.9.02-1.16.04v-.82c.25.02.69.04,1.16.04Z"/>
      <path class="cls-1" d="m48.17,13.46l-7.54,7.54-.25-.25,7.54-7.54.25.25Z"/>
      <path class="cls-1" d="m52.29,14.65c-.06.12-.12.23-.19.35h2.27c.23,0,.41-.02.54-.08l.55.33c-.07.12-.15.31-.19.44-.23.84-.74,1.97-1.48,2.88-.76.93-1.76,1.69-3.33,2.27l-.61-.55c1.54-.45,2.58-1.2,3.34-2.1.64-.76,1.16-1.85,1.33-2.61h-2.82c-.51.71-1.2,1.46-2.12,2.06l-.58-.43c1.44-.86,2.26-2.08,2.63-2.83.08-.15.21-.45.26-.67l.77.26c-.13.22-.28.5-.37.65Zm3.3.09l-.45.2c-.17-.33-.45-.84-.68-1.15l.44-.19c.21.3.51.8.69,1.15Zm.94-.34l-.45.2c-.18-.36-.46-.84-.69-1.15l.44-.19c.22.31.54.83.7,1.14Z"/>
      <path class="cls-1" d="m63.08,16.5c-.23.83-.6,1.7-1.22,2.37-.88.96-1.92,1.46-2.99,1.75l-.52-.59c1.19-.24,2.23-.78,2.94-1.53.51-.54.84-1.25,1-1.85h-4.44c-.2,0-.52,0-.82.02v-.7c.31.03.59.05.82.05h4.41c.19,0,.37-.02.46-.07l.48.3c-.04.08-.09.18-.11.24Zm-4.55-2.41h3.29c.27,0,.56,0,.76-.04v.69c-.2-.02-.49-.02-.77-.02h-3.28c-.26,0-.53,0-.75.02v-.69c.22.03.49.04.75.04Z"/>
      <path class="cls-1" d="m65.07,16.31h5.48c.17,0,.45,0,.65-.04v.69c-.18,0-.45-.02-.65-.02h-2.27c-.03.9-.16,1.66-.49,2.29-.3.55-.94,1.15-1.65,1.52l-.62-.46c.65-.27,1.25-.75,1.58-1.28.37-.58.46-1.28.49-2.07h-2.51c-.25,0-.49,0-.72.02v-.69c.23.02.46.04.72.04Zm1.03-2.09h2.89c.24,0,.54-.02.78-.05v.69c-.24-.02-.54-.02-.78-.02h-2.88c-.28,0-.55,0-.77.02v-.69c.24.02.49.05.76.05Zm4.79.42l-.45.2c-.17-.34-.45-.84-.68-1.16l.44-.18c.21.29.52.8.69,1.15Zm.94-.34l-.45.2c-.18-.37-.45-.84-.69-1.15l.44-.18c.22.3.54.83.7,1.14Z"/>
      <path class="cls-1" d="m73.89,16.7h4.58c.42,0,.72-.03.9-.04v.82c-.17,0-.52-.04-.9-.04h-4.59c-.46,0-.9.02-1.16.04v-.82c.25.02.69.04,1.16.04Z"/>
      <path class="cls-1" d="m83.39,16.87l-.38.59c-.41-.3-1.32-.89-1.82-1.15l.37-.57c.49.27,1.47.86,1.84,1.13Zm.97,1.99c1.39-.79,2.49-1.88,3.17-3.06l.4.69c-.72,1.13-1.88,2.21-3.21,2.99-.84.48-2,.88-2.78,1.04l-.38-.68c.92-.16,1.96-.49,2.8-.98Zm.27-3.82l-.39.57c-.4-.3-1.3-.9-1.8-1.19l.38-.56c.49.28,1.46.91,1.81,1.18Z"/>
      <path class="cls-1" d="m89.96,15.72h3.24c.18,0,.4,0,.51-.02,0,.09,0,.27,0,.43v4.16c0,.13,0,.33.02.45h-.66c0-.08,0-.2,0-.33h-3.36c-.27,0-.56.02-.69.02v-.67c.13.02.4.03.69.03h3.37v-1.49h-3.02c-.29,0-.58,0-.75.02v-.64c.16,0,.46.03.74.03h3.03v-1.39h-3.1c-.22,0-.7.02-.85.03v-.65c.16.02.64.03.85.03Z"/>
      <path class="cls-1" d="m98.81,18.53c1.29-.81,2.31-2.05,2.79-3.08l.4.71c-.57,1.04-1.55,2.18-2.81,2.98-.84.53-1.89,1.04-3.29,1.3l-.44-.69c1.46-.22,2.55-.73,3.34-1.22Zm-.49-2.65l-.53.53c-.42-.43-1.46-1.33-2.08-1.75l.48-.51c.59.39,1.66,1.26,2.13,1.73Z"/>
      <path class="cls-1" d="m110.47,13.46l-7.54,7.54-.25-.25,7.54-7.54.25.25Z"/>
      <path class="cls-1" d="m117.42,15.14c-.18.88-.58,2.22-1.25,3.08-.76.98-1.76,1.76-3.29,2.24l-.57-.63c1.62-.41,2.56-1.12,3.26-2.02.59-.76.98-1.92,1.09-2.73h-4.27c-.33,0-.62.02-.84.03v-.74c.23.03.56.05.84.05h4.2c.13,0,.28,0,.44-.04l.51.33c-.06.12-.09.26-.12.42Z"/>
      <path class="cls-1" d="m119.58,19.6v-4.78c0-.22-.04-.59-.08-.76h.83c-.03.21-.06.52-.06.76v4.74c1.6-.4,3.54-1.5,4.57-2.85l.38.58c-1.09,1.35-2.81,2.38-4.89,2.99-.09.02-.22.07-.35.15l-.48-.42c.06-.13.08-.24.08-.41Z"/>
      <path class="cls-1" d="m129.79,18.53c1.29-.81,2.31-2.05,2.79-3.08l.4.71c-.57,1.04-1.55,2.18-2.81,2.98-.84.53-1.89,1.04-3.29,1.3l-.44-.69c1.46-.22,2.55-.73,3.34-1.22Zm-.49-2.65l-.53.53c-.42-.43-1.46-1.33-2.08-1.75l.48-.51c.59.39,1.66,1.26,2.13,1.73Z"/>
      <path class="cls-1" d="m137.28,14.34c.76-.11,1.75-.31,2.16-.48l.44.58c-.18.05-.35.09-.47.12-.42.11-1.06.23-1.66.33v1.61h2.31c.18,0,.49-.02.66-.03v.69c-.18-.02-.44-.03-.64-.03h-2.33c-.09,1.56-.7,2.67-2.14,3.5l-.66-.46c1.32-.61,2.01-1.55,2.12-3.04h-2.48c-.27,0-.55.02-.75.03v-.69c.19.02.49.03.74.03h2.52v-1.52c-.84.08-1.79.11-2.43.12l-.17-.62c.64.03,1.91,0,2.81-.13Z"/>
      <path class="cls-1" d="m13.49,34.21l-1.86-3.9,1.86-3.9.46.15-1.81,3.75,1.81,3.75-.46.15Zm1.32,0l-1.86-3.9,1.86-3.9.45.15-1.8,3.75,1.8,3.75-.45.15Z"/>
      <path class="cls-1" d="m23.04,28.14c-.33.57-1.13,1.65-2.08,2.31l-.55-.44c.77-.44,1.56-1.35,1.83-1.87h-4.77c-.31,0-.63.02-.95.05v-.76c.29.04.64.08.95.08h4.8c.16,0,.46-.02.58-.05l.41.39c-.06.08-.17.21-.23.3Zm-5.44,5.66l-.62-.5c.23-.08.52-.21.75-.38,1.3-.79,1.48-1.98,1.48-3.38,0-.2,0-.38-.03-.6h.75c0,2.27-.2,3.8-2.33,4.86Z"/>
      <path class="cls-1" d="m27.66,27.65c-.06.12-.12.23-.2.35h2.27c.23,0,.41-.03.54-.08l.56.34c-.07.12-.15.31-.19.44-.23.84-.75,1.97-1.49,2.88-.76.93-1.76,1.7-3.33,2.27l-.6-.54c1.53-.45,2.58-1.21,3.34-2.1.65-.77,1.16-1.85,1.34-2.61h-2.83c-.51.7-1.21,1.45-2.12,2.06l-.58-.44c1.44-.86,2.27-2.07,2.62-2.83.08-.14.21-.44.26-.66l.78.25c-.14.22-.29.5-.37.66Z"/>
      <path class="cls-1" d="m33.47,27.81v2.79c0,.21.02.48.03.63h-.77c.02-.12.04-.39.04-.64v-2.78c0-.15-.02-.44-.03-.6h.76c-.02.16-.03.4-.03.6Zm3.89.06v1.35c0,2.01-.28,2.67-.88,3.39-.54.65-1.38,1.01-1.99,1.22l-.54-.58c.77-.19,1.48-.53,2-1.11.59-.69.69-1.37.69-2.95v-1.32c0-.28-.02-.52-.04-.73h.79c-.02.21-.03.44-.03.73Z"/>
      <path class="cls-1" d="m40.17,31.22c.24-.76.25-2.43.25-3.36,0-.25-.03-.44-.06-.61h.77c0,.1-.04.35-.04.6,0,.93-.03,2.72-.26,3.55-.25.89-.79,1.71-1.49,2.3l-.63-.43c.7-.5,1.2-1.25,1.46-2.06Zm2.43,1.63v-5.01c0-.32-.04-.56-.05-.62h.77c0,.06-.03.3-.03.62v4.82c.77-.35,1.8-1.11,2.44-2.06l.39.57c-.72.98-1.88,1.84-2.85,2.32-.13.08-.23.14-.28.19l-.44-.37c.03-.13.06-.3.06-.47Z"/>
      <path class="cls-1" d="m48.7,30.31l-1.8-3.75.45-.15,1.86,3.9-1.86,3.9-.45-.15,1.8-3.75Zm1.32,0l-1.8-3.75.45-.15,1.86,3.9-1.86,3.9-.45-.15,1.8-3.75Z"/>
      <path class="cls-1" d="m14.87,43.08c-.22.31-.46.65-.66.9.22.27.42.52.49.63l-.37.42c-.16-.26-.51-.74-.8-1.14v3.45h-.58v-3.08c-.32.38-.64.73-.96,1-.06-.15-.23-.43-.32-.53.81-.64,1.66-1.76,2.14-2.89h-1.96v-.57h1.07v-1.54h.58v1.54h.59l.11-.03.33.21c-.22.64-.54,1.28-.89,1.86.09.09.19.22.31.35.18-.27.41-.61.54-.87l.38.28Zm2.49-1.61v.79h1.81v4.42c0,.29-.06.46-.24.56-.19.09-.48.1-.91.1-.03-.15-.12-.4-.2-.54.31,0,.57,0,.66,0,.09,0,.12-.03.12-.12v-1.07h-1.24v1.69h-.59v-1.69h-1.21v1.72h-.58v-5.08h1.79v-.79h-2.06v-.56h2.06v-1.2h.59v1.2h2v.56h-2Zm-1.81,1.31v.89h1.21v-.89h-1.21Zm1.21,2.32v-.92h-1.21v.92h1.21Zm.59-2.32v.89h1.24v-.89h-1.24Zm1.24,2.32v-.92h-1.24v.92h1.24Zm.28-4.21c-.25-.23-.76-.57-1.18-.78l.33-.33c.43.18.95.5,1.2.74l-.34.38Z"/>
      <path class="cls-1" d="m22.82,43.63s0,.18,0,.28c-.11,2.11-.19,2.88-.43,3.16-.14.17-.29.23-.54.24-.23.03-.62.03-1.03,0-.02-.18-.08-.43-.18-.6.42.04.81.04.96.04.14,0,.23-.02.29-.09.15-.17.26-.82.34-2.48h-1.26c-.02.13-.03.26-.05.38l-.55-.09c.1-.64.22-1.71.27-2.49h1.59v-1.27h-1.74v-.56h2.33v2.39h-1.68c-.03.37-.07.74-.1,1.1h1.79Zm4.76,3.78c-.07-.17-.17-.37-.28-.58-1.53.13-3.14.26-4.23.35l-.08-.61c.58-.03,1.35-.08,2.18-.14v-1.37h-1.81v-2.24h1.81v-.87c-.74.05-1.42.09-1.98.13l-.08-.59.71-.03c.33-.52.69-1.24.9-1.77l.65.18c-.27.51-.6,1.1-.9,1.57.71-.03,1.51-.08,2.32-.13-.2-.24-.41-.48-.62-.69l.51-.25c.52.5,1.1,1.2,1.35,1.68l-.54.29c-.08-.15-.18-.33-.32-.51-.47.03-.94.07-1.4.09v.91h1.85v2.24h-1.85v1.33l1.2-.09c-.18-.28-.4-.55-.6-.79l.5-.24c.5.58,1.05,1.35,1.25,1.89l-.53.26Zm-2.42-2.88v-1.19h-1.25v1.19h1.25Zm.59-1.19v1.19h1.25v-1.19h-1.25Z"/>
      <path class="cls-1" d="m28.97,45.3l.54-.48c.6.48,1.35,1.25,1.87,1.86l-.57.48c-.54-.66-1.25-1.38-1.85-1.86Z"/>
      <path class="cls-1" d="m40.46,44.65c-.56.41-1.27.84-1.88,1.14.63.49,1.43.84,2.38,1.03-.13.12-.31.38-.38.54-1.92-.44-3.19-1.49-3.89-3.12h-1.19v2.21c.69-.12,1.46-.24,2.19-.37l.03.55c-1.33.23-2.76.48-3.75.64l-.16-.57c.3-.04.67-.1,1.06-.16v-2.31h-1.46v-.56h1.46v-3.65h5.15v.53h-4.51v.69h4.26v.51h-4.26v.69h4.26v.51h-4.26v.71h5.33v.56h-3.5c.22.45.5.85.86,1.2.59-.33,1.33-.77,1.76-1.13l.51.33Z"/>
      <path class="cls-1" d="m45.38,40.12l.71-.09c.07.39.22.94.38,1.43.6-.08,1.3-.22,1.87-.41l.08.65c-.51.15-1.17.27-1.73.34.26.64.63,1.29.94,1.72.12.16.24.3.37.44l-.34.47c-.4-.09-1.41-.18-2.01-.23l.05-.56c.47.04,1.09.09,1.39.12-.33-.48-.73-1.21-1.01-1.91-1,.09-2.2.08-3.51-.02l-.02-.67c1.23.15,2.39.17,3.3.1-.1-.31-.18-.56-.24-.75-.06-.18-.13-.43-.21-.65Zm-1.96,5.13c0,.79.73,1.15,1.96,1.15.85,0,1.57-.08,2.16-.21l-.03.67c-.52.09-1.23.18-2.16.18-1.59,0-2.59-.58-2.59-1.72,0-.46.17-.9.4-1.39l.65.15c-.25.4-.39.76-.39,1.16Z"/>
      <path class="cls-1" d="m56.61,43.89v3.43h-.64v-.5h-5.22v.52h-.62v-3.45h.62v2.32h2.23v-2.85h-2.53v-2.86h.62v2.26h1.92v-3h.64v3h2.01v-2.26h.64v2.86h-2.65v2.85h2.35v-2.32h.64Z"/>
      <path class="cls-1" d="m59.86,41.03c-.04.95-.1,2.92-.1,4.17,0,.92.58,1.25,1.37,1.25,1.53,0,2.39-.86,2.99-1.73l.48.57c-.58.79-1.66,1.85-3.5,1.85-1.2,0-2.03-.5-2.03-1.86,0-1.24.08-3.35.08-4.23,0-.31-.02-.61-.07-.85h.84c-.04.28-.07.58-.08.85Z"/>
    </g>
    <g>
      <path class="cls-1" d="m3.14,6.35H0v-3.14h3.14v3.14Z"/>
      <path class="cls-1" d="m3.14,31.89H0v-3.14h3.14v3.14Z"/>
    </g>
  </g>
</svg>