<?xml version="1.0" encoding="UTF-8"?>
<svg id="_レイヤー_2" data-name="レイヤー 2" xmlns="http://www.w3.org/2000/svg" viewBox="0 0 262.53 106.45">
  <defs>
    <style>
      .cls-1 {
        fill: #231815;
      }
    </style>
  </defs>
  <g id="_レイヤー_1-2" data-name="レイヤー 1">
    <g>
      <path class="cls-1" d="m34.95,1.56c-.02.68-.06,1.33-.09,1.96h4.52c.51,0,.89-.04,1.22-.09l1.06.53c-.06.32-.09.68-.09.93-.08,1.82-.3,7.35-1.16,9.18-.38.8-.99,1.16-2.03,1.16-.97,0-2.07-.08-3.06-.13l-.19-1.58c1.03.13,2.03.21,2.83.21.55,0,.89-.15,1.1-.63.72-1.44.97-6.12.97-8.15h-5.32c-.68,5.45-2.66,8.34-5.83,10.52l-1.39-1.12c.61-.32,1.39-.85,1.96-1.41,1.88-1.71,3.25-4.08,3.76-8h-3.19c-.74,0-1.52,0-2.18.08v-1.61c.66.08,1.44.11,2.17.11h3.34c.04-.61.08-1.25.08-1.94,0-.42-.06-1.12-.13-1.58h1.79c-.06.44-.09,1.1-.11,1.56Z"/>
      <path class="cls-1" d="m58.99,6.36c-.51,1.88-1.37,3.86-2.77,5.4-2,2.18-4.37,3.31-6.8,3.97l-1.18-1.35c2.7-.55,5.07-1.77,6.69-3.48,1.16-1.22,1.92-2.83,2.26-4.2h-10.09c-.46,0-1.18.02-1.86.06v-1.6c.7.08,1.35.11,1.86.11h10.01c.44,0,.84-.04,1.04-.15l1.08.68c-.09.17-.21.42-.25.55ZM48.65.89h7.47c.61,0,1.27-.02,1.73-.1v1.58c-.46-.04-1.1-.06-1.75-.06h-7.45c-.59,0-1.2.02-1.71.06V.8c.49.08,1.1.1,1.71.1Z"/>
      <path class="cls-1" d="m65.3,6.82h10.41c.95,0,1.63-.06,2.05-.09v1.86c-.38-.02-1.18-.09-2.03-.09h-10.43c-1.04,0-2.05.04-2.64.09v-1.86c.57.04,1.58.09,2.64.09Z"/>
      <path class="cls-1" d="m54.86,31.16v1.77h4.26c.7,0,1.06-.06,1.31-.15l1.03.65c-.1.29-.21.78-.29,1.14-.25,1.52-.8,3.89-1.86,5.72-1.42,2.49-4.05,4.43-7.52,5.38l-1.23-1.42c.65-.09,1.37-.3,1.98-.53,1.9-.61,3.99-2.03,5.15-3.82,1.03-1.61,1.63-3.91,1.81-5.55h-10.62v3.4c0,.34.02.84.08,1.14h-1.65c.04-.34.06-.85.06-1.22v-3.34c0-.4,0-1.04-.06-1.46.55.06,1.1.08,1.77.08h4.2v-1.77c0-.4-.02-.84-.09-1.42h1.82c-.09.59-.11,1.03-.11,1.42Z"/>
      <path class="cls-1" d="m70.81,37.18c1.8-1.1,3.55-2.66,4.52-3.88l1.18,1.14c-.95,1.04-2.56,2.43-4.29,3.55v6.76c0,.59.02,1.37.09,1.67h-1.75c.04-.3.08-1.08.08-1.67v-5.81c-1.6.85-3.8,1.84-5.95,2.51l-.72-1.41c2.51-.59,5.3-1.92,6.84-2.87Z"/>
      <path class="cls-1" d="m82.49,39.25l-1.44.53c-.29-.99-1.31-3.61-1.69-4.27l1.41-.55c.38.82,1.37,3.31,1.73,4.29Zm9.27-3.23c-.51,2.09-1.33,4.12-2.7,5.83-1.75,2.24-4.07,3.71-6.19,4.52l-1.25-1.27c2.2-.65,4.62-2.09,6.17-4.05,1.35-1.65,2.34-4.07,2.62-6.5l1.63.51c-.13.4-.21.7-.29.95Zm-5.09,2.09l-1.41.49c-.21-.86-1.08-3.27-1.48-4.12l1.39-.47c.32.76,1.25,3.27,1.5,4.1Z"/>
      <path class="cls-1" d="m101.76,32.15c-.13.27-.29.53-.44.8h5.15c.51,0,.93-.06,1.24-.17l1.25.76c-.15.27-.34.7-.44,1.01-.51,1.92-1.67,4.48-3.36,6.55-1.73,2.11-4.01,3.84-7.56,5.17l-1.39-1.25c3.5-1.03,5.87-2.74,7.6-4.77,1.46-1.73,2.64-4.2,3.02-5.93h-6.4c-1.16,1.62-2.74,3.31-4.83,4.67l-1.31-.97c3.27-1.96,5.13-4.73,5.96-6.42.19-.34.47-1.03.59-1.52l1.75.59c-.3.49-.65,1.14-.84,1.48Zm7.5.21l-1.03.46c-.38-.76-1.03-1.92-1.54-2.62l1.01-.44c.47.68,1.16,1.82,1.56,2.6Zm2.13-.78l-1.03.46c-.42-.82-1.04-1.9-1.58-2.6l1.01-.44c.49.7,1.24,1.88,1.6,2.58Z"/>
      <path class="cls-1" d="m114.72,35.03c-.55-.55-1.73-1.31-2.68-1.84l.78-.89c.93.46,2.11,1.2,2.72,1.73l-.82,1.01Zm6.65,9.67h7.9v1.18h-17.12v-1.18h7.85v-1.75h-5.85v-1.14h5.85v-1.03h1.37v1.03h6.21v1.14h-6.21v1.75Zm-8.79-4.46c.8-.99,1.94-2.62,2.85-4.1l.82.78c-.8,1.37-1.82,2.93-2.7,4.12l-.97-.8Zm3.4-8.25c-.57-.57-1.73-1.39-2.66-1.92l.8-.87c.95.49,2.11,1.25,2.68,1.8l-.82.99Zm2.94.95c-.8.47-1.65.91-2.51,1.27-.15-.3-.46-.8-.7-1.08,2.39-.89,4.79-2.51,6-4.08h1.25c1.62,1.75,4.1,3.23,6.35,3.99-.27.29-.57.8-.74,1.14-.85-.32-1.77-.78-2.66-1.29v.99h-2.85v1.29h4.88v1.1h-4.88v2.87c0,.65-.11.99-.63,1.18-.49.19-1.29.19-2.53.19-.08-.34-.27-.8-.44-1.1.91.04,1.75.04,2,.02.25-.02.32-.09.32-.3v-2.85h-4.6v-1.1h4.6v-1.29h-2.87v-.93Zm1.23,4.33c-.78,1.12-1.94,2.26-3.1,3.04-.21-.25-.57-.59-.86-.76,1.12-.72,2.22-1.82,2.85-2.77l1.1.49Zm5.62-4.46c-1.29-.78-2.53-1.69-3.38-2.62-.76.89-1.94,1.8-3.25,2.62h6.63Zm-.19,3.93c1.03.82,2.28,1.98,2.94,2.72l-1.03.7c-.61-.76-1.88-1.98-2.91-2.81l.99-.61Z"/>
      <path class="cls-1" d="m138.22,33.33c-.57,1.22-1.24,2.37-2,3.46h4.14v-2.55h1.41v2.55h5.68v6.08c0,.76-.17,1.16-.76,1.37-.57.23-1.58.25-3.21.23-.06-.38-.27-.89-.46-1.27,1.22.04,2.32.02,2.6.02.32-.02.42-.09.42-.36v-4.73h-4.27v8.32h-1.41v-8.32h-4.03v6.55h-1.41v-6.23c-.82.93-1.73,1.77-2.75,2.47-.19-.34-.55-.87-.84-1.18,2.3-1.56,4.05-3.89,5.32-6.4h-4.77v-1.37h5.38c.42-.97.74-1.94,1.01-2.91l1.46.34c-.27.85-.59,1.71-.91,2.56h9.67v1.37h-10.28Z"/>
      <path class="cls-1" d="m153.1,40.03c-.27,1.79-.7,3.61-1.31,4.83-.21-.17-.78-.42-1.04-.51.59-1.16.95-2.87,1.16-4.52l1.2.21Zm2.05-1.63v8h-1.25v-7.92l-2.98.19-.13-1.27,1.31-.06c.38-.47.78-1.01,1.18-1.58-.55-.86-1.5-1.94-2.36-2.75l.76-.89c.19.17.38.34.57.53.63-1.08,1.29-2.53,1.69-3.57l1.24.46c-.65,1.31-1.46,2.85-2.18,3.91.4.42.74.84,1.03,1.22.78-1.18,1.5-2.41,2.03-3.44l1.18.55c-1.08,1.73-2.51,3.88-3.8,5.49l2.74-.13c-.27-.55-.55-1.1-.85-1.6l1.03-.42c.8,1.22,1.56,2.85,1.84,3.89l-1.12.51c-.08-.36-.21-.78-.4-1.22l-1.5.1Zm1.62,5.01c-.1-.91-.48-2.3-.93-3.34l1.03-.3c.47,1.04.87,2.41,1.01,3.33l-1.1.32Zm7.45-3.12c1.12,1.65,2.93,3.34,4.5,4.22-.3.27-.74.74-.97,1.08-1.42-.93-3.02-2.54-4.18-4.24v5.02h-1.35v-4.9c-1.22,1.77-2.91,3.34-4.56,4.27-.21-.34-.63-.82-.95-1.08,1.82-.87,3.74-2.6,4.9-4.37h-3.32v-6.52h3.93v-1.58h-4.52v-1.23h4.52v-1.9h1.35v1.9h4.48v1.23h-4.48v1.58h4.07v6.52h-3.42Zm-4.67-3.78h2.75v-1.65h-2.75v1.65Zm0,2.7h2.75v-1.67h-2.75v1.67Zm6.8-4.35h-2.85v1.65h2.85v-1.65Zm0,2.68h-2.85v1.67h2.85v-1.67Z"/>
      <path class="cls-1" d="m175.91,35.17c-1.67.72-3.38,1.42-4.75,1.96l-.55-1.16c1.29-.4,3.21-1.1,5.09-1.84l.21,1.04Zm1.04-3.99h-5.89v-1.16h7.2v6.25c0,.63-.15.95-.61,1.14-.49.19-1.25.17-2.45.17-.06-.32-.23-.74-.36-1.04.84.02,1.6.02,1.82,0,.23,0,.29-.08.29-.29v-5.07Zm-4.35.17c.89.47,1.98,1.22,2.49,1.79l-.76.91c-.49-.59-1.56-1.37-2.47-1.86l.74-.83Zm7.24,5.76c-.27.51-.55,1.04-.82,1.5h6.19v7.85h-1.42v-.74h-9.21v.74h-1.39v-7.85h4.45c.29-.59.57-1.27.74-1.79l1.46.29Zm3.95,2.6h-9.21v1.84h9.21v-1.84Zm0,4.88v-1.92h-9.21v1.92h9.21Zm-4.77-8.99c1.37-.44,3.36-1.14,5.34-1.84l.21,1.04c-1.75.67-3.59,1.35-5.03,1.88l-.51-1.08Zm7.69.67c0,.67-.15.99-.65,1.2-.51.19-1.31.19-2.56.19-.06-.34-.23-.8-.4-1.12.89.04,1.71.04,1.98.04.23-.02.3-.08.3-.3v-5.09h-5.93v-1.16h7.26v6.25Zm-4.24-2.26c-.49-.59-1.6-1.35-2.51-1.8l.74-.85c.89.44,1.99,1.16,2.54,1.73l-.78.93Z"/>
      <path class="cls-1" d="m201.43,33.97l1.14-.67c1.27,1.67,3.17,3.34,4.86,4.43-1.69,1.08-3.59,2.75-4.86,4.43l-1.14-.66c.85-1.18,2.11-2.38,3.08-3.12h-14.65v-1.29h14.65c-.97-.74-2.22-1.94-3.08-3.12Z"/>
      <path class="cls-1" d="m213.02,31.54h9.04c.61,0,1.14-.04,1.56-.08v1.52c-.46-.02-.89-.06-1.56-.06h-4.94v4.03h6.4c.4,0,1.16-.04,1.58-.08v1.56c-.44-.06-1.12-.06-1.54-.06h-6.44v3.82c0,.95.67,1.52,2.41,1.52s3.36-.08,5-.27l-.09,1.6c-1.48.11-3.31.19-5.11.19-2.87,0-3.78-1.01-3.78-2.56v-4.29h-3.7c-.48,0-1.25.04-1.79.08v-1.6c.51.04,1.29.09,1.79.09h3.7v-4.03h-2.53c-.65,0-1.2.02-1.71.06v-1.52c.51.04,1.06.08,1.71.08Z"/>
      <path class="cls-1" d="m229.76,35.93h12.44c.4,0,1.03-.02,1.48-.09v1.58c-.42-.02-1.03-.04-1.48-.04h-5.17c-.06,2.05-.36,3.78-1.12,5.21-.68,1.25-2.13,2.62-3.74,3.46l-1.41-1.04c1.48-.61,2.85-1.71,3.59-2.91.84-1.31,1.04-2.91,1.1-4.71h-5.7c-.57,0-1.12,0-1.63.04v-1.58c.51.06,1.04.09,1.63.09Zm2.34-4.75h6.57c.55,0,1.22-.04,1.77-.11v1.58c-.55-.04-1.22-.06-1.77-.06h-6.55c-.63,0-1.25.02-1.75.06v-1.58c.55.06,1.12.11,1.73.11Zm10.89.95l-1.03.46c-.38-.78-1.03-1.92-1.54-2.64l1.01-.42c.47.67,1.18,1.82,1.56,2.6Zm2.13-.78l-1.03.46c-.42-.83-1.03-1.9-1.58-2.62l1.01-.42c.49.68,1.23,1.88,1.6,2.58Z"/>
      <path class="cls-1" d="m249.01,39.78c.55-1.73.57-5.53.57-7.64,0-.57-.06-.99-.13-1.39h1.75c-.02.23-.09.8-.09,1.37,0,2.11-.08,6.17-.59,8.07-.57,2.03-1.79,3.89-3.38,5.22l-1.42-.97c1.6-1.14,2.74-2.83,3.31-4.67Zm5.53,3.7v-11.38c0-.72-.1-1.27-.11-1.41h1.75c-.02.13-.08.68-.08,1.41v10.96c1.75-.8,4.08-2.53,5.55-4.67l.89,1.29c-1.63,2.22-4.27,4.18-6.48,5.26-.3.17-.51.32-.65.44l-1.01-.84c.08-.3.13-.68.13-1.06Z"/>
      <path class="cls-1" d="m39.65,63.08c-.65,1.63-1.84,3.86-3.19,5.57,2,1.71,4.31,4.18,5.55,5.68l-1.33,1.14c-1.27-1.67-3.29-3.91-5.22-5.64-2.03,2.18-4.6,4.27-7.41,5.55l-1.22-1.27c3.06-1.2,5.87-3.46,7.83-5.64,1.29-1.46,2.68-3.7,3.15-5.28h-7.41c-.67,0-1.71.08-1.92.09v-1.73c.27.04,1.35.11,1.92.11h7.33c.63,0,1.12-.06,1.42-.15l.97.74c-.11.15-.36.57-.48.84Z"/>
      <path class="cls-1" d="m47,62.22c0-.53-.04-1.39-.15-1.98h1.86c-.06.59-.13,1.41-.13,1.98v3.1c2.51.76,6.12,2.13,8.11,3.13l-.65,1.62c-2.07-1.12-5.36-2.39-7.47-3.06.02,2.85.02,5.72.02,6.27,0,.59.04,1.62.11,2.24h-1.84c.09-.61.13-1.54.13-2.24v-11.06Z"/>
      <path class="cls-1" d="m61.76,73.41v-10.87c0-.49-.09-1.35-.17-1.73h1.88c-.08.47-.13,1.18-.13,1.73v10.77c3.63-.91,8.04-3.42,10.39-6.48l.85,1.33c-2.47,3.06-6.38,5.41-11.11,6.78-.21.06-.49.15-.8.34l-1.1-.95c.13-.3.19-.55.19-.93Z"/>
      <path class="cls-1" d="m80.19,66.82h10.41c.95,0,1.63-.06,2.05-.09v1.86c-.38-.02-1.18-.09-2.03-.09h-10.43c-1.04,0-2.05.04-2.64.09v-1.86c.57.04,1.58.09,2.64.09Z"/>
      <path class="cls-1" d="m98.51,62.22c0-.53-.04-1.39-.15-1.98h1.86c-.06.59-.13,1.41-.13,1.98v3.1c2.51.76,6.12,2.13,8.11,3.13l-.65,1.62c-2.07-1.12-5.36-2.39-7.47-3.06.02,2.85.02,5.72.02,6.27,0,.59.04,1.62.11,2.24h-1.84c.09-.61.13-1.54.13-2.24v-11.06Z"/>
      <path class="cls-1" d="m54.86,91.16v1.77h4.26c.7,0,1.06-.06,1.31-.15l1.03.65c-.1.29-.21.78-.29,1.14-.25,1.52-.8,3.89-1.86,5.72-1.42,2.49-4.05,4.43-7.52,5.38l-1.23-1.42c.65-.09,1.37-.3,1.98-.53,1.9-.61,3.99-2.03,5.15-3.82,1.03-1.61,1.63-3.91,1.81-5.55h-10.62v3.4c0,.34.02.84.08,1.14h-1.65c.04-.34.06-.85.06-1.22v-3.34c0-.4,0-1.04-.06-1.46.55.06,1.1.08,1.77.08h4.2v-1.77c0-.4-.02-.84-.09-1.42h1.82c-.09.59-.11,1.03-.11,1.42Z"/>
      <path class="cls-1" d="m70.81,97.18c1.8-1.1,3.55-2.66,4.52-3.88l1.18,1.14c-.95,1.04-2.56,2.43-4.29,3.55v6.76c0,.59.02,1.37.09,1.67h-1.75c.04-.3.08-1.08.08-1.67v-5.81c-1.6.85-3.8,1.84-5.95,2.51l-.72-1.41c2.51-.59,5.3-1.92,6.84-2.87Z"/>
      <path class="cls-1" d="m82.49,99.25l-1.44.53c-.29-.99-1.31-3.61-1.69-4.27l1.41-.55c.38.82,1.37,3.31,1.73,4.29Zm9.27-3.23c-.51,2.09-1.33,4.12-2.7,5.83-1.75,2.24-4.07,3.71-6.19,4.52l-1.25-1.27c2.2-.65,4.62-2.09,6.17-4.05,1.35-1.65,2.34-4.07,2.62-6.5l1.63.51c-.13.4-.21.7-.29.95Zm-5.09,2.09l-1.41.49c-.21-.86-1.08-3.27-1.48-4.12l1.39-.47c.32.76,1.25,3.27,1.5,4.1Z"/>
      <path class="cls-1" d="m101.76,92.15c-.13.27-.29.53-.44.8h5.15c.51,0,.93-.06,1.24-.17l1.25.76c-.15.27-.34.7-.44,1.01-.51,1.92-1.67,4.48-3.36,6.55-1.73,2.11-4.01,3.84-7.56,5.17l-1.39-1.25c3.5-1.03,5.87-2.74,7.6-4.77,1.46-1.73,2.64-4.2,3.02-5.93h-6.4c-1.16,1.62-2.74,3.31-4.83,4.67l-1.31-.97c3.27-1.96,5.13-4.73,5.96-6.42.19-.34.47-1.03.59-1.52l1.75.59c-.3.49-.65,1.14-.84,1.48Zm7.5.21l-1.03.46c-.38-.76-1.03-1.92-1.54-2.62l1.01-.44c.47.68,1.16,1.82,1.56,2.6Zm2.13-.78l-1.03.46c-.42-.82-1.04-1.9-1.58-2.6l1.01-.44c.49.7,1.24,1.88,1.6,2.58Z"/>
      <path class="cls-1" d="m114.15,100.03c-.27,1.79-.7,3.61-1.31,4.83-.21-.17-.78-.42-1.04-.51.59-1.16.95-2.87,1.16-4.52l1.2.21Zm2.05-1.63v8h-1.25v-7.92l-2.98.19-.13-1.27,1.31-.06c.38-.47.78-1.01,1.18-1.58-.55-.86-1.5-1.94-2.36-2.75l.76-.89c.19.17.38.34.57.53.63-1.08,1.29-2.53,1.69-3.57l1.24.46c-.65,1.31-1.46,2.85-2.18,3.91.4.42.74.84,1.03,1.22.78-1.18,1.5-2.41,2.03-3.44l1.18.55c-1.08,1.73-2.51,3.88-3.8,5.49l2.74-.13c-.27-.55-.55-1.1-.85-1.6l1.03-.42c.8,1.22,1.56,2.85,1.84,3.89l-1.12.51c-.08-.36-.21-.78-.4-1.22l-1.5.1Zm1.62,5.01c-.1-.91-.48-2.3-.93-3.34l1.03-.3c.47,1.04.87,2.41,1.01,3.33l-1.1.32Zm7.45-3.12c1.12,1.65,2.93,3.34,4.5,4.22-.3.27-.74.74-.97,1.08-1.42-.93-3.02-2.54-4.18-4.24v5.02h-1.35v-4.9c-1.22,1.77-2.91,3.34-4.56,4.27-.21-.34-.63-.82-.95-1.08,1.82-.87,3.74-2.6,4.9-4.37h-3.32v-6.52h3.93v-1.58h-4.52v-1.23h4.52v-1.9h1.35v1.9h4.48v1.23h-4.48v1.58h4.07v6.52h-3.42Zm-4.67-3.78h2.75v-1.65h-2.75v1.65Zm0,2.7h2.75v-1.67h-2.75v1.67Zm6.8-4.35h-2.85v1.65h2.85v-1.65Zm0,2.68h-2.85v1.67h2.85v-1.67Z"/>
      <path class="cls-1" d="m136.96,95.17c-1.67.72-3.38,1.42-4.75,1.96l-.55-1.16c1.29-.4,3.21-1.1,5.09-1.84l.21,1.04Zm1.04-3.99h-5.89v-1.16h7.2v6.25c0,.63-.15.95-.61,1.14-.49.19-1.25.17-2.45.17-.06-.32-.23-.74-.36-1.04.84.02,1.6.02,1.82,0,.23,0,.29-.08.29-.29v-5.07Zm-4.35.17c.89.47,1.98,1.22,2.49,1.79l-.76.91c-.49-.59-1.56-1.37-2.47-1.86l.74-.83Zm7.24,5.76c-.27.51-.55,1.04-.82,1.5h6.19v7.85h-1.42v-.74h-9.21v.74h-1.39v-7.85h4.45c.29-.59.57-1.27.74-1.79l1.46.29Zm3.95,2.6h-9.21v1.84h9.21v-1.84Zm0,4.88v-1.92h-9.21v1.92h9.21Zm-4.77-8.99c1.37-.44,3.36-1.14,5.34-1.84l.21,1.04c-1.75.67-3.59,1.35-5.03,1.88l-.51-1.08Zm7.69.67c0,.67-.15.99-.65,1.2-.51.19-1.31.19-2.56.19-.06-.34-.23-.8-.4-1.12.89.04,1.71.04,1.98.04.23-.02.3-.08.3-.3v-5.09h-5.93v-1.16h7.26v6.25Zm-4.24-2.26c-.49-.59-1.6-1.35-2.51-1.8l.74-.85c.89.44,1.99,1.16,2.54,1.73l-.78.93Z"/>
      <path class="cls-1" d="m162.48,93.97l1.14-.67c1.27,1.67,3.17,3.34,4.86,4.43-1.69,1.08-3.59,2.75-4.86,4.43l-1.14-.66c.85-1.18,2.11-2.38,3.08-3.12h-14.65v-1.29h14.65c-.97-.74-2.22-1.94-3.08-3.12Z"/>
      <path class="cls-1" d="m174.07,91.54h9.04c.61,0,1.14-.04,1.56-.08v1.52c-.46-.02-.89-.06-1.56-.06h-4.94v4.03h6.4c.4,0,1.16-.04,1.58-.08v1.56c-.44-.06-1.12-.06-1.54-.06h-6.44v3.82c0,.95.67,1.52,2.41,1.52s3.36-.08,5-.27l-.09,1.6c-1.48.11-3.31.19-5.11.19-2.87,0-3.78-1.01-3.78-2.56v-4.29h-3.7c-.48,0-1.25.04-1.79.08v-1.6c.51.04,1.29.09,1.79.09h3.7v-4.03h-2.53c-.65,0-1.2.02-1.71.06v-1.52c.51.04,1.06.08,1.71.08Z"/>
      <path class="cls-1" d="m190.81,95.93h12.44c.4,0,1.03-.02,1.48-.09v1.58c-.42-.02-1.03-.04-1.48-.04h-5.17c-.06,2.05-.36,3.78-1.12,5.21-.68,1.25-2.13,2.62-3.74,3.46l-1.41-1.04c1.48-.61,2.85-1.71,3.59-2.91.84-1.31,1.04-2.91,1.1-4.71h-5.7c-.57,0-1.12,0-1.63.04v-1.58c.51.06,1.04.09,1.63.09Zm2.34-4.75h6.57c.55,0,1.22-.04,1.77-.11v1.58c-.55-.04-1.22-.06-1.77-.06h-6.55c-.63,0-1.25.02-1.75.06v-1.58c.55.06,1.12.11,1.73.11Zm10.89.95l-1.03.46c-.38-.78-1.03-1.92-1.54-2.64l1.01-.42c.47.67,1.18,1.82,1.56,2.6Zm2.13-.78l-1.03.46c-.42-.83-1.03-1.9-1.58-2.62l1.01-.42c.49.68,1.23,1.88,1.6,2.58Z"/>
      <path class="cls-1" d="m210.06,99.78c.55-1.73.57-5.53.57-7.64,0-.57-.06-.99-.13-1.39h1.75c-.02.23-.09.8-.09,1.37,0,2.11-.08,6.17-.59,8.07-.57,2.03-1.79,3.89-3.38,5.22l-1.42-.97c1.6-1.14,2.74-2.83,3.31-4.67Zm5.53,3.7v-11.38c0-.72-.1-1.27-.11-1.41h1.75c-.02.13-.08.68-.08,1.41v10.96c1.75-.8,4.08-2.53,5.55-4.67l.89,1.29c-1.63,2.22-4.27,4.18-6.48,5.26-.3.17-.51.32-.65.44l-1.01-.84c.08-.3.13-.68.13-1.06Z"/>
    </g>
    <g>
      <path class="cls-1" d="m7.12,13.31H0v-7.12h7.12v7.12Z"/>
      <path class="cls-1" d="m7.12,71.31H0v-7.12h7.12v7.12Z"/>
    </g>
  </g>
</svg>