<?xml version="1.0" encoding="UTF-8"?>
<svg id="_レイヤー_2" data-name="レイヤー 2" xmlns="http://www.w3.org/2000/svg" viewBox="0 0 121.2 33.82">
  <defs>
    <style>
      .cls-1 {
        fill: #231815;
      }
    </style>
  </defs>
  <g id="_レイヤー_1-2" data-name="レイヤー 1">
    <g>
      <path class="cls-1" d="m15.39,1.13c0,.3-.02.58-.04.86h1.99c.23,0,.39-.02.54-.04l.47.23c-.03.14-.04.3-.04.41-.03.8-.13,3.24-.51,4.04-.17.35-.43.51-.89.51-.43,0-.91-.03-1.35-.06l-.08-.69c.45.06.9.09,1.25.09.24,0,.39-.07.49-.28.32-.64.43-2.69.43-3.59h-2.34c-.3,2.4-1.17,3.67-2.57,4.63l-.61-.49c.27-.14.61-.38.86-.62.83-.75,1.43-1.8,1.66-3.52h-1.41c-.33,0-.67,0-.96.03v-.71c.29.03.64.05.95.05h1.47c.02-.27.03-.55.03-.85,0-.18-.03-.49-.06-.69h.79c-.03.19-.04.48-.05.69Z"/>
      <path class="cls-1" d="m23.54.95v.78h1.87c.31,0,.47-.02.58-.07l.45.28c-.04.12-.09.34-.12.5-.11.67-.35,1.71-.82,2.52-.63,1.1-1.78,1.95-3.31,2.37l-.54-.63c.28-.04.6-.13.87-.23.84-.27,1.76-.89,2.27-1.68.45-.71.72-1.72.79-2.44h-4.67v1.5c0,.15,0,.37.03.5h-.73c.02-.15.02-.38.02-.54v-1.47c0-.18,0-.46-.02-.64.24.03.48.03.78.03h1.85v-.78c0-.18,0-.37-.04-.63h.8c-.04.26-.05.45-.05.63Z"/>
      <path class="cls-1" d="m31.15,5.28c1.29-.81,2.31-2.05,2.79-3.08l.4.71c-.57,1.04-1.55,2.18-2.81,2.98-.84.53-1.89,1.04-3.29,1.3l-.44-.69c1.46-.22,2.55-.73,3.34-1.22Zm-.49-2.65l-.53.53c-.42-.43-1.46-1.33-2.08-1.75l.48-.51c.59.39,1.66,1.26,2.13,1.73Z"/>
      <path class="cls-1" d="m37.22,3.41c-.84.18-1.59.33-1.93.4l-.12-.69c.38-.05,1.17-.19,2.06-.36v-1.43c0-.25-.02-.53-.06-.77h.79c-.04.24-.06.53-.06.77v1.3c1.42-.28,2.88-.58,3.24-.65.18-.04.34-.09.44-.15l.49.38c-.06.08-.14.23-.2.33-.38.69-1.04,1.74-1.71,2.43l-.59-.35c.63-.57,1.24-1.49,1.49-1.99-.14.02-1.68.33-3.16.63v2.49c0,.58.22.76,1.21.76s1.77-.08,2.61-.24l-.03.72c-.74.11-1.58.17-2.62.17-1.56,0-1.84-.4-1.84-1.23v-2.53Z"/>
      <path class="cls-1" d="m44.88,1.35v2.79c0,.21.02.49.03.64h-.77c.02-.12.04-.39.04-.64V1.35c0-.15-.02-.44-.03-.6h.76c-.02.16-.03.4-.03.6Zm3.89.06v1.35c0,2.01-.28,2.67-.88,3.39-.54.65-1.38,1.01-1.99,1.22l-.54-.58c.77-.19,1.48-.53,2-1.11.59-.69.69-1.37.69-2.95v-1.32c0-.28-.02-.52-.04-.73h.79c-.02.21-.03.44-.03.73Z"/>
      <path class="cls-1" d="m54.02,5.28c1.29-.81,2.31-2.05,2.79-3.08l.4.71c-.57,1.04-1.55,2.18-2.81,2.98-.84.53-1.89,1.04-3.29,1.3l-.44-.69c1.46-.22,2.55-.73,3.34-1.22Zm-.49-2.65l-.53.53c-.42-.43-1.46-1.33-2.08-1.75l.48-.51c.59.39,1.66,1.26,2.13,1.73Z"/>
      <path class="cls-1" d="m61.23,1.39c-.06.12-.12.23-.19.35h2.27c.23,0,.41-.03.54-.08l.55.33c-.07.12-.15.31-.19.44-.23.84-.74,1.97-1.48,2.88-.76.93-1.76,1.69-3.33,2.27l-.61-.55c1.54-.45,2.58-1.2,3.34-2.1.64-.76,1.16-1.85,1.33-2.61h-2.82c-.51.71-1.2,1.46-2.12,2.06l-.58-.43c1.44-.86,2.26-2.08,2.63-2.83.08-.15.21-.45.26-.67l.77.26c-.13.22-.28.5-.37.65Zm3.3.09l-.45.2c-.17-.33-.45-.84-.68-1.15l.44-.19c.21.3.51.8.69,1.15Zm.94-.34l-.45.2c-.18-.36-.46-.84-.69-1.15l.44-.19c.22.31.54.83.7,1.14Z"/>
      <path class="cls-1" d="m18.48,15.19c-.6.98-1.66,2.34-3.04,3.39.5.5,1.09,1.13,1.43,1.54l-.61.49c-.31-.43-.98-1.16-1.5-1.71-.5-.5-1.47-1.34-1.92-1.65l.54-.44c.31.23,1,.79,1.56,1.3,1.23-.92,2.19-2.15,2.61-2.9h-4.92c-.33,0-.69.03-.85.05v-.75c.23.03.56.07.85.07h4.98c.23,0,.43-.02.54-.07l.53.43c-.08.09-.16.18-.21.26Z"/>
      <path class="cls-1" d="m20.5,18.97h5.01c.25,0,.52-.02.76-.04v.8c-.25-.03-.54-.04-.76-.04h-5.01c-.3,0-.59.02-.88.04v-.8c.28.02.58.04.88.04Zm.67-4.15h3.58c.3,0,.59,0,.83-.03v.75c-.23-.02-.55-.03-.83-.03h-3.58c-.29,0-.57.02-.83.03v-.75c.27.02.55.03.83.03Z"/>
      <path class="cls-1" d="m30.02,16.88l-.38.58c-.42-.3-1.32-.89-1.83-1.15l.38-.57c.49.27,1.47.87,1.83,1.13Zm.98,2c1.39-.79,2.49-1.89,3.17-3.07l.4.69c-.73,1.12-1.88,2.2-3.22,2.99-.84.49-1.99.88-2.77,1.04l-.38-.68c.91-.16,1.96-.49,2.8-.97Zm.27-3.83l-.39.58c-.4-.31-1.31-.91-1.8-1.2l.38-.56c.49.28,1.45.92,1.81,1.18Zm2.53.24l-.48.22c-.21-.43-.49-.94-.76-1.32l.46-.19c.21.3.58.9.78,1.3Zm1.12-.42l-.48.22c-.23-.44-.51-.92-.79-1.3l.47-.2c.23.29.59.89.8,1.28Z"/>
      <path class="cls-1" d="m36.93,15.94h3.85c.21,0,.42-.02.59-.03v.67c-.18-.02-.4-.02-.59-.02h-1.63v3.08h2.02c.2,0,.39-.02.56-.04v.7c-.17-.02-.43-.02-.56-.02h-4.62c-.18,0-.4,0-.6.02v-.7c.19.03.41.04.6.04h1.92v-3.08h-1.54c-.13,0-.4,0-.58.02v-.67c.18.03.44.03.58.03Z"/>
      <path class="cls-1" d="m44.08,17.96c.24-.76.25-2.43.25-3.36,0-.25-.03-.43-.06-.61h.77c0,.1-.04.35-.04.6,0,.93-.03,2.72-.26,3.55-.25.89-.79,1.71-1.49,2.3l-.63-.43c.7-.5,1.2-1.25,1.46-2.06Zm2.43,1.63v-5.01c0-.32-.04-.56-.05-.62h.77c0,.06-.03.3-.03.62v4.83c.77-.35,1.8-1.11,2.44-2.06l.39.57c-.72.98-1.88,1.84-2.85,2.32-.13.08-.23.14-.28.19l-.44-.37c.03-.13.06-.3.06-.47Z"/>
      <path class="cls-1" d="m51.25,19.6h1.36v-4.4h-1.09v-.49c.54-.09.94-.23,1.27-.43h.58v5.33h1.23v.63h-3.36v-.63Z"/>
      <path class="cls-1" d="m59.36,14.34c0,.3-.02.58-.04.86h1.99c.23,0,.39-.02.54-.04l.47.23c-.03.14-.04.3-.04.41-.03.8-.13,3.24-.51,4.04-.17.35-.43.51-.89.51-.43,0-.91-.03-1.35-.06l-.08-.69c.45.06.9.09,1.25.09.24,0,.39-.07.49-.28.32-.64.43-2.69.43-3.59h-2.34c-.3,2.4-1.17,3.67-2.57,4.63l-.61-.49c.27-.14.61-.38.86-.62.83-.75,1.43-1.8,1.66-3.52h-1.41c-.33,0-.67,0-.96.03v-.71c.29.03.64.05.95.05h1.47c.02-.27.03-.55.03-.85,0-.18-.03-.49-.06-.69h.79c-.03.19-.04.48-.05.69Z"/>
      <path class="cls-1" d="m69.94,16.45c-.23.83-.6,1.7-1.22,2.38-.88.96-1.92,1.46-2.99,1.75l-.52-.59c1.19-.24,2.23-.78,2.94-1.53.51-.54.84-1.25,1-1.85h-4.44c-.2,0-.52,0-.82.03v-.7c.31.03.59.05.82.05h4.41c.19,0,.37-.02.46-.07l.48.3c-.04.08-.09.18-.11.24Zm-4.55-2.41h3.29c.27,0,.56,0,.76-.04v.69c-.2-.02-.49-.03-.77-.03h-3.28c-.26,0-.53,0-.75.03v-.69c.22.03.49.04.75.04Z"/>
      <path class="cls-1" d="m72.72,16.65h4.58c.42,0,.72-.03.9-.04v.82c-.17,0-.52-.04-.9-.04h-4.59c-.46,0-.9.02-1.16.04v-.82c.25.02.69.04,1.16.04Z"/>
      <path class="cls-1" d="m82.51,13.07l.5.26c-.96,1-1.56,2.23-1.56,3.72s.59,2.73,1.56,3.72l-.5.26c-1-1.02-1.66-2.35-1.66-3.98s.66-2.96,1.66-3.98Z"/>
      <path class="cls-1" d="m88.94,14.39c0,.19,0,.48.02.81h1.31c.22,0,.54-.03.71-.05v.7c-.19,0-.48-.02-.69-.02h-1.33c.02,1.25.05,2.92.06,3.96,0,.43-.26.67-.76.67-.43,0-.93-.02-1.34-.05l-.06-.69c.4.07.87.1,1.18.1.24,0,.31-.11.31-.33,0-.67,0-1.92-.03-3.04-.69.99-2.16,2.34-3.65,3.14l-.49-.54c1.7-.83,3.19-2.22,3.85-3.22h-2.75c-.28,0-.53,0-.79.03v-.71c.24.03.51.05.77.05h3.04c0-.33-.02-.62-.03-.81-.03-.32-.04-.53-.08-.7h.78c-.03.23-.05.47-.05.7Z"/>
      <path class="cls-1" d="m95.58,18.48c1.29-.81,2.31-2.05,2.79-3.08l.4.71c-.57,1.04-1.55,2.18-2.81,2.98-.84.53-1.89,1.04-3.29,1.3l-.44-.69c1.46-.22,2.55-.73,3.34-1.22Zm-.49-2.65l-.53.53c-.42-.43-1.46-1.33-2.08-1.75l.48-.51c.59.39,1.66,1.26,2.13,1.73Z"/>
      <path class="cls-1" d="m102.14,17.05c0,.49-.39.89-.89.89s-.89-.39-.89-.89.39-.89.89-.89.89.39.89.89Z"/>
      <path class="cls-1" d="m108.89,14.39c0,.19,0,.48.02.81h1.31c.22,0,.54-.03.71-.05v.7c-.19,0-.48-.02-.69-.02h-1.33c.02,1.25.05,2.92.06,3.96,0,.43-.26.67-.76.67-.43,0-.93-.02-1.34-.05l-.06-.69c.4.07.87.1,1.18.1.24,0,.31-.11.31-.33,0-.67,0-1.92-.03-3.04-.69.99-2.16,2.34-3.65,3.14l-.49-.54c1.7-.83,3.19-2.22,3.85-3.22h-2.75c-.28,0-.53,0-.79.03v-.71c.24.03.51.05.77.05h3.04c0-.33-.02-.62-.03-.81-.03-.32-.04-.53-.08-.7h.78c-.03.23-.05.47-.05.7Z"/>
      <path class="cls-1" d="m117.91,15.09c-.18.88-.58,2.22-1.25,3.09-.76.98-1.76,1.76-3.29,2.24l-.57-.63c1.62-.41,2.56-1.12,3.26-2.01.59-.76.98-1.92,1.09-2.73h-4.27c-.33,0-.62.02-.84.02v-.74c.23.02.56.05.84.05h4.2c.13,0,.28,0,.44-.04l.51.33c-.06.12-.09.26-.12.42Z"/>
      <path class="cls-1" d="m119.54,21.03l-.5-.26c.96-1,1.55-2.23,1.55-3.72s-.59-2.73-1.55-3.72l.5-.26c1,1.02,1.66,2.35,1.66,3.98s-.66,2.96-1.66,3.98Z"/>
      <path class="cls-1" d="m18.48,28.4c-.6.98-1.66,2.34-3.04,3.39.5.5,1.09,1.13,1.43,1.54l-.61.49c-.31-.43-.98-1.16-1.5-1.71-.5-.5-1.47-1.34-1.92-1.65l.54-.44c.31.23,1,.79,1.56,1.3,1.23-.92,2.19-2.15,2.61-2.9h-4.92c-.33,0-.69.03-.85.05v-.75c.23.03.56.07.85.07h4.98c.23,0,.43-.02.54-.07l.53.43c-.08.09-.16.18-.21.26Z"/>
      <path class="cls-1" d="m22.09,30.03l-.38.58c-.41-.3-1.32-.89-1.82-1.15l.37-.57c.49.27,1.47.86,1.84,1.13Zm.97,1.99c1.39-.79,2.49-1.88,3.17-3.06l.4.69c-.72,1.13-1.88,2.21-3.21,2.99-.84.49-2,.88-2.78,1.04l-.38-.68c.92-.16,1.96-.49,2.8-.98Zm.27-3.82l-.39.57c-.4-.3-1.3-.9-1.8-1.19l.38-.56c.49.28,1.46.91,1.81,1.18Z"/>
      <path class="cls-1" d="m29,29.86h4.58c.42,0,.72-.03.9-.04v.82c-.17,0-.52-.04-.9-.04h-4.59c-.46,0-.9.02-1.16.04v-.82c.25.02.69.04,1.16.04Z"/>
      <path class="cls-1" d="m39.54,31.69c1.29-.81,2.31-2.05,2.79-3.08l.4.71c-.57,1.04-1.55,2.18-2.81,2.98-.84.53-1.89,1.04-3.29,1.3l-.44-.69c1.46-.22,2.55-.73,3.34-1.22Zm-.49-2.65l-.53.53c-.42-.43-1.46-1.33-2.08-1.75l.48-.51c.59.39,1.66,1.26,2.13,1.73Z"/>
      <path class="cls-1" d="m48.46,27.59c0,.19,0,.48.02.81h1.31c.22,0,.54-.03.71-.05v.7c-.19,0-.48-.02-.69-.02h-1.33c.02,1.25.05,2.92.06,3.96,0,.43-.26.67-.76.67-.43,0-.93-.02-1.34-.05l-.06-.69c.4.07.87.1,1.18.1.24,0,.31-.11.31-.33,0-.67,0-1.92-.03-3.04-.69.99-2.16,2.34-3.65,3.14l-.49-.54c1.7-.83,3.19-2.22,3.85-3.22h-2.75c-.28,0-.53,0-.79.03v-.71c.24.03.51.05.77.05h3.04c0-.33-.02-.62-.03-.81-.03-.32-.04-.53-.08-.7h.78c-.03.23-.05.47-.05.7Z"/>
      <path class="cls-1" d="m57.49,28.3c-.18.88-.59,2.22-1.25,3.09-.76.98-1.76,1.76-3.29,2.24l-.57-.63c1.62-.41,2.56-1.12,3.26-2.01.59-.76.98-1.92,1.09-2.73h-4.27c-.33,0-.62.02-.84.02v-.74c.23.02.56.05.84.05h4.2c.13,0,.28,0,.44-.04l.51.33c-.06.12-.09.26-.12.42Z"/>
      <path class="cls-1" d="m61.33,27.56c-.08.24-.18.54-.32.84h3.95c.21,0,.54,0,.79-.04v.72c-.27-.02-.59-.02-.79-.02h-1.41c-.13,2.39-1.07,3.79-2.51,4.71l-.71-.48c.23-.09.49-.23.68-.38.82-.62,1.72-1.71,1.84-3.84h-2.14c-.34.63-.9,1.39-1.4,1.79l-.66-.39c.6-.43,1.2-1.29,1.49-1.8.23-.42.38-.85.48-1.17.07-.22.11-.45.13-.67l.8.16c-.07.19-.15.41-.21.59Z"/>
      <path class="cls-1" d="m73.52,28.09c-.33.57-1.13,1.65-2.08,2.31l-.55-.44c.77-.44,1.56-1.35,1.83-1.87h-4.77c-.31,0-.63.02-.95.05v-.76c.29.04.64.08.95.08h4.8c.16,0,.46-.03.58-.05l.41.39c-.06.08-.17.21-.23.3Zm-5.44,5.66l-.62-.5c.23-.08.52-.21.75-.38,1.3-.79,1.48-1.98,1.48-3.38,0-.2,0-.38-.03-.6h.75c0,2.27-.2,3.8-2.33,4.86Z"/>
    </g>
    <g>
      <path class="cls-1" d="m3.14,6.3H0v-3.14h3.14v3.14Z"/>
      <path class="cls-1" d="m3.14,19.07H0v-3.14h3.14v3.14Z"/>
      <path class="cls-1" d="m3.14,31.83H0v-3.14h3.14v3.14Z"/>
    </g>
  </g>
</svg>