<?xml version="1.0" encoding="UTF-8"?>
<svg id="_レイヤー_2" data-name="レイヤー 2" xmlns="http://www.w3.org/2000/svg" viewBox="0 0 143.81 58.16">
  <defs>
    <style>
      .cls-1 {
        fill: #231815;
      }
    </style>
  </defs>
  <g id="_レイヤー_1-2" data-name="レイヤー 1">
    <g>
      <path class="cls-1" d="m18.19,4.2c-.25.76-.67,1.39-1.18,1.89.46.35,1,.62,1.62.77-.13.11-.29.33-.36.46-.64-.18-1.2-.49-1.68-.88-.49.38-1.04.65-1.6.84-.06-.14-.21-.34-.31-.45v.5h-.57v-.78c-.98.12-1.96.23-2.71.32l-.06-.53c.22-.02.48-.04.76-.07v-2.7h-.69v-.5h7.01v.5h-3.76v3.25c.53-.16,1.05-.42,1.51-.76-.37-.4-.67-.88-.88-1.41l.35-.1h-.69v-.47h2.76l.1-.02.36.14Zm-.65-1.57h-5.16V.26h5.16v2.37Zm-4.88.95v.54h1.45v-.54h-1.45Zm0,1.55h1.45v-.56h-1.45v.56Zm0,1.09c.46-.05.96-.1,1.45-.15v-.49h-1.45v.64ZM16.95.68h-4.01v.55h4.01v-.55Zm0,.96h-4.01v.56h4.01v-.56Zm-1.15,2.91c.18.44.46.84.79,1.18.36-.34.66-.73.87-1.18h-1.65Z"/>
      <path class="cls-1" d="m20.42,4.65c-.11.75-.3,1.52-.57,2.04-.1-.07-.34-.18-.47-.22.26-.49.43-1.2.52-1.91l.51.1Zm5.88-3.63c-.31.76-.77,1.43-1.32,1.99.58.51,1.25.93,1.94,1.18-.12.12-.3.34-.39.49-.7-.29-1.36-.75-1.95-1.3-.59.51-1.24.92-1.9,1.2-.06-.09-.16-.24-.26-.35l-.38.17c-.03-.12-.08-.27-.14-.43l-.63.04v3.34h-.53v-3.31c-.46.02-.89.05-1.26.07l-.05-.53.53-.02c.17-.22.35-.47.53-.74-.25-.35-.67-.8-1.04-1.13l.31-.39c.08.06.15.14.23.21.27-.45.55-1.05.72-1.49l.52.21c-.27.53-.61,1.16-.91,1.61.18.18.34.36.47.52.31-.5.6-1.01.81-1.44l.51.22c-.46.76-1.07,1.7-1.6,2.39l1.18-.05c-.11-.25-.24-.5-.37-.72l.42-.17c.29.45.57,1.04.7,1.45.61-.26,1.21-.62,1.73-1.06-.32-.35-.61-.74-.85-1.14-.25.3-.52.59-.84.85-.09-.13-.28-.3-.41-.38.86-.67,1.44-1.58,1.73-2.31l.59.1c-.1.24-.23.49-.38.74h1.8l.1-.03.36.21Zm-4.31,3.47c.22.46.43,1.07.51,1.46l-.46.15c-.08-.4-.28-1-.49-1.47l.43-.14Zm1.16,1.18c1.06.3,2.37.83,3.09,1.22l-.35.47c-.71-.43-2.01-.96-3.09-1.27l.35-.42Zm.88-1.46c.55.23,1.26.61,1.63.89l-.37.41c-.36-.29-1.06-.69-1.62-.93l.36-.37Zm-.35-2.81c.24.43.55.84.92,1.23.38-.39.7-.81.94-1.28h-1.81l-.04.05Z"/>
      <path class="cls-1" d="m31.12,1.02c.73-.1,1.68-.3,2.07-.47l.43.55c-.18.05-.34.09-.45.12-.4.1-1.02.23-1.6.31v1.54h2.22c.18,0,.47-.02.63-.03v.67c-.18-.02-.42-.03-.62-.03h-2.24c-.09,1.5-.67,2.56-2.05,3.36l-.63-.44c1.27-.59,1.93-1.49,2.03-2.92h-2.38c-.26,0-.53.02-.72.03v-.67c.19.02.47.03.71.03h2.42v-1.46c-.81.08-1.72.1-2.34.11l-.16-.59c.61.02,1.83,0,2.7-.12Z"/>
      <path class="cls-1" d="m36.36,2.6h3.69c.2,0,.4-.02.57-.03v.64c-.18-.02-.39-.02-.57-.02h-1.57v2.95h1.94c.19,0,.38-.02.54-.04v.67c-.16-.02-.41-.02-.54-.02h-4.44c-.18,0-.39,0-.58.02v-.67c.18.02.39.04.58.04h1.85v-2.95h-1.48c-.13,0-.39,0-.55.02v-.64c.17.02.43.03.55.03Z"/>
      <path class="cls-1" d="m43.54,4.31l-.61.23c-.12-.42-.55-1.53-.71-1.81l.59-.23c.16.34.58,1.4.73,1.81Zm3.92-1.36c-.22.88-.56,1.74-1.14,2.46-.74.95-1.72,1.57-2.62,1.91l-.53-.54c.93-.27,1.95-.88,2.61-1.71.57-.7.99-1.72,1.11-2.75l.69.22c-.06.17-.09.3-.12.4Zm-2.15.88l-.59.21c-.09-.36-.46-1.38-.63-1.74l.59-.2c.14.32.53,1.38.63,1.73Z"/>
      <path class="cls-1" d="m51.92,1.12c-.06.11-.12.22-.19.34h2.18c.22,0,.39-.02.52-.08l.54.33c-.06.11-.14.3-.18.43-.22.81-.71,1.89-1.43,2.76-.73.89-1.69,1.63-3.19,2.18l-.58-.52c1.47-.43,2.47-1.16,3.2-2.01.63-.74,1.12-1.77,1.28-2.5h-2.71c-.49.67-1.16,1.39-2.04,1.97l-.55-.42c1.38-.83,2.18-1.99,2.52-2.71.08-.14.2-.43.25-.63l.75.24c-.14.21-.28.48-.35.63Z"/>
      <path class="cls-1" d="m22.99,13.73c0,.29-.02.56-.04.83h1.91c.22,0,.38-.02.51-.04l.45.22c-.02.14-.04.29-.04.39-.03.77-.13,3.11-.49,3.88-.16.34-.42.49-.86.49-.41,0-.87-.03-1.29-.06l-.08-.67c.43.06.86.09,1.2.09.23,0,.38-.06.47-.26.31-.61.41-2.58.41-3.44h-2.25c-.29,2.3-1.12,3.52-2.46,4.45l-.59-.47c.26-.14.59-.36.83-.59.79-.72,1.37-1.73,1.59-3.38h-1.35c-.31,0-.64,0-.92.03v-.68c.28.03.61.05.91.05h1.41c.02-.26.03-.53.03-.82,0-.18-.02-.47-.06-.67h.75c-.02.18-.04.47-.05.66Z"/>
      <path class="cls-1" d="m30.8,13.56v.75h1.8c.3,0,.45-.02.55-.06l.43.27c-.04.12-.09.33-.12.48-.1.64-.34,1.65-.79,2.42-.6,1.05-1.71,1.87-3.18,2.27l-.52-.6c.27-.04.58-.13.83-.22.8-.26,1.69-.86,2.18-1.61.43-.68.69-1.65.76-2.34h-4.49v1.44c0,.14,0,.35.03.48h-.7c.02-.14.02-.36.02-.51v-1.41c0-.17,0-.44-.02-.62.23.02.47.03.75.03h1.77v-.75c0-.17,0-.35-.04-.6h.77c-.04.25-.05.43-.05.6Z"/>
      <path class="cls-1" d="m38.1,17.71c1.24-.78,2.21-1.97,2.68-2.95l.39.68c-.55,1-1.48,2.09-2.7,2.86-.8.51-1.81,1-3.15,1.24l-.43-.66c1.4-.21,2.45-.7,3.21-1.17Zm-.47-2.54l-.51.51c-.4-.42-1.4-1.28-2-1.68l.46-.49c.57.38,1.6,1.21,2.05,1.66Z"/>
      <path class="cls-1" d="m43.93,15.92c-.81.17-1.52.31-1.85.38l-.12-.67c.36-.05,1.12-.18,1.97-.35v-1.37c0-.24-.02-.51-.06-.74h.76c-.04.23-.06.51-.06.74v1.25c1.36-.26,2.77-.55,3.11-.63.18-.04.33-.09.43-.14l.47.37c-.06.08-.14.22-.19.32-.37.67-1,1.67-1.65,2.34l-.56-.34c.6-.54,1.19-1.43,1.43-1.91-.14.02-1.61.32-3.03.61v2.39c0,.55.21.73,1.16.73s1.7-.08,2.5-.23l-.03.69c-.71.1-1.52.16-2.52.16-1.49,0-1.77-.39-1.77-1.18v-2.43Z"/>
      <path class="cls-1" d="m51.27,13.94v2.68c0,.2.02.46.03.61h-.74c.02-.12.04-.38.04-.62v-2.67c0-.14-.02-.42-.03-.58h.73c-.02.15-.03.38-.03.58Zm3.73.06v1.3c0,1.93-.26,2.56-.84,3.25-.52.63-1.32.97-1.91,1.17l-.52-.55c.74-.18,1.42-.51,1.92-1.07.57-.67.67-1.32.67-2.83v-1.27c0-.27-.02-.5-.04-.7h.75c-.02.2-.02.43-.02.7Z"/>
      <path class="cls-1" d="m60.04,17.71c1.24-.78,2.21-1.97,2.68-2.95l.39.68c-.55,1-1.48,2.09-2.7,2.86-.8.51-1.81,1-3.15,1.24l-.43-.66c1.4-.21,2.45-.7,3.21-1.17Zm-.47-2.54l-.51.51c-.4-.42-1.4-1.28-2-1.68l.46-.49c.57.38,1.6,1.21,2.05,1.66Z"/>
      <path class="cls-1" d="m66.96,13.98c-.06.11-.12.22-.18.34h2.17c.22,0,.39-.02.52-.07l.53.32c-.06.11-.14.3-.19.42-.22.81-.71,1.89-1.42,2.77-.73.89-1.69,1.62-3.19,2.18l-.59-.53c1.48-.43,2.48-1.16,3.21-2.01.62-.73,1.12-1.77,1.28-2.5h-2.71c-.49.68-1.16,1.4-2.04,1.97l-.55-.41c1.38-.83,2.17-2,2.52-2.71.08-.14.2-.43.25-.64l.74.25c-.13.21-.27.48-.35.63Zm3.17.09l-.43.19c-.16-.32-.43-.81-.65-1.11l.43-.18c.2.29.49.77.66,1.1Zm.9-.33l-.43.19c-.18-.34-.44-.8-.67-1.1l.43-.18c.21.3.52.79.67,1.09Z"/>
      <path class="cls-1" d="m73.06,18.38c.38.59,1.08.86,2,.9.88.03,2.66,0,3.6-.06-.06.14-.17.43-.19.61-.88.03-2.52.05-3.4.02-1.04-.04-1.76-.33-2.27-.95-.39.34-.79.68-1.21,1.03l-.32-.6c.37-.24.82-.58,1.22-.92v-2.03h-1.12v-.56h1.7v2.56Zm-.25-3.88c-.25-.39-.84-.92-1.36-1.27l.44-.36c.51.34,1.12.85,1.4,1.24l-.47.39Zm3.34-1.42c.19,2.45.82,4.34,2.42,5.17-.14.1-.35.3-.47.45-1.12-.66-1.77-1.79-2.13-3.25-.42,1.44-1.1,2.53-2.13,3.25-.1-.11-.33-.34-.47-.44,1.17-.75,1.85-2,2.17-3.64l.26.04c-.06-.33-.1-.67-.14-1.02h-1.46v-.56h1.95Z"/>
      <path class="cls-1" d="m81.53,13.53c.43,0,1.48-.06,1.81-.08.15-.02.3-.05.4-.09l.4.33c-.07.09-.14.17-.21.26-.23.36-.58,1.18-.92,1.93.81.09,1.56.35,2.21.64.03-.2.05-.4.06-.59,0-.24.02-.51,0-.74l.65.07c-.02.57-.08,1.08-.17,1.55.39.22.71.43.97.62l-.3.69c-.24-.21-.52-.42-.83-.63-.33,1.04-.95,1.81-2.11,2.38l-.53-.44c1.27-.54,1.85-1.4,2.1-2.26-.67-.38-1.46-.67-2.3-.74-.31.71-.71,1.65-1.01,2.1-.29.41-.59.55-1.01.55-.59,0-1.04-.43-1.04-1.1,0-1.18,1.09-2.09,2.67-2.13.28-.63.59-1.33.83-1.83-.32.02-1.3.06-1.67.08-.18,0-.4.03-.59.05l-.03-.65c.21.02.44.02.6.02Zm-.75,4.92c.18,0,.31-.07.48-.28.29-.38.59-1.12.88-1.75-1.17.09-1.84.79-1.84,1.49,0,.35.23.54.48.54Z"/>
      <path class="cls-1" d="m92.34,13.78c0,.18,0,.46.02.78h1.26c.21,0,.52-.03.68-.05v.67c-.18,0-.47-.02-.66-.02h-1.28c.02,1.2.05,2.8.06,3.8,0,.42-.25.64-.73.64-.42,0-.89-.02-1.28-.05l-.06-.66c.39.06.83.1,1.13.1.23,0,.3-.1.3-.32,0-.64,0-1.84-.02-2.91-.67.95-2.07,2.25-3.51,3.01l-.47-.52c1.63-.79,3.06-2.13,3.69-3.09h-2.64c-.27,0-.51,0-.75.02v-.68c.23.02.49.05.74.05h2.92c0-.32-.02-.59-.02-.78-.02-.3-.04-.51-.07-.67h.75c-.03.22-.05.45-.05.67Z"/>
      <path class="cls-1" d="m101,14.45c-.17.84-.56,2.14-1.2,2.96-.73.94-1.69,1.69-3.16,2.15l-.55-.6c1.56-.39,2.46-1.08,3.13-1.93.57-.73.94-1.85,1.05-2.62h-4.1c-.32,0-.59.02-.8.02v-.71c.23.02.54.05.8.05h4.03c.12,0,.27,0,.43-.04l.49.31c-.06.11-.09.25-.12.4Z"/>
      <path class="cls-1" d="m105.28,13.39c-.03.17-.06.38-.1.61,1.02-.05,2-.15,2.82-.34v.59c-.83.14-1.9.26-2.88.3-.04.31-.06.65-.09.99.45-.13.94-.2,1.35-.2.1,0,.2,0,.3,0,0-.02.02-.05.02-.08.04-.12.08-.33.09-.47l.63.16c-.05.11-.12.33-.16.46,0,0,0,.02,0,.03,1,.26,1.6,1,1.6,1.89,0,1.16-.76,2.15-2.62,2.45l-.35-.54c1.45-.15,2.35-.9,2.35-1.94,0-.61-.41-1.16-1.16-1.37-.46,1.14-1.11,2.03-1.79,2.61.06.23.13.45.19.65l-.58.18c-.05-.14-.09-.29-.13-.45-.44.27-.92.44-1.36.44-.53,0-.95-.33-.95-1.01,0-1.04.9-2.09,2.01-2.6.02-.4.06-.8.09-1.18-.17,0-.33,0-.49,0-.35,0-.97-.03-1.3-.06l-.02-.6c.28.05.98.1,1.32.1.18,0,.36,0,.55,0,.02-.23.05-.44.06-.62,0-.14.02-.29.02-.39l.67.02c-.04.1-.07.25-.1.36Zm-1.75,5.35c.31,0,.7-.14,1.11-.42-.11-.57-.19-1.22-.19-1.82v-.14c-.78.44-1.37,1.24-1.37,1.89,0,.33.15.5.46.5Zm1.61-.84c.54-.51,1.03-1.16,1.36-2.05h-.14c-.52,0-.99.12-1.36.26,0,.11,0,.22,0,.33,0,.51.06,1,.14,1.47Z"/>
      <path class="cls-1" d="m111.55,15.29c.33-.82,1.16-1.82,2.18-1.82s1.83,1.07,1.83,2.75c0,2.23-1.4,3.21-3.39,3.57l-.38-.58c1.74-.26,3.11-.97,3.11-2.99,0-1.27-.43-2.18-1.28-2.18-1,0-1.93,1.46-2.03,2.51-.04.31-.03.59.02.99l-.62.05c-.04-.3-.09-.75-.09-1.28,0-.76.15-1.94.25-2.59.03-.24.05-.47.06-.69l.71.02c-.17.59-.33,1.67-.38,2.23Z"/>
      <path class="cls-1" d="m22.03,28.78l-.37.56c-.39-.29-1.27-.85-1.75-1.1l.35-.55c.47.26,1.41.83,1.77,1.08Zm.93,1.91c1.33-.76,2.39-1.81,3.04-2.94l.39.66c-.69,1.08-1.81,2.12-3.08,2.87-.81.47-1.92.84-2.66,1l-.37-.65c.88-.15,1.88-.47,2.69-.94Zm.26-3.67l-.38.55c-.39-.29-1.25-.87-1.73-1.14l.36-.54c.47.26,1.4.88,1.74,1.13Z"/>
      <path class="cls-1" d="m29.27,27.66c.05.18.14.52.26.95,1.13-.22,2.5-.48,2.77-.55.1-.02.22-.06.31-.1l.4.28c-.34.68-1.16,1.81-1.71,2.34l-.57-.28c.51-.43,1.11-1.17,1.38-1.65-.18.03-1.32.26-2.43.48.32,1.16.71,2.57.82,2.92.05.15.13.4.18.55l-.68.18c-.02-.18-.06-.39-.12-.59-.1-.36-.49-1.78-.8-2.93-.75.15-1.41.28-1.63.33l-.16-.61c.22-.02.43-.05.67-.09.11-.02.49-.09.98-.18-.12-.43-.22-.77-.27-.92-.06-.2-.12-.36-.19-.48l.69-.17c.02.14.06.31.11.51Z"/>
      <path class="cls-1" d="m37.43,30.38c1.24-.78,2.21-1.97,2.68-2.95l.39.68c-.55,1-1.48,2.09-2.7,2.86-.8.51-1.81,1-3.15,1.24l-.43-.66c1.4-.21,2.45-.7,3.21-1.17Zm-.47-2.54l-.51.51c-.4-.42-1.4-1.28-2-1.68l.46-.49c.57.38,1.6,1.21,2.05,1.66Z"/>
      <path class="cls-1" d="m47.37,25.39c.5,0,.91.41.91.91s-.41.9-.91.9c-.1,0-.21-.02-.31-.05,0,.02,0,.06-.02.09-.17.84-.56,2.13-1.2,2.96-.73.94-1.69,1.69-3.16,2.14l-.55-.6c1.56-.38,2.46-1.07,3.13-1.93.57-.73.95-1.85,1.05-2.62h-4.1c-.32,0-.59.02-.8.02v-.71c.22.03.54.06.8.06h4.03c.07,0,.16,0,.26,0-.02-.08-.04-.17-.04-.26,0-.5.4-.91.9-.91Zm0,1.44c.3,0,.54-.24.54-.53s-.24-.54-.54-.54-.53.24-.53.54.24.53.53.53Z"/>
      <path class="cls-1" d="m50.32,28.62h4.4c.4,0,.69-.02.87-.04v.79c-.16,0-.5-.04-.86-.04h-4.41c-.44,0-.87.02-1.12.04v-.79c.24.02.67.04,1.12.04Z"/>
      <path class="cls-1" d="m56.97,30.71l.52-.46c.58.47,1.3,1.2,1.8,1.78l-.55.46c-.51-.63-1.2-1.32-1.77-1.79Z"/>
      <path class="cls-1" d="m62.27,26.68c0-.22-.02-.59-.06-.83h.79c-.02.25-.06.59-.06.83v1.31c1.06.32,2.58.9,3.43,1.32l-.27.68c-.88-.47-2.26-1.01-3.15-1.29,0,1.2,0,2.42,0,2.65,0,.25.02.68.05.95h-.78c.04-.26.06-.65.06-.95v-4.67Z"/>
      <path class="cls-1" d="m69.04,26.61v2.68c0,.2.02.46.03.61h-.74c.02-.12.04-.38.04-.62v-2.67c0-.14-.02-.42-.03-.58h.73c-.02.15-.03.38-.03.58Zm3.73.06v1.3c0,1.93-.26,2.56-.84,3.25-.52.63-1.32.97-1.91,1.17l-.52-.55c.74-.18,1.42-.51,1.92-1.07.57-.67.67-1.32.67-2.83v-1.27c0-.27-.02-.5-.04-.7h.75c-.02.2-.02.43-.02.7Z"/>
      <path class="cls-1" d="m75.79,28.62h4.4c.4,0,.69-.02.87-.04v.79c-.16,0-.5-.04-.86-.04h-4.41c-.44,0-.87.02-1.12.04v-.79c.24.02.67.04,1.12.04Z"/>
      <path class="cls-1" d="m83.53,26.68c0-.22-.02-.59-.06-.83h.79c-.02.25-.06.59-.06.83v1.31c1.06.32,2.58.9,3.43,1.32l-.27.68c-.88-.47-2.26-1.01-3.15-1.29,0,1.2,0,2.42,0,2.65,0,.25.02.68.05.95h-.78c.04-.26.06-.65.06-.95v-4.67Z"/>
      <path class="cls-1" d="m94.18,26.8c-.26.71-.67,1.59-1.2,2.37.72.59,1.41,1.22,1.98,1.84l-.51.55c-.59-.68-1.2-1.25-1.89-1.85-.75.91-1.75,1.86-3.15,2.59l-.55-.51c1.4-.66,2.39-1.55,3.19-2.52-.59-.48-1.49-1.14-2.26-1.62l.42-.51c.69.44,1.62,1.1,2.26,1.59.52-.75.85-1.51,1.09-2.19.06-.16.13-.42.16-.59l.74.26c-.09.14-.2.42-.26.59Z"/>
      <path class="cls-1" d="m99.5,30.38c1.24-.78,2.21-1.97,2.68-2.95l.39.68c-.55,1-1.48,2.09-2.7,2.86-.8.51-1.81,1-3.15,1.24l-.43-.66c1.4-.21,2.45-.7,3.21-1.17Zm-.47-2.54l-.51.51c-.4-.42-1.4-1.28-2-1.68l.46-.49c.57.38,1.6,1.21,2.05,1.66Z"/>
      <path class="cls-1" d="m104.45,26.68c0-.22-.02-.59-.06-.83h.79c-.02.25-.06.59-.06.83v1.31c1.06.32,2.58.9,3.43,1.32l-.27.68c-.88-.47-2.26-1.01-3.15-1.29,0,1.2,0,2.42,0,2.65,0,.25.02.68.05.95h-.78c.04-.26.06-.65.06-.95v-4.67Z"/>
      <path class="cls-1" d="m109.73,30.71l.52-.46c.58.47,1.3,1.2,1.8,1.78l-.55.46c-.51-.63-1.2-1.32-1.77-1.79Z"/>
      <path class="cls-1" d="m118.65,26.45c0,.18,0,.46.02.78h1.26c.21,0,.52-.03.68-.05v.67c-.18,0-.47-.02-.66-.02h-1.28c.02,1.2.05,2.8.06,3.8,0,.42-.25.64-.73.64-.42,0-.89-.02-1.28-.05l-.06-.66c.39.06.83.1,1.13.1.23,0,.3-.1.3-.32,0-.64,0-1.84-.02-2.91-.67.95-2.07,2.25-3.51,3.01l-.47-.52c1.63-.79,3.06-2.13,3.69-3.09h-2.64c-.27,0-.51,0-.75.02v-.68c.23.02.49.05.74.05h2.92c0-.32-.02-.59-.02-.78-.02-.3-.04-.51-.07-.67h.75c-.03.22-.05.45-.05.67Z"/>
      <path class="cls-1" d="m127.31,27.12c-.17.84-.56,2.14-1.2,2.96-.73.94-1.69,1.69-3.16,2.15l-.55-.6c1.56-.39,2.46-1.08,3.13-1.93.57-.73.94-1.85,1.05-2.62h-4.1c-.32,0-.59.02-.8.02v-.71c.23.02.54.05.8.05h4.03c.12,0,.27,0,.43-.04l.49.31c-.06.11-.09.25-.12.4Z"/>
      <path class="cls-1" d="m130.13,31.04c.38.59,1.08.86,2,.9.88.03,2.66,0,3.6-.06-.06.14-.17.43-.19.61-.88.03-2.52.05-3.4.02-1.04-.04-1.76-.33-2.27-.95-.39.34-.79.68-1.21,1.03l-.32-.6c.37-.24.82-.58,1.22-.92v-2.03h-1.12v-.56h1.7v2.56Zm-.25-3.88c-.25-.39-.84-.92-1.36-1.27l.44-.36c.51.34,1.12.85,1.4,1.24l-.47.39Zm3.34-1.42c.19,2.45.82,4.34,2.42,5.17-.14.1-.35.3-.47.45-1.12-.66-1.77-1.79-2.13-3.25-.42,1.44-1.1,2.53-2.13,3.25-.1-.11-.33-.34-.47-.44,1.17-.75,1.85-2,2.17-3.64l.26.04c-.06-.33-.1-.67-.14-1.02h-1.46v-.56h1.95Z"/>
      <path class="cls-1" d="m138.6,26.2c.43,0,1.48-.06,1.81-.08.15-.02.3-.05.4-.09l.4.33c-.07.09-.14.17-.21.26-.23.36-.58,1.18-.92,1.93.81.09,1.56.35,2.21.64.03-.2.05-.4.06-.59,0-.24.02-.51,0-.74l.65.07c-.02.57-.08,1.08-.17,1.55.39.22.71.43.97.62l-.3.69c-.24-.21-.52-.42-.83-.63-.33,1.04-.95,1.81-2.11,2.38l-.53-.44c1.27-.54,1.85-1.4,2.1-2.26-.67-.38-1.46-.67-2.3-.74-.31.71-.71,1.65-1.01,2.1-.29.41-.59.55-1.01.55-.59,0-1.04-.43-1.04-1.1,0-1.18,1.09-2.09,2.67-2.13.28-.63.59-1.33.83-1.83-.32.02-1.3.06-1.67.08-.18,0-.4.03-.59.05l-.03-.65c.21.02.44.02.6.02Zm-.75,4.92c.18,0,.31-.07.48-.28.29-.38.59-1.12.88-1.75-1.17.09-1.84.79-1.84,1.49,0,.35.23.54.48.54Z"/>
      <path class="cls-1" d="m21.03,39.06h3.82c.26,0,.48-.02.66-.03v.64c-.19,0-.38-.02-.66-.02h-2.09v1.7h2.71c.17,0,.49-.02.67-.03v.66c-.18-.02-.47-.02-.65-.02h-2.72v1.61c0,.4.28.64,1.02.64s1.42-.03,2.11-.11l-.04.67c-.63.05-1.4.08-2.16.08-1.21,0-1.6-.42-1.6-1.08v-1.81h-1.57c-.2,0-.53.02-.75.03v-.67c.22.02.55.04.75.04h1.57v-1.7h-1.07c-.27,0-.51,0-.72.02v-.64c.22.02.45.03.72.03Z"/>
      <path class="cls-1" d="m28.1,40.91h5.26c.17,0,.43,0,.63-.04v.67c-.18,0-.43-.02-.63-.02h-2.18c-.02.87-.15,1.6-.47,2.2-.29.53-.9,1.11-1.58,1.46l-.59-.44c.63-.26,1.2-.72,1.52-1.23.35-.55.44-1.23.47-1.99h-2.41c-.24,0-.47,0-.69.02v-.67c.22.02.44.04.69.04Zm.99-2.01h2.78c.23,0,.51-.02.75-.05v.67c-.23-.02-.51-.02-.75-.02h-2.77c-.26,0-.53,0-.74.02v-.67c.23.02.47.05.73.05Zm4.6.4l-.43.19c-.16-.33-.43-.81-.65-1.12l.43-.18c.2.28.5.77.66,1.1Zm.9-.33l-.43.19c-.18-.35-.43-.8-.67-1.11l.43-.18c.21.29.52.79.67,1.09Z"/>
      <path class="cls-1" d="m36.23,42.54c.23-.73.24-2.33.24-3.23,0-.24-.02-.42-.06-.59h.74c0,.1-.04.34-.04.58,0,.89-.03,2.61-.25,3.41-.24.86-.75,1.65-1.43,2.21l-.6-.41c.67-.48,1.16-1.2,1.4-1.97Zm2.34,1.57v-4.81c0-.3-.04-.54-.05-.59h.74c0,.06-.03.29-.03.59v4.63c.74-.34,1.73-1.07,2.34-1.97l.38.54c-.69.94-1.81,1.77-2.74,2.22-.13.07-.22.14-.27.18l-.43-.35c.03-.13.06-.29.06-.45Z"/>
      <path class="cls-1" d="m43.52,40.84h5.26c.17,0,.43,0,.63-.04v.67c-.18,0-.43-.02-.63-.02h-2.18c-.02.87-.15,1.6-.47,2.19-.29.54-.9,1.12-1.58,1.47l-.59-.44c.63-.26,1.2-.72,1.52-1.23.35-.56.44-1.24.47-1.99h-2.41c-.24,0-.47,0-.7.02v-.67c.22.02.45.04.7.04Zm.99-2.01h3.25c.22,0,.51-.02.75-.05v.67c-.23-.02-.51-.02-.75-.02h-3.24c-.27,0-.53,0-.73.02v-.67c.22.02.47.05.72.05Z"/>
      <path class="cls-1" d="m55.7,39.71c-.27.69-.78,1.63-1.35,2.35.84.72,1.82,1.77,2.34,2.4l-.56.48c-.54-.71-1.39-1.65-2.21-2.38-.86.92-1.94,1.81-3.13,2.34l-.51-.54c1.29-.51,2.48-1.46,3.31-2.38.55-.62,1.13-1.56,1.33-2.23h-3.13c-.28,0-.72.03-.81.04v-.73c.11.02.57.05.81.05h3.1c.26,0,.47-.02.6-.06l.41.31c-.05.06-.15.24-.2.35Z"/>
      <path class="cls-1" d="m58.81,39.35c0-.22-.02-.59-.06-.83h.79c-.02.25-.06.59-.06.83v1.31c1.06.32,2.58.9,3.43,1.32l-.27.68c-.88-.47-2.26-1.01-3.15-1.29,0,1.2,0,2.42,0,2.65,0,.25.02.68.05.95h-.78c.04-.26.06-.65.06-.95v-4.67Z"/>
      <path class="cls-1" d="m15.25,51.56c0,.1,0,.28,0,.49.72-.03,1.45-.1,2.17-.22v.59c-.64.07-1.4.14-2.17.18v1.12c.78-.03,1.51-.1,2.24-.22v.6c-.76.1-1.47.16-2.23.18.02.42.04.85.06,1.24,1.07.29,1.89.88,2.34,1.25l-.37.57c-.47-.43-1.14-.92-1.94-1.21,0,.2.02.37.02.5,0,.55-.37,1.12-1.41,1.12-1.16,0-1.78-.41-1.78-1.18,0-.73.7-1.23,1.85-1.23.23,0,.46.02.67.05,0-.36-.02-.75-.03-1.09h-.46c-.55,0-1.43-.05-2.01-.11v-.6c.57.1,1.48.15,2.01.15h.43v-1.12h-.35c-.56,0-1.55-.08-2.05-.14v-.59c.51.1,1.51.18,2.05.18h.37v-.57c0-.14-.02-.37-.03-.48h.68c-.02.14-.04.31-.05.54Zm-1.38,5.64c.46,0,.85-.14.85-.7,0-.14,0-.33,0-.54-.25-.06-.51-.08-.78-.08-.76,0-1.18.3-1.18.67s.32.65,1.12.65Z"/>
      <path class="cls-1" d="m19.75,52.97c.68-.22,2.26-.79,3.43-.79,1.33,0,2.39.77,2.39,2.12,0,1.92-1.92,2.85-4.39,2.99l-.29-.67c2.1-.06,3.98-.69,3.98-2.34,0-.84-.63-1.5-1.71-1.5-1.32,0-3.36.88-4,1.13l-.3-.71c.29-.06.58-.14.88-.23Z"/>
      <path class="cls-1" d="m32.75,57.29c.47,0,.55-.21.62-1.13.15.11.4.2.59.25-.1,1.11-.3,1.46-1.19,1.46h-2.05c-.96,0-1.24-.23-1.24-1.12v-1.07l-2.62.35-.09-.56,2.7-.35v-1.24l-2.37.33-.09-.56,2.46-.34v-1.22c-.81.15-1.64.28-2.42.38-.02-.14-.11-.38-.18-.51,1.98-.26,4.25-.7,5.48-1.21l.51.47c-.76.3-1.74.55-2.78.77v1.24l3.05-.43.08.55-3.13.44v1.25l3.59-.47.08.55-3.67.48v1.16c0,.43.1.52.67.52h2Z"/>
      <path class="cls-1" d="m36.16,52.07h4.41c.24,0,.49-.02.68-.05v.71c-.2-.02-.46-.03-.68-.03h-1.93v3.69h2.36c.24,0,.46-.02.67-.05v.73c-.22-.03-.51-.03-.67-.03h-5.31c-.22,0-.46,0-.71.03v-.73c.24.03.49.05.71.05h2.26v-3.69h-1.81c-.15,0-.47,0-.67.03v-.71c.21.03.51.05.67.05Z"/>
      <path class="cls-1" d="m46.11,51.79c-.06.11-.12.22-.19.34h2.18c.22,0,.39-.02.52-.08l.54.33c-.06.11-.14.3-.19.43-.22.81-.71,1.89-1.43,2.76-.73.89-1.69,1.63-3.19,2.18l-.58-.52c1.47-.43,2.47-1.16,3.2-2.01.63-.74,1.12-1.77,1.28-2.5h-2.71c-.49.67-1.16,1.39-2.04,1.97l-.55-.42c1.38-.83,2.18-1.99,2.52-2.71.08-.14.2-.43.25-.63l.75.24c-.14.21-.28.48-.35.63Z"/>
      <path class="cls-1" d="m55.61,52.38c-.27.69-.78,1.63-1.35,2.35.84.72,1.82,1.77,2.34,2.4l-.56.48c-.54-.71-1.39-1.65-2.21-2.38-.86.92-1.94,1.81-3.13,2.34l-.51-.54c1.29-.51,2.48-1.46,3.31-2.38.55-.62,1.13-1.56,1.33-2.23h-3.13c-.28,0-.72.03-.81.04v-.73c.11.02.57.05.81.05h3.1c.26,0,.47-.02.6-.06l.41.31c-.05.06-.15.24-.2.35Z"/>
      <path class="cls-1" d="m58.33,53.51h5.26c.17,0,.43,0,.63-.04v.67c-.18,0-.43-.02-.63-.02h-2.18c-.02.87-.15,1.6-.47,2.19-.29.54-.9,1.12-1.58,1.47l-.59-.44c.63-.26,1.2-.72,1.52-1.23.35-.56.44-1.24.47-1.99h-2.41c-.24,0-.47,0-.7.02v-.67c.22.02.45.04.7.04Zm.99-2.01h3.25c.22,0,.51-.02.75-.05v.67c-.23-.02-.51-.02-.75-.02h-3.24c-.27,0-.53,0-.73.02v-.67c.22.02.47.05.72.05Z"/>
      <path class="cls-1" d="m66.57,51.73h3.82c.26,0,.48-.02.66-.03v.64c-.19,0-.38-.02-.66-.02h-2.09v1.7h2.71c.17,0,.49-.02.67-.03v.66c-.18-.02-.47-.02-.65-.02h-2.72v1.61c0,.4.28.64,1.02.64s1.42-.03,2.11-.11l-.04.67c-.63.05-1.4.08-2.16.08-1.21,0-1.6-.42-1.6-1.08v-1.81h-1.57c-.2,0-.53.02-.75.03v-.67c.22.02.55.04.75.04h1.57v-1.7h-1.07c-.27,0-.51,0-.72.02v-.64c.22.02.45.03.72.03Z"/>
      <path class="cls-1" d="m73.64,53.58h5.26c.17,0,.43,0,.63-.04v.67c-.18,0-.43-.02-.63-.02h-2.18c-.02.87-.15,1.6-.47,2.2-.29.53-.9,1.11-1.58,1.46l-.59-.44c.63-.26,1.2-.72,1.52-1.23.35-.55.44-1.23.47-1.99h-2.41c-.24,0-.47,0-.69.02v-.67c.22.02.44.04.69.04Zm.99-2.01h2.78c.23,0,.51-.02.75-.05v.67c-.23-.02-.51-.02-.75-.02h-2.77c-.26,0-.53,0-.74.02v-.67c.23.02.47.05.73.05Zm4.6.4l-.43.19c-.16-.33-.43-.81-.65-1.12l.43-.18c.2.28.5.77.66,1.1Zm.9-.33l-.43.19c-.18-.35-.43-.8-.67-1.11l.43-.18c.21.29.52.79.67,1.09Z"/>
      <path class="cls-1" d="m81.77,55.21c.23-.73.24-2.34.24-3.23,0-.24-.02-.42-.06-.59h.74c0,.1-.04.34-.04.58,0,.89-.03,2.61-.25,3.41-.24.86-.75,1.65-1.43,2.21l-.6-.41c.67-.48,1.16-1.2,1.4-1.97Zm2.34,1.56v-4.81c0-.3-.04-.54-.05-.59h.74c0,.06-.03.29-.03.59v4.63c.74-.34,1.73-1.07,2.34-1.97l.38.54c-.69.94-1.81,1.77-2.74,2.22-.13.07-.22.14-.27.18l-.43-.35c.03-.13.06-.29.06-.45Z"/>
      <path class="cls-1" d="m92.34,51.17c0,1.42.18,4.45,3.33,6.32-.14.1-.38.35-.48.5-1.97-1.2-2.83-2.95-3.19-4.47-.59,2.08-1.6,3.54-3.2,4.48-.11-.12-.38-.37-.54-.47,1.77-.92,2.76-2.54,3.25-4.78l.35.06c-.06-.37-.09-.72-.1-1.03h-1.97v-.59h2.55Z"/>
      <path class="cls-1" d="m102.34,52.91c-.39.59-.94,1.11-1.58,1.54.9.42,1.98.7,3.11.84-.14.14-.3.39-.38.57-.37-.06-.73-.13-1.08-.22v2.34h-.6v-.26h-3.24v.26h-.57v-2.27c-.41.13-.82.23-1.22.32-.06-.15-.18-.39-.3-.52,1.08-.19,2.21-.55,3.17-1.05-.41-.27-.78-.59-1.08-.94-.36.29-.78.55-1.25.79-.09-.14-.27-.33-.4-.42,1.1-.49,1.88-1.19,2.28-1.81l.64.12c-.11.16-.23.32-.37.47h2.37l.1-.02.4.25Zm-4.95,0h-.57v-1.5h3.04v-.71h.6v.71h3.07v1.5h-.59v-.95h-5.55v.95Zm4.7,2.66c-.68-.19-1.32-.44-1.89-.75-.53.3-1.1.55-1.69.75h3.57Zm-.27,1.66v-1.16h-3.24v1.16h3.24Zm-2.83-4.03c.31.37.73.69,1.22.97.48-.3.9-.63,1.22-1h-2.42l-.02.03Z"/>
      <path class="cls-1" d="m107.55,50.52l.48.25c-.92.96-1.49,2.14-1.49,3.57s.57,2.62,1.49,3.57l-.48.25c-.96-.98-1.6-2.25-1.6-3.82s.63-2.84,1.6-3.82Z"/>
      <path class="cls-1" d="m109.31,56.78h1.31v-4.22h-1.04v-.47c.52-.09.9-.22,1.22-.42h.56v5.11h1.18v.61h-3.23v-.61Z"/>
      <path class="cls-1" d="m113.61,56.96c1.73-1.72,2.7-2.75,2.7-3.68,0-.65-.35-1.12-1.08-1.12-.48,0-.9.31-1.22.68l-.43-.41c.48-.52.99-.87,1.73-.87,1.05,0,1.71.67,1.71,1.68,0,1.08-.98,2.14-2.34,3.57.3-.02.66-.06.96-.06h1.66v.63h-3.7v-.43Z"/>
      <path class="cls-1" d="m118.3,54.51c0-1.92.7-2.95,1.84-2.95s1.83,1.04,1.83,2.95-.69,2.99-1.83,2.99-1.84-1.07-1.84-2.99Zm2.95,0c0-1.68-.45-2.36-1.12-2.36s-1.12.68-1.12,2.36.45,2.4,1.12,2.4,1.12-.72,1.12-2.4Z"/>
      <path class="cls-1" d="m127.25,52.96c.67,1.37,1.82,2.65,3.08,3.26-.14.12-.35.35-.44.52-1.21-.67-2.29-1.89-3.01-3.27v2.46h1.52v.59h-1.52v1.49h-.62v-1.49h-1.57v-.59h1.57v-2.46c-.74,1.39-1.82,2.6-3,3.28-.09-.14-.29-.37-.43-.48,1.22-.63,2.38-1.93,3.06-3.31h-2.79v-.59h3.15v-1.68h.62v1.68h3.18v.59h-2.81Z"/>
      <path class="cls-1" d="m131.64,58.16l-.48-.25c.92-.96,1.49-2.14,1.49-3.57s-.57-2.62-1.49-3.57l.48-.25c.96.98,1.6,2.25,1.6,3.82s-.63,2.84-1.6,3.82Z"/>
    </g>
    <g>
      <path class="cls-1" d="m3,6.02H0v-3h3v3Z"/>
      <path class="cls-1" d="m3,55.01H0v-3h3v3Z"/>
    </g>
  </g>
</svg>