<?xml version="1.0" encoding="UTF-8"?>
<svg id="_レイヤー_2" data-name="レイヤー 2" xmlns="http://www.w3.org/2000/svg" viewBox="0 0 298.06 153.91">
  <defs>
    <style>
      .cls-1 {
        fill: #fff;
      }

      .cls-2 {
        fill: #231815;
      }

      .cls-3 {
        fill: #686868;
      }
    </style>
  </defs>
  <g id="_レイヤー_1-2" data-name="レイヤー 1">
    <g>
      <path class="cls-2" d="m29.18,2.12h6.6c.46,0,.8-.01,1.09-.04v.74c-.31-.01-.6-.03-1.09-.03h-3.82v3.29h5c.29,0,.76-.01,1.05-.04v.76c-.29-.01-.73-.03-1.04-.03h-5.01v3.19c0,.67.49,1.19,1.88,1.19s2.48-.06,3.71-.2l-.03.74c-1.19.08-2.39.15-3.75.15-1.85,0-2.54-.67-2.54-1.65v-3.43h-2.98c-.34,0-.83.01-1.19.04v-.78c.36.04.85.05,1.19.05h2.98v-3.29h-2.04c-.46,0-.85.01-1.21.03v-.74c.35.03.74.04,1.21.04Z"/>
      <path class="cls-2" d="m41.53,5.31h9.16c.29,0,.66-.03.98-.06v.77c-.28-.03-.67-.04-.98-.04h-4.05c-.03,1.54-.22,2.9-.81,3.98-.52.91-1.57,1.88-2.72,2.46l-.67-.5c1.13-.49,2.16-1.3,2.7-2.23.64-1.05.74-2.3.77-3.71h-4.38c-.43,0-.77.01-1.15.04v-.77c.36.03.71.06,1.15.06Zm1.67-3.47h5.01c.35,0,.81-.01,1.19-.07v.78c-.38-.03-.84-.04-1.19-.04h-4.99c-.45,0-.83.01-1.15.04v-.78c.36.04.69.07,1.12.07Zm8.03.6l-.55.27c-.27-.57-.77-1.41-1.15-1.95l.53-.24c.35.5.85,1.33,1.16,1.92Zm1.5-.53l-.55.25c-.31-.62-.77-1.4-1.18-1.92l.52-.24c.38.52.92,1.37,1.2,1.9Z"/>
      <path class="cls-2" d="m55.92,8.04c.41-1.33.42-4.2.42-5.7,0-.32-.03-.59-.08-.86h.84c-.03.22-.06.53-.06.86,0,1.48-.06,4.52-.43,5.91-.42,1.46-1.33,2.82-2.49,3.74l-.67-.45c1.15-.83,2.03-2.06,2.48-3.5Zm3.98,2.83V2.35c0-.48-.04-.79-.06-.94h.83c-.03.15-.04.46-.04.94v8.53c1.39-.64,3.32-2.02,4.46-3.74l.43.62c-1.25,1.71-3.15,3.1-4.79,3.91-.2.1-.34.2-.42.27l-.49-.41c.06-.2.08-.43.08-.66Z"/>
      <path class="cls-2" d="m66.82,10.66l.45-.57c.59.62,1.34,1.2,2.67,1.2s2.38-1.04,2.38-2.58-.91-2.48-2.34-2.48c-.74,0-1.23.25-1.81.64l-.53-.31.35-4.68h4.67v.73h-3.94l-.29,3.43c.49-.29,1.01-.49,1.71-.49,1.68,0,3.03.95,3.03,3.11s-1.57,3.32-3.19,3.32-2.49-.69-3.15-1.33Z"/>
      <path class="cls-2" d="m75.01,6.82c0-3.31,1.09-5.11,3.01-5.11s3,1.82,3,5.11-1.09,5.17-3,5.17-3.01-1.88-3.01-5.17Zm5.2,0c0-3-.87-4.41-2.19-4.41s-2.2,1.42-2.2,4.41.87,4.48,2.2,4.48,2.19-1.49,2.19-4.48Z"/>
      <path class="cls-2" d="m94.44,12.86h-.67v-.6h-6.36v.57h-.66v-4.72c-1.21.76-2.47,1.32-3.67,1.71-.08-.18-.25-.46-.39-.59,1.79-.53,3.73-1.51,5.39-2.86-.64-.77-1.79-1.79-2.83-2.54-.6.5-1.26.98-1.99,1.4-.1-.14-.32-.36-.48-.49,2.28-1.28,3.92-3.14,4.73-4.64l.77.15c-.24.42-.53.86-.87,1.29h4.44l.13-.03.43.22c-.9,2.17-2.44,3.98-4.23,5.37h6.25v5.74Zm-7.52-10.67c-.36.42-.76.83-1.19,1.23,1.05.71,2.23,1.72,2.88,2.49,1.19-1.06,2.21-2.31,2.89-3.72h-4.58Zm6.85,9.44v-3.88h-6.36v3.88h6.36Z"/>
      <path class="cls-2" d="m32.27,36.18v6.64h-.66v-1.5l-4.89.67-.1-.63c.42-.04.88-.1,1.4-.17v-5.01h-1.27v-.59h12.2v.59h-6.68Zm5.13-1.54h-8.96v-4.06h8.96v4.06Zm-5.79,1.54h-2.94v1.19h2.94v-1.19Zm-2.94,2.98h2.94v-1.23h-2.94v1.23Zm0,1.96c.91-.12,1.93-.25,2.94-.39v-1.02h-2.94v1.41Zm8.07-10h-7.65v1.22h7.65v-1.22Zm0,1.75h-7.65v1.23h7.65v-1.23Zm1.76,4.55c-.48,1.36-1.29,2.45-2.27,3.31.85.71,1.89,1.26,3.07,1.55-.15.12-.34.38-.43.53-1.19-.35-2.24-.92-3.11-1.7-.94.71-2,1.25-3.05,1.58-.07-.17-.22-.41-.36-.55,1.01-.29,2.06-.79,2.97-1.47-.73-.76-1.32-1.67-1.71-2.7l.45-.13h-1.21v-.59h5.13l.11-.03.42.18Zm-4.34.43c.36.93.91,1.77,1.62,2.47.79-.67,1.44-1.5,1.86-2.47h-3.49Z"/>
      <path class="cls-2" d="m42.31,38.11c-.22,1.3-.59,2.63-1.06,3.53-.13-.08-.41-.22-.56-.28.5-.87.81-2.12,1.01-3.38l.62.12Zm1.47-1.18v5.94h-.62v-5.9c-.85.06-1.64.1-2.31.14l-.06-.64.88-.04c.35-.44.71-.97,1.09-1.53-.45-.63-1.22-1.46-1.91-2.04l.38-.42c.15.12.31.27.46.41.5-.79,1.07-1.91,1.39-2.7l.6.27c-.46.91-1.06,2.06-1.6,2.81.39.39.76.79,1.02,1.13.57-.91,1.12-1.88,1.53-2.66l.59.27c-.8,1.41-1.92,3.19-2.89,4.44.77-.03,1.62-.07,2.51-.12-.22-.48-.49-.97-.76-1.39l.52-.21c.56.87,1.12,2,1.33,2.72l-.56.25c-.06-.22-.15-.5-.28-.8l-1.33.08Zm1.23.98c.42.79.8,1.85.92,2.54l-.55.2c-.14-.7-.5-1.76-.9-2.58l.52-.15Zm7.47-6.02c-.53,1.32-1.36,2.46-2.34,3.45,1.08,1.01,2.33,1.84,3.59,2.33-.15.14-.36.38-.46.55-1.25-.53-2.49-1.4-3.56-2.45-1.06.95-2.27,1.71-3.46,2.24-.07-.15-.28-.42-.43-.53,1.19-.5,2.41-1.23,3.45-2.17-.67-.71-1.26-1.51-1.74-2.35-.46.59-.99,1.16-1.61,1.68-.11-.14-.34-.32-.48-.41,1.47-1.19,2.51-2.83,3.04-4.08l.67.11c-.21.46-.46.94-.76,1.43h3.54l.14-.03.41.24Zm-5.44,8.26c1.89.52,4.25,1.47,5.49,2.17l-.41.55c-1.23-.74-3.59-1.71-5.5-2.23l.42-.49Zm.85-7.72c.45.85,1.08,1.7,1.79,2.45.77-.77,1.43-1.64,1.88-2.59h-3.57l-.1.14Zm.7,5.03c.98.42,2.18,1.11,2.82,1.58l-.45.46c-.64-.49-1.85-1.21-2.82-1.61l.45-.44Z"/>
      <path class="cls-2" d="m56.55,35.2h9.17c.29,0,.66-.02.98-.04v.76c-.28-.01-.67-.03-.98-.03h-4.06c-.03,1.54-.21,2.9-.8,3.98-.52.91-1.57,1.88-2.72,2.46l-.67-.5c1.13-.49,2.16-1.3,2.7-2.23.64-1.05.74-2.31.77-3.71h-4.4c-.42,0-.76,0-1.13.03v-.76c.36.03.7.04,1.13.04Zm1.68-3.46h5.7c.35,0,.83-.03,1.19-.07v.79c-.38-.03-.84-.04-1.19-.04h-5.67c-.46,0-.84.02-1.15.04v-.79c.36.03.69.07,1.12.07Z"/>
      <path class="cls-2" d="m77.61,32.97c-.49,1.29-1.44,3.04-2.45,4.27,1.53,1.3,3.22,3.11,4.19,4.27l-.6.53c-.95-1.22-2.58-2.98-4.05-4.29-1.54,1.65-3.43,3.22-5.6,4.19l-.56-.6c2.26-.9,4.27-2.55,5.79-4.23.97-1.11,2.1-2.93,2.47-4.19h-5.87c-.45,0-1.22.05-1.28.05v-.83c.08,0,.84.07,1.28.07h5.67c.36,0,.63-.03.81-.08l.46.37c-.07.1-.21.34-.25.46Z"/>
      <path class="cls-2" d="m83.4,32.44c0-.34-.03-.93-.1-1.33h.9c-.04.39-.08,1-.08,1.33v2.42c1.83.56,4.45,1.57,6.07,2.37l-.31.74c-1.55-.86-4.2-1.86-5.76-2.34.01,2.31.01,4.71.01,5,0,.48.01,1.09.07,1.49h-.87c.06-.38.07-.98.07-1.49v-8.19Z"/>
      <path class="cls-2" d="m31.35,67.52c-.25,2.87-1.05,4.48-4.33,5.29-.06-.15-.25-.43-.39-.57,3.12-.71,3.82-2.16,4.03-4.72h.69Zm7.59-5.84v.64h-5.74v1.7h4.5v.62h-9.55v-.62h4.37v-1.7h-5.65v-.64h5.65v-1.54h.69v1.54h5.74Zm-1.19,6.82v-1.86h-9.76v1.86h-.66v-2.49h11.09v2.49h-.67Zm-.15,3.38c.55,0,.63-.24.69-1.91.15.11.42.22.63.28-.1,1.82-.29,2.25-1.26,2.25h-2.2c-1.05,0-1.34-.2-1.34-1.06v-3.95h.67v3.95c0,.37.11.44.7.44h2.12Z"/>
      <path class="cls-2" d="m53.44,71.5v.67h-12.42v-.67h5.38v-11.12h.7v4.48h5.39v.66h-5.39v5.98h6.34Z"/>
      <path class="cls-2" d="m66.14,61.08v11.72h-.69v-1.01h-7.84v1.01h-.67v-11.72h9.2Zm-8.53.66v2.68h7.84v-2.68h-7.84Zm0,3.32v2.7h7.84v-2.7h-7.84Zm7.84,6.08v-2.72h-7.84v2.72h7.84Z"/>
      <path class="cls-2" d="m73.76,67.97c-.21-.44-.83-1.4-1.28-2.1v6.93h-.64v-7.26c-.52,1.74-1.25,3.52-1.96,4.54-.1-.17-.28-.44-.42-.56.91-1.22,1.85-3.6,2.28-5.65h-2v-.63h2.1v-3.11h.64v3.11h1.68v.63h-1.68v1.16c.39.49,1.44,2.03,1.7,2.41l-.42.52Zm2.69,2c-.55.81-1.46,1.67-2.33,2.27-.13-.12-.31-.29-.46-.41.87-.56,1.79-1.44,2.26-2.17l.53.31Zm2.06-.71v2.79c0,.38-.07.57-.38.67-.32.11-.88.11-1.82.11-.04-.17-.14-.41-.24-.59.81.03,1.39.03,1.57.01.2-.01.24-.07.24-.22v-2.77h-3.7v-.62h8.1v.62h-3.77Zm-1.65-7.88h-2.62v-.59h8.05v.59h-2.63v1.18h2.28v3.22h-7.23v-3.22h2.14v-1.18Zm-1.82,5.99v-.57h6.56v.57h-6.56Zm.28-2.17h1.57v-2.07h-1.57v2.07Zm3.74-3.82h-1.61v1.18h1.61v-1.18Zm-1.61,1.75v2.07h1.61v-2.07h-1.61Zm3.88,0h-1.71v2.07h1.71v-2.07Zm-.98,6.6c.73.66,1.61,1.57,2.03,2.16l-.5.38c-.42-.59-1.28-1.54-2.02-2.21l.49-.32Z"/>
      <path class="cls-2" d="m86.55,70.22c.74,1.12,2.12,1.62,3.89,1.7,1.47.07,4.65.03,6.19-.07-.1.15-.2.46-.22.67-1.47.05-4.45.08-5.95.03-1.92-.07-3.29-.6-4.19-1.72-.64.63-1.32,1.27-2,1.89l-.39-.64c.62-.48,1.37-1.15,2.03-1.79v-3.95h-1.91v-.64h2.55v4.54Zm-.08-6.99c-.42-.71-1.37-1.71-2.27-2.38l.5-.36c.9.64,1.86,1.62,2.31,2.32l-.55.42Zm.84.5v-.57h4.16v-1.26h-3.22v-.56h3.22v-1.2h.66v1.2h3.35v.56h-3.35v1.26h4.36v.57h-9.17Zm5.73,1.58c.27-.43.59-1.13.76-1.58l.66.22c-.29.53-.6,1.12-.87,1.53h2.7v.56h-4.16v1.12h3.56v.56h-3.56v1.27h4.26v.57h-4.26v1.55h-.66v-1.55h-4.05v-.57h4.05v-1.27h-3.28v-.56h3.28v-1.12h-3.78v-.56h2.24c-.1-.42-.41-1.04-.74-1.51l.59-.17c.34.45.66,1.06.77,1.5l-.57.18h3.49l-.42-.17Z"/>
      <path class="cls-2" d="m109.95,64.82c-.6,1.83-1.46,3.42-2.52,4.75.59,1.57,1.34,2.48,2.21,2.48.45,0,.63-.74.73-2.65.15.14.41.29.59.35-.15,2.26-.42,2.98-1.36,2.98-1.12,0-2-.97-2.66-2.58-.94,1.02-2,1.89-3.24,2.59-.1-.14-.34-.41-.49-.53,1.34-.71,2.51-1.64,3.46-2.77-.53-1.62-.88-3.73-1.06-6.09h-5.32v2.03h3.66s-.01.24-.01.34c-.07,3.26-.15,4.41-.43,4.76-.18.21-.39.29-.76.31-.36.03-1.01.01-1.71-.03-.03-.2-.1-.46-.21-.63.73.07,1.42.07,1.65.07.21,0,.36-.03.45-.14.21-.22.28-1.23.35-4.05h-2.98v.52c0,1.9-.21,4.55-1.48,6.36-.13-.13-.38-.35-.55-.43,1.21-1.74,1.34-4.12,1.34-5.94v-3.82h5.97c-.04-.83-.07-1.67-.08-2.52h.69c0,.87.03,1.71.07,2.52h4.61v.66h-4.57c.17,2.16.46,4.01.91,5.46.87-1.19,1.57-2.59,2.09-4.16l.67.17Zm-.24-2.37c-.57-.5-1.71-1.23-2.65-1.7l.39-.43c.94.46,2.07,1.15,2.65,1.65l-.39.48Z"/>
      <path class="cls-2" d="m78.77,98.85l.38.59c-1.23.95-2.44,2.32-3.22,3.56-.78-1.23-1.99-2.61-3.22-3.56l.38-.59c.94.7,1.89,1.72,2.49,2.52v-11.33h.7v11.33c.6-.8,1.56-1.82,2.49-2.52Z"/>
    </g>
    <path class="cls-2" d="m7.12,10.16H0V3.05h7.12v7.12Z"/>
    <rect class="cls-3" x="20.53" y="115.72" width="277.53" height="38.19"/>
    <g>
      <path class="cls-1" d="m87.48,141.66v.71h-13.3v-.71h2.16v-7.27h.74v7.27h3.72v-10.27h-6v-.71h12.17v.71h-5.43v4.41h4.93v.7h-4.93v5.16h5.95Z"/>
      <path class="cls-1" d="m101.61,132.26c-.54.93-1.96,2.88-3.81,4.15l-.66-.54c1.49-.82,3.04-2.64,3.58-3.68h-8.97c-.52,0-1.11.03-1.63.06v-.91c.5.06,1.11.12,1.63.12h8.92c.21,0,.58-.04.75-.07l.5.48c-.11.11-.22.26-.32.39Zm-9.81,10.12l-.72-.6c.36-.11.87-.36,1.21-.57,2.57-1.48,2.88-3.95,2.88-6.46,0-.3-.01-.6-.04-.93h.86c0,4.26-.51,6.82-4.19,8.56Z"/>
      <path class="cls-1" d="m110.52,133.97c1.59-1.02,2.97-2.19,4.05-3.48l.63.58c-1.16,1.21-2.49,2.34-4.08,3.39v6.49c0,.5.03,1.12.08,1.38h-.93c.03-.24.06-.88.06-1.38v-6c-1.58.95-3.74,1.91-5.94,2.6l-.41-.73c2.55-.71,4.89-1.81,6.54-2.85Z"/>
      <path class="cls-1" d="m118.78,135.03h9.81c.31,0,.7-.03,1.05-.06v.83c-.3-.03-.72-.04-1.05-.04h-4.33c-.03,1.65-.24,3.1-.87,4.26-.55.97-1.68,2.01-2.91,2.64l-.72-.54c1.21-.53,2.31-1.4,2.89-2.38.69-1.12.79-2.46.83-3.97h-4.69c-.47,0-.83.01-1.23.04v-.83c.39.03.76.06,1.23.06Zm1.78-3.72h5.37c.38,0,.87-.01,1.28-.07v.84c-.41-.03-.9-.04-1.28-.04h-5.34c-.48,0-.88.02-1.23.04v-.84c.39.04.73.07,1.2.07Zm8.59.65l-.58.28c-.29-.61-.83-1.51-1.23-2.08l.57-.26c.38.54.92,1.43,1.25,2.06Zm1.61-.57l-.58.27c-.33-.66-.83-1.5-1.26-2.05l.56-.26c.4.55.99,1.47,1.29,2.04Z"/>
      <path class="cls-1" d="m137.11,142.82l-.66-.62c2.62-1.06,4.05-2.36,4.05-6.86v-.66h-4.7v2.66c0,.49.04,1.17.04,1.23h-.87c.01-.06.07-.72.07-1.23v-2.66h-1.83c-.6,0-1.37.04-1.43.04v-.85s.86.07,1.43.07h1.83v-2.18c0-.25-.03-.66-.06-.93h.87s-.06.45-.06.92v2.19h4.7v-2.05c0-.57-.06-1.06-.08-1.12h.9c-.02.06-.08.55-.08,1.12v2.05h1.96c.6,0,1.12-.06,1.21-.07v.85c-.08,0-.62-.04-1.21-.04h-1.96v.54c0,4.17-.84,6.09-4.14,7.59Zm6.58-10.04l-.57.2c-.23-.63-.63-1.58-.92-2.13l.54-.16c.29.51.72,1.48.94,2.1Zm1.49-.46l-.58.21c-.25-.67-.62-1.57-.93-2.11l.55-.18c.29.53.71,1.46.96,2.09Z"/>
      <path class="cls-1" d="m153.31,133.97c1.59-1.02,2.97-2.19,4.05-3.48l.63.58c-1.16,1.21-2.49,2.34-4.08,3.39v6.49c0,.5.03,1.12.08,1.38h-.93c.03-.24.06-.88.06-1.38v-6c-1.58.95-3.74,1.91-5.94,2.6l-.41-.73c2.55-.71,4.89-1.81,6.54-2.85Z"/>
      <path class="cls-1" d="m166.44,130.53h.97c-.03.21-.09.91-.09,1.33v2.24h4.35c.39,0,.92-.02,1.11-.04v.82c-.2-.03-.74-.03-1.12-.03h-4.33v.3c0,3.35-1.26,5.66-4.08,7.25l-.76-.57c2.65-1.26,4.06-3.41,4.06-6.68v-.3h-4.71c-.52,0-1.04,0-1.25.03v-.84c.21.03.72.06,1.21.06h4.74v-2.24c0-.43-.06-1.12-.1-1.33Z"/>
      <path class="cls-1" d="m177.53,135.83h8.31c.78,0,1.23-.03,1.53-.06v.93c-.27-.01-.83-.04-1.51-.04h-8.33c-.82,0-1.5.02-1.9.04v-.93c.39.03,1.02.06,1.9.06Z"/>
      <path class="cls-1" d="m191.41,135.03h9.81c.31,0,.7-.03,1.05-.06v.83c-.3-.03-.72-.04-1.05-.04h-4.33c-.03,1.65-.24,3.1-.87,4.26-.55.97-1.68,2.01-2.91,2.64l-.72-.54c1.21-.53,2.31-1.4,2.89-2.38.69-1.12.79-2.46.83-3.97h-4.69c-.47,0-.83.01-1.23.04v-.83c.39.03.76.06,1.23.06Zm1.78-3.72h5.37c.38,0,.87-.01,1.27-.07v.84c-.4-.03-.9-.04-1.27-.04h-5.34c-.48,0-.88.02-1.23.04v-.84c.39.04.73.07,1.2.07Zm8.59.65l-.58.28c-.29-.61-.83-1.51-1.23-2.08l.57-.26c.38.54.92,1.43,1.25,2.06Zm1.61-.57l-.58.27c-.33-.66-.83-1.5-1.26-2.05l.56-.26c.4.55.99,1.47,1.29,2.04Z"/>
      <path class="cls-1" d="m207.17,131.9v3.72c1.74-.4,4.3-1.18,6-1.92.42-.19.81-.39,1.14-.61l.36.79c-.35.15-.79.36-1.21.52-1.8.75-4.52,1.54-6.29,2.01v3.62c0,.84.33,1.05,1.08,1.2.5.09,1.37.15,2.14.15,1.59,0,3.81-.13,5.07-.46v.88c-1.23.18-3.48.32-5.1.32-.84,0-1.73-.03-2.33-.13-1.07-.18-1.65-.6-1.65-1.79v-8.29c0-.38-.01-.72-.07-1.02h.92c-.03.3-.06.6-.06,1.02Zm8.19.63l-.58.27c-.29-.6-.82-1.52-1.23-2.07l.57-.26c.38.53.93,1.43,1.25,2.05Zm1.61-.57l-.57.27c-.34-.66-.84-1.5-1.26-2.05l.55-.26c.41.54.99,1.47,1.28,2.04Z"/>
      <path class="cls-1" d="m227.39,135.23c-.1,1.09-.6,4.37-.81,5.65h1.8c.3,0,.74-.02,1.02-.03v.78c-.26-.02-.71-.02-.98-.02h-8.41c-.42,0-.74.02-1.11.03v-.81c.34.03.69.04,1.11.04h5.77c.21-1.15.74-4.65.76-5.5h-5.17c-.42,0-.71.01-1.04.03v-.83c.33.03.65.06,1.02.06h4.96c.21,0,.45-.03.54-.07l.6.3c-.04.11-.08.26-.08.36Z"/>
      <path class="cls-1" d="m234.27,135.83h8.31c.78,0,1.23-.03,1.53-.06v.93c-.27-.01-.83-.04-1.51-.04h-8.33c-.82,0-1.5.02-1.9.04v-.93c.39.03,1.02.06,1.9.06Z"/>
    </g>
  </g>
</svg>