<?xml version="1.0" encoding="UTF-8"?>
<svg id="_レイヤー_2" data-name="レイヤー 2" xmlns="http://www.w3.org/2000/svg" viewBox="0 0 278.48 72.94">
  <defs>
    <style>
      .cls-1 {
        fill: #231815;
      }
    </style>
  </defs>
  <g id="_レイヤー_1-2" data-name="レイヤー 1">
    <g>
      <path class="cls-1" d="m29.69,12.94l-3.31-6.47,3.31-6.47.52.18-3.24,6.29,3.24,6.29-.52.18Zm2.09,0l-3.31-6.47,3.31-6.47.52.18-3.24,6.29,3.24,6.29-.52.18Z"/>
      <path class="cls-1" d="m46.39,8.64h-5.83v3.25c0,.48-.13.7-.56.81-.42.11-1.18.11-2.49.11-.06-.18-.2-.45-.32-.64,1.21.03,2.07.03,2.37,0,.29-.03.34-.08.34-.28v-3.25h-5.76v-.63h5.76v-1.08h.35c.92-.39,1.91-.95,2.62-1.51h-6.47v-.62h7.17l.15-.04.45.34c-.9.88-2.34,1.74-3.6,2.28v.63h5.83v.63Zm-11.26-3.19h-.64v-2.94h2.28c-.28-.56-.81-1.34-1.32-1.93l.56-.25c.55.6,1.13,1.42,1.37,1.98l-.39.21h3.21c-.18-.62-.64-1.54-1.12-2.23l.57-.21c.49.7.98,1.64,1.16,2.23l-.5.21h2.65c.57-.63,1.29-1.61,1.69-2.3l.66.27c-.48.69-1.06,1.44-1.6,2.03h2.38v2.94h-.66v-2.33h-10.31v2.33Z"/>
      <path class="cls-1" d="m51.45,5.06c.45.52,1.72,2.21,2.03,2.65l-.45.53c-.27-.5-1.05-1.68-1.58-2.42v6.98h-.66v-6.88c-.63,1.6-1.51,3.25-2.34,4.19-.07-.18-.25-.43-.38-.57.95-1.04,2.03-3.05,2.62-4.8h-2.4v-.64h2.49V1.64c-.71.15-1.47.28-2.14.39-.04-.15-.14-.38-.22-.53,1.57-.27,3.45-.66,4.45-1.13l.45.55c-.52.21-1.16.41-1.88.57v2.59h2.21v.64h-2.21v.34Zm7.63,4.01v3.74h-.66v-3.64l-4.79.74-.11-.63,4.9-.76V.13h.66v8.29l1.79-.28.1.62-1.89.31Zm-2.24-1.85c-.56-.6-1.68-1.46-2.63-2l.41-.41c.95.53,2.1,1.36,2.65,1.95l-.42.46Zm.28-3.7c-.46-.57-1.48-1.39-2.34-1.92l.42-.42c.88.5,1.89,1.29,2.37,1.86l-.45.48Z"/>
      <path class="cls-1" d="m65.73,6.47L62.5.18l.52-.18,3.32,6.47-3.32,6.47-.52-.18,3.24-6.29Zm2.09,0l-3.24-6.29.52-.18,3.32,6.47-3.32,6.47-.52-.18,3.24-6.29Z"/>
      <path class="cls-1" d="m33.07,31.89v1.02h2.68c.27,0,.55-.01.73-.07l.48.46c-.2.2-.43.43-.62.64-.67.84-1.9,2.07-3.28,3h-.01c0,1.16-.01,2.94-.01,3.91,0,.46.03.98.06,1.42h-.84c.04-.42.07-.95.07-1.42,0-.9.01-2.45.01-3.45-1.33.81-2.84,1.46-4.99,2.1l-.45-.69c2.63-.64,4.36-1.54,5.66-2.4,1.36-.87,2.62-2.13,3.14-2.84h-6.26c-.48,0-1.23.01-1.64.06v-.8c.39.04,1.16.07,1.64.07h2.93v-1.02c0-.35-.01-.9-.07-1.19h.85c-.06.29-.07.84-.07,1.19Zm1.42,5.7l.48-.52c1.33.71,2.1,1.18,3.39,2.03l-.49.6c-1.22-.87-2-1.4-3.38-2.12Z"/>
      <path class="cls-1" d="m46.64,34.3c1.49-.95,2.77-2.04,3.78-3.25l.59.55c-1.08,1.13-2.33,2.18-3.81,3.17v6.07c0,.46.03,1.05.07,1.29h-.87c.03-.22.06-.83.06-1.29v-5.6c-1.47.88-3.49,1.78-5.55,2.42l-.38-.69c2.38-.66,4.57-1.69,6.11-2.66Z"/>
      <path class="cls-1" d="m55.27,38.03c.41-1.33.42-4.2.42-5.7,0-.32-.03-.59-.08-.85h.84c-.03.22-.06.53-.06.85,0,1.48-.06,4.52-.43,5.91-.42,1.46-1.33,2.82-2.49,3.74l-.67-.45c1.15-.83,2.03-2.06,2.48-3.5Zm3.98,2.83v-8.52c0-.48-.04-.78-.06-.94h.83c-.03.15-.04.46-.04.94v8.53c1.39-.64,3.32-2.02,4.45-3.74l.43.62c-1.25,1.71-3.15,3.1-4.79,3.91-.2.1-.34.2-.42.27l-.49-.41c.06-.2.08-.43.08-.66Z"/>
      <path class="cls-1" d="m72.92,42.1l-.41-.69c.38-.01.83-.08,1.13-.14,1.79-.39,3.78-1.76,3.78-4.4,0-2.21-1.55-4.16-4.24-4.29-.17,1.39-.43,2.9-.83,4.19-.85,2.9-1.92,4.23-3.08,4.23-1.06,0-2.28-1.26-2.28-3.54,0-2.94,2.63-5.52,5.94-5.52s5.2,2.26,5.2,4.96c0,2.94-2,4.82-5.21,5.2Zm-3.6-1.88c.69,0,1.57-.97,2.35-3.61.38-1.25.66-2.66.8-4.01-2.9.25-4.79,2.69-4.79,4.8,0,1.98.95,2.82,1.64,2.82Z"/>
      <path class="cls-1" d="m89.73,37.52c.77,1.08,2.07,2.04,3.33,2.49-.15.13-.35.35-.46.52-1.37-.56-2.77-1.74-3.59-3.01h-4.68c-.84,1.34-2.3,2.58-3.61,3.21-.11-.17-.31-.39-.48-.52,1.23-.5,2.54-1.55,3.36-2.69h-3.21v-.6h2.84v-4.66h-2.24v-.6h2.24v-1.53h.67v1.53h5.49v-1.51h.67v1.51h2.23v.6h-2.23v4.66h2.8v.6h-3.15Zm-2.79,4.31h4.97v.6h-10.52v-.6h4.89v-1.82h-3.1v-.6h3.1v-1.36h.66v1.36h3.17v.6h-3.17v1.82Zm-3.03-9.58v1.13h5.49v-1.13h-5.49Zm0,2.89h5.49v-1.19h-5.49v1.19Zm0,1.78h5.49v-1.22h-5.49v1.22Z"/>
      <path class="cls-1" d="m96.35,40.91v1.25h-.6v-5.03c-.22.55-.48,1.06-.76,1.51-.1-.11-.34-.38-.49-.52,1.01-1.54,1.58-3.91,1.93-6.4h-1.76v-.64h4.82v.64h-2.4c-.18,1.22-.41,2.4-.7,3.47h2.59v5.71h-2.63Zm2.02-5.08h-2.02v4.47h2.02v-4.47Zm5.18,6.04c.35.06.74.08,1.16.08.24,0,2.33,0,2.73-.01-.11.15-.21.45-.24.62h-2.52c-1.93,0-3.1-.45-3.82-2.31-.34,1.05-.9,1.95-1.83,2.56-.08-.13-.31-.35-.46-.45,1.47-.92,1.95-2.7,2.09-4.46h.66c-.04.48-.11.95-.21,1.4.38,1.36.97,2.06,1.82,2.38v-4.66h-3.53v-.6h7.21l.13-.03.43.15c-.25.67-.53,1.39-.81,1.88l-.53-.22c.17-.32.35-.74.5-1.18h-2.77v1.95h2.98v.6h-2.98v2.3Zm-2.49-10.04v-1.69h.59v1.69h1.4v.59h-1.4v.43c.31.24,1.19,1.02,1.42,1.25l-.39.43c-.18-.24-.66-.73-1.02-1.09v2.48h-.59v-2.72c-.43.84-1.02,1.7-1.58,2.24-.1-.14-.25-.35-.39-.46.64-.56,1.36-1.6,1.76-2.56h-1.44v-.59h1.65Zm3.82,1.12c-.43.97-1.11,1.92-1.79,2.49-.08-.15-.25-.35-.39-.46.73-.52,1.44-1.56,1.86-2.56h-1.21v-.59h1.53v-1.69h.6v1.69h1.79v.59h-1.53c.38,1.01,1.04,2.06,1.72,2.56-.14.11-.32.29-.43.43-.59-.5-1.16-1.43-1.55-2.38v2.89h-.6v-2.97Z"/>
      <path class="cls-1" d="m112.79,35.27c0,.18,0,.38-.01.57h2.83v.64h-2.86c-.04.38-.08.78-.17,1.18.63.63,2.44,2.62,2.87,3.12l-.46.57c-.48-.63-1.79-2.17-2.56-3.01-.42,1.6-1.29,3.21-3.04,4.44-.08-.14-.32-.41-.45-.5,2.31-1.62,2.97-3.82,3.14-5.8h-3.04v-.64h3.07c.01-.21.01-.39.01-.59v-2.55h-1.39c-.34.92-.76,1.75-1.22,2.4-.13-.11-.42-.29-.56-.39.85-1.12,1.47-2.83,1.83-4.59l.66.13c-.14.63-.31,1.23-.49,1.82h4.2v.64h-2.37v2.56Zm8.15-3.92v10.94h-.67v-1.04h-3.52v1.16h-.66v-11.07h4.85Zm-.67,9.26v-8.62h-3.52v8.62h3.52Z"/>
      <path class="cls-1" d="m127.56,33.05h-4.25v-.6h4.25v.6Zm-.35,8.94h-2.76v.69h-.6v-4.67h3.36v3.98Zm-3.33-7.68h3.33v.59h-3.33v-.59Zm0,1.85h3.33v.57h-3.33v-.57Zm3.29-4.93h-3.22v-.57h3.22v.57Zm-2.72,7.37v2.79h2.16v-2.79h-2.16Zm10.95-2.19c-.36,1.25-.88,2.37-1.53,3.33.28,1.48.7,2.33,1.32,2.37.27.01.45-.77.55-2.04.13.13.38.28.49.34-.21,1.89-.57,2.48-1.04,2.46-.88-.04-1.44-.94-1.79-2.46-.74.94-1.61,1.72-2.56,2.31-.1-.11-.27-.28-.41-.39,1.08-.64,2.04-1.54,2.82-2.68-.18-1.13-.31-2.55-.36-4.16h-5.58v-.59h5.55c-.06-1.46-.07-3.05-.08-4.76h.6c0,1.74.01,3.33.07,4.76h2.44v.59h-2.42c.07,1.29.15,2.44.28,3.39.46-.83.84-1.74,1.09-2.75l.57.28Zm-3.03-4.09h-4.65v-.59h2.04v-1.61h.63v1.61h1.98v.59Zm-3.63,8.73v.88h-.57v-5.42h3.77v4.54h-3.19Zm.07-6.29c-.01-.57-.17-1.44-.42-2.13l.52-.13c.28.67.45,1.57.48,2.13l-.57.13Zm-.07,2.31v1.4h2.59v-1.4h-2.59Zm2.59,3.42v-1.47h-2.59v1.47h2.59Zm-.8-5.84c.21-.6.46-1.58.59-2.23l.62.15c-.22.74-.48,1.65-.69,2.21l-.52-.14Zm4.87-1.29c-.25-.7-.88-1.72-1.53-2.45l.52-.25c.66.74,1.32,1.75,1.58,2.44l-.58.27Z"/>
      <path class="cls-1" d="m150.51,30.38l-12.57,12.56-.38-.38,12.56-12.56.38.38Z"/>
      <path class="cls-1" d="m163.28,31.11c-.31.08-.63.17-.97.24.2,4.85.69,9.09,2.49,10.94-.17.13-.41.36-.52.55-1.86-2.09-2.35-6.26-2.59-11.35-.99.21-2.12.39-3.28.56v10.49h-.66v-10.41c-1.09.15-2.21.28-3.26.38v2.56c0,2.27-.24,5.43-2.03,7.79-.08-.14-.35-.35-.52-.43,1.71-2.21,1.89-5.17,1.89-7.37v-3.33l.71.2c2.94-.29,6.29-.79,8.1-1.32l.63.5Z"/>
      <path class="cls-1" d="m172.86,42.1l-.41-.69c.38-.01.83-.08,1.13-.14,1.79-.39,3.78-1.76,3.78-4.4,0-2.21-1.55-4.16-4.24-4.29-.17,1.39-.43,2.9-.83,4.19-.85,2.9-1.92,4.23-3.08,4.23-1.06,0-2.28-1.26-2.28-3.54,0-2.94,2.63-5.52,5.94-5.52s5.2,2.26,5.2,4.96c0,2.94-2,4.82-5.21,5.2Zm-3.6-1.88c.69,0,1.57-.97,2.35-3.61.38-1.25.66-2.66.8-4.01-2.9.25-4.79,2.69-4.79,4.8,0,1.98.95,2.82,1.64,2.82Z"/>
      <path class="cls-1" d="m184.41,37.96c-.21-.43-.83-1.4-1.28-2.1v6.93h-.64v-7.26c-.52,1.74-1.25,3.52-1.96,4.54-.1-.17-.28-.43-.42-.56.91-1.22,1.85-3.6,2.28-5.65h-2v-.63h2.1v-3.11h.64v3.11h1.72v.63h-1.72v1.16c.39.49,1.44,2.03,1.7,2.41l-.42.52Zm8.68,2.51h-.97v1.53c0,.41-.1.6-.41.71-.32.1-.9.1-1.83.1-.04-.15-.14-.41-.22-.59.76.03,1.39.01,1.58.01.18-.01.24-.07.24-.22v-1.54h-5.29v2.34h-.64v-2.34h-1.01v-.56h1.01v-3.56h2.9v-1.02h-3.67v-.57h2.07v-1.16h-1.46v-.55h1.46v-1.13h-1.71v-.56h1.71v-1.22h.63v1.22h2.68v-1.22h.64v1.22h1.83v.56h-1.83v1.13h1.64v.55h-1.64v1.16h2.14v.57h-3.87v1.02h3.05v3.56h.97v.56Zm-6.91-3.56v1.19h2.26v-1.19h-2.26Zm0,3h2.26v-1.26h-2.26v1.26Zm1.29-6.86h2.68v-1.13h-2.68v1.13Zm0,1.71h2.68v-1.16h-2.68v1.16Zm1.6,2.16v1.19h2.41v-1.19h-2.41Zm2.41,3v-1.26h-2.41v1.26h2.41Z"/>
      <path class="cls-1" d="m197.47,40.2c.71,1.11,2.06,1.62,3.78,1.69,1.44.06,4.55.01,6.07-.07-.08.15-.2.46-.22.69-1.44.04-4.37.07-5.83.03-1.91-.07-3.21-.62-4.1-1.74-.7.63-1.46,1.27-2.21,1.9l-.39-.69c.67-.46,1.51-1.13,2.26-1.78v-3.92h-2.14v-.64h2.8v4.52Zm-.08-7.07c-.46-.69-1.54-1.62-2.48-2.24l.48-.41c.97.59,2.03,1.53,2.52,2.21l-.52.43Zm9.75,2.24h-8.96v-.6h4.13v-2.16h-2.34c-.35.62-.76,1.18-1.16,1.64-.13-.11-.41-.27-.59-.35.9-.88,1.64-2.2,2.09-3.54l.64.14c-.18.5-.39,1.02-.64,1.5h2v-1.86h.66v1.86h3.54v.62h-3.54v2.16h4.17v.6Zm-7.62,5.18v-3.89h6.53v3.89h-6.53Zm.66-.59h5.18v-2.7h-5.18v2.7Z"/>
      <path class="cls-1" d="m221.75,30.38l-12.57,12.56-.38-.38,12.56-12.56.38.38Z"/>
      <path class="cls-1" d="m234.52,31.11c-.31.08-.63.17-.97.24.2,4.85.69,9.09,2.49,10.94-.17.13-.41.36-.52.55-1.86-2.09-2.35-6.26-2.59-11.35-.99.21-2.12.39-3.28.56v10.49h-.66v-10.41c-1.09.15-2.21.28-3.26.38v2.56c0,2.27-.24,5.43-2.03,7.79-.08-.14-.35-.35-.52-.43,1.71-2.21,1.89-5.17,1.89-7.37v-3.33l.71.2c2.94-.29,6.29-.79,8.1-1.32l.63.5Z"/>
      <path class="cls-1" d="m244.11,42.1l-.41-.69c.38-.01.83-.08,1.13-.14,1.79-.39,3.78-1.76,3.78-4.4,0-2.21-1.55-4.16-4.24-4.29-.17,1.39-.43,2.9-.83,4.19-.85,2.9-1.92,4.23-3.08,4.23-1.06,0-2.28-1.26-2.28-3.54,0-2.94,2.63-5.52,5.94-5.52s5.2,2.26,5.2,4.96c0,2.94-2,4.82-5.21,5.2Zm-3.6-1.88c.69,0,1.57-.97,2.35-3.61.38-1.25.66-2.66.8-4.01-2.9.25-4.79,2.69-4.79,4.8,0,1.98.95,2.82,1.64,2.82Z"/>
      <path class="cls-1" d="m264.19,31.76v.63h-9.78v3.53c0,2.13-.28,4.99-2.19,6.92-.11-.14-.35-.35-.49-.45,1.28-1.29,1.75-2.96,1.93-4.52-.69.39-1.39.8-2.02,1.13l-.29-.59c.62-.29,1.47-.76,2.37-1.22.03-.45.04-.88.04-1.29v-4.15h4.43v-1.64h.69v1.64h5.31Zm-11.42,3.98c-.15-.69-.64-1.79-1.13-2.62l.52-.22c.52.8,1.02,1.86,1.19,2.55l-.57.29Zm2.4-1.85h8.89v.62h-4.22v1.71h3.75v5.73c0,.43-.1.63-.43.76-.35.1-.97.1-2,.1-.04-.15-.14-.42-.25-.62.87.03,1.56.03,1.77.01.22-.01.28-.07.28-.24v-5.13h-3.12c-.03.29-.07.59-.14.9.98.85,2.14,2.03,2.73,2.77l-.49.38c-.49-.67-1.49-1.74-2.41-2.59-.35.94-1.06,1.88-2.52,2.61-.08-.14-.27-.35-.41-.46,2.07-.97,2.52-2.41,2.62-3.6h-2.93v6h-.63v-6.61h3.57v-1.71h-4.06v-.62Z"/>
      <path class="cls-1" d="m268.76,32.3c-.63,1.27-1.43,2.38-2.31,3.21-.11-.11-.42-.34-.6-.43,1.34-1.18,2.42-2.97,3.04-4.96l.7.17c-.15.49-.34.95-.55,1.42h9.05v.6h-9.33Zm4.68,4.5c-.56.95-1.22,1.82-1.98,2.61,1.09.81,2.06,1.65,2.69,2.37l-.52.49c-.6-.7-1.57-1.55-2.66-2.38-1.27,1.23-2.76,2.23-4.31,2.98-.1-.13-.34-.39-.5-.52,1.58-.7,3.07-1.67,4.31-2.84-.94-.67-1.93-1.32-2.87-1.85l.49-.42c.92.5,1.92,1.13,2.86,1.81.73-.76,1.34-1.58,1.85-2.46l.64.22Zm2.65-1.18c.04,3.78.25,6.54,1.46,6.54.31,0,.39-.81.42-2.04.13.13.36.28.52.35-.08,1.78-.25,2.34-.98,2.35-1.74-.01-1.99-2.56-2.07-6.58h-8.35v-.62h9.01Zm-7.44-1.36v-.6h8.08v.6h-8.08Z"/>
      <path class="cls-1" d="m33.07,61.89v1.02h2.68c.27,0,.55-.01.73-.07l.48.46c-.2.2-.43.43-.62.64-.67.84-1.9,2.07-3.28,3h-.01c0,1.16-.01,2.94-.01,3.91,0,.46.03.98.06,1.42h-.84c.04-.42.07-.95.07-1.42,0-.9.01-2.45.01-3.45-1.33.81-2.84,1.46-4.99,2.1l-.45-.69c2.63-.64,4.36-1.54,5.66-2.4,1.36-.87,2.62-2.13,3.14-2.84h-6.26c-.48,0-1.23.01-1.64.06v-.8c.39.04,1.16.07,1.64.07h2.93v-1.02c0-.35-.01-.9-.07-1.19h.85c-.06.29-.07.84-.07,1.19Zm1.42,5.7l.48-.52c1.33.71,2.1,1.18,3.39,2.03l-.49.6c-1.22-.87-2-1.4-3.38-2.12Z"/>
      <path class="cls-1" d="m46.64,64.3c1.49-.95,2.77-2.04,3.78-3.25l.59.55c-1.08,1.13-2.33,2.18-3.81,3.17v6.07c0,.46.03,1.05.07,1.29h-.87c.03-.22.06-.83.06-1.29v-5.6c-1.47.88-3.49,1.78-5.55,2.42l-.38-.69c2.38-.66,4.57-1.69,6.11-2.66Z"/>
      <path class="cls-1" d="m55.27,68.03c.41-1.33.42-4.2.42-5.7,0-.32-.03-.59-.08-.85h.84c-.03.22-.06.53-.06.85,0,1.48-.06,4.52-.43,5.91-.42,1.46-1.33,2.82-2.49,3.74l-.67-.45c1.15-.83,2.03-2.06,2.48-3.5Zm3.98,2.83v-8.52c0-.48-.04-.78-.06-.94h.83c-.03.15-.04.46-.04.94v8.53c1.39-.64,3.32-2.02,4.45-3.74l.43.62c-1.25,1.71-3.15,3.1-4.79,3.91-.2.1-.34.2-.42.27l-.49-.41c.06-.2.08-.43.08-.66Z"/>
      <path class="cls-1" d="m68.62,62.42c0-.34-.03-.92-.1-1.33h.9c-.04.39-.08,1-.08,1.33v2.42c1.83.56,4.45,1.57,6.07,2.37l-.31.74c-1.55-.85-4.2-1.86-5.76-2.34.01,2.31.01,4.71.01,5,0,.48.01,1.09.07,1.49h-.87c.06-.38.07-.98.07-1.49v-8.19Z"/>
      <path class="cls-1" d="m87.83,65.34c-.32,1.39-.97,2.9-2.02,4.03-1.5,1.62-3.24,2.38-5.01,2.86l-.56-.64c1.9-.38,3.71-1.29,4.97-2.63.91-.97,1.54-2.34,1.81-3.5h-7.84c-.32,0-.76.01-1.2.04v-.8c.45.06.87.08,1.2.08h7.65c.24,0,.49-.03.63-.08l.53.32c-.06.1-.13.24-.15.32Zm-7.49-3.73h5.59c.43,0,.81-.01,1.12-.06v.77c-.31-.03-.69-.03-1.13-.03h-5.58c-.41,0-.77.01-1.13.03v-.77c.35.04.7.06,1.13.06Z"/>
      <path class="cls-1" d="m100.09,63.25c-.29,1.53-1.01,3.82-2.07,5.2-1.29,1.62-2.84,2.86-5.45,3.67l-.62-.67c2.68-.7,4.24-1.88,5.45-3.43,1.02-1.32,1.75-3.49,1.95-4.92h-7.55c-.5,0-.88.03-1.23.04v-.81c.36.04.78.08,1.25.08h7.34c.18,0,.35,0,.55-.06l.55.35c-.07.15-.11.28-.15.55Zm.14-1.16l-.55.27c-.28-.57-.79-1.4-1.13-1.88l.53-.24c.32.46.85,1.32,1.15,1.85Zm1.74-.35l-.55.24c-.32-.57-.78-1.39-1.16-1.85l.55-.24c.32.45.85,1.29,1.16,1.85Z"/>
      <path class="cls-1" d="m104.93,68.03c.41-1.33.42-4.2.42-5.7,0-.32-.03-.59-.08-.85h.84c-.03.22-.06.53-.06.85,0,1.48-.06,4.52-.43,5.91-.42,1.46-1.33,2.82-2.49,3.74l-.67-.45c1.15-.83,2.03-2.06,2.48-3.5Zm3.98,2.83v-8.52c0-.48-.04-.78-.06-.94h.83c-.03.15-.04.46-.04.94v8.53c1.39-.64,3.32-2.02,4.45-3.74l.43.62c-1.25,1.71-3.15,3.1-4.79,3.91-.2.1-.34.2-.42.27l-.49-.41c.06-.2.08-.43.08-.66Z"/>
      <path class="cls-1" d="m128.92,60.38l-12.57,12.56-.38-.38,12.56-12.56.38.38Z"/>
      <path class="cls-1" d="m141.62,65.88c-.7,1.93-1.88,3.4-3.35,4.5,1.34.88,3,1.5,4.88,1.83-.14.15-.32.43-.42.6-1.95-.39-3.63-1.08-5.03-2.04-1.49.97-3.22,1.61-5.04,2.03-.07-.17-.27-.46-.39-.6,1.76-.36,3.45-.95,4.87-1.85-1.34-1.05-2.38-2.41-3.1-4.06h-1.36c-.06,2.04-.38,4.61-1.83,6.47-.11-.14-.38-.36-.53-.45,1.54-1.99,1.72-4.71,1.72-6.72v-3.46h4.8v-2.02h.67v2.02h4.46l.14-.03.5.15c-.43.98-.92,2.12-1.33,2.8l-.62-.21c.32-.52.67-1.32.98-2.06h-4.13v2.86h3.54l.14-.03.42.27Zm-4.78-.24v-2.86h-4.15v2.86h4.15Zm-2.13.64c.69,1.48,1.69,2.72,2.98,3.7,1.3-.94,2.35-2.14,3-3.7h-5.98Z"/>
      <path class="cls-1" d="m155.93,64.47c.57,0,.69-.08.74-.78.15.1.36.14.56.18-.08.87-.31,1.08-1.23,1.08h-3.63c-1.36,0-1.72-.13-1.72-.88v-.11l-3,.17-.04-.46,3.04-.17v-.73h-4.01v3.1c0,1.96-.17,4.75-1.27,6.68-.11-.11-.39-.29-.56-.36,1.08-1.86,1.18-4.44,1.18-6.32v-3.64h4.67v-2.09h.66v.83h4.86v.53h-4.86v.73h5.07l.14-.04.46.15c-.25.59-.56,1.22-.81,1.62l-.57-.18c.17-.28.35-.64.5-1.01h-4.79v.04h-.01v.66l3.49-.2.03.46-3.52.2v.15c0,.32.15.39,1.06.39h3.57Zm-8.22,1.09h8.49v2.62h-8.49v-2.62Zm.63,1.06h3.21v-.6h-3.21v.6Zm0,1.11h3.21v-.64h-3.21v.64Zm7.26,4.36c0,.36-.08.52-.38.62-.29.08-.85.08-1.81.08-.03-.14-.14-.34-.22-.5.74.03,1.34.01,1.53.01s.22-.04.22-.21v-.74h-5.88v1.47h-.64v-4.03h7.19v3.31Zm-6.54-2.83v.59h5.88v-.59h-5.88Zm5.88,1.61v-.59h-5.88v.59h5.88Zm.6-4.85h-3.36v.6h3.36v-.6Zm0,1.07h-3.36v.64h3.36v-.64Z"/>
      <path class="cls-1" d="m162.38,65.06c.45.52,1.72,2.21,2.03,2.65l-.45.53c-.27-.5-1.05-1.68-1.58-2.42v6.98h-.66v-6.88c-.63,1.6-1.51,3.25-2.34,4.19-.07-.18-.25-.43-.38-.57.95-1.04,2.03-3.05,2.62-4.8h-2.4v-.64h2.49v-2.44c-.71.15-1.47.28-2.14.39-.04-.15-.14-.38-.22-.53,1.57-.27,3.45-.66,4.45-1.13l.45.55c-.52.21-1.16.41-1.88.57v2.59h2.21v.64h-2.21v.34Zm7.63,4.01v3.74h-.66v-3.64l-4.79.74-.11-.63,4.9-.76v-8.39h.66v8.29l1.79-.28.1.62-1.89.31Zm-2.24-1.85c-.56-.6-1.68-1.46-2.63-2l.41-.41c.95.53,2.1,1.36,2.65,1.95l-.42.46Zm.28-3.7c-.46-.57-1.48-1.39-2.34-1.92l.42-.42c.88.5,1.89,1.29,2.37,1.86l-.45.48Z"/>
      <path class="cls-1" d="m186.01,68.64h-5.83v3.25c0,.48-.13.7-.56.81-.42.11-1.18.11-2.49.11-.06-.18-.2-.45-.32-.64,1.21.03,2.07.03,2.37,0,.29-.03.34-.08.34-.28v-3.25h-5.76v-.63h5.76v-1.08h.35c.92-.39,1.91-.95,2.62-1.51h-6.47v-.62h7.17l.15-.04.45.34c-.9.88-2.34,1.74-3.6,2.28v.63h5.83v.63Zm-11.26-3.19h-.64v-2.94h2.28c-.28-.56-.81-1.34-1.32-1.93l.56-.25c.55.6,1.13,1.42,1.37,1.98l-.39.21h3.21c-.18-.62-.64-1.54-1.12-2.23l.57-.21c.49.7.98,1.64,1.16,2.23l-.5.21h2.65c.57-.63,1.29-1.61,1.69-2.3l.66.27c-.48.69-1.06,1.44-1.6,2.03h2.38v2.94h-.66v-2.33h-10.31v2.33Z"/>
      <path class="cls-1" d="m200.67,60.38l-12.57,12.56-.38-.38,12.56-12.56.38.38Z"/>
      <path class="cls-1" d="m205.4,63.05c-.29.6-.64,1.21-1.02,1.79v7.93h-.63v-7.02c-.48.64-.97,1.23-1.46,1.72-.08-.13-.31-.41-.45-.55,1.09-1.04,2.23-2.58,2.94-4.09l.62.21Zm-.32-2.69c-.64,1.07-1.68,2.28-2.63,3.11-.08-.14-.29-.38-.41-.5.9-.74,1.89-1.89,2.41-2.84l.63.24Zm4.19,10.73v1.71h-.62v-1.71h-3.59v-.57h1.26v-1.47h-.7v-.57h3.03v-1.01h-2.59v-2.73h4.76v2.73h-1.56v1.01h1.95v.57h-1.95v1.47h2.14v.57h-2.14Zm2.3-7.19h-6.08v-.59h1.64c.1-.43.2-.95.29-1.48h-1.42v-.56h1.53c.07-.41.13-.81.18-1.16l.6.07c-.04.34-.11.71-.17,1.09h2.51v2.04h.91v.59Zm-4.93,3.01h3.6v-1.65h-3.6v1.65Zm2.02,3.6v-1.47h-1.74v1.47h1.74Zm-.6-8.68c-.1.53-.21,1.05-.29,1.48h2.3v-1.48h-2Zm6.91,3.59h-1.36v6.5c0,.45-.11.66-.46.78-.32.1-.94.11-1.9.11-.03-.18-.13-.46-.22-.67.83.03,1.48.03,1.7.01.2-.01.25-.07.25-.24v-6.5h-1.72v-.63h3.73v.63Zm-.25-3.75h-3.22v-.63h3.22v.63Z"/>
      <path class="cls-1" d="m229.1,71.68v.66h-12.37v-.66h5.84v-3.99h-4.38v-.66h4.38v-3.43h-3.54c-.46.95-.98,1.78-1.57,2.45-.13-.1-.43-.29-.6-.39,1.18-1.27,2.07-3.22,2.63-5.25l.69.14c-.24.83-.53,1.64-.85,2.41h3.25v-2.83h.69v2.83h5.21v.64h-5.21v3.43h4.72v.66h-4.72v3.99h5.84Z"/>
      <path class="cls-1" d="m243.41,68.64h-5.83v3.25c0,.48-.13.7-.56.81-.42.11-1.18.11-2.49.11-.06-.18-.2-.45-.32-.64,1.21.03,2.07.03,2.37,0,.29-.03.34-.08.34-.28v-3.25h-5.76v-.63h5.76v-1.08h.35c.92-.39,1.91-.95,2.62-1.51h-6.47v-.62h7.17l.15-.04.45.34c-.9.88-2.34,1.74-3.6,2.28v.63h5.83v.63Zm-11.26-3.19h-.64v-2.94h2.28c-.28-.56-.81-1.34-1.32-1.93l.56-.25c.55.6,1.13,1.42,1.37,1.98l-.39.21h3.21c-.18-.62-.64-1.54-1.12-2.23l.57-.21c.49.7.98,1.64,1.16,2.23l-.5.21h2.65c.57-.63,1.29-1.61,1.69-2.3l.66.27c-.48.69-1.06,1.44-1.6,2.03h2.38v2.94h-.66v-2.33h-10.31v2.33Z"/>
    </g>
    <g>
      <path class="cls-1" d="m7.12,39.15H0v-7.12h7.12v7.12Z"/>
      <path class="cls-1" d="m7.12,68.15H0v-7.12h7.12v7.12Z"/>
    </g>
  </g>
</svg>