<?xml version="1.0" encoding="UTF-8"?>
<svg id="_レイヤー_2" data-name="レイヤー 2" xmlns="http://www.w3.org/2000/svg" viewBox="0 0 134.79 47.07">
  <defs>
    <style>
      .cls-1 {
        fill: #231815;
      }
    </style>
  </defs>
  <g id="_レイヤー_1-2" data-name="レイヤー 1">
    <g>
      <path class="cls-1" d="m13.49,7.79l-1.86-3.9,1.86-3.9.46.15-1.81,3.75,1.81,3.75-.46.15Zm1.32,0l-1.86-3.9,1.86-3.9.45.15-1.8,3.75,1.8,3.75-.45.15Z"/>
      <path class="cls-1" d="m21.84,1.85c-.28.72-.81,1.7-1.41,2.45.88.75,1.9,1.84,2.44,2.5l-.59.5c-.56-.74-1.45-1.72-2.3-2.48-.9.96-2.02,1.88-3.26,2.44l-.54-.56c1.35-.53,2.58-1.52,3.45-2.48.57-.64,1.18-1.63,1.39-2.32h-3.26c-.29,0-.75.03-.84.04v-.76c.12.02.59.05.84.05h3.23c.28,0,.49-.03.63-.07l.43.33c-.05.07-.16.25-.21.37Z"/>
      <path class="cls-1" d="m25.89,1.46l.74.16c-.05.18-.12.43-.15.6-.12.53-.41,1.76-.76,2.62-.31.77-.76,1.63-1.23,2.3l-.71-.3c.53-.69,1-1.57,1.29-2.27.36-.86.71-2.13.82-3.1Zm2.08.14l.68-.23c.33.6.87,1.76,1.22,2.64.34.83.79,2.11,1,2.86l-.74.24c-.21-.85-.59-1.98-.95-2.88-.33-.86-.84-2.02-1.21-2.64Zm2.38-1.3c.51,0,.94.43.94.94s-.43.94-.94.94-.94-.42-.94-.94.42-.94.94-.94Zm0,1.5c.3,0,.55-.25.55-.55s-.25-.56-.55-.56-.55.25-.55.56.24.55.55.55Z"/>
      <path class="cls-1" d="m37.62,1.6c-.28.74-.69,1.66-1.25,2.47.75.62,1.47,1.27,2.07,1.92l-.53.58c-.62-.71-1.25-1.3-1.97-1.92-.79.95-1.82,1.94-3.28,2.7l-.58-.53c1.46-.69,2.49-1.61,3.32-2.62-.62-.5-1.55-1.19-2.36-1.69l.43-.53c.72.46,1.69,1.15,2.35,1.66.54-.78.89-1.57,1.14-2.28.06-.17.13-.43.17-.62l.77.27c-.09.15-.21.43-.28.61Z"/>
      <path class="cls-1" d="m40.53,5.81h5.01c.25,0,.52-.02.76-.04v.8c-.25-.03-.54-.04-.76-.04h-5.01c-.3,0-.59.02-.88.04v-.8c.28.02.58.04.88.04Zm.67-4.15h3.58c.3,0,.59,0,.83-.03v.75c-.23-.02-.55-.03-.83-.03h-3.58c-.29,0-.57.02-.83.03v-.75c.27.02.55.03.83.03Z"/>
      <path class="cls-1" d="m52.49,3.35c-.07.57-.31,2.22-.43,2.99h.82c.18,0,.49,0,.66-.02v.68c-.15,0-.46-.02-.63-.02h-4.58c-.26,0-.45,0-.69.03v-.69c.2.02.44.03.69.03h3.03c.13-.7.37-2.33.39-2.81h-2.66c-.24,0-.46.02-.67.03v-.7c.2.02.45.05.66.05h2.54c.13,0,.34-.03.42-.06l.51.24c-.03.08-.05.19-.06.26Z"/>
      <path class="cls-1" d="m56.29,3.5h4.58c.42,0,.72-.03.9-.04v.82c-.17,0-.52-.04-.9-.04h-4.59c-.46,0-.9.02-1.16.04v-.82c.25.02.69.04,1.16.04Z"/>
      <path class="cls-1" d="m64.88,3.9l-1.8-3.75.45-.15,1.86,3.9-1.86,3.9-.45-.15,1.8-3.75Zm1.32,0l-1.8-3.75.45-.15,1.86,3.9-1.86,3.9-.45-.15,1.8-3.75Z"/>
      <path class="cls-1" d="m13.78,14.53l.74.15c-.06.18-.12.44-.16.61-.11.52-.4,1.76-.75,2.62-.31.77-.77,1.62-1.24,2.3l-.71-.3c.53-.69,1-1.58,1.29-2.27.37-.87.71-2.14.83-3.1Zm2.08.13l.68-.23c.33.61.86,1.76,1.22,2.65.33.82.78,2.11,1,2.86l-.74.24c-.21-.85-.6-1.99-.95-2.88-.33-.86-.85-2.02-1.21-2.65Z"/>
      <path class="cls-1" d="m23.68,18.54c1.29-.81,2.31-2.05,2.79-3.08l.4.71c-.57,1.04-1.55,2.18-2.81,2.98-.84.53-1.89,1.04-3.29,1.3l-.44-.69c1.46-.22,2.55-.73,3.34-1.22Zm-.49-2.65l-.53.53c-.42-.43-1.46-1.33-2.08-1.75l.48-.51c.59.39,1.66,1.26,2.13,1.73Z"/>
      <path class="cls-1" d="m28.84,14.79c0-.23-.02-.61-.07-.87h.83c-.03.26-.06.62-.06.87v1.36c1.1.34,2.68.94,3.57,1.38l-.29.71c-.9-.49-2.35-1.04-3.28-1.34v2.75c0,.27.03.72.05.99h-.8c.03-.27.05-.68.05-.99v-4.87Zm3.7.74l-.48.22c-.21-.43-.47-.89-.74-1.27l.46-.21c.21.31.57.87.76,1.26Zm1.04-.44l-.47.23c-.23-.44-.49-.89-.78-1.25l.46-.22c.22.29.58.85.79,1.24Z"/>
      <path class="cls-1" d="m41.19,15.24c-.6.98-1.66,2.34-3.04,3.39.5.5,1.09,1.13,1.43,1.54l-.61.49c-.31-.43-.98-1.16-1.5-1.71-.5-.5-1.47-1.34-1.92-1.65l.54-.44c.31.23,1,.79,1.56,1.3,1.23-.92,2.19-2.15,2.61-2.9h-4.92c-.33,0-.69.03-.85.05v-.75c.23.03.56.07.85.07h4.98c.23,0,.43-.02.54-.07l.53.43c-.08.09-.16.18-.21.26Z"/>
      <path class="cls-1" d="m43.74,17.77l-.63.23c-.13-.43-.58-1.59-.74-1.88l.62-.24c.17.36.6,1.46.76,1.89Zm4.08-1.42c-.23.92-.58,1.81-1.19,2.57-.77.99-1.79,1.63-2.73,1.99l-.55-.56c.97-.28,2.03-.92,2.72-1.78.59-.73,1.03-1.79,1.15-2.86l.72.23c-.06.18-.09.31-.12.42Zm-2.24.92l-.62.22c-.09-.38-.48-1.44-.65-1.81l.61-.21c.14.33.55,1.44.66,1.81Z"/>
      <path class="cls-1" d="m52.03,20.67l-.56-.53c1.52-.59,2.28-1.3,2.28-3.65v-.35h-2.38v1.35c0,.31.02.68.03.76h-.74c0-.08.03-.44.03-.76v-1.35h-.9c-.36,0-.74.03-.84.03v-.73c.08.02.48.06.84.06h.9v-1.07c0-.18,0-.42-.03-.61h.74c0,.08-.04.32-.04.61v1.07h2.38v-1.04c0-.33-.03-.6-.04-.69h.75c0,.08-.04.36-.04.69v1.04h.92c.37,0,.65-.03.77-.04v.7c-.09,0-.4-.03-.77-.03h-.92v.3c0,2.22-.48,3.37-2.39,4.22Z"/>
      <path class="cls-1" d="m58.65,16.7h4.58c.42,0,.72-.03.9-.04v.82c-.17,0-.52-.04-.9-.04h-4.59c-.46,0-.9.02-1.16.04v-.82c.25.02.69.04,1.16.04Z"/>
      <path class="cls-1" d="m68.14,16.93l-.38.58c-.42-.3-1.32-.89-1.83-1.15l.38-.57c.49.27,1.47.87,1.83,1.13Zm.98,2c1.39-.79,2.49-1.89,3.17-3.07l.4.69c-.73,1.12-1.88,2.2-3.22,2.99-.84.49-1.99.88-2.77,1.04l-.38-.68c.91-.16,1.96-.49,2.8-.97Zm.27-3.83l-.39.58c-.4-.31-1.31-.91-1.8-1.2l.38-.56c.49.28,1.45.92,1.81,1.18Zm2.53.24l-.48.22c-.21-.43-.49-.94-.76-1.32l.46-.19c.21.3.58.9.78,1.3Zm1.12-.42l-.48.22c-.23-.44-.51-.92-.79-1.3l.47-.2c.23.29.59.89.8,1.28Z"/>
      <path class="cls-1" d="m73.96,18.89l.54-.48c.6.49,1.35,1.25,1.87,1.86l-.57.49c-.54-.66-1.25-1.38-1.85-1.87Z"/>
      <path class="cls-1" d="m82.46,20.09c.44.09.93.13,1.46.13.26,0,1.68,0,2.03,0-.09.15-.19.43-.23.6h-1.84c-1.77,0-3.05-.32-3.85-1.76-.28.74-.69,1.42-1.28,1.88-.1-.13-.31-.33-.43-.42.99-.76,1.39-2.17,1.5-3.36l.66.08c-.05.34-.12.69-.21,1.05.33.88.86,1.38,1.55,1.65v-3.39h-2.48v-2.83h5.69v2.83h-2.58v1.29h2.8v.58h-2.8v1.7Zm-2.5-4.16h4.43v-1.64h-4.43v1.64Z"/>
      <path class="cls-1" d="m90.58,18.69c-.33.23-.73.46-1.17.65v.84c.67-.08,1.4-.18,2.11-.27l.03.48c-1.3.18-2.67.38-3.64.5l-.11-.51c.29-.03.63-.08,1.01-.12v-.67c-.55.2-1.14.37-1.67.47-.08-.12-.22-.32-.33-.43.99-.17,2.13-.51,2.93-.94h-2.78v-.49h3.39v-.42h-2.81v-.46h2.81v-.42h-2.39v-2.1h5.45v2.1h-2.46v.42h2.83v.46h-2.83v.42h3.43v.49h-3.13c.23.31.51.58.84.82.45-.2,1.01-.49,1.35-.7l.4.34c-.41.23-.91.44-1.35.61.58.33,1.26.55,2.02.68-.13.13-.29.34-.36.49-1.56-.33-2.81-1.08-3.5-2.24h-.08Zm3.7-4.28h-7.21v-.49h3.28v-.64h.6v.64h3.33v.49Zm-5.74,1.26h1.81v-.48h-1.81v.48Zm1.81.85v-.49h-1.81v.49h1.81Zm2.46-1.33h-1.86v.48h1.86v-.48Zm0,.84h-1.86v.49h1.86v-.49Z"/>
      <path class="cls-1" d="m102.32,20.13c0,.4-.1.6-.41.69-.31.1-.84.11-1.7.11-.03-.17-.14-.44-.24-.6.68.02,1.33.02,1.51,0,.18,0,.23-.05.23-.22v-1.04h-4.66c-.21.69-.59,1.35-1.25,1.87-.08-.13-.3-.35-.43-.44,1.18-.91,1.31-2.2,1.31-3.26v-1.47c-.21.19-.43.37-.67.54-.11-.15-.3-.35-.45-.44,1.11-.76,1.91-1.79,2.32-2.62l.68.12c-.08.13-.15.26-.23.39h2.02l.1-.03.42.28c-.19.38-.48.8-.76,1.16h2.2v4.95Zm-5.03-2.75c0,.37-.03.76-.11,1.16h1.95v-1.16h-1.84Zm.71-3.08c-.21.3-.44.59-.71.89h2.15c.2-.26.42-.58.59-.89h-2.02Zm-.71,2.55h1.84v-1.1h-1.84v1.1Zm4.42-1.1h-1.98v1.1h1.98v-1.1Zm0,2.8v-1.16h-1.98v1.16h1.98Z"/>
      <path class="cls-1" d="m105.23,14.97c-.08.5-.3,1.06-.78,1.5-.09-.13-.29-.32-.42-.4.59-.54.69-1.2.69-1.74v-.83l.49.14c.72-.09,1.48-.21,1.93-.34l.42.38c-.62.18-1.5.3-2.29.37v.43h2.51v.49h-.99v1.04h-.55v-1.04h-1.02Zm1.9,4.97c-.68.39-1.72.78-2.55,1-.11-.12-.32-.36-.46-.47.85-.18,1.86-.47,2.45-.8l.56.27Zm-1.97-3.75h5.43v3.4h-5.43v-3.4Zm.59,1h4.21v-.58h-4.21v.58Zm0,.99h4.21v-.58h-4.21v.58Zm0,1h4.21v-.6h-4.21v.6Zm5.79-4.68v.49h-1.24v1.06h-.56v-1.06h-1.16c-.12.4-.37.82-.87,1.15-.08-.13-.25-.33-.38-.41.68-.44.8-.98.8-1.44v-.74l.48.12c.77-.08,1.61-.19,2.11-.33l.42.39c-.65.18-1.61.29-2.45.36v.23c0,.06,0,.12,0,.19h2.87Zm-2.51,5.21c.9.29,1.9.65,2.51.93l-.69.31c-.52-.27-1.42-.62-2.33-.92l.51-.32Z"/>
      <path class="cls-1" d="m115.29,13.86c-.25.69-.55,1.54-.83,2.2.6.68.74,1.28.74,1.79,0,.44-.1.79-.33.95-.12.08-.27.13-.43.15s-.37.03-.56.02c0-.16-.06-.39-.16-.55.19.02.36.03.48,0,.11,0,.2-.02.27-.07.13-.09.17-.33.17-.57,0-.45-.14-1.01-.74-1.66.24-.61.48-1.35.66-1.92h-1.1v6.71h-.55v-7.27h1.87l.1-.03.4.24Zm1.28,4.53c-.28.76-.74,1.52-1.21,2.01-.1-.1-.33-.28-.45-.37.46-.43.87-1.09,1.11-1.76l.55.12Zm1.28-5.08c.61.92,1.58,1.82,2.46,2.31-.12.13-.26.35-.34.52-.87-.54-1.82-1.45-2.37-2.27-.48.79-1.37,1.71-2.31,2.31-.08-.15-.22-.36-.33-.49.96-.57,1.89-1.54,2.34-2.38h.55Zm.05,4.51v2.4c0,.33-.06.5-.28.59-.22.1-.56.11-1.08.11-.02-.16-.12-.42-.21-.58.39.02.74,0,.84,0s.14-.03.14-.13v-2.4h-1.85v-.54h1.85v-1.04h-1.29v-.54h3.21v.54h-1.35v1.04h2v.54h-2Zm1.1.44c.45.57.95,1.35,1.16,1.83l-.51.28c-.2-.49-.69-1.29-1.13-1.88l.48-.23Z"/>
      <path class="cls-1" d="m124.66,17.35c-.36.81-.82,1.77-1.24,2.51,1.16-.05,2.49-.11,3.79-.18-.33-.49-.73-.97-1.09-1.38l.58-.28c.74.81,1.55,1.91,1.93,2.63l-.61.33c-.1-.21-.24-.45-.4-.71-2.17.12-4.47.23-5.98.3l-.09-.65c.35,0,.74-.03,1.17-.04.4-.72.86-1.74,1.15-2.53h-2.62v-.61h3.37v-1.58h-2.73v-.61h2.73v-1.26h.64v1.26h2.83v.61h-2.83v1.58h3.44v.61h-4.06Z"/>
      <path class="cls-1" d="m17.84,28.35c-.18.88-.58,2.22-1.25,3.09-.76.98-1.76,1.76-3.29,2.24l-.57-.63c1.62-.41,2.56-1.12,3.26-2.01.59-.76.98-1.92,1.09-2.73h-4.27c-.33,0-.62.02-.84.02v-.74c.23.02.56.05.84.05h4.2c.13,0,.28,0,.44-.04l.51.33c-.06.12-.09.26-.12.42Z"/>
      <path class="cls-1" d="m20.52,30.98l-.63.23c-.13-.43-.58-1.59-.74-1.88l.62-.24c.17.36.6,1.46.76,1.89Zm4.08-1.42c-.23.92-.58,1.81-1.19,2.57-.77.99-1.79,1.63-2.73,1.99l-.55-.56c.97-.28,2.03-.92,2.72-1.78.59-.73,1.03-1.79,1.15-2.86l.72.23c-.06.18-.09.31-.12.42Zm-2.24.92l-.62.22c-.09-.38-.48-1.44-.65-1.81l.61-.21c.14.33.55,1.44.66,1.81Z"/>
      <path class="cls-1" d="m26.94,27.89c0-.23-.02-.61-.07-.87h.82c-.02.26-.06.62-.06.87v1.36c1.1.33,2.69.94,3.57,1.38l-.28.71c-.91-.49-2.36-1.05-3.29-1.35,0,1.25,0,2.52,0,2.76,0,.26.02.71.05.99h-.81c.04-.27.06-.68.06-.99v-4.87Z"/>
      <path class="cls-1" d="m39.11,28.45c-.6.98-1.66,2.34-3.04,3.39.5.5,1.09,1.13,1.43,1.54l-.61.49c-.31-.43-.98-1.16-1.5-1.71-.5-.5-1.47-1.34-1.92-1.65l.54-.44c.31.23,1,.79,1.56,1.3,1.23-.92,2.19-2.15,2.61-2.9h-4.92c-.33,0-.69.03-.85.05v-.75c.23.03.56.07.85.07h4.98c.23,0,.43-.02.54-.07l.53.43c-.08.09-.16.18-.21.26Z"/>
      <path class="cls-1" d="m41.65,30.98l-.63.23c-.13-.43-.58-1.59-.74-1.88l.62-.24c.17.36.6,1.46.76,1.89Zm4.08-1.42c-.23.92-.58,1.81-1.19,2.57-.77.99-1.79,1.63-2.73,1.99l-.55-.56c.97-.28,2.03-.92,2.72-1.78.59-.73,1.03-1.79,1.15-2.86l.72.23c-.06.18-.09.31-.12.42Zm-2.24.92l-.62.22c-.09-.38-.48-1.44-.65-1.81l.61-.21c.14.33.55,1.44.66,1.81Z"/>
      <path class="cls-1" d="m49.94,33.88l-.56-.53c1.52-.59,2.28-1.3,2.28-3.65v-.35h-2.38v1.35c0,.31.02.68.03.76h-.74c0-.08.03-.44.03-.76v-1.35h-.9c-.36,0-.74.03-.84.03v-.73c.08.02.48.06.84.06h.9v-1.07c0-.18,0-.42-.03-.61h.74c0,.08-.04.32-.04.61v1.07h2.38v-1.04c0-.33-.03-.6-.04-.69h.75c0,.08-.04.36-.04.69v1.04h.92c.37,0,.65-.03.77-.04v.7c-.09,0-.4-.03-.77-.03h-.92v.3c0,2.22-.48,3.37-2.39,4.22Z"/>
      <path class="cls-1" d="m56.56,29.91h4.58c.42,0,.72-.03.9-.04v.82c-.17,0-.52-.04-.9-.04h-4.59c-.46,0-.9.02-1.16.04v-.82c.25.02.69.04,1.16.04Z"/>
      <path class="cls-1" d="m66.06,30.14l-.38.58c-.42-.3-1.32-.89-1.83-1.15l.38-.57c.49.27,1.47.87,1.83,1.13Zm.98,2c1.39-.79,2.49-1.89,3.17-3.07l.4.69c-.73,1.12-1.88,2.2-3.22,2.99-.84.49-1.99.88-2.77,1.04l-.38-.68c.91-.16,1.96-.49,2.8-.97Zm.27-3.83l-.39.58c-.4-.31-1.31-.91-1.8-1.2l.38-.56c.49.28,1.45.92,1.81,1.18Zm2.53.24l-.48.22c-.21-.43-.49-.94-.76-1.32l.46-.19c.21.3.58.9.78,1.3Zm1.12-.42l-.48.22c-.23-.44-.51-.92-.79-1.3l.47-.2c.23.29.59.89.8,1.28Z"/>
      <path class="cls-1" d="m71.88,32.09l.54-.48c.6.49,1.35,1.25,1.87,1.86l-.57.49c-.54-.66-1.25-1.38-1.85-1.87Z"/>
      <path class="cls-1" d="m78.22,27.87l.74.16c-.05.18-.12.43-.15.6-.12.53-.41,1.76-.76,2.62-.31.77-.76,1.63-1.23,2.3l-.71-.3c.53-.69,1-1.57,1.29-2.27.36-.86.71-2.13.82-3.1Zm2.08.14l.68-.23c.33.6.87,1.76,1.22,2.64.34.83.79,2.11,1,2.86l-.74.24c-.21-.85-.59-1.98-.95-2.88-.33-.86-.84-2.02-1.21-2.64Zm2.38-1.3c.51,0,.94.43.94.94s-.43.94-.94.94-.94-.42-.94-.94.42-.94.94-.94Zm0,1.5c.3,0,.55-.25.55-.55s-.25-.56-.55-.56-.55.25-.55.56.24.55.55.55Z"/>
      <path class="cls-1" d="m90.55,29.71c-.23.83-.6,1.7-1.22,2.38-.88.96-1.92,1.46-2.99,1.75l-.52-.59c1.19-.24,2.23-.78,2.94-1.53.51-.54.84-1.25,1-1.85h-4.44c-.2,0-.52,0-.82.03v-.7c.31.03.59.05.82.05h4.41c.19,0,.37-.02.46-.07l.48.3c-.04.08-.09.18-.11.24Zm-4.55-2.41h3.29c.27,0,.56,0,.76-.04v.69c-.2-.02-.49-.03-.77-.03h-3.28c-.26,0-.53,0-.75.03v-.69c.22.03.49.04.75.04Z"/>
      <path class="cls-1" d="m97.82,28.35c-.18.88-.59,2.22-1.25,3.09-.76.98-1.76,1.76-3.29,2.24l-.57-.63c1.62-.41,2.56-1.12,3.26-2.01.59-.76.98-1.92,1.09-2.73h-4.27c-.33,0-.62.02-.84.02v-.74c.23.02.56.05.84.05h4.2c.13,0,.28,0,.44-.04l.51.33c-.06.12-.09.26-.12.42Z"/>
      <path class="cls-1" d="m102.02,30.07c.79-.48,1.56-1.17,1.99-1.71l.52.5c-.42.46-1.13,1.07-1.89,1.56v2.98c0,.26,0,.6.04.74h-.77c.02-.13.03-.48.03-.74v-2.56c-.7.38-1.67.81-2.62,1.1l-.32-.62c1.1-.26,2.33-.84,3.01-1.26Z"/>
      <path class="cls-1" d="m109.28,31.74c1.29-.81,2.31-2.05,2.79-3.08l.4.71c-.57,1.04-1.55,2.18-2.81,2.98-.84.53-1.89,1.04-3.29,1.3l-.44-.69c1.46-.22,2.55-.73,3.34-1.22Zm-.49-2.65l-.53.53c-.42-.43-1.46-1.33-2.08-1.75l.48-.51c.59.39,1.66,1.26,2.13,1.73Z"/>
      <path class="cls-1" d="m115.25,27.87l.74.16c-.05.18-.12.43-.15.6-.12.53-.41,1.76-.76,2.62-.31.77-.76,1.63-1.23,2.3l-.71-.3c.53-.69,1-1.57,1.29-2.27.36-.86.71-2.13.82-3.1Zm2.08.14l.68-.23c.33.6.87,1.76,1.22,2.64.34.83.79,2.11,1,2.86l-.74.24c-.21-.85-.59-1.98-.95-2.88-.33-.86-.84-2.02-1.21-2.64Zm2.38-1.3c.51,0,.94.43.94.94s-.43.94-.94.94-.94-.42-.94-.94.42-.94.94-.94Zm0,1.5c.3,0,.55-.25.55-.55s-.25-.56-.55-.56-.55.25-.55.56.24.55.55.55Z"/>
      <path class="cls-1" d="m122.89,30.98l-.63.23c-.13-.43-.58-1.59-.74-1.88l.62-.24c.17.36.6,1.46.76,1.89Zm4.08-1.42c-.23.92-.59,1.81-1.19,2.57-.77.99-1.79,1.63-2.73,1.99l-.55-.56c.97-.28,2.03-.92,2.72-1.78.59-.73,1.03-1.79,1.15-2.86l.72.23c-.06.18-.09.31-.12.42Zm-2.24.92l-.62.22c-.09-.38-.48-1.44-.65-1.81l.61-.21c.14.33.55,1.44.66,1.81Z"/>
      <path class="cls-1" d="m131.62,27.65c-.06.12-.12.23-.2.35h2.27c.23,0,.41-.02.54-.08l.56.34c-.07.12-.15.31-.19.44-.23.84-.75,1.97-1.49,2.88-.76.93-1.76,1.7-3.33,2.27l-.6-.54c1.53-.45,2.58-1.21,3.34-2.1.65-.77,1.16-1.85,1.34-2.61h-2.83c-.51.7-1.21,1.45-2.12,2.06l-.58-.43c1.44-.86,2.27-2.07,2.62-2.83.08-.14.21-.44.26-.66l.78.25c-.14.22-.29.5-.37.66Z"/>
      <path class="cls-1" d="m17.45,41.47c-.28.72-.81,1.7-1.41,2.45.88.75,1.9,1.84,2.44,2.5l-.59.5c-.56-.74-1.45-1.72-2.3-2.48-.9.96-2.02,1.88-3.26,2.44l-.54-.56c1.35-.53,2.58-1.52,3.45-2.48.57-.64,1.18-1.63,1.39-2.32h-3.26c-.29,0-.75.03-.84.04v-.76c.12.02.59.05.84.05h3.23c.28,0,.49-.03.63-.07l.43.33c-.05.07-.16.25-.21.37Z"/>
      <path class="cls-1" d="m23,40.86c-.06.12-.12.23-.2.35h2.27c.23,0,.41-.02.54-.08l.56.34c-.07.12-.15.31-.19.44-.23.84-.74,1.97-1.49,2.88-.76.93-1.76,1.7-3.33,2.27l-.6-.54c1.53-.45,2.58-1.21,3.34-2.1.65-.77,1.16-1.85,1.34-2.61h-2.83c-.51.7-1.21,1.45-2.12,2.06l-.58-.43c1.44-.86,2.27-2.07,2.62-2.83.08-.14.21-.44.26-.66l.78.25c-.14.22-.29.5-.37.66Z"/>
      <path class="cls-1" d="m33.46,42.92c-.23.83-.6,1.7-1.22,2.38-.88.96-1.92,1.46-2.99,1.75l-.52-.59c1.19-.24,2.23-.78,2.94-1.53.51-.54.84-1.25,1-1.85h-4.44c-.2,0-.52,0-.82.03v-.7c.31.03.59.05.82.05h4.41c.19,0,.37-.02.46-.07l.48.3c-.04.08-.09.18-.11.24Zm-4.55-2.41h3.29c.27,0,.56,0,.76-.04v.69c-.2-.02-.49-.03-.77-.03h-3.28c-.26,0-.53,0-.75.03v-.69c.22.03.49.04.75.04Z"/>
      <path class="cls-1" d="m40.77,40.85l-.32.14.41.26c-.06.12-.09.25-.13.42-.18.88-.58,2.22-1.25,3.09-.77.98-1.76,1.76-3.29,2.23l-.57-.63c1.62-.4,2.56-1.11,3.26-2.01.59-.76.98-1.92,1.1-2.73h-4.28c-.33,0-.62.02-.83.03v-.74c.23.03.56.06.84.06h4.19c.11,0,.23,0,.36-.03-.17-.33-.42-.74-.61-1l.46-.19c.19.28.49.79.66,1.1Zm1.09-.22l-.46.2c-.18-.34-.46-.82-.69-1.11l.46-.19c.21.28.51.79.69,1.1Z"/>
    </g>
    <path class="cls-1" d="m3.14,6.35H0v-3.14h3.14v3.14Z"/>
  </g>
</svg>