<?xml version="1.0" encoding="UTF-8"?>
<svg id="_レイヤー_2" data-name="レイヤー 2" xmlns="http://www.w3.org/2000/svg" viewBox="0 0 131.22 96.29">
  <defs>
    <style>
      .cls-1 {
        fill: #fff;
      }

      .cls-2 {
        fill: #686969;
      }

      .cls-3 {
        fill: #231815;
      }
    </style>
  </defs>
  <g id="_レイヤー_1-2" data-name="レイヤー 1">
    <g>
      <path class="cls-3" d="m13.49,7.79l-1.86-3.9,1.86-3.9.46.15-1.81,3.75,1.81,3.75-.46.15Zm1.32,0l-1.86-3.9,1.86-3.9.45.15-1.8,3.75,1.8,3.75-.45.15Z"/>
      <path class="cls-3" d="m21.12,1.23c0,.19,0,.48.02.81h1.31c.22,0,.54-.03.71-.05v.7c-.19,0-.48-.02-.69-.02h-1.33c.02,1.25.05,2.92.06,3.96,0,.43-.26.67-.76.67-.43,0-.93-.02-1.34-.05l-.06-.69c.4.07.87.1,1.18.1.24,0,.31-.11.31-.33,0-.67,0-1.92-.03-3.04-.69.99-2.16,2.34-3.65,3.14l-.49-.54c1.7-.83,3.19-2.22,3.85-3.22h-2.75c-.28,0-.53,0-.79.03v-.71c.24.02.51.05.77.05h3.04c0-.33-.02-.62-.03-.81-.03-.32-.04-.53-.08-.7h.78c-.03.23-.05.47-.05.7Z"/>
      <path class="cls-3" d="m25.65,3.5h4.58c.42,0,.72-.03.9-.04v.82c-.17,0-.52-.04-.9-.04h-4.59c-.46,0-.9.02-1.16.04v-.82c.25.02.69.04,1.16.04Z"/>
      <path class="cls-3" d="m39.11,1.48l-.44.2.39.23c-.07.12-.15.31-.19.44-.23.77-.69,1.76-1.31,2.61.36.26.69.51.95.73l-.49.58c-.25-.23-.56-.49-.91-.75-.74.83-1.77,1.59-3.19,2.12l-.6-.53c1.41-.43,2.49-1.2,3.24-2.01-.59-.44-1.24-.87-1.77-1.2l.45-.47c.55.32,1.18.73,1.76,1.14.54-.74.97-1.63,1.14-2.32h-2.83c-.54.74-1.28,1.56-2.22,2.21l-.56-.43c1.44-.9,2.3-2.16,2.68-2.92.08-.15.22-.44.27-.66l.76.24c-.14.22-.29.5-.38.66-.05.09-.11.19-.17.29h2.26c.23,0,.42-.02.55-.08l.14.08c-.17-.33-.44-.83-.67-1.14l.44-.19c.21.3.51.8.69,1.15Zm.94-.34l-.45.2c-.18-.37-.46-.84-.69-1.15l.44-.18c.22.3.54.83.7,1.14Z"/>
      <path class="cls-3" d="m41.96,3.5h4.58c.42,0,.72-.03.9-.04v.82c-.17,0-.52-.04-.9-.04h-4.59c-.46,0-.9.02-1.16.04v-.82c.25.02.69.04,1.16.04Z"/>
      <path class="cls-3" d="m50.37,1.39h4.12c.2,0,.45,0,.62-.02,0,.19-.03.45-.03.65v4.31c0,.3.03.68.03.81h-.75c0-.09,0-.27.02-.47h-4.09c-.34,0-.72.02-.95.03v-.76c.22.03.58.05.93.05h4.11v-3.95h-4c-.31,0-.73.02-.92.03v-.74c.28.03.64.05.91.05Z"/>
      <path class="cls-3" d="m58.56,3.5h4.58c.42,0,.72-.03.9-.04v.82c-.17,0-.52-.04-.9-.04h-4.59c-.46,0-.9.02-1.16.04v-.82c.25.02.69.04,1.16.04Z"/>
      <path class="cls-3" d="m71.12,1.85c-.28.72-.81,1.7-1.41,2.45.88.75,1.9,1.84,2.44,2.5l-.59.5c-.56-.74-1.45-1.72-2.3-2.48-.9.96-2.02,1.88-3.26,2.44l-.54-.56c1.35-.53,2.58-1.52,3.45-2.48.57-.64,1.18-1.63,1.39-2.32h-3.26c-.29,0-.75.03-.84.04v-.76c.12.02.59.05.84.05h3.23c.28,0,.49-.03.63-.07l.43.33c-.05.07-.16.25-.21.37Z"/>
      <path class="cls-3" d="m74.88,3.9l-1.8-3.75.45-.15,1.86,3.9-1.86,3.9-.45-.15,1.8-3.75Zm1.32,0l-1.8-3.75.45-.15,1.86,3.9-1.86,3.9-.45-.15,1.8-3.75Z"/>
      <path class="cls-3" d="m13.78,14.53l.74.15c-.06.18-.12.43-.16.61-.11.52-.4,1.76-.75,2.62-.31.77-.77,1.62-1.24,2.3l-.71-.3c.53-.69,1-1.58,1.29-2.27.37-.87.71-2.14.83-3.1Zm2.08.13l.68-.23c.33.61.86,1.76,1.22,2.65.33.82.78,2.11,1,2.86l-.74.24c-.21-.85-.6-1.99-.95-2.88-.33-.86-.85-2.02-1.21-2.65Z"/>
      <path class="cls-3" d="m23.68,18.53c1.29-.81,2.31-2.05,2.79-3.08l.4.71c-.57,1.04-1.55,2.18-2.81,2.98-.84.53-1.89,1.04-3.29,1.3l-.44-.69c1.46-.22,2.55-.73,3.34-1.22Zm-.49-2.65l-.53.53c-.42-.43-1.46-1.33-2.08-1.75l.48-.51c.59.39,1.66,1.26,2.13,1.73Z"/>
      <path class="cls-3" d="m28.84,14.79c0-.23-.02-.61-.07-.87h.83c-.03.26-.06.62-.06.87v1.36c1.1.34,2.68.94,3.57,1.38l-.29.71c-.9-.49-2.35-1.05-3.28-1.34v2.75c0,.27.03.72.05.99h-.8c.03-.27.05-.68.05-.99v-4.87Zm3.7.74l-.48.22c-.21-.43-.47-.89-.74-1.27l.46-.21c.21.31.57.87.76,1.26Zm1.04-.44l-.47.23c-.23-.44-.49-.89-.78-1.25l.46-.22c.22.29.58.85.79,1.24Z"/>
      <path class="cls-3" d="m42.18,13.46l-7.54,7.54-.25-.25,7.54-7.54.25.25Z"/>
      <path class="cls-3" d="m49.12,15.14c-.18.88-.59,2.22-1.25,3.08-.76.98-1.76,1.76-3.29,2.24l-.57-.63c1.62-.41,2.56-1.12,3.26-2.02.59-.76.98-1.92,1.09-2.73h-4.27c-.33,0-.62.02-.84.03v-.74c.23.03.56.05.84.05h4.2c.13,0,.28,0,.44-.04l.51.33c-.06.12-.09.26-.12.42Z"/>
      <path class="cls-3" d="m51.8,17.77l-.63.23c-.13-.43-.58-1.59-.74-1.88l.62-.24c.17.36.6,1.46.76,1.89Zm4.08-1.42c-.23.92-.59,1.81-1.19,2.57-.77.99-1.79,1.63-2.73,1.99l-.55-.56c.97-.28,2.03-.92,2.72-1.78.59-.73,1.03-1.79,1.15-2.86l.72.23c-.06.18-.09.31-.12.42Zm-2.24.92l-.62.22c-.09-.38-.48-1.44-.65-1.81l.61-.21c.14.33.55,1.44.66,1.81Z"/>
      <path class="cls-3" d="m58.23,14.68c0-.23-.02-.61-.07-.87h.82c-.03.26-.06.62-.06.87v1.36c1.1.33,2.69.94,3.57,1.38l-.28.71c-.91-.49-2.36-1.05-3.29-1.35,0,1.25,0,2.52,0,2.76,0,.26.02.71.05.99h-.81c.04-.27.06-.68.06-.99v-4.87Z"/>
      <path class="cls-3" d="m13.49,34.21l-1.86-3.9,1.86-3.9.46.15-1.81,3.75,1.81,3.75-.46.15Zm1.32,0l-1.86-3.9,1.86-3.9.45.15-1.8,3.75,1.8,3.75-.45.15Z"/>
      <path class="cls-3" d="m23.04,28.14c-.33.57-1.13,1.65-2.08,2.31l-.55-.44c.77-.44,1.56-1.35,1.83-1.87h-4.77c-.31,0-.63.02-.95.05v-.76c.29.04.64.08.95.08h4.8c.16,0,.46-.02.58-.05l.41.39c-.06.08-.17.21-.23.3Zm-5.44,5.66l-.62-.5c.23-.08.52-.21.75-.38,1.3-.79,1.48-1.98,1.48-3.38,0-.2,0-.38-.03-.6h.75c0,2.27-.2,3.8-2.33,4.86Z"/>
      <path class="cls-3" d="m27.66,27.65c-.06.12-.12.23-.2.35h2.27c.23,0,.41-.03.54-.08l.56.34c-.07.12-.15.31-.19.44-.23.84-.75,1.97-1.49,2.88-.76.93-1.76,1.7-3.33,2.27l-.6-.54c1.53-.45,2.58-1.21,3.34-2.1.65-.77,1.16-1.85,1.34-2.61h-2.83c-.51.7-1.21,1.45-2.12,2.06l-.58-.44c1.44-.86,2.27-2.07,2.62-2.83.08-.14.21-.44.26-.66l.78.25c-.14.22-.29.5-.37.66Z"/>
      <path class="cls-3" d="m33.47,27.81v2.79c0,.21.02.48.03.63h-.77c.02-.12.04-.39.04-.64v-2.78c0-.15-.02-.44-.03-.6h.76c-.02.16-.03.4-.03.6Zm3.89.06v1.35c0,2.01-.28,2.67-.88,3.39-.54.65-1.38,1.01-1.99,1.22l-.54-.58c.77-.19,1.48-.53,2-1.11.59-.69.69-1.37.69-2.95v-1.32c0-.28-.02-.52-.04-.73h.79c-.02.21-.03.44-.03.73Z"/>
      <path class="cls-3" d="m40.17,31.22c.24-.76.25-2.43.25-3.36,0-.25-.03-.44-.06-.61h.77c0,.1-.04.35-.04.6,0,.93-.03,2.72-.26,3.55-.25.89-.79,1.71-1.49,2.3l-.63-.43c.7-.5,1.2-1.25,1.46-2.06Zm2.43,1.63v-5.01c0-.32-.04-.56-.05-.62h.77c0,.06-.03.3-.03.62v4.82c.77-.35,1.8-1.11,2.44-2.06l.39.57c-.72.98-1.88,1.84-2.85,2.32-.13.08-.23.14-.28.19l-.44-.37c.03-.13.06-.3.06-.47Z"/>
      <path class="cls-3" d="m48.7,30.31l-1.8-3.75.45-.15,1.86,3.9-1.86,3.9-.45-.15,1.8-3.75Zm1.32,0l-1.8-3.75.45-.15,1.86,3.9-1.86,3.9-.45-.15,1.8-3.75Z"/>
      <path class="cls-3" d="m18.92,44.65c-.56.41-1.27.84-1.88,1.14.63.49,1.43.84,2.38,1.03-.13.12-.31.38-.38.54-1.92-.44-3.19-1.49-3.89-3.12h-1.19v2.21c.69-.12,1.46-.24,2.19-.37l.03.55c-1.33.23-2.76.48-3.75.64l-.16-.57c.3-.04.67-.1,1.06-.16v-2.31h-1.46v-.56h1.46v-3.65h5.15v.53h-4.51v.69h4.26v.51h-4.26v.69h4.26v.51h-4.26v.71h5.33v.56h-3.5c.22.45.5.85.86,1.2.59-.33,1.33-.77,1.76-1.13l.51.33Z"/>
      <path class="cls-3" d="m23.84,40.12l.71-.09c.07.39.22.94.38,1.43.6-.08,1.3-.22,1.87-.41l.08.65c-.51.15-1.17.27-1.73.34.26.64.63,1.29.94,1.72.12.16.24.3.37.44l-.34.47c-.4-.09-1.41-.18-2.01-.23l.05-.56c.47.04,1.09.09,1.39.12-.33-.48-.73-1.21-1.01-1.91-1,.09-2.2.08-3.51-.02l-.02-.67c1.23.15,2.39.17,3.3.1-.1-.31-.18-.56-.24-.75-.06-.18-.13-.43-.21-.65Zm-1.96,5.13c0,.79.73,1.15,1.96,1.15.85,0,1.57-.08,2.16-.21l-.03.67c-.52.09-1.23.18-2.16.18-1.59,0-2.59-.59-2.59-1.72,0-.46.17-.89.4-1.39l.65.15c-.25.4-.39.76-.39,1.16Z"/>
      <path class="cls-3" d="m35.07,43.89v3.43h-.64v-.5h-5.22v.52h-.62v-3.45h.62v2.32h2.23v-2.85h-2.53v-2.86h.62v2.26h1.92v-3h.64v3h2.01v-2.26h.64v2.86h-2.65v2.85h2.35v-2.32h.64Z"/>
      <path class="cls-3" d="m38.32,41.03c-.04.95-.1,2.92-.1,4.17,0,.92.58,1.25,1.37,1.25,1.53,0,2.39-.86,2.99-1.73l.48.57c-.58.79-1.66,1.85-3.5,1.85-1.2,0-2.03-.5-2.03-1.87,0-1.24.08-3.35.08-4.23,0-.31-.02-.61-.07-.85h.84c-.04.28-.07.58-.08.85Z"/>
      <path class="cls-3" d="m51.56,39.88l-7.54,7.54-.25-.25,7.54-7.54.25.25Z"/>
      <path class="cls-3" d="m52.79,46.06h1.36v-4.4h-1.09v-.49c.54-.09.94-.23,1.27-.43h.58v5.33h1.23v.64h-3.36v-.64Z"/>
      <path class="cls-3" d="m60.9,40.8c0,.3-.02.59-.04.86h1.99c.23,0,.39-.02.54-.04l.47.23c-.03.14-.04.3-.04.41-.03.8-.13,3.24-.51,4.04-.17.35-.43.51-.89.51-.43,0-.91-.03-1.35-.06l-.08-.69c.45.06.9.09,1.25.09.24,0,.39-.07.49-.28.32-.64.43-2.69.43-3.59h-2.34c-.3,2.4-1.17,3.67-2.57,4.63l-.61-.49c.27-.14.61-.38.86-.62.83-.75,1.43-1.8,1.66-3.52h-1.41c-.33,0-.67,0-.96.03v-.71c.29.03.64.05.95.05h1.47c.02-.27.03-.55.03-.85,0-.18-.03-.49-.06-.69h.79c-.03.19-.04.49-.05.69Z"/>
      <path class="cls-3" d="m71.48,42.92c-.23.83-.6,1.7-1.22,2.38-.88.96-1.92,1.45-2.99,1.75l-.52-.59c1.19-.24,2.23-.78,2.94-1.53.51-.54.84-1.25,1-1.85h-4.44c-.2,0-.52,0-.82.03v-.7c.31.03.59.05.82.05h4.41c.19,0,.37-.02.46-.07l.48.3c-.04.08-.09.18-.11.24Zm-4.55-2.41h3.29c.27,0,.56,0,.76-.04v.69c-.2-.02-.49-.02-.77-.02h-3.28c-.26,0-.53,0-.75.02v-.69c.22.03.49.04.75.04Z"/>
      <path class="cls-3" d="m74.26,43.12h4.58c.42,0,.72-.02.9-.04v.82c-.17,0-.52-.04-.9-.04h-4.59c-.46,0-.9.02-1.16.04v-.82c.25.02.69.04,1.16.04Z"/>
      <path class="cls-3" d="m18.36,53.43v7.07h-.64v-.57h-4.37v.57h-.61v-7.07h5.63Zm-5.02.6v1.35h4.37v-1.35h-4.37Zm0,1.95v1.37h4.37v-1.37h-4.37Zm4.37,3.34v-1.37h-4.37v1.37h4.37Z"/>
      <path class="cls-3" d="m22.82,57.79c-.12-.27-.41-.78-.65-1.19v3.93h-.57v-3.91c-.28.91-.64,1.79-1.02,2.33-.07-.16-.22-.39-.32-.54.52-.69,1.03-2,1.27-3.14h-1.1v-.58h1.17v-1.81h.57v1.81h.94v.58h-.94v.58c.23.31.85,1.24,1,1.46l-.34.46Zm1.74,1.11c-.33.5-.86,1-1.36,1.35-.08-.12-.25-.28-.38-.38.49-.32,1-.82,1.27-1.24l.48.26Zm1.25-.45v1.48c0,.28-.05.44-.26.53-.22.08-.55.09-1.08.09-.03-.16-.11-.37-.18-.51h.82c.1,0,.12-.03.12-.12v-1.47h-2.12v-.5h4.85v.5h-2.16Zm-1.16-4.66h-1.49v-.52h4.81v.52h-1.54v.58h1.32v1.99h-4.33v-1.99h1.23v-.58Zm-1.01,3.54v-.48h3.91v.48h-3.91Zm.31-1.46h.75v-1.03h-.75v1.03Zm1.2-1.03v1.03h.78v-1.03h-.78Zm.78-1.06h-.77v.58h.77v-.58Zm1.28,1.06h-.82v1.03h.82v-1.03Zm-.36,3.81c.42.38.94.91,1.18,1.26l-.46.33c-.24-.35-.74-.91-1.15-1.31l.43-.28Z"/>
      <path class="cls-3" d="m32.98,53.17c0,.11,0,.24-.02.38.08,1.1.53,4.97,3.67,6.4-.18.13-.37.34-.46.51-2.16-1.02-3.08-3.16-3.48-4.83-.37,1.67-1.23,3.69-3.34,4.83-.11-.15-.31-.35-.5-.48,3.39-1.73,3.39-5.72,3.45-6.82h.69Z"/>
      <path class="cls-3" d="m44.6,55.02c-.21,1.36-.53,2.46-1.04,3.35.42.72.95,1.29,1.61,1.64-.14.12-.34.36-.43.53-.64-.38-1.15-.91-1.56-1.58-.49.65-1.12,1.19-1.94,1.61-.05-.11-.16-.29-.27-.43l-.19.2c-.26-.21-.59-.44-.98-.66-.49.4-1.15.68-2.04.87-.04-.17-.17-.39-.28-.51.77-.13,1.35-.34,1.78-.65-.27-.13-.54-.27-.82-.38l-.13.23-.54-.19c.18-.32.41-.74.64-1.18h-.95v-.52h1.2c.13-.25.24-.49.34-.72l.22.05v-1.15c-.42.49-.95.95-1.46,1.23-.08-.14-.23-.36-.34-.47.59-.27,1.23-.79,1.64-1.33h-1.55v-.51h1.71v-1.53h.58v1.53h1.7v.51h-1.7v.04c.36.21,1.26.78,1.49.95l-.34.44c-.22-.2-.74-.6-1.15-.9v1.25h-.36l.14.03c-.09.18-.18.38-.28.58h2.23v.52h-.73c-.12.56-.31,1.02-.59,1.4.37.2.7.42.96.61.71-.39,1.26-.89,1.67-1.52-.32-.68-.56-1.46-.75-2.31-.18.39-.38.74-.61,1.04-.09-.12-.36-.33-.5-.43.7-.88,1.14-2.27,1.36-3.75l.63.09c-.08.49-.19.98-.31,1.44h2.42v.58h-.5Zm-6.25-.63c-.08-.29-.29-.75-.52-1.09l.47-.19c.23.33.46.78.54,1.07l-.49.22Zm.7,3.46c-.12.23-.24.46-.35.68.33.13.67.28,1,.44.25-.3.42-.67.53-1.12h-1.17Zm2.27-4.56c-.24.38-.53.8-.74,1.08l-.42-.2c.2-.29.48-.78.62-1.1l.54.23Zm1.18,1.75c.16.96.39,1.87.73,2.64.36-.74.59-1.63.74-2.67h-1.46v.03Z"/>
      <path class="cls-3" d="m48.66,56.73c0,.49-.39.89-.89.89s-.89-.39-.89-.89.39-.89.89-.89.89.39.89.89Z"/>
      <path class="cls-3" d="m53.47,57.36c-.14,1.7-.58,2.68-2.65,3.19-.05-.16-.22-.4-.35-.53,1.92-.41,2.25-1.22,2.37-2.67h.63Zm.44-3.04h-3.27v-.58h3.27v-.82h.64v.82h3.34v.58h-3.34v.83h2.59v.55h-5.72v-.55h2.49v-.83Zm3.12,3.65v-1.03h-5.57v1.03h-.6v-1.6h6.8v1.6h-.63Zm-.04,1.86c.31,0,.36-.14.38-1.08.14.1.39.19.57.24-.08,1.12-.24,1.41-.89,1.41h-1.22c-.75,0-.95-.18-.95-.83v-2.22h.62v2.21c0,.23.06.27.38.27h1.1Z"/>
      <path class="cls-3" d="m66.56,59.53v.62h-7.45v-.62h3.12v-6.49h.65v2.56h3.11v.62h-3.11v3.31h3.68Z"/>
      <path class="cls-3" d="m74.2,53.43v7.07h-.64v-.57h-4.37v.57h-.61v-7.07h5.63Zm-5.02.6v1.35h4.37v-1.35h-4.37Zm0,1.95v1.37h4.37v-1.37h-4.37Zm4.37,3.34v-1.37h-4.37v1.37h4.37Z"/>
      <path class="cls-3" d="m78.65,57.79c-.12-.27-.41-.78-.65-1.19v3.93h-.57v-3.91c-.28.91-.64,1.79-1.02,2.33-.07-.16-.22-.39-.32-.54.52-.69,1.03-2,1.27-3.14h-1.1v-.58h1.17v-1.81h.57v1.81h.94v.58h-.94v.58c.23.31.85,1.24,1,1.46l-.34.46Zm1.74,1.11c-.33.5-.86,1-1.36,1.35-.08-.12-.25-.28-.38-.38.49-.32,1-.82,1.27-1.24l.48.26Zm1.25-.45v1.48c0,.28-.05.44-.26.53-.22.08-.55.09-1.08.09-.03-.16-.11-.37-.18-.51h.82c.1,0,.12-.03.12-.12v-1.47h-2.12v-.5h4.85v.5h-2.16Zm-1.16-4.66h-1.49v-.52h4.81v.52h-1.54v.58h1.32v1.99h-4.33v-1.99h1.23v-.58Zm-1.01,3.54v-.48h3.91v.48h-3.91Zm.31-1.46h.75v-1.03h-.75v1.03Zm1.2-1.03v1.03h.78v-1.03h-.78Zm.78-1.06h-.77v.58h.77v-.58Zm1.28,1.06h-.82v1.03h.82v-1.03Zm-.36,3.81c.42.38.94.91,1.18,1.26l-.46.33c-.24-.35-.74-.91-1.15-1.31l.43-.28Z"/>
      <path class="cls-3" d="m86.44,58.87c.39.62,1.13.9,2.11.94.92.04,2.84.02,3.85-.05-.08.14-.17.43-.2.61-.94.04-2.7.06-3.64.02-1.09-.04-1.85-.33-2.37-.99-.37.36-.75.71-1.16,1.07l-.33-.59c.35-.26.78-.61,1.15-.96v-2.14h-1.06v-.58h1.65v2.68Zm-.25-4c-.25-.42-.81-1-1.32-1.4l.48-.35c.51.38,1.09.95,1.35,1.36l-.5.38Zm2.09.25h-1.45v-.48h2.37v-.63h-1.81v-.47h1.81v-.64h.62v.64h1.88v.47h-1.88v.63h2.46v.48h-1.48l.36.1c-.16.29-.31.59-.45.8h1.46v.48h-2.34v.56h2.01v.46h-2.01v.62h2.39v.48h-2.39v.79h-.62v-.79h-2.28v-.48h2.28v-.62h-1.87v-.46h1.87v-.56h-2.18v-.48h1.25c-.06-.23-.21-.56-.37-.81l.38-.09Zm1.88.84c.13-.24.28-.58.37-.84h-2.08c.18.26.33.58.39.83l-.29.08h1.85l-.23-.07Z"/>
      <path class="cls-3" d="m100.37,55.74c-.36,1.08-.85,2.03-1.47,2.83.31.82.69,1.3,1.12,1.3.23,0,.33-.43.39-1.55.14.14.37.28.54.33-.12,1.42-.34,1.83-.98,1.83s-1.15-.51-1.53-1.37c-.5.54-1.08,1.01-1.72,1.39-.09-.13-.31-.38-.45-.49.74-.4,1.39-.92,1.92-1.55-.3-.95-.5-2.17-.61-3.52h-2.88v1.09h2.13v.27c-.04,1.87-.09,2.58-.27,2.79-.12.16-.27.22-.5.24-.21.02-.59.02-1,0,0-.19-.08-.43-.18-.58.38.03.74.04.89.04.12,0,.2-.02.25-.09.12-.12.16-.65.19-2.09h-1.52v.07c0,1.17-.12,2.85-.88,3.94-.11-.12-.38-.34-.52-.42.69-1.02.76-2.45.76-3.53v-2.33h3.49c-.03-.46-.04-.93-.05-1.41h.64c0,.49,0,.95.03,1.41h2.7v.61h-2.66c.08,1.11.23,2.11.46,2.9.45-.66.81-1.41,1.07-2.26l.63.16Zm-1.45-2.79c.52.26,1.17.66,1.5.95l-.38.43c-.32-.29-.95-.72-1.48-1l.37-.38Z"/>
      <path class="cls-3" d="m34.38,71.18l.29.5c-.74.56-1.47,1.4-1.95,2.14-.48-.74-1.21-1.58-1.95-2.14l.29-.5c.52.38,1.04.93,1.37,1.35v-6.45h.57v6.45c.33-.43.85-.98,1.37-1.35Z"/>
    </g>
    <g>
      <path class="cls-3" d="m3.14,6.35H0v-3.14h3.14v3.14Z"/>
      <path class="cls-3" d="m3.14,31.88H0v-3.14h3.14v3.14Z"/>
    </g>
    <rect class="cls-2" x="9.04" y="79.48" width="122.19" height="16.81"/>
    <g>
      <path class="cls-1" d="m24.14,90.42v1.08h-8.41v-1.08h1.14v-4.11h1.16v4.11h1.6v-5.54h-3.57v-1.07h7.83v1.07h-3.09v2.03h2.61v1.07h-2.61v2.43h3.34Z"/>
      <path class="cls-1" d="m30.02,84.34v.48h1.11c.29,0,.55-.03.77-.09l.77.75c-.24.23-.52.54-.72.77-.47.54-1.17,1.23-1.94,1.81,0,.74,0,1.75,0,2.33,0,.37.04.9.07,1.18h-1.33c.04-.26.07-.81.07-1.18v-1.58c-.85.45-1.84.83-2.84,1.14l-.71-1.09c1.78-.4,2.97-1.04,3.77-1.54.71-.46,1.29-1,1.55-1.38h-3.35c-.33,0-.92,0-1.2.04v-1.21c.35.06.86.07,1.18.07h1.6v-.48c0-.29-.02-.62-.06-.85h1.32c-.03.22-.05.56-.05.85Zm.56,4.23l.77-.89c.85.46,1.33.73,2.22,1.34l-.78,1.02c-.8-.64-1.41-1.03-2.21-1.47Z"/>
      <path class="cls-1" d="m38.55,85.79c.95-.59,2.01-1.52,2.61-2.25l1,.95c-.7.69-1.59,1.42-2.49,2.01v3.74c0,.41.02.98.08,1.21h-1.46c.04-.22.06-.8.06-1.21v-2.96c-.95.5-2.13,1-3.26,1.33l-.58-1.17c1.66-.43,3.01-1.03,4.04-1.66Z"/>
      <path class="cls-1" d="m45.28,84.65v3.13c0,.23,0,.59.03.8h-1.34c0-.18.05-.54.05-.81v-3.12c0-.18,0-.5-.04-.71h1.33c-.02.21-.03.42-.03.71Zm4.28.14v1.83c0,1.99-.39,2.85-1.07,3.61-.61.67-1.57,1.12-2.25,1.33l-.96-1.02c.92-.21,1.66-.56,2.22-1.17.64-.69.76-1.39.76-2.83v-1.76c0-.37-.02-.67-.05-.92h1.4c-.02.26-.04.55-.04.92Z"/>
      <path class="cls-1" d="m57.89,85.34c-.31.72-.83,1.71-1.45,2.54.92.79,2.03,1.98,2.58,2.64l-1.05.92c-.6-.83-1.46-1.78-2.33-2.62-.98,1.04-2.21,2-3.48,2.6l-.95-1c1.49-.55,2.92-1.68,3.79-2.65.61-.69,1.17-1.61,1.38-2.27h-3.13c-.39,0-.9.06-1.09.06v-1.31c.25.04.81.07,1.09.07h3.26c.4,0,.77-.06.95-.12l.76.56c-.07.1-.24.39-.32.57Z"/>
      <path class="cls-1" d="m61.73,84.84c0-.32-.03-.79-.09-1.11h1.44c-.04.32-.08.73-.08,1.11v1.37c1.24.36,3.01,1.02,3.87,1.43l-.53,1.28c-.95-.5-2.34-1.04-3.34-1.38v2.62c0,.27.05.92.08,1.29h-1.44c.06-.37.09-.92.09-1.29v-5.32Z"/>
      <path class="cls-1" d="m69.09,86.48h6.06c.19,0,.6-.02.84-.06v1.2c-.23-.02-.58-.03-.84-.03h-2.23c-.06.95-.26,1.73-.59,2.38-.32.65-1.04,1.36-1.86,1.78l-1.08-.79c.66-.25,1.3-.78,1.67-1.32.38-.57.54-1.27.57-2.04h-2.54c-.27,0-.63.02-.89.04v-1.21c.28.04.6.06.89.06Zm1.17-2.35h3.02c.31,0,.68-.03,1-.07v1.19c-.31-.02-.67-.03-1-.03h-3.02c-.31,0-.71,0-.99.03v-1.19c.3.05.67.07.99.07Zm5.31.55l-.74.32c-.19-.38-.48-.93-.73-1.29l.74-.3c.23.34.55.92.73,1.27Zm1.11-.43l-.74.32c-.19-.39-.49-.92-.74-1.28l.73-.3c.24.35.58.93.75,1.26Z"/>
      <path class="cls-1" d="m79.32,84.91v1.75c1.09-.27,2.38-.67,3.2-1.03.33-.13.65-.28,1.01-.5l.5,1.17c-.36.15-.78.32-1.08.43-.93.37-2.42.83-3.62,1.13v1.71c0,.4.19.5.6.58.28.04.66.06,1.07.06.96,0,2.46-.12,3.22-.32v1.35c-.87.13-2.27.19-3.29.19-.6,0-1.16-.04-1.55-.1-.8-.15-1.27-.59-1.27-1.39v-5.04c0-.2-.03-.68-.07-.96h1.37c-.05.28-.07.7-.07.96Zm4.8-.09l-.75.31c-.18-.38-.47-.92-.72-1.29l.73-.3c.23.34.56.92.74,1.27Zm1.1-.43l-.73.31c-.19-.39-.49-.92-.75-1.28l.73-.3c.25.34.59.93.75,1.26Z"/>
      <path class="cls-1" d="m91.7,87.02c-.07.55-.31,2.14-.45,3.01h.59c.24,0,.67,0,.91-.04v1.19c-.18,0-.64-.03-.89-.03h-4.86c-.33,0-.56,0-.92.03v-1.2c.25.03.59.05.92.05h3c.13-.79.33-2.1.36-2.62h-2.5c-.3,0-.66.03-.92.05v-1.22c.24.03.67.06.92.06h2.37c.19,0,.57-.04.68-.1l.9.43c-.05.12-.07.3-.09.39Z"/>
      <path class="cls-1" d="m95.76,86.82h4.96c.43,0,.84-.04,1.08-.06v1.45c-.22,0-.69-.05-1.08-.05h-4.96c-.53,0-1.15.02-1.49.05v-1.45c.33.03,1.01.06,1.49.06Z"/>
    </g>
  </g>
</svg>