<?xml version="1.0" encoding="UTF-8"?>
<svg id="_レイヤー_2" data-name="レイヤー 2" xmlns="http://www.w3.org/2000/svg" viewBox="0 0 209.11 72.02">
  <defs>
    <style>
      .cls-1 {
        fill: #231815;
      }
    </style>
  </defs>
  <g id="_レイヤー_1-2" data-name="レイヤー 1">
    <g>
      <path class="cls-1" d="m32.39,1.75c-.01.55-.06,1.06-.1,1.55h3.75c.39,0,.62-.03.8-.04l.55.27c-.04.25-.07.46-.08.66-.04,1.25-.21,5.41-.85,6.71-.28.53-.66.71-1.33.71s-1.44-.03-2.2-.07l-.08-.76c.78.08,1.53.14,2.14.14.38,0,.67-.1.83-.43.62-1.19.78-5.02.78-6.5h-4.37c-.5,4.24-2.06,6.29-4.27,7.8l-.66-.53c.36-.18.85-.55,1.19-.84,1.43-1.21,2.65-3.04,3.05-6.43h-2.65c-.6,0-1.04,0-1.48.04v-.78c.43.03.92.06,1.47.06h2.72c.04-.48.07-.99.07-1.54,0-.32-.01-.76-.07-1.08h.85c-.03.31-.04.73-.06,1.06Z"/>
      <path class="cls-1" d="m45.95,1.39v1.46h3.56c.49,0,.7-.06.84-.1l.49.31c-.06.15-.13.43-.17.69-.15.99-.59,2.97-1.42,4.34-1.01,1.71-2.83,3.11-5.44,3.82l-.59-.66c.36-.06.77-.17,1.13-.29,1.55-.46,3.26-1.64,4.16-3.08.8-1.29,1.29-3.19,1.39-4.36h-8.35v2.76c0,.21.01.55.06.71h-.8c.03-.18.04-.52.04-.73v-2.48c0-.28,0-.71-.04-1.01.36.04.77.07,1.23.07h3.17v-1.46c0-.22-.01-.57-.06-.91h.85c-.06.34-.07.69-.07.91Z"/>
      <path class="cls-1" d="m59.3,8.77c2.02-1.3,3.66-3.35,4.41-4.99l.43.76c-.9,1.64-2.38,3.53-4.43,4.85-1.39.9-3.14,1.81-5.69,2.31l-.48-.74c2.59-.39,4.43-1.33,5.74-2.19Zm-1.33-4.38l-.55.56c-.7-.7-2.42-2.2-3.47-2.88l.49-.52c1,.66,2.79,2.12,3.53,2.84Z"/>
      <path class="cls-1" d="m69.29,5.32c-1.51.31-2.83.57-3.38.7l-.15-.78c.62-.07,1.99-.32,3.53-.62V1.99c0-.39,0-.7-.07-1.11h.87c-.06.41-.08.73-.08,1.11v2.49c2.56-.5,5.37-1.08,5.91-1.19.25-.06.48-.13.59-.21l.52.41c-.08.13-.2.31-.28.45-.66,1.15-1.65,2.82-2.86,4.06l-.63-.38c1.12-1.05,2.21-2.73,2.65-3.63-.1.03-3.15.63-5.9,1.19v4.44c0,1.02.43,1.33,2.19,1.33s2.94-.11,4.34-.38l-.04.78c-1.3.2-2.54.29-4.43.29-2.27,0-2.77-.64-2.77-1.85v-4.48Z"/>
      <path class="cls-1" d="m81.69,2.16v4.65c0,.35.01.77.04.98h-.83c.03-.2.06-.59.06-.99V2.16c0-.24-.03-.73-.06-.97h.83c-.03.24-.04.7-.04.97Zm6.51.03v1.97c0,3.57-.38,4.57-1.37,5.8-.9,1.13-2.27,1.71-3.29,2.06l-.59-.62c1.22-.34,2.45-.9,3.33-1.93,1.02-1.22,1.18-2.41,1.18-5.32v-1.96c0-.41-.03-.79-.06-1.09h.84c-.03.31-.04.69-.04,1.09Z"/>
      <path class="cls-1" d="m97.57,8.77c2.02-1.3,3.66-3.35,4.41-4.99l.43.76c-.9,1.64-2.38,3.53-4.43,4.85-1.39.9-3.14,1.81-5.69,2.31l-.48-.74c2.59-.39,4.43-1.33,5.74-2.19Zm-1.33-4.38l-.55.56c-.7-.7-2.42-2.2-3.47-2.88l.49-.52c1,.66,2.79,2.12,3.53,2.84Z"/>
      <path class="cls-1" d="m109.05,1.99c-.14.28-.31.57-.49.88h4.37c.34,0,.56-.03.73-.11l.63.38c-.08.15-.2.45-.24.59-.38,1.51-1.27,3.42-2.51,4.92-1.23,1.51-2.91,2.79-5.53,3.73l-.63-.59c2.4-.69,4.26-1.99,5.56-3.54,1.16-1.39,2.06-3.28,2.38-4.71h-5.2c-.8,1.16-1.95,2.44-3.57,3.5l-.62-.46c2.4-1.41,3.87-3.59,4.43-4.87.1-.2.27-.62.32-.9l.84.28c-.17.29-.35.66-.48.91Zm5.67.45l-.55.25c-.27-.56-.77-1.42-1.15-1.93l.53-.24c.35.49.85,1.33,1.16,1.92Zm1.5-.53l-.55.25c-.31-.62-.77-1.4-1.18-1.92l.52-.24c.38.5.92,1.37,1.21,1.91Z"/>
      <path class="cls-1" d="m37.63,33c-1,1.61-2.75,3.92-5.27,5.81.87.87,1.95,2.02,2.51,2.7l-.64.5c-.49-.67-1.58-1.85-2.45-2.75-.85-.85-2.58-2.31-3.28-2.8l.57-.46c.48.34,1.79,1.4,2.76,2.3,2.35-1.71,4.15-4.03,4.88-5.34h-8.74c-.53,0-1.05.03-1.32.06v-.84c.39.06.83.08,1.32.08h8.7c.29,0,.52-.01.66-.07l.59.46c-.11.11-.21.24-.28.34Z"/>
      <path class="cls-1" d="m41.01,39.74h8.6c.38,0,.74-.03,1.11-.07v.87c-.36-.03-.76-.04-1.11-.04h-8.6c-.49,0-.87.03-1.3.04v-.87c.43.03.81.07,1.3.07Zm1.13-7h6.12c.48,0,.91-.01,1.29-.06v.81c-.38-.03-.84-.03-1.29-.03h-6.12c-.45,0-.81.01-1.22.03v-.81c.41.03.78.06,1.22.06Z"/>
      <path class="cls-1" d="m56.96,36.09l-.41.63c-.63-.46-2.18-1.46-2.98-1.86l.39-.6c.77.41,2.46,1.44,3,1.83Zm1.93,3.43c2.3-1.33,4.08-3.11,5.22-5.07l.43.71c-1.16,1.85-3.07,3.68-5.28,4.99-1.4.84-3.29,1.46-4.62,1.75l-.42-.73c1.53-.27,3.31-.87,4.67-1.65Zm.11-6.43l-.43.6c-.6-.49-2.17-1.54-2.93-1.98l.41-.6c.77.45,2.42,1.57,2.96,1.97Zm4.3.39l-.56.27c-.31-.66-.88-1.64-1.3-2.21l.53-.25c.34.46,1,1.51,1.33,2.2Zm1.81-.69l-.56.27c-.32-.66-.9-1.61-1.34-2.18l.53-.25c.35.45,1.02,1.5,1.37,2.17Z"/>
      <path class="cls-1" d="m68.58,34.58h6.49c.35,0,.67-.03.92-.04v.74c-.27-.03-.62-.03-.92-.03h-2.94v5.52h3.59c.31,0,.6-.01.87-.04v.77c-.27-.01-.66-.03-.87-.03h-7.75c-.28,0-.6.01-.92.03v-.77c.31.03.63.04.92.04h3.45v-5.52h-2.82c-.17,0-.6,0-.88.03v-.74c.29.03.7.04.87.04Z"/>
      <path class="cls-1" d="m80.84,37.8c.41-1.33.42-4.2.42-5.7,0-.32-.03-.59-.08-.85h.84c-.03.22-.06.53-.06.85,0,1.48-.06,4.52-.43,5.91-.42,1.46-1.33,2.82-2.49,3.74l-.67-.45c1.15-.83,2.03-2.06,2.48-3.5Zm3.98,2.83v-8.52c0-.48-.04-.78-.06-.94h.83c-.03.15-.04.46-.04.94v8.53c1.39-.64,3.32-2.02,4.45-3.74l.43.62c-1.25,1.71-3.15,3.1-4.79,3.91-.2.1-.34.2-.42.27l-.49-.41c.06-.2.08-.43.08-.66Z"/>
      <path class="cls-1" d="m92.64,40.86h2.31v-8h-1.78v-.55c.83-.14,1.46-.36,1.95-.66h.66v9.2h2.13v.71h-5.27v-.71Z"/>
      <path class="cls-1" d="m105.7,31.75c-.01.55-.06,1.06-.1,1.55h3.75c.39,0,.62-.03.8-.04l.55.27c-.04.25-.07.46-.08.66-.04,1.25-.21,5.41-.85,6.71-.28.53-.66.71-1.33.71s-1.44-.03-2.2-.07l-.08-.76c.78.08,1.53.14,2.14.14.38,0,.67-.1.83-.43.62-1.19.78-5.02.78-6.5h-4.37c-.5,4.24-2.06,6.29-4.27,7.8l-.66-.53c.36-.18.85-.55,1.19-.84,1.43-1.21,2.65-3.04,3.05-6.43h-2.65c-.6,0-1.04,0-1.48.04v-.78c.43.03.92.06,1.47.06h2.72c.04-.48.07-.99.07-1.54,0-.32-.01-.76-.07-1.08h.85c-.03.31-.04.73-.06,1.06Z"/>
      <path class="cls-1" d="m123.42,35.11c-.32,1.39-.97,2.9-2.02,4.03-1.5,1.62-3.24,2.38-5.01,2.86l-.56-.64c1.9-.38,3.71-1.29,4.97-2.63.91-.97,1.54-2.34,1.81-3.5h-7.84c-.32,0-.76.01-1.2.04v-.8c.45.06.87.08,1.2.08h7.65c.24,0,.49-.03.63-.08l.53.32c-.06.1-.13.24-.15.32Zm-7.49-3.73h5.59c.43,0,.81-.01,1.12-.06v.77c-.31-.03-.69-.03-1.13-.03h-5.58c-.41,0-.77.01-1.13.03v-.77c.35.04.7.06,1.13.06Z"/>
      <path class="cls-1" d="m128.16,35.81h7.76c.73,0,1.15-.03,1.43-.06v.87c-.25-.01-.77-.04-1.41-.04h-7.77c-.77,0-1.4.01-1.78.04v-.87c.36.03.95.06,1.78.06Z"/>
      <path class="cls-1" d="m144.91,29.62l.55.34c-1.72,1.76-2.66,3.91-2.66,6.29s.94,4.52,2.66,6.29l-.55.34c-1.78-1.83-2.8-4.03-2.8-6.63s1.02-4.79,2.8-6.62Z"/>
      <path class="cls-1" d="m155.2,31.78c0,.28.01.84.03,1.57h2.46c.32,0,.8-.04,1.05-.07v.78c-.27-.01-.71-.04-1.04-.04h-2.48c.04,2.14.08,5.18.08,6.86,0,.64-.39.95-1.11.95-.63,0-1.5-.04-2.13-.08l-.06-.76c.69.11,1.48.17,2.04.17.42,0,.55-.18.55-.55,0-1.22-.03-3.75-.06-5.83-1.13,1.65-3.68,4.12-6.37,5.55l-.52-.59c2.91-1.44,5.52-3.99,6.61-5.73h-5.1c-.45,0-.73.03-1.15.06v-.8c.42.04.74.07,1.15.07h5.37c-.01-.73-.03-1.29-.04-1.57-.03-.49-.06-.77-.11-1.02h.88c-.04.35-.07.67-.07,1.02Z"/>
      <path class="cls-1" d="m166.84,38.77c2.02-1.3,3.66-3.35,4.41-4.99l.43.76c-.9,1.64-2.38,3.53-4.43,4.85-1.39.9-3.14,1.81-5.69,2.31l-.48-.74c2.59-.39,4.43-1.33,5.74-2.19Zm-1.33-4.38l-.55.56c-.7-.7-2.42-2.2-3.47-2.88l.49-.52c1,.66,2.79,2.12,3.53,2.84Z"/>
      <path class="cls-1" d="m177.3,36.25c0,.73-.59,1.32-1.32,1.32s-1.32-.59-1.32-1.32.59-1.32,1.32-1.32,1.32.59,1.32,1.32Z"/>
      <path class="cls-1" d="m188.57,31.78c0,.28.01.84.03,1.57h2.46c.32,0,.8-.04,1.05-.07v.78c-.27-.01-.71-.04-1.04-.04h-2.48c.04,2.14.08,5.18.08,6.86,0,.64-.39.95-1.11.95-.63,0-1.5-.04-2.13-.08l-.06-.76c.69.11,1.48.17,2.04.17.42,0,.55-.18.55-.55,0-1.22-.03-3.75-.06-5.83-1.13,1.65-3.68,4.12-6.37,5.55l-.52-.59c2.91-1.44,5.52-3.99,6.61-5.73h-5.1c-.45,0-.73.03-1.15.06v-.8c.42.04.74.07,1.15.07h5.37c-.01-.73-.03-1.29-.04-1.57-.03-.49-.06-.77-.11-1.02h.88c-.04.35-.07.67-.07,1.02Z"/>
      <path class="cls-1" d="m203.71,32.82c-.29,1.53-1.01,3.82-2.09,5.2-1.29,1.62-2.83,2.86-5.43,3.67l-.62-.67c2.68-.7,4.24-1.88,5.45-3.43,1.02-1.33,1.74-3.49,1.93-4.92h-7.54c-.5,0-.88.03-1.23.04v-.81c.36.04.78.08,1.25.08h7.34c.18,0,.35,0,.55-.06l.55.35c-.08.15-.11.28-.15.55Z"/>
      <path class="cls-1" d="m206.31,42.87l-.55-.34c1.72-1.77,2.66-3.91,2.66-6.29s-.94-4.52-2.66-6.29l.55-.34c1.78,1.83,2.8,4.03,2.8,6.62s-1.02,4.79-2.8,6.63Z"/>
      <path class="cls-1" d="m37.63,63c-1,1.61-2.75,3.92-5.27,5.81.87.87,1.95,2.02,2.51,2.7l-.64.5c-.49-.67-1.58-1.85-2.45-2.75-.85-.85-2.58-2.31-3.28-2.8l.57-.46c.48.34,1.79,1.4,2.76,2.3,2.35-1.71,4.15-4.03,4.88-5.34h-8.74c-.53,0-1.05.03-1.32.06v-.84c.39.06.83.08,1.32.08h8.7c.29,0,.52-.01.66-.07l.59.46c-.11.11-.21.24-.28.34Z"/>
      <path class="cls-1" d="m43.67,65.97l-.42.63c-.63-.46-2.19-1.46-2.98-1.86l.41-.6c.76.41,2.45,1.44,3,1.84Zm1.93,3.43c2.28-1.33,4.08-3.11,5.21-5.07l.45.71c-1.18,1.85-3.08,3.68-5.29,4.99-1.4.84-3.28,1.46-4.62,1.75l-.41-.73c1.53-.27,3.31-.87,4.67-1.65Zm.11-6.43l-.45.6c-.6-.49-2.16-1.54-2.91-1.98l.39-.6c.77.45,2.42,1.57,2.97,1.98Z"/>
      <path class="cls-1" d="m55.26,65.81h7.76c.73,0,1.15-.03,1.43-.06v.87c-.25-.01-.77-.04-1.41-.04h-7.77c-.77,0-1.4.01-1.78.04v-.87c.36.03.95.06,1.78.06Z"/>
      <path class="cls-1" d="m73.35,68.77c2.02-1.3,3.66-3.35,4.41-4.99l.43.76c-.9,1.64-2.38,3.53-4.43,4.85-1.39.9-3.14,1.81-5.69,2.31l-.48-.74c2.59-.39,4.43-1.33,5.74-2.19Zm-1.33-4.38l-.55.56c-.7-.7-2.42-2.2-3.47-2.88l.49-.52c1,.66,2.79,2.12,3.53,2.84Z"/>
      <path class="cls-1" d="m87.73,61.78c0,.28.01.84.03,1.57h2.46c.32,0,.8-.04,1.05-.07v.78c-.27-.01-.71-.04-1.04-.04h-2.48c.04,2.14.08,5.18.08,6.86,0,.64-.39.95-1.11.95-.63,0-1.5-.04-2.13-.08l-.06-.76c.69.11,1.48.17,2.04.17.42,0,.55-.18.55-.55,0-1.22-.03-3.75-.06-5.83-1.13,1.65-3.68,4.12-6.37,5.55l-.52-.59c2.91-1.44,5.52-3.99,6.61-5.73h-5.1c-.45,0-.73.03-1.15.06v-.8c.42.04.74.07,1.15.07h5.37c-.01-.73-.03-1.29-.04-1.57-.03-.49-.06-.77-.11-1.02h.88c-.04.35-.07.67-.07,1.02Z"/>
      <path class="cls-1" d="m102.87,62.82c-.29,1.53-1.01,3.82-2.09,5.2-1.29,1.62-2.83,2.86-5.43,3.67l-.62-.67c2.68-.7,4.24-1.88,5.45-3.43,1.02-1.33,1.74-3.49,1.93-4.92h-7.54c-.5,0-.88.03-1.23.04v-.81c.36.04.78.08,1.25.08h7.34c.18,0,.35,0,.55-.06l.55.35c-.08.15-.11.28-.15.55Z"/>
      <path class="cls-1" d="m109.22,61.71c-.15.48-.35,1.04-.62,1.65h6.95c.35,0,.85,0,1.23-.07v.8c-.39-.03-.91-.03-1.23-.03h-2.61c-.21,4.19-1.86,6.43-4.19,7.93l-.77-.55c.34-.11.73-.35,1.02-.57,1.32-.98,3.04-2.87,3.21-6.81h-3.96c-.57,1.05-1.57,2.38-2.37,3.03l-.71-.43c1.01-.7,2.07-2.24,2.52-3.08.39-.73.63-1.44.78-1.99.08-.29.13-.6.15-.92l.88.17c-.1.29-.21.6-.29.88Z"/>
      <path class="cls-1" d="m129.77,62.48c-.5.87-1.83,2.69-3.56,3.88l-.62-.5c1.39-.77,2.84-2.47,3.35-3.43h-8.38c-.49,0-1.04.03-1.53.06v-.85c.46.06,1.04.11,1.53.11h8.33c.2,0,.55-.04.7-.07l.46.45c-.1.1-.21.24-.29.36Zm-9.16,9.46l-.67-.56c.34-.1.81-.34,1.13-.53,2.4-1.39,2.69-3.68,2.69-6.04,0-.28-.01-.56-.04-.87h.8c0,3.98-.48,6.37-3.91,8Z"/>
    </g>
    <g>
      <path class="cls-1" d="m7.12,9.92H0V2.81h7.12v7.12Z"/>
      <path class="cls-1" d="m7.12,38.92H0v-7.12h7.12v7.12Z"/>
      <path class="cls-1" d="m7.12,67.92H0v-7.12h7.12v7.12Z"/>
    </g>
  </g>
</svg>