<?xml version="1.0" encoding="UTF-8"?>
<svg id="_レイヤー_2" data-name="レイヤー 2" xmlns="http://www.w3.org/2000/svg" viewBox="0 0 298.06 219.63">
  <defs>
    <style>
      .cls-1 {
        fill: #fff;
      }

      .cls-2 {
        fill: #231815;
      }

      .cls-3 {
        fill: #686868;
      }
    </style>
  </defs>
  <g id="_レイヤー_1-2" data-name="レイヤー 1">
    <g>
      <g>
        <path class="cls-2" d="m33.94,9.16c1.26,1.22,3.39,2.26,5.34,2.72-.15.14-.35.36-.43.55-2.06-.58-4.36-1.81-5.64-3.26h-.01v3.52h-.67v-3.52h-.01c-1.33,1.44-3.66,2.73-5.6,3.33-.1-.17-.29-.41-.43-.53,1.82-.5,3.95-1.58,5.25-2.8h-4.97v-.62h5.77v-.92h-2.09V3.22h1.78c.15-.36.31-.81.39-1.13l.64.17c-.13.34-.28.67-.41.97h2.56v4.4h-2.21v.92h5.86v.62h-5.1Zm-3.91-2.76c-1.06.5-2.19,1.04-3.08,1.43l-.32-.56c.84-.32,2.06-.87,3.26-1.42l.14.55Zm.11-4.73h-3.4v-.62h3.4V0h.66v1.05h4.09V0h.66v1.05h3.5v.62h-3.5v1.19h-.66v-1.19h-4.09v1.19h-.66v-1.19Zm-2.45,1.16c.8.5,1.69,1.29,2.09,1.86l-.5.41c-.39-.59-1.26-1.39-2.06-1.91l.48-.36Zm3.36,2.31h3.7v-1.37h-3.7v1.37Zm0,1.93h3.7v-1.39h-3.7v1.39Zm7.62.79c-.66-.59-1.97-1.36-3.05-1.84l.38-.43c1.09.45,2.41,1.19,3.07,1.76l-.39.5Zm.01-4.83c-.69.69-1.67,1.43-2.41,1.92l-.46-.31c.73-.49,1.74-1.36,2.3-1.95l.58.34Z"/>
        <path class="cls-2" d="m47.51,1.99c-.48.84-1.16,1.53-1.98,2.12.98.52,2.07.88,3.26,1.21-.15.14-.34.38-.41.57-1.26-.36-2.41-.78-3.45-1.42-1.15.7-2.52,1.19-3.92,1.57-.08-.14-.28-.42-.42-.56,1.37-.31,2.68-.76,3.78-1.37-.77-.55-1.48-1.23-2.12-2.12h-1.27v-.62h3.47V.08h.66v1.29h3.59v.62h-1.2Zm-.55,3.87h.66v6.78h-.66v-3.12h-4.12c-.14,1.15-.52,2.33-1.51,3.28-.13-.13-.36-.29-.53-.39,1.3-1.23,1.47-2.84,1.47-4.22v-2.34h.64v1.08h4.05v-1.06Zm0,3.05v-1.4h-4.05v.69c0,.24,0,.48-.01.71h4.06Zm-3.98-6.92c.59.74,1.25,1.32,1.97,1.78.74-.5,1.36-1.08,1.79-1.78h-3.77Zm6.33-.63h.64v7.65h-.64V1.36Zm3.64-1.11v11.46c0,.52-.17.76-.53.87-.35.11-.99.13-2.17.11-.04-.17-.14-.46-.25-.66.94.03,1.72.01,1.95,0,.25,0,.35-.08.35-.31V.25h.66Z"/>
        <path class="cls-2" d="m57.81,10.08c.76,1.12,2.13,1.64,3.91,1.71,1.49.06,4.69.01,6.23-.07-.08.15-.2.45-.22.66-1.47.04-4.48.07-5.98.03-1.93-.07-3.31-.62-4.2-1.74-.64.63-1.3,1.27-1.99,1.9l-.39-.64c.62-.48,1.36-1.13,2.02-1.79v-3.95h-1.88v-.64h2.51v4.54Zm-.13-7c-.41-.71-1.34-1.71-2.23-2.39l.52-.35c.88.66,1.83,1.64,2.26,2.35l-.55.39Zm10.16,5.65h-9.33v-.57h2.67v-1.57h-2.21v-.56h2.21v-1.18h.64v1.18h2.68v-1.18h.66v1.18h2.24v.56h-2.24v1.57h2.68v.57Zm-5.83-7.58h-3.18v-.53h3.8v2.18h-2.93v.97c0,.25.08.31.57.31h1.78c.38,0,.43-.08.48-.79.13.1.35.17.55.21-.07.88-.28,1.09-.91,1.09h-1.92c-.91,0-1.15-.14-1.15-.83v-1.51h2.91v-1.11Zm.22,8.08c-.71.69-1.81,1.4-2.72,1.86-.11-.11-.36-.35-.5-.45.92-.42,1.97-1.01,2.62-1.62l.6.21Zm-.41-1.08h2.68v-1.57h-2.68v1.57Zm4.72-7h-3.12v-.53h3.74v2.18h-2.87v.95c0,.27.08.32.62.32h1.97c.39,0,.46-.1.5-.85.13.1.36.17.53.21-.06.94-.27,1.16-.95,1.16h-2.09c-.94,0-1.19-.14-1.19-.84v-1.5h2.86v-1.11Zm.34,10c-.59-.55-1.62-1.23-2.62-1.75l.46-.34c1.02.5,2.13,1.19,2.79,1.74l-.63.35Z"/>
        <path class="cls-2" d="m76.25,11.57c.8.17,1.71.24,2.67.24.36,0,2.83,0,3.36-.01-.13.15-.25.48-.28.67h-3.12c-3.1,0-5.31-.53-6.58-3.19-.49,1.44-1.22,2.59-2.21,3.47-.11-.11-.39-.34-.56-.45,1.6-1.26,2.4-3.29,2.73-5.88l.67.06c-.1.69-.21,1.32-.36,1.92.62,1.67,1.65,2.55,3.01,3v-6.43h-3.78v-.64h8.41v.64h-3.95v2.68h4.36v.64h-4.36v3.29Zm-5.39-7.09h-.67V1.71h5.38V0h.69v1.71h5.42v2.77h-.69v-2.13h-10.13v2.13Z"/>
        <path class="cls-2" d="m83.9,2.35h4.58v.6h-4.58v-.6Zm4.23,2.48h-3.64v-.57h3.64v.57Zm-3.64,1.3h3.64v.57h-3.64v-.57Zm3.7,5.84h-3.08v.7h-.62v-4.67h3.7v3.96Zm-.1-10.87h-3.52v-.57h3.52v.57Zm-2.98,7.49v2.79h2.48v-2.79h-2.48Zm11.56,1.79h-.81v1.48c0,.41-.1.6-.42.7-.31.1-.9.1-1.82.1-.04-.15-.13-.41-.21-.59.74.03,1.37.03,1.57.01.2-.01.24-.07.24-.22v-1.48h-5.04v2.3h-.6v-2.3h-.94v-.59h.94v-3.59h2.76v-.98h-3.68v-.57h2.17v-1.15h-1.5v-.56h1.5v-1.06h-1.78v-.56h1.78V.01h.62v1.32h2.61V.01h.63v1.32h1.82v.56h-1.82v1.06h1.54v.56h-1.54v1.15h1.99v.57h-3.73v.98h2.93v3.59h.81v.59Zm-6.5-3.61v1.27h2.16v-1.27h-2.16Zm0,3.03h2.16v-1.22h-2.16v1.22Zm1.26-6.85h2.61v-1.06h-2.61v1.06Zm0,1.71h2.61v-1.15h-2.61v1.15Zm1.5,2.12v1.27h2.28v-1.27h-2.28Zm2.28,3.03v-1.22h-2.28v1.22h2.28Z"/>
        <path class="cls-2" d="m102.37,4.3c-1.29.52-2.61,1.06-3.66,1.47l-.28-.57c.98-.32,2.41-.87,3.82-1.44l.11.55Zm.9-2.94h-4.52v-.59h5.15v4.62c0,.35-.08.53-.38.64-.31.11-.84.1-1.74.1-.04-.17-.14-.39-.22-.55.71.01,1.3.01,1.47,0,.18,0,.24-.06.24-.2V1.36Zm-3.4.29c.7.36,1.51.95,1.88,1.39l-.41.46c-.39-.46-1.18-1.07-1.86-1.44l.39-.41Zm5.08,4.16c-.21.41-.43.81-.64,1.16h4.71v5.76h-.69v-.57h-7.31v.57h-.66v-5.76h3.28c.24-.42.5-.97.63-1.34l.69.18Zm3.38,1.74h-7.31v1.68h7.31v-1.68Zm0,4.02v-1.75h-7.31v1.75h7.31Zm-3.73-6.67c1.02-.34,2.54-.88,4.02-1.42l.1.53c-1.34.5-2.75,1.04-3.84,1.43l-.28-.55Zm5.52.52c0,.38-.1.56-.39.67-.31.1-.87.11-1.81.1-.03-.17-.13-.41-.21-.56.73.03,1.34.03,1.53.01.18-.01.24-.06.24-.22V1.36h-4.61v-.59h5.25v4.65Zm-2.9-1.96c-.38-.46-1.18-1.02-1.88-1.39l.39-.41c.69.34,1.5.9,1.91,1.32l-.42.48Z"/>
        <path class="cls-2" d="m32.39,31.85c-.01.55-.06,1.06-.1,1.55h3.75c.39,0,.62-.03.8-.04l.55.27c-.04.25-.07.46-.08.66-.04,1.25-.21,5.41-.85,6.71-.28.53-.66.71-1.33.71s-1.44-.03-2.2-.07l-.08-.76c.78.08,1.53.14,2.14.14.38,0,.67-.1.83-.43.62-1.19.78-5.02.78-6.5h-4.37c-.5,4.24-2.06,6.29-4.27,7.8l-.66-.53c.36-.18.85-.55,1.19-.84,1.43-1.21,2.65-3.04,3.05-6.43h-2.65c-.6,0-1.04,0-1.48.04v-.78c.43.03.92.06,1.47.06h2.72c.04-.48.07-.99.07-1.54,0-.32-.01-.76-.07-1.08h.85c-.03.31-.04.73-.06,1.06Z"/>
        <path class="cls-2" d="m50.1,35.21c-.32,1.39-.97,2.9-2.02,4.03-1.5,1.62-3.24,2.38-5.01,2.86l-.56-.64c1.9-.38,3.71-1.29,4.97-2.63.91-.97,1.54-2.34,1.81-3.5h-7.84c-.32,0-.76.01-1.2.04v-.8c.45.06.87.08,1.2.08h7.65c.24,0,.49-.03.63-.08l.53.32c-.06.1-.13.24-.15.32Zm-7.49-3.73h5.59c.43,0,.81-.01,1.12-.06v.77c-.31-.03-.69-.03-1.13-.03h-5.58c-.41,0-.77.01-1.13.03v-.77c.35.04.7.06,1.13.06Z"/>
        <path class="cls-2" d="m54.84,35.91h7.76c.73,0,1.15-.03,1.43-.06v.87c-.25-.01-.77-.04-1.41-.04h-7.77c-.77,0-1.4.01-1.78.04v-.87c.36.03.95.06,1.78.06Z"/>
        <path class="cls-2" d="m75.89,37.4c.77,1.08,2.07,2.04,3.33,2.49-.15.13-.35.35-.46.52-1.37-.56-2.77-1.74-3.59-3.01h-4.68c-.84,1.34-2.3,2.58-3.61,3.21-.11-.17-.31-.39-.48-.52,1.23-.5,2.54-1.55,3.36-2.69h-3.21v-.6h2.84v-4.66h-2.24v-.6h2.24v-1.53h.67v1.53h5.49v-1.51h.67v1.51h2.23v.6h-2.23v4.66h2.8v.6h-3.15Zm-2.79,4.31h4.97v.6h-10.52v-.6h4.89v-1.82h-3.1v-.6h3.1v-1.36h.66v1.36h3.17v.6h-3.17v1.82Zm-3.03-9.58v1.13h5.49v-1.13h-5.49Zm0,2.89h5.49v-1.19h-5.49v1.19Zm0,1.78h5.49v-1.22h-5.49v1.22Z"/>
        <path class="cls-2" d="m82.5,40.79v1.25h-.6v-5.03c-.22.55-.48,1.06-.76,1.51-.1-.11-.34-.38-.49-.52,1.01-1.54,1.58-3.91,1.93-6.4h-1.76v-.64h4.82v.64h-2.4c-.18,1.22-.41,2.4-.7,3.47h2.59v5.71h-2.63Zm2.02-5.08h-2.02v4.47h2.02v-4.47Zm5.18,6.04c.35.06.74.08,1.16.08.24,0,2.33,0,2.73-.01-.11.15-.21.45-.24.62h-2.52c-1.93,0-3.1-.45-3.82-2.31-.34,1.05-.9,1.95-1.83,2.56-.08-.13-.31-.35-.46-.45,1.47-.92,1.95-2.7,2.09-4.46h.66c-.04.48-.11.95-.21,1.4.38,1.36.97,2.06,1.82,2.38v-4.66h-3.53v-.6h7.21l.13-.03.43.15c-.25.67-.53,1.39-.81,1.88l-.53-.22c.17-.32.35-.74.5-1.18h-2.77v1.95h2.98v.6h-2.98v2.3Zm-2.49-10.04v-1.69h.59v1.69h1.4v.59h-1.4v.43c.31.24,1.19,1.02,1.42,1.25l-.39.43c-.18-.24-.66-.73-1.02-1.09v2.48h-.59v-2.72c-.43.84-1.02,1.7-1.58,2.24-.1-.14-.25-.35-.39-.46.64-.56,1.36-1.6,1.76-2.56h-1.44v-.59h1.65Zm3.82,1.12c-.43.97-1.11,1.92-1.79,2.49-.08-.15-.25-.35-.39-.46.73-.52,1.44-1.56,1.86-2.56h-1.21v-.59h1.53v-1.69h.6v1.69h1.79v.59h-1.53c.38,1.01,1.04,2.06,1.72,2.56-.14.11-.32.29-.43.43-.59-.5-1.16-1.43-1.55-2.38v2.89h-.6v-2.97Z"/>
        <path class="cls-2" d="m98.94,35.14c0,.18,0,.38-.01.57h2.83v.64h-2.86c-.04.38-.08.78-.17,1.18.63.63,2.44,2.62,2.87,3.12l-.46.57c-.48-.63-1.79-2.17-2.56-3.01-.42,1.6-1.29,3.21-3.04,4.44-.08-.14-.32-.41-.45-.5,2.31-1.62,2.97-3.82,3.14-5.8h-3.04v-.64h3.07c.01-.21.01-.39.01-.59v-2.55h-1.39c-.34.92-.76,1.75-1.22,2.4-.13-.11-.42-.29-.56-.39.85-1.12,1.47-2.83,1.83-4.59l.66.13c-.14.63-.31,1.23-.49,1.82h4.2v.64h-2.37v2.56Zm8.15-3.92v10.94h-.67v-1.04h-3.52v1.16h-.66v-11.07h4.85Zm-.67,9.26v-8.62h-3.52v8.62h3.52Z"/>
        <path class="cls-2" d="m113.71,32.93h-4.25v-.6h4.25v.6Zm-.35,8.94h-2.76v.69h-.6v-4.67h3.36v3.98Zm-3.33-7.68h3.33v.59h-3.33v-.59Zm0,1.85h3.33v.57h-3.33v-.57Zm3.29-4.93h-3.22v-.57h3.22v.57Zm-2.72,7.37v2.79h2.16v-2.79h-2.16Zm10.95-2.19c-.36,1.25-.88,2.37-1.53,3.33.28,1.48.7,2.33,1.32,2.37.27.01.45-.77.55-2.04.13.13.38.28.49.34-.21,1.89-.57,2.48-1.04,2.46-.88-.04-1.44-.94-1.79-2.46-.74.94-1.61,1.72-2.56,2.31-.1-.11-.27-.28-.41-.39,1.08-.64,2.04-1.54,2.82-2.68-.18-1.13-.31-2.55-.36-4.16h-5.58v-.59h5.55c-.06-1.46-.07-3.05-.08-4.76h.6c0,1.74.01,3.33.07,4.76h2.44v.59h-2.42c.07,1.29.15,2.44.28,3.39.46-.83.84-1.74,1.09-2.75l.57.28Zm-3.03-4.09h-4.65v-.59h2.04v-1.61h.63v1.61h1.98v.59Zm-3.63,8.73v.88h-.57v-5.42h3.77v4.54h-3.19Zm.07-6.29c-.01-.57-.17-1.44-.42-2.13l.52-.13c.28.67.45,1.57.48,2.13l-.57.13Zm-.07,2.31v1.4h2.59v-1.4h-2.59Zm2.59,3.42v-1.47h-2.59v1.47h2.59Zm-.8-5.84c.21-.6.46-1.58.59-2.23l.62.15c-.22.74-.48,1.65-.69,2.21l-.52-.14Zm4.87-1.29c-.25-.7-.88-1.72-1.53-2.45l.52-.25c.66.74,1.32,1.75,1.58,2.44l-.58.27Z"/>
        <path class="cls-2" d="m123.82,32.35h4.58v.6h-4.58v-.6Zm4.23,2.48h-3.64v-.57h3.64v.57Zm-3.64,1.3h3.64v.57h-3.64v-.57Zm3.7,5.84h-3.08v.7h-.62v-4.67h3.7v3.96Zm-.1-10.87h-3.52v-.57h3.52v.57Zm-2.98,7.49v2.79h2.48v-2.79h-2.48Zm11.56,1.79h-.81v1.48c0,.41-.1.6-.42.7-.31.1-.9.1-1.82.1-.04-.15-.13-.41-.21-.59.74.03,1.37.03,1.57.01.2-.01.24-.07.24-.22v-1.48h-5.04v2.3h-.6v-2.3h-.94v-.59h.94v-3.59h2.76v-.98h-3.68v-.57h2.17v-1.15h-1.5v-.56h1.5v-1.06h-1.78v-.56h1.78v-1.32h.62v1.32h2.61v-1.32h.63v1.32h1.82v.56h-1.82v1.06h1.54v.56h-1.54v1.15h1.99v.57h-3.73v.98h2.93v3.59h.81v.59Zm-6.5-3.61v1.27h2.16v-1.27h-2.16Zm0,3.03h2.16v-1.22h-2.16v1.22Zm1.26-6.85h2.61v-1.06h-2.61v1.06Zm0,1.71h2.61v-1.15h-2.61v1.15Zm1.5,2.12v1.27h2.28v-1.27h-2.28Zm2.28,3.03v-1.22h-2.28v1.22h2.28Z"/>
        <path class="cls-2" d="m142.29,34.3c-1.29.52-2.61,1.06-3.66,1.47l-.28-.57c.98-.32,2.41-.87,3.82-1.44l.11.55Zm.9-2.94h-4.53v-.59h5.16v4.62c0,.35-.08.53-.38.64-.31.11-.84.1-1.74.1-.04-.17-.14-.39-.22-.55.71.01,1.3.01,1.47,0,.18,0,.24-.06.24-.2v-4.03Zm-3.4.29c.7.36,1.51.95,1.88,1.39l-.41.46c-.39-.46-1.18-1.07-1.86-1.44l.39-.41Zm5.08,4.16c-.21.41-.43.81-.64,1.16h4.71v5.76h-.69v-.57h-7.31v.57h-.66v-5.76h3.28c.24-.42.5-.97.63-1.34l.69.18Zm3.38,1.74h-7.31v1.68h7.31v-1.68Zm0,4.02v-1.75h-7.31v1.75h7.31Zm-3.73-6.67c1.02-.34,2.54-.88,4.02-1.42l.1.53c-1.34.5-2.75,1.04-3.84,1.43l-.28-.55Zm5.52.52c0,.38-.1.56-.39.67-.31.1-.87.11-1.81.1-.03-.17-.13-.41-.21-.56.73.03,1.35.03,1.53.01.18-.01.24-.06.24-.22v-4.06h-4.61v-.59h5.25v4.65Zm-2.9-1.96c-.38-.46-1.18-1.02-1.88-1.39l.39-.41c.69.34,1.5.9,1.91,1.32l-.42.48Z"/>
        <path class="cls-2" d="m32.39,61.85c-.01.55-.06,1.06-.1,1.55h3.75c.39,0,.62-.03.8-.04l.55.27c-.04.25-.07.46-.08.66-.04,1.25-.21,5.41-.85,6.71-.28.53-.66.71-1.33.71s-1.44-.03-2.2-.07l-.08-.76c.78.08,1.53.14,2.14.14.38,0,.67-.1.83-.43.62-1.19.78-5.02.78-6.5h-4.37c-.5,4.24-2.06,6.29-4.27,7.8l-.66-.53c.36-.18.85-.55,1.19-.84,1.43-1.21,2.65-3.04,3.05-6.43h-2.65c-.6,0-1.04,0-1.48.04v-.78c.43.03.92.06,1.47.06h2.72c.04-.48.07-.99.07-1.54,0-.32-.01-.76-.07-1.08h.85c-.03.31-.04.73-.06,1.06Z"/>
        <path class="cls-2" d="m50.1,65.21c-.32,1.39-.97,2.9-2.02,4.03-1.5,1.62-3.24,2.38-5.01,2.86l-.56-.64c1.9-.38,3.71-1.29,4.97-2.63.91-.97,1.54-2.34,1.81-3.5h-7.84c-.32,0-.76.01-1.2.04v-.8c.45.06.87.08,1.2.08h7.65c.24,0,.49-.03.63-.08l.53.32c-.06.1-.13.24-.15.32Zm-7.49-3.73h5.59c.43,0,.81-.01,1.12-.06v.77c-.31-.03-.69-.03-1.13-.03h-5.58c-.41,0-.77.01-1.13.03v-.77c.35.04.7.06,1.13.06Z"/>
        <path class="cls-2" d="m54.84,65.91h7.76c.73,0,1.15-.03,1.43-.06v.87c-.25-.01-.77-.04-1.41-.04h-7.77c-.77,0-1.4.01-1.78.04v-.87c.36.03.95.06,1.78.06Z"/>
        <path class="cls-2" d="m69.09,61.97h6.6c.46,0,.8-.01,1.09-.04v.74c-.31-.01-.6-.03-1.09-.03h-3.82v3.29h5c.29,0,.76-.01,1.05-.04v.76c-.29-.01-.73-.03-1.04-.03h-5.01v3.19c0,.67.49,1.19,1.88,1.19s2.48-.06,3.71-.2l-.03.74c-1.19.08-2.39.15-3.75.15-1.85,0-2.54-.67-2.54-1.65v-3.43h-2.98c-.34,0-.83.01-1.19.04v-.78c.36.04.85.06,1.19.06h2.98v-3.29h-2.04c-.46,0-.85.01-1.21.03v-.74c.35.03.74.04,1.21.04Z"/>
        <path class="cls-2" d="m81.44,65.17h9.16c.29,0,.66-.03.98-.06v.77c-.28-.03-.67-.04-.98-.04h-4.05c-.03,1.54-.22,2.9-.81,3.98-.52.91-1.57,1.88-2.72,2.46l-.67-.5c1.13-.49,2.16-1.3,2.7-2.23.64-1.05.74-2.3.77-3.71h-4.38c-.43,0-.77.01-1.15.04v-.77c.36.03.71.06,1.15.06Zm1.67-3.47h5.01c.35,0,.81-.01,1.19-.07v.78c-.38-.03-.84-.04-1.19-.04h-4.99c-.45,0-.83.01-1.15.04v-.78c.36.04.69.07,1.12.07Zm8.03.6l-.55.27c-.27-.58-.77-1.42-1.15-1.95l.53-.24c.35.5.85,1.33,1.16,1.92Zm1.5-.53l-.55.25c-.31-.62-.77-1.4-1.18-1.92l.52-.24c.38.52.92,1.37,1.2,1.91Z"/>
        <path class="cls-2" d="m95.83,67.9c.41-1.33.42-4.2.42-5.7,0-.32-.03-.59-.08-.85h.84c-.03.22-.06.53-.06.85,0,1.48-.06,4.52-.43,5.91-.42,1.46-1.33,2.82-2.49,3.74l-.67-.45c1.15-.83,2.03-2.06,2.48-3.5Zm3.98,2.83v-8.52c0-.48-.04-.78-.06-.94h.83c-.03.15-.04.46-.04.94v8.53c1.39-.64,3.32-2.02,4.45-3.74l.43.62c-1.25,1.71-3.15,3.1-4.79,3.91-.2.1-.34.2-.42.27l-.49-.41c.06-.2.08-.43.08-.66Z"/>
        <path class="cls-2" d="m31.68,89.72l.55.34c-1.72,1.76-2.66,3.91-2.66,6.29s.94,4.52,2.66,6.29l-.55.34c-1.78-1.83-2.8-4.03-2.8-6.63s1.02-4.79,2.8-6.62Z"/>
        <path class="cls-2" d="m43.86,92.91c-.29,1.53-1.01,3.82-2.09,5.2-1.29,1.62-2.83,2.86-5.43,3.67l-.62-.67c2.68-.7,4.24-1.88,5.45-3.43,1.02-1.33,1.74-3.49,1.93-4.92h-7.54c-.5,0-.88.03-1.23.04v-.81c.36.04.78.08,1.25.08h7.34c.18,0,.35,0,.55-.06l.55.35c-.08.15-.11.28-.15.55Z"/>
        <path class="cls-2" d="m55.73,94.83c-.36.57-1.46,2.3-2.89,3.24l-.62-.43c1.11-.62,2.2-2,2.65-2.75-.84,0-6.63-.01-7.06-.01-.39,0-.85.01-1.23.04v-.78c.36.04.84.07,1.23.07h7.17c.15,0,.39-.01.53-.06l.42.39c-.07.08-.15.2-.21.29Zm-7.68,7.79l-.69-.53c.27-.1.6-.24.87-.41,2.06-1.39,2.31-3.11,2.31-4.97,0-.24-.03-.48-.06-.74h.8c-.01,3.21-.45,5.13-3.24,6.65Z"/>
        <path class="cls-2" d="m60.02,97.58l-.67.25c-.22-.73-1.01-2.7-1.25-3.12l.66-.27c.24.52.99,2.42,1.26,3.14Zm6.85-2.69c-.36,1.62-.98,3.15-2.02,4.44-1.29,1.61-2.98,2.66-4.5,3.24l-.6-.62c1.67-.5,3.35-1.57,4.51-3,1.01-1.25,1.75-2.98,2-4.79l.77.24c-.07.18-.13.36-.17.49Zm-3.78,1.85l-.66.25c-.14-.62-.81-2.45-1.08-3.01l.67-.22c.22.55.91,2.4,1.06,2.98Z"/>
        <path class="cls-2" d="m73.25,96.07l-.42.63c-.63-.46-2.19-1.46-2.98-1.86l.41-.6c.76.41,2.45,1.44,3,1.84Zm1.93,3.43c2.28-1.33,4.08-3.11,5.21-5.07l.45.71c-1.18,1.85-3.08,3.68-5.29,4.99-1.4.84-3.28,1.46-4.62,1.75l-.41-.73c1.53-.27,3.31-.87,4.67-1.65Zm.11-6.43l-.45.6c-.6-.49-2.16-1.54-2.91-1.98l.39-.6c.77.45,2.42,1.57,2.97,1.98Z"/>
        <path class="cls-2" d="m84.28,94.16h5.46c.32,0,.59-.01.76-.01-.01.13-.01.32-.01.56v6.96c0,.22.01.45.01.64h-.73c.01-.14.01-.35.01-.59h-5.81c-.46,0-.91.03-1.13.03v-.76c.22.03.64.06,1.12.06h5.83v-2.87h-5.39c-.46,0-.85.01-1.11.03v-.74c.22.01.64.06,1.09.06h5.41v-2.7h-5.5c-.29,0-1.06.03-1.26.03v-.74c.21.04.97.06,1.26.06Z"/>
        <path class="cls-2" d="m99.53,98.87c2.02-1.3,3.66-3.35,4.41-4.99l.43.76c-.9,1.64-2.38,3.53-4.43,4.85-1.39.9-3.14,1.81-5.69,2.31l-.48-.74c2.59-.39,4.43-1.33,5.74-2.19Zm-1.33-4.38l-.55.56c-.7-.7-2.42-2.2-3.47-2.88l.49-.52c1,.66,2.79,2.12,3.53,2.84Z"/>
        <path class="cls-2" d="m106,99.2l.57-.52c1.02.81,2.23,2.02,3.21,3.12l-.63.53c-.94-1.15-2.14-2.34-3.15-3.14Z"/>
        <path class="cls-2" d="m118.36,92.09c-.14.28-.31.57-.49.88h4.37c.34,0,.56-.03.73-.11l.63.38c-.08.15-.2.45-.24.59-.38,1.51-1.27,3.42-2.51,4.92-1.23,1.51-2.91,2.79-5.53,3.73l-.63-.59c2.4-.69,4.26-1.99,5.56-3.54,1.16-1.39,2.06-3.28,2.38-4.71h-5.2c-.8,1.16-1.95,2.44-3.57,3.5l-.62-.46c2.4-1.41,3.87-3.59,4.43-4.87.1-.2.27-.62.32-.9l.84.28c-.17.29-.35.66-.48.91Zm5.67.45l-.55.25c-.27-.56-.77-1.42-1.15-1.93l.53-.24c.35.49.85,1.33,1.16,1.92Zm1.5-.53l-.55.25c-.31-.62-.77-1.4-1.18-1.92l.52-.24c.38.5.92,1.37,1.21,1.91Z"/>
        <path class="cls-2" d="m128.12,100.73v-8.25c0-.28-.04-.88-.08-1.09h.9c-.04.24-.08.76-.08,1.08v8.35c2.91-.7,6.23-2.58,7.94-4.86l.42.62c-1.76,2.24-4.64,3.99-8.24,4.97-.13.04-.29.1-.45.17l-.5-.42c.07-.15.1-.31.1-.56Z"/>
        <path class="cls-2" d="m145.23,94.17c1.49-.95,2.77-2.04,3.78-3.25l.59.55c-1.08,1.13-2.33,2.18-3.81,3.17v6.07c0,.46.03,1.05.07,1.29h-.87c.03-.22.06-.83.06-1.29v-5.6c-1.47.88-3.49,1.78-5.55,2.42l-.38-.69c2.38-.66,4.57-1.69,6.11-2.66Z"/>
        <path class="cls-2" d="m151.75,99.2l.57-.52c1.02.81,2.23,2.02,3.21,3.12l-.63.53c-.94-1.15-2.14-2.34-3.15-3.14Z"/>
        <path class="cls-2" d="m168.99,93.12c-.29,1.53-1.01,3.82-2.07,5.2-1.29,1.62-2.84,2.86-5.45,3.67l-.62-.67c2.68-.7,4.24-1.88,5.45-3.43,1.02-1.32,1.75-3.49,1.95-4.92h-7.55c-.5,0-.88.03-1.23.04v-.81c.36.04.78.08,1.25.08h7.34c.18,0,.35,0,.55-.06l.55.35c-.07.15-.11.28-.15.55Zm.14-1.16l-.55.27c-.28-.57-.79-1.4-1.13-1.88l.53-.24c.32.46.85,1.32,1.15,1.85Zm1.74-.35l-.55.24c-.32-.57-.78-1.39-1.16-1.85l.55-.24c.32.45.85,1.29,1.16,1.85Z"/>
        <path class="cls-2" d="m173.97,92.25v4.65c0,.35.01.77.04.98h-.83c.03-.2.06-.59.06-.99v-4.64c0-.24-.03-.73-.06-.97h.83c-.03.24-.04.7-.04.97Zm6.51.03v1.97c0,3.57-.38,4.57-1.37,5.8-.9,1.13-2.27,1.71-3.29,2.06l-.59-.62c1.22-.34,2.45-.9,3.33-1.93,1.02-1.22,1.18-2.41,1.18-5.32v-1.96c0-.41-.03-.79-.06-1.09h.84c-.03.31-.04.69-.04,1.09Z"/>
        <path class="cls-2" d="m185.9,95.91h7.76c.73,0,1.15-.03,1.43-.06v.87c-.25-.01-.77-.04-1.41-.04h-7.77c-.77,0-1.4.01-1.78.04v-.87c.36.03.95.06,1.78.06Z"/>
        <path class="cls-2" d="m203.45,91.9c1.19-.15,2.98-.5,3.66-.78l.49.64c-.21.06-.41.11-.6.17-.71.17-1.95.43-3.04.59v2.98h4.06c.31,0,.74-.03,1.02-.06v.77c-.27-.03-.67-.04-.99-.04h-4.1c-.08,2.82-1.13,4.55-3.57,5.93l-.69-.5c2.23-1.05,3.43-2.62,3.54-5.42h-4.34c-.45,0-.9.01-1.2.04v-.78c.27.03.77.07,1.19.07h4.37v-2.9c-1.46.17-3.11.2-4.27.22l-.18-.7c1.05.06,3.17-.03,4.66-.22Z"/>
        <path class="cls-2" d="m210.8,99.2l.57-.52c1.02.81,2.23,2.02,3.21,3.12l-.63.53c-.94-1.15-2.14-2.34-3.15-3.14Z"/>
        <path class="cls-2" d="m219.33,95.17h9.16c.29,0,.66-.03.98-.06v.77c-.28-.03-.67-.04-.98-.04h-4.05c-.03,1.54-.22,2.9-.81,3.98-.52.91-1.57,1.88-2.72,2.46l-.67-.5c1.13-.49,2.16-1.3,2.7-2.23.64-1.05.74-2.3.77-3.71h-4.38c-.43,0-.77.01-1.15.04v-.77c.36.03.71.06,1.15.06Zm1.67-3.47h5.01c.35,0,.81-.01,1.19-.07v.78c-.38-.03-.84-.04-1.19-.04h-4.99c-.45,0-.83.01-1.15.04v-.78c.36.04.69.07,1.12.07Zm8.03.6l-.55.27c-.27-.58-.77-1.42-1.15-1.95l.53-.24c.35.5.85,1.33,1.16,1.92Zm1.5-.53l-.55.25c-.31-.62-.77-1.4-1.18-1.92l.52-.24c.38.52.92,1.37,1.2,1.91Z"/>
        <path class="cls-2" d="m236.44,102.44l-.62-.57c2.45-1,3.78-2.2,3.78-6.4v-.62h-4.38v2.48c0,.46.04,1.09.04,1.15h-.81c.01-.06.07-.67.07-1.15v-2.48h-1.71c-.56,0-1.27.04-1.33.04v-.8s.8.07,1.33.07h1.71v-2.03c0-.24-.03-.62-.06-.87h.81s-.06.42-.06.85v2.04h4.38v-1.92c0-.53-.06-1-.07-1.05h.84c-.01.06-.07.52-.07,1.05v1.92h1.83c.56,0,1.05-.06,1.13-.07v.8c-.07,0-.57-.04-1.13-.04h-1.83v.5c0,3.89-.78,5.69-3.87,7.09Zm6.15-9.37l-.53.18c-.21-.59-.59-1.47-.85-1.99l.5-.15c.27.48.67,1.39.88,1.96Zm1.39-.43l-.55.2c-.24-.63-.57-1.47-.87-1.97l.52-.17c.27.49.66,1.36.9,1.95Z"/>
        <path class="cls-2" d="m251.56,94.17c1.49-.95,2.77-2.04,3.78-3.25l.59.55c-1.08,1.13-2.33,2.18-3.81,3.17v6.07c0,.46.03,1.05.07,1.29h-.87c.03-.22.06-.83.06-1.29v-5.6c-1.47.88-3.49,1.78-5.55,2.42l-.38-.69c2.38-.66,4.57-1.69,6.11-2.66Z"/>
        <path class="cls-2" d="m264.4,98.87c2.02-1.3,3.66-3.35,4.41-4.99l.43.76c-.9,1.64-2.38,3.53-4.43,4.85-1.39.9-3.14,1.81-5.69,2.31l-.48-.74c2.59-.39,4.43-1.33,5.74-2.19Zm-1.33-4.38l-.55.56c-.7-.7-2.42-2.2-3.47-2.88l.49-.52c1,.66,2.79,2.12,3.53,2.84Z"/>
        <path class="cls-2" d="m30.1,122.21l.79.15c-.08.27-.15.52-.21.8-.2.8-.67,2.97-1.32,4.48-.53,1.23-1.26,2.59-2.07,3.77l-.74-.32c.9-1.18,1.67-2.63,2.14-3.75.62-1.39,1.22-3.61,1.41-5.13Zm3.46.11l.7-.25c.53.98,1.4,2.79,2.03,4.34.6,1.46,1.34,3.54,1.71,4.75l-.76.24c-.34-1.29-1.07-3.26-1.65-4.75-.59-1.43-1.43-3.31-2.03-4.33Z"/>
        <path class="cls-2" d="m46.65,124.17c1.49-.95,2.77-2.04,3.78-3.25l.59.55c-1.08,1.13-2.33,2.18-3.81,3.17v6.07c0,.46.03,1.05.07,1.29h-.87c.03-.22.06-.83.06-1.29v-5.6c-1.47.88-3.49,1.78-5.55,2.42l-.38-.69c2.38-.66,4.57-1.69,6.11-2.66Z"/>
        <path class="cls-2" d="m63.26,125.21c-.32,1.39-.97,2.9-2.02,4.03-1.5,1.62-3.24,2.38-5.01,2.86l-.56-.64c1.9-.38,3.71-1.29,4.97-2.63.91-.97,1.54-2.34,1.81-3.5h-7.84c-.32,0-.76.01-1.2.04v-.8c.45.06.87.08,1.2.08h7.65c.24,0,.49-.03.63-.08l.53.32c-.06.1-.13.24-.15.32Zm-7.49-3.73h5.59c.43,0,.81-.01,1.12-.06v.77c-.31-.03-.69-.03-1.13-.03h-5.58c-.41,0-.77.01-1.13.03v-.77c.35.04.7.06,1.13.06Z"/>
        <path class="cls-2" d="m71.8,124.17c1.49-.95,2.77-2.04,3.78-3.25l.59.55c-1.08,1.13-2.33,2.18-3.81,3.17v6.07c0,.46.03,1.05.07,1.29h-.87c.03-.22.06-.83.06-1.29v-5.6c-1.47.88-3.49,1.78-5.55,2.42l-.38-.69c2.38-.66,4.57-1.69,6.11-2.66Z"/>
        <path class="cls-2" d="m80.32,122.3c0-.34-.03-.92-.1-1.33h.9c-.04.39-.08,1-.08,1.33v2.42c1.83.56,4.46,1.57,6.07,2.37l-.31.74c-1.55-.85-4.2-1.86-5.76-2.34.01,2.31.01,4.71.01,5,0,.48.01,1.09.07,1.49h-.87c.06-.38.07-.98.07-1.49v-8.19Z"/>
        <path class="cls-2" d="m89.83,132.97l-.55-.34c1.72-1.77,2.66-3.91,2.66-6.29s-.94-4.52-2.66-6.29l.55-.34c1.78,1.83,2.8,4.03,2.8,6.62s-1.02,4.79-2.8,6.63Z"/>
        <path class="cls-2" d="m121.82,158.71l.38.59c-1.23.95-2.44,2.33-3.22,3.56-.78-1.23-1.99-2.61-3.22-3.56l.38-.59c.94.7,1.89,1.72,2.49,2.52v-11.33h.7v11.33c.6-.8,1.56-1.82,2.49-2.52Z"/>
      </g>
      <g>
        <path class="cls-2" d="m7.12,10.02H0V2.91h7.12v7.12Z"/>
        <path class="cls-2" d="m7.12,39.02H0v-7.12h7.12v7.12Z"/>
        <path class="cls-2" d="m7.12,68.02H0v-7.12h7.12v7.12Z"/>
      </g>
      <rect class="cls-3" x="20.53" y="181.43" width="277.53" height="38.19"/>
      <g>
        <path class="cls-1" d="m99.18,197.19c-.02.58-.06,1.14-.11,1.67h4.02c.42,0,.66-.03.85-.04l.58.29c-.04.27-.08.5-.09.71-.04,1.33-.23,5.79-.92,7.18-.3.57-.71.76-1.42.76s-1.54-.03-2.36-.08l-.09-.81c.84.09,1.63.15,2.29.15.41,0,.72-.1.88-.46.66-1.27.84-5.37.84-6.96h-4.68c-.54,4.54-2.2,6.73-4.57,8.35l-.71-.57c.39-.2.92-.58,1.27-.9,1.53-1.29,2.83-3.25,3.27-6.88h-2.83c-.65,0-1.11,0-1.59.04v-.84c.46.03.99.06,1.58.06h2.91c.04-.51.08-1.07.08-1.65,0-.34-.01-.81-.08-1.15h.92c-.03.33-.04.78-.06,1.14Z"/>
        <path class="cls-1" d="m118.15,200.79c-.34,1.49-1.04,3.11-2.16,4.32-1.6,1.74-3.46,2.55-5.37,3.06l-.6-.69c2.04-.41,3.98-1.38,5.33-2.82.97-1.04,1.65-2.5,1.93-3.75h-8.4c-.34,0-.81.02-1.29.04v-.85c.48.06.93.09,1.29.09h8.19c.25,0,.53-.03.67-.09l.57.34c-.06.11-.13.25-.17.34Zm-8.02-3.99h5.98c.46,0,.87-.02,1.2-.06v.83c-.33-.03-.74-.03-1.21-.03h-5.97c-.44,0-.83.02-1.21.03v-.83c.38.04.75.06,1.21.06Z"/>
        <path class="cls-1" d="m123.24,201.54h8.31c.78,0,1.23-.03,1.53-.06v.93c-.27-.01-.83-.04-1.51-.04h-8.33c-.82,0-1.5.01-1.9.04v-.93c.39.03,1.02.06,1.9.06Z"/>
        <path class="cls-1" d="m138.27,197.62v4.98c0,.38.01.83.04,1.05h-.88c.03-.21.06-.63.06-1.07v-4.96c0-.26-.03-.78-.06-1.04h.88c-.03.25-.04.75-.04,1.04Zm6.97.03v2.12c0,3.83-.41,4.89-1.47,6.21-.96,1.21-2.43,1.83-3.53,2.2l-.63-.66c1.31-.36,2.62-.96,3.57-2.07,1.09-1.3,1.26-2.58,1.26-5.7v-2.1c0-.43-.03-.84-.06-1.17h.9c-.03.33-.04.74-.04,1.17Z"/>
        <path class="cls-1" d="m158.31,198.24c-.53,1.38-1.54,3.25-2.62,4.58,1.63,1.39,3.45,3.33,4.48,4.57l-.64.57c-1.02-1.3-2.76-3.19-4.33-4.59-1.65,1.77-3.67,3.45-6,4.49l-.6-.65c2.42-.96,4.58-2.73,6.19-4.53,1.04-1.19,2.25-3.13,2.64-4.49h-6.29c-.48,0-1.3.06-1.37.06v-.89c.09,0,.9.08,1.37.08h6.08c.39,0,.67-.03.87-.09l.5.39c-.07.11-.22.36-.27.5Z"/>
        <path class="cls-1" d="m164.52,197.67c0-.36-.03-.99-.1-1.43h.96c-.04.42-.09,1.07-.09,1.43v2.59c1.97.6,4.77,1.68,6.5,2.53l-.33.8c-1.67-.92-4.5-2-6.17-2.5.02,2.47.02,5.04.02,5.35,0,.51.01,1.17.08,1.59h-.93c.06-.41.08-1.05.08-1.59v-8.77Z"/>
        <path class="cls-1" d="m175.56,200.74h9.81c.31,0,.7-.03,1.05-.06v.83c-.3-.03-.72-.04-1.05-.04h-4.33c-.03,1.65-.24,3.1-.87,4.26-.55.97-1.68,2.01-2.91,2.64l-.72-.54c1.21-.53,2.31-1.4,2.89-2.38.69-1.12.79-2.46.83-3.97h-4.69c-.47,0-.83.01-1.23.04v-.83c.39.03.76.06,1.23.06Zm1.78-3.72h5.37c.38,0,.87-.01,1.28-.08v.84c-.41-.03-.9-.04-1.28-.04h-5.34c-.48,0-.88.02-1.23.04v-.84c.39.04.73.08,1.2.08Zm8.59.65l-.58.28c-.29-.61-.83-1.51-1.23-2.08l.57-.25c.38.54.92,1.42,1.25,2.06Zm1.61-.57l-.58.27c-.33-.66-.83-1.5-1.26-2.05l.56-.25c.4.55.99,1.47,1.29,2.04Z"/>
        <path class="cls-1" d="m191.33,197.61v3.72c1.74-.4,4.3-1.18,6-1.92.42-.19.81-.39,1.14-.61l.36.79c-.35.15-.79.36-1.21.52-1.8.75-4.52,1.54-6.29,2.01v3.62c0,.84.33,1.05,1.08,1.2.5.09,1.37.15,2.14.15,1.59,0,3.81-.13,5.07-.46v.88c-1.23.18-3.48.32-5.1.32-.84,0-1.73-.03-2.33-.13-1.07-.18-1.65-.6-1.65-1.79v-8.29c0-.38-.01-.72-.07-1.02h.92c-.03.3-.06.6-.06,1.02Zm8.19.63l-.58.27c-.29-.6-.82-1.52-1.23-2.07l.57-.25c.38.53.93,1.42,1.25,2.05Zm1.61-.57l-.57.27c-.34-.66-.84-1.5-1.26-2.05l.55-.25c.41.54.99,1.47,1.28,2.04Z"/>
        <path class="cls-1" d="m211.54,200.94c-.1,1.09-.6,4.37-.81,5.65h1.8c.3,0,.74-.01,1.02-.03v.78c-.26-.01-.71-.01-.98-.01h-8.41c-.42,0-.74.01-1.11.03v-.81c.34.03.69.04,1.11.04h5.77c.21-1.15.74-4.65.76-5.5h-5.17c-.42,0-.71.01-1.04.03v-.83c.33.03.65.06,1.02.06h4.96c.21,0,.45-.03.54-.08l.6.3c-.04.11-.08.25-.08.36Z"/>
        <path class="cls-1" d="m218.43,201.54h8.31c.78,0,1.23-.03,1.53-.06v.93c-.27-.01-.83-.04-1.51-.04h-8.33c-.82,0-1.5.01-1.9.04v-.93c.39.03,1.02.06,1.9.06Z"/>
      </g>
    </g>
  </g>
</svg>