<?xml version="1.0" encoding="UTF-8"?>
<svg id="_レイヤー_2" data-name="レイヤー 2" xmlns="http://www.w3.org/2000/svg" viewBox="0 0 134.36 69.64">
  <defs>
    <style>
      .cls-1 {
        fill: #fff;
      }

      .cls-2 {
        fill: #686969;
      }

      .cls-3 {
        fill: #231815;
      }
    </style>
  </defs>
  <g id="_レイヤー_1-2" data-name="レイヤー 1">
    <g>
      <path class="cls-3" d="m13.49,7.79l-1.86-3.9,1.86-3.9.46.15-1.81,3.75,1.81,3.75-.46.15Zm1.32,0l-1.86-3.9,1.86-3.9.45.15-1.8,3.75,1.8,3.75-.45.15Z"/>
      <path class="cls-3" d="m20.27,6.88c.41.08.87.1,1.35.1.3,0,1.74,0,2.14,0-.1.15-.21.44-.23.63h-1.94c-1.73,0-2.98-.3-3.74-1.71-.29.77-.7,1.39-1.25,1.86-.1-.11-.36-.33-.51-.42.93-.72,1.38-1.91,1.56-3.4l.63.06c-.05.39-.12.76-.2,1.11.32.88.85,1.35,1.54,1.61v-3.5h-2.07v-.58h4.84v.58h-2.13v1.39h2.48v.58h-2.48v1.71Zm-3.17-4.04h-.61v-1.81h3.14V.08h.64v.95h3.16v1.81h-.64v-1.22h-5.69v1.22Z"/>
      <path class="cls-3" d="m25.85,7.17v.39h-.54v-2.31c-.13.08-.26.13-.39.19-.08-.13-.23-.33-.33-.44.62-.23,1.25-.64,1.76-1.15-.27-.19-.54-.38-.78-.56-.18.18-.35.33-.53.48-.09-.1-.3-.28-.42-.37.63-.44,1.2-1.13,1.51-1.86l.53.13c-.08.17-.16.33-.25.49h1.08l.09-.03.36.16c-.19.56-.48,1.05-.83,1.49.49.37.95.73,1.25,1.01l-.37.43c-.06-.06-.13-.12-.21-.2v2.14h-1.94Zm-.48-5.14h-.52V.84h1.42V.09h.58v.74h1.42v1.2h-.54v-.69h-2.37v.69Zm2.37,2.96c-.27-.24-.61-.52-.97-.8-.3.31-.64.58-.99.8h1.96Zm-.5.49h-1.39v1.19h1.39v-1.19Zm-1.1-2.87c-.08.1-.15.21-.23.3.26.18.53.37.8.56.22-.27.4-.55.54-.86h-1.11Zm3.79,3.99c-.42.43-1.13.85-1.73,1.09-.1-.11-.28-.29-.41-.41.6-.22,1.29-.63,1.61-.99l.54.31Zm-.14-4.8c.07-.25.13-.54.18-.79h-1.58V.47h3.86v.54h-1.61c-.08.27-.17.55-.25.79h1.65v4.32h-3.33V1.81h1.09Zm1.66.49h-2.18v.8h2.18v-.8Zm0,1.25h-2.18v.8h2.18v-.8Zm0,1.27h-2.18v.81h2.18v-.81Zm-.37,1.51c.48.3,1.1.76,1.41,1.07l-.48.33c-.3-.3-.91-.78-1.41-1.1l.47-.3Z"/>
      <path class="cls-3" d="m34.85,1.39h4.12c.2,0,.45,0,.62-.02,0,.19-.03.45-.03.65v4.31c0,.3.03.68.03.81h-.75c0-.09,0-.27.02-.47h-4.09c-.34,0-.72.02-.95.03v-.76c.22.03.58.05.93.05h4.11v-3.95h-4c-.31,0-.73.02-.92.03v-.74c.28.03.64.05.91.05Z"/>
      <path class="cls-3" d="m43.04,3.5h4.58c.42,0,.72-.03.9-.04v.82c-.17,0-.52-.04-.9-.04h-4.59c-.46,0-.9.02-1.16.04v-.82c.25.02.69.04,1.16.04Z"/>
      <path class="cls-3" d="m55.6,1.85c-.28.72-.81,1.7-1.41,2.45.88.75,1.9,1.84,2.44,2.5l-.59.5c-.56-.74-1.45-1.72-2.3-2.48-.9.96-2.02,1.88-3.26,2.44l-.54-.56c1.35-.53,2.58-1.52,3.45-2.48.57-.64,1.18-1.63,1.39-2.32h-3.26c-.29,0-.75.03-.84.04v-.76c.12.02.59.05.84.05h3.23c.28,0,.49-.03.63-.07l.43.33c-.05.07-.16.25-.21.37Z"/>
      <path class="cls-3" d="m59.36,3.9l-1.8-3.75.45-.15,1.86,3.9-1.86,3.9-.45-.15,1.8-3.75Zm1.32,0l-1.8-3.75.45-.15,1.86,3.9-1.86,3.9-.45-.15,1.8-3.75Z"/>
      <path class="cls-3" d="m18.01,16.5c-.23.83-.6,1.7-1.22,2.37-.88.96-1.92,1.46-2.99,1.75l-.52-.59c1.19-.24,2.23-.78,2.94-1.53.51-.54.84-1.25,1-1.85h-4.44c-.2,0-.52,0-.82.02v-.7c.31.03.59.05.82.05h4.41c.19,0,.37-.02.46-.07l.48.3c-.04.08-.09.18-.11.24Zm-4.55-2.41h3.29c.27,0,.56,0,.76-.04v.69c-.2-.02-.49-.02-.77-.02h-3.28c-.26,0-.53,0-.75.02v-.69c.22.03.49.04.75.04Z"/>
      <path class="cls-3" d="m22.9,15.7c.87-.54,1.71-1.27,2.28-1.97l.56.52c-.63.66-1.4,1.3-2.26,1.87v3.53c0,.32.02.73.05.89h-.82c.03-.16.05-.58.05-.89v-3.09c-.88.5-2.02,1-3.19,1.36l-.33-.65c1.45-.39,2.73-.98,3.65-1.56Z"/>
      <path class="cls-3" d="m27.99,14.68c0-.23-.02-.61-.07-.87h.82c-.03.26-.06.62-.06.87v1.36c1.1.33,2.69.94,3.57,1.38l-.28.71c-.91-.49-2.36-1.05-3.29-1.35,0,1.25,0,2.52,0,2.76,0,.26.02.71.05.99h-.81c.04-.27.06-.68.06-.99v-4.87Z"/>
      <path class="cls-3" d="m41.14,13.46l-7.54,7.54-.25-.25,7.54-7.54.25.25Z"/>
      <path class="cls-3" d="m47.7,15.06c-.28.72-.81,1.7-1.41,2.45.88.75,1.9,1.84,2.44,2.5l-.59.5c-.56-.74-1.45-1.72-2.3-2.48-.9.96-2.02,1.88-3.26,2.44l-.54-.56c1.35-.53,2.58-1.52,3.45-2.48.57-.64,1.18-1.63,1.39-2.32h-3.26c-.29,0-.75.03-.84.04v-.76c.12.02.59.05.84.05h3.23c.28,0,.49-.03.63-.07l.43.33c-.05.07-.16.25-.21.37Z"/>
      <path class="cls-3" d="m53.09,14.37c-.05.1-.11.2-.18.3h2.27c.23,0,.41-.03.55-.08l.55.33c-.08.12-.15.32-.2.45-.22.77-.67,1.75-1.3,2.6.35.26.69.52.95.74l-.49.58c-.25-.23-.57-.49-.91-.76-.74.83-1.77,1.6-3.19,2.12l-.6-.52c1.41-.44,2.48-1.2,3.24-2.02-.6-.43-1.24-.87-1.77-1.2l.45-.46c.55.32,1.18.72,1.76,1.13.54-.73.97-1.63,1.14-2.32h-2.83c-.54.75-1.28,1.57-2.22,2.22l-.56-.43c1.44-.89,2.29-2.15,2.68-2.91.08-.15.22-.44.27-.66l.76.24c-.14.22-.29.5-.38.65Z"/>
      <path class="cls-3" d="m60.94,18.53c1.29-.81,2.31-2.05,2.79-3.08l.4.71c-.57,1.04-1.55,2.18-2.81,2.98-.84.53-1.89,1.04-3.29,1.3l-.44-.69c1.46-.22,2.55-.73,3.34-1.22Zm-.49-2.65l-.53.53c-.42-.43-1.46-1.33-2.08-1.75l.48-.51c.59.39,1.66,1.26,2.13,1.73Z"/>
      <path class="cls-3" d="m71.49,14.69l-.44.2.39.23c-.07.12-.15.31-.19.44-.23.77-.69,1.76-1.31,2.61.36.26.69.51.95.73l-.49.58c-.25-.23-.56-.49-.91-.75-.74.83-1.77,1.59-3.19,2.12l-.6-.53c1.41-.43,2.49-1.2,3.24-2.01-.59-.44-1.24-.87-1.77-1.2l.45-.47c.55.32,1.18.73,1.76,1.14.54-.74.97-1.63,1.14-2.32h-2.83c-.54.74-1.28,1.56-2.22,2.21l-.56-.43c1.44-.9,2.3-2.16,2.68-2.92.08-.15.22-.44.27-.66l.76.24c-.14.22-.29.5-.38.66-.05.09-.11.19-.17.29h2.26c.23,0,.42-.02.55-.08l.14.08c-.17-.33-.44-.83-.67-1.14l.44-.19c.21.3.51.8.69,1.15Zm.94-.34l-.45.2c-.18-.37-.46-.84-.69-1.15l.44-.18c.22.3.54.83.7,1.14Z"/>
      <path class="cls-3" d="m74.34,16.7h4.58c.42,0,.72-.03.9-.04v.82c-.17,0-.52-.04-.9-.04h-4.59c-.46,0-.9.02-1.16.04v-.82c.25.02.69.04,1.16.04Z"/>
      <path class="cls-3" d="m82.4,14.79c0-.23-.02-.61-.07-.87h.83c-.03.26-.06.62-.06.87v1.36c1.1.34,2.68.94,3.57,1.38l-.29.71c-.9-.49-2.35-1.05-3.28-1.34v2.75c0,.27.02.72.05.99h-.8c.03-.27.05-.68.05-.99v-4.87Zm3.7.74l-.48.22c-.21-.43-.47-.89-.74-1.27l.46-.21c.21.31.57.87.76,1.26Zm1.04-.44l-.47.23c-.23-.44-.49-.89-.78-1.25l.46-.22c.22.29.58.85.79,1.24Z"/>
      <path class="cls-3" d="m95.74,13.46l-7.54,7.54-.25-.25,7.54-7.54.25.25Z"/>
      <path class="cls-3" d="m103.02,13.33c.52,0,.94.43.94.95s-.43.94-.94.94c-.11,0-.22-.02-.32-.05,0,.02,0,.06-.02.09-.17.88-.58,2.22-1.25,3.08-.76.98-1.76,1.76-3.29,2.23l-.57-.63c1.62-.4,2.57-1.11,3.26-2.01.59-.76.99-1.92,1.1-2.73h-4.27c-.33,0-.62.02-.84.03v-.74c.23.03.56.06.84.06h4.2c.08,0,.17,0,.27,0-.03-.08-.04-.18-.04-.27,0-.52.42-.95.94-.95Zm0,1.5c.31,0,.56-.25.56-.55s-.25-.56-.56-.56-.55.25-.55.56.25.55.55.55Z"/>
      <path class="cls-3" d="m105.57,19.6v-4.78c0-.22-.04-.59-.08-.76h.83c-.03.21-.06.52-.06.76v4.74c1.6-.4,3.54-1.5,4.57-2.85l.38.58c-1.09,1.35-2.81,2.38-4.89,2.99-.09.02-.22.07-.35.15l-.48-.42c.06-.13.08-.24.08-.41Z"/>
      <path class="cls-3" d="m117.68,19.85l-.28.64c-1.11-.49-3.6-1.04-4.95-1.26l.26-.64c1.41.22,3.83.79,4.98,1.25Zm-.3-2.68l-.27.64c-.97-.38-3.01-.84-4.2-1.02l.25-.63c1.15.19,3.17.62,4.21,1Zm.55-2.24l-.27.64c-1.02-.37-3.21-.84-4.37-1l.24-.62c1.09.13,3.34.6,4.39.97Z"/>
      <path class="cls-3" d="m126.09,14.93c-.33.57-1.13,1.65-2.08,2.31l-.55-.44c.77-.44,1.56-1.35,1.83-1.87h-4.77c-.31,0-.63.02-.95.05v-.76c.29.04.64.08.95.08h4.8c.16,0,.46-.02.58-.05l.41.39c-.06.08-.17.21-.23.3Zm-5.44,5.66l-.62-.5c.23-.08.52-.21.75-.38,1.3-.79,1.48-1.98,1.48-3.38,0-.2,0-.38-.03-.6h.75c0,2.27-.2,3.8-2.33,4.86Z"/>
      <path class="cls-3" d="m130.63,14.82c-.24.79-1.07,3.35-1.49,4.44,1.23-.12,2.83-.29,3.75-.42-.33-.66-.71-1.31-1.02-1.71l.63-.28c.59.86,1.51,2.54,1.86,3.4l-.7.32c-.11-.3-.27-.69-.46-1.1-1.29.17-4.09.48-5.21.58-.21.02-.45.06-.69.09l-.12-.78c.25,0,.54,0,.78,0,.12,0,.27-.02.42-.02.47-1.15,1.32-3.83,1.56-4.65.1-.38.13-.58.16-.8l.84.17c-.08.21-.18.43-.29.78Z"/>
      <path class="cls-3" d="m18.36,27.02v7.07h-.64v-.57h-4.37v.57h-.61v-7.07h5.63Zm-5.02.6v1.35h4.37v-1.35h-4.37Zm0,1.95v1.37h4.37v-1.37h-4.37Zm4.37,3.34v-1.37h-4.37v1.37h4.37Z"/>
      <path class="cls-3" d="m22.82,31.37c-.12-.27-.41-.78-.65-1.19v3.93h-.57v-3.91c-.28.91-.64,1.79-1.02,2.33-.07-.16-.22-.39-.32-.54.52-.69,1.03-2,1.27-3.14h-1.1v-.58h1.17v-1.81h.57v1.81h.94v.58h-.94v.58c.23.31.85,1.24,1,1.46l-.34.46Zm1.74,1.11c-.33.5-.86,1-1.36,1.35-.08-.12-.25-.28-.38-.38.49-.32,1-.82,1.27-1.24l.48.26Zm1.25-.45v1.48c0,.29-.05.44-.26.53-.22.08-.55.09-1.08.09-.03-.16-.11-.37-.18-.51h.82c.1,0,.12-.03.12-.12v-1.47h-2.12v-.5h4.85v.5h-2.16Zm-1.16-4.66h-1.49v-.52h4.81v.52h-1.54v.58h1.32v1.99h-4.33v-1.99h1.23v-.58Zm-1.01,3.54v-.48h3.91v.48h-3.91Zm.31-1.46h.75v-1.03h-.75v1.03Zm1.2-1.03v1.03h.78v-1.03h-.78Zm.78-1.06h-.77v.58h.77v-.58Zm1.28,1.06h-.82v1.03h.82v-1.03Zm-.36,3.81c.42.38.94.91,1.18,1.26l-.46.33c-.24-.35-.74-.91-1.15-1.31l.43-.28Z"/>
      <path class="cls-3" d="m32.98,26.75c0,.11,0,.24-.02.38.08,1.1.53,4.97,3.67,6.41-.18.13-.37.34-.46.51-2.16-1.02-3.08-3.16-3.48-4.83-.37,1.67-1.23,3.69-3.34,4.83-.11-.15-.31-.35-.5-.48,3.39-1.73,3.39-5.72,3.45-6.82h.69Z"/>
      <path class="cls-3" d="m44.6,28.61c-.21,1.35-.53,2.46-1.04,3.35.42.72.95,1.29,1.61,1.64-.14.12-.34.36-.43.53-.64-.38-1.15-.91-1.56-1.58-.49.65-1.12,1.19-1.94,1.61-.05-.11-.16-.29-.27-.43l-.19.2c-.26-.21-.59-.43-.98-.66-.49.4-1.15.68-2.04.87-.04-.17-.17-.39-.28-.51.77-.13,1.35-.34,1.78-.65-.27-.13-.54-.27-.82-.38l-.13.23-.54-.19c.18-.32.41-.74.64-1.18h-.95v-.52h1.2c.13-.25.24-.49.34-.72l.22.05v-1.15c-.42.49-.95.95-1.46,1.23-.08-.14-.23-.36-.34-.47.59-.27,1.23-.79,1.64-1.33h-1.55v-.51h1.71v-1.53h.58v1.53h1.7v.51h-1.7v.04c.36.21,1.26.78,1.49.95l-.34.44c-.22-.2-.74-.6-1.15-.9v1.25h-.36l.14.03c-.09.18-.18.38-.28.58h2.23v.52h-.73c-.12.56-.31,1.02-.59,1.4.37.2.7.42.96.61.71-.39,1.26-.89,1.67-1.52-.32-.68-.56-1.46-.75-2.31-.18.39-.38.74-.61,1.05-.09-.12-.36-.33-.5-.43.7-.88,1.14-2.27,1.36-3.75l.63.09c-.08.49-.19.98-.31,1.44h2.42v.58h-.5Zm-6.25-.63c-.08-.29-.29-.75-.52-1.1l.47-.19c.23.33.46.78.54,1.07l-.49.22Zm.7,3.46c-.12.23-.24.46-.35.68.33.13.67.28,1,.44.25-.3.42-.67.53-1.12h-1.17Zm2.27-4.56c-.24.38-.53.8-.74,1.08l-.42-.2c.2-.29.48-.78.62-1.1l.54.23Zm1.18,1.75c.16.96.39,1.86.73,2.64.36-.74.59-1.63.74-2.67h-1.46v.03Z"/>
      <path class="cls-3" d="m48.66,30.31c0,.49-.39.89-.89.89s-.89-.39-.89-.89.39-.89.89-.89.89.39.89.89Z"/>
      <path class="cls-3" d="m53.47,30.94c-.14,1.7-.58,2.68-2.65,3.19-.05-.16-.22-.4-.35-.53,1.92-.41,2.25-1.22,2.37-2.67h.63Zm.44-3.04h-3.27v-.58h3.27v-.82h.64v.82h3.34v.58h-3.34v.83h2.59v.55h-5.72v-.55h2.49v-.83Zm3.12,3.65v-1.03h-5.57v1.03h-.6v-1.6h6.8v1.6h-.63Zm-.04,1.86c.31,0,.36-.14.38-1.08.14.1.39.19.57.24-.08,1.12-.24,1.4-.89,1.4h-1.22c-.75,0-.95-.18-.95-.83v-2.22h.62v2.21c0,.23.06.27.38.27h1.1Z"/>
      <path class="cls-3" d="m66.56,33.11v.62h-7.45v-.62h3.12v-6.49h.65v2.56h3.11v.62h-3.11v3.31h3.68Z"/>
      <path class="cls-3" d="m74.2,27.02v7.07h-.64v-.57h-4.37v.57h-.61v-7.07h5.63Zm-5.02.6v1.35h4.37v-1.35h-4.37Zm0,1.95v1.37h4.37v-1.37h-4.37Zm4.37,3.34v-1.37h-4.37v1.37h4.37Z"/>
      <path class="cls-3" d="m78.65,31.37c-.12-.27-.41-.78-.65-1.19v3.93h-.57v-3.91c-.28.91-.64,1.79-1.02,2.33-.07-.16-.22-.39-.32-.54.52-.69,1.03-2,1.27-3.14h-1.1v-.58h1.17v-1.81h.57v1.81h.94v.58h-.94v.58c.23.31.85,1.24,1,1.46l-.34.46Zm1.74,1.11c-.33.5-.86,1-1.36,1.35-.08-.12-.25-.28-.38-.38.49-.32,1-.82,1.27-1.24l.48.26Zm1.25-.45v1.48c0,.29-.05.44-.26.53-.22.08-.55.09-1.08.09-.03-.16-.11-.37-.18-.51h.82c.1,0,.12-.03.12-.12v-1.47h-2.12v-.5h4.85v.5h-2.16Zm-1.16-4.66h-1.49v-.52h4.81v.52h-1.54v.58h1.32v1.99h-4.33v-1.99h1.23v-.58Zm-1.01,3.54v-.48h3.91v.48h-3.91Zm.31-1.46h.75v-1.03h-.75v1.03Zm1.2-1.03v1.03h.78v-1.03h-.78Zm.78-1.06h-.77v.58h.77v-.58Zm1.28,1.06h-.82v1.03h.82v-1.03Zm-.36,3.81c.42.38.94.91,1.18,1.26l-.46.33c-.24-.35-.74-.91-1.15-1.31l.43-.28Z"/>
      <path class="cls-3" d="m86.44,32.45c.39.62,1.13.9,2.11.94.92.04,2.84.02,3.85-.05-.08.14-.17.43-.2.61-.94.04-2.7.06-3.64.02-1.09-.04-1.85-.33-2.37-.99-.37.36-.75.71-1.16,1.07l-.33-.59c.35-.26.78-.61,1.15-.96v-2.14h-1.06v-.59h1.65v2.68Zm-.25-4c-.25-.42-.81-1-1.32-1.4l.48-.35c.51.38,1.09.95,1.35,1.36l-.5.38Zm2.09.25h-1.45v-.48h2.37v-.63h-1.81v-.47h1.81v-.64h.62v.64h1.88v.47h-1.88v.63h2.46v.48h-1.48l.36.1c-.16.29-.31.59-.45.8h1.46v.48h-2.34v.56h2.01v.46h-2.01v.62h2.39v.48h-2.39v.79h-.62v-.79h-2.28v-.48h2.28v-.62h-1.87v-.46h1.87v-.56h-2.18v-.48h1.25c-.06-.23-.21-.56-.37-.81l.38-.09Zm1.88.84c.13-.24.28-.59.37-.84h-2.08c.18.26.33.59.39.83l-.29.08h1.85l-.23-.07Z"/>
      <path class="cls-3" d="m100.37,29.33c-.36,1.08-.85,2.03-1.47,2.83.31.82.69,1.3,1.12,1.3.23,0,.33-.43.39-1.55.14.14.37.28.54.33-.12,1.42-.34,1.83-.98,1.83s-1.15-.51-1.53-1.37c-.5.54-1.08,1.01-1.72,1.39-.09-.13-.31-.38-.45-.49.74-.4,1.39-.92,1.92-1.55-.3-.94-.5-2.17-.61-3.52h-2.88v1.09h2.13v.27c-.04,1.87-.09,2.58-.27,2.79-.12.16-.27.22-.5.24-.21.02-.59.02-1,0,0-.19-.08-.43-.18-.58.38.03.74.04.89.04.12,0,.2-.02.25-.09.12-.12.16-.65.19-2.09h-1.52v.07c0,1.17-.12,2.85-.88,3.94-.11-.12-.38-.34-.52-.42.69-1.02.76-2.45.76-3.53v-2.33h3.49c-.03-.46-.04-.93-.05-1.41h.64c0,.49,0,.95.03,1.41h2.7v.61h-2.66c.08,1.11.23,2.11.46,2.9.45-.66.81-1.41,1.07-2.26l.63.16Zm-1.45-2.79c.52.26,1.17.66,1.5.95l-.38.43c-.32-.29-.95-.72-1.48-1l.37-.38Z"/>
      <path class="cls-3" d="m34.38,44.77l.29.5c-.74.56-1.47,1.4-1.95,2.14-.48-.74-1.21-1.58-1.95-2.14l.29-.5c.52.38,1.04.93,1.37,1.35v-6.45h.57v6.45c.33-.43.85-.98,1.37-1.35Z"/>
    </g>
    <path class="cls-3" d="m3.14,6.35H0v-3.14h3.14v3.14Z"/>
    <rect class="cls-2" x="9.04" y="52.82" width="122.19" height="16.81"/>
    <g>
      <path class="cls-1" d="m15.53,63.32l.93-.69c.27.5.63.71,1.02.71.6,0,.92-.32.92-1.27v-4.53h1.37v4.64c0,1.29-.65,2.34-2.12,2.34-1,0-1.66-.41-2.12-1.2Z"/>
      <path class="cls-1" d="m21.53,59.21h1.11l.1.92h.03c.38-.68.93-1.04,1.47-1.04.29,0,.45.05.61.11l-.23,1.17c-.19-.06-.33-.08-.55-.08-.41,0-.9.27-1.18,1.02v3.09h-1.36v-5.18Z"/>
      <path class="cls-1" d="m25.71,63.63c0-.51.36-.89.84-.89s.85.38.85.89-.36.89-.85.89-.84-.39-.84-.89Z"/>
      <path class="cls-1" d="m33.53,57.69v.48h1.11c.29,0,.55-.03.77-.09l.77.75c-.24.23-.52.54-.72.77-.47.54-1.17,1.23-1.94,1.81,0,.74,0,1.75,0,2.33,0,.37.04.9.07,1.18h-1.33c.04-.26.07-.81.07-1.18v-1.58c-.85.45-1.84.83-2.84,1.14l-.71-1.09c1.78-.4,2.97-1.04,3.77-1.54.71-.46,1.29-1,1.55-1.38h-3.35c-.33,0-.92,0-1.2.04v-1.21c.35.06.86.06,1.18.06h1.6v-.48c0-.29-.02-.62-.06-.85h1.32c-.03.22-.05.56-.05.85Zm.56,4.23l.77-.89c.85.46,1.33.73,2.22,1.34l-.78,1.02c-.8-.64-1.41-1.03-2.21-1.47Z"/>
      <path class="cls-1" d="m42.05,59.14c.95-.59,2.01-1.52,2.61-2.25l1,.95c-.7.69-1.59,1.42-2.49,2.01v3.74c0,.41.02.98.08,1.21h-1.46c.04-.22.06-.8.06-1.21v-2.96c-.95.5-2.13,1-3.26,1.33l-.58-1.17c1.66-.42,3.01-1.03,4.04-1.65Z"/>
      <path class="cls-1" d="m48.78,58v3.12c0,.23,0,.59.03.8h-1.34c0-.18.05-.54.05-.81v-3.12c0-.18,0-.5-.04-.71h1.33c-.02.21-.03.42-.03.71Zm4.28.14v1.83c0,1.99-.39,2.85-1.07,3.61-.61.67-1.57,1.12-2.25,1.33l-.96-1.02c.92-.21,1.67-.56,2.22-1.17.64-.69.76-1.39.76-2.83v-1.76c0-.37-.02-.67-.05-.92h1.4c-.02.26-.04.55-.04.92Z"/>
      <path class="cls-1" d="m61.39,58.69c-.31.72-.83,1.71-1.45,2.54.92.79,2.03,1.98,2.58,2.64l-1.05.92c-.6-.83-1.46-1.78-2.33-2.62-.98,1.04-2.21,2-3.48,2.6l-.95-1c1.49-.55,2.92-1.68,3.79-2.65.61-.69,1.17-1.61,1.38-2.27h-3.13c-.39,0-.9.06-1.09.07v-1.31c.25.04.81.06,1.09.06h3.26c.4,0,.77-.05.95-.12l.76.56c-.07.1-.24.39-.32.57Z"/>
      <path class="cls-1" d="m65.24,58.18c0-.32-.03-.79-.09-1.11h1.44c-.04.32-.08.73-.08,1.11v1.37c1.24.36,3.01,1.02,3.87,1.43l-.53,1.28c-.95-.5-2.34-1.04-3.34-1.38v2.62c0,.27.05.92.08,1.29h-1.44c.05-.37.09-.92.09-1.29v-5.32Z"/>
      <path class="cls-1" d="m72.6,59.83h6.06c.19,0,.6-.02.84-.06v1.2c-.23-.02-.58-.03-.84-.03h-2.23c-.06.95-.26,1.73-.59,2.38-.32.65-1.04,1.36-1.86,1.78l-1.08-.79c.66-.25,1.3-.78,1.67-1.32.38-.57.54-1.27.57-2.04h-2.54c-.27,0-.63.02-.89.04v-1.21c.28.04.6.06.89.06Zm1.17-2.35h3.02c.31,0,.68-.03,1-.07v1.19c-.31-.02-.67-.03-1-.03h-3.02c-.31,0-.71,0-.99.03v-1.19c.3.05.67.07.99.07Zm5.31.55l-.74.32c-.19-.38-.48-.93-.73-1.29l.74-.3c.23.34.55.92.73,1.27Zm1.11-.43l-.74.32c-.19-.39-.49-.92-.74-1.28l.73-.31c.24.35.58.93.75,1.26Z"/>
      <path class="cls-1" d="m82.82,58.26v1.75c1.09-.27,2.38-.68,3.2-1.03.33-.13.65-.28,1.01-.5l.5,1.17c-.36.15-.78.32-1.08.43-.93.37-2.42.83-3.62,1.13v1.71c0,.4.19.5.6.58.28.04.66.06,1.07.06.96,0,2.46-.12,3.22-.32v1.35c-.87.13-2.27.19-3.29.19-.6,0-1.16-.04-1.55-.1-.8-.15-1.27-.59-1.27-1.39v-5.04c0-.2-.03-.68-.07-.96h1.37c-.05.28-.07.7-.07.96Zm4.8-.09l-.75.31c-.18-.38-.47-.92-.72-1.29l.73-.3c.23.34.56.92.74,1.27Zm1.1-.42l-.73.31c-.19-.39-.49-.92-.75-1.28l.73-.3c.25.34.59.93.75,1.26Z"/>
      <path class="cls-1" d="m95.2,60.37c-.07.55-.31,2.14-.45,3.01h.59c.24,0,.67,0,.91-.04v1.19c-.18,0-.64-.03-.89-.03h-4.86c-.33,0-.56,0-.92.03v-1.2c.25.03.59.05.92.05h3c.13-.79.33-2.1.36-2.62h-2.5c-.3,0-.66.03-.92.05v-1.22c.24.03.67.06.92.06h2.37c.19,0,.57-.04.68-.1l.9.43c-.05.12-.07.3-.09.39Z"/>
      <path class="cls-1" d="m99.26,60.16h4.96c.43,0,.84-.04,1.08-.06v1.45c-.22,0-.69-.05-1.08-.05h-4.96c-.53,0-1.15.02-1.49.05v-1.45c.33.03,1.01.06,1.49.06Z"/>
    </g>
  </g>
</svg>