<?xml version="1.0" encoding="UTF-8"?>
<svg id="_レイヤー_2" data-name="レイヤー 2" xmlns="http://www.w3.org/2000/svg" viewBox="0 0 298.06 403.15">
  <defs>
    <style>
      .cls-1 {
        fill: #fff;
      }

      .cls-2 {
        fill: #231815;
      }

      .cls-3 {
        fill: #686868;
      }
    </style>
  </defs>
  <g id="_レイヤー_1-2" data-name="レイヤー 1">
    <g>
      <path class="cls-2" d="m30.1,2.7l.79.15c-.07.27-.14.52-.21.8-.18.8-.67,2.97-1.32,4.48-.52,1.23-1.25,2.59-2.07,3.77l-.73-.32c.88-1.18,1.65-2.63,2.14-3.75.6-1.4,1.21-3.61,1.4-5.13Zm3.46.11l.7-.25c.53.98,1.4,2.79,2.03,4.34.6,1.44,1.34,3.54,1.71,4.75l-.76.24c-.34-1.29-1.06-3.26-1.65-4.75-.57-1.43-1.42-3.31-2.03-4.33Zm3.67-1.96c.84,0,1.51.67,1.51,1.51s-.67,1.5-1.51,1.5-1.5-.67-1.5-1.5.67-1.51,1.5-1.51Zm0,2.51c.55,0,1.01-.45,1.01-.99s-.46-1.01-1.01-1.01-.98.46-.98,1.01.43.99.98.99Z"/>
      <path class="cls-2" d="m42.61,6.19h7.76c.73,0,1.15-.03,1.43-.06v.87c-.25-.01-.77-.04-1.41-.04h-7.77c-.77,0-1.4.01-1.78.04v-.87c.36.03.95.06,1.78.06Z"/>
      <path class="cls-2" d="m65.3,3.38c-1,1.61-2.75,3.92-5.27,5.81.87.87,1.95,2.02,2.51,2.7l-.64.5c-.49-.67-1.58-1.85-2.45-2.75-.85-.85-2.58-2.31-3.28-2.8l.57-.46c.48.34,1.79,1.4,2.76,2.3,2.35-1.71,4.15-4.03,4.88-5.34h-8.74c-.53,0-1.05.03-1.32.06v-.84c.39.06.83.08,1.32.08h8.7c.29,0,.52-.01.66-.07l.59.46c-.11.11-.21.24-.28.34Z"/>
      <path class="cls-2" d="m72.23,0l.55.34c-1.72,1.76-2.66,3.91-2.66,6.29s.94,4.52,2.66,6.29l-.55.34c-1.78-1.83-2.8-4.03-2.8-6.63s1.02-4.79,2.8-6.62Z"/>
      <path class="cls-2" d="m85.14,3.11c-.25,1.78-.53,3.74-1.5,5.25-1.12,1.76-3.04,3.22-5.29,3.91l-.6-.59c2.17-.6,4.08-1.86,5.25-3.68.84-1.3,1.22-3.22,1.36-4.97h-8.32v3.1c0,.2,0,.45.03.74h-.8c.03-.29.03-.55.03-.74v-3.01c0-.29-.01-.53-.04-.8.34.03.78.03,1.36.03h7.49c.2,0,.45-.01.62-.07l.56.36c-.06.1-.13.38-.14.48Z"/>
      <path class="cls-2" d="m93.57,4.45c1.49-.95,2.77-2.04,3.78-3.25l.59.55c-1.08,1.13-2.33,2.18-3.81,3.17v6.07c0,.46.03,1.05.07,1.29h-.87c.03-.22.06-.83.06-1.29v-5.6c-1.47.88-3.49,1.78-5.55,2.42l-.38-.69c2.38-.66,4.57-1.69,6.11-2.66Z"/>
      <path class="cls-2" d="m106.41,9.15c2.02-1.3,3.66-3.35,4.41-4.99l.43.76c-.9,1.64-2.38,3.53-4.43,4.85-1.39.9-3.14,1.81-5.69,2.31l-.48-.74c2.59-.39,4.43-1.33,5.74-2.19Zm-1.33-4.38l-.55.56c-.7-.7-2.42-2.2-3.47-2.88l.49-.52c1,.66,2.79,2.12,3.53,2.84Z"/>
      <path class="cls-2" d="m114.05,5.45h9.16c.29,0,.66-.03.98-.06v.77c-.28-.03-.67-.04-.98-.04h-4.05c-.03,1.54-.22,2.9-.81,3.98-.52.91-1.57,1.88-2.72,2.46l-.67-.5c1.13-.49,2.16-1.3,2.7-2.23.64-1.05.74-2.3.77-3.71h-4.38c-.43,0-.77.01-1.15.04v-.77c.36.03.71.06,1.15.06Zm1.67-3.47h5.01c.35,0,.81-.01,1.19-.07v.78c-.38-.03-.84-.04-1.19-.04h-4.99c-.45,0-.83.01-1.15.04v-.78c.36.04.69.07,1.12.07Zm8.03.6l-.55.27c-.27-.58-.77-1.42-1.15-1.95l.53-.24c.35.5.85,1.33,1.16,1.92Zm1.5-.53l-.55.25c-.31-.62-.77-1.4-1.18-1.92l.52-.24c.38.52.92,1.37,1.2,1.91Z"/>
      <path class="cls-2" d="m131.45,6.37c1.29-.78,2.51-1.89,3.24-2.77l.56.53c-.71.78-1.89,1.82-3.18,2.66v5.11c0,.38.01.87.04,1.04h-.83c.03-.17.06-.66.06-1.04v-4.66c-1.13.64-2.77,1.43-4.59,2l-.36-.69c1.85-.46,3.91-1.47,5.07-2.19Z"/>
      <path class="cls-2" d="m143.8,9.15c2.02-1.3,3.66-3.35,4.41-4.99l.43.76c-.9,1.64-2.38,3.53-4.43,4.85-1.39.9-3.14,1.81-5.69,2.31l-.48-.74c2.59-.39,4.43-1.33,5.74-2.19Zm-1.33-4.38l-.55.56c-.7-.7-2.42-2.2-3.47-2.88l.49-.52c1,.66,2.79,2.12,3.53,2.84Z"/>
      <path class="cls-2" d="m155.28,2.37c-.14.28-.31.57-.49.88h4.37c.34,0,.56-.03.73-.11l.63.38c-.08.15-.2.45-.24.59-.38,1.51-1.27,3.42-2.51,4.92-1.23,1.51-2.91,2.79-5.53,3.73l-.63-.59c2.4-.69,4.26-1.99,5.56-3.54,1.16-1.39,2.06-3.28,2.38-4.71h-5.2c-.8,1.16-1.95,2.44-3.57,3.5l-.62-.46c2.4-1.41,3.87-3.59,4.43-4.87.1-.2.27-.62.32-.9l.84.28c-.17.29-.35.66-.48.91Zm5.67.45l-.55.25c-.27-.56-.77-1.42-1.15-1.93l.53-.24c.35.49.85,1.33,1.16,1.92Zm1.5-.53l-.55.25c-.31-.62-.77-1.4-1.18-1.92l.52-.24c.38.5.92,1.37,1.21,1.91Z"/>
      <path class="cls-2" d="m163.68,13.25l-.55-.34c1.72-1.77,2.66-3.91,2.66-6.29s-.94-4.52-2.66-6.29l.55-.34c1.78,1.83,2.8,4.03,2.8,6.62s-1.02,4.79-2.8,6.63Z"/>
      <path class="cls-2" d="m52,32.24v10.67h-.69v-.76h-7.96v.85h-.67v-10.77h3.49c.24-.62.52-1.43.67-1.99l.71.13c-.22.62-.49,1.32-.73,1.86h5.17Zm-8.64.66v2.48h7.96v-2.48h-7.96Zm0,3.12v2.41h7.96v-2.41h-7.96Zm7.96,5.5v-2.45h-7.96v2.45h7.96Z"/>
      <path class="cls-2" d="m60.48,38.8c-.39-.41-1.4-1.33-2.07-1.92v6.09h-.66v-5.84c-.78.8-1.61,1.48-2.41,2-.08-.17-.28-.43-.39-.55,1.74-1.09,3.66-3.01,4.67-5.03h-4.2v-.63h2.34v-2.65h.66v2.65h1.55l.13-.04.41.27c-.46,1.09-1.16,2.16-1.95,3.1.6.49,1.97,1.68,2.34,2l-.41.55Zm7.59,3.11v.66h-7.86v-.66h3.74v-6.26h-3.19v-.66h3.19v-4.62h.67v4.62h3.17v.66h-3.17v6.26h3.45Z"/>
      <path class="cls-2" d="m81.96,34.01c-.18,5.98-.34,7.89-.8,8.46-.21.31-.46.39-.87.42-.36.03-1.04.01-1.68-.03-.01-.18-.1-.46-.2-.64.73.06,1.4.06,1.67.06.25,0,.38-.03.5-.18.36-.45.53-2.38.7-7.84h-2.41c-.17,3.73-.8,6.92-3.38,8.77-.11-.14-.36-.35-.55-.45.38-.27.73-.56,1.02-.88-2.25.28-4.59.56-6.25.76l-.11-.63c.85-.08,1.96-.2,3.15-.34v-1.44h-2.77v-.57h2.77v-1.04h-2.75v-4.09h2.75v-1.08h-3.18v-.58h3.18v-1.18c-.94.1-1.92.15-2.79.2-.03-.15-.11-.39-.18-.53,2.06-.13,4.66-.36,6.07-.69l.39.52c-.76.18-1.76.32-2.84.45v1.23h3.14v.58h-3.14v1.08h2.84v4.09h-2.84v1.04h2.86v.57h-2.86v1.37c.95-.1,1.96-.22,2.94-.34v.15c1.34-1.76,1.75-4.22,1.89-6.98h-1.86v-.63h1.88c.04-1.04.04-2.1.04-3.19h.64c0,1.09-.01,2.16-.04,3.19h3.05v.39Zm-11.33,2.09h2.14v-1.22h-2.14v1.22Zm2.14,1.79v-1.26h-2.14v1.26h2.14Zm.64-3.01v1.22h2.24v-1.22h-2.24Zm2.24,1.75h-2.24v1.26h2.24v-1.26Z"/>
      <path class="cls-2" d="m96.38,31.23v.66h-5.83v1.82h3.07v6.22h-6.78v-6.22h3.05v-1.82h-5.74v-.66h12.23Zm-1.02,2.33h.64v9.34h-.64v-.84h-10.11v.9h-.66v-9.4h.66v7.86h10.11v-7.86Zm-7.92,2.96h2.48v-2.21h-2.48v2.21Zm0,2.82h2.48v-2.23h-2.48v2.23Zm5.56-5.03h-2.47v2.21h2.47v-2.21Zm0,2.8h-2.47v2.23h2.47v-2.23Z"/>
      <path class="cls-2" d="m109.68,32.86c-.5.87-1.83,2.69-3.56,3.88l-.62-.5c1.39-.77,2.84-2.47,3.35-3.43h-8.38c-.49,0-1.04.03-1.53.06v-.85c.46.06,1.04.11,1.53.11h8.33c.2,0,.55-.04.7-.07l.46.45c-.1.1-.21.24-.29.36Zm-9.16,9.46l-.67-.56c.34-.1.81-.34,1.13-.53,2.4-1.39,2.69-3.68,2.69-6.04,0-.28-.01-.56-.04-.87h.8c0,3.98-.48,6.37-3.91,8Z"/>
      <path class="cls-2" d="m122.45,30.5c.84,0,1.51.67,1.51,1.51s-.67,1.5-1.51,1.5c-.27,0-.5-.07-.71-.18v.07c-.29,1.53-1.02,3.82-2.09,5.2-1.29,1.62-2.84,2.86-5.45,3.67l-.62-.67c2.68-.7,4.24-1.88,5.45-3.43,1.02-1.32,1.75-3.49,1.95-4.92h-7.55c-.5,0-.87.03-1.23.04v-.81c.36.04.78.08,1.25.08h7.34c.08,0,.18,0,.27-.01-.07-.15-.1-.34-.1-.53,0-.84.66-1.51,1.5-1.51Zm0,2.49c.55,0,1-.43,1-.98s-.45-1.01-1-1.01-.99.46-.99,1.01.45.98.99.98Z"/>
      <path class="cls-2" d="m127.32,32.54v4.65c0,.35.01.77.04.98h-.83c.03-.2.06-.59.06-.99v-4.64c0-.24-.03-.73-.06-.97h.83c-.03.24-.04.7-.04.97Zm6.51.03v1.97c0,3.57-.38,4.57-1.37,5.8-.9,1.13-2.27,1.71-3.29,2.06l-.59-.62c1.22-.34,2.45-.9,3.33-1.93,1.02-1.22,1.18-2.41,1.18-5.32v-1.96c0-.41-.03-.79-.06-1.09h.84c-.03.31-.04.69-.04,1.09Z"/>
      <path class="cls-2" d="m32.39,62.13c-.01.55-.06,1.06-.1,1.55h3.75c.39,0,.62-.03.8-.04l.55.27c-.04.25-.07.46-.08.66-.04,1.25-.21,5.41-.85,6.71-.28.53-.66.71-1.33.71s-1.44-.03-2.2-.07l-.08-.76c.78.08,1.53.14,2.14.14.38,0,.67-.1.83-.43.62-1.19.78-5.02.78-6.5h-4.37c-.5,4.24-2.06,6.29-4.27,7.8l-.66-.53c.36-.18.85-.55,1.19-.84,1.43-1.21,2.65-3.04,3.05-6.43h-2.65c-.6,0-1.04,0-1.48.04v-.78c.43.03.92.06,1.47.06h2.72c.04-.48.07-.99.07-1.54,0-.32-.01-.76-.07-1.08h.85c-.03.31-.04.73-.06,1.06Z"/>
      <path class="cls-2" d="m42.24,67.86l-.67.25c-.22-.73-1.01-2.7-1.25-3.12l.66-.27c.24.52.99,2.42,1.26,3.14Zm6.85-2.69c-.36,1.62-.98,3.15-2.02,4.44-1.29,1.61-2.98,2.66-4.5,3.24l-.6-.62c1.67-.5,3.35-1.57,4.51-3,1.01-1.25,1.75-2.98,2-4.79l.77.24c-.07.18-.13.36-.17.49Zm-3.78,1.85l-.66.25c-.14-.62-.81-2.45-1.08-3.01l.67-.22c.22.55.91,2.4,1.06,2.98Z"/>
      <path class="cls-2" d="m53.39,62.58c0-.34-.03-.92-.1-1.33h.9c-.04.39-.08,1-.08,1.33v2.42c1.83.56,4.46,1.57,6.07,2.37l-.31.74c-1.55-.85-4.2-1.86-5.76-2.34.01,2.31.01,4.71.01,5,0,.48.01,1.09.07,1.49h-.87c.06-.38.07-.98.07-1.49v-8.19Z"/>
      <path class="cls-2" d="m62.51,69.48l.57-.52c1.02.81,2.23,2.02,3.21,3.12l-.63.53c-.94-1.15-2.14-2.34-3.15-3.14Z"/>
      <path class="cls-2" d="m75.8,61.76v1.46h3.56c.49,0,.7-.06.84-.1l.49.31c-.06.15-.13.43-.17.69-.15.99-.59,2.97-1.42,4.34-1.01,1.71-2.83,3.11-5.44,3.82l-.59-.66c.36-.06.77-.17,1.13-.29,1.55-.46,3.26-1.64,4.16-3.08.8-1.29,1.29-3.19,1.39-4.36h-8.35v2.76c0,.21.01.55.06.71h-.8c.03-.18.04-.52.04-.73v-2.48c0-.28,0-.71-.04-1.01.36.04.77.07,1.23.07h3.17v-1.46c0-.22-.01-.57-.06-.91h.85c-.06.34-.07.69-.07.91Z"/>
      <path class="cls-2" d="m87.95,66.37c1.29-.78,2.51-1.89,3.24-2.77l.56.53c-.71.78-1.89,1.82-3.18,2.66v5.11c0,.38.01.87.04,1.04h-.83c.03-.17.06-.66.06-1.04v-4.66c-1.13.64-2.77,1.43-4.59,2l-.36-.69c1.85-.46,3.91-1.47,5.07-2.19Z"/>
      <path class="cls-2" d="m96.21,67.86l-.67.25c-.22-.73-1.01-2.7-1.25-3.12l.66-.27c.24.52.99,2.42,1.26,3.14Zm6.85-2.69c-.36,1.62-.98,3.15-2.02,4.44-1.29,1.61-2.98,2.66-4.5,3.24l-.6-.62c1.67-.5,3.35-1.57,4.51-3,1.01-1.25,1.75-2.98,2-4.79l.77.24c-.07.18-.13.36-.17.49Zm-3.78,1.85l-.66.25c-.14-.62-.81-2.45-1.08-3.01l.67-.22c.22.55.91,2.4,1.06,2.98Z"/>
      <path class="cls-2" d="m110.37,62.37c-.14.28-.31.57-.49.88h4.37c.34,0,.56-.03.73-.11l.63.38c-.08.15-.2.45-.24.59-.38,1.51-1.27,3.42-2.51,4.92-1.23,1.51-2.91,2.79-5.53,3.73l-.63-.59c2.4-.69,4.26-1.99,5.56-3.54,1.16-1.39,2.06-3.28,2.38-4.71h-5.2c-.8,1.16-1.95,2.44-3.57,3.5l-.62-.46c2.4-1.41,3.87-3.59,4.43-4.87.1-.2.27-.62.32-.9l.84.28c-.17.29-.35.66-.48.91Zm5.67.45l-.55.25c-.27-.56-.77-1.42-1.15-1.93l.53-.24c.35.49.85,1.33,1.16,1.92Zm1.5-.53l-.55.25c-.31-.62-.77-1.4-1.18-1.92l.52-.24c.38.5.92,1.37,1.21,1.91Z"/>
      <path class="cls-2" d="m124.07,62.13c-.01.55-.06,1.06-.1,1.55h3.75c.39,0,.62-.03.8-.04l.55.27c-.04.25-.07.46-.08.66-.04,1.25-.21,5.41-.85,6.71-.28.53-.66.71-1.33.71s-1.44-.03-2.2-.07l-.08-.76c.78.08,1.53.14,2.14.14.38,0,.67-.1.83-.43.62-1.19.78-5.02.78-6.5h-4.37c-.5,4.24-2.06,6.29-4.27,7.8l-.66-.53c.36-.18.85-.55,1.19-.84,1.43-1.21,2.65-3.04,3.05-6.43h-2.65c-.6,0-1.04,0-1.48.04v-.78c.43.03.92.06,1.47.06h2.72c.04-.48.07-.99.07-1.54,0-.32-.01-.76-.07-1.08h.85c-.03.31-.04.73-.06,1.06Z"/>
      <path class="cls-2" d="m133.93,67.86l-.67.25c-.22-.73-1.01-2.7-1.25-3.12l.66-.27c.24.52.99,2.42,1.26,3.14Zm6.85-2.69c-.36,1.62-.98,3.15-2.02,4.44-1.29,1.61-2.98,2.66-4.5,3.24l-.6-.62c1.67-.5,3.35-1.57,4.51-3,1.01-1.25,1.75-2.98,2-4.79l.77.24c-.07.18-.13.36-.17.49Zm-3.78,1.85l-.66.25c-.14-.62-.81-2.45-1.08-3.01l.67-.22c.22.55.91,2.4,1.06,2.98Z"/>
      <path class="cls-2" d="m145.07,62.58c0-.34-.03-.92-.1-1.33h.9c-.04.39-.08,1-.08,1.33v2.42c1.83.56,4.45,1.57,6.07,2.37l-.31.74c-1.55-.85-4.2-1.86-5.76-2.34.01,2.31.01,4.71.01,5,0,.48.01,1.09.07,1.49h-.87c.06-.38.07-.98.07-1.49v-8.19Z"/>
      <path class="cls-2" d="m52,92.24v10.67h-.69v-.76h-7.96v.85h-.67v-10.77h3.49c.24-.62.52-1.43.67-1.99l.71.13c-.22.62-.49,1.32-.73,1.86h5.17Zm-8.64.66v2.48h7.96v-2.48h-7.96Zm0,3.12v2.41h7.96v-2.41h-7.96Zm7.96,5.5v-2.45h-7.96v2.45h7.96Z"/>
      <path class="cls-2" d="m60.48,98.8c-.39-.41-1.4-1.33-2.07-1.92v6.09h-.66v-5.84c-.78.8-1.61,1.48-2.41,2-.08-.17-.28-.43-.39-.55,1.74-1.09,3.66-3.01,4.67-5.03h-4.2v-.63h2.34v-2.65h.66v2.65h1.55l.13-.04.41.27c-.46,1.09-1.16,2.16-1.95,3.1.6.49,1.97,1.68,2.34,2l-.41.55Zm7.59,3.11v.66h-7.86v-.66h3.74v-6.26h-3.19v-.66h3.19v-4.62h.67v4.62h3.17v.66h-3.17v6.26h3.45Z"/>
      <path class="cls-2" d="m81.96,94.01c-.18,5.98-.34,7.89-.8,8.46-.21.31-.46.39-.87.42-.36.03-1.04.01-1.68-.03-.01-.18-.1-.46-.2-.64.73.06,1.4.06,1.67.06.25,0,.38-.03.5-.18.36-.45.53-2.38.7-7.84h-2.41c-.17,3.73-.8,6.92-3.38,8.77-.11-.14-.36-.35-.55-.45.38-.27.73-.56,1.02-.88-2.25.28-4.59.56-6.25.76l-.11-.63c.85-.08,1.96-.2,3.15-.34v-1.44h-2.77v-.57h2.77v-1.04h-2.75v-4.09h2.75v-1.08h-3.18v-.58h3.18v-1.18c-.94.1-1.92.15-2.79.2-.03-.15-.11-.39-.18-.53,2.06-.13,4.66-.36,6.07-.69l.39.52c-.76.18-1.76.32-2.84.45v1.23h3.14v.58h-3.14v1.08h2.84v4.09h-2.84v1.04h2.86v.57h-2.86v1.37c.95-.1,1.96-.22,2.94-.34v.15c1.34-1.76,1.75-4.22,1.89-6.98h-1.86v-.63h1.88c.04-1.04.04-2.1.04-3.19h.64c0,1.09-.01,2.16-.04,3.19h3.05v.39Zm-11.33,2.09h2.14v-1.22h-2.14v1.22Zm2.14,1.79v-1.26h-2.14v1.26h2.14Zm.64-3.01v1.22h2.24v-1.22h-2.24Zm2.24,1.75h-2.24v1.26h2.24v-1.26Z"/>
      <path class="cls-2" d="m96.38,91.23v.66h-5.83v1.82h3.07v6.22h-6.78v-6.22h3.05v-1.82h-5.74v-.66h12.23Zm-1.02,2.33h.64v9.34h-.64v-.84h-10.11v.9h-.66v-9.4h.66v7.86h10.11v-7.86Zm-7.92,2.96h2.48v-2.21h-2.48v2.21Zm0,2.82h2.48v-2.23h-2.48v2.23Zm5.56-5.03h-2.47v2.21h2.47v-2.21Zm0,2.8h-2.47v2.23h2.47v-2.23Z"/>
      <path class="cls-2" d="m109.68,92.86c-.5.87-1.83,2.69-3.56,3.88l-.62-.5c1.39-.77,2.84-2.47,3.35-3.43h-8.38c-.49,0-1.04.03-1.53.06v-.85c.46.06,1.04.11,1.53.11h8.33c.2,0,.55-.04.7-.07l.46.45c-.1.1-.21.24-.29.36Zm-9.16,9.46l-.67-.56c.34-.1.81-.34,1.13-.53,2.4-1.39,2.69-3.68,2.69-6.04,0-.28-.01-.56-.04-.87h.8c0,3.98-.48,6.37-3.91,8Z"/>
      <path class="cls-2" d="m122.45,90.5c.84,0,1.51.67,1.51,1.51s-.67,1.5-1.51,1.5c-.27,0-.5-.07-.71-.18v.07c-.29,1.53-1.02,3.82-2.09,5.2-1.29,1.62-2.84,2.86-5.45,3.67l-.62-.67c2.68-.7,4.24-1.88,5.45-3.43,1.02-1.32,1.75-3.49,1.95-4.92h-7.55c-.5,0-.87.03-1.23.04v-.81c.36.04.78.08,1.25.08h7.34c.08,0,.18,0,.27-.01-.07-.15-.1-.34-.1-.53,0-.84.66-1.51,1.5-1.51Zm0,2.49c.55,0,1-.43,1-.98s-.45-1.01-1-1.01-.99.46-.99,1.01.45.98.99.98Z"/>
      <path class="cls-2" d="m127.32,92.54v4.65c0,.35.01.77.04.98h-.83c.03-.2.06-.59.06-.99v-4.64c0-.24-.03-.73-.06-.97h.83c-.03.24-.04.7-.04.97Zm6.51.03v1.97c0,3.57-.38,4.57-1.37,5.8-.9,1.13-2.27,1.71-3.29,2.06l-.59-.62c1.22-.34,2.45-.9,3.33-1.93,1.02-1.22,1.18-2.41,1.18-5.32v-1.96c0-.41-.03-.79-.06-1.09h.84c-.03.31-.04.69-.04,1.09Z"/>
      <path class="cls-2" d="m136.88,99.48l.57-.52c1.02.81,2.23,2.02,3.21,3.12l-.63.53c-.94-1.15-2.14-2.34-3.15-3.14Z"/>
      <path class="cls-2" d="m146.93,96.96v6h-.62v-5.97c-.87.06-1.68.1-2.37.13l-.07-.63.97-.04c.32-.39.67-.87,1.02-1.37-.42-.63-1.15-1.47-1.84-2.09l.39-.41c.17.14.32.29.49.46.49-.8,1.06-1.95,1.39-2.76l.6.25c-.46.95-1.08,2.12-1.61,2.9.36.38.69.77.94,1.12.62-.94,1.21-1.92,1.62-2.72l.6.28c-.83,1.36-1.96,3.08-2.93,4.3.77-.04,1.61-.08,2.49-.13-.22-.46-.49-.94-.76-1.34l.53-.21c.6.9,1.19,2.09,1.42,2.83l-.57.27c-.07-.27-.2-.6-.35-.95l-1.36.08Zm-1.46,1.27c-.22,1.32-.56,2.63-1.02,3.53-.11-.08-.41-.21-.56-.27.49-.87.78-2.13.97-3.38l.62.11Zm2.91,2.56c-.08-.69-.39-1.75-.74-2.56l.53-.15c.38.81.67,1.86.77,2.55l-.56.17Zm5.11-2.27c.88,1.3,2.34,2.66,3.57,3.31-.15.13-.35.35-.48.52-1.18-.71-2.58-2.07-3.49-3.43v4.03h-.66v-3.98c-.92,1.44-2.37,2.76-3.68,3.47-.11-.18-.31-.41-.48-.53,1.37-.64,2.87-2,3.77-3.39h-2.6v-4.72h3v-1.4h-3.47v-.63h3.47v-1.48h.66v1.48h3.49v.63h-3.49v1.4h3.12v4.72h-2.73Zm-3.43-2.65h2.41v-1.51h-2.41v1.51Zm0,2.07h2.41v-1.53h-2.41v1.53Zm5.52-3.59h-2.51v1.51h2.51v-1.51Zm0,2.06h-2.51v1.53h2.51v-1.53Z"/>
      <path class="cls-2" d="m162.5,94.58c-1.29.52-2.61,1.06-3.66,1.47l-.28-.57c.98-.32,2.41-.87,3.82-1.44l.11.55Zm.9-2.94h-4.52v-.59h5.15v4.62c0,.35-.08.53-.38.64-.31.11-.84.1-1.74.1-.04-.17-.14-.39-.22-.55.71.01,1.3.01,1.47,0,.18,0,.24-.06.24-.2v-4.03Zm-3.4.29c.7.36,1.51.95,1.88,1.39l-.41.46c-.39-.46-1.18-1.07-1.86-1.44l.39-.41Zm5.08,4.16c-.21.41-.43.81-.64,1.16h4.71v5.76h-.69v-.57h-7.31v.57h-.66v-5.76h3.28c.24-.42.5-.97.63-1.34l.69.18Zm3.38,1.74h-7.31v1.68h7.31v-1.68Zm0,4.02v-1.75h-7.31v1.75h7.31Zm-3.73-6.67c1.02-.34,2.54-.88,4.02-1.42l.1.53c-1.34.5-2.75,1.04-3.84,1.43l-.28-.55Zm5.52.52c0,.38-.1.56-.39.67-.31.1-.87.11-1.81.1-.03-.17-.13-.41-.21-.56.73.03,1.34.03,1.53.01.18-.01.24-.06.24-.22v-4.06h-4.61v-.59h5.25v4.65Zm-2.9-1.96c-.38-.46-1.18-1.02-1.88-1.39l.39-.41c.69.34,1.5.9,1.91,1.32l-.42.48Z"/>
      <path class="cls-2" d="m179.32,90.29c1.48,2.09,4.05,4.05,6.26,5.03-.15.14-.32.39-.45.57-2.21-1.08-4.72-3.03-6.11-4.94-1.13,1.75-3.49,3.74-5.9,5-.08-.17-.25-.39-.41-.55,2.42-1.19,4.8-3.25,5.94-5.11h.66Zm-5.94,7.07h11.54v.63h-6.77c-.55,1.16-1.23,2.59-1.88,3.67,1.95-.06,4.26-.14,6.53-.24-.64-.76-1.4-1.55-2.13-2.17l.55-.32c1.3,1.13,2.72,2.66,3.38,3.71l-.59.38c-.18-.29-.43-.64-.71-.99-3.53.14-7.27.31-9.68.41l-.1-.69c.59-.01,1.26-.03,2-.06.63-1.06,1.36-2.56,1.82-3.7h-3.96v-.63Zm9.06-2.69v.64h-6.74v-.64h6.74Z"/>
      <path class="cls-2" d="m32.39,122.13c-.01.55-.06,1.06-.1,1.55h3.75c.39,0,.62-.03.8-.04l.55.27c-.04.25-.07.46-.08.66-.04,1.25-.21,5.41-.85,6.71-.28.53-.66.71-1.33.71s-1.44-.03-2.2-.07l-.08-.76c.78.08,1.53.14,2.14.14.38,0,.67-.1.83-.43.62-1.19.78-5.02.78-6.5h-4.37c-.5,4.24-2.06,6.29-4.27,7.8l-.66-.53c.36-.18.85-.55,1.19-.84,1.43-1.21,2.65-3.04,3.05-6.43h-2.65c-.6,0-1.04,0-1.48.04v-.78c.43.03.92.06,1.47.06h2.72c.04-.48.07-.99.07-1.54,0-.32-.01-.76-.07-1.08h.85c-.03.31-.04.73-.06,1.06Z"/>
      <path class="cls-2" d="m42.24,127.86l-.67.25c-.22-.73-1.01-2.7-1.25-3.12l.66-.27c.24.52.99,2.42,1.26,3.14Zm6.85-2.69c-.36,1.62-.98,3.15-2.02,4.44-1.29,1.61-2.98,2.66-4.5,3.24l-.6-.62c1.67-.5,3.35-1.57,4.51-3,1.01-1.25,1.75-2.98,2-4.79l.77.24c-.07.18-.13.36-.17.49Zm-3.78,1.85l-.66.25c-.14-.62-.81-2.45-1.08-3.01l.67-.22c.22.55.91,2.4,1.06,2.98Z"/>
      <path class="cls-2" d="m53.39,122.58c0-.34-.03-.92-.1-1.33h.9c-.04.39-.08,1-.08,1.33v2.42c1.83.56,4.46,1.57,6.07,2.37l-.31.74c-1.55-.85-4.2-1.86-5.76-2.34.01,2.31.01,4.71.01,5,0,.48.01,1.09.07,1.49h-.87c.06-.38.07-.98.07-1.49v-8.19Z"/>
      <path class="cls-2" d="m64.99,122.25h6.6c.46,0,.8-.01,1.09-.04v.74c-.31-.01-.6-.03-1.09-.03h-3.82v3.29h5c.29,0,.76-.01,1.05-.04v.76c-.29-.01-.73-.03-1.04-.03h-5.01v3.19c0,.67.49,1.19,1.88,1.19s2.48-.06,3.71-.2l-.03.74c-1.19.08-2.39.15-3.75.15-1.85,0-2.54-.67-2.54-1.65v-3.43h-2.98c-.34,0-.83.01-1.19.04v-.78c.36.04.85.06,1.19.06h2.98v-3.29h-2.04c-.46,0-.85.01-1.21.03v-.74c.35.03.74.04,1.21.04Z"/>
      <path class="cls-2" d="m77.34,125.45h9.16c.29,0,.66-.03.98-.06v.77c-.28-.03-.67-.04-.98-.04h-4.05c-.03,1.54-.22,2.9-.81,3.98-.52.91-1.57,1.88-2.72,2.46l-.67-.5c1.13-.49,2.16-1.3,2.7-2.23.64-1.05.74-2.3.77-3.71h-4.38c-.43,0-.77.01-1.15.04v-.77c.36.03.71.06,1.15.06Zm1.67-3.47h5.01c.35,0,.81-.01,1.19-.07v.78c-.38-.03-.84-.04-1.19-.04h-4.99c-.45,0-.83.01-1.15.04v-.78c.36.04.69.07,1.12.07Zm8.03.6l-.55.27c-.27-.58-.77-1.42-1.15-1.95l.53-.24c.35.5.85,1.33,1.16,1.92Zm1.5-.53l-.55.25c-.31-.62-.77-1.4-1.18-1.92l.52-.24c.38.52.92,1.37,1.2,1.91Z"/>
      <path class="cls-2" d="m91.73,128.18c.41-1.33.42-4.2.42-5.7,0-.32-.03-.59-.08-.85h.84c-.03.22-.06.53-.06.85,0,1.48-.06,4.52-.43,5.91-.42,1.46-1.33,2.82-2.49,3.74l-.67-.45c1.15-.83,2.03-2.06,2.48-3.5Zm3.98,2.83v-8.52c0-.48-.04-.78-.06-.94h.83c-.03.15-.04.46-.04.94v8.53c1.39-.64,3.32-2.02,4.45-3.74l.43.62c-1.25,1.71-3.15,3.1-4.79,3.91-.2.1-.34.2-.42.27l-.49-.41c.06-.2.08-.43.08-.66Z"/>
      <path class="cls-2" d="m45.14,156.35l-.42.63c-.63-.46-2.19-1.46-2.98-1.86l.41-.6c.76.41,2.45,1.44,3,1.84Zm1.93,3.43c2.28-1.33,4.08-3.11,5.21-5.07l.45.71c-1.18,1.85-3.08,3.68-5.29,4.99-1.4.84-3.28,1.46-4.62,1.75l-.41-.73c1.53-.27,3.31-.87,4.67-1.65Zm.11-6.43l-.45.6c-.6-.49-2.16-1.54-2.91-1.98l.39-.6c.77.45,2.42,1.57,2.97,1.98Z"/>
      <path class="cls-2" d="m56.17,154.44h5.46c.32,0,.59-.01.76-.01-.01.13-.01.32-.01.56v6.96c0,.22.01.45.01.64h-.73c.01-.14.01-.35.01-.59h-5.81c-.46,0-.91.03-1.13.03v-.76c.22.03.64.06,1.12.06h5.83v-2.87h-5.39c-.46,0-.85.01-1.11.03v-.74c.22.01.64.06,1.09.06h5.41v-2.7h-5.5c-.29,0-1.06.03-1.26.03v-.74c.21.04.97.06,1.26.06Z"/>
      <path class="cls-2" d="m67.47,156.19h7.76c.73,0,1.15-.03,1.43-.06v.87c-.25-.01-.77-.04-1.41-.04h-7.77c-.77,0-1.4.01-1.78.04v-.87c.36.03.95.06,1.78.06Z"/>
      <path class="cls-2" d="m81.25,152.58c0-.34-.03-.92-.1-1.33h.9c-.04.39-.08,1-.08,1.33v2.42c1.83.56,4.45,1.57,6.07,2.37l-.31.74c-1.55-.85-4.2-1.86-5.76-2.34.01,2.31.01,4.71.01,5,0,.48.01,1.09.07,1.49h-.87c.06-.38.07-.98.07-1.49v-8.19Z"/>
      <path class="cls-2" d="m161.92,161.44c3.19-3.24,4.83-5.06,4.83-6.77,0-1.21-.64-2.13-2.09-2.13-.88,0-1.68.53-2.27,1.26l-.52-.49c.77-.84,1.64-1.47,2.87-1.47,1.78,0,2.83,1.12,2.83,2.8,0,1.95-1.76,3.84-4.44,6.65.55-.04,1.13-.08,1.68-.08h3.25v.73h-6.15v-.5Z"/>
      <path class="cls-2" d="m169.88,156.96c0-3.31,1.09-5.11,3.01-5.11s3,1.82,3,5.11-1.09,5.17-3,5.17-3.01-1.88-3.01-5.17Zm5.2,0c0-3-.87-4.41-2.19-4.41s-2.2,1.42-2.2,4.41.87,4.48,2.2,4.48,2.19-1.49,2.19-4.48Z"/>
      <path class="cls-2" d="m50.01,191.43l-.31.69c-1.83-.84-5.86-1.76-8.12-2.12l.28-.67c2.31.36,6.25,1.3,8.15,2.1Zm-.45-4.55l-.31.69c-1.64-.66-4.96-1.4-6.89-1.68l.28-.67c1.86.34,5.17,1.01,6.92,1.67Zm.9-3.71l-.29.7c-1.74-.64-5.24-1.39-7.14-1.64l.27-.67c1.81.24,5.41.99,7.17,1.61Z"/>
      <path class="cls-2" d="m54.13,185.45h9.16c.29,0,.66-.03.98-.06v.77c-.28-.03-.67-.04-.98-.04h-4.05c-.03,1.54-.22,2.9-.81,3.98-.52.91-1.57,1.88-2.72,2.46l-.67-.5c1.13-.49,2.16-1.3,2.7-2.23.64-1.05.74-2.3.77-3.71h-4.38c-.43,0-.77.01-1.15.04v-.77c.36.03.71.06,1.15.06Zm1.67-3.47h5.01c.35,0,.81-.01,1.19-.07v.78c-.38-.03-.84-.04-1.19-.04h-4.99c-.45,0-.83.01-1.15.04v-.78c.36.04.69.07,1.12.07Zm8.03.6l-.55.27c-.27-.58-.77-1.42-1.15-1.95l.53-.24c.35.5.85,1.33,1.16,1.92Zm1.5-.53l-.55.25c-.31-.62-.77-1.4-1.18-1.92l.52-.24c.38.52.92,1.37,1.2,1.91Z"/>
      <path class="cls-2" d="m71.53,186.37c1.29-.78,2.51-1.89,3.24-2.77l.56.53c-.71.78-1.89,1.82-3.18,2.66v5.11c0,.38.01.87.04,1.04h-.83c.03-.17.06-.66.06-1.04v-4.66c-1.13.64-2.77,1.43-4.59,2l-.36-.69c1.85-.46,3.91-1.47,5.07-2.19Z"/>
      <path class="cls-2" d="m88.8,182.86c-.5.87-1.83,2.69-3.56,3.88l-.62-.5c1.39-.77,2.84-2.47,3.35-3.43h-8.38c-.49,0-1.04.03-1.53.06v-.85c.46.06,1.04.11,1.53.11h8.33c.2,0,.55-.04.7-.07l.46.45c-.1.1-.21.24-.29.36Zm-9.16,9.46l-.67-.56c.34-.1.81-.34,1.13-.53,2.4-1.39,2.69-3.68,2.69-6.04,0-.28-.01-.56-.04-.87h.8c0,3.98-.48,6.37-3.91,8Z"/>
      <path class="cls-2" d="m96.27,182.72c-.38,1.28-1.93,6.09-2.62,7.8,2.27-.2,5.45-.56,6.99-.77-.6-1.16-1.3-2.35-1.85-3.07l.66-.31c.97,1.39,2.56,4.24,3.11,5.62l-.74.34c-.18-.5-.48-1.19-.84-1.92-2.09.25-7.05.83-8.98,1-.35.03-.69.07-1.08.13l-.14-.84c.39.01.78,0,1.18-.03.25-.01.55-.04.88-.07.73-1.77,2.31-6.7,2.7-8.01.15-.62.21-.88.24-1.19l.91.18c-.11.31-.24.57-.42,1.15Z"/>
      <path class="cls-2" d="m161.62,191.44c3.19-3.24,4.83-5.06,4.83-6.77,0-1.21-.64-2.13-2.09-2.13-.88,0-1.68.53-2.27,1.26l-.52-.49c.77-.84,1.64-1.47,2.87-1.47,1.78,0,2.83,1.12,2.83,2.8,0,1.95-1.76,3.84-4.44,6.65.55-.04,1.13-.08,1.68-.08h3.25v.73h-6.15v-.5Z"/>
      <path class="cls-2" d="m169.57,186.96c0-3.31,1.09-5.11,3.01-5.11s3,1.82,3,5.11-1.09,5.17-3,5.17-3.01-1.88-3.01-5.17Zm5.2,0c0-3-.87-4.41-2.19-4.41s-2.2,1.42-2.2,4.41.87,4.48,2.2,4.48,2.19-1.49,2.19-4.48Z"/>
      <path class="cls-2" d="m50.11,212.69c-.48,1.3-1.23,2.93-2.24,4.3,1.26,1.06,2.51,2.16,3.52,3.29l-.55.59c-1.06-1.21-2.18-2.24-3.43-3.31-1.34,1.67-3.17,3.42-5.65,4.65l-.62-.55c2.55-1.2,4.33-2.86,5.72-4.57-1.07-.85-2.77-2.13-4.06-2.91l.46-.56c1.26.81,2.98,2.06,4.05,2.9,1.02-1.4,1.68-2.87,2.11-4.12.08-.22.2-.6.25-.88l.81.28c-.13.22-.28.62-.38.88Z"/>
      <path class="cls-2" d="m59.95,219.15c2.02-1.3,3.66-3.35,4.41-4.99l.43.76c-.9,1.64-2.38,3.53-4.43,4.85-1.39.9-3.14,1.81-5.69,2.31l-.48-.74c2.59-.39,4.43-1.33,5.74-2.19Zm-1.33-4.38l-.55.56c-.7-.7-2.42-2.2-3.47-2.88l.49-.52c1,.66,2.79,2.12,3.53,2.84Z"/>
      <path class="cls-2" d="m75.55,213.31c-.49,1.26-1.44,3.03-2.45,4.26,1.53,1.32,3.22,3.12,4.19,4.29l-.6.53c-.95-1.22-2.58-3-4.05-4.29-1.54,1.64-3.43,3.21-5.6,4.19l-.56-.6c2.26-.9,4.27-2.55,5.79-4.24.97-1.09,2.1-2.91,2.47-4.17h-5.87c-.45,0-1.22.04-1.28.06v-.84c.08.01.84.08,1.28.08h5.67c.36,0,.63-.03.81-.08l.46.36c-.07.08-.21.34-.25.46Zm1.27-.69l-.55.25c-.27-.56-.77-1.41-1.15-1.93l.53-.24c.35.49.87,1.33,1.16,1.92Zm1.53-.5l-.55.25c-.31-.63-.77-1.4-1.18-1.92l.52-.24c.38.5.92,1.36,1.21,1.91Z"/>
      <path class="cls-2" d="m161.64,221.44c3.19-3.24,4.83-5.06,4.83-6.77,0-1.21-.64-2.13-2.09-2.13-.88,0-1.68.53-2.27,1.26l-.52-.49c.77-.84,1.64-1.47,2.87-1.47,1.78,0,2.83,1.12,2.83,2.8,0,1.95-1.76,3.84-4.44,6.65.55-.04,1.13-.08,1.68-.08h3.25v.73h-6.15v-.5Z"/>
      <path class="cls-2" d="m169.6,216.96c0-3.31,1.09-5.11,3.01-5.11s3,1.82,3,5.11-1.09,5.17-3,5.17-3.01-1.88-3.01-5.17Zm5.2,0c0-3-.87-4.41-2.19-4.41s-2.2,1.42-2.2,4.41.87,4.48,2.2,4.48,2.19-1.49,2.19-4.48Z"/>
      <path class="cls-2" d="m44.45,242.7l.79.15c-.07.27-.14.52-.21.8-.18.8-.67,2.97-1.32,4.48-.52,1.23-1.25,2.59-2.07,3.77l-.73-.32c.88-1.18,1.65-2.63,2.14-3.75.6-1.4,1.21-3.61,1.4-5.13Zm3.46.11l.7-.25c.53.98,1.4,2.79,2.03,4.34.6,1.44,1.34,3.54,1.71,4.75l-.76.24c-.34-1.29-1.06-3.26-1.65-4.75-.57-1.43-1.42-3.31-2.03-4.33Zm3.67-1.96c.84,0,1.51.67,1.51,1.51s-.67,1.5-1.51,1.5-1.5-.67-1.5-1.5.67-1.51,1.5-1.51Zm0,2.51c.55,0,1.01-.45,1.01-.99s-.46-1.01-1.01-1.01-.98.46-.98,1.01.43.99.98.99Z"/>
      <path class="cls-2" d="m56.96,246.19h7.76c.73,0,1.15-.03,1.43-.06v.87c-.25-.01-.77-.04-1.41-.04h-7.77c-.77,0-1.4.01-1.78.04v-.87c.36.03.95.06,1.78.06Z"/>
      <path class="cls-2" d="m79.65,243.38c-1,1.61-2.75,3.92-5.27,5.81.87.87,1.95,2.02,2.51,2.7l-.64.5c-.49-.67-1.58-1.85-2.45-2.75-.85-.85-2.58-2.31-3.28-2.8l.57-.46c.48.34,1.79,1.4,2.76,2.3,2.35-1.71,4.15-4.03,4.88-5.34h-8.74c-.53,0-1.05.03-1.32.06v-.84c.39.06.83.08,1.32.08h8.7c.29,0,.52-.01.66-.07l.59.46c-.11.11-.21.24-.28.34Z"/>
      <path class="cls-2" d="m81.61,249.48l.57-.52c1.02.81,2.23,2.02,3.21,3.12l-.63.53c-.94-1.15-2.14-2.34-3.15-3.14Z"/>
      <path class="cls-2" d="m98.11,243.11c-.49,1.29-1.44,3.04-2.45,4.27,1.53,1.3,3.22,3.11,4.19,4.27l-.6.53c-.95-1.22-2.58-2.98-4.05-4.29-1.54,1.65-3.43,3.22-5.6,4.19l-.56-.6c2.26-.9,4.27-2.55,5.79-4.23.97-1.11,2.1-2.93,2.47-4.19h-5.87c-.45,0-1.22.06-1.28.06v-.83c.08,0,.84.07,1.28.07h5.67c.36,0,.63-.03.81-.08l.46.36c-.07.1-.21.34-.25.46Z"/>
      <path class="cls-2" d="m103.9,242.58c0-.34-.03-.92-.1-1.33h.9c-.04.39-.08,1-.08,1.33v2.42c1.83.56,4.45,1.57,6.07,2.37l-.31.74c-1.55-.85-4.2-1.86-5.76-2.34.01,2.31.01,4.71.01,5,0,.48.01,1.09.07,1.49h-.87c.06-.38.07-.98.07-1.49v-8.19Z"/>
      <path class="cls-2" d="m114.76,251.01v-8.25c0-.28-.04-.88-.08-1.09h.9c-.04.24-.08.76-.08,1.08v8.35c2.91-.7,6.23-2.58,7.94-4.86l.42.62c-1.76,2.24-4.64,3.99-8.24,4.97-.13.04-.29.1-.45.17l-.5-.42c.07-.15.1-.31.1-.56Z"/>
      <path class="cls-2" d="m128.08,246.19h7.76c.73,0,1.15-.03,1.43-.06v.87c-.25-.01-.77-.04-1.41-.04h-7.77c-.77,0-1.4.01-1.78.04v-.87c.36.03.95.06,1.78.06Z"/>
      <path class="cls-2" d="m141.85,242.58c0-.34-.03-.92-.1-1.33h.9c-.04.39-.08,1-.08,1.33v2.42c1.83.56,4.45,1.57,6.07,2.37l-.31.74c-1.55-.85-4.2-1.86-5.76-2.34.01,2.31.01,4.71.01,5,0,.48.01,1.09.07,1.49h-.87c.06-.38.07-.98.07-1.49v-8.19Z"/>
      <path class="cls-2" d="m161.81,251.23h2.31v-8h-1.78v-.55c.83-.14,1.46-.36,1.95-.66h.66v9.2h2.13v.71h-5.27v-.71Z"/>
      <path class="cls-2" d="m169.11,246.96c0-3.31,1.09-5.11,3.01-5.11s3,1.82,3,5.11-1.09,5.17-3,5.17-3.01-1.88-3.01-5.17Zm5.2,0c0-3-.87-4.41-2.19-4.41s-2.2,1.42-2.2,4.41.87,4.48,2.2,4.48,2.19-1.49,2.19-4.48Z"/>
      <path class="cls-2" d="m142.8,272.61h5.44v.6h-5.44v-.6Zm.64,1.86h4.27v.59h-4.27v-.59Zm0,1.85h4.27v.57h-4.27v-.57Zm4.23,5.83h-3.61v.69h-.62v-4.67h4.23v3.98Zm.04-10.76h-4.19v-.57h4.19v.57Zm-3.66,7.37v2.79h2.98v-2.79h-2.98Zm11.63-2.98h-3.29v7.19h-.67v-7.19h-3.47v-.66h3.47v-4.8h.67v4.8h3.29v.66Z"/>
      <path class="cls-2" d="m165.82,272.76h-5.17v-.73h6.16v.5c-2.37,3.1-2.93,5.55-3.08,9.41h-.88c.17-3.94.98-6.42,2.97-9.19Z"/>
      <path class="cls-2" d="m168.56,276.96c0-3.31,1.09-5.11,3.01-5.11s3,1.82,3,5.11-1.09,5.17-3,5.17-3.01-1.88-3.01-5.17Zm5.2,0c0-3-.87-4.41-2.19-4.41s-2.2,1.42-2.2,4.41.87,4.48,2.2,4.48,2.19-1.49,2.19-4.48Z"/>
      <path class="cls-2" d="m121.82,308.99l.38.59c-1.23.95-2.44,2.33-3.22,3.56-.78-1.23-1.99-2.61-3.22-3.56l.38-.59c.94.7,1.89,1.72,2.49,2.52v-11.33h.7v11.33c.6-.8,1.56-1.82,2.49-2.52Z"/>
      <path class="cls-2" d="m99.6,335.34h9.17c.29,0,.66-.01.98-.04v.76c-.28-.01-.67-.03-.98-.03h-4.06c-.03,1.54-.21,2.9-.8,3.98-.52.91-1.57,1.88-2.72,2.47l-.67-.5c1.13-.49,2.16-1.3,2.7-2.23.64-1.05.74-2.31.77-3.71h-4.4c-.42,0-.76,0-1.13.03v-.76c.36.03.7.04,1.13.04Zm1.68-3.46h5.7c.35,0,.83-.03,1.19-.07v.78c-.38-.03-.84-.04-1.19-.04h-5.67c-.46,0-.84.01-1.15.04v-.78c.36.03.69.07,1.12.07Z"/>
      <path class="cls-2" d="m120.66,333.11c-.49,1.29-1.44,3.04-2.45,4.27,1.53,1.3,3.22,3.11,4.19,4.27l-.6.53c-.95-1.22-2.58-2.98-4.05-4.29-1.54,1.65-3.43,3.22-5.6,4.19l-.56-.6c2.26-.9,4.27-2.55,5.79-4.23.97-1.11,2.1-2.93,2.47-4.19h-5.87c-.45,0-1.22.06-1.28.06v-.83c.08,0,.84.07,1.28.07h5.67c.36,0,.63-.03.81-.08l.46.36c-.07.1-.21.34-.25.46Z"/>
      <path class="cls-2" d="m126.45,332.58c0-.34-.03-.92-.1-1.33h.9c-.04.39-.08,1-.08,1.33v2.42c1.83.56,4.46,1.57,6.07,2.37l-.31.74c-1.55-.85-4.2-1.86-5.76-2.34.01,2.31.01,4.71.01,5,0,.48.01,1.09.07,1.49h-.87c.06-.38.07-.98.07-1.49v-8.19Z"/>
    </g>
    <g>
      <path class="cls-2" d="m7.12,10.3H0V3.19h7.12v7.12Z"/>
      <path class="cls-2" d="m7.12,68.3H0v-7.12h7.12v7.12Z"/>
      <path class="cls-2" d="m7.12,126.3H0v-7.12h7.12v7.12Z"/>
    </g>
    <rect class="cls-3" x="20.53" y="364.95" width="277.53" height="38.19"/>
    <g>
      <path class="cls-1" d="m102.88,381.76c-.53,1.38-1.54,3.25-2.62,4.57,1.63,1.39,3.45,3.33,4.48,4.57l-.64.57c-1.02-1.3-2.76-3.19-4.33-4.59-1.65,1.77-3.67,3.45-6,4.49l-.6-.65c2.42-.96,4.58-2.73,6.19-4.53,1.04-1.19,2.25-3.13,2.64-4.48h-6.29c-.48,0-1.3.06-1.37.06v-.89c.09,0,.9.08,1.37.08h6.08c.39,0,.67-.03.87-.09l.5.39c-.07.11-.22.36-.27.5Z"/>
      <path class="cls-1" d="m112.6,380.48c-.13.26-.3.54-.48.82h4.63c.38,0,.62-.03.79-.1l.67.39c-.09.17-.21.48-.25.63-.42,1.5-1.28,3.36-2.43,4.9.63.46,1.21.92,1.72,1.34l-.55.64c-.46-.42-1.05-.88-1.68-1.37-1.32,1.53-3.24,2.98-5.91,3.96l-.69-.61c2.48-.74,4.59-2.22,5.99-3.81-1.12-.82-2.37-1.65-3.45-2.32l.51-.51c1.11.64,2.33,1.44,3.44,2.23,1.09-1.46,1.93-3.26,2.28-4.65h-5.53c-.9,1.3-2.21,2.79-3.98,4.01l-.64-.5c2.54-1.59,4.17-3.96,4.83-5.37.1-.21.3-.64.36-.95l.88.29c-.18.31-.39.72-.51.97Z"/>
      <path class="cls-1" d="m127.04,383.2c1.59-1.02,2.97-2.19,4.05-3.48l.63.59c-1.16,1.21-2.49,2.34-4.08,3.39v6.49c0,.49.03,1.12.08,1.38h-.93c.03-.24.06-.88.06-1.38v-6c-1.58.95-3.74,1.9-5.94,2.6l-.41-.74c2.55-.71,4.89-1.81,6.54-2.85Z"/>
      <path class="cls-1" d="m136.44,381.14v4.98c0,.38.01.82.04,1.05h-.88c.03-.21.06-.63.06-1.06v-4.96c0-.26-.03-.78-.06-1.04h.88c-.03.26-.04.75-.04,1.04Zm6.97.03v2.12c0,3.83-.41,4.89-1.47,6.21-.96,1.21-2.43,1.83-3.53,2.2l-.63-.66c1.31-.36,2.62-.96,3.57-2.07,1.09-1.3,1.26-2.58,1.26-5.7v-2.1c0-.43-.03-.84-.06-1.17h.9c-.03.33-.04.74-.04,1.17Z"/>
      <path class="cls-1" d="m156.48,381.76c-.53,1.38-1.54,3.25-2.62,4.57,1.63,1.39,3.45,3.33,4.48,4.57l-.64.57c-1.02-1.3-2.76-3.19-4.33-4.59-1.65,1.77-3.67,3.45-6,4.49l-.6-.65c2.42-.96,4.58-2.73,6.19-4.53,1.04-1.19,2.25-3.13,2.64-4.48h-6.29c-.48,0-1.3.06-1.37.06v-.89c.09,0,.9.08,1.37.08h6.08c.39,0,.67-.03.87-.09l.5.39c-.07.11-.22.36-.27.5Z"/>
      <path class="cls-1" d="m162.69,381.19c0-.36-.03-.99-.1-1.43h.96c-.04.42-.09,1.07-.09,1.43v2.6c1.97.6,4.77,1.68,6.5,2.53l-.33.8c-1.67-.92-4.5-2-6.17-2.51.02,2.47.02,5.04.02,5.36,0,.51.01,1.17.08,1.59h-.93c.06-.41.08-1.05.08-1.59v-8.78Z"/>
      <path class="cls-1" d="m173.73,384.26h9.81c.31,0,.7-.03,1.05-.06v.82c-.3-.03-.72-.04-1.05-.04h-4.33c-.03,1.65-.24,3.11-.87,4.26-.55.97-1.68,2.01-2.91,2.64l-.72-.54c1.21-.53,2.31-1.39,2.89-2.38.69-1.12.79-2.46.83-3.97h-4.69c-.47,0-.83.02-1.23.04v-.82c.39.03.76.06,1.23.06Zm1.78-3.72h5.37c.38,0,.87-.02,1.27-.08v.84c-.4-.03-.9-.04-1.27-.04h-5.34c-.48,0-.88.02-1.23.04v-.84c.39.04.73.08,1.2.08Zm8.59.64l-.58.29c-.29-.62-.83-1.52-1.23-2.09l.57-.25c.38.54.92,1.42,1.25,2.05Zm1.61-.57l-.58.27c-.33-.66-.83-1.5-1.26-2.05l.56-.25c.4.55.99,1.47,1.29,2.04Z"/>
      <path class="cls-1" d="m189.5,381.13v3.72c1.74-.4,4.3-1.19,6-1.92.42-.2.81-.39,1.14-.62l.36.79c-.35.15-.79.36-1.21.53-1.8.75-4.52,1.54-6.29,2.01v3.62c0,.84.33,1.05,1.08,1.2.5.09,1.37.15,2.14.15,1.59,0,3.81-.13,5.07-.46v.88c-1.23.18-3.48.31-5.1.31-.84,0-1.73-.03-2.33-.13-1.07-.18-1.65-.6-1.65-1.79v-8.29c0-.38-.01-.72-.07-1.02h.92c-.03.3-.06.6-.06,1.02Zm8.19.63l-.58.27c-.29-.6-.82-1.52-1.23-2.07l.57-.25c.38.53.93,1.42,1.25,2.05Zm1.61-.57l-.57.27c-.34-.66-.84-1.5-1.26-2.05l.55-.25c.41.54.99,1.47,1.28,2.04Z"/>
      <path class="cls-1" d="m209.71,384.46c-.1,1.1-.6,4.37-.81,5.65h1.8c.3,0,.74-.01,1.02-.03v.78c-.26-.01-.71-.01-.98-.01h-8.41c-.42,0-.74.01-1.11.03v-.81c.34.03.69.04,1.11.04h5.77c.21-1.15.74-4.65.76-5.5h-5.17c-.42,0-.71.02-1.04.03v-.82c.33.03.65.06,1.02.06h4.96c.21,0,.45-.03.54-.08l.6.3c-.04.11-.08.25-.08.36Z"/>
      <path class="cls-1" d="m216.6,385.06h8.31c.78,0,1.23-.03,1.53-.06v.93c-.27-.02-.83-.04-1.51-.04h-8.33c-.82,0-1.5.01-1.9.04v-.93c.39.03,1.02.06,1.9.06Z"/>
    </g>
  </g>
</svg>