<?xml version="1.0" encoding="UTF-8"?>
<svg id="_レイヤー_2" data-name="レイヤー 2" xmlns="http://www.w3.org/2000/svg" viewBox="0 0 145.37 96.32">
  <defs>
    <style>
      .cls-1 {
        fill: #231815;
      }
    </style>
  </defs>
  <g id="_レイヤー_1-2" data-name="レイヤー 1">
    <g>
      <path class="cls-1" d="m15.25,1.04c0,.1,0,.28,0,.49.72-.03,1.45-.1,2.17-.22v.59c-.64.07-1.4.14-2.17.18v1.12c.78-.03,1.51-.1,2.24-.22v.6c-.76.1-1.47.16-2.23.18.02.42.04.85.06,1.24,1.07.29,1.89.88,2.34,1.25l-.37.57c-.47-.43-1.14-.92-1.94-1.21,0,.2.02.37.02.5,0,.55-.37,1.12-1.41,1.12-1.16,0-1.78-.41-1.78-1.18,0-.73.7-1.23,1.85-1.23.23,0,.46.02.67.05,0-.36-.02-.75-.03-1.09h-.46c-.55,0-1.43-.05-2.01-.11v-.6c.57.1,1.48.15,2.01.15h.43v-1.12h-.35c-.56,0-1.55-.08-2.05-.14v-.59c.51.1,1.51.18,2.05.18h.37v-.57c0-.14-.02-.37-.03-.48h.68c-.02.14-.04.31-.05.54Zm-1.38,5.64c.46,0,.85-.14.85-.7,0-.14,0-.33,0-.54-.25-.06-.51-.08-.78-.08-.76,0-1.18.3-1.18.67s.32.65,1.12.65Z"/>
      <path class="cls-1" d="m19.75,2.45c.68-.22,2.26-.79,3.43-.79,1.33,0,2.39.77,2.39,2.12,0,1.92-1.92,2.85-4.39,2.99l-.29-.67c2.1-.06,3.98-.69,3.98-2.34,0-.84-.63-1.5-1.71-1.5-1.32,0-3.36.88-4,1.13l-.3-.71c.29-.06.58-.14.88-.23Z"/>
      <path class="cls-1" d="m32.75,6.77c.47,0,.55-.21.62-1.13.15.11.4.2.59.25-.1,1.11-.3,1.46-1.19,1.46h-2.05c-.96,0-1.24-.23-1.24-1.12v-1.07l-2.62.35-.09-.56,2.7-.35v-1.24l-2.37.33-.09-.56,2.46-.34v-1.22c-.81.15-1.64.28-2.42.38-.02-.14-.11-.38-.18-.51,1.98-.26,4.25-.7,5.48-1.21l.51.47c-.76.3-1.74.55-2.78.77v1.24l3.05-.43.08.55-3.13.44v1.25l3.59-.47.08.55-3.67.48v1.16c0,.43.1.52.67.52h2Z"/>
      <path class="cls-1" d="m36.77,1.48l.71.15c-.05.18-.11.41-.14.58-.11.51-.39,1.69-.73,2.51-.3.74-.73,1.57-1.18,2.21l-.68-.29c.51-.67.96-1.51,1.24-2.18.35-.83.68-2.05.79-2.98Zm2,.14l.65-.22c.32.58.83,1.69,1.17,2.54.33.79.75,2.02.96,2.75l-.71.23c-.2-.82-.57-1.9-.91-2.76-.32-.83-.81-1.94-1.16-2.54Zm2.28-1.24c.49,0,.9.41.9.91s-.41.9-.9.9-.9-.4-.9-.9.4-.91.9-.91Zm0,1.44c.29,0,.53-.24.53-.53s-.24-.54-.53-.54-.53.24-.53.54.23.53.53.53Z"/>
      <path class="cls-1" d="m44.12,3.43h4.4c.4,0,.69-.02.87-.04v.79c-.16,0-.5-.04-.86-.04h-4.41c-.44,0-.87.02-1.12.04v-.79c.24.02.67.04,1.12.04Z"/>
      <path class="cls-1" d="m57.15,2.03c-.58.94-1.6,2.25-2.92,3.26.48.48,1.05,1.08,1.37,1.48l-.59.47c-.3-.41-.94-1.12-1.44-1.64-.48-.48-1.41-1.28-1.84-1.58l.52-.42c.3.22.96.75,1.5,1.24,1.18-.88,2.1-2.06,2.5-2.78h-4.72c-.31,0-.66.03-.82.05v-.72c.22.03.54.06.82.06h4.78c.23,0,.41-.02.52-.06l.51.41c-.08.09-.15.18-.2.25Z"/>
      <path class="cls-1" d="m65.32,6.51v.59h-7.15v-.59h2.99V.28h.63v2.46h2.99v.59h-2.99v3.18h3.53Z"/>
      <path class="cls-1" d="m70.13,1.34v1.43l.1-.12c.96.46,2.22,1.18,2.85,1.66l-.42.54c-.55-.45-1.62-1.11-2.54-1.6v4.22h-.63V1.34h-3.07v-.59h7.09v.59h-3.39Z"/>
      <path class="cls-1" d="m77.34,0l.48.25c-.92.96-1.49,2.14-1.49,3.57s.57,2.62,1.49,3.57l-.48.25c-.96-.98-1.6-2.25-1.6-3.82s.63-2.84,1.6-3.82Z"/>
      <path class="cls-1" d="m79.89,1.56v1.66c0,1.22-.09,3.03-.75,4.24-.1-.1-.36-.26-.5-.33.61-1.15.67-2.76.67-3.92V1h3.01V.16h.61v.84h3.04v.55h-6.09Zm3.34,5.19h2.78v.53h-6.08v-.53h2.72v-1.2h-2.2v-.51h2.2V1.89h.58v2.34c.66-.49,1.04-1.24,1.2-2.21l.54.06c-.06.35-.14.67-.26.98.47.39,1.02.87,1.31,1.2l-.38.39c-.25-.3-.71-.73-1.15-1.11-.22.43-.51.78-.86,1.06-.08-.1-.28-.27-.41-.35v.79h2.29v.51h-2.29v1.2Zm-1.44-4.68c-.06.36-.14.7-.25,1.01.37.33.78.74,1,1.01l-.36.39c-.18-.24-.51-.59-.83-.92-.22.46-.51.83-.87,1.14-.09-.09-.32-.27-.45-.35.68-.5,1.06-1.32,1.2-2.33l.56.06Z"/>
      <path class="cls-1" d="m94.17,5.21h-3.23v1.56c0,.35-.1.53-.39.62-.29.09-.75.1-1.48.1-.04-.17-.16-.42-.25-.57.61.02,1.16.02,1.31,0,.17,0,.21-.05.21-.17v-1.55h-3.21v-.55h3.21v-.58h.31c.39-.19.8-.45,1.13-.71h-3.31v-.53h3.92l.12-.03.39.29c-.5.51-1.24,1.02-1.95,1.36v.2h3.23v.55Zm-6.32-1.95h-.57v-1.77h1.23c-.15-.3-.43-.71-.67-1l.5-.22c.3.33.63.79.77,1.09l-.27.14h1.64c-.1-.34-.35-.82-.59-1.17l.52-.19c.27.38.55.89.65,1.23l-.35.14h1.42c.31-.37.66-.9.86-1.28l.62.21c-.25.36-.55.75-.82,1.07h1.24v1.77h-.58v-1.24h-5.59v1.24Z"/>
      <path class="cls-1" d="m97.7,3.82c0,.47-.38.85-.85.85s-.85-.38-.85-.85.38-.85.85-.85.85.38.85.85Z"/>
      <path class="cls-1" d="m103.69,5.4c.57.86,1.6,1.38,2.99,1.58-.13.12-.28.36-.36.51-1.56-.27-2.66-.95-3.27-2.09h-.07c-.42.79-1.29,1.53-3.12,2.08-.06-.13-.23-.35-.36-.48,1.57-.43,2.38-1,2.8-1.6h-2.72v-.53h2.99c.1-.25.14-.51.15-.75h-2.22v-.5h2.24v-.71h-2.37v-.51h2.37v-.67h.59v.67h2.48v-.92h-5.54v1h-.58V.94h3.06V.16h.59v.78h3.07v1.54h-.6v.43h-2.48v.71h2.37v.5h-2.38c-.02.25-.06.51-.13.75h3.4v.53h-2.91Z"/>
      <path class="cls-1" d="m109.94,2.74c-.71.31-1.43.6-2.01.83l-.23-.49c.55-.17,1.36-.47,2.15-.78l.09.44Zm.44-1.69h-2.49v-.49h3.04v2.64c0,.26-.06.4-.26.48-.21.08-.53.07-1.04.07-.02-.14-.1-.31-.15-.44.35,0,.67,0,.77,0,.1,0,.12-.03.12-.12V1.05Zm-1.84.07c.38.2.83.51,1.05.75l-.32.38c-.21-.25-.66-.58-1.04-.79l.31-.35Zm3.06,2.43c-.11.22-.23.44-.34.63h2.62v3.31h-.6v-.31h-3.89v.31h-.59v-3.31h1.88c.12-.25.24-.54.31-.75l.62.12Zm1.67,1.1h-3.89v.78h3.89v-.78Zm0,2.06v-.81h-3.89v.81h3.89Zm-2.01-3.8c.58-.18,1.42-.48,2.26-.78l.09.44c-.74.28-1.52.57-2.13.79l-.22-.46Zm3.25.28c0,.28-.06.42-.27.51-.22.08-.55.08-1.08.08-.02-.14-.1-.34-.17-.47.38.02.72.02.83.02.1,0,.13-.03.13-.13V1.05h-2.5v-.49h3.07v2.64Zm-1.79-.96c-.21-.25-.67-.57-1.06-.76l.31-.36c.38.18.84.49,1.08.73l-.33.39Z"/>
      <path class="cls-1" d="m116.35,7.64l-.48-.25c.92-.96,1.49-2.14,1.49-3.57s-.57-2.62-1.49-3.57l.48-.25c.96.98,1.6,2.25,1.6,3.82s-.63,2.84-1.6,3.82Z"/>
      <path class="cls-1" d="m14.76,13.88c0,.29-.02.56-.04.83h1.91c.22,0,.38-.02.51-.04l.45.22c-.02.14-.04.29-.04.39-.03.77-.13,3.11-.49,3.88-.16.34-.42.49-.86.49-.41,0-.87-.03-1.29-.06l-.08-.67c.43.06.86.09,1.2.09.23,0,.38-.06.47-.26.31-.61.41-2.58.41-3.44h-2.25c-.29,2.3-1.12,3.52-2.46,4.45l-.59-.47c.26-.14.59-.36.83-.59.79-.72,1.37-1.73,1.59-3.38h-1.35c-.31,0-.64,0-.92.03v-.68c.28.03.61.05.91.05h1.41c.02-.26.03-.53.03-.82,0-.18-.02-.47-.06-.67h.75c-.02.18-.04.47-.05.66Z"/>
      <path class="cls-1" d="m22.58,13.71v.75h1.8c.3,0,.45-.02.55-.06l.43.27c-.04.12-.09.33-.12.48-.1.64-.34,1.65-.79,2.42-.6,1.05-1.71,1.87-3.18,2.27l-.52-.6c.27-.04.58-.13.83-.22.8-.26,1.69-.86,2.18-1.61.43-.68.69-1.65.76-2.34h-4.49v1.44c0,.14,0,.35.03.48h-.7c.02-.14.02-.36.02-.51v-1.41c0-.17,0-.44-.02-.62.23.02.47.03.75.03h1.77v-.75c0-.17,0-.35-.04-.6h.77c-.04.25-.05.43-.05.6Z"/>
      <path class="cls-1" d="m29.88,17.86c1.24-.78,2.21-1.97,2.68-2.95l.39.68c-.55,1-1.48,2.09-2.7,2.86-.8.51-1.81,1-3.15,1.24l-.43-.66c1.4-.21,2.45-.7,3.21-1.17Zm-.47-2.54l-.51.51c-.4-.42-1.4-1.28-2-1.68l.46-.49c.57.38,1.6,1.21,2.05,1.66Z"/>
      <path class="cls-1" d="m35.71,16.07c-.81.17-1.52.31-1.85.38l-.12-.67c.36-.05,1.12-.18,1.97-.35v-1.37c0-.24-.02-.51-.06-.74h.76c-.04.23-.06.51-.06.74v1.25c1.36-.26,2.77-.55,3.11-.63.18-.04.33-.09.43-.14l.47.37c-.06.08-.14.22-.19.32-.37.67-1,1.67-1.65,2.34l-.56-.34c.6-.54,1.19-1.43,1.43-1.91-.14.02-1.61.32-3.03.61v2.39c0,.55.21.73,1.16.73s1.7-.08,2.5-.23l-.03.69c-.71.1-1.52.16-2.52.16-1.49,0-1.77-.39-1.77-1.18v-2.43Z"/>
      <path class="cls-1" d="m43.05,14.09v2.68c0,.2.02.46.03.61h-.74c.02-.12.04-.38.04-.62v-2.67c0-.14-.02-.42-.03-.58h.73c-.02.15-.03.38-.03.58Zm3.73.06v1.3c0,1.93-.26,2.56-.84,3.25-.52.63-1.32.97-1.91,1.17l-.52-.55c.74-.18,1.42-.51,1.92-1.07.57-.67.67-1.32.67-2.83v-1.27c0-.27-.02-.5-.04-.7h.75c-.02.2-.02.43-.02.7Z"/>
      <path class="cls-1" d="m51.82,17.86c1.24-.78,2.21-1.97,2.68-2.95l.39.68c-.55,1-1.48,2.09-2.7,2.86-.8.51-1.81,1-3.15,1.24l-.43-.66c1.4-.21,2.45-.7,3.21-1.17Zm-.47-2.54l-.51.51c-.4-.42-1.4-1.28-2-1.68l.46-.49c.57.38,1.6,1.21,2.05,1.66Z"/>
      <path class="cls-1" d="m58.73,14.13c-.06.11-.12.22-.18.34h2.17c.22,0,.39-.02.52-.07l.53.32c-.06.11-.14.3-.19.42-.22.81-.71,1.89-1.42,2.77-.73.89-1.69,1.62-3.19,2.18l-.59-.53c1.48-.43,2.48-1.16,3.21-2.01.62-.73,1.12-1.77,1.28-2.5h-2.71c-.49.68-1.16,1.4-2.04,1.97l-.55-.41c1.38-.83,2.17-2,2.52-2.71.08-.14.2-.43.25-.64l.74.25c-.13.21-.27.48-.35.63Zm3.17.09l-.43.19c-.16-.32-.43-.81-.65-1.11l.43-.18c.2.29.49.77.66,1.1Zm.9-.33l-.43.19c-.18-.34-.44-.8-.67-1.1l.43-.18c.21.3.52.79.67,1.09Z"/>
      <path class="cls-1" d="m65.88,12.67l.48.25c-.92.96-1.49,2.14-1.49,3.57s.57,2.62,1.49,3.57l-.48.25c-.96-.98-1.6-2.25-1.6-3.82s.63-2.84,1.6-3.82Z"/>
      <path class="cls-1" d="m68.43,14.23v1.66c0,1.22-.09,3.03-.75,4.24-.1-.1-.36-.26-.5-.33.61-1.15.67-2.76.67-3.92v-2.21h3.01v-.84h.61v.84h3.04v.55h-6.09Zm3.34,5.19h2.78v.53h-6.08v-.53h2.72v-1.2h-2.2v-.51h2.2v-3.15h.58v2.34c.66-.49,1.04-1.24,1.2-2.21l.54.06c-.06.35-.14.67-.26.98.47.39,1.02.87,1.31,1.2l-.38.39c-.25-.3-.71-.73-1.15-1.11-.22.43-.51.78-.86,1.06-.08-.1-.28-.27-.41-.35v.79h2.29v.51h-2.29v1.2Zm-1.44-4.68c-.06.36-.14.7-.25,1.01.37.33.78.74,1,1.01l-.36.39c-.18-.24-.51-.59-.83-.92-.22.46-.51.83-.87,1.14-.09-.09-.32-.27-.45-.35.68-.5,1.06-1.32,1.2-2.33l.56.06Z"/>
      <path class="cls-1" d="m82.71,17.88h-3.23v1.56c0,.35-.1.53-.39.62-.29.09-.75.1-1.48.1-.04-.17-.16-.42-.25-.57.61.02,1.16.02,1.31,0,.17,0,.21-.05.21-.17v-1.55h-3.21v-.55h3.21v-.58h.31c.39-.19.8-.45,1.13-.71h-3.31v-.53h3.92l.12-.03.39.29c-.5.51-1.24,1.02-1.95,1.36v.2h3.23v.55Zm-6.32-1.95h-.57v-1.77h1.23c-.15-.3-.43-.71-.67-1l.5-.22c.3.33.63.79.77,1.09l-.27.14h1.64c-.1-.34-.35-.82-.59-1.17l.52-.19c.27.38.55.89.65,1.23l-.35.14h1.42c.31-.37.66-.9.86-1.28l.62.21c-.25.36-.55.75-.82,1.07h1.24v1.77h-.58v-1.24h-5.59v1.24Z"/>
      <path class="cls-1" d="m86.24,16.49c0,.47-.38.85-.85.85s-.85-.38-.85-.85.38-.85.85-.85.85.38.85.85Z"/>
      <path class="cls-1" d="m92.23,18.07c.57.86,1.6,1.38,2.99,1.58-.13.12-.28.36-.36.51-1.56-.27-2.66-.95-3.27-2.09h-.07c-.42.79-1.29,1.53-3.12,2.08-.06-.13-.23-.35-.36-.48,1.56-.43,2.38-1,2.8-1.6h-2.72v-.53h2.99c.1-.25.14-.51.15-.75h-2.22v-.5h2.24v-.71h-2.37v-.51h2.37v-.67h.59v.67h2.48v-.92h-5.54v1h-.58v-1.54h3.06v-.78h.59v.78h3.07v1.54h-.6v.43h-2.48v.71h2.37v.5h-2.38c-.02.25-.06.51-.13.75h3.4v.53h-2.91Z"/>
      <path class="cls-1" d="m98.48,15.41c-.71.31-1.43.6-2.01.83l-.23-.49c.55-.17,1.36-.47,2.15-.78l.09.44Zm.44-1.69h-2.49v-.49h3.04v2.64c0,.26-.06.4-.26.48-.21.08-.53.07-1.04.07-.02-.14-.1-.31-.15-.44.35,0,.67,0,.77,0,.1,0,.12-.03.12-.12v-2.14Zm-1.84.07c.38.2.83.51,1.05.75l-.32.38c-.21-.25-.66-.58-1.04-.79l.31-.35Zm3.06,2.43c-.11.22-.23.44-.34.63h2.62v3.31h-.6v-.31h-3.89v.31h-.59v-3.31h1.88c.12-.25.24-.54.31-.75l.62.12Zm1.67,1.1h-3.89v.78h3.89v-.78Zm0,2.06v-.81h-3.89v.81h3.89Zm-2.01-3.8c.58-.18,1.42-.48,2.25-.78l.09.44c-.74.28-1.52.57-2.13.79l-.22-.46Zm3.25.28c0,.28-.06.42-.27.51-.22.08-.55.08-1.08.08-.02-.14-.1-.34-.17-.47.38.02.72.02.83.02.1,0,.13-.03.13-.13v-2.15h-2.5v-.49h3.07v2.64Zm-1.79-.96c-.21-.25-.67-.57-1.06-.76l.31-.36c.38.18.84.49,1.08.73l-.33.39Z"/>
      <path class="cls-1" d="m104.9,20.31l-.48-.25c.92-.96,1.49-2.14,1.49-3.57s-.57-2.62-1.49-3.57l.48-.25c.96.98,1.6,2.25,1.6,3.82s-.63,2.84-1.6,3.82Z"/>
      <path class="cls-1" d="m17.73,27.37c-.58.94-1.6,2.25-2.92,3.26.48.48,1.05,1.08,1.37,1.48l-.59.47c-.3-.41-.94-1.12-1.44-1.64-.48-.48-1.41-1.28-1.84-1.58l.52-.42c.3.22.96.75,1.5,1.24,1.18-.88,2.1-2.06,2.5-2.78h-4.72c-.31,0-.66.03-.82.05v-.72c.22.03.54.06.82.06h4.78c.23,0,.41-.02.52-.06l.51.41c-.08.09-.15.18-.2.25Z"/>
      <path class="cls-1" d="m22.55,26.49v.51h1.32c.18,0,.37,0,.51-.05l.42.4c-.14.15-.32.34-.45.48-.4.48-1.08,1.16-1.81,1.67,0,.66,0,1.62,0,2.16,0,.28.02.63.04.88h-.73c.02-.23.05-.6.05-.88,0-.47,0-1.2,0-1.75-.75.43-1.63.79-2.71,1.12l-.39-.59c1.52-.36,2.52-.89,3.25-1.37.71-.46,1.36-1.09,1.63-1.47h-3.33c-.28,0-.74.02-.99.03v-.67c.26.03.71.04.97.04h1.57v-.51c0-.22,0-.53-.04-.71h.74c-.03.18-.05.48-.05.71Zm.69,3.41l.42-.47c.75.4,1.19.66,1.93,1.16l-.42.55c-.7-.51-1.18-.83-1.93-1.24Z"/>
      <path class="cls-1" d="m28.92,25.99l.72-.13c0,.15.05.38.07.55.02.09.07.42.17.87.78-.13,1.52-.25,1.85-.31.23-.04.43-.1.57-.14l.14.67c-.12.02-.37.05-.58.08-.37.06-1.1.18-1.87.3.1.5.22,1.07.32,1.61.81-.13,1.57-.26,1.97-.34.31-.06.54-.1.71-.15l.13.67c-.17.02-.43.06-.72.1-.44.07-1.19.19-1.97.31.16.79.29,1.43.33,1.61.06.23.12.51.19.73l-.73.14c-.04-.27-.06-.51-.12-.75-.03-.18-.16-.83-.31-1.62-.91.15-1.77.3-2.16.37-.31.06-.54.1-.71.14l-.14-.7c.18,0,.5-.04.71-.07.4-.06,1.28-.19,2.19-.34-.11-.55-.22-1.12-.32-1.61-.76.12-1.46.23-1.77.29-.22.04-.41.08-.65.14l-.14-.72c.2,0,.41-.02.67-.06.31-.03,1.01-.14,1.77-.26-.09-.43-.14-.75-.17-.84-.04-.21-.1-.38-.15-.55Z"/>
      <path class="cls-1" d="m37.82,30.53c1.24-.78,2.21-1.97,2.68-2.95l.39.68c-.55,1-1.48,2.09-2.7,2.86-.8.51-1.81,1-3.15,1.24l-.43-.66c1.4-.21,2.45-.7,3.21-1.17Zm-.47-2.54l-.51.51c-.4-.42-1.4-1.28-2-1.68l.46-.49c.57.38,1.6,1.21,2.05,1.66Z"/>
      <path class="cls-1" d="m44.41,25.34l.48.25c-.92.96-1.49,2.14-1.49,3.57s.57,2.62,1.49,3.57l-.48.25c-.96-.98-1.6-2.25-1.6-3.82s.63-2.84,1.6-3.82Z"/>
      <path class="cls-1" d="m46.59,28.32h5.26c.17,0,.43,0,.63-.04v.67c-.18,0-.43-.02-.63-.02h-2.18c-.02.87-.15,1.6-.47,2.19-.29.54-.9,1.12-1.58,1.47l-.59-.44c.63-.26,1.2-.72,1.52-1.23.35-.56.44-1.24.47-1.99h-2.41c-.24,0-.47,0-.7.02v-.67c.22.02.45.04.7.04Zm.99-2.01h3.25c.22,0,.51-.02.75-.05v.67c-.23-.02-.51-.02-.75-.02h-3.24c-.27,0-.53,0-.73.02v-.67c.22.02.47.05.72.05Z"/>
      <path class="cls-1" d="m54.83,28.77h4.4c.4,0,.69-.02.87-.04v.79c-.16,0-.5-.04-.86-.04h-4.41c-.44,0-.87.02-1.12.04v-.79c.24.02.67.04,1.12.04Z"/>
      <path class="cls-1" d="m67.56,25.54c.5,0,.91.41.91.91s-.41.9-.91.9c-.1,0-.21-.02-.31-.05,0,.02,0,.06-.02.09-.17.84-.56,2.13-1.2,2.96-.73.94-1.69,1.69-3.16,2.14l-.55-.6c1.56-.38,2.46-1.07,3.13-1.93.57-.73.95-1.85,1.05-2.62h-4.1c-.32,0-.59.02-.8.02v-.71c.22.03.54.06.8.06h4.03c.07,0,.16,0,.26,0-.02-.08-.04-.17-.04-.26,0-.5.4-.91.9-.91Zm0,1.44c.3,0,.54-.24.54-.53s-.24-.54-.54-.54-.53.24-.53.54.24.53.53.53Z"/>
      <path class="cls-1" d="m70.41,31.12c-.23.64-.61,1.28-1,1.71-.1-.1-.34-.26-.47-.35.39-.38.73-.93.91-1.5l.57.14Zm1.54-.31h-2.6v-5h2.6v5Zm-.57-4.5h-1.48v1.01h1.48v-1.01Zm0,1.48h-1.48v1.02h1.48v-1.02Zm0,1.49h-1.48v1.04h1.48v-1.04Zm.02,1.69c.31.39.65.92.79,1.26l-.51.26c-.14-.35-.46-.9-.76-1.3l.47-.22Zm2.99-3.18v1.54h1.55v3.46h-.58v-.35h-2.3v.38h-.56v-3.49h1.31v-3.83h.59v1.74h1.93v.54h-1.93Zm.97,2.07h-2.3v2.05h2.3v-2.05Z"/>
      <path class="cls-1" d="m78.71,28.11c.33-.82,1.16-1.82,2.18-1.82s1.83,1.07,1.83,2.75c0,2.23-1.4,3.21-3.39,3.57l-.38-.58c1.74-.26,3.11-.97,3.11-2.99,0-1.27-.43-2.18-1.28-2.18-1,0-1.93,1.46-2.03,2.51-.04.31-.03.59.02.99l-.62.05c-.04-.3-.09-.75-.09-1.28,0-.76.15-1.94.25-2.59.03-.24.05-.47.06-.69l.71.02c-.17.59-.33,1.67-.38,2.23Z"/>
      <path class="cls-1" d="m84.59,32.98l-.48-.25c.92-.96,1.49-2.14,1.49-3.57s-.57-2.62-1.49-3.57l.48-.25c.96.98,1.6,2.25,1.6,3.82s-.63,2.84-1.6,3.82Z"/>
      <path class="cls-1" d="m90.03,28.1c-.53.25-1.08.51-1.55.71l-.21-.49c.43-.17,1.03-.43,1.64-.71l.12.49Zm5.07,2.58c-.43.3-1,.6-1.48.82.56.41,1.25.71,2.04.87-.13.12-.28.35-.35.49-1.59-.39-2.74-1.28-3.4-2.62h-.02c-.32.28-.72.55-1.17.77v1.06c.59-.08,1.22-.16,1.84-.25l.02.5c-1.17.17-2.4.34-3.27.46l-.1-.51c.27-.03.6-.07.96-.12v-.88c-.51.22-1.04.38-1.55.5-.07-.14-.22-.33-.34-.44,1-.18,2.11-.58,2.86-1.08h-2.75v-.47h3.26v-.64h.59v.64h3.3v.47h-3.05c.2.36.46.69.77.97.47-.23,1.05-.58,1.4-.83l.43.31Zm-5.6-3.54c-.19-.26-.62-.62-.97-.86l.36-.34c.35.22.79.56.99.82l-.38.38Zm1.18,2.1h-.55v-3.75h.55v3.75Zm2.3-2.12h-1.9v-.53h1.9v-1.1h.6v1.1h1.97v.53h-1.97v1.27h1.73v.52h-3.98v-.52h1.65v-1.27Z"/>
      <path class="cls-1" d="m99.05,28.9c-.06.16-.14.32-.21.48h4.05v3.4h-.61v-.27h-3.35v.29h-.59v-2.54c-.41.63-.9,1.16-1.43,1.57-.09-.12-.32-.34-.45-.44.83-.57,1.52-1.46,1.93-2.49h-1.68v-.49h3.15v-.55h-2.42v-.46h2.42v-.55h-2.78v-.48h1.47c-.12-.22-.3-.47-.47-.68l.51-.18c.24.24.48.58.59.83l-.1.04h2.12l-.09-.03c.18-.24.43-.61.55-.85l.63.18c-.18.25-.38.5-.55.7h1.54v.48h-2.81v.55h2.45v.46h-2.45v.55h3.15v.49h-4.58Zm-.12.94v.48h3.35v-.48h-3.35Zm3.35.86h-3.35v.48h3.35v-.48Zm0,1.36v-.5h-3.35v.5h3.35Z"/>
      <path class="cls-1" d="m105.64,30.13c-.11.75-.3,1.53-.55,2.04-.09-.07-.33-.18-.44-.22.25-.49.4-1.21.49-1.91l.51.09Zm.87-.69v3.38h-.53v-3.35l-1.26.08-.06-.54.55-.02c.16-.2.33-.42.5-.67-.23-.36-.63-.82-1-1.16l.32-.38c.08.07.16.14.24.22.27-.46.55-1.07.71-1.51l.52.19c-.27.55-.62,1.2-.92,1.65.17.18.31.35.43.51.33-.5.63-1.02.86-1.45l.5.23c-.46.73-1.06,1.64-1.61,2.32l1.16-.06c-.11-.23-.23-.47-.36-.67l.43-.18c.34.51.66,1.2.78,1.65l-.47.22c-.03-.15-.09-.33-.17-.51l-.63.04Zm.68,2.12c-.04-.38-.2-.97-.39-1.41l.43-.13c.2.44.37,1.02.43,1.41l-.47.14Zm3.15-1.32c.47.7,1.24,1.41,1.9,1.78-.13.11-.31.31-.41.46-.6-.39-1.28-1.08-1.77-1.79v2.12h-.57v-2.07c-.51.75-1.23,1.41-1.93,1.81-.09-.14-.27-.34-.4-.46.77-.37,1.58-1.1,2.07-1.85h-1.4v-2.75h1.66v-.67h-1.91v-.52h1.91v-.8h.57v.8h1.89v.52h-1.89v.67h1.72v2.75h-1.44Zm-1.97-1.6h1.16v-.7h-1.16v.7Zm0,1.14h1.16v-.71h-1.16v.71Zm2.87-1.84h-1.2v.7h1.2v-.7Zm0,1.13h-1.2v.71h1.2v-.71Z"/>
      <path class="cls-1" d="m115.28,28.07c-.71.31-1.43.6-2.01.83l-.23-.49c.55-.17,1.36-.47,2.15-.78l.09.44Zm.44-1.69h-2.49v-.49h3.04v2.64c0,.26-.06.4-.26.48-.21.08-.53.07-1.04.07-.02-.14-.1-.31-.15-.44.35,0,.67,0,.77,0,.1,0,.12-.03.12-.12v-2.14Zm-1.84.07c.38.2.83.51,1.05.75l-.32.38c-.21-.25-.66-.58-1.04-.79l.31-.35Zm3.06,2.43c-.11.22-.23.44-.34.63h2.62v3.31h-.6v-.31h-3.89v.31h-.59v-3.31h1.88c.12-.25.24-.54.31-.75l.62.12Zm1.67,1.1h-3.89v.78h3.89v-.78Zm0,2.06v-.81h-3.89v.81h3.89Zm-2.01-3.8c.58-.18,1.42-.48,2.25-.78l.09.44c-.74.28-1.52.57-2.13.79l-.22-.46Zm3.25.28c0,.28-.06.42-.27.51-.22.08-.55.08-1.08.08-.02-.14-.1-.34-.17-.47.38.02.72.02.83.02.1,0,.13-.03.13-.13v-2.15h-2.5v-.49h3.07v2.64Zm-1.79-.96c-.21-.25-.67-.57-1.06-.76l.31-.36c.38.18.84.49,1.08.73l-.33.39Z"/>
      <path class="cls-1" d="m15.25,39.04c0,.1,0,.28,0,.49.72-.03,1.45-.1,2.17-.22v.59c-.64.07-1.4.14-2.17.18v1.12c.78-.03,1.51-.1,2.24-.22v.6c-.76.1-1.47.16-2.23.18.02.42.04.85.06,1.24,1.07.29,1.89.88,2.34,1.25l-.37.57c-.47-.43-1.14-.92-1.94-1.21,0,.2.02.37.02.5,0,.55-.37,1.12-1.41,1.12-1.16,0-1.78-.41-1.78-1.18,0-.73.7-1.23,1.85-1.23.23,0,.46.02.67.05,0-.36-.02-.75-.03-1.09h-.46c-.55,0-1.43-.05-2.01-.11v-.6c.57.1,1.48.15,2.01.15h.43v-1.12h-.35c-.56,0-1.55-.08-2.05-.14v-.59c.51.1,1.51.18,2.05.18h.37v-.57c0-.14-.02-.37-.03-.48h.68c-.02.14-.04.31-.05.54Zm-1.38,5.64c.46,0,.85-.14.85-.7,0-.14,0-.33,0-.54-.25-.06-.51-.08-.78-.08-.76,0-1.18.3-1.18.67s.32.65,1.12.65Z"/>
      <path class="cls-1" d="m19.75,40.45c.68-.22,2.26-.79,3.43-.79,1.33,0,2.39.77,2.39,2.12,0,1.92-1.92,2.85-4.39,2.99l-.29-.67c2.1-.06,3.98-.69,3.98-2.34,0-.84-.63-1.5-1.71-1.5-1.32,0-3.36.88-4,1.13l-.3-.71c.29-.06.58-.14.88-.23Z"/>
      <path class="cls-1" d="m27.94,39.56h4.41c.24,0,.49-.02.68-.05v.71c-.2-.02-.46-.03-.68-.03h-1.93v3.69h2.36c.24,0,.46-.02.67-.05v.73c-.22-.03-.51-.03-.67-.03h-5.31c-.22,0-.46,0-.71.03v-.73c.24.03.49.05.71.05h2.26v-3.69h-1.81c-.15,0-.47,0-.67.03v-.71c.21.03.51.05.67.05Z"/>
      <path class="cls-1" d="m37.89,39.27c-.06.11-.12.22-.19.34h2.18c.22,0,.39-.02.52-.08l.54.33c-.06.11-.14.3-.19.43-.22.81-.71,1.89-1.43,2.76-.73.89-1.69,1.63-3.19,2.18l-.58-.52c1.47-.43,2.47-1.16,3.2-2.01.63-.74,1.12-1.77,1.28-2.5h-2.71c-.49.67-1.16,1.39-2.04,1.97l-.55-.42c1.38-.83,2.18-1.99,2.52-2.71.08-.14.2-.43.25-.63l.75.24c-.14.21-.28.48-.35.63Z"/>
      <path class="cls-1" d="m47.5,42.5c.45.53,1.13,1,1.81,1.24-.14.11-.31.32-.39.46-.78-.32-1.56-.99-2.04-1.69h-2.51c-.51.75-1.32,1.44-2.09,1.8-.09-.14-.25-.34-.39-.46.67-.26,1.36-.77,1.81-1.34h-1.73v-.51h1.59v-2.56h-1.22v-.5h1.22v-.77h.59v.77h2.91v-.77h.6v.77h1.2v.5h-1.2v2.56h1.55v.51h-1.7Zm-1.64,2.26h2.77v.51h-6.05v-.51h2.69v-.84h-1.64v-.49h1.64v-.67h.59v.67h1.68v.49h-1.68v.84Zm-1.73-5.33v.54h2.91v-.54h-2.91Zm0,1.54h2.91v-.55h-2.91v.55Zm0,1.02h2.91v-.57h-2.91v.57Z"/>
      <path class="cls-1" d="m51.25,44.43v.67h-.5v-2.48c-.1.22-.22.43-.34.61-.07-.13-.25-.39-.35-.51.55-.85.85-2.15,1.04-3.52h-.91v-.54h2.75v.42h.85v-.9h.51v.9h.71v.46h-.71v.19c.16.13.65.54.76.65l-.3.35c-.09-.12-.28-.34-.47-.53v1.3h-.51v-1.29c-.23.42-.52.82-.8,1.09-.06-.12-.18-.3-.29-.4.35-.3.73-.84.96-1.37h-.74v-.34h-1.27c-.1.64-.21,1.27-.36,1.85h1.4v3.39h-1.45Zm.94-2.87h-.94v2.34h.94v-2.34Zm3.22,3.24c.18.03.38.04.59.04.18,0,1.29,0,1.55,0-.07.13-.14.37-.17.51h-1.41c-1.04,0-1.73-.22-2.18-1.18-.19.53-.5.99-.99,1.32-.08-.11-.25-.31-.37-.39.82-.51,1.04-1.49,1.12-2.46h.53c-.02.27-.06.55-.1.81.19.64.48,1,.88,1.2v-2.4h-1.93v-.5h4.02l.1-.03.38.14c-.14.39-.3.83-.47,1.13l-.46-.17c.08-.16.15-.36.22-.57h-1.31v.95h1.56v.5h-1.56v1.12Zm.56-4.68c-.24.47-.56.89-.89,1.16-.06-.12-.18-.3-.28-.39.39-.28.79-.82,1.02-1.37h-.65v-.46h.8v-.9h.51v.9h.97v.46h-.83c.22.54.57,1.1.94,1.38-.1.08-.25.23-.33.35-.29-.25-.55-.67-.75-1.12v1.35h-.51v-1.37Z"/>
      <path class="cls-1" d="m60.65,41.11c0,.08,0,.18,0,.27h1.51v.57h-1.54c-.02.18-.05.36-.08.54.38.38,1.35,1.46,1.6,1.74l-.4.51c-.27-.39-.9-1.15-1.33-1.64-.26.85-.75,1.72-1.66,2.37-.08-.13-.29-.35-.42-.44,1.22-.87,1.6-2.02,1.7-3.07h-1.61v-.57h1.65v-1.6h-.61c-.19.48-.4.92-.65,1.26-.1-.1-.35-.27-.49-.35.47-.62.8-1.57,1-2.54l.58.11c-.06.34-.15.66-.25.96h2.29v.55h-1.27v1.32Zm4.62-2.25v6.32h-.59v-.55h-1.69v.63h-.58v-6.4h2.87Zm-.59,5.21v-4.65h-1.69v4.65h1.69Z"/>
      <path class="cls-1" d="m69.04,39.98h-2.46v-.49h2.46v.49Zm-.18,5.04h-1.49v.38h-.47v-2.69h1.97v2.31Zm0-3.97h-1.93v-.47h1.93v.47Zm-1.93.59h1.93v.48h-1.93v-.48Zm1.92-2.71h-1.89v-.48h1.89v.48Zm-1.47,4.28v1.34h1v-1.34h-1Zm6.27-1.24c-.21.69-.51,1.31-.88,1.85.14.66.35,1.04.62,1.06.14,0,.23-.41.28-1.07.09.11.3.26.39.31-.14,1.1-.41,1.41-.68,1.41-.47-.02-.79-.45-1-1.2-.39.46-.83.83-1.31,1.13-.07-.1-.23-.25-.34-.34.28-.17.55-.36.79-.59h-1.68v.43h-.47v-3.09h2.2v2.61c.24-.22.47-.47.67-.75-.11-.64-.18-1.43-.22-2.35h-3.08v-.5h3.06c-.02-.82-.03-1.72-.04-2.7h.52c0,.99,0,1.89.02,2.7h1.36v.5h-1.34c.02.64.06,1.22.13,1.7.22-.41.4-.86.54-1.35l.46.24Zm-1.88-2.46h-2.61v-.47h1.04v-.87h.55v.87h1.01v.47Zm-2.06,1.33c0-.31-.09-.79-.23-1.16l.43-.1c.14.36.23.84.25,1.16l-.46.1Zm.14,1.47v.66h1.22v-.66h-1.22Zm1.22,1.77v-.68h-1.22v.68h1.22Zm-.36-3.33c.1-.33.22-.85.27-1.21l.51.1c-.13.42-.25.9-.36,1.2l-.43-.1Zm2.75-.59c-.13-.41-.45-1.01-.79-1.44l.45-.18c.35.43.7,1,.83,1.4l-.49.22Z"/>
      <path class="cls-1" d="m17.89,52.41c-.32.55-1.08,1.58-2,2.21l-.53-.42c.74-.43,1.49-1.3,1.76-1.8h-4.58c-.3,0-.6.02-.92.05v-.73c.28.04.62.07.92.07h4.61c.15,0,.44-.02.56-.05l.39.38c-.06.08-.16.2-.22.29Zm-5.23,5.43l-.59-.48c.23-.07.5-.2.72-.36,1.24-.76,1.42-1.9,1.42-3.24,0-.19,0-.37-.03-.58h.72c0,2.17-.19,3.64-2.24,4.66Z"/>
      <path class="cls-1" d="m22.5,53.15c.83-.52,1.64-1.22,2.19-1.89l.54.5c-.61.63-1.35,1.24-2.17,1.79v3.39c0,.31.02.7.05.86h-.79c.02-.15.05-.55.05-.86v-2.97c-.84.48-1.94.96-3.06,1.31l-.32-.63c1.39-.38,2.62-.94,3.51-1.5Z"/>
      <path class="cls-1" d="m32.09,51.94l-.3.14.39.25c-.06.11-.09.24-.12.4-.18.84-.56,2.13-1.2,2.96-.74.94-1.69,1.69-3.16,2.14l-.55-.6c1.56-.38,2.46-1.07,3.13-1.93.57-.73.94-1.85,1.05-2.62h-4.11c-.31,0-.59.02-.79.02v-.71c.22.03.54.06.8.06h4.02c.1,0,.22,0,.35-.02-.17-.31-.4-.71-.59-.96l.44-.18c.18.27.47.75.63,1.06Zm1.05-.21l-.44.19c-.18-.33-.44-.79-.66-1.07l.44-.18c.2.27.49.75.66,1.06Z"/>
      <path class="cls-1" d="m34.86,52.06h4.31c.18,0,.47,0,.71-.02-.02.2-.02.43-.02.63v3.96c0,.26,0,.88.02.97h-.69c0-.06,0-.25,0-.47h-4.38c0,.21,0,.4.02.47h-.69c0-.1.02-.7.02-.98v-3.95c0-.18,0-.43-.02-.63.31,0,.53.02.71.02Zm-.05,4.45h4.39v-3.81h-4.39v3.81Z"/>
      <path class="cls-1" d="m45.14,51.72v.75h1.8c.3,0,.45-.02.55-.06l.43.27c-.04.12-.09.33-.12.48-.1.64-.34,1.65-.79,2.42-.6,1.05-1.71,1.87-3.18,2.27l-.52-.6c.27-.04.58-.13.83-.22.8-.26,1.69-.86,2.18-1.61.43-.68.69-1.65.76-2.34h-4.49v1.44c0,.14,0,.35.03.48h-.7c.02-.14.02-.36.02-.51v-1.41c0-.17,0-.44-.02-.62.23.02.47.03.75.03h1.77v-.75c0-.17,0-.35-.04-.6h.77c-.04.25-.05.43-.05.6Z"/>
      <path class="cls-1" d="m50.43,51.88h3.82c.26,0,.48-.02.66-.03v.64c-.19,0-.38-.02-.66-.02h-2.09v1.7h2.7c.17,0,.49-.02.67-.03v.66c-.18-.02-.47-.02-.65-.02h-2.72v1.61c0,.4.28.64,1.02.64s1.42-.03,2.11-.11l-.04.67c-.63.05-1.4.08-2.16.08-1.21,0-1.6-.42-1.6-1.08v-1.81h-1.57c-.2,0-.53.02-.75.03v-.67c.22.02.55.04.75.04h1.57v-1.7h-1.07c-.27,0-.51,0-.72.02v-.64c.22.02.45.03.72.03Z"/>
      <path class="cls-1" d="m57.5,53.73h5.26c.17,0,.43,0,.63-.04v.67c-.18,0-.43-.02-.63-.02h-2.18c-.02.87-.15,1.6-.47,2.2-.29.53-.9,1.11-1.58,1.46l-.59-.44c.63-.26,1.2-.72,1.52-1.23.35-.55.44-1.23.47-1.99h-2.41c-.24,0-.47,0-.69.02v-.67c.22.02.44.04.69.04Zm.99-2.01h2.78c.23,0,.51-.02.75-.05v.67c-.23-.02-.51-.02-.75-.02h-2.77c-.26,0-.53,0-.74.02v-.67c.23.02.47.05.73.05Zm4.6.4l-.43.19c-.16-.33-.43-.81-.65-1.12l.43-.18c.2.28.5.77.66,1.1Zm.9-.33l-.43.19c-.18-.35-.43-.8-.67-1.11l.43-.18c.21.29.52.79.67,1.09Z"/>
      <path class="cls-1" d="m65.63,55.36c.23-.73.24-2.34.24-3.23,0-.24-.02-.42-.06-.59h.74c0,.1-.04.34-.04.58,0,.89-.03,2.61-.25,3.41-.24.86-.75,1.65-1.43,2.21l-.6-.41c.67-.48,1.16-1.2,1.4-1.97Zm2.34,1.56v-4.81c0-.3-.04-.54-.05-.59h.74c0,.06-.03.29-.03.59v4.63c.74-.34,1.73-1.07,2.34-1.97l.38.54c-.69.94-1.81,1.77-2.74,2.22-.13.07-.22.14-.27.18l-.43-.35c.03-.13.06-.29.06-.45Z"/>
      <path class="cls-1" d="m24.97,65.2c-.27.69-.78,1.63-1.35,2.35.84.72,1.82,1.77,2.34,2.4l-.56.48c-.54-.71-1.39-1.65-2.21-2.38-.86.92-1.94,1.81-3.13,2.34l-.51-.54c1.29-.51,2.48-1.46,3.31-2.38.55-.62,1.13-1.56,1.33-2.23h-3.13c-.28,0-.72.03-.81.04v-.73c.11.02.57.05.81.05h3.1c.26,0,.47-.02.6-.06l.41.31c-.05.06-.15.24-.2.35Z"/>
      <path class="cls-1" d="m28.07,64.84c0-.22-.02-.59-.06-.83h.79c-.02.25-.06.59-.06.83v1.31c1.06.32,2.58.9,3.43,1.32l-.27.68c-.88-.47-2.26-1.01-3.15-1.29,0,1.2,0,2.42,0,2.65,0,.25.02.68.05.95h-.78c.04-.26.06-.65.06-.95v-4.67Z"/>
      <path class="cls-1" d="m34.31,69.56v-4.59c0-.21-.04-.57-.07-.73h.79c-.03.2-.06.5-.06.73v4.55c1.53-.38,3.4-1.44,4.39-2.74l.36.56c-1.04,1.29-2.7,2.29-4.7,2.87-.09.02-.21.06-.34.14l-.47-.4c.06-.13.08-.23.08-.39Z"/>
      <path class="cls-1" d="m42.09,66.78h4.4c.4,0,.69-.02.87-.04v.79c-.16,0-.5-.04-.86-.04h-4.41c-.44,0-.87.02-1.12.04v-.79c.24.02.67.04,1.12.04Z"/>
      <path class="cls-1" d="m49.83,64.84c0-.22-.02-.59-.06-.83h.79c-.02.25-.06.59-.06.83v1.31c1.06.32,2.58.9,3.43,1.32l-.27.68c-.88-.47-2.26-1.01-3.15-1.29,0,1.2,0,2.42,0,2.65,0,.25.02.68.05.95h-.78c.04-.26.06-.65.06-.95v-4.67Z"/>
      <path class="cls-1" d="m55.82,66.4h5.26c.17,0,.43,0,.63-.04v.67c-.18,0-.43-.02-.63-.02h-2.18c-.02.87-.15,1.6-.47,2.2-.29.53-.9,1.11-1.58,1.46l-.59-.44c.63-.26,1.2-.72,1.52-1.23.35-.55.44-1.23.47-1.99h-2.41c-.24,0-.47,0-.69.02v-.67c.22.02.44.04.69.04Zm.99-2.01h2.78c.23,0,.51-.02.75-.05v.67c-.23-.02-.51-.02-.75-.02h-2.77c-.26,0-.53,0-.74.02v-.67c.23.02.47.05.73.05Zm4.6.4l-.43.19c-.16-.33-.43-.81-.65-1.12l.43-.18c.2.28.5.77.66,1.1Zm.9-.33l-.43.19c-.18-.35-.43-.8-.67-1.11l.43-.18c.21.29.52.79.67,1.09Z"/>
      <path class="cls-1" d="m65.71,70.73l-.54-.51c1.46-.55,2.18-1.24,2.18-3.49v-.34h-2.28v1.3c0,.3.02.65.03.72h-.71c0-.07.04-.42.04-.72v-1.3h-.87c-.35,0-.71.02-.8.03v-.7c.07.02.47.06.8.06h.87v-1.03c0-.18-.02-.4-.04-.59h.71c0,.07-.03.3-.03.58v1.04h2.28v-1c0-.32-.02-.59-.03-.66h.72c0,.08-.04.34-.04.66v1h.88c.36,0,.63-.02.74-.05v.68c-.09,0-.38-.02-.73-.02h-.88v.28c0,2.14-.47,3.24-2.3,4.06Zm3.52-5.52l-.39.14c-.12-.34-.31-.83-.46-1.13l.39-.12c.14.29.36.79.47,1.12Zm.81-.25l-.39.13c-.13-.35-.31-.82-.47-1.12l.39-.12c.15.29.37.78.48,1.11Z"/>
      <path class="cls-1" d="m74.21,65.82c.83-.52,1.64-1.22,2.19-1.89l.54.5c-.61.63-1.35,1.24-2.17,1.79v3.39c0,.31.02.7.05.86h-.79c.02-.15.05-.55.05-.86v-2.97c-.84.48-1.94.96-3.06,1.31l-.32-.63c1.39-.38,2.62-.94,3.51-1.5Z"/>
      <path class="cls-1" d="m81.47,68.54c1.24-.78,2.21-1.97,2.68-2.95l.39.68c-.55,1-1.48,2.09-2.7,2.86-.8.51-1.81,1-3.15,1.24l-.43-.66c1.4-.21,2.45-.7,3.21-1.17Zm-.47-2.54l-.51.51c-.4-.42-1.4-1.28-2-1.68l.46-.49c.57.38,1.6,1.21,2.05,1.66Z"/>
      <path class="cls-1" d="m85.33,68.87l.52-.46c.58.47,1.3,1.2,1.8,1.78l-.55.46c-.51-.63-1.2-1.32-1.77-1.79Z"/>
      <path class="cls-1" d="m96.09,65.08c-.32.55-1.08,1.58-2,2.21l-.53-.42c.74-.43,1.49-1.3,1.76-1.8h-4.57c-.3,0-.6.02-.92.05v-.73c.28.04.62.07.92.07h4.61c.15,0,.44-.02.56-.05l.39.38c-.06.08-.16.2-.22.29Zm-5.22,5.43l-.59-.48c.23-.07.5-.2.72-.36,1.24-.76,1.42-1.9,1.42-3.24,0-.19,0-.37-.03-.58h.72c0,2.17-.19,3.64-2.24,4.66Z"/>
      <path class="cls-1" d="m98.67,66.78h4.4c.4,0,.69-.02.87-.04v.79c-.16,0-.5-.04-.86-.04h-4.41c-.44,0-.87.02-1.12.04v-.79c.24.02.67.04,1.12.04Z"/>
      <path class="cls-1" d="m108.64,64.52c.73-.1,1.68-.3,2.07-.47l.43.55c-.18.05-.34.09-.45.12-.4.1-1.02.22-1.6.31v1.54h2.22c.18,0,.47-.02.63-.03v.67c-.18-.02-.42-.03-.62-.03h-2.24c-.09,1.5-.67,2.56-2.05,3.36l-.63-.44c1.27-.59,1.93-1.49,2.03-2.92h-2.38c-.26,0-.53.02-.72.03v-.67c.18.02.47.03.71.03h2.42v-1.46c-.81.08-1.72.1-2.34.11l-.16-.59c.61.02,1.83,0,2.7-.12Z"/>
      <path class="cls-1" d="m113.55,66.4h5.26c.17,0,.43,0,.63-.04v.67c-.18,0-.43-.02-.63-.02h-2.18c-.02.87-.15,1.6-.47,2.2-.29.53-.9,1.11-1.58,1.46l-.59-.44c.63-.26,1.2-.72,1.52-1.23.35-.55.44-1.23.47-1.99h-2.41c-.24,0-.47,0-.69.02v-.67c.22.02.44.04.69.04Zm.99-2.01h2.78c.23,0,.51-.02.75-.05v.67c-.23-.02-.51-.02-.75-.02h-2.77c-.26,0-.53,0-.74.02v-.67c.23.02.47.05.73.05Zm4.6.4l-.43.19c-.16-.33-.43-.81-.65-1.12l.43-.18c.2.28.5.77.66,1.1Zm.9-.33l-.43.19c-.18-.35-.43-.8-.67-1.11l.43-.18c.21.29.52.79.67,1.09Z"/>
      <path class="cls-1" d="m123.44,70.73l-.54-.51c1.46-.55,2.18-1.24,2.18-3.49v-.34h-2.28v1.3c0,.3.02.65.03.72h-.71c0-.07.04-.42.04-.72v-1.3h-.87c-.35,0-.71.02-.8.03v-.7c.07.02.47.06.8.06h.87v-1.03c0-.18-.02-.4-.04-.59h.71c0,.07-.03.3-.03.58v1.04h2.28v-1c0-.32-.02-.59-.03-.66h.72c0,.08-.04.34-.04.66v1h.88c.36,0,.63-.02.74-.05v.68c-.09,0-.38-.02-.73-.02h-.88v.28c0,2.14-.47,3.24-2.3,4.06Zm3.52-5.52l-.39.14c-.12-.34-.31-.83-.46-1.13l.39-.12c.14.29.36.79.47,1.12Zm.81-.25l-.39.13c-.13-.35-.31-.82-.47-1.12l.39-.12c.15.29.37.78.48,1.11Z"/>
      <path class="cls-1" d="m131.94,65.82c.83-.52,1.64-1.22,2.19-1.89l.54.5c-.61.63-1.35,1.24-2.17,1.79v3.39c0,.31.02.7.05.86h-.79c.02-.15.05-.55.05-.86v-2.97c-.84.48-1.94.96-3.06,1.31l-.32-.63c1.39-.38,2.62-.94,3.51-1.5Z"/>
      <path class="cls-1" d="m139.2,68.54c1.24-.78,2.21-1.97,2.68-2.95l.39.68c-.55,1-1.48,2.09-2.7,2.86-.8.51-1.81,1-3.15,1.24l-.43-.66c1.4-.21,2.45-.7,3.21-1.17Zm-.47-2.54l-.51.51c-.4-.42-1.4-1.28-2-1.68l.46-.49c.57.38,1.6,1.21,2.05,1.66Z"/>
      <path class="cls-1" d="m143.05,68.87l.52-.46c.58.47,1.3,1.2,1.8,1.78l-.55.46c-.51-.63-1.2-1.32-1.77-1.79Z"/>
      <path class="cls-1" d="m21.03,77.22h3.82c.26,0,.48-.02.66-.03v.64c-.19,0-.38-.02-.66-.02h-2.09v1.7h2.71c.17,0,.49-.02.67-.03v.66c-.18-.02-.47-.02-.65-.02h-2.72v1.61c0,.4.28.64,1.02.64s1.42-.03,2.11-.11l-.04.67c-.63.05-1.4.08-2.16.08-1.21,0-1.6-.42-1.6-1.08v-1.81h-1.57c-.2,0-.53.02-.75.03v-.67c.22.02.55.04.75.04h1.57v-1.7h-1.07c-.27,0-.51,0-.72.02v-.64c.22.02.45.03.72.03Z"/>
      <path class="cls-1" d="m28.85,79.45h4.4c.4,0,.69-.02.87-.04v.79c-.16,0-.5-.04-.86-.04h-4.41c-.44,0-.87.02-1.12.04v-.79c.24.02.67.04,1.12.04Z"/>
      <path class="cls-1" d="m36.59,77.61c0-.22-.02-.59-.06-.83h.79c-.03.25-.06.59-.06.83v1.31c1.06.33,2.58.9,3.43,1.32l-.28.68c-.87-.47-2.26-1-3.15-1.28v2.64c0,.26.02.69.05.95h-.77c.03-.26.05-.65.05-.95v-4.67Zm3.55.71l-.46.21c-.2-.42-.45-.86-.71-1.22l.44-.2c.2.3.55.83.73,1.21Zm1-.43l-.45.22c-.22-.43-.47-.85-.75-1.2l.44-.21c.21.28.56.82.75,1.19Z"/>
      <path class="cls-1" d="m42.76,79.07h5.26c.17,0,.43,0,.63-.04v.67c-.18,0-.43-.02-.63-.02h-2.18c-.02.87-.15,1.6-.47,2.2-.29.53-.9,1.11-1.58,1.46l-.59-.44c.63-.26,1.2-.72,1.52-1.23.35-.55.44-1.23.47-1.99h-2.41c-.24,0-.47,0-.69.02v-.67c.22.02.44.04.69.04Zm.99-2.01h2.78c.23,0,.51-.02.75-.05v.67c-.23-.02-.51-.02-.75-.02h-2.77c-.26,0-.53,0-.74.02v-.67c.23.02.47.05.73.05Zm4.6.4l-.43.19c-.16-.33-.43-.81-.65-1.12l.43-.18c.2.28.5.77.66,1.1Zm.9-.33l-.43.19c-.18-.35-.43-.8-.67-1.11l.43-.18c.21.29.52.79.67,1.09Z"/>
      <path class="cls-1" d="m52.65,83.4l-.54-.51c1.46-.55,2.18-1.24,2.18-3.49v-.34h-2.28v1.3c0,.3.02.65.03.72h-.71c0-.07.04-.42.04-.72v-1.3h-.87c-.35,0-.71.02-.8.03v-.7c.07.02.47.06.8.06h.87v-1.03c0-.18-.02-.4-.04-.59h.71c0,.07-.03.3-.03.58v1.04h2.28v-1c0-.32-.02-.59-.03-.66h.72c0,.08-.04.34-.04.66v1h.88c.36,0,.63-.02.74-.05v.68c-.09,0-.38-.02-.73-.02h-.88v.28c0,2.14-.47,3.24-2.3,4.06Zm3.52-5.52l-.39.14c-.12-.34-.31-.83-.46-1.13l.39-.12c.14.29.36.79.47,1.12Zm.81-.25l-.39.13c-.13-.35-.31-.82-.47-1.12l.39-.12c.15.29.37.78.48,1.11Z"/>
      <path class="cls-1" d="m61.15,78.49c.83-.52,1.64-1.22,2.19-1.89l.54.5c-.61.63-1.35,1.24-2.17,1.79v3.39c0,.31.02.7.05.86h-.79c.02-.15.05-.55.05-.86v-2.97c-.84.48-1.94.96-3.06,1.31l-.32-.63c1.39-.38,2.62-.94,3.51-1.5Z"/>
      <path class="cls-1" d="m68.41,81.21c1.24-.78,2.21-1.97,2.68-2.95l.39.68c-.55,1-1.48,2.09-2.7,2.86-.8.51-1.81,1-3.15,1.24l-.43-.66c1.4-.21,2.45-.7,3.21-1.17Zm-.47-2.54l-.51.51c-.4-.42-1.4-1.28-2-1.68l.46-.49c.57.38,1.6,1.21,2.05,1.66Z"/>
      <path class="cls-1" d="m17.89,90.42c-.32.55-1.08,1.58-2,2.21l-.53-.42c.74-.43,1.49-1.3,1.76-1.8h-4.58c-.3,0-.6.02-.92.05v-.73c.28.04.62.07.92.07h4.61c.15,0,.44-.02.56-.05l.39.38c-.06.08-.16.2-.22.29Zm-5.23,5.43l-.59-.48c.23-.07.5-.2.72-.36,1.24-.76,1.42-1.9,1.42-3.24,0-.19,0-.37-.03-.58h.72c0,2.17-.19,3.64-2.24,4.66Z"/>
      <path class="cls-1" d="m22.5,91.16c.83-.52,1.64-1.22,2.19-1.89l.54.5c-.61.63-1.35,1.24-2.17,1.79v3.39c0,.31.02.7.05.86h-.79c.02-.15.05-.55.05-.86v-2.97c-.84.48-1.94.96-3.06,1.31l-.32-.63c1.39-.38,2.62-.94,3.51-1.5Z"/>
      <path class="cls-1" d="m32.09,89.94l-.3.14.39.25c-.06.11-.09.24-.12.4-.18.84-.56,2.13-1.2,2.96-.74.94-1.69,1.69-3.16,2.14l-.55-.6c1.56-.38,2.46-1.07,3.13-1.93.57-.73.94-1.85,1.05-2.62h-4.11c-.31,0-.59.02-.79.02v-.71c.22.03.54.06.8.06h4.02c.1,0,.22,0,.35-.02-.17-.31-.4-.71-.59-.96l.44-.18c.18.27.47.75.63,1.06Zm1.05-.21l-.44.19c-.18-.33-.44-.79-.66-1.07l.44-.18c.2.27.49.75.66,1.06Z"/>
      <path class="cls-1" d="m34.86,90.07h4.31c.18,0,.47,0,.71-.02-.02.2-.02.43-.02.63v3.96c0,.26,0,.88.02.97h-.69c0-.06,0-.25,0-.47h-4.38c0,.21,0,.4.02.47h-.69c0-.1.02-.7.02-.98v-3.95c0-.18,0-.43-.02-.63.31,0,.53.02.71.02Zm-.05,4.45h4.39v-3.81h-4.39v3.81Z"/>
      <path class="cls-1" d="m45.14,89.73v.75h1.8c.3,0,.45-.02.55-.06l.43.27c-.04.12-.09.33-.12.48-.1.64-.34,1.65-.79,2.42-.6,1.05-1.71,1.87-3.18,2.27l-.52-.6c.27-.04.58-.13.83-.22.8-.26,1.69-.86,2.18-1.61.43-.68.69-1.65.76-2.34h-4.49v1.44c0,.14,0,.35.03.48h-.7c.02-.14.02-.36.02-.51v-1.41c0-.17,0-.44-.02-.62.23.02.47.03.75.03h1.77v-.75c0-.17,0-.35-.04-.6h.77c-.04.25-.05.43-.05.6Z"/>
      <path class="cls-1" d="m49.67,91.67h5.26c.17,0,.43,0,.63-.04v.67c-.18,0-.43-.02-.63-.02h-2.18c-.02.87-.15,1.6-.47,2.19-.29.54-.9,1.12-1.58,1.47l-.59-.44c.63-.26,1.2-.72,1.52-1.23.35-.56.44-1.24.47-1.99h-2.41c-.24,0-.47,0-.7.02v-.67c.22.02.45.04.7.04Zm.99-2.01h3.25c.22,0,.51-.02.75-.05v.67c-.23-.02-.51-.02-.75-.02h-3.24c-.27,0-.53,0-.73.02v-.67c.22.02.47.05.72.05Z"/>
      <path class="cls-1" d="m61.86,90.54c-.27.69-.78,1.63-1.35,2.35.84.72,1.82,1.77,2.34,2.4l-.56.48c-.54-.71-1.39-1.65-2.21-2.38-.86.92-1.94,1.81-3.13,2.34l-.51-.54c1.29-.51,2.48-1.46,3.31-2.38.55-.62,1.13-1.56,1.33-2.23h-3.13c-.28,0-.72.03-.81.04v-.73c.11.02.57.05.81.05h3.1c.26,0,.47-.02.6-.06l.41.31c-.05.06-.15.24-.2.35Z"/>
      <path class="cls-1" d="m64.96,90.18c0-.22-.02-.59-.06-.83h.79c-.02.25-.06.59-.06.83v1.31c1.06.32,2.58.9,3.43,1.32l-.27.68c-.88-.47-2.26-1.01-3.15-1.29,0,1.2,0,2.42,0,2.65,0,.25.02.68.05.95h-.78c.04-.26.06-.65.06-.95v-4.67Z"/>
      <path class="cls-1" d="m72.99,88.68l.48.25c-.92.96-1.49,2.14-1.49,3.57s.57,2.62,1.49,3.57l-.48.25c-.96-.98-1.6-2.25-1.6-3.82s.63-2.84,1.6-3.82Z"/>
      <path class="cls-1" d="m77.88,89.9c0,.29-.02.56-.04.83h1.91c.22,0,.38-.02.51-.04l.45.22c-.02.14-.04.29-.04.39-.03.77-.13,3.11-.49,3.88-.16.34-.42.49-.86.49-.41,0-.87-.03-1.29-.06l-.08-.67c.43.06.86.09,1.2.09.23,0,.38-.06.47-.26.31-.61.41-2.58.41-3.44h-2.25c-.29,2.3-1.12,3.52-2.46,4.45l-.59-.47c.26-.14.59-.36.83-.59.79-.72,1.37-1.73,1.59-3.38h-1.35c-.31,0-.64,0-.92.03v-.68c.28.03.61.05.91.05h1.41c.02-.26.03-.53.03-.82,0-.18-.02-.47-.06-.67h.75c-.02.18-.04.47-.05.66Z"/>
      <path class="cls-1" d="m85.69,89.73v.75h1.8c.3,0,.45-.02.55-.06l.43.27c-.04.12-.09.33-.12.48-.1.64-.34,1.65-.79,2.42-.6,1.05-1.71,1.87-3.18,2.27l-.52-.6c.27-.04.58-.13.83-.22.8-.26,1.69-.86,2.18-1.61.43-.68.69-1.65.76-2.34h-4.49v1.44c0,.14,0,.35.03.48h-.7c.02-.14.02-.36.02-.51v-1.41c0-.17,0-.44-.02-.62.23.02.47.03.75.03h1.77v-.75c0-.17,0-.35-.04-.6h.77c-.04.25-.05.43-.05.6Z"/>
      <path class="cls-1" d="m93,93.88c1.24-.78,2.21-1.97,2.68-2.95l.39.68c-.55,1-1.48,2.09-2.7,2.86-.8.51-1.81,1-3.15,1.24l-.43-.66c1.4-.21,2.45-.7,3.21-1.17Zm-.47-2.54l-.51.51c-.4-.42-1.4-1.28-2-1.68l.46-.49c.57.38,1.6,1.21,2.05,1.66Z"/>
      <path class="cls-1" d="m98.82,92.09c-.81.17-1.52.31-1.85.39l-.12-.67c.36-.05,1.12-.18,1.97-.35v-1.37c0-.24-.02-.51-.06-.74h.76c-.04.23-.06.51-.06.74v1.25c1.36-.26,2.77-.55,3.11-.63.18-.04.33-.09.43-.14l.47.37c-.06.08-.14.22-.19.32-.37.67-1,1.67-1.65,2.34l-.56-.34c.6-.54,1.19-1.43,1.43-1.91-.14.02-1.61.32-3.03.61v2.39c0,.55.21.73,1.16.73s1.7-.08,2.5-.23l-.03.69c-.71.1-1.52.16-2.52.16-1.49,0-1.77-.39-1.77-1.18v-2.43Z"/>
      <path class="cls-1" d="m106.16,90.1v2.68c0,.2.02.46.03.61h-.74c.02-.12.04-.38.04-.62v-2.67c0-.14-.02-.42-.03-.58h.73c-.02.15-.03.38-.03.58Zm3.73.06v1.3c0,1.93-.26,2.56-.84,3.25-.52.63-1.32.97-1.91,1.17l-.52-.55c.74-.18,1.42-.51,1.92-1.07.57-.67.67-1.32.67-2.83v-1.27c0-.27-.02-.5-.04-.7h.75c-.02.2-.02.43-.02.7Z"/>
      <path class="cls-1" d="m114.93,93.88c1.24-.78,2.21-1.97,2.68-2.95l.39.68c-.55,1-1.48,2.09-2.7,2.86-.8.51-1.81,1-3.15,1.24l-.43-.66c1.4-.21,2.45-.7,3.21-1.17Zm-.47-2.54l-.51.51c-.4-.42-1.4-1.28-2-1.68l.46-.49c.57.38,1.6,1.21,2.05,1.66Z"/>
      <path class="cls-1" d="m121.85,90.14c-.06.11-.12.22-.18.34h2.17c.22,0,.39-.02.52-.07l.53.32c-.06.11-.14.3-.18.42-.22.81-.71,1.89-1.42,2.77-.73.89-1.69,1.62-3.19,2.18l-.59-.53c1.48-.43,2.48-1.16,3.21-2.01.62-.73,1.12-1.77,1.28-2.5h-2.71c-.49.68-1.16,1.4-2.04,1.97l-.55-.41c1.38-.83,2.17-2,2.52-2.71.08-.14.2-.43.25-.64l.74.25c-.13.21-.27.48-.35.63Zm3.17.09l-.43.19c-.16-.32-.43-.81-.65-1.11l.43-.18c.2.29.49.77.66,1.1Zm.9-.33l-.43.19c-.18-.34-.44-.8-.67-1.1l.43-.18c.21.3.52.79.67,1.09Z"/>
      <path class="cls-1" d="m127.96,94.54c.38.59,1.08.86,2,.9.88.03,2.66,0,3.6-.06-.06.14-.17.43-.19.61-.88.03-2.52.05-3.4.02-1.04-.04-1.76-.33-2.27-.95-.39.34-.79.68-1.21,1.03l-.32-.6c.37-.24.82-.58,1.22-.92v-2.03h-1.12v-.56h1.7v2.56Zm-.25-3.88c-.25-.39-.84-.92-1.36-1.27l.44-.36c.51.34,1.12.85,1.4,1.24l-.47.39Zm3.34-1.42c.19,2.45.82,4.34,2.42,5.17-.14.1-.35.3-.47.45-1.12-.66-1.77-1.79-2.13-3.25-.42,1.44-1.1,2.53-2.13,3.25-.1-.11-.33-.34-.47-.44,1.17-.75,1.85-2,2.17-3.64l.26.04c-.06-.33-.1-.67-.14-1.02h-1.46v-.56h1.95Z"/>
      <path class="cls-1" d="m136.42,89.69c.43,0,1.48-.06,1.81-.08.15-.02.3-.05.4-.09l.4.33c-.07.09-.14.17-.21.26-.23.36-.58,1.18-.92,1.93.81.09,1.56.35,2.21.64.03-.2.05-.4.06-.59,0-.24.02-.51,0-.74l.65.07c-.02.57-.08,1.08-.17,1.55.39.22.71.43.97.62l-.3.69c-.24-.21-.52-.42-.83-.63-.33,1.04-.95,1.81-2.11,2.38l-.53-.44c1.27-.54,1.85-1.4,2.1-2.26-.67-.38-1.46-.67-2.3-.74-.31.71-.71,1.65-1.01,2.1-.29.41-.59.55-1.01.55-.59,0-1.04-.43-1.04-1.1,0-1.18,1.09-2.09,2.67-2.13.28-.63.59-1.33.83-1.83-.32.02-1.3.06-1.67.08-.18,0-.4.03-.59.05l-.03-.65c.21.02.44.02.6.02Zm-.75,4.92c.18,0,.31-.07.48-.28.29-.38.59-1.12.88-1.75-1.17.09-1.84.79-1.84,1.49,0,.35.23.54.48.54Z"/>
      <path class="cls-1" d="m142.96,96.32l-.48-.25c.92-.96,1.49-2.14,1.49-3.57s-.57-2.62-1.49-3.57l.48-.25c.96.98,1.6,2.25,1.6,3.82s-.63,2.84-1.6,3.82Z"/>
    </g>
    <g>
      <path class="cls-1" d="m3,6.18H0v-3h3v3Z"/>
      <path class="cls-1" d="m3,18.42H0v-3h3v3Z"/>
      <path class="cls-1" d="m3,30.67H0v-3h3v3Z"/>
      <path class="cls-1" d="m3,42.92H0v-3h3v3Z"/>
      <path class="cls-1" d="m3,55.16H0v-3h3v3Z"/>
      <path class="cls-1" d="m3,91.9H0v-3h3v3Z"/>
    </g>
  </g>
</svg>