<?xml version="1.0" encoding="UTF-8"?>
<svg id="_レイヤー_2" data-name="レイヤー 2" xmlns="http://www.w3.org/2000/svg" viewBox="0 0 298.06 153.9">
  <defs>
    <style>
      .cls-1 {
        fill: #fff;
      }

      .cls-2 {
        fill: #231815;
      }

      .cls-3 {
        fill: #686868;
      }
    </style>
  </defs>
  <g id="_レイヤー_1-2" data-name="レイヤー 1">
    <g>
      <path class="cls-2" d="m29.69,12.94l-3.31-6.47,3.31-6.47.52.18-3.24,6.29,3.24,6.29-.52.18Zm2.09,0l-3.31-6.47,3.31-6.47.52.18-3.24,6.29,3.24,6.29-.52.18Z"/>
      <path class="cls-2" d="m40.55,11.7c.8.17,1.71.24,2.67.24.36,0,2.83,0,3.36-.01-.13.15-.25.48-.28.67h-3.12c-3.1,0-5.31-.53-6.58-3.19-.49,1.44-1.22,2.59-2.21,3.47-.11-.11-.39-.34-.56-.45,1.6-1.26,2.4-3.29,2.73-5.88l.67.06c-.1.69-.21,1.32-.36,1.92.62,1.67,1.65,2.55,3.01,3v-6.43h-3.78v-.64h8.41v.64h-3.95v2.68h4.36v.64h-4.36v3.29Zm-5.39-7.09h-.67V1.83h5.38V.13h.69v1.71h5.42v2.77h-.69v-2.13h-10.13v2.13Z"/>
      <path class="cls-2" d="m53.22,8.29v3.59h-3.35v.7h-.62v-4.02c-.29.17-.59.32-.88.45-.08-.15-.25-.38-.38-.49,1.11-.45,2.24-1.21,3.17-2.2-.52-.39-1.05-.79-1.54-1.13-.34.38-.69.71-1.04.99-.1-.1-.35-.32-.5-.39,1.07-.8,2.02-1.99,2.56-3.26l.6.14c-.14.32-.31.63-.48.94h2.09l.13-.04.41.21c-.32.92-.8,1.74-1.39,2.47.88.67,1.68,1.34,2.21,1.88l-.43.48c-.5-.52-1.29-1.22-2.16-1.9-.59.63-1.25,1.18-1.93,1.61h3.53Zm-4.13-4.96h-.6v-1.88h2.47V.13h.63v1.33h2.47v1.88h-.6v-1.29h-4.36v1.29Zm.78,5.53v2.42h2.73v-2.42h-2.73Zm.55-4.72c-.14.21-.28.41-.43.6.5.35,1.04.73,1.55,1.12.43-.52.79-1.11,1.05-1.72h-2.17Zm6.3,6.82c-.71.71-1.88,1.43-2.9,1.82-.1-.13-.31-.35-.46-.48,1.04-.38,2.19-1.05,2.72-1.67l.64.32Zm.04-7.94c.13-.48.27-1.06.38-1.57h-2.84v-.62h6.44v.62h-2.87c-.14.53-.29,1.09-.45,1.57h2.94v7.2h-5.48V3.03h1.88Zm2.94.57h-4.19v1.62h4.19v-1.62Zm0,2.2h-4.19v1.62h4.19v-1.62Zm0,2.19h-4.19v1.67h4.19v-1.67Zm-1.02,2.7c.85.5,1.92,1.26,2.46,1.78l-.55.39c-.52-.52-1.57-1.3-2.42-1.82l.5-.35Z"/>
      <path class="cls-2" d="m65.16,2.46h6.79c.31,0,.63,0,.94-.01-.01.29-.03.69-.03.95v7.23c0,.5.03,1.08.04,1.18h-.81c.01-.07.03-.42.03-.81h-7.1c-.59,0-1.13.01-1.46.04v-.84c.28.03.88.07,1.44.07h7.12V3.18h-6.95c-.49,0-1.13.03-1.43.04v-.83c.43.04.98.07,1.42.07Z"/>
      <path class="cls-2" d="m78.77,6.04h7.76c.73,0,1.15-.03,1.43-.06v.87c-.25-.01-.77-.04-1.41-.04h-7.77c-.77,0-1.4.01-1.78.04v-.87c.36.03.95.06,1.78.06Z"/>
      <path class="cls-2" d="m99.69,2.96c-.49,1.29-1.44,3.04-2.45,4.27,1.53,1.3,3.22,3.11,4.19,4.27l-.6.53c-.95-1.22-2.58-2.98-4.05-4.29-1.54,1.65-3.43,3.22-5.6,4.19l-.56-.6c2.26-.9,4.27-2.55,5.79-4.23.97-1.11,2.1-2.93,2.47-4.19h-5.87c-.45,0-1.22.06-1.28.06v-.83c.08,0,.84.07,1.28.07h5.67c.36,0,.63-.03.81-.08l.46.36c-.07.1-.21.34-.25.46Z"/>
      <path class="cls-2" d="m106.46,6.47l-3.24-6.29.52-.18,3.32,6.47-3.32,6.47-.52-.18,3.24-6.29Zm2.09,0l-3.24-6.29.52-.18,3.32,6.47-3.32,6.47-.52-.18,3.24-6.29Z"/>
      <path class="cls-2" d="m36.79,35.34c-.32,1.39-.97,2.9-2.02,4.03-1.5,1.62-3.24,2.38-5.01,2.86l-.56-.64c1.9-.38,3.71-1.29,4.97-2.63.91-.97,1.54-2.34,1.81-3.5h-7.84c-.32,0-.76.01-1.2.04v-.8c.45.06.87.08,1.2.08h7.65c.24,0,.49-.03.63-.08l.53.32c-.06.1-.13.24-.15.32Zm-7.49-3.73h5.59c.43,0,.81-.01,1.12-.06v.77c-.31-.03-.69-.03-1.13-.03h-5.58c-.41,0-.77.01-1.13.03v-.77c.35.04.7.06,1.13.06Z"/>
      <path class="cls-2" d="m45.32,34.3c1.49-.95,2.77-2.04,3.78-3.25l.59.55c-1.08,1.13-2.33,2.18-3.81,3.17v6.07c0,.46.03,1.05.07,1.29h-.87c.03-.22.06-.83.06-1.29v-5.6c-1.47.88-3.49,1.78-5.55,2.42l-.38-.69c2.38-.66,4.57-1.69,6.11-2.66Z"/>
      <path class="cls-2" d="m53.85,32.42c0-.34-.03-.92-.1-1.33h.9c-.04.39-.08,1-.08,1.33v2.42c1.83.56,4.46,1.57,6.07,2.37l-.31.74c-1.55-.85-4.2-1.86-5.76-2.34.01,2.31.01,4.71.01,5,0,.48.01,1.09.07,1.49h-.87c.06-.38.07-.98.07-1.49v-8.19Z"/>
      <path class="cls-2" d="m75.62,30.38l-12.57,12.56-.38-.38,12.56-12.56.38.38Z"/>
      <path class="cls-2" d="m86.47,32.96c-.49,1.29-1.44,3.04-2.45,4.27,1.53,1.3,3.22,3.11,4.19,4.27l-.6.53c-.95-1.22-2.58-2.98-4.05-4.29-1.54,1.65-3.43,3.22-5.6,4.19l-.56-.6c2.26-.9,4.27-2.55,5.79-4.23.97-1.11,2.1-2.93,2.47-4.19h-5.87c-.45,0-1.22.06-1.28.06v-.83c.08,0,.84.07,1.28.07h5.67c.36,0,.63-.03.81-.08l.46.36c-.07.1-.21.34-.25.46Z"/>
      <path class="cls-2" d="m95.54,31.76c-.13.24-.28.5-.45.77h4.33c.35,0,.57-.03.74-.1l.63.36c-.08.15-.2.45-.24.59-.39,1.4-1.19,3.14-2.27,4.58.59.43,1.13.85,1.61,1.25l-.52.6c-.43-.39-.98-.83-1.57-1.28-1.23,1.43-3.03,2.79-5.52,3.7l-.64-.57c2.31-.69,4.29-2.07,5.59-3.56-1.05-.77-2.21-1.54-3.22-2.17l.48-.48c1.04.6,2.17,1.34,3.21,2.09,1.02-1.36,1.81-3.04,2.13-4.34h-5.17c-.84,1.22-2.06,2.61-3.71,3.74l-.6-.46c2.37-1.49,3.89-3.7,4.51-5.01.1-.2.28-.6.34-.88l.83.27c-.17.29-.36.67-.48.91Z"/>
      <path class="cls-2" d="m109.16,38.99c2.02-1.3,3.66-3.35,4.41-4.99l.43.76c-.9,1.64-2.38,3.53-4.43,4.85-1.39.9-3.14,1.81-5.69,2.31l-.48-.74c2.59-.39,4.43-1.33,5.74-2.19Zm-1.33-4.38l-.55.56c-.7-.7-2.42-2.2-3.47-2.88l.49-.52c1,.66,2.79,2.12,3.53,2.84Z"/>
      <path class="cls-2" d="m120.84,32.09c-.13.24-.28.5-.45.78h4.34c.34,0,.56-.04.74-.11l.62.36c-.08.15-.18.45-.24.6-.38,1.4-1.18,3.12-2.27,4.57.59.43,1.15.85,1.62,1.25l-.52.6c-.43-.39-.98-.83-1.57-1.27-1.23,1.43-3.03,2.79-5.53,3.7l-.63-.57c2.3-.69,4.27-2.09,5.58-3.56-1.05-.77-2.2-1.54-3.21-2.16l.48-.49c1.04.6,2.16,1.34,3.19,2.09,1.02-1.34,1.81-3.03,2.13-4.34h-5.17c-.84,1.22-2.04,2.61-3.71,3.75l-.6-.46c2.38-1.5,3.91-3.71,4.51-5.03.1-.18.28-.6.35-.88l.83.27c-.18.29-.36.67-.49.91Zm5.53.46l-.55.25c-.27-.56-.77-1.41-1.15-1.93l.53-.24c.35.49.85,1.32,1.16,1.92Zm1.5-.53l-.55.25c-.31-.63-.77-1.4-1.18-1.92l.52-.24c.38.5.92,1.36,1.21,1.91Z"/>
      <path class="cls-2" d="m131.14,36.04h7.76c.73,0,1.15-.03,1.43-.06v.87c-.25-.01-.77-.04-1.41-.04h-7.77c-.77,0-1.4.01-1.78.04v-.87c.36.03.95.06,1.78.06Z"/>
      <path class="cls-2" d="m144.9,32.59c0-.34-.01-.92-.08-1.33h.9c-.04.39-.08,1.01-.08,1.33v2.42c1.85.56,4.44,1.58,6.05,2.38l-.31.74c-1.54-.85-4.19-1.86-5.74-2.34.01,2.33.01,4.69.01,4.99,0,.48.01,1.11.06,1.5h-.85c.04-.39.06-.99.06-1.5v-8.19Zm5.8,1.43l-.56.27c-.31-.64-.83-1.54-1.25-2.12l.53-.25c.34.46.95,1.43,1.28,2.1Zm1.65-.69l-.56.27c-.32-.64-.85-1.51-1.29-2.1l.53-.25c.34.45.97,1.42,1.32,2.09Z"/>
      <path class="cls-2" d="m167,30.38l-12.57,12.56-.38-.38,12.56-12.56.38.38Z"/>
      <path class="cls-2" d="m179.32,30.35c.84,0,1.51.67,1.51,1.51s-.67,1.5-1.51,1.5c-.27,0-.5-.07-.71-.18v.07c-.29,1.53-1.02,3.82-2.09,5.2-1.29,1.62-2.84,2.86-5.45,3.67l-.62-.67c2.68-.7,4.24-1.88,5.45-3.43,1.02-1.32,1.75-3.49,1.95-4.92h-7.55c-.5,0-.87.03-1.23.04v-.81c.36.04.78.08,1.25.08h7.34c.08,0,.18,0,.27-.01-.07-.15-.1-.34-.1-.53,0-.84.66-1.51,1.5-1.51Zm0,2.49c.55,0,1-.43,1-.98s-.45-1.01-1-1.01-.99.46-.99,1.01.45.98.99.98Z"/>
      <path class="cls-2" d="m183.67,40.86v-8.25c0-.28-.04-.88-.08-1.09h.9c-.04.24-.08.76-.08,1.08v8.35c2.91-.7,6.23-2.58,7.94-4.86l.42.62c-1.76,2.24-4.64,3.99-8.24,4.97-.13.04-.29.1-.45.17l-.5-.42c.07-.15.1-.31.1-.56Z"/>
      <path class="cls-2" d="m203.58,41.28l-.31.69c-1.83-.84-5.86-1.76-8.12-2.12l.28-.67c2.31.36,6.25,1.3,8.15,2.1Zm-.45-4.55l-.31.69c-1.64-.66-4.96-1.4-6.89-1.68l.28-.67c1.86.34,5.17,1.01,6.92,1.67Zm.9-3.71l-.29.7c-1.74-.64-5.24-1.39-7.14-1.64l.27-.67c1.81.24,5.41.99,7.17,1.61Z"/>
      <path class="cls-2" d="m217.75,32.7c-.5.87-1.83,2.69-3.56,3.88l-.62-.5c1.39-.77,2.84-2.47,3.35-3.43h-8.38c-.49,0-1.04.03-1.53.06v-.85c.46.06,1.04.11,1.53.11h8.33c.2,0,.55-.04.7-.07l.46.45c-.1.1-.21.24-.29.36Zm-9.16,9.46l-.67-.56c.34-.1.81-.34,1.13-.53,2.4-1.39,2.69-3.68,2.69-6.04,0-.28-.01-.56-.04-.87h.8c0,3.98-.48,6.37-3.91,8Z"/>
      <path class="cls-2" d="m225.22,32.56c-.38,1.28-1.93,6.09-2.62,7.8,2.27-.2,5.45-.56,6.99-.77-.6-1.16-1.3-2.35-1.85-3.07l.66-.31c.97,1.39,2.56,4.24,3.11,5.62l-.74.34c-.18-.5-.48-1.19-.84-1.92-2.09.25-7.05.83-8.98,1-.35.03-.69.07-1.08.13l-.14-.84c.39.01.78,0,1.18-.03.25-.01.55-.04.88-.07.73-1.77,2.31-6.7,2.7-8.01.15-.62.21-.88.24-1.19l.91.18c-.11.31-.24.57-.42,1.15Z"/>
      <path class="cls-2" d="m37.44,61.06v11.72h-.69v-1.01h-7.84v1.01h-.67v-11.72h9.2Zm-8.53.66v2.68h7.84v-2.68h-7.84Zm0,3.32v2.7h7.84v-2.7h-7.84Zm7.84,6.08v-2.72h-7.84v2.72h7.84Z"/>
      <path class="cls-2" d="m45.06,67.96c-.21-.43-.83-1.4-1.28-2.1v6.93h-.64v-7.26c-.52,1.74-1.25,3.52-1.96,4.54-.1-.17-.28-.43-.42-.56.91-1.22,1.85-3.6,2.28-5.65h-2v-.63h2.1v-3.11h.64v3.11h1.68v.63h-1.68v1.16c.39.49,1.44,2.03,1.7,2.41l-.42.52Zm2.69,2c-.55.81-1.46,1.67-2.33,2.27-.13-.13-.31-.29-.46-.41.87-.56,1.79-1.44,2.26-2.17l.53.31Zm2.06-.71v2.79c0,.38-.07.57-.38.67-.32.11-.88.11-1.82.11-.04-.17-.14-.41-.24-.59.81.03,1.39.03,1.57.01.2-.01.24-.07.24-.22v-2.77h-3.7v-.62h8.1v.62h-3.77Zm-1.65-7.89h-2.62v-.59h8.05v.59h-2.63v1.18h2.28v3.22h-7.23v-3.22h2.14v-1.18Zm-1.82,6v-.57h6.56v.57h-6.56Zm.28-2.17h1.57v-2.07h-1.57v2.07Zm3.74-3.82h-1.61v1.18h1.61v-1.18Zm-1.61,1.75v2.07h1.61v-2.07h-1.61Zm3.88,0h-1.71v2.07h1.71v-2.07Zm-.98,6.6c.73.66,1.61,1.57,2.03,2.16l-.5.38c-.42-.59-1.28-1.54-2.02-2.21l.49-.32Z"/>
      <path class="cls-2" d="m61.81,61.12c.11,1.71.88,8.59,6.28,11.01-.18.14-.41.38-.52.56-3.96-1.85-5.46-6.05-6.04-8.94-.49,2.96-1.86,6.92-5.86,8.94-.11-.17-.34-.38-.52-.52,5.76-2.79,5.87-9.69,5.97-11.56h.71l-.03.5Z"/>
      <path class="cls-2" d="m81.38,63.36c-.36,2.38-.94,4.31-1.85,5.87.73,1.34,1.67,2.4,2.86,3.03-.17.13-.38.38-.49.56-1.15-.66-2.06-1.68-2.77-2.94-.85,1.22-1.97,2.2-3.45,2.97-.07-.15-.27-.43-.41-.57l-.14.14c-.46-.36-1.08-.76-1.76-1.15-.81.71-1.93,1.21-3.43,1.54-.04-.17-.2-.42-.34-.57,1.37-.27,2.39-.67,3.15-1.29-.55-.28-1.13-.55-1.72-.78-.08.15-.17.31-.25.45l-.59-.24c.32-.56.73-1.32,1.11-2.09h-1.72v-.6h2.03c.22-.46.43-.92.62-1.33l.42.1v-2.38c-.71.97-1.74,1.88-2.7,2.4-.08-.17-.25-.41-.39-.55,1.06-.46,2.21-1.47,2.89-2.49h-2.82v-.59h3.03v-2.72h.64v2.72h2.98v.59h-2.98v.21c.59.36,2.2,1.43,2.59,1.71l-.39.52c-.39-.35-1.49-1.15-2.2-1.65v2.3h-.42c-.17.36-.36.77-.56,1.18h4.02v.6h-1.33c-.2,1.02-.57,1.86-1.18,2.54.7.36,1.3.76,1.78,1.11l-.29.32c1.51-.74,2.63-1.75,3.47-3.05-.64-1.33-1.12-2.89-1.47-4.59-.35.85-.76,1.61-1.23,2.26-.11-.11-.42-.32-.57-.43,1.18-1.5,1.95-3.84,2.37-6.3l.67.11c-.15.87-.35,1.71-.57,2.51h4.31v.63h-.9Zm-10.2-.74c-.14-.5-.53-1.29-.94-1.88l.53-.22c.42.56.83,1.33.97,1.85l-.56.25Zm.83,5.66c-.24.48-.48.94-.7,1.37.64.25,1.3.55,1.92.85.53-.59.88-1.33,1.09-2.23h-2.31Zm3.78-7.54c-.38.66-.85,1.4-1.25,1.89l-.48-.25c.36-.52.87-1.34,1.13-1.93l.59.29Zm1.93,2.73c.31,1.85.77,3.57,1.44,5.03.74-1.4,1.21-3.1,1.53-5.14h-2.93l-.04.11Z"/>
      <path class="cls-2" d="m88.09,66.47c0,.73-.59,1.32-1.32,1.32s-1.32-.59-1.32-1.32.59-1.32,1.32-1.32,1.32.59,1.32,1.32Z"/>
      <path class="cls-2" d="m96.1,67.51c-.25,2.87-1.05,4.48-4.33,5.29-.06-.15-.25-.43-.39-.57,3.12-.71,3.82-2.16,4.03-4.72h.69Zm7.59-5.84v.64h-5.74v1.7h4.5v.62h-9.55v-.62h4.37v-1.7h-5.65v-.64h5.65v-1.54h.69v1.54h5.74Zm-1.19,6.82v-1.86h-9.76v1.86h-.66v-2.49h11.09v2.49h-.67Zm-.15,3.38c.55,0,.63-.24.69-1.91.15.11.42.22.63.28-.1,1.82-.29,2.25-1.26,2.25h-2.2c-1.05,0-1.34-.2-1.34-1.06v-3.95h.67v3.95c0,.36.11.43.7.43h2.12Z"/>
      <path class="cls-2" d="m118.19,71.49v.67h-12.42v-.67h5.38v-11.12h.7v4.48h5.39v.66h-5.39v5.98h6.34Z"/>
      <path class="cls-2" d="m130.89,61.06v11.72h-.69v-1.01h-7.84v1.01h-.67v-11.72h9.2Zm-8.53.66v2.68h7.84v-2.68h-7.84Zm0,3.32v2.7h7.84v-2.7h-7.84Zm7.84,6.08v-2.72h-7.84v2.72h7.84Z"/>
      <path class="cls-2" d="m138.51,67.96c-.21-.43-.83-1.4-1.28-2.1v6.93h-.64v-7.26c-.52,1.74-1.25,3.52-1.96,4.54-.1-.17-.28-.43-.42-.56.91-1.22,1.85-3.6,2.28-5.65h-2v-.63h2.1v-3.11h.64v3.11h1.68v.63h-1.68v1.16c.39.49,1.44,2.03,1.7,2.41l-.42.52Zm2.69,2c-.55.81-1.46,1.67-2.33,2.27-.13-.13-.31-.29-.46-.41.87-.56,1.79-1.44,2.26-2.17l.53.31Zm2.06-.71v2.79c0,.38-.07.57-.38.67-.32.11-.88.11-1.82.11-.04-.17-.14-.41-.24-.59.81.03,1.39.03,1.57.01.2-.01.24-.07.24-.22v-2.77h-3.7v-.62h8.1v.62h-3.77Zm-1.65-7.89h-2.62v-.59h8.05v.59h-2.63v1.18h2.28v3.22h-7.23v-3.22h2.14v-1.18Zm-1.82,6v-.57h6.56v.57h-6.56Zm.28-2.17h1.57v-2.07h-1.57v2.07Zm3.74-3.82h-1.61v1.18h1.61v-1.18Zm-1.61,1.75v2.07h1.61v-2.07h-1.61Zm3.88,0h-1.71v2.07h1.71v-2.07Zm-.98,6.6c.73.66,1.61,1.57,2.03,2.16l-.5.38c-.42-.59-1.28-1.54-2.02-2.21l.49-.32Z"/>
      <path class="cls-2" d="m151.3,70.21c.74,1.12,2.12,1.62,3.89,1.7,1.47.07,4.65.03,6.19-.07-.1.15-.2.46-.22.67-1.47.06-4.45.08-5.95.03-1.92-.07-3.29-.6-4.19-1.72-.64.63-1.32,1.27-2,1.89l-.39-.64c.62-.48,1.37-1.15,2.03-1.79v-3.95h-1.91v-.64h2.55v4.54Zm-.08-6.99c-.42-.71-1.37-1.71-2.27-2.38l.5-.36c.9.64,1.86,1.62,2.31,2.33l-.55.42Zm.84.5v-.57h4.16v-1.26h-3.22v-.56h3.22v-1.2h.66v1.2h3.35v.56h-3.35v1.26h4.36v.57h-9.17Zm5.73,1.58c.27-.43.59-1.13.76-1.58l.66.22c-.29.53-.6,1.12-.87,1.53h2.7v.56h-4.16v1.12h3.56v.56h-3.56v1.27h4.26v.57h-4.26v1.55h-.66v-1.55h-4.05v-.57h4.05v-1.27h-3.28v-.56h3.28v-1.12h-3.78v-.56h2.24c-.1-.42-.41-1.04-.74-1.51l.59-.17c.34.45.66,1.06.77,1.5l-.57.18h3.49l-.42-.17Z"/>
      <path class="cls-2" d="m174.7,64.8c-.6,1.83-1.46,3.42-2.52,4.75.59,1.57,1.34,2.48,2.21,2.48.45,0,.63-.74.73-2.65.15.14.41.29.59.35-.15,2.26-.42,2.98-1.36,2.98-1.12,0-2-.97-2.66-2.58-.94,1.02-2,1.89-3.24,2.59-.1-.14-.34-.41-.49-.53,1.34-.71,2.51-1.64,3.46-2.77-.53-1.62-.88-3.73-1.06-6.09h-5.32v2.03h3.66s-.01.24-.01.34c-.07,3.26-.15,4.41-.43,4.76-.18.21-.39.29-.76.31-.36.03-1.01.01-1.71-.03-.03-.2-.1-.46-.21-.63.73.07,1.42.07,1.65.07.21,0,.36-.03.45-.14.21-.22.28-1.23.35-4.05h-2.98v.52c0,1.91-.21,4.55-1.48,6.36-.13-.13-.38-.35-.55-.43,1.21-1.74,1.34-4.12,1.34-5.94v-3.82h5.97c-.04-.83-.07-1.67-.08-2.52h.69c0,.87.03,1.71.07,2.52h4.61v.66h-4.57c.17,2.16.46,4.01.91,5.46.87-1.19,1.57-2.59,2.09-4.16l.67.17Zm-.24-2.37c-.57-.5-1.71-1.23-2.65-1.69l.39-.43c.94.46,2.07,1.15,2.65,1.65l-.39.48Z"/>
      <path class="cls-2" d="m64.42,98.84l.38.59c-1.23.95-2.44,2.33-3.22,3.56-.78-1.23-1.99-2.61-3.22-3.56l.38-.59c.94.7,1.89,1.72,2.49,2.52v-11.33h.7v11.33c.6-.8,1.56-1.82,2.49-2.52Z"/>
    </g>
    <path class="cls-2" d="m7.12,10.15H0V3.03h7.12v7.12Z"/>
    <rect class="cls-3" x="20.53" y="115.71" width="277.53" height="38.19"/>
    <g>
      <path class="cls-1" d="m100.39,140.54l.67-.45c.54.92,1.17,1.27,2.07,1.27,1.29,0,1.92-.75,1.92-2.5v-7.81h.9v7.9c0,1.8-.76,3.23-2.79,3.23-1.26,0-2.19-.57-2.78-1.64Z"/>
      <path class="cls-1" d="m109.39,133.98h.72l.11,1.49h.03c.54-1,1.33-1.7,2.27-1.7.31,0,.55.05.81.18l-.18.78c-.27-.1-.42-.13-.74-.13-.71,0-1.56.53-2.14,2.01v5.37h-.87v-8Z"/>
      <path class="cls-1" d="m114.76,141.36c0-.51.36-.83.76-.83s.76.32.76.83-.36.81-.76.81-.76-.32-.76-.81Z"/>
      <path class="cls-1" d="m125.49,131.37v1.09h2.86c.29,0,.58-.01.78-.08l.51.5c-.21.21-.46.46-.66.69-.72.9-2.04,2.22-3.51,3.21h-.01c0,1.24-.02,3.15-.02,4.18,0,.5.03,1.05.06,1.51h-.9c.04-.45.08-1.02.08-1.51,0-.96.02-2.62.02-3.69-1.43.87-3.04,1.56-5.34,2.25l-.48-.73c2.82-.69,4.67-1.65,6.06-2.57,1.46-.93,2.8-2.28,3.36-3.04h-6.71c-.51,0-1.32.02-1.75.06v-.86c.42.04,1.25.08,1.75.08h3.13v-1.09c0-.38-.01-.96-.08-1.28h.92c-.06.32-.07.9-.07,1.28Zm1.51,6.1l.51-.55c1.42.76,2.25,1.26,3.63,2.17l-.53.64c-1.3-.93-2.14-1.5-3.61-2.26Z"/>
      <path class="cls-1" d="m140.02,133.95c1.59-1.02,2.97-2.19,4.05-3.48l.63.58c-1.16,1.21-2.49,2.34-4.08,3.39v6.49c0,.5.03,1.12.08,1.38h-.93c.03-.24.06-.88.06-1.38v-6c-1.58.95-3.74,1.91-5.94,2.6l-.41-.74c2.55-.71,4.89-1.81,6.54-2.85Z"/>
      <path class="cls-1" d="m149.43,131.9v4.98c0,.38.01.83.04,1.05h-.88c.03-.21.06-.63.06-1.07v-4.96c0-.26-.03-.78-.06-1.04h.88c-.03.25-.04.75-.04,1.04Zm6.97.03v2.12c0,3.83-.41,4.89-1.47,6.21-.96,1.21-2.43,1.83-3.53,2.2l-.63-.66c1.31-.36,2.62-.96,3.57-2.07,1.09-1.3,1.26-2.58,1.26-5.7v-2.1c0-.43-.03-.84-.06-1.17h.9c-.03.33-.04.74-.04,1.17Z"/>
      <path class="cls-1" d="m169.47,132.51c-.53,1.38-1.54,3.25-2.62,4.58,1.63,1.39,3.45,3.33,4.48,4.57l-.64.57c-1.02-1.3-2.76-3.19-4.33-4.59-1.65,1.77-3.67,3.45-6,4.49l-.6-.65c2.42-.96,4.58-2.73,6.19-4.53,1.04-1.19,2.25-3.13,2.64-4.49h-6.29c-.48,0-1.3.06-1.37.06v-.89c.09,0,.9.08,1.37.08h6.08c.39,0,.67-.03.87-.09l.5.39c-.07.11-.22.36-.27.5Z"/>
      <path class="cls-1" d="m175.68,131.94c0-.36-.03-.99-.1-1.43h.96c-.04.42-.09,1.07-.09,1.43v2.59c1.97.6,4.77,1.68,6.5,2.53l-.33.8c-1.67-.92-4.5-2-6.17-2.5.02,2.47.02,5.04.02,5.35,0,.51.01,1.17.08,1.59h-.93c.06-.41.08-1.05.08-1.59v-8.77Z"/>
      <path class="cls-1" d="m186.72,135.02h9.81c.31,0,.7-.03,1.05-.06v.83c-.3-.03-.72-.04-1.05-.04h-4.33c-.03,1.65-.24,3.1-.87,4.26-.55.97-1.68,2.01-2.91,2.64l-.72-.54c1.21-.53,2.31-1.4,2.89-2.38.69-1.12.79-2.46.83-3.97h-4.69c-.47,0-.83.01-1.23.04v-.83c.39.03.76.06,1.23.06Zm1.78-3.72h5.37c.38,0,.87-.01,1.27-.08v.84c-.4-.03-.9-.04-1.27-.04h-5.34c-.48,0-.88.02-1.23.04v-.84c.39.04.73.08,1.2.08Zm8.59.65l-.58.28c-.29-.61-.83-1.51-1.23-2.08l.57-.25c.38.54.92,1.42,1.25,2.06Zm1.61-.57l-.58.27c-.33-.66-.83-1.5-1.26-2.05l.56-.25c.4.55.99,1.47,1.29,2.04Z"/>
      <path class="cls-1" d="m202.48,131.88v3.72c1.74-.4,4.3-1.18,6-1.92.42-.19.81-.39,1.14-.61l.36.79c-.35.15-.79.36-1.21.52-1.8.75-4.52,1.54-6.29,2.01v3.62c0,.84.33,1.05,1.08,1.2.5.09,1.37.15,2.14.15,1.59,0,3.81-.13,5.07-.46v.88c-1.23.18-3.48.32-5.1.32-.84,0-1.73-.03-2.33-.13-1.07-.18-1.65-.6-1.65-1.79v-8.29c0-.38-.01-.72-.07-1.02h.92c-.03.3-.06.6-.06,1.02Zm8.19.63l-.58.27c-.29-.6-.82-1.52-1.23-2.07l.57-.25c.38.53.93,1.42,1.25,2.05Zm1.61-.57l-.57.27c-.34-.66-.84-1.5-1.26-2.05l.55-.25c.41.54.99,1.47,1.28,2.04Z"/>
      <path class="cls-1" d="m222.7,135.21c-.1,1.09-.6,4.37-.81,5.65h1.8c.3,0,.74-.01,1.02-.03v.78c-.26-.01-.71-.01-.98-.01h-8.41c-.42,0-.74.01-1.11.03v-.81c.34.03.69.04,1.11.04h5.77c.21-1.15.74-4.65.76-5.5h-5.17c-.42,0-.71.01-1.04.03v-.83c.33.03.65.06,1.02.06h4.96c.21,0,.45-.03.54-.08l.6.3c-.04.11-.08.25-.08.36Z"/>
      <path class="cls-1" d="m229.59,135.81h8.31c.78,0,1.23-.03,1.53-.06v.93c-.27-.01-.83-.04-1.51-.04h-8.33c-.82,0-1.5.01-1.9.04v-.93c.39.03,1.02.06,1.9.06Z"/>
    </g>
  </g>
</svg>