<?xml version="1.0" encoding="UTF-8"?>
<svg id="_レイヤー_2" data-name="レイヤー 2" xmlns="http://www.w3.org/2000/svg" viewBox="0 0 162.36 34.21">
  <defs>
    <style>
      .cls-1 {
        fill: #231815;
      }
    </style>
  </defs>
  <g id="_レイヤー_1-2" data-name="レイヤー 1">
    <g>
      <path class="cls-1" d="m13.49,7.79l-1.86-3.9,1.86-3.9.46.15-1.81,3.75,1.81,3.75-.46.15Zm1.32,0l-1.86-3.9,1.86-3.9.45.15-1.8,3.75,1.8,3.75-.45.15Z"/>
      <path class="cls-1" d="m23.65,5.34h-3.37v1.63c0,.37-.1.55-.4.64-.3.09-.78.1-1.54.1-.04-.18-.17-.43-.26-.59.63.02,1.2.02,1.36,0,.18,0,.22-.05.22-.18v-1.61h-3.34v-.58h3.34v-.6h.32c.41-.2.84-.47,1.18-.74h-3.45v-.55h4.08l.12-.03.4.3c-.52.54-1.3,1.06-2.03,1.41v.21h3.37v.58Zm-6.58-2.03h-.59v-1.85h1.28c-.16-.31-.45-.74-.7-1.04l.52-.23c.31.34.65.82.8,1.14l-.28.14h1.71c-.1-.35-.37-.85-.62-1.22l.54-.2c.28.39.57.93.68,1.28l-.36.14h1.48c.32-.38.69-.94.89-1.33l.64.22c-.26.38-.57.78-.85,1.11h1.3v1.85h-.6v-1.3h-5.83v1.3Z"/>
      <path class="cls-1" d="m27.54,5.08c-.14-.28-.49-.82-.78-1.25v3.87h-.61v-3.7c-.34.84-.78,1.66-1.21,2.18-.06-.17-.21-.42-.31-.56.53-.59,1.11-1.66,1.44-2.62h-1.32v-.59h1.41v-1.26c-.38.08-.78.14-1.15.19-.03-.13-.12-.35-.18-.48.94-.15,2.03-.39,2.66-.67l.38.49c-.31.12-.69.24-1.1.33v1.4h1.23v.59h-1.23v.15c.26.29.98,1.21,1.15,1.44l-.38.48Zm3.78.44v2.18h-.61v-2.08l-2.73.45-.1-.59,2.83-.45V.08h.61v4.85l.98-.15.09.57-1.07.18Zm-1.61-1.11c-.3-.37-.95-.89-1.47-1.22l.38-.37c.54.33,1.19.82,1.5,1.18l-.41.41Zm.18-2.21c-.26-.35-.84-.84-1.33-1.19l.39-.36c.5.32,1.09.79,1.36,1.15l-.43.4Z"/>
      <path class="cls-1" d="m35.03,3.9l-1.8-3.75.45-.15,1.86,3.9-1.86,3.9-.45-.15,1.8-3.75Zm1.32,0l-1.8-3.75.45-.15,1.86,3.9-1.86,3.9-.45-.15,1.8-3.75Z"/>
      <path class="cls-1" d="m15.8,14.32v.54h1.38c.19,0,.38,0,.53-.05l.43.42c-.15.16-.33.35-.47.5-.42.5-1.12,1.2-1.89,1.74,0,.69,0,1.69,0,2.25,0,.29.03.66.04.92h-.76c.02-.24.05-.63.05-.92,0-.49,0-1.25,0-1.82-.78.45-1.7.82-2.83,1.16l-.4-.62c1.58-.38,2.63-.93,3.39-1.42.74-.48,1.41-1.14,1.7-1.53h-3.47c-.29,0-.77.02-1.03.03v-.7c.27.03.74.04,1.01.04h1.64v-.54c0-.23,0-.55-.04-.74h.77c-.03.18-.05.5-.05.74Zm.72,3.55l.43-.49c.79.42,1.24.69,2.02,1.21l-.43.57c-.73-.54-1.23-.87-2.02-1.29Z"/>
      <path class="cls-1" d="m23.68,15.7c.87-.54,1.71-1.27,2.28-1.97l.56.52c-.63.66-1.4,1.3-2.26,1.87v3.53c0,.32.02.73.05.89h-.82c.02-.16.05-.58.05-.89v-3.09c-.88.5-2.02,1-3.19,1.36l-.33-.65c1.45-.39,2.73-.98,3.65-1.56Z"/>
      <path class="cls-1" d="m28.81,18.01c.24-.76.25-2.43.25-3.36,0-.25-.03-.44-.06-.61h.77c0,.1-.04.35-.04.6,0,.93-.03,2.72-.26,3.55-.25.89-.79,1.71-1.49,2.3l-.63-.43c.7-.5,1.2-1.25,1.46-2.06Zm2.43,1.63v-5.01c0-.32-.04-.56-.05-.62h.77c0,.06-.03.3-.03.62v4.82c.77-.35,1.8-1.11,2.44-2.06l.39.57c-.72.98-1.88,1.84-2.85,2.32-.13.08-.23.14-.28.19l-.44-.37c.03-.13.06-.3.06-.47Z"/>
      <path class="cls-1" d="m39.56,20.54l-.39-.62c.27-.03.53-.07.72-.11,1.07-.24,2.12-1.04,2.12-2.48,0-1.26-.81-2.31-2.23-2.42-.11.78-.27,1.63-.5,2.41-.51,1.72-1.17,2.6-1.95,2.6s-1.49-.85-1.49-2.23c0-1.81,1.61-3.4,3.65-3.4s3.2,1.38,3.2,3.08-1.15,2.93-3.14,3.19Zm-2.21-1.4c.39,0,.84-.56,1.26-1.97.21-.69.38-1.49.47-2.26-1.61.2-2.59,1.57-2.59,2.71,0,1.05.49,1.52.86,1.52Z"/>
      <path class="cls-1" d="m49.69,17.81c.47.55,1.18,1.04,1.88,1.29-.14.12-.32.33-.41.48-.81-.33-1.62-1.03-2.12-1.76h-2.62c-.53.78-1.37,1.5-2.18,1.87-.09-.15-.26-.36-.4-.48.69-.28,1.41-.8,1.89-1.4h-1.81v-.53h1.66v-2.67h-1.27v-.52h1.27v-.8h.61v.8h3.04v-.8h.63v.8h1.25v.52h-1.25v2.67h1.61v.53h-1.77Zm-1.71,2.36h2.88v.53h-6.3v-.53h2.8v-.88h-1.71v-.51h1.71v-.7h.62v.7h1.75v.51h-1.75v.88Zm-1.8-5.55v.56h3.04v-.56h-3.04Zm0,1.61h3.04v-.58h-3.04v.58Zm0,1.06h3.04v-.59h-3.04v.59Z"/>
      <path class="cls-1" d="m53.6,19.81v.69h-.52v-2.58c-.11.23-.23.44-.35.64-.08-.13-.26-.41-.37-.54.57-.89.89-2.24,1.08-3.67h-.94v-.56h2.87v.44h.89v-.94h.53v.94h.74v.48h-.74v.2c.17.13.68.56.79.68l-.31.37c-.09-.12-.29-.35-.48-.55v1.35h-.53v-1.35c-.24.44-.54.85-.84,1.14-.07-.13-.19-.32-.3-.42.37-.31.76-.88,1-1.42h-.77v-.36h-1.32c-.1.67-.22,1.32-.38,1.93h1.46v3.53h-1.51Zm.98-2.99h-.98v2.44h.98v-2.44Zm3.35,3.38c.19.03.39.04.61.04.18,0,1.35,0,1.61,0-.08.13-.15.38-.18.54h-1.47c-1.09,0-1.81-.23-2.27-1.23-.2.55-.52,1.03-1.03,1.37-.08-.12-.26-.32-.38-.41.85-.54,1.09-1.55,1.17-2.56h.55c-.02.28-.06.57-.11.84.2.67.5,1.04.91,1.25v-2.5h-2.01v-.52h4.19l.1-.03.39.14c-.14.41-.32.87-.49,1.18l-.48-.18c.08-.17.16-.38.23-.59h-1.36v.99h1.62v.52h-1.62v1.16Zm.59-4.88c-.25.48-.59.93-.93,1.21-.06-.12-.19-.31-.29-.41.41-.29.82-.85,1.06-1.42h-.68v-.48h.84v-.94h.53v.94h1.01v.48h-.86c.23.56.59,1.15.98,1.44-.11.08-.26.24-.34.37-.3-.26-.58-.69-.79-1.16v1.41h-.53v-1.43Z"/>
      <path class="cls-1" d="m63.4,16.36c0,.08,0,.18,0,.28h1.57v.59h-1.61c-.02.18-.05.38-.08.56.39.39,1.41,1.52,1.66,1.81l-.42.53c-.28-.41-.94-1.2-1.39-1.71-.27.89-.78,1.79-1.73,2.47-.08-.13-.3-.37-.43-.46,1.27-.9,1.66-2.11,1.77-3.2h-1.68v-.59h1.72v-1.66h-.64c-.2.5-.42.95-.68,1.31-.11-.11-.37-.28-.51-.36.49-.64.84-1.64,1.04-2.65l.6.12c-.07.35-.16.69-.26,1h2.38v.58h-1.32v1.38Zm4.82-2.35v6.59h-.62v-.58h-1.76v.66h-.6v-6.67h2.99Zm-.62,5.43v-4.84h-1.76v4.84h1.76Z"/>
      <path class="cls-1" d="m72.15,15.18h-2.56v-.51h2.56v.51Zm-.19,5.25h-1.56v.39h-.49v-2.8h2.05v2.41Zm0-4.14h-2.01v-.49h2.01v.49Zm-2.01.61h2.01v.5h-2.01v-.5Zm2-2.83h-1.96v-.5h1.96v.5Zm-1.53,4.46v1.4h1.05v-1.4h-1.05Zm6.53-1.29c-.22.72-.54,1.36-.92,1.92.15.69.36,1.08.64,1.1.14,0,.24-.43.29-1.11.09.12.31.27.4.33-.15,1.15-.43,1.47-.71,1.46-.49-.03-.82-.47-1.04-1.25-.41.48-.87.87-1.36,1.18-.08-.1-.23-.26-.35-.35.29-.18.57-.38.83-.62h-1.75v.45h-.49v-3.22h2.29v2.72c.25-.23.48-.49.7-.79-.12-.67-.18-1.49-.23-2.45h-3.21v-.52h3.19c-.02-.85-.03-1.79-.04-2.81h.54c0,1.03,0,1.97.03,2.81h1.41v.52h-1.4c.02.67.07,1.27.13,1.77.23-.43.42-.89.56-1.4l.48.25Zm-1.96-2.56h-2.72v-.49h1.09v-.9h.58v.9h1.05v.49Zm-2.15,1.39c0-.33-.09-.82-.23-1.21l.45-.1c.15.38.24.88.26,1.2l-.48.11Zm.14,1.53v.69h1.27v-.69h-1.27Zm1.27,1.85v-.71h-1.27v.71h1.27Zm-.38-3.47c.11-.34.23-.89.28-1.26l.54.11c-.13.43-.26.94-.38,1.25l-.44-.1Zm2.86-.62c-.13-.43-.47-1.05-.83-1.5l.47-.19c.37.44.73,1.05.87,1.46l-.51.23Z"/>
      <path class="cls-1" d="m85.89,13.46l-7.54,7.54-.25-.25,7.54-7.54.25.25Z"/>
      <path class="cls-1" d="m93.59,13.99c-.19.06-.41.11-.63.17.12,2.73.39,5.17,1.47,6.25-.15.11-.36.35-.46.52-1.15-1.26-1.45-3.68-1.58-6.65-.52.11-1.09.21-1.67.29v6.18h-.62v-6.09c-.57.08-1.15.15-1.69.21v1.35c0,1.35-.14,3.33-1.27,4.72-.08-.13-.32-.33-.47-.4,1.04-1.3,1.15-3.04,1.15-4.33v-2l.55.12c1.7-.18,3.59-.48,4.65-.81l.57.45Z"/>
      <path class="cls-1" d="m99.28,20.54l-.39-.62c.27-.03.53-.07.72-.11,1.07-.24,2.12-1.04,2.12-2.48,0-1.26-.81-2.31-2.23-2.42-.11.78-.27,1.63-.5,2.41-.51,1.72-1.17,2.6-1.95,2.6s-1.49-.85-1.49-2.23c0-1.81,1.61-3.4,3.65-3.4s3.2,1.38,3.2,3.08-1.15,2.93-3.14,3.19Zm-2.21-1.4c.39,0,.84-.56,1.26-1.97.21-.69.38-1.49.47-2.26-1.61.2-2.59,1.57-2.59,2.71,0,1.05.49,1.52.86,1.52Z"/>
      <path class="cls-1" d="m106.08,18.17c-.12-.27-.41-.78-.65-1.19v3.93h-.57v-3.91c-.28.91-.64,1.79-1.02,2.33-.07-.16-.22-.39-.32-.54.52-.69,1.03-2,1.27-3.14h-1.1v-.58h1.17v-1.81h.57v1.81h.95v.58h-.95v.58c.23.31.85,1.24,1,1.46l-.34.46Zm5.23,1.39h-.54v.71c0,.29-.06.45-.28.54-.22.08-.58.08-1.13.08-.03-.14-.11-.36-.18-.5.4.02.76,0,.88,0,.1,0,.13-.04.13-.14v-.7h-2.85v1.34h-.57v-1.34h-.57v-.49h.57v-2.1h1.67v-.49h-2.09v-.48h1.15v-.56h-.79v-.46h.79v-.54h-.96v-.47h.96v-.69h.57v.69h1.35v-.69h.59v.69h1.04v.47h-1.04v.54h.91v.46h-.91v.56h1.2v.48h-2.2v.49h1.76v2.1h.54v.49Zm-3.96-2.12v.58h1.1v-.58h-1.1Zm0,1.63h1.1v-.61h-1.1v.61Zm.74-4.09h1.35v-.54h-1.35v.54Zm0,1.02h1.35v-.56h-1.35v.56Zm.94,1.44v.58h1.18v-.58h-1.18Zm1.18,1.63v-.61h-1.18v.61h1.18Z"/>
      <path class="cls-1" d="m114.01,19.23c.39.61,1.12.89,2.08.94.91.03,2.77,0,3.75-.06-.07.15-.18.44-.2.64-.91.03-2.63.05-3.54.02-1.09-.04-1.83-.34-2.37-.99-.4.35-.82.71-1.26,1.07l-.33-.63c.38-.25.85-.6,1.27-.95v-2.12h-1.16v-.59h1.77v2.67Zm-.26-4.04c-.26-.4-.88-.95-1.42-1.32l.46-.38c.54.35,1.16.89,1.46,1.29l-.49.41Zm1.72-.32c-.2.33-.42.64-.64.88-.12-.09-.38-.24-.54-.3.53-.51.96-1.27,1.21-2.05l.58.13c-.09.27-.21.54-.33.79h.97v-1.04h.61v1.04h2v.54h-2v1.06h2.36v.54h-5.33v-.54h2.37v-1.06h-1.26Zm-.36,4.61v-2.35h3.99v2.35h-3.99Zm.61-.51h2.75v-1.33h-2.75v1.33Z"/>
      <path class="cls-1" d="m128.46,13.46l-7.54,7.54-.25-.25,7.54-7.54.25.25Z"/>
      <path class="cls-1" d="m136.16,13.99c-.19.06-.41.11-.63.17.12,2.73.39,5.17,1.47,6.25-.15.11-.36.35-.46.52-1.15-1.26-1.45-3.68-1.58-6.65-.52.11-1.09.21-1.67.29v6.18h-.62v-6.09c-.57.08-1.15.15-1.69.21v1.35c0,1.35-.14,3.33-1.27,4.72-.08-.13-.32-.33-.47-.4,1.04-1.3,1.15-3.04,1.15-4.33v-2l.55.12c1.7-.18,3.59-.48,4.65-.81l.57.45Z"/>
      <path class="cls-1" d="m141.85,20.54l-.39-.62c.27-.03.53-.07.72-.11,1.07-.24,2.12-1.04,2.12-2.48,0-1.26-.81-2.31-2.23-2.42-.11.78-.27,1.63-.5,2.41-.51,1.72-1.17,2.6-1.95,2.6s-1.49-.85-1.49-2.23c0-1.81,1.61-3.4,3.65-3.4s3.2,1.38,3.2,3.08-1.15,2.93-3.14,3.19Zm-2.21-1.4c.39,0,.84-.56,1.26-1.97.21-.69.38-1.49.47-2.26-1.61.2-2.59,1.57-2.59,2.71,0,1.05.49,1.52.86,1.52Z"/>
      <path class="cls-1" d="m153.8,14.24v.55h-5.71v1.92c0,1.29-.18,3.07-1.31,4.21-.09-.11-.33-.33-.45-.42.68-.69.96-1.55,1.09-2.41-.38.22-.75.44-1.1.63l-.22-.57c.38-.16.86-.42,1.38-.69.02-.27.03-.52.03-.76v-2.47h2.58v-.94h.64v.94h3.08Zm-6.94,2.45c-.08-.41-.36-1.07-.64-1.56l.46-.22c.29.48.58,1.11.67,1.52l-.49.26Zm1.61-1.13h5.25v.54h-2.41v.86h2.15v3.28c0,.31-.06.48-.3.58-.23.09-.6.1-1.19.09-.03-.15-.12-.39-.21-.54.45.02.84.02.95,0,.13,0,.16-.03.16-.14v-2.73h-1.58c-.02.15-.04.3-.08.45.53.46,1.16,1.08,1.48,1.47l-.4.35c-.27-.35-.77-.88-1.25-1.32-.23.49-.64.97-1.36,1.35-.07-.13-.24-.31-.36-.42,1.07-.49,1.34-1.23,1.41-1.88h-1.45v3.42h-.57v-3.96h2.03v-.86h-2.28v-.54Z"/>
      <path class="cls-1" d="m156.64,14.7c-.38.75-.84,1.41-1.35,1.88-.12-.11-.4-.3-.57-.4.81-.67,1.46-1.74,1.8-2.91l.64.15c-.08.26-.17.51-.28.75h5.21v.53h-5.45Zm2.69,2.73c-.3.53-.66,1.01-1.06,1.46.6.44,1.14.89,1.5,1.27l-.49.47c-.33-.38-.85-.84-1.46-1.29-.72.68-1.55,1.24-2.42,1.66-.09-.12-.33-.37-.46-.48.88-.38,1.7-.89,2.39-1.53-.52-.37-1.07-.72-1.59-1.01l.44-.41c.51.29,1.06.62,1.6.98.38-.4.7-.84.96-1.31l.59.2Zm1.61-.88c0,2.16.13,3.77.75,3.77.17,0,.21-.48.23-1.18.12.12.3.28.43.36-.06,1.04-.19,1.42-.7,1.43-1.1,0-1.28-1.56-1.33-3.85h-4.78v-.54h5.4Zm-4.45-.67v-.52h4.8v.52h-4.8Z"/>
      <path class="cls-1" d="m15.8,27.53v.54h1.38c.19,0,.38,0,.53-.05l.43.42c-.15.16-.33.35-.47.5-.42.5-1.12,1.2-1.89,1.74,0,.69,0,1.69,0,2.25,0,.29.03.66.04.92h-.76c.02-.24.05-.63.05-.92,0-.49,0-1.25,0-1.82-.78.45-1.7.82-2.83,1.16l-.4-.62c1.58-.38,2.63-.93,3.39-1.42.74-.48,1.41-1.14,1.7-1.53h-3.47c-.29,0-.77.02-1.03.03v-.7c.27.03.74.04,1.01.04h1.64v-.54c0-.23,0-.55-.04-.74h.77c-.03.18-.05.5-.05.74Zm.72,3.55l.43-.49c.79.42,1.24.69,2.02,1.21l-.43.57c-.73-.54-1.23-.87-2.02-1.29Z"/>
      <path class="cls-1" d="m23.68,28.91c.87-.54,1.71-1.27,2.28-1.97l.56.52c-.63.66-1.4,1.3-2.26,1.87v3.53c0,.32.02.73.05.89h-.82c.02-.16.05-.58.05-.89v-3.09c-.88.5-2.02,1-3.19,1.36l-.33-.65c1.45-.39,2.73-.98,3.65-1.56Z"/>
      <path class="cls-1" d="m28.81,31.22c.24-.76.25-2.43.25-3.36,0-.25-.03-.44-.06-.61h.77c0,.1-.04.35-.04.6,0,.93-.03,2.72-.26,3.55-.25.89-.79,1.71-1.49,2.3l-.63-.43c.7-.5,1.2-1.25,1.46-2.06Zm2.43,1.63v-5.01c0-.32-.04-.56-.05-.62h.77c0,.06-.03.3-.03.62v4.82c.77-.35,1.8-1.11,2.44-2.06l.39.57c-.72.98-1.88,1.84-2.85,2.32-.13.08-.23.14-.28.19l-.44-.37c.03-.13.06-.3.06-.47Z"/>
      <path class="cls-1" d="m36.81,27.89c0-.23-.02-.61-.07-.87h.82c-.02.26-.06.62-.06.87v1.36c1.1.33,2.69.94,3.57,1.38l-.28.71c-.91-.49-2.36-1.05-3.29-1.35,0,1.25,0,2.52,0,2.76,0,.26.02.71.05.99h-.81c.04-.27.06-.68.06-.99v-4.87Z"/>
      <path class="cls-1" d="m48.51,29.71c-.23.83-.6,1.7-1.22,2.37-.88.96-1.92,1.46-2.99,1.75l-.52-.59c1.19-.24,2.23-.78,2.94-1.53.51-.54.84-1.25,1-1.85h-4.44c-.2,0-.52,0-.82.02v-.7c.31.03.59.05.82.05h4.41c.19,0,.37-.02.46-.07l.48.3c-.04.08-.09.18-.11.24Zm-4.55-2.41h3.29c.27,0,.56,0,.76-.04v.69c-.2-.02-.49-.02-.77-.02h-3.28c-.26,0-.53,0-.75.02v-.69c.22.03.49.04.75.04Z"/>
      <path class="cls-1" d="m55.82,27.65l-.32.14.41.26c-.06.12-.09.25-.13.42-.18.88-.58,2.22-1.25,3.08-.77.98-1.76,1.76-3.29,2.23l-.57-.63c1.62-.4,2.56-1.11,3.26-2.01.59-.76.98-1.92,1.1-2.73h-4.28c-.33,0-.62.02-.83.03v-.74c.23.03.56.06.84.06h4.19c.11,0,.23,0,.36-.02-.17-.33-.42-.74-.61-1l.46-.19c.19.28.49.79.66,1.1Zm1.09-.22l-.46.2c-.18-.34-.46-.82-.69-1.11l.46-.19c.21.28.51.79.69,1.1Z"/>
      <path class="cls-1" d="m58.48,31.22c.24-.76.25-2.43.25-3.36,0-.25-.03-.44-.06-.61h.77c0,.1-.04.35-.04.6,0,.93-.03,2.72-.26,3.55-.25.89-.79,1.71-1.49,2.3l-.63-.43c.7-.5,1.2-1.25,1.46-2.06Zm2.43,1.63v-5.01c0-.32-.04-.56-.05-.62h.77c0,.06-.03.3-.03.62v4.82c.77-.35,1.8-1.11,2.44-2.06l.39.57c-.72.98-1.88,1.84-2.85,2.32-.13.08-.23.14-.28.19l-.44-.37c.03-.13.06-.3.06-.47Z"/>
      <path class="cls-1" d="m72.99,26.67l-7.54,7.54-.25-.25,7.54-7.54.25.25Z"/>
      <path class="cls-1" d="m80.63,29.96c-.39,1.13-1.04,2-1.87,2.64.75.47,1.66.79,2.71.97-.13.14-.31.4-.39.58-1.12-.23-2.08-.61-2.87-1.15-.83.54-1.8.89-2.81,1.13-.07-.17-.24-.44-.36-.57.96-.19,1.87-.51,2.65-.96-.7-.59-1.25-1.35-1.66-2.26h-.69c-.05,1.21-.28,2.71-1.09,3.76-.1-.13-.35-.33-.49-.41.89-1.16.99-2.8.99-4.01v-2.05h2.83v-1.15h.64v1.15h2.41l.12-.02.47.12c-.23.63-.52,1.31-.77,1.75l-.57-.18c.15-.28.32-.68.48-1.07h-2.13v1.52h1.9l.12-.02.41.23Zm-5.28-.21h2.22v-1.52h-2.22v1.52Zm1.33.59c.37.75.89,1.4,1.55,1.91.67-.49,1.21-1.11,1.56-1.91h-3.1Z"/>
      <path class="cls-1" d="m89.79,27.83c-.12.31-.26.64-.4.89.13.05.32.1.45.12-.05.53-.23.66-.83.66h-2.02c-.89,0-1.15-.09-1.15-.6h0s-1.63.07-1.63.07l-.03-.33,1.66-.08v-.38h-2.12v1.72c0,1.2-.12,2.93-.79,4.11-.11-.1-.37-.27-.53-.33.65-1.1.71-2.68.71-3.79v-2.17h2.72v-1.24h.61v.45h2.81v.43h-2.81v.36h2.8l.1-.03.44.13Zm-5.56,1.98h5.09v1.57h-5.09v-1.57Zm4.72,3.79c0,.27-.05.38-.26.45-.2.07-.54.07-1.07.07-.03-.12-.11-.28-.18-.41.36.02.69,0,.79,0,.09,0,.13-.03.13-.12v-.35h-3.12v.88h-.59v-2.44h4.3v1.92Zm-4.15-3.16h1.65v-.32h-1.65v.32Zm0,.64h1.65v-.33h-1.65v.33Zm.43.94v.31h3.12v-.31h-3.12Zm3.12.91v-.3h-3.12v.3h3.12Zm.58-3.79c.33,0,.4-.05.44-.38-.03.05-.06.09-.08.13l-.52-.17c.08-.15.17-.34.24-.54h-2.6v.35l1.97-.09.02.33-1.99.09v.04c0,.2.08.23.59.23h1.92Zm-.2.99h-1.72v.32h1.72v-.32Zm0,.63h-1.72v.33h1.72v-.33Z"/>
      <path class="cls-1" d="m93.82,31.49c-.14-.28-.49-.82-.78-1.25v3.87h-.61v-3.7c-.34.84-.78,1.66-1.21,2.18-.06-.17-.21-.42-.31-.56.53-.59,1.11-1.66,1.44-2.62h-1.32v-.59h1.41v-1.26c-.38.08-.78.14-1.15.19-.03-.13-.12-.35-.18-.48.94-.15,2.03-.39,2.66-.67l.38.49c-.31.12-.69.24-1.1.33v1.4h1.23v.59h-1.23v.15c.26.29.98,1.21,1.15,1.44l-.38.48Zm3.78.44v2.18h-.61v-2.08l-2.73.45-.1-.59,2.83-.45v-4.95h.61v4.85l.98-.15.09.57-1.07.18Zm-1.61-1.11c-.3-.37-.95-.89-1.47-1.22l.38-.37c.54.33,1.19.82,1.5,1.18l-.41.41Zm.18-2.21c-.26-.35-.84-.84-1.33-1.19l.39-.36c.5.32,1.09.79,1.36,1.15l-.43.4Z"/>
      <path class="cls-1" d="m107.08,31.76h-3.37v1.63c0,.37-.1.55-.4.64-.3.09-.78.1-1.54.1-.04-.18-.17-.43-.26-.59.63.02,1.2.02,1.36,0,.18,0,.22-.05.22-.18v-1.61h-3.34v-.58h3.34v-.6h.32c.41-.2.84-.47,1.18-.74h-3.45v-.55h4.08l.12-.03.4.3c-.52.54-1.3,1.06-2.03,1.41v.21h3.37v.58Zm-6.58-2.03h-.59v-1.85h1.28c-.16-.31-.45-.74-.7-1.04l.52-.23c.31.34.65.82.8,1.14l-.28.14h1.71c-.1-.35-.37-.85-.62-1.22l.54-.2c.28.39.57.93.68,1.28l-.36.14h1.48c.32-.38.69-.94.89-1.33l.64.22c-.26.38-.57.78-.85,1.11h1.3v1.85h-.6v-1.3h-5.83v1.3Z"/>
      <path class="cls-1" d="m115.86,26.67l-7.54,7.54-.25-.25,7.54-7.54.25.25Z"/>
      <path class="cls-1" d="m118.75,28.36c-.17.34-.36.69-.57,1.02v4.73h-.57v-3.9c-.23.32-.48.61-.72.85-.07-.12-.25-.42-.37-.54.63-.59,1.28-1.48,1.69-2.36l.54.18h0s.9,0,.9,0c.05-.22.1-.47.15-.73h-.78v-.47h.85c.04-.23.08-.44.1-.64l.54.04c-.03.19-.06.39-.09.6h1.41v1.2h.5v.49h-3.58v-.47Zm-.14-1.66c-.41.67-1.06,1.42-1.65,1.92-.08-.13-.24-.35-.33-.47.53-.43,1.11-1.1,1.41-1.66l.57.21Zm2.5,6.46v.97h-.57v-.97h-1.98v-.48h.65v-.76h-.34v-.48h1.67v-.52h-1.48v-1.66h2.88v1.66h-.84v.52h.99v.48h-.99v.76h1.11v.48h-1.11Zm-1.58-2.68h1.91v-.79h-1.91v.79Zm1.01,2.2v-.76h-.83v.76h.83Zm-.2-5.07c-.04.26-.09.51-.13.73h1.09v-.73h-.96Zm4.05,2.21h-.74v3.59c0,.33-.05.52-.28.62-.23.1-.59.11-1.14.11-.03-.17-.1-.43-.18-.59.42,0,.78,0,.89,0,.12,0,.14-.03.14-.14v-3.59h-.91v-.58h2.22v.58Zm-.15-2.24h-1.93v-.56h1.93v.56Z"/>
      <path class="cls-1" d="m132.83,33.26v.6h-7.41v-.6h3.39v-2.12h-2.48v-.6h2.48v-1.82h-1.96c-.27.53-.56.99-.87,1.36-.12-.1-.4-.28-.57-.37.69-.74,1.22-1.89,1.55-3.08l.63.13c-.13.46-.28.91-.47,1.34h1.7v-1.61h.64v1.61h2.99v.61h-2.99v1.82h2.68v.6h-2.68v2.12h3.39Z"/>
      <path class="cls-1" d="m141.37,31.76h-3.37v1.63c0,.37-.1.55-.4.64-.3.09-.78.1-1.54.1-.04-.18-.17-.43-.26-.59.63.02,1.2.02,1.36,0,.18,0,.22-.05.22-.18v-1.61h-3.34v-.58h3.34v-.6h.32c.41-.2.84-.47,1.18-.74h-3.45v-.55h4.08l.12-.03.4.3c-.52.54-1.3,1.06-2.03,1.41v.21h3.37v.58Zm-6.58-2.03h-.59v-1.85h1.28c-.16-.31-.45-.74-.7-1.04l.52-.23c.31.34.65.82.8,1.14l-.28.14h1.71c-.1-.35-.37-.85-.62-1.22l.54-.2c.28.39.57.93.68,1.28l-.36.14h1.48c.32-.38.69-.94.89-1.33l.64.22c-.26.38-.57.78-.85,1.11h1.3v1.85h-.6v-1.3h-5.83v1.3Z"/>
    </g>
    <g>
      <path class="cls-1" d="m3.14,19.12H0v-3.14h3.14v3.14Z"/>
      <path class="cls-1" d="m3.14,31.88H0v-3.14h3.14v3.14Z"/>
    </g>
  </g>
</svg>