<?xml version="1.0" encoding="UTF-8"?>
<svg id="_レイヤー_2" data-name="レイヤー 2" xmlns="http://www.w3.org/2000/svg" viewBox="0 0 286.03 94.13">
  <defs>
    <style>
      .cls-1 {
        fill: none;
        stroke: #231815;
        stroke-miterlimit: 10;
      }

      .cls-2 {
        fill: #231815;
      }
    </style>
  </defs>
  <g id="_レイヤー_1-2" data-name="レイヤー 1">
    <g>
      <path class="cls-2" d="m30.79,18.02l-.42.63c-.63-.46-2.19-1.46-2.98-1.86l.41-.6c.76.41,2.45,1.44,3,1.84Zm1.93,3.43c2.28-1.33,4.08-3.11,5.21-5.07l.45.71c-1.18,1.85-3.08,3.68-5.29,4.99-1.4.84-3.28,1.46-4.62,1.75l-.41-.73c1.53-.27,3.31-.87,4.67-1.65Zm.11-6.43l-.45.6c-.6-.49-2.16-1.54-2.91-1.98l.39-.6c.77.45,2.42,1.57,2.97,1.98Z"/>
      <path class="cls-2" d="m43.39,16.04c.07.25.25.94.49,1.81,2.1-.39,4.75-.91,5.17-1.01.14-.03.31-.08.43-.14l.45.32c-.57,1.16-2.04,3.04-3,3.92l-.64-.34c.95-.81,2.07-2.19,2.61-3.1-.31.06-2.66.52-4.83.94.56,2.07,1.3,4.72,1.47,5.27.1.28.18.6.28.84l-.8.21c-.01-.27-.08-.57-.17-.9-.17-.56-.9-3.22-1.47-5.28-1.41.28-2.65.53-2.98.6l-.2-.71c.38-.03.7-.08,1.09-.15.21-.03.95-.17,1.92-.35-.24-.87-.43-1.55-.5-1.78-.1-.35-.18-.59-.29-.76l.8-.2c.04.18.1.45.18.8Z"/>
      <path class="cls-2" d="m58.12,20.82c2.02-1.3,3.66-3.35,4.41-4.99l.43.76c-.9,1.64-2.38,3.53-4.43,4.85-1.39.9-3.14,1.81-5.69,2.31l-.48-.74c2.59-.39,4.43-1.33,5.74-2.19Zm-1.33-4.38l-.55.56c-.7-.7-2.42-2.2-3.47-2.88l.49-.52c1,.66,2.79,2.12,3.53,2.84Z"/>
      <path class="cls-2" d="m75.2,12.18c.84,0,1.51.67,1.51,1.51s-.67,1.5-1.51,1.5c-.27,0-.5-.07-.71-.18v.07c-.29,1.53-1.02,3.82-2.09,5.2-1.29,1.62-2.84,2.86-5.45,3.67l-.62-.67c2.68-.7,4.24-1.88,5.45-3.43,1.02-1.32,1.75-3.49,1.95-4.92h-7.55c-.5,0-.87.03-1.23.04v-.81c.36.04.78.08,1.25.08h7.34c.08,0,.18,0,.27-.01-.07-.15-.1-.34-.1-.53,0-.84.66-1.51,1.5-1.51Zm0,2.49c.55,0,1-.43,1-.98s-.45-1.01-1-1.01-.99.46-.99,1.01.45.98.99.98Z"/>
      <path class="cls-2" d="m80.18,17.86h7.76c.73,0,1.15-.03,1.43-.06v.87c-.25-.01-.77-.04-1.41-.04h-7.77c-.77,0-1.4.01-1.78.04v-.87c.36.03.95.06,1.78.06Z"/>
      <path class="cls-2" d="m36.59,45.08c-.29,1.53-1.01,3.82-2.07,5.2-1.29,1.62-2.84,2.86-5.45,3.67l-.62-.67c2.68-.7,4.24-1.88,5.45-3.43,1.02-1.32,1.75-3.49,1.95-4.92h-7.55c-.5,0-.88.03-1.23.04v-.81c.36.04.78.08,1.25.08h7.34c.18,0,.35,0,.55-.06l.55.35c-.07.15-.11.28-.15.55Zm.14-1.16l-.55.27c-.28-.57-.79-1.4-1.13-1.88l.53-.24c.32.46.85,1.32,1.15,1.85Zm1.74-.35l-.55.24c-.32-.57-.78-1.39-1.16-1.85l.55-.24c.32.45.85,1.29,1.16,1.85Z"/>
      <path class="cls-2" d="m41.61,44.25h7.4c.28,0,.77,0,1.15-.03-.03.29-.03.63-.03.92v6.93c0,.39.01,1.33.03,1.54h-.79c.01-.14.01-.48.03-.83h-8.18c.01.32.01.67.03.83h-.77c.01-.24.03-1.15.03-1.54v-6.93c0-.27,0-.62-.01-.92.53.03.81.03,1.12.03Zm-.39,7.86h8.18v-7.16h-8.18v7.16Z"/>
      <path class="cls-2" d="m55.68,47.86h7.76c.73,0,1.15-.03,1.43-.06v.87c-.25-.01-.77-.04-1.41-.04h-7.77c-.77,0-1.4.01-1.78.04v-.87c.36.03.95.06,1.78.06Z"/>
      <path class="cls-2" d="m37.63,75.05c-1,1.61-2.75,3.92-5.27,5.81.87.87,1.95,2.02,2.51,2.7l-.64.5c-.49-.67-1.58-1.85-2.45-2.75-.85-.85-2.58-2.31-3.28-2.8l.57-.46c.48.34,1.79,1.4,2.76,2.3,2.35-1.71,4.15-4.03,4.88-5.34h-8.74c-.53,0-1.05.03-1.32.06v-.84c.39.06.83.08,1.32.08h8.7c.29,0,.52-.01.66-.07l.59.46c-.11.11-.21.24-.28.34Z"/>
      <path class="cls-2" d="m41.81,79.53l-.67.25c-.22-.73-1.01-2.7-1.25-3.12l.66-.27c.24.52.99,2.42,1.26,3.14Zm6.85-2.69c-.36,1.62-.98,3.15-2.02,4.44-1.29,1.61-2.98,2.66-4.5,3.24l-.6-.62c1.67-.5,3.35-1.57,4.51-3,1.01-1.25,1.75-2.98,2-4.79l.77.24c-.07.18-.13.36-.17.49Zm-3.78,1.85l-.66.25c-.14-.62-.81-2.45-1.08-3.01l.67-.22c.22.55.91,2.4,1.06,2.98Z"/>
      <path class="cls-2" d="m55.78,84.12l-.6-.57c2.44-.99,3.77-2.2,3.77-6.4v-.62h-4.38v2.48c0,.45.04,1.09.06,1.15h-.81c0-.06.06-.67.06-1.15v-2.48h-1.71c-.55,0-1.26.04-1.33.04v-.8c.06,0,.8.07,1.33.07h1.71v-2.03c0-.24-.01-.62-.06-.87h.81s-.06.42-.06.85v2.04h4.38v-1.92c0-.53-.06-.99-.06-1.05h.83c0,.06-.06.52-.06,1.05v1.92h1.83c.55,0,1.05-.06,1.12-.07v.8c-.06,0-.58-.04-1.12-.04h-1.83v.5c0,3.89-.78,5.69-3.88,7.09Z"/>
      <path class="cls-2" d="m66.87,77.86h7.76c.73,0,1.15-.03,1.43-.06v.87c-.25-.01-.77-.04-1.41-.04h-7.77c-.77,0-1.4.01-1.78.04v-.87c.36.03.95.06,1.78.06Z"/>
      <path class="cls-2" d="m82.74,78.14l-.41.63c-.63-.46-2.18-1.46-2.98-1.86l.39-.6c.77.41,2.46,1.44,3,1.83Zm1.93,3.43c2.3-1.33,4.08-3.11,5.22-5.07l.43.71c-1.16,1.85-3.07,3.68-5.28,4.99-1.4.84-3.29,1.46-4.62,1.75l-.42-.73c1.53-.27,3.31-.87,4.67-1.65Zm.11-6.43l-.43.6c-.6-.49-2.17-1.54-2.93-1.98l.41-.6c.77.45,2.42,1.57,2.96,1.97Zm4.3.39l-.56.27c-.31-.66-.88-1.64-1.3-2.21l.53-.25c.34.46,1,1.51,1.33,2.2Zm1.81-.69l-.56.27c-.32-.66-.9-1.61-1.34-2.18l.53-.25c.35.45,1.02,1.5,1.37,2.17Z"/>
    </g>
    <g>
      <path class="cls-2" d="m178.25,45.74c-.49,1.29-1.44,3.04-2.45,4.27,1.53,1.3,3.22,3.11,4.19,4.27l-.6.53c-.95-1.22-2.58-2.98-4.05-4.29-1.54,1.65-3.43,3.22-5.6,4.19l-.56-.6c2.26-.9,4.27-2.55,5.79-4.23.97-1.11,2.1-2.93,2.47-4.19h-5.87c-.45,0-1.22.06-1.28.06v-.83c.08,0,.84.07,1.28.07h5.67c.36,0,.63-.03.81-.08l.46.36c-.07.1-.21.34-.25.46Z"/>
      <path class="cls-2" d="m187.32,44.55c-.13.24-.28.5-.45.77h4.33c.35,0,.57-.03.74-.1l.63.36c-.08.15-.2.45-.24.59-.39,1.4-1.19,3.14-2.27,4.58.59.43,1.13.85,1.61,1.25l-.52.6c-.43-.39-.98-.83-1.57-1.28-1.23,1.43-3.03,2.79-5.52,3.7l-.64-.57c2.31-.69,4.29-2.07,5.59-3.56-1.05-.77-2.21-1.54-3.22-2.17l.48-.48c1.04.6,2.17,1.34,3.21,2.09,1.02-1.36,1.81-3.04,2.13-4.34h-5.17c-.84,1.22-2.06,2.61-3.71,3.74l-.6-.46c2.37-1.49,3.89-3.7,4.51-5.01.1-.2.28-.6.34-.88l.83.27c-.17.29-.36.67-.48.91Z"/>
      <path class="cls-2" d="m196.86,50.49l-.67.25c-.22-.73-1.01-2.7-1.25-3.12l.66-.27c.24.52.99,2.42,1.26,3.14Zm6.85-2.69c-.36,1.62-.98,3.15-2.02,4.44-1.29,1.61-2.98,2.66-4.5,3.24l-.6-.62c1.67-.5,3.35-1.57,4.51-3,1.01-1.25,1.75-2.98,2-4.79l.77.24c-.07.18-.13.36-.17.49Zm-3.78,1.85l-.66.25c-.14-.62-.81-2.45-1.08-3.01l.67-.22c.22.55.91,2.4,1.06,2.98Z"/>
      <path class="cls-2" d="m215.8,45.82c-.29,1.53-1.01,3.82-2.09,5.2-1.29,1.62-2.83,2.86-5.43,3.67l-.62-.67c2.68-.7,4.24-1.88,5.45-3.43,1.02-1.33,1.74-3.49,1.93-4.92h-7.54c-.5,0-.88.03-1.23.04v-.81c.36.04.78.08,1.25.08h7.34c.18,0,.35,0,.55-.06l.55.35c-.08.15-.11.28-.15.55Z"/>
      <path class="cls-2" d="m229.89,54.62c0,.53-.15.76-.52.88-.36.11-1.04.13-2.26.11-.04-.18-.15-.46-.27-.64.98.03,1.79.01,2.02,0,.27-.01.36-.1.36-.34v-10.31h-10.03v11.32h-.66v-11.96h11.35v10.94Zm-2.06-7.94h-7.17v-.62h7.17v.62Zm-5.79,6v1.08h-.63v-5.37h5.59v4.29h-4.96Zm0-3.68v3.08h4.31v-3.08h-4.31Z"/>
      <path class="cls-2" d="m238.87,48.18v5.9h5.14v.67h-10.87v-.67h5.04v-5.9h-5.83v-.66h5.83v-4.54h.69v4.54h5.9v.66h-5.9Z"/>
      <path class="cls-2" d="m247.77,45.52c.74-.1,3.59-.39,6.18-.6,1.58-.14,2.76-.21,3.67-.24v.71c-.84-.01-2.07.01-2.76.24-2.19.76-3.38,3.08-3.38,4.74,0,2.98,2.8,3.88,5.01,3.95l-.25.71c-2.4-.06-5.45-1.32-5.45-4.5,0-2.28,1.44-4.19,2.94-4.97-1.62.17-5.6.55-7.06.84l-.1-.81c.53-.01.91-.04,1.19-.07Zm8.99,3.77l-.53.25c-.29-.62-.76-1.43-1.16-1.99l.52-.24c.31.45.85,1.32,1.18,1.97Zm1.57-.56l-.53.27c-.31-.64-.78-1.43-1.2-2l.49-.24c.34.45.9,1.32,1.25,1.97Z"/>
      <path class="cls-2" d="m262.71,49.59v6h-.62v-5.97c-.87.06-1.68.1-2.37.13l-.07-.63.97-.04c.32-.39.67-.87,1.02-1.37-.42-.63-1.15-1.47-1.83-2.09l.39-.41c.17.14.32.29.49.46.49-.8,1.06-1.95,1.39-2.76l.6.25c-.46.95-1.08,2.12-1.61,2.9.36.38.69.77.94,1.12.62-.94,1.21-1.92,1.62-2.72l.6.28c-.83,1.36-1.96,3.08-2.93,4.3.77-.04,1.61-.08,2.49-.13-.22-.46-.49-.94-.76-1.34l.53-.21c.6.9,1.19,2.09,1.42,2.83l-.57.27c-.07-.27-.2-.6-.35-.95l-1.36.08Zm-1.46,1.27c-.22,1.32-.56,2.63-1.02,3.53-.11-.08-.41-.21-.56-.27.49-.87.78-2.13.97-3.38l.62.11Zm2.91,2.56c-.08-.69-.39-1.75-.74-2.56l.53-.15c.38.81.67,1.86.77,2.55l-.56.17Zm5.11-2.27c.88,1.3,2.34,2.66,3.57,3.31-.15.13-.35.35-.48.52-1.18-.71-2.58-2.07-3.49-3.43v4.03h-.66v-3.98c-.92,1.44-2.37,2.76-3.68,3.47-.11-.18-.31-.41-.48-.53,1.37-.64,2.87-2,3.77-3.39h-2.61v-4.72h3v-1.4h-3.47v-.63h3.47v-1.48h.66v1.48h3.49v.63h-3.49v1.4h3.12v4.72h-2.73Zm-3.43-2.65h2.41v-1.51h-2.41v1.51Zm0,2.07h2.41v-1.53h-2.41v1.53Zm5.52-3.59h-2.51v1.51h2.51v-1.51Zm0,2.06h-2.51v1.53h2.51v-1.53Z"/>
      <path class="cls-2" d="m278.28,47.21c-1.29.52-2.61,1.06-3.66,1.47l-.28-.57c.98-.32,2.41-.87,3.82-1.44l.11.55Zm.9-2.94h-4.53v-.59h5.16v4.62c0,.35-.08.53-.38.64-.31.11-.84.1-1.74.1-.04-.17-.14-.39-.22-.55.71.01,1.3.01,1.47,0,.18,0,.24-.06.24-.2v-4.03Zm-3.4.29c.7.36,1.51.95,1.88,1.39l-.41.46c-.39-.46-1.18-1.07-1.86-1.44l.39-.41Zm5.08,4.16c-.21.41-.43.81-.64,1.16h4.71v5.76h-.69v-.57h-7.31v.57h-.66v-5.76h3.28c.24-.42.5-.97.63-1.34l.69.18Zm3.38,1.74h-7.31v1.68h7.31v-1.68Zm0,4.02v-1.75h-7.31v1.75h7.31Zm-3.73-6.67c1.02-.34,2.54-.88,4.02-1.42l.1.53c-1.34.5-2.75,1.04-3.84,1.43l-.28-.55Zm5.52.52c0,.38-.1.56-.39.67-.31.1-.87.11-1.81.1-.03-.17-.13-.41-.21-.56.73.03,1.35.03,1.53.01.18-.01.24-.06.24-.22v-4.06h-4.61v-.59h5.25v4.65Zm-2.9-1.96c-.38-.46-1.18-1.02-1.88-1.39l.39-.41c.69.34,1.5.9,1.91,1.32l-.42.48Z"/>
    </g>
    <g>
      <path class="cls-2" d="m7.12,21.98H0v-7.12h7.12v7.12Z"/>
      <path class="cls-2" d="m7.12,50.98H0v-7.12h7.12v7.12Z"/>
      <path class="cls-2" d="m7.12,79.98H0v-7.12h7.12v7.12Z"/>
    </g>
    <polyline class="cls-1" points="133.89 .5 150.78 .5 150.78 93.63 133.89 93.63"/>
  </g>
</svg>