<?xml version="1.0" encoding="UTF-8"?>
<svg id="_レイヤー_2" data-name="レイヤー 2" xmlns="http://www.w3.org/2000/svg" viewBox="0 0 260.28 223.25">
  <defs>
    <style>
      .cls-1 {
        fill: #231815;
      }
    </style>
  </defs>
  <g id="_レイヤー_1-2" data-name="レイヤー 1">
    <g>
      <path class="cls-1" d="m33.24,1.86c-.01.18-.01.56-.01,1.02,1.32-.06,2.68-.2,3.92-.39v.67c-1.23.14-2.59.27-3.92.34v2.27c1.29-.06,2.66-.18,4.01-.39v.7c-1.37.18-2.69.29-3.99.34.03.85.07,1.71.11,2.45,1.89.5,3.39,1.58,4.16,2.2l-.42.66c-.87-.77-2.14-1.7-3.71-2.19.03.45.04.83.04,1.06,0,.84-.49,1.86-2.31,1.86s-2.94-.63-2.94-1.91c0-1.19,1.18-1.98,3.12-1.98.48,0,.92.04,1.36.13-.01-.76-.04-1.58-.07-2.28-.27.01-.55.01-.83.01-1.04,0-2.55-.08-3.6-.2v-.7c1.04.15,2.56.25,3.6.25.27,0,.55,0,.81-.01v-2.27c-.24.01-.48.01-.7.01-1.01,0-2.79-.13-3.66-.24v-.69c.85.17,2.68.31,3.64.31.24,0,.48,0,.71-.01v-1.18c0-.22-.01-.63-.04-.77h.77c-.03.22-.04.46-.06.91Zm-2.18,9.97c.85,0,1.64-.27,1.64-1.33,0-.31-.01-.7-.01-1.15-.48-.1-.97-.15-1.47-.15-1.56,0-2.37.6-2.37,1.33s.59,1.3,2.21,1.3Z"/>
      <path class="cls-1" d="m41.33,4.47c1.25-.41,3.94-1.43,5.98-1.43,2.2,0,3.95,1.28,3.95,3.49,0,3.46-3.53,4.83-7.48,5.08l-.31-.76c3.59-.11,7.03-1.23,7.03-4.34,0-1.56-1.19-2.82-3.21-2.82-2.44,0-6.15,1.62-7.06,1.96l-.35-.81c.5-.1.9-.22,1.44-.38Z"/>
      <path class="cls-1" d="m64.23,12.06c.85,0,.99-.39,1.09-2.06.18.13.46.25.67.31-.15,1.82-.39,2.41-1.78,2.41h-3.88c-1.47,0-1.91-.31-1.91-1.6v-2.4l-4.75.63-.11-.63,4.86-.64v-2.55l-4.34.62-.11-.63,4.45-.64v-2.45c-1.47.28-3.01.5-4.45.7-.01-.17-.1-.42-.18-.57,3.47-.48,7.55-1.23,9.65-2.13l.6.52c-1.29.52-3.05.98-4.94,1.34v2.51l5.5-.77.11.62-5.62.8v2.56l6.51-.87.08.63-6.6.88v2.49c0,.73.21.92,1.22.92h3.91Z"/>
      <path class="cls-1" d="m71.21,2.7l.79.15c-.07.27-.14.52-.21.8-.18.8-.67,2.97-1.32,4.48-.52,1.23-1.25,2.59-2.07,3.77l-.73-.32c.88-1.18,1.65-2.63,2.14-3.75.6-1.4,1.21-3.61,1.4-5.13Zm3.46.11l.7-.25c.53.98,1.4,2.79,2.03,4.34.6,1.44,1.34,3.54,1.71,4.75l-.76.24c-.34-1.29-1.06-3.26-1.65-4.75-.57-1.43-1.41-3.31-2.03-4.33Zm3.67-1.96c.84,0,1.51.67,1.51,1.51s-.67,1.5-1.51,1.5-1.5-.67-1.5-1.5.67-1.51,1.5-1.51Zm0,2.51c.55,0,1.01-.45,1.01-.99s-.46-1.01-1.01-1.01-.98.46-.98,1.01.43.99.98.99Z"/>
      <path class="cls-1" d="m83.71,6.19h7.76c.73,0,1.15-.03,1.43-.06v.87c-.25-.01-.77-.04-1.41-.04h-7.77c-.77,0-1.4.01-1.78.04v-.87c.36.03.95.06,1.78.06Z"/>
      <path class="cls-1" d="m106.41,3.38c-1,1.61-2.75,3.92-5.27,5.81.87.87,1.95,2.02,2.51,2.7l-.64.5c-.49-.67-1.58-1.85-2.45-2.75-.85-.85-2.58-2.31-3.28-2.8l.57-.46c.48.34,1.79,1.4,2.76,2.3,2.35-1.71,4.15-4.03,4.88-5.34h-8.74c-.53,0-1.05.03-1.32.06v-.84c.39.06.83.08,1.32.08h8.7c.29,0,.52-.01.66-.07l.59.46c-.11.11-.21.24-.28.34Z"/>
      <path class="cls-1" d="m120.76,11.64v.67h-12.42v-.67h5.38V.52h.7v4.48h5.39v.66h-5.39v5.98h6.35Z"/>
      <path class="cls-1" d="m128.97,1.99v2.69l.14-.17c1.75.84,3.98,2.14,5.11,2.97l-.43.59c-1.08-.8-3.1-2.03-4.82-2.9v7.79h-.7V1.99h-5.56v-.67h12.37v.67h-6.11Z"/>
      <path class="cls-1" d="m142.04,0l.55.34c-1.72,1.76-2.66,3.91-2.66,6.29s.94,4.52,2.66,6.29l-.55.34c-1.78-1.83-2.8-4.03-2.8-6.63s1.02-4.79,2.8-6.62Z"/>
      <path class="cls-1" d="m145.92,2.54v3.26c0,2.09-.17,5.07-1.27,7.16-.13-.11-.42-.29-.57-.38,1.08-2,1.19-4.78,1.19-6.78V1.89h5.37V.28h.69v1.61h5.49v.64h-10.88Zm10.9,9.43v.63h-10.73v-.63h4.99v-2.49h-4.06v-.62h4.06V3.15h.66v5.7h4.16v.62h-4.16v2.49h5.08Zm-7.61-8.45c-.11.66-.28,1.26-.49,1.82.71.62,1.51,1.41,1.91,1.95l-.43.42c-.38-.48-1.05-1.22-1.69-1.82-.42.92-.98,1.68-1.68,2.28-.08-.1-.36-.31-.52-.41,1.2-.97,1.93-2.45,2.27-4.33l.64.08Zm5.6,0c-.11.64-.28,1.23-.49,1.76.88.74,1.95,1.7,2.48,2.31l-.46.45c-.49-.57-1.42-1.47-2.25-2.2-.42.84-.98,1.54-1.67,2.09-.1-.1-.35-.34-.5-.43,1.2-.87,1.95-2.27,2.25-4.06l.64.08Z"/>
      <path class="cls-1" d="m171.1,8.8h-5.83v3.25c0,.48-.13.7-.56.81-.42.11-1.18.11-2.49.11-.06-.18-.2-.45-.32-.64,1.21.03,2.07.03,2.37,0,.29-.03.34-.08.34-.28v-3.25h-5.76v-.63h5.76v-1.08h.35c.92-.39,1.91-.95,2.62-1.51h-6.47v-.62h7.17l.15-.04.45.34c-.9.88-2.34,1.74-3.6,2.28v.63h5.83v.63Zm-11.26-3.19h-.64v-2.94h2.28c-.28-.56-.81-1.34-1.32-1.93l.56-.25c.55.6,1.13,1.42,1.37,1.98l-.39.21h3.21c-.18-.62-.64-1.54-1.12-2.23l.57-.21c.49.7.98,1.64,1.16,2.23l-.5.21h2.65c.57-.63,1.29-1.61,1.69-2.3l.66.27c-.48.69-1.06,1.44-1.6,2.03h2.38v2.94h-.66v-2.33h-10.31v2.33Z"/>
      <path class="cls-1" d="m177.11,6.62c0,.73-.59,1.32-1.32,1.32s-1.32-.59-1.32-1.32.59-1.32,1.32-1.32,1.32.59,1.32,1.32Z"/>
      <path class="cls-1" d="m187.51,9.19c.98,1.75,2.93,2.8,5.46,3.21-.14.14-.34.42-.43.6-2.7-.52-4.72-1.75-5.76-3.81h-.42c-.71,1.4-2.24,2.73-5.5,3.77-.06-.13-.27-.39-.41-.53,2.98-.9,4.44-2.05,5.17-3.24h-5.1v-.62h5.39c.21-.52.31-1.05.35-1.57h-4.1v-.6h4.13v-1.51h-4.36v-.59h4.36v-1.39h.66v1.39h4.5v.59h-4.5v1.51h4.36v.6h-4.38c-.04.52-.13,1.05-.31,1.57h6.22v.62h-5.32Zm-6.07-4.92h-.66V1.75h5.5V.28h.69v1.47h5.49v2.52h-.67v-1.91h-10.35v1.91Z"/>
      <path class="cls-1" d="m198.73,4.58c-1.29.52-2.61,1.06-3.66,1.47l-.28-.57c.98-.32,2.41-.87,3.82-1.44l.11.55Zm.9-2.94h-4.53v-.59h5.16v4.62c0,.35-.08.53-.38.64-.31.11-.84.1-1.74.1-.04-.17-.14-.39-.22-.55.71.01,1.3.01,1.47,0,.18,0,.24-.06.24-.2V1.64Zm-3.4.29c.7.36,1.51.95,1.88,1.39l-.41.46c-.39-.46-1.18-1.07-1.86-1.44l.39-.41Zm5.08,4.16c-.21.41-.43.81-.64,1.16h4.71v5.76h-.69v-.57h-7.31v.57h-.66v-5.76h3.28c.24-.42.5-.97.63-1.34l.69.18Zm3.38,1.74h-7.31v1.68h7.31v-1.68Zm0,4.02v-1.75h-7.31v1.75h7.31Zm-3.73-6.67c1.02-.34,2.54-.88,4.02-1.42l.1.53c-1.34.5-2.75,1.04-3.84,1.43l-.28-.55Zm5.52.52c0,.38-.1.56-.39.67-.31.1-.87.11-1.81.1-.03-.17-.13-.41-.21-.56.73.03,1.35.03,1.53.01.18-.01.24-.06.24-.22V1.64h-4.61v-.59h5.25v4.65Zm-2.9-1.96c-.38-.46-1.18-1.02-1.88-1.39l.39-.41c.69.34,1.5.9,1.91,1.32l-.42.48Z"/>
      <path class="cls-1" d="m209.54,13.25l-.55-.34c1.72-1.77,2.66-3.91,2.66-6.29s-.94-4.52-2.66-6.29l.55-.34c1.78,1.83,2.8,4.03,2.8,6.62s-1.02,4.79-2.8,6.63Z"/>
      <path class="cls-1" d="m32.39,32.13c-.01.55-.06,1.06-.1,1.55h3.75c.39,0,.62-.03.8-.04l.55.27c-.04.25-.07.46-.08.66-.04,1.25-.21,5.41-.85,6.71-.28.53-.66.71-1.33.71s-1.44-.03-2.2-.07l-.08-.76c.78.08,1.53.14,2.14.14.38,0,.67-.1.83-.43.62-1.19.78-5.02.78-6.5h-4.37c-.5,4.24-2.06,6.29-4.27,7.8l-.66-.53c.36-.18.85-.55,1.19-.84,1.43-1.21,2.65-3.04,3.05-6.43h-2.65c-.6,0-1.04,0-1.48.04v-.78c.43.03.92.06,1.47.06h2.72c.04-.48.07-.99.07-1.54,0-.32-.01-.76-.07-1.08h.85c-.03.31-.04.73-.06,1.06Z"/>
      <path class="cls-1" d="m45.95,31.76v1.46h3.56c.49,0,.7-.06.84-.1l.49.31c-.06.15-.13.43-.17.69-.15.99-.59,2.97-1.42,4.34-1.01,1.71-2.83,3.11-5.44,3.82l-.59-.66c.36-.06.77-.17,1.13-.29,1.55-.46,3.26-1.64,4.16-3.08.8-1.29,1.29-3.19,1.39-4.36h-8.35v2.76c0,.21.01.55.06.71h-.8c.03-.18.04-.52.04-.73v-2.48c0-.28,0-.71-.04-1.01.36.04.77.07,1.23.07h3.17v-1.46c0-.22-.01-.57-.06-.91h.85c-.06.34-.07.69-.07.91Z"/>
      <path class="cls-1" d="m59.3,39.15c2.02-1.3,3.66-3.35,4.41-4.99l.43.76c-.9,1.64-2.38,3.53-4.43,4.85-1.39.9-3.14,1.81-5.69,2.31l-.48-.74c2.59-.39,4.43-1.33,5.74-2.19Zm-1.33-4.38l-.55.56c-.7-.7-2.42-2.2-3.47-2.88l.49-.52c1,.66,2.79,2.12,3.53,2.84Z"/>
      <path class="cls-1" d="m69.29,35.7c-1.51.31-2.83.57-3.38.7l-.15-.78c.62-.07,1.99-.32,3.53-.62v-2.63c0-.39,0-.7-.07-1.11h.87c-.06.41-.08.73-.08,1.11v2.49c2.56-.5,5.37-1.08,5.91-1.19.25-.06.48-.13.59-.21l.52.41c-.08.13-.2.31-.28.45-.66,1.15-1.65,2.82-2.86,4.06l-.63-.38c1.12-1.05,2.21-2.73,2.65-3.63-.1.03-3.15.63-5.9,1.19v4.44c0,1.02.43,1.33,2.19,1.33s2.94-.11,4.34-.38l-.04.78c-1.3.2-2.54.29-4.43.29-2.27,0-2.77-.64-2.77-1.85v-4.48Z"/>
      <path class="cls-1" d="m81.69,32.54v4.65c0,.35.01.77.04.98h-.83c.03-.2.06-.59.06-.99v-4.64c0-.24-.03-.73-.06-.97h.83c-.03.24-.04.7-.04.97Zm6.51.03v1.97c0,3.57-.38,4.57-1.37,5.8-.9,1.13-2.27,1.71-3.29,2.06l-.59-.62c1.22-.34,2.45-.9,3.33-1.93,1.02-1.22,1.18-2.41,1.18-5.32v-1.96c0-.41-.03-.79-.06-1.09h.84c-.03.31-.04.69-.04,1.09Z"/>
      <path class="cls-1" d="m97.57,39.15c2.02-1.3,3.66-3.35,4.41-4.99l.43.76c-.9,1.64-2.38,3.53-4.43,4.85-1.39.9-3.14,1.81-5.69,2.31l-.48-.74c2.59-.39,4.43-1.33,5.74-2.19Zm-1.33-4.38l-.55.56c-.7-.7-2.42-2.2-3.47-2.88l.49-.52c1,.66,2.79,2.12,3.53,2.84Z"/>
      <path class="cls-1" d="m109.05,32.37c-.14.28-.31.57-.49.88h4.37c.34,0,.56-.03.73-.11l.63.38c-.08.15-.2.45-.24.59-.38,1.51-1.27,3.42-2.51,4.92-1.23,1.51-2.91,2.79-5.53,3.73l-.63-.59c2.4-.69,4.26-1.99,5.56-3.54,1.16-1.39,2.06-3.28,2.38-4.71h-5.2c-.8,1.16-1.95,2.44-3.57,3.5l-.62-.46c2.4-1.41,3.87-3.59,4.43-4.87.1-.2.27-.62.32-.9l.84.28c-.17.29-.35.66-.48.91Zm5.67.45l-.55.25c-.27-.56-.77-1.42-1.15-1.93l.53-.24c.35.49.85,1.33,1.16,1.92Zm1.5-.53l-.55.25c-.31-.62-.77-1.4-1.18-1.92l.52-.24c.38.5.92,1.37,1.21,1.91Z"/>
      <path class="cls-1" d="m122.05,30l.55.34c-1.72,1.76-2.66,3.91-2.66,6.29s.94,4.52,2.66,6.29l-.55.34c-1.78-1.83-2.8-4.03-2.8-6.63s1.02-4.79,2.8-6.62Z"/>
      <path class="cls-1" d="m125.93,32.54v3.26c0,2.09-.17,5.07-1.27,7.16-.13-.11-.42-.29-.57-.38,1.08-2,1.19-4.78,1.19-6.78v-3.91h5.37v-1.61h.69v1.61h5.49v.64h-10.88Zm10.9,9.43v.63h-10.73v-.63h4.99v-2.49h-4.06v-.62h4.06v-5.7h.66v5.7h4.16v.62h-4.16v2.49h5.08Zm-7.61-8.45c-.11.66-.28,1.26-.49,1.82.71.62,1.51,1.41,1.91,1.95l-.43.42c-.38-.48-1.05-1.22-1.69-1.82-.42.92-.98,1.68-1.68,2.28-.08-.1-.36-.31-.52-.41,1.2-.97,1.93-2.45,2.27-4.33l.64.08Zm5.6,0c-.11.64-.28,1.23-.49,1.76.88.74,1.95,1.7,2.48,2.31l-.46.45c-.49-.57-1.42-1.47-2.25-2.2-.42.84-.98,1.54-1.67,2.09-.1-.1-.35-.34-.5-.43,1.2-.87,1.95-2.27,2.25-4.06l.64.08Z"/>
      <path class="cls-1" d="m151.11,38.8h-5.83v3.25c0,.48-.13.7-.56.81-.42.11-1.18.11-2.49.11-.06-.18-.2-.45-.32-.64,1.21.03,2.07.03,2.37,0,.29-.03.34-.08.34-.28v-3.25h-5.76v-.63h5.76v-1.08h.35c.92-.39,1.91-.95,2.62-1.51h-6.47v-.62h7.17l.15-.04.45.34c-.9.88-2.34,1.74-3.6,2.28v.63h5.83v.63Zm-11.26-3.19h-.64v-2.94h2.28c-.28-.56-.81-1.34-1.32-1.93l.56-.25c.55.6,1.13,1.42,1.37,1.98l-.39.21h3.21c-.18-.62-.64-1.54-1.12-2.23l.57-.21c.49.7.98,1.64,1.16,2.23l-.5.21h2.65c.57-.63,1.29-1.61,1.69-2.3l.66.27c-.48.69-1.06,1.44-1.6,2.03h2.38v2.94h-.66v-2.33h-10.31v2.33Z"/>
      <path class="cls-1" d="m157.11,36.62c0,.73-.59,1.32-1.32,1.32s-1.32-.59-1.32-1.32.59-1.32,1.32-1.32,1.32.59,1.32,1.32Z"/>
      <path class="cls-1" d="m167.52,39.19c.98,1.75,2.93,2.8,5.46,3.21-.14.14-.34.42-.43.6-2.7-.52-4.72-1.75-5.76-3.81h-.42c-.71,1.4-2.24,2.73-5.5,3.77-.06-.13-.27-.39-.41-.53,2.98-.9,4.44-2.05,5.17-3.24h-5.1v-.62h5.39c.21-.52.31-1.05.35-1.57h-4.1v-.6h4.13v-1.51h-4.36v-.59h4.36v-1.39h.66v1.39h4.5v.59h-4.5v1.51h4.36v.6h-4.38c-.04.52-.13,1.05-.31,1.57h6.22v.62h-5.32Zm-6.07-4.92h-.66v-2.52h5.5v-1.47h.69v1.47h5.49v2.52h-.67v-1.91h-10.35v1.91Z"/>
      <path class="cls-1" d="m178.74,34.58c-1.29.52-2.61,1.06-3.66,1.47l-.28-.57c.98-.32,2.41-.87,3.82-1.44l.11.55Zm.9-2.94h-4.53v-.59h5.16v4.62c0,.35-.08.53-.38.64-.31.11-.84.1-1.74.1-.04-.17-.14-.39-.22-.55.71.01,1.3.01,1.47,0,.18,0,.24-.06.24-.2v-4.03Zm-3.4.29c.7.36,1.51.95,1.88,1.39l-.41.46c-.39-.46-1.18-1.07-1.86-1.44l.39-.41Zm5.08,4.16c-.21.41-.43.81-.64,1.16h4.71v5.76h-.69v-.57h-7.31v.57h-.66v-5.76h3.28c.24-.42.5-.97.63-1.34l.69.18Zm3.38,1.74h-7.31v1.68h7.31v-1.68Zm0,4.02v-1.75h-7.31v1.75h7.31Zm-3.73-6.67c1.02-.34,2.54-.88,4.02-1.42l.1.53c-1.34.5-2.75,1.04-3.84,1.43l-.28-.55Zm5.52.52c0,.38-.1.56-.39.67-.31.1-.87.11-1.81.1-.03-.17-.13-.41-.21-.56.73.03,1.35.03,1.53.01.18-.01.24-.06.24-.22v-4.06h-4.61v-.59h5.25v4.65Zm-2.9-1.96c-.38-.46-1.18-1.02-1.88-1.39l.39-.41c.69.34,1.5.9,1.91,1.32l-.42.48Z"/>
      <path class="cls-1" d="m189.55,43.25l-.55-.34c1.72-1.77,2.66-3.91,2.66-6.29s-.94-4.52-2.66-6.29l.55-.34c1.78,1.83,2.8,4.03,2.8,6.62s-1.02,4.79-2.8,6.63Z"/>
      <path class="cls-1" d="m37.63,63.38c-1,1.61-2.75,3.92-5.27,5.81.87.87,1.95,2.02,2.51,2.7l-.64.5c-.49-.67-1.58-1.85-2.45-2.75-.85-.85-2.58-2.31-3.28-2.8l.57-.46c.48.34,1.79,1.4,2.76,2.3,2.35-1.71,4.15-4.03,4.88-5.34h-8.74c-.53,0-1.05.03-1.32.06v-.84c.39.06.83.08,1.32.08h8.7c.29,0,.52-.01.66-.07l.59.46c-.11.11-.21.24-.28.34Z"/>
      <path class="cls-1" d="m45.95,62.04v1.02h2.68c.27,0,.55-.01.73-.07l.48.46c-.2.2-.43.43-.62.64-.67.84-1.9,2.07-3.28,3h-.01c0,1.16-.01,2.94-.01,3.91,0,.46.03.98.06,1.42h-.84c.04-.42.07-.95.07-1.42,0-.9.01-2.45.01-3.45-1.33.81-2.84,1.46-4.99,2.1l-.45-.69c2.63-.64,4.36-1.54,5.66-2.4,1.36-.87,2.62-2.13,3.14-2.84h-6.26c-.48,0-1.23.01-1.64.06v-.8c.39.04,1.16.07,1.64.07h2.93v-1.02c0-.35-.01-.9-.07-1.19h.85c-.06.29-.07.84-.07,1.19Zm1.42,5.7l.48-.52c1.33.71,2.1,1.18,3.39,2.03l-.49.6c-1.22-.87-2-1.4-3.38-2.12Z"/>
      <path class="cls-1" d="m57.53,61.2l.81-.15c.03.25.08.62.14.9.01.11.14.76.31,1.64,1.46-.24,2.87-.46,3.52-.59.39-.08.64-.15.83-.2l.15.78c-.14.01-.49.07-.83.13-.67.11-2.09.32-3.53.56.18.95.41,2.07.63,3.14,1.5-.25,2.94-.49,3.7-.63.53-.1.85-.17,1.11-.25l.15.78c-.24.03-.62.1-1.13.18-.83.13-2.24.35-3.7.59.31,1.5.56,2.75.62,2.97.1.41.21.87.35,1.22l-.85.18c-.07-.46-.13-.85-.22-1.26-.04-.24-.28-1.5-.57-3-1.68.27-3.31.55-4.02.67-.52.08-.84.15-1.15.24l-.17-.84c.31-.01.78-.06,1.11-.11.73-.08,2.39-.35,4.1-.63-.21-1.06-.45-2.2-.63-3.15-1.39.22-2.69.43-3.29.53-.36.07-.67.13-1.05.21l-.17-.85c.31-.01.64-.04,1.09-.08.59-.07,1.89-.25,3.28-.48-.18-.85-.31-1.47-.34-1.6-.07-.34-.15-.63-.24-.9Z"/>
      <path class="cls-1" d="m73.14,69.15c2.02-1.3,3.66-3.35,4.41-4.99l.43.76c-.9,1.64-2.38,3.53-4.43,4.85-1.39.9-3.14,1.81-5.69,2.31l-.48-.74c2.59-.39,4.43-1.33,5.74-2.19Zm-1.33-4.38l-.55.56c-.7-.7-2.42-2.2-3.47-2.88l.49-.52c1,.66,2.79,2.12,3.53,2.84Z"/>
      <path class="cls-1" d="m84.58,60l.55.34c-1.72,1.76-2.66,3.91-2.66,6.29s.94,4.52,2.66,6.29l-.55.34c-1.78-1.83-2.8-4.03-2.8-6.63s1.02-4.79,2.8-6.62Z"/>
      <path class="cls-1" d="m88.1,65.34h9.17c.29,0,.66-.01.98-.04v.76c-.28-.01-.67-.03-.98-.03h-4.06c-.03,1.54-.21,2.9-.8,3.98-.52.91-1.57,1.88-2.72,2.47l-.67-.5c1.13-.49,2.16-1.3,2.7-2.23.64-1.05.74-2.31.77-3.71h-4.4c-.42,0-.76,0-1.13.03v-.76c.36.03.7.04,1.13.04Zm1.68-3.46h5.7c.35,0,.83-.03,1.19-.07v.78c-.38-.03-.84-.04-1.19-.04h-5.67c-.46,0-.84.01-1.15.04v-.78c.36.03.69.07,1.12.07Z"/>
      <path class="cls-1" d="m102.39,66.19h7.76c.73,0,1.15-.03,1.43-.06v.87c-.25-.01-.77-.04-1.41-.04h-7.77c-.77,0-1.4.01-1.78.04v-.87c.36.03.95.06,1.78.06Z"/>
      <path class="cls-1" d="m124.77,60.5c.84,0,1.51.67,1.51,1.51s-.67,1.5-1.51,1.5c-.27,0-.5-.07-.71-.18v.07c-.29,1.53-1.02,3.82-2.09,5.2-1.29,1.62-2.84,2.86-5.45,3.67l-.62-.67c2.68-.7,4.24-1.88,5.45-3.43,1.02-1.32,1.75-3.49,1.95-4.92h-7.55c-.5,0-.87.03-1.23.04v-.81c.36.04.78.08,1.25.08h7.34c.08,0,.18,0,.27-.01-.07-.15-.1-.34-.1-.53,0-.84.66-1.51,1.5-1.51Zm0,2.49c.55,0,1-.43,1-.98s-.45-1.01-1-1.01-.99.46-.99,1.01.45.98.99.98Z"/>
      <path class="cls-1" d="m129.38,70.03c-.36,1.11-.99,2.2-1.67,2.94-.11-.11-.38-.32-.55-.42.66-.69,1.25-1.67,1.57-2.68l.64.15Zm2.84-.57h-4.4v-8.64h4.4v8.64Zm-.66-8.04h-3.11v2.09h3.11v-2.09Zm0,2.66h-3.11v2.09h3.11v-2.09Zm0,2.66h-3.11v2.13h3.11v-2.13Zm-.36,3.11c.56.69,1.12,1.58,1.37,2.17l-.57.32c-.25-.62-.83-1.53-1.33-2.21l.53-.28Zm5.13-5.84v2.97h2.86v5.92h-.66v-.63h-4.59v.69h-.64v-5.98h2.38v-6.7h.66v3.1h3.6v.63h-3.6Zm2.2,3.59h-4.59v4.05h4.59v-4.05Z"/>
      <path class="cls-1" d="m143.92,65.49c.52-1.64,2.1-3.73,4.01-3.73,1.79,0,3.04,1.83,3.04,4.71,0,3.84-2.47,5.46-5.79,6.05l-.43-.64c3-.43,5.49-1.79,5.49-5.39,0-2.24-.76-4.08-2.41-4.08-1.82,0-3.54,2.59-3.77,4.43-.1.62-.1,1.12.01,1.86l-.71.06c-.06-.52-.14-1.28-.14-2.16,0-1.34.32-3.6.46-4.55.06-.36.07-.67.11-1.06l.81.03c-.35,1.23-.6,3.39-.69,4.48Z"/>
      <path class="cls-1" d="m154.11,73.25l-.55-.34c1.72-1.77,2.66-3.91,2.66-6.29s-.94-4.52-2.66-6.29l.55-.34c1.78,1.83,2.8,4.03,2.8,6.62s-1.02,4.79-2.8,6.63Z"/>
      <path class="cls-1" d="m163.92,64.59c-.97.45-1.96.92-2.8,1.33l-.25-.6c.74-.31,1.82-.81,2.93-1.34l.13.62Zm8.68,4.57c-.78.55-1.88,1.12-2.76,1.51,1.06.84,2.37,1.46,3.82,1.79-.15.14-.34.39-.43.56-2.7-.71-4.9-2.35-6.05-4.68h-.04c-.6.55-1.4,1.05-2.28,1.5v2.1c1.09-.15,2.31-.32,3.52-.48v.59c-2.06.29-4.23.6-5.74.8l-.14-.62c.49-.06,1.08-.13,1.72-.21v-1.88c-.97.43-1.98.78-2.9,1.01-.1-.17-.28-.39-.42-.53,1.86-.39,4.03-1.28,5.38-2.28h-5.2v-.57h5.84v-1.22h.66v1.22h5.9v.57h-5.63c.41.74.95,1.4,1.6,1.97.88-.41,1.98-1.06,2.63-1.54l.53.38Zm-9.5-6.14c-.34-.45-1.06-1.08-1.7-1.5l.43-.39c.63.41,1.39,1.01,1.71,1.44l-.45.45Zm1.75,3.71h-.63v-6.46h.63v6.46Zm4.36-3.74h-3.56v-.62h3.56v-2.1h.67v2.1h3.64v.62h-3.64v2.56h3.21v.62h-6.95v-.62h3.07v-2.56Z"/>
      <path class="cls-1" d="m179.43,66.04c-.13.34-.28.67-.43.99h7.24v5.86h-.69v-.52h-6.44v.57h-.67v-4.89c-.76,1.25-1.68,2.3-2.69,3.1-.11-.14-.38-.38-.52-.49,1.49-1.08,2.75-2.72,3.5-4.62h-3.11v-.6h5.64v-1.22h-4.4v-.56h4.4v-1.19h-4.97v-.59h2.75c-.22-.42-.62-.95-1-1.36l.57-.24c.45.45.91,1.05,1.12,1.5l-.21.1h4.01l-.17-.07c.36-.43.84-1.12,1.11-1.57l.67.27c-.35.48-.74,1-1.09,1.37h2.9v.59h-5v1.19h4.41v.56h-4.41v1.22h5.65v.6h-8.17Zm-.32,1.57v1.04h6.44v-1.04h-6.44Zm6.44,1.56h-6.44v1.04h6.44v-1.04Zm0,2.63v-1.06h-6.44v1.06h6.44Z"/>
      <path class="cls-1" d="m192.49,66.96v6h-.62v-5.97c-.87.06-1.68.1-2.37.13l-.07-.63.97-.04c.32-.39.67-.87,1.02-1.37-.42-.63-1.15-1.47-1.84-2.09l.39-.41c.17.14.32.29.49.46.49-.8,1.06-1.95,1.39-2.76l.6.25c-.46.95-1.08,2.12-1.61,2.9.36.38.69.77.94,1.12.62-.94,1.21-1.92,1.62-2.72l.6.28c-.83,1.36-1.96,3.08-2.93,4.3.77-.04,1.61-.08,2.49-.13-.22-.46-.49-.94-.76-1.34l.53-.21c.6.9,1.19,2.09,1.42,2.83l-.57.27c-.07-.27-.2-.6-.35-.95l-1.36.08Zm-1.46,1.27c-.22,1.32-.56,2.63-1.02,3.53-.11-.08-.41-.21-.56-.27.49-.87.78-2.13.97-3.38l.62.11Zm2.91,2.56c-.08-.69-.39-1.75-.74-2.56l.53-.15c.38.81.67,1.86.77,2.55l-.56.17Zm5.11-2.27c.88,1.3,2.34,2.66,3.57,3.31-.15.13-.35.35-.48.52-1.18-.71-2.58-2.07-3.49-3.43v4.03h-.66v-3.98c-.92,1.44-2.37,2.76-3.68,3.47-.11-.18-.31-.41-.48-.53,1.37-.64,2.87-2,3.77-3.39h-2.6v-4.72h3v-1.4h-3.47v-.63h3.47v-1.48h.66v1.48h3.49v.63h-3.49v1.4h3.12v4.72h-2.73Zm-3.43-2.65h2.41v-1.51h-2.41v1.51Zm0,2.07h2.41v-1.53h-2.41v1.53Zm5.52-3.59h-2.51v1.51h2.51v-1.51Zm0,2.06h-2.51v1.53h2.51v-1.53Z"/>
      <path class="cls-1" d="m208.06,64.58c-1.29.52-2.61,1.06-3.66,1.47l-.28-.57c.98-.32,2.41-.87,3.82-1.44l.11.55Zm.9-2.94h-4.52v-.59h5.15v4.62c0,.35-.08.53-.38.64-.31.11-.84.1-1.74.1-.04-.17-.14-.39-.22-.55.71.01,1.3.01,1.47,0,.18,0,.24-.06.24-.2v-4.03Zm-3.4.29c.7.36,1.51.95,1.88,1.39l-.41.46c-.39-.46-1.18-1.07-1.86-1.44l.39-.41Zm5.08,4.16c-.21.41-.43.81-.64,1.16h4.71v5.76h-.69v-.57h-7.31v.57h-.66v-5.76h3.28c.24-.42.5-.97.63-1.34l.69.18Zm3.38,1.74h-7.31v1.68h7.31v-1.68Zm0,4.02v-1.75h-7.31v1.75h7.31Zm-3.73-6.67c1.02-.34,2.54-.88,4.02-1.42l.1.53c-1.34.5-2.75,1.04-3.84,1.43l-.28-.55Zm5.52.52c0,.38-.1.56-.39.67-.31.1-.87.11-1.81.1-.03-.17-.13-.41-.21-.56.73.03,1.34.03,1.53.01.18-.01.24-.06.24-.22v-4.06h-4.61v-.59h5.25v4.65Zm-2.9-1.96c-.38-.46-1.18-1.02-1.88-1.39l.39-.41c.69.34,1.5.9,1.91,1.32l-.42.48Z"/>
      <path class="cls-1" d="m33.24,91.86c-.01.18-.01.56-.01,1.02,1.32-.06,2.68-.2,3.92-.39v.67c-1.23.14-2.59.27-3.92.34v2.27c1.29-.06,2.66-.18,4.01-.39v.7c-1.37.18-2.69.29-3.99.34.03.85.07,1.71.11,2.45,1.89.5,3.39,1.58,4.16,2.2l-.42.66c-.87-.77-2.14-1.7-3.71-2.19.03.45.04.83.04,1.06,0,.84-.49,1.86-2.31,1.86s-2.94-.63-2.94-1.91c0-1.19,1.18-1.98,3.12-1.98.48,0,.92.04,1.36.13-.01-.76-.04-1.58-.07-2.28-.27.01-.55.01-.83.01-1.04,0-2.55-.08-3.6-.2v-.7c1.04.15,2.56.25,3.6.25.27,0,.55,0,.81-.01v-2.27c-.24.01-.48.01-.7.01-1.01,0-2.79-.13-3.66-.24v-.69c.85.17,2.68.31,3.64.31.24,0,.48,0,.71-.01v-1.18c0-.22-.01-.63-.04-.77h.77c-.03.22-.04.46-.06.91Zm-2.18,9.97c.85,0,1.64-.27,1.64-1.33,0-.31-.01-.7-.01-1.15-.48-.1-.97-.15-1.47-.15-1.56,0-2.37.6-2.37,1.33s.59,1.3,2.21,1.3Z"/>
      <path class="cls-1" d="m41.33,94.47c1.25-.41,3.94-1.43,5.98-1.43,2.2,0,3.95,1.28,3.95,3.49,0,3.46-3.53,4.83-7.48,5.08l-.31-.76c3.59-.11,7.03-1.23,7.03-4.34,0-1.56-1.19-2.82-3.21-2.82-2.44,0-6.15,1.62-7.06,1.96l-.35-.81c.5-.1.9-.22,1.44-.38Z"/>
      <path class="cls-1" d="m55.53,92.89h7.73c.43,0,.83-.03,1.13-.06v.8c-.32-.03-.74-.04-1.13-.04h-3.59v6.88h4.36c.38,0,.71-.04,1.06-.07v.83c-.36-.04-.83-.04-1.06-.04h-9.27c-.36,0-.74.01-1.15.04v-.83c.39.06.78.07,1.15.07h4.17v-6.88h-3.4c-.21,0-.74.01-1.09.04v-.8c.36.04.85.06,1.09.06Z"/>
      <path class="cls-1" d="m72.75,92c-.14.28-.31.59-.5.9h4.38c.34,0,.56-.04.73-.11l.63.36c-.08.17-.2.45-.24.6-.38,1.5-1.27,3.42-2.51,4.92-1.23,1.51-2.91,2.79-5.53,3.73l-.63-.6c2.4-.69,4.26-1.97,5.56-3.53,1.16-1.4,2.06-3.29,2.38-4.71h-5.21c-.8,1.16-1.93,2.44-3.56,3.49l-.62-.46c2.4-1.4,3.87-3.59,4.43-4.86.1-.2.27-.62.32-.91l.84.29c-.17.28-.35.66-.48.9Z"/>
      <path class="cls-1" d="m89.44,97.68c.77,1.08,2.07,2.04,3.33,2.49-.15.13-.35.35-.46.52-1.37-.56-2.77-1.74-3.59-3.01h-4.68c-.84,1.34-2.3,2.58-3.61,3.21-.11-.17-.31-.39-.48-.52,1.23-.5,2.54-1.55,3.36-2.69h-3.21v-.6h2.84v-4.66h-2.24v-.6h2.24v-1.53h.67v1.53h5.49v-1.51h.67v1.51h2.23v.6h-2.23v4.66h2.8v.6h-3.15Zm-2.79,4.31h4.97v.6h-10.52v-.6h4.89v-1.82h-3.1v-.6h3.1v-1.36h.66v1.36h3.17v.6h-3.17v1.82Zm-3.03-9.58v1.13h5.49v-1.13h-5.49Zm0,2.89h5.49v-1.19h-5.49v1.19Zm0,1.78h5.49v-1.22h-5.49v1.22Z"/>
      <path class="cls-1" d="m96.06,101.07v1.25h-.6v-5.03c-.22.55-.48,1.06-.76,1.51-.1-.11-.34-.38-.49-.52,1.01-1.54,1.58-3.91,1.93-6.4h-1.76v-.64h4.82v.64h-2.4c-.18,1.22-.41,2.4-.7,3.47h2.59v5.71h-2.63Zm2.02-5.08h-2.02v4.47h2.02v-4.47Zm5.18,6.04c.35.06.74.08,1.16.08.24,0,2.33,0,2.73-.01-.11.15-.21.45-.24.62h-2.52c-1.93,0-3.1-.45-3.82-2.31-.34,1.05-.9,1.95-1.83,2.56-.08-.13-.31-.35-.46-.45,1.47-.92,1.95-2.7,2.09-4.46h.66c-.04.48-.11.95-.21,1.4.38,1.36.97,2.06,1.82,2.38v-4.66h-3.53v-.6h7.21l.13-.03.43.15c-.25.67-.53,1.39-.81,1.88l-.53-.22c.17-.32.35-.74.5-1.18h-2.77v1.95h2.98v.6h-2.98v2.3Zm-2.49-10.04v-1.69h.59v1.69h1.4v.59h-1.4v.43c.31.24,1.19,1.02,1.42,1.25l-.39.43c-.18-.24-.66-.73-1.02-1.09v2.48h-.59v-2.72c-.43.84-1.02,1.7-1.58,2.24-.1-.14-.25-.35-.39-.46.64-.56,1.36-1.6,1.76-2.56h-1.44v-.59h1.65Zm3.82,1.12c-.43.97-1.11,1.92-1.79,2.49-.08-.15-.25-.35-.39-.46.73-.52,1.44-1.56,1.86-2.56h-1.21v-.59h1.53v-1.69h.6v1.69h1.79v.59h-1.53c.38,1.01,1.04,2.06,1.72,2.56-.14.11-.32.29-.43.43-.59-.5-1.16-1.43-1.55-2.38v2.89h-.6v-2.97Z"/>
      <path class="cls-1" d="m112.49,95.42c0,.18,0,.38-.01.57h2.83v.64h-2.86c-.04.38-.08.78-.17,1.18.63.63,2.44,2.62,2.87,3.12l-.46.57c-.48-.63-1.79-2.17-2.56-3.01-.42,1.6-1.29,3.21-3.04,4.44-.08-.14-.32-.41-.45-.5,2.31-1.62,2.97-3.82,3.14-5.8h-3.04v-.64h3.07c.01-.21.01-.39.01-.59v-2.55h-1.39c-.34.92-.76,1.75-1.22,2.4-.13-.11-.42-.29-.56-.39.85-1.12,1.47-2.83,1.83-4.59l.66.13c-.14.63-.31,1.23-.49,1.82h4.2v.64h-2.37v2.56Zm8.15-3.92v10.94h-.67v-1.04h-3.52v1.16h-.66v-11.07h4.85Zm-.67,9.26v-8.62h-3.52v8.62h3.52Z"/>
      <path class="cls-1" d="m127.26,93.21h-4.25v-.6h4.25v.6Zm-.35,8.94h-2.76v.69h-.6v-4.67h3.36v3.98Zm-3.33-7.68h3.33v.59h-3.33v-.59Zm0,1.85h3.33v.57h-3.33v-.57Zm3.29-4.93h-3.22v-.57h3.22v.57Zm-2.72,7.37v2.79h2.16v-2.79h-2.16Zm10.95-2.19c-.36,1.25-.88,2.37-1.53,3.33.28,1.48.7,2.33,1.32,2.37.27.01.45-.77.55-2.04.13.13.38.28.49.34-.21,1.89-.57,2.48-1.04,2.46-.88-.04-1.44-.94-1.79-2.46-.74.94-1.61,1.72-2.56,2.31-.1-.11-.27-.28-.41-.39,1.08-.64,2.04-1.54,2.82-2.68-.18-1.13-.31-2.55-.36-4.16h-5.58v-.59h5.55c-.06-1.46-.07-3.05-.08-4.76h.6c0,1.74.01,3.33.07,4.76h2.44v.59h-2.42c.07,1.29.15,2.44.28,3.39.46-.83.84-1.74,1.09-2.75l.57.28Zm-3.03-4.09h-4.65v-.59h2.04v-1.61h.63v1.61h1.98v.59Zm-3.63,8.73v.88h-.57v-5.42h3.77v4.54h-3.19Zm.07-6.29c-.01-.57-.17-1.44-.42-2.13l.52-.13c.28.67.45,1.57.48,2.13l-.57.13Zm-.07,2.31v1.4h2.59v-1.4h-2.59Zm2.59,3.42v-1.47h-2.59v1.47h2.59Zm-.8-5.84c.21-.6.46-1.58.59-2.23l.62.15c-.22.74-.48,1.65-.69,2.21l-.52-.14Zm4.87-1.29c-.25-.7-.88-1.72-1.53-2.45l.52-.25c.66.74,1.32,1.75,1.58,2.44l-.58.27Z"/>
      <path class="cls-1" d="m37.93,122.86c-.5.87-1.83,2.69-3.56,3.88l-.62-.5c1.39-.77,2.84-2.47,3.35-3.43h-8.38c-.49,0-1.04.03-1.53.06v-.85c.46.06,1.04.11,1.53.11h8.33c.2,0,.55-.04.7-.07l.46.45c-.1.1-.21.24-.29.36Zm-9.16,9.46l-.67-.56c.34-.1.81-.34,1.13-.53,2.4-1.39,2.69-3.68,2.69-6.04,0-.28-.01-.56-.04-.87h.8c0,3.98-.48,6.37-3.91,8Z"/>
      <path class="cls-1" d="m46.25,124.45c1.49-.95,2.77-2.04,3.78-3.25l.59.55c-1.08,1.13-2.33,2.18-3.81,3.17v6.07c0,.46.03,1.05.07,1.29h-.87c.03-.22.06-.83.06-1.29v-5.6c-1.47.88-3.49,1.78-5.55,2.42l-.38-.69c2.38-.66,4.57-1.69,6.11-2.66Z"/>
      <path class="cls-1" d="m62.66,123.4c-.29,1.53-1.01,3.82-2.07,5.2-1.29,1.62-2.84,2.86-5.45,3.67l-.62-.67c2.68-.7,4.24-1.88,5.45-3.43,1.02-1.32,1.75-3.49,1.95-4.92h-7.55c-.5,0-.88.03-1.23.04v-.81c.36.04.78.08,1.25.08h7.34c.18,0,.35,0,.55-.06l.55.35c-.07.15-.11.28-.15.55Zm.14-1.16l-.55.27c-.28-.57-.79-1.4-1.13-1.88l.53-.24c.32.46.85,1.32,1.15,1.85Zm1.74-.35l-.55.24c-.32-.57-.78-1.39-1.16-1.85l.55-.24c.32.45.85,1.29,1.16,1.85Z"/>
      <path class="cls-1" d="m67.68,122.58h7.4c.28,0,.77,0,1.15-.03-.03.29-.03.63-.03.92v6.93c0,.39.01,1.33.03,1.54h-.79c.01-.14.01-.48.03-.83h-8.18c.01.32.01.67.03.83h-.77c.01-.24.03-1.15.03-1.54v-6.93c0-.27,0-.62-.01-.92.53.03.81.03,1.12.03Zm-.39,7.86h8.18v-7.16h-8.18v7.16Z"/>
      <path class="cls-1" d="m85.32,121.76v1.46h3.56c.49,0,.7-.06.84-.1l.49.31c-.06.15-.13.43-.17.69-.15.99-.59,2.97-1.42,4.34-1.01,1.71-2.83,3.11-5.44,3.82l-.59-.66c.36-.06.77-.17,1.13-.29,1.55-.46,3.26-1.64,4.16-3.08.8-1.29,1.29-3.19,1.39-4.36h-8.35v2.76c0,.21.01.55.06.71h-.8c.03-.18.04-.52.04-.73v-2.48c0-.28,0-.71-.04-1.01.36.04.77.07,1.23.07h3.17v-1.46c0-.22-.01-.57-.06-.91h.85c-.06.34-.07.69-.07.91Z"/>
      <path class="cls-1" d="m94.83,122.25h6.6c.46,0,.8-.01,1.09-.04v.74c-.31-.01-.6-.03-1.09-.03h-3.82v3.29h5c.29,0,.76-.01,1.05-.04v.76c-.29-.01-.73-.03-1.04-.03h-5.01v3.19c0,.67.49,1.19,1.88,1.19s2.48-.06,3.71-.2l-.03.74c-1.19.08-2.39.15-3.75.15-1.85,0-2.54-.67-2.54-1.65v-3.43h-2.98c-.34,0-.83.01-1.19.04v-.78c.36.04.85.06,1.19.06h2.98v-3.29h-2.04c-.46,0-.85.01-1.21.03v-.74c.35.03.74.04,1.21.04Z"/>
      <path class="cls-1" d="m107.17,125.45h9.16c.29,0,.66-.03.98-.06v.77c-.28-.03-.67-.04-.98-.04h-4.05c-.03,1.54-.22,2.9-.81,3.98-.52.91-1.57,1.88-2.72,2.46l-.67-.5c1.13-.49,2.16-1.3,2.7-2.23.64-1.05.74-2.3.77-3.71h-4.38c-.43,0-.77.01-1.15.04v-.77c.36.03.71.06,1.15.06Zm1.67-3.47h5.01c.35,0,.81-.01,1.19-.07v.78c-.38-.03-.84-.04-1.19-.04h-4.99c-.45,0-.83.01-1.15.04v-.78c.36.04.69.07,1.12.07Zm8.03.6l-.55.27c-.27-.58-.77-1.42-1.15-1.95l.53-.24c.35.5.85,1.33,1.16,1.92Zm1.5-.53l-.55.25c-.31-.62-.77-1.4-1.18-1.92l.52-.24c.38.52.92,1.37,1.2,1.91Z"/>
      <path class="cls-1" d="m121.56,128.18c.41-1.33.42-4.2.42-5.7,0-.32-.03-.59-.08-.85h.84c-.03.22-.06.53-.06.85,0,1.48-.06,4.52-.43,5.91-.42,1.46-1.33,2.82-2.49,3.74l-.67-.45c1.15-.83,2.03-2.06,2.48-3.5Zm3.98,2.83v-8.52c0-.48-.04-.78-.06-.94h.83c-.03.15-.04.46-.04.94v8.53c1.39-.64,3.32-2.02,4.46-3.74l.43.62c-1.25,1.71-3.15,3.1-4.79,3.91-.2.1-.34.2-.42.27l-.49-.41c.06-.2.08-.43.08-.66Z"/>
      <path class="cls-1" d="m50.2,153.11c-.49,1.29-1.44,3.04-2.45,4.27,1.53,1.3,3.22,3.11,4.19,4.27l-.6.53c-.95-1.22-2.58-2.98-4.05-4.29-1.54,1.65-3.43,3.22-5.6,4.19l-.56-.6c2.26-.9,4.27-2.55,5.79-4.23.97-1.11,2.1-2.93,2.47-4.19h-5.87c-.45,0-1.22.06-1.28.06v-.83c.08,0,.84.07,1.28.07h5.67c.36,0,.63-.03.81-.08l.46.36c-.07.1-.21.34-.25.46Z"/>
      <path class="cls-1" d="m55.99,152.58c0-.34-.03-.92-.1-1.33h.9c-.04.39-.08,1-.08,1.33v2.42c1.83.56,4.45,1.57,6.07,2.37l-.31.74c-1.55-.85-4.2-1.86-5.76-2.34.01,2.31.01,4.71.01,5,0,.48.01,1.09.07,1.49h-.87c.06-.38.07-.98.07-1.49v-8.19Z"/>
      <path class="cls-1" d="m66.85,161.01v-8.25c0-.28-.04-.88-.08-1.09h.9c-.04.24-.08.76-.08,1.08v8.35c2.91-.7,6.23-2.58,7.94-4.86l.42.62c-1.76,2.24-4.64,3.99-8.24,4.97-.13.04-.29.1-.45.17l-.5-.42c.07-.15.1-.31.1-.56Z"/>
      <path class="cls-1" d="m80.17,156.19h7.76c.73,0,1.15-.03,1.43-.06v.87c-.25-.01-.77-.04-1.41-.04h-7.77c-.77,0-1.4.01-1.78.04v-.87c.36.03.95.06,1.78.06Z"/>
      <path class="cls-1" d="m93.94,152.58c0-.34-.03-.92-.1-1.33h.9c-.04.39-.08,1-.08,1.33v2.42c1.83.56,4.45,1.57,6.07,2.37l-.31.74c-1.55-.85-4.2-1.86-5.76-2.34.01,2.31.01,4.71.01,5,0,.48.01,1.09.07,1.49h-.87c.06-.38.07-.98.07-1.49v-8.19Z"/>
      <path class="cls-1" d="m104.25,155.45h9.16c.29,0,.66-.03.98-.06v.77c-.28-.03-.67-.04-.98-.04h-4.05c-.03,1.54-.22,2.9-.81,3.98-.52.91-1.57,1.88-2.72,2.46l-.67-.5c1.13-.49,2.16-1.3,2.7-2.23.64-1.05.74-2.3.77-3.71h-4.38c-.43,0-.77.01-1.15.04v-.77c.36.03.71.06,1.15.06Zm1.67-3.47h5.01c.35,0,.81-.01,1.19-.07v.78c-.38-.03-.84-.04-1.19-.04h-4.99c-.45,0-.83.01-1.15.04v-.78c.36.04.69.07,1.12.07Zm8.03.6l-.55.27c-.27-.58-.77-1.42-1.15-1.95l.53-.24c.35.5.85,1.33,1.16,1.92Zm1.5-.53l-.55.25c-.31-.62-.77-1.4-1.18-1.92l.52-.24c.38.52.92,1.37,1.2,1.91Z"/>
      <path class="cls-1" d="m121.36,162.72l-.62-.57c2.45-1,3.78-2.2,3.78-6.4v-.62h-4.38v2.48c0,.46.04,1.09.04,1.15h-.81c.01-.06.07-.67.07-1.15v-2.48h-1.71c-.56,0-1.27.04-1.33.04v-.8s.8.07,1.33.07h1.71v-2.03c0-.24-.03-.62-.06-.87h.81s-.06.42-.06.85v2.04h4.38v-1.92c0-.53-.06-1-.07-1.05h.84c-.01.06-.07.52-.07,1.05v1.92h1.83c.56,0,1.05-.06,1.13-.07v.8c-.07,0-.57-.04-1.13-.04h-1.83v.5c0,3.89-.78,5.69-3.87,7.09Zm6.15-9.37l-.53.18c-.21-.59-.59-1.47-.85-1.99l.5-.15c.27.48.67,1.39.88,1.96Zm1.39-.43l-.55.2c-.24-.63-.57-1.47-.87-1.97l.52-.17c.27.49.66,1.36.9,1.95Z"/>
      <path class="cls-1" d="m136.48,154.45c1.49-.95,2.77-2.04,3.78-3.25l.59.55c-1.08,1.13-2.33,2.18-3.81,3.17v6.07c0,.46.03,1.05.07,1.29h-.87c.03-.22.06-.83.06-1.29v-5.6c-1.47.88-3.49,1.78-5.55,2.42l-.38-.69c2.38-.66,4.57-1.69,6.11-2.66Z"/>
      <path class="cls-1" d="m149.31,159.15c2.02-1.3,3.66-3.35,4.41-4.99l.43.76c-.9,1.64-2.38,3.53-4.43,4.85-1.39.9-3.14,1.81-5.69,2.31l-.48-.74c2.59-.39,4.43-1.33,5.74-2.19Zm-1.33-4.38l-.55.56c-.7-.7-2.42-2.2-3.47-2.88l.49-.52c1,.66,2.79,2.12,3.53,2.84Z"/>
      <path class="cls-1" d="m155.78,159.48l.57-.52c1.02.81,2.23,2.02,3.21,3.12l-.63.53c-.94-1.15-2.14-2.34-3.15-3.14Z"/>
      <path class="cls-1" d="m174.36,152.86c-.5.87-1.83,2.69-3.56,3.88l-.62-.5c1.39-.77,2.84-2.47,3.35-3.43h-8.38c-.49,0-1.04.03-1.53.06v-.85c.46.06,1.04.11,1.53.11h8.33c.2,0,.55-.04.7-.07l.46.45c-.1.1-.21.24-.29.36Zm-9.16,9.46l-.67-.56c.34-.1.81-.34,1.13-.53,2.4-1.39,2.69-3.68,2.69-6.04,0-.28-.01-.56-.04-.87h.8c0,3.98-.48,6.37-3.91,8Z"/>
      <path class="cls-1" d="m178.88,156.19h7.76c.73,0,1.15-.03,1.43-.06v.87c-.25-.01-.77-.04-1.41-.04h-7.77c-.77,0-1.4.01-1.78.04v-.87c.36.03.95.06,1.78.06Z"/>
      <path class="cls-1" d="m196.44,152.18c1.19-.15,2.98-.5,3.66-.78l.49.64c-.21.06-.41.11-.6.17-.71.17-1.95.43-3.04.59v2.98h4.06c.31,0,.74-.03,1.02-.06v.77c-.27-.03-.67-.04-.99-.04h-4.1c-.08,2.82-1.13,4.55-3.57,5.93l-.69-.5c2.23-1.05,3.43-2.62,3.54-5.42h-4.34c-.45,0-.9.01-1.2.04v-.78c.27.03.77.07,1.19.07h4.37v-2.9c-1.46.17-3.11.2-4.27.22l-.18-.7c1.05.06,3.17-.03,4.66-.22Z"/>
      <path class="cls-1" d="m204.96,155.45h9.16c.29,0,.66-.03.98-.06v.77c-.28-.03-.67-.04-.98-.04h-4.05c-.03,1.54-.22,2.9-.81,3.98-.52.91-1.57,1.88-2.72,2.46l-.67-.5c1.13-.49,2.16-1.3,2.7-2.23.64-1.05.74-2.3.77-3.71h-4.38c-.43,0-.77.01-1.15.04v-.77c.36.03.71.06,1.15.06Zm1.67-3.47h5.01c.35,0,.81-.01,1.19-.07v.78c-.38-.03-.84-.04-1.19-.04h-4.99c-.45,0-.83.01-1.15.04v-.78c.36.04.69.07,1.12.07Zm8.03.6l-.55.27c-.27-.58-.77-1.42-1.15-1.95l.53-.24c.35.5.85,1.33,1.16,1.92Zm1.5-.53l-.55.25c-.31-.62-.77-1.4-1.18-1.92l.52-.24c.38.52.92,1.37,1.2,1.91Z"/>
      <path class="cls-1" d="m222.07,162.72l-.62-.57c2.45-1,3.78-2.2,3.78-6.4v-.62h-4.38v2.48c0,.46.04,1.09.04,1.15h-.81c.01-.06.07-.67.07-1.15v-2.48h-1.71c-.56,0-1.27.04-1.33.04v-.8s.8.07,1.33.07h1.71v-2.03c0-.24-.03-.62-.06-.87h.81s-.06.42-.06.85v2.04h4.38v-1.92c0-.53-.06-1-.07-1.05h.84c-.01.06-.07.52-.07,1.05v1.92h1.83c.56,0,1.05-.06,1.13-.07v.8c-.07,0-.57-.04-1.13-.04h-1.83v.5c0,3.89-.78,5.69-3.87,7.09Zm6.15-9.37l-.53.18c-.21-.59-.59-1.47-.85-1.99l.5-.15c.27.48.67,1.39.88,1.96Zm1.39-.43l-.55.2c-.24-.63-.57-1.47-.87-1.97l.52-.17c.27.49.66,1.36.9,1.95Z"/>
      <path class="cls-1" d="m237.19,154.45c1.49-.95,2.77-2.04,3.78-3.25l.59.55c-1.08,1.13-2.33,2.18-3.81,3.17v6.07c0,.46.03,1.05.07,1.29h-.87c.03-.22.06-.83.06-1.29v-5.6c-1.47.88-3.49,1.78-5.55,2.42l-.38-.69c2.38-.66,4.57-1.69,6.11-2.66Z"/>
      <path class="cls-1" d="m250.03,159.15c2.02-1.3,3.66-3.35,4.41-4.99l.43.76c-.9,1.64-2.38,3.53-4.43,4.85-1.39.9-3.14,1.81-5.69,2.31l-.48-.74c2.59-.39,4.43-1.33,5.74-2.19Zm-1.33-4.38l-.55.56c-.7-.7-2.42-2.2-3.47-2.88l.49-.52c1,.66,2.79,2.12,3.53,2.84Z"/>
      <path class="cls-1" d="m256.5,159.48l.57-.52c1.02.81,2.23,2.02,3.21,3.12l-.63.53c-.94-1.15-2.14-2.34-3.15-3.14Z"/>
      <path class="cls-1" d="m43.53,182.25h6.6c.46,0,.8-.01,1.09-.04v.74c-.31-.01-.6-.03-1.09-.03h-3.82v3.29h5c.29,0,.76-.01,1.05-.04v.76c-.29-.01-.73-.03-1.04-.03h-5.01v3.19c0,.67.49,1.19,1.88,1.19s2.48-.06,3.71-.2l-.03.74c-1.19.08-2.39.15-3.75.15-1.85,0-2.54-.67-2.54-1.65v-3.43h-2.98c-.34,0-.83.01-1.19.04v-.78c.36.04.85.06,1.19.06h2.98v-3.29h-2.04c-.46,0-.85.01-1.21.03v-.74c.35.03.74.04,1.21.04Z"/>
      <path class="cls-1" d="m57.07,186.19h7.76c.73,0,1.15-.03,1.43-.06v.87c-.25-.01-.77-.04-1.41-.04h-7.77c-.77,0-1.4.01-1.78.04v-.87c.36.03.95.06,1.78.06Z"/>
      <path class="cls-1" d="m70.83,182.75c0-.34-.01-.92-.08-1.33h.9c-.04.39-.08,1.01-.08,1.33v2.42c1.85.56,4.44,1.58,6.05,2.38l-.31.74c-1.54-.85-4.19-1.86-5.74-2.34.01,2.33.01,4.69.01,4.99,0,.48.01,1.11.06,1.5h-.85c.04-.39.06-.99.06-1.5v-8.19Zm5.8,1.43l-.56.27c-.31-.64-.83-1.54-1.25-2.12l.53-.25c.34.46.95,1.43,1.28,2.1Zm1.65-.69l-.56.27c-.32-.64-.85-1.51-1.29-2.1l.53-.25c.34.45.97,1.42,1.32,2.09Z"/>
      <path class="cls-1" d="m81.45,185.45h9.16c.29,0,.66-.03.98-.06v.77c-.28-.03-.67-.04-.98-.04h-4.05c-.03,1.54-.22,2.9-.81,3.98-.52.91-1.57,1.88-2.72,2.46l-.67-.5c1.13-.49,2.16-1.3,2.7-2.23.64-1.05.74-2.3.77-3.71h-4.38c-.43,0-.77.01-1.15.04v-.77c.36.03.71.06,1.15.06Zm1.67-3.47h5.01c.35,0,.81-.01,1.19-.07v.78c-.38-.03-.84-.04-1.19-.04h-4.99c-.45,0-.83.01-1.15.04v-.78c.36.04.69.07,1.12.07Zm8.03.6l-.55.27c-.27-.58-.77-1.42-1.15-1.95l.53-.24c.35.5.85,1.33,1.16,1.92Zm1.5-.53l-.55.25c-.31-.62-.77-1.4-1.18-1.92l.52-.24c.38.52.92,1.37,1.2,1.91Z"/>
      <path class="cls-1" d="m98.56,192.72l-.62-.57c2.45-1,3.78-2.2,3.78-6.4v-.62h-4.38v2.48c0,.46.04,1.09.04,1.15h-.81c.01-.06.07-.67.07-1.15v-2.48h-1.71c-.56,0-1.27.04-1.33.04v-.8s.8.07,1.33.07h1.71v-2.03c0-.24-.03-.62-.06-.87h.81s-.06.42-.06.85v2.04h4.38v-1.92c0-.53-.06-1-.07-1.05h.84c-.01.06-.07.52-.07,1.05v1.92h1.83c.56,0,1.05-.06,1.13-.07v.8c-.07,0-.57-.04-1.13-.04h-1.83v.5c0,3.89-.78,5.69-3.87,7.09Zm6.15-9.37l-.53.18c-.21-.59-.59-1.47-.85-1.99l.5-.15c.27.48.67,1.39.88,1.96Zm1.39-.43l-.55.2c-.24-.63-.57-1.47-.87-1.97l.52-.17c.27.49.66,1.36.9,1.95Z"/>
      <path class="cls-1" d="m113.69,184.45c1.49-.95,2.77-2.04,3.78-3.25l.59.55c-1.08,1.13-2.33,2.18-3.81,3.17v6.07c0,.46.03,1.05.07,1.29h-.87c.03-.22.06-.83.06-1.29v-5.6c-1.47.88-3.49,1.78-5.55,2.42l-.38-.69c2.38-.66,4.57-1.69,6.11-2.66Z"/>
      <path class="cls-1" d="m126.52,189.15c2.02-1.3,3.66-3.35,4.41-4.99l.43.76c-.9,1.64-2.38,3.53-4.43,4.85-1.39.9-3.14,1.81-5.69,2.31l-.48-.74c2.59-.39,4.43-1.33,5.74-2.19Zm-1.33-4.38l-.55.56c-.7-.7-2.42-2.2-3.47-2.88l.49-.52c1,.66,2.79,2.12,3.53,2.84Z"/>
      <path class="cls-1" d="m37.93,212.86c-.5.87-1.83,2.69-3.56,3.88l-.62-.5c1.39-.77,2.84-2.47,3.35-3.43h-8.38c-.49,0-1.04.03-1.53.06v-.85c.46.06,1.04.11,1.53.11h8.33c.2,0,.55-.04.7-.07l.46.45c-.1.1-.21.24-.29.36Zm-9.16,9.46l-.67-.56c.34-.1.81-.34,1.13-.53,2.4-1.39,2.69-3.68,2.69-6.04,0-.28-.01-.56-.04-.87h.8c0,3.98-.48,6.37-3.91,8Z"/>
      <path class="cls-1" d="m46.25,214.45c1.49-.95,2.77-2.04,3.78-3.25l.59.55c-1.08,1.13-2.33,2.18-3.81,3.17v6.07c0,.46.03,1.05.07,1.29h-.87c.03-.22.06-.83.06-1.29v-5.6c-1.47.88-3.49,1.78-5.55,2.42l-.38-.69c2.38-.66,4.57-1.69,6.11-2.66Z"/>
      <path class="cls-1" d="m62.66,213.4c-.29,1.53-1.01,3.82-2.07,5.2-1.29,1.62-2.84,2.86-5.45,3.67l-.62-.67c2.68-.7,4.24-1.88,5.45-3.43,1.02-1.32,1.75-3.49,1.95-4.92h-7.55c-.5,0-.88.03-1.23.04v-.81c.36.04.78.08,1.25.08h7.34c.18,0,.35,0,.55-.06l.55.35c-.07.15-.11.28-.15.55Zm.14-1.16l-.55.27c-.28-.57-.79-1.4-1.13-1.88l.53-.24c.32.46.85,1.32,1.15,1.85Zm1.74-.35l-.55.24c-.32-.57-.78-1.39-1.16-1.85l.55-.24c.32.45.85,1.29,1.16,1.85Z"/>
      <path class="cls-1" d="m67.68,212.58h7.4c.28,0,.77,0,1.15-.03-.03.29-.03.63-.03.92v6.93c0,.39.01,1.33.03,1.54h-.79c.01-.14.01-.48.03-.83h-8.18c.01.32.01.67.03.83h-.77c.01-.24.03-1.15.03-1.54v-6.93c0-.27,0-.62-.01-.92.53.03.81.03,1.12.03Zm-.39,7.86h8.18v-7.16h-8.18v7.16Z"/>
      <path class="cls-1" d="m85.32,211.76v1.46h3.56c.49,0,.7-.06.84-.1l.49.31c-.06.15-.13.43-.17.69-.15.99-.59,2.97-1.42,4.34-1.01,1.71-2.83,3.11-5.44,3.82l-.59-.66c.36-.06.77-.17,1.13-.29,1.55-.46,3.26-1.64,4.16-3.08.8-1.29,1.29-3.19,1.39-4.36h-8.35v2.76c0,.21.01.55.06.71h-.8c.03-.18.04-.52.04-.73v-2.48c0-.28,0-.71-.04-1.01.36.04.77.07,1.23.07h3.17v-1.46c0-.22-.01-.57-.06-.91h.85c-.06.34-.07.69-.07.91Z"/>
      <path class="cls-1" d="m93.49,215.34h9.17c.29,0,.66-.01.98-.04v.76c-.28-.01-.67-.03-.98-.03h-4.06c-.03,1.54-.21,2.9-.8,3.98-.52.91-1.57,1.88-2.72,2.47l-.67-.5c1.13-.49,2.16-1.3,2.7-2.23.64-1.05.74-2.31.77-3.71h-4.4c-.42,0-.76,0-1.13.03v-.76c.36.03.7.04,1.13.04Zm1.68-3.46h5.7c.35,0,.83-.03,1.19-.07v.78c-.38-.03-.84-.04-1.19-.04h-5.67c-.46,0-.84.01-1.15.04v-.78c.36.03.69.07,1.12.07Z"/>
      <path class="cls-1" d="m114.56,213.11c-.49,1.29-1.44,3.04-2.45,4.27,1.53,1.3,3.22,3.11,4.19,4.27l-.6.53c-.95-1.22-2.58-2.98-4.05-4.29-1.54,1.65-3.43,3.22-5.6,4.19l-.56-.6c2.26-.9,4.27-2.55,5.79-4.23.97-1.11,2.1-2.93,2.47-4.19h-5.87c-.45,0-1.22.06-1.28.06v-.83c.08,0,.84.07,1.28.07h5.67c.36,0,.63-.03.81-.08l.46.36c-.07.1-.21.34-.25.46Z"/>
      <path class="cls-1" d="m120.35,212.58c0-.34-.03-.92-.1-1.33h.9c-.04.39-.08,1-.08,1.33v2.42c1.83.56,4.46,1.57,6.07,2.37l-.31.74c-1.55-.85-4.2-1.86-5.76-2.34.01,2.31.01,4.71.01,5,0,.48.01,1.09.07,1.49h-.87c.06-.38.07-.98.07-1.49v-8.19Z"/>
      <path class="cls-1" d="m134.45,210l.55.34c-1.72,1.76-2.66,3.91-2.66,6.29s.94,4.52,2.66,6.29l-.55.34c-1.78-1.83-2.8-4.03-2.8-6.63s1.02-4.79,2.8-6.62Z"/>
      <path class="cls-1" d="m142.51,212.13c-.01.55-.06,1.06-.1,1.55h3.75c.39,0,.62-.03.8-.04l.55.27c-.04.25-.07.46-.08.66-.04,1.25-.21,5.41-.85,6.71-.28.53-.66.71-1.33.71s-1.44-.03-2.2-.07l-.08-.76c.78.08,1.53.14,2.14.14.38,0,.67-.1.83-.43.62-1.19.78-5.02.78-6.5h-4.37c-.5,4.24-2.06,6.29-4.27,7.8l-.66-.53c.36-.18.85-.55,1.19-.84,1.43-1.21,2.65-3.04,3.05-6.43h-2.65c-.6,0-1.04,0-1.48.04v-.78c.43.03.92.06,1.47.06h2.72c.04-.48.07-.99.07-1.54,0-.32-.01-.76-.07-1.08h.85c-.03.31-.04.73-.06,1.06Z"/>
      <path class="cls-1" d="m156.08,211.76v1.46h3.56c.49,0,.7-.06.84-.1l.49.31c-.06.15-.13.43-.17.69-.15.99-.59,2.97-1.42,4.34-1.01,1.71-2.83,3.11-5.44,3.82l-.59-.66c.36-.06.77-.17,1.13-.29,1.55-.46,3.26-1.64,4.16-3.08.8-1.29,1.29-3.19,1.39-4.36h-8.35v2.76c0,.21.01.55.06.71h-.8c.03-.18.04-.52.04-.73v-2.48c0-.28,0-.71-.04-1.01.36.04.77.07,1.23.07h3.17v-1.46c0-.22-.01-.57-.06-.91h.85c-.06.34-.07.69-.07.91Z"/>
      <path class="cls-1" d="m169.42,219.15c2.02-1.3,3.66-3.35,4.41-4.99l.43.76c-.9,1.64-2.38,3.53-4.43,4.85-1.39.9-3.14,1.81-5.69,2.31l-.48-.74c2.59-.39,4.43-1.33,5.74-2.19Zm-1.33-4.38l-.55.56c-.7-.7-2.42-2.2-3.47-2.88l.49-.52c1,.66,2.79,2.12,3.53,2.84Z"/>
      <path class="cls-1" d="m179.41,215.7c-1.51.31-2.83.57-3.38.7l-.15-.78c.62-.07,1.99-.32,3.53-.62v-2.63c0-.39,0-.7-.07-1.11h.87c-.06.41-.08.73-.08,1.11v2.49c2.56-.5,5.37-1.08,5.91-1.19.25-.06.48-.13.59-.21l.52.41c-.08.13-.2.31-.28.45-.66,1.15-1.65,2.82-2.86,4.06l-.63-.38c1.12-1.05,2.21-2.73,2.65-3.63-.1.03-3.15.63-5.9,1.19v4.44c0,1.02.43,1.33,2.19,1.33s2.94-.11,4.34-.38l-.04.78c-1.3.2-2.54.29-4.43.29-2.27,0-2.77-.64-2.77-1.85v-4.48Z"/>
      <path class="cls-1" d="m191.82,212.54v4.65c0,.35.01.77.04.98h-.83c.03-.2.06-.59.06-.99v-4.64c0-.24-.03-.73-.06-.97h.83c-.03.24-.04.7-.04.97Zm6.51.03v1.97c0,3.57-.38,4.57-1.37,5.8-.9,1.13-2.27,1.71-3.29,2.06l-.59-.62c1.22-.34,2.45-.9,3.33-1.93,1.02-1.22,1.18-2.41,1.18-5.32v-1.96c0-.41-.03-.79-.06-1.09h.84c-.03.31-.04.69-.04,1.09Z"/>
      <path class="cls-1" d="m207.7,219.15c2.02-1.3,3.66-3.35,4.41-4.99l.43.76c-.9,1.64-2.38,3.53-4.43,4.85-1.39.9-3.14,1.81-5.69,2.31l-.48-.74c2.59-.39,4.43-1.33,5.74-2.19Zm-1.33-4.38l-.55.56c-.7-.7-2.42-2.2-3.47-2.88l.49-.52c1,.66,2.79,2.12,3.53,2.84Z"/>
      <path class="cls-1" d="m219.18,212.37c-.14.28-.31.57-.49.88h4.37c.34,0,.56-.03.73-.11l.63.38c-.08.15-.2.45-.24.59-.38,1.51-1.27,3.42-2.51,4.92-1.23,1.51-2.91,2.79-5.53,3.73l-.63-.59c2.4-.69,4.26-1.99,5.56-3.54,1.16-1.39,2.06-3.28,2.38-4.71h-5.2c-.8,1.16-1.95,2.44-3.57,3.5l-.62-.46c2.4-1.41,3.87-3.59,4.43-4.87.1-.2.27-.62.32-.9l.84.28c-.17.29-.35.66-.48.91Zm5.67.45l-.55.25c-.27-.56-.77-1.42-1.15-1.93l.53-.24c.35.49.85,1.33,1.16,1.92Zm1.5-.53l-.55.25c-.31-.62-.77-1.4-1.18-1.92l.52-.24c.38.5.92,1.37,1.21,1.91Z"/>
      <path class="cls-1" d="m229.91,220.35c.71,1.11,2.06,1.62,3.78,1.69,1.44.06,4.55.01,6.07-.07-.08.15-.2.46-.22.69-1.44.04-4.37.07-5.83.03-1.91-.07-3.21-.62-4.1-1.74-.7.63-1.46,1.27-2.21,1.9l-.39-.69c.67-.46,1.51-1.13,2.26-1.78v-3.92h-2.14v-.64h2.8v4.52Zm-.08-7.07c-.46-.69-1.54-1.62-2.48-2.24l.48-.41c.97.59,2.03,1.53,2.52,2.21l-.52.43Zm5.39-2.21c.43,4.47,1.65,7.76,4.4,9.19-.17.13-.41.35-.53.5-2.1-1.19-3.32-3.4-3.98-6.39-.73,2.86-2.02,4.99-3.98,6.39-.13-.11-.38-.38-.55-.5,2.12-1.37,3.36-3.63,3.98-6.61l.41.07c-.11-.64-.21-1.3-.29-2h-2.62v-.64h3.17Z"/>
      <path class="cls-1" d="m244.85,211.91c.7,0,2.75-.11,3.31-.15.21-.01.39-.06.53-.11l.46.38c-.1.13-.2.24-.31.41-.39.63-1.08,2.21-1.71,3.59,1.58.11,3.07.63,4.31,1.25.08-.46.14-.94.17-1.39.01-.35.03-.77,0-1.15l.74.07c-.06,1.04-.15,1.96-.31,2.79.7.39,1.32.8,1.81,1.16l-.35.76c-.46-.39-1.01-.81-1.64-1.19-.55,1.97-1.61,3.35-3.74,4.4l-.59-.5c2.25-.94,3.28-2.55,3.74-4.24-1.29-.7-2.82-1.25-4.44-1.33-.55,1.22-1.29,3.04-1.85,3.82-.46.63-.92.83-1.51.83-.94,0-1.62-.7-1.62-1.72,0-2.03,1.91-3.57,4.58-3.57.56-1.23,1.16-2.59,1.65-3.59-.56.03-2.55.13-3.19.15-.32.01-.67.04-.98.08l-.04-.77c.35.04.7.04.98.04Zm-1.36,8.67c.35,0,.6-.11.91-.49.59-.73,1.22-2.28,1.74-3.47-2.31.1-3.63,1.48-3.63,2.87,0,.71.48,1.09.98,1.09Z"/>
      <path class="cls-1" d="m255.96,223.25l-.55-.34c1.72-1.77,2.66-3.91,2.66-6.29s-.94-4.52-2.66-6.29l.55-.34c1.78,1.83,2.8,4.03,2.8,6.62s-1.02,4.79-2.8,6.63Z"/>
    </g>
    <path class="cls-1" d="m7.12,10.3H0V3.19h7.12v7.12Z"/>
    <path class="cls-1" d="m7.12,39.3H0v-7.12h7.12v7.12Z"/>
    <path class="cls-1" d="m7.12,70.3H0v-7.12h7.12v7.12Z"/>
    <path class="cls-1" d="m7.12,100.3H0v-7.12h7.12v7.12Z"/>
    <path class="cls-1" d="m7.12,129.3H0v-7.12h7.12v7.12Z"/>
    <path class="cls-1" d="m7.12,219.3H0v-7.12h7.12v7.12Z"/>
  </g>
</svg>