<?xml version="1.0" encoding="UTF-8"?>
<svg id="_レイヤー_2" data-name="レイヤー 2" xmlns="http://www.w3.org/2000/svg" viewBox="0 0 150.77 45.62">
  <defs>
    <style>
      .cls-1 {
        fill: #231815;
      }
    </style>
  </defs>
  <g id="_レイヤー_1-2" data-name="レイヤー 1">
    <g>
      <path class="cls-1" d="m12.72,3.64c-.31-.27-.94-.63-1.46-.85l.33-.45c.51.2,1.15.54,1.47.8l-.34.5Zm.59,1.1c-.39.85-.89,1.85-1.32,2.6l-.51-.38c.39-.63.96-1.68,1.37-2.59l.46.37Zm-.21-3.21c-.3-.28-.92-.67-1.42-.9l.32-.43c.51.22,1.14.57,1.44.86l-.34.47Zm3.28,2.81c.39,1.24,1.15,2.18,2.29,2.62-.14.11-.33.35-.41.51-1.2-.51-1.97-1.53-2.4-2.91-.24,1.11-.86,2.13-2.36,2.91-.1-.12-.32-.33-.47-.43,1.47-.73,2.04-1.68,2.26-2.7h-1.89v-.55h1.97c.03-.31.04-.62.04-.93v-.89h-1.58v-.55h1.58V.14h.59v1.27h1.93v2.38h.67v.55h-2.22Zm-.38-1.48c0,.3,0,.62-.03.92h1.39v-1.82h-1.36v.9Z"/>
      <path class="cls-1" d="m23.48,1c0,.1,0,.28,0,.49.72-.03,1.45-.1,2.17-.22v.59c-.64.07-1.4.14-2.17.18v1.12c.78-.03,1.51-.1,2.24-.22v.6c-.76.1-1.47.16-2.23.18.02.42.04.85.06,1.24,1.07.29,1.89.88,2.34,1.25l-.37.57c-.47-.43-1.14-.92-1.94-1.21,0,.2.02.37.02.5,0,.55-.37,1.12-1.41,1.12-1.16,0-1.78-.41-1.78-1.18,0-.73.7-1.23,1.85-1.23.23,0,.46.02.67.05,0-.36-.02-.75-.03-1.09h-.46c-.55,0-1.43-.05-2.01-.11v-.6c.57.1,1.48.15,2.01.15h.43v-1.12h-.35c-.56,0-1.55-.08-2.05-.14v-.59c.51.1,1.51.18,2.05.18h.37v-.57c0-.14-.02-.37-.03-.48h.68c-.02.14-.04.31-.05.54Zm-1.38,5.64c.46,0,.85-.14.85-.7,0-.14,0-.33,0-.54-.25-.06-.51-.08-.78-.08-.76,0-1.18.3-1.18.67s.32.65,1.12.65Z"/>
      <path class="cls-1" d="m27.87,3.43c.57-.18,1.89-.66,2.83-.66,1.14,0,1.96.68,1.96,1.78,0,1.54-1.48,2.33-3.65,2.46l-.26-.62c1.73-.06,3.26-.55,3.26-1.86,0-.67-.54-1.19-1.36-1.19-1,0-2.75.74-3.27.94l-.27-.66c.24-.05.5-.12.75-.2Z"/>
      <path class="cls-1" d="m36.54,1.16c-.03.17-.07.38-.12.59.52-.06,1.05-.16,1.54-.29v.63c-.52.12-1.11.21-1.67.27-.07.35-.16.72-.26,1.08-.29,1.14-.83,2.79-1.25,3.68l-.71-.24c.48-.83,1.05-2.46,1.35-3.59.07-.27.14-.57.21-.86-.27.02-.51.02-.74.02-.35,0-.64-.02-.93-.03l-.02-.63c.39.05.67.06.96.06.26,0,.55-.02.87-.04.06-.28.1-.54.12-.7.03-.22.04-.5.02-.67l.77.06c-.05.18-.11.48-.14.64Zm.96,4.48c0,.38.21.75,1.36.75.52,0,1.08-.06,1.56-.16l-.02.65c-.43.06-.96.11-1.55.11-1.27,0-1.96-.38-1.96-1.18,0-.31.06-.61.12-.95l.6.06c-.07.26-.11.51-.11.72Zm1.41-2.74c.47,0,.96.02,1.39.07l-.02.61c-.41-.06-.88-.1-1.35-.1-.51,0-1,.02-1.49.08v-.59c.43-.04.96-.07,1.47-.07Z"/>
      <path class="cls-1" d="m42.32,3.03h5.26c.17,0,.43,0,.63-.04v.67c-.18,0-.43-.02-.63-.02h-2.18c-.02.87-.15,1.6-.47,2.2-.29.53-.9,1.11-1.58,1.46l-.59-.44c.63-.26,1.2-.72,1.52-1.23.35-.55.44-1.23.47-1.99h-2.41c-.24,0-.47,0-.69.02v-.67c.22.02.44.04.69.04Zm.99-2.01h2.78c.23,0,.51-.02.75-.05v.67c-.23-.02-.51-.02-.75-.02h-2.77c-.26,0-.53,0-.74.02v-.67c.23.02.47.05.73.05Zm4.6.4l-.43.19c-.16-.33-.43-.81-.65-1.12l.43-.18c.2.28.5.77.66,1.1Zm.9-.33l-.43.19c-.18-.35-.43-.8-.67-1.11l.43-.18c.21.29.52.79.67,1.09Z"/>
      <path class="cls-1" d="m52.22,7.35l-.54-.51c1.46-.55,2.18-1.24,2.18-3.49v-.34h-2.28v1.3c0,.3.02.65.03.72h-.71c0-.07.04-.42.04-.72v-1.3h-.87c-.35,0-.71.02-.8.03v-.7c.07.02.47.06.8.06h.87v-1.03c0-.18-.02-.4-.04-.59h.71c0,.07-.03.3-.03.58v1.04h2.28v-1c0-.32-.02-.59-.03-.66h.72c0,.08-.04.34-.04.66v1h.88c.36,0,.63-.02.74-.05v.68c-.09,0-.38-.02-.73-.02h-.88v.28c0,2.14-.47,3.24-2.3,4.06Zm3.52-5.52l-.39.14c-.12-.34-.31-.83-.46-1.13l.39-.12c.14.29.36.79.47,1.12Zm.81-.25l-.39.13c-.13-.35-.31-.82-.47-1.12l.39-.12c.15.29.37.78.48,1.11Z"/>
      <path class="cls-1" d="m60.72,2.44c.83-.52,1.64-1.22,2.19-1.89l.54.5c-.61.63-1.35,1.24-2.17,1.79v3.39c0,.31.02.7.05.86h-.79c.02-.15.05-.55.05-.86v-2.97c-.84.48-1.94.96-3.06,1.31l-.32-.63c1.39-.38,2.62-.94,3.51-1.5Z"/>
      <path class="cls-1" d="m67.98,5.16c1.24-.78,2.21-1.97,2.68-2.95l.39.68c-.55,1-1.48,2.09-2.7,2.86-.8.51-1.81,1-3.15,1.24l-.43-.66c1.4-.21,2.45-.7,3.21-1.17Zm-.47-2.54l-.51.51c-.4-.42-1.4-1.28-2-1.68l.46-.49c.57.38,1.6,1.21,2.05,1.66Z"/>
      <path class="cls-1" d="m72.48,1.52c.52-.06,2.04-.21,3.52-.33.88-.07,1.63-.12,2.17-.14v.64c-.46,0-1.16,0-1.57.13-1.14.37-1.84,1.59-1.84,2.54,0,1.57,1.46,2.06,2.77,2.11l-.23.67c-1.48-.06-3.18-.85-3.18-2.64,0-1.25.76-2.27,1.5-2.71-.86.1-2.91.29-3.77.47l-.07-.7c.3,0,.56-.02.71-.04Zm5.18,2.27l-.41.19c-.18-.38-.42-.8-.66-1.13l.41-.18c.18.27.49.76.66,1.12Zm.92-.35l-.42.2c-.19-.39-.43-.79-.67-1.12l.39-.18c.19.26.51.75.7,1.11Z"/>
      <path class="cls-1" d="m80.9,1.17h3.82c.26,0,.48-.02.66-.03v.64c-.19,0-.38-.02-.66-.02h-2.09v1.7h2.71c.17,0,.49-.02.67-.03v.66c-.18-.02-.47-.02-.65-.02h-2.72v1.61c0,.4.28.64,1.02.64s1.42-.03,2.11-.11l-.04.67c-.63.05-1.4.08-2.16.08-1.21,0-1.6-.42-1.6-1.08v-1.81h-1.57c-.2,0-.53.02-.75.03v-.67c.22.02.55.04.75.04h1.57v-1.7h-1.07c-.27,0-.51,0-.72.02v-.64c.22.02.45.03.72.03Z"/>
      <path class="cls-1" d="m87.97,3.03h5.26c.17,0,.43,0,.63-.04v.67c-.18,0-.43-.02-.63-.02h-2.18c-.02.87-.15,1.6-.47,2.2-.29.53-.9,1.11-1.58,1.46l-.59-.44c.63-.26,1.2-.72,1.52-1.23.35-.55.44-1.23.47-1.99h-2.41c-.24,0-.47,0-.69.02v-.67c.22.02.44.04.69.04Zm.99-2.01h2.78c.23,0,.51-.02.75-.05v.67c-.23-.02-.51-.02-.75-.02h-2.77c-.26,0-.53,0-.74.02v-.67c.23.02.47.05.73.05Zm4.6.4l-.43.19c-.16-.33-.43-.81-.65-1.12l.43-.18c.2.28.5.77.66,1.1Zm.9-.33l-.43.19c-.18-.35-.43-.8-.67-1.11l.43-.18c.21.29.52.79.67,1.09Z"/>
      <path class="cls-1" d="m96.1,4.65c.23-.73.24-2.33.24-3.23,0-.24-.02-.42-.06-.59h.74c0,.1-.04.34-.04.58,0,.89-.03,2.61-.25,3.41-.24.86-.75,1.65-1.43,2.21l-.6-.41c.67-.48,1.16-1.2,1.4-1.97Zm2.34,1.57V1.41c0-.3-.04-.54-.05-.59h.74c0,.06-.03.29-.03.59v4.63c.74-.34,1.73-1.07,2.34-1.97l.38.54c-.69.94-1.81,1.77-2.74,2.22-.13.07-.22.14-.27.18l-.43-.35c.03-.13.06-.29.06-.45Z"/>
      <path class="cls-1" d="m103.52,4.76c-.11.75-.3,1.53-.55,2.04-.09-.07-.33-.18-.44-.22.25-.49.4-1.21.49-1.91l.51.09Zm.87-.69v3.38h-.53v-3.35l-1.26.08-.06-.54.55-.02c.16-.2.33-.42.5-.67-.23-.36-.63-.82-1-1.16l.32-.38c.08.07.16.14.24.22.27-.46.55-1.07.71-1.51l.52.19c-.27.55-.62,1.2-.92,1.65.17.18.31.35.43.51.33-.5.63-1.02.86-1.45l.5.23c-.46.73-1.06,1.64-1.61,2.32l1.16-.06c-.11-.23-.23-.47-.36-.67l.43-.18c.34.51.66,1.2.78,1.65l-.47.22c-.03-.15-.09-.33-.17-.51l-.63.04Zm.68,2.12c-.04-.38-.2-.97-.39-1.41l.43-.13c.2.44.37,1.02.43,1.41l-.47.14Zm3.15-1.32c.47.7,1.24,1.41,1.9,1.78-.13.11-.31.31-.41.46-.6-.39-1.28-1.08-1.77-1.79v2.12h-.57v-2.07c-.51.75-1.23,1.41-1.93,1.81-.09-.14-.27-.34-.4-.46.77-.37,1.58-1.1,2.07-1.85h-1.4v-2.75h1.66v-.67h-1.91v-.52h1.91V.13h.57v.8h1.89v.52h-1.89v.67h1.72v2.75h-1.44Zm-1.97-1.6h1.16v-.7h-1.16v.7Zm0,1.14h1.16v-.71h-1.16v.71Zm2.87-1.84h-1.2v.7h1.2v-.7Zm0,1.13h-1.2v.71h1.2v-.71Z"/>
      <path class="cls-1" d="m113.15,2.7c-.71.31-1.43.6-2.01.83l-.23-.49c.55-.17,1.36-.47,2.15-.78l.09.44Zm.44-1.69h-2.49v-.49h3.04v2.64c0,.26-.06.4-.26.48-.21.08-.53.07-1.04.07-.02-.14-.1-.31-.15-.44.35,0,.67,0,.77,0,.1,0,.12-.03.12-.12V1.02Zm-1.84.07c.38.2.83.51,1.05.75l-.32.38c-.21-.25-.66-.58-1.04-.79l.31-.35Zm3.06,2.43c-.11.22-.23.44-.34.63h2.62v3.31h-.6v-.31h-3.89v.31h-.59v-3.31h1.88c.12-.25.24-.54.31-.75l.62.12Zm1.67,1.1h-3.89v.78h3.89v-.78Zm0,2.06v-.81h-3.89v.81h3.89Zm-2.01-3.8c.58-.18,1.42-.48,2.26-.78l.09.44c-.74.28-1.52.57-2.13.79l-.22-.46Zm3.25.28c0,.28-.06.42-.27.51-.22.08-.55.08-1.08.08-.02-.14-.1-.34-.17-.47.38.02.72.02.83.02.1,0,.13-.03.13-.13V1.02h-2.5v-.49h3.07v2.64Zm-1.79-.96c-.21-.25-.67-.57-1.06-.76l.31-.36c.38.18.84.49,1.08.73l-.33.39Z"/>
      <path class="cls-1" d="m16.05,13.9c0,.18,0,.46.02.78h1.26c.21,0,.52-.03.68-.05v.67c-.18,0-.47-.02-.66-.02h-1.28c.02,1.2.05,2.8.06,3.8,0,.42-.25.64-.73.64-.42,0-.89-.02-1.28-.05l-.06-.66c.39.06.83.1,1.13.1.23,0,.3-.1.3-.32,0-.64,0-1.84-.02-2.91-.67.95-2.07,2.25-3.51,3.01l-.47-.52c1.63-.79,3.06-2.13,3.69-3.09h-2.64c-.27,0-.51,0-.75.02v-.68c.23.02.49.05.74.05h2.92c0-.32-.02-.59-.02-.78-.02-.3-.04-.51-.07-.67h.75c-.03.22-.05.45-.05.67Z"/>
      <path class="cls-1" d="m24.71,14.57c-.17.84-.56,2.14-1.2,2.96-.73.94-1.69,1.69-3.16,2.15l-.55-.6c1.56-.39,2.46-1.08,3.13-1.93.57-.73.94-1.85,1.05-2.62h-4.1c-.32,0-.59.02-.8.02v-.71c.23.02.54.05.8.05h4.03c.12,0,.27,0,.43-.04l.49.31c-.06.11-.09.25-.12.4Z"/>
      <path class="cls-1" d="m25.83,18.17l.52-.46c.58.47,1.3,1.2,1.8,1.78l-.55.46c-.51-.63-1.2-1.32-1.77-1.79Z"/>
      <path class="cls-1" d="m36.59,14.37c-.32.55-1.08,1.58-2,2.21l-.53-.42c.74-.43,1.49-1.3,1.76-1.8h-4.58c-.3,0-.6.02-.92.05v-.73c.28.04.62.07.92.07h4.61c.15,0,.44-.02.56-.05l.39.38c-.06.08-.16.2-.22.29Zm-5.23,5.43l-.59-.48c.23-.07.5-.2.72-.36,1.24-.76,1.42-1.9,1.42-3.24,0-.19,0-.37-.03-.58h.72c0,2.17-.19,3.64-2.24,4.66Z"/>
      <path class="cls-1" d="m41.19,15.11c.83-.52,1.64-1.22,2.19-1.89l.54.5c-.61.63-1.35,1.24-2.17,1.79v3.39c0,.31.02.7.05.86h-.79c.02-.15.05-.55.05-.86v-2.97c-.84.48-1.94.96-3.06,1.31l-.32-.63c1.39-.38,2.62-.94,3.51-1.5Z"/>
      <path class="cls-1" d="m47.44,16.23l-.37.56c-.39-.29-1.27-.85-1.75-1.1l.35-.55c.47.26,1.41.83,1.77,1.08Zm.93,1.91c1.33-.76,2.39-1.81,3.04-2.94l.39.66c-.69,1.08-1.81,2.12-3.08,2.87-.81.47-1.92.84-2.66,1l-.37-.65c.88-.15,1.88-.47,2.69-.94Zm.26-3.67l-.38.55c-.39-.29-1.25-.87-1.73-1.14l.36-.54c.47.26,1.4.88,1.74,1.13Z"/>
      <path class="cls-1" d="m54.68,15.11c.05.18.14.52.26.95,1.13-.22,2.5-.48,2.77-.55.1-.02.22-.06.31-.1l.4.28c-.34.68-1.16,1.81-1.71,2.34l-.57-.28c.51-.43,1.11-1.17,1.38-1.65-.18.03-1.32.26-2.43.48.32,1.16.71,2.57.82,2.92.05.15.13.4.18.55l-.68.18c-.02-.18-.06-.39-.12-.59-.1-.36-.49-1.78-.8-2.93-.75.15-1.41.28-1.63.33l-.16-.61c.22-.02.43-.05.67-.09.11-.02.49-.09.98-.18-.12-.43-.22-.77-.27-.92-.06-.2-.12-.36-.19-.48l.69-.17c.02.14.06.31.11.51Z"/>
      <path class="cls-1" d="m62.84,17.83c1.24-.78,2.21-1.97,2.68-2.95l.39.68c-.55,1-1.48,2.09-2.7,2.86-.8.51-1.81,1-3.15,1.24l-.43-.66c1.4-.21,2.45-.7,3.21-1.17Zm-.47-2.54l-.51.51c-.4-.42-1.4-1.28-2-1.68l.46-.49c.57.38,1.6,1.21,2.05,1.66Z"/>
      <path class="cls-1" d="m72.79,12.84c.5,0,.91.41.91.91s-.41.9-.91.9c-.1,0-.21-.02-.31-.05,0,.02,0,.06-.02.09-.17.84-.56,2.13-1.2,2.96-.73.94-1.69,1.69-3.16,2.14l-.55-.6c1.56-.38,2.46-1.07,3.13-1.93.57-.73.95-1.85,1.05-2.62h-4.1c-.32,0-.59.02-.8.02v-.71c.22.03.54.06.8.06h4.03c.07,0,.16,0,.26,0-.02-.08-.04-.17-.04-.26,0-.5.4-.91.9-.91Zm0,1.44c.3,0,.54-.24.54-.53s-.24-.54-.54-.54-.53.24-.53.54.24.53.53.53Z"/>
      <path class="cls-1" d="m75.74,16.07h4.4c.4,0,.69-.02.87-.04v.79c-.16,0-.5-.04-.86-.04h-4.41c-.44,0-.87.02-1.12.04v-.79c.24.02.67.04,1.12.04Z"/>
      <path class="cls-1" d="m82.38,18.17l.52-.46c.58.47,1.3,1.2,1.8,1.78l-.55.46c-.51-.63-1.2-1.32-1.77-1.79Z"/>
      <path class="cls-1" d="m93.14,14.37c-.32.55-1.08,1.58-2,2.21l-.53-.42c.74-.43,1.49-1.3,1.76-1.8h-4.57c-.3,0-.6.02-.92.05v-.73c.28.04.62.07.92.07h4.61c.15,0,.44-.02.56-.05l.39.38c-.06.08-.16.2-.22.29Zm-5.22,5.43l-.59-.48c.23-.07.5-.2.72-.36,1.24-.76,1.42-1.9,1.42-3.24,0-.19,0-.37-.03-.58h.72c0,2.17-.19,3.64-2.24,4.66Z"/>
      <path class="cls-1" d="m97.75,15.11c.83-.52,1.64-1.22,2.19-1.89l.54.5c-.61.63-1.35,1.24-2.17,1.79v3.39c0,.31.02.7.05.86h-.79c.02-.15.05-.55.05-.86v-2.97c-.84.48-1.94.96-3.06,1.31l-.32-.63c1.39-.38,2.62-.94,3.51-1.5Z"/>
      <path class="cls-1" d="m102.63,14.13c0-.22-.02-.59-.06-.83h.79c-.02.25-.06.59-.06.83v1.31c1.06.32,2.58.9,3.43,1.32l-.27.68c-.88-.47-2.26-1.01-3.15-1.29,0,1.2,0,2.42,0,2.65,0,.25.02.68.05.95h-.78c.04-.26.06-.65.06-.95v-4.67Z"/>
      <path class="cls-1" d="m109.39,14.06v2.68c0,.2.02.46.03.61h-.74c.02-.12.04-.38.04-.62v-2.67c0-.14-.02-.42-.03-.58h.73c-.02.15-.03.38-.03.58Zm3.73.06v1.3c0,1.93-.26,2.56-.84,3.25-.52.63-1.32.97-1.91,1.17l-.52-.55c.74-.18,1.42-.51,1.92-1.07.57-.67.67-1.32.67-2.83v-1.27c0-.27-.02-.5-.04-.7h.75c-.02.2-.02.43-.02.7Z"/>
      <path class="cls-1" d="m116.15,16.07h4.4c.4,0,.69-.02.87-.04v.79c-.16,0-.5-.04-.86-.04h-4.41c-.44,0-.87.02-1.12.04v-.79c.24.02.67.04,1.12.04Z"/>
      <path class="cls-1" d="m123.88,14.13c0-.22-.02-.59-.06-.83h.79c-.02.25-.06.59-.06.83v1.31c1.06.32,2.58.9,3.43,1.32l-.27.68c-.88-.47-2.26-1.01-3.15-1.29,0,1.2,0,2.42,0,2.65,0,.25.02.68.05.95h-.78c.04-.26.06-.65.06-.95v-4.67Z"/>
      <path class="cls-1" d="m134.53,14.25c-.26.71-.67,1.59-1.2,2.37.72.59,1.41,1.22,1.98,1.84l-.51.55c-.59-.68-1.2-1.25-1.89-1.85-.75.91-1.75,1.86-3.15,2.59l-.55-.51c1.4-.66,2.39-1.55,3.19-2.52-.59-.48-1.49-1.14-2.26-1.62l.42-.51c.69.44,1.62,1.1,2.26,1.59.52-.75.85-1.51,1.09-2.19.06-.16.13-.42.16-.59l.74.26c-.09.14-.2.42-.26.59Z"/>
      <path class="cls-1" d="m139.86,17.83c1.24-.78,2.21-1.97,2.68-2.95l.39.68c-.55,1-1.48,2.09-2.7,2.86-.8.51-1.81,1-3.15,1.24l-.43-.66c1.4-.21,2.45-.7,3.21-1.17Zm-.47-2.54l-.51.51c-.4-.42-1.4-1.28-2-1.68l.46-.49c.57.38,1.6,1.21,2.05,1.66Z"/>
      <path class="cls-1" d="m144.8,14.13c0-.22-.02-.59-.06-.83h.79c-.02.25-.06.59-.06.83v1.31c1.06.32,2.58.9,3.43,1.32l-.27.68c-.88-.47-2.26-1.01-3.15-1.29,0,1.2,0,2.42,0,2.65,0,.25.02.68.05.95h-.78c.04-.26.06-.65.06-.95v-4.67Z"/>
      <path class="cls-1" d="m12.05,28.36h5.26c.17,0,.43,0,.63-.04v.67c-.18,0-.43-.02-.63-.02h-2.18c-.02.87-.15,1.6-.47,2.2-.29.53-.9,1.11-1.58,1.46l-.59-.44c.63-.26,1.2-.72,1.52-1.23.35-.55.44-1.23.47-1.99h-2.41c-.24,0-.47,0-.69.02v-.67c.22.02.44.04.69.04Zm.99-2.01h2.78c.23,0,.51-.02.75-.05v.67c-.23-.02-.51-.02-.75-.02h-2.77c-.26,0-.53,0-.74.02v-.67c.23.02.47.05.73.05Zm4.6.4l-.43.19c-.16-.33-.43-.81-.65-1.12l.43-.18c.2.28.5.77.66,1.1Zm.9-.33l-.43.19c-.18-.35-.43-.8-.67-1.11l.43-.18c.21.29.52.79.67,1.09Z"/>
      <path class="cls-1" d="m21.94,32.69l-.54-.51c1.46-.55,2.18-1.24,2.18-3.49v-.34h-2.28v1.3c0,.3.02.65.03.72h-.71c0-.07.04-.42.04-.72v-1.3h-.87c-.35,0-.71.02-.8.03v-.7c.07.02.47.06.8.06h.87v-1.03c0-.18-.02-.4-.04-.59h.71c0,.07-.03.3-.03.58v1.04h2.28v-1c0-.32-.02-.59-.03-.66h.72c0,.08-.04.34-.04.66v1h.88c.36,0,.63-.02.74-.05v.68c-.09,0-.38-.02-.73-.02h-.88v.28c0,2.14-.47,3.24-2.3,4.06Zm3.52-5.52l-.39.14c-.12-.34-.31-.83-.46-1.13l.39-.12c.14.29.36.79.47,1.12Zm.81-.25l-.39.13c-.13-.35-.31-.82-.47-1.12l.39-.12c.15.29.37.78.48,1.11Z"/>
      <path class="cls-1" d="m30.44,27.78c.83-.52,1.64-1.22,2.19-1.89l.54.5c-.61.63-1.35,1.24-2.17,1.79v3.39c0,.31.02.7.05.86h-.79c.02-.15.05-.55.05-.86v-2.97c-.84.48-1.94.96-3.06,1.31l-.32-.63c1.39-.38,2.62-.94,3.51-1.5Z"/>
      <path class="cls-1" d="m37.7,30.5c1.24-.78,2.21-1.97,2.68-2.95l.39.68c-.55,1-1.48,2.09-2.7,2.86-.8.51-1.81,1-3.15,1.24l-.43-.66c1.4-.21,2.45-.7,3.21-1.17Zm-.47-2.54l-.51.51c-.4-.42-1.4-1.28-2-1.68l.46-.49c.57.38,1.6,1.21,2.05,1.66Z"/>
      <path class="cls-1" d="m43.91,29.5c-.29.1-.59.19-.88.3v2.25c0,.33-.07.48-.27.58-.18.1-.49.12-1,.11-.02-.14-.1-.38-.18-.55.34,0,.67,0,.75,0,.1,0,.14-.03.14-.15v-2.06c-.33.11-.64.21-.93.3l-.14-.58c.3-.07.67-.18,1.08-.31v-1.76h-.99v-.55h.99v-1.6h.55v1.6h.88v.55h-.88v1.58l.81-.25.07.55Zm2.67,2.59c.23.03.49.05.75.05.19,0,1.28,0,1.55,0-.08.13-.15.38-.18.53h-1.4c-1.16,0-2-.22-2.52-1.34-.22.6-.54,1.09-.96,1.47-.1-.1-.32-.28-.45-.36.71-.56,1.07-1.46,1.2-2.65l.55.06c-.04.3-.09.59-.15.85.22.68.59,1.05,1.04,1.24v-2.54h-1.96v-.51h4.58v.51h-2.06v.94h1.66v.49h-1.66v1.26Zm1.61-3.76h-3.77v-2.6h3.77v2.6Zm-.57-2.15h-2.66v.63h2.66v-.63Zm0,1.05h-2.66v.64h2.66v-.64Z"/>
      <path class="cls-1" d="m54.15,30.82c.73.62,1.9,1.14,2.98,1.37-.13.12-.3.35-.38.5-1.12-.3-2.34-.94-3.1-1.71v1.8h-.59v-1.77c-.75.75-1.93,1.37-3.03,1.67-.08-.14-.25-.38-.38-.48,1.07-.24,2.23-.77,2.94-1.38h-2.78v-.5h3.25v-.67h.59v.67h3.31v.5h-2.8Zm-3.17-2.03c.23-.25.48-.57.75-.9h-1.79v-.49h2.17c.2-.26.39-.51.55-.74l.55.16c-.13.18-.27.38-.43.58h4.06v.49h-1.54c-.2.43-.48.78-.88,1.07.78.2,1.51.43,2.04.62l-.36.43c-.55-.22-1.38-.48-2.27-.72-.79.35-1.89.56-3.48.67-.02-.13-.12-.35-.19-.47,1.24-.08,2.16-.21,2.83-.41-.44-.11-.88-.21-1.3-.3l-.15.18-.55-.18Zm-.39-1.58h-.56v-1.15h3.04v-.59h.59v.59h3.1v1.15h-.57v-.64h-5.59v.64Zm1.81.68c-.14.18-.27.35-.4.51.54.1,1.14.23,1.73.38.44-.23.72-.53.92-.89h-2.25Z"/>
      <path class="cls-1" d="m60.75,25.31l.48.25c-.92.96-1.49,2.14-1.49,3.57s.57,2.62,1.49,3.57l-.48.25c-.96-.98-1.6-2.25-1.6-3.82s.63-2.84,1.6-3.82Z"/>
      <path class="cls-1" d="m63.38,27.06v1.5c0,1.22-.11,3.02-.79,4.23-.1-.1-.36-.27-.51-.34.65-1.15.71-2.75.71-3.89v-2.07h2.95v-1.03h.61v1.03h3.06v.57h-6.03Zm0,4.72c.4-.61.61-1.59.71-2.43l.55.12c-.11.88-.31,1.92-.72,2.55l-.53-.24Zm3.81.31c.33,0,.38-.2.4-1.37.14.1.38.2.54.24-.06,1.32-.22,1.68-.9,1.68h-1.17c-.7,0-.88-.2-.88-.87v-3.1h.59v3.1c0,.27.06.32.37.32h1.06Zm-.05-3.14c-.39-.36-1.19-.89-1.85-1.24l.41-.38c.64.31,1.45.82,1.86,1.18l-.43.44Zm1.23.22c.53.82,1.04,1.89,1.17,2.61l-.57.25c-.14-.71-.61-1.81-1.13-2.64l.53-.22Z"/>
      <path class="cls-1" d="m77.12,31.98c0,.38-.1.56-.36.67-.27.1-.74.1-1.49.1-.02-.16-.12-.42-.2-.58.56.02,1.11.02,1.25.02.16,0,.22-.06.22-.21v-1.63h-2.16v2.37h-.59v-2.37h-2.01c-.12.89-.39,1.81-1,2.49-.09-.12-.33-.32-.46-.39.88-1,.96-2.41.96-3.52v-2.89h5.84v5.96Zm-3.34-2.21v-1.33h-1.92v.47c0,.26,0,.56-.03.86h1.95Zm-1.92-3.18v1.28h1.92v-1.28h-1.92Zm4.67,0h-2.16v1.28h2.16v-1.28Zm0,3.18v-1.33h-2.16v1.33h2.16Z"/>
      <path class="cls-1" d="m79.48,30.1c-.11.75-.29,1.52-.55,2.03-.09-.06-.32-.17-.43-.21.25-.49.4-1.21.49-1.91l.49.09Zm.83-.69v3.38h-.52v-3.35c-.44.03-.85.06-1.21.08l-.06-.54c.18,0,.38-.02.59-.02.15-.2.31-.42.47-.67-.23-.36-.63-.83-1-1.17l.32-.37c.08.07.17.16.25.24.26-.46.55-1.08.71-1.52l.51.19c-.27.55-.62,1.21-.9,1.65.16.18.31.35.42.51.31-.5.6-1.02.81-1.44l.49.22c-.43.75-1.03,1.66-1.54,2.33l1.08-.06c-.1-.24-.21-.48-.32-.7l.42-.16c.3.53.59,1.23.68,1.68l-.46.19c-.02-.14-.07-.32-.14-.51l-.59.04Zm5.45,2.82c0,.23-.03.38-.18.47-.15.07-.36.09-.66.09-.02-.14-.1-.35-.16-.49.19,0,.36,0,.43,0,.05,0,.06-.02.06-.09v-.99h-.63v1.48h-.41v-1.48h-.62v1.48h-.4v-1.48h-.6v1.56h-.45v-2.4c-.12.81-.37,1.64-.84,2.29-.09-.1-.31-.27-.43-.34.2-.27.35-.58.47-.89l-.43.12c-.02-.39-.18-1-.37-1.45l.42-.13c.19.44.35,1.01.39,1.41.32-.88.36-1.87.36-2.64v-1.76h3.88v1.85h-3.35c0,.18,0,.35-.02.55h3.52v2.84Zm.03-6.28v.52h-4.38v-.52h4.38Zm-3.54,1.54v.86h2.77v-.86h-2.77Zm.94,3.28v-.92h-.6v.92h.6Zm1.02,0v-.92h-.62v.92h.62Zm1.04,0v-.92h-.63v.92h.63Z"/>
      <path class="cls-1" d="m87.32,32.95l-.48-.25c.92-.96,1.49-2.14,1.49-3.57s-.57-2.62-1.49-3.57l.48-.25c.96.98,1.6,2.25,1.6,3.82s-.63,2.84-1.6,3.82Z"/>
      <path class="cls-1" d="m15.25,39.01c0,.1,0,.28,0,.49.72-.03,1.45-.1,2.17-.22v.59c-.64.07-1.4.14-2.17.18v1.12c.78-.03,1.51-.1,2.24-.22v.6c-.76.1-1.47.16-2.23.18.02.42.04.85.06,1.24,1.07.29,1.89.88,2.34,1.25l-.37.57c-.47-.43-1.14-.92-1.94-1.21,0,.2.02.37.02.5,0,.55-.37,1.12-1.41,1.12-1.16,0-1.78-.41-1.78-1.18,0-.73.7-1.23,1.85-1.23.23,0,.46.02.67.05,0-.36-.02-.75-.03-1.09h-.46c-.55,0-1.43-.05-2.01-.11v-.6c.57.1,1.48.15,2.01.15h.43v-1.12h-.35c-.56,0-1.55-.08-2.05-.14v-.59c.51.1,1.51.18,2.05.18h.37v-.57c0-.14-.02-.37-.03-.48h.68c-.02.14-.04.31-.05.54Zm-1.38,5.64c.46,0,.85-.14.85-.7,0-.14,0-.33,0-.54-.25-.06-.51-.08-.78-.08-.76,0-1.18.3-1.18.67s.32.65,1.12.65Z"/>
      <path class="cls-1" d="m19.75,40.42c.68-.22,2.26-.79,3.43-.79,1.33,0,2.39.77,2.39,2.12,0,1.92-1.92,2.85-4.39,2.99l-.29-.67c2.1-.06,3.98-.69,3.98-2.34,0-.84-.63-1.5-1.71-1.5-1.32,0-3.36.88-4,1.13l-.3-.71c.29-.06.58-.14.88-.23Z"/>
      <path class="cls-1" d="m32.75,44.74c.47,0,.55-.21.62-1.13.15.11.4.2.59.25-.1,1.11-.3,1.46-1.19,1.46h-2.05c-.96,0-1.24-.23-1.24-1.12v-1.07l-2.62.35-.09-.56,2.7-.35v-1.24l-2.37.33-.09-.56,2.46-.34v-1.22c-.81.15-1.64.28-2.42.38-.02-.14-.11-.38-.18-.51,1.98-.26,4.25-.7,5.48-1.21l.51.47c-.76.3-1.74.55-2.78.77v1.24l3.05-.43.08.55-3.13.44v1.25l3.59-.47.08.55-3.67.48v1.16c0,.43.1.52.67.52h2Z"/>
      <path class="cls-1" d="m36.16,39.52h4.41c.24,0,.49-.02.68-.05v.71c-.2-.02-.46-.03-.68-.03h-1.93v3.69h2.36c.24,0,.46-.02.67-.05v.73c-.22-.03-.51-.03-.67-.03h-5.31c-.22,0-.46,0-.71.03v-.73c.24.03.49.05.71.05h2.26v-3.69h-1.81c-.15,0-.47,0-.67.03v-.71c.21.03.51.05.67.05Z"/>
      <path class="cls-1" d="m46.11,39.24c-.06.11-.12.22-.19.34h2.18c.22,0,.39-.02.52-.08l.54.33c-.06.11-.14.3-.19.43-.22.81-.71,1.89-1.43,2.76-.73.89-1.69,1.63-3.19,2.18l-.58-.52c1.47-.43,2.47-1.16,3.2-2.01.63-.74,1.12-1.77,1.28-2.5h-2.71c-.49.67-1.16,1.39-2.04,1.97l-.55-.42c1.38-.83,2.18-1.99,2.52-2.71.08-.14.2-.43.25-.63l.75.24c-.14.21-.28.48-.35.63Z"/>
      <path class="cls-1" d="m55.61,39.83c-.27.69-.78,1.63-1.35,2.35.84.72,1.82,1.77,2.34,2.4l-.56.48c-.54-.71-1.39-1.65-2.21-2.38-.86.92-1.94,1.81-3.13,2.34l-.51-.54c1.29-.51,2.48-1.46,3.31-2.38.55-.62,1.13-1.56,1.33-2.23h-3.13c-.28,0-.72.03-.81.04v-.73c.11.02.57.05.81.05h3.1c.26,0,.47-.02.6-.06l.41.31c-.05.06-.15.24-.2.35Z"/>
      <path class="cls-1" d="m58.33,40.96h5.26c.17,0,.43,0,.63-.04v.67c-.18,0-.43-.02-.63-.02h-2.18c-.02.87-.15,1.6-.47,2.19-.29.54-.9,1.12-1.58,1.47l-.59-.44c.63-.26,1.2-.72,1.52-1.23.35-.56.44-1.24.47-1.99h-2.41c-.24,0-.47,0-.7.02v-.67c.22.02.45.04.7.04Zm.99-2.01h3.25c.22,0,.51-.02.75-.05v.67c-.23-.02-.51-.02-.75-.02h-3.24c-.27,0-.53,0-.73.02v-.67c.22.02.47.05.72.05Z"/>
      <path class="cls-1" d="m66.57,39.18h3.82c.26,0,.48-.02.66-.03v.64c-.19,0-.38-.02-.66-.02h-2.09v1.7h2.71c.17,0,.49-.02.67-.03v.66c-.18-.02-.47-.02-.65-.02h-2.72v1.61c0,.4.28.64,1.02.64s1.42-.03,2.11-.11l-.04.67c-.63.05-1.4.08-2.16.08-1.21,0-1.6-.42-1.6-1.08v-1.81h-1.57c-.2,0-.53.02-.75.03v-.67c.22.02.55.04.75.04h1.57v-1.7h-1.07c-.27,0-.51,0-.72.02v-.64c.22.02.45.03.72.03Z"/>
      <path class="cls-1" d="m73.64,41.03h5.26c.17,0,.43,0,.63-.04v.67c-.18,0-.43-.02-.63-.02h-2.18c-.02.87-.15,1.6-.47,2.2-.29.53-.9,1.11-1.58,1.46l-.59-.44c.63-.26,1.2-.72,1.52-1.23.35-.55.44-1.23.47-1.99h-2.41c-.24,0-.47,0-.69.02v-.67c.22.02.44.04.69.04Zm.99-2.01h2.78c.23,0,.51-.02.75-.05v.67c-.23-.02-.51-.02-.75-.02h-2.77c-.26,0-.53,0-.74.02v-.67c.23.02.47.05.73.05Zm4.6.4l-.43.19c-.16-.33-.43-.81-.65-1.12l.43-.18c.2.28.5.77.66,1.1Zm.9-.33l-.43.19c-.18-.35-.43-.8-.67-1.11l.43-.18c.21.29.52.79.67,1.09Z"/>
      <path class="cls-1" d="m81.77,42.66c.23-.73.24-2.34.24-3.23,0-.24-.02-.42-.06-.59h.74c0,.1-.04.34-.04.58,0,.89-.03,2.61-.25,3.41-.24.86-.75,1.65-1.43,2.21l-.6-.41c.67-.48,1.16-1.2,1.4-1.97Zm2.34,1.56v-4.81c0-.3-.04-.54-.05-.59h.74c0,.06-.03.29-.03.59v4.63c.74-.34,1.73-1.07,2.34-1.97l.38.54c-.69.94-1.81,1.77-2.74,2.22-.13.07-.22.14-.27.18l-.43-.35c.03-.13.06-.29.06-.45Z"/>
      <path class="cls-1" d="m92.34,38.62c0,1.42.18,4.45,3.33,6.32-.14.1-.38.35-.48.5-1.97-1.2-2.83-2.95-3.19-4.47-.59,2.08-1.6,3.54-3.2,4.48-.11-.12-.38-.37-.54-.47,1.77-.92,2.76-2.54,3.25-4.78l.35.06c-.06-.37-.09-.72-.1-1.03h-1.97v-.59h2.55Z"/>
      <path class="cls-1" d="m102.34,40.36c-.39.59-.94,1.11-1.58,1.54.9.42,1.98.7,3.11.84-.14.14-.3.39-.38.57-.37-.06-.73-.13-1.08-.22v2.34h-.6v-.26h-3.24v.26h-.57v-2.27c-.41.13-.82.23-1.22.32-.06-.15-.18-.39-.3-.52,1.08-.19,2.21-.55,3.17-1.05-.41-.27-.78-.59-1.08-.94-.36.29-.78.55-1.25.79-.09-.14-.27-.33-.4-.42,1.1-.49,1.88-1.19,2.28-1.81l.64.12c-.11.16-.23.32-.37.47h2.37l.1-.02.4.25Zm-4.95,0h-.57v-1.5h3.04v-.71h.6v.71h3.07v1.5h-.59v-.95h-5.55v.95Zm4.7,2.66c-.68-.19-1.32-.44-1.89-.75-.53.3-1.1.55-1.69.75h3.57Zm-.27,1.66v-1.16h-3.24v1.16h3.24Zm-2.83-4.03c.31.37.73.69,1.22.97.48-.3.9-.63,1.22-1h-2.42l-.02.03Z"/>
      <path class="cls-1" d="m107.55,37.97l.48.25c-.92.96-1.49,2.14-1.49,3.57s.57,2.62,1.49,3.57l-.48.25c-.96-.98-1.6-2.25-1.6-3.82s.63-2.84,1.6-3.82Z"/>
      <path class="cls-1" d="m108.96,43.38c0-.75.55-1.26,1.08-1.55v-.03c-.43-.29-.79-.71-.79-1.32,0-.88.7-1.46,1.61-1.46,1,0,1.61.63,1.61,1.52,0,.6-.44,1.12-.79,1.38v.04c.51.31,1,.71,1,1.47,0,.86-.74,1.53-1.85,1.53s-1.88-.66-1.88-1.57Zm3.03.02c0-.75-.72-1.01-1.56-1.34-.47.3-.8.72-.8,1.25,0,.63.52,1.08,1.23,1.08s1.13-.41,1.13-1Zm-.14-2.83c0-.56-.36-1.01-1-1.01-.55,0-.94.36-.94.92,0,.69.63.98,1.32,1.25.39-.35.61-.73.61-1.16Z"/>
      <path class="cls-1" d="m113.65,41.96c0-1.92.7-2.95,1.84-2.95s1.83,1.04,1.83,2.95-.69,2.99-1.83,2.99-1.84-1.07-1.84-2.99Zm2.95,0c0-1.68-.45-2.36-1.12-2.36s-1.12.68-1.12,2.36.45,2.4,1.12,2.4,1.12-.72,1.12-2.4Z"/>
      <path class="cls-1" d="m120.33,41.36c-.63,0-1.19.43-1.52,1.06l-.57-.3c.51-.92,1.24-1.41,2.1-1.41.73,0,1.24.3,1.81.86.43.41.79.66,1.36.66.63,0,1.19-.43,1.52-1.06l.57.3c-.51.92-1.24,1.4-2.09,1.4-.73,0-1.24-.3-1.81-.86-.43-.41-.78-.66-1.36-.66Z"/>
      <path class="cls-1" d="m126.84,44.23h1.31v-4.22h-1.04v-.47c.52-.09.9-.22,1.22-.42h.56v5.11h1.18v.61h-3.23v-.61Z"/>
      <path class="cls-1" d="m131.18,41.96c0-1.92.7-2.95,1.84-2.95s1.83,1.04,1.83,2.95-.69,2.99-1.83,2.99-1.84-1.07-1.84-2.99Zm2.95,0c0-1.68-.45-2.36-1.12-2.36s-1.12.68-1.12,2.36.45,2.4,1.12,2.4,1.12-.72,1.12-2.4Z"/>
      <path class="cls-1" d="m135.83,41.96c0-1.92.7-2.95,1.84-2.95s1.83,1.04,1.83,2.95-.69,2.99-1.83,2.99-1.84-1.07-1.84-2.99Zm2.95,0c0-1.68-.45-2.36-1.12-2.36s-1.12.68-1.12,2.36.45,2.4,1.12,2.4,1.12-.72,1.12-2.4Z"/>
      <path class="cls-1" d="m144.78,40.41c.67,1.37,1.82,2.65,3.08,3.26-.14.12-.35.35-.44.52-1.21-.67-2.29-1.89-3.01-3.27v2.46h1.53v.59h-1.53v1.49h-.62v-1.49h-1.57v-.59h1.57v-2.46c-.74,1.39-1.82,2.6-3,3.28-.09-.14-.29-.37-.43-.48,1.22-.63,2.38-1.93,3.06-3.31h-2.79v-.59h3.15v-1.68h.62v1.68h3.18v.59h-2.81Z"/>
      <path class="cls-1" d="m149.17,45.62l-.48-.25c.92-.96,1.49-2.14,1.49-3.57s-.57-2.62-1.49-3.57l.48-.25c.96.98,1.6,2.25,1.6,3.82s-.63,2.84-1.6,3.82Z"/>
    </g>
    <g>
      <path class="cls-1" d="m3,6.14H0v-3h3v3Z"/>
      <path class="cls-1" d="m3,18.39H0v-3h3v3Z"/>
      <path class="cls-1" d="m3,30.64H0v-3h3v3Z"/>
      <path class="cls-1" d="m3,42.88H0v-3h3v3Z"/>
    </g>
  </g>
</svg>