<?xml version="1.0" encoding="UTF-8"?>
<svg id="_レイヤー_2" data-name="レイヤー 2" xmlns="http://www.w3.org/2000/svg" viewBox="0 0 298.06 407.46">
  <defs>
    <style>
      .cls-1 {
        fill: #fff;
      }

      .cls-2 {
        fill: #231815;
      }

      .cls-3 {
        fill: #686868;
      }
    </style>
  </defs>
  <g id="_レイヤー_1-2" data-name="レイヤー 1">
    <g>
      <path class="cls-2" d="m31.29,3.5l1.69.36c-.11.42-.27.97-.34,1.37-.27,1.2-.93,4.01-1.73,5.95-.7,1.75-1.73,3.7-2.79,5.22l-1.62-.68c1.2-1.58,2.26-3.57,2.93-5.17.82-1.96,1.61-4.84,1.86-7.05Zm4.73.32l1.54-.51c.76,1.37,1.98,3.99,2.77,6,.78,1.88,1.79,4.79,2.28,6.5l-1.69.55c-.47-1.94-1.35-4.5-2.15-6.54-.76-1.96-1.92-4.6-2.75-6Zm5.4-2.94c1.16,0,2.13.97,2.13,2.15s-.97,2.13-2.13,2.13-2.13-.95-2.13-2.13.95-2.15,2.13-2.15Zm0,3.4c.68,0,1.25-.57,1.25-1.25s-.57-1.27-1.25-1.27-1.25.57-1.25,1.27.55,1.25,1.25,1.25Z"/>
      <path class="cls-2" d="m48.69,8.13h10.41c.95,0,1.63-.06,2.05-.09v1.86c-.38-.02-1.18-.09-2.03-.09h-10.43c-1.04,0-2.05.04-2.64.09v-1.86c.57.04,1.58.09,2.64.09Z"/>
      <path class="cls-2" d="m79.55,4.81c-1.37,2.22-3.78,5.32-6.92,7.71,1.14,1.14,2.49,2.56,3.25,3.5l-1.39,1.1c-.7-.97-2.22-2.64-3.42-3.88-1.14-1.14-3.34-3.04-4.35-3.74l1.23-1.01c.7.51,2.26,1.79,3.55,2.94,2.79-2.09,4.98-4.88,5.93-6.59h-11.17c-.74,0-1.56.08-1.94.11v-1.71c.53.08,1.27.15,1.94.15h11.32c.53,0,.97-.06,1.23-.15l1.2.97c-.19.21-.36.42-.47.59Z"/>
      <path class="cls-2" d="m88.4,0l1.14.59c-2.18,2.26-3.53,5.07-3.53,8.45s1.35,6.19,3.53,8.45l-1.14.59c-2.28-2.32-3.78-5.34-3.78-9.04s1.5-6.73,3.78-9.04Z"/>
      <path class="cls-2" d="m106.52,4.48c-.34,2.24-.74,4.94-2.11,7.09-1.54,2.43-4.14,4.37-7.2,5.36l-1.29-1.31c2.79-.74,5.51-2.39,7.07-4.83,1.08-1.69,1.61-4.12,1.8-6.36h-10.49v3.8c0,.29.02.76.06,1.22h-1.73c.06-.46.08-.85.08-1.22v-4.05c0-.44-.02-.86-.08-1.27.51.04,1.22.06,2.03.06h9.75c.42,0,.87-.04,1.2-.11l1.16.74c-.08.19-.21.7-.25.89Z"/>
      <path class="cls-2" d="m117.49,5.85c1.98-1.24,3.88-2.89,5.19-4.46l1.27,1.18c-1.44,1.5-3.19,2.95-5.13,4.24v8.02c0,.72.04,1.65.11,2.03h-1.86c.06-.36.11-1.31.11-2.03v-7.03c-2,1.14-4.6,2.28-7.24,3.1l-.76-1.48c3.29-.89,6.19-2.22,8.3-3.55Z"/>
      <path class="cls-2" d="m134.68,12.29c2.93-1.84,5.24-4.65,6.34-6.99l.91,1.61c-1.29,2.38-3.51,4.96-6.38,6.76-1.9,1.2-4.29,2.36-7.47,2.95l-1.01-1.56c3.32-.49,5.79-1.65,7.6-2.77Zm-1.12-6.02l-1.2,1.2c-.95-.99-3.32-3.02-4.73-3.97l1.08-1.16c1.35.89,3.78,2.87,4.84,3.93Z"/>
      <path class="cls-2" d="m145.48,7.24h12.44c.4,0,1.03-.02,1.48-.09v1.58c-.42-.02-1.03-.04-1.48-.04h-5.17c-.06,2.05-.36,3.78-1.12,5.21-.68,1.25-2.13,2.62-3.74,3.46l-1.41-1.04c1.48-.61,2.85-1.71,3.59-2.91.84-1.31,1.04-2.91,1.1-4.71h-5.7c-.57,0-1.12,0-1.63.04v-1.58c.51.06,1.04.09,1.63.09Zm2.34-4.75h6.57c.55,0,1.22-.04,1.77-.11v1.58c-.55-.04-1.22-.06-1.77-.06h-6.55c-.63,0-1.25.02-1.75.06v-1.58c.55.06,1.12.11,1.73.11Zm10.89.95l-1.03.46c-.38-.78-1.03-1.92-1.54-2.64l1.01-.42c.47.67,1.18,1.82,1.56,2.6Zm2.13-.78l-1.03.46c-.42-.83-1.03-1.9-1.58-2.62l1.01-.42c.49.68,1.23,1.88,1.6,2.58Z"/>
      <path class="cls-2" d="m168.94,8.49c1.8-1.1,3.55-2.66,4.52-3.88l1.18,1.14c-.95,1.04-2.56,2.43-4.29,3.55v6.76c0,.59.02,1.37.09,1.67h-1.75c.04-.3.08-1.08.08-1.67v-5.81c-1.6.85-3.8,1.84-5.95,2.51l-.72-1.41c2.51-.59,5.3-1.92,6.84-2.87Z"/>
      <path class="cls-2" d="m185.43,12.29c2.93-1.84,5.24-4.65,6.34-6.99l.91,1.61c-1.29,2.38-3.51,4.96-6.38,6.76-1.9,1.2-4.29,2.36-7.47,2.95l-1.01-1.56c3.32-.49,5.79-1.65,7.6-2.77Zm-1.12-6.02l-1.2,1.2c-.95-.99-3.32-3.02-4.73-3.97l1.08-1.16c1.35.89,3.78,2.87,4.84,3.93Z"/>
      <path class="cls-2" d="m201.81,3.46c-.13.27-.29.53-.44.8h5.15c.51,0,.93-.06,1.24-.17l1.25.76c-.15.27-.34.7-.44,1.01-.51,1.92-1.67,4.48-3.36,6.55-1.73,2.11-4.01,3.84-7.56,5.17l-1.39-1.25c3.5-1.03,5.87-2.74,7.6-4.77,1.46-1.73,2.64-4.2,3.02-5.93h-6.4c-1.16,1.62-2.74,3.31-4.83,4.67l-1.31-.97c3.27-1.96,5.13-4.73,5.96-6.42.19-.34.47-1.03.59-1.52l1.75.59c-.3.49-.65,1.14-.84,1.48Zm7.5.21l-1.03.46c-.38-.76-1.03-1.92-1.54-2.62l1.01-.44c.47.68,1.16,1.82,1.56,2.6Zm2.13-.78l-1.03.46c-.42-.82-1.04-1.9-1.58-2.6l1.01-.44c.49.7,1.24,1.88,1.6,2.58Z"/>
      <path class="cls-2" d="m213.27,18.08l-1.14-.59c2.18-2.26,3.53-5.07,3.53-8.45s-1.35-6.19-3.53-8.45l1.14-.59c2.28,2.32,3.78,5.34,3.78,9.04s-1.5,6.72-3.78,9.04Z"/>
      <path class="cls-2" d="m61.49,32.94v14.7h-1.46v-.97h-10.12v1.06h-1.41v-14.8h4.77c.29-.84.59-1.86.74-2.6l1.61.21c-.29.82-.63,1.67-.95,2.39h6.82Zm-11.59,1.35v2.83h10.12v-2.83h-10.12Zm0,4.16v2.75h10.12v-2.75h-10.12Zm10.12,6.9v-2.81h-10.12v2.81h10.12Z"/>
      <path class="cls-2" d="m72.71,42.25c-.49-.55-1.54-1.61-2.39-2.41v7.86h-1.39v-7.37c-.95.95-1.94,1.75-2.91,2.37-.15-.36-.51-1.01-.74-1.27,2.26-1.31,4.63-3.7,5.95-6.23h-5.28v-1.29h2.98v-3.53h1.39v3.53h1.65l.25-.06.8.53c-.59,1.46-1.46,2.87-2.47,4.14.89.7,2.57,2.17,3.04,2.58l-.87,1.14Zm10.47,3.53v1.39h-10.64v-1.39h4.81v-7.88h-4.07v-1.37h4.07v-6.02h1.41v6.02h4.05v1.37h-4.05v7.88h4.43Z"/>
      <path class="cls-2" d="m102.06,34.77s-.02.53-.02.72c-.21,7.96-.38,10.6-1.03,11.4-.32.49-.7.65-1.27.7-.53.08-1.42.06-2.3,0-.04-.38-.19-.97-.4-1.33.91.08,1.75.09,2.11.09.32,0,.49-.06.68-.3.44-.55.67-3.06.85-9.95h-2.72c-.23,5.05-1.1,9.19-4.45,11.7-.21-.3-.7-.78-1.04-1.01.3-.21.57-.44.82-.67-2.87.34-5.81.67-7.94.89l-.21-1.23c1.14-.1,2.57-.23,4.12-.38v-1.63h-3.59v-1.08h3.59v-1.16h-3.55v-5.64h3.55v-1.2h-4.1v-1.1h4.1v-1.25c-1.22.09-2.45.17-3.57.21-.06-.3-.19-.76-.34-1.04,2.81-.15,6.23-.49,8.19-.93l.7,1.08c-1.03.23-2.32.4-3.7.55v1.39h4.03v1.1h-4.03v1.2h3.69v5.64h-3.69v1.16h3.72v1.08h-3.72v1.5c1.24-.11,2.53-.25,3.8-.4v.08c1.63-2.24,2.15-5.3,2.32-8.85h-2.22v-1.33h2.26c.04-1.33.04-2.72.04-4.16h1.33c0,1.42,0,2.83-.04,4.16h4.03Zm-15.18,3.46h2.39v-1.37h-2.39v1.37Zm2.39,2.32v-1.39h-2.39v1.39h2.39Zm1.27-3.69v1.37h2.49v-1.37h-2.49Zm2.49,2.3h-2.49v1.39h2.49v-1.39Z"/>
      <path class="cls-2" d="m121.61,31.62v1.31h-7.71v2.11h3.88v8.49h-9.08v-8.49h3.8v-2.11h-7.56v-1.31h16.68Zm-1.9,3.21h1.37v12.82h-1.37v-1.12h-12.82v1.18h-1.37v-12.88h1.37v10.35h12.82v-10.35Zm-9.82,3.88h2.7v-2.47h-2.7v2.47Zm0,3.63h2.7v-2.49h-2.7v2.49Zm6.65-6.1h-2.72v2.47h2.72v-2.47Zm0,3.61h-2.72v2.49h2.72v-2.49Z"/>
      <path class="cls-2" d="m139.74,34.1c-.76,1.29-2.57,3.74-4.73,5.24l-1.25-1.01c1.75-1.01,3.53-3.08,4.16-4.25h-10.83c-.7,0-1.42.04-2.17.11v-1.73c.67.09,1.46.17,2.17.17h10.9c.36,0,1.04-.06,1.33-.11l.93.89c-.13.19-.38.47-.51.68Zm-12.37,12.86l-1.41-1.14c.53-.17,1.18-.48,1.71-.86,2.94-1.8,3.36-4.5,3.36-7.67,0-.46-.02-.87-.08-1.37h1.71c0,5.15-.46,8.62-5.3,11.04Z"/>
      <path class="cls-2" d="m156.82,30.47c1.18,0,2.15.97,2.15,2.15s-.97,2.13-2.15,2.13c-.25,0-.49-.04-.72-.11,0,.06-.02.13-.04.21-.4,1.99-1.33,5.05-2.83,7.01-1.73,2.22-3.99,3.99-7.48,5.07l-1.29-1.42c3.69-.91,5.83-2.53,7.41-4.56,1.35-1.73,2.24-4.37,2.49-6.19h-9.71c-.76,0-1.41.04-1.9.06v-1.69c.53.08,1.27.13,1.9.13h9.54c.17,0,.38,0,.61-.02-.06-.19-.09-.4-.09-.61,0-1.18.95-2.15,2.13-2.15Zm0,3.4c.7,0,1.27-.57,1.27-1.25s-.57-1.27-1.27-1.27-1.25.57-1.25,1.27.57,1.25,1.25,1.25Z"/>
      <path class="cls-2" d="m163.85,33.36v6.35c0,.47.04,1.1.08,1.44h-1.75c.04-.29.09-.89.09-1.46v-6.33c0-.34-.04-1.01-.08-1.37h1.73c-.04.36-.08.91-.08,1.37Zm8.83.13v3.08c0,4.56-.63,6.06-1.99,7.69-1.24,1.48-3.13,2.3-4.52,2.77l-1.24-1.31c1.75-.44,3.36-1.2,4.54-2.53,1.35-1.58,1.58-3.12,1.58-6.71v-3c0-.65-.04-1.18-.09-1.65h1.79c-.04.47-.06,1.01-.06,1.65Z"/>
      <path class="cls-2" d="m34.95,62.87c-.02.68-.06,1.33-.09,1.96h4.52c.51,0,.89-.04,1.22-.09l1.06.53c-.06.32-.09.68-.09.93-.08,1.82-.3,7.35-1.16,9.18-.38.8-.99,1.16-2.03,1.16-.97,0-2.07-.08-3.06-.13l-.19-1.58c1.03.13,2.03.21,2.83.21.55,0,.89-.15,1.1-.63.72-1.44.97-6.12.97-8.15h-5.32c-.68,5.45-2.66,8.34-5.83,10.52l-1.39-1.12c.61-.32,1.39-.85,1.96-1.41,1.88-1.71,3.25-4.08,3.76-8h-3.19c-.74,0-1.52,0-2.18.08v-1.61c.66.08,1.44.11,2.17.11h3.34c.04-.61.08-1.25.08-1.94,0-.42-.06-1.12-.13-1.58h1.79c-.06.44-.09,1.1-.11,1.56Z"/>
      <path class="cls-2" d="m48.35,70.56l-1.44.53c-.29-.99-1.31-3.61-1.69-4.27l1.41-.55c.38.82,1.37,3.31,1.73,4.29Zm9.27-3.23c-.51,2.09-1.33,4.12-2.7,5.83-1.75,2.24-4.07,3.71-6.19,4.52l-1.25-1.27c2.2-.65,4.62-2.09,6.17-4.05,1.35-1.65,2.34-4.07,2.62-6.5l1.63.51c-.13.4-.21.7-.29.95Zm-5.09,2.09l-1.41.49c-.21-.86-1.08-3.27-1.48-4.12l1.39-.47c.32.76,1.25,3.27,1.5,4.1Z"/>
      <path class="cls-2" d="m62.94,63.53c0-.53-.04-1.39-.15-1.98h1.86c-.06.59-.13,1.41-.13,1.98v3.1c2.51.76,6.12,2.13,8.11,3.13l-.65,1.62c-2.07-1.12-5.36-2.39-7.47-3.06.02,2.85.02,5.72.02,6.27,0,.59.04,1.62.11,2.24h-1.84c.09-.61.13-1.54.13-2.24v-11.06Z"/>
      <path class="cls-2" d="m75.46,73.09l1.23-1.08c1.37,1.1,3.08,2.83,4.26,4.22l-1.29,1.1c-1.22-1.5-2.85-3.13-4.2-4.24Z"/>
      <path class="cls-2" d="m93.97,62.47v1.77h4.26c.7,0,1.06-.06,1.31-.15l1.03.65c-.1.29-.21.78-.29,1.14-.25,1.52-.8,3.89-1.86,5.72-1.42,2.49-4.05,4.43-7.52,5.38l-1.23-1.42c.65-.09,1.37-.3,1.98-.53,1.9-.61,3.99-2.03,5.15-3.82,1.03-1.61,1.63-3.91,1.81-5.55h-10.62v3.4c0,.34.02.84.08,1.14h-1.65c.04-.34.06-.85.06-1.22v-3.34c0-.4,0-1.04-.06-1.46.55.06,1.1.08,1.77.08h4.2v-1.77c0-.4-.02-.84-.09-1.42h1.82c-.09.59-.11,1.03-.11,1.42Z"/>
      <path class="cls-2" d="m109.91,68.49c1.8-1.1,3.55-2.66,4.52-3.88l1.18,1.14c-.95,1.04-2.56,2.43-4.29,3.55v6.76c0,.59.02,1.37.09,1.67h-1.75c.04-.3.08-1.08.08-1.67v-5.81c-1.6.85-3.8,1.84-5.95,2.51l-.72-1.41c2.51-.59,5.3-1.92,6.84-2.87Z"/>
      <path class="cls-2" d="m121.59,70.56l-1.44.53c-.29-.99-1.31-3.61-1.69-4.27l1.41-.55c.38.82,1.37,3.31,1.73,4.29Zm9.27-3.23c-.51,2.09-1.33,4.12-2.7,5.83-1.75,2.24-4.07,3.71-6.19,4.52l-1.25-1.27c2.2-.65,4.62-2.09,6.17-4.05,1.35-1.65,2.34-4.07,2.62-6.5l1.63.51c-.13.4-.21.7-.29.95Zm-5.09,2.09l-1.41.49c-.21-.86-1.08-3.27-1.48-4.12l1.39-.47c.32.76,1.25,3.27,1.5,4.1Z"/>
      <path class="cls-2" d="m140.86,63.46c-.13.27-.29.53-.44.8h5.15c.51,0,.93-.06,1.24-.17l1.25.76c-.15.27-.34.7-.44,1.01-.51,1.92-1.67,4.48-3.36,6.55-1.73,2.11-4.01,3.84-7.56,5.17l-1.39-1.25c3.5-1.03,5.87-2.74,7.6-4.77,1.46-1.73,2.64-4.2,3.02-5.93h-6.4c-1.16,1.62-2.74,3.31-4.83,4.67l-1.31-.97c3.27-1.96,5.13-4.73,5.96-6.42.19-.34.47-1.03.59-1.52l1.75.59c-.3.49-.65,1.14-.84,1.48Zm7.5.21l-1.03.46c-.38-.76-1.03-1.92-1.54-2.62l1.01-.44c.47.68,1.16,1.82,1.56,2.6Zm2.13-.78l-1.03.46c-.42-.82-1.04-1.9-1.58-2.6l1.01-.44c.49.7,1.24,1.88,1.6,2.58Z"/>
      <path class="cls-2" d="m159.38,62.87c-.02.68-.06,1.33-.09,1.96h4.52c.51,0,.89-.04,1.22-.09l1.06.53c-.06.32-.09.68-.09.93-.08,1.82-.3,7.35-1.16,9.18-.38.8-.99,1.16-2.03,1.16-.97,0-2.07-.08-3.06-.13l-.19-1.58c1.03.13,2.03.21,2.83.21.55,0,.89-.15,1.1-.63.72-1.44.97-6.12.97-8.15h-5.32c-.68,5.45-2.66,8.34-5.83,10.52l-1.39-1.12c.61-.32,1.39-.85,1.96-1.41,1.88-1.71,3.25-4.08,3.76-8h-3.19c-.74,0-1.52,0-2.18.08v-1.61c.66.08,1.44.11,2.17.11h3.34c.04-.61.08-1.25.08-1.94,0-.42-.06-1.12-.13-1.58h1.79c-.06.44-.09,1.1-.11,1.56Z"/>
      <path class="cls-2" d="m172.78,70.56l-1.44.53c-.29-.99-1.31-3.61-1.69-4.27l1.41-.55c.38.82,1.37,3.31,1.73,4.29Zm9.27-3.23c-.51,2.09-1.33,4.12-2.7,5.83-1.75,2.24-4.07,3.71-6.19,4.52l-1.25-1.27c2.2-.65,4.62-2.09,6.17-4.05,1.35-1.65,2.34-4.07,2.62-6.5l1.63.51c-.13.4-.21.7-.29.95Zm-5.09,2.09l-1.41.49c-.21-.86-1.08-3.27-1.48-4.12l1.39-.47c.32.76,1.25,3.27,1.5,4.1Z"/>
      <path class="cls-2" d="m187.37,63.53c0-.53-.04-1.39-.15-1.98h1.86c-.06.59-.13,1.41-.13,1.98v3.1c2.51.76,6.12,2.13,8.11,3.13l-.65,1.62c-2.07-1.12-5.36-2.39-7.47-3.06.02,2.85.02,5.72.02,6.27,0,.59.04,1.62.11,2.24h-1.84c.09-.61.13-1.54.13-2.24v-11.06Z"/>
      <path class="cls-2" d="m61.49,92.94v14.7h-1.46v-.97h-10.12v1.06h-1.41v-14.8h4.77c.29-.84.59-1.86.74-2.6l1.61.21c-.29.82-.63,1.67-.95,2.39h6.82Zm-11.59,1.35v2.83h10.12v-2.83h-10.12Zm0,4.16v2.75h10.12v-2.75h-10.12Zm10.12,6.9v-2.81h-10.12v2.81h10.12Z"/>
      <path class="cls-2" d="m72.71,102.25c-.49-.55-1.54-1.61-2.39-2.41v7.86h-1.39v-7.37c-.95.95-1.94,1.75-2.91,2.37-.15-.36-.51-1.01-.74-1.27,2.26-1.31,4.63-3.7,5.95-6.23h-5.28v-1.29h2.98v-3.53h1.39v3.53h1.65l.25-.06.8.53c-.59,1.46-1.46,2.87-2.47,4.14.89.7,2.57,2.17,3.04,2.58l-.87,1.14Zm10.47,3.53v1.39h-10.64v-1.39h4.81v-7.88h-4.07v-1.37h4.07v-6.02h1.41v6.02h4.05v1.37h-4.05v7.88h4.43Z"/>
      <path class="cls-2" d="m102.06,94.77s-.02.53-.02.72c-.21,7.96-.38,10.6-1.03,11.4-.32.49-.7.65-1.27.7-.53.08-1.42.06-2.3,0-.04-.38-.19-.97-.4-1.33.91.08,1.75.09,2.11.09.32,0,.49-.06.68-.3.44-.55.67-3.06.85-9.95h-2.72c-.23,5.05-1.1,9.19-4.45,11.7-.21-.3-.7-.78-1.04-1.01.3-.21.57-.44.82-.67-2.87.34-5.81.67-7.94.89l-.21-1.23c1.14-.1,2.57-.23,4.12-.38v-1.63h-3.59v-1.08h3.59v-1.16h-3.55v-5.64h3.55v-1.2h-4.1v-1.1h4.1v-1.25c-1.22.09-2.45.17-3.57.21-.06-.3-.19-.76-.34-1.04,2.81-.15,6.23-.49,8.19-.93l.7,1.08c-1.03.23-2.32.4-3.7.55v1.39h4.03v1.1h-4.03v1.2h3.69v5.64h-3.69v1.16h3.72v1.08h-3.72v1.5c1.24-.11,2.53-.25,3.8-.4v.08c1.63-2.24,2.15-5.3,2.32-8.85h-2.22v-1.33h2.26c.04-1.33.04-2.72.04-4.16h1.33c0,1.42,0,2.83-.04,4.16h4.03Zm-15.18,3.46h2.39v-1.37h-2.39v1.37Zm2.39,2.32v-1.39h-2.39v1.39h2.39Zm1.27-3.69v1.37h2.49v-1.37h-2.49Zm2.49,2.3h-2.49v1.39h2.49v-1.39Z"/>
      <path class="cls-2" d="m121.61,91.62v1.31h-7.71v2.11h3.88v8.49h-9.08v-8.49h3.8v-2.11h-7.56v-1.31h16.68Zm-1.9,3.21h1.37v12.82h-1.37v-1.12h-12.82v1.18h-1.37v-12.88h1.37v10.35h12.82v-10.35Zm-9.82,3.88h2.7v-2.47h-2.7v2.47Zm0,3.63h2.7v-2.49h-2.7v2.49Zm6.65-6.1h-2.72v2.47h2.72v-2.47Zm0,3.61h-2.72v2.49h2.72v-2.49Z"/>
      <path class="cls-2" d="m139.74,94.1c-.76,1.29-2.57,3.74-4.73,5.24l-1.25-1.01c1.75-1.01,3.53-3.08,4.16-4.25h-10.83c-.7,0-1.42.04-2.17.11v-1.73c.67.09,1.46.17,2.17.17h10.9c.36,0,1.04-.06,1.33-.11l.93.89c-.13.19-.38.47-.51.68Zm-12.37,12.86l-1.41-1.14c.53-.17,1.18-.48,1.71-.86,2.94-1.8,3.36-4.5,3.36-7.67,0-.46-.02-.87-.08-1.37h1.71c0,5.15-.46,8.62-5.3,11.04Z"/>
      <path class="cls-2" d="m156.82,90.47c1.18,0,2.15.97,2.15,2.15s-.97,2.13-2.15,2.13c-.25,0-.49-.04-.72-.11,0,.06-.02.13-.04.21-.4,1.99-1.33,5.05-2.83,7.01-1.73,2.22-3.99,3.99-7.48,5.07l-1.29-1.42c3.69-.91,5.83-2.53,7.41-4.56,1.35-1.73,2.24-4.37,2.49-6.19h-9.71c-.76,0-1.41.04-1.9.06v-1.69c.53.08,1.27.13,1.9.13h9.54c.17,0,.38,0,.61-.02-.06-.19-.09-.4-.09-.61,0-1.18.95-2.15,2.13-2.15Zm0,3.4c.7,0,1.27-.57,1.27-1.25s-.57-1.27-1.27-1.27-1.25.57-1.25,1.27.57,1.25,1.25,1.25Z"/>
      <path class="cls-2" d="m163.85,93.36v6.35c0,.47.04,1.1.08,1.44h-1.75c.04-.29.09-.89.09-1.46v-6.33c0-.34-.04-1.01-.08-1.37h1.73c-.04.36-.08.91-.08,1.37Zm8.83.13v3.08c0,4.56-.63,6.06-1.99,7.69-1.24,1.48-3.13,2.3-4.52,2.77l-1.24-1.31c1.75-.44,3.36-1.2,4.54-2.53,1.35-1.58,1.58-3.12,1.58-6.71v-3c0-.65-.04-1.18-.09-1.65h1.79c-.04.47-.06,1.01-.06,1.65Z"/>
      <path class="cls-2" d="m176.39,103.09l1.23-1.08c1.37,1.1,3.08,2.83,4.26,4.22l-1.29,1.1c-1.22-1.5-2.85-3.13-4.2-4.24Z"/>
      <path class="cls-2" d="m188.32,101.34c-.27,1.79-.7,3.61-1.31,4.83-.21-.17-.78-.42-1.04-.51.59-1.16.95-2.87,1.16-4.52l1.2.21Zm2.05-1.63v8h-1.25v-7.92l-2.98.19-.13-1.27,1.31-.06c.38-.47.78-1.01,1.18-1.58-.55-.86-1.5-1.94-2.36-2.75l.76-.89c.19.17.38.34.57.53.63-1.08,1.29-2.53,1.69-3.57l1.24.46c-.65,1.31-1.46,2.85-2.18,3.91.4.42.74.84,1.03,1.22.78-1.18,1.5-2.41,2.03-3.44l1.18.55c-1.08,1.73-2.51,3.88-3.8,5.49l2.74-.13c-.27-.55-.55-1.1-.85-1.6l1.03-.42c.8,1.22,1.56,2.85,1.84,3.89l-1.12.51c-.08-.36-.21-.78-.4-1.22l-1.5.1Zm1.62,5.01c-.1-.91-.48-2.3-.93-3.34l1.03-.3c.47,1.04.87,2.41,1.01,3.33l-1.1.32Zm7.45-3.12c1.12,1.65,2.93,3.34,4.5,4.22-.3.27-.74.74-.97,1.08-1.42-.93-3.02-2.54-4.18-4.24v5.02h-1.35v-4.9c-1.22,1.77-2.91,3.34-4.56,4.27-.21-.34-.63-.82-.95-1.08,1.82-.87,3.74-2.6,4.9-4.37h-3.32v-6.52h3.93v-1.58h-4.52v-1.23h4.52v-1.9h1.35v1.9h4.48v1.23h-4.48v1.58h4.07v6.52h-3.42Zm-4.67-3.78h2.75v-1.65h-2.75v1.65Zm0,2.7h2.75v-1.67h-2.75v1.67Zm6.8-4.35h-2.85v1.65h2.85v-1.65Zm0,2.68h-2.85v1.67h2.85v-1.67Z"/>
      <path class="cls-2" d="m211.14,96.48c-1.67.72-3.38,1.42-4.75,1.96l-.55-1.16c1.29-.4,3.21-1.1,5.09-1.84l.21,1.04Zm1.04-3.99h-5.89v-1.16h7.2v6.25c0,.63-.15.95-.61,1.14-.49.19-1.25.17-2.45.17-.06-.32-.23-.74-.36-1.04.84.02,1.6.02,1.82,0,.23,0,.29-.08.29-.29v-5.07Zm-4.35.17c.89.47,1.98,1.22,2.49,1.79l-.76.91c-.49-.59-1.56-1.37-2.47-1.86l.74-.83Zm7.24,5.76c-.27.51-.55,1.04-.82,1.5h6.19v7.85h-1.42v-.74h-9.21v.74h-1.39v-7.85h4.45c.29-.59.57-1.27.74-1.79l1.46.29Zm3.95,2.6h-9.21v1.84h9.21v-1.84Zm0,4.88v-1.92h-9.21v1.92h9.21Zm-4.77-8.99c1.37-.44,3.36-1.14,5.34-1.84l.21,1.04c-1.75.67-3.59,1.35-5.03,1.88l-.51-1.08Zm7.69.67c0,.67-.15.99-.65,1.2-.51.19-1.31.19-2.56.19-.06-.34-.23-.8-.4-1.12.89.04,1.71.04,1.98.04.23-.02.3-.08.3-.3v-5.09h-5.93v-1.16h7.26v6.25Zm-4.24-2.26c-.49-.59-1.6-1.35-2.51-1.8l.74-.85c.89.44,1.99,1.16,2.54,1.73l-.78.93Z"/>
      <path class="cls-2" d="m234.4,90.4c2,2.79,5.3,5.26,8.28,6.5-.32.34-.67.84-.91,1.25-2.93-1.42-6.25-3.95-8.02-6.4-1.54,2.28-4.62,4.88-7.85,6.48-.15-.32-.51-.84-.82-1.12,3.25-1.56,6.4-4.29,7.87-6.71h1.44Zm-8.32,9.44h15.62v1.31h-8.91c-.67,1.41-1.48,3.04-2.24,4.37,2.36-.08,5.03-.17,7.69-.28-.78-.89-1.67-1.82-2.51-2.57l1.2-.65c1.75,1.5,3.59,3.55,4.46,4.96l-1.27.78c-.23-.38-.51-.82-.87-1.27-4.65.23-9.58.44-12.82.55l-.19-1.39c.82-.02,1.77-.04,2.79-.08.72-1.31,1.54-3.04,2.05-4.43h-5v-1.31Zm12.21-3.61v1.29h-8.99v-1.29h8.99Z"/>
      <path class="cls-2" d="m34.95,122.87c-.02.68-.06,1.33-.09,1.96h4.52c.51,0,.89-.04,1.22-.09l1.06.53c-.06.32-.09.68-.09.93-.08,1.82-.3,7.35-1.16,9.18-.38.8-.99,1.16-2.03,1.16-.97,0-2.07-.08-3.06-.13l-.19-1.58c1.03.13,2.03.21,2.83.21.55,0,.89-.15,1.1-.63.72-1.44.97-6.12.97-8.15h-5.32c-.68,5.45-2.66,8.34-5.83,10.52l-1.39-1.12c.61-.32,1.39-.85,1.96-1.41,1.88-1.71,3.25-4.08,3.76-8h-3.19c-.74,0-1.52,0-2.18.08v-1.61c.66.08,1.44.11,2.17.11h3.34c.04-.61.08-1.25.08-1.94,0-.42-.06-1.12-.13-1.58h1.79c-.06.44-.09,1.1-.11,1.56Z"/>
      <path class="cls-2" d="m48.35,130.56l-1.44.53c-.29-.99-1.31-3.61-1.69-4.27l1.41-.55c.38.82,1.37,3.31,1.73,4.29Zm9.27-3.23c-.51,2.09-1.33,4.12-2.7,5.83-1.75,2.24-4.07,3.71-6.19,4.52l-1.25-1.27c2.2-.65,4.62-2.09,6.17-4.05,1.35-1.65,2.34-4.07,2.62-6.5l1.63.51c-.13.4-.21.7-.29.95Zm-5.09,2.09l-1.41.49c-.21-.86-1.08-3.27-1.48-4.12l1.39-.47c.32.76,1.25,3.27,1.5,4.1Z"/>
      <path class="cls-2" d="m62.94,123.53c0-.53-.04-1.39-.15-1.98h1.86c-.06.59-.13,1.41-.13,1.98v3.1c2.51.76,6.12,2.13,8.11,3.13l-.65,1.62c-2.07-1.12-5.36-2.39-7.47-3.06.02,2.85.02,5.72.02,6.27,0,.59.04,1.62.11,2.24h-1.84c.09-.61.13-1.54.13-2.24v-11.06Z"/>
      <path class="cls-2" d="m78.92,122.85h9.04c.61,0,1.14-.04,1.56-.08v1.52c-.46-.02-.89-.06-1.56-.06h-4.94v4.03h6.4c.4,0,1.16-.04,1.58-.08v1.56c-.44-.06-1.12-.06-1.54-.06h-6.44v3.82c0,.95.67,1.52,2.41,1.52s3.36-.08,5-.27l-.09,1.6c-1.48.11-3.31.19-5.11.19-2.87,0-3.78-1.01-3.78-2.56v-4.29h-3.7c-.48,0-1.25.04-1.79.08v-1.6c.51.04,1.29.09,1.79.09h3.7v-4.03h-2.53c-.65,0-1.2.02-1.71.06v-1.52c.51.04,1.06.08,1.71.08Z"/>
      <path class="cls-2" d="m95.66,127.24h12.44c.4,0,1.03-.02,1.48-.09v1.58c-.42-.02-1.03-.04-1.48-.04h-5.17c-.06,2.05-.36,3.78-1.12,5.21-.68,1.25-2.13,2.62-3.74,3.46l-1.41-1.04c1.48-.61,2.85-1.71,3.59-2.91.84-1.31,1.04-2.91,1.1-4.71h-5.7c-.57,0-1.12,0-1.63.04v-1.58c.51.06,1.04.09,1.63.09Zm2.34-4.75h6.57c.55,0,1.22-.04,1.77-.11v1.58c-.55-.04-1.22-.06-1.77-.06h-6.55c-.63,0-1.25.02-1.75.06v-1.58c.55.06,1.12.11,1.73.11Zm10.89.95l-1.03.46c-.38-.78-1.03-1.92-1.54-2.64l1.01-.42c.47.67,1.18,1.82,1.56,2.6Zm2.13-.78l-1.03.46c-.42-.83-1.03-1.9-1.58-2.62l1.01-.42c.49.68,1.23,1.88,1.6,2.58Z"/>
      <path class="cls-2" d="m114.91,131.09c.55-1.73.57-5.53.57-7.64,0-.57-.06-.99-.13-1.39h1.75c-.02.23-.09.8-.09,1.37,0,2.11-.08,6.17-.59,8.07-.57,2.03-1.79,3.89-3.38,5.22l-1.42-.97c1.6-1.14,2.74-2.83,3.31-4.67Zm5.53,3.7v-11.38c0-.72-.1-1.27-.11-1.41h1.75c-.02.13-.08.68-.08,1.41v10.96c1.75-.8,4.08-2.53,5.55-4.67l.89,1.29c-1.63,2.22-4.27,4.18-6.48,5.26-.3.17-.51.32-.65.44l-1.01-.84c.08-.3.13-.68.13-1.06Z"/>
      <path class="cls-2" d="m52.17,158.51l-.87,1.33c-.93-.68-3-2.01-4.14-2.6l.84-1.29c1.12.61,3.34,1.96,4.18,2.56Zm2.2,4.52c3.15-1.8,5.66-4.27,7.2-6.95l.91,1.56c-1.63,2.56-4.27,5.02-7.29,6.8-1.92,1.1-4.54,1.99-6.31,2.36l-.87-1.54c2.09-.36,4.45-1.12,6.36-2.22Zm.61-8.68l-.89,1.29c-.91-.68-2.96-2.05-4.08-2.7l.85-1.27c1.12.63,3.31,2.07,4.12,2.68Z"/>
      <path class="cls-2" d="m67.1,155.91h7.35c.42,0,.91-.02,1.16-.04-.02.21-.02.61-.02.97v9.46c0,.3.02.76.04,1.03h-1.5c.02-.17.02-.46.02-.76h-7.64c-.61,0-1.27.04-1.58.04v-1.52c.3.04.91.08,1.56.08h7.66v-3.38h-6.86c-.67,0-1.33.02-1.71.04v-1.46c.36.02,1.04.06,1.69.06h6.88v-3.15h-7.05c-.49,0-1.6.04-1.94.06v-1.48c.36.04,1.44.08,1.94.08Z"/>
      <path class="cls-2" d="m82.44,158.13h10.41c.95,0,1.63-.06,2.05-.09v1.86c-.38-.02-1.18-.09-2.03-.09h-10.43c-1.04,0-2.05.04-2.64.09v-1.86c.57.04,1.58.09,2.64.09Z"/>
      <path class="cls-2" d="m100.75,153.53c0-.53-.04-1.39-.15-1.98h1.86c-.06.59-.13,1.41-.13,1.98v3.1c2.51.76,6.12,2.13,8.11,3.13l-.65,1.62c-2.07-1.12-5.36-2.39-7.47-3.06.02,2.85.02,5.72.02,6.27,0,.59.04,1.62.11,2.24h-1.84c.09-.61.13-1.54.13-2.24v-11.06Z"/>
      <path class="cls-2" d="m210.5,165.24c4.08-4.07,6.38-6.5,6.38-8.72,0-1.54-.84-2.64-2.56-2.64-1.14,0-2.13.72-2.89,1.61l-1.01-.97c1.14-1.23,2.34-2.05,4.1-2.05,2.49,0,4.05,1.58,4.05,3.97,0,2.54-2.32,5.07-5.53,8.45.72-.06,1.56-.13,2.28-.13h3.93v1.5h-8.76v-1.03Z"/>
      <path class="cls-2" d="m221.61,159.44c0-4.54,1.65-6.97,4.35-6.97s4.33,2.45,4.33,6.97-1.63,7.07-4.33,7.07-4.35-2.53-4.35-7.07Zm6.99,0c0-3.97-1.06-5.58-2.64-5.58s-2.66,1.62-2.66,5.58,1.06,5.68,2.66,5.68,2.64-1.71,2.64-5.68Z"/>
      <path class="cls-2" d="m58.87,195.27l-.65,1.46c-2.53-1.1-8.17-2.37-11.25-2.87l.59-1.44c3.19.49,8.7,1.81,11.3,2.85Zm-.68-6.1l-.61,1.46c-2.2-.87-6.84-1.92-9.54-2.32l.57-1.42c2.6.44,7.2,1.41,9.57,2.28Zm1.25-5.09l-.61,1.46c-2.32-.83-7.29-1.92-9.92-2.26l.55-1.41c2.47.3,7.58,1.37,9.97,2.2Z"/>
      <path class="cls-2" d="m64.16,187.24h12.44c.4,0,1.03-.02,1.48-.09v1.58c-.42-.02-1.03-.04-1.48-.04h-5.17c-.06,2.05-.36,3.78-1.12,5.21-.68,1.25-2.13,2.62-3.74,3.46l-1.41-1.04c1.48-.61,2.85-1.71,3.59-2.91.84-1.31,1.04-2.91,1.1-4.71h-5.7c-.57,0-1.12,0-1.63.04v-1.58c.51.06,1.04.09,1.63.09Zm2.34-4.75h6.57c.55,0,1.22-.04,1.77-.11v1.58c-.55-.04-1.22-.06-1.77-.06h-6.55c-.63,0-1.25.02-1.75.06v-1.58c.55.06,1.12.11,1.73.11Zm10.89.95l-1.03.46c-.38-.78-1.03-1.92-1.54-2.64l1.01-.42c.47.67,1.18,1.82,1.56,2.6Zm2.13-.78l-1.03.46c-.42-.83-1.03-1.9-1.58-2.62l1.01-.42c.49.68,1.23,1.88,1.6,2.58Z"/>
      <path class="cls-2" d="m87.62,188.49c1.8-1.1,3.55-2.66,4.52-3.88l1.18,1.14c-.95,1.04-2.56,2.43-4.29,3.55v6.76c0,.59.02,1.37.09,1.67h-1.75c.04-.3.08-1.08.08-1.67v-5.81c-1.6.85-3.8,1.84-5.95,2.51l-.72-1.41c2.51-.59,5.3-1.92,6.84-2.87Z"/>
      <path class="cls-2" d="m111.39,184.1c-.76,1.29-2.57,3.74-4.73,5.24l-1.25-1.01c1.75-1.01,3.53-3.08,4.16-4.25h-10.83c-.7,0-1.42.04-2.17.11v-1.73c.67.09,1.46.17,2.17.17h10.9c.36,0,1.04-.06,1.33-.11l.93.89c-.13.19-.38.47-.51.68Zm-12.37,12.86l-1.41-1.14c.53-.17,1.18-.48,1.71-.86,2.94-1.8,3.36-4.5,3.36-7.67,0-.46-.02-.87-.08-1.37h1.71c0,5.15-.46,8.62-5.3,11.04Z"/>
      <path class="cls-2" d="m121.69,183.86c-.55,1.79-2.43,7.62-3.38,10.09,2.79-.27,6.44-.67,8.53-.95-.76-1.5-1.62-2.98-2.32-3.89l1.42-.65c1.35,1.96,3.42,5.78,4.22,7.73l-1.6.72c-.25-.68-.61-1.56-1.04-2.49-2.93.38-9.29,1.08-11.83,1.31-.47.04-1.03.13-1.58.21l-.28-1.77c.57.02,1.22,0,1.77-.02.28-.02.61-.04.95-.06,1.06-2.62,3-8.7,3.53-10.56.23-.87.3-1.33.36-1.82l1.9.38c-.19.47-.4.97-.65,1.77Z"/>
      <path class="cls-2" d="m210.08,195.24c4.08-4.07,6.38-6.5,6.38-8.72,0-1.54-.84-2.64-2.56-2.64-1.14,0-2.13.72-2.89,1.61l-1.01-.97c1.14-1.23,2.34-2.05,4.1-2.05,2.49,0,4.05,1.58,4.05,3.97,0,2.54-2.32,5.07-5.53,8.45.72-.06,1.56-.13,2.28-.13h3.93v1.5h-8.76v-1.03Z"/>
      <path class="cls-2" d="m221.19,189.44c0-4.54,1.65-6.97,4.35-6.97s4.33,2.45,4.33,6.97-1.63,7.07-4.33,7.07-4.35-2.53-4.35-7.07Zm6.99,0c0-3.97-1.06-5.58-2.64-5.58s-2.66,1.62-2.66,5.58,1.06,5.68,2.66,5.68,2.64-1.71,2.64-5.68Z"/>
      <path class="cls-2" d="m59.02,213.82c-.63,1.67-1.58,3.76-2.85,5.6,1.71,1.41,3.34,2.89,4.69,4.35l-1.2,1.31c-1.41-1.62-2.85-2.96-4.48-4.37-1.79,2.15-4.14,4.41-7.45,6.14l-1.31-1.2c3.32-1.56,5.66-3.67,7.54-5.96-1.41-1.14-3.53-2.7-5.36-3.84l.99-1.2c1.63,1.04,3.84,2.6,5.34,3.76,1.23-1.77,2.01-3.57,2.58-5.19.13-.38.3-.99.38-1.41l1.75.61c-.21.34-.47.99-.63,1.39Z"/>
      <path class="cls-2" d="m71.64,222.29c2.93-1.84,5.24-4.65,6.34-6.99l.91,1.61c-1.29,2.38-3.51,4.96-6.38,6.76-1.9,1.2-4.29,2.36-7.47,2.95l-1.01-1.56c3.32-.49,5.79-1.65,7.6-2.77Zm-1.12-6.02l-1.2,1.2c-.95-.99-3.32-3.02-4.73-3.97l1.08-1.16c1.35.89,3.78,2.87,4.84,3.93Z"/>
      <path class="cls-2" d="m93.53,214.71c-.65,1.65-1.84,3.88-3.19,5.58,2,1.71,4.31,4.18,5.55,5.66l-1.33,1.16c-1.27-1.69-3.29-3.91-5.22-5.66-2.03,2.2-4.6,4.27-7.41,5.57l-1.22-1.27c3.06-1.2,5.87-3.46,7.83-5.64,1.29-1.46,2.68-3.72,3.15-5.3h-7.41c-.66,0-1.71.08-1.92.09v-1.71c.27.04,1.35.11,1.92.11h7.33c.63,0,1.12-.06,1.42-.15l.97.74c-.11.15-.36.57-.47.82Zm1.58-1.31l-1.03.46c-.38-.76-1.01-1.88-1.52-2.62l1.01-.44c.47.7,1.18,1.86,1.54,2.6Zm2.2-.68l-1.03.46c-.42-.82-1.04-1.9-1.56-2.6l.99-.44c.51.7,1.24,1.88,1.6,2.58Z"/>
      <path class="cls-2" d="m210.23,225.24c4.08-4.07,6.38-6.5,6.38-8.72,0-1.54-.84-2.64-2.56-2.64-1.14,0-2.13.72-2.89,1.61l-1.01-.97c1.14-1.23,2.34-2.05,4.1-2.05,2.49,0,4.05,1.58,4.05,3.97,0,2.54-2.32,5.07-5.53,8.45.72-.06,1.56-.13,2.28-.13h3.93v1.5h-8.76v-1.03Z"/>
      <path class="cls-2" d="m221.34,219.44c0-4.54,1.65-6.97,4.35-6.97s4.33,2.45,4.33,6.97-1.63,7.07-4.33,7.07-4.35-2.53-4.35-7.07Zm6.99,0c0-3.97-1.06-5.58-2.64-5.58s-2.66,1.62-2.66,5.58,1.06,5.68,2.66,5.68,2.64-1.71,2.64-5.68Z"/>
      <path class="cls-2" d="m50.76,243.5l1.69.36c-.11.42-.27.97-.34,1.37-.27,1.2-.93,4.01-1.73,5.95-.7,1.75-1.73,3.7-2.79,5.22l-1.62-.68c1.2-1.58,2.26-3.57,2.93-5.17.82-1.96,1.61-4.84,1.86-7.05Zm4.73.32l1.54-.51c.76,1.37,1.98,3.99,2.77,6,.78,1.88,1.79,4.79,2.28,6.5l-1.69.55c-.47-1.94-1.35-4.5-2.15-6.54-.76-1.96-1.92-4.6-2.75-6Zm5.4-2.94c1.16,0,2.13.97,2.13,2.15s-.97,2.13-2.13,2.13-2.13-.95-2.13-2.13.95-2.15,2.13-2.15Zm0,3.4c.68,0,1.25-.57,1.25-1.25s-.57-1.27-1.25-1.27-1.25.57-1.25,1.27.55,1.25,1.25,1.25Z"/>
      <path class="cls-2" d="m68.17,248.13h10.41c.95,0,1.63-.06,2.05-.09v1.86c-.38-.02-1.18-.09-2.03-.09h-10.43c-1.04,0-2.05.04-2.64.09v-1.86c.57.04,1.58.09,2.64.09Z"/>
      <path class="cls-2" d="m99.02,244.81c-1.37,2.22-3.78,5.32-6.92,7.71,1.14,1.14,2.49,2.56,3.25,3.5l-1.39,1.1c-.7-.97-2.22-2.64-3.42-3.88-1.14-1.14-3.34-3.04-4.35-3.74l1.23-1.01c.7.51,2.26,1.79,3.55,2.94,2.79-2.09,4.98-4.88,5.93-6.59h-11.17c-.74,0-1.56.08-1.94.11v-1.71c.53.08,1.27.15,1.94.15h11.32c.53,0,.97-.06,1.23-.15l1.2.97c-.19.21-.36.42-.47.59Z"/>
      <path class="cls-2" d="m101.38,253.09l1.23-1.08c1.37,1.1,3.08,2.83,4.26,4.22l-1.29,1.1c-1.22-1.5-2.85-3.13-4.2-4.24Z"/>
      <path class="cls-2" d="m124.14,244.39c-.65,1.63-1.84,3.86-3.19,5.57,2,1.71,4.31,4.18,5.55,5.68l-1.33,1.14c-1.27-1.67-3.29-3.91-5.22-5.64-2.03,2.18-4.6,4.27-7.41,5.55l-1.22-1.27c3.06-1.2,5.87-3.46,7.83-5.64,1.29-1.46,2.68-3.7,3.15-5.28h-7.41c-.66,0-1.71.08-1.92.09v-1.73c.27.04,1.35.11,1.92.11h7.33c.63,0,1.12-.06,1.42-.15l.97.74c-.11.15-.36.57-.47.84Z"/>
      <path class="cls-2" d="m131.49,243.53c0-.53-.04-1.39-.15-1.98h1.86c-.06.59-.13,1.41-.13,1.98v3.1c2.51.76,6.12,2.13,8.11,3.13l-.65,1.62c-2.07-1.12-5.36-2.39-7.47-3.06.02,2.85.02,5.72.02,6.27,0,.59.04,1.62.11,2.24h-1.84c.09-.61.13-1.54.13-2.24v-11.06Z"/>
      <path class="cls-2" d="m146.26,254.72v-10.87c0-.49-.09-1.35-.17-1.73h1.88c-.08.47-.13,1.18-.13,1.73v10.77c3.63-.91,8.04-3.42,10.39-6.48l.85,1.33c-2.47,3.06-6.38,5.41-11.11,6.78-.21.06-.49.15-.8.34l-1.1-.95c.13-.3.19-.55.19-.93Z"/>
      <path class="cls-2" d="m164.69,248.13h10.41c.95,0,1.63-.06,2.05-.09v1.86c-.38-.02-1.18-.09-2.03-.09h-10.43c-1.04,0-2.05.04-2.64.09v-1.86c.57.04,1.58.09,2.64.09Z"/>
      <path class="cls-2" d="m183,243.53c0-.53-.04-1.39-.15-1.98h1.86c-.06.59-.13,1.41-.13,1.98v3.1c2.51.76,6.12,2.13,8.11,3.13l-.65,1.62c-2.07-1.12-5.36-2.39-7.47-3.06.02,2.85.02,5.72.02,6.27,0,.59.04,1.62.11,2.24h-1.84c.09-.61.13-1.54.13-2.24v-11.06Z"/>
      <path class="cls-2" d="m210.4,254.82h3.1v-9.99h-2.47v-1.12c1.23-.21,2.13-.53,2.89-.99h1.33v12.1h2.79v1.44h-7.64v-1.44Z"/>
      <path class="cls-2" d="m220.68,249.44c0-4.54,1.65-6.97,4.35-6.97s4.33,2.45,4.33,6.97-1.63,7.07-4.33,7.07-4.35-2.53-4.35-7.07Zm6.99,0c0-3.97-1.06-5.58-2.64-5.58s-2.66,1.62-2.66,5.58,1.06,5.68,2.66,5.68,2.64-1.71,2.64-5.68Z"/>
      <path class="cls-2" d="m192.03,274.67h-7.49v-1.16h7.49v1.16Zm-.76,11.95h-4.6v.87h-1.25v-6.36h5.85v5.49Zm-5.83-10.54h5.89v1.12h-5.89v-1.12Zm0,2.51h5.89v1.14h-5.89v-1.14Zm5.89-6.42h-5.79v-1.14h5.79v1.14Zm-4.65,10.12v3.19h3.32v-3.19h-3.32Zm15.44-4.08h-4.25v9.5h-1.41v-9.5h-4.45v-1.39h4.45v-6.4h1.41v6.4h4.25v1.39Z"/>
      <path class="cls-2" d="m215.62,274.2h-6.74v-1.48h8.72v1.06c-3.19,4.1-3.88,7.2-4.08,12.48h-1.8c.23-5.11,1.25-8.34,3.91-12.06Z"/>
      <path class="cls-2" d="m219.9,279.44c0-4.54,1.65-6.97,4.35-6.97s4.33,2.45,4.33,6.97-1.63,7.07-4.33,7.07-4.35-2.53-4.35-7.07Zm6.99,0c0-3.97-1.06-5.58-2.64-5.58s-2.66,1.62-2.66,5.58,1.06,5.68,2.66,5.68,2.64-1.71,2.64-5.68Z"/>
      <path class="cls-2" d="m155.98,311.87l.67,1.14c-1.67,1.27-3.34,3.17-4.43,4.86-1.08-1.69-2.75-3.59-4.43-4.86l.67-1.14c1.18.86,2.37,2.11,3.12,3.08v-14.65h1.29v14.65c.74-.97,1.94-2.22,3.12-3.08Z"/>
      <path class="cls-2" d="m125.91,337.07h12.44c.4,0,1.03-.02,1.48-.1v1.58c-.42-.02-1.03-.04-1.48-.04h-5.17c-.06,2.05-.36,3.78-1.12,5.19-.68,1.27-2.13,2.64-3.74,3.48l-1.41-1.04c1.48-.61,2.85-1.71,3.59-2.91.84-1.33,1.04-2.92,1.1-4.71h-5.7c-.57,0-1.12,0-1.65.04v-1.58c.53.06,1.06.1,1.65.1Zm2.34-4.75h7.69c.53,0,1.22-.04,1.77-.11v1.58c-.55-.04-1.22-.06-1.77-.06h-7.67c-.63,0-1.25.02-1.73.06v-1.58c.53.06,1.1.11,1.71.11Z"/>
      <path class="cls-2" d="m154.75,334.39c-.65,1.63-1.84,3.86-3.19,5.57,2,1.71,4.31,4.18,5.55,5.68l-1.33,1.14c-1.27-1.67-3.29-3.91-5.22-5.64-2.03,2.18-4.6,4.27-7.41,5.55l-1.22-1.27c3.06-1.2,5.87-3.46,7.83-5.64,1.29-1.46,2.68-3.7,3.15-5.28h-7.41c-.67,0-1.71.08-1.92.09v-1.73c.27.04,1.35.11,1.92.11h7.33c.63,0,1.12-.06,1.42-.15l.97.74c-.11.15-.36.57-.48.84Z"/>
      <path class="cls-2" d="m162.1,333.53c0-.53-.04-1.39-.15-1.98h1.86c-.06.59-.13,1.41-.13,1.98v3.1c2.51.76,6.12,2.13,8.11,3.13l-.65,1.62c-2.07-1.12-5.36-2.39-7.47-3.06.02,2.85.02,5.72.02,6.27,0,.59.04,1.62.11,2.24h-1.84c.09-.61.13-1.54.13-2.24v-11.06Z"/>
    </g>
    <g>
      <path class="cls-2" d="m7.12,14.62H0v-7.12h7.12v7.12Z"/>
      <path class="cls-2" d="m7.12,72.62H0v-7.12h7.12v7.12Z"/>
      <path class="cls-2" d="m7.12,130.62H0v-7.12h7.12v7.12Z"/>
    </g>
    <rect class="cls-3" x="20.53" y="369.27" width="277.53" height="38.19"/>
    <g>
      <path class="cls-1" d="m69.54,382.6c-.71,1.64-1.89,3.88-3.3,5.77,2.08,1.8,4.62,4.49,5.86,6l-2.39,2.08c-1.37-1.89-3.32-4.03-5.29-5.94-2.23,2.35-5.02,4.54-7.89,5.9l-2.16-2.27c3.38-1.26,6.63-3.82,8.61-6.03,1.39-1.58,2.67-3.65,3.13-5.14h-7.12c-.88,0-2.04.13-2.48.15v-2.98c.57.08,1.85.15,2.48.15h7.41c.9,0,1.74-.13,2.16-.27l1.72,1.28c-.17.23-.55.88-.73,1.3Z"/>
      <path class="cls-1" d="m84.03,381.05h4.26c.65,0,1.37-.08,1.83-.23l2.14,1.32c-.23.4-.5.97-.69,1.49-.57,1.7-1.62,3.95-3.11,6.05.9.65,1.72,1.26,2.33,1.76l-1.99,2.37c-.57-.53-1.34-1.18-2.21-1.87-1.85,1.95-4.24,3.74-7.52,4.98l-2.44-2.12c3.63-1.11,5.96-2.81,7.71-4.56-1.37-1.01-2.75-1.95-3.82-2.62l1.87-1.91c1.11.63,2.44,1.49,3.76,2.37,1.09-1.51,2-3.34,2.31-4.64h-6c-1.47,1.95-3.42,3.97-5.54,5.44l-2.27-1.74c3.67-2.29,5.63-5.17,6.68-6.99.34-.5.78-1.47.97-2.18l3.04.94c-.52.74-1.05,1.68-1.3,2.14Z"/>
      <path class="cls-1" d="m103.54,383.61c2.16-1.34,4.56-3.44,5.92-5.1l2.27,2.16c-1.6,1.58-3.61,3.21-5.65,4.56v8.48c0,.92.04,2.23.19,2.75h-3.32c.08-.5.15-1.83.15-2.75v-6.72c-2.16,1.13-4.83,2.27-7.41,3.02l-1.32-2.64c3.76-.97,6.84-2.33,9.17-3.76Z"/>
      <path class="cls-1" d="m118.83,381.03v7.1c0,.52.02,1.34.06,1.83h-3.04c.02-.4.1-1.22.1-1.85v-7.08c0-.4-.02-1.13-.08-1.62h3.02c-.04.48-.06.94-.06,1.62Zm9.72.32v4.16c0,4.51-.88,6.47-2.44,8.19-1.38,1.51-3.57,2.54-5.1,3.02l-2.18-2.31c2.08-.48,3.78-1.28,5.04-2.65,1.45-1.58,1.72-3.15,1.72-6.42v-3.99c0-.84-.04-1.51-.13-2.1h3.17c-.04.59-.08,1.26-.08,2.1Z"/>
      <path class="cls-1" d="m147.47,382.6c-.71,1.64-1.89,3.88-3.3,5.77,2.08,1.8,4.62,4.49,5.86,6l-2.39,2.08c-1.37-1.89-3.32-4.03-5.29-5.94-2.23,2.35-5.02,4.54-7.89,5.9l-2.16-2.27c3.38-1.26,6.63-3.82,8.61-6.03,1.39-1.58,2.67-3.65,3.13-5.14h-7.12c-.88,0-2.04.13-2.48.15v-2.98c.57.08,1.85.15,2.48.15h7.41c.9,0,1.74-.13,2.16-.27l1.72,1.28c-.17.23-.55.88-.73,1.3Z"/>
      <path class="cls-1" d="m156.21,381.45c0-.73-.06-1.78-.21-2.52h3.28c-.08.74-.19,1.66-.19,2.52v3.11c2.81.82,6.84,2.31,8.78,3.25l-1.2,2.9c-2.16-1.13-5.31-2.35-7.58-3.13v5.94c0,.61.1,2.08.19,2.94h-3.28c.13-.84.21-2.1.21-2.94v-12.07Z"/>
      <path class="cls-1" d="m172.92,385.19h13.75c.44,0,1.37-.04,1.91-.13v2.73c-.52-.04-1.32-.06-1.91-.06h-5.06c-.13,2.16-.59,3.93-1.34,5.4-.74,1.47-2.35,3.09-4.22,4.03l-2.46-1.78c1.49-.57,2.96-1.76,3.8-3,.86-1.3,1.22-2.88,1.3-4.64h-5.77c-.61,0-1.43.04-2.02.08v-2.75c.63.08,1.37.13,2.02.13Zm2.67-5.33h6.87c.71,0,1.55-.06,2.27-.17v2.71c-.71-.04-1.53-.06-2.27-.06h-6.87c-.71,0-1.62.02-2.25.06v-2.71c.67.11,1.53.17,2.25.17Zm12.05,1.26l-1.68.74c-.44-.86-1.09-2.12-1.66-2.92l1.68-.69c.52.78,1.26,2.1,1.66,2.88Zm2.52-.96l-1.68.73c-.44-.88-1.11-2.1-1.68-2.9l1.66-.69c.55.8,1.32,2.12,1.7,2.86Z"/>
      <path class="cls-1" d="m196.15,381.62v3.97c2.48-.61,5.4-1.53,7.27-2.33.76-.29,1.47-.63,2.29-1.13l1.13,2.67c-.82.34-1.76.74-2.46.99-2.12.84-5.5,1.89-8.23,2.56v3.88c0,.9.42,1.13,1.37,1.32.63.08,1.49.13,2.44.13,2.18,0,5.58-.27,7.31-.74v3.07c-1.97.29-5.17.44-7.47.44-1.37,0-2.62-.08-3.53-.23-1.83-.34-2.88-1.34-2.88-3.15v-11.44c0-.46-.06-1.55-.17-2.18h3.11c-.1.63-.17,1.6-.17,2.18Zm10.9-.21l-1.7.71c-.42-.86-1.07-2.1-1.64-2.92l1.66-.67c.52.78,1.28,2.1,1.68,2.88Zm2.5-.97l-1.66.71c-.44-.88-1.11-2.1-1.7-2.9l1.66-.67c.57.78,1.34,2.12,1.7,2.86Z"/>
      <path class="cls-1" d="m224.27,386.4c-.17,1.24-.71,4.85-1.03,6.85h1.34c.55,0,1.51-.02,2.06-.08v2.71c-.42-.02-1.45-.06-2.02-.06h-11.04c-.76,0-1.28.02-2.08.06v-2.73c.57.06,1.34.11,2.08.11h6.8c.29-1.79.76-4.77.82-5.94h-5.67c-.67,0-1.49.06-2.1.1v-2.77c.55.06,1.51.13,2.08.13h5.38c.44,0,1.3-.08,1.55-.23l2.04.99c-.11.27-.17.67-.21.88Z"/>
      <path class="cls-1" d="m233.49,385.94h11.28c.99,0,1.91-.08,2.46-.13v3.3c-.5-.02-1.58-.11-2.46-.11h-11.28c-1.2,0-2.6.04-3.38.11v-3.3c.76.06,2.29.13,3.38.13Z"/>
    </g>
  </g>
</svg>