<?xml version="1.0" encoding="UTF-8"?>
<svg id="_レイヤー_2" data-name="レイヤー 2" xmlns="http://www.w3.org/2000/svg" viewBox="0 0 241.94 102.96">
  <defs>
    <style>
      .cls-1 {
        fill: #231815;
      }
    </style>
  </defs>
  <g id="_レイヤー_1-2" data-name="レイヤー 1">
    <g>
      <path class="cls-1" d="m29.69,12.94l-3.31-6.47,3.31-6.47.52.18-3.24,6.29,3.24,6.29-.52.18Zm2.09,0l-3.31-6.47,3.31-6.47.52.18-3.24,6.29,3.24,6.29-.52.18Z"/>
      <path class="cls-1" d="m38.15,6.32l-.41.63c-.63-.46-2.18-1.46-2.98-1.86l.39-.6c.77.41,2.46,1.44,3,1.83Zm1.93,3.43c2.3-1.33,4.08-3.11,5.22-5.07l.43.71c-1.16,1.85-3.07,3.68-5.28,4.99-1.4.84-3.29,1.46-4.62,1.75l-.42-.73c1.53-.27,3.31-.87,4.67-1.65Zm.11-6.43l-.43.6c-.6-.49-2.17-1.54-2.93-1.98l.41-.6c.77.45,2.42,1.57,2.96,1.97Zm4.3.39l-.56.27c-.31-.66-.88-1.64-1.3-2.21l.53-.25c.34.46,1,1.51,1.33,2.2Zm1.81-.69l-.56.27c-.32-.66-.9-1.61-1.34-2.18l.53-.25c.35.45,1.02,1.5,1.37,2.17Z"/>
      <path class="cls-1" d="m49.77,4.8h6.49c.35,0,.67-.03.92-.04v.74c-.27-.03-.62-.03-.92-.03h-2.94v5.52h3.59c.31,0,.6-.01.87-.04v.77c-.27-.01-.66-.03-.87-.03h-7.75c-.28,0-.6.01-.92.03v-.77c.31.03.63.04.92.04h3.45v-5.52h-2.82c-.17,0-.6,0-.88.03v-.74c.29.03.7.04.87.04Z"/>
      <path class="cls-1" d="m62.04,8.03c.41-1.33.42-4.2.42-5.7,0-.32-.03-.59-.08-.85h.84c-.03.22-.06.53-.06.85,0,1.48-.06,4.52-.43,5.91-.42,1.46-1.33,2.82-2.49,3.74l-.67-.45c1.15-.83,2.03-2.06,2.48-3.5Zm3.98,2.83V2.34c0-.48-.04-.78-.06-.94h.83c-.03.15-.04.46-.04.94v8.53c1.39-.64,3.32-2.02,4.45-3.74l.43.62c-1.25,1.71-3.15,3.1-4.79,3.91-.2.1-.34.2-.42.27l-.49-.41c.06-.2.08-.43.08-.66Z"/>
      <path class="cls-1" d="m91.13,2.34l.78.15c-.08.27-.15.52-.21.8-.2.8-.67,2.97-1.32,4.48-.53,1.23-1.26,2.59-2.07,3.77l-.74-.32c.9-1.18,1.67-2.63,2.14-3.75.62-1.39,1.22-3.61,1.41-5.13Zm3.46.11l.7-.25c.53.98,1.4,2.79,2.03,4.34.6,1.46,1.34,3.54,1.71,4.75l-.76.24c-.34-1.29-1.07-3.26-1.65-4.75-.59-1.43-1.43-3.31-2.03-4.33Z"/>
      <path class="cls-1" d="m107.83,8.99c2.02-1.3,3.66-3.35,4.41-4.99l.43.76c-.9,1.64-2.38,3.53-4.43,4.85-1.39.9-3.14,1.81-5.69,2.31l-.48-.74c2.59-.39,4.43-1.33,5.74-2.19Zm-1.33-4.38l-.55.56c-.7-.7-2.42-2.2-3.47-2.88l.49-.52c1,.66,2.79,2.12,3.53,2.84Z"/>
      <path class="cls-1" d="m116.29,2.59c0-.34-.01-.92-.08-1.33h.9c-.04.39-.08,1.01-.08,1.33v2.42c1.85.56,4.44,1.58,6.05,2.38l-.31.74c-1.54-.85-4.19-1.86-5.74-2.34.01,2.33.01,4.69.01,4.99,0,.48.01,1.11.06,1.5h-.85c.04-.39.06-.99.06-1.5V2.59Zm5.8,1.43l-.56.27c-.31-.64-.83-1.54-1.25-2.12l.53-.25c.34.46.95,1.43,1.28,2.1Zm1.65-.69l-.56.27c-.32-.64-.85-1.51-1.29-2.1l.53-.25c.34.45.97,1.42,1.32,2.09Z"/>
      <path class="cls-1" d="m129.73,6.47c0,.73-.59,1.32-1.32,1.32s-1.32-.59-1.32-1.32.59-1.32,1.32-1.32,1.32.59,1.32,1.32Z"/>
      <path class="cls-1" d="m142.89,3.04c-.29,1.53-1.01,3.82-2.09,5.2-1.29,1.62-2.83,2.86-5.43,3.67l-.62-.67c2.68-.7,4.24-1.88,5.45-3.43,1.02-1.33,1.74-3.49,1.93-4.92h-7.54c-.5,0-.88.03-1.23.04v-.81c.36.04.78.08,1.25.08h7.34c.18,0,.35,0,.55-.06l.55.35c-.08.15-.11.28-.15.55Z"/>
      <path class="cls-1" d="m147.34,7.7l-.67.25c-.22-.73-1.01-2.7-1.25-3.12l.66-.27c.24.52.99,2.42,1.26,3.14Zm6.85-2.69c-.36,1.62-.98,3.15-2.02,4.44-1.29,1.61-2.98,2.66-4.5,3.24l-.6-.62c1.67-.5,3.35-1.57,4.51-3,1.01-1.25,1.75-2.98,2-4.79l.77.24c-.07.18-.13.36-.17.49Zm-3.78,1.85l-.66.25c-.14-.62-.81-2.45-1.08-3.01l.67-.22c.22.55.91,2.4,1.06,2.98Z"/>
      <path class="cls-1" d="m158.48,2.42c0-.34-.03-.92-.1-1.33h.9c-.04.39-.08,1-.08,1.33v2.42c1.83.56,4.46,1.57,6.07,2.37l-.31.74c-1.55-.85-4.2-1.86-5.76-2.34.01,2.31.01,4.71.01,5,0,.48.01,1.09.07,1.49h-.87c.06-.38.07-.98.07-1.49V2.42Z"/>
      <path class="cls-1" d="m170.59,6.47l-3.24-6.29.52-.18,3.32,6.47-3.32,6.47-.52-.18,3.24-6.29Zm2.09,0l-3.24-6.29.52-.18,3.32,6.47-3.32,6.47-.52-.18,3.24-6.29Z"/>
      <path class="cls-1" d="m27.16,41.08h2.31v-8h-1.78v-.55c.83-.14,1.46-.36,1.95-.66h.66v9.2h2.13v.71h-5.27v-.71Z"/>
      <path class="cls-1" d="m40.23,31.97c-.01.55-.06,1.06-.1,1.55h3.75c.39,0,.62-.03.8-.04l.55.27c-.04.25-.07.46-.08.66-.04,1.25-.21,5.41-.85,6.71-.28.53-.66.71-1.33.71s-1.44-.03-2.2-.07l-.08-.76c.78.08,1.53.14,2.14.14.38,0,.67-.1.83-.43.62-1.19.78-5.02.78-6.5h-4.37c-.5,4.24-2.06,6.29-4.27,7.8l-.66-.53c.36-.18.85-.55,1.19-.84,1.43-1.21,2.65-3.04,3.05-6.43h-2.65c-.6,0-1.04,0-1.48.04v-.78c.43.03.92.06,1.47.06h2.72c.04-.48.07-.99.07-1.54,0-.32-.01-.76-.07-1.08h.85c-.03.31-.04.73-.06,1.06Z"/>
      <path class="cls-1" d="m57.94,35.34c-.32,1.39-.97,2.9-2.02,4.03-1.5,1.62-3.24,2.38-5.01,2.86l-.56-.64c1.9-.38,3.71-1.29,4.97-2.63.91-.97,1.54-2.34,1.81-3.5h-7.84c-.32,0-.76.01-1.2.04v-.8c.45.06.87.08,1.2.08h7.65c.24,0,.49-.03.63-.08l.53.32c-.06.1-.13.24-.15.32Zm-7.49-3.73h5.59c.43,0,.81-.01,1.12-.06v.77c-.31-.03-.69-.03-1.13-.03h-5.58c-.41,0-.77.01-1.13.03v-.77c.35.04.7.06,1.13.06Z"/>
      <path class="cls-1" d="m62.68,36.04h7.76c.73,0,1.15-.03,1.43-.06v.87c-.25-.01-.77-.04-1.41-.04h-7.77c-.77,0-1.4.01-1.78.04v-.87c.36.03.95.06,1.78.06Z"/>
      <path class="cls-1" d="m87.1,30.38l-12.57,12.56-.38-.38,12.56-12.56.38.38Z"/>
      <path class="cls-1" d="m93.82,32.21c-.14.28-.31.57-.49.88h4.37c.34,0,.56-.03.73-.11l.63.38c-.08.15-.2.45-.24.59-.38,1.51-1.27,3.42-2.51,4.92-1.23,1.51-2.91,2.79-5.53,3.73l-.63-.59c2.4-.69,4.26-1.99,5.56-3.54,1.16-1.39,2.06-3.28,2.38-4.71h-5.2c-.8,1.16-1.95,2.44-3.57,3.5l-.62-.46c2.4-1.41,3.87-3.59,4.43-4.87.1-.2.27-.62.32-.9l.84.28c-.17.29-.35.66-.48.91Zm5.67.45l-.55.25c-.27-.56-.77-1.42-1.15-1.93l.53-.24c.35.49.85,1.33,1.16,1.92Zm1.5-.53l-.55.25c-.31-.62-.77-1.4-1.18-1.92l.52-.24c.38.5.92,1.37,1.21,1.91Z"/>
      <path class="cls-1" d="m111.92,35.34c-.32,1.39-.97,2.9-2.02,4.03-1.5,1.62-3.24,2.38-5.01,2.86l-.56-.64c1.9-.38,3.71-1.29,4.97-2.63.91-.97,1.54-2.34,1.81-3.5h-7.84c-.32,0-.76.01-1.2.04v-.8c.45.06.87.08,1.2.08h7.65c.24,0,.49-.03.63-.08l.53.32c-.06.1-.13.24-.15.32Zm-7.49-3.73h5.59c.43,0,.81-.01,1.12-.06v.77c-.31-.03-.69-.03-1.13-.03h-5.58c-.41,0-.77.01-1.13.03v-.77c.35.04.7.06,1.13.06Z"/>
      <path class="cls-1" d="m115.48,35.29h9.16c.29,0,.66-.03.98-.06v.77c-.28-.03-.67-.04-.98-.04h-4.05c-.03,1.54-.22,2.9-.81,3.98-.52.91-1.57,1.88-2.72,2.46l-.67-.5c1.13-.49,2.16-1.3,2.7-2.23.64-1.05.74-2.3.77-3.71h-4.38c-.43,0-.77.01-1.15.04v-.77c.36.03.71.06,1.15.06Zm1.67-3.47h5.01c.35,0,.81-.01,1.19-.07v.78c-.38-.03-.84-.04-1.19-.04h-4.99c-.45,0-.83.01-1.15.04v-.78c.36.04.69.07,1.12.07Zm8.03.6l-.55.27c-.27-.58-.77-1.42-1.15-1.95l.53-.24c.35.5.85,1.33,1.16,1.92Zm1.5-.53l-.55.25c-.31-.62-.77-1.4-1.18-1.92l.52-.24c.38.52.92,1.37,1.2,1.91Z"/>
      <path class="cls-1" d="m130.12,36.04h7.76c.73,0,1.15-.03,1.43-.06v.87c-.25-.01-.77-.04-1.41-.04h-7.77c-.77,0-1.4.01-1.78.04v-.87c.36.03.95.06,1.78.06Z"/>
      <path class="cls-1" d="m145.98,36.19l-.42.63c-.63-.46-2.19-1.46-2.98-1.86l.41-.6c.76.41,2.45,1.44,3,1.84Zm1.93,3.43c2.28-1.33,4.08-3.11,5.21-5.07l.45.71c-1.18,1.85-3.08,3.68-5.29,4.99-1.4.84-3.28,1.46-4.62,1.75l-.41-.73c1.53-.27,3.31-.87,4.67-1.65Zm.11-6.43l-.45.6c-.6-.49-2.16-1.54-2.91-1.98l.39-.6c.77.45,2.42,1.57,2.97,1.98Z"/>
      <path class="cls-1" d="m157.01,34.29h5.46c.32,0,.59-.01.76-.01-.01.13-.01.32-.01.56v6.96c0,.22.01.45.01.64h-.73c.01-.14.01-.35.01-.59h-5.81c-.46,0-.91.03-1.13.03v-.76c.22.03.64.06,1.12.06h5.83v-2.87h-5.39c-.46,0-.85.01-1.11.03v-.74c.22.01.64.06,1.09.06h5.41v-2.7h-5.5c-.29,0-1.06.03-1.26.03v-.74c.21.04.97.06,1.26.06Z"/>
      <path class="cls-1" d="m172.26,38.99c2.02-1.3,3.66-3.35,4.41-4.99l.43.76c-.9,1.64-2.38,3.53-4.43,4.85-1.39.9-3.14,1.81-5.69,2.31l-.48-.74c2.59-.39,4.43-1.33,5.74-2.19Zm-1.33-4.38l-.55.56c-.7-.7-2.42-2.2-3.47-2.88l.49-.52c1,.66,2.79,2.12,3.53,2.84Z"/>
      <path class="cls-1" d="m191.37,30.38l-12.57,12.56-.38-.38,12.56-12.56.38.38Z"/>
      <path class="cls-1" d="m202.88,33.04c-.29,1.53-1.01,3.82-2.09,5.2-1.29,1.62-2.83,2.86-5.43,3.67l-.62-.67c2.68-.7,4.24-1.88,5.45-3.43,1.02-1.33,1.74-3.49,1.93-4.92h-7.54c-.5,0-.88.03-1.23.04v-.81c.36.04.78.08,1.25.08h7.34c.18,0,.35,0,.55-.06l.55.35c-.08.15-.11.28-.15.55Z"/>
      <path class="cls-1" d="m206.84,40.86v-8.25c0-.28-.04-.88-.08-1.09h.9c-.04.24-.08.76-.08,1.08v8.35c2.91-.7,6.23-2.58,7.94-4.86l.42.62c-1.76,2.24-4.64,3.99-8.24,4.97-.13.04-.29.1-.45.17l-.5-.42c.07-.15.1-.31.1-.56Z"/>
      <path class="cls-1" d="m224.1,38.99c2.02-1.3,3.66-3.35,4.41-4.99l.43.76c-.9,1.64-2.38,3.53-4.43,4.85-1.39.9-3.14,1.81-5.69,2.31l-.48-.74c2.59-.39,4.43-1.33,5.74-2.19Zm-1.33-4.38l-.55.56c-.7-.7-2.42-2.2-3.47-2.88l.49-.52c1,.66,2.79,2.12,3.53,2.84Z"/>
      <path class="cls-1" d="m236.35,32.03c1.19-.15,2.98-.5,3.66-.78l.49.64c-.21.06-.41.11-.6.17-.71.17-1.95.43-3.04.59v2.98h4.06c.31,0,.74-.03,1.02-.06v.77c-.27-.03-.67-.04-.99-.04h-4.1c-.08,2.82-1.13,4.55-3.57,5.93l-.69-.5c2.23-1.05,3.43-2.62,3.54-5.42h-4.34c-.45,0-.9.01-1.2.04v-.78c.27.03.77.07,1.19.07h4.37v-2.9c-1.46.17-3.11.2-4.27.22l-.18-.7c1.05.06,3.17-.03,4.66-.22Z"/>
      <path class="cls-1" d="m29.69,72.94l-3.31-6.47,3.31-6.47.52.18-3.24,6.29,3.24,6.29-.52.18Zm2.09,0l-3.31-6.47,3.31-6.47.52.18-3.24,6.29,3.24,6.29-.52.18Z"/>
      <path class="cls-1" d="m45.28,62.7c-.5.87-1.83,2.69-3.56,3.88l-.62-.5c1.39-.77,2.84-2.47,3.35-3.43h-8.38c-.49,0-1.04.03-1.53.06v-.85c.46.06,1.04.11,1.53.11h8.33c.2,0,.55-.04.7-.07l.46.45c-.1.1-.21.24-.29.36Zm-9.16,9.46l-.67-.56c.34-.1.81-.34,1.13-.53,2.4-1.39,2.69-3.68,2.69-6.04,0-.28-.01-.56-.04-.87h.8c0,3.98-.48,6.37-3.91,8Z"/>
      <path class="cls-1" d="m52.94,61.85c-.14.28-.31.59-.5.9h4.38c.34,0,.56-.04.73-.11l.63.36c-.08.17-.2.45-.24.6-.38,1.5-1.27,3.42-2.51,4.92-1.23,1.51-2.91,2.79-5.53,3.73l-.63-.6c2.4-.69,4.26-1.97,5.56-3.53,1.16-1.4,2.06-3.29,2.38-4.71h-5.21c-.8,1.16-1.93,2.44-3.56,3.49l-.62-.46c2.4-1.4,3.87-3.59,4.43-4.86.1-.2.27-.62.32-.91l.84.29c-.17.28-.35.66-.48.9Z"/>
      <path class="cls-1" d="m62.61,62.38v4.65c0,.35.01.77.04.98h-.83c.03-.2.06-.59.06-.99v-4.64c0-.24-.03-.73-.06-.97h.83c-.03.24-.04.7-.04.97Zm6.51.03v1.97c0,3.57-.38,4.57-1.37,5.8-.9,1.13-2.27,1.71-3.29,2.06l-.59-.62c1.22-.34,2.45-.9,3.33-1.93,1.02-1.22,1.18-2.41,1.18-5.32v-1.96c0-.41-.03-.79-.06-1.09h.84c-.03.31-.04.69-.04,1.09Z"/>
      <path class="cls-1" d="m74.29,68.03c.41-1.33.42-4.2.42-5.7,0-.32-.03-.59-.08-.85h.84c-.03.22-.06.53-.06.85,0,1.48-.06,4.52-.43,5.91-.42,1.46-1.33,2.82-2.49,3.74l-.67-.45c1.15-.83,2.03-2.06,2.48-3.5Zm3.98,2.83v-8.52c0-.48-.04-.78-.06-.94h.83c-.03.15-.04.46-.04.94v8.53c1.39-.64,3.32-2.02,4.46-3.74l.43.62c-1.25,1.71-3.15,3.1-4.79,3.91-.2.1-.34.2-.42.27l-.49-.41c.06-.2.08-.43.08-.66Z"/>
      <path class="cls-1" d="m88.61,66.47l-3.24-6.29.52-.18,3.32,6.47-3.32,6.47-.52-.18,3.24-6.29Zm2.09,0l-3.24-6.29.52-.18,3.32,6.47-3.32,6.47-.52-.18,3.24-6.29Z"/>
      <path class="cls-1" d="m31.55,95.64c-.36.55-.78,1.16-1.15,1.6.41.49.78.97.94,1.16l-.43.48c-.28-.43-1.05-1.46-1.58-2.12v6.06h-.64v-5.53c-.6.74-1.25,1.4-1.86,1.92-.08-.17-.28-.45-.41-.55,1.47-1.16,3.07-3.19,3.88-5.22h-3.59v-.63h1.93v-2.65h.64v2.65h1.3l.14-.03.38.24c-.38,1.11-.95,2.18-1.61,3.15.17.18.38.43.6.7.35-.46.79-1.11,1.01-1.55l.45.32Zm4.16-2.8v1.56h3.17v7.61c0,.38-.1.59-.36.7-.28.11-.76.13-1.5.13-.03-.17-.14-.46-.25-.63.62.01,1.11.01,1.26,0,.15,0,.2-.04.2-.2v-2.17h-2.51v2.94h-.64v-2.94h-2.49v2.98h-.64v-8.42h3.14v-1.56h-3.59v-.63h3.59v-2.09h.64v2.09h3.45v.63h-3.45Zm-3.14,2.17v1.79h2.49v-1.79h-2.49Zm2.49,4.23v-1.85h-2.49v1.85h2.49Zm.64-4.23v1.79h2.51v-1.79h-2.51Zm2.51,4.23v-1.85h-2.51v1.85h2.51Zm.31-7.28c-.46-.39-1.34-.92-2.1-1.26l.35-.39c.74.31,1.67.8,2.1,1.21l-.35.45Z"/>
      <path class="cls-1" d="m44.89,96.77s-.01.25-.03.36c-.17,3.61-.34,4.89-.73,5.32-.21.25-.43.32-.81.34-.36.01-1.05.01-1.74-.04-.03-.18-.1-.46-.2-.66.73.07,1.46.07,1.71.07.25.01.36-.01.49-.14.29-.31.48-1.47.62-4.64h-2.58c-.03.22-.06.42-.08.6l-.62-.11c.18-1.01.36-2.7.46-3.94h2.82v-2.46h-3.11v-.63h3.75v3.73h-2.9c-.07.71-.15,1.5-.24,2.2h3.18Zm8.39,6.19c-.13-.29-.32-.63-.55-.98-2.68.22-5.48.45-7.35.6l-.1-.67c1.01-.07,2.35-.17,3.84-.28v-2.59h-3.18v-3.61h3.18v-1.68c-1.32.08-2.55.15-3.53.21l-.11-.67,1.18-.06c.59-.88,1.29-2.21,1.67-3.15l.7.22c-.48.92-1.08,2.04-1.64,2.9,1.39-.06,3.01-.14,4.64-.22-.41-.48-.85-.97-1.27-1.36l.53-.31c.91.84,1.92,1.99,2.4,2.75l-.59.36c-.14-.25-.35-.56-.6-.88-.9.07-1.82.13-2.7.18v1.71h3.21v3.61h-3.21v2.55l2.56-.2c-.39-.55-.84-1.11-1.29-1.58l.55-.28c.9.94,1.86,2.24,2.24,3.11l-.56.32Zm-4.16-4.53v-2.39h-2.54v2.39h2.54Zm.66-2.39v2.39h2.56v-2.39h-2.56Z"/>
      <path class="cls-1" d="m55.4,99.33l.57-.52c1.02.81,2.23,2.02,3.21,3.12l-.63.53c-.94-1.15-2.14-2.34-3.15-3.14Z"/>
      <path class="cls-1" d="m74.39,98.15c-.99.74-2.35,1.54-3.47,2.09,1.16.99,2.65,1.68,4.41,2.03-.14.14-.32.41-.42.59-3.24-.74-5.55-2.56-6.72-5.35h-2.24v4.15c1.26-.22,2.67-.48,4.06-.73l.03.6c-2.28.45-4.73.88-6.4,1.18l-.2-.63c.52-.08,1.15-.18,1.83-.31v-4.26h-2.54v-.63h2.54v-6.15h8.56v.6h-7.89v1.44h7.42v.59h-7.42v1.44h7.42v.59h-7.42v1.48h9.19v.63h-6.28c.41.88.95,1.67,1.62,2.34,1.09-.56,2.52-1.4,3.35-2.04l.56.35Z"/>
      <path class="cls-1" d="m82.94,90.88l.8-.1c.07.59.36,1.64.67,2.51.99-.13,2.3-.36,3.26-.71l.07.71c-.92.27-2.19.49-3.11.6.43,1.16,1.12,2.38,1.74,3.24.15.22.35.43.53.62l-.39.53c-.62-.17-2.27-.31-3.18-.36l.06-.6c.84.07,1.95.17,2.49.22-.63-.88-1.43-2.3-1.92-3.56-1.68.15-3.75.14-5.83-.03l-.03-.73c2.02.24,4.1.27,5.63.14-.22-.64-.39-1.13-.49-1.48-.08-.29-.18-.67-.31-1Zm-3.71,8.6c0,1.43,1.32,2.06,3.5,2.09,1.36.01,2.55-.13,3.53-.35l-.03.73c-.92.17-2.06.31-3.54.29-2.54-.03-4.15-.9-4.15-2.73,0-.73.28-1.42.63-2.17l.71.17c-.39.69-.66,1.27-.66,1.97Z"/>
      <path class="cls-1" d="m101.49,97.1v5.67h-.69v-.88h-9.34v.92h-.67v-5.71h.67v4.15h4.24v-5.13h-4.38v-4.65h.66v3.99h3.73v-5.29h.67v5.29h3.87v-3.99h.69v4.65h-4.55v5.13h4.43v-4.15h.69Z"/>
      <path class="cls-1" d="m106.75,92.14c-.06,1.62-.17,5.04-.17,7.34,0,1.61,1.05,2.2,2.52,2.2,2.7,0,4.16-1.5,5.15-2.91l.5.6c-.98,1.32-2.7,3.01-5.7,3.01-1.85,0-3.19-.73-3.19-2.96s.15-5.66.15-7.28c0-.43-.03-.83-.1-1.15h.94c-.07.39-.08.74-.11,1.15Z"/>
    </g>
    <g>
      <path class="cls-1" d="m7.12,10.15H0V3.03h7.12v7.12Z"/>
      <path class="cls-1" d="m7.12,68.15H0v-7.12h7.12v7.12Z"/>
    </g>
  </g>
</svg>