<?xml version="1.0" encoding="UTF-8"?>
<svg id="_レイヤー_2" data-name="レイヤー 2" xmlns="http://www.w3.org/2000/svg" viewBox="0 0 232.17 102.24">
  <defs>
    <style>
      .cls-1 {
        fill: #231815;
      }
    </style>
  </defs>
  <g id="_レイヤー_1-2" data-name="レイヤー 1">
    <g>
      <path class="cls-1" d="m29.69,12.94l-3.31-6.47,3.31-6.47.52.18-3.24,6.29,3.24,6.29-.52.18Zm2.09,0l-3.31-6.47,3.31-6.47.52.18-3.24,6.29,3.24,6.29-.52.18Z"/>
      <path class="cls-1" d="m43.2,2.96c-.49,1.29-1.44,3.04-2.45,4.27,1.53,1.3,3.22,3.11,4.19,4.27l-.6.53c-.95-1.22-2.58-2.98-4.05-4.29-1.54,1.65-3.43,3.22-5.6,4.19l-.56-.6c2.26-.9,4.27-2.55,5.79-4.23.97-1.11,2.1-2.93,2.47-4.19h-5.87c-.45,0-1.22.06-1.28.06v-.83c.08,0,.84.07,1.28.07h5.67c.36,0,.63-.03.81-.08l.46.36c-.07.1-.21.34-.25.46Z"/>
      <path class="cls-1" d="m50.39,2.55l.79.15c-.07.27-.14.52-.21.8-.18.8-.67,2.97-1.32,4.48-.52,1.23-1.25,2.59-2.07,3.77l-.73-.32c.88-1.18,1.65-2.63,2.14-3.75.6-1.4,1.21-3.61,1.4-5.13Zm3.46.11l.7-.25c.53.98,1.4,2.79,2.03,4.34.6,1.44,1.34,3.54,1.71,4.75l-.76.24c-.34-1.29-1.06-3.26-1.65-4.75-.57-1.43-1.41-3.31-2.03-4.33Zm3.67-1.96c.84,0,1.51.67,1.51,1.51s-.67,1.5-1.51,1.5-1.5-.67-1.5-1.5.67-1.51,1.5-1.51Zm0,2.51c.55,0,1.01-.45,1.01-.99s-.46-1.01-1.01-1.01-.98.46-.98,1.01.43.99.98.99Z"/>
      <path class="cls-1" d="m69.59,2.54c-.48,1.3-1.23,2.93-2.24,4.3,1.26,1.06,2.51,2.16,3.52,3.29l-.55.59c-1.06-1.21-2.18-2.24-3.43-3.31-1.34,1.67-3.17,3.42-5.65,4.65l-.62-.55c2.55-1.2,4.33-2.86,5.72-4.57-1.07-.85-2.77-2.13-4.06-2.91l.46-.56c1.26.81,2.98,2.06,4.05,2.9,1.02-1.4,1.68-2.87,2.11-4.12.08-.22.2-.6.25-.88l.81.28c-.13.22-.28.62-.38.88Z"/>
      <path class="cls-1" d="m74.54,9.96h8.6c.38,0,.74-.03,1.11-.07v.87c-.36-.03-.76-.04-1.11-.04h-8.6c-.49,0-.87.03-1.3.04v-.87c.43.03.81.07,1.3.07Zm1.13-7h6.12c.48,0,.91-.01,1.29-.06v.81c-.38-.03-.84-.03-1.29-.03h-6.12c-.45,0-.81.01-1.22.03v-.81c.41.03.78.06,1.22.06Z"/>
      <path class="cls-1" d="m94.51,5.48c-.1,1.02-.56,4.08-.76,5.28h1.68c.28,0,.69-.01.95-.03v.73c-.24-.01-.66-.01-.91-.01h-7.86c-.39,0-.69.01-1.04.03v-.76c.32.03.64.04,1.04.04h5.39c.2-1.08.69-4.34.71-5.14h-4.83c-.39,0-.66.01-.97.03v-.77c.31.03.6.06.95.06h4.64c.2,0,.42-.03.5-.07l.56.28c-.04.1-.07.24-.07.34Z"/>
      <path class="cls-1" d="m100.93,6.04h7.76c.73,0,1.15-.03,1.43-.06v.87c-.25-.01-.77-.04-1.41-.04h-7.77c-.77,0-1.4.01-1.78.04v-.87c.36.03.95.06,1.78.06Z"/>
      <path class="cls-1" d="m115.69,6.47l-3.24-6.29.52-.18,3.32,6.47-3.32,6.47-.52-.18,3.24-6.29Zm2.09,0l-3.24-6.29.52-.18,3.32,6.47-3.32,6.47-.52-.18,3.24-6.29Z"/>
      <path class="cls-1" d="m30.1,32.34l.79.15c-.08.27-.15.52-.21.8-.2.8-.67,2.97-1.32,4.48-.53,1.23-1.26,2.59-2.07,3.77l-.74-.32c.9-1.18,1.67-2.63,2.14-3.75.62-1.39,1.22-3.61,1.41-5.13Zm3.46.11l.7-.25c.53.98,1.4,2.79,2.03,4.34.6,1.46,1.34,3.54,1.71,4.75l-.76.24c-.34-1.29-1.07-3.26-1.65-4.75-.59-1.43-1.43-3.31-2.03-4.33Z"/>
      <path class="cls-1" d="m46.81,38.99c2.02-1.3,3.66-3.35,4.41-4.99l.43.76c-.9,1.64-2.38,3.53-4.43,4.85-1.39.9-3.14,1.81-5.69,2.31l-.48-.74c2.59-.39,4.43-1.33,5.74-2.19Zm-1.33-4.38l-.55.56c-.7-.7-2.42-2.2-3.47-2.88l.49-.52c1,.66,2.79,2.12,3.53,2.84Z"/>
      <path class="cls-1" d="m55.26,32.59c0-.34-.01-.92-.08-1.33h.9c-.04.39-.08,1.01-.08,1.33v2.42c1.85.56,4.44,1.58,6.05,2.38l-.31.74c-1.54-.85-4.19-1.86-5.74-2.34.01,2.33.01,4.69.01,4.99,0,.48.01,1.11.06,1.5h-.85c.04-.39.06-.99.06-1.5v-8.19Zm5.8,1.43l-.56.27c-.31-.64-.83-1.54-1.25-2.12l.53-.25c.34.46.95,1.43,1.28,2.1Zm1.65-.69l-.56.27c-.32-.64-.85-1.51-1.29-2.1l.53-.25c.34.45.97,1.42,1.32,2.09Z"/>
      <path class="cls-1" d="m75.64,33.22c-1,1.61-2.75,3.92-5.27,5.81.87.87,1.95,2.02,2.51,2.7l-.64.5c-.49-.67-1.58-1.85-2.45-2.75-.85-.85-2.58-2.31-3.28-2.8l.57-.46c.48.34,1.79,1.4,2.76,2.3,2.35-1.71,4.15-4.03,4.88-5.34h-8.74c-.53,0-1.05.03-1.32.06v-.84c.39.06.83.08,1.32.08h8.7c.29,0,.52-.01.66-.07l.59.46c-.11.11-.21.24-.28.34Z"/>
      <path class="cls-1" d="m79.82,37.7l-.67.25c-.22-.73-1.01-2.7-1.25-3.12l.66-.27c.24.52.99,2.42,1.26,3.14Zm6.85-2.69c-.36,1.62-.98,3.15-2.02,4.44-1.29,1.61-2.98,2.66-4.5,3.24l-.6-.62c1.67-.5,3.35-1.57,4.51-3,1.01-1.25,1.75-2.98,2-4.79l.77.24c-.07.18-.13.36-.17.49Zm-3.78,1.85l-.66.25c-.14-.62-.81-2.45-1.08-3.01l.67-.22c.22.55.91,2.4,1.06,2.98Z"/>
      <path class="cls-1" d="m93.79,42.3l-.6-.57c2.44-.99,3.77-2.2,3.77-6.4v-.62h-4.38v2.48c0,.45.04,1.09.06,1.15h-.81c0-.06.06-.67.06-1.15v-2.48h-1.71c-.55,0-1.26.04-1.33.04v-.8c.06,0,.8.07,1.33.07h1.71v-2.03c0-.24-.01-.62-.06-.87h.81s-.06.42-.06.85v2.04h4.38v-1.92c0-.53-.06-.99-.06-1.05h.83c0,.06-.06.52-.06,1.05v1.92h1.83c.55,0,1.05-.06,1.12-.07v.8c-.06,0-.58-.04-1.12-.04h-1.83v.5c0,3.89-.78,5.69-3.88,7.09Z"/>
      <path class="cls-1" d="m104.88,36.04h7.76c.73,0,1.15-.03,1.43-.06v.87c-.25-.01-.77-.04-1.41-.04h-7.77c-.77,0-1.4.01-1.78.04v-.87c.36.03.95.06,1.78.06Z"/>
      <path class="cls-1" d="m120.75,36.32l-.41.63c-.63-.46-2.18-1.46-2.98-1.86l.39-.6c.77.41,2.46,1.44,3,1.83Zm1.93,3.43c2.3-1.33,4.08-3.11,5.22-5.07l.43.71c-1.16,1.85-3.07,3.68-5.28,4.99-1.4.84-3.29,1.46-4.62,1.75l-.42-.73c1.53-.27,3.31-.87,4.67-1.65Zm.11-6.43l-.43.6c-.6-.49-2.17-1.54-2.93-1.98l.41-.6c.77.45,2.42,1.57,2.96,1.97Zm4.3.39l-.56.27c-.31-.66-.88-1.64-1.3-2.21l.53-.25c.34.46,1,1.51,1.33,2.2Zm1.81-.69l-.56.27c-.32-.66-.9-1.61-1.34-2.18l.53-.25c.35.45,1.02,1.5,1.37,2.17Z"/>
      <path class="cls-1" d="m130.69,39.33l.57-.52c1.02.81,2.23,2.02,3.21,3.12l-.63.53c-.94-1.15-2.14-2.34-3.15-3.14Z"/>
      <path class="cls-1" d="m144.6,41.71c.78.18,1.65.24,2.61.24.35,0,2.9,0,3.42-.01-.13.17-.24.48-.28.66h-3.15c-3.11,0-5.24-.58-6.47-3.19-.46,1.36-1.19,2.62-2.3,3.46-.11-.14-.35-.36-.48-.48,1.75-1.3,2.46-3.73,2.66-5.8l.71.1c-.07.59-.18,1.19-.35,1.79.62,1.71,1.62,2.6,2.96,3.07v-6.12h-4.24v-4.55h9.38v4.55h-4.47v2.44h4.82v.64h-4.82v3.21Zm-4.24-6.93h8.03v-3.26h-8.03v3.26Z"/>
      <path class="cls-1" d="m163.77,39.78c-.71.42-1.69.83-2.49,1.13,1.05.64,2.31,1.11,3.7,1.36-.15.14-.32.38-.42.55-2.61-.55-4.83-1.86-6.01-3.81h-.18c-.59.45-1.34.87-2.17,1.23v1.6c1.19-.15,2.52-.32,3.84-.49v.55c-2.19.31-4.48.63-6.09.84l-.14-.6c.5-.06,1.09-.13,1.74-.21v-1.4c-.99.39-2.03.71-2.96.92-.08-.15-.27-.38-.39-.5,1.74-.35,3.87-1.08,5.27-1.93h-5.07v-.58h5.84v-.85h-4.92v-.55h4.92v-.85h-4.12v-3.49h8.92v3.49h-4.15v.85h4.95v.55h-4.95v.85h5.9v.58h-5.56c.41.6.95,1.13,1.6,1.6.83-.32,1.86-.85,2.48-1.22l.48.39Zm.84-7.89h-12.02v-.57h5.63v-1.21h.66v1.21h5.73v.57Zm-9.85,2.28h3.46v-.98h-3.46v.98Zm3.46,1.5v-1.01h-3.46v1.01h3.46Zm4.15-2.48h-3.49v.98h3.49v-.98Zm0,1.47h-3.49v1.01h3.49v-1.01Z"/>
      <path class="cls-1" d="m177.96,41.81c0,.55-.15.8-.6.91-.46.11-1.34.11-2.77.11-.04-.18-.17-.48-.27-.67,1.22.04,2.28.03,2.58.01.31-.01.41-.1.41-.36v-2.12h-8.33c-.32,1.15-.94,2.27-2.03,3.18-.1-.15-.34-.39-.48-.49,1.98-1.61,2.21-3.84,2.21-5.66v-2.73c-.42.39-.87.76-1.36,1.11-.11-.15-.32-.36-.49-.46,1.93-1.32,3.33-3.12,4.08-4.52l.74.13c-.14.24-.29.49-.45.74h3.75l.13-.04.45.29c-.35.71-.87,1.48-1.37,2.09h3.81v8.49Zm-8.63-5.06c0,.71-.04,1.51-.21,2.33h3.74v-2.33h-3.53Zm0-.6h3.53v-2.21h-3.53v2.21Zm1.46-4.57c-.42.57-.9,1.16-1.43,1.74h4.05c.42-.49.85-1.15,1.16-1.74h-3.78Zm6.51,2.35h-3.8v2.21h3.8v-2.21Zm0,5.14v-2.33h-3.8v2.33h3.8Z"/>
      <path class="cls-1" d="m182.73,32.69c-.1.85-.42,1.85-1.27,2.63-.08-.14-.31-.35-.46-.45.98-.9,1.13-2,1.13-2.89v-1.44l.66.2c1.27-.14,2.69-.35,3.47-.57l.52.46c-1.05.29-2.63.5-4.01.62v.87h4.43v.58h-1.83v1.92h-.62v-1.92h-2.02Zm3.15,8.54c-1.12.63-2.87,1.25-4.26,1.62-.1-.14-.34-.41-.49-.53,1.4-.31,3.1-.83,4.13-1.37l.62.28Zm-3.04-6.32h8.98v5.73h-8.98v-5.73Zm.64,1.71h7.66v-1.19h-7.66v1.19Zm0,1.74h7.66v-1.21h-7.66v1.21Zm0,1.74h7.66v-1.22h-7.66v1.22Zm10.02-7.98v.58h-2.27v1.97h-.63v-1.97h-2.27c-.15.69-.55,1.43-1.42,2.03-.08-.15-.29-.36-.45-.46,1.13-.74,1.34-1.65,1.34-2.44v-1.23l.62.17c1.37-.13,2.91-.34,3.78-.56l.52.46c-1.12.29-2.83.5-4.3.59v.59c0,.08,0,.18-.01.28h5.08Zm-4.31,8.87c1.57.43,3.22,1.02,4.26,1.46l-.7.41c-.94-.45-2.48-1.01-4.09-1.49l.53-.38Z"/>
      <path class="cls-1" d="m199.6,30.98c-.42,1.12-.99,2.51-1.5,3.63,1.11,1.2,1.4,2.21,1.4,3.12,0,.66-.15,1.25-.52,1.5-.17.11-.42.2-.67.22-.31.03-.66.03-.97,0-.01-.17-.08-.42-.2-.6.36.01.69.03.92.01.2-.01.35-.06.48-.14.24-.15.32-.6.32-1.04,0-.83-.31-1.82-1.43-3,.49-1.11.98-2.37,1.33-3.33h-2.31v11.46h-.63v-12.09h3.22l.11-.03.43.28Zm2.12,7.54c-.48,1.26-1.25,2.51-2.04,3.35-.11-.11-.36-.32-.52-.42.8-.78,1.51-1.92,1.95-3.08l.62.15Zm2.14-8.35c1.02,1.58,2.75,3.18,4.26,4.06-.14.14-.31.38-.41.55-1.51-.98-3.18-2.54-4.13-3.96-.81,1.37-2.37,3-4.02,4.05-.08-.15-.25-.38-.38-.5,1.65-1.01,3.26-2.67,4.05-4.19h.63Zm.07,7.3v4.48c0,.42-.11.64-.43.74-.29.11-.85.13-1.75.13-.03-.17-.15-.46-.25-.64.74.03,1.34.01,1.54.01.2-.01.25-.07.25-.24v-4.48h-3.32v-.6h3.32v-2.03h-2.33v-.6h5.38v.6h-2.41v2.03h3.56v.6h-3.56Zm1.88.9c.77.97,1.64,2.3,2.04,3.1l-.55.31c-.39-.81-1.26-2.16-2.02-3.17l.52-.24Z"/>
      <path class="cls-1" d="m215.28,36.75c-.67,1.44-1.53,3.26-2.33,4.61,2.16-.07,4.72-.18,7.24-.29-.64-.9-1.42-1.86-2.13-2.63l.59-.29c1.29,1.36,2.7,3.21,3.35,4.41l-.64.36c-.18-.36-.43-.77-.74-1.22-3.75.17-7.7.35-10.27.45l-.08-.71c.56-.01,1.21-.03,1.91-.06.78-1.3,1.71-3.22,2.27-4.62h-4.65v-.67h5.81v-3.01h-4.72v-.67h4.72v-2.28h.69v2.28h4.86v.67h-4.86v3.01h5.92v.67h-6.93Z"/>
      <path class="cls-1" d="m36.51,63.04c-.29,1.53-1.01,3.82-2.09,5.2-1.29,1.62-2.83,2.86-5.43,3.67l-.62-.67c2.68-.7,4.24-1.88,5.45-3.43,1.02-1.33,1.74-3.49,1.93-4.92h-7.54c-.5,0-.88.03-1.23.04v-.81c.36.04.78.08,1.25.08h7.34c.18,0,.35,0,.55-.06l.55.35c-.08.15-.11.28-.15.55Z"/>
      <path class="cls-1" d="m40.95,67.7l-.67.25c-.22-.73-1.01-2.7-1.25-3.12l.66-.27c.24.52.99,2.42,1.26,3.14Zm6.85-2.69c-.36,1.62-.98,3.15-2.02,4.44-1.29,1.61-2.98,2.66-4.5,3.24l-.6-.62c1.67-.5,3.35-1.57,4.51-3,1.01-1.25,1.75-2.98,2-4.79l.77.24c-.07.18-.13.36-.17.49Zm-3.78,1.85l-.66.25c-.14-.62-.81-2.45-1.08-3.01l.67-.22c.22.55.91,2.4,1.06,2.98Z"/>
      <path class="cls-1" d="m52.1,62.42c0-.34-.03-.92-.1-1.33h.9c-.04.39-.08,1-.08,1.33v2.42c1.83.56,4.46,1.57,6.07,2.37l-.31.74c-1.55-.85-4.2-1.86-5.76-2.34.01,2.31.01,4.71.01,5,0,.48.01,1.09.07,1.49h-.87c.06-.38.07-.98.07-1.49v-8.19Z"/>
      <path class="cls-1" d="m72.15,63.22c-1,1.61-2.75,3.92-5.27,5.81.87.87,1.95,2.02,2.51,2.7l-.64.5c-.49-.67-1.58-1.85-2.45-2.75-.85-.85-2.58-2.31-3.28-2.8l.57-.46c.48.34,1.79,1.4,2.76,2.3,2.35-1.71,4.15-4.03,4.88-5.34h-8.74c-.53,0-1.05.03-1.32.06v-.84c.39.06.83.08,1.32.08h8.7c.29,0,.52-.01.66-.07l.59.46c-.11.11-.21.24-.28.34Z"/>
      <path class="cls-1" d="m76.33,67.7l-.67.25c-.22-.73-1.01-2.7-1.25-3.12l.66-.27c.24.52.99,2.42,1.26,3.14Zm6.85-2.69c-.36,1.62-.98,3.15-2.02,4.44-1.29,1.61-2.98,2.66-4.5,3.24l-.6-.62c1.67-.5,3.35-1.57,4.51-3,1.01-1.25,1.75-2.98,2-4.79l.77.24c-.07.18-.13.36-.17.49Zm-3.78,1.85l-.66.25c-.14-.62-.81-2.45-1.08-3.01l.67-.22c.22.55.91,2.4,1.06,2.98Z"/>
      <path class="cls-1" d="m90.3,72.3l-.6-.57c2.44-.99,3.77-2.2,3.77-6.4v-.62h-4.38v2.48c0,.45.04,1.09.06,1.15h-.81c0-.06.06-.67.06-1.15v-2.48h-1.71c-.55,0-1.26.04-1.33.04v-.8c.06,0,.8.07,1.33.07h1.71v-2.03c0-.24-.01-.62-.06-.87h.81s-.06.42-.06.85v2.04h4.38v-1.92c0-.53-.06-.99-.06-1.05h.83c0,.06-.06.52-.06,1.05v1.92h1.83c.55,0,1.05-.06,1.12-.07v.8c-.06,0-.58-.04-1.12-.04h-1.83v.5c0,3.89-.78,5.69-3.88,7.09Z"/>
      <path class="cls-1" d="m101.39,66.04h7.76c.73,0,1.15-.03,1.43-.06v.87c-.25-.01-.77-.04-1.41-.04h-7.77c-.77,0-1.4.01-1.78.04v-.87c.36.03.95.06,1.78.06Z"/>
      <path class="cls-1" d="m117.27,66.32l-.41.63c-.63-.46-2.18-1.46-2.98-1.86l.39-.6c.77.41,2.46,1.44,3,1.83Zm1.93,3.43c2.3-1.33,4.08-3.11,5.22-5.07l.43.71c-1.16,1.85-3.07,3.68-5.28,4.99-1.4.84-3.29,1.46-4.62,1.75l-.42-.73c1.53-.27,3.31-.87,4.67-1.65Zm.11-6.43l-.43.6c-.6-.49-2.17-1.54-2.93-1.98l.41-.6c.77.45,2.42,1.57,2.96,1.97Zm4.3.39l-.56.27c-.31-.66-.88-1.64-1.3-2.21l.53-.25c.34.46,1,1.51,1.33,2.2Zm1.81-.69l-.56.27c-.32-.66-.9-1.61-1.34-2.18l.53-.25c.35.45,1.02,1.5,1.37,2.17Z"/>
      <path class="cls-1" d="m127.21,69.33l.57-.52c1.02.81,2.23,2.02,3.21,3.12l-.63.53c-.94-1.15-2.14-2.34-3.15-3.14Z"/>
      <path class="cls-1" d="m137.96,62.55l.79.15c-.07.27-.14.52-.21.8-.18.8-.67,2.97-1.32,4.48-.52,1.23-1.25,2.59-2.07,3.77l-.73-.32c.88-1.18,1.65-2.63,2.14-3.75.6-1.4,1.21-3.61,1.4-5.13Zm3.46.11l.7-.25c.53.98,1.4,2.79,2.03,4.34.6,1.44,1.34,3.54,1.71,4.75l-.76.24c-.34-1.29-1.06-3.26-1.65-4.75-.57-1.43-1.41-3.31-2.03-4.33Zm3.67-1.96c.84,0,1.51.67,1.51,1.51s-.67,1.5-1.51,1.5-1.5-.67-1.5-1.5.67-1.51,1.5-1.51Zm0,2.51c.55,0,1.01-.45,1.01-.99s-.46-1.01-1.01-1.01-.98.46-.98,1.01.43.99.98.99Z"/>
      <path class="cls-1" d="m158.18,65.34c-.32,1.39-.97,2.9-2.02,4.03-1.5,1.62-3.24,2.38-5.01,2.86l-.56-.64c1.9-.38,3.71-1.29,4.97-2.63.91-.97,1.54-2.34,1.81-3.5h-7.84c-.32,0-.76.01-1.2.04v-.8c.45.06.87.08,1.2.08h7.65c.24,0,.49-.03.63-.08l.53.32c-.06.1-.13.24-.15.32Zm-7.49-3.73h5.59c.43,0,.81-.01,1.12-.06v.77c-.31-.03-.69-.03-1.13-.03h-5.58c-.41,0-.77.01-1.13.03v-.77c.35.04.7.06,1.13.06Z"/>
      <path class="cls-1" d="m170.36,63.04c-.29,1.53-1.01,3.82-2.09,5.2-1.29,1.62-2.83,2.86-5.43,3.67l-.62-.67c2.68-.7,4.24-1.88,5.45-3.43,1.02-1.33,1.74-3.49,1.93-4.92h-7.54c-.5,0-.88.03-1.23.04v-.81c.36.04.78.08,1.25.08h7.34c.18,0,.35,0,.55-.06l.55.35c-.08.15-.11.28-.15.55Z"/>
      <path class="cls-1" d="m177.71,66.22c1.29-.78,2.51-1.89,3.24-2.77l.56.53c-.71.78-1.89,1.82-3.18,2.66v5.11c0,.38.01.87.04,1.04h-.83c.03-.17.06-.66.06-1.04v-4.66c-1.13.64-2.77,1.43-4.59,2l-.36-.69c1.85-.46,3.91-1.47,5.07-2.19Z"/>
      <path class="cls-1" d="m190.06,68.99c2.02-1.3,3.66-3.35,4.41-4.99l.43.76c-.9,1.64-2.38,3.53-4.43,4.85-1.39.9-3.14,1.81-5.69,2.31l-.48-.74c2.59-.39,4.43-1.33,5.74-2.19Zm-1.33-4.38l-.55.56c-.7-.7-2.42-2.2-3.47-2.88l.49-.52c1,.66,2.79,2.12,3.53,2.84Z"/>
      <path class="cls-1" d="m199.92,62.55l.79.15c-.07.27-.14.52-.21.8-.18.8-.67,2.97-1.32,4.48-.52,1.23-1.25,2.59-2.07,3.77l-.73-.32c.88-1.18,1.65-2.63,2.14-3.75.6-1.4,1.21-3.61,1.4-5.13Zm3.46.11l.7-.25c.53.98,1.4,2.79,2.03,4.34.6,1.44,1.34,3.54,1.71,4.75l-.76.24c-.34-1.29-1.06-3.26-1.65-4.75-.57-1.43-1.41-3.31-2.03-4.33Zm3.67-1.96c.84,0,1.51.67,1.51,1.51s-.67,1.5-1.51,1.5-1.5-.67-1.5-1.5.67-1.51,1.5-1.51Zm0,2.51c.55,0,1.01-.45,1.01-.99s-.46-1.01-1.01-1.01-.98.46-.98,1.01.43.99.98.99Z"/>
      <path class="cls-1" d="m212.29,67.7l-.67.25c-.22-.73-1.01-2.7-1.25-3.12l.66-.27c.24.52.99,2.42,1.26,3.14Zm6.85-2.69c-.36,1.62-.98,3.15-2.02,4.44-1.29,1.61-2.98,2.66-4.5,3.24l-.6-.62c1.67-.5,3.35-1.57,4.51-3,1.01-1.25,1.75-2.98,2-4.79l.77.24c-.07.18-.13.36-.17.49Zm-3.78,1.85l-.66.25c-.14-.62-.81-2.45-1.08-3.01l.67-.22c.22.55.91,2.4,1.06,2.98Z"/>
      <path class="cls-1" d="m226.93,61.85c-.14.28-.31.59-.5.9h4.38c.34,0,.56-.04.73-.11l.63.36c-.08.17-.2.45-.24.6-.38,1.5-1.27,3.42-2.51,4.92-1.23,1.51-2.91,2.79-5.53,3.73l-.63-.6c2.4-.69,4.26-1.97,5.56-3.53,1.16-1.4,2.06-3.29,2.38-4.71h-5.21c-.8,1.16-1.93,2.44-3.56,3.49l-.62-.46c2.4-1.4,3.87-3.59,4.43-4.86.1-.2.27-.62.32-.91l.84.29c-.17.28-.35.66-.48.9Z"/>
      <path class="cls-1" d="m35.85,92.96c-.49,1.29-1.44,3.04-2.45,4.27,1.53,1.3,3.22,3.11,4.19,4.27l-.6.53c-.95-1.22-2.58-2.98-4.05-4.29-1.54,1.65-3.43,3.22-5.6,4.19l-.56-.6c2.26-.9,4.27-2.55,5.79-4.23.97-1.11,2.1-2.93,2.47-4.19h-5.87c-.45,0-1.22.06-1.28.06v-.83c.08,0,.84.07,1.28.07h5.67c.36,0,.63-.03.81-.08l.46.36c-.07.1-.21.34-.25.46Z"/>
      <path class="cls-1" d="m45.14,91.85c-.14.28-.31.59-.5.9h4.38c.34,0,.56-.04.73-.11l.63.36c-.08.17-.2.45-.24.6-.38,1.5-1.27,3.42-2.51,4.92-1.23,1.51-2.91,2.79-5.53,3.73l-.63-.6c2.4-.69,4.26-1.97,5.56-3.53,1.16-1.4,2.06-3.29,2.38-4.71h-5.21c-.8,1.16-1.93,2.44-3.56,3.49l-.62-.46c2.4-1.4,3.87-3.59,4.43-4.86.1-.2.27-.62.32-.91l.84.29c-.17.28-.35.66-.48.9Z"/>
      <path class="cls-1" d="m62.64,95.34c-.32,1.39-.97,2.9-2.02,4.03-1.5,1.62-3.24,2.38-5.01,2.86l-.56-.64c1.9-.38,3.71-1.29,4.97-2.63.91-.97,1.54-2.34,1.81-3.5h-7.84c-.32,0-.76.01-1.2.04v-.8c.45.06.87.08,1.2.08h7.65c.24,0,.49-.03.63-.08l.53.32c-.06.1-.13.24-.15.32Zm-7.49-3.73h5.59c.43,0,.81-.01,1.12-.06v.77c-.31-.03-.69-.03-1.13-.03h-5.58c-.41,0-.77.01-1.13.03v-.77c.35.04.7.06,1.13.06Z"/>
      <path class="cls-1" d="m74.91,93.25c-.29,1.53-1.01,3.82-2.07,5.2-1.29,1.62-2.84,2.86-5.45,3.67l-.62-.67c2.68-.7,4.24-1.88,5.45-3.43,1.02-1.32,1.75-3.49,1.95-4.92h-7.55c-.5,0-.88.03-1.23.04v-.81c.36.04.78.08,1.25.08h7.34c.18,0,.35,0,.55-.06l.55.35c-.07.15-.11.28-.15.55Zm.14-1.16l-.55.27c-.28-.57-.79-1.4-1.13-1.88l.53-.24c.32.46.85,1.32,1.15,1.85Zm1.74-.35l-.55.24c-.32-.57-.78-1.39-1.16-1.85l.55-.24c.32.45.85,1.29,1.16,1.85Z"/>
    </g>
    <path class="cls-1" d="m7.12,10.15H0V3.03h7.12v7.12Z"/>
  </g>
</svg>