<?xml version="1.0" encoding="UTF-8"?>
<svg id="_レイヤー_2" data-name="レイヤー 2" xmlns="http://www.w3.org/2000/svg" viewBox="0 0 328.22 94.13">
  <defs>
    <style>
      .cls-1 {
        fill: none;
        stroke: #231815;
        stroke-miterlimit: 10;
      }

      .cls-2 {
        fill: #231815;
      }
    </style>
  </defs>
  <g id="_レイヤー_1-2" data-name="レイヤー 1">
    <g>
      <path class="cls-2" d="m32.69,15.87l-.87,1.33c-.93-.68-3-2.01-4.14-2.6l.84-1.29c1.12.61,3.34,1.96,4.18,2.56Zm2.2,4.52c3.15-1.8,5.66-4.27,7.2-6.95l.91,1.56c-1.63,2.56-4.27,5.02-7.29,6.8-1.92,1.1-4.54,1.99-6.31,2.36l-.87-1.54c2.09-.36,4.45-1.12,6.36-2.22Zm.61-8.68l-.89,1.29c-.91-.68-2.96-2.05-4.08-2.7l.85-1.27c1.12.63,3.31,2.07,4.12,2.68Z"/>
      <path class="cls-2" d="m49.83,13.21c.11.42.34,1.23.63,2.24,2.68-.51,5.91-1.14,6.55-1.29.23-.06.53-.13.72-.23l.95.67c-.8,1.61-2.75,4.27-4.05,5.55l-1.35-.67c1.2-1.03,2.62-2.77,3.27-3.91-.44.08-3.12.61-5.76,1.14.76,2.74,1.69,6.08,1.94,6.92.11.36.3.95.42,1.29l-1.61.42c-.06-.42-.15-.91-.29-1.39-.25-.86-1.16-4.22-1.9-6.93-1.79.36-3.34.67-3.86.78l-.38-1.44c.53-.04,1.01-.11,1.58-.21.27-.04,1.16-.21,2.32-.42-.28-1.01-.51-1.82-.63-2.18-.13-.47-.28-.85-.46-1.14l1.63-.4c.06.32.15.74.27,1.22Z"/>
      <path class="cls-2" d="m69.15,19.65c2.93-1.84,5.24-4.65,6.34-6.99l.91,1.61c-1.29,2.38-3.51,4.96-6.38,6.76-1.9,1.2-4.29,2.36-7.47,2.95l-1.01-1.56c3.32-.49,5.79-1.65,7.6-2.77Zm-1.12-6.02l-1.2,1.2c-.95-.99-3.32-3.02-4.73-3.97l1.08-1.16c1.35.89,3.78,2.87,4.84,3.93Z"/>
      <path class="cls-2" d="m92.69,7.83c1.18,0,2.15.97,2.15,2.15s-.97,2.13-2.15,2.13c-.25,0-.49-.04-.72-.11,0,.06-.02.13-.04.21-.4,1.99-1.33,5.05-2.83,7.01-1.73,2.22-3.99,3.99-7.49,5.07l-1.29-1.42c3.69-.91,5.83-2.53,7.41-4.56,1.35-1.73,2.24-4.37,2.49-6.19h-9.71c-.76,0-1.41.04-1.9.06v-1.69c.53.08,1.27.13,1.9.13h9.54c.17,0,.38,0,.61-.02-.06-.19-.09-.4-.09-.61,0-1.18.95-2.15,2.13-2.15Zm0,3.4c.7,0,1.27-.57,1.27-1.25s-.57-1.27-1.27-1.27-1.25.57-1.25,1.27.57,1.25,1.25,1.25Z"/>
      <path class="cls-2" d="m99.69,15.49h10.41c.95,0,1.63-.06,2.05-.09v1.86c-.38-.02-1.18-.09-2.03-.09h-10.43c-1.04,0-2.05.04-2.64.09v-1.86c.57.04,1.58.09,2.64.09Z"/>
      <path class="cls-2" d="m40.6,40.34l-.72.32.93.59c-.13.27-.21.57-.28.95-.42,1.99-1.33,5.05-2.83,7.01-1.75,2.22-4.01,3.99-7.48,5.07l-1.29-1.42c3.69-.91,5.81-2.53,7.41-4.56,1.35-1.73,2.22-4.37,2.49-6.19h-9.73c-.74,0-1.41.04-1.88.06v-1.69c.51.08,1.27.13,1.9.13h9.52c.25,0,.53,0,.82-.06-.4-.74-.95-1.67-1.39-2.28l1.04-.44c.44.65,1.12,1.79,1.5,2.51Zm2.49-.49l-1.04.46c-.42-.78-1.04-1.86-1.56-2.53l1.04-.44c.47.65,1.16,1.79,1.56,2.51Z"/>
      <path class="cls-2" d="m47.17,40.65h10.2c.42,0,1.1,0,1.67-.04-.04.47-.04,1.01-.04,1.48v9.37c0,.61.02,2.09.04,2.3h-1.63c0-.13.02-.59.02-1.1h-10.37c.02.49.02.95.04,1.1h-1.63c.02-.25.06-1.65.06-2.32v-9.35c0-.44,0-1.03-.04-1.48.74.02,1.25.04,1.69.04Zm-.11,10.52h10.39v-9.02h-10.39v9.02Z"/>
      <path class="cls-2" d="m66.44,45.49h10.41c.95,0,1.63-.06,2.05-.09v1.86c-.38-.02-1.18-.09-2.03-.09h-10.43c-1.04,0-2.05.04-2.64.09v-1.86c.57.04,1.58.09,2.64.09Z"/>
      <path class="cls-2" d="m41.98,72.17c-1.37,2.22-3.78,5.32-6.92,7.71,1.14,1.14,2.49,2.56,3.25,3.5l-1.39,1.1c-.7-.97-2.22-2.64-3.42-3.88-1.14-1.14-3.34-3.04-4.35-3.74l1.23-1.01c.7.51,2.26,1.79,3.55,2.94,2.79-2.09,4.98-4.88,5.93-6.59h-11.17c-.74,0-1.56.08-1.94.11v-1.71c.53.08,1.27.15,1.94.15h11.32c.53,0,.97-.06,1.23-.15l1.2.97c-.19.21-.36.42-.47.59Z"/>
      <path class="cls-2" d="m47.76,77.92l-1.44.53c-.29-.99-1.31-3.61-1.69-4.27l1.41-.55c.38.82,1.37,3.31,1.73,4.29Zm9.27-3.23c-.51,2.09-1.33,4.12-2.7,5.83-1.75,2.24-4.07,3.71-6.19,4.52l-1.25-1.27c2.2-.65,4.62-2.09,6.17-4.05,1.35-1.65,2.34-4.07,2.62-6.5l1.63.51c-.13.4-.21.7-.29.95Zm-5.09,2.09l-1.41.49c-.21-.86-1.08-3.27-1.48-4.12l1.39-.47c.32.76,1.25,3.27,1.5,4.1Z"/>
      <path class="cls-2" d="m66.59,84.49l-1.27-1.2c3.46-1.33,5.19-2.96,5.19-8.28v-.8h-5.41v3.08c0,.7.06,1.54.08,1.73h-1.67c.02-.19.08-1.01.08-1.73v-3.08h-2.05c-.82,0-1.67.06-1.9.08v-1.65c.17.04,1.1.13,1.9.13h2.05v-2.43c0-.4-.02-.95-.08-1.39h1.69c-.02.19-.09.72-.09,1.39v2.43h5.41v-2.37c0-.74-.06-1.37-.09-1.56h1.71c-.02.19-.1.82-.1,1.56v2.37h2.09c.84,0,1.48-.06,1.75-.09v1.6c-.21-.02-.91-.06-1.75-.06h-2.09v.68c0,5.05-1.08,7.66-5.43,9.59Z"/>
      <path class="cls-2" d="m81.62,75.49h10.41c.95,0,1.63-.06,2.05-.09v1.86c-.38-.02-1.18-.09-2.03-.09h-10.43c-1.04,0-2.05.04-2.64.09v-1.86c.57.04,1.58.09,2.64.09Z"/>
      <path class="cls-2" d="m103.18,76l-.86,1.33c-.95-.68-3-2.01-4.16-2.6l.86-1.29c1.12.61,3.34,1.98,4.16,2.56Zm2.22,4.54c3.15-1.8,5.66-4.29,7.2-6.97l.91,1.58c-1.65,2.55-4.27,5-7.31,6.78-1.9,1.12-4.52,1.99-6.29,2.36l-.87-1.54c2.07-.36,4.45-1.12,6.36-2.2Zm.61-8.7l-.89,1.31c-.91-.7-2.98-2.07-4.08-2.72l.85-1.27c1.12.63,3.31,2.09,4.12,2.68Zm5.76.55l-1.08.49c-.48-.99-1.1-2.13-1.73-3l1.04-.44c.48.68,1.33,2.05,1.77,2.94Zm2.54-.95l-1.08.49c-.51-1.01-1.16-2.09-1.8-2.94l1.06-.46c.51.67,1.35,2.03,1.82,2.91Z"/>
    </g>
    <g>
      <path class="cls-2" d="m182.05,42.7c-.65,1.63-1.84,3.86-3.19,5.57,2,1.71,4.31,4.18,5.55,5.68l-1.33,1.14c-1.27-1.67-3.29-3.91-5.22-5.64-2.03,2.18-4.6,4.27-7.41,5.55l-1.22-1.27c3.06-1.2,5.87-3.46,7.83-5.64,1.29-1.46,2.68-3.7,3.15-5.28h-7.41c-.67,0-1.71.08-1.92.09v-1.73c.27.04,1.35.11,1.92.11h7.33c.63,0,1.12-.06,1.42-.15l.97.74c-.11.15-.36.57-.48.84Z"/>
      <path class="cls-2" d="m194.29,41.15c-.11.23-.25.46-.4.68h5.15c.51,0,.93-.08,1.25-.19l1.25.76c-.17.27-.34.72-.46,1.03-.49,1.75-1.52,3.97-2.96,5.91.8.59,1.56,1.18,2.17,1.67l-1.12,1.31c-.57-.51-1.29-1.1-2.07-1.73-1.69,1.88-4.03,3.63-7.24,4.83l-1.37-1.18c3.21-.99,5.64-2.74,7.35-4.58-1.37-.99-2.81-1.98-4.03-2.74l1.03-1.04c1.25.72,2.68,1.63,4.01,2.57,1.23-1.65,2.2-3.71,2.58-5.26h-6.42c-1.22,1.71-2.91,3.57-5.03,5.03l-1.27-.99c3.27-2.03,5.21-4.88,6.1-6.61.19-.34.49-1.01.61-1.5l1.73.55c-.32.49-.67,1.14-.86,1.48Z"/>
      <path class="cls-2" d="m207.32,48.88l-1.44.53c-.29-.99-1.31-3.61-1.69-4.27l1.41-.55c.38.82,1.37,3.31,1.73,4.29Zm9.27-3.23c-.51,2.09-1.33,4.12-2.7,5.83-1.75,2.24-4.07,3.71-6.19,4.52l-1.25-1.27c2.2-.65,4.62-2.09,6.17-4.05,1.35-1.65,2.34-4.07,2.62-6.5l1.63.51c-.13.4-.21.7-.29.95Zm-5.09,2.09l-1.41.49c-.21-.86-1.08-3.27-1.48-4.12l1.39-.47c.32.76,1.25,3.27,1.5,4.1Z"/>
      <path class="cls-2" d="m232.99,42.89c-.4,2-1.33,5.05-2.83,7.01-1.73,2.22-3.99,3.99-7.49,5.09l-1.29-1.42c3.69-.93,5.81-2.55,7.41-4.58,1.35-1.73,2.22-4.37,2.49-6.19h-9.71c-.76,0-1.41.04-1.9.06v-1.67c.53.06,1.27.11,1.9.11h9.54c.29,0,.65,0,1.01-.09l1.16.74c-.13.27-.21.59-.29.95Z"/>
      <path class="cls-2" d="m251.97,54.25c0,.87-.21,1.29-.78,1.54-.59.23-1.54.27-3.17.27-.06-.4-.29-1.01-.51-1.39,1.2.04,2.3.04,2.62.02.34-.02.46-.13.46-.44v-13.24h-12.82v15.07h-1.37v-16.41h15.58v14.59Zm-2.98-10.03h-9.58v-1.23h9.58v1.23Zm-7.31,7.98v1.37h-1.31v-7.37h7.62v6h-6.31Zm0-4.81v3.59h4.98v-3.59h-4.98Z"/>
      <path class="cls-2" d="m264.34,46.09v7.5h6.76v1.39h-14.84v-1.39h6.59v-7.5h-7.66v-1.39h7.66v-5.95h1.48v5.95h7.77v1.39h-7.77Z"/>
      <path class="cls-2" d="m276.14,41.98c1.24-.13,4.83-.49,8.32-.78,2.07-.17,3.86-.29,5.13-.34v1.52c-1.08,0-2.75.02-3.72.3-2.7.87-4.35,3.76-4.35,6.02,0,3.7,3.46,4.88,6.55,5l-.55,1.58c-3.51-.13-7.52-2.01-7.52-6.25,0-2.96,1.8-5.38,3.55-6.42-2.03.23-6.88.68-8.93,1.12l-.17-1.65c.72-.02,1.33-.06,1.69-.09Zm12.27,5.38l-.97.46c-.44-.91-.99-1.9-1.56-2.68l.97-.42c.44.63,1.16,1.8,1.56,2.64Zm2.17-.82l-.99.48c-.46-.93-1.01-1.86-1.6-2.66l.93-.44c.46.63,1.22,1.79,1.65,2.62Z"/>
      <path class="cls-2" d="m294.59,49.66c-.27,1.79-.7,3.61-1.31,4.83-.21-.17-.78-.42-1.04-.51.59-1.16.95-2.87,1.16-4.52l1.2.21Zm2.05-1.63v8h-1.25v-7.92l-2.98.19-.13-1.27,1.31-.06c.38-.47.78-1.01,1.18-1.58-.55-.86-1.5-1.94-2.36-2.75l.76-.89c.19.17.38.34.57.53.63-1.08,1.29-2.53,1.69-3.57l1.24.46c-.65,1.31-1.46,2.85-2.18,3.91.4.42.74.84,1.03,1.22.78-1.18,1.5-2.41,2.03-3.44l1.18.55c-1.08,1.73-2.51,3.88-3.8,5.49l2.74-.13c-.27-.55-.55-1.1-.85-1.6l1.03-.42c.8,1.22,1.56,2.85,1.84,3.89l-1.12.51c-.08-.36-.21-.78-.4-1.22l-1.5.1Zm1.62,5.01c-.1-.91-.48-2.3-.93-3.34l1.03-.3c.47,1.04.87,2.41,1.01,3.33l-1.1.32Zm7.45-3.12c1.12,1.65,2.93,3.34,4.5,4.22-.3.27-.74.74-.97,1.08-1.42-.93-3.02-2.54-4.18-4.24v5.02h-1.35v-4.9c-1.22,1.77-2.91,3.34-4.56,4.27-.21-.34-.63-.82-.95-1.08,1.82-.87,3.74-2.6,4.9-4.37h-3.32v-6.52h3.93v-1.58h-4.52v-1.23h4.52v-1.9h1.35v1.9h4.48v1.23h-4.48v1.58h4.07v6.52h-3.42Zm-4.67-3.78h2.75v-1.65h-2.75v1.65Zm0,2.7h2.75v-1.67h-2.75v1.67Zm6.8-4.35h-2.85v1.65h2.85v-1.65Zm0,2.68h-2.85v1.67h2.85v-1.67Z"/>
      <path class="cls-2" d="m317.41,44.79c-1.67.72-3.38,1.42-4.75,1.96l-.55-1.16c1.29-.4,3.21-1.1,5.09-1.84l.21,1.04Zm1.04-3.99h-5.89v-1.16h7.2v6.25c0,.63-.15.95-.61,1.14-.49.19-1.25.17-2.45.17-.06-.32-.23-.74-.36-1.04.84.02,1.6.02,1.82,0,.23,0,.29-.08.29-.29v-5.07Zm-4.35.17c.89.47,1.98,1.22,2.49,1.79l-.76.91c-.49-.59-1.56-1.37-2.47-1.86l.74-.83Zm7.24,5.76c-.27.51-.55,1.04-.82,1.5h6.19v7.85h-1.42v-.74h-9.21v.74h-1.39v-7.85h4.45c.29-.59.57-1.27.74-1.79l1.46.29Zm3.95,2.6h-9.21v1.84h9.21v-1.84Zm0,4.88v-1.92h-9.21v1.92h9.21Zm-4.77-8.99c1.37-.44,3.36-1.14,5.34-1.84l.21,1.04c-1.75.67-3.59,1.35-5.03,1.88l-.51-1.08Zm7.69.67c0,.67-.15.99-.65,1.2-.51.19-1.31.19-2.56.19-.06-.34-.23-.8-.4-1.12.89.04,1.71.04,1.98.04.23-.02.3-.08.3-.3v-5.09h-5.93v-1.16h7.26v6.25Zm-4.24-2.26c-.49-.59-1.6-1.35-2.51-1.8l.74-.85c.89.44,1.99,1.16,2.54,1.73l-.78.93Z"/>
    </g>
    <g>
      <path class="cls-2" d="m7.12,21.98H0v-7.12h7.12v7.12Z"/>
      <path class="cls-2" d="m7.12,50.98H0v-7.12h7.12v7.12Z"/>
      <path class="cls-2" d="m7.12,79.98H0v-7.12h7.12v7.12Z"/>
    </g>
    <polyline class="cls-1" points="133.89 .5 150.78 .5 150.78 93.63 133.89 93.63"/>
  </g>
</svg>