<?xml version="1.0" encoding="UTF-8"?>
<svg id="_レイヤー_2" data-name="レイヤー 2" xmlns="http://www.w3.org/2000/svg" viewBox="0 0 298.06 94.09">
  <defs>
    <style>
      .cls-1 {
        fill: #fff;
      }

      .cls-2 {
        fill: #231815;
      }

      .cls-3 {
        fill: #686868;
      }
    </style>
  </defs>
  <g id="_レイヤー_1-2" data-name="レイヤー 1">
    <g>
      <g>
        <path class="cls-2" d="m33.9,9.15c1.36,1.16,3.56,2.19,5.45,2.68-.15.14-.35.39-.45.57-1.95-.57-4.31-1.78-5.72-3.1v3.4h-.66v-3.43c-1.4,1.37-3.74,2.63-5.63,3.25-.13-.18-.32-.45-.48-.57,1.83-.53,4.02-1.61,5.38-2.8h-5.11v-.6h5.84v-1.05h-4.1V3.12c-.48.57-1,1.13-1.58,1.64-.13-.15-.35-.35-.5-.43,1.56-1.29,2.7-3.01,3.31-4.33l.73.13c-.27.52-.59,1.08-.95,1.64h3.12c.29-.53.63-1.25.78-1.74l.74.13c-.25.53-.56,1.13-.85,1.61h4.85v.59h-4.69v1.13h4.2v.55h-4.2v1.15h4.27v.56h-4.27v1.18h5.34v.57h-5.52v1.05h5.9v.6h-5.18Zm-1.19-6.79h-3.63v1.13h3.63v-1.13Zm0,1.68h-3.63v1.15h3.63v-1.15Zm-3.63,2.89h3.63v-1.18h-3.63v1.18Z"/>
        <path class="cls-2" d="m50.87,3.77c-.71,1.07-1.75,1.99-2.94,2.77,1.64.85,3.63,1.44,5.7,1.74-.15.17-.34.42-.43.63-2.13-.35-4.17-1.02-5.88-2-1.04.62-2.19,1.13-3.33,1.54h7.05v4.23h-.67v-.48h-6.23v.49h-.67v-4.06c-.77.25-1.54.46-2.28.63-.06-.17-.22-.43-.35-.59,1.93-.39,4.08-1.12,5.9-2.13-.9-.57-1.67-1.23-2.27-1.99-.7.6-1.51,1.16-2.45,1.65-.11-.15-.32-.36-.49-.45,1.93-.94,3.32-2.25,4.03-3.36l.73.14c-.22.32-.48.66-.77.98h4.8l.13-.04.45.29Zm-8.82-.04h-.66V1.37h5.48V.03h.67v1.34h5.52v2.35h-.69v-1.72h-10.32v1.72Zm2.07,5.34v2.54h6.23v-2.54h-6.23Zm.78-4.94c.6.8,1.43,1.48,2.41,2.07.99-.62,1.86-1.32,2.51-2.1h-4.87l-.04.03Z"/>
        <path class="cls-2" d="m55.4,9.23l.57-.52c1.02.81,2.23,2.02,3.21,3.12l-.63.53c-.94-1.15-2.14-2.34-3.15-3.14Z"/>
        <path class="cls-2" d="m75.16,5.39c-.83,1.18-1.78,2.48-2.66,3.28l-.55-.35c.66-.62,1.44-1.57,2.06-2.49h-4.67v5.88c0,.5-.14.71-.55.83-.41.11-1.16.11-2.42.11-.04-.2-.15-.45-.25-.64,1.05.03,1.95.01,2.21,0,.25-.01.32-.07.32-.29v-5.88h-5.91v-.64h7.69c-1.22-.67-3.07-1.6-4.52-2.25l.38-.48c.84.36,1.81.83,2.72,1.26,1.08-.59,2.34-1.48,3.24-2.3h-8.21v-.64h8.87l.17-.04.49.38c-1.04,1.04-2.58,2.16-3.88,2.94.66.31,1.25.63,1.7.87l-.18.27h3.29l.14-.04.53.25Z"/>
        <path class="cls-2" d="m78.36,8c-.22,1.3-.59,2.63-1.06,3.53-.13-.08-.41-.22-.56-.28.5-.87.81-2.12,1.01-3.38l.62.13Zm2.51-3.47c.62.88,1.25,2.06,1.46,2.8l-.56.28c-.07-.25-.18-.55-.32-.87l-1.47.08v5.94h-.63v-5.91c-.9.04-1.72.08-2.41.11l-.06-.64.87-.03c.35-.42.73-.92,1.11-1.46-.43-.63-1.23-1.49-1.93-2.09l.36-.42c.15.13.31.27.48.42.5-.8,1.07-1.92,1.39-2.72l.62.25c-.48.92-1.09,2.07-1.61,2.83.42.41.8.83,1.06,1.19.62-.94,1.22-1.92,1.64-2.72l.62.28c-.85,1.39-2.05,3.18-3.04,4.41.84-.03,1.78-.07,2.73-.1-.25-.49-.53-1-.83-1.43l.53-.22Zm.42,3.31c.42.85.84,1.98.97,2.72l-.57.18c-.13-.74-.52-1.86-.92-2.73l.53-.17Zm8.04-4.79c-.25,6.39-.49,8.54-1.06,9.2-.28.35-.55.42-1.04.45-.45.03-1.32.01-2.16-.06-.01-.2-.08-.48-.21-.67.97.08,1.86.1,2.18.1.29,0,.48-.03.63-.18.48-.53.74-2.69.98-8.59h-5.04c-.42.78-.88,1.48-1.37,2.06-.11-.11-.42-.29-.6-.39,1.12-1.22,2.03-3.07,2.61-4.95l.66.17c-.27.84-.59,1.68-.95,2.45h5.38v.41Zm-3.73,6.09c-.34-.9-1.19-2.3-2-3.32l.56-.27c.83.99,1.69,2.35,2.04,3.25l-.6.34Z"/>
        <path class="cls-2" d="m97,1.6v11.07h-.66v-2.72c-1.88.31-3.75.6-5.11.8l-.13-.67c.41-.06.9-.13,1.41-.2V1.6h-1.16v-.64h6.68v.64h-1.04Zm-.66,0h-3.18v2.16h3.18V1.6Zm0,2.79h-3.18v2.28h3.18v-2.28Zm-3.18,5.41c.98-.15,2.09-.31,3.18-.48v-2.02h-3.18v2.49Zm10.39-7.66c-.41,2.98-1.26,5.28-2.42,7.03.83,1.22,1.85,2.18,3.1,2.8-.15.13-.36.39-.48.56-1.22-.66-2.21-1.6-3.04-2.77-.9,1.18-1.95,2.06-3.1,2.7-.11-.17-.31-.42-.45-.53,1.16-.6,2.24-1.53,3.15-2.79-1.02-1.71-1.74-3.84-2.2-6.25l.64-.13c.41,2.18,1.05,4.16,1.97,5.76.97-1.53,1.7-3.46,2.07-5.83h-5.1v-.66h5.29l.13-.03.42.13Z"/>
        <path class="cls-2" d="m107.98,5.24c.52-1.64,2.1-3.73,4.01-3.73,1.79,0,3.04,1.83,3.04,4.71,0,3.84-2.47,5.46-5.79,6.05l-.43-.64c3-.43,5.49-1.79,5.49-5.39,0-2.24-.76-4.08-2.41-4.08-1.82,0-3.54,2.59-3.77,4.43-.1.62-.1,1.12.01,1.86l-.71.06c-.06-.52-.14-1.28-.14-2.16,0-1.34.32-3.6.46-4.55.06-.36.07-.67.11-1.06l.81.03c-.35,1.23-.6,3.39-.69,4.48Z"/>
        <path class="cls-2" d="m117.8,9.23l.57-.52c1.02.81,2.23,2.02,3.21,3.12l-.63.53c-.94-1.15-2.14-2.34-3.15-3.14Z"/>
        <path class="cls-2" d="m129.8,7.41c-.25,2.87-1.05,4.48-4.33,5.29-.06-.15-.25-.43-.39-.57,3.12-.71,3.82-2.16,4.03-4.72h.69Zm7.59-5.84v.64h-5.74v1.7h4.5v.62h-9.55v-.62h4.37v-1.7h-5.65v-.64h5.65V.03h.69v1.54h5.74Zm-1.19,6.82v-1.86h-9.76v1.86h-.66v-2.49h11.09v2.49h-.67Zm-.15,3.38c.55,0,.63-.24.69-1.91.15.11.42.22.63.28-.1,1.82-.29,2.25-1.26,2.25h-2.2c-1.05,0-1.34-.2-1.34-1.06v-3.95h.67v3.95c0,.36.11.43.7.43h2.12Z"/>
        <path class="cls-2" d="m151.89,11.39v.67h-12.42v-.67h5.38V.27h.7v4.48h5.39v.66h-5.39v5.98h6.35Z"/>
        <path class="cls-2" d="m164.59.97v11.72h-.69v-1.01h-7.84v1.01h-.67V.97h9.2Zm-8.53.66v2.68h7.84V1.62h-7.84Zm0,3.32v2.7h7.84v-2.7h-7.84Zm7.84,6.08v-2.72h-7.84v2.72h7.84Z"/>
        <path class="cls-2" d="m172.2,7.86c-.21-.43-.83-1.4-1.28-2.1v6.93h-.64v-7.26c-.52,1.74-1.25,3.52-1.96,4.54-.1-.17-.28-.43-.42-.56.91-1.22,1.85-3.6,2.28-5.65h-2v-.63h2.1V.03h.64v3.11h1.68v.63h-1.68v1.16c.39.49,1.44,2.03,1.7,2.41l-.42.52Zm2.69,2c-.55.81-1.46,1.67-2.33,2.27-.13-.13-.31-.29-.46-.41.87-.56,1.79-1.44,2.26-2.17l.53.31Zm2.06-.71v2.79c0,.38-.07.57-.38.67-.32.11-.88.11-1.82.11-.04-.17-.14-.41-.24-.59.81.03,1.39.03,1.57.01.2-.01.24-.07.24-.22v-2.77h-3.7v-.62h8.1v.62h-3.77Zm-1.65-7.89h-2.62v-.59h8.05v.59h-2.63v1.18h2.28v3.22h-7.23v-3.22h2.14v-1.18Zm-1.82,6v-.57h6.56v.57h-6.56Zm.28-2.17h1.57v-2.07h-1.57v2.07Zm3.74-3.82h-1.61v1.18h1.61v-1.18Zm-1.61,1.75v2.07h1.61v-2.07h-1.61Zm3.88,0h-1.71v2.07h1.71v-2.07Zm-.98,6.6c.73.66,1.61,1.57,2.03,2.16l-.5.38c-.42-.59-1.28-1.54-2.02-2.21l.49-.32Z"/>
        <path class="cls-2" d="m185,10.11c.74,1.12,2.12,1.62,3.89,1.7,1.47.07,4.65.03,6.19-.07-.1.15-.2.46-.22.67-1.47.06-4.45.08-5.95.03-1.92-.07-3.29-.6-4.19-1.72-.64.63-1.32,1.27-2,1.89l-.39-.64c.62-.48,1.37-1.15,2.03-1.79v-3.95h-1.91v-.64h2.55v4.54Zm-.08-6.99c-.42-.71-1.37-1.71-2.27-2.38l.5-.36c.9.64,1.86,1.62,2.31,2.33l-.55.42Zm.84.5v-.57h4.16v-1.26h-3.22v-.56h3.22V.03h.66v1.2h3.35v.56h-3.35v1.26h4.36v.57h-9.17Zm5.73,1.58c.27-.43.59-1.13.76-1.58l.66.22c-.29.53-.6,1.12-.87,1.53h2.7v.56h-4.16v1.12h3.56v.56h-3.56v1.27h4.26v.57h-4.26v1.55h-.66v-1.55h-4.05v-.57h4.05v-1.27h-3.28v-.56h3.28v-1.12h-3.78v-.56h2.24c-.1-.42-.41-1.04-.74-1.51l.59-.17c.34.45.66,1.06.77,1.5l-.57.18h3.49l-.42-.17Z"/>
        <path class="cls-2" d="m208.4,4.71c-.6,1.83-1.46,3.42-2.52,4.75.59,1.57,1.34,2.48,2.21,2.48.45,0,.63-.74.73-2.65.15.14.41.29.59.35-.15,2.26-.42,2.98-1.36,2.98-1.12,0-2-.97-2.66-2.58-.94,1.02-2,1.89-3.24,2.59-.1-.14-.34-.41-.49-.53,1.34-.71,2.51-1.64,3.46-2.77-.53-1.62-.88-3.73-1.06-6.09h-5.32v2.03h3.66s-.01.24-.01.34c-.07,3.26-.15,4.41-.43,4.76-.18.21-.39.29-.76.31-.36.03-1.01.01-1.71-.03-.03-.2-.1-.46-.21-.63.73.07,1.42.07,1.65.07.21,0,.36-.03.45-.14.21-.22.28-1.23.35-4.05h-2.98v.52c0,1.91-.21,4.55-1.48,6.36-.13-.13-.38-.35-.55-.43,1.21-1.74,1.34-4.12,1.34-5.94v-3.82h5.97c-.04-.83-.07-1.67-.08-2.52h.69c0,.87.03,1.71.07,2.52h4.61v.66h-4.57c.17,2.16.46,4.01.91,5.46.87-1.19,1.57-2.59,2.09-4.16l.67.17Zm-.24-2.37c-.57-.5-1.71-1.23-2.65-1.69l.39-.43c.94.46,2.07,1.15,2.65,1.65l-.39.48Z"/>
        <path class="cls-2" d="m78.77,38.74l.38.59c-1.23.95-2.44,2.33-3.22,3.56-.78-1.23-1.99-2.61-3.22-3.56l.38-.59c.94.7,1.89,1.72,2.49,2.52v-11.33h.7v11.33c.6-.8,1.56-1.82,2.49-2.52Z"/>
      </g>
      <path class="cls-2" d="m7.12,10.05H0V2.94h7.12v7.12Z"/>
      <rect class="cls-3" x="20.53" y="55.9" width="277.53" height="38.19"/>
      <g>
        <path class="cls-1" d="m73.95,80.73l.67-.45c.54.92,1.17,1.28,2.07,1.28,1.29,0,1.92-.75,1.92-2.51v-7.81h.9v7.9c0,1.8-.76,3.23-2.79,3.23-1.26,0-2.19-.57-2.78-1.64Z"/>
        <path class="cls-1" d="m82.95,74.17h.72l.11,1.49h.03c.54-1.01,1.33-1.7,2.27-1.7.31,0,.55.04.81.18l-.18.78c-.27-.1-.42-.13-.74-.13-.71,0-1.56.53-2.14,2.01v5.37h-.87v-8Z"/>
        <path class="cls-1" d="m88.32,81.56c0-.51.36-.83.76-.83s.76.32.76.83-.36.81-.76.81-.76-.32-.76-.81Z"/>
        <path class="cls-1" d="m104.25,72.44c-.54.93-1.96,2.88-3.81,4.15l-.66-.54c1.49-.82,3.04-2.64,3.58-3.67h-8.97c-.52,0-1.11.03-1.63.06v-.92c.5.06,1.11.12,1.63.12h8.92c.21,0,.58-.04.75-.08l.5.48c-.11.11-.22.26-.32.39Zm-9.81,10.12l-.72-.6c.36-.11.87-.36,1.21-.57,2.57-1.48,2.88-3.94,2.88-6.46,0-.3-.01-.6-.04-.93h.86c0,4.26-.51,6.83-4.19,8.56Z"/>
        <path class="cls-1" d="m113.16,74.15c1.59-1.02,2.97-2.19,4.05-3.48l.63.59c-1.16,1.21-2.49,2.34-4.08,3.39v6.49c0,.49.03,1.12.08,1.38h-.93c.03-.24.06-.88.06-1.38v-6c-1.58.95-3.74,1.9-5.94,2.6l-.41-.74c2.55-.71,4.89-1.81,6.54-2.85Z"/>
        <path class="cls-1" d="m121.42,75.21h9.81c.31,0,.7-.03,1.05-.06v.82c-.3-.03-.72-.04-1.05-.04h-4.33c-.03,1.65-.24,3.11-.87,4.26-.55.97-1.68,2.01-2.91,2.64l-.72-.54c1.21-.53,2.31-1.39,2.89-2.38.69-1.12.79-2.46.83-3.97h-4.69c-.47,0-.83.02-1.23.04v-.82c.39.03.76.06,1.23.06Zm1.78-3.72h5.37c.38,0,.87-.02,1.27-.08v.84c-.4-.03-.9-.04-1.27-.04h-5.34c-.48,0-.88.02-1.23.04v-.84c.39.04.73.08,1.2.08Zm8.59.64l-.58.29c-.29-.62-.83-1.52-1.23-2.09l.57-.25c.38.54.92,1.42,1.25,2.05Zm1.61-.57l-.58.27c-.33-.66-.83-1.5-1.26-2.05l.56-.25c.4.55.99,1.47,1.29,2.04Z"/>
        <path class="cls-1" d="m139.75,83l-.66-.62c2.62-1.06,4.05-2.35,4.05-6.85v-.66h-4.7v2.65c0,.49.04,1.17.04,1.23h-.87c.01-.06.07-.72.07-1.23v-2.65h-1.83c-.6,0-1.37.04-1.43.04v-.86s.86.07,1.43.07h1.83v-2.17c0-.26-.03-.66-.06-.93h.87s-.06.45-.06.91v2.19h4.7v-2.05c0-.57-.06-1.06-.08-1.12h.9c-.02.06-.08.55-.08,1.12v2.05h1.96c.6,0,1.12-.06,1.21-.07v.86c-.08,0-.62-.04-1.21-.04h-1.96v.54c0,4.17-.84,6.09-4.14,7.59Zm6.58-10.04l-.57.2c-.23-.63-.63-1.57-.92-2.13l.54-.17c.29.51.72,1.49.94,2.1Zm1.49-.46l-.58.21c-.25-.68-.62-1.58-.93-2.12l.55-.18c.29.53.71,1.46.96,2.08Z"/>
        <path class="cls-1" d="m155.95,74.15c1.59-1.02,2.97-2.19,4.05-3.48l.63.59c-1.16,1.21-2.49,2.34-4.08,3.39v6.49c0,.49.03,1.12.08,1.38h-.93c.03-.24.06-.88.06-1.38v-6c-1.58.95-3.74,1.9-5.94,2.6l-.41-.74c2.55-.71,4.89-1.81,6.54-2.85Z"/>
        <path class="cls-1" d="m169.08,70.71h.97c-.03.21-.09.92-.09,1.34v2.23h4.35c.39,0,.92-.01,1.11-.04v.83c-.2-.03-.74-.03-1.12-.03h-4.33v.3c0,3.34-1.26,5.65-4.08,7.24l-.76-.57c2.65-1.26,4.06-3.4,4.06-6.67v-.3h-4.71c-.52,0-1.04,0-1.25.03v-.84c.21.03.72.06,1.21.06h4.74v-2.23c0-.44-.06-1.12-.1-1.34Z"/>
        <path class="cls-1" d="m180.17,76h8.31c.78,0,1.23-.03,1.53-.06v.93c-.27-.02-.83-.04-1.51-.04h-8.33c-.82,0-1.5.01-1.9.04v-.93c.39.03,1.02.06,1.9.06Z"/>
        <path class="cls-1" d="m194.04,75.21h9.81c.31,0,.7-.03,1.05-.06v.82c-.3-.03-.72-.04-1.05-.04h-4.33c-.03,1.65-.24,3.11-.87,4.26-.55.97-1.68,2.01-2.91,2.64l-.72-.54c1.21-.53,2.31-1.39,2.89-2.38.69-1.12.79-2.46.83-3.97h-4.69c-.47,0-.83.02-1.23.04v-.82c.39.03.76.06,1.23.06Zm1.78-3.72h5.37c.38,0,.87-.02,1.28-.08v.84c-.41-.03-.9-.04-1.28-.04h-5.34c-.48,0-.88.02-1.23.04v-.84c.39.04.73.08,1.2.08Zm8.59.64l-.58.29c-.29-.62-.83-1.52-1.23-2.09l.57-.25c.38.54.92,1.42,1.25,2.05Zm1.61-.57l-.58.27c-.33-.66-.83-1.5-1.26-2.05l.56-.25c.4.55.99,1.47,1.29,2.04Z"/>
        <path class="cls-1" d="m209.81,72.08v3.72c1.74-.4,4.3-1.19,6-1.92.42-.2.81-.39,1.14-.62l.36.79c-.34.15-.79.36-1.21.53-1.8.75-4.52,1.54-6.29,2.01v3.62c0,.84.33,1.05,1.08,1.2.5.09,1.37.15,2.14.15,1.59,0,3.81-.13,5.07-.46v.88c-1.23.18-3.48.31-5.1.31-.84,0-1.73-.03-2.33-.13-1.07-.18-1.65-.6-1.65-1.79v-8.29c0-.38-.01-.72-.07-1.02h.92c-.03.3-.06.6-.06,1.02Zm8.19.63l-.58.27c-.29-.6-.82-1.52-1.23-2.07l.57-.25c.38.53.93,1.42,1.25,2.05Zm1.61-.57l-.57.27c-.34-.66-.84-1.5-1.26-2.05l.55-.25c.41.54.99,1.47,1.28,2.04Z"/>
        <path class="cls-1" d="m230.03,75.41c-.1,1.1-.6,4.37-.81,5.65h1.8c.3,0,.74-.01,1.02-.03v.78c-.26-.01-.71-.01-.98-.01h-8.41c-.42,0-.74.01-1.11.03v-.81c.34.03.69.04,1.11.04h5.77c.21-1.15.74-4.65.76-5.5h-5.17c-.42,0-.71.02-1.04.03v-.82c.33.03.65.06,1.02.06h4.96c.21,0,.45-.03.54-.08l.6.3c-.04.11-.08.25-.08.36Z"/>
        <path class="cls-1" d="m236.91,76h8.31c.78,0,1.23-.03,1.53-.06v.93c-.27-.02-.83-.04-1.51-.04h-8.33c-.82,0-1.5.01-1.9.04v-.93c.39.03,1.02.06,1.9.06Z"/>
      </g>
    </g>
  </g>
</svg>