<?xml version="1.0" encoding="UTF-8"?>
<svg id="_レイヤー_2" data-name="レイヤー 2" xmlns="http://www.w3.org/2000/svg" viewBox="0 0 131.07 146.52">
  <defs>
    <style>
      .cls-1 {
        fill: #fff;
        stroke: #000;
        stroke-miterlimit: 10;
        stroke-width: .5px;
      }
    </style>
  </defs>
  <g id="_レイヤー_1-2" data-name="レイヤー 1">
    <g>
      <path d="m60.43,146.52l-7.52-13.03h15.05l-7.52,13.03Z"/>
      <circle class="cls-1" cx="59.75" cy="75.53" r="59.5"/>
      <g>
        <path d="m80.45,13.09l5.49-13.09,3.23,1.35c1.27.53,2.26,1.18,2.98,1.96s1.23,1.6,1.51,2.49c.28.88.39,1.77.32,2.65-.07.88-.26,1.71-.58,2.47-.42,1-.96,1.82-1.64,2.47-.68.65-1.43,1.13-2.27,1.45-.83.32-1.7.46-2.58.45-.89-.02-1.76-.21-2.61-.56l-3.86-1.62Zm1.27-.49l2.71,1.14c.79.33,1.58.51,2.38.54.8.03,1.56-.09,2.29-.36.73-.27,1.39-.69,1.97-1.26.59-.57,1.07-1.3,1.44-2.18.31-.75.49-1.52.52-2.31s-.09-1.55-.37-2.29c-.28-.74-.73-1.42-1.34-2.04-.61-.62-1.41-1.13-2.39-1.54l-2.45-1.03-4.76,11.34Z"/>
        <path d="m95.61,20.81c-.68-.44-1.19-.99-1.52-1.63s-.47-1.32-.43-2.03c.04-.71.27-1.39.69-2.04.41-.64.95-1.12,1.6-1.44.65-.32,1.35-.47,2.08-.44.73.03,1.43.26,2.08.68.78.51,1.29,1.16,1.52,1.97.23.8.23,1.65-.02,2.54l-7.17-1.51.13-.72,6.58,1.36-.32.12c.1-.57.06-1.14-.11-1.72-.18-.57-.54-1.04-1.1-1.41-.5-.33-1.04-.5-1.6-.51-.56-.01-1.1.11-1.61.37-.51.26-.93.65-1.27,1.17-.32.49-.5,1.02-.55,1.6-.05.57.05,1.12.3,1.65.25.53.64.96,1.18,1.31.36.23.75.39,1.16.47.42.08.82.1,1.22.05l.03.83c-.47.04-.96.01-1.47-.1-.51-.11-.98-.3-1.4-.58Z"/>
        <path d="m103.65,27.02c-.6-.53-1-1.17-1.22-1.92-.22-.75-.23-1.46-.04-2.13l.51-.27-1.7,1.91-.7-.63,10.12-11.34.7.63-6.44,7.22.26-.47c.64-.25,1.33-.29,2.07-.12.74.17,1.41.52,2.01,1.05.55.49.93,1.06,1.14,1.73.21.66.25,1.34.1,2.03-.15.69-.48,1.33-1,1.92-.59.66-1.22,1.09-1.92,1.3-.69.21-1.37.24-2.04.07-.67-.17-1.28-.5-1.83-.99Zm.43-.72c.5.44,1.02.72,1.58.83.55.11,1.1.07,1.63-.13.53-.2,1.01-.53,1.44-1.01.4-.45.66-.95.79-1.5.13-.56.11-1.11-.05-1.65-.16-.55-.49-1.04-.98-1.47-.41-.36-.86-.61-1.35-.75-.49-.14-.98-.16-1.47-.08-.49.08-.94.28-1.36.59l-.81.91c-.29.4-.47.86-.53,1.38-.07.51,0,1.03.18,1.54.19.51.5.97.93,1.36Z"/>
        <path d="m109.69,33.38c-.46-.57-.67-1.16-.61-1.77s.34-1.15.86-1.61l4.41-3.62.6.73-4.19,3.44c-.37.34-.6.73-.66,1.18-.07.44.08.91.44,1.39.32.39.72.67,1.21.84.48.17.99.22,1.52.13.53-.08,1.02-.31,1.47-.68l3.22-2.64.6.73-6.05,4.96-.53-.65,1.84-1.64-.33.45c-.39.15-.83.2-1.29.14-.47-.05-.92-.2-1.36-.44-.44-.24-.82-.55-1.14-.94Z"/>
        <path d="m124.16,33.65l.52.81-2.98,1.91,1.3,2.04-.64.41-1.3-2.04-5.87,3.75-.52-.81,5.87-3.75-.89-1.4.64-.41.89,1.4,2.98-1.9Z"/>
        <path d="m117.98,44.43c-.1-.19-.13-.38-.08-.57.05-.19.17-.34.35-.44.16-.09.34-.1.54-.04.19.06.34.19.44.38.1.19.12.38.06.57-.06.19-.17.33-.33.42-.19.1-.37.12-.56.06-.18-.06-.33-.18-.43-.37Zm12.69-7.32l.41.76-10.21,5.47-.41-.76,10.21-5.47Z"/>
      </g>
      <g>
        <path d="m28.94,64.37c-.48,1.09-1.26,2.59-2.2,3.85,1.39,1.2,3.08,3,3.91,4.01l-1.6,1.39c-.91-1.26-2.21-2.69-3.53-3.96-1.49,1.57-3.35,3.03-5.27,3.94l-1.44-1.51c2.25-.84,4.43-2.55,5.74-4.02.92-1.05,1.78-2.44,2.09-3.43h-4.75c-.59,0-1.36.08-1.65.1v-1.99c.38.06,1.23.1,1.65.1h4.94c.6,0,1.16-.08,1.44-.18l1.15.85c-.11.15-.36.59-.49.87Z"/>
        <path d="m38.85,63.33h2.84c.43,0,.91-.06,1.22-.15l1.43.88c-.15.27-.34.64-.46.99-.38,1.13-1.08,2.63-2.07,4.03.6.43,1.15.84,1.55,1.18l-1.33,1.58c-.38-.35-.9-.78-1.47-1.25-1.23,1.3-2.83,2.49-5.01,3.32l-1.62-1.41c2.42-.74,3.98-1.88,5.14-3.04-.91-.67-1.83-1.3-2.55-1.75l1.25-1.27c.74.42,1.62.99,2.51,1.58.73-1.01,1.33-2.23,1.54-3.1h-4.01c-.98,1.3-2.28,2.65-3.7,3.63l-1.51-1.16c2.45-1.53,3.75-3.45,4.45-4.66.22-.34.52-.98.64-1.46l2.03.63c-.35.49-.7,1.12-.87,1.43Z"/>
        <path d="m52.74,65.04c1.44-.9,3.04-2.3,3.95-3.4l1.51,1.44c-1.07,1.05-2.41,2.14-3.77,3.04v5.66c0,.62.03,1.48.13,1.83h-2.21c.06-.34.1-1.22.1-1.83v-4.48c-1.44.76-3.22,1.51-4.94,2.02l-.88-1.76c2.51-.64,4.57-1.56,6.12-2.51Z"/>
        <path d="m64.45,63.32v4.73c0,.35.01.9.04,1.22h-2.03c.01-.27.07-.81.07-1.23v-4.72c0-.27-.01-.76-.06-1.08h2.02c-.03.32-.04.63-.04,1.08Zm6.49.21v2.77c0,3.01-.59,4.31-1.62,5.46-.92,1.01-2.38,1.69-3.4,2.02l-1.46-1.54c1.39-.32,2.52-.85,3.36-1.77.97-1.05,1.15-2.1,1.15-4.29v-2.66c0-.56-.03-1.01-.08-1.4h2.12c-.03.39-.06.84-.06,1.4Z"/>
        <path d="m84.94,64.37c-.48,1.09-1.26,2.59-2.2,3.85,1.39,1.2,3.08,3,3.91,4.01l-1.6,1.39c-.91-1.26-2.21-2.69-3.53-3.96-1.49,1.57-3.35,3.03-5.27,3.94l-1.44-1.51c2.25-.84,4.43-2.55,5.74-4.02.92-1.05,1.78-2.44,2.09-3.43h-4.75c-.59,0-1.36.08-1.65.1v-1.99c.38.06,1.23.1,1.65.1h4.94c.6,0,1.16-.08,1.44-.18l1.15.85c-.11.15-.36.59-.49.87Z"/>
        <path d="m92.14,63.6c0-.49-.04-1.19-.14-1.68h2.18c-.06.49-.13,1.11-.13,1.68v2.07c1.88.55,4.57,1.54,5.86,2.17l-.8,1.93c-1.44-.76-3.54-1.57-5.06-2.09v3.96c0,.41.07,1.39.13,1.96h-2.18c.08-.56.14-1.4.14-1.96v-8.05Z"/>
        <path d="m34.1,90.59h9.17c.29,0,.91-.03,1.27-.08v1.82c-.35-.03-.88-.04-1.27-.04h-3.38c-.08,1.44-.39,2.62-.9,3.6-.49.98-1.57,2.06-2.82,2.69l-1.64-1.19c.99-.38,1.97-1.18,2.54-2,.57-.87.81-1.92.87-3.1h-3.85c-.41,0-.95.03-1.34.06v-1.83c.42.06.91.08,1.34.08Zm1.78-3.56h4.58c.48,0,1.04-.04,1.51-.11v1.81c-.48-.03-1.02-.04-1.51-.04h-4.58c-.48,0-1.08.01-1.5.04v-1.81c.45.07,1.02.11,1.5.11Zm8.04.84l-1.12.49c-.29-.57-.73-1.42-1.11-1.95l1.12-.46c.35.52.84,1.4,1.11,1.92Zm1.68-.64l-1.12.49c-.29-.59-.74-1.4-1.12-1.93l1.11-.46c.36.53.88,1.41,1.13,1.9Z"/>
        <path d="m49.93,88.21v2.65c1.65-.41,3.6-1.02,4.85-1.55.5-.2.98-.42,1.53-.76l.76,1.78c-.55.22-1.18.49-1.64.66-1.42.56-3.67,1.26-5.49,1.71v2.59c0,.6.28.76.91.88.42.06,1,.08,1.62.08,1.46,0,3.73-.18,4.88-.49v2.04c-1.32.2-3.45.29-4.99.29-.91,0-1.75-.06-2.35-.15-1.22-.22-1.92-.9-1.92-2.1v-7.63c0-.31-.04-1.04-.11-1.46h2.07c-.07.42-.11,1.06-.11,1.46Zm7.27-.14l-1.13.48c-.28-.58-.71-1.4-1.09-1.95l1.11-.45c.35.52.85,1.4,1.12,1.92Zm1.67-.64l-1.11.48c-.29-.59-.74-1.4-1.13-1.93l1.11-.45c.38.52.9,1.42,1.13,1.91Z"/>
        <path d="m70.24,91.4c-.11.83-.48,3.24-.69,4.57h.9c.36,0,1.01-.01,1.37-.06v1.81c-.28-.01-.97-.04-1.34-.04h-7.37c-.5,0-.85.01-1.39.04v-1.82c.38.04.9.07,1.39.07h4.54c.2-1.19.5-3.18.55-3.96h-3.78c-.45,0-.99.04-1.4.07v-1.85c.36.04,1.01.08,1.39.08h3.59c.29,0,.87-.06,1.04-.15l1.36.66c-.07.18-.11.45-.14.59Z"/>
        <path d="m77.29,91.09h7.52c.66,0,1.27-.06,1.64-.08v2.2c-.34-.01-1.05-.07-1.64-.07h-7.52c-.8,0-1.74.03-2.25.07v-2.2c.5.04,1.53.08,2.25.08Z"/>
      </g>
    </g>
  </g>
</svg>