<?xml version="1.0" encoding="UTF-8"?>
<svg id="_レイヤー_2" data-name="レイヤー 2" xmlns="http://www.w3.org/2000/svg" viewBox="0 0 74.13 26.24">
  <defs>
    <style>
      .cls-1 {
        fill: none;
        stroke: #000;
        stroke-miterlimit: 10;
      }
    </style>
  </defs>
  <g id="_レイヤー_1-2" data-name="レイヤー 1">
    <g>
      <g>
        <path d="m14.11,16.05l2.09-11.31,2.79.51c1.09.2,1.99.55,2.7,1.03.71.49,1.25,1.06,1.62,1.71.37.65.61,1.33.71,2.04s.09,1.39-.03,2.05c-.16.86-.45,1.6-.87,2.23s-.94,1.14-1.54,1.54c-.61.39-1.26.66-1.97.8-.71.14-1.43.14-2.16,0l-3.33-.61Zm.92-.6l2.34.43c.68.13,1.34.13,1.97.02.64-.11,1.22-.34,1.75-.68.53-.34.98-.79,1.34-1.34.37-.55.62-1.21.76-1.98.12-.65.12-1.29.02-1.92-.11-.63-.34-1.21-.69-1.75-.35-.54-.82-1-1.41-1.38-.59-.38-1.31-.65-2.16-.81l-2.12-.39-1.81,9.79Z"/>
        <path d="m28.13,18.77c-.65-.12-1.2-.37-1.64-.75s-.76-.84-.96-1.39c-.19-.55-.23-1.13-.11-1.74.11-.6.36-1.13.75-1.57.39-.44.86-.77,1.42-.97s1.15-.25,1.76-.14c.74.14,1.32.47,1.75,1,.42.53.68,1.16.78,1.91l-5.83,1.1-.12-.58,5.34-1.02-.2.19c-.1-.46-.31-.87-.62-1.25-.31-.38-.73-.61-1.26-.71-.48-.09-.93-.05-1.36.11-.42.16-.79.42-1.09.77-.3.35-.5.78-.59,1.27-.09.47-.06.92.09,1.37.14.44.39.82.73,1.14.35.32.78.52,1.29.62.34.06.68.06,1.01,0,.34-.07.65-.18.93-.34l.28.61c-.34.18-.72.31-1.13.38-.41.08-.82.08-1.23,0Z"/>
        <path d="m36.67,20.35c-.64-.12-1.19-.39-1.65-.82-.47-.43-.77-.91-.93-1.46l.24-.4-.38,2.04-.75-.14,2.23-12.1.75.14-1.42,7.71-.02-.43c.33-.44.79-.76,1.38-.96.58-.19,1.2-.23,1.83-.11.58.11,1.09.35,1.52.72.42.37.73.82.92,1.36s.23,1.12.11,1.75c-.13.7-.39,1.27-.78,1.71-.39.44-.85.74-1.39.91-.54.16-1.1.19-1.68.08Zm0-.68c.53.1,1.01.07,1.44-.09.43-.16.79-.41,1.07-.77.29-.36.48-.79.57-1.3.09-.48.06-.94-.08-1.37-.14-.44-.39-.81-.73-1.12-.34-.31-.78-.51-1.29-.61-.44-.08-.85-.06-1.25.05-.4.11-.75.3-1.05.56-.3.26-.53.59-.69.98l-.18.97c-.03.4.04.79.21,1.18.17.38.43.71.77.99.34.28.75.46,1.22.55Z"/>
        <path d="m44.08,21.76c-.59-.11-1.02-.37-1.31-.78-.29-.41-.39-.89-.31-1.45l.84-4.54.75.14-.8,4.32c-.05.41.02.77.21,1.08s.52.52,1,.63c.4.07.8.04,1.19-.11.39-.15.73-.38,1.01-.71.28-.33.47-.72.55-1.19l.61-3.31.75.14-1.15,6.23-.67-.12.28-1.97.03.45c-.17.3-.41.55-.73.76-.32.21-.68.36-1.07.44-.39.08-.79.08-1.2,0Z"/>
        <path d="m52.54,13.87l.77.14-.52,2.82,1.93.36-.11.61-1.93-.36-1.02,5.54-.76-.14,1.02-5.54-1.32-.24.11-.61,1.32.24.52-2.82Z"/>
        <path d="m55.69,23.36c-.17-.03-.3-.11-.4-.24s-.13-.28-.1-.45c.03-.15.11-.27.25-.36.14-.09.29-.12.46-.09.17.03.3.11.39.24.09.13.12.27.09.42-.03.17-.11.3-.24.38-.13.09-.28.11-.45.08Zm1.79-11.72l.69.13-1.7,9.22-.69-.13,1.7-9.22Z"/>
      </g>
      <line class="cls-1" x1="7.33" y1="16.72" x2=".46" y2=".19"/>
      <line class="cls-1" x1="60.08" y1="25.85" x2="73.82" y2="14.85"/>
    </g>
  </g>
</svg>