<?xml version="1.0" encoding="UTF-8"?>
<svg id="_レイヤー_2" data-name="レイヤー 2" xmlns="http://www.w3.org/2000/svg" viewBox="0 0 55.42 61.75">
  <defs>
    <style>
      .cls-1 {
        fill: #040000;
      }

      .cls-2 {
        fill: #fff;
        stroke: #040000;
        stroke-miterlimit: 10;
        stroke-width: .5px;
      }
    </style>
  </defs>
  <g id="_レイヤー_1-2" data-name="レイヤー 1">
    <g>
      <path class="cls-1" d="m24.04,61.75l-3.17-5.49h6.34l-3.17,5.49Z"/>
      <circle class="cls-2" cx="25.33" cy="31.82" r="25.08"/>
      <g>
        <path class="cls-1" d="m34.08,5.52l2.32-5.52,1.36.57c.53.22.95.5,1.26.82.31.33.52.68.63,1.05.12.37.16.74.13,1.12-.03.37-.11.72-.24,1.04-.18.42-.41.77-.69,1.04-.29.27-.6.48-.96.61-.35.13-.71.2-1.09.19-.37,0-.74-.09-1.1-.24l-1.62-.68Zm.53-.21l1.14.48c.33.14.67.21,1,.23.34.01.66-.04.96-.15.31-.12.58-.29.83-.53.25-.24.45-.55.61-.92.13-.31.21-.64.22-.97.02-.33-.04-.65-.16-.97-.12-.31-.31-.6-.56-.86-.26-.26-.59-.48-1.01-.65l-1.03-.43-2.01,4.78Z"/>
        <path class="cls-1" d="m40.47,8.77c-.29-.19-.5-.42-.64-.69-.14-.27-.2-.56-.18-.86.02-.3.11-.59.29-.86.17-.27.4-.47.68-.61.28-.14.57-.2.88-.18.31.01.6.11.88.29.33.21.54.49.64.83.1.34.1.7,0,1.07l-3.02-.63.06-.31,2.77.57-.14.05c.04-.24.03-.48-.05-.72s-.23-.44-.46-.59c-.21-.14-.44-.21-.67-.22-.24,0-.46.04-.68.15-.21.11-.39.27-.54.49-.13.21-.21.43-.23.67-.02.24.02.47.13.7.1.22.27.41.5.55.15.1.31.16.49.2.18.03.35.04.51.02v.35c-.19.02-.39,0-.61-.04-.21-.05-.41-.13-.59-.24Z"/>
        <path class="cls-1" d="m43.86,11.39c-.25-.23-.42-.49-.52-.81s-.1-.61-.02-.9l.21-.11-.72.8-.3-.26,4.27-4.78.29.26-2.72,3.04.11-.2c.27-.11.56-.12.87-.05.31.07.59.22.85.45.23.21.39.45.48.73.09.28.1.56.04.86-.06.29-.2.56-.42.81-.25.28-.52.46-.81.55-.29.09-.58.1-.86.03-.28-.07-.54-.21-.77-.42Zm.18-.3c.21.19.43.3.67.35.23.05.46.03.69-.05.22-.08.43-.22.61-.43.17-.19.28-.4.33-.63.05-.23.05-.47-.02-.7-.07-.23-.21-.44-.41-.62-.17-.15-.36-.26-.57-.32s-.42-.07-.62-.03c-.21.03-.4.12-.57.25l-.34.38c-.12.17-.2.36-.22.58-.03.22,0,.43.08.65.08.22.21.41.39.57Z"/>
        <path class="cls-1" d="m46.41,14.07c-.2-.24-.28-.49-.26-.75.02-.26.15-.48.36-.68l1.86-1.52.25.31-1.77,1.45c-.16.14-.25.31-.28.5-.03.19.03.38.19.58.13.17.3.28.51.36.2.07.42.09.64.06.22-.03.43-.13.62-.29l1.36-1.11.25.31-2.55,2.09-.22-.27.77-.69-.14.19c-.17.06-.35.08-.54.06-.2-.02-.39-.08-.57-.19-.18-.1-.34-.23-.48-.4Z"/>
        <path class="cls-1" d="m52.51,14.19l.22.34-1.26.8.55.86-.27.17-.55-.86-2.47,1.58-.22-.34,2.47-1.58-.38-.59.27-.17.38.59,1.26-.8Z"/>
        <path class="cls-1" d="m49.9,18.73c-.04-.08-.05-.16-.03-.24.02-.08.07-.14.15-.19.07-.04.14-.04.23-.02s.14.08.19.16c.04.08.05.16.03.24-.02.08-.07.14-.14.18-.08.04-.16.05-.23.03-.08-.03-.14-.08-.18-.16Zm5.35-3.08l.17.32-4.3,2.3-.17-.32,4.3-2.31Z"/>
      </g>
      <g>
        <path class="cls-1" d="m1.95,30.1l.55-.41c.16.3.37.42.6.42.36,0,.54-.19.54-.75v-2.68h.81v2.75c0,.76-.38,1.39-1.25,1.39-.59,0-.99-.24-1.25-.71Z"/>
        <path class="cls-1" d="m5.37,27.67h.66l.06.54h.02c.22-.4.55-.62.87-.62.17,0,.27.03.36.07l-.14.7c-.11-.03-.2-.05-.32-.05-.24,0-.53.16-.7.6v1.83h-.81v-3.07Z"/>
        <path class="cls-1" d="m7.71,30.28c0-.3.21-.53.5-.53s.5.22.5.53-.21.53-.5.53-.5-.23-.5-.53Z"/>
        <path class="cls-1" d="m15.49,27.31c-.26.43-.78,1.12-1.31,1.5l-.57-.45c.44-.27.87-.75,1.01-1.02h-2.85c-.23,0-.41.02-.67.04v-.76c.21.03.44.06.67.06h2.95c.15,0,.45-.02.56-.05l.43.41c-.06.07-.16.2-.21.28Zm-3.54,3.73l-.64-.52c.18-.06.37-.15.58-.3.7-.48.83-1.06.83-1.96,0-.17-.01-.32-.04-.49h.79c0,1.36-.03,2.48-1.52,3.28Z"/>
        <path class="cls-1" d="m18.69,27.62c.56-.35,1.19-.9,1.54-1.33l.59.56c-.42.41-.94.84-1.47,1.19v2.21c0,.24.01.58.05.72h-.87c.02-.13.04-.48.04-.72v-1.75c-.56.3-1.26.59-1.93.79l-.34-.69c.98-.25,1.79-.61,2.39-.98Z"/>
        <path class="cls-1" d="m22.35,28.03h3.59c.11,0,.36-.01.5-.03v.71c-.14-.01-.34-.02-.5-.02h-1.32c-.03.56-.15,1.02-.35,1.41-.19.38-.61.81-1.1,1.05l-.64-.47c.39-.15.77-.46.99-.78.22-.34.32-.75.34-1.21h-1.51c-.16,0-.37.01-.53.02v-.72c.16.02.36.03.53.03Zm.7-1.39h1.79c.19,0,.41-.02.59-.04v.71c-.19-.01-.4-.02-.59-.02h-1.79c-.19,0-.42,0-.59.02v-.71c.17.03.4.04.59.04Zm3.14.33l-.44.19c-.12-.22-.29-.55-.43-.76l.44-.18c.14.2.33.55.43.75Zm.66-.25l-.44.19c-.12-.23-.29-.55-.44-.76l.43-.18c.14.21.35.55.44.75Z"/>
        <path class="cls-1" d="m29.27,31.17l-.59-.55c1.06-.37,1.52-.84,1.52-2.19v-.21h-1.3v.75c0,.25.02.47.02.58h-.77c.02-.11.03-.33.03-.58v-.75h-.47c-.27,0-.47.02-.59.02v-.74c.1.02.32.05.59.05h.47v-.54c0-.16-.02-.32-.03-.49h.78c-.01.1-.03.28-.03.5v.54h1.3v-.58c0-.22-.02-.4-.03-.51h.78c-.02.12-.04.29-.04.51v.58h.41c.29,0,.45-.01.6-.04v.73c-.12-.01-.31-.02-.6-.02h-.41v.18c0,1.36-.32,2.19-1.65,2.77Zm2.41-3.94l-.38.12c-.08-.23-.17-.53-.28-.75l.37-.12c.1.22.23.54.29.75Zm.58-.18l-.38.12c-.08-.24-.18-.53-.3-.74l.37-.12c.1.22.23.54.3.75Z"/>
        <path class="cls-1" d="m35.13,27.62c.56-.35,1.19-.9,1.54-1.33l.59.56c-.42.41-.94.84-1.47,1.19v2.21c0,.24.01.58.05.72h-.87c.02-.13.04-.48.04-.72v-1.75c-.56.3-1.26.59-1.93.79l-.34-.69c.98-.25,1.79-.61,2.39-.98Z"/>
        <path class="cls-1" d="m40.31,26.4h.87c-.03.17-.04.47-.04.65v.6h1.23c.25,0,.48-.02.6-.03v.75c-.12,0-.38-.02-.6-.02h-1.23c-.03,1.1-.38,2-1.56,2.71l-.68-.5c1.07-.49,1.44-1.28,1.48-2.2h-1.4c-.24,0-.46.02-.63.03v-.76c.16.02.39.04.61.04h1.42v-.6c0-.19-.02-.47-.07-.64Z"/>
        <path class="cls-1" d="m44.74,28.23h2.94c.26,0,.5-.02.64-.03v.86c-.13,0-.41-.03-.64-.03h-2.94c-.31,0-.68.01-.88.03v-.86c.2.02.6.03.88.03Z"/>
        <path class="cls-1" d="m15.29,37.62h3.59c.11,0,.36-.01.5-.03v.71c-.14-.01-.34-.02-.5-.02h-1.32c-.03.56-.15,1.02-.35,1.41-.19.38-.61.81-1.1,1.05l-.64-.47c.39-.15.77-.46.99-.78.22-.34.32-.75.34-1.21h-1.51c-.16,0-.37.01-.53.02v-.72c.16.02.36.03.53.03Zm.7-1.39h1.79c.19,0,.41-.02.59-.04v.71c-.19-.01-.4-.02-.59-.02h-1.79c-.19,0-.42,0-.59.02v-.71c.17.03.4.04.59.04Zm3.14.33l-.44.19c-.12-.22-.29-.55-.43-.76l.44-.18c.14.2.33.55.43.75Zm.66-.25l-.44.19c-.12-.23-.29-.55-.44-.76l.43-.18c.14.21.35.55.44.75Z"/>
        <path class="cls-1" d="m21.48,36.69v1.04c.65-.16,1.41-.4,1.9-.61.2-.08.38-.16.6-.3l.3.7c-.21.09-.46.19-.64.26-.55.22-1.44.49-2.15.67v1.01c0,.24.11.3.36.35.16.02.39.03.63.03.57,0,1.46-.07,1.91-.19v.8c-.52.08-1.35.11-1.95.11-.36,0-.69-.02-.92-.06-.48-.09-.75-.35-.75-.82v-2.99c0-.12-.02-.41-.04-.57h.81c-.03.16-.04.42-.04.57Zm2.84-.05l-.44.19c-.11-.22-.28-.55-.43-.76l.43-.18c.14.2.33.55.44.75Zm.65-.25l-.43.19c-.12-.23-.29-.55-.44-.76l.43-.18c.15.2.35.55.44.75Z"/>
        <path class="cls-1" d="m29.43,37.94c-.04.32-.19,1.27-.27,1.79h.35c.14,0,.39,0,.54-.02v.71c-.11,0-.38-.02-.53-.02h-2.88c-.2,0-.33,0-.54.02v-.71c.15.02.35.03.54.03h1.78c.08-.47.2-1.24.21-1.55h-1.48c-.18,0-.39.02-.55.03v-.72c.14.02.39.03.54.03h1.4c.12,0,.34-.02.41-.06l.53.26c-.03.07-.04.18-.06.23Z"/>
        <path class="cls-1" d="m32.19,37.82h2.94c.26,0,.5-.02.64-.03v.86c-.13,0-.41-.03-.64-.03h-2.94c-.31,0-.68.01-.88.03v-.86c.2.02.6.03.88.03Z"/>
      </g>
    </g>
  </g>
</svg>