<?xml version="1.0" encoding="UTF-8"?><svg id="_レイヤー_2" xmlns="http://www.w3.org/2000/svg" viewBox="0 0 549.78 83.73"><g id="_レイヤー_1-2"><g><path d="m95,2.31c1.05,0,1.4.28,1.4.63,0,.63-1.12,1.75-1.54,2.17-8.33,9.1-18.48,19.74-29.33,32.27,7.63-2.17,14.7-4.62,19.39-6.93.07-.07.14-.07.21-.07.21,0,.28.21.28.49,0,.42-.21,1.05-.56,1.4-2.8,2.73-11.9,5.74-21.98,8.26-2.87,3.29-5.81,6.79-8.68,10.36-.77.98-1.33,1.96-1.89,1.96-.07,0-.21,0-.28-.07-.28-.21-.42-.63-.42-1.12,0-.42.07-.84.14-1.26-.07-2.87-.56-5.18-1.47-7.07-6.3,1.26-12.11,2.24-16.24,2.73-8.68,6.72-17.5,11.27-25.97,11.27-5.04,0-8.05-2.24-8.05-4.06,0-1.05.7-1.47,1.47-1.47.63,0,.84.42,1.05.84.77,1.75,4.62,2.45,7.42,2.45,7.07,0,14.56-3.43,21.98-8.82-1.05.14-2.03.14-2.66.14-5.74,0-8.12-1.68-8.12-3.71,0-3.22,5.81-7.28,14.07-7.28,3.22,0,5.88.42,8.12,1.19,10.78-10.43,20.93-23.38,28.98-33.6,0,0,.21-.28.63-.28.21,0,.35.28.35.49,0,.28-.21.63-.56,1.05-7.77,9.73-17.71,22.26-28.42,32.69,2.52.98,4.27,2.52,5.6,4.27,4.48-.98,9.1-2.1,13.65-3.36,8.47-10.08,19.46-23.1,30.1-34.72,0,0,.63-.84,1.33-.84Zm-52.3,34.86c-2.24-.7-4.76-.98-7.28-.98-6.93,0-11.9,3.08-11.9,5.39,0,1.4,1.89,2.52,6.23,2.52,1.54,0,3.43-.14,5.46-.35,2.52-2.03,5.04-4.2,7.49-6.58Zm-5.67,6.37c3.64-.42,7.7-1.19,12.04-2.1-1.33-1.82-3.22-3.08-5.32-3.92-2.24,2.17-4.48,4.13-6.72,6.02Zm24.08-2.66c-3.36.84-6.79,1.61-10.08,2.24,1.05,2.24,1.47,4.76,1.54,7.35,0,.21.07.28.14.28s.21-.07.35-.21l8.05-9.66Z"/><path d="m82.6,49.98c0,2.03.84,2.8,2.17,2.8,3.92,0,8.05-3.36,10.99-6.79-.21-.49-.28-1.12-.28-1.68,0-3.5,2.8-7.98,4.13-7.98.7,0,1.05.49,1.05,1.33,0,1.68-1.26,4.62-3.43,7.56.49,1.82,2.24,2.03,3.08,2.03,1.54,0,3.5-.98,5.04-2.03.21-.14.35-.21.49-.21s.28.14.28.28c0,.21-.28.56-.77.84-2.38,1.54-4.13,2.17-5.46,2.17-1.96,0-3.15-.63-3.78-1.61-3.22,3.99-7.84,7.56-12.74,7.56-1.61,0-3.15-1.12-3.15-3.29,0-4.76,10.78-14.98,16.31-14.98.56,0,.91.42.91.84,0,.56-.49,1.12-1.54,1.12-5.46,0-13.3,7.21-13.3,12.04Zm14.49-5.74c1.47-2.03,2.38-3.92,2.38-4.9,0-.49-.21-.77-.63-.77-1.26,2.59-1.75,4.34-1.75,5.67Z"/><path d="m112.7,52.5c2.94,0,6.79-2.1,7.28-2.38,2.1-1.12,7.35-4.06,8.19-4.76.21-.14.35-.21.49-.21s.28.14.28.28c0,.21-.28.56-.77.84-.98.49-6.09,4.2-11.69,6.37-1.82.7-3.71,1.19-5.25,1.19-2.52,0-4.41-1.12-4.41-3.92,0-12.25,37.45-45.43,46.21-45.43,1.19,0,2.17.56,2.17,1.82,0,7.7-28.77,31.15-45.36,39.97-.35,1.05-.56,2.03-.56,2.8.21,2.73,1.68,3.43,3.43,3.43ZM151.83,5.95c-6.86,0-35.28,25.69-41.37,38.92,13.16-6.3,42.35-31.92,42.35-37.87,0-.63-.28-1.05-.98-1.05Z"/><path d="m127.96,51.88c0-3.64,9.24-11.97,9.24-11.97.21-.21.42-.28.63-.28.35,0,.63.28.63.63,0,.21-.07.49-.28.7-1.75,1.89-7.77,7.42-7.77,10.22,0,.7.49.98,1.26.98,1.75,0,4.9-1.54,5.95-2.17,2.17-1.05,7.35-4.06,8.19-4.76.21-.14.35-.21.49-.21s.28.14.28.28c0,.21-.28.56-.77.84,0,0-3.43,2.31-7.49,4.48-1.33.84-5.67,3.15-8.26,3.15-1.26,0-2.1-.49-2.1-1.89Zm17.85-20.16c0-.56-.42-.84-.98-.84-1.12,0-2.66,1.47-2.66,2.38,0,0,0,.91.98.91,1.47,0,2.66-1.12,2.66-2.45Z"/><path d="m148.61,47.11c-.98,1.26-1.61,2.38-1.61,3.29,0,1.54.56,2.24,1.68,2.24,2.45,0,7.21-3.36,12.81-8.26,8.12-14.35,33.39-39.76,35.84-39.76.49,0,.7.35.7.84,0,2.94-20.44,26.11-35.98,39.55-.91,1.75-1.4,3.29-1.4,4.41,0,1.68,1.12,2.24,2.45,2.24,2.45,0,4.97-1.47,4.97-1.47,2.1-1.12,7.35-4.06,8.19-4.76.21-.14.35-.21.49-.21s.28.14.28.28c0,.21-.28.56-.77.84,0,0-2.66,1.82-6.09,3.71,0,0-5.6,3.43-8.89,3.43-1.4,0-2.31-.63-2.31-2.31,0-1.26.49-2.87,1.4-4.76-5.81,4.83-10.78,8.12-13.44,8.12-1.33,0-2.1-.84-2.1-2.73,0-4.69,13.23-15.4,19.67-15.4.21,0,.35,0,.49.14.07.07.14.21.14.35,0,1.54-14.49,8.68-16.52,10.22Zm1.4-1.61c1.47-.77,10.57-5.6,10.57-6.44,0-.07,0-.21-.07-.21-2.31,0-7.28,3.36-10.5,6.65Zm13.37-2.8c14-12.67,31.92-33.25,31.92-35.07l-.21-.07c-1.12,0-23.8,22.19-31.71,35.14Z"/><path d="m201.32,50.05c-2.38,1.26-6.72,3.92-9.38,3.92-.98,0-1.61-.42-1.61-1.47,0-1.47,1.33-3.78,1.47-4.06,0-.07-.07-.14-.14-.14-.7,0-7,5.32-11.83,5.32-2.1,0-3.08-.84-3.08-2.17,0-4.83,12.11-16.1,21.63-16.1,3.29,0,4.06.98,4.06,2.03,0,2.31-4.62,5.11-6.93,5.95-.14.07-.28.07-.42.07-.49,0-.84-.35-1.05-.7-.07-.14-.14-.28-.14-.42,0-.21.14-.35.56-.56.21-.07,5.67-2.59,5.67-4.41,0-.7-.63-1.26-1.68-1.26-8.68,0-19.18,9.8-19.18,14,0,1.12.77,1.89,2.59,1.89,3.92,0,11.41-5.39,12.46-7,.35-.49.7-.63.98-.63.21,0,.56.14.56.42,0,.42-.7,1.12-1.47,2.24-.35.49-1.26,2.45-1.26,3.92,0,.84.49,1.12,1.19,1.12,1.82,0,5.18-1.96,4.9-1.82,2.1-1.12,7.35-4.06,8.19-4.76.21-.14.35-.21.49-.21s.28.14.28.28c0,.21-.28.56-.77.84,0,0-2.66,1.82-6.09,3.71Z"/><path d="m232.26,45.36c.21-.14.35-.21.49-.21s.28.14.28.28c0,.21-.28.56-.77.84-.7.35-3.64,2.45-7.35,4.41-4.41,2.38-8.26,4.69-11.69,6.93-10.99,13.16-21.21,26.11-23.73,26.11-.77,0-1.26-1.05-1.26-1.96,0-5.32,12.25-16.59,24.85-25.06,4.06-4.9,7.56-9.38,9.38-11.76,0,0-11.13,8.96-15.05,8.96-.63,0-1.47-.49-1.47-1.4,0-2.73,9.17-11.48,9.17-11.48.21-.21.42-.35.63-.35.14,0,.21.07.28.14.07.07.07.21.07.35,0,.21-.07.42-.28.63-1.33,1.05-7.28,7.35-7.28,9.38,0,.56.28.98.91.98,2.17,0,8.54-4.83,11.13-6.79,1.61-1.19,7.21-6.23,7.91-7.28.28-.28.7-.49,1.05-.49.28,0,.63.28.63.56s-.14.7-.49,1.05c-4.55,4.55-9.59,10.36-14.49,16.17,3.08-1.96,6.16-3.71,9.03-5.18,2.31-1.19,7.21-4.13,8.05-4.83Zm-21,13.65c-16.1,11.06-21.07,20.09-21.07,22.33,0,.14,0,.21.07.28.07.07.14.14.28.14,1.54,0,11.97-12.11,20.72-22.75Z"/><path d="m283.5,49.63c1.54,5.04,3.71,10.22,7.07,14.63,0,0,.35.35.35.63,0,.14-.07.28-.21.35-.14.07-.35.14-.56.14-.91,0-1.82-.91-1.82-.91-3.29-3.99-5.46-8.82-7-13.79-5.25,2.38-11.13,3.99-16.52,3.99-8.68,0-13.58-4.41-13.58-10.15,0-12.39,15.33-19.18,27.93-25.06,2.8-14.49,12.11-17.71,15.12-17.71.56,0,1.26.07,1.82.28,1.05.42,1.89,1.54,1.89,3.15,0,5.88-7.56,10.01-16.45,14.28-.56,2.87-.84,5.95-.84,8.96,0,5.04.42,12.53,2.52,20.16,7.07-3.78,13.09-9.45,13.09-15.61,0-.35.07-.7.7-.7.28,0,1.33.28,1.33,1.75,0,4.97-6.44,11.27-14.84,15.61Zm-2.45.07c-2.31-8.12-2.66-16.31-2.66-21.07,0-2.94.21-5.6.56-7.91-12.04,5.67-25.27,11.9-25.27,22.75,0,1.05.84,9.87,13.37,9.87,3.92,0,9.1-1.33,14-3.64Zm.77-31.57c7.63-3.85,13.65-7.7,13.65-12.95,0-2.17-1.75-2.24-2.17-2.24-5.25,0-9.52,6.72-11.48,15.19Z"/><path d="m317.3,44.31c0,4.97,2.87,8.33,9.66,8.33,2.1,0,10.43-.07,19.32-8.47.14-.14.28-.14.42-.14.21,0,.49.07.49.28,0,.07-.07.21-.21.35-1.61,1.68-10.5,9.73-21.35,9.73-7.56,0-10.78-3.71-10.78-9.17,0-15.19,24.78-43.75,51.11-43.75,6.23,0,11.62,2.17,11.62,8.47,0,8.05-7.7,17.85-15.05,26.81-.14.14-.28.35-.28.42s.07.14.14.14c.14,0,.35-.14.63-.35l1.19-.98c5.74-4.9,20.86-17.85,28.56-17.85,2.59,0,3.5,1.61,3.5,3.57,0,6.02-9.94,19.18-13.58,23.87l.14.14c9.87-9.87,46.76-45.71,58.53-45.71.49,0,.98.35.98.7,0,.28-.21.63-.7.98-.91.77-2.94,2.1-3.43,2.38-.14.07-.28.14-.42.14-.7,0-.42-.91-.98-.91-11.62,3.36-42,31.57-56.85,46.69-2.31,2.38-4.62,4.9-5.32,4.9-.63,0-1.61,0-1.61-.63,0-.28.14-.77.77-1.33,5.04-4.13,19.95-23.03,19.95-30.45,0-1.96-1.26-2.8-3.01-2.8-4.83,0-18.27,9.31-30.31,20.79-1.19,1.19-12.81,12.53-13.65,13.44-.63.63-1.26,1.12-1.68,1.12-.35,0-1.05-.56-1.05-.91,0-.28.21-.7.77-1.26.77-.84,5.18-5.18,9.87-9.87,14.98-15.05,20.09-25.34,20.09-31.71s-4.9-8.89-10.01-8.89c-23.73,0-47.46,27.65-47.46,41.93Z"/><path d="m421.26,36.05c0,2.8-9.52,9.31-18.34,10.57-.42.91-.63,1.75-.63,2.45,0,.49.07,3.5,4.06,3.5,1.89,0,4.62-.63,8.68-2.59,2.17-1.05,7.35-4.06,8.19-4.76.21-.14.35-.21.49-.21s.28.14.28.28c0,.21-.28.56-.77.84,0,0-3.43,2.31-7.49,4.48-2.38,1.26-7.77,3.5-11.62,3.5-2.45,0-4.34-.91-4.34-3.57,0-5.32,11.2-15.75,19.04-15.75,1.75,0,2.45.49,2.45,1.26Zm-17.92,9.87c6.72-1.19,15.61-7,15.61-9.17,0-.49-.49-.84-1.68-.84-4.62,0-11.34,5.53-13.93,10.01Z"/><path d="m430.63,52.5c2.94,0,6.79-2.1,7.28-2.38,2.1-1.12,7.35-4.06,8.19-4.76.21-.14.35-.21.49-.21s.28.14.28.28c0,.21-.28.56-.77.84-.98.49-6.09,4.2-11.69,6.37-1.82.7-3.71,1.19-5.25,1.19-2.52,0-4.41-1.12-4.41-3.92,0-12.25,37.45-45.43,46.21-45.43,1.19,0,2.17.56,2.17,1.82,0,7.7-28.77,31.15-45.37,39.97-.35,1.05-.56,2.03-.56,2.8.21,2.73,1.68,3.43,3.43,3.43Zm39.13-46.55c-6.86,0-35.28,25.69-41.37,38.92,13.16-6.3,42.35-31.92,42.35-37.87,0-.63-.28-1.05-.98-1.05Z"/><path d="m451,45.36c-.77.91-1.54,1.89-2.38,2.8l-.56,1.75c0,1.47.98,2.8,3.5,2.8,3.22,0,5.74-1.47,5.74-1.47,2.1-1.12,9.1-5.11,9.94-5.81.21-.14.35-.21.49-.21s.28.14.28.28c0,.21-.28.56-.77.84,0,0-4.41,2.87-7.84,4.76-1.89,1.05-6.09,3.01-9.38,3.01-1.26,0-2.38-.28-3.15-.98-2.73,14.42-15.82,26.04-20.44,26.04-1.05,0-1.61-.56-1.61-1.82,0-4.27,56.08-71.13,64.55-71.13.49,0,.84.14.98.56.07.21.07.42.07.63,0,7.91-34.02,34.72-39.41,37.94Zm-23.73,32.34c3.64,0,17.85-12.6,18.41-26.11-10.71,12.67-19.25,23.66-19.25,25.27,0,.56.28.84.84.84Zm25.41-34.23c16.59-11.69,35.21-29.61,35.21-35.21,0-.28-.14-.42-.35-.42-2.87,0-19.6,17.99-34.86,35.63Z"/><path d="m492.31,50.05c-2.38,1.26-6.72,3.92-9.38,3.92-.98,0-1.61-.42-1.61-1.47,0-1.47,1.33-3.78,1.47-4.06,0-.07-.07-.14-.14-.14-.7,0-7,5.32-11.83,5.32-2.1,0-3.08-.84-3.08-2.17,0-4.83,12.11-16.1,21.63-16.1,3.29,0,4.06.98,4.06,2.03,0,2.31-4.62,5.11-6.93,5.95-.14.07-.28.07-.42.07-.49,0-.84-.35-1.05-.7-.07-.14-.14-.28-.14-.42,0-.21.14-.35.56-.56.21-.07,5.67-2.59,5.67-4.41,0-.7-.63-1.26-1.68-1.26-8.68,0-19.18,9.8-19.18,14,0,1.12.77,1.89,2.59,1.89,3.92,0,11.41-5.39,12.46-7,.35-.49.7-.63.98-.63.21,0,.56.14.56.42,0,.42-.7,1.12-1.47,2.24-.35.49-1.26,2.45-1.26,3.92,0,.84.49,1.12,1.19,1.12,1.82,0,5.18-1.96,4.9-1.82,2.1-1.12,7.35-4.06,8.19-4.76.21-.14.35-.21.49-.21s.28.14.28.28c0,.21-.28.56-.77.84,0,0-2.66,1.82-6.09,3.71Z"/><path d="m514.07,32.62c0,.07,0,.14-.07.21-.35.42-1.47,1.96-1.54,2.31-.07.14-.14.42-.14.7,0,.56.7,1.89,2.87,1.96,1.89.07,3.15-.14,3.15,1.05-.14,2.66-6.23,7.21-6.23,11.2,0,.49.28.91,1.19.91.7,0,1.75-.28,3.22-.98,2.17-1.05,7.35-4.06,8.19-4.76.21-.14.35-.21.49-.21s.28.14.28.28c0,.21-.28.56-.77.84,0,0-3.43,2.31-7.49,4.48-1.75.91-4.27,2.24-5.95,2.24-.98,0-1.68-.49-1.68-1.89,0-4.83,6.65-9.45,6.65-10.71,0-.35-.35-.7-.84-.7-2.38,0-3.64-.42-4.27-2.45-.35.21.35,2.52-7.7,8.12-.7.56-3.08,2.17-3.43,2.17-.14,0-.28-.14-.28-.28,0-.21.28-.56.77-.84l2.45-1.68c6.3-4.2,6.51-5.6,7.77-9.1.63-1.33,1.82-3.22,2.94-3.22.28,0,.42.14.42.35Z"/><path d="m547.04,36.05c0,2.8-9.52,9.31-18.34,10.57-.42.91-.63,1.75-.63,2.45,0,.49.07,3.5,4.06,3.5,1.89,0,4.62-.63,8.68-2.59,2.17-1.05,7.35-4.06,8.19-4.76.21-.14.35-.21.49-.21s.28.14.28.28c0,.21-.28.56-.77.84,0,0-3.43,2.31-7.49,4.48-2.38,1.26-7.77,3.5-11.62,3.5-2.45,0-4.34-.91-4.34-3.57,0-5.32,11.2-15.75,19.04-15.75,1.75,0,2.45.49,2.45,1.26Zm-17.92,9.87c6.72-1.19,15.61-7,15.61-9.17,0-.49-.49-.84-1.68-.84-4.62,0-11.34,5.53-13.93,10.01Z"/></g></g></svg>