<?xml version="1.0" encoding="UTF-8"?>
<svg id="_レイヤー_2" data-name="レイヤー 2" xmlns="http://www.w3.org/2000/svg" viewBox="0 0 38.5 38.5">
  <defs>
    <style>
      .cls-1 {
        fill: #9e9d9d;
      }
    </style>
  </defs>
  <g id="_レイヤー_1-2" data-name="レイヤー 1">
    <g>
      <path class="cls-1" d="m0,35.12v-19.03c.25-.97.71-1.8,1.51-2.44,1.2-.96,2.37-1.96,3.57-2.94.22-.17.31-.35.3-.63-.01-1.62,0-3.23,0-4.85,0-.14,0-.29,0-.47h.5c1.98,0,3.96,0,5.94,0,.31,0,.54-.08.78-.28,1.38-1.16,2.78-2.3,4.16-3.46.54-.45,1.11-.81,1.81-.95.13-.03.26-.06.38-.1.2,0,.4,0,.6,0,.03.02.06.05.09.06.78.08,1.43.42,2.02.92,1.4,1.17,2.82,2.33,4.22,3.51.26.22.51.31.85.3,1.98-.01,3.96,0,5.94,0,.14,0,.29,0,.46,0v.47c0,1.62,0,3.23,0,4.85,0,.28.09.46.3.63,1.21.98,2.39,1.98,3.6,2.96.74.6,1.23,1.34,1.42,2.28,0,.05.04.09.06.13v19.03c-.03.08-.07.15-.09.23-.41,1.51-1.34,2.51-2.84,2.97-.27.08-.55.13-.83.19H3.68c-.07-.02-.13-.06-.2-.07-1.65-.23-2.95-1.39-3.38-3.01-.03-.1-.07-.2-.11-.3ZM5.93,12.89c-1.06.88-2.04,1.71-3.05,2.52-.48.38-.7.86-.7,1.46,0,5.8,0,11.6,0,17.4,0,.25.04.5.11.74.26.83.94,1.25,1.96,1.25,9.99,0,19.97,0,29.96,0,.09,0,.18,0,.26,0,1.05-.04,1.81-.81,1.82-1.86,0-5.88,0-11.75,0-17.63,0-.53-.21-.97-.63-1.3-.39-.31-.77-.64-1.16-.96-.68-.56-1.36-1.12-2.09-1.72v4.51c.67-.23,1.32-.46,2-.7.18.51.35.99.52,1.48-.12.05-.2.08-.28.11-3.55,1.26-7.1,2.51-10.65,3.77-.16.06-.34.08-.51.08-2.88,0-5.76,0-8.65,0-.2,0-.4-.03-.59-.09-3.33-1.17-6.65-2.35-9.97-3.53-.29-.1-.58-.21-.89-.33.18-.51.35-.99.53-1.48.68.24,1.32.46,1.99.69v-4.4Zm1.6-5.89c0,1.68,0,3.3,0,4.93,0,1.85,0,3.71,0,5.56,0,.28.08.41.35.5,2.22.77,4.43,1.56,6.65,2.34.2.07.41.1.62.1,2.68,0,5.36,0,8.05,0,.22,0,.45-.04.66-.11,2.22-.78,4.43-1.57,6.65-2.34.26-.09.33-.22.33-.48,0-3.38,0-6.77,0-10.15v-.33c-.07-.02-.11-.03-.14-.03-1.98-.06-3.97-.07-5.95-.1-4.08-.06-8.18-.21-12.26.09-.36.03-.73,0-1.09,0h-3.86Zm7.63-1.75h8.18c-1.17-.96-2.26-1.88-3.37-2.77-.42-.33-1.02-.34-1.44,0-1.11.89-2.2,1.81-3.37,2.77Z"/>
      <path class="cls-1" d="m18.98,7.97c-3.16,0-5.77,2.59-5.78,5.73,0,3.21,2.55,5.83,5.7,5.84,3.27,0,5.86-2.54,5.86-5.77,0-3.19-2.59-5.8-5.78-5.8Zm2.27,5.3c-.39,0-.78,0-1.16,0-.51,0-.59.08-.59.59,0,.09,0,.18,0,.32h1.74v.89h-1.74v1.32h-1.06v-1.32h-1.73v-.88h1.72c0-.2,0-.36,0-.51-.01-.29-.13-.44-.45-.43-.42.02-.83,0-1.27,0v-.74h1.07c-.31-.49-.6-.94-.88-1.38.57-.19.83-.1,1.13.36.31.48.62.96.95,1.47.34-.53.68-1.01.97-1.52.17-.29.37-.44.71-.38.12.02.24,0,.44,0-.31.49-.6.94-.91,1.44h1.07v.75Z"/>
    </g>
  </g>
</svg>