<?xml version="1.0" encoding="UTF-8"?>
<svg id="_レイヤー_2" data-name="レイヤー 2" xmlns="http://www.w3.org/2000/svg" viewBox="0 0 42.51 32.51">
  <defs>
    <style>
      .cls-1 {
        fill: #9e9d9d;
      }
    </style>
  </defs>
  <g id="_レイヤー_1-2" data-name="レイヤー 1">
    <g>
      <path class="cls-1" d="m17.17,22.02v-.03s-8.93-3.1-8.93-3.1c-.96-.35-2.03.14-2.38,1.1-.35.96.14,2.03,1.1,2.38l5.77,1.93-.39,1.08-5.76-1.96c-1.2-.44-1.95-1.58-1.95-2.79,0-.34.06-.69.18-1.02h0c.39-1.07,1.33-1.77,2.38-1.92l-2.05-8.64c-.31-1.4-1.69-2.29-3.1-1.98C.64,7.38-.25,8.77.06,10.17l3.44,14.35c.21.97.96,2.47,1.92,2.71l5.13,2.36v2.91h8.35v-8.04c0-1.11-.7-2.08-1.73-2.44Zm23.3-14.95c-1.4-.31-2.79.58-3.1,1.98l-2.05,8.64c1.05.15,1.99.85,2.38,1.92h0c.12.34.18.68.18,1.02,0,1.21-.75,2.35-1.95,2.79l-5.76,1.96-.39-1.08,5.77-1.93c.96-.35,1.46-1.42,1.1-2.38-.35-.96-1.42-1.46-2.38-1.1l-8.93,3.1v.03c-1.03.36-1.73,1.33-1.73,2.44v8.04h8.35v-2.91l5.13-2.36c.97-.24,1.71-1.74,1.92-2.71l3.44-14.35c.31-1.4-.58-2.79-1.98-3.1Z"/>
      <path class="cls-1" d="m32.03,4.6C31.48,1.17,28.6.23,27.7.07c-1.19-.21-3.12,0-4.64,1.18-1.18.91-1.8,1.69-1.8,1.69,0,0-.61-.78-1.8-1.69C17.93.07,16.01-.14,14.82.07c-.9.16-3.78,1.1-4.33,4.53-.64,3.95,1.77,6.65,5.73,10.13,2.17,1.91,5.04,4.17,5.04,4.17,0,0,2.87-2.27,5.04-4.17,3.96-3.48,6.37-6.19,5.73-10.13Z"/>
    </g>
  </g>
</svg>