<?xml version="1.0" encoding="UTF-8"?>
<svg id="_レイヤー_2" data-name="レイヤー 2" xmlns="http://www.w3.org/2000/svg" viewBox="0 0 40.83 38.28">
  <defs>
    <style>
      .cls-1 {
        fill: #9e9d9d;
      }
    </style>
  </defs>
  <g id="_レイヤー_1-2" data-name="レイヤー 1">
    <g>
      <path class="cls-1" d="m40.83,11.65c-1.08,2.25-2.17,4.49-3.23,6.74-1.36,2.88-2.72,5.77-4.05,8.67-.34.74-.81,1.02-1.6,1.01-7.85-.02-15.69,0-23.54-.01-1.17,0-1.5-.34-1.52-1.53-.03-2.06.13-2.23,2.18-2.23,6.76,0,13.51-.01,20.27.02.96,0,1.51-.34,1.91-1.21,1.91-4.15,3.87-8.28,5.81-12.42.54-1.16.91-1.31,2.05-.71.61.32,1.15.79,1.72,1.2v.48Z"/>
      <path class="cls-1" d="m12.31,0c.16.51.3.94.44,1.38,7.58-1.08,13.42,1.55,17.58,8.12-4.8,1.17-9.5,2.31-14.3,3.48.83,3.48,1.65,6.92,2.49,10.45-.48,0-.85-.03-1.21,0-.51.06-.67-.17-.78-.64-.71-2.99-1.45-5.98-2.18-8.97-.02-.1-.06-.2-.14-.42-4.71,1.14-9.41,2.28-14.21,3.44C.63,9.29,4.44,4.31,11.47,1.74c-.1-.44-.19-.84-.3-1.35.35-.12.71-.24,1.14-.39Zm.86,3.12c.73,2.79,1.44,5.52,2.17,8.31,1.94-.47,3.79-.92,5.73-1.39-1.28-2.64-2.74-4.95-5.21-6.44-.78-.47-1.62-.79-2.68-.48Zm-4.68,10c1.65-.41,3.28-.85,4.92-1.22.54-.12.69-.27.53-.84-.46-1.6-.85-3.22-1.27-4.83-.24-.93-.49-1.87-.74-2.81-2.58,1-3.88,5.98-3.43,9.7Zm19.03-4.65c-1.95-3.12-6.67-5.58-10.71-5.64.57.51,1.16,1,1.71,1.54,1.42,1.4,2.47,3.05,3.33,4.83.11.22.42.54.57.51,1.7-.38,3.39-.81,5.11-1.24ZM1.94,14.7c1.76-.44,3.41-.83,5.04-1.28.17-.05.32-.42.34-.66.13-1.42.11-2.87.35-4.27.22-1.25.72-2.45,1.12-3.77-3.68,2.37-6,5.57-6.85,9.97Z"/>
      <path class="cls-1" d="m34.74,27.39c1.38,2.94,2.66,5.62,3.88,8.33.44.97.02,1.83-.96,2.29-1.03.49-1.91.31-2.38-.65-1.29-2.62-2.51-5.26-3.85-8.1,1.53.17,2.7-.21,3.32-1.86Z"/>
      <path class="cls-1" d="m11.98,29.29c-1.3,2.76-2.5,5.36-3.74,7.94-.51,1.05-1.4,1.3-2.47.79-1.02-.49-1.37-1.32-.9-2.36.89-1.98,1.82-3.95,2.76-5.91.09-.19.31-.43.48-.43,1.24-.04,2.48-.02,3.88-.02Z"/>
    </g>
  </g>
</svg>