<?xml version="1.0" encoding="UTF-8"?>
<svg id="_レイヤー_2" data-name="レイヤー 2" xmlns="http://www.w3.org/2000/svg" viewBox="0 0 29.54 45.93">
  <defs>
    <style>
      .cls-1 {
        fill: #9e9d9d;
      }
    </style>
  </defs>
  <g id="_レイヤー_1-2" data-name="レイヤー 1">
    <path class="cls-1" d="m29.53,6.29s0-.04,0-.06c-.01-.08-.04-.15-.07-.22,0,0,0,0,0-.01l-2.46-5.4c-.17-.37-.53-.6-.93-.6H4.09c-.37,0-.71.2-.89.52L.13,5.91s0,.02-.01.04c-.03.05-.05.11-.07.17,0,.02-.01.04-.02.06-.02.08-.03.15-.03.24h0v38.48c0,.57.46,1.02,1.02,1.02h27.49c.57,0,1.02-.46,1.02-1.02V6.42s0-.09-.01-.13Zm-2.04,37.59H2.05v-16.91h10.44c-1.31,1.49-3.49,3.42-6.32,3.99-.56.11-.92.65-.8,1.21.1.49.53.82,1,.82.07,0,.13,0,.2-.02,4.03-.81,6.86-3.79,8.2-5.52,1.34,1.73,4.16,4.72,8.19,5.52.07.01.14.02.2.02.48,0,.91-.34,1-.82.11-.56-.25-1.1-.8-1.21-2.82-.56-5.01-2.5-6.32-3.99h10.44v16.91ZM6.85,22.11c0-.61.24-.82.47-.94.29-.15.66-.21,1.06-.21.84,0,1.77.27,2.15.54,1.09.75,2.02,2.14,2.6,3.19-1.9-.03-4.59-.31-5.76-1.39-.36-.33-.53-.71-.53-1.18Zm9.56,2.58c.59-1.05,1.51-2.45,2.6-3.19.39-.26,1.32-.54,2.15-.54.4,0,.77.06,1.06.21.23.12.47.33.47.94,0,.47-.17.85-.53,1.18-1.17,1.09-3.86,1.37-5.76,1.39Zm11.09.24h-4.08s.1-.08.15-.13c.78-.72,1.19-1.65,1.19-2.69,0-1.24-.56-2.22-1.57-2.76-1.64-.86-4.21-.32-5.33.44-1.32.9-2.38,2.41-3.08,3.62-.7-1.21-1.76-2.72-3.08-3.62-1.12-.77-3.69-1.31-5.33-.44-1.01.53-1.57,1.51-1.57,2.76,0,1.04.41,1.97,1.19,2.69.05.04.1.08.15.13H2.05V7.45h25.44v17.47Z"/>
  </g>
</svg>