<?xml version="1.0" encoding="UTF-8"?>
<svg id="_レイヤー_2" data-name="レイヤー 2" xmlns="http://www.w3.org/2000/svg" viewBox="0 0 46.09 36.9">
  <defs>
    <style>
      .cls-1 {
        fill: #9e9d9d;
      }
    </style>
  </defs>
  <g id="_レイヤー_1-2" data-name="レイヤー 1">
    <g>
      <path class="cls-1" d="m0,19.53c.37-1.27.73-2.58,1.83-3.41.73-.55,1.62-.86,2.41-1.33.31-.19.69-.48.78-.8C7.09,6.66,11.79,1.97,19.24.4c9.84-2.07,19.09,4.05,21.49,13.39.15.58.38.85,1.03.99,2.53.54,4.3,2.75,4.33,5.27.03,2.37-1.68,4.64-4,5.28-.34.1-.72.19-1.06.15-.95-.11-1.31.42-1.69,1.19-5.19,10.6-18.92,13.53-28.06,6.06-2.16-1.76-3.81-3.88-5.01-6.38-.16-.34-.58-.75-.91-.78-2.85-.27-4.52-1.84-5.22-4.55-.02-.08-.08-.16-.13-.24,0-.42,0-.84,0-1.26Zm7.41,3.22c2.59,7.13,7.42,11.45,15.03,11.63,8.14.19,13.31-4.23,16.05-11.82,1.67.79,3.28.91,4.53-.71.74-.96.83-2.05.24-3.13-.96-1.75-2.56-1.84-4.34-1.42-.33-3.31-1.44-6.24-3.45-8.75-2-2.49-4.48-4.34-7.68-5.29.13.64.25,1.12.32,1.62.42,2.89-.48,5.52-1.65,8.07-.31.68-.94.68-1.4,0-.69-1.01-1.65-1.63-2.75-2.09-1.16-.49-2.33-.97-3.48-1.49-1.94-.87-3.49-2.11-4.01-4.31-.02-.1-.09-.19-.15-.32-.22.13-.37.21-.52.31-4.02,2.69-6.35,6.46-7.1,11.2-.13.84-.45.95-1.16.86-1.33-.17-2.35.4-3,1.54-.62,1.1-.54,2.21.24,3.2.78,1,1.8,1.46,3.09,1.14.37-.09.75-.17,1.19-.26Zm18.59-12.08c.27-1.37.72-2.67.74-3.97.02-1.15-.39-2.32-.69-3.46-.06-.25-.45-.58-.69-.59-1.48-.06-2.96-.03-4.43-.03-.5,2.41,2.52,6.52,5.07,8.05Zm-4.26-1.54c.06-.07.11-.14.17-.21-1.4-1.76-2.37-3.71-2.58-6.06-.6.16-1.09.27-1.56.43-1.82.58-2.07,1.39-.87,2.94.3.4.67.8,1.1,1.03,1.22.67,2.49,1.25,3.75,1.86Z"/>
      <path class="cls-1" d="m23.69,28.95c-2.82.16-4.89-.86-6.53-2.82-.36-.44-.5-.94.01-1.34.5-.4.91-.15,1.31.28,2.02,2.2,4.27,2.82,6.85,1.74.84-.36,1.54-1.08,2.26-1.7.44-.38.85-.77,1.38-.29.58.51.25,1-.15,1.47-1.41,1.66-3.17,2.61-5.13,2.67Z"/>
      <path class="cls-1" d="m18.38,19.07c0,.86-.74,1.63-1.58,1.65-.83.02-1.61-.74-1.64-1.59-.03-.89.76-1.71,1.63-1.7.84.01,1.59.78,1.6,1.64Z"/>
      <path class="cls-1" d="m29.31,20.72c-.86-.05-1.57-.81-1.55-1.68.02-.9.85-1.68,1.71-1.6.87.08,1.55.86,1.51,1.72-.05.85-.85,1.6-1.67,1.56Z"/>
    </g>
  </g>
</svg>