<?xml version="1.0" encoding="UTF-8"?>
<svg id="_レイヤー_2" data-name="レイヤー 2" xmlns="http://www.w3.org/2000/svg" viewBox="0 0 40.74 40.74">
  <defs>
    <style>
      .cls-1 {
        fill: #9e9d9d;
      }
    </style>
  </defs>
  <g id="_レイヤー_1-2" data-name="レイヤー 1">
    <g>
      <path class="cls-1" d="m0,37.15v-20.13c.26-1.03.75-1.9,1.6-2.58,1.27-1.02,2.51-2.08,3.78-3.11.23-.19.32-.37.32-.67-.01-1.71,0-3.42,0-5.13,0-.15,0-.31,0-.49h.53c2.09,0,4.19,0,6.28,0,.33,0,.58-.09.82-.3,1.46-1.23,2.94-2.43,4.4-3.66.57-.48,1.18-.86,1.91-1,.14-.03.27-.07.41-.1.21,0,.42,0,.64,0,.03.02.06.06.09.06.82.08,1.51.44,2.13.97,1.48,1.24,2.98,2.46,4.46,3.71.27.23.54.32.89.32,2.09-.01,4.19,0,6.28,0,.15,0,.31,0,.49,0v.49c0,1.71,0,3.42,0,5.13,0,.3.09.48.32.67,1.28,1.04,2.53,2.1,3.8,3.13.78.64,1.3,1.42,1.5,2.41.01.05.04.09.07.14v20.13c-.03.08-.07.16-.09.24-.43,1.59-1.42,2.65-3.01,3.14-.29.09-.59.13-.88.2H3.9c-.07-.03-.14-.06-.21-.07-1.75-.24-3.12-1.47-3.57-3.18-.03-.11-.08-.22-.11-.32ZM6.28,13.63c-1.12.93-2.16,1.81-3.22,2.66-.5.41-.74.91-.74,1.55,0,6.14,0,12.28,0,18.41,0,.26.04.53.12.78.28.87,1,1.32,2.07,1.32,10.57,0,21.13,0,31.7,0,.09,0,.19,0,.28,0,1.11-.05,1.92-.86,1.92-1.97,0-6.22,0-12.43,0-18.65,0-.56-.22-1.02-.67-1.38-.41-.33-.82-.68-1.22-1.01-.72-.6-1.44-1.19-2.21-1.82v4.78c.7-.25,1.4-.49,2.12-.74.19.54.37,1.05.55,1.57-.13.05-.21.09-.3.12-3.75,1.33-7.51,2.66-11.26,3.98-.17.06-.36.08-.54.08-3.05,0-6.1,0-9.15,0-.21,0-.42-.03-.62-.1-3.52-1.24-7.04-2.49-10.55-3.73-.31-.11-.61-.23-.94-.35.19-.54.37-1.05.56-1.57.72.25,1.4.49,2.1.73v-4.66Zm1.69-6.23c0,1.77,0,3.49,0,5.21,0,1.96,0,3.92,0,5.89,0,.3.08.43.37.53,2.35.82,4.69,1.66,7.04,2.48.21.07.44.11.66.11,2.84,0,5.67,0,8.51,0,.23,0,.48-.04.7-.12,2.35-.82,4.69-1.66,7.04-2.48.28-.1.35-.23.35-.51,0-3.58,0-7.16,0-10.74v-.34c-.08-.02-.11-.03-.15-.03-2.1-.07-4.2-.07-6.29-.1-4.32-.06-8.65-.22-12.97.1-.38.03-.77,0-1.15,0h-4.09Zm8.07-1.85h8.65c-1.23-1.02-2.39-1.98-3.57-2.93-.44-.35-1.07-.35-1.52,0-1.18.94-2.33,1.91-3.57,2.93Z"/>
      <path class="cls-1" d="m20.08,8.44c-3.35,0-6.11,2.74-6.11,6.06,0,3.4,2.7,6.17,6.03,6.18,3.46,0,6.2-2.69,6.2-6.11,0-3.38-2.74-6.13-6.12-6.13Zm2.4,5.61c-.42,0-.82,0-1.23,0-.54,0-.62.08-.62.63,0,.09,0,.19,0,.34h1.84v.95h-1.84v1.4h-1.12v-1.4h-1.83v-.93h1.82c0-.22,0-.38,0-.54-.01-.3-.14-.47-.48-.45-.44.02-.88,0-1.34,0v-.78h1.13c-.33-.52-.63-.99-.93-1.46.6-.2.88-.1,1.19.39.33.51.65,1.01,1,1.55.36-.56.72-1.07,1.02-1.6.18-.31.39-.46.75-.41.12.02.25,0,.46,0-.33.52-.63,1-.97,1.52h1.13v.79Z"/>
    </g>
  </g>
</svg>