<?xml version="1.0" encoding="UTF-8"?>
<svg id="_レイヤー_2" data-name="レイヤー 2" xmlns="http://www.w3.org/2000/svg" viewBox="0 0 44.69 33.92">
  <defs>
    <style>
      .cls-1 {
        fill: #9e9d9d;
      }
    </style>
  </defs>
  <g id="_レイヤー_1-2" data-name="レイヤー 1">
    <g>
      <path class="cls-1" d="m44.69,10.66c-.46,1.04-1.19,1.71-2.39,1.65-.25-.01-.62-.13-.72-.31-.7-1.26-1.33-2.55-2.06-3.97,1.93.27,4.13-.75,5.17,1.75v.87Z"/>
      <path class="cls-1" d="m22.29,27.42c-6.17,0-12.34,0-18.51,0-.38,0-.76.02-1.13-.04-.72-.12-1.25-.47-1.31-1.28-.03-.49-.11-.98-.12-1.48-.01-2.5,0-5.01-.01-7.51,0-1.02.27-1.89,1.05-2.57,1.11-.97,1.88-2.17,2.56-3.48,1.49-2.93,3.09-5.8,4.66-8.69C10.29.86,11.56.03,13.27.02c6.02-.02,12.05-.03,18.07,0,1.71,0,3,.82,3.81,2.33,1.8,3.36,3.56,6.74,5.41,10.07.46.82,1.19,1.49,1.86,2.16.69.68,1,1.47.99,2.42-.01,2.59,0,5.18,0,7.77,0,.26,0,.52-.04.78-.17,1.5-.54,1.85-2.06,1.86-6.35,0-12.69,0-19.04,0Zm0-15.86c4.16,0,8.33,0,12.49,0,1.54,0,2.03-.84,1.29-2.22-1.1-2.02-2.23-4.02-3.32-6.04-.57-1.07-1.46-1.57-2.62-1.57-5.21-.01-10.42-.02-15.63,0-1.16,0-2.04.52-2.61,1.58-1.08,2.03-2.22,4.02-3.32,6.04-.74,1.37-.24,2.2,1.32,2.2,4.13,0,8.27,0,12.4,0Zm.02,13.82c1.39,0,2.79-.02,4.18,0,.58,0,.88-.2.88-.79,0-1.1,0-2.21,0-3.31,0-.55-.23-.86-.84-.86-2.79.01-5.58.01-8.36,0-.63,0-.9.29-.89.9,0,1.05.02,2.09,0,3.14-.01.67.27.94.94.92,1.36-.03,2.73,0,4.09,0Zm11.13-4.58c.01,1.81,1.57,3.33,3.35,3.29,1.77-.04,3.23-1.54,3.24-3.33,0-1.86-1.45-3.31-3.31-3.3-1.86.01-3.29,1.46-3.28,3.33Zm-22.23-.08c-.02-1.85-1.5-3.28-3.36-3.25-1.83.03-3.24,1.46-3.23,3.29,0,1.83,1.52,3.35,3.32,3.34,1.8-.02,3.29-1.56,3.28-3.38Z"/>
      <path class="cls-1" d="m3.47,28.41h5.78c-.09,1.23-.03,2.49-.3,3.67-.3,1.33-1.71,2.02-3.17,1.8-1.24-.19-2.25-1.3-2.3-2.58-.03-.95,0-1.9,0-2.89Z"/>
      <path class="cls-1" d="m35.47,28.41h5.75c-.05,1.19.03,2.38-.2,3.52-.28,1.39-1.57,2.12-3.06,1.97-1.33-.13-2.4-1.23-2.48-2.61-.05-.92,0-1.85,0-2.88Z"/>
      <path class="cls-1" d="m5.12,8.08c-.72,1.39-1.38,2.68-2.06,3.96-.08.14-.31.25-.48.28-1.26.19-2.43-.7-2.56-1.92-.13-1.17.83-2.25,2.09-2.31.96-.04,1.92,0,3.01,0Z"/>
    </g>
  </g>
</svg>