<?xml version="1.0" encoding="UTF-8"?>
<svg id="_レイヤー_2" data-name="レイヤー 2" xmlns="http://www.w3.org/2000/svg" viewBox="0 0 34.67 44.13">
  <defs>
    <style>
      .cls-1 {
        fill: #9e9d9d;
      }
    </style>
  </defs>
  <g id="_レイヤー_1-2" data-name="レイヤー 1">
    <path class="cls-1" d="m20.25,0c.69.39,1.37.79,2.08,1.14.16.08.44.05.62-.02,3.22-1.39,5.61-.07,6.15,3.42.03.2.08.39.13.65.57-.03,1.14-.14,1.7-.09,2.27.21,3.74,1.93,3.74,4.37,0,6.9.01,13.8,0,20.7,0,1.94-.35,3.83-1.1,5.63-2.02,4.86-5.79,7.44-10.89,8.15-4.1.57-7.97-.19-11.35-2.7-2.36-1.75-4.25-3.98-5.64-6.55C3.4,30.47,1.61,26.03.22,21.43c-.62-2.06.1-3.86,1.78-4.84,1.65-.96,3.72-.64,5.18.91.65.68,1.15,1.5,1.72,2.26.22.29.43.59.77,1.06v-5.49c-.82.41-1.59.8-2.48,1.24-.82-1.74-1.63-3.46-2.48-5.26.62-.1,1.17-.18,1.82-.28v-4.89c1.11.77,2.07,1.42,3.15,2.17.06-1.57.51-2.81,1.72-3.68,1.22-.88,2.56-.9,3.98-.53.09-.31.17-.55.22-.79C15.95,1.46,17.25.58,18.87,0,19.33,0,19.79,0,20.25,0Zm6.8,21.34c0-1.1,0-2.1,0-3.1,0-4.51,0-9.03,0-13.54,0-1.22-.72-2.04-1.8-2.13-1.12-.09-1.97.63-2.16,1.87-.05.37-.06.74-.06,1.12,0,4.92,0,9.83,0,14.75v1.03h-1.49v-1.06c0-5.15,0-10.29,0-15.44,0-.34,0-.69-.04-1.03-.13-.96-.91-1.68-1.86-1.73-.88-.05-1.77.57-2,1.46-.1.41-.12.85-.12,1.28,0,5.15,0,10.29,0,15.44,0,.36-.03.72-.05,1.06h-1.67c0-1.24.02-2.42-.02-3.59,0-.22-.23-.61-.36-.62-1.19-.05-2.39-.03-3.64-.03,0,.44,0,.76,0,1.07,0,2.5.01,5-.02,7.5,0,.29-.18.7-.4.84-.17.11-.67-.04-.83-.23-.62-.74-1.22-1.51-1.72-2.34-.81-1.35-1.48-2.79-2.34-4.11-.4-.62-1.02-1.2-1.68-1.53-1.37-.68-2.88.49-2.72,2.02.03.31.08.63.2.92,1.4,3.55,2.76,7.11,4.23,10.63.89,2.14,2.29,3.96,3.79,5.72,4.78,5.58,12.81,5.52,17.32,2.53,3.62-2.39,5.01-5.96,5.05-10.11.07-6.73.02-13.45.01-20.18,0-.4.05-.88-.14-1.18-.33-.52-.75-1.14-1.28-1.36-1.34-.57-2.58.45-2.59,2.04-.02,3.68,0,7.36,0,11.04,0,.33-.04.66-.06,1h-1.51Zm-11.35-5.43v-4.1c-1.08.69-2.04,1.3-3.01,1.91-1.08.68-1.14.83-.8,2.19h3.81Zm-3.89-2.99c1.15-.73,2.18-1.45,3.26-2.05.72-.4.84-.92.62-1.66h-3.88v3.71Zm3.91-4.99c-.11-1.28-.94-2.1-2.02-2.06-1.08.04-1.87.88-1.88,2.06h3.89Zm-6.11,4.3c-.91.09-1.78.17-2.79.27.37.8.67,1.45.97,2.1,1.97-.68,2.12-.87,1.81-2.36Zm-1.62-3.45v2.47c.62-.08,1.17-.15,1.7-.22.28-1.42-.98-1.45-1.7-2.26Z"/>
  </g>
</svg>