<?xml version="1.0" encoding="UTF-8"?>
<svg id="_レイヤー_2" data-name="レイヤー 2" xmlns="http://www.w3.org/2000/svg" viewBox="0 0 39.15 31.5">
  <defs>
    <style>
      .cls-1 {
        fill: #9e9d9d;
      }
    </style>
  </defs>
  <g id="_レイヤー_1-2" data-name="レイヤー 1">
    <g>
      <path class="cls-1" d="m39.15,11.28v20.22h-16.13v-7.32h-7.01v7.26H0V11.29c.34,0,.64,0,.94,0,7.73,0,15.47,0,23.2,0,5,0,10.01-.01,15.01-.02Zm-31.17,7.8v-3.37h-3.06c0,1.01-.02,1.97.02,2.92,0,.15.28.42.45.42.83.04,1.67.02,2.59.02Zm10.03-.1h3.03v-3.26h-3.03v3.26Zm13.09-3.28v3.32h2.99v-3.32h-2.99ZM4.92,24.28c0,1.04-.01,2.02.02,3,0,.13.23.35.37.35.88.03,1.76.02,2.68.02v-3.37h-3.06Zm26.13,3.32h3.06v-3.37c-.91,0-1.76-.02-2.62.02-.16,0-.42.28-.43.45-.04.94-.02,1.87-.02,2.9Z"/>
      <path class="cls-1" d="m7.98,19.07c-.92,0-1.76.02-2.59-.02-.16,0-.44-.27-.45-.42-.04-.96-.02-1.91-.02-2.92h3.06v3.37Z"/>
      <path class="cls-1" d="m18.01,18.97v-3.26h3.03v3.26h-3.03Z"/>
      <path class="cls-1" d="m31.11,15.69h2.99v3.32h-2.99v-3.32Z"/>
      <path class="cls-1" d="m4.92,24.28h3.06v3.37c-.92,0-1.8.02-2.68-.02-.13,0-.36-.23-.37-.35-.03-.98-.02-1.96-.02-3Z"/>
      <path class="cls-1" d="m31.05,27.6c0-1.03-.02-1.97.02-2.9,0-.16.27-.44.43-.45.85-.04,1.71-.02,2.62-.02v3.37h-3.06Z"/>
      <path class="cls-1" d="m6.02,9.31V.01h5.81c0,.31,0,.58,0,.85,0,2.55-.02,5.1.01,7.65,0,.65-.21.82-.83.81-1.65-.04-3.3-.01-5-.01Z"/>
      <path class="cls-1" d="m27.26,0h5.79v9.29c-1.83,0-3.64,0-5.44-.02-.12,0-.33-.25-.33-.38-.02-2.95-.01-5.9-.01-8.89Z"/>
      <path class="cls-1" d="m18.84,9.31c-1.79,0-3.52.01-5.25-.02-.16,0-.46-.31-.46-.48-.03-2.9-.02-5.81-.02-8.78h5.74v9.28Z"/>
      <path class="cls-1" d="m25.93,9.27h-5.69V.03h5.69v9.24Z"/>
      <path class="cls-1" d="m.05,0h4.59c.02.26.05.51.05.75,0,2.58-.02,5.15.02,7.73.01.7-.22.87-.87.84-1.07-.05-2.14.01-3.21-.04-.2,0-.55-.31-.55-.48C.04,5.9.05,3,.05,0Z"/>
      <path class="cls-1" d="m34.39,0h4.57c.02.25.07.47.07.69,0,2.6-.01,5.2.02,7.8,0,.63-.18.85-.82.83-1.07-.05-2.14.01-3.21-.03-.21,0-.6-.27-.6-.42-.04-2.93-.03-5.86-.03-8.86Z"/>
    </g>
  </g>
</svg>