<?xml version="1.0" encoding="UTF-8"?>
<svg id="_レイヤー_2" data-name="レイヤー 2" xmlns="http://www.w3.org/2000/svg" viewBox="0 0 43 36.96">
  <defs>
    <style>
      .cls-1 {
        fill: #9e9d9d;
      }
    </style>
  </defs>
  <g id="_レイヤー_1-2" data-name="レイヤー 1">
    <g>
      <path class="cls-1" d="m0,24.28C0,20.05,0,15.82,0,11.59c.06-.14.12-.28.17-.42.5-1.4,1.98-2.55,3.34-2.56,1.58-.01,3.16-.02,4.74,0,2.22.02,3.83,1.69,4.28,3.09.78,2.49,1.67,4.95,2.52,7.42.25.73.7.85,1.29.34.54-.47,1.08-.93,1.62-1.4.57-.5,1.24-.74,2-.74,1.04,0,2.07,0,3.11,0,.76,0,1.42.24,2,.74.54.47,1.08.94,1.62,1.4.59.51,1.04.39,1.29-.34.85-2.47,1.68-4.95,2.54-7.42.63-1.83,1.97-2.87,3.84-3.04,1.62-.15,3.27-.03,4.91-.07.9-.02,1.66.3,2.35.86.69.56,1.11,1.3,1.41,2.13v12.68c-.5,1.18-1.54,1.15-2.58,1.08-.04.66-.08,1.24-.11,1.83-.16,2.74-.31,5.47-.49,8.21-.06.99-.72,1.56-1.72,1.56-1.06,0-2.13,0-3.19,0-1.26,0-1.86-.59-1.91-1.86-.05-1.19-.14-2.37-.2-3.56-.13-2.6-.28-5.19-.36-7.79-.06-1.76-.01-3.53-.01-5.29,0-.06.02-.12,0-.17-.04-.09-.1-.18-.16-.26-.1.06-.21.1-.28.18-.08.09-.11.23-.15.34-.65,1.6-1.3,3.21-1.95,4.82-.53,1.31-1.93,1.69-3.05.82-.68-.52-1.37-1.02-2.06-1.52-.1-.07-.28-.15-.36-.1-.09.05-.11.23-.14.36-.02.09,0,.2,0,.29.09,4.21-.13,8.42-.41,12.62-.05.68-.48,1.11-1.17,1.12-.81,0-1.62,0-2.43,0-.62,0-1.08-.42-1.11-1.03-.15-2.76-.31-5.53-.41-8.29-.06-1.57,0-3.13-.02-4.7,0-.13-.05-.31-.14-.36-.08-.04-.26.03-.36.1-.71.52-1.42,1.04-2.12,1.57-1.04.79-2.46.41-2.96-.8-.25-.61-.49-1.22-.74-1.82-.45-1.11-.9-2.23-1.37-3.33-.05-.11-.21-.17-.31-.26-.05.11-.11.23-.16.35-.02.05,0,.11,0,.17-.05,3.08-.06,6.15-.17,9.23-.08,2.54-.27,5.08-.43,7.62-.06.94-.74,1.57-1.69,1.57-1.15,0-2.29,0-3.44,0-.96,0-1.61-.59-1.67-1.56-.17-2.73-.33-5.47-.49-8.21-.04-.6-.07-1.19-.11-1.82-.2,0-.37-.01-.53,0C1.11,25.47.4,25.15,0,24.28Z"/>
      <path class="cls-1" d="m10.09,3.49C10.09,1.55,8.54,0,6.6,0c-1.93,0-3.5,1.56-3.49,3.49,0,1.93,1.56,3.48,3.5,3.48,1.94,0,3.49-1.55,3.49-3.49Zm22.82,0c0,1.94,1.55,3.48,3.49,3.48,1.93,0,3.49-1.56,3.49-3.49C39.89,1.56,38.33,0,36.4,0c-1.94,0-3.49,1.55-3.49,3.49Zm-9.02,10.29c0-1.33-1.09-2.42-2.4-2.41-1.32,0-2.39,1.09-2.39,2.43,0,1.33,1.09,2.41,2.4,2.41,1.32,0,2.39-1.1,2.39-2.43Z"/>
      <path class="cls-1" d="m10.09,3.49c0,1.94-1.55,3.49-3.49,3.49-1.93,0-3.5-1.56-3.5-3.48C3.11,1.56,4.67,0,6.6,0c1.94,0,3.49,1.55,3.49,3.49Z"/>
      <path class="cls-1" d="m32.91,3.49C32.91,1.55,34.46,0,36.4,0c1.93,0,3.5,1.56,3.5,3.48,0,1.93-1.56,3.49-3.49,3.49-1.94,0-3.49-1.54-3.49-3.48Z"/>
      <path class="cls-1" d="m23.89,13.78c0,1.32-1.07,2.42-2.39,2.43-1.31,0-2.4-1.08-2.4-2.41,0-1.33,1.07-2.42,2.39-2.43,1.31,0,2.39,1.08,2.4,2.41Z"/>
    </g>
  </g>
</svg>