<?xml version="1.0" encoding="UTF-8"?>
<svg id="_レイヤー_2" data-name="レイヤー 2" xmlns="http://www.w3.org/2000/svg" viewBox="0 0 36.62 46.67">
  <defs>
    <style>
      .cls-1 {
        fill: #9e9d9d;
      }
    </style>
  </defs>
  <g id="_レイヤー_1-2" data-name="レイヤー 1">
    <g>
      <path class="cls-1" d="m29.78,25.15l-.24-.27c-.48-.55-1.03-1.17-1.87-1.77-.26-.19-.57-.38-.87-.58-.41-.26-1.1-.7-1.27-.91-.02-.11-.05-.23-.07-.36.29-.4.5-.9.71-1.38.06-.15.12-.29.19-.43.42-.91.44-1.73.06-2.56-.25-.55-2.05-2.58-3.22-2.88-.3-.08-.61-.1-.92-.07-.07-.12-.14-.24-.22-.37-.75-1.3-1.99-1.63-2.9-1.51-.25.03-.49.1-.71.2-.38-.44-.89-.73-1.49-.85-.11-.02-.23-.04-.34-.05-.02-.03-.04-.07-.06-.1.58-1.33,1.2-2.78,1.4-3.27.23-.56.49-2.1.04-3.15-.09-.2-.19-.35-.3-.49.02-.06.04-.11.05-.16.12-.45.04-.95-.2-1.32-.17-.27-.42-.44-.69-.49-.65-.11-1.17.49-1.78,1.3-.1.13-.23.33-.38.58-.22.2-.42.44-.61.74-.12.19-.57.95-1.14,1.95-.34-.31-.63-.56-.8-.68-.69-.46-1.5-.63-2.22-.53-.4-.25-.93-.48-1.43-.43-.36.04-.66.21-.88.5-.55.73-.26,1.55.19,2.16-.02.38.05.79.22,1.23.08.21.29.75,2.09,2.89-.13.26-.22.46-.28.61-.27.67-.56,2.15-.91,3.86-.31,1.54-.63,3.12-.88,3.85-.55,1.58-.89,2.7-.55,3.82.37,1.21,2.16,2.25,4.47,3.49.48.26.89.48,1.12.63.22.14.59.36,1.04.62,1.08.63,4.36,2.55,4.69,3.22.23.77,1.25,8.82,1.84,13.72.06.47.48.81.96.75.05,0,.1-.02.15-.03.39-.12.65-.5.6-.92-.16-1.31-1.55-12.85-1.9-14.01-.31-1.04-2.09-2.23-5.47-4.21-.43-.25-.78-.45-.99-.59-.29-.19-.73-.42-1.24-.69-.94-.5-3.45-1.84-3.64-2.47-.17-.57.02-1.31.52-2.76.29-.84.61-2.41.94-4.08.29-1.42.61-3.04.82-3.57.07-.17.22-.48.46-.94,0-.01.01-.02.02-.03.54-1.04,1.37-2.51,1.97-3.57,0-.01.01-.02.02-.03.05-.09.1-.18.16-.28.33.09.7.12,1.05.02.31-.09.6-.29.82-.63.13-.2.32-.54.53-.94-.03.17-.06.32-.1.42-.22.54-.98,2.29-1.56,3.64,0,0,0,.01,0,.02l-.53,1.2c-.38.36-.66.82-.79,1.25-.16.56-1.89,6.59-1.89,6.59l1.65.47s1.74-6.04,1.89-6.59c.03-.11.16-.35.39-.54l.02-.02c.19-.16.4-.25.63-.28.01,0,.02,0,.03,0,.13-.01.27,0,.41.02.17.03.4.11.58.37-.07.12-.14.26-.22.41-.44.91-1.57,5.35-1.79,6.23-.12.46.16.93.62,1.04.46.12.93-.16,1.04-.62.49-1.97,1.38-5.32,1.67-5.9.11-.23.22-.41.32-.54,0,0,0-.01.01-.02.18-.23.33-.29.51-.31.17-.02.77-.04,1.18.67.06.1.12.2.17.29-.21.23-.37.51-.47.81-.24.75-1.15,4.71-1.25,5.16-.11.46.18.92.65,1.03.46.1.92-.18,1.03-.65.27-1.2,1.03-4.44,1.21-5.01.05-.14.16-.26.31-.34,0,0,0,0,.01,0,.16-.07.35-.09.54-.04.25.07.79.52,1.26.98-.29.13-.5.43-.5.77,0,0,0,.71.02,1.61,0,0,0,0,0,0,.03.78.08,1.47.15,2.04,0,0,0,.01,0,.02.05.38.1.7.17.97.17.69.87,1.17,2.01,1.89.28.18.56.36.8.53.68.48,1.13,1,1.57,1.5l.25.28c.62.69.85,2.04.66,2.82-.31,1.3-.04,3.76.28,4.81l2.63,8.71c.14.45.62.71,1.07.57.45-.14.71-.62.57-1.07l-2.63-8.71c-.28-.92-.46-3.07-.26-3.91.29-1.22.02-3.16-1.05-4.36ZM10.99,10.45c-1.17-1.42-1.34-1.82-1.36-1.86-.21-.56-.11-.73.2-1.01.06-.05.13-.09.22-.12.3-.09.75-.03,1.15.23.09.06.41.33.88.79-.35.62-.74,1.31-1.09,1.97Z"/>
      <path class="cls-1" d="m29.2,0c1.21,4,.02,6.22-3.98,7.43,4-1.21,6.22-.02,7.43,3.98-1.21-4-.02-6.22,3.98-7.43-4,1.21-6.22.02-7.43-3.98Z"/>
      <path class="cls-1" d="m3.98,29.61c1.21,4,.02,6.22-3.98,7.43,4-1.21,6.22-.02,7.43,3.98-1.21-4-.02-6.22,3.98-7.43-4,1.21-6.22.02-7.43-3.98Z"/>
    </g>
  </g>
</svg>