<?xml version="1.0" encoding="UTF-8"?>
<svg id="_レイヤー_2" data-name="レイヤー 2" xmlns="http://www.w3.org/2000/svg" viewBox="0 0 43.2 40.49">
  <defs>
    <style>
      .cls-1 {
        fill: #9e9d9d;
      }
    </style>
  </defs>
  <g id="_レイヤー_1-2" data-name="レイヤー 1">
    <g>
      <path class="cls-1" d="m43.2,12.32c-1.14,2.38-2.29,4.75-3.42,7.13-1.44,3.05-2.88,6.1-4.28,9.17-.35.78-.85,1.07-1.7,1.07-8.3-.02-16.6,0-24.9-.01-1.23,0-1.58-.36-1.61-1.62-.04-2.18.14-2.36,2.3-2.36,7.15,0,14.29-.02,21.44.02,1.02,0,1.6-.36,2.02-1.28,2.02-4.39,4.09-8.76,6.15-13.14.58-1.22.97-1.39,2.17-.76.65.34,1.21.84,1.82,1.27v.51Z"/>
      <path class="cls-1" d="m13.03,0c.17.54.32.99.47,1.46,8.02-1.15,14.2,1.64,18.6,8.59-5.08,1.24-10.05,2.45-15.13,3.68.88,3.68,1.74,7.32,2.63,11.06-.51,0-.9-.04-1.28,0-.54.06-.71-.18-.83-.68-.75-3.17-1.53-6.32-2.3-9.49-.03-.11-.07-.21-.14-.44-4.99,1.21-9.96,2.41-15.04,3.64C.67,9.82,4.7,4.56,12.14,1.84c-.1-.46-.2-.89-.32-1.43.37-.13.75-.25,1.2-.41Zm.91,3.3c.77,2.95,1.52,5.84,2.3,8.79,2.05-.5,4.01-.98,6.06-1.47-1.35-2.8-2.9-5.24-5.52-6.81-.83-.5-1.72-.84-2.84-.5Zm-4.96,10.58c1.74-.44,3.47-.9,5.21-1.29.57-.13.73-.28.56-.89-.49-1.69-.9-3.41-1.35-5.11-.26-.99-.52-1.97-.79-2.97-2.73,1.06-4.1,6.32-3.63,10.27Zm20.13-4.92c-2.07-3.3-7.05-5.91-11.33-5.97.61.54,1.23,1.06,1.81,1.62,1.5,1.48,2.62,3.22,3.52,5.11.11.23.44.57.6.54,1.8-.4,3.59-.86,5.4-1.31ZM2.05,15.55c1.87-.46,3.61-.88,5.33-1.35.18-.05.34-.45.36-.69.14-1.51.11-3.04.37-4.52.23-1.32.76-2.59,1.19-3.99-3.89,2.51-6.35,5.89-7.25,10.55Z"/>
      <path class="cls-1" d="m36.75,28.98c1.46,3.11,2.81,5.95,4.1,8.81.46,1.02.02,1.94-1.02,2.43-1.09.52-2.02.33-2.52-.69-1.36-2.77-2.65-5.57-4.07-8.57,1.62.18,2.86-.23,3.51-1.97Z"/>
      <path class="cls-1" d="m12.67,30.99c-1.37,2.92-2.64,5.67-3.96,8.4-.54,1.12-1.48,1.37-2.61.83-1.08-.51-1.45-1.4-.96-2.49.94-2.1,1.93-4.18,2.92-6.26.09-.2.33-.45.51-.46,1.31-.04,2.62-.02,4.1-.02Z"/>
    </g>
  </g>
</svg>