<?xml version="1.0" encoding="UTF-8"?>
<svg id="_レイヤー_2" data-name="レイヤー 2" xmlns="http://www.w3.org/2000/svg" viewBox="0 0 37.26 38.3">
  <defs>
    <style>
      .cls-1 {
        fill: #9e9d9d;
      }
    </style>
  </defs>
  <g id="_レイヤー_1-2" data-name="レイヤー 1">
    <g>
      <path class="cls-1" d="m32.78,38.3H4.5s-.08-.05-.13-.06C1.69,37.71,0,35.66,0,32.92c0-8.18.01-16.36,0-24.54C0,5.38,2.45,2.53,6.59,3.13c0,.82,0,1.64,0,2.46,0,2.1,1.58,3.82,3.71,4.04,1.97.21,3.88-1.19,4.3-3.17.08-.36.1-.74.11-1.11.02-.74,0-1.49,0-2.25h7.86c0,.15,0,.29,0,.42,0,.7,0,1.4,0,2.09.04,2.11,1.57,3.76,3.7,4.01,1.92.23,3.89-1.13,4.29-3.11.19-.91.1-1.88.13-2.83,0-.19,0-.39,0-.6.5,0,.95,0,1.4,0,2.85,0,5.18,2.34,5.18,5.19,0,8.28,0,16.56,0,24.83,0,2.2-1.38,4.16-3.46,4.89-.34.12-.69.2-1.03.3ZM2.56,11.63c0,.19,0,.35,0,.51,0,6.92,0,13.83,0,20.75,0,1.74,1.13,2.87,2.88,2.87,3.84,0,7.68,0,11.52,0,4.96,0,9.92,0,14.88,0,1.73,0,2.86-1.13,2.86-2.85,0-6.93,0-13.86,0-20.79v-.49H2.56Z"/>
      <path class="cls-1" d="m11.15,0c.11.05.22.1.33.15.83.39,1.31,1.03,1.33,1.95.02,1.16,0,2.32,0,3.48,0,1.2-.9,2.12-2.11,2.18-1.09.06-2.15-.82-2.21-1.96-.07-1.28-.06-2.57,0-3.85.04-.88.56-1.49,1.39-1.83C9.98.09,10.08.04,10.18,0c.32,0,.65,0,.97,0Z"/>
      <path class="cls-1" d="m27.09,0c.35.2.74.35,1.05.61.45.38.66.91.67,1.49.01,1.17.03,2.34,0,3.51-.03,1.22-1.02,2.17-2.19,2.15-1.21-.02-2.15-.98-2.15-2.22,0-1.08,0-2.17,0-3.25,0-1.11.5-1.82,1.54-2.22.04-.02.08-.05.12-.08.32,0,.65,0,.97,0Z"/>
      <path class="cls-1" d="m13.24,15.09h4.2v4.23h-4.2v-4.23Z"/>
      <path class="cls-1" d="m19.81,19.3v-4.2h4.23v4.2h-4.23Z"/>
      <path class="cls-1" d="m17.46,21.69v4.2h-4.23v-4.2h4.23Z"/>
      <path class="cls-1" d="m19.82,21.68h4.21v4.21h-4.21v-4.21Z"/>
      <path class="cls-1" d="m13.22,32.47v-4.2h4.23v4.2h-4.23Z"/>
      <path class="cls-1" d="m19.82,32.48v-4.21h4.21v4.21h-4.21Z"/>
      <path class="cls-1" d="m6.67,15.09h4.2v4.22h-4.2v-4.22Z"/>
      <path class="cls-1" d="m26.41,15.09h4.19v4.21h-4.19v-4.21Z"/>
      <path class="cls-1" d="m10.88,21.69v4.2h-4.2v-4.2h4.2Z"/>
      <path class="cls-1" d="m30.6,25.9h-4.19v-4.22h4.19v4.22Z"/>
      <path class="cls-1" d="m6.67,28.26h4.19v4.22h-4.19v-4.22Z"/>
      <path class="cls-1" d="m30.6,28.26v4.22h-4.19v-4.22h4.19Z"/>
    </g>
  </g>
</svg>