<?xml version="1.0" encoding="UTF-8"?>
<svg id="_レイヤー_2" data-name="レイヤー 2" xmlns="http://www.w3.org/2000/svg" viewBox="0 0 44.98 34.39">
  <defs>
    <style>
      .cls-1 {
        fill: #9e9d9d;
      }
    </style>
  </defs>
  <g id="_レイヤー_1-2" data-name="レイヤー 1">
    <g>
      <path class="cls-1" d="m18.17,23.3v-.04s-9.45-3.28-9.45-3.28c-1.02-.37-2.15.15-2.52,1.17-.37,1.02.15,2.15,1.17,2.52l6.1,2.04-.42,1.14-6.09-2.07c-1.27-.47-2.06-1.67-2.06-2.95,0-.36.06-.73.19-1.08h0c.41-1.13,1.4-1.87,2.52-2.03l-2.17-9.14c-.32-1.48-1.79-2.42-3.28-2.1-1.48.33-2.42,1.79-2.09,3.28l3.64,15.19c.23,1.03,1.01,2.62,2.03,2.87l5.43,2.5v3.08h8.84v-8.51c0-1.18-.75-2.2-1.83-2.58Zm24.65-15.81c-1.48-.33-2.95.61-3.28,2.1l-2.17,9.14c1.11.16,2.1.9,2.52,2.03h0c.13.35.19.72.19,1.08,0,1.28-.79,2.48-2.06,2.95l-6.09,2.07-.42-1.14,6.1-2.04c1.02-.37,1.54-1.5,1.17-2.52-.37-1.02-1.5-1.54-2.52-1.17l-9.45,3.28v.04c-1.09.39-1.83,1.41-1.83,2.58v8.51h8.84v-3.08l5.43-2.5c1.02-.25,1.81-1.84,2.03-2.87l3.64-15.19c.33-1.48-.61-2.95-2.09-3.28Z"/>
      <path class="cls-1" d="m33.89,4.87C33.3,1.24,30.26.24,29.3.08c-1.26-.22-3.3,0-4.91,1.24-1.25.97-1.9,1.79-1.9,1.79,0,0-.65-.82-1.9-1.79C18.97.08,16.94-.15,15.68.08c-.95.17-4,1.16-4.59,4.79-.68,4.17,1.87,7.04,6.06,10.72,2.3,2.02,5.34,4.42,5.34,4.42,0,0,3.04-2.4,5.34-4.42,4.19-3.68,6.74-6.55,6.06-10.72Z"/>
    </g>
  </g>
</svg>