<?xml version="1.0" encoding="UTF-8"?>
<svg id="_レイヤー_2" data-name="レイヤー 2" xmlns="http://www.w3.org/2000/svg" viewBox="0 0 38.07 36.42">
  <defs>
    <style>
      .cls-1 {
        fill: #9e9d9d;
      }
    </style>
  </defs>
  <g id="_レイヤー_1-2" data-name="レイヤー 1">
    <g>
      <path class="cls-1" d="m38.07,8.83c-.49.52-.95,1.06-1.46,1.54-.55.52-.93,1.07-1.09,1.85-1.36,6.5-6.04,11.97-13.11,13.33-7.77,1.5-15.04-2.03-18.47-9.24-.64-1.35-.95-2.85-1.47-4.27-.19-.51-.49-.99-.79-1.44-.16-.24-.44-.4-.66-.59C-.06,9.1-.21,8.55.24,7.21c.13-.37.26-.75.43-1.11.67-1.49.83-1.54,2.47-1.51.53,0,1.16-.18,1.58-.5C7.98,1.7,11.68.6,15.64.2c4.52-.47,8.97-.16,13.23,1.52,1.39.55,2.69,1.35,3.98,2.12.81.49,1.56.92,2.56.72.79-.16,1.35.2,1.66.93.35.81.67,1.64,1,2.45v.89Zm-11.36-5.84c-1.06-.25-1.95-.44-2.82-.68-.52-.14-.87,0-1.25.37-3.06,2.97-6.16,5.9-9.21,8.87-.92.9-1.73,1.9-2.58,2.85.71.19,1.61.42,2.5.7.46.14.76.04,1.11-.3,2.5-2.44,5.03-4.85,7.55-7.28,1.52-1.46,3.03-2.92,4.71-4.54Zm4.77,2.54c-1.03-.65-1.93-1.23-2.83-1.79-4.13,3.96-8.17,7.85-12.21,11.73.03.08.05.15.08.23,1.4,0,2.8.01,4.2-.02.18,0,.38-.21.53-.36,2.49-2.38,4.97-4.76,7.46-7.14.88-.84,1.75-1.67,2.77-2.64ZM6.39,11.66c.62.49,1.18.9,1.7,1.35.47.41.8.32,1.24-.11,3.61-3.5,7.25-6.97,10.87-10.45.13-.12.22-.27.36-.43-2.39-.36-4.57-.32-6.09,1.85-.14.2-.35.34-.53.52-2.48,2.39-4.95,4.78-7.54,7.27Zm17.8,3.4c.02.08.04.15.05.23,1.15-.35,2.32-.64,3.44-1.05,1.86-.68,3.54-1.65,4.68-3.36.8-1.21.84-2.76.06-3.73-2.75,2.64-5.49,5.27-8.24,7.91ZM12.95,2.76c-1.9.35-3.63,1.02-5.2,2.1-1.08.75-1.97,1.66-2.34,2.96-.19.66-.23,1.32.09,2.08,2.55-2.44,5-4.8,7.45-7.15Z"/>
      <path class="cls-1" d="m9.91,24.79c1.11.4,2.11.77,3.18,1.15-.41,1.06-.82,2.11-1.26,3.25h14.39c-.41-1.04-.81-2.07-1.22-3.13,1.02-.48,2.02-.94,3.06-1.43.09.21.18.41.25.61.98,2.9,1.97,5.81,2.94,8.72.09.26.16.52.2.79.1.65-.31,1.38-.86,1.58-.64.23-1.38,0-1.7-.68-.49-1.03-.94-2.08-1.3-3.15-.23-.67-.58-.83-1.25-.82-4.91.03-9.82.03-14.73,0-.62,0-.92.18-1.13.78-.33.96-.73,1.89-1.13,2.83-.41.95-1.07,1.32-1.85,1.06-.73-.24-1.13-1.05-.83-1.97,1.05-3.19,2.14-6.36,3.23-9.58Z"/>
    </g>
  </g>
</svg>