<?xml version="1.0" encoding="UTF-8"?><svg id="_レイヤー_2" xmlns="http://www.w3.org/2000/svg" viewBox="0 0 410.34 87.79"><g id="_レイヤー_1-2"><g><path d="m23.1,30.17C23.1,17.71,52.86,0,68.12,0c5.81,0,8.54,2.73,8.54,6.65,0,1.89-.63,3.99-1.82,6.23-4.48,8.26-15.75,22.75-28.07,36.75,1.96-.63,3.78-1.12,5.32-1.47,3.08-.63,5.88-1.05,6.58-1.05.49,0,.98.21.98.7s-.63,2.1-2.03,2.31c-4.34.7-9.45,2.03-14.77,3.85C26.67,71.83,9.59,87.79,3.5,87.79c-2.24,0-3.5-1.19-3.5-3.29,0-12.67,27.72-28.14,44.67-34.16,13.09-14.77,25.2-30.17,28.91-37.94.77-1.61,1.12-3.08,1.12-4.41,0-4.13-3.36-6.79-8.19-6.79-14.07,0-41.3,17.36-41.3,27.16,0,2.94,2.66,4.9,9.1,4.9,8.68,0,19.32-4.9,23.31-8.19.7-.56,1.12-.77,1.33-.77.14,0,.21.14.35.28.07.07.07.14.07.28,0,.42-.28,1.05-.28,1.05-1.75,3.29-13.16,10.29-25.34,10.29-7.56,0-10.64-2.45-10.64-6.02ZM4.69,86.25c4.97,0,20.65-14.7,35.91-31.43C22.19,61.61,1.89,73.79,1.89,83.17c0,1.89.63,3.08,2.8,3.08Z"/><path d="m70.49,50.83c0,2.03.84,2.8,2.17,2.8,3.92,0,8.05-3.36,10.99-6.79-.21-.49-.28-1.12-.28-1.68,0-3.5,2.8-7.98,4.13-7.98.7,0,1.05.49,1.05,1.33,0,1.68-1.26,4.62-3.43,7.56.49,1.82,2.24,2.03,3.08,2.03,1.54,0,3.5-.98,5.04-2.03.21-.14.35-.21.49-.21s.28.14.28.28c0,.21-.28.56-.77.84-2.38,1.54-4.13,2.17-5.46,2.17-1.96,0-3.15-.63-3.78-1.61-3.22,3.99-7.84,7.56-12.74,7.56-1.61,0-3.15-1.12-3.15-3.29,0-4.76,10.78-14.98,16.31-14.98.56,0,.91.42.91.84,0,.56-.49,1.12-1.54,1.12-5.46,0-13.3,7.21-13.3,12.04Zm14.49-5.74c1.47-2.03,2.38-3.92,2.38-4.9,0-.49-.21-.77-.63-.77-1.26,2.59-1.75,4.34-1.75,5.67Z"/><path d="m98.35,46.7c-1.12,2.24-1.75,4.27-1.75,5.88,0,1.26.49,2.1,1.68,2.1,5.46,0,9.52-9.1,9.59-9.45.14-.56.21-.91.28-1.96.07-.91.49-1.05.91-1.05.7.07.84.84.84,1.54,0,.35-.07.7-.14,1.68,0,1.96.98,2.66,2.24,2.66,1.54,0,3.5-.98,5.04-2.03.21-.14.35-.21.49-.21s.28.14.28.28c0,.21-.28.56-.77.84-2.31,1.68-4.13,2.17-5.46,2.17-2.52,0-3.5-1.82-3.71-1.82-.07,0-.14.07-.28.35-.56,1.05-5.25,8.4-10.29,8.75-2.59,0-3.15-1.47-3.15-2.73,0-12.74,35.21-46.56,41.58-46.56.91,0,1.54.77,1.54,1.61,0,6.79-29.89,31.78-38.92,37.94Zm.56-1.19c9.45-6.72,35.7-29.75,35.7-35.77,0-.56-.49-.84-.98-.84-3.36,0-27.09,22.47-34.72,36.61Z"/><path d="m142.24,47.96c-.98,1.26-1.61,2.38-1.61,3.29,0,1.54.56,2.24,1.68,2.24,2.45,0,7.21-3.36,12.81-8.26,8.12-14.35,33.39-39.76,35.84-39.76.49,0,.7.35.7.84,0,2.94-20.44,26.11-35.98,39.55-.91,1.75-1.4,3.29-1.4,4.41,0,1.68,1.12,2.24,2.45,2.24,2.45,0,4.97-1.47,4.97-1.47,2.1-1.12,7.35-4.06,8.19-4.76.21-.14.35-.21.49-.21s.28.14.28.28c0,.21-.28.56-.77.84,0,0-2.66,1.82-6.09,3.71,0,0-5.6,3.43-8.89,3.43-1.4,0-2.31-.63-2.31-2.31,0-1.26.49-2.87,1.4-4.76-5.81,4.83-10.78,8.12-13.44,8.12-1.33,0-2.1-.84-2.1-2.73,0-4.69,13.23-15.4,19.67-15.4.21,0,.35,0,.49.14.07.07.14.21.14.35,0,1.54-14.49,8.68-16.52,10.22Zm1.4-1.61c1.47-.77,10.57-5.6,10.57-6.44,0-.07,0-.21-.07-.21-2.31,0-7.28,3.36-10.5,6.65Zm13.37-2.8c14-12.67,31.92-33.25,31.92-35.07l-.21-.07c-1.12,0-23.8,22.19-31.71,35.14Z"/><path d="m192.57,36.89c0,2.8-9.52,9.31-18.34,10.57-.42.91-.63,1.75-.63,2.45,0,.49.07,3.5,4.06,3.5,1.89,0,4.62-.63,8.68-2.59,2.17-1.05,7.35-4.06,8.19-4.76.21-.14.35-.21.49-.21s.28.14.28.28c0,.21-.28.56-.77.84,0,0-3.43,2.31-7.49,4.48-2.38,1.26-7.77,3.5-11.62,3.5-2.45,0-4.34-.91-4.34-3.57,0-5.32,11.2-15.75,19.04-15.75,1.75,0,2.45.49,2.45,1.26Zm-17.92,9.87c6.72-1.19,15.61-7,15.61-9.17,0-.49-.49-.84-1.68-.84-4.62,0-11.34,5.53-13.93,10.01Z"/><path d="m195.86,48.24c-.14,0-.28-.14-.28-.28,0-.21.28-.56.77-.84l2.45-1.68c.49-.35,2.94-2.1,5.74-4.2-.07-.35-.07-.63-.07-.98,0-4.34,7.07-9.66,10.36-9.66.77,0,1.05.49,1.05.91,0,1.89-5.04,6.02-9.59,9.45.7,3.78,3.01,6.37,3.01,10.43,0,2.8-2.66,4.13-5.67,4.13-2.31,0-4.76-.77-6.44-2.38-.21-.21-.28-.56-.28-.77s.07-.28.21-.28.35.07.7.35c1.89,1.47,3.64,2.03,5.18,2.03,2.52,0,4.2-1.61,4.2-3.71,0-2.31-1.89-5.53-2.52-8.61-2.66,1.96-4.97,3.57-5.39,3.92-.7.56-3.08,2.17-3.43,2.17Zm17.08-15.75c-2.31,0-6.79,3.64-6.79,6.37v1.12c3.71-2.87,7.42-6.02,7.42-6.93,0-.28-.14-.56-.63-.56Z"/><path d="m224.63,53.42c1.89,0,4.62-.63,8.68-2.59,2.17-1.05,7.35-4.06,8.19-4.76.21-.14.35-.21.49-.21s.28.14.28.28c0,.21-.28.56-.77.84,0,0-3.43,2.31-7.49,4.48-2.38,1.26-7.77,3.5-11.62,3.5-2.45,0-4.34-.91-4.34-3.57,0-5.32,11.34-14.7,19.18-14.7,1.33,0,2.31.7,2.31,1.75,0,1.4-1.96,4.06-6.09,5.95-.14.07-.35.14-.63.14-.35,0-.98-.21-.98-.7,0-.35.28-.77.7-.98.63-.35,4.55-2.94,4.55-4.34,0-.42-.42-.7-1.4-.7-5.74,0-15.12,7.7-15.12,12.11,0,.49.07,3.5,4.06,3.5Z"/><path d="m256.9,33.46c0,.07,0,.14-.07.21-.35.42-1.47,1.96-1.54,2.31-.07.14-.14.42-.14.7,0,.56.7,1.89,2.87,1.96,1.89.07,3.15-.14,3.15,1.05-.14,2.66-6.23,7.21-6.23,11.2,0,.49.28.91,1.19.91.7,0,1.75-.28,3.22-.98,2.17-1.05,7.35-4.06,8.19-4.76.21-.14.35-.21.49-.21s.28.14.28.28c0,.21-.28.56-.77.84,0,0-3.43,2.31-7.49,4.48-1.75.91-4.27,2.24-5.95,2.24-.98,0-1.68-.49-1.68-1.89,0-4.83,6.65-9.45,6.65-10.71,0-.35-.35-.7-.84-.7-2.38,0-3.64-.42-4.27-2.45-.35.21.35,2.52-7.7,8.12-.7.56-3.08,2.17-3.43,2.17-.14,0-.28-.14-.28-.28,0-.21.28-.56.77-.84l2.45-1.68c6.3-4.2,6.51-5.6,7.77-9.1.63-1.33,1.82-3.22,2.94-3.22.28,0,.42.14.42.35Z"/><path d="m267.12,52.72c0-3.64,9.24-11.97,9.24-11.97.21-.21.42-.28.63-.28.35,0,.63.28.63.63,0,.21-.07.49-.28.7-1.75,1.89-7.77,7.42-7.77,10.22,0,.7.49.98,1.26.98,1.75,0,4.9-1.54,5.95-2.17,2.17-1.05,7.35-4.06,8.19-4.76.21-.14.35-.21.49-.21s.28.14.28.28c0,.21-.28.56-.77.84,0,0-3.43,2.31-7.49,4.48-1.33.84-5.67,3.15-8.26,3.15-1.26,0-2.1-.49-2.1-1.89Zm17.85-20.16c0-.56-.42-.84-.98-.84-1.12,0-2.66,1.47-2.66,2.38,0,0,0,.91.98.91,1.47,0,2.66-1.12,2.66-2.45Z"/><path d="m275.37,63.01c0,.07.07.14.14.14s.21-.07.35-.21c.42-.42,22.54-19.04,30.1-25.48.21-.21.63-.49,1.05-.49.21,0,.49.07.7.28s.35.35.35.63c0,.21-.14.49-.49.91-1.75,1.89-7.63,7.56-7.63,10.5,0,1.68.98,2.24,2.31,2.24,1.47,0,3.43-.7,4.83-1.33,2.17-1.05,6.37-3.43,7.21-4.13.21-.14.35-.21.49-.21s.28.14.28.28c0,.21-.28.56-.77.84,0,0-2.45,1.68-6.51,3.85-2.59,1.4-5.53,2.45-7.56,2.45-1.47,0-2.52-.56-2.52-2.1,0-3.15,2.1-4.9,5.81-9.73.21-.21.28-.35.28-.42s-.07-.14-.21-.14c-.63.49-12.95,10.43-20.86,17.15-7.91,6.79-8.96,7.56-12.32,11.13-2.52,2.59-4.76,5.39-5.04,5.67-.21.21-.42.35-.63.35-.28,0-.49-.07-.49-.35,0-.35.21-.91.56-1.47.49-.7,7.77-9.1,8.4-10.01.7-.84,7.7-9.1,8.19-9.59.42-.49,10.5-12.11,10.99-12.6.49-.56,9.59-11.06,10.43-11.97,3.36-3.92,9.03-9.8,11.9-9.8.63,0,1.05.35,1.05,1.19,0,4.97-13.86,14.84-26.6,26.25-6.37,7.35-13.44,15.61-13.58,15.89-.14.14-.21.21-.21.28Zm38.36-42c-1.75,0-4.41,3.43-6.44,5.46-1.68,1.75-7.7,8.33-8.19,8.89l-6.65,7.7c8.47-7.14,21.7-18.55,21.7-21.7,0,0,0-.35-.42-.35Z"/><path d="m334.39,25.9c5.39-5.39,9.94-9.38,10.92-9.38.21,0,.35,0,.49.14.14.14.21.28.21.49,0,1.47-2.52,4.83-6.09,8.82,7.84.14,15.61.28,15.96.28.21,0,.42.14.42.42,0,.63,0,1.05-1.82,1.19-2.17,0-9.24-.07-16.17-.14-7.07,7.56-16.94,16.66-20.37,19.25-.91,1.68-1.4,3.15-1.4,4.27,0,.91.7,1.19,1.61,1.19,2.1,0,5.53-1.54,5.32-1.4,2.1-1.12,7.35-4.06,8.19-4.76.21-.14.35-.21.49-.21s.28.14.28.28c0,.21-.28.56-.77.84,0,0-2.66,1.82-6.09,3.71-3.78,2.1-6.93,3.36-8.89,3.36-1.47,0-2.31-.7-2.31-2.17,0-4.2,9.73-15.68,18.34-24.5-5.32-.14-9.52-.14-9.66-.14-.63,0-.84-.49-.84-.98.07-.49.56-.77,1.19-.84,0,0,4.97.14,10.99.28Zm-15.33,19.18c3.36-2.52,11.97-10.92,17.78-17.43h-2.94c-5.18,5.25-11.41,12.04-14.84,17.43Zm16.59-19.18c.91,0,1.75,0,2.73.07,2.45-2.87,4.2-5.18,4.2-6.02,0-.14-.07-.21-.14-.21-.35,0-3.15,2.52-6.79,6.16Z"/><path d="m331.65,52.72c0-3.64,9.24-11.97,9.24-11.97.21-.21.42-.28.63-.28.35,0,.63.28.63.63,0,.21-.07.49-.28.7-1.75,1.89-7.77,7.42-7.77,10.22,0,.7.49.98,1.26.98,1.75,0,4.9-1.54,5.95-2.17,2.17-1.05,7.35-4.06,8.19-4.76.21-.14.35-.21.49-.21s.28.14.28.28c0,.21-.28.56-.77.84,0,0-3.43,2.31-7.49,4.48-1.33.84-5.67,3.15-8.26,3.15-1.26,0-2.1-.49-2.1-1.89Zm17.85-20.16c0-.56-.42-.84-.98-.84-1.12,0-2.66,1.47-2.66,2.38,0,0,0,.91.98.91,1.47,0,2.66-1.12,2.66-2.45Z"/><path d="m352.58,50.83c0,2.03.84,2.8,2.17,2.8,3.92,0,8.05-3.36,10.99-6.79-.21-.49-.28-1.12-.28-1.68,0-3.5,2.8-7.98,4.13-7.98.7,0,1.05.49,1.05,1.33,0,1.68-1.26,4.62-3.43,7.56.49,1.82,2.24,2.03,3.08,2.03,1.54,0,3.5-.98,5.04-2.03.21-.14.35-.21.49-.21s.28.14.28.28c0,.21-.28.56-.77.84-2.38,1.54-4.13,2.17-5.46,2.17-1.96,0-3.15-.63-3.78-1.61-3.22,3.99-7.84,7.56-12.74,7.56-1.61,0-3.15-1.12-3.15-3.29,0-4.76,10.78-14.98,16.31-14.98.56,0,.91.42.91.84,0,.56-.49,1.12-1.54,1.12-5.46,0-13.3,7.21-13.3,12.04Zm14.49-5.74c1.47-2.03,2.38-3.92,2.38-4.9,0-.49-.21-.77-.63-.77-1.26,2.59-1.75,4.34-1.75,5.67Z"/><path d="m377.36,47.89c-.21.14-.49.35-.63.35s-.28-.14-.28-.28c0-.21.28-.56.77-.84,1.05-.7,2.03-1.4,2.94-2.1,0,0,4.83-3.5,8.26-5.67.35-.21,1.05-.63,1.61-.63.21,0,.35,0,.49.14.21.21.35.42.35.7,0,.49-.35,1.26-.98,2.03-.77.98-6.37,7.14-6.79,7.63-.14.14-.21.28-.21.35,0,.14.07.21.21.21.42-.21,15.61-10.08,16.31-10.5s3.99-2.73,4.34-2.94c.21-.14.49-.28.77-.28.21,0,.42.07.56.28.07.14.14.28.14.42,0,.42-.35.91-.63,1.19-6.93,7.42-8.61,10.99-8.61,12.67s1.47,1.54,1.47,1.54c1.47,0,3.92-1.33,3.92-1.33,2.17-1.05,7.35-4.06,8.19-4.76.21-.14.35-.21.49-.21s.28.14.28.28c0,.21-.28.56-.77.84,0,0-3.43,2.31-7.49,4.48-3.29,1.75-5.46,2.52-6.79,2.52-1.4,0-1.96-.7-1.96-1.75,0-3.36,5.6-10.5,6.44-11.34.35-.35.49-.7.49-.98,0-.14-.07-.21-.21-.21-.42.14-14.7,9.66-15.75,10.29-1.12.63-3.92,2.52-4.2,2.73-.21.14-.49.21-.77.21s-.49-.07-.56-.21c-.07-.07-.07-.21-.07-.35,0-.21.14-.49.63-1.12l7.42-8.68c.14-.14.21-.28.21-.42,0-.35-.14-.42-.35-.42-.35,0-.77.35-.77.35-2.73,1.68-6.93,4.9-8.47,5.81Z"/></g></g></svg>