<?xml version="1.0" encoding="UTF-8"?>
<svg id="_レイヤー_2" data-name="レイヤー 2" xmlns="http://www.w3.org/2000/svg" viewBox="0 0 55.36 61.66">
  <defs>
    <style>
      .cls-1 {
        fill: #040000;
      }

      .cls-2 {
        fill: #fff;
        stroke: #040000;
        stroke-miterlimit: 10;
        stroke-width: .5px;
      }
    </style>
  </defs>
  <g id="_レイヤー_1-2" data-name="レイヤー 1">
    <g>
      <path class="cls-1" d="m25.58,61.66l-3.17-5.48h6.33l-3.17,5.48Z"/>
      <circle class="cls-2" cx="25.29" cy="31.78" r="25.04"/>
      <g>
        <path class="cls-1" d="m34.04,5.51l2.31-5.51,1.36.57c.53.22.95.5,1.26.82.3.33.52.67.63,1.05.12.37.16.74.13,1.12s-.11.72-.24,1.04c-.18.42-.41.77-.69,1.04-.29.27-.6.48-.95.61-.35.13-.71.2-1.09.19-.37,0-.74-.09-1.1-.24l-1.62-.68Zm.53-.21l1.14.48c.33.14.67.21,1,.23.34.01.66-.04.96-.15s.58-.29.83-.53c.25-.24.45-.55.6-.92.13-.32.21-.64.22-.97.01-.33-.04-.65-.16-.96-.12-.31-.31-.6-.56-.86-.26-.26-.59-.48-1.01-.65l-1.03-.43-2,4.77Z"/>
        <path class="cls-1" d="m40.42,8.76c-.29-.19-.5-.42-.64-.68-.14-.27-.2-.56-.18-.86.02-.3.11-.59.29-.86.17-.27.4-.47.67-.61.28-.14.57-.2.88-.18.31.01.6.11.87.29.33.21.54.49.64.83.1.34.1.69,0,1.07l-3.02-.63.06-.3,2.77.57-.13.05c.04-.24.03-.48-.05-.72-.07-.24-.23-.44-.46-.59-.21-.14-.44-.21-.67-.22-.24,0-.46.04-.68.15-.21.11-.39.27-.54.49-.13.21-.21.43-.23.67-.02.24.02.47.13.69.1.22.27.41.49.55.15.1.31.16.49.2.17.03.35.04.51.02v.35c-.19.02-.39,0-.61-.04-.21-.04-.41-.13-.59-.24Z"/>
        <path class="cls-1" d="m43.8,11.37c-.25-.22-.42-.49-.51-.81-.09-.31-.1-.61-.02-.9l.21-.11-.72.8-.29-.26,4.26-4.77.29.26-2.71,3.04.11-.2c.27-.11.56-.12.87-.05.31.07.59.22.85.44.23.21.39.45.48.73.09.28.1.57.04.86-.06.29-.2.56-.42.81-.25.28-.52.46-.81.55-.29.09-.58.1-.86.03-.28-.07-.54-.21-.77-.42Zm.18-.3c.21.19.43.3.67.35.23.05.46.03.68-.05.22-.08.43-.22.61-.42.17-.19.28-.4.33-.63.05-.23.05-.47-.02-.7-.07-.23-.21-.44-.41-.62-.17-.15-.36-.26-.57-.32s-.42-.07-.62-.03c-.21.04-.39.12-.57.25l-.34.38c-.12.17-.2.36-.22.58-.03.22,0,.43.08.65.08.22.21.41.39.57Z"/>
        <path class="cls-1" d="m46.35,14.05c-.2-.24-.28-.49-.26-.75.02-.26.14-.49.36-.68l1.85-1.52.25.31-1.76,1.45c-.16.14-.25.31-.28.5-.03.19.03.38.19.58.13.16.3.28.51.35.2.07.42.09.64.06.22-.03.43-.13.62-.29l1.35-1.11.25.31-2.54,2.09-.22-.27.77-.69-.14.19c-.17.06-.35.08-.54.06-.2-.02-.39-.08-.57-.19-.18-.1-.34-.23-.48-.4Z"/>
        <path class="cls-1" d="m52.44,14.16l.22.34-1.26.8.55.86-.27.17-.55-.86-2.47,1.58-.22-.34,2.47-1.58-.38-.59.27-.17.38.59,1.26-.8Z"/>
        <path class="cls-1" d="m49.84,18.72c-.04-.08-.05-.16-.03-.24.02-.08.07-.14.15-.19.07-.04.14-.04.23-.02.08.03.14.08.18.16.04.08.05.16.03.24-.02.08-.07.14-.14.18-.08.04-.16.05-.23.02-.08-.02-.14-.08-.18-.16Zm5.34-3.08l.17.32-4.3,2.3-.17-.32,4.3-2.3Z"/>
      </g>
      <g>
        <path class="cls-1" d="m7.42,30.08l.55-.41c.16.3.37.42.6.42.36,0,.54-.19.54-.75v-2.68h.81v2.75c0,.76-.38,1.39-1.25,1.39-.59,0-.99-.24-1.25-.71Z"/>
        <path class="cls-1" d="m10.83,27.64h.66l.06.54h.02c.22-.4.55-.62.87-.62.17,0,.27.03.36.07l-.14.7c-.11-.03-.2-.05-.32-.05-.24,0-.53.16-.7.6v1.83h-.81v-3.07Z"/>
        <path class="cls-1" d="m13.18,30.26c0-.3.21-.53.5-.53s.5.22.5.53-.21.53-.5.53-.5-.23-.5-.53Z"/>
        <path class="cls-1" d="m19.06,26.74v.29h.66c.17,0,.32-.02.46-.05l.45.44c-.14.14-.31.32-.43.45-.28.32-.7.73-1.15,1.07,0,.44,0,1.04,0,1.38,0,.22.02.53.04.7h-.79c.02-.15.04-.48.04-.7v-.94c-.5.27-1.09.49-1.68.67l-.42-.65c1.06-.24,1.76-.61,2.23-.91.42-.27.76-.59.92-.82h-1.98c-.2,0-.54,0-.71.02v-.72c.21.03.51.04.7.04h.95v-.29c0-.17-.01-.37-.03-.5h.78c-.02.13-.03.33-.03.5Zm.33,2.5l.46-.53c.5.27.79.43,1.31.79l-.46.6c-.48-.38-.83-.61-1.31-.87Z"/>
        <path class="cls-1" d="m24.14,27.6c.56-.35,1.19-.9,1.54-1.33l.59.56c-.42.41-.94.84-1.47,1.19v2.21c0,.24.01.58.05.72h-.87c.02-.13.04-.48.04-.72v-1.75c-.56.3-1.26.59-1.93.79l-.34-.69c.98-.25,1.79-.61,2.39-.98Z"/>
        <path class="cls-1" d="m28.72,26.93v1.85c0,.14,0,.35.02.48h-.79c0-.1.03-.32.03-.48v-1.85c0-.1,0-.3-.02-.42h.79c-.01.13-.02.25-.02.42Zm2.54.08v1.08c0,1.18-.23,1.69-.64,2.14-.36.39-.93.66-1.33.79l-.57-.6c.54-.13.99-.33,1.31-.69.38-.41.45-.82.45-1.68v-1.04c0-.22-.01-.39-.03-.55h.83c-.01.15-.02.33-.02.55Z"/>
        <path class="cls-1" d="m36.73,27.34c-.19.43-.49,1.01-.86,1.51.54.47,1.21,1.17,1.53,1.57l-.62.54c-.36-.49-.87-1.05-1.38-1.55-.58.61-1.31,1.18-2.06,1.54l-.56-.59c.88-.33,1.73-1,2.25-1.57.36-.41.7-.95.82-1.34h-1.86c-.23,0-.53.03-.65.04v-.78c.15.02.48.04.65.04h1.93c.24,0,.46-.03.56-.07l.45.33c-.04.06-.14.23-.19.34Z"/>
        <path class="cls-1" d="m39.54,27.04c0-.19-.02-.47-.05-.66h.85c-.02.19-.05.43-.05.66v.81c.73.21,1.79.6,2.29.85l-.31.76c-.56-.3-1.39-.61-1.98-.82v1.55c0,.16.03.54.05.77h-.85c.03-.22.05-.55.05-.77v-3.15Z"/>
        <path class="cls-1" d="m15.27,37.59h3.59c.11,0,.36-.01.5-.03v.71c-.14-.01-.34-.02-.5-.02h-1.32c-.03.56-.15,1.02-.35,1.41-.19.38-.61.81-1.1,1.05l-.64-.47c.39-.15.77-.46.99-.78.22-.34.32-.75.34-1.21h-1.51c-.16,0-.37.01-.53.02v-.72c.16.02.36.03.53.03Zm.7-1.39h1.79c.19,0,.41-.02.59-.04v.71c-.19-.01-.4-.02-.59-.02h-1.79c-.19,0-.42,0-.59.02v-.71c.17.03.4.04.59.04Zm3.14.33l-.44.19c-.12-.22-.29-.55-.43-.76l.44-.18c.14.2.33.55.43.75Zm.66-.25l-.44.19c-.12-.23-.29-.55-.44-.76l.43-.18c.14.21.35.55.44.75Z"/>
        <path class="cls-1" d="m21.46,36.66v1.04c.65-.16,1.41-.4,1.9-.61.2-.08.38-.16.6-.3l.3.7c-.21.09-.46.19-.64.26-.55.22-1.44.49-2.15.67v1.01c0,.24.11.3.36.35.16.02.39.03.64.03.57,0,1.46-.07,1.91-.19v.8c-.52.08-1.35.11-1.95.11-.36,0-.69-.02-.92-.06-.48-.09-.75-.35-.75-.82v-2.99c0-.12-.02-.41-.04-.57h.81c-.03.16-.04.42-.04.57Zm2.84-.05l-.44.19c-.11-.22-.28-.55-.43-.76l.43-.18c.14.2.33.55.44.75Zm.65-.25l-.43.19c-.12-.23-.29-.55-.44-.76l.43-.18c.15.2.35.55.44.75Z"/>
        <path class="cls-1" d="m29.4,37.9c-.04.32-.19,1.27-.27,1.79h.35c.14,0,.39,0,.54-.02v.71c-.11,0-.38-.02-.53-.02h-2.88c-.2,0-.33,0-.54.02v-.71c.15.02.35.03.54.03h1.78c.08-.47.2-1.24.21-1.55h-1.48c-.18,0-.39.02-.55.03v-.72c.14.02.39.03.54.03h1.4c.12,0,.34-.02.41-.06l.53.26c-.03.07-.04.18-.06.23Z"/>
        <path class="cls-1" d="m32.15,37.78h2.94c.26,0,.5-.02.64-.03v.86c-.13,0-.41-.03-.64-.03h-2.94c-.31,0-.68.01-.88.03v-.86c.2.02.6.03.88.03Z"/>
      </g>
    </g>
  </g>
</svg>