<?xml version="1.0" encoding="UTF-8"?><svg id="_レイヤー_2" xmlns="http://www.w3.org/2000/svg" viewBox="0 0 470.18 79.32"><g id="_レイヤー_1-2"><g><path d="m39.55,37.73c-9.1,8.82-19.74,16.17-28.28,16.17-7.77,0-11.27-4.13-11.27-10.08C0,28.21,23.94,0,58.95,0c11.48,0,16.31,3.99,16.31,9.24,0,8.75-13.37,21.07-31.36,24.15l-3.29,3.36c6.79,2.52,17.08,7.98,17.85,17.36,0,1.12-.14,1.47-1.4,1.47-1.12,0-1.26-.35-1.47-1.68-.07-1.26-2.45-10.64-16.03-16.17Zm5.46-7.21c5.88-6.93,10.36-13.65,12.25-17.08,0,0,.28-.35.56-.35s.49.42.49.63c0,.14,0,.28-.07.49-2.24,4.2-6.3,10.01-11.34,15.82,14.84-4.06,24.99-14,24.99-21.14,0-4.62-4.2-8.05-13.93-8.05C26.6.84,1.96,28.91,1.96,43.61c0,5.18,3.08,8.75,10.08,8.75,8.89,0,18.48-6.79,26.6-14.91-1.75-.7-3.71-1.26-5.81-1.82-3.36-.63-4.69-1.4-4.69-2.1,0-.91,2.38-1.68,5.04-1.68,4.13,0,8.12-.49,11.83-1.33Zm-5.39,5.88c.91-.91,1.82-1.82,2.66-2.8-2.31.35-4.62.49-7,.49-.56.07-.77.28-.77.49s.14.35.49.42c.63.14,2.38.56,4.62,1.4Z"/><path d="m86.1,34.51c0,2.8-9.52,9.31-18.34,10.57-.42.91-.63,1.75-.63,2.45,0,.49.07,3.5,4.06,3.5,1.89,0,4.62-.63,8.68-2.59,2.17-1.05,7.35-4.06,8.19-4.76.21-.14.35-.21.49-.21s.28.14.28.28c0,.21-.28.56-.77.84,0,0-3.43,2.31-7.49,4.48-2.38,1.26-7.77,3.5-11.62,3.5-2.45,0-4.34-.91-4.34-3.57,0-5.32,11.2-15.75,19.04-15.75,1.75,0,2.45.49,2.45,1.26Zm-17.92,9.87c6.72-1.19,15.61-7,15.61-9.17,0-.49-.49-.84-1.68-.84-4.62,0-11.34,5.53-13.93,10.01Z"/><path d="m95.55,51.04c1.89,0,4.62-.63,8.68-2.59,2.17-1.05,7.35-4.06,8.19-4.76.21-.14.35-.21.49-.21s.28.14.28.28c0,.21-.28.56-.77.84,0,0-3.43,2.31-7.49,4.48-2.38,1.26-7.77,3.5-11.62,3.5-2.45,0-4.34-.91-4.34-3.57,0-5.32,11.34-14.7,19.18-14.7,1.33,0,2.31.7,2.31,1.75,0,1.4-1.96,4.06-6.09,5.95-.14.07-.35.14-.63.14-.35,0-.98-.21-.98-.7,0-.35.28-.77.7-.98.63-.35,4.55-2.94,4.55-4.34,0-.42-.42-.7-1.4-.7-5.74,0-15.12,7.7-15.12,12.11,0,.49.07,3.5,4.06,3.5Z"/><path d="m134.82,34.51c0,2.8-9.52,9.31-18.34,10.57-.42.91-.63,1.75-.63,2.45,0,.49.07,3.5,4.06,3.5,1.89,0,4.62-.63,8.68-2.59,2.17-1.05,7.35-4.06,8.19-4.76.21-.14.35-.21.49-.21s.28.14.28.28c0,.21-.28.56-.77.84,0,0-3.43,2.31-7.49,4.48-2.38,1.26-7.77,3.5-11.62,3.5-2.45,0-4.34-.91-4.34-3.57,0-5.32,11.2-15.75,19.04-15.75,1.75,0,2.45.49,2.45,1.26Zm-17.92,9.87c6.72-1.19,15.61-7,15.61-9.17,0-.49-.49-.84-1.68-.84-4.62,0-11.34,5.53-13.93,10.01Z"/><path d="m138.88,45.5c-.21.14-.49.35-.63.35s-.28-.14-.28-.28c0-.21.28-.56.77-.84,1.05-.7,2.03-1.4,2.94-2.1,0,0,4.83-3.5,8.26-5.67.35-.21,1.05-.63,1.61-.63.21,0,.35,0,.49.14.21.21.35.42.35.7,0,.49-.35,1.26-.98,2.03-.77.98-6.37,7.14-6.79,7.63-.14.14-.21.28-.21.35,0,.14.07.21.21.21.42-.21,15.61-10.08,16.31-10.5s3.99-2.73,4.34-2.94c.21-.14.49-.28.77-.28.21,0,.42.07.56.28.07.14.14.28.14.42,0,.42-.35.91-.63,1.19-6.93,7.42-8.61,10.99-8.61,12.67s1.47,1.54,1.47,1.54c1.47,0,3.92-1.33,3.92-1.33,2.17-1.05,7.35-4.06,8.19-4.76.21-.14.35-.21.49-.21s.28.14.28.28c0,.21-.28.56-.77.84,0,0-3.43,2.31-7.49,4.48-3.29,1.75-5.46,2.52-6.79,2.52-1.4,0-1.96-.7-1.96-1.75,0-3.36,5.6-10.5,6.44-11.34.35-.35.49-.7.49-.98,0-.14-.07-.21-.21-.21-.42.14-14.7,9.66-15.75,10.29-1.12.63-3.92,2.52-4.2,2.73-.21.14-.49.21-.77.21s-.49-.07-.56-.21c-.07-.07-.07-.21-.07-.35,0-.21.14-.49.63-1.12l7.42-8.68c.14-.14.21-.28.21-.42,0-.35-.14-.42-.35-.42-.35,0-.77.35-.77.35-2.73,1.68-6.93,4.9-8.47,5.81Z"/><path d="m191.17,23.52c5.39-5.39,9.94-9.38,10.92-9.38.21,0,.35,0,.49.14.14.14.21.28.21.49,0,1.47-2.52,4.83-6.09,8.82,7.84.14,15.61.28,15.96.28.21,0,.42.14.42.42,0,.63,0,1.05-1.82,1.19-2.17,0-9.24-.07-16.17-.14-7.07,7.56-16.94,16.66-20.37,19.25-.91,1.68-1.4,3.15-1.4,4.27,0,.91.7,1.19,1.61,1.19,2.1,0,5.53-1.54,5.32-1.4,2.1-1.12,7.35-4.06,8.19-4.76.21-.14.35-.21.49-.21s.28.14.28.28c0,.21-.28.56-.77.84,0,0-2.66,1.82-6.09,3.71-3.78,2.1-6.93,3.36-8.89,3.36-1.47,0-2.31-.7-2.31-2.17,0-4.2,9.73-15.68,18.34-24.5-5.32-.14-9.52-.14-9.66-.14-.63,0-.84-.49-.84-.98.07-.49.56-.77,1.19-.84,0,0,4.97.14,10.99.28Zm-15.33,19.18c3.36-2.52,11.97-10.92,17.78-17.43h-2.94c-5.18,5.25-11.41,12.04-14.84,17.43Zm16.59-19.18c.91,0,1.75,0,2.73.07,2.45-2.87,4.2-5.18,4.2-6.02,0-.14-.07-.21-.14-.21-.35,0-3.15,2.52-6.79,6.16Z"/><path d="m218.68,51.04c1.89,0,4.62-.63,8.68-2.59,2.17-1.05,7.35-4.06,8.19-4.76.21-.14.35-.21.49-.21s.28.14.28.28c0,.21-.28.56-.77.84,0,0-3.43,2.31-7.49,4.48-2.38,1.26-7.77,3.5-11.62,3.5-2.45,0-4.34-.91-4.34-3.57,0-5.32,11.34-14.7,19.18-14.7,1.33,0,2.31.7,2.31,1.75,0,1.4-1.96,4.06-6.09,5.95-.14.07-.35.14-.63.14-.35,0-.98-.21-.98-.7,0-.35.28-.77.7-.98.63-.35,4.55-2.94,4.55-4.34,0-.42-.42-.7-1.4-.7-5.74,0-15.12,7.7-15.12,12.11,0,.49.07,3.5,4.06,3.5Z"/><path d="m236.38,48.87c-.07.07-.14.14-.14.21s.07.14.21.14c.56-.07,15.75-10.71,17.57-10.71.14,0,.28.07.35.14.07.07.14.21.14.35,0,1.96-7.49,7.84-7.49,10.57,0,.7.56.98,1.26.98,1.75,0,4.69-1.47,5.74-2.1,2.17-1.05,7.35-4.06,8.19-4.76.21-.14.35-.21.49-.21s.28.14.28.28c0,.21-.28.56-.77.84,0,0-3.43,2.31-7.49,4.48-1.4.91-6.09,3.15-8.61,3.15-1.05,0-1.68-.42-1.68-1.33,0-2.94,7.7-9.94,7.7-10.29,0-.14-.07-.21-.28-.21-.56,0-15.12,9.59-15.96,10.22l-2.87,1.75c-.14.14-.42.21-.56.21s-.21-.07-.28-.21c-.07-.07-.07-.21-.07-.28,0-.21.14-.42.35-.7.35-.49,4.9-5.74,5.04-5.95,13.3-16.31,33.6-40.11,38.85-40.11.56,0,.98.21.98.84,0,5.11-24.15,25.9-33.67,33.95l-7.28,8.75Zm38.22-41.87c-2.87.07-23.17,23.59-27.93,29.47,7.42-6.09,28-24.64,28.07-29.05,0-.21-.07-.35-.14-.42Z"/><path d="m287,48.51c-2.38,1.26-6.72,3.92-9.38,3.92-.98,0-1.61-.42-1.61-1.47,0-1.47,1.33-3.78,1.47-4.06,0-.07-.07-.14-.14-.14-.7,0-7,5.32-11.83,5.32-2.1,0-3.08-.84-3.08-2.17,0-4.83,12.11-16.1,21.63-16.1,3.29,0,4.06.98,4.06,2.03,0,2.31-4.62,5.11-6.93,5.95-.14.07-.28.07-.42.07-.49,0-.84-.35-1.05-.7-.07-.14-.14-.28-.14-.42,0-.21.14-.35.56-.56.21-.07,5.67-2.59,5.67-4.41,0-.7-.63-1.26-1.68-1.26-8.68,0-19.18,9.8-19.18,14,0,1.12.77,1.89,2.59,1.89,3.92,0,11.41-5.39,12.46-7,.35-.49.7-.63.98-.63.21,0,.56.14.56.42,0,.42-.7,1.12-1.47,2.24-.35.49-1.26,2.45-1.26,3.92,0,.84.49,1.12,1.19,1.12,1.82,0,5.18-1.96,4.9-1.82,2.1-1.12,7.35-4.06,8.19-4.76.21-.14.35-.21.49-.21s.28.14.28.28c0,.21-.28.56-.77.84,0,0-2.66,1.82-6.09,3.71Z"/><path d="m300.79,50.96c2.94,0,6.79-2.1,7.28-2.38,2.1-1.12,7.35-4.06,8.19-4.76.21-.14.35-.21.49-.21s.28.14.28.28c0,.21-.28.56-.77.84-.98.49-6.09,4.2-11.69,6.37-1.82.7-3.71,1.19-5.25,1.19-2.52,0-4.41-1.12-4.41-3.92,0-12.25,37.45-45.43,46.21-45.43,1.19,0,2.17.56,2.17,1.82,0,7.7-28.77,31.15-45.37,39.97-.35,1.05-.56,2.03-.56,2.8.21,2.73,1.68,3.43,3.43,3.43Zm39.13-46.55c-6.86,0-35.28,25.69-41.37,38.92,13.16-6.3,42.35-31.92,42.35-37.87,0-.63-.28-1.05-.98-1.05Z"/><path d="m323.81,50.96c2.94,0,6.79-2.1,7.28-2.38,2.1-1.12,7.35-4.06,8.19-4.76.21-.14.35-.21.49-.21s.28.14.28.28c0,.21-.28.56-.77.84-.98.49-6.09,4.2-11.69,6.37-1.82.7-3.71,1.19-5.25,1.19-2.52,0-4.41-1.12-4.41-3.92,0-12.25,37.45-45.43,46.21-45.43,1.19,0,2.17.56,2.17,1.82,0,7.7-28.77,31.15-45.37,39.97-.35,1.05-.56,2.03-.56,2.8.21,2.73,1.68,3.43,3.43,3.43Zm39.13-46.55c-6.86,0-35.28,25.69-41.37,38.92,13.16-6.3,42.35-31.92,42.35-37.87,0-.63-.28-1.05-.98-1.05Z"/><path d="m361.83,34.51c0,2.8-9.52,9.31-18.34,10.57-.42.91-.63,1.75-.63,2.45,0,.49.07,3.5,4.06,3.5,1.89,0,4.62-.63,8.68-2.59,2.17-1.05,7.35-4.06,8.19-4.76.21-.14.35-.21.49-.21s.28.14.28.28c0,.21-.28.56-.77.84,0,0-3.43,2.31-7.49,4.48-2.38,1.26-7.77,3.5-11.62,3.5-2.45,0-4.34-.91-4.34-3.57,0-5.32,11.2-15.75,19.04-15.75,1.75,0,2.45.49,2.45,1.26Zm-17.92,9.87c6.72-1.19,15.61-7,15.61-9.17,0-.49-.49-.84-1.68-.84-4.62,0-11.34,5.53-13.93,10.01Z"/><path d="m365.88,45.5c-.21.14-.49.35-.63.35s-.28-.14-.28-.28c0-.21.28-.56.77-.84,1.05-.7,2.03-1.4,2.94-2.1,0,0,4.83-3.5,8.26-5.67.35-.21,1.05-.63,1.61-.63.21,0,.35,0,.49.14.21.21.35.42.35.7,0,.49-.35,1.26-.98,2.03-.77.98-6.37,7.14-6.79,7.63-.14.14-.21.28-.21.35,0,.14.07.21.21.21.42-.21,15.61-10.08,16.31-10.5s3.99-2.73,4.34-2.94c.21-.14.49-.28.77-.28.21,0,.42.07.56.28.07.14.14.28.14.42,0,.42-.35.91-.63,1.19-6.93,7.42-8.61,10.99-8.61,12.67s1.47,1.54,1.47,1.54c1.47,0,3.92-1.33,3.92-1.33,2.17-1.05,7.35-4.06,8.19-4.76.21-.14.35-.21.49-.21s.28.14.28.28c0,.21-.28.56-.77.84,0,0-3.43,2.31-7.49,4.48-3.29,1.75-5.46,2.52-6.79,2.52-1.4,0-1.96-.7-1.96-1.75,0-3.36,5.6-10.5,6.44-11.34.35-.35.49-.7.49-.98,0-.14-.07-.21-.21-.21-.42.14-14.7,9.66-15.75,10.29-1.12.63-3.92,2.52-4.2,2.73-.21.14-.49.21-.77.21s-.49-.07-.56-.21c-.07-.07-.07-.21-.07-.35,0-.21.14-.49.63-1.12l7.42-8.68c.14-.14.21-.28.21-.42,0-.35-.14-.42-.35-.42-.35,0-.77.35-.77.35-2.73,1.68-6.93,4.9-8.47,5.81Z"/><path d="m402.14,45.01c-1.26,1.47-2.03,2.8-2.03,3.78,0,1.26.84,1.68,1.96,1.68,2.59,0,6.93-2.31,7.84-2.87,2.66-1.61,4.76-3.15,5.25-3.57.56-.42.91-.56,1.19-.56.35,0,.49.35.49.63,0,.14,0,.28-.07.35-.21.49-2.1,2.59-2.73,3.29l-3.36,3.85c1.82-.98,3.64-2.03,5.53-2.94,2.31-1.19,7.21-4.13,8.05-4.83.21-.14.35-.21.49-.21s.28.14.28.28c0,.21-.28.56-.77.84-.7.35-3.64,2.45-7.35,4.41-2.94,1.61-5.6,3.08-8.05,4.55-9.87,11.48-22.12,25.62-23.52,25.62-.63,0-1.26-.49-1.26-2.31,0-6.23,11.41-16.31,24.15-23.94,1.96-2.31,3.78-4.62,5.32-6.65.14-.14.21-.28.21-.35s-.07-.07-.14-.07-.14,0-.21.07c-1.33.98-9.24,6.23-13.3,6.23-1.47,0-2.45-.7-2.45-2.52,0-4.55,12.53-14.7,19.6-14.7,1.05,0,1.33.21,1.33.98,0,1.61-9.52,5.74-16.45,8.96Zm4.27,10.22c-17.64,11.27-20.58,18.83-20.58,21.21,0,.28.07.42.35.42,1.26-.07,11.55-11.27,20.23-21.63Zm-3.01-11.62c5.88-2.8,13.3-5.95,13.3-7,0-.35-.28-.63-.91-.63-2.66,0-8.61,3.92-12.39,7.63Z"/><path d="m446.87,34.51c0,2.8-9.52,9.31-18.34,10.57-.42.91-.63,1.75-.63,2.45,0,.49.07,3.5,4.06,3.5,1.89,0,4.62-.63,8.68-2.59,2.17-1.05,7.35-4.06,8.19-4.76.21-.14.35-.21.49-.21s.28.14.28.28c0,.21-.28.56-.77.84,0,0-3.43,2.31-7.49,4.48-2.38,1.26-7.77,3.5-11.62,3.5-2.45,0-4.34-.91-4.34-3.57,0-5.32,11.2-15.75,19.04-15.75,1.75,0,2.45.49,2.45,1.26Zm-17.92,9.87c6.72-1.19,15.61-7,15.61-9.17,0-.49-.49-.84-1.68-.84-4.62,0-11.34,5.53-13.93,10.01Z"/><path d="m450.16,45.85c-.14,0-.28-.14-.28-.28,0-.21.28-.56.77-.84l2.45-1.68c.49-.35,2.94-2.1,5.74-4.2-.07-.35-.07-.63-.07-.98,0-4.34,7.07-9.66,10.36-9.66.77,0,1.05.49,1.05.91,0,1.89-5.04,6.02-9.59,9.45.7,3.78,3.01,6.37,3.01,10.43,0,2.8-2.66,4.13-5.67,4.13-2.31,0-4.76-.77-6.44-2.38-.21-.21-.28-.56-.28-.77s.07-.28.21-.28.35.07.7.35c1.89,1.47,3.64,2.03,5.18,2.03,2.52,0,4.2-1.61,4.2-3.71,0-2.31-1.89-5.53-2.52-8.61-2.66,1.96-4.97,3.57-5.39,3.92-.7.56-3.08,2.17-3.43,2.17Zm17.08-15.75c-2.31,0-6.79,3.64-6.79,6.37v1.12c3.71-2.87,7.42-6.02,7.42-6.93,0-.28-.14-.56-.63-.56Z"/></g></g></svg>