<?xml version="1.0" encoding="UTF-8"?>
<svg id="_レイヤー_2" data-name="レイヤー 2" xmlns="http://www.w3.org/2000/svg" xmlns:xlink="http://www.w3.org/1999/xlink" viewBox="0 0 949.97 313.29">
  <defs>
    <style>
      .cls-1 {
        stroke: #407038;
      }

      .cls-1, .cls-2, .cls-3, .cls-4 {
        fill: none;
        stroke-miterlimit: 10;
        stroke-width: .5px;
      }

      .cls-5 {
        fill: url(#_名称未設定グラデーション_2);
      }

      .cls-5, .cls-6, .cls-7, .cls-8, .cls-9, .cls-10, .cls-11, .cls-12, .cls-13, .cls-14, .cls-15, .cls-16 {
        stroke-width: 0px;
      }

      .cls-2 {
        stroke: #e50012;
      }

      .cls-6 {
        fill: #0068b6;
      }

      .cls-3 {
        stroke: #0068b6;
      }

      .cls-7 {
        fill: #282828;
      }

      .cls-8 {
        fill: url(#_名称未設定グラデーション_40);
      }

      .cls-9 {
        fill: #407038;
      }

      .cls-10 {
        fill: url(#_名称未設定グラデーション_37);
      }

      .cls-11 {
        fill: #f6b22c;
      }

      .cls-12 {
        fill: url(#_名称未設定グラデーション_34);
      }

      .cls-13 {
        fill: #fff;
      }

      .cls-14 {
        fill: #e50012;
      }

      .cls-15 {
        fill: url(#_名称未設定グラデーション_28);
      }

      .cls-4 {
        stroke: #f6b22c;
      }

      .cls-16 {
        fill: #9e9e9f;
      }
    </style>
    <linearGradient id="_名称未設定グラデーション_2" data-name="名称未設定グラデーション 2" x1="474.56" y1="128.07" x2="474.56" y2="82.1" gradientUnits="userSpaceOnUse">
      <stop offset="0" stop-color="#dbdcdc"/>
      <stop offset="1" stop-color="#eeeeef"/>
    </linearGradient>
    <linearGradient id="_名称未設定グラデーション_28" data-name="名称未設定グラデーション 28" x1="13.59" y1="105.08" x2="347.65" y2="105.08" gradientUnits="userSpaceOnUse">
      <stop offset="0" stop-color="#0068b6"/>
      <stop offset="0" stop-color="#0067b5"/>
      <stop offset=".42" stop-color="#006696"/>
      <stop offset=".76" stop-color="#006582"/>
      <stop offset="1" stop-color="#00657c"/>
    </linearGradient>
    <linearGradient id="_名称未設定グラデーション_34" data-name="名称未設定グラデーション 34" x1="321.38" y1="105.08" x2="505.93" y2="105.08" gradientUnits="userSpaceOnUse">
      <stop offset="0" stop-color="#407038"/>
      <stop offset=".32" stop-color="#6d8829"/>
      <stop offset=".61" stop-color="#8f9a1f"/>
      <stop offset=".84" stop-color="#a3a519"/>
      <stop offset="1" stop-color="#aba917"/>
    </linearGradient>
    <linearGradient id="_名称未設定グラデーション_37" data-name="名称未設定グラデーション 37" x1="468.13" y1="105.08" x2="830.14" y2="105.08" gradientUnits="userSpaceOnUse">
      <stop offset="0" stop-color="#f6b22c"/>
      <stop offset=".41" stop-color="#f0911e"/>
      <stop offset=".76" stop-color="#ec7d15"/>
      <stop offset="1" stop-color="#eb7612"/>
    </linearGradient>
    <linearGradient id="_名称未設定グラデーション_40" data-name="名称未設定グラデーション 40" x1="791.02" y1="105.08" x2="939.28" y2="105.08" gradientUnits="userSpaceOnUse">
      <stop offset="0" stop-color="#e50012"/>
      <stop offset=".38" stop-color="#c80f1a"/>
      <stop offset=".75" stop-color="#b41a20"/>
      <stop offset="1" stop-color="#ad1e23"/>
    </linearGradient>
  </defs>
  <g id="_レイヤー_1-2" data-name="レイヤー 1">
    <g>
      <g>
        <path class="cls-6" d="M64.68,283.82l-7.44,24.76h-7.44l5.85-19.61c-.78.28-1.62.55-2.53.8-.91.25-2.04.55-3.42.89l.14-.98c2.37-.56,4.41-1.17,6.11-1.83s3.17-1.33,4.4-2.04c1.23-.7,2.36-1.36,3.39-1.99h.94Z"/>
        <path class="cls-6" d="M67.53,308.22c.14.07.28.12.43.14.15.03.32.04.53.04.59,0,1.08-.19,1.46-.56.38-.37.57-.89.57-1.55,0-.59-.13-1.19-.39-1.81-.26-.61-.62-1.28-1.09-1.99-.42-.64-.78-1.26-1.1-1.86-.32-.6-.48-1.27-.48-2.01s.19-1.41.57-1.99c.38-.58.94-1.04,1.66-1.38.73-.34,1.63-.51,2.7-.51.69,0,1.36.08,2,.25.64.16,1.17.45,1.59.84.42.4.62.98.62,1.74,0,.31-.06.64-.18.98-.12.34-.31.62-.56.83-.25.22-.58.32-.97.32-.47,0-.84-.18-1.12-.55-.28-.36-.42-.84-.42-1.43,0-.5.09-.95.26-1.35.17-.4.36-.71.55-.94-.17-.1-.43-.16-.78-.16-.61,0-1.08.18-1.4.55s-.5.89-.52,1.59c0,.38.07.76.22,1.13.15.37.34.75.57,1.12.23.37.48.78.74,1.21.55.92.95,1.69,1.2,2.3.24.62.36,1.23.36,1.83,0,.73-.2,1.39-.58,1.98-.39.59-.96,1.06-1.72,1.42-.75.35-1.67.53-2.74.53-.78,0-1.52-.1-2.21-.29-.69-.19-1.26-.52-1.69-.99-.43-.47-.65-1.1-.65-1.9,0-.57.14-1.06.43-1.47.29-.41.68-.61,1.18-.61s.87.2,1.16.6c.29.4.43.92.43,1.56,0,.49-.08.94-.23,1.36-.16.43-.29.76-.39,1Z"/>
        <path class="cls-6" d="M81.39,306.37c-.12.4-.12.7,0,.9.12.2.31.3.57.3.35,0,.7-.19,1.05-.56.35-.37.65-.89.9-1.55l.42-1.09h.49l-.49,1.48c-.35,1.01-.86,1.77-1.55,2.3s-1.51.79-2.48.79c-.83,0-1.47-.2-1.92-.58-.45-.39-.72-.91-.81-1.56s-.02-1.37.21-2.17l3.85-13.36c.85-.02,1.61-.05,2.29-.1s1.33-.14,1.98-.26l-4.5,15.47ZM87.42,295.11l-.08.52h-9.33l.13-.52h9.28Z"/>
        <path class="cls-6" d="M109.21,289.99c-.17.45-.4,1.1-.69,1.96-.29.86-.57,1.97-.84,3.34h-.52c.05-.24.09-.49.12-.75.03-.26.04-.49.04-.68,0-.71-.14-1.31-.43-1.81-.29-.49-.71-.88-1.26-1.17-.56-.29-1.23-.43-2.03-.43s-1.52.21-2.11.62-.88,1.1-.88,2.05c0,.61.14,1.19.43,1.76.29.56.66,1.12,1.12,1.66.46.55.94,1.1,1.44,1.65.5.55.98,1.12,1.43,1.69.45.57.82,1.17,1.11,1.81.29.63.43,1.3.43,2.01,0,.95-.24,1.76-.71,2.42-.48.66-1.09,1.2-1.85,1.61-.75.42-1.56.72-2.41.91-.85.19-1.65.29-2.39.29-.87,0-1.57-.05-2.12-.14-.55-.1-1.02-.23-1.42-.42-.4-.18-.82-.39-1.25-.64-.17-.12-.34-.22-.49-.29-.16-.07-.29-.1-.39-.1-.23,0-.41.1-.55.3-.14.2-.33.57-.57,1.1h-.52c.16-.38.32-.82.49-1.33.17-.5.36-1.15.57-1.94.21-.79.44-1.78.7-2.98h.52c-.07.28-.13.61-.18.99-.05.38-.07.74-.05,1.07.05,1.25.45,2.19,1.18,2.83.74.64,1.75.96,3.05.96,1.2,0,2.03-.24,2.5-.72.47-.48.7-1.1.7-1.86s-.13-1.4-.38-2.03c-.25-.62-.58-1.21-1-1.75-.42-.55-.85-1.08-1.3-1.61-.45-.53-.88-1.07-1.3-1.61-.42-.55-.75-1.13-1.01-1.74-.26-.61-.39-1.29-.39-2.01,0-.9.2-1.68.61-2.33.41-.65.94-1.19,1.61-1.62.67-.43,1.39-.75,2.16-.96.77-.21,1.52-.31,2.25-.31,1.13,0,2.03.14,2.72.42.68.28,1.23.53,1.62.75.16.09.32.17.48.26.17.09.29.13.38.13.24,0,.53-.46.86-1.38h.52Z"/>
        <path class="cls-6" d="M112.92,306.37c-.12.4-.12.7,0,.9.12.2.31.3.57.3.35,0,.7-.19,1.05-.56.35-.37.65-.89.9-1.55l.42-1.09h.49l-.49,1.48c-.35,1.01-.86,1.77-1.55,2.3s-1.51.79-2.48.79c-.83,0-1.47-.2-1.92-.58-.45-.39-.72-.91-.81-1.56s-.02-1.37.21-2.17l3.85-13.36c.85-.02,1.61-.05,2.29-.1s1.33-.14,1.98-.26l-4.5,15.47ZM118.95,295.11l-.08.52h-9.33l.13-.52h9.28Z"/>
        <path class="cls-6" d="M121.4,303.04c.64-.28,1.26-.59,1.85-.95.59-.35,1.11-.74,1.56-1.16.68-.64,1.23-1.38,1.66-2.22.43-.84.65-1.75.65-2.72,0-.29-.03-.49-.1-.6s-.17-.16-.31-.16c-.36,0-.76.19-1.2.58-.43.39-.86.91-1.27,1.56-.42.65-.79,1.39-1.13,2.21-.34.82-.61,1.67-.82,2.55-.21.88-.31,1.73-.31,2.56,0,.99.2,1.66.58,2,.39.35.9.52,1.52.52.4,0,.95-.14,1.64-.43.69-.29,1.38-.8,2.05-1.55l.42.21c-.36.57-.85,1.13-1.46,1.66-.61.54-1.32.98-2.13,1.31-.82.34-1.72.51-2.7.51-.8,0-1.52-.14-2.17-.42-.65-.28-1.17-.69-1.55-1.24-.38-.55-.57-1.22-.57-2.01,0-.97.16-1.95.47-2.94.31-.99.75-1.94,1.33-2.85.57-.91,1.26-1.72,2.07-2.43.81-.71,1.69-1.27,2.67-1.69.97-.42,2.02-.62,3.15-.62.83,0,1.53.18,2.11.53.57.36.86.91.86,1.65,0,.66-.18,1.28-.55,1.86-.36.58-.85,1.11-1.47,1.6-.62.49-1.31.92-2.08,1.3-.77.38-1.56.71-2.38.99-.82.28-1.61.49-2.39.65l.03-.29Z"/>
        <path class="cls-6" d="M135.26,291.55c.81-.07,1.58-.18,2.29-.32.71-.15,1.4-.32,2.05-.53l-5.56,19.73c-.26.95-.22,1.57.13,1.86.35.29.96.44,1.85.45l-.16.55c-.43-.02-1.04-.04-1.82-.06-.78-.03-1.61-.04-2.5-.04-.75,0-1.49.01-2.24.04-.75.03-1.31.05-1.69.06l.16-.55c.62,0,1.07-.12,1.35-.35.28-.23.5-.65.68-1.26l5.46-19.58ZM130.34,299.53c.62-.68,1.21-1.35,1.74-2.03s1.06-1.48,1.57-2.41c.51-.93,1.04-2.08,1.57-3.47l.08.42c-.36,1.2-.79,2.26-1.26,3.18-.48.93-1,1.76-1.57,2.48-.57.73-1.19,1.45-1.85,2.16l-.29-.34ZM139.83,296.31c-.31,0-.65.19-1,.56-.36.37-.71.89-1.07,1.56-.36.67-.69,1.42-.99,2.25-.3.83-.57,1.72-.79,2.65l.49-2.6c.47-1.4.96-2.55,1.48-3.43.52-.88,1.07-1.53,1.65-1.94.58-.41,1.21-.61,1.88-.61,1.14,0,2,.36,2.56,1.07.56.71.84,1.73.84,3.07,0,.8-.11,1.66-.34,2.57-.23.92-.56,1.82-.99,2.7-.43.88-.97,1.69-1.6,2.41-.63.72-1.36,1.3-2.18,1.73-.82.43-1.73.65-2.72.65-.59,0-1.12-.09-1.59-.26s-.82-.4-1.07-.68l.18-.36c.16.17.32.3.49.38.17.08.37.12.6.12.5,0,.99-.2,1.47-.6.48-.4.92-.93,1.33-1.6.41-.67.77-1.42,1.08-2.26.31-.84.56-1.72.74-2.63.18-.91.27-1.78.27-2.61,0-.88-.07-1.46-.21-1.73-.14-.27-.32-.4-.55-.4Z"/>
      </g>
      <g>
        <path class="cls-9" d="M372.34,264.82c2.46,0,4.4.45,5.8,1.36,1.4.91,2.11,2.12,2.11,3.65,0,1.15-.38,2.25-1.15,3.3-.76,1.05-1.75,2.02-2.97,2.93-1.22.91-2.52,1.77-3.91,2.6-1.39.83-2.74,1.6-4.05,2.32-1.31.72-2.43,1.4-3.37,2.06.72,0,1.52.11,2.41.33.89.22,1.82.44,2.78.66.97.22,1.95.33,2.95.33,1.22,0,2.23-.19,3.04-.56s1.22-.94,1.22-1.68c0-.87-.53-1.61-1.59-2.2l.47-.61c.94.5,1.61,1.08,2.01,1.73.41.66.61,1.44.61,2.34,0,1.06-.27,2.11-.8,3.14-.53,1.03-1.36,1.87-2.48,2.53-1.12.66-2.62.98-4.49.98-1,0-1.99-.11-2.97-.33-.98-.22-1.98-.44-3-.68-1.01-.23-2.13-.37-3.35-.4-1.22-.06-2.22,0-3,.21-.78.2-1.65.51-2.62.91l.23-.98c.62-.5,1.45-1.12,2.48-1.87,1.03-.75,2.18-1.61,3.44-2.6,1.26-.98,2.52-2.04,3.77-3.16,1.25-1.12,2.4-2.3,3.46-3.53,1.06-1.23,1.91-2.5,2.55-3.79.64-1.29.96-2.58.96-3.86s-.32-2.22-.96-2.81c-.64-.59-1.51-.89-2.6-.89-.94,0-1.88.2-2.83.61-.95.41-1.82.95-2.6,1.64-.78.69-1.41,1.46-1.9,2.32-.48.86-.73,1.72-.73,2.6,0,.75.2,1.31.61,1.68.41.37,1.09.56,2.06.56.9,0,1.68-.16,2.32-.49s1.32-.8,2.04-1.43l.56.66c-.87.81-1.76,1.39-2.67,1.73-.91.34-1.75.51-2.53.51-.5,0-1.02-.09-1.57-.26-.55-.17-1.01-.48-1.38-.94-.37-.45-.56-1.12-.56-1.99,0-1.03.3-2.05.89-3.07.59-1.01,1.42-1.94,2.48-2.78,1.06-.84,2.34-1.51,3.84-2.01,1.5-.5,3.15-.75,4.96-.75Z"/>
        <path class="cls-9" d="M387.1,289.71h-4.13l3.17-11.26c.09-.26.14-.48.16-.65.02-.17,0-.31-.06-.4-.06-.09-.18-.14-.35-.14-.3,0-.56.13-.79.39-.23.26-.49.75-.77,1.46l-.55,1.46h-.49l.73-2c.33-.95.78-1.64,1.35-2.05s1.27-.62,2.11-.62c.64,0,1.15.11,1.52.32.37.22.63.51.77.87s.2.76.18,1.18c-.02.42-.08.84-.18,1.26l-2.65,10.19ZM387.83,285.66c.69-2.01,1.33-3.65,1.92-4.91.59-1.27,1.17-2.26,1.73-2.98.56-.72,1.14-1.21,1.74-1.48.6-.27,1.23-.4,1.91-.4.85,0,1.46.18,1.85.53.38.36.58.83.6,1.43.02.6-.09,1.25-.34,1.96l-2.57,7.7c-.16.49-.18.81-.08.96.1.16.24.23.42.23.19,0,.42-.11.68-.33.26-.22.54-.72.83-1.52l.49-1.35h.49l-.65,1.9c-.24.73-.56,1.28-.95,1.66-.39.38-.81.65-1.27.79-.46.15-.91.22-1.36.22-.52,0-.97-.08-1.34-.23-.37-.16-.66-.38-.87-.68-.24-.35-.37-.79-.38-1.33,0-.54.12-1.23.4-2.08l2.29-6.86c.1-.29.17-.56.21-.79.04-.23.03-.42-.03-.56-.05-.14-.17-.21-.34-.21-.31,0-.67.23-1.07.68-.4.45-.82,1.07-1.25,1.85-.43.78-.88,1.68-1.33,2.7-.45,1.02-.88,2.11-1.29,3.26-.41,1.15-.76,2.31-1.05,3.47l.6-3.64Z"/>
        <path class="cls-9" d="M403.74,288.62c.26,0,.56-.17.91-.51.35-.34.72-.86,1.13-1.57.41-.71.81-1.61,1.21-2.7.4-1.09.77-2.39,1.12-3.9l-.39,2.81c-.54,1.63-1.07,2.99-1.6,4.08-.53,1.09-1.13,1.91-1.79,2.44-.67.54-1.48.81-2.43.81-.59,0-1.13-.13-1.61-.39-.49-.26-.88-.66-1.17-1.21-.29-.55-.44-1.25-.44-2.12,0-.78.12-1.64.36-2.57.24-.94.61-1.86,1.09-2.78.49-.92,1.08-1.77,1.79-2.55s1.52-1.4,2.43-1.87c.91-.47,1.92-.7,3.03-.7.62,0,1.06.12,1.3.35.24.23.39.55.44.95l-.21.52c-.07-.4-.17-.7-.31-.91-.14-.21-.38-.31-.73-.31-.38,0-.79.19-1.23.58-.44.39-.88.93-1.3,1.61-.42.69-.81,1.47-1.17,2.37-.36.89-.64,1.85-.84,2.86s-.31,2.04-.31,3.08c0,.54.05.94.16,1.22.1.28.29.42.57.42ZM410.11,287.5c-.16.43-.19.74-.1.92.09.18.23.27.44.27.19,0,.41-.11.66-.34.25-.23.52-.73.82-1.51l.49-1.35h.49l-.62,1.9c-.24.73-.56,1.28-.96,1.66-.4.38-.82.65-1.27.79-.45.15-.9.22-1.35.22-1.09,0-1.83-.36-2.21-1.09-.19-.35-.28-.79-.27-1.33,0-.54.12-1.17.32-1.9l3.56-13.39c.17-.59.16-1.02-.05-1.3-.21-.28-.74-.42-1.59-.42l.18-.55c1.32-.02,2.5-.12,3.55-.3,1.05-.18,2.05-.44,3-.77l-5.1,18.46Z"/>
        <path class="cls-9" d="M437.12,271.12c-.17.45-.4,1.1-.69,1.96-.29.86-.57,1.97-.84,3.34h-.52c.05-.24.09-.49.12-.75.03-.26.04-.49.04-.68,0-.71-.14-1.31-.43-1.81-.29-.49-.71-.88-1.26-1.17-.56-.29-1.23-.43-2.03-.43s-1.52.21-2.11.62-.88,1.1-.88,2.05c0,.61.14,1.19.43,1.76.29.56.66,1.12,1.12,1.66.46.55.94,1.1,1.44,1.65.5.55.98,1.12,1.43,1.69.45.57.82,1.17,1.11,1.81.29.63.43,1.3.43,2.01,0,.95-.24,1.76-.71,2.42-.48.66-1.09,1.2-1.85,1.61-.75.42-1.56.72-2.41.91-.85.19-1.65.29-2.39.29-.87,0-1.57-.05-2.12-.14-.55-.1-1.02-.23-1.42-.42-.4-.18-.82-.39-1.25-.64-.17-.12-.34-.22-.49-.29-.16-.07-.29-.1-.39-.1-.23,0-.41.1-.55.3-.14.2-.33.57-.57,1.1h-.52c.16-.38.32-.82.49-1.33.17-.5.36-1.15.57-1.94.21-.79.44-1.78.7-2.98h.52c-.07.28-.13.61-.18.99-.05.38-.07.74-.05,1.07.05,1.25.45,2.19,1.18,2.83.74.64,1.75.96,3.05.96,1.2,0,2.03-.24,2.5-.72.47-.48.7-1.1.7-1.86s-.13-1.4-.38-2.03c-.25-.62-.58-1.21-1-1.75-.42-.55-.85-1.08-1.3-1.61-.45-.53-.88-1.07-1.3-1.61-.42-.55-.75-1.13-1.01-1.74-.26-.61-.39-1.29-.39-2.01,0-.9.2-1.68.61-2.33.41-.65.94-1.19,1.61-1.62.67-.43,1.39-.75,2.16-.96.77-.21,1.52-.31,2.25-.31,1.13,0,2.03.14,2.72.42.68.28,1.23.53,1.62.75.16.09.32.17.48.26.17.09.29.13.38.13.24,0,.53-.46.86-1.38h.52Z"/>
        <path class="cls-9" d="M440.84,287.5c-.12.4-.12.7,0,.9.12.2.31.3.57.3.35,0,.7-.19,1.05-.56.35-.37.65-.89.9-1.55l.42-1.09h.49l-.49,1.48c-.35,1.01-.86,1.77-1.55,2.3s-1.51.79-2.48.79c-.83,0-1.47-.2-1.92-.58-.45-.39-.72-.91-.81-1.56s-.02-1.37.21-2.17l3.85-13.36c.85-.02,1.61-.05,2.29-.1s1.33-.14,1.98-.26l-4.5,15.47ZM446.87,276.25l-.08.52h-9.33l.13-.52h9.28Z"/>
        <path class="cls-9" d="M449.32,284.18c.64-.28,1.26-.59,1.85-.95.59-.35,1.11-.74,1.56-1.16.68-.64,1.23-1.38,1.66-2.22.43-.84.65-1.75.65-2.72,0-.29-.03-.49-.1-.6s-.17-.16-.31-.16c-.36,0-.76.19-1.2.58-.43.39-.86.91-1.27,1.56-.42.65-.79,1.39-1.13,2.21-.34.82-.61,1.67-.82,2.55-.21.88-.31,1.73-.31,2.56,0,.99.2,1.66.58,2,.39.35.9.52,1.52.52.4,0,.95-.14,1.64-.43.69-.29,1.38-.8,2.05-1.55l.42.21c-.36.57-.85,1.13-1.46,1.66-.61.54-1.32.98-2.13,1.31-.82.34-1.72.51-2.7.51-.8,0-1.52-.14-2.17-.42-.65-.28-1.17-.69-1.55-1.24-.38-.55-.57-1.22-.57-2.01,0-.97.16-1.95.47-2.94.31-.99.75-1.94,1.33-2.85.57-.91,1.26-1.72,2.07-2.43.81-.71,1.69-1.27,2.67-1.69.97-.42,2.02-.62,3.15-.62.83,0,1.53.18,2.11.53.57.36.86.91.86,1.65,0,.66-.18,1.28-.55,1.86-.36.58-.85,1.11-1.47,1.6-.62.49-1.31.92-2.08,1.3-.77.38-1.56.71-2.38.99-.82.28-1.61.49-2.39.65l.03-.29Z"/>
        <path class="cls-9" d="M463.17,272.68c.81-.07,1.58-.18,2.29-.32.71-.15,1.4-.32,2.05-.53l-5.56,19.73c-.26.95-.22,1.57.13,1.86.35.29.96.44,1.85.45l-.16.55c-.43-.02-1.04-.04-1.82-.06-.78-.03-1.61-.04-2.5-.04-.75,0-1.49.01-2.24.04-.75.03-1.31.05-1.69.06l.16-.55c.62,0,1.07-.12,1.35-.35.28-.23.5-.65.68-1.26l5.46-19.58ZM458.26,280.67c.62-.68,1.21-1.35,1.74-2.03s1.06-1.48,1.57-2.41c.51-.93,1.04-2.08,1.57-3.47l.08.42c-.36,1.2-.79,2.26-1.26,3.18-.48.93-1,1.76-1.57,2.48-.57.73-1.19,1.45-1.85,2.16l-.29-.34ZM467.75,277.44c-.31,0-.65.19-1,.56-.36.37-.71.89-1.07,1.56-.36.67-.69,1.42-.99,2.25-.3.83-.57,1.72-.79,2.65l.49-2.6c.47-1.4.96-2.55,1.48-3.43.52-.88,1.07-1.53,1.65-1.94.58-.41,1.21-.61,1.88-.61,1.14,0,2,.36,2.56,1.07.56.71.84,1.73.84,3.07,0,.8-.11,1.66-.34,2.57-.23.92-.56,1.82-.99,2.7-.43.88-.97,1.69-1.6,2.41-.63.72-1.36,1.3-2.18,1.73-.82.43-1.73.65-2.72.65-.59,0-1.12-.09-1.59-.26s-.82-.4-1.07-.68l.18-.36c.16.17.32.3.49.38.17.08.37.12.6.12.5,0,.99-.2,1.47-.6.48-.4.92-.93,1.33-1.6.41-.67.77-1.42,1.08-2.26.31-.84.56-1.72.74-2.63.18-.91.27-1.78.27-2.61,0-.88-.07-1.46-.21-1.73-.14-.27-.32-.4-.55-.4Z"/>
      </g>
      <g>
        <path class="cls-14" d="M818.47,234.36c2.5,0,4.47.43,5.92,1.29,1.45.86,2.18,2.01,2.18,3.44,0,1.12-.34,2.15-1.03,3.07-.69.92-1.59,1.74-2.71,2.46-1.12.72-2.33,1.33-3.63,1.83-1.29.5-2.57.89-3.81,1.17,1.78.03,3.38.24,4.8.63,1.42.39,2.54,1.01,3.35,1.87.81.86,1.22,1.99,1.22,3.39,0,1.56-.55,3-1.64,4.33-1.09,1.33-2.54,2.51-4.33,3.56-1.79,1.04-3.79,1.93-5.99,2.67-2.2.73-4.43,1.29-6.69,1.68-2.26.39-4.39.6-6.39.63l.23-.84c1.84-.12,3.75-.48,5.73-1.08,1.98-.59,3.84-1.43,5.57-2.5,1.73-1.08,3.13-2.39,4.19-3.93,1.06-1.54,1.59-3.35,1.59-5.41,0-1.25-.21-2.25-.63-3.02-.42-.76-1.04-1.18-1.85-1.24-.5.22-.97.41-1.43.56-.45.16-.88.23-1.29.23-.25,0-.47-.05-.66-.14-.19-.09-.23-.28-.14-.56.09-.44.44-.7,1.03-.8.59-.09,1.29-.11,2.11-.05,1.03-.44,1.95-1.01,2.76-1.71.81-.7,1.46-1.51,1.94-2.43.48-.92.73-1.96.73-3.11,0-1.31-.39-2.34-1.17-3.09-.78-.75-1.9-1.12-3.37-1.12-.84,0-1.67.16-2.48.47-.81.31-1.54.73-2.2,1.24-.66.51-1.18,1.09-1.57,1.73-.39.64-.58,1.29-.58,1.94,0,.75.21,1.31.63,1.68.42.37,1.12.56,2.08.56,1.06,0,2.03-.23,2.9-.7l.51.7c-.66.34-1.3.59-1.94.75-.64.16-1.24.23-1.8.23-.5,0-1.02-.09-1.57-.26-.55-.17-1.01-.48-1.38-.94-.38-.45-.56-1.11-.56-1.99,0-1.15.51-2.28,1.52-3.37,1.01-1.09,2.38-2,4.09-2.74,1.72-.73,3.63-1.1,5.76-1.1Z"/>
        <path class="cls-14" d="M832.94,259.3h-4.13l3.17-11.26c.12-.43.16-.74.12-.92-.04-.18-.17-.27-.38-.27-.3,0-.56.13-.81.4-.24.27-.49.75-.75,1.44l-.55,1.46h-.49l.73-2c.24-.68.55-1.21.91-1.6.36-.39.79-.67,1.27-.83.49-.16,1-.25,1.53-.25.57,0,1.02.11,1.34.32.32.22.55.51.68.87s.19.76.18,1.18c0,.42-.07.84-.17,1.26l-2.65,10.19ZM839.6,246.02c-.35,0-.71.08-1.09.23-.38.16-.78.48-1.2.96-.42.49-.85,1.2-1.31,2.15-.46.95-.94,2.2-1.44,3.77-.5,1.57-1.02,3.52-1.56,5.86l.57-3.59c.54-1.96,1.03-3.58,1.47-4.85s.88-2.29,1.33-3.04c.44-.75.92-1.28,1.44-1.59.52-.3,1.12-.46,1.79-.46.75,0,1.32.22,1.72.66.4.44.6.99.6,1.65,0,.52-.12,1.01-.35,1.47-.23.46-.56.82-.96,1.09-.41.27-.87.4-1.39.4-.57,0-1.01-.15-1.31-.44-.3-.29-.46-.73-.46-1.3,0-.47.11-.91.34-1.31.22-.41.53-.75.91-1.04.38-.29.8-.47,1.25-.56-.05-.02-.1-.03-.16-.05-.05-.02-.11-.03-.18-.03Z"/>
        <path class="cls-14" d="M846.28,258.21c.26,0,.56-.17.91-.51.35-.34.72-.86,1.13-1.57.41-.71.81-1.61,1.21-2.7.4-1.09.77-2.39,1.12-3.9l-.39,2.81c-.54,1.63-1.07,2.99-1.6,4.08-.53,1.09-1.13,1.91-1.79,2.44-.67.54-1.48.81-2.43.81-.59,0-1.13-.13-1.61-.39-.49-.26-.88-.66-1.17-1.21-.29-.55-.44-1.25-.44-2.12,0-.78.12-1.64.36-2.57.24-.94.61-1.86,1.09-2.78.49-.92,1.08-1.77,1.79-2.55s1.52-1.4,2.43-1.87c.91-.47,1.92-.7,3.03-.7.62,0,1.06.12,1.3.35.24.23.39.55.44.95l-.21.52c-.07-.4-.17-.7-.31-.91-.14-.21-.38-.31-.73-.31-.38,0-.79.19-1.23.58-.44.39-.88.93-1.3,1.61-.42.69-.81,1.47-1.17,2.37-.36.89-.64,1.85-.84,2.86s-.31,2.04-.31,3.08c0,.54.05.94.16,1.22.1.28.29.42.57.42ZM852.65,257.09c-.16.43-.19.74-.1.92.09.18.23.27.44.27.19,0,.41-.11.66-.34.25-.23.52-.73.82-1.51l.49-1.35h.49l-.62,1.9c-.24.73-.56,1.28-.96,1.66-.4.38-.82.65-1.27.79-.45.15-.9.22-1.35.22-1.09,0-1.83-.36-2.21-1.09-.19-.35-.28-.79-.27-1.33,0-.54.12-1.17.32-1.9l3.56-13.39c.17-.59.16-1.02-.05-1.3-.21-.28-.74-.42-1.59-.42l.18-.55c1.32-.02,2.5-.12,3.55-.3,1.05-.18,2.05-.44,3-.77l-5.1,18.46Z"/>
        <path class="cls-14" d="M879.67,240.71c-.17.45-.4,1.1-.69,1.96-.29.86-.57,1.97-.84,3.34h-.52c.05-.24.09-.49.12-.75.03-.26.04-.49.04-.68,0-.71-.14-1.31-.43-1.81-.29-.49-.71-.88-1.26-1.17-.56-.29-1.23-.43-2.03-.43s-1.52.21-2.11.62-.88,1.1-.88,2.05c0,.61.14,1.19.43,1.76.29.56.66,1.12,1.12,1.66.46.55.94,1.1,1.44,1.65.5.55.98,1.12,1.43,1.69.45.57.82,1.17,1.11,1.81.29.63.43,1.3.43,2.01,0,.95-.24,1.76-.71,2.42-.48.66-1.09,1.2-1.85,1.61-.75.42-1.56.72-2.41.91-.85.19-1.65.29-2.39.29-.87,0-1.57-.05-2.12-.14-.55-.1-1.02-.23-1.42-.42-.4-.18-.82-.39-1.25-.64-.17-.12-.34-.22-.49-.29-.16-.07-.29-.1-.39-.1-.23,0-.41.1-.55.3-.14.2-.33.57-.57,1.1h-.52c.16-.38.32-.82.49-1.33.17-.5.36-1.15.57-1.94.21-.79.44-1.78.7-2.98h.52c-.07.28-.13.61-.18.99-.05.38-.07.74-.05,1.07.05,1.25.45,2.19,1.18,2.83.74.64,1.75.96,3.05.96,1.2,0,2.03-.24,2.5-.72.47-.48.7-1.1.7-1.86s-.13-1.4-.38-2.03c-.25-.62-.58-1.21-1-1.75-.42-.55-.85-1.08-1.3-1.61-.45-.53-.88-1.07-1.3-1.61-.42-.55-.75-1.13-1.01-1.74-.26-.61-.39-1.29-.39-2.01,0-.9.2-1.68.61-2.33.41-.65.94-1.19,1.61-1.62.67-.43,1.39-.75,2.16-.96.77-.21,1.52-.31,2.25-.31,1.13,0,2.03.14,2.72.42.68.28,1.23.53,1.62.75.16.09.32.17.48.26.17.09.29.13.38.13.24,0,.53-.46.86-1.38h.52Z"/>
        <path class="cls-14" d="M883.38,257.09c-.12.4-.12.7,0,.9.12.2.31.3.57.3.35,0,.7-.19,1.05-.56.35-.37.65-.89.9-1.55l.42-1.09h.49l-.49,1.48c-.35,1.01-.86,1.77-1.55,2.3s-1.51.79-2.48.79c-.83,0-1.47-.2-1.92-.58-.45-.39-.72-.91-.81-1.56s-.02-1.37.21-2.17l3.85-13.36c.85-.02,1.61-.05,2.29-.1s1.33-.14,1.98-.26l-4.5,15.47ZM889.42,245.83l-.08.52h-9.33l.13-.52h9.28Z"/>
        <path class="cls-14" d="M891.86,253.76c.64-.28,1.26-.59,1.85-.95.59-.35,1.11-.74,1.56-1.16.68-.64,1.23-1.38,1.66-2.22.43-.84.65-1.75.65-2.72,0-.29-.03-.49-.1-.6s-.17-.16-.31-.16c-.36,0-.76.19-1.2.58-.43.39-.86.91-1.27,1.56-.42.65-.79,1.39-1.13,2.21-.34.82-.61,1.67-.82,2.55-.21.88-.31,1.73-.31,2.56,0,.99.2,1.66.58,2,.39.35.9.52,1.52.52.4,0,.95-.14,1.64-.43.69-.29,1.38-.8,2.05-1.55l.42.21c-.36.57-.85,1.13-1.46,1.66-.61.54-1.32.98-2.13,1.31-.82.34-1.72.51-2.7.51-.8,0-1.52-.14-2.17-.42-.65-.28-1.17-.69-1.55-1.24-.38-.55-.57-1.22-.57-2.01,0-.97.16-1.95.47-2.94.31-.99.75-1.94,1.33-2.85.57-.91,1.26-1.72,2.07-2.43.81-.71,1.69-1.27,2.67-1.69.97-.42,2.02-.62,3.15-.62.83,0,1.53.18,2.11.53.57.36.86.91.86,1.65,0,.66-.18,1.28-.55,1.86-.36.58-.85,1.11-1.47,1.6-.62.49-1.31.92-2.08,1.3-.77.38-1.56.71-2.38.99-.82.28-1.61.49-2.39.65l.03-.29Z"/>
        <path class="cls-14" d="M905.72,242.27c.81-.07,1.58-.18,2.29-.32.71-.15,1.4-.32,2.05-.53l-5.56,19.73c-.26.95-.22,1.57.13,1.86.35.29.96.44,1.85.45l-.16.55c-.43-.02-1.04-.04-1.82-.06-.78-.03-1.61-.04-2.5-.04-.75,0-1.49.01-2.24.04-.75.03-1.31.05-1.69.06l.16-.55c.62,0,1.07-.12,1.35-.35.28-.23.5-.65.68-1.26l5.46-19.58ZM900.8,250.25c.62-.68,1.21-1.35,1.74-2.03s1.06-1.48,1.57-2.41c.51-.93,1.04-2.08,1.57-3.47l.08.42c-.36,1.2-.79,2.26-1.26,3.18-.48.93-1,1.76-1.57,2.48-.57.73-1.19,1.45-1.85,2.16l-.29-.34ZM910.29,247.03c-.31,0-.65.19-1,.56-.36.37-.71.89-1.07,1.56-.36.67-.69,1.42-.99,2.25-.3.83-.57,1.72-.79,2.65l.49-2.6c.47-1.4.96-2.55,1.48-3.43.52-.88,1.07-1.53,1.65-1.94.58-.41,1.21-.61,1.88-.61,1.14,0,2,.36,2.56,1.07.56.71.84,1.73.84,3.07,0,.8-.11,1.66-.34,2.57-.23.92-.56,1.82-.99,2.7-.43.88-.97,1.69-1.6,2.41-.63.72-1.36,1.3-2.18,1.73-.82.43-1.73.65-2.72.65-.59,0-1.12-.09-1.59-.26s-.82-.4-1.07-.68l.18-.36c.16.17.32.3.49.38.17.08.37.12.6.12.5,0,.99-.2,1.47-.6.48-.4.92-.93,1.33-1.6.41-.67.77-1.42,1.08-2.26.31-.84.56-1.72.74-2.63.18-.91.27-1.78.27-2.61,0-.88-.07-1.46-.21-1.73-.14-.27-.32-.4-.55-.4Z"/>
      </g>
      <path class="cls-5" d="M926.15,128.07H22.98c-12.69,0-22.98-10.29-22.98-22.98s10.29-22.98,22.98-22.98h903.16c12.69,0,22.98,10.29,22.98,22.98s-10.29,22.98-22.98,22.98Z"/>
      <g>
        <path class="cls-14" d="M819.44,197.78h-8.33v-8.33h8.33v8.33Z"/>
        <path class="cls-7" d="M823.76,197.42l.43-.51c.55.59,1.29,1.16,2.5,1.16s2.11-.78,2.11-1.96-.88-2.05-3.15-2.05v-.64c2.08,0,2.81-.87,2.81-1.94,0-1-.7-1.65-1.79-1.65-.82,0-1.56.43-2.08.99l-.44-.51c.65-.64,1.46-1.13,2.54-1.13,1.46,0,2.56.82,2.56,2.25,0,1.18-.73,1.91-1.74,2.25v.05c1.14.25,2.08,1.09,2.08,2.39,0,1.6-1.25,2.6-2.86,2.6-1.47,0-2.35-.66-2.95-1.3Z"/>
        <path class="cls-7" d="M831.69,189.08h2.24c2.91,0,4.34,1.81,4.34,4.71s-1.43,4.77-4.33,4.77h-2.25v-9.48ZM833.85,197.89c2.5,0,3.6-1.65,3.6-4.11s-1.11-4.06-3.6-4.06h-1.38v8.16h1.38Z"/>
        <path class="cls-7" d="M853.38,192.56c-.3,1.29-.9,2.69-1.87,3.74-1.39,1.51-3,2.21-4.65,2.65l-.52-.6c1.77-.35,3.45-1.2,4.62-2.44.84-.9,1.43-2.17,1.68-3.25h-7.28c-.3,0-.7.01-1.12.04v-.74c.42.05.81.08,1.12.08h7.1c.22,0,.46-.03.58-.08l.49.3c-.05.09-.12.22-.14.3ZM846.42,189.1h5.19c.4,0,.75-.01,1.04-.05v.72c-.29-.03-.64-.03-1.05-.03h-5.17c-.38,0-.71.01-1.05.03v-.72c.33.04.65.05,1.05.05Z"/>
        <path class="cls-7" d="M859.56,194.76l-.62.23c-.21-.68-.94-2.51-1.16-2.9l.61-.25c.22.48.92,2.25,1.17,2.91ZM865.92,192.26c-.34,1.51-.91,2.93-1.87,4.12-1.2,1.5-2.77,2.47-4.17,3l-.56-.57c1.55-.47,3.11-1.46,4.19-2.78.94-1.16,1.62-2.77,1.86-4.45l.71.22c-.06.17-.12.34-.16.46ZM862.41,193.98l-.61.23c-.13-.57-.75-2.27-1-2.79l.62-.21c.21.51.85,2.22.99,2.77Z"/>
        <path class="cls-7" d="M873.01,193.35l-.39.58c-.58-.43-2.03-1.35-2.77-1.73l.38-.56c.7.38,2.28,1.34,2.78,1.7ZM874.8,196.54c2.12-1.23,3.78-2.89,4.84-4.71l.42.66c-1.09,1.72-2.86,3.42-4.91,4.63-1.3.78-3.04,1.35-4.29,1.63l-.38-.68c1.42-.25,3.07-.81,4.33-1.53ZM874.9,190.57l-.42.56c-.56-.46-2-1.43-2.7-1.83l.36-.56c.72.42,2.25,1.46,2.76,1.83Z"/>
        <path class="cls-7" d="M890.65,192.69c-.09.95-.52,3.78-.7,4.9h1.56c.26,0,.64-.01.88-.03v.68c-.22-.01-.61-.01-.85-.01h-7.29c-.36,0-.64.01-.96.03v-.7c.3.03.6.04.96.04h5c.18-1,.64-4.03.66-4.77h-4.49c-.36,0-.61.01-.9.03v-.72c.29.03.56.05.88.05h4.3c.18,0,.39-.03.47-.07l.52.26c-.04.09-.06.22-.06.31Z"/>
        <path class="cls-14" d="M819.44,218.78h-8.33v-8.33h8.33v8.33Z"/>
        <path class="cls-7" d="M827.69,210.97l.73.14c-.07.25-.13.48-.2.74-.17.74-.62,2.76-1.22,4.16-.48,1.14-1.16,2.41-1.92,3.5l-.68-.3c.82-1.09,1.53-2.44,1.99-3.48.56-1.3,1.12-3.35,1.3-4.76ZM830.9,211.08l.65-.23c.49.91,1.3,2.59,1.88,4.03.56,1.34,1.25,3.29,1.59,4.41l-.7.22c-.31-1.2-.99-3.03-1.53-4.41-.53-1.33-1.31-3.07-1.89-4.02ZM834.28,211.34l-.51.25c-.25-.53-.71-1.31-1.07-1.81l.49-.22c.32.47.81,1.24,1.08,1.78ZM835.67,210.84l-.49.25c-.3-.58-.73-1.3-1.09-1.79l.47-.22c.35.48.87,1.27,1.12,1.77Z"/>
        <path class="cls-7" d="M843.33,212.6c1.38-.88,2.57-1.9,3.51-3.02l.55.51c-1,1.05-2.16,2.03-3.54,2.94v5.63c0,.43.03.98.07,1.2h-.81c.03-.21.05-.77.05-1.2v-5.2c-1.36.82-3.24,1.65-5.15,2.25l-.35-.64c2.21-.61,4.24-1.57,5.67-2.47Z"/>
        <path class="cls-7" d="M856.72,216.96c1.87-1.21,3.39-3.11,4.09-4.63l.4.7c-.83,1.52-2.21,3.28-4.11,4.5-1.29.83-2.91,1.68-5.28,2.15l-.44-.69c2.41-.36,4.11-1.24,5.33-2.03ZM855.48,212.89l-.51.52c-.65-.65-2.25-2.04-3.22-2.68l.45-.48c.92.61,2.59,1.96,3.28,2.64Z"/>
        <path class="cls-7" d="M866.49,211.01c0-.31-.01-.86-.08-1.24h.83c-.04.36-.08.94-.08,1.24v2.25c1.72.52,4.12,1.47,5.62,2.21l-.29.69c-1.43-.79-3.89-1.73-5.33-2.17.01,2.16.01,4.36.01,4.63,0,.44.01,1.03.05,1.39h-.79c.04-.36.05-.92.05-1.39v-7.61ZM871.87,212.34l-.52.25c-.29-.6-.77-1.43-1.16-1.96l.49-.23c.31.43.88,1.33,1.18,1.95ZM873.41,211.7l-.52.25c-.3-.6-.79-1.4-1.2-1.95l.49-.23c.31.42.9,1.31,1.22,1.94Z"/>
        <path class="cls-7" d="M878.45,210.86h6.86c.26,0,.72,0,1.07-.03-.03.27-.03.59-.03.86v6.44c0,.36.01,1.24.03,1.43h-.73c.01-.13.01-.44.03-.77h-7.59c.01.3.01.62.03.77h-.71c.01-.22.03-1.07.03-1.43v-6.44c0-.25,0-.57-.01-.86.49.03.75.03,1.04.03ZM878.09,218.15h7.59v-6.64h-7.59v6.64Z"/>
        <path class="cls-7" d="M892.62,215.76l-.62.23c-.21-.68-.94-2.51-1.16-2.9l.61-.25c.22.48.92,2.25,1.17,2.91ZM898.98,213.26c-.34,1.51-.91,2.93-1.87,4.12-1.2,1.5-2.77,2.47-4.17,3l-.56-.57c1.55-.47,3.11-1.46,4.19-2.78.94-1.16,1.62-2.77,1.86-4.45l.71.22c-.06.17-.12.34-.16.46ZM895.47,214.98l-.61.23c-.13-.57-.75-2.27-1-2.79l.62-.21c.21.51.85,2.22.99,2.77Z"/>
        <path class="cls-7" d="M907.61,210.32c-.13.26-.29.55-.47.83h4.07c.31,0,.52-.04.68-.1l.58.34c-.08.16-.18.42-.22.56-.35,1.39-1.18,3.17-2.33,4.56-1.14,1.4-2.7,2.59-5.14,3.46l-.58-.56c2.22-.64,3.95-1.83,5.16-3.28,1.08-1.3,1.91-3.05,2.21-4.37h-4.84c-.74,1.08-1.79,2.26-3.3,3.24l-.57-.43c2.22-1.3,3.59-3.33,4.11-4.51.09-.18.25-.57.3-.85l.78.27c-.16.26-.33.61-.44.83Z"/>
      </g>
      <g>
        <path class="cls-9" d="M368.88,197.78h-8.33v-8.33h8.33v8.33Z"/>
        <path class="cls-7" d="M380,189.19c-.01.17-.01.52-.01.95,1.22-.05,2.48-.18,3.64-.36v.62c-1.14.13-2.4.25-3.64.31v2.11c1.2-.05,2.47-.17,3.72-.36v.65c-1.27.17-2.5.27-3.71.31.03.79.07,1.59.1,2.28,1.75.47,3.15,1.47,3.86,2.04l-.39.61c-.81-.72-1.99-1.57-3.45-2.03.03.42.04.77.04.99,0,.78-.46,1.73-2.14,1.73s-2.73-.58-2.73-1.77c0-1.1,1.09-1.83,2.9-1.83.44,0,.86.04,1.26.12-.01-.7-.04-1.47-.07-2.12-.25.01-.51.01-.77.01-.96,0-2.37-.08-3.34-.18v-.65c.96.14,2.38.23,3.34.23.25,0,.51,0,.75-.01v-2.11c-.22.01-.44.01-.65.01-.94,0-2.59-.12-3.39-.22v-.64c.79.16,2.48.29,3.38.29.22,0,.44,0,.66-.01v-1.09c0-.21-.01-.59-.04-.72h.71c-.03.21-.04.43-.05.84ZM377.97,198.45c.79,0,1.52-.25,1.52-1.24,0-.29-.01-.65-.01-1.07-.44-.09-.9-.14-1.37-.14-1.44,0-2.2.56-2.2,1.24s.55,1.21,2.05,1.21Z"/>
        <path class="cls-7" d="M388.23,191.61c1.16-.38,3.65-1.33,5.55-1.33,2.04,0,3.67,1.18,3.67,3.24,0,3.21-3.28,4.49-6.94,4.72l-.29-.7c3.33-.1,6.53-1.14,6.53-4.03,0-1.44-1.1-2.61-2.98-2.61-2.26,0-5.71,1.51-6.55,1.82l-.33-.75c.47-.09.83-.21,1.34-.35Z"/>
        <path class="cls-7" d="M401.75,190.14h7.18c.4,0,.77-.03,1.05-.05v.74c-.3-.03-.69-.04-1.05-.04h-3.33v6.38h4.04c.35,0,.66-.04.99-.07v.77c-.34-.04-.77-.04-.99-.04h-8.61c-.34,0-.69.01-1.07.04v-.77c.36.05.73.07,1.07.07h3.87v-6.38h-3.16c-.2,0-.69.01-1.01.04v-.74c.34.04.79.05,1.01.05Z"/>
        <path class="cls-7" d="M418.05,189.32c-.13.26-.29.55-.47.83h4.07c.31,0,.52-.04.68-.1l.58.34c-.08.16-.18.42-.22.56-.35,1.39-1.18,3.17-2.33,4.56-1.14,1.4-2.7,2.59-5.13,3.46l-.59-.56c2.22-.64,3.95-1.83,5.16-3.28,1.08-1.3,1.91-3.05,2.21-4.37h-4.84c-.74,1.08-1.79,2.26-3.3,3.24l-.57-.43c2.22-1.3,3.59-3.33,4.11-4.51.09-.18.25-.57.3-.85l.78.27c-.16.26-.33.61-.44.83Z"/>
      </g>
      <g>
        <path class="cls-6" d="M59.48,197.78h-8.33v-8.33h8.33v8.33Z"/>
        <path class="cls-7" d="M70.6,189.19c-.01.17-.01.52-.01.95,1.22-.05,2.48-.18,3.64-.36v.62c-1.14.13-2.41.25-3.64.31v2.11c1.2-.05,2.47-.17,3.72-.36v.65c-1.27.17-2.5.27-3.71.31.03.79.07,1.59.1,2.28,1.75.47,3.15,1.47,3.86,2.04l-.39.61c-.81-.72-1.99-1.57-3.45-2.03.03.42.04.77.04.99,0,.78-.46,1.73-2.14,1.73s-2.73-.58-2.73-1.77c0-1.1,1.09-1.83,2.9-1.83.44,0,.86.04,1.26.12-.01-.7-.04-1.47-.07-2.12-.25.01-.51.01-.77.01-.96,0-2.37-.08-3.34-.18v-.65c.96.14,2.38.23,3.34.23.25,0,.51,0,.75-.01v-2.11c-.22.01-.44.01-.65.01-.94,0-2.59-.12-3.39-.22v-.64c.79.16,2.48.29,3.38.29.22,0,.44,0,.66-.01v-1.09c0-.21-.01-.59-.04-.72h.71c-.03.21-.04.43-.05.84ZM68.58,198.45c.79,0,1.52-.25,1.52-1.24,0-.29-.01-.65-.01-1.07-.44-.09-.9-.14-1.37-.14-1.44,0-2.2.56-2.2,1.24s.55,1.21,2.05,1.21Z"/>
        <path class="cls-7" d="M78.83,191.61c1.16-.38,3.65-1.33,5.55-1.33,2.04,0,3.67,1.18,3.67,3.24,0,3.21-3.28,4.49-6.94,4.72l-.29-.7c3.33-.1,6.53-1.14,6.53-4.03,0-1.44-1.1-2.61-2.98-2.61-2.26,0-5.71,1.51-6.55,1.82l-.33-.75c.47-.09.83-.21,1.34-.35Z"/>
        <path class="cls-7" d="M92.25,189.58c-.47,2.15-.9,5.06-.31,7.5.18-.65.48-1.53.74-2.28l.4.23c-.26.77-.69,2.12-.82,2.7-.04.17-.07.39-.05.55.01.13.04.27.05.38l-.56.09c-.25-.81-.65-2.43-.65-4.07,0-2.11.39-4.1.53-5.19.04-.26.05-.55.05-.73l.79.09c-.05.18-.12.48-.18.72ZM98.9,189.38c0,.29.03,1.31.04,2.16.85-.06,1.65-.17,2.35-.35v.68c-.69.13-1.5.22-2.34.29v.39c0,2.95.14,5.2-2.72,6.81l-.62-.48c.35-.14.82-.4,1.12-.68,1.62-1.33,1.61-2.98,1.61-5.66v-.35c-.55.03-1.11.04-1.64.04-.66,0-1.65-.04-2.16-.08v-.69c.52.09,1.46.16,2.17.16.52,0,1.07-.01,1.61-.04-.03-.86-.08-1.89-.09-2.18-.03-.29-.08-.51-.12-.7h.81c-.01.17-.03.4-.03.69ZM100.76,190.2l-.51.18c-.2-.56-.51-1.33-.75-1.81l.48-.17c.23.47.58,1.26.78,1.79ZM102.06,189.79l-.51.18c-.22-.58-.51-1.33-.78-1.79l.48-.16c.25.45.58,1.23.81,1.77Z"/>
        <path class="cls-7" d="M106.73,189.97l.73.14c-.07.25-.13.48-.2.74-.17.74-.62,2.76-1.22,4.16-.48,1.14-1.16,2.41-1.92,3.5l-.68-.3c.82-1.09,1.53-2.44,1.99-3.48.56-1.3,1.12-3.35,1.3-4.76ZM109.94,190.08l.65-.23c.49.91,1.3,2.59,1.88,4.03.56,1.34,1.25,3.29,1.59,4.41l-.7.22c-.31-1.2-.99-3.03-1.53-4.41-.53-1.33-1.31-3.07-1.89-4.02ZM113.35,188.26c.78,0,1.4.62,1.4,1.4s-.62,1.39-1.4,1.39-1.39-.62-1.39-1.39.62-1.4,1.39-1.4ZM113.35,190.59c.51,0,.94-.42.94-.92s-.43-.94-.94-.94-.91.43-.91.94.4.92.91.92Z"/>
        <path class="cls-7" d="M118.46,193.21h7.2c.68,0,1.07-.03,1.33-.05v.81c-.23-.01-.71-.04-1.31-.04h-7.22c-.71,0-1.3.01-1.65.04v-.81c.34.03.88.05,1.65.05Z"/>
        <path class="cls-7" d="M140.04,190.6c-.92,1.5-2.55,3.64-4.89,5.4.81.81,1.81,1.87,2.33,2.51l-.6.47c-.46-.62-1.47-1.72-2.28-2.55-.79-.79-2.39-2.15-3.04-2.6l.53-.43c.44.31,1.66,1.3,2.56,2.13,2.18-1.59,3.85-3.74,4.52-4.95h-8.11c-.49,0-.97.03-1.22.05v-.78c.36.05.77.08,1.22.08h8.07c.27,0,.48-.01.61-.06l.55.43c-.1.1-.2.22-.26.31Z"/>
        <path class="cls-6" d="M59.48,218.78h-8.33v-8.33h8.33v8.33Z"/>
        <path class="cls-7" d="M75.06,211.12c-.47.81-1.7,2.5-3.3,3.6l-.57-.47c1.29-.72,2.64-2.29,3.11-3.19h-7.77c-.46,0-.96.03-1.42.05v-.79c.43.05.96.1,1.42.1h7.74c.18,0,.51-.04.65-.06l.43.42c-.09.09-.2.22-.27.34ZM66.56,219.89l-.62-.52c.31-.09.75-.31,1.05-.49,2.22-1.29,2.5-3.42,2.5-5.6,0-.26-.01-.52-.04-.81h.74c0,3.69-.44,5.92-3.63,7.42Z"/>
        <path class="cls-7" d="M83.37,212.6c1.38-.88,2.57-1.9,3.51-3.02l.55.51c-1,1.05-2.16,2.03-3.54,2.94v5.63c0,.43.03.98.07,1.2h-.81c.03-.21.05-.77.05-1.2v-5.2c-1.36.82-3.24,1.65-5.15,2.25l-.35-.64c2.21-.61,4.24-1.57,5.67-2.47Z"/>
        <path class="cls-7" d="M100.13,211.62c-.27,1.42-.94,3.55-1.92,4.82-1.2,1.51-2.64,2.65-5.06,3.41l-.57-.62c2.48-.65,3.94-1.74,5.06-3.19.95-1.22,1.62-3.24,1.81-4.56h-7.01c-.47,0-.82.03-1.14.04v-.75c.34.04.73.08,1.16.08h6.81c.17,0,.33,0,.51-.05l.51.32c-.06.14-.1.26-.14.51ZM100.26,210.55l-.51.25c-.26-.53-.73-1.3-1.05-1.74l.49-.22c.3.43.79,1.22,1.07,1.72ZM101.87,210.22l-.51.22c-.3-.53-.73-1.29-1.08-1.72l.51-.22c.3.42.79,1.2,1.08,1.72Z"/>
        <path class="cls-7" d="M105.5,210.86h6.86c.26,0,.72,0,1.07-.03-.03.27-.03.59-.03.86v6.44c0,.36.01,1.24.03,1.43h-.73c.01-.13.01-.44.03-.77h-7.59c.01.3.01.62.03.77h-.71c.01-.22.03-1.07.03-1.43v-6.44c0-.25,0-.57-.01-.86.49.03.75.03,1.04.03ZM105.13,218.15h7.59v-6.64h-7.59v6.64Z"/>
        <path class="cls-7" d="M122.12,210.1v1.35h3.3c.46,0,.65-.05.78-.09l.46.29c-.05.14-.12.4-.16.64-.14.92-.55,2.76-1.31,4.03-.94,1.59-2.63,2.89-5.04,3.55l-.55-.61c.34-.05.71-.16,1.05-.27,1.44-.43,3.03-1.52,3.86-2.86.74-1.2,1.2-2.96,1.29-4.04h-7.75v2.56c0,.19.01.51.05.66h-.74c.03-.17.04-.48.04-.68v-2.3c0-.26,0-.66-.04-.94.34.04.71.06,1.14.06h2.94v-1.35c0-.21-.01-.53-.05-.84h.79c-.05.31-.06.64-.06.84Z"/>
      </g>
      <polyline class="cls-3" points="40.86 108.36 40.86 307.19 949.97 307.19"/>
      <polyline class="cls-1" points="351.54 108.36 351.54 288.58 949.11 288.58"/>
      <g>
        <path class="cls-9" d="M350.34,11.84c-.35.49-.52.89-.51,1.19,0,.3.16.52.45.66.29.14.67.23,1.12.26l-.07.36c-.56-.02-1.03-.04-1.4-.04s-.72,0-1.04,0c-.26,0-.48,0-.66,0s-.36.02-.55.04l.07-.36c.23-.06.44-.16.63-.3.19-.14.41-.35.64-.63.23-.28.52-.65.85-1.11l7.42-10.44c.18.02.38.04.58.04s.39-.01.55-.04l.72,11.32c.04.43.15.73.33.89.19.16.37.25.55.26l-.07.36c-.32-.02-.76-.04-1.3-.04s-1.05,0-1.53,0c-.58,0-1.12,0-1.64,0-.52,0-.93.02-1.24.04l.07-.36c.58-.02.99-.13,1.23-.31.25-.19.35-.58.32-1.2l-.43-8.08.79-.85-5.89,8.33ZM352.09,9.13h5.26l-.14.36h-5.44l.32-.36Z"/>
        <path class="cls-9" d="M367.93,5.09c-.44,0-.88.19-1.3.57-.43.38-.81.88-1.14,1.51-.34.63-.6,1.34-.8,2.12-.2.79-.3,1.59-.3,2.4,0,.65.13,1.11.39,1.4.26.28.6.42,1.02.42.37,0,.75-.11,1.12-.32.38-.22.76-.61,1.14-1.19l.36.14c-.24.4-.55.78-.93,1.15-.38.37-.82.68-1.33.91-.51.23-1.09.35-1.75.35-.88,0-1.6-.23-2.18-.68-.58-.46-.86-1.16-.86-2.12,0-.61.1-1.24.29-1.89.19-.65.47-1.28.84-1.89.37-.61.81-1.16,1.32-1.65.52-.49,1.1-.87,1.76-1.16.66-.29,1.38-.43,2.16-.43.71,0,1.26.18,1.67.53s.6.78.6,1.27c0,.36-.09.71-.26,1.03-.17.33-.41.6-.7.82-.29.22-.62.32-.98.32-.3,0-.56-.1-.79-.3-.23-.2-.34-.48-.34-.85,0-.54.18-1.01.53-1.4.35-.4.76-.65,1.22-.77-.1-.1-.2-.17-.32-.22-.11-.05-.25-.07-.42-.07Z"/>
        <path class="cls-9" d="M373.22,13.46c.14,0,.31-.07.49-.23.18-.15.37-.38.56-.69s.39-.71.59-1.21c.2-.49.4-1.09.59-1.78l-.45,1.94c-.24.77-.52,1.38-.85,1.83-.32.45-.68.77-1.07.95-.39.19-.8.28-1.23.28-.72,0-1.25-.2-1.6-.59-.35-.4-.52-.94-.52-1.64s.11-1.36.34-2.08c.23-.71.54-1.4.93-2.05.39-.65.83-1.24,1.31-1.76.49-.52,1-.94,1.53-1.24.53-.31,1.06-.46,1.58-.46.4,0,.7.14.91.41.21.28.28.73.21,1.37l-.2.11c.06-.37.05-.65-.03-.84s-.21-.28-.41-.28c-.23,0-.48.14-.76.41s-.55.64-.84,1.1c-.28.46-.54.99-.77,1.58-.23.59-.42,1.22-.57,1.88-.14.66-.22,1.31-.22,1.94,0,.37.04.64.11.8.07.16.19.24.36.24ZM376.79,5c.59-.01,1.11-.04,1.57-.08.46-.04.92-.1,1.36-.19l-2.39,8.05c-.05.17-.08.31-.08.44,0,.13.02.22.07.29.05.07.14.1.24.1.13,0,.29-.08.47-.23.18-.16.37-.5.58-1.04l.34-.94h.34l-.45,1.31c-.17.49-.39.87-.67,1.14-.28.27-.57.46-.88.56-.31.1-.62.15-.94.15-.67,0-1.15-.2-1.44-.59-.18-.26-.27-.59-.27-.99s.08-.86.23-1.4l1.91-6.57Z"/>
        <path class="cls-9" d="M383.61,13.55c.18,0,.39-.12.63-.35.24-.23.5-.6.78-1.09.28-.49.56-1.12.84-1.87.28-.76.53-1.66.77-2.7l-.27,1.94c-.37,1.13-.74,2.07-1.11,2.83-.37.76-.78,1.32-1.24,1.69s-1.02.56-1.68.56c-.41,0-.78-.09-1.12-.27-.34-.18-.61-.46-.81-.84s-.31-.87-.31-1.47c0-.54.08-1.13.25-1.78s.42-1.29.76-1.93c.34-.64.75-1.22,1.24-1.76s1.05-.97,1.68-1.3,1.33-.49,2.1-.49c.43,0,.73.08.9.24s.27.38.31.66l-.14.36c-.05-.28-.12-.49-.22-.63-.1-.14-.26-.22-.5-.22-.26,0-.55.14-.86.41-.31.27-.61.64-.9,1.12-.29.47-.56,1.02-.81,1.64-.25.62-.44,1.28-.58,1.98-.14.7-.22,1.41-.22,2.13,0,.37.04.65.11.85.07.19.2.29.4.29ZM388.02,12.78c-.11.3-.13.51-.07.64.06.13.16.19.31.19.13,0,.28-.08.46-.23.17-.16.36-.5.57-1.04l.34-.94h.34l-.43,1.31c-.17.5-.39.89-.67,1.15-.28.26-.57.45-.88.55-.31.1-.62.15-.94.15-.76,0-1.27-.25-1.53-.76-.13-.24-.2-.55-.19-.92,0-.37.08-.81.23-1.31l2.47-9.27c.12-.41.11-.71-.04-.9-.14-.19-.51-.29-1.1-.29l.13-.38c.91-.01,1.73-.08,2.46-.21.73-.13,1.42-.3,2.08-.53l-3.53,12.78Z"/>
        <path class="cls-9" d="M393.33,10.48c.44-.19.87-.41,1.28-.66.41-.25.77-.51,1.08-.8.47-.44.85-.96,1.15-1.54.3-.58.45-1.21.45-1.88,0-.2-.02-.34-.07-.41s-.12-.11-.22-.11c-.25,0-.53.13-.83.4s-.59.63-.88,1.08-.55.96-.78,1.53c-.23.57-.42,1.16-.57,1.76-.14.61-.22,1.2-.22,1.77,0,.68.13,1.15.4,1.39.27.24.62.36,1.05.36.28,0,.65-.1,1.13-.3.48-.2.95-.55,1.42-1.07l.29.14c-.25.4-.59.78-1.01,1.15-.42.37-.91.68-1.48.91-.56.23-1.19.35-1.87.35-.55,0-1.05-.1-1.5-.29-.45-.19-.81-.48-1.07-.86-.26-.38-.4-.84-.4-1.39,0-.67.11-1.35.32-2.03.22-.68.52-1.34.92-1.97.4-.63.87-1.19,1.43-1.68.56-.49,1.17-.88,1.84-1.17.67-.29,1.4-.43,2.18-.43.58,0,1.06.12,1.46.37.4.25.59.63.59,1.14,0,.46-.13.89-.38,1.29-.25.4-.59.77-1.02,1.11-.43.34-.91.64-1.44.9-.53.26-1.08.49-1.65.68-.56.19-1.12.34-1.66.45l.02-.2Z"/>
        <path class="cls-9" d="M402.42,14.31h-2.86l2.2-7.79c.05-.18.07-.33.08-.45,0-.12-.01-.21-.05-.28-.04-.07-.12-.1-.24-.1-.18,0-.35.1-.52.29-.17.19-.34.52-.52.99l-.38,1.01h-.34l.5-1.39c.17-.47.38-.84.64-1.11.26-.27.55-.46.87-.58.32-.11.65-.17.99-.17.43,0,.76.07.99.22.23.15.39.35.49.59.1.25.13.52.12.82-.02.3-.06.59-.13.88l-1.82,7.06ZM406.52,6.82c.06-.18.1-.34.13-.49.03-.14.03-.25,0-.33s-.1-.12-.22-.12c-.25,0-.52.15-.8.46-.28.31-.58.74-.88,1.29-.31.55-.61,1.22-.91,1.99-.3.77-.59,1.63-.88,2.56l-.07-.68c.49-1.64.97-2.96,1.45-3.95.47-.99,1-1.71,1.57-2.15.58-.44,1.24-.67,2-.67.38,0,.69.07.91.21s.38.33.47.57c.09.24.12.53.1.85-.02.33-.09.69-.2,1.09l-1.96,6.86h-2.88l2.18-7.49ZM411.42,6.82c.11-.3.16-.53.15-.69,0-.16-.08-.24-.21-.24-.19,0-.42.12-.67.35s-.54.6-.85,1.11c-.31.5-.64,1.16-.97,1.97-.34.81-.68,1.8-1.04,2.96l-.07-.52c.41-1.42.81-2.58,1.2-3.48.39-.91.79-1.62,1.2-2.13.41-.52.83-.88,1.28-1.09.44-.21.91-.31,1.39-.31.53,0,.92.12,1.16.35.25.23.38.56.39.96s-.07.88-.25,1.4l-1.76,5.33c-.12.35-.14.57-.06.68.08.1.18.15.3.15.13,0,.29-.07.46-.23.17-.15.36-.5.57-1.05l.36-.94h.34l-.45,1.31c-.17.5-.39.89-.67,1.15-.28.26-.57.45-.89.55-.32.1-.63.15-.95.15-.37,0-.69-.06-.95-.18s-.47-.29-.61-.52c-.14-.25-.21-.57-.21-.95s.1-.82.28-1.34l1.57-4.75Z"/>
        <path class="cls-9" d="M416.33,16.79c.56-.26,1.15-.63,1.75-1.11.61-.47,1.23-1.11,1.86-1.92.65-.82,1.21-1.68,1.7-2.59.49-.91.85-1.77,1.09-2.57-.32-.18-.62-.4-.89-.66-.27-.26-.48-.55-.64-.86-.16-.32-.23-.65-.23-1,0-.42.12-.75.35-.99.23-.24.55-.36.95-.36.46,0,.79.15.99.45.2.3.31.71.31,1.24s-.1,1.16-.29,1.83c-.19.67-.45,1.35-.78,2.06-.33.71-.71,1.4-1.13,2.07-.43.67-.87,1.29-1.34,1.85-.44.54-.92,1.02-1.41,1.45-.5.43-1.01.79-1.55,1.1-.53.31-1.07.54-1.61.71-.23.07-.44.12-.64.15-.2.03-.38.04-.53.04-.43,0-.77-.1-1.01-.29-.24-.19-.36-.46-.36-.81s.12-.62.37-.85c.25-.23.57-.35.98-.35s.78.12,1.12.36c.34.24.66.59.94,1.04ZM420.74,13.09l-2.16,2.47-1.48-9.02c-.05-.31-.1-.52-.16-.64-.06-.11-.14-.17-.25-.17-.13,0-.25.07-.35.22-.1.15-.25.49-.44,1.02l-.36.94h-.34l.45-1.31c.25-.73.57-1.22.96-1.48.39-.25.83-.38,1.32-.38s.94.14,1.28.42c.34.28.56.83.67,1.63l.86,6.3Z"/>
      </g>
      <path class="cls-9" d="M369.04,42.82c-3.86,0-6.97-3.12-6.97-6.97s3.12-6.97,6.97-6.97,6.97,3.12,6.97,6.97-3.15,6.97-6.97,6.97ZM362.53,35.85c0,3.6,2.91,6.51,6.51,6.51s6.51-2.91,6.51-6.51-2.91-6.51-6.51-6.51-6.51,2.94-6.51,6.51ZM371.39,32.91h-3.13l-.29,1.95c.21-.04.45-.07.75-.07,1.5,0,2.87.81,2.87,2.38,0,1.49-1.25,2.58-2.96,2.58-.96,0-1.71-.29-2.07-.51l.25-.78c.36.21,1.02.46,1.82.46,1.08,0,1.92-.73,1.92-1.6,0-1.01-.63-1.74-2.29-1.74-.48,0-.9.06-1.21.1l.45-3.61h3.9v.84Z"/>
      <g>
        <path class="cls-11" d="M498.87,9.1l.09-.36h.81c.77,0,1.41-.15,1.93-.46.52-.31.93-.71,1.25-1.21.32-.5.55-1.04.68-1.62.14-.58.21-1.15.21-1.7,0-.62-.12-1.1-.37-1.43-.25-.33-.65-.5-1.2-.5-.2,0-.36.04-.46.13-.1.08-.19.24-.25.46-.07.22-.15.54-.26.96l-2.38,8.93c-.08.35-.12.63-.12.85,0,.22.1.39.29.49.19.11.48.17.89.2l-.07.36c-.38-.02-.83-.04-1.34-.04s-1.05,0-1.61,0c-.64,0-1.25,0-1.83,0-.58,0-1.04.02-1.38.04l.07-.36c.41-.02.73-.07.95-.14s.41-.22.54-.43.25-.54.36-.97l2.38-8.93c.08-.36.13-.65.13-.87s-.08-.38-.25-.49c-.17-.1-.48-.16-.94-.19l.09-.36c.32.01.78.02,1.36.04.58.01,1.16.02,1.72.02.43,0,.87,0,1.31-.02.44-.01.88-.02,1.32-.02,1.51,0,2.63.23,3.36.68.73.46,1.09,1.13,1.09,2.03s-.32,1.77-.96,2.51-1.54,1.32-2.69,1.75c-1.15.43-2.48.64-4,.64h-.72Z"/>
        <path class="cls-11" d="M509.49,14.21h-2.86l2.2-7.79c.08-.3.11-.51.08-.64-.03-.13-.12-.19-.26-.19-.2,0-.39.09-.56.28-.17.19-.34.52-.52,1l-.38,1.01h-.34l.5-1.39c.17-.47.38-.84.63-1.11s.55-.46.88-.58c.34-.11.69-.17,1.06-.17.4,0,.71.07.93.22.22.15.38.35.47.6.09.25.13.53.13.82,0,.29-.04.58-.12.87l-1.84,7.06ZM514.09,5.01c-.24,0-.49.05-.76.16-.26.11-.54.33-.83.67-.29.34-.59.83-.91,1.49-.32.65-.65,1.52-1,2.61-.35,1.09-.71,2.44-1.08,4.06l.4-2.48c.37-1.36.71-2.48,1.02-3.36.31-.88.61-1.58.92-2.11.31-.52.64-.89,1-1.1.36-.21.77-.31,1.24-.31.52,0,.91.15,1.19.46.28.31.41.69.41,1.14,0,.36-.08.7-.24,1.02-.16.32-.38.57-.67.76-.28.19-.6.28-.96.28-.4,0-.7-.1-.91-.31-.21-.2-.32-.5-.32-.9,0-.32.08-.63.23-.91.16-.28.37-.52.63-.72s.55-.33.86-.39c-.04-.01-.07-.02-.11-.04s-.08-.02-.13-.02Z"/>
        <path class="cls-11" d="M518.59,13.37c.14,0,.31-.07.49-.23.18-.15.37-.38.56-.69s.39-.71.59-1.21c.2-.49.4-1.09.59-1.78l-.45,1.94c-.24.77-.52,1.38-.85,1.83-.32.45-.68.77-1.07.95-.39.19-.8.28-1.23.28-.72,0-1.25-.2-1.6-.59-.35-.4-.52-.94-.52-1.64s.11-1.36.34-2.08c.23-.71.54-1.4.93-2.05.39-.65.83-1.24,1.31-1.76.49-.52,1-.94,1.53-1.24.53-.31,1.06-.46,1.58-.46.4,0,.7.14.91.41.21.28.28.73.21,1.37l-.2.11c.06-.37.05-.65-.03-.84s-.21-.28-.41-.28c-.23,0-.48.14-.76.41s-.55.64-.84,1.1c-.28.46-.54.99-.77,1.58-.23.59-.42,1.22-.57,1.88-.14.66-.22,1.31-.22,1.94,0,.37.04.64.11.8.07.16.19.24.36.24ZM522.16,4.91c.59-.01,1.11-.04,1.57-.08.46-.04.92-.1,1.36-.19l-2.39,8.05c-.05.17-.08.31-.08.44,0,.13.02.22.07.29.05.07.14.1.24.1.13,0,.29-.08.47-.23.18-.16.37-.5.58-1.04l.34-.94h.34l-.45,1.31c-.17.49-.39.87-.67,1.14-.28.27-.57.46-.88.56-.31.1-.62.15-.94.15-.67,0-1.15-.2-1.44-.59-.18-.26-.27-.59-.27-.99s.08-.86.23-1.4l1.91-6.57Z"/>
        <path class="cls-11" d="M532.1,5c-.44,0-.88.19-1.3.57-.43.38-.81.88-1.14,1.51-.34.63-.6,1.34-.8,2.12-.2.79-.3,1.59-.3,2.4,0,.65.13,1.11.39,1.4.26.28.6.42,1.02.42.37,0,.75-.11,1.12-.32.38-.22.76-.61,1.14-1.19l.36.14c-.24.4-.55.78-.93,1.15-.38.37-.82.68-1.33.91-.51.23-1.09.35-1.75.35-.88,0-1.6-.23-2.18-.68-.58-.46-.86-1.16-.86-2.12,0-.61.1-1.24.29-1.89.19-.65.47-1.28.84-1.89.37-.61.81-1.16,1.32-1.65.52-.49,1.1-.87,1.76-1.16.66-.29,1.38-.43,2.16-.43.71,0,1.26.18,1.67.53s.6.78.6,1.27c0,.36-.09.71-.26,1.03-.17.33-.41.6-.7.82-.29.22-.62.32-.98.32-.3,0-.56-.1-.79-.3-.23-.2-.34-.48-.34-.85,0-.54.18-1.01.53-1.4.35-.4.76-.65,1.22-.77-.1-.1-.2-.17-.32-.22-.11-.05-.25-.07-.42-.07Z"/>
        <path class="cls-11" d="M537.19,12.68c-.08.28-.08.48,0,.62s.22.21.4.21c.24,0,.48-.13.73-.39.25-.26.45-.61.62-1.07l.29-.76h.34l-.34,1.03c-.24.7-.6,1.23-1.07,1.59-.47.37-1.05.55-1.72.55-.58,0-1.02-.14-1.33-.41-.31-.27-.5-.63-.56-1.08-.06-.45-.01-.95.14-1.5l2.66-9.25c.59-.01,1.12-.04,1.58-.07.47-.04.92-.1,1.37-.18l-3.11,10.71ZM541.37,4.89l-.05.36h-6.46l.09-.36h6.43Z"/>
        <path class="cls-11" d="M542.82,6.42c.19-.55.13-.83-.18-.83-.19,0-.37.1-.54.29-.17.19-.35.52-.54.99l-.38,1.01h-.34l.5-1.39c.17-.47.38-.84.64-1.11s.56-.46.89-.58c.34-.11.69-.17,1.06-.17.44,0,.79.08,1.04.23.25.16.43.36.54.6.11.25.16.52.14.81-.01.29-.07.58-.16.87l-1.89,5.53c-.1.31-.12.53-.06.65.05.12.15.18.3.18.13,0,.29-.08.47-.23.18-.16.37-.5.58-1.04l.34-.94h.34l-.45,1.31c-.18.49-.4.87-.67,1.14-.26.27-.56.46-.88.56-.32.1-.64.15-.95.15-.53,0-.94-.11-1.24-.34s-.47-.56-.52-1.01c-.05-.44.04-.99.25-1.64l1.71-5.06ZM543.54,1.97c.01-.58.21-1.01.6-1.31.39-.3.86-.45,1.41-.45.49,0,.86.1,1.11.31.25.21.36.51.35.91-.01.5-.21.92-.6,1.24-.39.32-.87.49-1.43.49-.47,0-.83-.1-1.08-.31s-.37-.5-.36-.87Z"/>
        <path class="cls-11" d="M553.01,5c-.44,0-.88.19-1.3.57-.43.38-.81.88-1.14,1.51-.34.63-.6,1.34-.8,2.12-.2.79-.3,1.59-.3,2.4,0,.65.13,1.11.39,1.4.26.28.6.42,1.02.42.37,0,.75-.11,1.12-.32.38-.22.76-.61,1.14-1.19l.36.14c-.24.4-.55.78-.93,1.15-.38.37-.82.68-1.33.91-.51.23-1.09.35-1.75.35-.88,0-1.6-.23-2.18-.68-.58-.46-.86-1.16-.86-2.12,0-.61.1-1.24.29-1.89.19-.65.47-1.28.84-1.89.37-.61.81-1.16,1.32-1.65.52-.49,1.1-.87,1.76-1.16.66-.29,1.38-.43,2.16-.43.71,0,1.26.18,1.67.53s.6.78.6,1.27c0,.36-.09.71-.26,1.03-.17.33-.41.6-.7.82-.29.22-.62.32-.98.32-.3,0-.56-.1-.79-.3-.23-.2-.34-.48-.34-.85,0-.54.18-1.01.53-1.4.35-.4.76-.65,1.22-.77-.1-.1-.2-.17-.32-.22-.11-.05-.25-.07-.42-.07Z"/>
        <path class="cls-11" d="M557.51,10.38c.44-.19.87-.41,1.28-.66.41-.25.77-.51,1.08-.8.47-.44.85-.96,1.15-1.54.3-.58.45-1.21.45-1.88,0-.2-.02-.34-.07-.41s-.12-.11-.22-.11c-.25,0-.53.13-.83.4s-.59.63-.88,1.08-.55.96-.78,1.53c-.23.57-.42,1.16-.57,1.76-.14.61-.22,1.2-.22,1.77,0,.68.13,1.15.4,1.39.27.24.62.36,1.05.36.28,0,.65-.1,1.13-.3.48-.2.95-.55,1.42-1.07l.29.14c-.25.4-.59.78-1.01,1.15-.42.37-.91.68-1.48.91-.56.23-1.19.35-1.87.35-.55,0-1.05-.1-1.5-.29-.45-.19-.81-.48-1.07-.86-.26-.38-.4-.84-.4-1.39,0-.67.11-1.35.32-2.03.22-.68.52-1.34.92-1.97.4-.63.87-1.19,1.43-1.68.56-.49,1.17-.88,1.84-1.17.67-.29,1.4-.43,2.18-.43.58,0,1.06.12,1.46.37.4.25.59.63.59,1.14,0,.46-.13.89-.38,1.29-.25.4-.59.77-1.02,1.11-.43.34-.91.64-1.44.9-.53.26-1.08.49-1.65.68-.56.19-1.12.34-1.66.45l.02-.2Z"/>
      </g>
      <path class="cls-15" d="M334.51,118.22H26.72c-7.25,0-13.13-5.88-13.13-13.13s5.88-13.13,13.13-13.13h307.79c7.25,0,13.13,5.88,13.13,13.13s-5.88,13.13-13.13,13.13Z"/>
      <path class="cls-12" d="M492.8,118.22h-158.29c-7.25,0-13.13-5.88-13.13-13.13s5.88-13.13,13.13-13.13h158.29c7.25,0,13.13,5.88,13.13,13.13s-5.88,13.13-13.13,13.13Z"/>
      <g>
        <path class="cls-13" d="M78.58,110.66h-.98l3.71-10.19h.99l3.71,10.19h-.97l-3.2-8.98h-.07l-3.19,8.98ZM79.28,106.75h5.05v.83h-5.05v-.83Z"/>
        <path class="cls-13" d="M87.12,113.51v-10.5h.85v1.46h.1c.1-.23.25-.46.44-.7.19-.24.44-.45.75-.61.31-.17.7-.25,1.16-.25.63,0,1.18.17,1.65.5.47.33.84.79,1.1,1.38.26.59.4,1.28.4,2.06s-.13,1.48-.39,2.08c-.26.6-.63,1.06-1.1,1.39-.47.33-1.02.5-1.65.5-.46,0-.85-.08-1.16-.25-.31-.17-.56-.37-.75-.62-.19-.25-.34-.49-.44-.72h-.08v4.28h-.88ZM90.33,110.01c.5,0,.93-.14,1.28-.42.35-.28.62-.66.8-1.14s.27-1.01.27-1.6-.09-1.12-.27-1.59-.45-.85-.79-1.12c-.35-.28-.77-.42-1.29-.42s-.92.13-1.27.4-.61.63-.79,1.1c-.18.47-.27,1.01-.27,1.63s.09,1.15.27,1.63c.18.48.45.85.8,1.12.35.27.77.41,1.27.41Z"/>
        <path class="cls-13" d="M95.07,110.66v-7.64h.85v1.18h.07c.16-.39.42-.7.8-.93.38-.23.81-.35,1.29-.35h.24c.09,0,.16,0,.22,0v.9s-.1-.01-.21-.02c-.1-.01-.21-.02-.33-.02-.39,0-.74.08-1.06.25-.31.17-.56.4-.74.69s-.27.63-.27,1.01v4.93h-.88Z"/>
        <path class="cls-13" d="M100.07,101.71c-.18,0-.34-.06-.47-.19-.13-.13-.19-.28-.19-.45s.07-.32.19-.44c.13-.12.29-.18.47-.18s.34.06.46.18.19.27.19.44-.06.33-.19.45c-.13.13-.28.19-.46.19ZM99.62,110.66v-7.64h.88v7.64h-.88Z"/>
        <path class="cls-13" d="M103.29,100.47v10.19h-.88v-10.19h.88Z"/>
        <path class="cls-13" d="M109.3,105.88v.83h-4.24v-.83h4.24Z"/>
        <path class="cls-13" d="M113.3,110.79c-.53,0-1-.1-1.42-.29s-.74-.47-.98-.82-.36-.77-.36-1.26v-.17h.92v.17c0,.31.08.57.24.8.16.23.38.41.65.54.28.13.59.19.94.19s.68-.08.95-.23c.27-.15.49-.39.64-.7s.23-.72.23-1.21v-7.35h.92v7.35c0,.66-.12,1.21-.35,1.65-.23.44-.56.77-.97.99-.41.22-.89.33-1.42.33Z"/>
        <path class="cls-13" d="M122.98,107.75v-4.73h.88v7.64h-.88v-1.27h-.07c-.18.39-.47.72-.85.98-.39.26-.86.39-1.42.39-.49,0-.92-.11-1.29-.32-.38-.21-.67-.53-.89-.94-.22-.42-.33-.93-.33-1.53v-4.95h.88v4.9c0,.59.18,1.07.53,1.44.35.36.8.54,1.35.54.35,0,.68-.08,1-.25s.58-.41.79-.72c.21-.32.31-.71.31-1.18Z"/>
        <path class="cls-13" d="M126.65,105.89v4.77h-.88v-7.64h.85v1.21h.09c.18-.4.46-.71.83-.95.38-.24.85-.36,1.41-.36.51,0,.97.11,1.36.32.39.21.69.53.91.94.22.41.33.93.33,1.53v4.94h-.88v-4.89c0-.62-.18-1.12-.53-1.49s-.82-.55-1.41-.55c-.4,0-.76.09-1.07.26-.31.18-.56.42-.74.75-.18.32-.27.71-.27,1.15Z"/>
      </g>
      <g>
        <path class="cls-13" d="M359.68,110.79c-.53,0-1-.1-1.42-.29s-.74-.47-.98-.82-.36-.77-.36-1.26v-.17h.92v.17c0,.31.08.57.24.8.16.23.38.41.65.54.28.13.59.19.94.19s.68-.08.95-.23c.27-.15.49-.39.64-.7s.23-.72.23-1.21v-7.35h.92v7.35c0,.66-.12,1.21-.35,1.65-.23.44-.56.77-.97.99-.41.22-.89.33-1.42.33Z"/>
        <path class="cls-13" d="M369.37,107.75v-4.73h.88v7.64h-.88v-1.27h-.07c-.18.39-.47.72-.85.98-.39.26-.86.39-1.42.39-.49,0-.92-.11-1.29-.32-.38-.21-.67-.53-.89-.94-.22-.42-.33-.93-.33-1.53v-4.95h.88v4.9c0,.59.18,1.07.53,1.44.35.36.8.54,1.35.54.35,0,.68-.08,1-.25s.58-.41.79-.72c.21-.32.31-.71.31-1.18Z"/>
        <path class="cls-13" d="M373.03,100.47v10.19h-.88v-10.19h.88Z"/>
        <path class="cls-13" d="M375.55,113.51c-.17,0-.34,0-.49-.04-.15-.03-.27-.07-.37-.12l.24-.77.1.03c.42.12.78.11,1.07-.04.29-.15.54-.5.74-1.06l.28-.78-2.81-7.72h.96l2.26,6.48h.07l2.27-6.48h.96l-3.23,8.85c-.14.37-.3.68-.5.92-.2.25-.43.43-.69.55-.26.12-.55.18-.88.18Z"/>
      </g>
      <g>
        <path class="cls-13" d="M21.36,111.68v-4.14l7.91-12.45h3.74v5.54h-2.14l-4.27,6.75v.16h11.68v4.14h-16.93ZM30.9,114.74v-4.32l.13-1.82v-13.5h4.98v19.64h-5.12Z"/>
        <path class="cls-13" d="M50.93,104.93v3.98h-9.2v-3.98h9.2Z"/>
        <path class="cls-13" d="M63.16,115c-1.14,0-2.23-.18-3.26-.54-1.03-.36-1.94-.93-2.72-1.71-.79-.78-1.41-1.8-1.86-3.05-.45-1.25-.68-2.77-.68-4.55,0-1.59.2-3.02.61-4.29.4-1.27.98-2.35,1.73-3.25.75-.9,1.65-1.58,2.7-2.06,1.05-.47,2.22-.71,3.5-.71,1.45,0,2.72.28,3.82.84,1.1.56,1.98,1.3,2.63,2.23.66.93,1.04,1.95,1.14,3.08h-5.25c-.11-.56-.39-.97-.84-1.23-.44-.25-.95-.38-1.51-.38-1.12,0-1.94.48-2.46,1.45-.52.97-.78,2.24-.78,3.82h.11c.25-.6.63-1.11,1.13-1.54.5-.43,1.09-.76,1.76-.99.67-.23,1.38-.34,2.12-.34,1.2,0,2.24.27,3.13.8.89.54,1.59,1.27,2.08,2.21.5.94.75,2.01.75,3.21,0,1.41-.33,2.64-1,3.69s-1.59,1.87-2.77,2.45-2.54.87-4.09.87ZM63.11,110.97c.54,0,1.01-.12,1.42-.36.41-.24.73-.57.97-1,.24-.42.36-.9.36-1.44s-.12-1.02-.36-1.44c-.24-.42-.56-.75-.97-1-.41-.24-.88-.36-1.42-.36s-.97.12-1.38.36c-.41.24-.74.57-.97,1-.24.42-.36.9-.36,1.44s.12,1.02.36,1.44c.24.42.56.75.97,1,.41.24.88.36,1.38.36Z"/>
      </g>
      <path class="cls-13" d="M334.24,114.74l7.7-15.27v-.11h-9.04v-4.27h14.58v4.27l-7.75,15.37h-5.48Z"/>
      <g>
        <rect class="cls-7" x="285.75" y="127.71" width="100" height="50"/>
        <polygon class="cls-7" points="335.15 127.99 341.47 127.99 338.31 122.52 335.15 117.05 331.99 122.52 328.83 127.99 335.15 127.99"/>
        <g>
          <path class="cls-13" d="M307.41,146.13c.83,0,1.51.68,1.51,1.5s-.68,1.5-1.51,1.5c-.12,0-.23-.01-.35-.04-.01.08-.04.17-.05.25-.3,1.33-.9,3.38-1.95,4.77-1.18,1.53-2.81,2.78-5.16,3.52l-1.12-1.22c2.54-.62,4-1.74,5.08-3.09.88-1.14,1.44-2.81,1.62-3.99h-6.4c-.55,0-1.07.03-1.4.05v-1.46c.36.04.98.09,1.4.09h6.3c.16,0,.35,0,.56-.03-.03-.12-.04-.23-.04-.35,0-.82.66-1.5,1.5-1.5ZM307.41,148.43c.44,0,.82-.36.82-.81s-.38-.82-.82-.82-.81.38-.81.82.36.81.81.81Z"/>
          <path class="cls-13" d="M312.01,155.87v-7.27c0-.42-.05-1.01-.12-1.31h1.61c-.07.4-.1.87-.1,1.3v7.11c2.33-.62,5.28-2.31,6.92-4.37l.74,1.14c-1.73,2.12-4.42,3.69-7.58,4.67-.16.05-.4.12-.65.27l-.96-.82c.13-.26.14-.46.14-.73Z"/>
          <path class="cls-13" d="M324.35,150.77h8.52c.27,0,.75-.01,1.09-.06v1.34c-.31-.01-.75-.03-1.09-.03h-3.35c-.05,1.38-.31,2.52-.81,3.46-.47.88-1.46,1.85-2.59,2.43l-1.2-.88c.96-.39,1.9-1.14,2.41-1.94.56-.87.73-1.9.78-3.07h-3.76c-.39,0-.82.01-1.18.04v-1.35c.36.04.78.06,1.18.06ZM325.96,147.49h4.39c.4,0,.9-.03,1.3-.08v1.34c-.42-.03-.88-.05-1.3-.05h-4.38c-.44,0-.92.03-1.27.05v-1.34c.39.05.83.08,1.26.08ZM333.42,148.21l-.86.36c-.26-.52-.68-1.3-1.03-1.79l.83-.35c.33.47.79,1.27,1.05,1.78ZM334.92,147.64l-.84.38c-.27-.56-.7-1.3-1.07-1.79l.83-.35c.35.49.85,1.3,1.08,1.77Z"/>
          <path class="cls-13" d="M338.84,148.39v2.72c1.53-.38,3.48-.99,4.75-1.52.43-.17.83-.36,1.26-.64l.57,1.31c-.43.17-.95.4-1.37.56-1.39.56-3.58,1.21-5.21,1.64v2.65c0,.62.27.78.88.91.39.07,1,.09,1.62.09,1.37,0,3.41-.14,4.49-.43v1.49c-1.18.17-3.13.26-4.56.26-.81,0-1.59-.04-2.13-.13-1.05-.2-1.65-.72-1.65-1.81v-7.11c0-.31-.03-.85-.09-1.2h1.52c-.04.35-.08.82-.08,1.2ZM345.71,148.49l-.84.36c-.26-.52-.69-1.3-1.04-1.79l.84-.35c.33.47.78,1.27,1.04,1.78ZM347.2,147.94l-.84.36c-.27-.56-.69-1.3-1.05-1.78l.83-.35c.34.48.83,1.29,1.07,1.77Z"/>
          <path class="cls-13" d="M357.73,151.33c-.1.83-.47,3.26-.65,4.47h1.09c.3,0,.83-.03,1.13-.05v1.33c-.25-.01-.79-.03-1.1-.03h-7.01c-.43,0-.73.01-1.17.03v-1.34c.34.04.75.06,1.17.06h4.5c.18-1.1.52-3.34.56-4.07h-3.86c-.39,0-.81.03-1.16.04v-1.35c.33.04.82.07,1.14.07h3.69c.23,0,.65-.04.78-.1l.99.48c-.04.14-.08.34-.1.47Z"/>
          <path class="cls-13" d="M364.34,151.33h7.07c.62,0,1.13-.05,1.46-.08v1.61c-.29-.01-.88-.07-1.46-.07h-7.07c-.71,0-1.5.03-1.94.07v-1.61c.43.03,1.24.08,1.94.08Z"/>
        </g>
      </g>
      <g>
        <path class="cls-6" d="M41.94,12.68c-.35.49-.52.89-.51,1.19,0,.3.16.52.45.66.29.14.67.23,1.12.26l-.07.36c-.56-.02-1.03-.04-1.4-.04s-.72,0-1.04,0c-.26,0-.48,0-.66,0s-.36.02-.55.04l.07-.36c.23-.06.44-.16.63-.3.19-.14.41-.35.64-.63.23-.28.52-.65.85-1.11l7.42-10.44c.18.02.38.04.58.04s.39-.01.55-.04l.72,11.32c.04.43.15.73.33.89.19.16.37.25.55.26l-.07.36c-.32-.02-.76-.04-1.3-.04s-1.05,0-1.53,0c-.58,0-1.12,0-1.64,0-.52,0-.93.02-1.24.04l.07-.36c.58-.02.99-.13,1.23-.31.25-.19.35-.58.32-1.2l-.43-8.08.79-.85-5.89,8.33ZM43.68,9.96h5.26l-.14.36h-5.44l.32-.36Z"/>
        <path class="cls-6" d="M59.52,5.93c-.44,0-.88.19-1.3.57-.43.38-.81.88-1.14,1.51-.34.63-.6,1.34-.8,2.12-.2.79-.3,1.59-.3,2.4,0,.65.13,1.11.39,1.4.26.28.6.42,1.02.42.37,0,.75-.11,1.12-.32.38-.22.76-.61,1.14-1.19l.36.14c-.24.4-.55.78-.93,1.15-.38.37-.82.68-1.33.91-.51.23-1.09.35-1.75.35-.88,0-1.6-.23-2.18-.68-.58-.46-.86-1.16-.86-2.12,0-.61.1-1.24.29-1.89.19-.65.47-1.28.84-1.89.37-.61.81-1.16,1.32-1.65.52-.49,1.1-.87,1.76-1.16.66-.29,1.38-.43,2.16-.43.71,0,1.26.18,1.67.53s.6.78.6,1.27c0,.36-.09.71-.26,1.03-.17.33-.41.6-.7.82-.29.22-.62.32-.98.32-.3,0-.56-.1-.79-.3-.23-.2-.34-.48-.34-.85,0-.54.18-1.01.53-1.4.35-.4.76-.65,1.22-.77-.1-.1-.2-.17-.32-.22-.11-.05-.25-.07-.42-.07Z"/>
        <path class="cls-6" d="M64.82,14.3c.14,0,.31-.07.49-.23.18-.15.37-.38.56-.69s.39-.71.59-1.21c.2-.49.4-1.09.59-1.78l-.45,1.94c-.24.77-.52,1.38-.85,1.83-.32.45-.68.77-1.07.95-.39.19-.8.28-1.23.28-.72,0-1.25-.2-1.6-.59-.35-.4-.52-.94-.52-1.64s.11-1.36.34-2.08c.23-.71.54-1.4.93-2.05.39-.65.83-1.24,1.31-1.76.49-.52,1-.94,1.53-1.24.53-.31,1.06-.46,1.58-.46.4,0,.7.14.91.41.21.28.28.73.21,1.37l-.2.11c.06-.37.05-.65-.03-.84s-.21-.28-.41-.28c-.23,0-.48.14-.76.41s-.55.64-.84,1.1c-.28.46-.54.99-.77,1.58-.23.59-.42,1.22-.57,1.88-.14.66-.22,1.31-.22,1.94,0,.37.04.64.11.8.07.16.19.24.36.24ZM68.38,5.84c.59-.01,1.11-.04,1.57-.08.46-.04.92-.1,1.36-.19l-2.39,8.05c-.05.17-.08.31-.08.44,0,.13.02.22.07.29.05.07.14.1.24.1.13,0,.29-.08.47-.23.18-.16.37-.5.58-1.04l.34-.94h.34l-.45,1.31c-.17.49-.39.87-.67,1.14-.28.27-.57.46-.88.56-.31.1-.62.15-.94.15-.67,0-1.15-.2-1.44-.59-.18-.26-.27-.59-.27-.99s.08-.86.23-1.4l1.91-6.57Z"/>
        <path class="cls-6" d="M75.2,14.39c.18,0,.39-.12.63-.35.24-.23.5-.6.78-1.09.28-.49.56-1.12.84-1.87.28-.76.53-1.66.77-2.7l-.27,1.94c-.37,1.13-.74,2.07-1.11,2.83-.37.76-.78,1.32-1.24,1.69s-1.02.56-1.68.56c-.41,0-.78-.09-1.12-.27-.34-.18-.61-.46-.81-.84s-.31-.87-.31-1.47c0-.54.08-1.13.25-1.78s.42-1.29.76-1.93c.34-.64.75-1.22,1.24-1.76s1.05-.97,1.68-1.3,1.33-.49,2.1-.49c.43,0,.73.08.9.24s.27.38.31.66l-.14.36c-.05-.28-.12-.49-.22-.63-.1-.14-.26-.22-.5-.22-.26,0-.55.14-.86.41-.31.27-.61.64-.9,1.12-.29.47-.56,1.02-.81,1.64-.25.62-.44,1.28-.58,1.98-.14.7-.22,1.41-.22,2.13,0,.37.04.65.11.85.07.19.2.29.4.29ZM79.61,13.62c-.11.3-.13.51-.07.64.06.13.16.19.31.19.13,0,.28-.08.46-.23.17-.16.36-.5.57-1.04l.34-.94h.34l-.43,1.31c-.17.5-.39.89-.67,1.15-.28.26-.57.45-.88.55-.31.1-.62.15-.94.15-.76,0-1.27-.25-1.53-.76-.13-.24-.2-.55-.19-.92,0-.37.08-.81.23-1.31l2.47-9.27c.12-.41.11-.71-.04-.9-.14-.19-.51-.29-1.1-.29l.13-.38c.91-.01,1.73-.08,2.46-.21.73-.13,1.42-.3,2.08-.53l-3.53,12.78Z"/>
        <path class="cls-6" d="M84.92,11.31c.44-.19.87-.41,1.28-.66.41-.25.77-.51,1.08-.8.47-.44.85-.96,1.15-1.54.3-.58.45-1.21.45-1.88,0-.2-.02-.34-.07-.41s-.12-.11-.22-.11c-.25,0-.53.13-.83.4s-.59.63-.88,1.08-.55.96-.78,1.53c-.23.57-.42,1.16-.57,1.76-.14.61-.22,1.2-.22,1.77,0,.68.13,1.15.4,1.39.27.24.62.36,1.05.36.28,0,.65-.1,1.13-.3.48-.2.95-.55,1.42-1.07l.29.14c-.25.4-.59.78-1.01,1.15-.42.37-.91.68-1.48.91-.56.23-1.19.35-1.87.35-.55,0-1.05-.1-1.5-.29-.45-.19-.81-.48-1.07-.86-.26-.38-.4-.84-.4-1.39,0-.67.11-1.35.32-2.03.22-.68.52-1.34.92-1.97.4-.63.87-1.19,1.43-1.68.56-.49,1.17-.88,1.84-1.17.67-.29,1.4-.43,2.18-.43.58,0,1.06.12,1.46.37.4.25.59.63.59,1.14,0,.46-.13.89-.38,1.29-.25.4-.59.77-1.02,1.11-.43.34-.91.64-1.44.9-.53.26-1.08.49-1.65.68-.56.19-1.12.34-1.66.45l.02-.2Z"/>
        <path class="cls-6" d="M94.01,15.15h-2.86l2.2-7.79c.05-.18.07-.33.08-.45,0-.12-.01-.21-.05-.28-.04-.07-.12-.1-.24-.1-.18,0-.35.1-.52.29-.17.19-.34.52-.52.99l-.38,1.01h-.34l.5-1.39c.17-.47.38-.84.64-1.11.26-.27.55-.46.87-.58.32-.11.65-.17.99-.17.43,0,.76.07.99.22.23.15.39.35.49.59.1.25.13.52.12.82-.02.3-.06.59-.13.88l-1.82,7.06ZM98.12,7.66c.06-.18.1-.34.13-.49.03-.14.03-.25,0-.33s-.1-.12-.22-.12c-.25,0-.52.15-.8.46-.28.31-.58.74-.88,1.29-.31.55-.61,1.22-.91,1.99-.3.77-.59,1.63-.88,2.56l-.07-.68c.49-1.64.97-2.96,1.45-3.95.47-.99,1-1.71,1.57-2.15.58-.44,1.24-.67,2-.67.38,0,.69.07.91.21s.38.33.47.57c.09.24.12.53.1.85-.02.33-.09.69-.2,1.09l-1.96,6.86h-2.88l2.18-7.49ZM103.01,7.66c.11-.3.16-.53.15-.69,0-.16-.08-.24-.21-.24-.19,0-.42.12-.67.35s-.54.6-.85,1.11c-.31.5-.64,1.16-.97,1.97-.34.81-.68,1.8-1.04,2.96l-.07-.52c.41-1.42.81-2.58,1.2-3.48.39-.91.79-1.62,1.2-2.13.41-.52.83-.88,1.28-1.09.44-.21.91-.31,1.39-.31.53,0,.92.12,1.16.35.25.23.38.56.39.96s-.07.88-.25,1.4l-1.76,5.33c-.12.35-.14.57-.06.68.08.1.18.15.3.15.13,0,.29-.07.46-.23.17-.15.36-.5.57-1.05l.36-.94h.34l-.45,1.31c-.17.5-.39.89-.67,1.15-.28.26-.57.45-.89.55-.32.1-.63.15-.95.15-.37,0-.69-.06-.95-.18s-.47-.29-.61-.52c-.14-.25-.21-.57-.21-.95s.1-.82.28-1.34l1.57-4.75Z"/>
        <path class="cls-6" d="M107.93,17.63c.56-.26,1.15-.63,1.75-1.11.61-.47,1.23-1.11,1.86-1.92.65-.82,1.21-1.68,1.7-2.59.49-.91.85-1.77,1.09-2.57-.32-.18-.62-.4-.89-.66-.27-.26-.48-.55-.64-.86-.16-.32-.23-.65-.23-1,0-.42.12-.75.35-.99.23-.24.55-.36.95-.36.46,0,.79.15.99.45.2.3.31.71.31,1.24s-.1,1.16-.29,1.83c-.19.67-.45,1.35-.78,2.06-.33.71-.71,1.4-1.13,2.07-.43.67-.87,1.29-1.34,1.85-.44.54-.92,1.02-1.41,1.45-.5.43-1.01.79-1.55,1.1-.53.31-1.07.54-1.61.71-.23.07-.44.12-.64.15-.2.03-.38.04-.53.04-.43,0-.77-.1-1.01-.29-.24-.19-.36-.46-.36-.81s.12-.62.37-.85c.25-.23.57-.35.98-.35s.78.12,1.12.36c.34.24.66.59.94,1.04ZM112.34,13.92l-2.16,2.47-1.48-9.02c-.05-.31-.1-.52-.16-.64-.06-.11-.14-.17-.25-.17-.13,0-.25.07-.35.22-.1.15-.25.49-.44,1.02l-.36.94h-.34l.45-1.31c.25-.73.57-1.22.96-1.48.39-.25.83-.38,1.32-.38s.94.14,1.28.42c.34.28.56.83.67,1.63l.86,6.3Z"/>
      </g>
      <g>
        <path class="cls-6" d="M66.43,31.72c1.34,1.87,3.71,3.89,5.71,4.97-.16.16-.31.36-.43.53-1.99-1.18-4.33-3.19-5.54-4.88-1.04,1.6-3.2,3.65-5.42,4.99-.08-.16-.25-.35-.39-.49,2.24-1.29,4.43-3.39,5.47-5.12h.6ZM66.5,42.53h5.25v.58h-11.04v-.58h5.15v-2.47h-4.07v-.57h4.07v-2.35h-3.52v-.59h7.84v.59h-3.68v2.35h4.12v.57h-4.12v2.47Z"/>
        <path class="cls-6" d="M73.08,41.49l.42-.53c.55.57,1.25,1.12,2.48,1.12s2.21-.96,2.21-2.39-.85-2.3-2.17-2.3c-.69,0-1.14.23-1.68.6l-.49-.29.33-4.34h4.33v.68h-3.65l-.27,3.19c.46-.27.94-.46,1.59-.46,1.56,0,2.81.88,2.81,2.89s-1.46,3.08-2.96,3.08-2.31-.64-2.92-1.23Z"/>
        <path class="cls-6" d="M91.52,32.31v11.18h-.64v-.7h-9.41v.7h-.62v-11.18h10.67ZM90.88,42.19v-9.26h-9.41v9.26h9.41ZM88.59,35.25v4.56h-4.88v-4.56h4.88ZM87.98,35.83h-3.67v3.41h3.67v-3.41Z"/>
        <path class="cls-6" d="M104.56,31.46l.51.31c-1.6,1.64-2.47,3.63-2.47,5.84s.87,4.2,2.47,5.84l-.51.31c-1.65-1.7-2.6-3.74-2.6-6.15s.95-4.45,2.6-6.15Z"/>
        <path class="cls-6" d="M106.17,37.61c0-3.32,2.69-6.01,6.01-6.01s6.01,2.69,6.01,6.01-2.72,6.01-6.01,6.01-6.01-2.69-6.01-6.01ZM117.82,37.61c0-3.12-2.52-5.64-5.64-5.64s-5.64,2.55-5.64,5.64,2.52,5.64,5.64,5.64,5.64-2.52,5.64-5.64ZM112.07,35.13h-1.37v-.48c.64-.1,1.12-.26,1.51-.46h.57v6.68h-.71v-5.75Z"/>
        <path class="cls-6" d="M122.56,36.72c-1.12,0-2.12.73-2.68,1.82l-.64-.34c.81-1.42,1.96-2.2,3.31-2.2,1.14,0,1.94.49,2.85,1.35.78.73,1.4,1.16,2.38,1.16,1.12,0,2.12-.73,2.68-1.82l.64.34c-.81,1.42-1.96,2.2-3.32,2.2-1.14,0-1.94-.49-2.85-1.35-.78-.72-1.4-1.16-2.38-1.16Z"/>
        <path class="cls-6" d="M144.18,37.61c0,3.34-2.72,6.01-6.01,6.01s-6.01-2.69-6.01-6.01,2.69-6.01,6.01-6.01,6.01,2.69,6.01,6.01ZM143.82,37.61c0-3.12-2.52-5.64-5.64-5.64s-5.64,2.55-5.64,5.64,2.52,5.64,5.64,5.64,5.64-2.52,5.64-5.64ZM139.37,38.38h1.08v.58h-1.08v1.91h-.69v-1.91h-3.38v-.47l3.32-4.3h.75v4.19ZM138.68,38.38v-2.11c0-.32.01-.9.04-1.25h-.05c-.2.33-.36.53-.6.87l-1.95,2.48h2.56Z"/>
        <path class="cls-6" d="M145.79,43.76l-.51-.31c1.6-1.64,2.47-3.63,2.47-5.84s-.87-4.2-2.47-5.84l.51-.31c1.65,1.7,2.6,3.74,2.6,6.15s-.95,4.45-2.6,6.15Z"/>
      </g>
      <g>
        <path class="cls-11" d="M509.88,41.77h-8.33v-8.33h8.33v8.33Z"/>
        <path class="cls-7" d="M524.65,34.43c-.27,1.42-.94,3.55-1.94,4.82-1.2,1.51-2.63,2.65-5.04,3.41l-.57-.62c2.48-.65,3.94-1.74,5.06-3.19.95-1.24,1.61-3.24,1.79-4.56h-6.99c-.47,0-.82.03-1.14.04v-.75c.34.04.73.08,1.16.08h6.81c.17,0,.32,0,.51-.05l.51.32c-.08.14-.1.26-.14.51Z"/>
        <path class="cls-7" d="M537.68,36.21c-.34.53-1.35,2.13-2.68,3l-.57-.4c1.03-.57,2.04-1.86,2.46-2.55-.78,0-6.15-.01-6.55-.01-.36,0-.79.01-1.14.04v-.73c.34.04.78.06,1.14.06h6.66c.14,0,.36-.01.49-.05l.39.36c-.06.08-.14.18-.19.27ZM530.56,43.44l-.64-.49c.25-.09.56-.22.81-.38,1.91-1.29,2.15-2.89,2.15-4.61,0-.22-.03-.44-.05-.69h.74c-.01,2.98-.42,4.76-3,6.18Z"/>
        <path class="cls-7" d="M547.16,39.95c1.87-1.21,3.39-3.11,4.09-4.63l.4.7c-.83,1.52-2.21,3.28-4.11,4.5-1.29.83-2.91,1.68-5.28,2.15l-.44-.69c2.41-.36,4.11-1.24,5.33-2.03ZM545.93,35.88l-.51.52c-.65-.65-2.25-2.04-3.22-2.68l.46-.48c.92.61,2.59,1.96,3.28,2.64Z"/>
        <path class="cls-7" d="M559.63,42.84l-.38-.64c.35-.01.77-.08,1.05-.13,1.66-.36,3.51-1.64,3.51-4.08,0-2.05-1.44-3.86-3.94-3.98-.16,1.29-.4,2.69-.77,3.89-.79,2.69-1.78,3.93-2.86,3.93-.99,0-2.12-1.17-2.12-3.29,0-2.73,2.44-5.12,5.51-5.12s4.82,2.09,4.82,4.6c0,2.73-1.86,4.47-4.84,4.82ZM556.29,41.1c.64,0,1.46-.9,2.18-3.35.35-1.16.61-2.47.74-3.72-2.69.23-4.45,2.5-4.45,4.46,0,1.83.88,2.61,1.52,2.61Z"/>
        <path class="cls-7" d="M569.08,37.93v5.56h-.57v-5.54c-.81.05-1.56.09-2.2.12l-.06-.59.9-.04c.3-.36.62-.81.95-1.27-.39-.58-1.07-1.36-1.7-1.94l.36-.38c.16.13.3.27.46.43.46-.74.99-1.81,1.29-2.56l.56.23c-.43.88-1,1.96-1.5,2.69.34.35.64.72.87,1.04.57-.87,1.12-1.78,1.51-2.52l.56.26c-.77,1.26-1.82,2.86-2.72,3.99.72-.04,1.5-.08,2.31-.12-.21-.43-.46-.87-.7-1.25l.49-.2c.56.83,1.11,1.94,1.31,2.63l-.53.25c-.07-.25-.18-.56-.33-.88l-1.26.08ZM567.73,39.11c-.21,1.22-.52,2.44-.95,3.28-.1-.08-.38-.2-.52-.25.46-.81.73-1.98.9-3.13l.57.1ZM570.43,41.49c-.08-.64-.36-1.63-.69-2.38l.49-.14c.35.75.62,1.73.71,2.37l-.52.16ZM575.18,39.38c.82,1.21,2.17,2.47,3.32,3.07-.14.12-.33.32-.44.48-1.09-.66-2.39-1.92-3.24-3.19v3.74h-.61v-3.69c-.86,1.34-2.2,2.56-3.42,3.22-.1-.17-.29-.38-.44-.49,1.27-.6,2.67-1.86,3.5-3.15h-2.42v-4.38h2.78v-1.3h-3.22v-.59h3.22v-1.38h.61v1.38h3.24v.59h-3.24v1.3h2.9v4.38h-2.54ZM571.99,36.92h2.24v-1.4h-2.24v1.4ZM571.99,38.85h2.24v-1.42h-2.24v1.42ZM577.11,35.52h-2.33v1.4h2.33v-1.4ZM577.11,37.43h-2.33v1.42h2.33v-1.42Z"/>
        <path class="cls-7" d="M583.21,35.72c-1.2.48-2.42.99-3.39,1.37l-.26-.53c.91-.3,2.24-.81,3.55-1.34l.1.51ZM584.04,32.99h-4.2v-.55h4.78v4.29c0,.32-.08.49-.35.6-.29.1-.78.09-1.61.09-.04-.16-.13-.36-.21-.51.66.01,1.21.01,1.37,0,.17,0,.22-.05.22-.18v-3.74ZM580.88,33.26c.65.34,1.4.88,1.74,1.29l-.38.43c-.36-.43-1.09-.99-1.73-1.34l.36-.38ZM585.6,37.12c-.19.38-.4.75-.6,1.08h4.37v5.34h-.64v-.53h-6.79v.53h-.61v-5.34h3.04c.22-.39.47-.9.58-1.25l.64.17ZM588.74,38.73h-6.79v1.56h6.79v-1.56ZM588.74,42.46v-1.62h-6.79v1.62h6.79ZM585.28,36.27c.95-.31,2.35-.82,3.73-1.31l.09.49c-1.25.47-2.55.96-3.56,1.33l-.26-.51ZM590.4,36.76c0,.35-.09.52-.36.62-.29.09-.81.1-1.68.09-.03-.16-.12-.38-.2-.52.68.03,1.25.03,1.42.01.17-.01.22-.05.22-.21v-3.77h-4.28v-.55h4.88v4.32ZM587.71,34.94c-.35-.43-1.09-.95-1.74-1.29l.36-.38c.64.31,1.39.83,1.77,1.22l-.39.44Z"/>
        <path class="cls-11" d="M509.88,62.77h-8.33v-8.33h8.33v8.33Z"/>
        <path class="cls-7" d="M517.35,54.56h6.12c.43,0,.74-.01,1.01-.04v.69c-.29-.01-.56-.03-1.01-.03h-3.55v3.06h4.64c.27,0,.7-.01.97-.04v.7c-.27-.01-.68-.03-.96-.03h-4.65v2.96c0,.62.46,1.1,1.74,1.1s2.3-.05,3.45-.18l-.03.69c-1.1.08-2.22.14-3.48.14-1.72,0-2.35-.62-2.35-1.53v-3.19h-2.77c-.31,0-.77.01-1.1.04v-.73c.34.04.79.05,1.1.05h2.77v-3.06h-1.9c-.43,0-.79.01-1.12.03v-.69c.33.03.69.04,1.12.04Z"/>
        <path class="cls-7" d="M529.06,57.52h8.5c.27,0,.61-.03.91-.05v.72c-.26-.03-.62-.04-.91-.04h-3.76c-.03,1.43-.21,2.69-.75,3.69-.48.84-1.46,1.74-2.52,2.29l-.62-.47c1.05-.46,2-1.21,2.51-2.07.6-.97.69-2.13.71-3.45h-4.07c-.4,0-.71.01-1.07.04v-.72c.34.03.66.05,1.07.05ZM530.61,54.3h4.65c.33,0,.75-.01,1.11-.06v.73c-.35-.03-.78-.04-1.11-.04h-4.63c-.42,0-.77.01-1.07.04v-.73c.34.04.64.06,1.04.06ZM538.06,54.86l-.51.25c-.25-.53-.71-1.31-1.07-1.81l.49-.22c.33.47.79,1.24,1.08,1.78ZM539.45,54.36l-.51.23c-.29-.57-.71-1.3-1.09-1.78l.48-.22c.35.48.86,1.27,1.12,1.77Z"/>
        <path class="cls-7" d="M543.16,60.06c.38-1.24.39-3.9.39-5.29,0-.3-.03-.55-.08-.79h.78c-.03.21-.05.49-.05.79,0,1.38-.05,4.2-.4,5.49-.39,1.35-1.24,2.61-2.31,3.47l-.62-.42c1.07-.77,1.89-1.91,2.3-3.25ZM546.85,62.68v-7.9c0-.44-.04-.73-.05-.87h.77c-.03.14-.04.43-.04.87v7.92c1.29-.6,3.08-1.87,4.13-3.47l.4.57c-1.16,1.59-2.93,2.87-4.45,3.63-.18.09-.31.18-.39.25l-.46-.38c.05-.18.08-.4.08-.61Z"/>
      </g>
      <g>
        <path class="cls-11" d="M634.23,41.77h-8.33v-8.33h8.33v8.33Z"/>
        <path class="cls-7" d="M638.55,41.42l.43-.51c.55.59,1.29,1.16,2.5,1.16s2.11-.78,2.11-1.96-.88-2.05-3.15-2.05v-.64c2.08,0,2.81-.87,2.81-1.94,0-1-.7-1.65-1.79-1.65-.82,0-1.56.43-2.08.99l-.44-.51c.65-.64,1.46-1.13,2.54-1.13,1.46,0,2.56.82,2.56,2.25,0,1.18-.73,1.91-1.74,2.25v.05c1.14.25,2.08,1.09,2.08,2.39,0,1.6-1.25,2.6-2.86,2.6-1.47,0-2.35-.66-2.95-1.3Z"/>
        <path class="cls-7" d="M646.48,33.08h2.24c2.91,0,4.34,1.81,4.34,4.71s-1.43,4.77-4.33,4.77h-2.25v-9.48ZM648.64,41.89c2.5,0,3.6-1.65,3.6-4.11s-1.11-4.06-3.6-4.06h-1.38v8.16h1.38Z"/>
        <path class="cls-7" d="M668.16,36.56c-.3,1.29-.9,2.69-1.87,3.74-1.39,1.51-3,2.21-4.65,2.65l-.52-.6c1.77-.35,3.45-1.2,4.62-2.44.84-.9,1.43-2.17,1.68-3.25h-7.28c-.3,0-.7.01-1.12.04v-.74c.42.05.81.08,1.12.08h7.1c.22,0,.46-.03.58-.08l.49.3c-.05.09-.12.22-.14.3ZM661.21,33.1h5.19c.4,0,.75-.01,1.04-.05v.72c-.29-.03-.64-.03-1.05-.03h-5.17c-.38,0-.71.01-1.05.03v-.72c.33.04.65.05,1.05.05Z"/>
        <path class="cls-7" d="M674.35,38.76l-.62.23c-.21-.68-.94-2.51-1.16-2.9l.61-.25c.22.48.92,2.25,1.17,2.91ZM680.71,36.26c-.34,1.51-.91,2.93-1.87,4.12-1.2,1.5-2.77,2.47-4.17,3l-.56-.57c1.55-.47,3.11-1.46,4.19-2.78.94-1.16,1.62-2.77,1.86-4.45l.71.22c-.06.17-.12.34-.16.46ZM677.2,37.98l-.61.23c-.13-.57-.75-2.27-1-2.79l.62-.21c.21.51.85,2.22.99,2.77Z"/>
        <path class="cls-7" d="M687.79,37.35l-.39.58c-.58-.43-2.03-1.35-2.77-1.73l.38-.56c.7.38,2.28,1.34,2.78,1.7ZM689.59,40.54c2.12-1.23,3.78-2.89,4.84-4.71l.42.66c-1.09,1.72-2.86,3.42-4.91,4.63-1.3.78-3.04,1.35-4.29,1.63l-.38-.68c1.42-.25,3.07-.81,4.33-1.53ZM689.69,34.57l-.42.56c-.56-.46-2-1.43-2.7-1.83l.36-.56c.72.42,2.25,1.46,2.76,1.83Z"/>
        <path class="cls-7" d="M705.43,36.69c-.09.95-.52,3.78-.7,4.9h1.56c.26,0,.64-.01.88-.03v.68c-.22-.01-.61-.01-.85-.01h-7.29c-.36,0-.64.01-.96.03v-.7c.3.03.6.04.96.04h5c.18-1,.64-4.03.66-4.77h-4.49c-.36,0-.61.01-.9.03v-.72c.29.03.56.05.88.05h4.3c.18,0,.39-.03.47-.07l.52.26c-.04.09-.06.22-.06.31Z"/>
        <path class="cls-11" d="M634.23,62.77h-8.33v-8.33h8.33v8.33Z"/>
        <path class="cls-7" d="M642.47,54.97l.73.14c-.07.25-.13.48-.2.74-.17.74-.62,2.76-1.22,4.16-.48,1.14-1.16,2.41-1.92,3.5l-.68-.3c.82-1.09,1.53-2.44,1.99-3.48.56-1.3,1.12-3.35,1.3-4.76ZM645.69,55.08l.65-.23c.49.91,1.3,2.59,1.88,4.03.56,1.34,1.25,3.29,1.59,4.41l-.7.22c-.31-1.2-.99-3.03-1.53-4.41-.53-1.33-1.31-3.07-1.89-4.02ZM649.07,55.34l-.51.25c-.25-.53-.71-1.31-1.07-1.81l.49-.22c.32.47.81,1.24,1.08,1.78ZM650.46,54.84l-.49.25c-.3-.58-.73-1.3-1.09-1.79l.47-.22c.35.48.87,1.27,1.12,1.77Z"/>
        <path class="cls-7" d="M658.11,56.6c1.38-.88,2.57-1.9,3.51-3.02l.55.51c-1,1.05-2.16,2.03-3.54,2.94v5.63c0,.43.03.98.07,1.2h-.81c.03-.21.05-.77.05-1.2v-5.2c-1.36.82-3.24,1.65-5.15,2.25l-.35-.64c2.21-.61,4.24-1.57,5.67-2.47Z"/>
        <path class="cls-7" d="M671.5,60.95c1.87-1.21,3.39-3.11,4.09-4.63l.4.7c-.83,1.52-2.21,3.28-4.11,4.5-1.29.83-2.91,1.68-5.28,2.15l-.44-.69c2.41-.36,4.11-1.24,5.33-2.03ZM670.27,56.88l-.51.52c-.65-.65-2.25-2.04-3.22-2.68l.45-.48c.92.61,2.59,1.96,3.28,2.64Z"/>
        <path class="cls-7" d="M681.28,55.01c0-.31-.01-.86-.08-1.24h.83c-.04.36-.08.94-.08,1.24v2.25c1.72.52,4.12,1.47,5.62,2.21l-.29.69c-1.43-.79-3.89-1.73-5.33-2.17.01,2.16.01,4.36.01,4.63,0,.44.01,1.03.05,1.39h-.79c.04-.36.05-.92.05-1.39v-7.61ZM686.66,56.34l-.52.25c-.29-.6-.77-1.43-1.16-1.96l.49-.23c.31.43.88,1.33,1.18,1.95ZM688.2,55.7l-.52.25c-.3-.6-.79-1.4-1.2-1.95l.49-.23c.31.42.9,1.31,1.22,1.94Z"/>
        <path class="cls-7" d="M693.24,54.86h6.86c.26,0,.72,0,1.07-.03-.03.27-.03.59-.03.86v6.44c0,.36.01,1.24.03,1.43h-.73c.01-.13.01-.44.03-.77h-7.59c.01.3.01.62.03.77h-.71c.01-.22.03-1.07.03-1.43v-6.44c0-.25,0-.57-.01-.86.49.03.75.03,1.04.03ZM692.88,62.15h7.59v-6.64h-7.59v6.64Z"/>
        <path class="cls-7" d="M707.41,59.76l-.62.23c-.21-.68-.94-2.51-1.16-2.9l.61-.25c.22.48.92,2.25,1.17,2.91ZM713.77,57.26c-.34,1.51-.91,2.93-1.87,4.12-1.2,1.5-2.77,2.47-4.17,3l-.56-.57c1.55-.47,3.11-1.46,4.19-2.78.94-1.16,1.62-2.77,1.86-4.45l.71.22c-.06.17-.12.34-.16.46ZM710.26,58.98l-.61.23c-.13-.57-.75-2.27-1-2.79l.62-.21c.21.51.85,2.22.99,2.77Z"/>
        <path class="cls-7" d="M722.4,54.32c-.13.26-.29.55-.47.83h4.07c.31,0,.52-.04.68-.1l.58.34c-.08.16-.18.42-.22.56-.35,1.39-1.18,3.17-2.33,4.56-1.14,1.4-2.7,2.59-5.14,3.46l-.58-.56c2.22-.64,3.95-1.83,5.16-3.28,1.08-1.3,1.91-3.05,2.21-4.37h-4.84c-.74,1.08-1.79,2.26-3.3,3.24l-.57-.43c2.22-1.3,3.59-3.33,4.11-4.51.09-.18.25-.57.3-.85l.78.27c-.16.26-.33.61-.44.83Z"/>
      </g>
      <polyline class="cls-3" points="39.95 93.81 39.95 15.94 341.4 15.94"/>
      <polyline class="cls-1" points="350.63 93.81 350.63 15.46 487.66 15.46"/>
      <polyline class="cls-4" points="495.55 93.81 495.55 14.9 794.04 14.9"/>
      <g>
        <path class="cls-16" d="M29.17,251.26v2.88c-.27.02-.48.15-.63.38-.15.23-.23.5-.23.81,0,.27.05.5.14.69s.24.28.42.28c.13,0,.25-.06.37-.17.11-.11.2-.33.26-.66l.31-1.78c.16-.89.43-1.56.81-2,.39-.44.9-.66,1.55-.66s1.17.18,1.62.55c.46.36.81.86,1.05,1.5s.37,1.35.37,2.16c0,1.33-.27,2.38-.82,3.13-.54.75-1.26,1.17-2.15,1.26v-3.11c.28-.05.49-.19.64-.42s.22-.53.22-.88c0-.29-.05-.53-.15-.72s-.24-.28-.41-.28c-.31,0-.52.33-.64,1l-.28,1.55c-.16.89-.46,1.55-.89,1.99-.43.44-.99.66-1.68.66-.61,0-1.12-.16-1.55-.49-.42-.33-.74-.79-.96-1.39s-.33-1.32-.33-2.15c0-1.26.26-2.25.79-2.98s1.25-1.11,2.17-1.14Z"/>
        <path class="cls-16" d="M35.06,250.19h-11.64v-3.14h11.64v3.14ZM32.99,247.38l-3.73-.03v-.41l-2.94-2.11v-3.53l4.58,3.55v.89l2.09,1.64ZM35.06,244.8l-3.45,2-2.23-2.05,5.69-3.53v3.58Z"/>
        <path class="cls-16" d="M25.43,239.3c0,.43-.14.79-.42,1.09-.28.3-.62.45-1.02.45s-.74-.15-1.02-.45c-.28-.3-.42-.67-.42-1.09s.14-.79.42-1.09c.28-.3.62-.45,1.01-.45s.74.15,1.02.45c.28.3.42.67.42,1.09ZM35.06,240.87h-8.73v-3.14h8.73v3.14Z"/>
        <path class="cls-16" d="M23.42,233.37h11.64v3.14h-11.64v-3.14Z"/>
        <path class="cls-16" d="M23.42,229.01h11.64v3.14h-11.64v-3.14Z"/>
        <path class="cls-16" d="M29.17,219.82v2.88c-.27.02-.48.15-.63.38-.15.23-.23.5-.23.81,0,.27.05.5.14.69s.24.28.42.28c.13,0,.25-.06.37-.17.11-.11.2-.33.26-.66l.31-1.78c.16-.89.43-1.56.81-2,.39-.44.9-.66,1.55-.66s1.17.18,1.62.55c.46.36.81.86,1.05,1.5s.37,1.35.37,2.16c0,1.33-.27,2.38-.82,3.13-.54.75-1.26,1.17-2.15,1.26v-3.11c.28-.05.49-.19.64-.42s.22-.53.22-.88c0-.29-.05-.53-.15-.72s-.24-.28-.41-.28c-.31,0-.52.33-.64,1l-.28,1.55c-.16.89-.46,1.55-.89,1.99-.43.44-.99.66-1.68.66-.61,0-1.12-.16-1.55-.49-.42-.33-.74-.79-.96-1.39s-.33-1.32-.33-2.15c0-1.26.26-2.25.79-2.98s1.25-1.11,2.17-1.14Z"/>
        <path class="cls-16" d="M35.2,213.51c0,.56-.09,1.05-.28,1.48s-.46.76-.84,1c-.38.24-.85.36-1.43.36-.48,0-.89-.08-1.23-.24-.34-.16-.62-.39-.83-.68-.22-.29-.38-.63-.5-1.02-.12-.39-.19-.81-.22-1.26-.04-.49-.08-.88-.13-1.18-.05-.29-.13-.51-.23-.64s-.24-.2-.4-.2h-.03c-.22,0-.4.09-.52.26s-.18.39-.18.66c0,.3.07.55.2.73s.33.3.6.34v2.88c-.53-.04-1.02-.2-1.47-.5-.45-.3-.81-.74-1.08-1.32-.27-.58-.41-1.31-.41-2.18,0-.62.07-1.18.22-1.67.15-.49.35-.92.61-1.27.26-.35.56-.62.91-.8.35-.18.72-.28,1.12-.28h5.98v2.94h-1.23v.06c.33.18.59.39.79.64.2.25.35.53.44.84s.14.66.14,1.04ZM33.21,212.49c0-.24-.05-.46-.15-.68s-.24-.38-.43-.52-.41-.2-.68-.2h-.72c.03.08.06.17.09.27s.06.19.09.3c.03.11.05.22.07.33.02.11.04.23.06.36.04.24.1.44.18.6.09.15.19.27.31.34.12.07.26.11.41.11.25,0,.43-.08.56-.25.13-.17.19-.39.19-.65Z"/>
        <path class="cls-16" d="M35.21,202.57c0,.95-.19,1.76-.57,2.43-.38.67-.9,1.19-1.58,1.55-.67.36-1.46.54-2.36.54s-1.68-.18-2.36-.54c-.67-.36-1.2-.87-1.58-1.55-.38-.67-.57-1.49-.57-2.43,0-.86.16-1.6.46-2.23s.75-1.11,1.3-1.45,1.22-.52,1.98-.52v2.91c-.31.03-.57.09-.77.2s-.37.25-.47.43c-.11.18-.16.38-.16.62,0,.28.08.52.23.72s.39.36.71.47c.32.11.72.17,1.2.17s.87-.06,1.2-.17c.32-.11.57-.27.73-.47s.25-.44.25-.72c0-.34-.13-.63-.38-.86s-.61-.36-1.07-.39v-2.91c.77.01,1.44.19,2.01.53.57.34,1.01.82,1.32,1.45.31.62.46,1.37.46,2.23Z"/>
        <path class="cls-16" d="M38.32,191.88h-4.7v.05c.3.12.56.29.79.52.23.22.42.49.55.81.14.32.2.68.2,1.09,0,.62-.16,1.19-.49,1.71s-.82.94-1.48,1.25-1.5.47-2.5.47c-1.06,0-1.92-.16-2.57-.49s-1.14-.75-1.45-1.27c-.31-.52-.46-1.07-.46-1.64,0-.43.07-.81.22-1.14.15-.33.35-.6.6-.82.25-.22.52-.39.82-.5v-.08h-1.53v-3.11h12v3.14ZM32.76,193.19c0-.29-.08-.53-.25-.74-.17-.21-.41-.37-.71-.48-.31-.11-.67-.17-1.09-.17s-.8.06-1.11.17c-.31.11-.55.27-.71.48-.17.21-.25.46-.25.74s.08.53.25.73.41.36.71.46c.31.11.68.16,1.11.16s.8-.05,1.11-.16c.31-.11.55-.26.71-.46s.25-.45.25-.73Z"/>
        <path class="cls-16" d="M31.24,181.87h-4.92v-3.14h8.73v2.98h-1.66v.09c.55.19.99.52,1.3.99.32.47.47,1.03.46,1.68,0,.61-.14,1.14-.42,1.6-.28.46-.66.81-1.16,1.07-.49.25-1.06.38-1.69.38h-5.58v-3.14h4.92c.43,0,.76-.11,1.01-.33s.37-.53.36-.92c0-.26-.05-.48-.16-.67s-.27-.33-.47-.44c-.21-.1-.45-.16-.74-.16Z"/>
        <path class="cls-16" d="M25.43,175.94c0,.43-.14.79-.42,1.09-.28.3-.62.45-1.02.45s-.74-.15-1.02-.45c-.28-.3-.42-.67-.42-1.09s.14-.79.42-1.09c.28-.3.62-.45,1.01-.45s.74.15,1.02.45c.28.3.42.67.42,1.09ZM35.06,177.51h-8.73v-3.14h8.73v3.14Z"/>
        <path class="cls-16" d="M35.06,173.15h-8.73v-3.05h1.67v-.09c-.62-.16-1.07-.41-1.36-.75-.28-.35-.43-.75-.43-1.21,0-.14.01-.27.03-.41.02-.14.05-.27.09-.39h2.67c-.06.16-.1.35-.12.57s-.04.42-.04.58c0,.31.07.58.21.83.14.24.33.44.58.57.25.14.54.21.87.21h4.55v3.14Z"/>
        <path class="cls-16" d="M35.21,162.4c0,.93-.18,1.74-.54,2.41-.36.67-.87,1.19-1.54,1.55s-1.48.54-2.42.54-1.69-.18-2.36-.54c-.67-.36-1.2-.87-1.57-1.54-.38-.66-.56-1.44-.56-2.34,0-.66.1-1.26.31-1.79.21-.53.5-.99.89-1.37.39-.38.86-.67,1.41-.88s1.18-.3,1.88-.3h.72v7.8h-1.72v-6.33l.36,1.47c-.35,0-.65.05-.89.16-.24.1-.43.26-.55.46s-.19.46-.19.76.06.55.19.76.31.36.55.46c.24.1.54.16.89.16h1.25c.34,0,.64-.06.9-.18.25-.12.45-.3.59-.52.14-.22.21-.48.21-.78,0-.21-.03-.41-.09-.58-.06-.17-.15-.32-.26-.45s-.25-.22-.41-.28v-2.86c.6.1,1.13.33,1.57.69.45.36.79.84,1.03,1.44.24.6.36,1.3.36,2.11Z"/>
        <path class="cls-16" d="M35.17,154.13c0,.62-.16,1.19-.49,1.71s-.82.94-1.48,1.25-1.5.47-2.5.47c-1.06,0-1.92-.16-2.57-.49s-1.14-.75-1.45-1.27c-.31-.52-.46-1.07-.46-1.64,0-.43.07-.81.22-1.14.15-.33.35-.6.6-.82.25-.22.52-.39.82-.5v-.05h-4.44v-3.14h11.64v3.11h-1.44v.08c.3.12.56.29.79.52.23.22.42.49.55.81.14.32.2.68.2,1.09ZM32.76,152.97c0-.29-.08-.53-.25-.74-.17-.21-.41-.37-.71-.48-.31-.11-.67-.17-1.09-.17s-.8.06-1.11.17c-.31.11-.55.27-.71.48-.17.21-.25.46-.25.74s.08.53.25.73.41.36.71.46c.31.11.68.16,1.11.16s.8-.05,1.11-.16c.31-.11.55-.26.71-.46s.25-.45.25-.73Z"/>
      </g>
      <polyline class="cls-2" points="800.18 108.36 800.18 272.33 924.23 272.33"/>
      <path class="cls-10" d="M817.01,118.22h-335.75c-7.25,0-13.13-5.88-13.13-13.13s5.88-13.13,13.13-13.13h335.75c7.25,0,13.13,5.88,13.13,13.13s-5.88,13.13-13.13,13.13Z"/>
      <path class="cls-8" d="M926.15,118.22h-122c-7.25,0-13.13-5.88-13.13-13.13s5.88-13.13,13.13-13.13h122c7.25,0,13.13,5.88,13.13,13.13s-5.88,13.13-13.13,13.13Z"/>
      <g>
        <path class="cls-13" d="M537.22,110.66h-.98l3.71-10.19h.99l3.71,10.19h-.97l-3.2-8.98h-.07l-3.19,8.98ZM537.93,106.75h5.05v.83h-5.05v-.83Z"/>
        <path class="cls-13" d="M550.62,107.75v-4.73h.88v7.64h-.88v-1.27h-.07c-.18.39-.47.72-.85.98-.39.26-.86.39-1.42.39-.49,0-.92-.11-1.29-.32-.38-.21-.67-.53-.89-.94-.22-.42-.33-.93-.33-1.53v-4.95h.88v4.9c0,.59.18,1.07.53,1.44.35.36.8.54,1.35.54.35,0,.68-.08,1-.25s.58-.41.79-.72c.21-.32.31-.71.31-1.18Z"/>
        <path class="cls-13" d="M556.32,113.68c-.78,0-1.42-.15-1.91-.44-.49-.29-.85-.66-1.07-1.09l.72-.48c.1.2.25.39.44.57s.43.34.72.46c.3.12.66.18,1.09.18.68,0,1.23-.17,1.64-.51.42-.34.63-.86.63-1.57v-1.72h-.09c-.1.23-.25.46-.44.69-.19.23-.44.42-.75.57-.31.15-.7.23-1.16.23-.61,0-1.15-.15-1.62-.45-.47-.3-.84-.73-1.11-1.3-.27-.56-.41-1.23-.41-2.01s.13-1.45.4-2.04c.26-.59.63-1.04,1.11-1.37.47-.33,1.03-.5,1.65-.5.47,0,.86.08,1.17.25.31.17.56.37.75.61.19.24.33.48.44.7h.1v-1.46h.85v7.84c0,.65-.14,1.18-.41,1.6-.27.42-.64.73-1.12.93-.47.2-1.01.3-1.62.3ZM556.26,109.77c.73,0,1.31-.26,1.72-.79.41-.53.62-1.25.62-2.17,0-.6-.09-1.13-.27-1.59-.18-.46-.45-.83-.79-1.09-.35-.27-.77-.4-1.27-.4s-.95.14-1.3.41c-.35.28-.62.65-.8,1.11-.18.46-.27.98-.27,1.56s.09,1.1.27,1.54c.18.45.45.8.8,1.05.35.25.78.38,1.29.38Z"/>
        <path class="cls-13" d="M565.48,105.88v.83h-4.24v-.83h4.24Z"/>
        <path class="cls-13" d="M567.44,100.47h1.08l3.69,8.87h.1l3.69-8.87h1.11v10.19h-.91v-8.22h-.08l-3.45,8.22h-.84l-3.42-8.22h-.08v8.22h-.89v-10.19Z"/>
        <path class="cls-13" d="M581.32,110.83c-.46,0-.88-.09-1.26-.27s-.69-.44-.91-.79c-.23-.34-.34-.76-.34-1.25,0-.38.07-.69.21-.95.14-.26.34-.47.61-.63.26-.17.58-.3.93-.4.36-.1.75-.17,1.19-.22.43-.05.79-.1,1.09-.14.3-.04.52-.1.68-.19.16-.09.23-.23.23-.42v-.18c0-.52-.16-.94-.46-1.23-.31-.3-.75-.45-1.33-.45s-1,.12-1.35.36c-.35.24-.59.53-.72.85l-.85-.31c.17-.41.41-.75.72-1,.31-.25.65-.43,1.03-.54.38-.11.76-.17,1.15-.17.29,0,.59.04.91.12.31.08.61.21.88.4.27.19.5.45.67.78.17.33.26.76.26,1.27v5.18h-.89v-1.21h-.05c-.1.22-.25.44-.46.65s-.47.39-.79.52-.69.21-1.11.21ZM581.45,110.02c.47,0,.88-.1,1.22-.31.34-.21.61-.49.8-.84.19-.35.28-.73.28-1.15v-1.1c-.07.06-.18.12-.33.17-.15.05-.33.09-.53.13-.2.04-.4.07-.6.1-.2.03-.38.05-.54.07-.43.05-.8.14-1.1.25-.31.11-.54.27-.7.46-.16.2-.24.45-.24.76,0,.46.17.82.5,1.07.33.26.75.38,1.25.38Z"/>
        <path class="cls-13" d="M586.53,110.66v-7.64h.85v1.18h.07c.16-.39.42-.7.8-.93.38-.23.81-.35,1.29-.35h.24c.09,0,.16,0,.22,0v.9s-.1-.01-.21-.02c-.1-.01-.21-.02-.33-.02-.39,0-.74.08-1.06.25-.31.17-.56.4-.74.69s-.27.63-.27,1.01v4.93h-.88Z"/>
      </g>
      <g>
        <path class="cls-13" d="M822.85,110.66h-.98l3.71-10.19h.99l3.71,10.19h-.97l-3.2-8.98h-.07l-3.19,8.98ZM823.55,106.75h5.05v.83h-5.05v-.83Z"/>
        <path class="cls-13" d="M831.39,113.51v-10.5h.85v1.46h.1c.1-.23.25-.46.44-.7.19-.24.44-.45.75-.61.31-.17.7-.25,1.16-.25.63,0,1.18.17,1.65.5.47.33.84.79,1.1,1.38.26.59.4,1.28.4,2.06s-.13,1.48-.39,2.08c-.26.6-.63,1.06-1.1,1.39-.47.33-1.02.5-1.65.5-.46,0-.85-.08-1.16-.25-.31-.17-.56-.37-.75-.62-.19-.25-.34-.49-.44-.72h-.08v4.28h-.88ZM834.6,110.01c.5,0,.93-.14,1.28-.42.35-.28.62-.66.8-1.14s.27-1.01.27-1.6-.09-1.12-.27-1.59-.45-.85-.79-1.12c-.35-.28-.77-.42-1.29-.42s-.92.13-1.27.4-.61.63-.79,1.1c-.18.47-.27,1.01-.27,1.63s.09,1.15.27,1.63c.18.48.45.85.8,1.12.35.27.77.41,1.27.41Z"/>
        <path class="cls-13" d="M839.34,110.66v-7.64h.85v1.18h.07c.16-.39.42-.7.8-.93.38-.23.81-.35,1.29-.35h.24c.09,0,.16,0,.22,0v.9s-.1-.01-.21-.02c-.1-.01-.21-.02-.33-.02-.39,0-.74.08-1.06.25-.31.17-.56.4-.74.69s-.27.63-.27,1.01v4.93h-.88Z"/>
        <path class="cls-13" d="M844.34,101.71c-.18,0-.34-.06-.47-.19-.13-.13-.19-.28-.19-.45s.07-.32.19-.44c.13-.12.29-.18.47-.18s.34.06.46.18.19.27.19.44-.06.33-.19.45c-.13.13-.28.19-.46.19ZM843.89,110.66v-7.64h.88v7.64h-.88Z"/>
        <path class="cls-13" d="M847.56,100.47v10.19h-.88v-10.19h.88Z"/>
      </g>
      <g>
        <path class="cls-13" d="M489.85,115c-1.58,0-2.99-.25-4.23-.74-1.24-.49-2.21-1.16-2.93-2-.71-.84-1.07-1.79-1.07-2.85,0-.81.2-1.55.61-2.22s.95-1.23,1.64-1.68c.69-.45,1.46-.74,2.31-.87v-.13c-1.12-.2-2.04-.71-2.76-1.51-.73-.8-1.09-1.75-1.09-2.84,0-1.03.33-1.94.98-2.74.65-.8,1.54-1.43,2.68-1.89,1.13-.46,2.42-.69,3.86-.69s2.74.23,3.88.69c1.14.46,2.03,1.09,2.68,1.9s.98,1.72.98,2.74c0,1.1-.37,2.05-1.1,2.85-.73.8-1.65,1.3-2.75,1.5v.13c.84.13,1.61.42,2.3.87.69.45,1.24,1.01,1.65,1.68.41.67.61,1.41.61,2.22,0,1.05-.36,2-1.07,2.85-.71.84-1.69,1.51-2.93,2-1.24.49-2.66.74-4.25.74ZM489.85,111.34c.51,0,.96-.1,1.35-.31.39-.21.7-.49.92-.86.22-.36.34-.78.34-1.23s-.11-.85-.34-1.19c-.22-.35-.53-.62-.92-.82-.39-.2-.84-.3-1.35-.3s-.93.1-1.33.3c-.39.2-.7.47-.92.82-.22.35-.34.75-.34,1.21s.11.87.34,1.23c.22.36.53.65.92.86.39.21.83.32,1.33.32ZM489.85,102.92c.45,0,.85-.09,1.19-.28.35-.18.62-.44.82-.76.2-.32.3-.69.3-1.09s-.1-.78-.3-1.09-.48-.56-.82-.74c-.35-.18-.75-.27-1.19-.27s-.83.09-1.18.27c-.35.18-.62.43-.82.74-.2.32-.3.68-.3,1.09s.1.77.3,1.09c.2.32.47.58.82.76.35.19.74.28,1.18.28Z"/>
        <path class="cls-13" d="M511.01,104.93v3.98h-9.2v-3.98h9.2Z"/>
        <path class="cls-13" d="M522.5,115c-1.55,0-2.92-.27-4.12-.8-1.2-.53-2.14-1.27-2.82-2.21-.68-.94-1.02-2.02-1.02-3.24h5.35c0,.38.11.71.34,1.01.23.29.54.53.95.69.4.17.86.25,1.37.25s.92-.09,1.3-.26c.37-.18.66-.42.87-.73.21-.31.31-.66.31-1.07s-.12-.76-.36-1.06c-.24-.3-.58-.54-1.02-.71-.43-.17-.94-.26-1.52-.26h-2v-3.69h2c.53,0,.99-.09,1.4-.26.4-.18.72-.42.95-.72s.34-.65.34-1.05-.1-.73-.29-1.02-.46-.52-.8-.69c-.34-.17-.73-.25-1.18-.25-.49,0-.93.09-1.31.26-.38.17-.68.41-.9.71-.22.3-.32.66-.32,1.06h-5.12c0-1.2.33-2.27.98-3.19.65-.92,1.56-1.65,2.71-2.17,1.15-.52,2.47-.78,3.96-.78s2.73.25,3.85.74c1.12.49,1.99,1.17,2.62,2.03.63.86.94,1.85.94,2.95s-.38,1.99-1.14,2.7c-.76.71-1.72,1.13-2.89,1.26v.13c1.58.18,2.77.66,3.56,1.46.79.8,1.19,1.8,1.19,3s-.35,2.17-1.04,3.07c-.7.89-1.66,1.59-2.88,2.09-1.23.5-2.64.75-4.25.75Z"/>
      </g>
      <path class="cls-13" d="M798.87,111.68v-4.14l7.91-12.45h3.74v5.54h-2.14l-4.27,6.75v.16h11.68v4.14h-16.93ZM808.42,114.74v-4.32l.13-1.82v-13.5h4.98v19.64h-5.12Z"/>
      <g>
        <rect class="cls-7" x="438.39" y="127.71" width="100" height="50"/>
        <polygon class="cls-7" points="487.79 127.99 494.1 127.99 490.94 122.52 487.79 117.05 484.63 122.52 481.47 127.99 487.79 127.99"/>
        <g>
          <path class="cls-13" d="M454.09,142.6c-.56.95-1.79,2.6-3.19,3.59l-1.08-.87c1.14-.66,2.27-1.95,2.65-2.69h-7.12c-.52,0-.97.04-1.53.08v-1.44c.48.06,1.01.12,1.53.12h7.27c.29,0,.87-.04,1.08-.09l.82.77c-.12.14-.32.39-.43.55ZM445.65,151.43l-1.2-.98c.38-.13.83-.34,1.25-.64,1.86-1.2,2.16-2.83,2.16-4.99,0-.35-.01-.66-.08-1.04h1.48c0,3.39-.2,5.89-3.61,7.64Z"/>
          <path class="cls-13" d="M461.93,143.6c1.35-.83,2.73-2.04,3.61-3.09l1.09,1.04c-.99,1-2.21,2-3.5,2.85v5.4c0,.53.03,1.25.09,1.53h-1.61c.04-.29.08-1,.08-1.53v-4.52c-1.36.74-3.08,1.5-4.8,2.02l-.64-1.29c2.27-.61,4.22-1.5,5.67-2.39Z"/>
          <path class="cls-13" d="M470.48,144.57h8.52c.27,0,.75-.01,1.09-.06v1.34c-.31-.01-.75-.03-1.09-.03h-3.35c-.05,1.38-.31,2.52-.81,3.46-.47.88-1.46,1.85-2.59,2.43l-1.2-.88c.96-.39,1.9-1.14,2.41-1.94.56-.87.73-1.9.78-3.07h-3.76c-.39,0-.82.01-1.18.04v-1.35c.36.04.78.06,1.18.06ZM472.1,141.29h4.39c.4,0,.9-.03,1.3-.08v1.34c-.42-.03-.88-.05-1.3-.05h-4.38c-.44,0-.92.03-1.27.05v-1.34c.39.05.83.08,1.26.08ZM479.56,142l-.86.36c-.26-.52-.68-1.3-1.03-1.79l.83-.35c.33.47.79,1.27,1.05,1.78ZM481.05,141.43l-.84.38c-.27-.56-.7-1.3-1.07-1.79l.83-.35c.35.49.85,1.3,1.08,1.77Z"/>
          <path class="cls-13" d="M486.76,151.76l-1.11-1.03c2.43-.9,3.58-2.02,3.58-5.46v-.52h-3.42v1.95c0,.52.04,1.08.05,1.26h-1.44c.03-.18.06-.73.06-1.26v-1.95h-1.27c-.61,0-1.14.03-1.35.04v-1.4c.17.03.75.1,1.35.1h1.27v-1.51c0-.31-.03-.7-.06-1.04h1.46c-.03.18-.07.57-.07,1.05v1.49h3.42v-1.51c0-.52-.04-.95-.06-1.13h1.47c-.01.18-.07.61-.07,1.13v1.51h1.21c.64,0,1.05-.04,1.3-.08v1.38c-.2-.03-.66-.04-1.29-.04h-1.22v.44c0,3.35-.77,5.21-3.81,6.57ZM492.48,142.63l-.75.26c-.19-.56-.46-1.3-.71-1.81l.74-.23c.23.48.56,1.27.73,1.78ZM493.81,142.23l-.75.25c-.2-.57-.47-1.3-.73-1.81l.74-.23c.25.49.57,1.27.74,1.79Z"/>
          <path class="cls-13" d="M500.93,143.6c1.35-.83,2.73-2.04,3.61-3.09l1.09,1.04c-.99,1-2.21,2-3.5,2.85v5.4c0,.53.03,1.25.09,1.53h-1.61c.04-.29.08-1,.08-1.53v-4.52c-1.36.74-3.08,1.5-4.8,2.02l-.64-1.29c2.27-.61,4.22-1.5,5.67-2.39Z"/>
          <path class="cls-13" d="M513.28,140.68h1.64c-.05.34-.09,1.01-.09,1.4v1.6h3.22c.51,0,1.01-.03,1.25-.06v1.4c-.23-.03-.81-.04-1.26-.04h-3.21c-.05,2.74-.95,4.86-3.65,6.46l-1.27-.95c2.5-1.16,3.46-3.06,3.52-5.51h-3.6c-.52,0-1.01.01-1.34.05v-1.43c.31.04.82.08,1.31.08h3.63v-1.6c0-.42-.05-1.07-.14-1.4Z"/>
          <path class="cls-13" d="M523.47,145.12h7.07c.62,0,1.13-.05,1.46-.08v1.61c-.29-.01-.88-.07-1.46-.07h-7.07c-.71,0-1.5.03-1.94.07v-1.61c.43.03,1.24.08,1.94.08Z"/>
          <path class="cls-13" d="M463.98,162.57h8.52c.27,0,.75-.01,1.09-.06v1.34c-.31-.01-.75-.03-1.09-.03h-3.35c-.05,1.38-.31,2.52-.81,3.46-.47.88-1.46,1.85-2.59,2.43l-1.2-.88c.96-.39,1.9-1.14,2.41-1.94.56-.87.73-1.9.78-3.07h-3.76c-.39,0-.82.01-1.18.04v-1.35c.36.04.78.06,1.18.06ZM465.6,159.29h4.39c.4,0,.9-.03,1.3-.08v1.34c-.42-.03-.88-.05-1.3-.05h-4.38c-.44,0-.92.03-1.27.05v-1.34c.39.05.83.08,1.26.08ZM473.06,160l-.86.36c-.26-.52-.68-1.3-1.03-1.79l.83-.35c.33.47.79,1.27,1.05,1.78ZM474.55,159.43l-.84.38c-.27-.56-.7-1.3-1.07-1.79l.83-.35c.35.49.85,1.3,1.08,1.77Z"/>
          <path class="cls-13" d="M478.48,160.19v2.72c1.53-.38,3.48-.99,4.75-1.52.43-.17.83-.36,1.26-.64l.57,1.31c-.43.17-.95.4-1.37.56-1.39.56-3.58,1.21-5.21,1.64v2.65c0,.62.27.78.88.91.39.07,1,.09,1.62.09,1.37,0,3.41-.14,4.49-.43v1.49c-1.18.17-3.13.26-4.56.26-.81,0-1.59-.04-2.13-.13-1.05-.2-1.65-.72-1.65-1.81v-7.11c0-.31-.03-.85-.09-1.2h1.52c-.04.35-.08.82-.08,1.2ZM485.34,160.29l-.84.36c-.26-.52-.69-1.3-1.04-1.79l.84-.35c.33.47.78,1.27,1.04,1.78ZM486.84,159.73l-.84.36c-.27-.56-.69-1.3-1.05-1.78l.83-.35c.34.48.83,1.29,1.07,1.77Z"/>
          <path class="cls-13" d="M497.37,163.12c-.1.83-.47,3.26-.65,4.47h1.09c.3,0,.83-.03,1.13-.05v1.33c-.25-.01-.79-.03-1.1-.03h-7.01c-.43,0-.73.01-1.17.03v-1.34c.34.04.75.06,1.17.06h4.5c.18-1.1.52-3.34.56-4.07h-3.86c-.39,0-.81.03-1.16.04v-1.35c.33.04.82.07,1.14.07h3.69c.23,0,.65-.04.78-.1l.99.48c-.04.14-.08.34-.1.47Z"/>
          <path class="cls-13" d="M503.97,163.12h7.07c.62,0,1.13-.05,1.46-.08v1.61c-.29-.01-.88-.07-1.46-.07h-7.07c-.71,0-1.5.03-1.94.07v-1.61c.43.03,1.24.08,1.94.08Z"/>
        </g>
      </g>
      <g>
        <rect class="cls-7" x="746.48" y="127.71" width="108" height="50"/>
        <polygon class="cls-7" points="801.39 127.99 807.71 127.99 804.55 122.52 801.39 117.05 798.23 122.52 795.07 127.99 801.39 127.99"/>
        <g>
          <path class="cls-13" d="M761.7,150.16v1.17h-11.63v-1.17h1.69v-5.93h1.25v5.93h2.59v-8.14h-5.06v-1.18h10.76v1.18h-4.43v3.19h3.87v1.17h-3.87v3.78h4.84Z"/>
          <path class="cls-13" d="M774.2,142.6c-.56.95-1.79,2.6-3.18,3.59l-1.08-.87c1.14-.66,2.27-1.95,2.65-2.69h-7.12c-.52,0-.97.04-1.53.08v-1.44c.48.06,1.01.12,1.53.12h7.27c.29,0,.87-.04,1.08-.09l.82.77c-.12.14-.32.39-.43.55ZM765.76,151.43l-1.2-.98c.38-.13.83-.34,1.25-.64,1.86-1.2,2.16-2.83,2.16-4.99,0-.35-.01-.66-.08-1.04h1.48c0,3.39-.2,5.89-3.61,7.64Z"/>
          <path class="cls-13" d="M782.03,143.6c1.35-.83,2.73-2.04,3.61-3.09l1.09,1.04c-.99,1-2.21,2-3.5,2.85v5.4c0,.53.03,1.25.09,1.53h-1.61c.04-.29.08-1,.08-1.53v-4.52c-1.36.74-3.08,1.5-4.8,2.02l-.64-1.29c2.27-.61,4.22-1.5,5.67-2.39Z"/>
          <path class="cls-13" d="M790.59,144.57h8.52c.27,0,.75-.01,1.09-.06v1.34c-.31-.01-.75-.03-1.09-.03h-3.35c-.05,1.38-.31,2.52-.81,3.46-.47.88-1.46,1.85-2.59,2.43l-1.2-.88c.96-.39,1.9-1.14,2.41-1.94.56-.87.73-1.9.78-3.07h-3.76c-.39,0-.82.01-1.18.04v-1.35c.36.04.78.06,1.18.06ZM792.2,141.29h4.39c.4,0,.9-.03,1.3-.08v1.34c-.42-.03-.88-.05-1.3-.05h-4.38c-.44,0-.92.03-1.27.05v-1.34c.39.05.83.08,1.26.08ZM799.66,142l-.86.36c-.26-.52-.68-1.3-1.03-1.79l.83-.35c.33.47.79,1.27,1.05,1.78ZM801.16,141.43l-.84.38c-.27-.56-.7-1.3-1.07-1.79l.83-.35c.35.49.85,1.3,1.08,1.77Z"/>
          <path class="cls-13" d="M806.86,151.76l-1.11-1.03c2.43-.9,3.58-2.02,3.58-5.46v-.52h-3.42v1.95c0,.52.04,1.08.05,1.26h-1.44c.03-.18.06-.73.06-1.26v-1.95h-1.27c-.61,0-1.14.03-1.35.04v-1.4c.17.03.75.1,1.35.1h1.27v-1.51c0-.31-.03-.7-.06-1.04h1.46c-.03.18-.07.57-.07,1.05v1.49h3.42v-1.51c0-.52-.04-.95-.06-1.13h1.47c-.01.18-.07.61-.07,1.13v1.51h1.21c.64,0,1.05-.04,1.3-.08v1.38c-.2-.03-.66-.04-1.29-.04h-1.22v.44c0,3.35-.77,5.21-3.81,6.57ZM812.58,142.63l-.75.26c-.19-.56-.46-1.3-.71-1.81l.74-.23c.23.48.56,1.27.73,1.78ZM813.91,142.23l-.75.25c-.2-.57-.47-1.3-.73-1.81l.74-.23c.25.49.57,1.27.74,1.79Z"/>
          <path class="cls-13" d="M821.03,143.6c1.35-.83,2.73-2.04,3.61-3.09l1.09,1.04c-.99,1-2.21,2-3.5,2.85v5.4c0,.53.03,1.25.09,1.53h-1.61c.04-.29.08-1,.08-1.53v-4.52c-1.36.74-3.08,1.5-4.8,2.02l-.64-1.29c2.27-.61,4.22-1.5,5.67-2.39Z"/>
          <path class="cls-13" d="M833.38,140.68h1.64c-.05.34-.09,1.01-.09,1.4v1.6h3.22c.51,0,1.01-.03,1.25-.06v1.4c-.23-.03-.81-.04-1.26-.04h-3.21c-.05,2.74-.95,4.86-3.65,6.46l-1.27-.95c2.5-1.16,3.46-3.06,3.52-5.51h-3.6c-.52,0-1.01.01-1.34.05v-1.43c.31.04.82.08,1.31.08h3.63v-1.6c0-.42-.05-1.07-.14-1.4Z"/>
          <path class="cls-13" d="M843.58,145.12h7.07c.62,0,1.13-.05,1.46-.08v1.61c-.29-.01-.88-.07-1.46-.07h-7.07c-.71,0-1.5.03-1.94.07v-1.61c.43.03,1.24.08,1.94.08Z"/>
          <path class="cls-13" d="M777.59,162.57h8.52c.27,0,.75-.01,1.09-.06v1.34c-.31-.01-.75-.03-1.09-.03h-3.35c-.05,1.38-.31,2.52-.81,3.46-.47.88-1.46,1.85-2.59,2.43l-1.2-.88c.96-.39,1.9-1.14,2.41-1.94.56-.87.73-1.9.78-3.07h-3.76c-.39,0-.82.01-1.18.04v-1.35c.36.04.78.06,1.18.06ZM779.2,159.29h4.39c.4,0,.9-.03,1.3-.08v1.34c-.42-.03-.88-.05-1.3-.05h-4.38c-.44,0-.92.03-1.27.05v-1.34c.39.05.83.08,1.26.08ZM786.66,160l-.86.36c-.26-.52-.68-1.3-1.03-1.79l.83-.35c.33.47.79,1.27,1.05,1.78ZM788.16,159.43l-.84.38c-.27-.56-.7-1.3-1.07-1.79l.83-.35c.35.49.85,1.3,1.08,1.77Z"/>
          <path class="cls-13" d="M792.08,160.19v2.72c1.53-.38,3.48-.99,4.75-1.52.43-.17.83-.36,1.26-.64l.57,1.31c-.43.17-.95.4-1.37.56-1.39.56-3.58,1.21-5.21,1.64v2.65c0,.62.27.78.88.91.39.07,1,.09,1.62.09,1.37,0,3.41-.14,4.49-.43v1.49c-1.18.17-3.13.26-4.56.26-.81,0-1.59-.04-2.13-.13-1.05-.2-1.65-.72-1.65-1.81v-7.11c0-.31-.03-.85-.09-1.2h1.52c-.04.35-.08.82-.08,1.2ZM798.95,160.29l-.84.36c-.26-.52-.69-1.3-1.04-1.79l.84-.35c.33.47.78,1.27,1.04,1.78ZM800.44,159.73l-.84.36c-.27-.56-.69-1.3-1.05-1.78l.83-.35c.34.48.83,1.29,1.07,1.77Z"/>
          <path class="cls-13" d="M810.97,163.12c-.1.83-.47,3.26-.65,4.47h1.09c.3,0,.83-.03,1.13-.05v1.33c-.25-.01-.79-.03-1.1-.03h-7.01c-.43,0-.73.01-1.17.03v-1.34c.34.04.75.06,1.17.06h4.5c.18-1.1.52-3.34.56-4.07h-3.86c-.39,0-.81.03-1.16.04v-1.35c.33.04.82.07,1.14.07h3.69c.23,0,.65-.04.78-.1l.99.48c-.04.14-.08.34-.1.47Z"/>
          <path class="cls-13" d="M817.58,163.12h7.07c.62,0,1.13-.05,1.46-.08v1.61c-.29-.01-.88-.07-1.46-.07h-7.07c-.71,0-1.5.03-1.94.07v-1.61c.43.03,1.24.08,1.94.08Z"/>
        </g>
      </g>
    </g>
  </g>
</svg>