<?xml version="1.0" encoding="UTF-8"?><svg id="_レイヤー_2" xmlns="http://www.w3.org/2000/svg" viewBox="0 0 351.19 79.32"><g id="_レイヤー_1-2"><g><path d="m53.77,18.06c0-.49,2.17-3.08,3.15-3.08.63,0,.35.84.63.84,2.31,0,18.06-5.25,18.06-10.78,0-3.92-6.09-4.13-7.84-4.13C44.66.91,20.51,13.93,20.51,25.55c0,7.63,14.98,13.09,20.58,19.88,3.85-.63,7.49-.98,10.57-.98h.49c1.05,0,1.4.21,1.4.7-.07.42-.14.77-.84.77-1.05-.07-1.82-.07-2.59-.07-2.38,0-5.18.28-8.12.77.77,1.19,1.26,2.45,1.26,3.78,0,9.73-24.01,20.09-36.61,20.09-3.99,0-6.65-1.12-6.65-3.78,0-8.61,20.44-17.15,37.66-20.65-6.3-6.09-19.67-12.39-19.67-18.2.07-14.56,27.02-27.86,49.85-27.86,8.05,0,10.36,2.1,10.36,5.6,0,7.21-19.39,13.72-22.82,13.72-.91,0-1.61-.7-1.61-1.26Zm-15.05,29.12c-16.03,3.29-36.26,11.83-36.26,19.67,0,1.75,2.03,2.52,5.11,2.52,10.5,0,33.32-8.68,33.32-17.71,0-1.47-.84-2.94-2.17-4.48Z"/><path d="m77.91,25.2c5.39-5.39,9.94-9.38,10.92-9.38.21,0,.35,0,.49.14.14.14.21.28.21.49,0,1.47-2.52,4.83-6.09,8.82,7.84.14,15.61.28,15.96.28.21,0,.42.14.42.42,0,.63,0,1.05-1.82,1.19-2.17,0-9.24-.07-16.17-.14-7.07,7.56-16.94,16.66-20.37,19.25-.91,1.68-1.4,3.15-1.4,4.27,0,.91.7,1.19,1.61,1.19,2.1,0,5.53-1.54,5.32-1.4,2.1-1.12,7.35-4.06,8.19-4.76.21-.14.35-.21.49-.21s.28.14.28.28c0,.21-.28.56-.77.84,0,0-2.66,1.82-6.09,3.71-3.78,2.1-6.93,3.36-8.89,3.36-1.47,0-2.31-.7-2.31-2.17,0-4.2,9.73-15.68,18.34-24.5-5.32-.14-9.52-.14-9.66-.14-.63,0-.84-.49-.84-.98.07-.49.56-.77,1.19-.84,0,0,4.97.14,10.99.28Zm-15.33,19.18c3.36-2.52,11.97-10.92,17.78-17.43h-2.94c-5.18,5.25-11.41,12.04-14.84,17.43Zm16.59-19.18c.91,0,1.75,0,2.73.07,2.45-2.87,4.2-5.18,4.2-6.02,0-.14-.07-.21-.14-.21-.35,0-3.15,2.52-6.79,6.16Z"/><path d="m100.31,50.2c-2.38,1.26-6.72,3.92-9.38,3.92-.98,0-1.61-.42-1.61-1.47,0-1.47,1.33-3.78,1.47-4.06,0-.07-.07-.14-.14-.14-.7,0-7,5.32-11.83,5.32-2.1,0-3.08-.84-3.08-2.17,0-4.83,12.11-16.1,21.63-16.1,3.29,0,4.06.98,4.06,2.03,0,2.31-4.62,5.11-6.93,5.95-.14.07-.28.07-.42.07-.49,0-.84-.35-1.05-.7-.07-.14-.14-.28-.14-.42,0-.21.14-.35.56-.56.21-.07,5.67-2.59,5.67-4.41,0-.7-.63-1.26-1.68-1.26-8.68,0-19.18,9.8-19.18,14,0,1.12.77,1.89,2.59,1.89,3.92,0,11.41-5.39,12.46-7,.35-.49.7-.63.98-.63.21,0,.56.14.56.42,0,.42-.7,1.12-1.47,2.24-.35.49-1.26,2.45-1.26,3.92,0,.84.49,1.12,1.19,1.12,1.82,0,5.18-1.96,4.9-1.82,2.1-1.12,7.35-4.06,8.19-4.76.21-.14.35-.21.49-.21s.28.14.28.28c0,.21-.28.56-.77.84,0,0-2.66,1.82-6.09,3.71Z"/><path d="m111.44,45.5c-.77.91-1.54,1.89-2.38,2.8l-.56,1.75c0,1.47.98,2.8,3.5,2.8,3.22,0,5.74-1.47,5.74-1.47,2.1-1.12,9.1-5.11,9.94-5.81.21-.14.35-.21.49-.21s.28.14.28.28c0,.21-.28.56-.77.84,0,0-4.41,2.87-7.84,4.76-1.89,1.05-6.09,3.01-9.38,3.01-1.26,0-2.38-.28-3.15-.98-2.73,14.42-15.82,26.04-20.44,26.04-1.05,0-1.61-.56-1.61-1.82,0-4.27,56.08-71.13,64.55-71.13.49,0,.84.14.98.56.07.21.07.42.07.63,0,7.91-34.02,34.72-39.41,37.94Zm-23.73,32.34c3.64,0,17.85-12.6,18.41-26.11-10.71,12.67-19.25,23.66-19.25,25.27,0,.56.28.84.84.84Zm25.41-34.23c16.59-11.69,35.21-29.61,35.21-35.21,0-.28-.14-.42-.35-.42-2.87,0-19.6,17.99-34.86,35.63Z"/><path d="m132.72,45.5c-.77.91-1.54,1.89-2.38,2.8l-.56,1.75c0,1.47.98,2.8,3.5,2.8,3.22,0,5.74-1.47,5.74-1.47,2.1-1.12,9.1-5.11,9.94-5.81.21-.14.35-.21.49-.21s.28.14.28.28c0,.21-.28.56-.77.84,0,0-4.41,2.87-7.84,4.76-1.89,1.05-6.09,3.01-9.38,3.01-1.26,0-2.38-.28-3.15-.98-2.73,14.42-15.82,26.04-20.44,26.04-1.05,0-1.61-.56-1.61-1.82,0-4.27,56.08-71.13,64.55-71.13.49,0,.84.14.98.56.07.21.07.42.07.63,0,7.91-34.02,34.72-39.41,37.94Zm-23.73,32.34c3.64,0,17.85-12.6,18.41-26.11-10.71,12.67-19.25,23.66-19.25,25.27,0,.56.28.84.84.84Zm25.41-34.23c16.59-11.69,35.21-29.61,35.21-35.21,0-.28-.14-.42-.35-.42-2.87,0-19.6,17.99-34.86,35.63Z"/><path d="m218.26,2.52c-23.73,0-47.46,27.65-47.46,41.93,0,4.97,2.87,8.33,9.66,8.33,2.1,0,10.43-.07,19.32-8.47.14-.14.28-.14.42-.14.21,0,.49.07.49.28,0,.07-.07.21-.21.35-1.61,1.68-10.5,9.73-21.35,9.73-7.56,0-10.78-3.71-10.78-9.17,0-15.19,24.78-43.75,51.1-43.75,6.23,0,11.62,2.17,11.62,8.47,0,13.65-26.11,30.38-26.11,40.32,0,2.45,1.12,3.5,2.94,3.5,6.16,0,19.95-12.04,22.68-21.91.84-2.87,1.54-5.67,1.54-8.61,0-.84,0-1.61-.14-2.45,0-1.19,1.33-2.17,2.17-2.17.28,0,.49.21.49,1.26.7,3.22-.77,16.59,4.62,16.59.49,0,1.12-.21,1.75-.7.84-.7,1.19-1.19,1.47-1.19.07,0,.21.07.28.14.14.07.21.21.21.35,0,.77-2.94,3.5-4.76,3.5-2.38,0-4.76-1.96-5.53-9.1,0-.07-.28.28-.42.7-2.52,11.76-18.97,25.76-26.46,25.76-2.31,0-3.78-1.33-3.78-4.34,0-8.4,26.46-28,26.46-40.11,0-5.04-4.27-9.1-10.22-9.1Z"/><path d="m241.01,50.12c0,2.03.84,2.8,2.17,2.8,3.92,0,8.05-3.36,10.99-6.79-.21-.49-.28-1.12-.28-1.68,0-3.5,2.8-7.98,4.13-7.98.7,0,1.05.49,1.05,1.33,0,1.68-1.26,4.62-3.43,7.56.49,1.82,2.24,2.03,3.08,2.03,1.54,0,3.5-.98,5.04-2.03.21-.14.35-.21.49-.21s.28.14.28.28c0,.21-.28.56-.77.84-2.38,1.54-4.13,2.17-5.46,2.17-1.96,0-3.15-.63-3.78-1.61-3.22,3.99-7.84,7.56-12.74,7.56-1.61,0-3.15-1.12-3.15-3.29,0-4.76,10.78-14.98,16.31-14.98.56,0,.91.42.91.84,0,.56-.49,1.12-1.54,1.12-5.46,0-13.3,7.21-13.3,12.04Zm14.49-5.74c1.47-2.03,2.38-3.92,2.38-4.9,0-.49-.21-.77-.63-.77-1.26,2.59-1.75,4.34-1.75,5.67Z"/><path d="m263.34,52.02c0-3.64,9.24-11.97,9.24-11.97.21-.21.42-.28.63-.28.35,0,.63.28.63.63,0,.21-.07.49-.28.7-1.75,1.89-7.77,7.42-7.77,10.22,0,.7.49.98,1.26.98,1.75,0,4.9-1.54,5.95-2.17,2.17-1.05,7.35-4.06,8.19-4.76.21-.14.35-.21.49-.21s.28.14.28.28c0,.21-.28.56-.77.84,0,0-3.43,2.31-7.49,4.48-1.33.84-5.67,3.15-8.26,3.15-1.26,0-2.1-.49-2.1-1.89Zm17.85-20.16c0-.56-.42-.84-.98-.84-1.12,0-2.66,1.47-2.66,2.38,0,0,0,.91.98.91,1.47,0,2.66-1.12,2.66-2.45Z"/><path d="m288.61,52.72c1.89,0,4.62-.63,8.68-2.59,2.17-1.05,7.35-4.06,8.19-4.76.21-.14.35-.21.49-.21s.28.14.28.28c0,.21-.28.56-.77.84,0,0-3.43,2.31-7.49,4.48-2.38,1.26-7.77,3.5-11.62,3.5-2.45,0-4.34-.91-4.34-3.57,0-5.32,11.34-14.7,19.18-14.7,1.33,0,2.31.7,2.31,1.75,0,1.4-1.96,4.06-6.09,5.95-.14.07-.35.14-.63.14-.35,0-.98-.21-.98-.7,0-.35.28-.77.7-.98.63-.35,4.55-2.94,4.55-4.34,0-.42-.42-.7-1.4-.7-5.74,0-15.12,7.7-15.12,12.11,0,.49.07,3.5,4.06,3.5Z"/><path d="m327.88,36.19c0,2.8-9.52,9.31-18.34,10.57-.42.91-.63,1.75-.63,2.45,0,.49.07,3.5,4.06,3.5,1.89,0,4.62-.63,8.68-2.59,2.17-1.05,7.35-4.06,8.19-4.76.21-.14.35-.21.49-.21s.28.14.28.28c0,.21-.28.56-.77.84,0,0-3.43,2.31-7.49,4.48-2.38,1.26-7.77,3.5-11.62,3.5-2.45,0-4.34-.91-4.34-3.57,0-5.32,11.2-15.75,19.04-15.75,1.75,0,2.45.49,2.45,1.26Zm-17.92,9.87c6.72-1.19,15.61-7,15.61-9.17,0-.49-.49-.84-1.68-.84-4.62,0-11.34,5.53-13.93,10.01Z"/><path d="m331.17,47.54c-.14,0-.28-.14-.28-.28,0-.21.28-.56.77-.84l2.45-1.68c.49-.35,2.94-2.1,5.74-4.2-.07-.35-.07-.63-.07-.98,0-4.34,7.07-9.66,10.36-9.66.77,0,1.05.49,1.05.91,0,1.89-5.04,6.02-9.59,9.45.7,3.78,3.01,6.37,3.01,10.43,0,2.8-2.66,4.13-5.67,4.13-2.31,0-4.76-.77-6.44-2.38-.21-.21-.28-.56-.28-.77s.07-.28.21-.28.35.07.7.35c1.89,1.47,3.64,2.03,5.18,2.03,2.52,0,4.2-1.61,4.2-3.71,0-2.31-1.89-5.53-2.52-8.61-2.66,1.96-4.97,3.57-5.39,3.92-.7.56-3.08,2.17-3.43,2.17Zm17.08-15.75c-2.31,0-6.79,3.64-6.79,6.37v1.12c3.71-2.87,7.42-6.02,7.42-6.93,0-.28-.14-.56-.63-.56Z"/></g></g></svg>