<?xml version="1.0" encoding="UTF-8"?>
<svg id="_レイヤー_2" data-name="レイヤー 2" xmlns="http://www.w3.org/2000/svg" viewBox="0 0 283.01 31.9">
  <defs>
    <style>
      .cls-1 {
        fill: #282828;
        stroke-width: 0px;
      }
    </style>
  </defs>
  <g id="_レイヤー_1-2" data-name="レイヤー 1">
    <g>
      <g>
        <path class="cls-1" d="M0,0h9.95v11h8.27V0h9.95v30.36h-9.95v-11.22h-8.27v11.22H0V0Z"/>
        <path class="cls-1" d="M51.48,0l10.56,30.36h-10.78l-1.19-4.27h-8.67l-1.14,4.27h-10.34L40.48,0h11ZM45.76,10.34l-2.24,8.14h4.49l-2.24-8.14Z"/>
        <path class="cls-1" d="M73.74,0v30.36h-9.95V0h9.95Z"/>
        <path class="cls-1" d="M100.15,2.2c2.2,1.54,3.74,4.18,3.74,7.48s-.98,5.26-2.11,6.68c-1.08,1.36-2.31,2.08-2.96,2.47l6.82,11.53h-11.44l-4.84-10.12h-1.28v10.12h-9.95V0h13.2c3.74,0,6.6.66,8.8,2.2ZM92.75,12.23c.48-.35,1.1-.79,1.1-2.11s-.67-1.75-1.1-2.07c-.45-.34-1.1-.57-2.2-.57h-2.51v5.28h2.51c1.1,0,1.8-.22,2.2-.53Z"/>
      </g>
      <g>
        <path class="cls-1" d="M140.09,22.74c0,5.04-4.72,9.16-10.6,9.16-4.2,0-5.16-1.72-7.28-1.72-1.16,0-1.64.32-2.08.96-.12.16-.16.24-.28.24s-.16-.08-.12-.24l2.64-9.2c.04-.16.12-.24.28-.24s.16.08.12.24c-.8,5.16-.28,9.56,6.76,9.56,4.48,0,7.2-2.96,7.2-5.88,0-8.2-10.56-7.88-10.56-16.04,0-4.24,3.56-7.96,8.4-7.96,3.72,0,4.2,1.6,6.88,1.6.72,0,1.32-.32,1.76-.96.12-.16.16-.24.28-.24s.16.08.12.24l-2.36,8.2c-.04.16-.12.24-.28.24s-.16-.08-.12-.24c.8-5-1.04-8.44-6.24-8.44-2.88,0-5.24,2.28-5.24,5.16,0,6.68,10.72,7.48,10.72,15.56Z"/>
        <path class="cls-1" d="M138.62,31.02h3.4l8.2-28.6h-3.28c-.16,0-.24-.04-.24-.2s.08-.2.24-.2h20.64c.32,0,.4.08.32.4l-2.68,8.48c-.08.16-.12.24-.28.24-.08,0-.16-.08-.12-.24,1.04-5.44-.32-8.48-5.96-8.48h-4.12l-3.8,13.24h.68c3.72,0,6.24-1.6,7.96-5.64.08-.16.16-.24.24-.24.16,0,.2.08.16.24l-3.68,11.68c-.04.16-.12.24-.28.24-.08,0-.16-.08-.12-.24.72-4.04-.68-5.64-4.4-5.64h-.68l-4.28,14.96h4.04c5.96,0,10.32-3.76,12.72-9.84.08-.16.12-.24.28-.24s.16.08.12.24l-3.08,9.76c-.12.32-.28.48-.6.48h-21.4c-.16,0-.24-.04-.24-.2s.08-.2.24-.2Z"/>
        <path class="cls-1" d="M182.61,1.63c3.88,0,4.6,1.6,6.96,1.6.72,0,1.64-.32,2.08-.96.12-.16.16-.24.28-.24s.16.08.12.24l-2.68,9.32c-.04.16-.12.24-.28.24s-.16-.08-.12-.24c.8-5.2-.24-9.56-6.36-9.56-1.84,0-3.36.6-5.36,2.6-4,4-7.2,13.48-7.2,19.92,0,4.96,2.2,6.96,5.68,6.96s8.24-1.92,12.04-9.36c.12-.2.48,0,.36.24-3.56,6.96-8.28,9.52-12.44,9.52-5.52,0-9.88-4.72-9.88-11.76,0-10,8.2-18.52,16.8-18.52Z"/>
        <path class="cls-1" d="M190.62,31.02h4.56l8.2-28.6h-.8c-4.64,0-8.64,3.84-10.8,9.72-.04.16-.12.24-.24.24s-.16-.08-.12-.24l2.8-9.72c.12-.36.24-.4.56-.4h21.96c.32,0,.4.08.32.4l-2.8,9.72c-.04.2-.08.24-.24.24s-.2-.04-.16-.24c.8-5.56-.4-9.72-5.04-9.72h-.92l-8.2,28.6h4.52c.16,0,.24.04.24.2s-.08.2-.24.2h-13.6c-.16,0-.24-.04-.24-.2s.08-.2.24-.2Z"/>
        <path class="cls-1" d="M208.9,31.02h3.44l8.2-28.6h-3.2c-.16,0-.24-.04-.24-.2s.08-.2.24-.2h11.08c.16,0,.24.04.24.2s-.08.2-.24.2h-3.36l-8.2,28.6h3.32c.16,0,.24.04.24.2s-.08.2-.24.2h-11.28c-.16,0-.24-.04-.24-.2s.08-.2.24-.2Z"/>
        <path class="cls-1" d="M242.09,1.63c5.44,0,9.84,4.72,9.84,11.72,0,10.08-8.2,18.56-16.76,18.56-5.52,0-9.88-4.72-9.88-11.76,0-10,8.2-18.52,16.8-18.52ZM235.18,31.5c1.84,0,3.32-.6,5.32-2.6,4-4,7.2-13.56,7.2-19.96,0-5.32-2.2-6.92-5.56-6.92-1.88,0-3.4.6-5.4,2.6-4,4-7.2,13.12-7.2,19.92,0,5.32,2.16,6.96,5.64,6.96Z"/>
        <path class="cls-1" d="M248.66,31.02h4.08l8.2-28.6h-3.88c-.16,0-.24-.04-.24-.2s.08-.2.24-.2h7.96c.36,0,.52.08.64.4l6.72,21.32h.16l6.12-21.32h-3.96c-.16,0-.24-.04-.24-.2s.08-.2.24-.2h8.08c.16,0,.24.04.24.2s-.08.2-.24.2h-3.64l-8.36,29.08c-.08.28-.2.4-.44.4h-.24c-.32,0-.36-.04-.44-.32l-8.68-27.16h-.16l-7.6,26.6h4.12c.16,0,.24.04.24.2s-.08.2-.24.2h-8.68c-.16,0-.24-.04-.24-.2s.08-.2.24-.2Z"/>
        <path class="cls-1" d="M279.98,27.14c1.04,0,1.8.76,1.8,1.76,0,1.56-1.4,3-3.04,3-1.04,0-1.76-.72-1.76-1.68,0-1.68,1.44-3.08,3-3.08Z"/>
      </g>
    </g>
  </g>
</svg>