<?xml version="1.0" encoding="UTF-8"?>
<svg id="_レイヤー_2" data-name="レイヤー 2" xmlns="http://www.w3.org/2000/svg" viewBox="0 0 225.52 62.35">
  <defs>
    <style>
      .cls-1 {
        fill: #231815;
        stroke-width: 0px;
      }
    </style>
  </defs>
  <g id="_レイヤー_1-2" data-name="レイヤー 1">
    <g>
      <g>
        <path class="cls-1" d="M2.78,53.78c-.06.06-.13.09-.21.09s-.15-.03-.21-.09c-.06-.06-.09-.13-.09-.21v-6.34s-.02-.07-.07-.07H.25c-.07,0-.13-.03-.18-.08-.05-.05-.07-.11-.07-.18s.02-.13.07-.17c.05-.05.11-.07.18-.07h4.64c.07,0,.13.02.18.07.05.05.07.11.07.17s-.02.13-.07.18c-.05.05-.11.08-.18.08h-1.95s-.07.02-.07.07v6.34c0,.08-.03.16-.09.21Z"/>
        <path class="cls-1" d="M9.3,54c-.88,0-1.6-.34-2.16-1.03-.56-.69-.84-1.6-.84-2.73s.28-2.03.84-2.7c.56-.67,1.28-1.01,2.16-1.01s1.61.34,2.17,1.01c.55.67.83,1.57.83,2.7s-.28,2.05-.83,2.74c-.55.68-1.28,1.03-2.17,1.03ZM9.3,53.46c.72,0,1.29-.29,1.73-.88s.65-1.37.65-2.35-.22-1.75-.65-2.32c-.43-.57-1.01-.86-1.73-.86s-1.3.29-1.73.86c-.43.57-.64,1.35-.64,2.32s.22,1.76.65,2.35,1.01.88,1.72.88Z"/>
        <path class="cls-1" d="M16.24,53.78c-.06.06-.13.09-.21.09s-.15-.03-.21-.09c-.06-.06-.09-.13-.09-.21v-6.34s-.02-.07-.07-.07h-1.94c-.07,0-.13-.03-.18-.08-.05-.05-.07-.11-.07-.18s.02-.13.07-.17c.05-.05.11-.07.18-.07h4.64c.07,0,.13.02.18.07.05.05.07.11.07.17s-.02.13-.07.18c-.05.05-.11.08-.18.08h-1.95s-.07.02-.07.07v6.34c0,.08-.03.16-.09.21Z"/>
        <path class="cls-1" d="M24.6,53.87c-.09,0-.17-.03-.25-.08-.08-.05-.13-.13-.16-.22l-.68-2.06s-.05-.07-.1-.07h-2.67s-.08.02-.1.07l-.71,2.08c-.03.08-.07.15-.14.2-.07.05-.15.08-.24.08-.07,0-.13-.03-.17-.09-.03-.04-.04-.08-.04-.12,0-.03,0-.05,0-.08l2.33-6.65c.03-.08.09-.15.16-.2.07-.05.16-.08.25-.08s.17.03.25.08c.08.05.13.12.16.2l2.32,6.63s.02.05.02.08c0,.05-.02.09-.05.13-.04.06-.11.1-.18.1ZM20.85,50.9s0,.03.01.04c.01.02.02.02.04.02h2.35s.03,0,.04-.02c.01-.02.02-.03.01-.04l-.42-1.24c-.25-.7-.51-1.52-.78-2.46,0-.01-.02-.02-.03-.02-.01,0-.02,0-.03.02-.2.72-.46,1.54-.77,2.46l-.43,1.24Z"/>
        <path class="cls-1" d="M26.86,53.87c-.16,0-.3-.06-.41-.17-.11-.11-.16-.25-.16-.4v-6.35c0-.08.03-.15.09-.21.06-.05.13-.08.21-.08s.15.03.21.08c.06.05.09.12.09.21v6.33c0,.05.02.08.07.08h2.96c.07,0,.13.02.18.07.05.05.08.11.08.18s-.03.13-.08.18c-.05.05-.11.08-.18.08h-3.05Z"/>
        <path class="cls-1" d="M34.71,53.87c-.16,0-.3-.06-.41-.17-.11-.11-.16-.25-.16-.4v-6.07c0-.16.05-.3.16-.41s.24-.16.41-.16h1.41c.76,0,1.35.14,1.77.43.42.29.63.73.63,1.32,0,.37-.09.7-.28.98-.19.28-.45.47-.8.58-.01,0-.02.02-.02.03s0,.02.02.02c.47.08.84.27,1.11.57.27.3.41.68.41,1.16,0,.68-.24,1.21-.72,1.57-.48.36-1.14.54-1.97.54h-1.57ZM34.73,49.73s.02.07.07.07h1.14c1.33,0,2-.44,2-1.32,0-.48-.16-.82-.48-1.03-.32-.21-.81-.31-1.46-.31h-1.2s-.07.02-.07.07v2.52ZM34.73,53.3c0,.05.02.08.07.08h1.33c.72,0,1.28-.13,1.67-.4.39-.27.58-.67.58-1.21,0-.99-.75-1.49-2.25-1.49h-1.33s-.07.03-.07.08v2.95Z"/>
        <path class="cls-1" d="M41.31,53.87c-.16,0-.3-.06-.41-.17-.11-.11-.16-.25-.16-.4v-6.07c0-.16.05-.3.16-.41.11-.11.24-.16.41-.16h3.16c.07,0,.13.02.18.07.05.05.07.11.07.17s-.02.13-.07.18c-.05.05-.11.08-.18.08h-3.08s-.07.02-.07.07v2.5s.02.07.07.07h2.54c.07,0,.13.02.18.07.05.05.07.11.07.18s-.02.13-.07.18c-.05.05-.11.07-.18.07h-2.54s-.07.03-.07.08v2.91c0,.05.02.08.07.08h3.18c.07,0,.13.02.18.07.05.05.07.11.07.18s-.02.13-.07.18c-.05.05-.11.08-.18.08h-3.27Z"/>
        <path class="cls-1" d="M51.03,53.87c-.09,0-.17-.03-.25-.08-.08-.05-.13-.13-.16-.22l-.68-2.06s-.05-.07-.1-.07h-2.67s-.08.02-.1.07l-.71,2.08c-.03.08-.07.15-.14.2-.07.05-.15.08-.24.08-.07,0-.13-.03-.17-.09-.03-.04-.04-.08-.04-.12,0-.03,0-.05,0-.08l2.33-6.65c.03-.08.09-.15.16-.2.07-.05.16-.08.25-.08s.17.03.25.08c.08.05.13.12.16.2l2.32,6.63s.02.05.02.08c0,.05-.02.09-.05.13-.04.06-.11.1-.18.1ZM47.28,50.9s0,.03.01.04c.01.02.02.02.04.02h2.35s.03,0,.04-.02c.01-.02.02-.03.01-.04l-.42-1.24c-.25-.7-.51-1.52-.78-2.46,0-.01-.02-.02-.03-.02-.01,0-.02,0-.03.02-.2.72-.46,1.54-.77,2.46l-.43,1.24Z"/>
        <path class="cls-1" d="M56.09,53.85c-.28.1-.59.15-.94.15s-.66-.05-.94-.15c-.28-.1-.54-.25-.78-.47-.24-.22-.42-.52-.56-.92-.13-.4-.2-.87-.2-1.42v-4.1c0-.08.03-.15.09-.21.06-.05.13-.08.21-.08s.15.03.21.08.09.12.09.21v4.07c0,.45.05.84.15,1.17.1.33.24.58.42.76.18.18.37.31.59.39.21.08.45.12.72.12s.52-.04.74-.12c.22-.08.42-.21.6-.39s.33-.44.43-.76c.1-.33.15-.72.15-1.17v-4.08c0-.08.03-.14.08-.2.05-.05.12-.08.2-.08s.14.03.2.08c.05.05.08.12.08.2v4.11c0,.55-.07,1.02-.2,1.42-.13.4-.32.7-.56.92-.24.22-.5.37-.78.47Z"/>
        <path class="cls-1" d="M61.98,53.78c-.06.06-.13.09-.21.09s-.15-.03-.21-.09c-.06-.06-.09-.13-.09-.21v-6.34s-.02-.07-.07-.07h-1.94c-.07,0-.13-.03-.18-.08-.05-.05-.07-.11-.07-.18s.02-.13.07-.17c.05-.05.11-.07.18-.07h4.64c.07,0,.13.02.18.07.05.05.07.11.07.17s-.02.13-.07.18c-.05.05-.11.08-.18.08h-1.95s-.07.02-.07.07v6.34c0,.08-.03.16-.09.21Z"/>
        <path class="cls-1" d="M67.61,53.78c-.06.06-.13.09-.21.09s-.15-.03-.21-.09-.09-.13-.09-.21v-2.53s-.01-.09-.03-.14l-1.99-3.97s-.03-.06-.03-.09c0-.04.01-.07.04-.11.04-.06.09-.09.16-.09.21,0,.36.09.45.28l.92,1.93c.08.15.2.39.36.74.16.34.29.61.39.81,0,.01.02.02.03.02.01,0,.02,0,.03-.02.37-.72.63-1.24.76-1.55l.93-1.93c.09-.18.24-.27.44-.27.07,0,.13.03.16.09.02.03.03.06.03.1,0,.03,0,.05-.02.09l-2,3.97s-.03.09-.03.14v2.53c0,.08-.03.16-.09.21Z"/>
        <path class="cls-1" d="M75.53,54c-.89,0-1.64-.29-2.26-.88-.06-.05-.09-.12-.09-.2,0-.08.03-.15.08-.2.05-.05.11-.08.19-.08.07,0,.14.02.19.07.54.51,1.17.76,1.9.76.53,0,.95-.13,1.26-.38s.47-.59.47-1c0-.21-.03-.4-.09-.55-.06-.16-.16-.29-.29-.4-.14-.11-.26-.2-.38-.27-.12-.07-.29-.15-.52-.25l-1.07-.47c-.2-.09-.37-.18-.51-.26-.14-.08-.29-.2-.45-.34s-.29-.32-.37-.52c-.09-.2-.13-.43-.13-.68,0-.53.2-.97.6-1.31.4-.34.91-.51,1.53-.51.72,0,1.34.23,1.86.7.06.05.09.1.09.18s-.02.14-.07.19c-.04.05-.1.08-.17.08-.07,0-.13-.02-.18-.06-.43-.37-.94-.55-1.52-.55-.46,0-.83.11-1.11.34-.28.23-.42.52-.42.89,0,.16.03.31.08.44.05.13.12.24.19.33.07.09.17.17.3.26.13.08.23.15.31.18.08.04.19.09.34.15l1.07.47c.23.1.43.2.59.31.16.1.32.22.47.37.15.15.27.33.34.54.08.21.12.45.12.71,0,.56-.22,1.03-.65,1.4-.43.37-1,.56-1.69.56Z"/>
        <path class="cls-1" d="M83.98,53.87c-.09,0-.17-.03-.25-.08-.08-.05-.13-.13-.16-.22l-.68-2.06s-.05-.07-.1-.07h-2.67s-.08.02-.1.07l-.71,2.08c-.03.08-.07.15-.14.2-.07.05-.15.08-.24.08-.07,0-.13-.03-.17-.09-.03-.04-.04-.08-.04-.12,0-.03,0-.05,0-.08l2.33-6.65c.03-.08.09-.15.16-.2.07-.05.16-.08.25-.08s.17.03.25.08c.08.05.13.12.16.2l2.32,6.63s.02.05.02.08c0,.05-.02.09-.05.13-.04.06-.11.1-.18.1ZM80.23,50.9s0,.03.01.04c.01.02.02.02.04.02h2.35s.03,0,.04-.02c.01-.02.02-.03.01-.04l-.42-1.24c-.25-.7-.51-1.52-.78-2.46,0-.01-.02-.02-.03-.02-.01,0-.02,0-.03.02-.2.72-.46,1.54-.77,2.46l-.43,1.24Z"/>
        <path class="cls-1" d="M86.24,53.87c-.16,0-.3-.06-.41-.17-.11-.11-.16-.25-.16-.4v-6.35c0-.08.03-.15.09-.21.06-.05.13-.08.21-.08s.15.03.21.08c.06.05.09.12.09.21v6.33c0,.05.02.08.07.08h2.96c.07,0,.13.02.18.07.05.05.08.11.08.18s-.03.13-.08.18c-.05.05-.11.08-.18.08h-3.05Z"/>
        <path class="cls-1" d="M93.62,54c-.88,0-1.6-.34-2.16-1.03-.56-.69-.84-1.6-.84-2.73s.28-2.03.84-2.7c.56-.67,1.28-1.01,2.16-1.01s1.61.34,2.17,1.01c.55.67.83,1.57.83,2.7s-.28,2.05-.83,2.74c-.55.68-1.28,1.03-2.17,1.03ZM93.62,53.46c.72,0,1.29-.29,1.73-.88.44-.59.65-1.37.65-2.35s-.22-1.75-.65-2.32c-.43-.57-1.01-.86-1.73-.86s-1.3.29-1.73.86c-.43.57-.64,1.35-.64,2.32s.22,1.76.65,2.35,1.01.88,1.72.88Z"/>
        <path class="cls-1" d="M98.99,53.79c-.05.05-.12.08-.2.08s-.14-.03-.2-.08c-.05-.05-.08-.12-.08-.2v-6.63c0-.08.03-.15.09-.21.06-.06.13-.09.21-.09.21,0,.36.09.46.26l2.79,4.7.79,1.43s.02.02.03.02.02,0,.02-.03c-.05-.93-.08-1.63-.08-2.11v-3.99c0-.08.03-.14.08-.2s.12-.08.2-.08.14.03.2.08c.05.05.08.12.08.2v6.62c0,.08-.03.16-.09.22-.06.06-.13.09-.21.09-.21,0-.36-.09-.46-.26l-2.79-4.71-.8-1.42s-.02-.03-.03-.03-.02.01-.02.03c.05,1.2.08,1.89.08,2.07v4.04c0,.08-.03.14-.08.2Z"/>
        <path class="cls-1" d="M108.77,53.87c-.16,0-.3-.06-.41-.17-.11-.11-.16-.25-.16-.4v-6.07c0-.16.05-.3.16-.41s.24-.16.41-.16h1.41c.76,0,1.35.14,1.77.43.42.29.63.73.63,1.32,0,.37-.09.7-.28.98-.19.28-.45.47-.8.58-.01,0-.02.02-.02.03s0,.02.02.02c.47.08.84.27,1.11.57.27.3.41.68.41,1.16,0,.68-.24,1.21-.72,1.57-.48.36-1.14.54-1.97.54h-1.57ZM108.79,49.73s.02.07.07.07h1.14c1.33,0,2-.44,2-1.32,0-.48-.16-.82-.48-1.03-.32-.21-.81-.31-1.46-.31h-1.2s-.07.02-.07.07v2.52ZM108.79,53.3c0,.05.02.08.07.08h1.33c.72,0,1.28-.13,1.67-.4.39-.27.58-.67.58-1.21,0-.99-.75-1.49-2.25-1.49h-1.33s-.07.03-.07.08v2.95Z"/>
        <path class="cls-1" d="M116.44,53.78c-.06.06-.13.09-.21.09s-.15-.03-.21-.09-.09-.13-.09-.21v-2.53s-.01-.09-.03-.14l-1.99-3.97s-.03-.06-.03-.09c0-.04.01-.07.04-.11.04-.06.09-.09.16-.09.21,0,.36.09.45.28l.92,1.93c.08.15.2.39.36.74.16.34.29.61.39.81,0,.01.02.02.03.02.01,0,.02,0,.03-.02.37-.72.63-1.24.76-1.55l.93-1.93c.09-.18.24-.27.44-.27.07,0,.13.03.16.09.02.03.03.06.03.1,0,.03,0,.05-.02.09l-2,3.97s-.03.09-.03.14v2.53c0,.08-.03.16-.09.21Z"/>
        <path class="cls-1" d="M122.96,53.78c-.06.06-.13.09-.21.09s-.15-.03-.21-.09c-.06-.06-.09-.13-.09-.21v-6.62c0-.08.03-.15.09-.21.06-.05.13-.08.21-.08s.15.03.21.08c.06.05.09.12.09.21v6.62c0,.08-.03.16-.09.21Z"/>
        <path class="cls-1" d="M127.35,45.96c.06.02.11.06.13.13.02.04.03.07.03.11,0,.03,0,.05-.01.09-.02.06-.06.1-.12.13-.06.03-.12.03-.18,0-.14-.04-.27-.06-.4-.06-.54,0-.81.39-.81,1.16v1.01s.03.07.08.07h.88c.06,0,.12.02.17.07.05.05.07.11.07.17s-.02.12-.07.17c-.05.04-.1.07-.17.07h-.88c-.05,0-.08.03-.08.08v4.43c0,.08-.03.15-.08.21-.05.05-.12.08-.2.08s-.15-.03-.2-.08c-.05-.05-.08-.12-.08-.21v-4.43c0-.05-.03-.08-.08-.08h-.45c-.06,0-.11-.02-.15-.06s-.06-.09-.06-.15.02-.11.06-.16c.04-.05.09-.07.15-.07l.45-.03c.05,0,.08-.03.08-.08v-1.03c0-.53.11-.93.34-1.2.23-.27.56-.41,1.01-.41.18,0,.37.03.57.09Z"/>
        <path class="cls-1" d="M129.02,53.79c-.06.05-.13.08-.2.08s-.15-.03-.2-.08c-.06-.05-.09-.12-.09-.21v-7.29c0-.08.03-.15.09-.21.06-.05.13-.08.2-.08s.15.03.2.08c.06.05.09.12.09.21v3.05s0,.02,0,.02c.01,0,.02,0,.03,0,.3-.29.58-.51.86-.67.27-.15.57-.23.89-.23.55,0,.95.17,1.21.51.26.34.39.85.39,1.53v3.08c0,.08-.03.15-.08.21-.05.05-.12.08-.2.08s-.15-.03-.2-.08c-.05-.05-.08-.12-.08-.21v-3.01c0-.55-.09-.96-.28-1.22-.19-.26-.48-.39-.88-.39-.28,0-.55.07-.79.21-.24.14-.52.37-.83.69-.03.03-.05.07-.05.13v3.59c0,.08-.03.15-.09.21Z"/>
      </g>
      <path class="cls-1" d="M224.42,42.05c-8.73,11.57-22.56,19.1-38.14,19.1-26.36,0-47.81-21.45-47.81-47.81,0-3.58.43-7.06,1.18-10.42l-1.09-.51c-.81,3.52-1.27,7.16-1.27,10.92,0,27.01,21.98,48.99,48.99,48.99,16.06,0,30.3-7.8,39.24-19.78l-1.1-.51Z"/>
      <g>
        <path class="cls-1" d="M15.65,31.76c-.27,0-.51-.08-.74-.24-.23-.16-.39-.37-.48-.64l-1.99-6.06c-.06-.13-.15-.2-.28-.2h-7.86c-.13,0-.23.07-.28.2l-2.08,6.12c-.08.25-.22.45-.43.6s-.45.23-.71.23c-.21,0-.38-.09-.51-.26-.08-.11-.11-.23-.11-.34,0-.08,0-.15.03-.23L7.05,11.35c.09-.25.25-.45.47-.6.22-.15.46-.23.73-.23s.51.08.74.23c.23.15.38.35.46.6l6.83,19.53c.04.08.06.15.06.23,0,.13-.05.26-.14.37-.13.19-.31.29-.54.29ZM4.61,23.02s.01.08.04.13c.03.05.07.07.13.07h6.92s.08-.02.11-.07c.04-.05.05-.09.03-.13l-1.22-3.64c-.72-2.07-1.49-4.48-2.31-7.23-.02-.04-.05-.06-.09-.06s-.07.02-.09.06c-.59,2.13-1.35,4.54-2.28,7.23l-1.25,3.64Z"/>
        <path class="cls-1" d="M22.46,31.52c-.17.16-.37.24-.6.24s-.43-.08-.6-.24c-.17-.16-.26-.37-.26-.61v-13.98c0-.19.07-.36.21-.5s.31-.21.5-.21.36.07.51.2c.15.13.24.3.26.51l.14,1.62s0,.03.03.03.03,0,.03-.03c.91-.87,1.78-1.55,2.6-2.02.83-.47,1.72-.71,2.69-.71,1.61,0,2.8.5,3.57,1.49.77,1,1.15,2.5,1.15,4.51v9.08c0,.25-.08.45-.24.61-.16.16-.36.24-.6.24s-.44-.08-.6-.24c-.16-.16-.24-.37-.24-.61v-8.85c0-1.63-.28-2.83-.83-3.59-.55-.76-1.41-1.14-2.59-1.14-.83,0-1.61.21-2.32.63-.71.42-1.52,1.09-2.43,2.02-.1.1-.14.22-.14.37v10.56c0,.25-.09.45-.26.61Z"/>
        <path class="cls-1" d="M43.55,39.25c-1.95,0-3.52-.38-4.68-1.14-1.17-.76-1.75-1.79-1.75-3.1,0-.66.2-1.32.61-1.96.41-.65.96-1.21,1.67-1.71.04-.02.06-.06.06-.11,0-.02,0-.04-.01-.06,0-.02-.02-.04-.04-.06-.89-.55-1.34-1.37-1.34-2.45s.56-2.02,1.68-2.88c.04-.02.06-.05.06-.09s-.02-.07-.06-.09c-.55-.46-1.01-1.05-1.38-1.79-.37-.74-.56-1.54-.56-2.39,0-1.59.54-2.91,1.62-3.96,1.08-1.04,2.39-1.57,3.93-1.57.64,0,1.27.11,1.88.34.15.04.29.06.43.06h4.38c.19,0,.36.07.5.21s.21.31.21.5-.07.36-.21.5c-.14.14-.31.21-.5.21h-2.59s-.06.01-.07.04c-.01.03,0,.06.01.1.97.93,1.45,2.13,1.45,3.59,0,1.58-.53,2.88-1.58,3.91-1.05,1.03-2.36,1.55-3.91,1.55-.84,0-1.6-.18-2.31-.54-.13-.06-.25-.05-.34.03-.72.61-1.08,1.28-1.08,2.02,0,1.31.98,1.96,2.93,1.96h3.24c1.78,0,3.1.29,3.94.87.84.58,1.27,1.48,1.27,2.72,0,1.42-.7,2.66-2.09,3.7-1.39,1.04-3.18,1.57-5.37,1.57ZM43.75,37.97c1.61,0,2.94-.38,3.99-1.14,1.04-.76,1.57-1.63,1.57-2.62,0-.8-.29-1.38-.87-1.74-.58-.36-1.47-.54-2.66-.54h-3.16c-.46,0-1.03-.07-1.74-.2-.04-.02-.08-.03-.11-.03-.11,0-.21.03-.29.09-1.16.87-1.74,1.88-1.74,3.02,0,.95.44,1.71,1.32,2.29.88.58,2.11.87,3.69.87ZM43.35,25.64c1.06,0,1.97-.39,2.73-1.18s1.14-1.8,1.14-3.03-.37-2.26-1.11-3.02c-.74-.76-1.66-1.14-2.76-1.14s-2,.38-2.75,1.14c-.75.76-1.12,1.76-1.12,3.02s.38,2.24,1.14,3.03,1.67,1.18,2.73,1.18Z"/>
        <path class="cls-1" d="M60.35,32.13c-2.05,0-3.77-.74-5.15-2.21-1.39-1.47-2.08-3.44-2.08-5.91s.68-4.4,2.04-5.92c1.36-1.52,2.95-2.28,4.8-2.28s3.25.6,4.3,1.79c1.14,1.27,1.71,2.95,1.71,5.04,0,.44-.17.82-.51,1.14-.34.32-.76.48-1.25.48h-9.14c-.13,0-.2.07-.2.2.08,1.86.63,3.36,1.67,4.51,1.03,1.15,2.37,1.72,4,1.72,1.27,0,2.46-.32,3.56-.97.15-.09.32-.12.51-.07.19.05.32.16.4.33.09.17.11.36.06.55-.06.2-.17.35-.34.44-1.37.76-2.82,1.14-4.35,1.14ZM54.85,22.77c0,.11.07.17.2.17h9.14c.15,0,.23-.07.23-.2v-.03c-.04-1.76-.45-3.11-1.22-4.04-.78-.93-1.85-1.39-3.22-1.39-1.29,0-2.42.49-3.39,1.48-1.16,1.18-1.74,2.51-1.74,4.01Z"/>
        <path class="cls-1" d="M72.28,32.13c-1.39,0-2.08-.89-2.08-2.68V9.45c0-.25.09-.45.26-.61.17-.16.37-.24.6-.24s.43.08.6.24c.17.16.26.37.26.61v20.18c0,.32.05.57.16.74.1.17.24.27.41.31.47.08.74.29.8.63.02.04.03.09.03.14,0,.13-.04.27-.11.4-.1.15-.24.24-.43.26-.15.02-.31.03-.48.03Z"/>
        <path class="cls-1" d="M79,12.58c-.4,0-.74-.12-1.01-.37-.27-.25-.41-.57-.41-.97,0-.42.14-.75.41-1.01.27-.26.61-.38,1.01-.38s.74.13,1.01.38c.27.26.41.59.41,1.01,0,.38-.14.7-.41.95-.28.26-.61.38-1.01.38ZM79.57,31.52c-.17.16-.37.24-.6.24s-.43-.08-.6-.24c-.17-.16-.26-.37-.26-.61v-13.83c0-.23.09-.43.26-.6.17-.17.37-.26.6-.26s.43.09.6.26.26.37.26.6v13.83c0,.25-.09.45-.26.61Z"/>
        <path class="cls-1" d="M96.74,38.54c-.16.17-.36.26-.6.26s-.44-.09-.6-.26c-.16-.17-.24-.37-.24-.6v-5.07l.11-2.82s-.02-.07-.06-.09c-.04-.02-.08-.02-.11,0-1.58,1.5-3.21,2.25-4.9,2.25-1.99,0-3.57-.71-4.72-2.14-1.16-1.42-1.74-3.42-1.74-6.01,0-2.43.67-4.4,2.02-5.91,1.35-1.51,2.97-2.26,4.87-2.26.87,0,1.66.15,2.35.46.69.3,1.43.77,2.21,1.39h.06s.03,0,.03-.03l.11-.74c.02-.19.1-.35.26-.48.15-.13.32-.2.51-.2s.35.07.48.2c.13.13.2.29.2.48v20.95c0,.23-.08.43-.24.6ZM90.63,30.74c1.5,0,3-.77,4.5-2.31.11-.1.17-.22.17-.37v-8.54c0-.15-.06-.27-.17-.34-1.39-1.19-2.78-1.79-4.18-1.79-1.48,0-2.72.64-3.73,1.92-1.01,1.28-1.51,2.87-1.51,4.77,0,2.05.43,3.67,1.3,4.87.86,1.2,2.07,1.79,3.63,1.79Z"/>
        <path class="cls-1" d="M106.82,32.13c-1.61,0-2.8-.49-3.56-1.48s-1.14-2.49-1.14-4.5v-9.08c0-.23.09-.43.26-.6.17-.17.37-.26.6-.26s.43.09.6.26c.17.17.26.37.26.6v8.88c0,1.61.27,2.79.8,3.54.53.75,1.39,1.12,2.56,1.12.85,0,1.64-.22,2.35-.67.71-.45,1.5-1.18,2.38-2.21.08-.1.11-.22.11-.37v-10.3c0-.23.09-.43.26-.6.17-.17.37-.26.6-.26s.43.09.6.26c.17.17.26.37.26.6v13.98c0,.19-.07.36-.21.5-.14.14-.31.21-.51.21s-.37-.07-.51-.21c-.14-.14-.22-.31-.24-.5l-.09-1.82s-.04-.03-.07-.03-.05.01-.07.03c-.82.95-1.64,1.67-2.46,2.16-.83.49-1.74.74-2.75.74Z"/>
        <path class="cls-1" d="M125.05,32.13c-2.05,0-3.77-.74-5.15-2.21-1.39-1.47-2.08-3.44-2.08-5.91s.68-4.4,2.04-5.92c1.36-1.52,2.95-2.28,4.8-2.28s3.25.6,4.3,1.79c1.14,1.27,1.71,2.95,1.71,5.04,0,.44-.17.82-.51,1.14-.34.32-.76.48-1.25.48h-9.14c-.13,0-.2.07-.2.2.08,1.86.63,3.36,1.67,4.51,1.03,1.15,2.37,1.72,4,1.72,1.27,0,2.46-.32,3.56-.97.15-.09.32-.12.51-.07.19.05.32.16.4.33.09.17.11.36.06.55-.06.2-.17.35-.34.44-1.37.76-2.82,1.14-4.35,1.14ZM119.56,22.77c0,.11.07.17.2.17h9.14c.15,0,.23-.07.23-.2v-.03c-.04-1.76-.45-3.11-1.22-4.04-.78-.93-1.85-1.39-3.22-1.39-1.29,0-2.42.49-3.39,1.48-1.16,1.18-1.74,2.51-1.74,4.01Z"/>
      </g>
      <path class="cls-1" d="M171.27,44.33s-1.27,2.54-.08,4.18l-.33.33-.53-.6-.36-1.19.33-1.38.48-1.22.48-.12Z"/>
      <g>
        <path class="cls-1" d="M177.11,23.65c-.18.04-.38.22-.6.53-.22.31-.43.66-.63,1.06-.2.4-.39.77-.56,1.13-.18.36-.33.62-.47.8-.35.57-.71,1.13-1.06,1.66-.35.53-.71,1.06-1.06,1.59-.75,1.02-1.53,2.02-2.32,2.99-.8.97-1.68,1.88-2.66,2.72-1.55,1.29-3.33,2.24-5.34,2.86-2.02.62-4.02.6-6.01-.07h0c-1.54-.59-2.64-1.71-3.2-2.39-.61-.91-1.04-1.91-1.25-3.02-.22-1.22-.23-2.48-.03-3.79.2-1.31.54-2.49,1.03-3.55.12-.28.24-.55.37-.82.52-1.06,1.15-2.07,1.88-2.99.72-.91,1.6-1.66,2.5-2.38.53-.42,1.07-.84,1.66-1.17.5-.28.92-.59,1.6-.85.28.26.72.66,1.13.87.61.33,1.27.54,2.06.66.59.09,1.4.11,1.99-.33.39-.29.61-.77.61-1.3-.01-.64-.35-1.29-.86-1.65-.66-.46-1.58-.64-2.76-.5-.75.08-1.44.25-2.08.47-.23-.21-.42-.44-.61-.67-1.38-2.26-.86-4.81-.42-6.14.41-.94.87-1.82,1.43-2.59.66-.93,1.53-1.85,2.59-2.76,1.06-.91,2.2-1.65,3.42-2.23,1.22-.57,2.36-.74,3.62-.72.81.01,2.41.27,3.47,1.16,1.02.89,1.67,1.83,1.74,2.92.06.99-.15,1.95-.56,2.9-.51.96-1.83,2.98-4.08,3.75,0,0-.84.33-1.55.48,0,0-.65.1-.91.52,0,0-.35.5-.06,1.51,0,0,.19.78,1.29.78,0,0,2.59.25,4.99-3.8,0,0,1.34-1.95,1.46-4.03.07-.59.08-1.17,0-1.74-.13-1.06-.49-1.99-1.06-2.79-.57-.8-1.33-1.45-2.26-1.96-.93-.51-1.99-.76-3.19-.76-1.15-.04-2.28.11-3.39.46-1.11.36-2.14.85-3.09,1.5-.95.64-1.81,1.41-2.56,2.29-.75.89-1.39,1.82-1.93,2.79-.57,1.02-.95,2.16-1.13,3.42-.04.28-.01.54-.02.82l-.05-.12s-.29,2.87,1.41,5.14c.01.02.02.04.03.06l.23.3c-.59.27-1.15.58-1.68.89-.62.36-2.85,1.76-4.48,3.59,0,0-4.11,3.75-3.99,10.56.02,1.11.33,2.27.76,3.28.62,1.49,1.63,2.68,3.02,3.5,2.01,1.17,4.32,1.69,6.63,1.47,1.61-.15,3.2-.66,4.65-1.36,1.64-.8,3.06-1.75,4.25-2.85,1.02-.97,1.97-2.03,2.86-3.15.89-1.13,1.73-2.27,2.52-3.42.35-.53.7-1.07,1.03-1.63.33-.55.68-1.12,1.03-1.69.04-.04.16-.19.33-.43.18-.24.33-.51.47-.8.13-.29.21-.53.23-.73.02-.2-.1-.28-.37-.23ZM163.23,16.83c.89-.1,1.57,0,2,.31.22.16.38.46.39.75,0,.12-.02.28-.16.38-.2.16-.63.2-1.14.12-.68-.11-1.21-.28-1.72-.55-.38-.2-.67-.43-.93-.7.5-.15,1.01-.26,1.56-.32Z"/>
        <path class="cls-1" d="M221.6,23.75c-.18-.07-.35-.05-.53.03-.22.13-.44.43-.66.9-.22.47-.4.81-.53,1.03-.31.49-.61.95-.9,1.39-.29.44-.61.89-.96,1.33-1.46,2.04-3.19,3.92-5.18,5.64-1.99,1.73-4.3,2.84-6.91,3.32-.5.09-.99.11-1.47.13-2.77-.03-4.1-1.52-4.71-2.65-.34-.78-.55-1.61-.59-2.49-.05-.95.02-1.91.2-2.89,1.68-.13,3.4-.47,5.15-1,1.75-.53,3.33-1.44,4.75-2.72,1.02-.89,1.89-1.89,2.62-3.02.73-1.13,1.27-2.33,1.63-3.62.13-.44.21-.95.23-1.53.02-.57-.01-1.14-.1-1.69-.09-.55-.26-1.06-.53-1.53-.26-.46-.64-.83-1.13-1.1-1.15-.66-2.28-.82-3.39-.47-1.11.36-2.16.95-3.15,1.79-1,.84-1.89,1.79-2.69,2.85-.8,1.06-1.42,1.99-1.86,2.79-1.15,1.9-2.06,4.01-2.72,6.31-.66,2.3-.73,4.56-.2,6.77.31,1.15.74,2.26,1.53,3.15.81.92,1.66,1.47,2.92,1.76.93.22,2.2.18,3.52-.1,1.2-.26,2.3-.68,3.32-1.16,2.26-1.02,4.24-2.42,5.94-4.22,1.71-1.79,3.24-3.69,4.62-5.68l1.79-2.85c.18-.27.18-.43,0-.5ZM199.55,28.3c.04-.17.11-.38.2-.6.31-1.15.72-2.33,1.23-3.55.51-1.22,1.11-2.41,1.79-3.58.68-1.17,1.45-2.27,2.29-3.29.84-1.02,1.75-1.88,2.72-2.59.4-.31.86-.56,1.39-.76.53-.2,1.04-.29,1.53-.27.49.02.91.19,1.26.5.35.31.57.8.66,1.46.13,1.15-.05,2.28-.56,3.39-.51,1.11-1.07,2.1-1.69,2.99-1.24,1.86-2.8,3.43-4.68,4.72-1.88,1.29-3.95,2.02-6.21,2.19h-.07c.04-.22.09-.42.13-.6Z"/>
        <path class="cls-1" d="M199.02,23.72c-.18.18-.35.4-.53.66-.66,1.2-1.39,2.32-2.19,3.39-2.78,3.93-6.3,7.05-10.48,9.42-.28.12-.57.22-.87.31l2.78-5.69c1.33-2.7,2.63-5.4,3.92-8.1,1.29-2.7,2.59-5.42,3.92-8.17.18-.35.21-.62.1-.8-.11-.17-.29-.25-.53-.23-.24.02-.52.13-.83.33-.31.2-.58.52-.8.96l-.93,1.72c-.58,1.02-1.17,1.99-1.79,2.92-.62.93-1.26,1.86-1.93,2.79-1.42,1.95-2.94,3.91-4.58,5.88-1.64,1.97-3.5,3.6-5.58,4.88-.49.31-1,.53-1.53.66-.53.13-.99.16-1.39.07-.4-.09-.69-.32-.86-.7-.17-.38-.17-.94,0-1.69.27-1.15.66-2.25,1.2-3.29.53-1.04,1.06-2.07,1.59-3.09,1.02-1.77,2.08-3.52,3.19-5.25,1.11-1.73,2.23-3.43,3.39-5.11.13-.22.18-.44.13-.66-.05-.22-.16-.39-.33-.5-.18-.11-.39-.16-.63-.13-.24.02-.45.14-.63.37-.22.22-.43.51-.63.86-.2.35-.39.66-.56.93-.71,1.06-1.41,2.13-2.09,3.19-.69,1.06-1.34,2.15-1.96,3.25-.18.31-.47.83-.86,1.56-.4.73-.82,1.55-1.26,2.46-.44.91-.84,1.85-1.2,2.82-.35.97-.57,1.87-.66,2.69-.09.82-.01,1.53.23,2.12.24.6.79.94,1.63,1.03.62.09,1.22.05,1.79-.13.57-.17,1.14-.43,1.69-.76.55-.33,1.07-.71,1.56-1.13.49-.42.93-.83,1.33-1.23.97-.89,1.89-1.83,2.76-2.82.86-.99,1.72-2,2.56-3.02.53-.66,1.07-1.34,1.63-2.03.55-.68,1.07-1.4,1.56-2.16-.75,1.59-1.5,3.19-2.23,4.78-.73,1.6-1.47,3.19-2.23,4.78-.49,1.06-.96,2.14-1.43,3.22-.42.97-.84,1.9-1.27,2.82-.52.09-.98.14-1.32.18-.2.01-.39.03-.56.05,0,0-.04,0-.04,0h0c-.58.06-.95.12-.95.12l.02.03c-.36.04-.72.06-1.08.13-1.29.24-2.49.63-3.62,1.16-1.13.53-2.16,1.23-3.09,2.09-.93.86-1.66,1.87-2.19,3.02-.62,1.28-.7,2.46-.23,3.52.46,1.06,1.43,1.66,2.89,1.79,1.29.13,2.46-.18,3.52-.93,1.06-.75,1.99-1.59,2.79-2.52,1.02-1.2,1.93-2.46,2.72-3.79.76-1.26,1.49-2.57,2.21-3.91.04-.01.07-.01.12-.03h0s0,0,0,0c.67-.2,1.72-.7,3.2-1.76.53-.35,1.05-.71,1.57-1.07,1.95-1.42,3.74-3.06,5.38-4.92.97-1.06,1.86-2.17,2.66-3.32.8-1.15,1.55-2.35,2.26-3.58-.09-.49-.22-.64-.4-.47ZM179.83,44.17c-.62,1.02-1.39,2.05-2.29,3.09-.91,1.04-2,1.69-3.29,1.96-.59.13-1.14.12-1.65,0-.08-.02-.16-.04-.24-.07-.11-.03-.21-.08-.31-.12-1.51-.75-1.36-2.45-1.36-2.45l-.16.24c0-.41.04-.84.21-1.34.44-1.11,1.09-2.1,1.93-2.99.84-.89,1.82-1.6,2.92-2.16.93-.47,1.92-.81,2.94-1.07,1.4-.31,2.44-.31,2.44-.31.66,0,1.24,0,1.74-.02-.83,1.7-1.79,3.44-2.87,5.22Z"/>
      </g>
    </g>
  </g>
</svg>