<?xml version="1.0" encoding="UTF-8"?>
<svg id="_レイヤー_2" data-name="レイヤー 2" xmlns="http://www.w3.org/2000/svg" viewBox="0 0 287.23 57.04">
  <defs>
    <style>
      .cls-1 {
        fill: #282828;
        stroke-width: 0px;
      }
    </style>
  </defs>
  <g id="_レイヤー_1-2" data-name="レイヤー 1">
    <g>
      <g>
        <path class="cls-1" d="M9.72,0c2.29,0,3.48,1.01,4.53,1.01.47,0,.83-.18,1.04-.52.13-.21.23-.26.34-.26.13,0,.18.08.18.29v5.62c0,.08-.1.16-.23.16s-.21-.05-.23-.16C14.74,2.29,13.23.47,9.72.47c-1.2,0-2.31.42-3.17,1.27-1.12,1.12-1.69,2.7-1.69,8.09s.57,6.97,1.69,8.09c.86.86,1.98,1.27,3.17,1.27,3.12,0,5.3-2.44,5.9-6.55.03-.1.1-.16.23-.16.1,0,.23.05.23.16v6.5c0,.21-.03.29-.18.29s-.21-.05-.34-.26c-.29-.44-.7-.65-1.17-.65-1.33,0-2.29,1.14-4.68,1.14-4.71,0-8.53-4.21-8.53-9.83S5.02,0,9.72,0Z"/>
        <path class="cls-1" d="M18.62.23h7.62c.1,0,.16.03.16.23s-.05.23-.16.23h-1.9c-.39,0-.44.05-.44.44v12.32c0,3.67,1.72,5.54,4.58,5.54s4.76-1.87,4.76-5.54V5.2c0-3.61-.31-4.39-2.78-4.5-.1,0-.16-.03-.16-.23s.05-.23.16-.23h5.77c.1,0,.16.03.16.23s-.05.23-.16.23c-2.13.1-2.47.88-2.47,4.5v8.27c0,3.98-2.11,6.19-6.37,6.19-3.98,0-6.68-2.21-6.68-6.19V1.14c0-.39-.05-.44-.44-.44h-1.64c-.11,0-.16-.03-.16-.23s.05-.23.16-.23Z"/>
        <path class="cls-1" d="M46.46,9.15v.1c3.46.42,5.33,1.66,5.33,4.99v3.09c0,1.07.44,1.59,1.25,1.59.39,0,.91-.21,1.27-.42.1-.05.34.23.23.34-.55.47-1.38.81-2.45.81-2.13,0-3.51-1.12-3.51-3.15v-3.9c0-2.16-1.66-3.15-3.64-3.15h-2.34v8.97c0,.39.05.44.44.44h1.61c.1,0,.16.03.16.23s-.05.23-.16.23h-7.51c-.1,0-.16-.03-.16-.23s.05-.23.16-.23h1.82c.39,0,.44-.05.44-.44V1.14c0-.39-.05-.44-.44-.44h-1.74c-.11,0-.16-.03-.16-.23s.05-.23.16-.23h7.54c4.37,0,6.53,1.79,6.53,4.47,0,2.42-1.87,4.06-4.84,4.45ZM46.93,1.56c-.54-.55-1.17-.86-2.34-.86h-1.53c-.39,0-.44.05-.44.44v7.85h1.79c1.25,0,1.85-.21,2.52-.88.57-.57,1.07-1.9,1.07-3.41s-.49-2.57-1.07-3.15Z"/>
        <path class="cls-1" d="M65.05,9.15v.1c3.46.42,5.33,1.66,5.33,4.99v3.09c0,1.07.44,1.59,1.25,1.59.39,0,.91-.21,1.27-.42.1-.05.34.23.23.34-.55.47-1.38.81-2.45.81-2.13,0-3.51-1.12-3.51-3.15v-3.9c0-2.16-1.66-3.15-3.64-3.15h-2.34v8.97c0,.39.05.44.44.44h1.61c.1,0,.16.03.16.23s-.05.23-.16.23h-7.51c-.1,0-.16-.03-.16-.23s.05-.23.16-.23h1.82c.39,0,.44-.05.44-.44V1.14c0-.39-.05-.44-.44-.44h-1.74c-.11,0-.16-.03-.16-.23s.05-.23.16-.23h7.54c4.37,0,6.53,1.79,6.53,4.47,0,2.42-1.87,4.06-4.84,4.45ZM65.52,1.56c-.54-.55-1.17-.86-2.34-.86h-1.53c-.39,0-.44.05-.44.44v7.85h1.79c1.25,0,1.85-.21,2.52-.88.57-.57,1.07-1.9,1.07-3.41s-.49-2.57-1.07-3.15Z"/>
        <path class="cls-1" d="M74.33,18.88h1.82c.39,0,.44-.05.44-.44V1.14c0-.39-.05-.44-.44-.44h-1.74c-.1,0-.16-.03-.16-.23s.05-.23.16-.23h7.57c.1,0,.16.03.16.23s-.05.23-.16.23h-1.74c-.39,0-.44.05-.44.44v17.29c0,.39.05.44.44.44h1.82c.1,0,.16.03.16.23s-.05.23-.16.23h-7.72c-.1,0-.16-.03-.16-.23,0-.18.05-.23.16-.23Z"/>
        <path class="cls-1" d="M92.61,0c2.29,0,3.48,1.01,4.52,1.01.47,0,.83-.18,1.04-.52.13-.21.23-.26.34-.26.13,0,.18.08.18.29v5.62c0,.08-.1.16-.23.16s-.21-.05-.23-.16c-.6-3.85-2.11-5.67-5.62-5.67-1.2,0-2.31.42-3.17,1.27-1.12,1.12-1.69,2.7-1.69,8.09s.57,6.97,1.69,8.09c.86.86,1.97,1.27,3.17,1.27,3.12,0,5.3-2.44,5.9-6.55.03-.1.1-.16.23-.16.11,0,.23.05.23.16v6.5c0,.21-.03.29-.18.29s-.21-.05-.34-.26c-.29-.44-.7-.65-1.17-.65-1.33,0-2.29,1.14-4.68,1.14-4.71,0-8.53-4.21-8.53-9.83s3.82-9.83,8.53-9.83Z"/>
        <path class="cls-1" d="M101.5.23h7.62c.1,0,.16.03.16.23s-.05.23-.16.23h-1.9c-.39,0-.44.05-.44.44v12.32c0,3.67,1.71,5.54,4.58,5.54s4.76-1.87,4.76-5.54V5.2c0-3.61-.31-4.39-2.78-4.5-.1,0-.16-.03-.16-.23s.05-.23.16-.23h5.77c.1,0,.16.03.16.23s-.05.23-.16.23c-2.13.1-2.47.88-2.47,4.5v8.27c0,3.98-2.11,6.19-6.37,6.19-3.98,0-6.68-2.21-6.68-6.19V1.14c0-.39-.05-.44-.44-.44h-1.64c-.1,0-.16-.03-.16-.23s.05-.23.16-.23Z"/>
        <path class="cls-1" d="M120.04,18.88h1.82c.39,0,.44-.05.44-.44V1.14c0-.39-.05-.44-.44-.44h-1.74c-.1,0-.16-.03-.16-.23s.05-.23.16-.23h8.24c.11,0,.16.03.16.23s-.05.23-.16.23h-2.42c-.39,0-.44.05-.44.44v17.29c0,.39.05.44.44.44h3.02c3.74,0,4.86-1.74,5.51-5.9.03-.13.1-.18.23-.18.1,0,.23.05.23.18v5.9c0,.36-.08.47-.44.47h-14.46c-.1,0-.16-.03-.16-.23s.05-.23.16-.23Z"/>
        <path class="cls-1" d="M136.97.23h7.62c.1,0,.16.03.16.23s-.05.23-.16.23h-1.9c-.39,0-.44.05-.44.44v12.32c0,3.67,1.71,5.54,4.58,5.54s4.76-1.87,4.76-5.54V5.2c0-3.61-.31-4.39-2.78-4.5-.1,0-.16-.03-.16-.23s.05-.23.16-.23h5.77c.1,0,.16.03.16.23s-.05.23-.16.23c-2.13.1-2.47.88-2.47,4.5v8.27c0,3.98-2.11,6.19-6.37,6.19-3.98,0-6.68-2.21-6.68-6.19V1.14c0-.39-.05-.44-.44-.44h-1.64c-.1,0-.16-.03-.16-.23s.05-.23.16-.23Z"/>
        <path class="cls-1" d="M155.12,18.88c2.13-.1,2.47-.88,2.47-4.5V1.14c0-.39-.05-.44-.44-.44h-1.79c-.1,0-.16-.03-.16-.23s.05-.23.16-.23h5.25c.23,0,.44.1.52.34l4.21,12.3c.39,1.12.68,2.05.78,2.6h.11l5.1-14.9c.08-.23.21-.34.54-.34h5.07c.11,0,.16.03.16.23s-.05.23-.16.23h-1.69c-.39,0-.44.05-.44.44v17.29c0,.39.05.44.44.44h1.95c.11,0,.16.03.16.23s-.05.23-.16.23h-8.01c-.1,0-.16-.03-.16-.23s.05-.23.16-.23h1.98c.39,0,.44-.05.44-.44V1.69h-.13l-5.98,17.34c-.05.21-.16.31-.42.31h-.42c-.23,0-.37-.08-.44-.31l-6.01-17.42h-.1v12.77c0,3.61.31,4.39,2.94,4.5.11,0,.16.08.16.23,0,.21-.05.23-.16.23h-5.93c-.1,0-.16-.03-.16-.23,0-.16.05-.23.16-.23Z"/>
        <path class="cls-1" d="M0,22.59v-1.3h177.89v1.3H0Z"/>
      </g>
      <g>
        <path class="cls-1" d="M1.6,29.04h7.23v8h6.02v-8h7.23v22.08h-7.23v-8.16h-6.02v8.16H1.6v-22.08Z"/>
        <path class="cls-1" d="M33.6,34.48c5.44,0,9.44,3.07,9.44,8.51s-4,8.51-9.44,8.51-9.44-3.07-9.44-8.51,4-8.51,9.44-8.51ZM35.84,42.9c0-1.7-.8-2.82-2.24-2.82s-2.24,1.12-2.24,2.82.8,2.78,2.24,2.78,2.24-1.12,2.24-2.78Z"/>
        <path class="cls-1" d="M50.56,34.8l2.08,8.64,2.08-8.64h5.92l2.08,8.64,2.08-8.64h7.2l-5.28,16.32h-6.88l-2.18-8-2.14,8h-6.88l-5.28-16.32h7.2Z"/>
        <path class="cls-1" d="M86.24,51.51c-2.08,0-3.52-.54-4.48-1.41-.96-.9-1.44-2.34-1.44-4.74v-5.28h-2.24v-5.28h2.24v-4h7.2v4h3.36v5.28h-3.36v4.48c0,.46.11.73.31.9.22.18.55.22.97.22.8,0,1.6-.22,1.6-.22l.32,5.5c-.64.16-2.4.54-4.48.54Z"/>
        <path class="cls-1" d="M100.96,34.48c5.44,0,9.44,3.07,9.44,8.51s-4,8.51-9.44,8.51-9.44-3.07-9.44-8.51,4-8.51,9.44-8.51ZM103.2,42.9c0-1.7-.8-2.82-2.24-2.82s-2.24,1.12-2.24,2.82.8,2.78,2.24,2.78,2.24-1.12,2.24-2.78Z"/>
        <path class="cls-1" d="M125.66,29.04v4.64c0,1.21-.03,1.94-.05,2.59.56-.69,1.71-1.79,4.69-1.79,4.64,0,7.52,3.71,7.52,8.51s-2.88,8.51-7.52,8.51c-2.08,0-4-.7-5.12-2.14l.1,1.76h-6.82v-22.08h7.2ZM130.56,42.9c0-1.86-1.22-2.82-2.56-2.82s-2.56.96-2.56,2.82,1.18,2.78,2.56,2.78,2.56-.96,2.56-2.78Z"/>
        <path class="cls-1" d="M147.97,51.51c-5.18,0-9.18-2.91-9.18-8.51s4.16-8.51,9.28-8.51,8.64,3.2,8.64,8.16c0,.96-.1,2.02-.1,2.02h-10.72c.26,1.5,1.86,1.82,3.14,1.82s3.04-.32,4.48-1.28l2.72,3.52c-.8.64-3.04,2.78-8.26,2.78ZM147.97,38.96c-1.18,0-1.98.8-2.08,1.92h4.16c-.06-1.12-.86-1.92-2.08-1.92Z"/>
        <path class="cls-1" d="M169.95,51.51c-3.04,0-6.24-1.34-6.24-5.34s4.03-4.93,6.4-5.02l3.78-.16v-.16c0-.9-.74-1.54-2.66-1.54s-4,.8-5.12,1.44l-1.76-4.54c1.6-.74,4.48-1.7,7.84-1.7s5.28.64,6.72,1.92c1.44,1.28,2.18,3.04,2.18,5.76v8.96h-6.82l-.16-1.44c-.8.8-2.08,1.82-4.16,1.82ZM170.91,45.84c0,.96.8,1.28,1.6,1.28s1.28-.48,1.44-.64v-2.02l-1.44.1c-.77.03-1.6.32-1.6,1.28Z"/>
        <path class="cls-1" d="M191.65,43.12c2.05,1.73,4.93,2.4,5.89,2.4s1.63-.29,1.63-.93-.8-.9-1.6-1.15l-3.2-1.02c-3.07-.98-5.06-2.93-5.06-6.34,0-5.09,4.59-7.26,9.05-7.26,2.94,0,5.95,1.06,7.87,2.66l-2.75,5.12c-1.66-1.47-4.1-2.11-5.54-2.11-.86,0-1.5.29-1.5.82,0,.9,1.65,1.09,3.29,1.64l1.47.49c3.29,1.09,5.15,3.09,5.15,6.43,0,5.27-4.76,7.65-9.41,7.65-2.56,0-5.5-.7-8.51-2.94l3.2-5.44h0Z"/>
        <path class="cls-1" d="M214.85,51.51c-2.08,0-3.52-.54-4.48-1.41-.96-.9-1.44-2.34-1.44-4.74v-5.28h-2.24v-5.28h2.24v-4h7.2v4h3.36v5.28h-3.36v4.48c0,.46.11.73.31.9.22.18.55.22.97.22.8,0,1.6-.22,1.6-.22l.32,5.5c-.64.16-2.4.54-4.48.54Z"/>
        <path class="cls-1" d="M224.29,51.44c.79,0,1.26-.2,1.41-.83l.03-.13-6.4-15.68h7.52l2.62,8.48,2.66-8.48h7.36l-6.72,16.64c-1.22,3.04-2.56,5.6-6.24,5.6s-5.92-.96-5.92-.96l1.44-5.12c.32.16,1.44.48,2.24.48Z"/>
        <path class="cls-1" d="M247.71,29.04v22.08h-7.2v-22.08h7.2Z"/>
        <path class="cls-1" d="M253.95,27.38c2.34,0,3.84,1.34,3.84,3.42s-1.5,3.42-3.84,3.42-3.84-1.34-3.84-3.42,1.54-3.42,3.84-3.42ZM257.56,34.8v16.32h-7.2v-16.32h7.2Z"/>
        <path class="cls-1" d="M266.87,46.77c.3,0,.78-.06.78-.46,0-.5-.77-.68-2.02-1.08l-1.92-.61c-1.46-.46-3.74-1.31-3.74-4.7s2.98-5.47,6.88-5.47,6.02,1.31,6.91,1.89l-1.95,4.03c-1.63-1.02-3.49-1.54-4.64-1.54-.71,0-.96.19-.96.46,0,.47.8.68,1.76.95l.66.19c2.97.85,5.33,2.12,5.33,5.57s-3.17,5.54-7.23,5.54c-2.5,0-5.31-.42-7.74-2.27l2.43-4.22c2.24,1.47,4.86,1.73,5.46,1.73Z"/>
        <path class="cls-1" d="M282.59,51.51c-2.08,0-3.52-.54-4.48-1.41-.96-.9-1.44-2.34-1.44-4.74v-5.28h-2.24v-5.28h2.24v-4h7.2v4h3.36v5.28h-3.36v4.48c0,.46.11.73.31.9.22.18.55.22.97.22.8,0,1.6-.22,1.6-.22l.32,5.5c-.64.16-2.4.54-4.48.54Z"/>
      </g>
    </g>
  </g>
</svg>