<?xml version="1.0" encoding="UTF-8"?>
<svg id="_レイヤー_2" data-name="レイヤー 2" xmlns="http://www.w3.org/2000/svg" viewBox="0 0 215.5 33.1">
  <defs>
    <style>
      .cls-1 {
        fill: #282828;
        stroke-width: 0px;
      }
    </style>
  </defs>
  <g id="_レイヤー_1-2" data-name="レイヤー 1">
    <g>
      <g>
        <path class="cls-1" d="M15.05,26.18v-1.14c.35-.05.73-.1,1.12-.15.39-.05.75-.11,1.06-.19.32-.08.58-.17.8-.28.21-.11.32-.25.32-.4-.03-.1-.04-.25-.06-.44-.01-.19-.08-.42-.21-.7l-1.71-4.67c-.28-.66-1.05-.99-2.32-.99h-5.66c-.96,0-1.55.33-1.75.98l-1.29,3.93c-.1.23-.15.55-.15.98,0,1.16,1.12,1.74,3.34,1.74v1.33H0v-1.33c.73-.05,1.36-.3,1.88-.76.52-.45.96-1.11,1.31-1.97L12.31.42l1.14.46,9.01,22.57c.35.53.63.86.84.99.05.05.26.12.63.21.37.09.88.22,1.54.4v1.14h-10.41ZM11.74,5.78l-3.34,7.98c-.28.61-.42,1.04-.42,1.29,0,.38.47.57,1.41.57h4.79c.76,0,1.14-.15,1.14-.46,0-.13-.14-.54-.42-1.25l-3.15-8.13Z"/>
        <path class="cls-1" d="M38.42,26.18v-1.14c1.65,0,2.47-.53,2.47-1.6v-6.23c0-3.47-1.24-5.21-3.72-5.21s-3.8,1.55-3.8,4.64v6.8c0,1.06.91,1.6,2.74,1.6v1.14h-8.06v-1.14c1.42,0,2.13-.58,2.13-1.75v-9.69c0-.89-.68-1.33-2.05-1.33h-.53v-.99l5.47-1.33c.1.1.15.35.15.76v2.28c.2-.38.46-.75.78-1.12.32-.37.71-.69,1.18-.97.47-.28,1.02-.51,1.65-.68.63-.18,1.35-.27,2.17-.27.46,0,.97.09,1.56.28.58.19,1.14.49,1.67.91.53.42.98.96,1.33,1.62.35.66.53,1.46.53,2.39v8.4c0,.99.82,1.48,2.47,1.48v1.14h-8.13Z"/>
        <path class="cls-1" d="M54.05,33.1c-1.55,0-2.82-.27-3.81-.82-.99-.55-1.49-1.37-1.49-2.49,0-1.44,1.09-2.51,3.27-3.19-1.62-.38-2.43-1.35-2.43-2.9,0-.41.08-.8.23-1.18.15-.38.37-.72.65-1.03s.6-.55.97-.72c.37-.18.77-.27,1.2-.27-1.92-1.01-2.89-2.64-2.89-4.89,0-.76.14-1.48.42-2.16.28-.68.69-1.28,1.24-1.8.55-.52,1.23-.93,2.04-1.23.81-.3,1.75-.46,2.82-.46,1.7,0,3.2.55,4.5,1.63.43-.66.91-1.12,1.45-1.39s1.1-.4,1.71-.4c1.07,0,1.6.46,1.6,1.37,0,.99-.4,1.48-1.2,1.48-.53,0-.94-.19-1.24-.57-.58.08-1.05.33-1.4.76.35.41.61.86.76,1.37.15.51.23.98.23,1.41,0,1.98-.56,3.43-1.69,4.37-1.13.94-2.96,1.41-5.49,1.41-.28,0-.56-.03-.86-.08-.29-.05-.6-.11-.93-.19-1.24.08-1.86.58-1.86,1.52,0,.56.21.94.65,1.16.43.22,1.15.32,2.17.32h4.33c.73,0,1.42.08,2.07.25.65.17,1.21.42,1.69.78.48.36.86.8,1.14,1.35.28.54.42,1.2.42,1.96,0,.71-.16,1.35-.48,1.92-.32.57-.76,1.06-1.33,1.46-.57.4-1.25.72-2.04.93-.79.21-1.65.32-2.59.32h-3.81ZM57.1,31.96c3.15,0,4.73-1.01,4.73-3.04,0-1.34-1.51-2.01-4.54-2.01h-3.17c-.84.15-1.49.39-1.95.72-.46.33-.69.82-.69,1.48,0,.94.4,1.65,1.2,2.13.8.48,1.9.72,3.3.72h1.11ZM55.99,19.91c2.32,0,3.48-1.19,3.48-3.57,0-3.5-1.12-5.24-3.36-5.24s-3.33,1.34-3.33,4.03c0,3.19,1.07,4.79,3.21,4.79Z"/>
        <path class="cls-1" d="M80.52,22.42c-.66,1.42-1.55,2.52-2.66,3.31-1.12.79-2.43,1.18-3.95,1.18-1.27,0-2.38-.22-3.34-.65-.96-.43-1.77-1.01-2.41-1.75-.65-.73-1.13-1.61-1.46-2.62-.33-1.01-.49-2.09-.49-3.23s.18-2.23.53-3.27c.35-1.04.85-1.96,1.5-2.77.65-.81,1.42-1.46,2.34-1.94.91-.48,1.92-.72,3.04-.72.68,0,1.4.08,2.15.25.75.17,1.45.49,2.11.97.66.48,1.23,1.17,1.71,2.07.48.9.8,2.08.95,3.55,0,.3-.04.58-.11.84h-10.11c-.48,0-.72.19-.72.57,0,.91.13,1.77.38,2.58.25.81.61,1.52,1.06,2.13.46.61,1.01,1.08,1.67,1.42.66.34,1.39.51,2.2.51,1.06,0,1.98-.3,2.75-.91.77-.61,1.45-1.32,2.03-2.13l.84.61ZM75.35,16.49c1.04,0,1.56-.53,1.56-1.6-.08-.96-.4-1.8-.97-2.53s-1.4-1.08-2.49-1.08c-.58,0-1.12.13-1.6.4-.48.27-.89.62-1.24,1.06-.34.44-.6.95-.78,1.52-.18.57-.27,1.16-.27,1.77,0,.3.28.46.84.46h4.94Z"/>
        <path class="cls-1" d="M83.1,26.18v-1.14c1.72,0,2.58-.58,2.58-1.75V4.03c0-1.24-.98-1.86-2.93-1.86v-1.03l6.12-1.14v23.45c0,1.06.96,1.6,2.89,1.6v1.14h-8.66Z"/>
        <path class="cls-1" d="M94.43,26.18v-1.14c1.75,0,2.62-.77,2.62-2.32v-7.56c0-2-.77-3-2.32-3v-1.03l5.51-1.18v12.92c0,1.44.96,2.17,2.89,2.17v1.14h-8.7ZM98.38,5.78c-1.34,0-2.01-.77-2.01-2.32,0-1.44.72-2.17,2.17-2.17,1.37,0,2.05.72,2.05,2.17,0,1.55-.74,2.32-2.2,2.32Z"/>
        <path class="cls-1" d="M113.66,33.1v-.99c1.95,0,2.93-.72,2.93-2.17v-5.51c-.61.81-1.34,1.4-2.2,1.77s-1.77.55-2.73.55c-1.36,0-2.49-.28-3.39-.84-.9-.56-1.61-1.22-2.14-1.99-.53-.77-.9-1.59-1.12-2.45-.22-.86-.32-1.6-.32-2.2,0-1.14.16-2.25.47-3.32.32-1.08.79-2.03,1.43-2.87.63-.84,1.43-1.51,2.39-2.03.96-.52,2.1-.78,3.42-.78s2.46.18,3.27.53c.81.36,1.51.85,2.09,1.48l1.41-2.01h.91c-.08.81-.15,1.53-.21,2.17-.06.63-.09,1.17-.09,1.6v15.92c0,1.44.76,2.17,2.28,2.17v.99h-8.4ZM116.58,17.63c0-.68-.06-1.4-.19-2.15-.13-.75-.36-1.43-.68-2.05-.33-.62-.76-1.13-1.29-1.54-.53-.41-1.22-.61-2.05-.61-1.39,0-2.49.54-3.29,1.61-.8,1.08-1.2,2.76-1.2,5.04,0,.96.1,1.86.3,2.68.2.82.5,1.54.89,2.15.39.61.9,1.08,1.52,1.43.62.34,1.35.51,2.18.51,2.53,0,3.8-1.58,3.8-4.75v-2.32Z"/>
        <path class="cls-1" d="M136,26.33c-.08-.18-.11-.52-.11-1.03v-1.44c-.25.43-.53.82-.84,1.16-.3.34-.67.63-1.08.86-.42.23-.91.4-1.46.53-.56.13-1.22.19-1.98.19-.96,0-1.79-.09-2.47-.27-.68-.18-1.24-.49-1.67-.93-.43-.44-.74-1.04-.93-1.79-.19-.75-.29-1.68-.29-2.79v-7.68c0-.86-.82-1.29-2.47-1.29l-.15-.99,5.81-.46v9.69c0,.61.02,1.19.06,1.75.04.56.15,1.05.34,1.46.19.42.5.75.93,1.01.43.25,1.05.38,1.85.38,2.04,0,3.44-1.29,4.2-3.88v-7.68c0-.86-.91-1.29-2.74-1.29l-.15-.99,6.08-.46v12.73c0,.86.86,1.34,2.58,1.44l.3,1.03-5.81.72Z"/>
        <path class="cls-1" d="M157.01,22.42c-.66,1.42-1.55,2.52-2.66,3.31-1.12.79-2.43,1.18-3.95,1.18-1.27,0-2.38-.22-3.34-.65-.96-.43-1.77-1.01-2.41-1.75-.65-.73-1.13-1.61-1.46-2.62-.33-1.01-.49-2.09-.49-3.23s.18-2.23.53-3.27c.35-1.04.85-1.96,1.5-2.77.65-.81,1.42-1.46,2.34-1.94.91-.48,1.92-.72,3.04-.72.68,0,1.4.08,2.15.25.75.17,1.45.49,2.11.97.66.48,1.23,1.17,1.71,2.07.48.9.8,2.08.95,3.55,0,.3-.04.58-.11.84h-10.11c-.48,0-.72.19-.72.57,0,.91.13,1.77.38,2.58.25.81.61,1.52,1.06,2.13.46.61,1.01,1.08,1.67,1.42.66.34,1.39.51,2.2.51,1.06,0,1.98-.3,2.75-.91.77-.61,1.45-1.32,2.03-2.13l.84.61ZM151.85,16.49c1.04,0,1.56-.53,1.56-1.6-.08-.96-.4-1.8-.97-2.53s-1.4-1.08-2.49-1.08c-.58,0-1.12.13-1.6.4-.48.27-.89.62-1.24,1.06-.34.44-.6.95-.78,1.52-.18.57-.27,1.16-.27,1.77,0,.3.28.46.84.46h4.94Z"/>
      </g>
      <g>
        <path class="cls-1" d="M185.21,28.53l-11.93-15.2v10.88c0,2.14.93,3.21,2.78,3.21v.81h-6.48v-.81c1.51,0,2.27-1.07,2.27-3.22v-11.93c0-.76-.89-1.14-2.67-1.14v-.81h4.94l10.56,13.47v-9.69c0-1.98-.92-2.98-2.75-2.98v-.81h6.48v.81c-1.66,0-2.48.99-2.48,2.97v14.22l-.7.19Z"/>
        <path class="cls-1" d="M200.74,27.1c-.27.95-.99,1.43-2.16,1.43-1.03,0-1.67-.58-1.94-1.76-1.3,1.17-2.67,1.76-4.13,1.76-.95,0-1.66-.2-2.11-.61-.45-.4-.68-1.05-.68-1.93,0-2.21,2.23-3.73,6.7-4.54v-1.05c0-1.76-.69-2.65-2.07-2.65-.6,0-1.11.1-1.55.3-.44.2-.65.58-.65,1.13.11.07.19.18.24.34.05.15.08.31.08.47,0,.68-.41,1.03-1.24,1.03-.31,0-.57-.1-.78-.3-.22-.2-.32-.5-.32-.92s.13-.81.38-1.19c.25-.38.58-.71.99-.99.41-.28.88-.5,1.41-.67.53-.17,1.08-.26,1.64-.26,1.5,0,2.56.28,3.2.84.63.56.95,1.48.95,2.78v5.86c0,.67.31,1,.92,1,.29,0,.57-.1.84-.3l.3.22ZM196.53,22.37c-.56.05-1.11.15-1.66.28-.54.13-1.03.32-1.45.57-.43.24-.77.55-1.03.93-.26.38-.39.85-.39,1.4,0,1.17.57,1.76,1.71,1.76.51,0,.93-.08,1.26-.23.33-.15.61-.36.82-.61.21-.25.37-.53.49-.84.12-.31.2-.61.26-.92v-2.35Z"/>
        <path class="cls-1" d="M201.79,28.23v-.81c1.24,0,1.86-.55,1.86-1.65v-5.37c0-1.42-.55-2.13-1.65-2.13v-.73l3.92-.84v9.18c0,1.03.68,1.54,2.05,1.54v.81h-6.18ZM204.6,13.73c-.95,0-1.43-.55-1.43-1.65,0-1.03.51-1.54,1.54-1.54.97,0,1.46.51,1.46,1.54,0,1.1-.52,1.65-1.57,1.65Z"/>
        <path class="cls-1" d="M209.35,28.23v-.81c1.22,0,1.84-.41,1.84-1.24v-13.69c0-.88-.69-1.32-2.08-1.32v-.73l4.35-.81v16.66c0,.76.68,1.13,2.05,1.13v.81h-6.16Z"/>
      </g>
    </g>
  </g>
</svg>