<?xml version="1.0" encoding="UTF-8"?>
<svg xmlns="http://www.w3.org/2000/svg" viewBox="0 0 90.16 77.64">
  <defs>
    <style>
      .cls-1 {
        isolation: isolate;
      }

      .cls-2 {
        fill: #ff00b7;
        stroke-width: 0px;
      }

      .cls-3 {
        mix-blend-mode: multiply;
      }
    </style>
  </defs>
  <g class="cls-1">
    <g id="_レイヤー_2" data-name="レイヤー 2">
      <g id="_レイヤー_1-2" data-name="レイヤー 1">
        <g class="cls-3">
          <path class="cls-2" d="M0,63.63c6.01-.89,10.57-3.97,13.69-9.24,3.11-5.27,4.67-11.33,4.67-18.18,0-.6-.03-1.19-.08-1.79-.05-.6-.19-1.24-.41-1.94H0V0h35.08v29.95c0,11.82-2.73,22.38-8.2,31.67-5.46,9.29-14.43,14.63-26.88,16.02v-14.01ZM55.24,63.63c7.54-1.29,12.84-6.26,15.9-14.9,1.53-4.27,2.29-8.49,2.29-12.67,0-.5-.03-.92-.08-1.27-.05-.35-.14-1.12-.25-2.31h-17.87V0h34.92v29.95c0,14.7-3.22,26.03-9.67,33.98-6.45,7.95-14.86,12.52-25.25,13.71v-14.01Z"/>
        </g>
      </g>
    </g>
  </g>
</svg>