<?xml version="1.0" encoding="UTF-8"?>
<svg id="_レイヤー_2" data-name="レイヤー 2" xmlns="http://www.w3.org/2000/svg" viewBox="0 0 47.35 35.94">
  <defs>
    <style>
      .cls-1 {
        fill: #ede8e1;
      }

      .cls-1, .cls-2 {
        stroke-width: 0px;
      }

      .cls-2 {
        fill: #595757;
      }
    </style>
  </defs>
  <g id="_レイヤー_1-2" data-name="レイヤー 1">
    <g>
      <path class="cls-1" d="M23.62,29.05c6.72,0,13.45,0,20.17,0,1.61,0,2.01-.38,2.19-1.97.03-.28.04-.55.04-.83,0-2.75,0-5.49,0-8.24,0-1.01-.32-1.84-1.05-2.57-.71-.71-1.49-1.43-1.98-2.29-1.97-3.52-3.83-7.11-5.74-10.67C36.4.88,35.03.03,33.22.02c-6.38-.03-12.77-.03-19.15,0-1.81,0-3.17.89-4.03,2.49-1.66,3.06-3.35,6.11-4.93,9.21-.71,1.4-1.53,2.66-2.71,3.69-.83.72-1.12,1.64-1.11,2.72.02,2.65,0,5.31.01,7.96,0,.52.09,1.04.12,1.56.06.86.62,1.24,1.38,1.36.39.06.8.04,1.2.04,6.54,0,13.08,0,19.62,0ZM3.68,30.11c0,1.05-.03,2.06,0,3.06.05,1.36,1.12,2.54,2.44,2.73,1.55.23,3.04-.49,3.36-1.91.28-1.25.22-2.58.31-3.89H3.68ZM37.58,30.1c0,1.09-.05,2.07.01,3.05.08,1.47,1.22,2.63,2.63,2.77,1.58.16,2.95-.61,3.24-2.09.24-1.2.15-2.47.21-3.73h-6.09ZM5.42,8.57c-1.16,0-2.18-.04-3.19,0C.89,8.64-.12,9.78.01,11.02c.14,1.3,1.38,2.24,2.71,2.04.19-.03.43-.15.51-.3.72-1.35,1.42-2.71,2.18-4.19Z"/>
      <path class="cls-2" d="M47.35,11.3c-.49,1.1-1.26,1.81-2.53,1.75-.27-.01-.65-.14-.76-.33-.74-1.34-1.41-2.71-2.18-4.21,2.05.29,4.38-.8,5.48,1.86v.93Z"/>
      <path class="cls-2" d="M23.62,29.05c-6.54,0-13.08,0-19.62,0-.4,0-.81.03-1.2-.04-.76-.12-1.32-.5-1.38-1.36-.04-.52-.12-1.04-.12-1.56-.01-2.65.01-5.31-.01-7.96,0-1.08.28-2,1.11-2.72,1.18-1.03,2-2.3,2.71-3.69,1.58-3.1,3.28-6.14,4.93-9.21C10.9.91,12.25.03,14.07.02c6.38-.03,12.77-.03,19.15,0,1.81,0,3.18.87,4.04,2.47,1.91,3.56,3.77,7.14,5.74,10.67.48.86,1.26,1.58,1.98,2.29.73.73,1.05,1.55,1.05,2.57-.01,2.75,0,5.49,0,8.24,0,.28,0,.56-.04.83-.18,1.59-.58,1.96-2.19,1.97-6.72,0-13.45,0-20.17,0ZM23.62,12.25c4.41,0,8.82,0,13.23,0,1.63,0,2.15-.89,1.36-2.35-1.16-2.14-2.37-4.26-3.51-6.41-.61-1.13-1.55-1.66-2.77-1.66-5.52-.02-11.04-.02-16.57,0-1.23,0-2.16.55-2.77,1.68-1.15,2.15-2.35,4.27-3.51,6.41-.79,1.45-.26,2.33,1.39,2.33,4.38,0,8.76,0,13.14,0ZM23.63,26.89c1.48,0,2.95-.02,4.43,0,.61.01.94-.21.94-.84,0-1.17,0-2.34,0-3.51,0-.58-.25-.91-.89-.91-2.95.01-5.91.01-8.86,0-.66,0-.95.3-.95.95,0,1.11.02,2.22,0,3.32-.01.71.29.99,1,.98,1.45-.03,2.89,0,4.34,0ZM35.43,22.04c.01,1.91,1.66,3.53,3.56,3.49,1.88-.04,3.42-1.63,3.43-3.52,0-1.97-1.54-3.51-3.51-3.5-1.98.01-3.49,1.55-3.48,3.53ZM11.88,21.95c-.02-1.96-1.59-3.48-3.56-3.45-1.94.03-3.43,1.55-3.43,3.49,0,1.94,1.61,3.55,3.51,3.53,1.9-.02,3.49-1.65,3.47-3.58Z"/>
      <path class="cls-2" d="M3.68,30.11h6.12c-.09,1.31-.03,2.64-.31,3.89-.32,1.41-1.81,2.14-3.36,1.91-1.31-.2-2.39-1.37-2.44-2.73-.04-1,0-2.01,0-3.06Z"/>
      <path class="cls-2" d="M37.58,30.1h6.09c-.06,1.26.03,2.53-.21,3.73-.29,1.48-1.66,2.25-3.24,2.09-1.41-.14-2.54-1.3-2.63-2.77-.06-.98-.01-1.97-.01-3.05Z"/>
      <path class="cls-2" d="M5.42,8.57c-.76,1.48-1.46,2.84-2.18,4.19-.08.15-.33.27-.51.3-1.33.2-2.57-.74-2.71-2.04-.14-1.24.87-2.38,2.22-2.44,1.01-.05,2.03,0,3.19,0Z"/>
      <path class="cls-1" d="M11.88,21.95c.02,1.93-1.57,3.56-3.47,3.58-1.91.02-3.51-1.6-3.51-3.53,0-1.94,1.49-3.46,3.43-3.49,1.97-.03,3.55,1.49,3.56,3.45Z"/>
    </g>
  </g>
</svg>