<?xml version="1.0" encoding="UTF-8"?>
<svg id="_レイヤー_2" data-name="レイヤー 2" xmlns="http://www.w3.org/2000/svg" viewBox="0 0 47.36 45.31">
  <defs>
    <style>
      .cls-1 {
        fill: #595757;
        stroke-width: 0px;
      }
    </style>
  </defs>
  <g id="_レイヤー_1-2" data-name="レイヤー 1">
    <g>
      <path class="cls-1" d="M47.36,10.99c-.6.64-1.18,1.31-1.82,1.91-.69.64-1.16,1.33-1.36,2.31-1.69,8.09-7.51,14.89-16.31,16.59-9.67,1.87-18.71-2.52-22.98-11.49-.8-1.68-1.18-3.55-1.82-5.31-.23-.64-.61-1.23-.99-1.79-.2-.3-.55-.49-.83-.73-1.32-1.14-1.51-1.84-.95-3.5.16-.47.33-.93.53-1.38.84-1.86,1.04-1.91,3.08-1.88.66.01,1.44-.23,1.97-.62C9.93,2.12,14.53.75,19.45.25c5.62-.58,11.16-.2,16.45,1.89,1.73.68,3.35,1.68,4.95,2.64,1,.61,1.95,1.14,3.18.9.98-.19,1.68.25,2.07,1.15.43,1.01.83,2.04,1.25,3.05v1.11ZM33.23,3.72c-1.32-.32-2.42-.55-3.51-.85-.64-.17-1.08,0-1.55.47-3.81,3.69-7.66,7.34-11.46,11.04-1.14,1.11-2.15,2.37-3.21,3.55.88.24,2,.53,3.11.87.57.17.95.05,1.38-.37,3.11-3.03,6.26-6.04,9.39-9.05,1.89-1.81,3.77-3.63,5.86-5.65ZM39.15,6.88c-1.28-.81-2.4-1.52-3.52-2.23-5.13,4.93-10.16,9.76-15.19,14.59.03.09.06.19.09.28,1.74,0,3.48.02,5.22-.02.23,0,.47-.27.66-.45,3.1-2.96,6.19-5.93,9.28-8.89,1.09-1.04,2.18-2.08,3.45-3.28ZM7.95,14.51c.78.61,1.46,1.12,2.11,1.68.59.5,1,.4,1.55-.13,4.49-4.35,9.01-8.67,13.52-13.01.16-.15.28-.33.44-.54-2.97-.44-5.69-.4-7.58,2.3-.17.25-.44.43-.66.64-3.08,2.97-6.16,5.94-9.38,9.05ZM30.1,18.74c.02.09.04.19.07.28,1.43-.43,2.88-.79,4.28-1.31,2.32-.85,4.41-2.05,5.83-4.18,1-1.5,1.04-3.43.08-4.64-3.42,3.28-6.84,6.56-10.25,9.84ZM16.11,3.44c-2.37.43-4.52,1.27-6.46,2.62-1.35.93-2.45,2.06-2.92,3.69-.23.82-.29,1.65.11,2.59,3.17-3.04,6.22-5.97,9.27-8.9Z"/>
      <path class="cls-1" d="M12.32,30.84c1.39.5,2.63.95,3.95,1.44-.51,1.32-1.02,2.63-1.57,4.04h17.9c-.51-1.3-1-2.57-1.52-3.89,1.27-.59,2.51-1.17,3.81-1.78.11.26.23.51.31.76,1.22,3.61,2.45,7.23,3.66,10.84.11.32.2.65.25.98.12.81-.39,1.71-1.08,1.96-.8.29-1.72,0-2.12-.85-.61-1.28-1.17-2.58-1.62-3.92-.28-.83-.72-1.03-1.55-1.03-6.11.04-12.21.03-18.32,0-.78,0-1.15.23-1.4.97-.4,1.19-.91,2.35-1.41,3.52-.5,1.19-1.33,1.64-2.3,1.32-.91-.3-1.4-1.31-1.03-2.45,1.3-3.97,2.66-7.92,4.02-11.92Z"/>
    </g>
  </g>
</svg>