<?xml version="1.0" encoding="UTF-8"?>
<svg id="_レイヤー_2" data-name="レイヤー 2" xmlns="http://www.w3.org/2000/svg" viewBox="0 0 44.22 45.45">
  <defs>
    <style>
      .cls-1 {
        fill: #595757;
        stroke-width: 0px;
      }
    </style>
  </defs>
  <g id="_レイヤー_1-2" data-name="レイヤー 1">
    <g>
      <path class="cls-1" d="M38.89,45.45H5.34c-.05-.03-.1-.06-.15-.07C2,44.74,0,42.32,0,39.07c0-9.7.02-19.41,0-29.11C0,6.39,2.91,3,7.82,3.72c0,.97,0,1.94,0,2.92,0,2.49,1.88,4.53,4.4,4.79,2.33.24,4.6-1.42,5.1-3.76.09-.43.12-.88.13-1.32.02-.88,0-1.77,0-2.67h9.32c0,.18,0,.34,0,.5,0,.83-.01,1.66,0,2.49.04,2.5,1.86,4.46,4.39,4.76,2.28.27,4.61-1.34,5.09-3.7.22-1.08.11-2.24.15-3.36,0-.23,0-.46,0-.72.6,0,1.13,0,1.66,0,3.38,0,6.15,2.78,6.15,6.16,0,9.82,0,19.65,0,29.47,0,2.61-1.64,4.93-4.1,5.81-.4.14-.81.24-1.22.36ZM3.04,13.8c0,.23,0,.42,0,.6,0,8.21,0,16.42,0,24.63,0,2.07,1.34,3.4,3.42,3.4,4.56,0,9.11,0,13.67,0,5.89,0,11.77,0,17.66,0,2.05,0,3.4-1.34,3.4-3.38,0-8.22,0-16.45,0-24.67v-.58H3.04Z"/>
      <path class="cls-1" d="M13.24,0c.13.06.26.12.39.18.99.46,1.55,1.22,1.57,2.32.02,1.37.01,2.75,0,4.13,0,1.42-1.07,2.51-2.51,2.59-1.3.07-2.55-.97-2.62-2.32-.08-1.52-.07-3.05,0-4.57.05-1.04.67-1.77,1.65-2.17C11.84.1,11.96.05,12.08,0c.38,0,.77,0,1.15,0Z"/>
      <path class="cls-1" d="M32.15,0c.42.24.88.42,1.24.73.53.45.78,1.08.79,1.77.02,1.39.03,2.78,0,4.17-.03,1.44-1.22,2.57-2.6,2.55-1.44-.03-2.55-1.17-2.55-2.63,0-1.29,0-2.57,0-3.86,0-1.32.59-2.16,1.83-2.63.05-.02.09-.06.14-.09.38,0,.77,0,1.15,0Z"/>
      <path class="cls-1" d="M15.72,17.9h4.99v5.02h-4.99v-5.02Z"/>
      <path class="cls-1" d="M23.5,22.91v-4.98h5.01v4.98h-5.01Z"/>
      <path class="cls-1" d="M20.72,25.74v4.99h-5.02v-4.99h5.02Z"/>
      <path class="cls-1" d="M23.52,25.72h5v5h-5v-5Z"/>
      <path class="cls-1" d="M15.69,38.53v-4.98h5.01v4.98h-5.01Z"/>
      <path class="cls-1" d="M23.51,38.54v-4.99h4.99v4.99h-4.99Z"/>
      <path class="cls-1" d="M7.92,17.91h4.98v5h-4.98v-5Z"/>
      <path class="cls-1" d="M31.33,17.91h4.97v5h-4.97v-5Z"/>
      <path class="cls-1" d="M12.91,25.74v4.98h-4.98v-4.98h4.98Z"/>
      <path class="cls-1" d="M36.31,30.73h-4.97v-5.01h4.97v5.01Z"/>
      <path class="cls-1" d="M7.91,33.53h4.97v5.01h-4.97v-5.01Z"/>
      <path class="cls-1" d="M36.31,33.54v5h-4.97v-5h4.97Z"/>
    </g>
  </g>
</svg>