<?xml version="1.0" encoding="UTF-8"?>
<svg id="_レイヤー_2" data-name="レイヤー 2" xmlns="http://www.w3.org/2000/svg" viewBox="0 0 66.29 66.29">
  <defs>
    <style>
      .cls-1 {
        fill: #595757;
      }
    </style>
  </defs>
  <g id="_レイヤー_1-2" data-name="レイヤー 1">
    <g>
      <path class="cls-1" d="m0,60.46V27.71c.42-1.67,1.22-3.09,2.6-4.19,2.07-1.66,4.09-3.38,6.14-5.05.37-.3.53-.6.52-1.09-.02-2.78-.01-5.57-.01-8.35,0-.25,0-.5,0-.8h.86c3.41,0,6.82-.01,10.22.01.53,0,.94-.14,1.34-.48,2.38-2,4.78-3.96,7.16-5.95.92-.77,1.91-1.39,3.11-1.63.22-.04.44-.11.66-.17.35,0,.69,0,1.04,0,.05.03.1.09.15.1,1.34.14,2.46.72,3.47,1.58,2.41,2.02,4.85,4.01,7.26,6.04.44.37.88.53,1.46.52,3.41-.02,6.82-.01,10.22-.01.25,0,.5,0,.8,0v.8c0,2.78.01,5.57-.01,8.35,0,.48.15.79.52,1.09,2.07,1.69,4.12,3.41,6.19,5.1,1.27,1.03,2.12,2.31,2.45,3.92.02.08.07.15.11.23v32.75c-.05.13-.11.26-.15.4-.7,2.59-2.31,4.32-4.89,5.11-.47.14-.95.22-1.43.32H6.34c-.11-.04-.23-.1-.34-.12-2.84-.4-5.08-2.39-5.82-5.18-.05-.18-.12-.35-.18-.52ZM10.22,22.18c-1.82,1.51-3.52,2.94-5.25,4.34-.82.66-1.2,1.48-1.2,2.52,0,9.99,0,19.98.01,29.96,0,.42.06.86.19,1.27.45,1.42,1.62,2.15,3.38,2.15,17.19,0,34.39,0,51.58,0,.15,0,.3,0,.45,0,1.8-.07,3.12-1.4,3.13-3.21.01-10.12,0-20.23,0-30.35,0-.91-.37-1.67-1.09-2.25-.67-.54-1.33-1.1-1.99-1.65-1.17-.97-2.35-1.94-3.6-2.97v7.77c1.15-.4,2.27-.79,3.45-1.2.31.88.6,1.7.9,2.55-.2.08-.34.14-.48.19-6.11,2.16-12.22,4.33-18.33,6.48-.28.1-.59.13-.88.13-4.96,0-9.92,0-14.88,0-.34,0-.69-.05-1.01-.16-5.73-2.02-11.45-4.05-17.17-6.07-.5-.18-.99-.37-1.54-.57.32-.88.61-1.7.91-2.55,1.18.41,2.28.79,3.42,1.19v-7.58Zm2.75-10.14c0,2.89,0,5.69,0,8.48,0,3.19.01,6.39-.01,9.58,0,.49.14.7.61.87,3.82,1.33,7.63,2.69,11.45,4.03.34.12.71.18,1.07.18,4.62.01,9.23.01,13.85,0,.38,0,.77-.07,1.13-.19,3.82-1.34,7.63-2.7,11.45-4.03.45-.16.57-.37.57-.82-.01-5.82,0-11.65,0-17.47v-.56c-.12-.03-.18-.05-.24-.06-3.41-.11-6.83-.12-10.24-.17-7.03-.1-14.08-.36-21.11.16-.62.05-1.25,0-1.88,0h-6.65Zm13.14-3.01h14.08c-2.01-1.65-3.89-3.23-5.8-4.76-.72-.57-1.75-.58-2.47,0-1.92,1.53-3.8,3.11-5.8,4.76Z"/>
      <path class="cls-1" d="m32.68,13.73c-5.44,0-9.94,4.46-9.95,9.87-.01,5.53,4.39,10.04,9.81,10.05,5.63.01,10.08-4.38,10.09-9.94,0-5.5-4.46-9.98-9.95-9.98Zm3.91,9.12c-.68,0-1.34,0-1.99,0-.88,0-1.01.13-1.01,1.02,0,.15,0,.3,0,.55h2.99v1.54h-2.99v2.27h-1.83v-2.27h-2.97v-1.52h2.97c0-.35,0-.61,0-.88-.02-.49-.23-.76-.78-.73-.72.03-1.44,0-2.19,0v-1.27h1.84c-.54-.85-1.03-1.61-1.51-2.38.97-.32,1.43-.17,1.94.63.53.82,1.06,1.65,1.63,2.53.59-.92,1.17-1.74,1.66-2.61.29-.51.64-.75,1.22-.66.2.03.41,0,.75,0-.54.85-1.03,1.62-1.57,2.47h1.84v1.29Z"/>
    </g>
  </g>
</svg>