<?xml version="1.0" encoding="UTF-8"?>
<svg id="_レイヤー_2" data-name="レイヤー 2" xmlns="http://www.w3.org/2000/svg" viewBox="0 0 47.35 37.92">
  <defs>
    <style>
      .cls-1 {
        fill: #595757;
        stroke-width: 0px;
      }
    </style>
  </defs>
  <g id="_レイヤー_1-2" data-name="レイヤー 1">
    <g>
      <path class="cls-1" d="M0,20.07c.38-1.3.75-2.65,1.88-3.5.75-.56,1.67-.88,2.47-1.37.32-.19.7-.49.8-.82C7.28,6.84,12.11,2.02,19.76.41c10.11-2.13,19.62,4.16,22.08,13.76.15.6.39.88,1.05,1.02,2.6.55,4.42,2.83,4.45,5.42.03,2.43-1.72,4.76-4.11,5.43-.35.1-.74.2-1.09.16-.98-.11-1.35.43-1.74,1.22-5.33,10.89-19.44,13.91-28.83,6.22-2.22-1.81-3.91-3.99-5.15-6.55-.17-.35-.6-.77-.94-.8-2.93-.28-4.64-1.89-5.37-4.67-.02-.09-.09-.16-.13-.24,0-.43,0-.86,0-1.3ZM7.61,23.38c2.66,7.32,7.63,11.77,15.44,11.95,8.37.2,13.68-4.35,16.5-12.15,1.72.81,3.37.94,4.65-.73.76-.99.85-2.11.25-3.22-.99-1.8-2.63-1.89-4.46-1.46-.34-3.4-1.48-6.41-3.55-8.99-2.05-2.56-4.6-4.46-7.89-5.44.13.65.26,1.16.33,1.66.43,2.97-.49,5.67-1.7,8.3-.32.7-.97.7-1.44,0-.71-1.04-1.7-1.67-2.83-2.15-1.19-.5-2.39-1-3.57-1.53-1.99-.89-3.59-2.16-4.12-4.43-.02-.1-.09-.19-.15-.33-.22.13-.38.22-.53.32-4.13,2.76-6.53,6.64-7.3,11.51-.14.86-.46.98-1.19.89-1.37-.17-2.41.41-3.08,1.59-.64,1.13-.55,2.27.24,3.29.8,1.03,1.85,1.5,3.18,1.17.38-.1.78-.17,1.22-.27ZM26.71,10.97c.28-1.41.74-2.74.76-4.08.02-1.18-.4-2.39-.71-3.56-.07-.26-.46-.6-.71-.6-1.52-.06-3.04-.03-4.55-.03-.52,2.48,2.59,6.7,5.21,8.27ZM22.34,9.38c.06-.07.11-.14.17-.21-1.44-1.81-2.43-3.82-2.65-6.22-.61.17-1.12.28-1.61.44-1.87.6-2.12,1.42-.9,3.02.31.41.69.82,1.13,1.06,1.26.68,2.56,1.28,3.85,1.91Z"/>
      <path class="cls-1" d="M24.34,29.74c-2.9.16-5.03-.88-6.71-2.9-.37-.45-.51-.97.01-1.38.52-.41.94-.15,1.34.29,2.08,2.26,4.38,2.9,7.04,1.78.87-.36,1.59-1.11,2.32-1.75.45-.39.87-.79,1.42-.3.59.53.26,1.03-.15,1.52-1.45,1.71-3.26,2.68-5.27,2.74Z"/>
      <path class="cls-1" d="M18.88,19.6c0,.88-.76,1.67-1.63,1.69-.85.02-1.66-.76-1.69-1.64-.03-.92.78-1.76,1.67-1.74.87.01,1.64.8,1.64,1.68Z"/>
      <path class="cls-1" d="M30.11,21.29c-.89-.05-1.61-.84-1.59-1.73.02-.93.88-1.73,1.76-1.64.89.08,1.59.88,1.55,1.77-.05.87-.88,1.65-1.72,1.6Z"/>
    </g>
  </g>
</svg>