<?xml version="1.0" encoding="UTF-8"?>
<svg id="_レイヤー_2" data-name="レイヤー 2" xmlns="http://www.w3.org/2000/svg" viewBox="0 0 44.59 41.8">
  <defs>
    <style>
      .cls-1 {
        fill: #595757;
        stroke-width: 0px;
      }
    </style>
  </defs>
  <g id="_レイヤー_1-2" data-name="レイヤー 1">
    <g>
      <path class="cls-1" d="M44.59,12.72c-1.18,2.45-2.36,4.9-3.53,7.36-1.49,3.15-2.97,6.3-4.42,9.47-.37.8-.88,1.11-1.75,1.11-8.57-.02-17.14-.01-25.71-.01-1.27,0-1.64-.37-1.66-1.67-.04-2.25.14-2.44,2.38-2.44,7.38,0,14.76-.02,22.13.02,1.05,0,1.65-.38,2.09-1.32,2.09-4.53,4.23-9.04,6.35-13.56.59-1.26,1-1.43,2.24-.78.67.35,1.25.87,1.87,1.31v.52Z"/>
      <path class="cls-1" d="M13.45,0c.18.56.33,1.02.48,1.5,8.28-1.18,14.66,1.69,19.2,8.86-5.25,1.28-10.37,2.53-15.61,3.8.91,3.8,1.8,7.56,2.72,11.42-.52,0-.93-.04-1.32,0-.56.06-.73-.19-.86-.7-.77-3.27-1.58-6.53-2.38-9.79-.03-.11-.07-.22-.15-.45-5.15,1.25-10.28,2.49-15.52,3.76C.69,10.14,4.85,4.7,12.53,1.9c-.11-.48-.2-.92-.33-1.47.38-.13.77-.26,1.24-.42ZM14.38,3.4c.8,3.05,1.57,6.02,2.37,9.07,2.11-.51,4.14-1.01,6.25-1.52-1.4-2.89-2.99-5.41-5.7-7.03-.85-.51-1.77-.87-2.93-.52ZM9.27,14.32c1.8-.45,3.58-.93,5.37-1.34.59-.13.76-.29.58-.92-.51-1.75-.93-3.52-1.39-5.28-.27-1.02-.54-2.04-.81-3.07-2.81,1.09-4.24,6.53-3.75,10.6ZM30.05,9.24c-2.13-3.4-7.28-6.1-11.7-6.16.63.56,1.27,1.09,1.86,1.68,1.55,1.53,2.7,3.33,3.64,5.28.12.24.46.59.62.56,1.86-.41,3.7-.89,5.58-1.35ZM2.11,16.05c1.93-.48,3.72-.9,5.5-1.39.18-.05.35-.46.38-.72.14-1.56.12-3.14.38-4.67.24-1.36.78-2.68,1.23-4.12-4.02,2.59-6.56,6.08-7.49,10.89Z"/>
      <path class="cls-1" d="M37.94,29.92c1.5,3.21,2.9,6.14,4.24,9.09.48,1.06.02,2-1.05,2.5-1.13.53-2.09.34-2.6-.71-1.41-2.86-2.74-5.75-4.2-8.85,1.67.18,2.95-.23,3.62-2.04Z"/>
      <path class="cls-1" d="M13.08,31.99c-1.42,3.01-2.73,5.85-4.09,8.67-.56,1.15-1.53,1.42-2.7.86-1.11-.53-1.5-1.44-.99-2.57.97-2.17,1.99-4.31,3.01-6.46.1-.2.34-.47.52-.48,1.35-.04,2.71-.02,4.23-.02Z"/>
    </g>
  </g>
</svg>