<?xml version="1.0" encoding="UTF-8"?>
<svg id="_レイヤー_2" data-name="レイヤー 2" xmlns="http://www.w3.org/2000/svg" viewBox="0 0 43.03 34.63">
  <defs>
    <style>
      .cls-1 {
        fill: #ede8e1;
      }

      .cls-1, .cls-2 {
        stroke-width: 0px;
      }

      .cls-2 {
        fill: #595757;
      }
    </style>
  </defs>
  <g id="_レイヤー_1-2" data-name="レイヤー 1">
    <g>
      <path class="cls-2" d="M43.03,12.4v22.23h-17.73v-8.05h-7.7v7.98H0V12.42c.37,0,.7,0,1.03,0,8.5,0,17,0,25.51,0,5.5,0,11-.01,16.5-.02ZM8.77,20.97v-3.7h-3.36c0,1.11-.02,2.16.02,3.21,0,.17.31.46.49.47.92.05,1.84.02,2.85.02ZM19.8,20.86h3.33v-3.58h-3.33v3.58ZM34.19,17.25v3.65h3.29v-3.65h-3.29ZM5.41,26.69c0,1.14-.02,2.22.02,3.3,0,.14.26.38.4.39.97.03,1.93.02,2.94.02v-3.7h-3.36ZM34.13,30.34h3.37v-3.7c-1,0-1.94-.03-2.88.02-.17,0-.46.31-.47.49-.04,1.03-.02,2.06-.02,3.19Z"/>
      <path class="cls-1" d="M8.77,20.97c-1.01,0-1.93.03-2.85-.02-.18,0-.48-.3-.49-.47-.05-1.05-.02-2.1-.02-3.21h3.36v3.7Z"/>
      <path class="cls-1" d="M19.8,20.86v-3.58h3.33v3.58h-3.33Z"/>
      <path class="cls-1" d="M34.19,17.25h3.29v3.65h-3.29v-3.65Z"/>
      <path class="cls-1" d="M5.41,26.69h3.36v3.7c-1.01,0-1.98.02-2.94-.02-.14,0-.4-.25-.4-.39-.03-1.08-.02-2.16-.02-3.3Z"/>
      <path class="cls-1" d="M34.13,30.34c0-1.13-.02-2.16.02-3.19,0-.18.3-.48.47-.49.94-.05,1.88-.02,2.88-.02v3.7h-3.37Z"/>
      <path class="cls-2" d="M6.61,10.23V.01h6.38c0,.34,0,.64,0,.94,0,2.8-.02,5.61.02,8.41.01.72-.23.9-.91.89-1.81-.04-3.63-.01-5.49-.01Z"/>
      <path class="cls-2" d="M29.96,0h6.36v10.22c-2.02,0-4,0-5.98-.02-.13,0-.36-.27-.37-.42-.02-3.24-.02-6.49-.02-9.78Z"/>
      <path class="cls-2" d="M20.7,10.23c-1.97,0-3.87.01-5.77-.02-.18,0-.51-.34-.51-.53-.03-3.19-.02-6.38-.02-9.65h6.31v10.2Z"/>
      <path class="cls-2" d="M28.5,10.19h-6.26V.03h6.26v10.16Z"/>
      <path class="cls-2" d="M.05,0h5.05c.02.29.06.56.06.83,0,2.83-.02,5.66.02,8.49.01.76-.24.96-.96.93-1.17-.05-2.35.01-3.53-.04-.22,0-.6-.34-.61-.53C.04,6.49.05,3.29.05,0Z"/>
      <path class="cls-2" d="M37.8,0h5.03c.03.28.07.52.07.76,0,2.86-.02,5.72.02,8.58,0,.69-.19.94-.9.91-1.17-.05-2.35.01-3.53-.04-.24,0-.66-.3-.66-.47-.04-3.22-.03-6.44-.03-9.74Z"/>
    </g>
  </g>
</svg>