<?xml version="1.0" encoding="UTF-8"?>
<svg id="_レイヤー_2" data-name="レイヤー 2" xmlns="http://www.w3.org/2000/svg" viewBox="0 0 33.07 42.08">
  <defs>
    <style>
      .cls-1 {
        fill: #595757;
        stroke-width: 0px;
      }
    </style>
  </defs>
  <g id="_レイヤー_1-2" data-name="レイヤー 1">
    <path class="cls-1" d="M19.31,0c.66.37,1.31.75,1.98,1.09.16.08.42.05.59-.02,3.07-1.33,5.35-.07,5.87,3.26.03.19.07.37.12.62.55-.03,1.09-.13,1.62-.08,2.17.2,3.57,1.84,3.57,4.17,0,6.58.01,13.16,0,19.74,0,1.85-.33,3.65-1.05,5.37-1.93,4.64-5.53,7.1-10.38,7.77-3.91.54-7.6-.18-10.82-2.57-2.25-1.67-4.05-3.79-5.38-6.25C3.25,29.06,1.53,24.82.21,20.44c-.59-1.97.09-3.68,1.7-4.62,1.57-.92,3.54-.61,4.94.86.62.65,1.1,1.43,1.64,2.15.21.28.41.56.74,1.02v-5.23c-.78.39-1.52.76-2.36,1.18-.78-1.66-1.56-3.3-2.37-5.02.59-.09,1.12-.17,1.74-.27v-4.66c1.06.73,1.97,1.36,3,2.07.06-1.49.48-2.68,1.64-3.51,1.16-.84,2.44-.85,3.79-.51.08-.29.17-.52.21-.76C15.22,1.39,16.46.55,17.99,0,18.43,0,18.87,0,19.31,0ZM25.8,20.35c0-1.05,0-2,0-2.96,0-4.3,0-8.61,0-12.91,0-1.16-.69-1.95-1.72-2.03-1.07-.09-1.88.61-2.06,1.78-.05.35-.06.71-.06,1.06,0,4.69,0,9.38,0,14.07v.98h-1.42v-1.01c0-4.91,0-9.82,0-14.72,0-.33,0-.66-.04-.98-.12-.91-.87-1.6-1.78-1.65-.84-.05-1.69.54-1.9,1.4-.1.39-.12.81-.12,1.22,0,4.91,0,9.82,0,14.72,0,.34-.03.69-.04,1.01h-1.6c0-1.18.02-2.31-.02-3.42,0-.21-.22-.58-.35-.59-1.14-.05-2.28-.03-3.47-.03,0,.42,0,.72,0,1.02,0,2.39.01,4.77-.02,7.16,0,.28-.17.67-.39.8-.17.1-.64-.04-.79-.22-.59-.71-1.17-1.44-1.64-2.23-.78-1.29-1.41-2.66-2.23-3.92-.38-.59-.98-1.15-1.61-1.46-1.3-.65-2.74.47-2.59,1.92.03.3.08.6.19.88,1.33,3.38,2.63,6.78,4.03,10.14.85,2.04,2.18,3.78,3.62,5.46,4.56,5.33,12.22,5.26,16.52,2.42,3.45-2.28,4.78-5.68,4.82-9.64.06-6.42.02-12.83.01-19.25,0-.38.05-.84-.14-1.12-.32-.5-.72-1.08-1.22-1.3-1.27-.54-2.47.43-2.47,1.95-.02,3.51,0,7.02,0,10.53,0,.31-.04.63-.06.95h-1.44ZM14.97,15.17v-3.91c-1.03.66-1.95,1.24-2.87,1.83-1.03.65-1.08.79-.76,2.09h3.63ZM11.26,12.32c1.1-.7,2.08-1.38,3.11-1.96.68-.38.8-.88.59-1.58h-3.7v3.54ZM14.99,7.56c-.1-1.22-.89-2-1.92-1.97-1.03.04-1.78.84-1.79,1.97h3.71ZM9.17,11.66c-.87.08-1.69.16-2.66.25.35.76.64,1.39.93,2,1.88-.65,2.02-.83,1.73-2.26ZM7.62,8.37v2.36c.59-.07,1.11-.14,1.62-.21.27-1.35-.93-1.39-1.62-2.15Z"/>
  </g>
</svg>