<?xml version="1.0" encoding="UTF-8"?>
<svg id="_レイヤー_2" data-name="レイヤー 2" xmlns="http://www.w3.org/2000/svg" viewBox="0 0 77.95 76.63">
  <defs>
    <style>
      .cls-1, .cls-2 {
        fill: #4b4b4b;
      }

      .cls-3 {
        fill: none;
        stroke-width: 3px;
      }

      .cls-3, .cls-2 {
        stroke: #4b4b4b;
        stroke-linecap: round;
        stroke-linejoin: round;
      }

      .cls-2 {
        stroke-width: 1.5px;
      }
    </style>
  </defs>
  <g id="_レイヤー_1-2" data-name="レイヤー 1">
    <g>
      <path id="path" class="cls-3" d="m29.25,27.84s5.95-9.21,6.49-10.07c.26-.4.83-.95,1.62-1.29.6-.26,1.33-.4,2.12-.25.36.07.74.19,1.13.4,1.37.71,1.67,1.97,1.68,2.88m5.44,4.17c-.12-.47-.28-1.09-.45-1.85-.43-1.82-1.73-2.67-2.86-2.86-.76-.12-1.42.03-2.13.53-.34.24-.69.56-1.06.96-1.16,1.25-5.96,9.27-5.96,9.27m13.89,5.43c.9-.44,1.82-1.71,2.66-2.67.99-1.12,1.17-2.07,1.04-3.06-.1-.8-1.94-4.58-3.22-5.35-.61-.37-1.28-.49-1.91-.41-.7.1-1.33.46-1.74,1.04-.77,1.12-4.63,7.88-4.63,7.88m10.95,42.53v-15.89c0-1.82.79-5.78,1.76-7.43.91-1.56,1.31-4.46.38-6.44-.59-1.26-1.14-2.67-2.32-4.19-1.18-1.52-3.22-3.49-3.16-4.46.03-.46.1-1,.2-1.57.19-1.1.48-2.33.76-3.38.39-1.49.76-2.64.76-2.64m-13.31-12.66c.37-.44.99-1.17,1.71-2.01h0c1.67-1.97,3.84-4.54,4.48-5.33.65-.8,2.18-4.16.78-5.27s-2.74-.34-3.57.39c-.36.32-2.19,2.01-4.25,3.98-1.83,1.74-3.84,3.68-5.19,5.06-.63.65-1.12,1.17-1.37,1.49-1.4,1.76-5.15,9.59-6.86,11.94-1.71,2.35-2.56,3.71-2.56,5.23,0,2.33,5.46,7.03,6.91,8.73,1.46,1.7,8,8.25,8,10.31s-3.88,24.13-3.88,24.13m20.01-44.34c-.17.07-1.04.61-1.66.99m-13.41-23.54c-.79-1.53-1.49-2.66-1.78-3.02-1.05-1.28-2.78-1.88-4.03-1.29-1.25.59-1.81,1.42-1.69,3.05.08,1.1,1.44,4.33,2.32,6.32m8.16,2.93c-.1-.57-.24-1.16-.41-1.76h0"/>
      <path class="cls-2" d="m37.95,6.34s-.7.86-.16,1.48c.55.62,1.97,1.44,3.12.45,1.15-.99,4.18-4.13,4.73-5.02.55-.9.37-2.1-.26-2.41s-1.55.26-2.86,1.2c-1.07.78-4.58,4.3-4.58,4.3Z"/>
      <path class="cls-2" d="m29.04,5.86s-1.77-2.78-.05-4.04c1.72-1.26,3.69,2.02,3.69,2.02,0,0-1.16-.56-2.43.2s-1.21,1.82-1.21,1.82Z"/>
      <path class="cls-1" d="m77.95,12.81c-7.3,0-10.41,3.11-10.41,10.41,0-7.3-3.11-10.41-10.41-10.41,7.3,0,10.41-3.11,10.41-10.41,0,7.3,3.11,10.41,10.41,10.41Z"/>
      <path class="cls-1" d="m20.81,49.57c-7.3,0-10.41,3.11-10.41,10.41,0-7.3-3.11-10.41-10.41-10.41,7.3,0,10.41-3.11,10.41-10.41,0,7.3,3.11,10.41,10.41,10.41Z"/>
    </g>
  </g>
</svg>