<?xml version="1.0" encoding="UTF-8"?>
<svg id="_レイヤー_2" data-name="レイヤー 2" xmlns="http://www.w3.org/2000/svg" viewBox="0 0 73.24 56">
  <defs>
    <style>
      .cls-1 {
        fill: #4b4b4b;
      }
    </style>
  </defs>
  <g id="_レイヤー_1-2" data-name="レイヤー 1">
    <g>
      <path class="cls-1" d="m29.58,37.93v-.06s-15.39-5.34-15.39-5.34c-1.66-.61-3.5.24-4.1,1.9-.61,1.66.24,3.5,1.9,4.1l9.94,3.32-.68,1.85-9.92-3.37c-2.07-.76-3.36-2.72-3.36-4.81,0-.59.1-1.18.31-1.76h0c.67-1.83,2.29-3.05,4.1-3.3l-3.54-14.88c-.53-2.42-2.92-3.94-5.33-3.41C1.1,12.72-.43,15.11.11,17.52l5.92,24.73c.37,1.67,1.65,4.26,3.31,4.67l8.84,4.07v5.01h14.39v-13.86c0-1.91-1.21-3.58-2.99-4.21Zm40.14-25.75c-2.42-.53-4.8,1-5.33,3.41l-3.54,14.88c1.81.25,3.42,1.47,4.1,3.3h0c.21.58.31,1.17.31,1.76,0,2.09-1.28,4.04-3.36,4.81l-9.92,3.37-.68-1.85,9.94-3.32c1.66-.61,2.51-2.44,1.9-4.1-.61-1.66-2.45-2.51-4.1-1.9l-15.39,5.34v.06c-1.77.63-2.98,2.29-2.98,4.21v13.86h14.39v-5.01l8.84-4.07c1.67-.41,2.94-2.99,3.31-4.67l5.92-24.73c.53-2.41-.99-4.8-3.41-5.33Z"/>
      <path class="cls-1" d="m55.18,7.93c-.96-5.91-5.92-7.53-7.47-7.81-2.06-.36-5.37,0-8,2.03-2.04,1.57-3.1,2.92-3.1,2.92,0,0-1.06-1.34-3.1-2.92C30.89.12,27.58-.24,25.53.12c-1.55.27-6.51,1.89-7.47,7.81-1.1,6.8,3.04,11.46,9.87,17.45,3.74,3.28,8.69,7.19,8.69,7.19,0,0,4.95-3.91,8.69-7.19,6.83-5.99,10.97-10.66,9.87-17.45Z"/>
    </g>
  </g>
</svg>