<?xml version="1.0" encoding="UTF-8"?>
<svg id="_レイヤー_2" data-name="レイヤー 2" xmlns="http://www.w3.org/2000/svg" viewBox="0 0 76.11 65.42">
  <defs>
    <style>
      .cls-1 {
        fill: #595757;
      }
    </style>
  </defs>
  <g id="_レイヤー_1-2" data-name="レイヤー 1">
    <g>
      <path class="cls-1" d="m0,42.97C0,35.48,0,28,0,20.52c.1-.25.21-.49.3-.74.89-2.48,3.51-4.52,5.9-4.54,2.8-.02,5.6-.03,8.4,0,3.93.04,6.79,2.99,7.57,5.47,1.39,4.41,2.96,8.76,4.45,13.14.44,1.29,1.25,1.5,2.29.6.96-.82,1.91-1.65,2.86-2.48,1.01-.89,2.19-1.32,3.53-1.32,1.83,0,3.67,0,5.5,0,1.34,0,2.52.43,3.53,1.32.95.83,1.9,1.66,2.86,2.48,1.04.9,1.85.68,2.29-.6,1.5-4.38,2.98-8.75,4.49-13.13,1.12-3.24,3.48-5.08,6.8-5.38,2.88-.26,5.79-.06,8.69-.12,1.6-.03,2.94.54,4.15,1.52,1.23,1,1.97,2.31,2.5,3.77v22.45c-.88,2.08-2.72,2.04-4.56,1.92-.07,1.16-.14,2.2-.2,3.23-.29,4.84-.56,9.68-.87,14.53-.11,1.75-1.27,2.77-3.04,2.77-1.88,0-3.76,0-5.65,0-2.23,0-3.29-1.05-3.39-3.3-.1-2.1-.25-4.2-.35-6.3-.23-4.6-.49-9.19-.64-13.79-.1-3.12-.02-6.24-.02-9.36,0-.1.03-.21,0-.29-.07-.16-.18-.31-.28-.46-.17.11-.38.18-.5.33-.13.17-.19.4-.27.61-1.15,2.84-2.3,5.68-3.45,8.52-.94,2.33-3.42,2.98-5.41,1.46-1.2-.92-2.42-1.81-3.65-2.69-.18-.13-.5-.26-.64-.18-.15.09-.19.41-.24.63-.04.17-.01.35,0,.52.17,7.46-.23,14.9-.73,22.33-.08,1.21-.85,1.97-2.06,1.98-1.44.01-2.87.02-4.31,0-1.09-.01-1.91-.75-1.97-1.83-.26-4.89-.55-9.78-.73-14.68-.1-2.77-.01-5.55-.03-8.32,0-.22-.09-.54-.24-.63-.13-.08-.46.05-.63.18-1.26.91-2.52,1.84-3.76,2.78-1.84,1.4-4.35.73-5.23-1.42-.44-1.07-.87-2.15-1.31-3.23-.8-1.97-1.59-3.94-2.42-5.9-.08-.2-.36-.31-.55-.46-.09.2-.2.4-.28.61-.03.09,0,.2,0,.3-.09,5.45-.11,10.89-.29,16.34-.15,4.5-.48,8.99-.75,13.49-.1,1.66-1.31,2.77-2.98,2.78-2.03,0-4.06,0-6.09,0-1.7,0-2.85-1.05-2.96-2.77-.31-4.84-.58-9.68-.87-14.53-.06-1.06-.13-2.11-.2-3.22-.36,0-.65-.03-.94,0C1.97,45.07.72,44.52,0,42.97Z"/>
      <path class="cls-1" d="m17.86,6.17C17.86,2.74,15.12,0,11.68,0c-3.42,0-6.19,2.76-6.18,6.17,0,3.41,2.77,6.17,6.19,6.17,3.43,0,6.17-2.74,6.17-6.17Zm40.39,0c0,3.43,2.74,6.16,6.18,6.16,3.42,0,6.18-2.76,6.18-6.17C70.61,2.76,67.84,0,64.42,0c-3.43,0-6.17,2.75-6.17,6.18Zm-15.96,18.21c-.01-2.36-1.93-4.28-4.25-4.27-2.34.01-4.23,1.94-4.22,4.29,0,2.35,1.92,4.27,4.25,4.26,2.33,0,4.24-1.95,4.22-4.29Z"/>
      <path class="cls-1" d="m17.86,6.17c0,3.43-2.74,6.17-6.17,6.17-3.42,0-6.19-2.75-6.19-6.17C5.5,2.76,8.27,0,11.68,0c3.43,0,6.18,2.74,6.18,6.17Z"/>
      <path class="cls-1" d="m58.25,6.18C58.24,2.75,60.99,0,64.42,0c3.42,0,6.19,2.76,6.19,6.17,0,3.41-2.76,6.17-6.18,6.17-3.44,0-6.18-2.73-6.18-6.16Z"/>
      <path class="cls-1" d="m42.29,24.39c.01,2.34-1.89,4.28-4.22,4.29-2.33,0-4.25-1.92-4.25-4.26,0-2.36,1.89-4.28,4.22-4.29,2.32-.01,4.24,1.91,4.25,4.27Z"/>
    </g>
  </g>
</svg>