<?xml version="1.0" encoding="UTF-8"?>
<svg id="_レイヤー_2" data-name="レイヤー 2" xmlns="http://www.w3.org/2000/svg" viewBox="0 0 53.07 29.68">
  <defs>
    <style>
      .cls-1 {
        fill: #595757;
      }
    </style>
  </defs>
  <g id="_レイヤー_1-2" data-name="レイヤー 1">
    <g>
      <path class="cls-1" d="M10.53,10.92c3.01,0,5.46-2.45,5.46-5.46S13.54,0,10.53,0s-5.46,2.45-5.46,5.46,2.45,5.46,5.46,5.46ZM10.53,1.41c2.23,0,4.05,1.82,4.05,4.05s-1.82,4.05-4.05,4.05-4.05-1.82-4.05-4.05,1.82-4.05,4.05-4.05Z"/>
      <path class="cls-1" d="M42.54,10.92c3.01,0,5.46-2.45,5.46-5.46s-2.45-5.46-5.46-5.46-5.46,2.45-5.46,5.46,2.45,5.46,5.46,5.46ZM42.54,1.41c2.23,0,4.05,1.82,4.05,4.05s-1.82,4.05-4.05,4.05-4.05-1.82-4.05-4.05,1.82-4.05,4.05-4.05Z"/>
      <path class="cls-1" d="M52.2,18.31c-.29-3.6-3.46-6.52-7.06-6.52h-2.61c-1.91,0-3.67.83-4.82,2.28,0,0-.01.02-.02.03,0,0-.01.01-.02.02l-4.88,7.34-4.23,1.47c.48.28.89.65,1.21,1.07l3.71-1.29c.15-.05.27-.15.36-.28l4.99-7.51c.88-1.1,2.23-1.73,3.7-1.73h2.61c2.88,0,5.42,2.35,5.65,5.23l.86,10.61c.03.37.34.65.7.65.02,0,.04,0,.06,0,.39-.03.68-.37.65-.76l-.86-10.61Z"/>
      <path class="cls-1" d="M23.98,25.74l.13.03-.13-.04s0,.01,0,.02Z"/>
      <path class="cls-1" d="M39.85,21.01l-4.27,4.84-5.03,1.02c-.02.18-.05.36-.09.54,0,0,0,.01,0,.02-.09.35-.22.68-.39.98l6.03-1.23c.15-.03.29-.11.39-.22l1.93-2.19.44,4.28c.04.36.34.63.7.63.02,0,.05,0,.07,0,.39-.04.67-.39.63-.77l-.58-5.57,1.22-1.39c.26-.29.23-.74-.06-.99-.29-.26-.74-.23-.99.06Z"/>
      <path class="cls-1" d="M27.4,23.92l-7.13-2.47-4.88-7.34s-.01-.01-.02-.02c0,0,0-.02-.02-.02-1.15-1.45-2.9-2.28-4.82-2.28h-2.61c-3.6,0-6.76,2.93-7.06,6.52L0,28.92c-.03.39.26.73.65.76.02,0,.04,0,.06,0,.36,0,.67-.28.7-.65l.86-10.61c.23-2.88,2.77-5.23,5.65-5.23h2.61c1.47,0,2.82.63,3.7,1.73l4.99,7.51c.09.13.21.23.36.28l7.36,2.55c.61.21.95.84.8,1.47,0,0,0,0,0,0-.16.65-.8,1.05-1.45.91l-8.8-1.79-4.27-4.84c-.26-.29-.7-.32-.99-.06-.29.26-.32.7-.06.99l1.22,1.39-.58,5.57c-.04.39.24.73.63.77.02,0,.05,0,.07,0,.36,0,.66-.27.7-.63l.44-4.28,1.93,2.19c.1.12.24.19.39.22l9.03,1.84c.18.04.36.05.53.05,1.19,0,2.26-.8,2.56-2,0,0,0,0,0,0,.34-1.34-.4-2.7-1.7-3.15Z"/>
    </g>
  </g>
</svg>