<?xml version="1.0" encoding="UTF-8"?>
<svg id="_レイヤー_2" data-name="レイヤー 2" xmlns="http://www.w3.org/2000/svg" viewBox="0 0 200.35 171.7">
  <defs>
    <style>
      .cls-1 {
        fill: #323232;
      }
    </style>
  </defs>
  <g id="_レイヤー_1-2" data-name="レイヤー 1">
    <g>
      <path class="cls-1" d="M132.62,28.73c7.92,0,14.36-6.44,14.36-14.36s-6.44-14.36-14.36-14.36-14.36,6.44-14.36,14.36,6.44,14.36,14.36,14.36ZM132.62,5.75c4.75,0,8.62,3.86,8.62,8.61s-3.86,8.62-8.62,8.62-8.61-3.86-8.61-8.62,3.86-8.61,8.61-8.61Z"/>
      <path class="cls-1" d="M191.24,78.56h-.07l-16.9.13-5.76-15.43q-.29-1.04-6.02-20.48l1.66-.33,14.64,7.9c3.62,1.94,8.11.86,10.45-2.51,1.22-1.77,1.69-3.91,1.3-6.03-.39-2.12-1.57-3.96-3.34-5.18l-16.69-11.54c-1.86-1.27-4.18-1.76-6.38-1.32l-19.92,3.96c-.09.02-.18.04-.27.07-2.08.63-5.99,2.14-8.78,5.27l-11.53,12.97-18.87,1.25c-4.31.3-7.72,3.91-7.76,8.22-.02,2.22.83,4.32,2.39,5.9,1.56,1.58,3.64,2.47,5.86,2.48l22.91.19h.03c2.49,0,4.85-1.06,6.5-2.91l2.81-3.16,4.14,9.27-23.85,40.69c-2.51,4.31-1.22,9.82,2.95,12.55,1.58,1.03,3.35,1.52,5.11,1.52,3.05,0,6.05-1.49,7.84-4.23l20.86-31.88,3.7,7.71c1.75,3.63,5.63,5.82,9.65,5.42l24.25-2.35c4.65-.46,8.26-4.48,8.22-9.13-.04-5-4.12-9.04-9.11-9.04ZM128.85,114.68c-.53.81-1.34,1.36-2.28,1.55-.94.2-1.9.01-2.71-.51-1.61-1.05-2.1-3.18-1.14-4.84l24.6-41.96c.47-.8.52-1.78.14-2.63l-6.56-14.68c-.4-.89-1.22-1.52-2.19-1.67-.15-.02-.29-.03-.44-.03-.81,0-1.6.35-2.15.96l-5.77,6.49c-.55.62-1.35.98-2.19.98h-.01l-22.89-.19c-.69,0-1.33-.28-1.81-.77-.48-.49-.74-1.13-.74-1.82.01-1.33,1.07-2.44,2.39-2.54l20.04-1.33c.75-.05,1.46-.39,1.96-.96l12.32-13.85c1.85-2.08,4.73-3.15,6.01-3.55l19.78-3.93c.69-.14,1.42.02,2,.41l16.68,11.53c.51.35.85.88.96,1.48.11.61-.02,1.22-.37,1.73-.66.95-1.98,1.26-2.99.72l-15.54-8.39c-.59-.32-1.27-.42-1.93-.29l-5.77,1.15c-.79.16-1.48.64-1.9,1.33-.42.69-.53,1.53-.3,2.3l6.46,21.9-33.68,51.39ZM191.56,91.01l-24.24,2.35c-1.63.15-3.21-.73-3.91-2.2l-5.2-10.83,6.72-10.22,4.66,12.47c.42,1.12,1.49,1.87,2.69,1.87h.02l18.91-.15h.03c1.84,0,3.34,1.49,3.36,3.33.01,1.72-1.32,3.2-3.03,3.37Z"/>
      <path class="cls-1" d="M166.74,166.18c-3.08-1.31-6.18-2.68-9.21-4.07-49.91-22.99-88.83-56.2-98.23-83.51l21.62-7.34c1.07-.36,1.82-1.31,1.94-2.44.11-1.12-.44-2.2-1.41-2.77l-53.6-31.18c-.72-.42-1.58-.5-2.37-.24-.79.27-1.42.86-1.74,1.63L.22,93.63c-.43,1.04-.21,2.24.56,3.06.77.82,1.95,1.12,3.02.75l21.95-7.45c11.25,21.83,40.76,45.68,77.9,62.78,20.94,9.64,42.23,16.18,61.57,18.9.14.02.27.03.4.03,1.27,0,2.42-.85,2.77-2.11.39-1.39-.32-2.85-1.65-3.41ZM106.05,147.55c-36.71-16.9-66.62-41.35-76.21-62.29-.48-1.05-1.52-1.68-2.61-1.68-.31,0-.62.05-.92.15l-18.37,6.24,19.88-48.47,45.28,26.34-18.29,6.21c-1.44.49-2.25,2.02-1.85,3.49,7.46,26.8,42.41,59.25,88.8,83.26-11.71-3.29-23.76-7.75-35.71-13.26Z"/>
    </g>
  </g>
</svg>