<?xml version="1.0" encoding="UTF-8"?>
<svg id="_レイヤー_2" data-name="レイヤー 2" xmlns="http://www.w3.org/2000/svg" viewBox="0 0 211.64 211.6">
  <defs>
    <style>
      .cls-1 {
        fill: #323232;
      }
    </style>
  </defs>
  <g id="_レイヤー_1-2" data-name="レイヤー 1">
    <g>
      <g>
        <path class="cls-1" d="M188.49,160.92c-4.15,6.21-8.99,11.93-14.4,17.05l4.14,4.94c5.97-5.61,11.3-11.91,15.84-18.77l-5.59-3.23Z"/>
        <path class="cls-1" d="M211.24,115.01c.26-3.03.4-6.09.4-9.19v-3.22h-6.44v3.22c0,2.72-.11,5.41-.33,8.07l6.37,1.12Z"/>
        <path class="cls-1" d="M130.57,202.08c-6.96,1.79-14.21,2.84-21.66,3.07v6.45c8.23-.24,16.22-1.42,23.87-3.44l-2.21-6.08Z"/>
        <path class="cls-1" d="M94.9,204.6C45.22,199.14,6.44,156.93,6.44,105.82,6.44,50.1,49.4,6.44,104.23,6.44c34.6,0,66.94,17.4,85.18,45.62h-30.68c-1.78,0-3.22,1.44-3.22,3.22s1.44,3.22,3.22,3.22h37.88c1.73,0,3.15-1.36,3.22-3.09l1.59-37.88c.07-1.78-1.31-3.28-3.08-3.35-1.76-.08-3.28,1.31-3.35,3.08l-1.24,29.69C174.15,17.87,140.34,0,104.23,0c-28.18,0-54.48,11.02-74.06,31.02C10.72,50.9,0,77.47,0,105.82c0,54.66,41.66,99.77,94.9,105.26v-6.48Z"/>
        <path class="cls-1" d="M202.76,127.74c-1.66,7.35-4.13,14.39-7.32,21.02l5.59,3.23c3.55-7.28,6.28-15.03,8.08-23.13l-6.35-1.12Z"/>
        <path class="cls-1" d="M163.27,186.87c-6.01,4.27-12.52,7.89-19.41,10.76l2.21,6.06c7.6-3.14,14.76-7.13,21.36-11.87l-4.15-4.95Z"/>
      </g>
      <g>
        <path class="cls-1" d="M88.25,157.2c5.71,0,9.66-2.89,9.66-8.19s-4.24-7.95-9.25-7.95h-2.65v-3.83h2.83c4.42,0,7.89-2.77,7.89-7.19,0-4.65-3.65-7.13-8.13-7.13s-7.24,2.3-9.78,4.95l-2.36-2.71c2.24-3.06,6.3-6.01,12.43-6.01,6.95,0,12.25,3.95,12.25,10.42s-4.54,8.66-6.83,9.31v.18c4,.88,8.07,3.53,8.07,10.13,0,7.19-6.01,11.78-14.14,11.78s-12.43-6.24-12.72-6.95l2.77-2.71c.59.94,4.59,5.89,9.95,5.89Z"/>
        <path class="cls-1" d="M114.87,119.74v17.49h.18c1.24-2.95,4.65-5.01,8.6-5.01,7.89,0,9.78,4.83,9.78,11.43v16.73h-4.36v-16.43c0-5.12-1.65-7.95-6.77-7.95s-7.42,4.06-7.42,8.83v15.55h-4.36v-40.64h4.36Z"/>
      </g>
      <g>
        <path class="cls-1" d="M56.53,75.08c0-4.89-3-8.3-8.66-8.3-5.07,0-8.89,3.89-10.31,6.54l-2.71-2.65c1.3-2.83,5.71-7.66,13.19-7.66,8.25,0,12.9,4.77,12.9,11.96,0,6.24-3.89,9.9-7.54,13.49l-12.01,11.96h21.2v3.83h-26.68l-.71-3.06,14.31-14.19c4.48-4.48,7.01-7.3,7.01-11.9Z"/>
        <path class="cls-1" d="M90.99,99.46c-2,3.3-5.71,5.36-10.37,5.36-8.42,0-13.19-6.07-13.19-14.37s5.3-14.37,13.43-14.37c4.24,0,7.95,1.94,9.95,5.24h.12v-17.73h4.36v40.64h-4.24c0-1.57-.06-3.2-.06-4.77ZM91.04,90.33c0-6.01-3.42-10.54-9.54-10.54s-9.6,4.48-9.6,10.48,3.53,10.78,9.6,10.78,9.54-4.77,9.54-10.72Z"/>
        <path class="cls-1" d="M110.78,104.82c-5.24,0-9.48-3.36-9.48-8.42,0-4.71,3.48-8.01,11.01-8.36l7.48-.35v-1.24c0-4.65-3.12-6.71-7.3-6.71s-7.42,1.65-8.19,2.18l-1.47-3.12c1.83-1.06,5.48-2.71,9.84-2.71s7.13,1.3,8.83,3.12c1.71,1.83,2.71,4.12,2.71,8.83v16.2h-4.3l-.06-3.65c-1.06,1.18-3.83,4.24-9.07,4.24ZM105.83,96.34c0,2.77,2.3,5.01,5.83,5.01,3.77,0,6.89-2.18,8.19-3.95v-6.54l-7.19.35c-5.12.24-6.83,2.3-6.83,5.12Z"/>
        <path class="cls-1" d="M133.69,111.65c1.41,0,2.42-.06,4-3.83l1.53-3.59-11.25-27.68,4.54.06,8.95,22.73,8.78-22.79,4.54.06-13.49,32.63c-2.12,5.07-4.01,6.42-6.95,6.42-2.47,0-4.3-.94-4.3-.94l.88-3.71s1.53.65,2.77.65Z"/>
        <path class="cls-1" d="M166.56,101.35c3,0,5.89-1.3,5.89-4.59,0-2.85-3.49-4.08-5.8-4.81l-.98-.31c-2-.65-7.89-2-7.89-7.83,0-5.07,4.42-7.72,8.89-7.72s7.13,1.47,9.07,3.24l-2.12,2.65c-1.94-1.65-4.48-2.53-6.95-2.53-2.89,0-4.89,1.35-4.89,3.95s2.83,3.71,5.89,4.71l1.02.33c3.02.97,7.87,2.68,7.87,7.97s-4.42,8.42-10.13,8.42c-4.54,0-8.19-1.94-10.25-4.89l2.3-2.77c2.65,3,5.42,4.18,8.07,4.18Z"/>
      </g>
    </g>
  </g>
</svg>