<?xml version="1.0" encoding="UTF-8"?>
<svg id="_レイヤー_2" xmlns="http://www.w3.org/2000/svg" version="1.1" viewBox="0 0 77.9 76.6">
  <!-- Generator: Adobe Illustrator 30.1.0, SVG Export Plug-In . SVG Version: 2.1.1 Build 136)  -->
  <defs>
    <style>
      .st0 {
        fill: #595757;
      }
    </style>
  </defs>
  <path class="st0" d="M71.9,70.4l-3.4-48.6c-.2-2.7-2.4-4.8-5.1-4.8h-10.1v-1.4c0-8.1-6.6-14.6-14.6-14.6s-14.6,6.6-14.6,14.6v1.4h-10.1c-2.7,0-4.9,2.1-5.1,4.8l-3.4,48.6c0,1.4.4,2.8,1.4,3.8,1,1,2.3,1.6,3.7,1.6h56.2c1.4,0,2.8-.6,3.7-1.6,1-1,1.5-2.4,1.4-3.8ZM27.6,15.6c0-6.1,5-11.2,11.2-11.2s11.2,5,11.2,11.2v1.4h-22.3v-1.4ZM68,71.9c-.3.3-.7.5-1.2.5H10.6c-.5,0-.9-.2-1.2-.5s-.5-.8-.4-1.2l3.4-48.6c0-.9.8-1.5,1.6-1.5h10.1v8c0,1,.8,1.7,1.7,1.7s1.7-.8,1.7-1.7v-8h22.3v8c0,1,.8,1.7,1.7,1.7s1.7-.8,1.7-1.7v-8h10.1c.9,0,1.6.7,1.6,1.5l3.4,48.6c0,.5-.1.9-.4,1.2Z"/>
  <path class="st0" d="M51.8,37.2c-.7-.7-1.8-.7-2.5,0l-23.6,23.6c-.7.7-.7,1.8,0,2.5.3.3.8.5,1.2.5s.9-.2,1.2-.5l23.6-23.6c.7-.7.7-1.8,0-2.5Z"/>
  <path class="st0" d="M42.6,54.2c-3.1,3.1-3.1,8.2,0,11.3,1.6,1.6,3.6,2.3,5.6,2.3s4.1-.8,5.6-2.3c3.1-3.1,3.1-8.2,0-11.3-3.1-3.1-8.2-3.1-11.3,0ZM51.4,63c-1.7,1.7-4.6,1.7-6.3,0-1.7-1.7-1.7-4.6,0-6.3.9-.9,2-1.3,3.2-1.3s2.3.4,3.2,1.3c1.7,1.7,1.7,4.6,0,6.3Z"/>
  <path class="st0" d="M34.9,46.4c3.1-3.1,3.1-8.2,0-11.3-3.1-3.1-8.2-3.1-11.3,0,0,0,0,0,0,0-1.5,1.5-2.3,3.5-2.3,5.6s.8,4.1,2.3,5.6c1.5,1.5,3.5,2.3,5.6,2.3s4.1-.8,5.6-2.3ZM24.8,40.8c0-1.2.5-2.3,1.3-3.2h0c.9-.9,2-1.3,3.2-1.3s2.3.4,3.2,1.3c1.7,1.7,1.7,4.6,0,6.3-.8.8-2,1.3-3.2,1.3s-2.3-.5-3.2-1.3c-.8-.8-1.3-2-1.3-3.2Z"/>
</svg>