<?xml version="1.0" encoding="UTF-8"?>
<svg id="_レイヤー_2" xmlns="http://www.w3.org/2000/svg" version="1.1" viewBox="0 0 77.9 76.6">
  <!-- Generator: Adobe Illustrator 30.1.0, SVG Export Plug-In . SVG Version: 2.1.1 Build 136)  -->
  <defs>
    <style>
      .st0 {
        fill: #595757;
      }
    </style>
  </defs>
  <rect class="st0" x="8.8" y="28.7" width="7.7" height="2.2"/>
  <rect class="st0" x="8.8" y="33.5" width="7.7" height="2.2"/>
  <rect class="st0" x="8.8" y="38.2" width="7.7" height="2.2"/>
  <rect class="st0" x="8.8" y="43" width="7.7" height="2.2"/>
  <path class="st0" d="M67.1,61.2c.3-13.5-4.2-20.4-6.7-23.2,3.2-1.1,6.8-.6,9.6,1.5,1.6,1.2,2.8,2.8,3.5,4.7.2.4.6.7,1,.7h0c.5,0,.9-.3,1-.7,1.6-4.1.2-8.8-3.3-11.4-2.5-1.8-5.5-2.3-8.3-1.6.9-.5,1.8-.8,2.9-1,1.8-.3,3.6-.1,5.2.6.4.2.9,0,1.2-.3.3-.3.4-.8.2-1.2-1.7-3.6-5.7-5.7-9.7-5-2.4.4-4.4,1.7-5.8,3.7-.5.8-.9,1.6-1.2,2.5-1.3-1.7-3.2-2.9-5.4-3.3v-10.8c0-.4-.3-.8-.7-1-10-4.3-21.5-4.3-31.6,0-.4.2-.7.6-.7,1v6.9H6c-.6,0-1.1.5-1.1,1.1v37H1.9v2.2h74.5v-2.2h-9.2ZM62.7,61.2c0-.6,0-1.2,0-1.7l2.3-.3c0,.7,0,1.3,0,2h-2.2ZM18.7,49h24.6c.2.3.4.5.6.8.2.2.5.4.8.4s.3,0,.4,0c.4-.2.7-.6.7-1,0,0,0,0,0,0h5.5v3.7H18.7v-3.7ZM47.3,33.6c1-.2,2.1-.2,3,0-1.9.2-3.8.9-5.3,2.2h0s-2.2,0-2.2,0c1.3-1.1,2.8-1.8,4.5-2.1ZM45.7,42.2c-.7,1.1-1.3,2.3-1.6,3.5-.7-2.2-.5-4.6.8-6.6,1.5-2.2,3.9-3.4,6.3-3.4s2.5.3,3.6.9c-3.7.4-7.1,2.4-9.2,5.6ZM47.6,43.5c.5-.7,1.1-1.4,1.7-2v5.3h-3.2c.3-1.2.8-2.3,1.4-3.3ZM50.1,54.9h1.2v6.2h-1.2v-6.2ZM29.2,61.2v-6.3h11.6v6.3h-11.6ZM22.1,61.2v-6.3h1.4v6.3h-1.4ZM18.7,54.9h1.2v6.2h-1.2v-6.2ZM25.8,54.9h1.2v6.2h-1.2v-6.2ZM44.2,61.1h-1.2v-6.2h1.2v6.2ZM46.4,61.2v-6.3h1.5v6.3h-1.5ZM53.6,47.9c0-.6-.5-1.1-1.1-1.1h-1v-6.8c1.9-1,4-1.3,6.2-1,.8,2.6,2.7,10,2.8,22.3h-6.9v-13.3ZM62.5,54.6l2.1-.4c.1.9.2,1.8.3,2.8l-2.3.3c0-.9,0-1.8-.1-2.7ZM62.3,52.4c0-1-.2-2-.3-2.9l1.6-.3c.2.9.4,1.8.6,2.8l-2,.4ZM63,47.1l-1.3.3c-.3-1.9-.6-3.6-.9-5,.7,1.2,1.5,2.8,2.2,4.7ZM71,34.6c1.9,1.4,3,3.7,3.1,5.9-.8-1.1-1.7-2-2.7-2.8-3.1-2.3-7-3-10.6-2.1,2.6-2.9,7-3.5,10.2-1.1ZM59.9,29.2c1-1.5,2.6-2.5,4.4-2.8.4,0,.8-.1,1.2-.1,1.6,0,3.1.6,4.3,1.5-1.1-.1-2.1,0-3.2.1-3.3.6-6.2,2.6-7.9,5.4,0-1.5.4-2.9,1.2-4.2ZM56.2,33.8c-2-1.7-4.6-2.6-7.2-2.6s-1.3,0-2,.2c-1.1.2-2.1.5-3.1,1,1-1.7,2.7-2.9,4.7-3.2,1.8-.3,3.6,0,5.1,1.1,1.2.9,2.1,2.1,2.6,3.5ZM49.3,17v9.9c-.4,0-.7,0-1.1.1-2.1.4-4,1.5-5.3,3.1h-18.6v2.2h17.3c-.4.9-.6,1.8-.7,2.7,0,.3,0,.5.2.7h-16.7v2.2h18.9c-.7,1.1-1.2,2.2-1.4,3.4h-17.5v2.2h17.3c0,1.1.2,2.2.6,3.2h-21.3v-29.8c9.1-3.7,19.4-3.7,28.5,0ZM7.1,25.3h11.5v21.4h-1c-.6,0-1.1.5-1.1,1.1v13.2H7.1V25.3Z"/>
  <rect class="st0" x="24.2" y="18.8" width="21.6" height="2.2"/>
  <rect class="st0" x="24.2" y="24.5" width="21.6" height="2.2"/>
</svg>