<?xml version="1.0" encoding="UTF-8"?>
<svg id="_レイヤー_2" data-name="レイヤー 2" xmlns="http://www.w3.org/2000/svg" viewBox="0 0 250.41 91.84">
  <defs>
    <style>
      .cls-1 {
        fill: #323232;
      }
    </style>
  </defs>
  <g id="_レイヤー_1-2" data-name="レイヤー 1">
    <g>
      <path class="cls-1" d="M109.73,29.97l-.12-.02c-2.07-.31-4.31-.91-6.35-1.66-2.07-.76-4.04-1.73-5.85-2.87-1.83-1.12-3.45-2.49-4.86-3.99-1.31-1.3-2.29-2.85-3.19-4.4,3.51-2.78,5.45-4.89,5.75-5.23,1.29-1.44,1.17-3.66-.27-4.96-1.44-1.29-3.66-1.18-4.96.26-1.22,1.34-30.43,32.71-85.25,14.31-1.84-.62-3.83.37-4.45,2.21-.62,1.84.37,3.83,2.21,4.45.11.04.22.07.33.11.29,2.38.66,4.63,1.1,6.93.49,2.49,1.03,4.98,1.71,7.44,1.36,4.91,3.04,9.83,5.94,14.34.55.84,1.66,1.16,2.58.7.98-.5,1.37-1.7.88-2.68l-.04-.08c-2.06-4.06-3.19-8.75-3.97-13.45-.4-2.36-.66-4.75-.88-7.14-.11-1.3-.2-2.63-.27-3.94,5.57,1.51,10.89,2.56,15.93,3.18.31,1.97.69,3.92,1.27,5.81.71,2.56,1.64,5.04,2.74,7.42,1.09,2.39,2.32,4.69,3.72,6.88,1.41,2.21,2.88,4.26,4.68,6.3.61.69,1.65.83,2.43.29.83-.58,1.04-1.72.46-2.56l-.07-.09c-1.3-1.86-2.53-4.02-3.56-6.15-1.05-2.15-1.94-4.37-2.68-6.63-.75-2.25-1.32-4.54-1.68-6.84-.24-1.28-.37-2.56-.45-3.84,1.8.1,3.58.17,5.3.17,2.9,0,5.69-.15,8.38-.39.81,2.15,1.68,4.27,2.75,6.29,1.06,2.13,2.35,4.13,3.7,6.07,1.37,1.93,2.9,3.73,4.55,5.42,1.68,1.7,3.36,3.21,5.48,4.63.76.51,1.79.39,2.4-.32.67-.76.59-1.92-.17-2.59l-.12-.11c-1.45-1.26-2.93-2.93-4.18-4.59-1.27-1.69-2.43-3.46-3.42-5.31-.97-1.86-1.89-3.75-2.57-5.73-.58-1.53-1.02-3.11-1.42-4.69,4.26-.74,8.21-1.75,11.83-2.94.03.05.05.1.09.14,1.42,1.88,2.88,3.72,4.52,5.41,1.59,1.73,3.35,3.28,5.15,4.76,1.82,1.46,3.75,2.78,5.76,3.95,2.05,1.17,4.04,2.18,6.44,2.98.86.29,1.82-.1,2.23-.94.44-.91.06-2.01-.85-2.45l-.15-.07c-1.7-.82-3.55-2.03-5.18-3.28-1.66-1.27-3.22-2.66-4.67-4.16-1.42-1.52-2.8-3.07-4-4.77-.97-1.3-1.83-2.69-2.66-4.08,4.71-2.01,8.71-4.26,12.01-6.4,1.39,1.8,2.88,3.5,4.66,4.87,2.03,1.65,4.23,3.04,6.55,4.08,2.31,1.06,4.69,1.86,7.11,2.41,2.44.54,4.81.88,7.4.92.84.01,1.57-.59,1.7-1.44.14-.92-.5-1.78-1.42-1.92Z"/>
      <path class="cls-1" d="M249.53,15.82l-2.26-6.2c-2.76-7.58-11.17-11.5-18.75-8.74l-54.71,19.91c-1.09.4-1.66,1.61-1.26,2.7l4.69,12.88-32.47,11.82-4.43-12.18-3.96,1.44,4.43,12.18-6.81,2.48-4.43-12.18-3.96,1.44,4.43,12.18-6.81,2.48-4.43-12.18-3.96,1.44,4.43,12.18-6.81,2.48-4.43-12.18-3.96,1.44,4.43,12.18-6.81,2.48-4.43-12.18-3.96,1.44,4.43,12.18-6.81,2.48-4.43-12.18-3.96,1.44,4.43,12.18-6.81,2.48-4.43-12.18-3.96,1.44,3.5,9.62-12.58-5.3-1.64,3.89,14.94,6.29-7.4,14.42,3.75,1.93,6.23-12.15,3.5,9.62,3.96-1.44-4.43-12.18,6.81-2.48,4.43,12.18,3.96-1.44-4.43-12.18,6.81-2.48,4.43,12.18,3.96-1.44-4.43-12.18,6.81-2.48,4.43,12.18,3.96-1.44-4.43-12.18,6.81-2.48,4.43,12.18,3.96-1.44-4.43-12.18,6.81-2.48,4.43,12.18,3.96-1.44-4.43-12.18,6.81-2.48,4.43,12.18,3.96-1.44-4.43-12.18,32.47-11.82,4.69,12.88c.19.53.58.95,1.09,1.19.28.13.59.2.89.2.24,0,.49-.04.72-.13l44.71-16.27s0,0,0,0c0,0,0,0,0,0l10-3.64c7.58-2.76,11.5-11.17,8.74-18.75ZM177.23,24.04l40.75-14.83,9.38,25.76-40.75,14.83-9.38-25.76ZM239.34,30.61l-8.02,2.92-9.38-25.76,8.02-2.92c5.39-1.97,11.38.83,13.34,6.22l2.26,6.2c1.96,5.39-.83,11.38-6.22,13.34Z"/>
    </g>
  </g>
</svg>