<?xml version="1.0" encoding="UTF-8"?>
<svg id="_レイヤー_2" data-name="レイヤー 2" xmlns="http://www.w3.org/2000/svg" viewBox="0 0 166.97 133.71">
  <defs>
    <style>
      .cls-1 {
        fill: #323232;
      }
    </style>
  </defs>
  <g id="_レイヤー_1-2" data-name="レイヤー 1">
    <g>
      <path class="cls-1" d="M0,70.77c1.33-4.6,2.63-9.34,6.63-12.35,2.63-1.98,5.87-3.12,8.72-4.83,1.13-.68,2.48-1.74,2.81-2.88C25.68,24.14,42.72,7.14,69.69,1.46c35.65-7.5,69.17,14.68,77.86,48.53.54,2.11,1.39,3.09,3.72,3.59,9.16,1.95,15.58,9.98,15.7,19.1.11,8.58-6.08,16.79-14.49,19.14-1.24.35-2.59.7-3.83.55-3.44-.4-4.75,1.51-6.12,4.31-18.8,38.39-68.54,49.04-101.67,21.94-7.81-6.39-13.79-14.06-18.16-23.11-.59-1.23-2.1-2.71-3.3-2.83-10.34-.98-16.36-6.68-18.92-16.48-.08-.31-.31-.57-.47-.86,0-1.52,0-3.05,0-4.57ZM26.85,82.43c9.37,25.82,26.9,41.49,54.46,42.13,29.5.69,48.23-15.33,58.17-42.84,6.06,2.85,11.88,3.3,16.4-2.56,2.69-3.48,3.01-7.44.87-11.34-3.49-6.36-9.27-6.65-15.72-5.15-1.21-11.99-5.2-22.59-12.51-31.71-7.24-9.03-16.23-15.71-27.81-19.17.47,2.31.92,4.07,1.17,5.87,1.51,10.46-1.73,19.99-5.99,29.25-1.14,2.46-3.42,2.47-5.09.02-2.5-3.68-5.98-5.91-9.96-7.57-4.21-1.76-8.43-3.52-12.59-5.38-7.02-3.15-12.66-7.63-14.53-15.6-.08-.36-.31-.68-.54-1.16-.78.46-1.35.77-1.88,1.12-14.56,9.73-23.02,23.41-25.73,40.59-.48,3.03-1.62,3.45-4.2,3.13-4.83-.61-8.5,1.44-10.86,5.6-2.26,3.98-1.95,8,.86,11.6,2.83,3.62,6.52,5.3,11.2,4.12,1.36-.34,2.73-.6,4.3-.94ZM94.19,38.67c1-4.97,2.6-9.67,2.69-14.39.08-4.18-1.42-8.41-2.5-12.55-.23-.9-1.62-2.1-2.51-2.13-5.36-.2-10.73-.1-16.04-.1-1.82,8.73,9.12,23.61,18.37,29.17ZM78.77,33.08c.2-.25.4-.5.61-.75-5.08-6.38-8.57-13.46-9.35-21.94-2.16.59-3.94.99-5.66,1.55-6.6,2.12-7.49,5.02-3.16,10.66,1.1,1.43,2.43,2.89,3.99,3.74,4.44,2.41,9.04,4.52,13.58,6.74Z"/>
      <path class="cls-1" d="M85.84,104.88c-10.23.57-17.73-3.1-23.65-10.22-1.31-1.58-1.8-3.41.04-4.87,1.82-1.45,3.31-.54,4.74,1.02,7.33,7.98,15.46,10.23,24.82,6.29,3.06-1.29,5.6-3.93,8.18-6.17,1.59-1.38,3.06-2.79,5.01-1.06,2.09,1.85.91,3.64-.54,5.34-5.11,6.02-11.49,9.44-18.59,9.67Z"/>
      <path class="cls-1" d="M66.58,69.1c.01,3.1-2.67,5.9-5.73,5.97-3.01.08-5.85-2.68-5.95-5.77-.1-3.23,2.74-6.19,5.9-6.14,3.06.05,5.77,2.83,5.78,5.94Z"/>
      <path class="cls-1" d="M106.17,75.07c-3.13-.17-5.69-2.95-5.62-6.09.08-3.27,3.1-6.09,6.21-5.8,3.15.29,5.62,3.12,5.46,6.23-.17,3.08-3.09,5.81-6.05,5.66Z"/>
    </g>
  </g>
</svg>