<?xml version="1.0" encoding="UTF-8"?>
<svg id="_レイヤー_2" data-name="レイヤー 2" xmlns="http://www.w3.org/2000/svg" viewBox="0 0 37.44 35.1">
  <defs>
    <style>
      .cls-1 {
        fill: #595757;
      }
    </style>
  </defs>
  <g id="_レイヤー_1-2" data-name="レイヤー 1">
    <g>
      <path class="cls-1" d="M37.44,10.68c-.99,2.06-1.99,4.12-2.96,6.18-1.25,2.64-2.5,5.29-3.71,7.95-.31.67-.74.93-1.47.93-7.2-.02-14.39,0-21.59-.01-1.07,0-1.37-.31-1.39-1.41-.03-1.89.12-2.05,2-2.05,6.2,0,12.39-.01,18.59.02.88,0,1.38-.32,1.75-1.11,1.76-3.81,3.55-7.59,5.33-11.39.5-1.06.84-1.2,1.88-.65.56.3,1.05.73,1.57,1.1v.44Z"/>
      <path class="cls-1" d="M11.29,0c.15.47.28.86.4,1.26,6.95-.99,12.31,1.42,16.12,7.44-4.41,1.07-8.71,2.12-13.11,3.19.76,3.19,1.51,6.35,2.28,9.59-.44,0-.78-.03-1.11,0-.47.05-.62-.16-.72-.59-.65-2.75-1.33-5.48-2-8.22-.02-.09-.06-.18-.13-.38-4.32,1.05-8.63,2.09-13.04,3.16C.58,8.52,4.07,3.95,10.52,1.59c-.09-.4-.17-.77-.27-1.24.32-.11.65-.22,1.04-.35ZM12.08,2.86c.67,2.56,1.32,5.06,1.99,7.62,1.78-.43,3.48-.85,5.25-1.28-1.17-2.42-2.51-4.54-4.78-5.9-.72-.43-1.49-.73-2.46-.44ZM7.78,12.03c1.51-.38,3-.78,4.51-1.12.5-.11.64-.24.48-.77-.42-1.47-.78-2.95-1.17-4.43-.22-.86-.45-1.71-.68-2.57-2.36.92-3.56,5.48-3.15,8.9ZM25.23,7.76c-1.79-2.86-6.12-5.12-9.82-5.18.53.47,1.07.92,1.57,1.41,1.3,1.28,2.27,2.79,3.05,4.43.1.2.38.5.52.47,1.56-.34,3.11-.74,4.68-1.13ZM1.78,13.48c1.62-.4,3.13-.76,4.62-1.17.15-.04.3-.39.32-.6.12-1.31.1-2.63.32-3.92.2-1.15.66-2.25,1.03-3.46-3.37,2.17-5.51,5.11-6.29,9.15Z"/>
      <path class="cls-1" d="M31.86,25.12c1.26,2.7,2.44,5.15,3.56,7.64.4.89.02,1.68-.88,2.1-.95.45-1.75.29-2.19-.6-1.18-2.4-2.3-4.83-3.53-7.43,1.4.15,2.48-.2,3.04-1.71Z"/>
      <path class="cls-1" d="M10.99,26.86c-1.19,2.53-2.29,4.91-3.43,7.28-.47.97-1.28,1.19-2.27.72-.93-.45-1.26-1.21-.83-2.16.82-1.82,1.67-3.62,2.53-5.42.08-.17.29-.39.44-.4,1.14-.03,2.28-.02,3.56-.02Z"/>
    </g>
  </g>
</svg>