<?xml version="1.0" encoding="UTF-8"?>
<svg id="_レイヤー_2" xmlns="http://www.w3.org/2000/svg" version="1.1" viewBox="0 0 77.9 76.6">
  <!-- Generator: Adobe Illustrator 30.1.0, SVG Export Plug-In . SVG Version: 2.1.1 Build 136)  -->
  <defs>
    <style>
      .st0 {
        fill: #595757;
      }
    </style>
  </defs>
  <path class="st0" d="M69,68.8v-26.7c0-.4-.2-.7-.5-.9-7.9-5.7-21-5.9-29.2-.4-8.2-5.4-21.3-5.3-29.2.4-.3.2-.5.5-.5.9v26.7c0,.1,0,.3,0,.5l2.5,6.1c.1.3.4.5.7.6.1,0,.2,0,.4,0,.2,0,.4,0,.6-.2,6.8-4,15.5-4.2,22.3-.7.2,0,.3.1.5.1h5.3c.2,0,.4,0,.5-.1,6.8-3.6,15.5-3.3,22.3.7.2,0,.4.2.6.2s.2,0,.4,0c.3-.1.5-.3.7-.6l2.5-6.1c0-.1,0-.4,0-.5ZM12.2,69.3c7.2-4.7,19-4.6,26.1.2v.8c-7.1-4-17.7-4-25.7.1l-.4-1.1ZM40.5,69.4c7.1-4.8,18.9-4.9,26.1-.2l-.4,1.1c-7.9-4.1-18.5-4.1-25.7-.1v-.8ZM66.8,42.8v24.1c-3.8-2.2-8.5-3.3-13.2-3.3s-9.4,1.1-13.2,3.3v-24.1c7.2-4.8,19.2-4.8,26.3,0ZM11.9,42.8c7.2-4.8,19.2-4.8,26.3,0v24.1c-3.8-2.2-8.5-3.3-13.2-3.3s-9.4,1.1-13.2,3.3v-24.1ZM13.9,73.5l-.4-1.1c7.6-4,18.4-3.9,24.8.4v.4h-1.3c-7.1-3.6-15.8-3.5-23.1.2ZM41.8,73.2h-1.3v-.4c6.4-4.3,17.2-4.5,24.8-.4l-.4,1.1c-7.3-3.8-16-3.9-23.1-.2Z"/>
  <path class="st0" d="M33.9,26.1c0,.5,0,4.7,0,4.7,0,1.9,1.5,3.4,3.4,3.4h.2c.3.8,1,1.4,1.9,1.4s1.7-.6,1.9-1.4h.1c1.9,0,3.4-1.5,3.4-3.4,0,0,0-4.2,0-4.6,0,0,0-1.7,1.7-4.3,1.6-2.3,1.8-4.1,1.8-5.6,0-2.4-.9-4.5-2.6-6.2-1.7-1.7-4-2.6-6.5-2.6,0,0,0,0,0,0-2.5,0-4.8.9-6.5,2.6-1.7,1.6-2.6,3.8-2.6,6.2s.2,3.2,1.8,5.6c1.8,2.6,1.7,4.3,1.7,4.3ZM41.4,32h-4.2c-.6,0-1.2-.5-1.2-1.2v-3.3h6.5v3.3c0,.6-.5,1.2-1.2,1.2ZM34.4,11.7c1.2-1.2,2.9-1.9,4.7-1.9h.5c1.8,0,3.5.7,4.7,1.9,1.2,1.2,1.9,2.8,1.9,4.6s-.2,2.6-1.4,4.3c-1.4,2-1.9,3.7-2,4.7h-6.7c-.2-1-.6-2.6-2-4.7-1.2-1.7-1.4-3-1.4-4.3s.7-3.4,1.9-4.6Z"/>
  <path class="st0" d="M37.5,14.8c.6-.6,1.4-.9,2.3-.9v-2.2c-1.5,0-2.8.5-3.8,1.5-1,.9-1.5,2.2-1.5,3.6h2.2c0-.8.3-1.5.8-2Z"/>
  <rect class="st0" x="38.3" y=".3" width="2.2" height="3.9"/>
  <rect class="st0" x="31.2" y="2.2" width="2.2" height="3.9" transform="translate(2.3 16.7) rotate(-30)"/>
  <rect class="st0" x="26" y="7.3" width="2.2" height="3.9" transform="translate(5.5 28.1) rotate(-60)"/>
  <rect class="st0" x="49.7" y="8.3" width="3.9" height="2.2" transform="translate(2.2 27.1) rotate(-30)"/>
  <rect class="st0" x="44.5" y="3.1" width="4" height="2.2" transform="translate(19.6 42.4) rotate(-60)"/>
</svg>