<?xml version="1.0" encoding="UTF-8"?>
<svg id="_レイヤー_2" data-name="レイヤー 2" xmlns="http://www.w3.org/2000/svg" viewBox="0 0 62.34 53.24">
  <defs>
    <style>
      .cls-1 {
        fill: #040000;
      }
    </style>
  </defs>
  <g id="_レイヤー_1-2" data-name="レイヤー 1">
    <g>
      <path class="cls-1" d="M60.95,12.96C59.39,3.3,51.29.65,48.75.2c-3.36-.59-8.77,0-13.07,3.31-3.34,2.57-5.06,4.76-5.06,4.76,0,0-1.73-2.19-5.06-4.76C21.26.2,15.85-.39,12.49.2,9.96.65,1.85,3.3.29,12.96c-1.8,11.11,4.97,18.73,16.13,28.52,6.12,5.37,14.2,11.75,14.2,11.75,0,0,8.09-6.39,14.2-11.75,11.16-9.79,17.93-17.42,16.13-28.52Z"/>
      <path class="cls-1" d="M61.35,53.23h-24.05c-.07.08,7.89-6.42,13.39-11.12,7.98-6.83,11.65-11.59,11.65-11.59v21.74c0,.98-.99.96-.99.96Z"/>
    </g>
  </g>
</svg>