<?xml version="1.0" encoding="UTF-8"?>
<svg id="_レイヤー_2" data-name="レイヤー 2" xmlns="http://www.w3.org/2000/svg" viewBox="0 0 135 177.01">
  <defs>
    <style>
      .cls-1 {
        fill: #323232;
      }
    </style>
  </defs>
  <g id="_レイヤー_1-2" data-name="レイヤー 1">
    <path class="cls-1" d="M31.53,177.01c-1.84-4.4-5.2-11.76-9.08-20.25-6.94-15.17-17.42-38.1-17.9-42.23-.06-.5-.09-.98-.11-1.46l3.49,6.08c.72,1.3,1.93,2.08,3.24,2.08.76,0,1.5-.26,2.13-.77l5.82-4.59c.86-.68,1.46-1.72,1.66-2.94.21-1.21,0-2.45-.59-3.53l-3.54-6.17c.87.54,1.68,1.24,2.4,2.12,2.79,3.37,17.9,28.64,23.49,38.1.55.93,1.53,1.33,2.44,1,.91-.33,1.54-1.32,1.57-2.45l.85-35.8,1.43-75.16c.03-1.28.23-2.49.58-3.61l-.03,5.17c-.01,1.14.34,2.22,1.01,3.02.64.78,1.5,1.21,2.41,1.21h5.71c.91,0,1.76-.43,2.41-1.21.66-.8,1.02-1.87,1.01-3.02l-.03-5.59c.44,1.23.7,2.6.73,4.05l2.2,83.81c.04,1.42,1.01,2.56,2.21,2.56h0c1.19,0,2.17-1.14,2.2-2.56l2.27-97.23c.03-1.26.25-2.45.61-3.53l-.03,4.68c-.02,1.11.34,2.15.99,2.95.68.83,1.6,1.29,2.6,1.29h6.23c.99,0,1.91-.46,2.6-1.29.65-.8,1.01-1.84.99-2.95l-.03-4.92c.43,1.15.69,2.42.72,3.76l2.27,96.7c.03,1.43,1.01,2.56,2.2,2.56h0c1.19,0,2.17-1.13,2.21-2.56l2.01-82.21c.02-1.44.21-2.79.53-4.01l-.02,5.23c-.01,1.19.37,2.31,1.06,3.15.68.82,1.57,1.27,2.53,1.27h6.2c.95,0,1.85-.45,2.53-1.27.69-.84,1.07-1.96,1.06-3.15l-.02-4.96c.31,1.17.5,2.43.53,3.77l2.42,85.23c.04,1.42,1.02,2.55,2.2,2.55.02,0,.04,0,.06,0,1.21-.04,2.17-1.24,2.15-2.69l-.98-58.07c.02-1.5.54-3.06,1.35-4.41l-.02,5.6c0,1.06.33,2.06.95,2.81.61.74,1.42,1.14,2.28,1.14h5.15c.86,0,1.67-.4,2.28-1.14.62-.75.96-1.75.95-2.81v-4.61c.33.94.54,1.96.55,3l1.97,52.8c0,1.77.07,45.53-3.59,65.47h4.51c3.62-21.24,3.5-63.68,3.49-65.54l-1.98-52.88c-.06-4.54-2.21-8.7-5.24-11-.71-2.89-2.93-5.01-5.54-5.01s-4.75,2.04-5.5,4.85c-.93.66-1.8,1.48-2.57,2.42l-.51-17.84c-.1-5.58-2.21-10.39-5.39-13.18-.95-3.06-3.38-5.25-6.21-5.25s-5.04,1.99-6.07,4.83c-2.54,2.05-4.39,5.43-5.15,9.64l-.25-10.58c-.13-4.99-2.27-9.38-5.41-11.9-.77-3.2-3.36-5.58-6.39-5.58s-5.63,2.39-6.4,5.6c-3.09,2.5-5.17,6.84-5.3,11.88l-.26,10.95c-.64-4.41-2.7-8.1-5.53-10.21-.98-2.62-3.15-4.45-5.65-4.45s-4.77,1.92-5.72,4.63c-3.22,2.54-5.41,7.15-5.52,12.53l-1.43,75.15-.66,27.91c-6.07-10.18-17.46-29.1-20.14-32.33-2.78-3.36-6.51-5.04-10.15-4.87-1.1-.75-2.35-1.17-3.65-1.17-1.44,0-2.84.5-4.05,1.45-2.45,1.93-3.61,5.32-3.22,8.6-1.02,2.79-1.37,6.05-.95,9.61.56,4.71,7.98,21.22,18.4,44.02,3.22,7.06,6.09,13.33,8,17.72h4.95Z"/>
  </g>
</svg>