<?xml version="1.0" encoding="UTF-8"?>
<svg id="_レイヤー_2" data-name="レイヤー 2" xmlns="http://www.w3.org/2000/svg" viewBox="0 0 178.11 39.35">
  <defs>
    <style>
      .cls-1 {
        fill: #fff;
      }
    </style>
  </defs>
  <g id="_レイヤー_1-2" data-name="レイヤー 1">
    <g>
      <path class="cls-1" d="M3.8.36c-.24,1.32-.36,2.8-.36,4.48v21.44c0,1.76.12,3.12.36,4.48H0c.24-1.48.32-2.48.32-4.48V4.84C.32,2.84.24,1.8,0,.36h3.8Z"/>
      <path class="cls-1" d="M10.96,11.76c-1.4,0-2.4.08-3.64.24v-3.04c1.08.16,2.04.24,3.64.24h1.64v-2.36c0-2.44.32-3.72,1.24-4.88.96-1.24,2.8-1.96,5.04-1.96,1.56,0,2.8.24,4.24.8l-.84,2.68c-1.08-.64-2.08-.92-3.32-.92s-2.2.36-2.72,1.08c-.44.64-.6,1.48-.6,3.36v2.2h2c1.72,0,2.76-.04,4.24-.24v3.04c-1.36-.2-2.28-.24-4.24-.24h-2v14.52c0,1.88.08,3,.28,4.48h-3.6c.2-1.48.28-2.84.28-4.52v-14.48h-1.64Z"/>
      <path class="cls-1" d="M26.4,30.75c.2-1.44.28-2.52.28-4.52V4.88c0-2-.08-3.04-.28-4.52h3.56c-.24,1.48-.32,2.52-.32,4.56v6.76c0,.64,0,.96-.12,2,.8-1.32,1.24-1.92,2.2-2.72,1.72-1.48,3.56-2.16,6-2.16,4.68,0,7.48,2.76,7.48,7.44v10.04c0,1.84.08,3,.28,4.48h-3.6c.2-1.32.28-2.52.28-4.52v-9.44c0-3.48-1.72-5.36-4.84-5.36-2.24,0-4.08.96-5.64,2.92-1.12,1.44-1.64,2.52-2,4.2v7.68c0,1.76.08,2.96.28,4.52h-3.56Z"/>
      <path class="cls-1" d="M66.88,33.55c.56.76.8,1.04,1.28,1.4,1.52,1.32,3.2,1.88,5.36,1.88,3.48,0,5.92-1.52,6.96-4.4.4-1.16.56-2.6.72-5.92-.6,1.08-1.04,1.6-1.72,2.2-1.52,1.36-3.76,2.08-6.2,2.08-6.04,0-9.88-4.2-9.88-10.88s3.92-11.12,10.12-11.12c3.48,0,6.04,1.4,7.68,4.2-.04-.68-.08-1-.08-1.52v-2.28h3.2c-.2,1.56-.28,2.6-.28,4.48v14.32c0,3.92-.72,6.44-2.32,8.32-1.68,1.96-4.68,3.04-8.32,3.04-3.96,0-6.44-1.12-9.08-4l2.56-1.8ZM73.44,28.28c4.56,0,7.6-3.48,7.6-8.68s-2.88-8.28-7.36-8.28-7.16,3.28-7.16,8.6,2.64,8.36,6.92,8.36Z"/>
      <path class="cls-1" d="M103,12.28c-1.52-.48-2.24-.6-3.24-.6-2.04,0-3.72.84-4.92,2.44-.96,1.24-1.32,2.2-1.48,4v8.16c0,1.8.08,2.92.28,4.48h-3.6c.2-1.84.28-2.88.28-4.52v-12.52c0-2-.08-3.08-.28-4.52h3.32v2.28c0,.32,0,.92-.04,1.2.76-1.24,1.36-1.88,2.2-2.44,1.52-1,2.88-1.4,4.8-1.4,1.2,0,1.88.08,3.56.36l-.88,3.08Z"/>
      <path class="cls-1" d="M106.24,20c0-6.92,4.16-11.32,10.68-11.32s10.64,4.4,10.64,11.28-4.16,11.32-10.6,11.32-10.72-4.36-10.72-11.28ZM109.32,19.92c0,5.44,2.92,8.76,7.6,8.76s7.56-3.32,7.56-8.72-2.88-8.76-7.48-8.76-7.68,3.32-7.68,8.72Z"/>
      <path class="cls-1" d="M147.96,28.16c0-.44,0-.72.12-1.76-2,3.28-4.48,4.76-8.08,4.76-2.88,0-5.12-1.04-6.4-2.96-.72-1.16-1.12-2.72-1.12-4.64v-9.88c0-1.8-.08-3.2-.28-4.48h3.6c-.2,1.4-.28,2.76-.28,4.52v9.32c0,3.56,1.72,5.56,4.84,5.56,2.28,0,4.16-1,5.76-3.16,1.04-1.4,1.48-2.4,1.84-4v-7.72c0-1.72-.08-3.12-.28-4.52h3.56c-.2,1.4-.28,2.68-.28,4.52v12.52c0,1.8.08,2.92.32,4.52h-3.32v-2.6Z"/>
      <path class="cls-1" d="M156.96,39.15c.2-1.56.28-2.84.28-4.48V13.8c0-1.92-.08-3.08-.28-4.6h3.2v2.28c0,.52-.04.96-.12,1.64,1.8-2.84,4.6-4.32,8.16-4.32,6.16,0,9.92,4.2,9.92,11.16s-3.84,11.16-9.84,11.16c-3.52,0-6.36-1.48-8.24-4.24.12,1.12.16,1.72.16,2.8v4.96c0,1.88.08,3.04.28,4.52h-3.52ZM175,19.96c0-5.44-2.56-8.56-7.04-8.56s-7.72,3.44-7.72,8.6c0,2.6.84,5,2.28,6.4,1.4,1.36,3.4,2.12,5.48,2.12,4.36,0,7-3.24,7-8.56Z"/>
    </g>
  </g>
</svg>