<?xml version="1.0" encoding="UTF-8"?>
<svg id="_レイヤー_2" data-name="レイヤー 2" xmlns="http://www.w3.org/2000/svg" viewBox="0 0 210.43 210.43">
  <defs>
    <style>
      .cls-1 {
        fill: #313232;
      }
    </style>
  </defs>
  <g id="_レイヤー_1-2" data-name="レイヤー 1">
    <g>
      <path class="cls-1" d="M105.22,0C47.2,0,0,47.2,0,105.22s47.2,105.22,105.22,105.22,105.22-47.2,105.22-105.22S163.23,0,105.22,0ZM108.87,203.87v-15.01h-6.49v15.04c-51.84-1.47-93.81-43.1-95.81-94.81h15.29v-6.49H6.52C7.89,50.31,50.12,8.01,102.38,6.53v15.04h6.49V6.56c51.88,1.9,93.68,44.02,95.04,96.04h-15.34v6.49h15.29c-2,51.44-43.52,92.89-94.99,94.78Z"/>
      <path class="cls-1" d="M152.37,101.97h-43.91v-62.19c0-1.79-1.45-3.24-3.24-3.24s-3.24,1.45-3.24,3.24v65.43c0,1.79,1.45,3.24,3.24,3.24h47.15c1.79,0,3.24-1.45,3.24-3.24s-1.45-3.24-3.24-3.24Z"/>
    </g>
  </g>
</svg>