<?xml version="1.0" encoding="UTF-8"?>
<svg id="_レイヤー_2" data-name="レイヤー 2" xmlns="http://www.w3.org/2000/svg" viewBox="0 0 19.52 48.41">
  <defs>
    <style>
      .cls-1 {
        fill: #595757;
      }
    </style>
  </defs>
  <g id="_レイヤー_1-2" data-name="レイヤー 1">
    <g>
      <path class="cls-1" d="M12.87,48.41c-1.74-.53-2.09-1.53-2.35-3.18-.48-2.95-.69-5.96-1.15-8.92H.69c-1.49-4.74-.58-10.14,2.98-13.69.27-.27,1.4-1.09,1.5-1.24.22-.34.54-1.72.77-2.26,1.12-2.65,3.42-5.84,6.13-7.01,1.49-.65,3.74-1.03,5.07.16.28.25.76,1.05.76,1.41v22.63h-1.13v9.78c0,.08-.25.7-.31.82-.39.75-1.09,1.2-1.86,1.49h-1.7Z"/>
      <path class="cls-1" d="M15.24.03c2.07.26,4.01,2.35,4.25,4.4.57,5.11-5.81,7.81-9.07,3.77C8.07,5.29,9.88.51,13.63.03c.35-.04,1.26-.04,1.61,0Z"/>
    </g>
  </g>
</svg>