<?xml version="1.0" encoding="UTF-8"?>
<svg id="_レイヤー_2" data-name="レイヤー 2" xmlns="http://www.w3.org/2000/svg" viewBox="0 0 42.77 40.91">
  <defs>
    <style>
      .cls-1 {
        fill: #595757;
      }
    </style>
  </defs>
  <g id="_レイヤー_1-2" data-name="レイヤー 1">
    <g>
      <path class="cls-1" d="M42.77,9.93c-.55.58-1.06,1.19-1.65,1.73-.62.58-1.05,1.2-1.23,2.08-1.52,7.31-6.78,13.44-14.73,14.98-8.73,1.69-16.89-2.28-20.75-10.38-.72-1.52-1.07-3.2-1.65-4.79-.21-.57-.55-1.11-.89-1.62-.18-.27-.49-.44-.75-.66-1.19-1.03-1.37-1.66-.86-3.16.14-.42.3-.84.48-1.25.75-1.68.93-1.72,2.78-1.69.6.01,1.3-.21,1.78-.56C8.97,1.91,13.12.68,17.57.22c5.08-.52,10.07-.18,14.86,1.7,1.56.62,3.02,1.51,4.47,2.39.91.55,1.76,1.03,2.87.81.88-.17,1.52.22,1.87,1.04.39.91.75,1.84,1.13,2.76v1ZM30,3.36c-1.19-.28-2.19-.5-3.17-.77-.58-.16-.98,0-1.4.42-3.44,3.33-6.92,6.63-10.35,9.97-1.03,1.01-1.94,2.14-2.9,3.2.79.22,1.81.48,2.8.78.51.16.86.04,1.25-.34,2.81-2.74,5.65-5.45,8.48-8.17,1.7-1.64,3.4-3.28,5.29-5.1ZM35.36,6.21c-1.16-.73-2.17-1.38-3.18-2.02-4.63,4.45-9.18,8.81-13.72,13.18.03.09.06.17.08.26,1.57,0,3.15.02,4.72-.02.2,0,.42-.24.6-.41,2.8-2.67,5.59-5.35,8.38-8.03.98-.94,1.97-1.88,3.11-2.96ZM7.18,13.1c.7.55,1.32,1.01,1.91,1.52.53.46.9.36,1.4-.12,4.05-3.93,8.14-7.83,12.21-11.74.14-.14.25-.3.4-.49-2.68-.4-5.13-.36-6.85,2.08-.16.22-.4.39-.6.58-2.78,2.68-5.56,5.37-8.47,8.17ZM27.18,16.92c.02.09.04.17.06.26,1.29-.39,2.6-.72,3.87-1.18,2.09-.77,3.98-1.86,5.26-3.77.9-1.36.94-3.1.07-4.19-3.09,2.96-6.17,5.93-9.26,8.89ZM14.54,3.1c-2.14.39-4.08,1.15-5.84,2.36-1.22.84-2.22,1.86-2.63,3.33-.21.74-.26,1.49.1,2.34,2.86-2.74,5.61-5.39,8.37-8.03Z"/>
      <path class="cls-1" d="M11.13,27.85c1.25.45,2.37.86,3.57,1.3-.46,1.19-.92,2.37-1.42,3.65h16.17c-.46-1.17-.91-2.32-1.37-3.51,1.14-.53,2.27-1.06,3.44-1.61.1.24.2.46.28.69,1.11,3.26,2.21,6.53,3.31,9.79.1.29.19.59.23.89.11.73-.35,1.55-.97,1.77-.72.26-1.55,0-1.91-.76-.55-1.15-1.05-2.33-1.46-3.54-.25-.75-.65-.93-1.4-.93-5.51.03-11.03.03-16.54,0-.7,0-1.04.21-1.26.87-.37,1.08-.82,2.13-1.27,3.17-.46,1.07-1.21,1.48-2.08,1.19-.82-.27-1.27-1.18-.93-2.21,1.18-3.58,2.41-7.15,3.63-10.76Z"/>
    </g>
  </g>
</svg>