<?xml version="1.0" encoding="UTF-8"?>
<svg id="_レイヤー_2" data-name="レイヤー 2" xmlns="http://www.w3.org/2000/svg" viewBox="0 0 187.26 170.3">
  <defs>
    <style>
      .cls-1 {
        fill: #323232;
      }
    </style>
  </defs>
  <g id="_レイヤー_1-2" data-name="レイヤー 1">
    <g>
      <path class="cls-1" d="M161.38,118.53c-3.24,0-6.34.6-9.19,1.69l-16.66-35.07c1.57-1.52,2.55-3.65,2.55-6.01,0-4.63-3.75-8.37-8.37-8.37-.33,0-.65.02-.97.06L95.8,1.53c-.64-1.34-2.24-1.91-3.58-1.27-1.34.64-1.91,2.24-1.27,3.58l32.92,69.3c-1.57,1.52-2.55,3.65-2.55,6.01,0,4.63,3.75,8.37,8.37,8.37.33,0,.65-.02.97-.06l16.72,35.19c-7.15,4.61-11.89,12.64-11.89,21.76,0,14.27,11.61,25.88,25.88,25.88s25.88-11.61,25.88-25.88-11.61-25.88-25.88-25.88ZM161.38,164.92c-11.31,0-20.51-9.2-20.51-20.51s9.2-20.51,20.51-20.51,20.51,9.2,20.51,20.51-9.2,20.51-20.51,20.51Z"/>
      <path class="cls-1" d="M121.51,90.12l-14.3,30.1c-2.86-1.09-5.96-1.69-9.19-1.69-14.27,0-25.88,11.61-25.88,25.88s11.61,25.88,25.88,25.88,25.88-11.61,25.88-25.88c0-9.12-4.75-17.15-11.89-21.76l14.36-30.22c-1.78-.45-3.42-1.24-4.85-2.31ZM118.52,144.42c0,11.31-9.2,20.51-20.51,20.51s-20.51-9.2-20.51-20.51,9.2-20.51,20.51-20.51,20.51,9.2,20.51,20.51Z"/>
      <path class="cls-1" d="M168.45,3.84c.64-1.34.07-2.94-1.27-3.58-1.34-.64-2.94-.07-3.58,1.27l-30.56,64.33c1.78.45,3.42,1.24,4.85,2.31L168.45,3.84Z"/>
      <path class="cls-1" d="M38.55,0H2.69C1.2,0,0,1.2,0,2.69s1.2,2.69,2.69,2.69h35.86c3.92,0,7.12,3.19,7.12,7.12v149.24c0,1.76-1.43,3.2-3.19,3.2h-8.26c-1.76,0-3.2-1.43-3.2-3.2v-74.45c0-1.48-1.2-2.69-2.69-2.69H2.69c-1.48,0-2.69,1.2-2.69,2.69s1.2,2.69,2.69,2.69h22.96v71.76c0,4.73,3.84,8.57,8.57,8.57h8.26c4.72,0,8.57-3.84,8.57-8.57V12.49C51.04,5.6,45.44,0,38.55,0Z"/>
      <path class="cls-1" d="M2.69,15.73h24.89c1.48,0,2.69-1.2,2.69-2.69s-1.2-2.69-2.69-2.69H2.69c-1.48,0-2.69,1.2-2.69,2.69s1.2,2.69,2.69,2.69Z"/>
      <path class="cls-1" d="M2.69,26.31h24.89c1.48,0,2.69-1.2,2.69-2.69s-1.2-2.69-2.69-2.69H2.69c-1.48,0-2.69,1.2-2.69,2.69s1.2,2.69,2.69,2.69Z"/>
      <path class="cls-1" d="M2.69,36.9h24.89c1.48,0,2.69-1.2,2.69-2.69s-1.2-2.69-2.69-2.69H2.69c-1.48,0-2.69,1.2-2.69,2.69s1.2,2.69,2.69,2.69Z"/>
      <path class="cls-1" d="M2.69,47.49h24.89c1.48,0,2.69-1.2,2.69-2.69s-1.2-2.69-2.69-2.69H2.69c-1.48,0-2.69,1.2-2.69,2.69s1.2,2.69,2.69,2.69Z"/>
      <path class="cls-1" d="M2.69,58.07h24.89c1.48,0,2.69-1.2,2.69-2.69s-1.2-2.69-2.69-2.69H2.69c-1.48,0-2.69,1.2-2.69,2.69s1.2,2.69,2.69,2.69Z"/>
      <path class="cls-1" d="M2.69,68.66h24.89c1.48,0,2.69-1.2,2.69-2.69s-1.2-2.69-2.69-2.69H2.69c-1.48,0-2.69,1.2-2.69,2.69s1.2,2.69,2.69,2.69Z"/>
      <path class="cls-1" d="M2.69,79.25h24.89c1.48,0,2.69-1.2,2.69-2.69s-1.2-2.69-2.69-2.69H2.69c-1.48,0-2.69,1.2-2.69,2.69s1.2,2.69,2.69,2.69Z"/>
    </g>
  </g>
</svg>