<?xml version="1.0" encoding="UTF-8"?>
<svg id="_レイヤー_2" data-name="レイヤー 2" xmlns="http://www.w3.org/2000/svg" viewBox="0 0 225 178.9">
  <defs>
    <style>
      .cls-1 {
        fill: #323232;
      }
    </style>
  </defs>
  <g id="_レイヤー_1-2" data-name="レイヤー 1">
    <g>
      <path class="cls-1" d="M185.06,36.47c10.05,0,18.23-8.18,18.23-18.23S195.12,0,185.06,0s-18.23,8.18-18.23,18.23,8.18,18.23,18.23,18.23ZM185.06,5c7.3,0,13.23,5.94,13.23,13.23s-5.94,13.23-13.23,13.23-13.23-5.94-13.23-13.23,5.94-13.23,13.23-13.23Z"/>
      <path class="cls-1" d="M202.75,38.12h-31.29c-10.67,0-20.68,7.81-26.15,20.43l-13.64,33.55c-.73,1.79-.79,3.74-.3,5.55-.14,0-.28-.02-.42-.02-2.2,0-4.27.86-5.82,2.41l-14.34,14.32h-11.23l-14.34-14.32c-1.23-1.23-2.79-2.02-4.48-2.3.25-1.44.13-2.95-.42-4.36l-7.72-21.81c-4.94-13.31-15.01-20.34-29.1-20.34h-23.15c-11.22,0-20.34,9.13-20.34,20.34v34.74c0,4.47,3.63,8.1,8.1,8.1h6.49v56.38c0,4.47,3.63,8.1,8.1,8.1h8.34c2.54,0,4.6-2.06,4.6-4.6v-51.06h1.38v51.06c0,2.54,2.06,4.6,4.6,4.6h8.34c4.47,0,8.1-3.63,8.1-8.1v-83.29l7.86,13.09c1.2,1.95,3.15,3.28,5.39,3.7-.1.51-.15,1.03-.15,1.56,0,2.2.86,4.27,2.41,5.82l14.52,14.49v46.05c0,3.68,2.99,6.67,6.67,6.67h5.65c2.24,0,4.06-1.82,4.06-4.06v-23.79h1.41v23.79c0,2.24,1.82,4.06,4.06,4.06h5.64c3.68,0,6.67-2.99,6.67-6.67v-46.05l14.52-14.5c1.56-1.55,2.41-3.62,2.41-5.82,0-.63-.08-1.25-.21-1.84.63.05,1.27.04,1.91-.05,2.59-.35,4.86-1.83,6.22-4.05l14.18-23.06v93.34c0,4.8,3.9,8.7,8.7,8.7h9.43c2.66,0,4.83-2.16,4.83-4.82v-56.79h1.66v56.79c0,2.66,2.16,4.82,4.82,4.82h9.43c4.8,0,8.7-3.9,8.7-8.7v-62.67h7.45c4.8,0,8.7-3.9,8.7-8.7v-38.46c0-12.27-9.98-22.25-22.25-22.25ZM70.19,98.01l-12.49-20.8c-.58-.96-1.73-1.42-2.81-1.12-1.08.3-1.83,1.29-1.83,2.41v92.31c0,1.71-1.39,3.1-3.1,3.1h-7.94v-55.66h-11.38v55.66h-7.94c-1.71,0-3.1-1.39-3.1-3.1v-96.19h-5v34.82h-6.49c-1.71,0-3.1-1.39-3.1-3.1v-34.74c0-8.46,6.88-15.34,15.34-15.34h23.15c11.99,0,20.2,5.75,24.4,17.05l7.72,21.82s.03.07.04.11c.48,1.18.17,2.55-.76,3.42-.68.63-1.6.92-2.51.8-.92-.12-1.72-.65-2.2-1.42ZM133.23,108.15l-15.98,15.96v48.13c0,.92-.75,1.67-1.67,1.67h-4.71v-27.85h-11.41v27.85h-4.71c-.92,0-1.67-.75-1.67-1.67v-48.13l-15.98-15.96c-.61-.61-.95-1.42-.95-2.29s.34-1.68.95-2.29c1.22-1.22,3.35-1.22,4.58,0l15.8,15.78h15.36l15.81-15.78c1.22-1.22,3.35-1.22,4.57,0,1.26,1.26,1.26,3.31,0,4.57ZM220,98.83c0,2.04-1.66,3.7-3.7,3.7h-7.45v-38.81h-5v106.48c0,2.04-1.66,3.7-3.7,3.7h-9.26v-61.61h-11.66v61.61h-9.26c-2.04,0-3.7-1.66-3.7-3.7v-102.18c0-1.12-.74-2.1-1.82-2.41-1.08-.3-2.22.14-2.81,1.1l-18.81,30.58c-.58.94-1.54,1.57-2.64,1.72-1.1.15-2.19-.2-3-.95-1.11-1.03-1.47-2.67-.9-4.08l13.62-33.5c4.64-10.71,12.9-17.36,21.54-17.36h31.29c9.51,0,17.25,7.74,17.25,17.25v38.46Z"/>
      <path class="cls-1" d="M36.32,50.23c9.22,0,16.71-7.5,16.71-16.71s-7.5-16.71-16.71-16.71-16.71,7.5-16.71,16.71,7.5,16.71,16.71,16.71ZM36.32,21.8c6.46,0,11.71,5.25,11.71,11.71s-5.25,11.71-11.71,11.71-11.71-5.25-11.71-11.71,5.25-11.71,11.71-11.71Z"/>
      <path class="cls-1" d="M105.43,113.78c7.21,0,13.08-5.87,13.08-13.08s-5.87-13.08-13.08-13.08-13.08,5.87-13.08,13.08,5.87,13.08,13.08,13.08ZM105.43,92.62c4.46,0,8.08,3.63,8.08,8.08s-3.63,8.08-8.08,8.08-8.08-3.63-8.08-8.08,3.63-8.08,8.08-8.08Z"/>
    </g>
  </g>
</svg>