<?xml version="1.0" encoding="UTF-8"?>
<svg id="_レイヤー_2" data-name="レイヤー 2" xmlns="http://www.w3.org/2000/svg" viewBox="0 0 226.5 216.25">
  <defs>
    <style>
      .cls-1 {
        fill: #323232;
      }
    </style>
  </defs>
  <g id="_レイヤー_1-2" data-name="レイヤー 1">
    <g>
      <g>
        <rect class="cls-1" x="23.56" y="61.53" width="20.74" height="20.74" rx="4.57" ry="4.57"/>
        <rect class="cls-1" x="63.82" y="61.53" width="20.74" height="20.74" rx="4.57" ry="4.57"/>
        <rect class="cls-1" x="104.07" y="61.53" width="20.74" height="20.74" rx="4.57" ry="4.57"/>
        <rect class="cls-1" x="144.33" y="61.53" width="20.74" height="20.74" rx="4.57" ry="4.57"/>
        <path class="cls-1" d="M28.14,101.79h11.59c2.52,0,4.57,2.05,4.57,4.57v11.59c0,2.52-2.05,4.57-4.57,4.57h-11.59c-2.52,0-4.57-2.05-4.57-4.57v-11.59c0-2.52,2.05-4.57,4.57-4.57Z"/>
        <path class="cls-1" d="M68.39,101.79h11.59c2.52,0,4.57,2.05,4.57,4.57v11.59c0,2.52-2.05,4.57-4.57,4.57h-11.59c-2.52,0-4.57-2.05-4.57-4.57v-11.59c0-2.52,2.05-4.57,4.57-4.57Z"/>
        <path class="cls-1" d="M108.65,101.79h11.59c2.52,0,4.57,2.05,4.57,4.57v11.59c0,2.52-2.05,4.57-4.57,4.57h-11.59c-2.52,0-4.57-2.05-4.57-4.57v-11.59c0-2.52,2.05-4.57,4.57-4.57Z"/>
        <rect class="cls-1" x="23.56" y="142.04" width="20.74" height="20.74" rx="4.57" ry="4.57"/>
        <rect class="cls-1" x="63.82" y="142.04" width="20.74" height="20.74" rx="4.57" ry="4.57"/>
        <circle class="cls-1" cx="94.31" cy="22.33" r="7.3"/>
        <path class="cls-1" d="M16.06,179.84c-5.27,0-9.56-4.29-9.56-9.56V44.75h175.62v59.06c2.21.28,4.37.68,6.5,1.2V16.06c0-8.85-7.2-16.06-16.06-16.06H16.06C7.2,0,0,7.2,0,16.06v154.22c0,8.85,7.2,16.06,16.06,16.06h101.71c-.83-2.11-1.56-4.28-2.15-6.5H16.06ZM6.5,16.06c0-5.27,4.29-9.56,9.56-9.56h156.51c5.27,0,9.56,4.29,9.56,9.56v22.19H6.5v-22.19Z"/>
        <path class="cls-1" d="M174.34,111.93c-28.76,0-52.16,23.4-52.16,52.16s23.4,52.16,52.16,52.16,52.16-23.4,52.16-52.16-23.4-52.16-52.16-52.16ZM174.34,209.75c-25.18,0-45.66-20.48-45.66-45.66s20.48-45.66,45.66-45.66,45.66,20.48,45.66,45.66-20.48,45.66-45.66,45.66Z"/>
      </g>
      <g>
        <path class="cls-1" d="M158.92,136c0-1.2-.06-2.24-.2-3.28h3.64c-.14,1.01-.2,2.02-.2,3.28v5.07h5.57c1.6,0,2.55-.06,3.61-.17v3.28c-1.09-.11-2.13-.17-3.61-.17h-5.57v10.14h7.34c1.6,0,2.91-.06,3.92-.17v3.33c-1.12-.14-2.35-.2-3.92-.2h-17.36c-1.6,0-2.88.06-4,.2v-3.33c1.04.11,2.32.17,4,.17h6.78v-10.14h-5.07c-1.48,0-2.58.06-3.64.17v-3.28c.98.11,2.13.17,3.64.17h5.07v-5.07Z"/>
        <path class="cls-1" d="M179.02,136.79c0-1.09-.06-2.07-.14-3,.9.11,1.82.14,3.11.14h13.55c1.32,0,2.18-.03,3.02-.14-.11,1.06-.14,1.88-.14,2.86v18.09c0,1.46.06,2.38.17,3.39h-3.39v-1.68h-13.02v1.68h-3.33c.11-.95.17-2.07.17-3.39v-17.95ZM182.19,143.39h13.02v-6.5h-13.02v6.5ZM182.19,153.5h13.02v-7.17h-13.02v7.17Z"/>
        <path class="cls-1" d="M145.96,187.29c0,1.4.06,2.16.17,3.02h-3.28c.14-.9.17-1.6.17-3.02v-6.8c-1.09,1.06-1.74,1.6-3.22,2.69-.34-1.2-.64-1.96-1.29-3.08,1.76-1.06,2.88-2.04,4.37-3.67,1.43-1.54,2.21-2.69,3.16-4.59h-4.17c-1.04,0-1.65.03-2.35.11v-2.94c.64.08,1.18.11,2.18.11h1.32v-2.49c0-.76-.06-1.37-.17-2.18h3.28c-.08.64-.14,1.34-.14,2.21v2.46h.78c.81,0,1.32-.03,1.68-.08l1.4,1.62q-.28.48-1.26,2.58c-.34.73-1.12,1.96-1.99,3.19.98,1.01,2.16,1.88,3.86,2.83-.62.92-.95,1.57-1.4,2.74-1.18-.78-1.88-1.37-3.11-2.63v7.92ZM152.28,177.05c-.9,0-1.48.03-2.27.11.08-.76.11-1.37.11-2.35v-6.78c0-.81-.03-1.57-.11-2.41.76.08,1.43.11,2.63.11h8.29c1.15,0,1.79-.03,2.55-.11-.08.73-.11,1.48-.11,2.41v6.72c0,.95.03,1.68.11,2.41-.73-.08-1.37-.11-2.3-.11h-1.09v9.58c0,.45.17.53,1.01.53s1.15-.06,1.32-.25c.22-.28.25-.67.28-4.68,1.01.7,1.57.95,2.66,1.18-.2,4.68-.36,5.52-1.26,6.05-.56.36-1.68.5-3.58.5-1.71,0-2.35-.14-2.86-.64-.34-.34-.45-.73-.45-1.57v-10.7h-1.46c-.14,3.22-.48,4.96-1.37,7.14-.67,1.68-1.51,2.91-2.69,4.09-.9.87-1.54,1.32-3,2.13-.7-1.06-1.12-1.57-2.1-2.52,1.79-.78,2.72-1.43,3.75-2.66,1.65-1.96,2.44-4.51,2.55-8.18h-.62ZM153.07,174.33h7.39v-5.8h-7.39v5.8Z"/>
        <path class="cls-1" d="M185.13,168.51c2.04,2.04,3.14,5.1,3.14,8.74,0,7.08-4.12,11.68-10.47,11.68s-10.44-4.56-10.44-11.68c0-3.61,1.12-6.72,3.19-8.74,1.93-1.9,4.26-2.8,7.22-2.8s5.46.9,7.36,2.8ZM184.34,177.24c0-2.83-.78-5.1-2.21-6.52-1.15-1.12-2.63-1.71-4.31-1.71-4.03,0-6.58,3.19-6.58,8.26,0,2.8.81,5.15,2.27,6.61,1.15,1.12,2.63,1.71,4.34,1.71,4,0,6.5-3.19,6.5-8.34Z"/>
        <path class="cls-1" d="M208.2,184.89c1.68,2.27,1.99,2.66,2.8,3.56h-5.18c-.42-.84-1.12-2.02-1.76-2.94l-5.57-7.84-3.05,3.05v4.12c0,1.65.06,2.44.25,3.61h-4.14c.17-1.26.22-2.13.22-3.61v-15.06c0-1.51-.06-2.44-.22-3.61h4.14c-.17.92-.25,2.02-.25,3.61v6.52l7.14-7.42c1.09-1.12,1.62-1.79,2.18-2.72h5.29c-.81.81-1.74,1.71-2.97,2.97l-5.99,6.13,7.11,9.63Z"/>
      </g>
    </g>
  </g>
</svg>