<?xml version="1.0" encoding="UTF-8"?>
<svg id="_レイヤー_2" xmlns="http://www.w3.org/2000/svg" version="1.1" viewBox="0 0 77.9 76.6">
  <!-- Generator: Adobe Illustrator 30.1.0, SVG Export Plug-In . SVG Version: 2.1.1 Build 136)  -->
  <defs>
    <style>
      .st0 {
        fill: #595757;
      }
    </style>
  </defs>
  <path class="st0" d="M69.4,19.8h-9.5v-5.2c0-4.8-3.9-8.7-8.7-8.7h-24.9c-4.8,0-8.7,3.9-8.7,8.7v5.2h-9.5c-3.9,0-7.1,3.2-7.1,7.1v36c0,3.9,3.2,7.1,7.1,7.1h61.1c3.9,0,7.1-3.2,7.1-7.1V26.9c0-3.9-3.2-7.1-7.1-7.1ZM19.9,14.6c0-3.6,2.9-6.5,6.5-6.5h24.9c3.6,0,6.5,2.9,6.5,6.5v5.2H19.9v-5.2ZM13.1,67.8h-4.8c-2.7,0-4.9-2.2-4.9-4.9V26.9c0-2.7,2.2-4.9,4.9-4.9h4.8v45.8ZM20.8,67.8h-5.6V22h5.6v45.8ZM74.3,62.9c0,2.7-2.2,4.9-4.9,4.9h-4.8v-16.1l-1.6,1.6c-.2.2-.4.3-.6.5v14h-5.6v-16.2l-2.2-2.2v18.4h-31.7V22h31.7v4.9l1.6-.2c.2,0,.4,0,.6,0v-4.7h5.6v9.2l2.2,2.2v-11.4h4.8c2.7,0,4.9,2.2,4.9,4.9v36Z"/>
  <path class="st0" d="M57.4,29.1c-.2-.2-.6-.3-.9-.3l-7.6.9c-.5,0-.9.5-1,1l-.9,7.6c0,.3,0,.7.3.9l12.7,12.7c.2.2.5.3.8.3s.6-.1.8-.3l8.5-8.5c.4-.4.4-1.1,0-1.5l-12.7-12.7ZM60.8,49.5l-11.5-11.5.7-6.3,6.3-.7,11.5,11.5-7,7Z"/>
  <path class="st0" d="M52.4,34.1c-.6.6-.6,1.6,0,2.2.6.6,1.6.6,2.2,0,.6-.6.6-1.6,0-2.2-.6-.6-1.6-.6-2.2,0Z"/>
</svg>