<?xml version="1.0" encoding="UTF-8"?>
<svg id="_レイヤー_2" xmlns="http://www.w3.org/2000/svg" version="1.1" viewBox="0 0 77.9 76.6">
  <!-- Generator: Adobe Illustrator 30.1.0, SVG Export Plug-In . SVG Version: 2.1.1 Build 136)  -->
  <defs>
    <style>
      .st0 {
        fill: #595757;
      }
    </style>
  </defs>
  <g>
    <path class="st0" d="M64.8,28.5V8.8h-13.4v6.4h2.2v-4.2h8.9v16l-23-14.7c-.4-.2-.8-.2-1.2,0L.5,36.5l1.2,1.9L38.9,14.6l37.3,23.8,1.2-1.9-12.7-8.1Z"/>
    <path class="st0" d="M66,64.2h-3.7v-4.7c0-4.8-3.9-8.8-8.8-8.8s-6.2,1.9-7.7,4.6c-1.3-2-3.6-3.4-6.2-3.4s-4.8,1.3-6.1,3.2c-1.5-3.3-4.8-5.7-8.7-5.7s-9.5,4.3-9.5,9.5v5.2h-3.4v-29h-2.2v30.1c0,.6.5,1.1,1.1,1.1h56.4c.6,0,1.1-.5,1.1-1.1v-30.1h-2.2v29Z"/>
    <path class="st0" d="M30.4,42.4c0-3.1-2.5-5.7-5.7-5.7s-5.7,2.5-5.7,5.7,2.5,5.7,5.7,5.7,5.7-2.5,5.7-5.7Z"/>
    <path class="st0" d="M58.7,44.4c0-2.9-2.3-5.2-5.2-5.2s-5.2,2.3-5.2,5.2,2.3,5.2,5.2,5.2,5.2-2.3,5.2-5.2Z"/>
    <path class="st0" d="M39.6,50.6c3,0,5.4-2.4,5.4-5.4s-2.4-5.4-5.4-5.4-5.4,2.4-5.4,5.4,2.4,5.4,5.4,5.4Z"/>
  </g>
  <path class="st0" d="M34.3,31.3c-.7,0-1.3-.2-1.7-.5-.5-.3-.8-.8-1-1.3-.2-.6-.3-1.2-.3-1.9s.1-1.3.3-1.9c.2-.5.6-1,1-1.3.5-.3,1-.5,1.7-.5s1.3.2,1.7.5.8.8,1,1.3.3,1.2.3,1.9-.1,1.3-.3,1.9-.6,1-1,1.3-1,.5-1.7.5ZM44.6,24l-9.3,13h-2.6s9.3-13,9.3-13h2.7ZM33.6,27.6c0,.5,0,1,.2,1.3.1.3.3.5.6.5s.5-.2.6-.5c0-.3.1-.8.1-1.3s0-1-.1-1.3-.3-.4-.6-.4-.5.1-.6.4-.2.7-.2,1.3ZM42.4,37.5c-.7,0-1.3-.2-1.7-.5-.5-.3-.8-.8-1-1.3-.2-.6-.3-1.2-.3-1.9s.1-1.3.3-1.9c.2-.5.6-1,1-1.3.5-.3,1-.5,1.7-.5s1.3.2,1.7.5.8.8,1,1.3.3,1.2.3,1.9-.1,1.3-.3,1.9-.6,1-1,1.3c-.5.3-1,.5-1.7.5ZM41.6,33.8c0,.5,0,1,.2,1.3.1.3.3.5.6.5s.5-.2.6-.5c0-.3.1-.8.1-1.3s0-1-.1-1.3c0-.3-.3-.4-.6-.4s-.5.1-.6.4c-.1.3-.2.7-.2,1.3Z"/>
</svg>