<?xml version="1.0" encoding="UTF-8"?>
<svg id="_レイヤー_2" data-name="レイヤー 2" xmlns="http://www.w3.org/2000/svg" viewBox="0 0 225.69 172.62">
  <defs>
    <style>
      .cls-1 {
        fill: #fff;
      }

      .cls-2 {
        stroke-linecap: round;
        stroke-linejoin: round;
        stroke-width: 13px;
      }

      .cls-2, .cls-3 {
        fill: none;
        stroke: #323232;
      }

      .cls-3 {
        stroke-miterlimit: 10;
        stroke-width: 7px;
      }
    </style>
  </defs>
  <g id="_レイヤー_1-2" data-name="レイヤー 1">
    <g>
      <path class="cls-2" d="M92.41,113.66v-.17s-44.69-15.5-44.69-15.5c-4.82-1.76-10.15.71-11.92,5.52-1.76,4.82.71,10.15,5.53,11.92l28.86,9.65-1.98,5.38-28.81-9.8c-6.02-2.22-9.75-7.9-9.75-13.96,0-1.7.3-3.44.91-5.11h0c1.96-5.33,6.64-8.86,11.9-9.59l-10.27-43.21c-1.54-7.01-8.47-11.45-15.49-9.91-7.01,1.55-11.45,8.48-9.9,15.49l17.19,71.81c1.07,4.86,4.78,12.37,9.62,13.55l25.67,11.83v14.55h41.8v-40.24c0-5.56-3.53-10.39-8.68-12.21ZM208.98,38.89c-7.01-1.54-13.95,2.89-15.49,9.91l-10.27,43.21c5.26.74,9.94,4.27,11.9,9.59h0c.61,1.68.91,3.41.91,5.11,0,6.06-3.73,11.74-9.75,13.96l-28.81,9.8-1.98-5.38,28.86-9.65c4.82-1.76,7.29-7.1,5.53-11.92-1.77-4.81-7.1-7.29-11.92-5.52l-44.7,15.5v.17c-5.14,1.82-8.67,6.65-8.67,12.21v40.24h41.8v-14.55l25.67-11.83c4.84-1.18,8.55-8.69,9.62-13.55l17.19-71.81c1.55-7.01-2.89-13.95-9.9-15.49Z"/>
      <path class="cls-1" d="M92.41,113.66v-.17s-44.69-15.5-44.69-15.5c-4.82-1.76-10.15.71-11.92,5.52-1.76,4.82.71,10.15,5.53,11.92l28.86,9.65-1.98,5.38-28.81-9.8c-6.02-2.22-9.75-7.9-9.75-13.96,0-1.7.3-3.44.91-5.11h0c1.96-5.33,6.64-8.86,11.9-9.59l-10.27-43.21c-1.54-7.01-8.47-11.45-15.49-9.91-7.01,1.55-11.45,8.48-9.9,15.49l17.19,71.81c1.07,4.86,4.78,12.37,9.62,13.55l25.67,11.83v14.55h41.8v-40.24c0-5.56-3.53-10.39-8.68-12.21ZM208.98,38.89c-7.01-1.54-13.95,2.89-15.49,9.91l-10.27,43.21c5.26.74,9.94,4.27,11.9,9.59h0c.61,1.68.91,3.41.91,5.11,0,6.06-3.73,11.74-9.75,13.96l-28.81,9.8-1.98-5.38,28.86-9.65c4.82-1.76,7.29-7.1,5.53-11.92-1.77-4.81-7.1-7.29-11.92-5.52l-44.7,15.5v.17c-5.14,1.82-8.67,6.65-8.67,12.21v40.24h41.8v-14.55l25.67-11.83c4.84-1.18,8.55-8.69,9.62-13.55l17.19-71.81c1.55-7.01-2.89-13.95-9.9-15.49Z"/>
      <path class="cls-3" d="M166.75,26.53c-2.78-17.17-17.18-21.88-21.69-22.67-5.97-1.05-15.59,0-23.22,5.89-5.93,4.57-9,8.47-9,8.47,0,0-3.07-3.89-9-8.47-7.63-5.89-17.25-6.94-23.22-5.89-4.51.8-18.9,5.5-21.69,22.67-3.2,19.74,8.83,33.28,28.67,50.69,10.87,9.54,25.24,20.89,25.24,20.89,0,0,14.37-11.35,25.24-20.89,19.83-17.4,31.86-30.95,28.67-50.69Z"/>
    </g>
  </g>
</svg>